%TF.GenerationSoftware,KiCad,Pcbnew,8.0.4*%
%TF.CreationDate,2024-08-13T15:14:42+02:00*%
%TF.ProjectId,SD Card Read Data,53442043-6172-4642-9052-656164204461,V0*%
%TF.SameCoordinates,PX54c81a0PY37b6b20*%
%TF.FileFunction,Copper,L1,Top*%
%TF.FilePolarity,Positive*%
%FSLAX46Y46*%
G04 Gerber Fmt 4.6, Leading zero omitted, Abs format (unit mm)*
G04 Created by KiCad (PCBNEW 8.0.4) date 2024-08-13 15:14:42*
%MOMM*%
%LPD*%
G01*
G04 APERTURE LIST*
G04 Aperture macros list*
%AMRoundRect*
0 Rectangle with rounded corners*
0 $1 Rounding radius*
0 $2 $3 $4 $5 $6 $7 $8 $9 X,Y pos of 4 corners*
0 Add a 4 corners polygon primitive as box body*
4,1,4,$2,$3,$4,$5,$6,$7,$8,$9,$2,$3,0*
0 Add four circle primitives for the rounded corners*
1,1,$1+$1,$2,$3*
1,1,$1+$1,$4,$5*
1,1,$1+$1,$6,$7*
1,1,$1+$1,$8,$9*
0 Add four rect primitives between the rounded corners*
20,1,$1+$1,$2,$3,$4,$5,0*
20,1,$1+$1,$4,$5,$6,$7,0*
20,1,$1+$1,$6,$7,$8,$9,0*
20,1,$1+$1,$8,$9,$2,$3,0*%
G04 Aperture macros list end*
%TA.AperFunction,SMDPad,CuDef*%
%ADD10RoundRect,0.250000X-0.250000X-0.475000X0.250000X-0.475000X0.250000X0.475000X-0.250000X0.475000X0*%
%TD*%
%TA.AperFunction,SMDPad,CuDef*%
%ADD11RoundRect,0.250000X0.250000X0.475000X-0.250000X0.475000X-0.250000X-0.475000X0.250000X-0.475000X0*%
%TD*%
%TA.AperFunction,ComponentPad*%
%ADD12RoundRect,0.400000X-0.400000X-0.400000X0.400000X-0.400000X0.400000X0.400000X-0.400000X0.400000X0*%
%TD*%
%TA.AperFunction,ComponentPad*%
%ADD13O,1.600000X1.600000*%
%TD*%
%TA.AperFunction,ComponentPad*%
%ADD14R,1.600000X1.600000*%
%TD*%
%TA.AperFunction,SMDPad,CuDef*%
%ADD15R,1.800000X0.430000*%
%TD*%
%TA.AperFunction,SMDPad,CuDef*%
%ADD16RoundRect,0.250000X0.475000X-0.250000X0.475000X0.250000X-0.475000X0.250000X-0.475000X-0.250000X0*%
%TD*%
%TA.AperFunction,SMDPad,CuDef*%
%ADD17R,1.150000X0.600000*%
%TD*%
%TA.AperFunction,ViaPad*%
%ADD18C,0.800000*%
%TD*%
%TA.AperFunction,Conductor*%
%ADD19C,0.200000*%
%TD*%
%TA.AperFunction,Conductor*%
%ADD20C,0.380000*%
%TD*%
G04 APERTURE END LIST*
D10*
%TO.P,C1,1*%
%TO.N,/3.3V*%
X4146000Y-23241000D03*
%TO.P,C1,2*%
%TO.N,GND*%
X6046000Y-23241000D03*
%TD*%
D11*
%TO.P,C4,1*%
%TO.N,/3.3V*%
X11475000Y-4572000D03*
%TO.P,C4,2*%
%TO.N,GND*%
X9575000Y-4572000D03*
%TD*%
D12*
%TO.P,J1,1,Pin_1*%
%TO.N,5V*%
X0Y0D03*
D13*
%TO.P,J1,2,Pin_2*%
%TO.N,unconnected-(J1-Pin_2-Pad2)*%
X0Y-2540000D03*
%TO.P,J1,3,Pin_3*%
%TO.N,First CLK*%
X0Y-5080000D03*
D14*
%TO.P,J1,4,Pin_4*%
%TO.N,GND*%
X0Y-7620000D03*
D13*
%TO.P,J1,5,Pin_5*%
%TO.N,DAT3*%
X0Y-10160000D03*
%TO.P,J1,6,Pin_6*%
%TO.N,DAT2*%
X0Y-12700000D03*
%TO.P,J1,7,Pin_7*%
%TO.N,DAT1*%
X0Y-15240000D03*
%TO.P,J1,8,Pin_8*%
%TO.N,DAT0*%
X0Y-17780000D03*
D14*
%TO.P,J1,9,Pin_9*%
%TO.N,GND*%
X0Y-20320000D03*
D13*
%TO.P,J1,10,Pin_10*%
%TO.N,Second CLK*%
X0Y-22860000D03*
%TO.P,J1,11,Pin_11*%
%TO.N,unconnected-(J1-Pin_11-Pad11)*%
X0Y-25400000D03*
%TO.P,J1,12,Pin_12*%
%TO.N,unconnected-(J1-Pin_12-Pad12)*%
X0Y-27940000D03*
D12*
%TO.P,J1,13,Pin_13*%
%TO.N,5V*%
X15240000Y-27940000D03*
D13*
%TO.P,J1,14,Pin_14*%
%TO.N,MD0*%
X15240000Y-25400000D03*
%TO.P,J1,15,Pin_15*%
%TO.N,MD1*%
X15240000Y-22860000D03*
D14*
%TO.P,J1,16,Pin_16*%
%TO.N,GND*%
X15240000Y-20320000D03*
D13*
%TO.P,J1,17,Pin_17*%
%TO.N,MD2*%
X15240000Y-17780000D03*
%TO.P,J1,18,Pin_18*%
%TO.N,MD3*%
X15240000Y-15240000D03*
%TO.P,J1,19,Pin_19*%
%TO.N,MD4*%
X15240000Y-12700000D03*
%TO.P,J1,20,Pin_20*%
%TO.N,MD5*%
X15240000Y-10160000D03*
D14*
%TO.P,J1,21,Pin_21*%
%TO.N,GND*%
X15240000Y-7620000D03*
D13*
%TO.P,J1,22,Pin_22*%
%TO.N,MD6*%
X15240000Y-5080000D03*
%TO.P,J1,23,Pin_23*%
%TO.N,MD7*%
X15240000Y-2540000D03*
%TO.P,J1,24,Pin_24*%
%TO.N,unconnected-(J1-Pin_24-Pad24)*%
X15240000Y0D03*
%TD*%
D15*
%TO.P,IC2,1,1~{OE}*%
%TO.N,GND*%
X12448000Y-21208000D03*
%TO.P,IC2,2,1Q0*%
%TO.N,MD0*%
X12448000Y-20574000D03*
%TO.P,IC2,3,1Q1*%
%TO.N,MD1*%
X12448000Y-19938000D03*
%TO.P,IC2,4,GND*%
%TO.N,GND*%
X12447999Y-19304000D03*
%TO.P,IC2,5,1Q2*%
%TO.N,MD2*%
X12447999Y-18668000D03*
%TO.P,IC2,6,1Q3*%
%TO.N,MD3*%
X12448000Y-18034000D03*
%TO.P,IC2,7,3V*%
%TO.N,/3.3V*%
X12448000Y-17398000D03*
%TO.P,IC2,8,1Q4*%
%TO.N,unconnected-(IC2-1Q4-Pad8)*%
X12448000Y-16764000D03*
%TO.P,IC2,9,1Q5*%
%TO.N,unconnected-(IC2-1Q5-Pad9)*%
X12448000Y-16128000D03*
%TO.P,IC2,10,GND*%
%TO.N,GND*%
X12447999Y-15494000D03*
%TO.P,IC2,11,1Q6*%
%TO.N,unconnected-(IC2-1Q6-Pad11)*%
X12448000Y-14858000D03*
%TO.P,IC2,12,1Q7*%
%TO.N,unconnected-(IC2-1Q7-Pad12)*%
X12448000Y-14224000D03*
%TO.P,IC2,13,2Q0*%
%TO.N,MD4*%
X12448000Y-13588000D03*
%TO.P,IC2,14,2Q1*%
%TO.N,MD5*%
X12448000Y-12954000D03*
%TO.P,IC2,15,GND*%
%TO.N,GND*%
X12447999Y-12318000D03*
%TO.P,IC2,16,2Q2*%
%TO.N,MD6*%
X12448000Y-11684000D03*
%TO.P,IC2,17,2Q3*%
%TO.N,MD7*%
X12448000Y-11048000D03*
%TO.P,IC2,18,3V*%
%TO.N,/3.3V*%
X12448000Y-10414000D03*
%TO.P,IC2,19,2Q4*%
%TO.N,unconnected-(IC2-2Q4-Pad19)*%
X12448000Y-9778000D03*
%TO.P,IC2,20,2Q5*%
%TO.N,unconnected-(IC2-2Q5-Pad20)*%
X12447999Y-9144000D03*
%TO.P,IC2,21,GND*%
%TO.N,GND*%
X12447999Y-8508000D03*
%TO.P,IC2,22,2Q6*%
%TO.N,unconnected-(IC2-2Q6-Pad22)*%
X12448000Y-7874000D03*
%TO.P,IC2,23,2Q7*%
%TO.N,unconnected-(IC2-2Q7-Pad23)*%
X12448000Y-7238000D03*
%TO.P,IC2,24,2~{OE}*%
%TO.N,GND*%
X12448000Y-6604000D03*
%TO.P,IC2,25,2CP*%
%TO.N,First CLK*%
X3048000Y-6604000D03*
%TO.P,IC2,26,2D7*%
%TO.N,GND*%
X3048000Y-7238000D03*
%TO.P,IC2,27,2D6*%
X3048000Y-7874000D03*
%TO.P,IC2,28,GND*%
X3048001Y-8508000D03*
%TO.P,IC2,29,2D5*%
X3048001Y-9144000D03*
%TO.P,IC2,30,2D4*%
X3048000Y-9778000D03*
%TO.P,IC2,31,3V*%
%TO.N,/3.3V*%
X3048000Y-10414000D03*
%TO.P,IC2,32,2D3*%
%TO.N,DAT3*%
X3048000Y-11048000D03*
%TO.P,IC2,33,2D2*%
%TO.N,DAT2*%
X3048000Y-11684000D03*
%TO.P,IC2,34,GND*%
%TO.N,GND*%
X3048001Y-12318000D03*
%TO.P,IC2,35,2D1*%
%TO.N,DAT1*%
X3048000Y-12954000D03*
%TO.P,IC2,36,2D0*%
%TO.N,DAT0*%
X3048000Y-13588000D03*
%TO.P,IC2,37,1D7*%
%TO.N,GND*%
X3048000Y-14224000D03*
%TO.P,IC2,38,1D6*%
X3048000Y-14858000D03*
%TO.P,IC2,39,GND*%
X3048001Y-15494000D03*
%TO.P,IC2,40,1D5*%
X3048000Y-16128000D03*
%TO.P,IC2,41,1D4*%
X3048000Y-16764000D03*
%TO.P,IC2,42,3V*%
%TO.N,/3.3V*%
X3048000Y-17398000D03*
%TO.P,IC2,43,1D3*%
%TO.N,DAT3*%
X3048000Y-18034000D03*
%TO.P,IC2,44,1D2*%
%TO.N,DAT2*%
X3048001Y-18668000D03*
%TO.P,IC2,45,GND*%
%TO.N,GND*%
X3048001Y-19304000D03*
%TO.P,IC2,46,1D1*%
%TO.N,DAT1*%
X3048000Y-19938000D03*
%TO.P,IC2,47,1D0*%
%TO.N,DAT0*%
X3048000Y-20574000D03*
%TO.P,IC2,48,1CP*%
%TO.N,Second CLK*%
X3048000Y-21208000D03*
%TD*%
D16*
%TO.P,C11,1*%
%TO.N,/3.3V*%
X11333000Y-27792000D03*
%TO.P,C11,2*%
%TO.N,GND*%
X11333000Y-25892000D03*
%TD*%
D17*
%TO.P,IC1,1,6VIn*%
%TO.N,5V*%
X6477000Y-25908000D03*
%TO.P,IC1,2,GND*%
%TO.N,GND*%
X6477000Y-26858000D03*
%TO.P,IC1,3,EN*%
%TO.N,5V*%
X6477000Y-27808000D03*
%TO.P,IC1,4,ADJ*%
%TO.N,unconnected-(IC1-ADJ-Pad4)*%
X9077000Y-27808000D03*
%TO.P,IC1,5,3.3VOut*%
%TO.N,/3.3V*%
X9077000Y-25908000D03*
%TD*%
D16*
%TO.P,C10,1*%
%TO.N,5V*%
X4259000Y-27742000D03*
%TO.P,C10,2*%
%TO.N,GND*%
X4259000Y-25842000D03*
%TD*%
D18*
%TO.N,/3.3V*%
X10802000Y-4572000D03*
X11119503Y-10412990D03*
X11119512Y-17399001D03*
X4439625Y-17326655D03*
X11430000Y-26992000D03*
X4723867Y-10298000D03*
X3937000Y-23876000D03*
%TO.N,GND*%
X10160000Y-21209000D03*
X12446000Y-22098000D03*
X10160000Y-15494000D03*
X9271000Y-8509000D03*
X5715004Y-15620992D03*
X5588000Y-8508000D03*
X4953000Y-26543000D03*
X5207000Y-19188000D03*
X11049000Y-8508000D03*
X10160000Y-12318000D03*
X5576790Y-12331000D03*
X10287000Y-24892000D03*
X5207000Y-21971000D03*
%TO.N,5V*%
X2413000Y-27813000D03*
%TO.N,DAT3*%
X6119625Y-17604000D03*
X6428000Y-10784195D03*
%TO.N,DAT1*%
X8079525Y-13171000D03*
X8426499Y-20028000D03*
%TO.N,DAT0*%
X7724658Y-14159218D03*
X7493000Y-20778000D03*
%TO.N,DAT2*%
X7227000Y-11530507D03*
X6788787Y-18348000D03*
%TD*%
D19*
%TO.N,MD5*%
X13468000Y-12954000D02*
X13843000Y-12579000D01*
X13843000Y-12579000D02*
X13843000Y-11954686D01*
X12448000Y-12954000D02*
X13468000Y-12954000D01*
X13843000Y-11954686D02*
X15240000Y-10557686D01*
%TO.N,MD3*%
X13970000Y-17612000D02*
X13970000Y-16510000D01*
X13970000Y-16510000D02*
X15240000Y-15240000D01*
X13548000Y-18034000D02*
X13970000Y-17612000D01*
X12448000Y-18034000D02*
X13548000Y-18034000D01*
%TO.N,DAT1*%
X8336499Y-19938000D02*
X8426499Y-20028000D01*
X3048000Y-19938000D02*
X8336499Y-19938000D01*
%TO.N,DAT0*%
X3048000Y-20574000D02*
X7289000Y-20574000D01*
X7289000Y-20574000D02*
X7493000Y-20778000D01*
D20*
%TO.N,GND*%
X11051999Y-19188000D02*
X11167999Y-19304000D01*
X5207000Y-19188000D02*
X11051999Y-19188000D01*
D19*
%TO.N,DAT2*%
X4301493Y-11530507D02*
X7227000Y-11530507D01*
X3048000Y-11684000D02*
X4148000Y-11684000D01*
X4148000Y-11684000D02*
X4301493Y-11530507D01*
D20*
%TO.N,GND*%
X10147000Y-12331000D02*
X10160000Y-12318000D01*
X5576790Y-12331000D02*
X10147000Y-12331000D01*
D19*
%TO.N,DAT0*%
X7153440Y-13588000D02*
X7724658Y-14159218D01*
%TO.N,DAT1*%
X7989525Y-13081000D02*
X8079525Y-13171000D01*
X5163129Y-13081000D02*
X7989525Y-13081000D01*
%TO.N,DAT0*%
X3048000Y-13588000D02*
X7153440Y-13588000D01*
%TO.N,DAT1*%
X5036129Y-12954000D02*
X5163129Y-13081000D01*
X3048000Y-12954000D02*
X5036129Y-12954000D01*
D20*
%TO.N,/3.3V*%
X5002280Y-16764000D02*
X4439625Y-17326655D01*
X12448000Y-10414000D02*
X7245745Y-10414000D01*
X12448000Y-17398000D02*
X7166718Y-17398000D01*
X7934000Y-24765000D02*
X9077000Y-25908000D01*
X5980452Y-9944195D02*
X5626647Y-10298000D01*
X4908000Y-24765000D02*
X7934000Y-24765000D01*
X3937000Y-23450000D02*
X3937000Y-23876000D01*
X11333000Y-27089000D02*
X11430000Y-26992000D01*
X4368280Y-17398000D02*
X4439625Y-17326655D01*
X3048000Y-17398000D02*
X4368280Y-17398000D01*
X5626647Y-10298000D02*
X4723867Y-10298000D01*
X6775940Y-9944195D02*
X5980452Y-9944195D01*
X3048000Y-10414000D02*
X4607867Y-10414000D01*
X10961000Y-27792000D02*
X9077000Y-25908000D01*
X3937000Y-23876000D02*
X4019000Y-23876000D01*
X4019000Y-23876000D02*
X4908000Y-24765000D01*
X6532718Y-16764000D02*
X5002280Y-16764000D01*
X7245745Y-10414000D02*
X6775940Y-9944195D01*
X4607867Y-10414000D02*
X4723867Y-10298000D01*
X11333000Y-27792000D02*
X11333000Y-27089000D01*
X7166718Y-17398000D02*
X6532718Y-16764000D01*
%TO.N,GND*%
X11167000Y-21209000D02*
X10160000Y-21209000D01*
X3048001Y-15494000D02*
X5588012Y-15494000D01*
X9271000Y-8509000D02*
X9271000Y-8001000D01*
X9271000Y-8001000D02*
X10668000Y-6604000D01*
X11168000Y-21208000D02*
X12448000Y-21208000D01*
X5563790Y-12318000D02*
X5576790Y-12331000D01*
X4953000Y-26543000D02*
X4953000Y-26536000D01*
X12448000Y-22096000D02*
X12446000Y-22098000D01*
X10668000Y-6604000D02*
X12448000Y-6604000D01*
X5207000Y-21971000D02*
X3778976Y-21971000D01*
X3048001Y-8508000D02*
X3048001Y-9144000D01*
X9575000Y-4572000D02*
X9575000Y-5511000D01*
X3048001Y-19304000D02*
X5091000Y-19304000D01*
X10033008Y-15620992D02*
X10160000Y-15494000D01*
X3048000Y-16128000D02*
X3048000Y-15494001D01*
X3048000Y-14224000D02*
X3048000Y-14858000D01*
X9272000Y-8508000D02*
X12447999Y-8508000D01*
X9270000Y-8508000D02*
X9271000Y-8509000D01*
X3048000Y-25527000D02*
X3363000Y-25842000D01*
X3048001Y-15494000D02*
X3048001Y-14858001D01*
X11287000Y-25892000D02*
X10287000Y-24892000D01*
X4960000Y-26543000D02*
X4953000Y-26543000D01*
X5091000Y-19304000D02*
X5207000Y-19188000D01*
X3048001Y-12318000D02*
X5563790Y-12318000D01*
X11167999Y-19304000D02*
X11158000Y-19313999D01*
X11158000Y-19313999D02*
X11158000Y-21198000D01*
X5588012Y-15494000D02*
X5715004Y-15620992D01*
X12448000Y-21208000D02*
X12448000Y-22096000D01*
X4953000Y-26536000D02*
X4259000Y-25842000D01*
X5588000Y-8508000D02*
X9270000Y-8508000D01*
X5275000Y-26858000D02*
X4960000Y-26543000D01*
X3048001Y-9144000D02*
X3048001Y-9777999D01*
X3363000Y-25842000D02*
X4259000Y-25842000D01*
X5715004Y-15620992D02*
X10033008Y-15620992D01*
X9271000Y-8509000D02*
X9272000Y-8508000D01*
X1016000Y-19304000D02*
X3048001Y-19304000D01*
X3778976Y-21971000D02*
X3048000Y-22701976D01*
X3048001Y-8508000D02*
X5588000Y-8508000D01*
X3048000Y-7238000D02*
X3048000Y-7874000D01*
X3048000Y-7874000D02*
X3048000Y-8507999D01*
X3048000Y-22701976D02*
X3048000Y-25527000D01*
X0Y-7620000D02*
X1270000Y-7620000D01*
X1270000Y-7620000D02*
X1524000Y-7874000D01*
X3048000Y-16764000D02*
X3048000Y-16128000D01*
X6046000Y-22810000D02*
X5207000Y-21971000D01*
X11158000Y-21198000D02*
X11168000Y-21208000D01*
X3048000Y-7874000D02*
X1524000Y-7874000D01*
X0Y-20320000D02*
X1016000Y-19304000D01*
X11167999Y-19304000D02*
X12447999Y-19304000D01*
X6477000Y-26858000D02*
X5275000Y-26858000D01*
X12447999Y-15494000D02*
X10160000Y-15494000D01*
X10160000Y-12318000D02*
X12447999Y-12318000D01*
X9575000Y-5511000D02*
X10591000Y-6527000D01*
X11168000Y-21208000D02*
X11167000Y-21209000D01*
%TO.N,5V*%
X6477000Y-25908000D02*
X7432000Y-25908000D01*
X6477000Y-27808000D02*
X4325000Y-27808000D01*
X2484000Y-27742000D02*
X2413000Y-27813000D01*
X15240000Y-27940000D02*
X13716000Y-29464000D01*
X7432000Y-27808000D02*
X6477000Y-27808000D01*
X7442000Y-25918000D02*
X7442000Y-27798000D01*
X4953000Y-29464000D02*
X4259000Y-28770000D01*
X4259000Y-28770000D02*
X4259000Y-27742000D01*
X7432000Y-25908000D02*
X7442000Y-25918000D01*
X4259000Y-27742000D02*
X2484000Y-27742000D01*
X13716000Y-29464000D02*
X4953000Y-29464000D01*
X7442000Y-27798000D02*
X7432000Y-27808000D01*
D19*
%TO.N,DAT3*%
X3048000Y-11048000D02*
X6164195Y-11048000D01*
X3048000Y-18034000D02*
X5689625Y-18034000D01*
X888000Y-11048000D02*
X3048000Y-11048000D01*
X6164195Y-11048000D02*
X6428000Y-10784195D01*
X0Y-10160000D02*
X888000Y-11048000D01*
X5689625Y-18034000D02*
X6119625Y-17604000D01*
%TO.N,MD6*%
X14140000Y-11092000D02*
X14140000Y-6180000D01*
X13548000Y-11684000D02*
X14140000Y-11092000D01*
X14140000Y-6180000D02*
X15240000Y-5080000D01*
X12448000Y-11684000D02*
X13548000Y-11684000D01*
%TO.N,MD7*%
X12448000Y-11048000D02*
X13548000Y-11048000D01*
X13740000Y-4040000D02*
X15240000Y-2540000D01*
X13548000Y-11048000D02*
X13740000Y-10856000D01*
X13740000Y-10856000D02*
X13740000Y-4040000D01*
%TO.N,DAT1*%
X0Y-14921000D02*
X1967000Y-12954000D01*
X1967000Y-12954000D02*
X3048000Y-12954000D01*
%TO.N,DAT0*%
X0Y-17780000D02*
X1524000Y-16256000D01*
X1524000Y-16256000D02*
X1524000Y-14033000D01*
X1524000Y-14033000D02*
X1969000Y-13588000D01*
X1969000Y-13588000D02*
X3048000Y-13588000D01*
%TO.N,MD2*%
X12447999Y-18668000D02*
X14352000Y-18668000D01*
X14352000Y-18668000D02*
X15240000Y-17780000D01*
%TO.N,First CLK*%
X1524000Y-6604000D02*
X3048000Y-6604000D01*
X0Y-5080000D02*
X1524000Y-6604000D01*
%TO.N,MD0*%
X12448000Y-20574000D02*
X13548000Y-20574000D01*
X13548000Y-20574000D02*
X13648000Y-20674000D01*
X13648000Y-20674000D02*
X13648000Y-23808000D01*
X13648000Y-23808000D02*
X15240000Y-25400000D01*
%TO.N,MD1*%
X13548000Y-19938000D02*
X14097000Y-20487000D01*
X12448000Y-19938000D02*
X13548000Y-19938000D01*
X14097000Y-21717000D02*
X15240000Y-22860000D01*
X14097000Y-20487000D02*
X14097000Y-21717000D01*
%TO.N,Second CLK*%
X254000Y-22860000D02*
X1906000Y-21208000D01*
X1906000Y-21208000D02*
X3048000Y-21208000D01*
%TO.N,DAT2*%
X4666339Y-18668000D02*
X4896339Y-18438000D01*
X6698787Y-18438000D02*
X6788787Y-18348000D01*
X3048001Y-18668000D02*
X4666339Y-18668000D01*
X4896339Y-18438000D02*
X6698787Y-18438000D01*
X1016000Y-11684000D02*
X3048000Y-11684000D01*
X0Y-12700000D02*
X1016000Y-11684000D01*
%TO.N,MD4*%
X14352000Y-13588000D02*
X15240000Y-12700000D01*
X12448000Y-13588000D02*
X14352000Y-13588000D01*
%TD*%
%TA.AperFunction,Conductor*%
%TO.N,GND*%
G36*
X1524000Y-6108318D02*
G01*
X1010191Y-5594509D01*
X976706Y-5533186D01*
X979210Y-5470837D01*
X1035300Y-5285934D01*
X1055583Y-5080000D01*
X1035300Y-4874066D01*
X975232Y-4676046D01*
X877685Y-4493550D01*
X825702Y-4430209D01*
X746410Y-4333589D01*
X586452Y-4202317D01*
X586453Y-4202317D01*
X586450Y-4202315D01*
X403954Y-4104768D01*
X205934Y-4044700D01*
X205932Y-4044699D01*
X205934Y-4044699D01*
X0Y-4024417D01*
X-205933Y-4044699D01*
X-403957Y-4104769D01*
X-514102Y-4163643D01*
X-586450Y-4202315D01*
X-586452Y-4202316D01*
X-586453Y-4202317D01*
X-746411Y-4333589D01*
X-877683Y-4493547D01*
X-975231Y-4676043D01*
X-1035301Y-4874067D01*
X-1055583Y-5080000D01*
X-1035301Y-5285932D01*
X-1035300Y-5285934D01*
X-975232Y-5483954D01*
X-877685Y-5666450D01*
X-877683Y-5666452D01*
X-746411Y-5826410D01*
X-649791Y-5905702D01*
X-586450Y-5957685D01*
X-403954Y-6055232D01*
X-205934Y-6115300D01*
X-205935Y-6115300D01*
X-187471Y-6117118D01*
X0Y-6135583D01*
X205934Y-6115300D01*
X390836Y-6059210D01*
X460699Y-6058588D01*
X514509Y-6090191D01*
X1308787Y-6884469D01*
X1388712Y-6930614D01*
X1477856Y-6954500D01*
X1477858Y-6954500D01*
X1524000Y-6954500D01*
X1524000Y-10697500D01*
X1101916Y-10697500D01*
X1034877Y-10677815D01*
X989122Y-10625011D01*
X979178Y-10555853D01*
X983255Y-10537505D01*
X1035300Y-10365934D01*
X1055583Y-10160000D01*
X1035300Y-9954066D01*
X975232Y-9756046D01*
X877685Y-9573550D01*
X825702Y-9510209D01*
X746410Y-9413589D01*
X586452Y-9282317D01*
X586453Y-9282317D01*
X586450Y-9282315D01*
X403954Y-9184768D01*
X205934Y-9124700D01*
X205932Y-9124699D01*
X205934Y-9124699D01*
X0Y-9104417D01*
X-205933Y-9124699D01*
X-403957Y-9184769D01*
X-514102Y-9243643D01*
X-586450Y-9282315D01*
X-586452Y-9282316D01*
X-586453Y-9282317D01*
X-746411Y-9413589D01*
X-877683Y-9573547D01*
X-975231Y-9756043D01*
X-1035301Y-9954067D01*
X-1055583Y-10160000D01*
X-1035301Y-10365932D01*
X-1035300Y-10365934D01*
X-975232Y-10563954D01*
X-877685Y-10746450D01*
X-877683Y-10746452D01*
X-746411Y-10906410D01*
X-649791Y-10985702D01*
X-586450Y-11037685D01*
X-403954Y-11135232D01*
X-205934Y-11195300D01*
X-205935Y-11195300D01*
X-187471Y-11197118D01*
X0Y-11215583D01*
X205934Y-11195300D01*
X390836Y-11139210D01*
X460699Y-11138588D01*
X514509Y-11170191D01*
X672787Y-11328469D01*
X675514Y-11330562D01*
X677228Y-11332910D01*
X678535Y-11334217D01*
X678331Y-11334420D01*
X716713Y-11386992D01*
X720863Y-11456739D01*
X687702Y-11516614D01*
X514508Y-11689808D01*
X453185Y-11723293D01*
X390833Y-11720788D01*
X205934Y-11664700D01*
X205932Y-11664699D01*
X205934Y-11664699D01*
X0Y-11644417D01*
X-205933Y-11664699D01*
X-381308Y-11717898D01*
X-399091Y-11723293D01*
X-403957Y-11724769D01*
X-514102Y-11783643D01*
X-586450Y-11822315D01*
X-586452Y-11822316D01*
X-586453Y-11822317D01*
X-746411Y-11953589D01*
X-877683Y-12113547D01*
X-975231Y-12296043D01*
X-1035301Y-12494067D01*
X-1055583Y-12700000D01*
X-1035301Y-12905932D01*
X-1035300Y-12905934D01*
X-975232Y-13103954D01*
X-877685Y-13286450D01*
X-877683Y-13286452D01*
X-746411Y-13446410D01*
X-649791Y-13525702D01*
X-586450Y-13577685D01*
X-403954Y-13675232D01*
X-205934Y-13735300D01*
X-205935Y-13735300D01*
X-187471Y-13737118D01*
X0Y-13755583D01*
X205934Y-13735300D01*
X403954Y-13675232D01*
X410302Y-13671838D01*
X478703Y-13657593D01*
X543948Y-13682590D01*
X585321Y-13738892D01*
X589688Y-13808626D01*
X556441Y-13868875D01*
X260770Y-14164546D01*
X199447Y-14198031D01*
X160935Y-14200267D01*
X0Y-14184417D01*
X-1Y-14184417D01*
X-205933Y-14204699D01*
X-403957Y-14264769D01*
X-514102Y-14323643D01*
X-586450Y-14362315D01*
X-586452Y-14362316D01*
X-586453Y-14362317D01*
X-746411Y-14493589D01*
X-877683Y-14653547D01*
X-975231Y-14836043D01*
X-1035301Y-15034067D01*
X-1055583Y-15240000D01*
X-1035301Y-15445932D01*
X-1035300Y-15445934D01*
X-975232Y-15643954D01*
X-877685Y-15826450D01*
X-877683Y-15826452D01*
X-746411Y-15986410D01*
X-657404Y-16059455D01*
X-586450Y-16117685D01*
X-403954Y-16215232D01*
X-205934Y-16275300D01*
X-205935Y-16275300D01*
X-187471Y-16277118D01*
X0Y-16295583D01*
X205934Y-16275300D01*
X403954Y-16215232D01*
X586450Y-16117685D01*
X746410Y-15986410D01*
X877685Y-15826450D01*
X940143Y-15709599D01*
X989105Y-15659757D01*
X1057242Y-15644297D01*
X1122922Y-15668129D01*
X1165291Y-15723687D01*
X1173500Y-15768055D01*
X1173500Y-16059455D01*
X1153815Y-16126494D01*
X1137181Y-16147136D01*
X514508Y-16769808D01*
X453185Y-16803293D01*
X390833Y-16800788D01*
X205934Y-16744700D01*
X205932Y-16744699D01*
X205934Y-16744699D01*
X0Y-16724417D01*
X-205933Y-16744699D01*
X-381308Y-16797898D01*
X-399091Y-16803293D01*
X-403957Y-16804769D01*
X-514102Y-16863643D01*
X-586450Y-16902315D01*
X-586452Y-16902316D01*
X-586453Y-16902317D01*
X-746411Y-17033589D01*
X-877683Y-17193547D01*
X-975231Y-17376043D01*
X-1035301Y-17574067D01*
X-1055583Y-17780000D01*
X-1035301Y-17985932D01*
X-1035300Y-17985934D01*
X-975232Y-18183954D01*
X-877685Y-18366450D01*
X-877683Y-18366452D01*
X-746411Y-18526410D01*
X-649791Y-18605702D01*
X-586450Y-18657685D01*
X-403954Y-18755232D01*
X-205934Y-18815300D01*
X-205935Y-18815300D01*
X-187471Y-18817118D01*
X0Y-18835583D01*
X205934Y-18815300D01*
X403954Y-18755232D01*
X586450Y-18657685D01*
X746410Y-18526410D01*
X877685Y-18366450D01*
X975232Y-18183954D01*
X1035300Y-17985934D01*
X1055583Y-17780000D01*
X1035300Y-17574066D01*
X979210Y-17389163D01*
X978588Y-17319298D01*
X1010189Y-17265491D01*
X1524000Y-16751681D01*
X1524000Y-21094316D01*
X683770Y-21934546D01*
X622447Y-21968031D01*
X552755Y-21963047D01*
X537639Y-21956225D01*
X403954Y-21884768D01*
X205934Y-21824700D01*
X205932Y-21824699D01*
X205934Y-21824699D01*
X0Y-21804417D01*
X-205933Y-21824699D01*
X-403957Y-21884769D01*
X-497081Y-21934546D01*
X-586450Y-21982315D01*
X-586452Y-21982316D01*
X-586453Y-21982317D01*
X-746411Y-22113589D01*
X-877683Y-22273547D01*
X-975231Y-22456043D01*
X-1035301Y-22654067D01*
X-1055583Y-22860000D01*
X-1035301Y-23065932D01*
X-1035300Y-23065934D01*
X-975232Y-23263954D01*
X-877685Y-23446450D01*
X-877683Y-23446452D01*
X-746411Y-23606410D01*
X-649791Y-23685702D01*
X-586450Y-23737685D01*
X-403954Y-23835232D01*
X-205934Y-23895300D01*
X-205935Y-23895300D01*
X-187471Y-23897118D01*
X0Y-23915583D01*
X205934Y-23895300D01*
X403954Y-23835232D01*
X586450Y-23737685D01*
X746410Y-23606410D01*
X877685Y-23446450D01*
X975232Y-23263954D01*
X1035300Y-23065934D01*
X1055583Y-22860000D01*
X1035300Y-22654066D01*
X1035010Y-22652608D01*
X1035079Y-22651828D01*
X1034703Y-22648004D01*
X1035428Y-22647932D01*
X1041237Y-22583016D01*
X1068944Y-22540737D01*
X1524000Y-22085681D01*
X1524000Y-30303232D01*
X839477Y-30303232D01*
X831992Y-30303006D01*
X558355Y-30286458D01*
X543490Y-30284653D01*
X277546Y-30235920D01*
X263006Y-30232337D01*
X4865Y-30151899D01*
X-9135Y-30146589D01*
X-255693Y-30035625D01*
X-268946Y-30028670D01*
X-500348Y-29888786D01*
X-512660Y-29880286D01*
X-725491Y-29713546D01*
X-736700Y-29703617D01*
X-927895Y-29512425D01*
X-937824Y-29501217D01*
X-1104569Y-29288385D01*
X-1113075Y-29276062D01*
X-1252958Y-29044671D01*
X-1259906Y-29031435D01*
X-1370889Y-28784842D01*
X-1376190Y-28770862D01*
X-1387622Y-28734177D01*
X-1456631Y-28512720D01*
X-1460213Y-28498187D01*
X-1508950Y-28232236D01*
X-1510755Y-28217372D01*
X-1527274Y-27944281D01*
X-1527403Y-27940000D01*
X-1055583Y-27940000D01*
X-1035301Y-28145932D01*
X-1035300Y-28145934D01*
X-975232Y-28343954D01*
X-877685Y-28526450D01*
X-877683Y-28526452D01*
X-746411Y-28686410D01*
X-649791Y-28765702D01*
X-586450Y-28817685D01*
X-403954Y-28915232D01*
X-205934Y-28975300D01*
X-205935Y-28975300D01*
X-187471Y-28977118D01*
X0Y-28995583D01*
X205934Y-28975300D01*
X403954Y-28915232D01*
X586450Y-28817685D01*
X746410Y-28686410D01*
X877685Y-28526450D01*
X975232Y-28343954D01*
X1035300Y-28145934D01*
X1055583Y-27940000D01*
X1035300Y-27734066D01*
X975232Y-27536046D01*
X877685Y-27353550D01*
X825702Y-27290209D01*
X746410Y-27193589D01*
X586452Y-27062317D01*
X586453Y-27062317D01*
X586450Y-27062315D01*
X403954Y-26964768D01*
X205934Y-26904700D01*
X205932Y-26904699D01*
X205934Y-26904699D01*
X0Y-26884417D01*
X-205933Y-26904699D01*
X-403957Y-26964769D01*
X-514102Y-27023643D01*
X-586450Y-27062315D01*
X-586452Y-27062316D01*
X-586453Y-27062317D01*
X-746411Y-27193589D01*
X-877683Y-27353547D01*
X-975231Y-27536043D01*
X-1035301Y-27734067D01*
X-1055583Y-27940000D01*
X-1527403Y-27940000D01*
X-1527500Y-27936794D01*
X-1527500Y-25400000D01*
X-1055583Y-25400000D01*
X-1035301Y-25605932D01*
X-1035300Y-25605934D01*
X-975232Y-25803954D01*
X-877685Y-25986450D01*
X-877683Y-25986452D01*
X-746411Y-26146410D01*
X-649791Y-26225702D01*
X-586450Y-26277685D01*
X-403954Y-26375232D01*
X-205934Y-26435300D01*
X-205935Y-26435300D01*
X-187471Y-26437118D01*
X0Y-26455583D01*
X205934Y-26435300D01*
X403954Y-26375232D01*
X586450Y-26277685D01*
X746410Y-26146410D01*
X877685Y-25986450D01*
X975232Y-25803954D01*
X1035300Y-25605934D01*
X1055583Y-25400000D01*
X1035300Y-25194066D01*
X975232Y-24996046D01*
X877685Y-24813550D01*
X825702Y-24750209D01*
X746410Y-24653589D01*
X586452Y-24522317D01*
X586453Y-24522317D01*
X586450Y-24522315D01*
X403954Y-24424768D01*
X205934Y-24364700D01*
X205932Y-24364699D01*
X205934Y-24364699D01*
X0Y-24344417D01*
X-205933Y-24364699D01*
X-403957Y-24424769D01*
X-514102Y-24483643D01*
X-586450Y-24522315D01*
X-586452Y-24522316D01*
X-586453Y-24522317D01*
X-746411Y-24653589D01*
X-877683Y-24813547D01*
X-975231Y-24996043D01*
X-1035301Y-25194067D01*
X-1055583Y-25400000D01*
X-1527500Y-25400000D01*
X-1527500Y-2540000D01*
X-1055583Y-2540000D01*
X-1035301Y-2745932D01*
X-1035300Y-2745934D01*
X-975232Y-2943954D01*
X-877685Y-3126450D01*
X-877683Y-3126452D01*
X-746411Y-3286410D01*
X-649791Y-3365702D01*
X-586450Y-3417685D01*
X-403954Y-3515232D01*
X-205934Y-3575300D01*
X-205935Y-3575300D01*
X-187471Y-3577118D01*
X0Y-3595583D01*
X205934Y-3575300D01*
X403954Y-3515232D01*
X586450Y-3417685D01*
X746410Y-3286410D01*
X877685Y-3126450D01*
X975232Y-2943954D01*
X1035300Y-2745934D01*
X1055583Y-2540000D01*
X1035300Y-2334066D01*
X975232Y-2136046D01*
X877685Y-1953550D01*
X825702Y-1890209D01*
X746410Y-1793589D01*
X586452Y-1662317D01*
X586453Y-1662317D01*
X586450Y-1662315D01*
X403954Y-1564768D01*
X205934Y-1504700D01*
X205932Y-1504699D01*
X205934Y-1504699D01*
X0Y-1484417D01*
X-205933Y-1504699D01*
X-403957Y-1564769D01*
X-514102Y-1623643D01*
X-586450Y-1662315D01*
X-586452Y-1662316D01*
X-586453Y-1662317D01*
X-746411Y-1793589D01*
X-877683Y-1953547D01*
X-975231Y-2136043D01*
X-1035301Y-2334067D01*
X-1055583Y-2540000D01*
X-1527500Y-2540000D01*
X-1527500Y-3750D01*
X-1527274Y3737D01*
X-1510722Y277369D01*
X-1508917Y292233D01*
X-1477128Y465702D01*
X-1050500Y465702D01*
X-1050500Y-465701D01*
X-1047599Y-502567D01*
X-1047598Y-502573D01*
X-1001746Y-660393D01*
X-1001745Y-660396D01*
X-918083Y-801862D01*
X-918077Y-801870D01*
X-801871Y-918076D01*
X-801867Y-918079D01*
X-801865Y-918081D01*
X-660398Y-1001744D01*
X-618776Y-1013836D01*
X-502574Y-1047597D01*
X-502571Y-1047597D01*
X-502569Y-1047598D01*
X-465694Y-1050500D01*
X-465686Y-1050500D01*
X465686Y-1050500D01*
X465694Y-1050500D01*
X502569Y-1047598D01*
X502571Y-1047597D01*
X502573Y-1047597D01*
X544191Y-1035505D01*
X660398Y-1001744D01*
X801865Y-918081D01*
X918081Y-801865D01*
X1001744Y-660398D01*
X1047598Y-502569D01*
X1050500Y-465694D01*
X1050500Y465694D01*
X1047598Y502569D01*
X1027217Y572719D01*
X1001745Y660394D01*
X1001744Y660397D01*
X1001744Y660398D01*
X918081Y801865D01*
X918079Y801867D01*
X918076Y801871D01*
X801870Y918077D01*
X801862Y918083D01*
X660396Y1001745D01*
X660393Y1001746D01*
X502573Y1047598D01*
X502567Y1047599D01*
X465701Y1050500D01*
X465694Y1050500D01*
X-465694Y1050500D01*
X-465702Y1050500D01*
X-502568Y1047599D01*
X-502574Y1047598D01*
X-660394Y1001746D01*
X-660397Y1001745D01*
X-801863Y918083D01*
X-801871Y918077D01*
X-918077Y801871D01*
X-918083Y801863D01*
X-1001745Y660397D01*
X-1001746Y660394D01*
X-1047598Y502574D01*
X-1047599Y502568D01*
X-1050500Y465702D01*
X-1477128Y465702D01*
X-1460180Y558184D01*
X-1456597Y572719D01*
X-1429275Y660397D01*
X-1376155Y830864D01*
X-1370856Y844836D01*
X-1259882Y1091409D01*
X-1252933Y1104650D01*
X-1113044Y1336051D01*
X-1104549Y1348359D01*
X-937793Y1561204D01*
X-927880Y1572394D01*
X-736675Y1763597D01*
X-725483Y1773512D01*
X-512629Y1940270D01*
X-500324Y1948763D01*
X-268924Y2088646D01*
X-255693Y2095590D01*
X-9118Y2206562D01*
X4875Y2211868D01*
X263017Y2292306D01*
X277554Y2295889D01*
X543499Y2344622D01*
X558353Y2346426D01*
X832521Y2363007D01*
X840006Y2363232D01*
X891005Y2363232D01*
X891262Y2363256D01*
X1524000Y2363521D01*
X1524000Y-6108318D01*
G37*
%TD.AperFunction*%
%TA.AperFunction,Conductor*%
G36*
X1524000Y-12901316D02*
G01*
X1168875Y-13256441D01*
X1107552Y-13289926D01*
X1037860Y-13284942D01*
X981927Y-13243070D01*
X957510Y-13177606D01*
X971839Y-13110301D01*
X975232Y-13103954D01*
X1035300Y-12905934D01*
X1055583Y-12700000D01*
X1035300Y-12494066D01*
X979210Y-12309163D01*
X978588Y-12239298D01*
X1010190Y-12185491D01*
X1124864Y-12070818D01*
X1186187Y-12037334D01*
X1212544Y-12034500D01*
X1524000Y-12034500D01*
X1524000Y-12901316D01*
G37*
%TD.AperFunction*%
%TD*%
%TA.AperFunction,Conductor*%
%TO.N,GND*%
G36*
X14348938Y2363257D02*
G01*
X14349201Y2363233D01*
X14360100Y2363233D01*
X14400525Y2363233D01*
X14408010Y2363007D01*
X14681647Y2346459D01*
X14696505Y2344655D01*
X14962460Y2295920D01*
X14976981Y2292341D01*
X15235136Y2211899D01*
X15249133Y2206590D01*
X15495692Y2095627D01*
X15508951Y2088668D01*
X15740336Y1948793D01*
X15752659Y1940287D01*
X15965490Y1773547D01*
X15976699Y1763618D01*
X16167894Y1572426D01*
X16177823Y1561218D01*
X16344568Y1348386D01*
X16353075Y1336062D01*
X16492955Y1104674D01*
X16499913Y1091416D01*
X16610881Y844860D01*
X16616191Y830858D01*
X16696627Y572730D01*
X16700211Y558192D01*
X16748949Y292238D01*
X16750754Y277373D01*
X16767273Y4301D01*
X16767499Y-3186D01*
X16767500Y-27895830D01*
X16767500Y-27936249D01*
X16767274Y-27943737D01*
X16750721Y-28217369D01*
X16748916Y-28232232D01*
X16700180Y-28498178D01*
X16696596Y-28512718D01*
X16616158Y-28770851D01*
X16610848Y-28784852D01*
X16499885Y-29031399D01*
X16492927Y-29044657D01*
X16353050Y-29276039D01*
X16344543Y-29288363D01*
X16177799Y-29501194D01*
X16167870Y-29512402D01*
X15976682Y-29703588D01*
X15965474Y-29713517D01*
X15752637Y-29880262D01*
X15740313Y-29888768D01*
X15508937Y-30028637D01*
X15495678Y-30035596D01*
X15249125Y-30146557D01*
X15235124Y-30151867D01*
X14976982Y-30232305D01*
X14962443Y-30235888D01*
X14696505Y-30284620D01*
X14681641Y-30286425D01*
X14433129Y-30301454D01*
X14407477Y-30303006D01*
X14399994Y-30303232D01*
X13716000Y-30303232D01*
X13716000Y-29904500D01*
X13773991Y-29904500D01*
X13773993Y-29904500D01*
X13886027Y-29874481D01*
X13986473Y-29816488D01*
X14776142Y-29026819D01*
X14837465Y-28993334D01*
X14863823Y-28990500D01*
X15705686Y-28990500D01*
X15705694Y-28990500D01*
X15742569Y-28987598D01*
X15742571Y-28987597D01*
X15742573Y-28987597D01*
X15784191Y-28975505D01*
X15900398Y-28941744D01*
X16041865Y-28858081D01*
X16158081Y-28741865D01*
X16241744Y-28600398D01*
X16287598Y-28442569D01*
X16290500Y-28405694D01*
X16290500Y-27474306D01*
X16287598Y-27437431D01*
X16241744Y-27279602D01*
X16158081Y-27138135D01*
X16158079Y-27138133D01*
X16158076Y-27138129D01*
X16041870Y-27021923D01*
X16041862Y-27021917D01*
X15900396Y-26938255D01*
X15900393Y-26938254D01*
X15742573Y-26892402D01*
X15742567Y-26892401D01*
X15705701Y-26889500D01*
X15705694Y-26889500D01*
X14774306Y-26889500D01*
X14774298Y-26889500D01*
X14737432Y-26892401D01*
X14737426Y-26892402D01*
X14579606Y-26938254D01*
X14579603Y-26938255D01*
X14438137Y-27021917D01*
X14438129Y-27021923D01*
X14321923Y-27138129D01*
X14321917Y-27138137D01*
X14238255Y-27279603D01*
X14238254Y-27279606D01*
X14192402Y-27437426D01*
X14192401Y-27437432D01*
X14189500Y-27474298D01*
X14189500Y-28316177D01*
X14169815Y-28383216D01*
X14153181Y-28403858D01*
X13716000Y-28841039D01*
X13716000Y-24371682D01*
X14229808Y-24885490D01*
X14263293Y-24946813D01*
X14260788Y-25009166D01*
X14204699Y-25194067D01*
X14184417Y-25400000D01*
X14204699Y-25605932D01*
X14204700Y-25605934D01*
X14264768Y-25803954D01*
X14362315Y-25986450D01*
X14362317Y-25986452D01*
X14493589Y-26146410D01*
X14590209Y-26225702D01*
X14653550Y-26277685D01*
X14836046Y-26375232D01*
X15034066Y-26435300D01*
X15034065Y-26435300D01*
X15052529Y-26437118D01*
X15240000Y-26455583D01*
X15445934Y-26435300D01*
X15643954Y-26375232D01*
X15826450Y-26277685D01*
X15986410Y-26146410D01*
X16117685Y-25986450D01*
X16215232Y-25803954D01*
X16275300Y-25605934D01*
X16295583Y-25400000D01*
X16275300Y-25194066D01*
X16215232Y-24996046D01*
X16117685Y-24813550D01*
X16065702Y-24750209D01*
X15986410Y-24653589D01*
X15826452Y-24522317D01*
X15826453Y-24522317D01*
X15826450Y-24522315D01*
X15643954Y-24424768D01*
X15445934Y-24364700D01*
X15445932Y-24364699D01*
X15445934Y-24364699D01*
X15240000Y-24344417D01*
X15034067Y-24364699D01*
X14849166Y-24420788D01*
X14779299Y-24421411D01*
X14725490Y-24389808D01*
X14034819Y-23699137D01*
X14001334Y-23637814D01*
X13998500Y-23611456D01*
X13998500Y-23222124D01*
X14018185Y-23155085D01*
X14070989Y-23109330D01*
X14140147Y-23099386D01*
X14203703Y-23128411D01*
X14241159Y-23186127D01*
X14264768Y-23263954D01*
X14362315Y-23446450D01*
X14362317Y-23446452D01*
X14493589Y-23606410D01*
X14590209Y-23685702D01*
X14653550Y-23737685D01*
X14836046Y-23835232D01*
X15034066Y-23895300D01*
X15034065Y-23895300D01*
X15052529Y-23897118D01*
X15240000Y-23915583D01*
X15445934Y-23895300D01*
X15643954Y-23835232D01*
X15826450Y-23737685D01*
X15986410Y-23606410D01*
X16117685Y-23446450D01*
X16215232Y-23263954D01*
X16275300Y-23065934D01*
X16295583Y-22860000D01*
X16275300Y-22654066D01*
X16215232Y-22456046D01*
X16117685Y-22273550D01*
X16065702Y-22210209D01*
X15986410Y-22113589D01*
X15826452Y-21982317D01*
X15826453Y-21982317D01*
X15826450Y-21982315D01*
X15643954Y-21884768D01*
X15445934Y-21824700D01*
X15445932Y-21824699D01*
X15445934Y-21824699D01*
X15240000Y-21804417D01*
X15034067Y-21824699D01*
X14849166Y-21880788D01*
X14779299Y-21881411D01*
X14725490Y-21849808D01*
X14483819Y-21608137D01*
X14450334Y-21546814D01*
X14447500Y-21520456D01*
X14447500Y-20440858D01*
X14447500Y-20440856D01*
X14423614Y-20351712D01*
X14390023Y-20293531D01*
X14377473Y-20271794D01*
X14377470Y-20271791D01*
X14377469Y-20271788D01*
X14312212Y-20206531D01*
X13763212Y-19657530D01*
X13763211Y-19657529D01*
X13763208Y-19657527D01*
X13716000Y-19630271D01*
X13716000Y-19018500D01*
X14398142Y-19018500D01*
X14398144Y-19018500D01*
X14487288Y-18994614D01*
X14567212Y-18948470D01*
X14725493Y-18790188D01*
X14786811Y-18756706D01*
X14849162Y-18759210D01*
X15034066Y-18815300D01*
X15034065Y-18815300D01*
X15052529Y-18817118D01*
X15240000Y-18835583D01*
X15445934Y-18815300D01*
X15643954Y-18755232D01*
X15826450Y-18657685D01*
X15986410Y-18526410D01*
X16117685Y-18366450D01*
X16215232Y-18183954D01*
X16275300Y-17985934D01*
X16295583Y-17780000D01*
X16275300Y-17574066D01*
X16215232Y-17376046D01*
X16117685Y-17193550D01*
X15988906Y-17036631D01*
X15986410Y-17033589D01*
X15826452Y-16902317D01*
X15826453Y-16902317D01*
X15826450Y-16902315D01*
X15643954Y-16804768D01*
X15445934Y-16744700D01*
X15445932Y-16744699D01*
X15445934Y-16744699D01*
X15240000Y-16724417D01*
X15034067Y-16744699D01*
X14836043Y-16804769D01*
X14725898Y-16863643D01*
X14653550Y-16902315D01*
X14653548Y-16902316D01*
X14653547Y-16902317D01*
X14523164Y-17009319D01*
X14458854Y-17036631D01*
X14389987Y-17024840D01*
X14338427Y-16977687D01*
X14320500Y-16913465D01*
X14320500Y-16706543D01*
X14340185Y-16639504D01*
X14356815Y-16618866D01*
X14725491Y-16250189D01*
X14786812Y-16216706D01*
X14849162Y-16219210D01*
X15034066Y-16275300D01*
X15034065Y-16275300D01*
X15052529Y-16277118D01*
X15240000Y-16295583D01*
X15445934Y-16275300D01*
X15643954Y-16215232D01*
X15826450Y-16117685D01*
X15986410Y-15986410D01*
X16117685Y-15826450D01*
X16215232Y-15643954D01*
X16275300Y-15445934D01*
X16295583Y-15240000D01*
X16275300Y-15034066D01*
X16215232Y-14836046D01*
X16117685Y-14653550D01*
X16065702Y-14590209D01*
X15986410Y-14493589D01*
X15826452Y-14362317D01*
X15826453Y-14362317D01*
X15826450Y-14362315D01*
X15643954Y-14264768D01*
X15445934Y-14204700D01*
X15445932Y-14204699D01*
X15445934Y-14204699D01*
X15240000Y-14184417D01*
X15034067Y-14204699D01*
X14836043Y-14264769D01*
X14725898Y-14323643D01*
X14653550Y-14362315D01*
X14653548Y-14362316D01*
X14653547Y-14362317D01*
X14493589Y-14493589D01*
X14362317Y-14653547D01*
X14264769Y-14836043D01*
X14204699Y-15034067D01*
X14184417Y-15240000D01*
X14204699Y-15445932D01*
X14260788Y-15630832D01*
X14261411Y-15700699D01*
X14229808Y-15754508D01*
X13716000Y-16268316D01*
X13716000Y-13938500D01*
X14398142Y-13938500D01*
X14398144Y-13938500D01*
X14487288Y-13914614D01*
X14567212Y-13868470D01*
X14725493Y-13710188D01*
X14786811Y-13676706D01*
X14849162Y-13679210D01*
X15034066Y-13735300D01*
X15034065Y-13735300D01*
X15052529Y-13737118D01*
X15240000Y-13755583D01*
X15445934Y-13735300D01*
X15643954Y-13675232D01*
X15826450Y-13577685D01*
X15986410Y-13446410D01*
X16117685Y-13286450D01*
X16215232Y-13103954D01*
X16275300Y-12905934D01*
X16295583Y-12700000D01*
X16275300Y-12494066D01*
X16215232Y-12296046D01*
X16117685Y-12113550D01*
X16033208Y-12010614D01*
X15986410Y-11953589D01*
X15826452Y-11822317D01*
X15826453Y-11822317D01*
X15826450Y-11822315D01*
X15643954Y-11724768D01*
X15445934Y-11664700D01*
X15445932Y-11664699D01*
X15445934Y-11664699D01*
X15240000Y-11644417D01*
X15034066Y-11664699D01*
X14925859Y-11697523D01*
X14855992Y-11698146D01*
X14796880Y-11660897D01*
X14767289Y-11597603D01*
X14776616Y-11528358D01*
X14802181Y-11491185D01*
X15050859Y-11242506D01*
X15112180Y-11209023D01*
X15150688Y-11206786D01*
X15240000Y-11215583D01*
X15445934Y-11195300D01*
X15643954Y-11135232D01*
X15826450Y-11037685D01*
X15986410Y-10906410D01*
X16117685Y-10746450D01*
X16215232Y-10563954D01*
X16275300Y-10365934D01*
X16295583Y-10160000D01*
X16275300Y-9954066D01*
X16215232Y-9756046D01*
X16117685Y-9573550D01*
X16065702Y-9510209D01*
X15986410Y-9413589D01*
X15868677Y-9316969D01*
X15826450Y-9282315D01*
X15643954Y-9184768D01*
X15445934Y-9124700D01*
X15445932Y-9124699D01*
X15445934Y-9124699D01*
X15240000Y-9104417D01*
X15034067Y-9124699D01*
X14836041Y-9184769D01*
X14672953Y-9271943D01*
X14604551Y-9286185D01*
X14539307Y-9261185D01*
X14497936Y-9204880D01*
X14490500Y-9162585D01*
X14490500Y-6376543D01*
X14510185Y-6309504D01*
X14526815Y-6288866D01*
X14725491Y-6090189D01*
X14786812Y-6056706D01*
X14849162Y-6059210D01*
X15034066Y-6115300D01*
X15034065Y-6115300D01*
X15052529Y-6117118D01*
X15240000Y-6135583D01*
X15445934Y-6115300D01*
X15643954Y-6055232D01*
X15826450Y-5957685D01*
X15986410Y-5826410D01*
X16117685Y-5666450D01*
X16215232Y-5483954D01*
X16275300Y-5285934D01*
X16295583Y-5080000D01*
X16275300Y-4874066D01*
X16215232Y-4676046D01*
X16117685Y-4493550D01*
X16065702Y-4430209D01*
X15986410Y-4333589D01*
X15826452Y-4202317D01*
X15826453Y-4202317D01*
X15826450Y-4202315D01*
X15643954Y-4104768D01*
X15445934Y-4044700D01*
X15445932Y-4044699D01*
X15445934Y-4044699D01*
X15240000Y-4024417D01*
X15034067Y-4044699D01*
X14836043Y-4104769D01*
X14725898Y-4163643D01*
X14653550Y-4202315D01*
X14653548Y-4202316D01*
X14653547Y-4202317D01*
X14493589Y-4333589D01*
X14362317Y-4493547D01*
X14323858Y-4565497D01*
X14274895Y-4615341D01*
X14206757Y-4630801D01*
X14141077Y-4606969D01*
X14098709Y-4551410D01*
X14090500Y-4507043D01*
X14090500Y-4236542D01*
X14110185Y-4169503D01*
X14126815Y-4148865D01*
X14725489Y-3550190D01*
X14786812Y-3516706D01*
X14849162Y-3519210D01*
X15034066Y-3575300D01*
X15034065Y-3575300D01*
X15052529Y-3577118D01*
X15240000Y-3595583D01*
X15445934Y-3575300D01*
X15643954Y-3515232D01*
X15826450Y-3417685D01*
X15986410Y-3286410D01*
X16117685Y-3126450D01*
X16215232Y-2943954D01*
X16275300Y-2745934D01*
X16295583Y-2540000D01*
X16275300Y-2334066D01*
X16215232Y-2136046D01*
X16117685Y-1953550D01*
X16065702Y-1890209D01*
X15986410Y-1793589D01*
X15826452Y-1662317D01*
X15826453Y-1662317D01*
X15826450Y-1662315D01*
X15643954Y-1564768D01*
X15445934Y-1504700D01*
X15445932Y-1504699D01*
X15445934Y-1504699D01*
X15240000Y-1484417D01*
X15034067Y-1504699D01*
X14836043Y-1564769D01*
X14725898Y-1623643D01*
X14653550Y-1662315D01*
X14653548Y-1662316D01*
X14653547Y-1662317D01*
X14493589Y-1793589D01*
X14362317Y-1953547D01*
X14264769Y-2136043D01*
X14204699Y-2334067D01*
X14184417Y-2540000D01*
X14204699Y-2745932D01*
X14260788Y-2930833D01*
X14261411Y-3000700D01*
X14229808Y-3054509D01*
X13716000Y-3568317D01*
X13716000Y0D01*
X14184417Y0D01*
X14204699Y-205932D01*
X14204700Y-205934D01*
X14264768Y-403954D01*
X14362315Y-586450D01*
X14362317Y-586452D01*
X14493589Y-746410D01*
X14590209Y-825702D01*
X14653550Y-877685D01*
X14836046Y-975232D01*
X15034066Y-1035300D01*
X15034065Y-1035300D01*
X15052529Y-1037118D01*
X15240000Y-1055583D01*
X15445934Y-1035300D01*
X15643954Y-975232D01*
X15826450Y-877685D01*
X15986410Y-746410D01*
X16117685Y-586450D01*
X16215232Y-403954D01*
X16275300Y-205934D01*
X16295583Y0D01*
X16275300Y205934D01*
X16215232Y403954D01*
X16117685Y586450D01*
X16065702Y649791D01*
X15986410Y746411D01*
X15826452Y877683D01*
X15826453Y877683D01*
X15826450Y877685D01*
X15643954Y975232D01*
X15445934Y1035300D01*
X15445932Y1035301D01*
X15445934Y1035301D01*
X15240000Y1055583D01*
X15034067Y1035301D01*
X14836043Y975231D01*
X14725898Y916357D01*
X14653550Y877685D01*
X14653548Y877684D01*
X14653547Y877683D01*
X14493589Y746411D01*
X14362317Y586453D01*
X14362315Y586450D01*
X14351151Y565564D01*
X14264769Y403957D01*
X14204699Y205933D01*
X14184417Y0D01*
X13716000Y0D01*
X13716000Y2363522D01*
X14348938Y2363257D01*
G37*
%TD.AperFunction*%
%TD*%
%TA.AperFunction,Conductor*%
%TO.N,GND*%
G36*
X1567334Y-16810862D02*
G01*
X1623267Y-16852734D01*
X1647684Y-16918198D01*
X1648000Y-16927044D01*
X1648000Y-17026844D01*
X1654401Y-17086372D01*
X1654403Y-17086379D01*
X1704645Y-17221086D01*
X1704647Y-17221088D01*
X1790809Y-17336186D01*
X1790810Y-17336187D01*
X1847811Y-17378858D01*
X1889682Y-17434792D01*
X1897500Y-17478125D01*
X1897500Y-17637673D01*
X1908268Y-17691810D01*
X1908268Y-17740190D01*
X1897500Y-17794326D01*
X1897500Y-18273678D01*
X1908069Y-18326811D01*
X1908069Y-18375193D01*
X1897501Y-18428321D01*
X1897501Y-18589873D01*
X1877816Y-18656912D01*
X1847813Y-18689139D01*
X1790815Y-18731807D01*
X1790809Y-18731814D01*
X1704650Y-18846906D01*
X1704646Y-18846913D01*
X1654404Y-18981620D01*
X1654402Y-18981627D01*
X1648001Y-19041155D01*
X1648001Y-19089000D01*
X1967798Y-19089000D01*
X2034837Y-19108685D01*
X2036689Y-19109898D01*
X2050261Y-19118966D01*
X2123322Y-19133499D01*
X2123325Y-19133500D01*
X2123327Y-19133500D01*
X3972677Y-19133500D01*
X3972678Y-19133499D01*
X4045741Y-19118966D01*
X4054519Y-19113100D01*
X4059313Y-19109898D01*
X4125990Y-19089020D01*
X4128204Y-19089000D01*
X4448001Y-19089000D01*
X4482182Y-19054819D01*
X4543505Y-19021334D01*
X4569863Y-19018500D01*
X4712481Y-19018500D01*
X4712483Y-19018500D01*
X4801627Y-18994614D01*
X4881551Y-18948470D01*
X5005202Y-18824819D01*
X5066525Y-18791334D01*
X5092883Y-18788500D01*
X6258016Y-18788500D01*
X6325055Y-18808185D01*
X6340241Y-18819682D01*
X6416547Y-18887283D01*
X6416549Y-18887284D01*
X6556421Y-18960696D01*
X6709801Y-18998500D01*
X6709802Y-18998500D01*
X6867772Y-18998500D01*
X7021152Y-18960696D01*
X7161027Y-18887283D01*
X7279270Y-18782530D01*
X7369007Y-18652523D01*
X7425024Y-18504818D01*
X7444065Y-18348000D01*
X7425024Y-18191182D01*
X7418318Y-18173501D01*
X7398783Y-18121990D01*
X7369007Y-18043477D01*
X7361734Y-18032940D01*
X7339851Y-17966585D01*
X7357317Y-17898934D01*
X7408585Y-17851464D01*
X7463784Y-17838500D01*
X10587611Y-17838500D01*
X10654650Y-17858185D01*
X10669836Y-17869683D01*
X10747272Y-17938284D01*
X10747274Y-17938285D01*
X10887146Y-18011697D01*
X11040526Y-18049501D01*
X11173500Y-18049501D01*
X11240539Y-18069186D01*
X11286294Y-18121990D01*
X11297500Y-18173501D01*
X11297500Y-18273674D01*
X11297500Y-18273676D01*
X11297499Y-18273676D01*
X11308068Y-18326804D01*
X11308068Y-18375187D01*
X11297499Y-18428321D01*
X11297499Y-18589873D01*
X11277814Y-18656912D01*
X11247811Y-18689139D01*
X11190813Y-18731807D01*
X11190807Y-18731814D01*
X11104648Y-18846906D01*
X11104644Y-18846913D01*
X11054402Y-18981620D01*
X11054400Y-18981627D01*
X11047999Y-19041155D01*
X11047999Y-19089000D01*
X11367796Y-19089000D01*
X11434835Y-19108685D01*
X11436687Y-19109898D01*
X11450259Y-19118966D01*
X11523320Y-19133499D01*
X11523323Y-19133500D01*
X12538999Y-19133500D01*
X12606038Y-19153185D01*
X12651793Y-19205989D01*
X12662999Y-19257500D01*
X12662999Y-19348500D01*
X12643314Y-19415539D01*
X12590510Y-19461294D01*
X12538999Y-19472500D01*
X11523323Y-19472500D01*
X11450260Y-19487033D01*
X11433695Y-19498102D01*
X11367018Y-19518980D01*
X11364804Y-19519000D01*
X11047999Y-19519000D01*
X11047999Y-19566844D01*
X11054400Y-19626372D01*
X11054402Y-19626379D01*
X11104644Y-19761086D01*
X11104648Y-19761093D01*
X11190807Y-19876186D01*
X11247811Y-19918859D01*
X11289682Y-19974793D01*
X11297500Y-20018126D01*
X11297500Y-20177673D01*
X11308268Y-20231810D01*
X11308268Y-20280190D01*
X11297500Y-20334326D01*
X11297500Y-20493873D01*
X11277815Y-20560912D01*
X11247812Y-20593139D01*
X11190814Y-20635807D01*
X11190808Y-20635814D01*
X11104649Y-20750906D01*
X11104645Y-20750913D01*
X11054403Y-20885620D01*
X11054401Y-20885627D01*
X11048000Y-20945155D01*
X11048000Y-20993000D01*
X11364804Y-20993000D01*
X11431843Y-21012685D01*
X11433695Y-21013898D01*
X11450260Y-21024966D01*
X11523321Y-21039499D01*
X11523324Y-21039500D01*
X11523326Y-21039500D01*
X12539000Y-21039500D01*
X12606039Y-21059185D01*
X12651794Y-21111989D01*
X12663000Y-21163500D01*
X12663000Y-21923000D01*
X13173500Y-21923000D01*
X13240539Y-21942685D01*
X13286294Y-21995489D01*
X13297500Y-22047000D01*
X13297500Y-23854144D01*
X13303357Y-23876000D01*
X13321386Y-23943287D01*
X13321387Y-23943290D01*
X13367527Y-24023208D01*
X13367531Y-24023213D01*
X13716000Y-24371682D01*
X13716000Y-28841039D01*
X13569858Y-28987181D01*
X13508535Y-29020666D01*
X13482177Y-29023500D01*
X5186823Y-29023500D01*
X5119784Y-29003815D01*
X5099142Y-28987181D01*
X4800616Y-28688655D01*
X4767131Y-28627332D01*
X4772115Y-28557640D01*
X4813987Y-28501707D01*
X4844963Y-28484792D01*
X4976331Y-28435796D01*
X5091546Y-28349546D01*
X5129993Y-28298188D01*
X5185927Y-28256318D01*
X5229259Y-28248500D01*
X5629935Y-28248500D01*
X5696974Y-28268185D01*
X5717613Y-28284815D01*
X5721397Y-28288599D01*
X5721398Y-28288599D01*
X5721399Y-28288601D01*
X5804260Y-28343966D01*
X5804264Y-28343967D01*
X5877321Y-28358499D01*
X5877324Y-28358500D01*
X5877326Y-28358500D01*
X7076676Y-28358500D01*
X7076677Y-28358499D01*
X7149740Y-28343966D01*
X7232601Y-28288601D01*
X7232603Y-28288597D01*
X7236387Y-28284815D01*
X7297712Y-28251333D01*
X7324065Y-28248500D01*
X7489991Y-28248500D01*
X7489993Y-28248500D01*
X7602027Y-28218481D01*
X7702473Y-28160488D01*
X7794488Y-28068473D01*
X7852481Y-27968027D01*
X7882500Y-27855993D01*
X7882500Y-27740007D01*
X7882500Y-25860007D01*
X7852481Y-25747973D01*
X7794488Y-25647527D01*
X7712473Y-25565512D01*
X7702473Y-25555512D01*
X7640859Y-25519939D01*
X7602028Y-25497519D01*
X7546010Y-25482509D01*
X7489993Y-25467500D01*
X7489992Y-25467500D01*
X7324065Y-25467500D01*
X7257026Y-25447815D01*
X7236387Y-25431185D01*
X7223968Y-25418767D01*
X7226614Y-25416120D01*
X7195586Y-25378998D01*
X7186873Y-25309674D01*
X7217023Y-25246644D01*
X7276464Y-25209921D01*
X7309278Y-25205500D01*
X7700177Y-25205500D01*
X7767216Y-25225185D01*
X7787858Y-25241819D01*
X8215181Y-25669142D01*
X8248666Y-25730465D01*
X8251500Y-25756823D01*
X8251500Y-26232678D01*
X8266032Y-26305735D01*
X8266033Y-26305739D01*
X8266034Y-26305740D01*
X8321399Y-26388601D01*
X8404260Y-26443966D01*
X8404264Y-26443967D01*
X8477321Y-26458499D01*
X8477324Y-26458500D01*
X8477326Y-26458500D01*
X8953177Y-26458500D01*
X9020216Y-26478185D01*
X9040858Y-26494819D01*
X9591858Y-27045819D01*
X9625343Y-27107142D01*
X9620359Y-27176834D01*
X9578487Y-27232767D01*
X9513023Y-27257184D01*
X9504177Y-27257500D01*
X8477323Y-27257500D01*
X8404264Y-27272032D01*
X8404260Y-27272033D01*
X8321399Y-27327399D01*
X8266033Y-27410260D01*
X8266032Y-27410264D01*
X8251500Y-27483321D01*
X8251500Y-28132678D01*
X8266032Y-28205735D01*
X8266033Y-28205739D01*
X8266034Y-28205740D01*
X8321399Y-28288601D01*
X8404260Y-28343966D01*
X8404264Y-28343967D01*
X8477321Y-28358499D01*
X8477324Y-28358500D01*
X8477326Y-28358500D01*
X9676676Y-28358500D01*
X9676677Y-28358499D01*
X9749740Y-28343966D01*
X9832601Y-28288601D01*
X9887966Y-28205740D01*
X9902500Y-28132674D01*
X9902500Y-27655823D01*
X9922185Y-27588784D01*
X9974989Y-27543029D01*
X10044147Y-27533085D01*
X10107703Y-27562110D01*
X10114169Y-27568130D01*
X10286045Y-27740007D01*
X10321181Y-27775143D01*
X10354666Y-27836466D01*
X10357500Y-27862823D01*
X10357500Y-28089869D01*
X10357501Y-28089876D01*
X10363908Y-28149483D01*
X10414202Y-28284328D01*
X10414206Y-28284335D01*
X10500452Y-28399544D01*
X10500455Y-28399547D01*
X10615664Y-28485793D01*
X10615671Y-28485797D01*
X10750517Y-28536091D01*
X10750516Y-28536091D01*
X10757444Y-28536835D01*
X10810127Y-28542500D01*
X11855872Y-28542499D01*
X11915483Y-28536091D01*
X12050331Y-28485796D01*
X12165546Y-28399546D01*
X12251796Y-28284331D01*
X12302091Y-28149483D01*
X12308500Y-28089873D01*
X12308499Y-27494128D01*
X12302091Y-27434517D01*
X12293045Y-27410264D01*
X12251797Y-27299671D01*
X12251793Y-27299664D01*
X12177411Y-27200304D01*
X12165546Y-27184454D01*
X12127976Y-27156329D01*
X12086106Y-27100396D01*
X12079192Y-27042118D01*
X12085278Y-26992000D01*
X12079051Y-26940717D01*
X12090511Y-26871796D01*
X12137051Y-26820233D01*
X12276343Y-26734317D01*
X12400315Y-26610345D01*
X12492356Y-26461124D01*
X12492358Y-26461119D01*
X12547505Y-26294697D01*
X12547506Y-26294690D01*
X12557999Y-26191986D01*
X12558000Y-26191973D01*
X12558000Y-26142000D01*
X11207000Y-26142000D01*
X11139961Y-26122315D01*
X11094206Y-26069511D01*
X11083000Y-26018000D01*
X11083000Y-25642000D01*
X11583000Y-25642000D01*
X12557999Y-25642000D01*
X12557999Y-25592028D01*
X12557998Y-25592013D01*
X12547505Y-25489302D01*
X12492358Y-25322880D01*
X12492356Y-25322875D01*
X12400315Y-25173654D01*
X12276345Y-25049684D01*
X12127124Y-24957643D01*
X12127119Y-24957641D01*
X11960697Y-24902494D01*
X11960690Y-24902493D01*
X11857986Y-24892000D01*
X11583000Y-24892000D01*
X11583000Y-25642000D01*
X11083000Y-25642000D01*
X11083000Y-24892000D01*
X10808029Y-24892000D01*
X10808012Y-24892001D01*
X10705302Y-24902494D01*
X10538880Y-24957641D01*
X10538875Y-24957643D01*
X10389654Y-25049684D01*
X10265684Y-25173654D01*
X10173643Y-25322875D01*
X10173641Y-25322880D01*
X10116964Y-25493920D01*
X10077191Y-25551365D01*
X10012675Y-25578188D01*
X9943899Y-25565873D01*
X9894864Y-25520339D01*
X9894751Y-25520415D01*
X9894433Y-25519939D01*
X9892700Y-25518330D01*
X9890723Y-25514388D01*
X9887966Y-25510262D01*
X9887966Y-25510260D01*
X9832601Y-25427399D01*
X9749740Y-25372034D01*
X9749739Y-25372033D01*
X9749735Y-25372032D01*
X9676677Y-25357500D01*
X9676674Y-25357500D01*
X9200823Y-25357500D01*
X9133784Y-25337815D01*
X9113142Y-25321181D01*
X8204475Y-24412514D01*
X8204473Y-24412512D01*
X8133754Y-24371682D01*
X8104028Y-24354519D01*
X8048010Y-24339509D01*
X7991993Y-24324500D01*
X7991992Y-24324500D01*
X7024043Y-24324500D01*
X6957004Y-24304815D01*
X6911249Y-24252011D01*
X6901305Y-24182853D01*
X6918504Y-24135403D01*
X6980356Y-24035124D01*
X6980358Y-24035119D01*
X7035505Y-23868697D01*
X7035506Y-23868690D01*
X7045999Y-23765986D01*
X7046000Y-23765973D01*
X7046000Y-23491000D01*
X5920000Y-23491000D01*
X5852961Y-23471315D01*
X5807206Y-23418511D01*
X5796000Y-23367000D01*
X5796000Y-22991000D01*
X6296000Y-22991000D01*
X7045999Y-22991000D01*
X7045999Y-22716028D01*
X7045998Y-22716013D01*
X7035505Y-22613302D01*
X6980358Y-22446880D01*
X6980356Y-22446875D01*
X6888315Y-22297654D01*
X6764345Y-22173684D01*
X6615124Y-22081643D01*
X6615119Y-22081641D01*
X6448697Y-22026494D01*
X6448690Y-22026493D01*
X6345986Y-22016000D01*
X6296000Y-22016000D01*
X6296000Y-22991000D01*
X5796000Y-22991000D01*
X5796000Y-22016000D01*
X5795999Y-22015999D01*
X5746029Y-22016000D01*
X5746011Y-22016001D01*
X5643302Y-22026494D01*
X5476880Y-22081641D01*
X5476875Y-22081643D01*
X5327654Y-22173684D01*
X5203684Y-22297654D01*
X5111643Y-22446875D01*
X5111642Y-22446878D01*
X5081069Y-22539141D01*
X5041296Y-22596585D01*
X4976780Y-22623408D01*
X4908004Y-22611093D01*
X4856804Y-22563549D01*
X4847181Y-22543468D01*
X4839798Y-22523673D01*
X4839793Y-22523664D01*
X4753547Y-22408455D01*
X4753544Y-22408452D01*
X4638335Y-22322206D01*
X4638328Y-22322202D01*
X4503486Y-22271910D01*
X4503485Y-22271909D01*
X4503483Y-22271909D01*
X4443873Y-22265500D01*
X4443863Y-22265500D01*
X3848129Y-22265500D01*
X3848123Y-22265501D01*
X3788516Y-22271908D01*
X3653671Y-22322202D01*
X3653664Y-22322206D01*
X3538455Y-22408452D01*
X3538452Y-22408455D01*
X3452206Y-22523664D01*
X3452202Y-22523671D01*
X3401908Y-22658517D01*
X3395501Y-22718116D01*
X3395500Y-22718135D01*
X3395500Y-23476741D01*
X3375815Y-23543780D01*
X3373551Y-23547179D01*
X3356780Y-23571476D01*
X3300762Y-23719181D01*
X3281722Y-23875999D01*
X3281722Y-23876000D01*
X3300762Y-24032818D01*
X3339668Y-24135403D01*
X3356780Y-24180523D01*
X3446517Y-24310530D01*
X3564760Y-24415283D01*
X3564762Y-24415284D01*
X3704634Y-24488696D01*
X3858014Y-24526500D01*
X3995177Y-24526500D01*
X4062216Y-24546185D01*
X4082858Y-24562819D01*
X4150358Y-24630319D01*
X4183843Y-24691642D01*
X4178859Y-24761334D01*
X4136987Y-24817267D01*
X4071523Y-24841684D01*
X4062677Y-24842000D01*
X3734029Y-24842000D01*
X3734012Y-24842001D01*
X3631302Y-24852494D01*
X3464880Y-24907641D01*
X3464875Y-24907643D01*
X3315654Y-24999684D01*
X3191684Y-25123654D01*
X3099643Y-25272875D01*
X3099641Y-25272880D01*
X3044494Y-25439302D01*
X3044493Y-25439309D01*
X3034000Y-25542013D01*
X3034000Y-25592000D01*
X4385000Y-25592000D01*
X4452039Y-25611685D01*
X4497794Y-25664489D01*
X4509000Y-25716000D01*
X4509000Y-25968000D01*
X4489315Y-26035039D01*
X4436511Y-26080794D01*
X4385000Y-26092000D01*
X3034001Y-26092000D01*
X3034001Y-26141986D01*
X3044494Y-26244697D01*
X3099641Y-26411119D01*
X3099643Y-26411124D01*
X3191684Y-26560345D01*
X3315654Y-26684315D01*
X3464875Y-26776356D01*
X3464880Y-26776358D01*
X3557140Y-26806930D01*
X3614585Y-26846702D01*
X3641408Y-26911218D01*
X3629093Y-26979994D01*
X3581550Y-27031194D01*
X3561471Y-27040817D01*
X3541674Y-27048201D01*
X3541664Y-27048206D01*
X3426456Y-27134452D01*
X3426455Y-27134453D01*
X3426454Y-27134454D01*
X3340204Y-27249669D01*
X3340203Y-27249670D01*
X3338601Y-27251811D01*
X3282667Y-27293682D01*
X3239334Y-27301500D01*
X2863627Y-27301500D01*
X2796588Y-27281815D01*
X2791444Y-27277921D01*
X2791407Y-27277975D01*
X2785242Y-27273719D01*
X2785240Y-27273717D01*
X2785236Y-27273715D01*
X2785232Y-27273712D01*
X2645365Y-27200303D01*
X2491986Y-27162500D01*
X2491985Y-27162500D01*
X2334015Y-27162500D01*
X2334014Y-27162500D01*
X2180634Y-27200303D01*
X2040762Y-27273715D01*
X1922516Y-27378471D01*
X1832781Y-27508475D01*
X1832780Y-27508476D01*
X1776762Y-27656181D01*
X1757722Y-27812999D01*
X1757722Y-27813000D01*
X1776762Y-27969818D01*
X1822290Y-28089864D01*
X1832780Y-28117523D01*
X1922517Y-28247530D01*
X2040760Y-28352283D01*
X2040762Y-28352284D01*
X2180634Y-28425696D01*
X2334014Y-28463500D01*
X2334015Y-28463500D01*
X2491985Y-28463500D01*
X2645365Y-28425696D01*
X2695189Y-28399546D01*
X2785240Y-28352283D01*
X2903483Y-28247530D01*
X2911400Y-28236059D01*
X2965682Y-28192070D01*
X3013450Y-28182500D01*
X3239334Y-28182500D01*
X3306373Y-28202185D01*
X3338601Y-28232189D01*
X3340203Y-28234329D01*
X3340204Y-28234331D01*
X3426454Y-28349546D01*
X3438414Y-28358499D01*
X3541664Y-28435793D01*
X3541671Y-28435797D01*
X3676517Y-28486091D01*
X3676515Y-28486091D01*
X3707756Y-28489450D01*
X3772307Y-28516188D01*
X3812155Y-28573581D01*
X3818500Y-28612739D01*
X3818500Y-28827992D01*
X3848519Y-28940028D01*
X3875744Y-28987181D01*
X3906512Y-29040473D01*
X4682527Y-29816488D01*
X4782973Y-29874481D01*
X4895006Y-29904500D01*
X4895007Y-29904500D01*
X4895008Y-29904500D01*
X13716000Y-29904500D01*
X13716000Y-30303232D01*
X1524000Y-30303232D01*
X1524000Y-22085681D01*
X1921286Y-21688394D01*
X1982607Y-21654911D01*
X2037828Y-21658860D01*
X2038281Y-21656584D01*
X2123321Y-21673499D01*
X2123324Y-21673500D01*
X2123326Y-21673500D01*
X3972676Y-21673500D01*
X3972677Y-21673499D01*
X4045740Y-21658966D01*
X4128601Y-21603601D01*
X4183966Y-21520740D01*
X4193891Y-21470844D01*
X11048000Y-21470844D01*
X11054401Y-21530372D01*
X11054403Y-21530379D01*
X11104645Y-21665086D01*
X11104649Y-21665093D01*
X11190809Y-21780187D01*
X11190812Y-21780190D01*
X11305906Y-21866350D01*
X11305913Y-21866354D01*
X11440620Y-21916596D01*
X11440627Y-21916598D01*
X11500155Y-21922999D01*
X11500172Y-21923000D01*
X12233000Y-21923000D01*
X12233000Y-21423000D01*
X11048000Y-21423000D01*
X11048000Y-21470844D01*
X4193891Y-21470844D01*
X4198500Y-21447674D01*
X4198500Y-21048500D01*
X4218185Y-20981461D01*
X4270989Y-20935706D01*
X4322500Y-20924500D01*
X6767259Y-20924500D01*
X6834298Y-20944185D01*
X6880053Y-20996989D01*
X6883199Y-21004524D01*
X6912780Y-21082523D01*
X7002517Y-21212530D01*
X7120760Y-21317283D01*
X7120762Y-21317284D01*
X7260634Y-21390696D01*
X7414014Y-21428500D01*
X7414015Y-21428500D01*
X7571985Y-21428500D01*
X7725365Y-21390696D01*
X7865240Y-21317283D01*
X7983483Y-21212530D01*
X8073220Y-21082523D01*
X8129237Y-20934818D01*
X8148278Y-20778000D01*
X8148277Y-20777997D01*
X8148926Y-20772658D01*
X8176547Y-20708480D01*
X8234481Y-20669423D01*
X8301695Y-20667207D01*
X8347514Y-20678500D01*
X8505484Y-20678500D01*
X8658864Y-20640696D01*
X8696044Y-20621182D01*
X8798739Y-20567283D01*
X8916982Y-20462530D01*
X9006719Y-20332523D01*
X9062736Y-20184818D01*
X9081777Y-20028000D01*
X9062736Y-19871182D01*
X9006719Y-19723477D01*
X8916982Y-19593470D01*
X8798739Y-19488717D01*
X8798737Y-19488716D01*
X8798736Y-19488715D01*
X8658864Y-19415303D01*
X8505485Y-19377500D01*
X8505484Y-19377500D01*
X8347514Y-19377500D01*
X8347513Y-19377500D01*
X8194133Y-19415303D01*
X8054261Y-19488715D01*
X7977955Y-19556316D01*
X7914721Y-19586037D01*
X7895728Y-19587500D01*
X4567863Y-19587500D01*
X4500824Y-19567815D01*
X4480182Y-19551181D01*
X4448001Y-19519000D01*
X4131196Y-19519000D01*
X4064157Y-19499315D01*
X4062305Y-19498102D01*
X4045739Y-19487033D01*
X3972677Y-19472500D01*
X3972674Y-19472500D01*
X2123326Y-19472500D01*
X2123323Y-19472500D01*
X2050260Y-19487033D01*
X2033695Y-19498102D01*
X1967018Y-19518980D01*
X1964804Y-19519000D01*
X1648001Y-19519000D01*
X1648001Y-19566844D01*
X1654402Y-19626372D01*
X1654404Y-19626379D01*
X1704646Y-19761086D01*
X1704648Y-19761088D01*
X1790810Y-19876186D01*
X1790813Y-19876190D01*
X1847810Y-19918857D01*
X1889682Y-19974790D01*
X1897500Y-20018124D01*
X1897500Y-20177673D01*
X1908268Y-20231810D01*
X1908268Y-20280190D01*
X1897500Y-20334326D01*
X1897500Y-20752265D01*
X1877815Y-20819304D01*
X1825011Y-20865059D01*
X1805600Y-20872037D01*
X1770712Y-20881386D01*
X1770710Y-20881387D01*
X1770709Y-20881387D01*
X1690791Y-20927527D01*
X1690786Y-20927531D01*
X1524000Y-21094317D01*
X1524000Y-16807762D01*
X1567334Y-16810862D01*
G37*
%TD.AperFunction*%
%TA.AperFunction,Conductor*%
G36*
X5383663Y-26605510D02*
G01*
X5387537Y-26608000D01*
X6603000Y-26608000D01*
X6670039Y-26627685D01*
X6715794Y-26680489D01*
X6727000Y-26732000D01*
X6727000Y-26984000D01*
X6707315Y-27051039D01*
X6654511Y-27096794D01*
X6603000Y-27108000D01*
X5402000Y-27108000D01*
X5402000Y-27176609D01*
X5382315Y-27243648D01*
X5329511Y-27289403D01*
X5260353Y-27299347D01*
X5196797Y-27270322D01*
X5178734Y-27250921D01*
X5107922Y-27156330D01*
X5091546Y-27134454D01*
X5091544Y-27134453D01*
X5091544Y-27134452D01*
X4976335Y-27048206D01*
X4976329Y-27048203D01*
X4956529Y-27040818D01*
X4900596Y-26998946D01*
X4876179Y-26933482D01*
X4891031Y-26865209D01*
X4940437Y-26815804D01*
X4960860Y-26806930D01*
X5053117Y-26776359D01*
X5053124Y-26776356D01*
X5202345Y-26684315D01*
X5252648Y-26634012D01*
X5313971Y-26600526D01*
X5383663Y-26605510D01*
G37*
%TD.AperFunction*%
%TA.AperFunction,Conductor*%
G36*
X10656911Y-10874185D02*
G01*
X10672097Y-10885683D01*
X10747263Y-10952273D01*
X10747265Y-10952274D01*
X10887137Y-11025686D01*
X11040517Y-11063490D01*
X11173500Y-11063490D01*
X11240539Y-11083175D01*
X11286294Y-11135979D01*
X11297500Y-11187490D01*
X11297500Y-11287673D01*
X11308268Y-11341810D01*
X11308268Y-11390190D01*
X11297500Y-11444326D01*
X11297500Y-11603872D01*
X11277815Y-11670911D01*
X11247812Y-11703138D01*
X11190813Y-11745807D01*
X11190807Y-11745814D01*
X11104648Y-11860906D01*
X11104644Y-11860913D01*
X11054402Y-11995620D01*
X11054400Y-11995627D01*
X11047999Y-12055155D01*
X11047999Y-12103000D01*
X11364804Y-12103000D01*
X11431843Y-12122685D01*
X11433695Y-12123898D01*
X11450260Y-12134966D01*
X11523321Y-12149499D01*
X11523324Y-12149500D01*
X12538999Y-12149500D01*
X12606038Y-12169185D01*
X12651793Y-12221989D01*
X12662999Y-12273500D01*
X12662999Y-12364500D01*
X12643314Y-12431539D01*
X12590510Y-12477294D01*
X12538999Y-12488500D01*
X11523323Y-12488500D01*
X11450260Y-12503033D01*
X11436688Y-12512102D01*
X11370011Y-12532980D01*
X11367797Y-12533000D01*
X11047999Y-12533000D01*
X11047999Y-12580844D01*
X11054400Y-12640372D01*
X11054402Y-12640379D01*
X11104644Y-12775086D01*
X11104648Y-12775093D01*
X11190807Y-12890186D01*
X11247811Y-12932859D01*
X11289682Y-12988793D01*
X11297500Y-13032126D01*
X11297500Y-13193673D01*
X11308069Y-13246810D01*
X11308069Y-13295190D01*
X11297500Y-13348326D01*
X11297500Y-13827673D01*
X11308268Y-13881810D01*
X11308268Y-13930190D01*
X11304386Y-13949706D01*
X11297500Y-13984326D01*
X11297500Y-14463674D01*
X11297514Y-14463742D01*
X11308069Y-14516810D01*
X11308069Y-14565190D01*
X11297500Y-14618326D01*
X11297500Y-14779872D01*
X11277815Y-14846911D01*
X11247812Y-14879138D01*
X11190813Y-14921807D01*
X11190807Y-14921814D01*
X11104648Y-15036906D01*
X11104644Y-15036913D01*
X11054402Y-15171620D01*
X11054400Y-15171627D01*
X11047999Y-15231155D01*
X11047999Y-15279000D01*
X11367797Y-15279000D01*
X11434836Y-15298685D01*
X11436688Y-15299898D01*
X11450260Y-15308966D01*
X11523321Y-15323499D01*
X11523324Y-15323500D01*
X12538999Y-15323500D01*
X12606038Y-15343185D01*
X12651793Y-15395989D01*
X12662999Y-15447500D01*
X12662999Y-15538500D01*
X12643314Y-15605539D01*
X12590510Y-15651294D01*
X12538999Y-15662500D01*
X11523323Y-15662500D01*
X11450260Y-15677033D01*
X11433695Y-15688102D01*
X11367018Y-15708980D01*
X11364804Y-15709000D01*
X11047999Y-15709000D01*
X11047999Y-15756844D01*
X11054400Y-15816372D01*
X11054402Y-15816379D01*
X11104644Y-15951086D01*
X11104648Y-15951093D01*
X11190807Y-16066186D01*
X11247811Y-16108859D01*
X11289682Y-16164793D01*
X11297500Y-16208126D01*
X11297500Y-16367673D01*
X11308268Y-16421810D01*
X11308268Y-16470190D01*
X11297500Y-16524326D01*
X11297500Y-16624501D01*
X11277815Y-16691540D01*
X11225011Y-16737295D01*
X11173500Y-16748501D01*
X11040526Y-16748501D01*
X10887146Y-16786304D01*
X10747274Y-16859716D01*
X10710692Y-16892125D01*
X10677767Y-16921294D01*
X10672098Y-16926316D01*
X10608864Y-16956037D01*
X10589871Y-16957500D01*
X7400541Y-16957500D01*
X7333502Y-16937815D01*
X7312860Y-16921181D01*
X6803193Y-16411514D01*
X6803191Y-16411512D01*
X6727262Y-16367674D01*
X6702746Y-16353519D01*
X6646728Y-16338509D01*
X6590711Y-16323500D01*
X5060273Y-16323500D01*
X4944286Y-16323500D01*
X4832253Y-16353519D01*
X4832250Y-16353520D01*
X4731806Y-16411512D01*
X4659578Y-16483740D01*
X4598254Y-16517224D01*
X4528563Y-16512239D01*
X4472629Y-16470368D01*
X4448213Y-16404903D01*
X4448119Y-16394149D01*
X4448000Y-16394149D01*
X4448000Y-16343000D01*
X3263000Y-16343000D01*
X3263000Y-16808500D01*
X3243315Y-16875539D01*
X3190511Y-16921294D01*
X3139000Y-16932500D01*
X2957000Y-16932500D01*
X2889961Y-16912815D01*
X2844206Y-16860011D01*
X2833000Y-16808500D01*
X2833000Y-15913000D01*
X3263001Y-15913000D01*
X4448000Y-15913000D01*
X4448000Y-15865180D01*
X4447999Y-15865164D01*
X4443601Y-15824260D01*
X4443601Y-15797747D01*
X4448000Y-15756833D01*
X4448001Y-15756819D01*
X4448001Y-15709000D01*
X3263001Y-15709000D01*
X3263001Y-15913000D01*
X2833000Y-15913000D01*
X2833000Y-15279000D01*
X3263001Y-15279000D01*
X4448001Y-15279000D01*
X4448001Y-15231179D01*
X4448000Y-15231168D01*
X4443493Y-15189253D01*
X4443493Y-15162737D01*
X4447999Y-15120831D01*
X4448000Y-15120821D01*
X4448000Y-15073000D01*
X3263001Y-15073000D01*
X3263001Y-15279000D01*
X2833000Y-15279000D01*
X2833000Y-14643000D01*
X3263000Y-14643000D01*
X4448000Y-14643000D01*
X4448000Y-14595179D01*
X4447999Y-14595168D01*
X4443600Y-14554258D01*
X4443600Y-14527742D01*
X4447999Y-14486831D01*
X4448000Y-14486821D01*
X4448000Y-14439000D01*
X3263000Y-14439000D01*
X3263000Y-14643000D01*
X2833000Y-14643000D01*
X2833000Y-14177500D01*
X2852685Y-14110461D01*
X2905489Y-14064706D01*
X2957000Y-14053500D01*
X3972676Y-14053500D01*
X3972677Y-14053499D01*
X4045740Y-14038966D01*
X4054518Y-14033100D01*
X4059312Y-14029898D01*
X4125989Y-14009020D01*
X4128203Y-14009000D01*
X4448000Y-14009000D01*
X4482181Y-13974819D01*
X4543504Y-13941334D01*
X4569862Y-13938500D01*
X6956213Y-13938500D01*
X7023252Y-13958185D01*
X7069007Y-14010989D01*
X7079309Y-14077447D01*
X7069380Y-14159219D01*
X7088420Y-14316036D01*
X7135055Y-14439000D01*
X7144438Y-14463741D01*
X7234175Y-14593748D01*
X7352418Y-14698501D01*
X7352420Y-14698502D01*
X7492292Y-14771914D01*
X7645672Y-14809718D01*
X7645673Y-14809718D01*
X7803643Y-14809718D01*
X7957023Y-14771914D01*
X8096898Y-14698501D01*
X8215141Y-14593748D01*
X8304878Y-14463741D01*
X8360895Y-14316036D01*
X8379936Y-14159218D01*
X8368193Y-14062500D01*
X8360895Y-14002399D01*
X8322540Y-13901266D01*
X8317173Y-13831603D01*
X8350320Y-13770097D01*
X8380852Y-13747500D01*
X8451765Y-13710283D01*
X8570008Y-13605530D01*
X8659745Y-13475523D01*
X8715762Y-13327818D01*
X8734803Y-13171000D01*
X8715762Y-13014182D01*
X8659745Y-12866477D01*
X8570008Y-12736470D01*
X8451765Y-12631717D01*
X8451763Y-12631716D01*
X8451762Y-12631715D01*
X8311890Y-12558303D01*
X8158511Y-12520500D01*
X8158510Y-12520500D01*
X8000540Y-12520500D01*
X8000539Y-12520500D01*
X7847159Y-12558303D01*
X7707287Y-12631715D01*
X7630981Y-12699316D01*
X7567747Y-12729037D01*
X7548754Y-12730500D01*
X5359673Y-12730500D01*
X5292634Y-12710815D01*
X5271992Y-12694181D01*
X5251342Y-12673531D01*
X5251337Y-12673527D01*
X5171419Y-12627387D01*
X5171418Y-12627386D01*
X5171417Y-12627386D01*
X5082273Y-12603500D01*
X5082272Y-12603500D01*
X4569863Y-12603500D01*
X4502824Y-12583815D01*
X4482182Y-12567181D01*
X4448001Y-12533000D01*
X4128203Y-12533000D01*
X4061164Y-12513315D01*
X4059312Y-12512102D01*
X4045739Y-12503033D01*
X3972677Y-12488500D01*
X3972674Y-12488500D01*
X2123326Y-12488500D01*
X2123323Y-12488500D01*
X2050260Y-12503033D01*
X2036688Y-12512102D01*
X1970011Y-12532980D01*
X1967797Y-12533000D01*
X1648001Y-12533000D01*
X1648001Y-12580844D01*
X1654402Y-12640372D01*
X1654405Y-12640385D01*
X1662016Y-12660792D01*
X1666998Y-12730483D01*
X1633515Y-12791802D01*
X1524000Y-12901317D01*
X1524000Y-12034500D01*
X1528139Y-12034500D01*
X1595178Y-12054185D01*
X1615820Y-12070819D01*
X1648001Y-12103000D01*
X1964804Y-12103000D01*
X2031843Y-12122685D01*
X2033695Y-12123898D01*
X2050260Y-12134966D01*
X2123321Y-12149499D01*
X2123324Y-12149500D01*
X2123326Y-12149500D01*
X3972676Y-12149500D01*
X3972677Y-12149499D01*
X4045740Y-12134966D01*
X4062305Y-12123898D01*
X4128982Y-12103020D01*
X4131196Y-12103000D01*
X4448001Y-12103000D01*
X4448001Y-12055172D01*
X4448000Y-12055158D01*
X4444033Y-12018264D01*
X4456437Y-11949505D01*
X4504047Y-11898366D01*
X4567322Y-11881007D01*
X6613436Y-11881007D01*
X6680475Y-11900692D01*
X6715487Y-11934569D01*
X6736515Y-11965035D01*
X6736516Y-11965036D01*
X6736517Y-11965037D01*
X6854760Y-12069790D01*
X6854762Y-12069791D01*
X6994634Y-12143203D01*
X7148014Y-12181007D01*
X7148015Y-12181007D01*
X7305985Y-12181007D01*
X7459365Y-12143203D01*
X7498458Y-12122685D01*
X7599240Y-12069790D01*
X7717483Y-11965037D01*
X7807220Y-11835030D01*
X7863237Y-11687325D01*
X7882278Y-11530507D01*
X7866861Y-11403531D01*
X7863237Y-11373688D01*
X7830616Y-11287674D01*
X7807220Y-11225984D01*
X7717483Y-11095977D01*
X7715414Y-11094144D01*
X7689646Y-11071315D01*
X7652519Y-11012126D01*
X7653287Y-10942260D01*
X7691705Y-10883901D01*
X7755575Y-10855576D01*
X7771873Y-10854500D01*
X10589872Y-10854500D01*
X10656911Y-10874185D01*
G37*
%TD.AperFunction*%
%TA.AperFunction,Conductor*%
G36*
X13716000Y-14936253D02*
G01*
X13705190Y-14921814D01*
X13705184Y-14921808D01*
X13648188Y-14879140D01*
X13606318Y-14823206D01*
X13598500Y-14779874D01*
X13598500Y-14618323D01*
X13587931Y-14565192D01*
X13587931Y-14516808D01*
X13598500Y-14463676D01*
X13598500Y-14062500D01*
X13618185Y-13995461D01*
X13670989Y-13949706D01*
X13716000Y-13939914D01*
X13716000Y-14936253D01*
G37*
%TD.AperFunction*%
%TA.AperFunction,Conductor*%
G36*
X13716000Y2363521D02*
G01*
X13716000Y-3568317D01*
X13459531Y-3824786D01*
X13459527Y-3824791D01*
X13413387Y-3904709D01*
X13413386Y-3904712D01*
X13389500Y-3993856D01*
X13389500Y-5765000D01*
X13369815Y-5832039D01*
X13317011Y-5877794D01*
X13265500Y-5889000D01*
X12663000Y-5889000D01*
X12663000Y-6648500D01*
X12643315Y-6715539D01*
X12590511Y-6761294D01*
X12539000Y-6772500D01*
X11523323Y-6772500D01*
X11450260Y-6787033D01*
X11433695Y-6798102D01*
X11367018Y-6818980D01*
X11364804Y-6819000D01*
X11048000Y-6819000D01*
X11048000Y-6866844D01*
X11054401Y-6926372D01*
X11054403Y-6926379D01*
X11104645Y-7061086D01*
X11104647Y-7061088D01*
X11190809Y-7176186D01*
X11190810Y-7176187D01*
X11247811Y-7218858D01*
X11289682Y-7274792D01*
X11297500Y-7318125D01*
X11297500Y-7477673D01*
X11308268Y-7531810D01*
X11308268Y-7580190D01*
X11297500Y-7634326D01*
X11297500Y-7793872D01*
X11277815Y-7860911D01*
X11247812Y-7893138D01*
X11190813Y-7935807D01*
X11190807Y-7935814D01*
X11104648Y-8050906D01*
X11104644Y-8050913D01*
X11054402Y-8185620D01*
X11054400Y-8185627D01*
X11047999Y-8245155D01*
X11047999Y-8293000D01*
X11364804Y-8293000D01*
X11431843Y-8312685D01*
X11433695Y-8313898D01*
X11450260Y-8324966D01*
X11523321Y-8339499D01*
X11523324Y-8339500D01*
X12538999Y-8339500D01*
X12606038Y-8359185D01*
X12651793Y-8411989D01*
X12662999Y-8463500D01*
X12662999Y-8554500D01*
X12643314Y-8621539D01*
X12590510Y-8667294D01*
X12538999Y-8678500D01*
X11523322Y-8678500D01*
X11450259Y-8693033D01*
X11436687Y-8702102D01*
X11370010Y-8722980D01*
X11367796Y-8723000D01*
X11047999Y-8723000D01*
X11047999Y-8770844D01*
X11054400Y-8830372D01*
X11054402Y-8830379D01*
X11104644Y-8965086D01*
X11104646Y-8965088D01*
X11190808Y-9080186D01*
X11190809Y-9080187D01*
X11247810Y-9122858D01*
X11289681Y-9178792D01*
X11297499Y-9222125D01*
X11297499Y-9383678D01*
X11308068Y-9436811D01*
X11308068Y-9485193D01*
X11297500Y-9538321D01*
X11297500Y-9638490D01*
X11277815Y-9705529D01*
X11225011Y-9751284D01*
X11173500Y-9762490D01*
X11040517Y-9762490D01*
X10887137Y-9800293D01*
X10747265Y-9873705D01*
X10747263Y-9873707D01*
X10675488Y-9937294D01*
X10669819Y-9942316D01*
X10606585Y-9972037D01*
X10587592Y-9973500D01*
X7479568Y-9973500D01*
X7412529Y-9953815D01*
X7391887Y-9937181D01*
X7046415Y-9591709D01*
X7046413Y-9591707D01*
X6974156Y-9549989D01*
X6945968Y-9533714D01*
X6876796Y-9515180D01*
X6833933Y-9503695D01*
X6038445Y-9503695D01*
X5922459Y-9503695D01*
X5810423Y-9533714D01*
X5709979Y-9591707D01*
X5709976Y-9591709D01*
X5480505Y-9821181D01*
X5419182Y-9854666D01*
X5392824Y-9857500D01*
X5254638Y-9857500D01*
X5187599Y-9837815D01*
X5172411Y-9826316D01*
X5127911Y-9786893D01*
X5096107Y-9758717D01*
X5096105Y-9758716D01*
X5096104Y-9758715D01*
X4956232Y-9685303D01*
X4802853Y-9647500D01*
X4802852Y-9647500D01*
X4644882Y-9647500D01*
X4644881Y-9647500D01*
X4601674Y-9658149D01*
X4531871Y-9655079D01*
X4474810Y-9614759D01*
X4448605Y-9549989D01*
X4448000Y-9537752D01*
X4448000Y-9515180D01*
X4447999Y-9515164D01*
X4443601Y-9474260D01*
X4443601Y-9447747D01*
X4448000Y-9406833D01*
X4448001Y-9406819D01*
X4448001Y-9359000D01*
X3263001Y-9359000D01*
X3263001Y-9824500D01*
X3243316Y-9891539D01*
X3190512Y-9937294D01*
X3139001Y-9948500D01*
X2123323Y-9948500D01*
X2050260Y-9963033D01*
X2036688Y-9972102D01*
X1970011Y-9992980D01*
X1967797Y-9993000D01*
X1648000Y-9993000D01*
X1648000Y-10040844D01*
X1654401Y-10100372D01*
X1654403Y-10100379D01*
X1704645Y-10235086D01*
X1704647Y-10235088D01*
X1790809Y-10350186D01*
X1790810Y-10350187D01*
X1847811Y-10392858D01*
X1889682Y-10448792D01*
X1897500Y-10492125D01*
X1897500Y-10573500D01*
X1877815Y-10640539D01*
X1825011Y-10686294D01*
X1773500Y-10697500D01*
X1524000Y-10697500D01*
X1524000Y-9515167D01*
X1648000Y-9515167D01*
X1648000Y-9563000D01*
X2833000Y-9563000D01*
X2833000Y-9359000D01*
X1648001Y-9359000D01*
X1648001Y-9406832D01*
X1652399Y-9447742D01*
X1652399Y-9474248D01*
X1648000Y-9515167D01*
X1524000Y-9515167D01*
X1524000Y-8770832D01*
X1648001Y-8770832D01*
X1652507Y-8812747D01*
X1652507Y-8839253D01*
X1648001Y-8881167D01*
X1648001Y-8929000D01*
X2833001Y-8929000D01*
X3263001Y-8929000D01*
X4448001Y-8929000D01*
X4448001Y-8881180D01*
X4448000Y-8881166D01*
X4443494Y-8839257D01*
X4443494Y-8812743D01*
X4448000Y-8770833D01*
X4448001Y-8770819D01*
X4448001Y-8723000D01*
X3263001Y-8723000D01*
X3263001Y-8929000D01*
X2833001Y-8929000D01*
X2833001Y-8723000D01*
X1648001Y-8723000D01*
X1648001Y-8770832D01*
X1524000Y-8770832D01*
X1524000Y-8136832D01*
X1648000Y-8136832D01*
X1652399Y-8177751D01*
X1652399Y-8204257D01*
X1648001Y-8245167D01*
X1648001Y-8293000D01*
X2833000Y-8293000D01*
X3263001Y-8293000D01*
X4448001Y-8293000D01*
X4448001Y-8245180D01*
X4448000Y-8245164D01*
X4443601Y-8204251D01*
X4443601Y-8177738D01*
X4447999Y-8136833D01*
X4448000Y-8136819D01*
X4448000Y-8089000D01*
X3263001Y-8089000D01*
X3263001Y-8293000D01*
X2833000Y-8293000D01*
X2833000Y-8089000D01*
X1648000Y-8089000D01*
X1648000Y-8136832D01*
X1524000Y-8136832D01*
X1524000Y-7500832D01*
X1648000Y-7500832D01*
X1652506Y-7542747D01*
X1652506Y-7569253D01*
X1648000Y-7611167D01*
X1648000Y-7659000D01*
X2833000Y-7659000D01*
X3263000Y-7659000D01*
X4448000Y-7659000D01*
X4448000Y-7611180D01*
X4447999Y-7611166D01*
X4443493Y-7569257D01*
X4443493Y-7542743D01*
X4447999Y-7500833D01*
X4448000Y-7500819D01*
X4448000Y-7453000D01*
X3263000Y-7453000D01*
X3263000Y-7659000D01*
X2833000Y-7659000D01*
X2833000Y-7453000D01*
X1648000Y-7453000D01*
X1648000Y-7500832D01*
X1524000Y-7500832D01*
X1524000Y-6954500D01*
X1528138Y-6954500D01*
X1595177Y-6974185D01*
X1615819Y-6990819D01*
X1648000Y-7023000D01*
X1964804Y-7023000D01*
X2031843Y-7042685D01*
X2033695Y-7043898D01*
X2050260Y-7054966D01*
X2123321Y-7069499D01*
X2123324Y-7069500D01*
X2123326Y-7069500D01*
X3972676Y-7069500D01*
X3972677Y-7069499D01*
X4045740Y-7054966D01*
X4062305Y-7043898D01*
X4128982Y-7023020D01*
X4131196Y-7023000D01*
X4448000Y-7023000D01*
X4448000Y-6975172D01*
X4447999Y-6975155D01*
X4441598Y-6915627D01*
X4441596Y-6915620D01*
X4391354Y-6780913D01*
X4391350Y-6780906D01*
X4305191Y-6665814D01*
X4305185Y-6665807D01*
X4248188Y-6623139D01*
X4206318Y-6567205D01*
X4198500Y-6523873D01*
X4198500Y-6364323D01*
X4198499Y-6364321D01*
X4193891Y-6341155D01*
X11048000Y-6341155D01*
X11048000Y-6389000D01*
X12233000Y-6389000D01*
X12233000Y-5889000D01*
X11500155Y-5889000D01*
X11440627Y-5895401D01*
X11440620Y-5895403D01*
X11305913Y-5945645D01*
X11305906Y-5945649D01*
X11190812Y-6031809D01*
X11190809Y-6031812D01*
X11104649Y-6146906D01*
X11104645Y-6146913D01*
X11054403Y-6281620D01*
X11054401Y-6281627D01*
X11048000Y-6341155D01*
X4193891Y-6341155D01*
X4183967Y-6291264D01*
X4183966Y-6291260D01*
X4128601Y-6208399D01*
X4045740Y-6153034D01*
X4045739Y-6153033D01*
X4045735Y-6153032D01*
X3972677Y-6138500D01*
X3972674Y-6138500D01*
X2123326Y-6138500D01*
X2123323Y-6138500D01*
X2050264Y-6153032D01*
X2050260Y-6153033D01*
X1967396Y-6208401D01*
X1958763Y-6217035D01*
X1955599Y-6213871D01*
X1920234Y-6243300D01*
X1870984Y-6253500D01*
X1720544Y-6253500D01*
X1653505Y-6233815D01*
X1632863Y-6217181D01*
X1524000Y-6108318D01*
X1524000Y-5096986D01*
X8575001Y-5096986D01*
X8585494Y-5199697D01*
X8640641Y-5366119D01*
X8640643Y-5366124D01*
X8732684Y-5515345D01*
X8856654Y-5639315D01*
X9005875Y-5731356D01*
X9005880Y-5731358D01*
X9172302Y-5786505D01*
X9172309Y-5786506D01*
X9275019Y-5796999D01*
X9825000Y-5796999D01*
X9874972Y-5796999D01*
X9874986Y-5796998D01*
X9977697Y-5786505D01*
X10144119Y-5731358D01*
X10144124Y-5731356D01*
X10293345Y-5639315D01*
X10417315Y-5515345D01*
X10509356Y-5366124D01*
X10509359Y-5366117D01*
X10533425Y-5293490D01*
X10573197Y-5236045D01*
X10637712Y-5209221D01*
X10680802Y-5212095D01*
X10696033Y-5215849D01*
X10756413Y-5251005D01*
X10775835Y-5282158D01*
X10776954Y-5281548D01*
X10781205Y-5289333D01*
X10867452Y-5404544D01*
X10867455Y-5404547D01*
X10982664Y-5490793D01*
X10982671Y-5490797D01*
X11027618Y-5507561D01*
X11117517Y-5541091D01*
X11177127Y-5547500D01*
X11772872Y-5547499D01*
X11832483Y-5541091D01*
X11967331Y-5490796D01*
X12082546Y-5404546D01*
X12168796Y-5289331D01*
X12219091Y-5154483D01*
X12225500Y-5094873D01*
X12225499Y-4049128D01*
X12219091Y-3989517D01*
X12207822Y-3959304D01*
X12168797Y-3854671D01*
X12168793Y-3854664D01*
X12082547Y-3739455D01*
X12082544Y-3739452D01*
X11967335Y-3653206D01*
X11967328Y-3653202D01*
X11832486Y-3602910D01*
X11832485Y-3602909D01*
X11832483Y-3602909D01*
X11772873Y-3596500D01*
X11772863Y-3596500D01*
X11177129Y-3596500D01*
X11177123Y-3596501D01*
X11117516Y-3602908D01*
X10982671Y-3653202D01*
X10982664Y-3653206D01*
X10867455Y-3739452D01*
X10867452Y-3739455D01*
X10781205Y-3854666D01*
X10776954Y-3862452D01*
X10774880Y-3861319D01*
X10740663Y-3907024D01*
X10696032Y-3928150D01*
X10680805Y-3931903D01*
X10611003Y-3928834D01*
X10553941Y-3888513D01*
X10533425Y-3850509D01*
X10509359Y-3777882D01*
X10509356Y-3777875D01*
X10417315Y-3628654D01*
X10293345Y-3504684D01*
X10144124Y-3412643D01*
X10144119Y-3412641D01*
X9977697Y-3357494D01*
X9977690Y-3357493D01*
X9874986Y-3347000D01*
X9825000Y-3347000D01*
X9825000Y-5796999D01*
X9275019Y-5796999D01*
X9324999Y-5796998D01*
X9325000Y-5796998D01*
X9325000Y-4822000D01*
X8575001Y-4822000D01*
X8575001Y-5096986D01*
X1524000Y-5096986D01*
X1524000Y-4047013D01*
X8575000Y-4047013D01*
X8575000Y-4322000D01*
X9325000Y-4322000D01*
X9325000Y-3347000D01*
X9324999Y-3346999D01*
X9275029Y-3347000D01*
X9275011Y-3347001D01*
X9172302Y-3357494D01*
X9005880Y-3412641D01*
X9005875Y-3412643D01*
X8856654Y-3504684D01*
X8732684Y-3628654D01*
X8640643Y-3777875D01*
X8640641Y-3777880D01*
X8585494Y-3944302D01*
X8585493Y-3944309D01*
X8575000Y-4047013D01*
X1524000Y-4047013D01*
X1524000Y2363521D01*
X6411717Y2365568D01*
X6478762Y2345912D01*
X6524539Y2293127D01*
X6528285Y2283985D01*
X6583317Y2132787D01*
X6663613Y1993709D01*
X6683008Y1960117D01*
X6683012Y1960110D01*
X6731890Y1901860D01*
X6811174Y1807374D01*
X6963913Y1679210D01*
X7136587Y1579517D01*
X7323949Y1511323D01*
X7520307Y1476700D01*
X7520309Y1476700D01*
X7719691Y1476700D01*
X7719693Y1476700D01*
X7916051Y1511323D01*
X8103413Y1579517D01*
X8276087Y1679210D01*
X8428826Y1807374D01*
X8556990Y1960113D01*
X8656683Y2132787D01*
X8711712Y2283981D01*
X8753137Y2340242D01*
X8818405Y2365178D01*
X8828261Y2365568D01*
X13716000Y2363521D01*
G37*
%TD.AperFunction*%
%TD*%
M02*
