%TF.GenerationSoftware,KiCad,Pcbnew,7.0.5*%
%TF.CreationDate,2024-02-19T15:18:16+02:00*%
%TF.ProjectId,Flags Enable Interrupt,466c6167-7320-4456-9e61-626c6520496e,V1*%
%TF.SameCoordinates,PX6d01460PY32de760*%
%TF.FileFunction,Copper,L2,Bot*%
%TF.FilePolarity,Positive*%
%FSLAX46Y46*%
G04 Gerber Fmt 4.6, Leading zero omitted, Abs format (unit mm)*
G04 Created by KiCad (PCBNEW 7.0.5) date 2024-02-19 15:18:16*
%MOMM*%
%LPD*%
G01*
G04 APERTURE LIST*
G04 Aperture macros list*
%AMRoundRect*
0 Rectangle with rounded corners*
0 $1 Rounding radius*
0 $2 $3 $4 $5 $6 $7 $8 $9 X,Y pos of 4 corners*
0 Add a 4 corners polygon primitive as box body*
4,1,4,$2,$3,$4,$5,$6,$7,$8,$9,$2,$3,0*
0 Add four circle primitives for the rounded corners*
1,1,$1+$1,$2,$3*
1,1,$1+$1,$4,$5*
1,1,$1+$1,$6,$7*
1,1,$1+$1,$8,$9*
0 Add four rect primitives between the rounded corners*
20,1,$1+$1,$2,$3,$4,$5,0*
20,1,$1+$1,$4,$5,$6,$7,0*
20,1,$1+$1,$6,$7,$8,$9,0*
20,1,$1+$1,$8,$9,$2,$3,0*%
G04 Aperture macros list end*
%TA.AperFunction,ComponentPad*%
%ADD10RoundRect,0.400000X-0.400000X-0.400000X0.400000X-0.400000X0.400000X0.400000X-0.400000X0.400000X0*%
%TD*%
%TA.AperFunction,ComponentPad*%
%ADD11O,1.600000X1.600000*%
%TD*%
%TA.AperFunction,ComponentPad*%
%ADD12R,1.600000X1.600000*%
%TD*%
%TA.AperFunction,ViaPad*%
%ADD13C,0.800000*%
%TD*%
%TA.AperFunction,Conductor*%
%ADD14C,0.200000*%
%TD*%
%TA.AperFunction,Conductor*%
%ADD15C,0.380000*%
%TD*%
G04 APERTURE END LIST*
D10*
%TO.P,J1,1,Pin_1*%
%TO.N,/5V*%
X0Y0D03*
D11*
%TO.P,J1,2,Pin_2*%
%TO.N,/CLK*%
X0Y-2540000D03*
%TO.P,J1,3,Pin_3*%
%TO.N,/Write Clear Interrupt*%
X0Y-5080000D03*
%TO.P,J1,4,Pin_4*%
%TO.N,/~{Set Interrupt on CLK}*%
X0Y-7620000D03*
D12*
%TO.P,J1,5,Pin_5*%
%TO.N,/GND*%
X0Y-10160000D03*
D11*
%TO.P,J1,6,Pin_6*%
%TO.N,/Read Flags*%
X0Y-12700000D03*
%TO.P,J1,7,Pin_7*%
%TO.N,/Write Flags*%
X0Y-15240000D03*
%TO.P,J1,8,Pin_8*%
%TO.N,/D7*%
X0Y-17780000D03*
%TO.P,J1,9,Pin_9*%
%TO.N,/D6*%
X0Y-20320000D03*
%TO.P,J1,10,Pin_10*%
%TO.N,/D5*%
X0Y-22860000D03*
%TO.P,J1,11,Pin_11*%
%TO.N,/D4*%
X0Y-25400000D03*
D12*
%TO.P,J1,12,Pin_12*%
%TO.N,/GND*%
X0Y-27940000D03*
D11*
%TO.P,J1,13,Pin_13*%
%TO.N,/D3*%
X0Y-30480000D03*
%TO.P,J1,14,Pin_14*%
%TO.N,/D2*%
X0Y-33020000D03*
%TO.P,J1,15,Pin_15*%
%TO.N,/D1*%
X0Y-35560000D03*
%TO.P,J1,16,Pin_16*%
%TO.N,/D0*%
X0Y-38100000D03*
D10*
%TO.P,J1,17,Pin_17*%
%TO.N,/5V*%
X15240000Y-38100000D03*
D11*
%TO.P,J1,18,Pin_18*%
%TO.N,/F0*%
X15240000Y-35560000D03*
%TO.P,J1,19,Pin_19*%
%TO.N,/F1*%
X15240000Y-33020000D03*
%TO.P,J1,20,Pin_20*%
%TO.N,/F2*%
X15240000Y-30480000D03*
D12*
%TO.P,J1,21,Pin_21*%
%TO.N,/GND*%
X15240000Y-27940000D03*
D11*
%TO.P,J1,22,Pin_22*%
%TO.N,/F3*%
X15240000Y-25400000D03*
%TO.P,J1,23,Pin_23*%
%TO.N,/F4*%
X15240000Y-22860000D03*
%TO.P,J1,24,Pin_24*%
%TO.N,/F5*%
X15240000Y-20320000D03*
%TO.P,J1,25,Pin_25*%
%TO.N,unconnected-(J1-Pin_25-Pad25)*%
X15240000Y-17780000D03*
%TO.P,J1,26,Pin_26*%
%TO.N,/~{Enable}*%
X15240000Y-15240000D03*
%TO.P,J1,27,Pin_27*%
%TO.N,/Enable*%
X15240000Y-12700000D03*
D12*
%TO.P,J1,28,Pin_28*%
%TO.N,/GND*%
X15240000Y-10160000D03*
D11*
%TO.P,J1,29,Pin_29*%
%TO.N,/~{Interrupt}*%
X15240000Y-7620000D03*
%TO.P,J1,30,Pin_30*%
%TO.N,/Interrupt*%
X15240000Y-5080000D03*
%TO.P,J1,31,Pin_31*%
%TO.N,unconnected-(J1-Pin_31-Pad31)*%
X15240000Y-2540000D03*
%TO.P,J1,32,Pin_32*%
%TO.N,/~{Reset}*%
X15240000Y0D03*
%TD*%
D13*
%TO.N,/GND*%
X-635000Y-16510000D03*
X1383975Y-16142025D03*
%TO.N,/5V*%
X2667000Y-38227000D03*
%TO.N,/GND*%
X6668843Y405187D03*
X4445000Y-36322000D03*
X12130000Y-20744991D03*
X7747000Y-7366000D03*
X11683994Y-25009573D03*
X11346000Y-10931714D03*
X4510006Y-16637000D03*
X6477000Y-4302996D03*
X12065000Y-7112000D03*
X4953000Y-18857997D03*
X12065000Y-35941000D03*
%TO.N,/3.3V*%
X14160500Y-3492500D03*
X7366000Y-38227006D03*
X6306767Y-11899538D03*
X11049000Y-6603998D03*
X12192000Y-12573000D03*
X8806000Y-18499000D03*
X13843000Y700042D03*
%TO.N,/Interrupt Enable*%
X7476257Y-1853257D03*
X8128000Y-4302994D03*
%TO.N,/~{Interrupt}*%
X6223000Y-10795000D03*
X6439588Y-7704163D03*
X13843252Y-11186000D03*
%TO.N,/~{Enable}*%
X12039988Y-9478000D03*
%TO.N,/Enable*%
X11135500Y-26884656D03*
X11683998Y-2667000D03*
X12816697Y-8019871D03*
X7899245Y-13660223D03*
%TO.N,/Interrupt*%
X7747000Y-9303029D03*
X10414000Y-26162000D03*
X13439988Y-9360030D03*
%TO.N,/D0*%
X6365444Y-32642000D03*
X6096000Y-19304000D03*
%TO.N,/D1*%
X6678633Y-20248508D03*
X5565166Y-32002970D03*
%TO.N,/D2*%
X5969000Y-21067179D03*
X6383542Y-31088878D03*
%TO.N,/D3*%
X6477000Y-21971000D03*
X5509530Y-30602970D03*
%TO.N,/D4*%
X5587889Y-22467197D03*
X5181802Y-29658195D03*
%TO.N,/D5*%
X5597305Y-23467155D03*
X5813195Y-28882729D03*
%TO.N,/D6*%
X5360259Y-27991184D03*
X5687000Y-923184D03*
X2200000Y-11128271D03*
X5280355Y-24415621D03*
%TO.N,/D7*%
X4538159Y-25562187D03*
X4831857Y-27142187D03*
%TO.N,/F5*%
X14440012Y-24130000D03*
X13440000Y-29137003D03*
%TO.N,/F4*%
X13261564Y-30179567D03*
%TO.N,/F3*%
X12145299Y-31115000D03*
X13207977Y-22225004D03*
%TO.N,/F2*%
X11349237Y-31973054D03*
X12573000Y-18161000D03*
%TO.N,/F1*%
X13743335Y-20070928D03*
%TO.N,/F0*%
X8128000Y-32893000D03*
X8118000Y-19287780D03*
%TO.N,/~{Reset}*%
X10414000Y-254000D03*
X10413994Y-15621000D03*
%TO.N,/CLK*%
X1521878Y-7019037D03*
X1397000Y-3810000D03*
%TO.N,/~{Read Flags}*%
X6598381Y-34222000D03*
X4446734Y-798298D03*
%TO.N,/~{Set Enable}*%
X4824500Y-13271500D03*
X5026033Y-8603029D03*
%TO.N,/Read Flags*%
X4825997Y126994D03*
X3048000Y-27051000D03*
%TO.N,/Write Flags*%
X10952266Y-24281572D03*
X11238850Y-17183379D03*
%TO.N,/~{Set Disable}*%
X7747000Y-6318006D03*
X7351312Y-3363541D03*
%TO.N,/~{Enable Bit}*%
X4468710Y-14895611D03*
X4572000Y-2667000D03*
%TO.N,/~{Write Clear Interrupt}*%
X12791956Y1764836D03*
X13052990Y-2032000D03*
%TO.N,/Write Clear Interrupt*%
X1524000Y761994D03*
%TO.N,/~{Clear Interrupt}*%
X5033790Y-5188621D03*
X4825992Y-7030781D03*
%TO.N,/Set Disable*%
X5033790Y-3608621D03*
X5842000Y-16293537D03*
%TO.N,/~{Interrupt Enable}*%
X5657543Y-2682020D03*
X5951537Y-14512659D03*
%TO.N,/F_{Interrupt Enable}*%
X10752377Y-23301751D03*
X7620000Y-12700000D03*
%TD*%
D14*
%TO.N,/D6*%
X5311225Y-923184D02*
X5687000Y-923184D01*
%TO.N,/~{Read Flags}*%
X2621878Y-2623154D02*
X4446734Y-798298D01*
X2621878Y-7480436D02*
X2621878Y-2623154D01*
X1500000Y-8602314D02*
X2621878Y-7480436D01*
X3838159Y-25794991D02*
X3410000Y-25366832D01*
X4038966Y-31662585D02*
X4038966Y-26052944D01*
%TO.N,/Read Flags*%
X3963044Y126994D02*
X4825997Y126994D01*
X2121000Y-6628209D02*
X2121000Y-1715050D01*
X2221878Y-7308987D02*
X2221878Y-6729087D01*
X1100000Y-8436628D02*
X2121000Y-7415629D01*
X1100000Y-11600000D02*
X1100000Y-8436628D01*
X0Y-12700000D02*
X1100000Y-11600000D01*
%TO.N,/~{Read Flags}*%
X1500000Y-13478389D02*
X1500000Y-8602314D01*
%TO.N,/CLK*%
X1396995Y-3810005D02*
X1396995Y-6894154D01*
%TO.N,/Read Flags*%
X2121000Y-1715050D02*
X3963044Y126994D01*
%TO.N,/CLK*%
X1397000Y-3810000D02*
X1396995Y-3810005D01*
%TO.N,/Read Flags*%
X2221878Y-6729087D02*
X2121000Y-6628209D01*
%TO.N,/~{Read Flags}*%
X3410000Y-15388389D02*
X1500000Y-13478389D01*
X3410000Y-25366832D02*
X3410000Y-15388389D01*
%TO.N,/Read Flags*%
X2121000Y-7415629D02*
X2121000Y-7409865D01*
%TO.N,/~{Read Flags}*%
X4038966Y-26052944D02*
X3838159Y-25852137D01*
%TO.N,/D6*%
X2200000Y-11128271D02*
X3021876Y-10306395D01*
X3021876Y-10306395D02*
X3021876Y-3212533D01*
%TO.N,/~{Read Flags}*%
X3838159Y-25852137D02*
X3838159Y-25794991D01*
X6598381Y-34222000D02*
X4038966Y-31662585D01*
%TO.N,/Read Flags*%
X2121000Y-7409865D02*
X2221878Y-7308987D01*
%TO.N,/D6*%
X3021876Y-3212533D02*
X5311225Y-923184D01*
%TO.N,/CLK*%
X1396995Y-6894154D02*
X1521878Y-7019037D01*
D15*
%TO.N,/3.3V*%
X6303001Y-13746893D02*
X6303001Y-11903304D01*
X7013000Y-14456892D02*
X6303001Y-13746893D01*
X7013000Y-16706000D02*
X7013000Y-14456892D01*
X6303001Y-11903304D02*
X6306767Y-11899538D01*
X8806000Y-18499000D02*
X7013000Y-16706000D01*
D14*
%TO.N,/~{Interrupt Enable}*%
X5812999Y-14374121D02*
X5951537Y-14512659D01*
X5733790Y-10294260D02*
X5396000Y-10632050D01*
X5733790Y-2758267D02*
X5733790Y-10294260D01*
X5396000Y-12853050D02*
X5812999Y-13270049D01*
X5812999Y-13270049D02*
X5812999Y-14374121D01*
X5657543Y-2682020D02*
X5733790Y-2758267D01*
X5396000Y-10632050D02*
X5396000Y-12853050D01*
%TO.N,/~{Reset}*%
X9525000Y-14732006D02*
X10413994Y-15621000D01*
X9525000Y-1143000D02*
X9525000Y-14732006D01*
X10414000Y-254000D02*
X9525000Y-1143000D01*
D15*
%TO.N,/3.3V*%
X10540992Y-11243935D02*
X11870057Y-12573000D01*
X11870057Y-12573000D02*
X12192000Y-12573000D01*
X10540992Y-7112006D02*
X10540992Y-11243935D01*
X11049000Y-6603998D02*
X10540992Y-7112006D01*
D14*
%TO.N,/F1*%
X14035000Y-20362593D02*
X13743335Y-20070928D01*
X14035000Y-22864315D02*
X14035000Y-20362593D01*
X15016392Y-32924346D02*
X12340000Y-30247954D01*
X13316000Y-23583315D02*
X14035000Y-22864315D01*
X12340000Y-28681368D02*
X13316000Y-27705369D01*
X12340000Y-30247954D02*
X12340000Y-28681368D01*
X13316000Y-27705369D02*
X13316000Y-23583315D01*
D15*
%TO.N,/GND*%
X1016000Y-16510000D02*
X1383975Y-16142025D01*
X-635000Y-16510000D02*
X1016000Y-16510000D01*
%TO.N,/5V*%
X-492915Y-13890000D02*
X-1270000Y-13112915D01*
X332915Y-13890000D02*
X-492915Y-13890000D01*
X2187000Y-15744085D02*
X332915Y-13890000D01*
X2667000Y-38227000D02*
X2187000Y-37747000D01*
X-1270000Y-1270000D02*
X0Y0D01*
X-1270000Y-13112915D02*
X-1270000Y-1270000D01*
X2187000Y-37747000D02*
X2187000Y-15744085D01*
%TO.N,/GND*%
X-1190000Y-26750000D02*
X0Y-27940000D01*
X-635000Y-16510000D02*
X-1190000Y-17065000D01*
X-1190000Y-17065000D02*
X-1190000Y-26750000D01*
X6477000Y213344D02*
X6668843Y405187D01*
X6477000Y-4302996D02*
X6477000Y213344D01*
D14*
%TO.N,/Interrupt Enable*%
X8128000Y-4302994D02*
X8128000Y-2505000D01*
X8128000Y-2505000D02*
X7476257Y-1853257D01*
%TO.N,/Write Clear Interrupt*%
X1524000Y-2693050D02*
X1524000Y761994D01*
X0Y-4217050D02*
X1524000Y-2693050D01*
X0Y-5080000D02*
X0Y-4217050D01*
%TO.N,/~{Enable Bit}*%
X3575000Y-14001901D02*
X3575000Y-3664000D01*
X4468710Y-14895611D02*
X3575000Y-14001901D01*
%TO.N,/~{Clear Interrupt}*%
X4825992Y-5396419D02*
X5033790Y-5188621D01*
X4825992Y-7030781D02*
X4825992Y-5396419D01*
%TO.N,/Set Disable*%
X4061000Y-13497950D02*
X4061000Y-4581411D01*
X5267215Y-14704165D02*
X4061000Y-13497950D01*
X4061000Y-4581411D02*
X5033790Y-3608621D01*
X5267215Y-15718752D02*
X5267215Y-14704165D01*
X5842000Y-16293537D02*
X5267215Y-15718752D01*
%TO.N,/~{Enable Bit}*%
X3575000Y-3664000D02*
X4572000Y-2667000D01*
%TO.N,/~{Set Disable}*%
X7351312Y-5922318D02*
X7351312Y-3363541D01*
X7747000Y-6318006D02*
X7351312Y-5922318D01*
D15*
%TO.N,/GND*%
X6477000Y-6223000D02*
X6477000Y-4302996D01*
X7620000Y-7366000D02*
X6477000Y-6223000D01*
X7747000Y-7366000D02*
X7620000Y-7366000D01*
D14*
%TO.N,/~{Enable}*%
X15240000Y-14478000D02*
X12046000Y-11284000D01*
%TO.N,/Enable*%
X12740000Y-11331370D02*
X12740000Y-8096568D01*
X14108630Y-12700000D02*
X12740000Y-11331370D01*
X15240000Y-12700000D02*
X14108630Y-12700000D01*
%TO.N,/~{Enable}*%
X12046000Y-11284000D02*
X12046000Y-9484012D01*
%TO.N,/Interrupt*%
X13740000Y-9060018D02*
X13439988Y-9360030D01*
X13740000Y-6580000D02*
X13740000Y-9060018D01*
X15240000Y-5080000D02*
X13740000Y-6580000D01*
%TO.N,/~{Interrupt}*%
X15240000Y-7620000D02*
X14140000Y-8720000D01*
X14140000Y-8720000D02*
X14140000Y-10889252D01*
%TO.N,/~{Enable}*%
X12046000Y-9484012D02*
X12039988Y-9478000D01*
%TO.N,/~{Interrupt}*%
X14140000Y-10889252D02*
X13843252Y-11186000D01*
%TO.N,/~{Enable}*%
X15240000Y-15240000D02*
X15240000Y-14478000D01*
%TO.N,/Enable*%
X12740000Y-8096568D02*
X12816697Y-8019871D01*
D15*
%TO.N,/GND*%
X16430000Y-36052915D02*
X16430000Y-29130000D01*
X4953000Y-17079994D02*
X4953000Y-18857997D01*
X11250000Y-10835714D02*
X11346000Y-10931714D01*
X11950680Y-20924311D02*
X11950680Y-24742887D01*
X4510006Y-16637000D02*
X4953000Y-17079994D01*
X12065000Y-7112000D02*
X11250000Y-7927000D01*
X11250000Y-7927000D02*
X11250000Y-10835714D01*
X10541000Y-28596385D02*
X10541000Y-34417000D01*
X-492915Y-39290000D02*
X-1190000Y-38592915D01*
X-1190000Y-29130000D02*
X0Y-27940000D01*
X4445000Y-36322000D02*
X4445000Y-38100000D01*
X3255000Y-39290000D02*
X-492915Y-39290000D01*
X11925500Y-25251079D02*
X11925500Y-27211885D01*
X4445000Y-38100000D02*
X3255000Y-39290000D01*
X11950680Y-24742887D02*
X11683994Y-25009573D01*
X11925500Y-27211885D02*
X10541000Y-28596385D01*
X12065000Y-35941000D02*
X12874000Y-36750000D01*
X10541000Y-34417000D02*
X12065000Y-35941000D01*
X15732915Y-36750000D02*
X16430000Y-36052915D01*
X16430000Y-29130000D02*
X15240000Y-27940000D01*
X12874000Y-36750000D02*
X15732915Y-36750000D01*
X11683994Y-25009573D02*
X11925500Y-25251079D01*
X12130000Y-20744991D02*
X11950680Y-20924311D01*
X-1190000Y-38592915D02*
X-1190000Y-29130000D01*
%TO.N,/3.3V*%
X8992793Y-18685793D02*
X8806000Y-18499000D01*
X13843000Y700042D02*
X13843000Y-3175000D01*
X8992793Y-19469608D02*
X8992793Y-18685793D01*
X9003194Y-19480009D02*
X8992793Y-19469608D01*
X7366000Y-38227006D02*
X9003194Y-36589812D01*
X13843000Y-3175000D02*
X14160500Y-3492500D01*
X9003194Y-36589812D02*
X9003194Y-19480009D01*
D14*
%TO.N,/~{Interrupt}*%
X6439588Y-10578412D02*
X6223000Y-10795000D01*
X6439588Y-7704163D02*
X6439588Y-10578412D01*
%TO.N,/Enable*%
X12816697Y-3799699D02*
X12816697Y-8019871D01*
X11135500Y-25867500D02*
X11135500Y-26884656D01*
X7966500Y-15771186D02*
X9906000Y-17710687D01*
X9906000Y-17710687D02*
X9906000Y-24638000D01*
X9906000Y-24638000D02*
X11135500Y-25867500D01*
X11683998Y-2667000D02*
X12816697Y-3799699D01*
X7966500Y-13727478D02*
X7966500Y-15771186D01*
X7899245Y-13660223D02*
X7966500Y-13727478D01*
%TO.N,/Interrupt*%
X7187259Y-13906831D02*
X7187259Y-13938187D01*
X7747000Y-9303029D02*
X7747000Y-11449255D01*
X7503002Y-14253930D02*
X7503002Y-15873374D01*
X6793001Y-13512573D02*
X7187259Y-13906831D01*
X7503002Y-15873374D02*
X9506000Y-17876372D01*
X9506000Y-17876372D02*
X9506000Y-25254000D01*
X6793001Y-12403254D02*
X6793001Y-13512573D01*
X7187259Y-13938187D02*
X7503002Y-14253930D01*
X9506000Y-25254000D02*
X10414000Y-26162000D01*
X7747000Y-11449255D02*
X6793001Y-12403254D01*
%TO.N,/D0*%
X8113194Y-20686194D02*
X6731000Y-19304000D01*
X6731000Y-19304000D02*
X6096000Y-19304000D01*
X8102793Y-31044842D02*
X8102793Y-29845823D01*
X6365444Y-32642000D02*
X6505635Y-32642000D01*
X6505635Y-32642000D02*
X8102793Y-31044842D01*
X8102793Y-29845823D02*
X8113194Y-29835422D01*
X8113194Y-29835422D02*
X8113194Y-20686194D01*
%TO.N,/D1*%
X7713194Y-29669737D02*
X7702793Y-29680137D01*
X7702793Y-29680137D02*
X7702793Y-30879157D01*
X6639950Y-31942000D02*
X5626136Y-31942000D01*
X7702793Y-30879157D02*
X6639950Y-31942000D01*
X6678633Y-20248508D02*
X7713194Y-21283069D01*
X7713194Y-21283069D02*
X7713194Y-29669737D01*
X5626136Y-31942000D02*
X5565166Y-32002970D01*
%TO.N,/D2*%
X7302793Y-30169627D02*
X7302793Y-29514452D01*
X7313194Y-29504051D02*
X7313194Y-21527336D01*
X6853037Y-21067179D02*
X5969000Y-21067179D01*
X7302793Y-29514452D02*
X7313194Y-29504051D01*
X6383542Y-31088878D02*
X7302793Y-30169627D01*
X7313194Y-21527336D02*
X6853037Y-21067179D01*
%TO.N,/D3*%
X6913195Y-28427094D02*
X6902760Y-28416658D01*
X6902760Y-22396760D02*
X6477000Y-21971000D01*
X5648590Y-30602970D02*
X6913195Y-29338365D01*
X5509530Y-30602970D02*
X5648590Y-30602970D01*
X6902760Y-28416658D02*
X6902760Y-22396760D01*
X6913195Y-29338365D02*
X6913195Y-28427094D01*
%TO.N,/D4*%
X6513195Y-28592779D02*
X6502760Y-28582344D01*
X6502760Y-23382068D02*
X5587889Y-22467197D01*
X6027679Y-29658195D02*
X6513195Y-29172679D01*
X5181802Y-29658195D02*
X6027679Y-29658195D01*
X6502760Y-28582344D02*
X6502760Y-23382068D01*
X6513195Y-29172679D02*
X6513195Y-28592779D01*
%TO.N,/D5*%
X6077000Y-23946850D02*
X5597305Y-23467155D01*
X5813195Y-28882729D02*
X6077000Y-28618924D01*
X6077000Y-28618924D02*
X6077000Y-23946850D01*
%TO.N,/D6*%
X5360259Y-27991184D02*
X5618000Y-27733443D01*
X5618000Y-27733443D02*
X5618000Y-24753266D01*
X2200000Y-13612703D02*
X3810000Y-15222704D01*
X3810000Y-15222704D02*
X3810000Y-22945266D01*
X2200000Y-11128271D02*
X2200000Y-13612703D01*
X5618000Y-24753266D02*
X5280355Y-24415621D01*
X3810000Y-22945266D02*
X5280355Y-24415621D01*
%TO.N,/D7*%
X4831857Y-25855885D02*
X4831857Y-27142187D01*
X4538159Y-25562187D02*
X4831857Y-25855885D01*
%TO.N,/F5*%
X14140000Y-24430012D02*
X14140000Y-28437003D01*
X16340000Y-23315635D02*
X15525635Y-24130000D01*
X15525635Y-24130000D02*
X14440012Y-24130000D01*
X14440012Y-24130000D02*
X14140000Y-24430012D01*
X14140000Y-28437003D02*
X13440000Y-29137003D01*
X15240000Y-20320000D02*
X16340000Y-21420000D01*
X16340000Y-21420000D02*
X16340000Y-23315635D01*
%TO.N,/F4*%
X12740000Y-28847053D02*
X12740000Y-29658003D01*
X13716000Y-23749000D02*
X13716000Y-27889015D01*
X13716000Y-27889015D02*
X13168012Y-28437003D01*
X12740000Y-29658003D02*
X13261564Y-30179567D01*
X13150050Y-28437003D02*
X12740000Y-28847053D01*
X13168012Y-28437003D02*
X13150050Y-28437003D01*
X14605000Y-22860000D02*
X13716000Y-23749000D01*
%TO.N,/F3*%
X12916000Y-27539683D02*
X11940000Y-28515683D01*
X11940000Y-28515683D02*
X11940000Y-30909701D01*
X11940000Y-30909701D02*
X12145299Y-31115000D01*
X12916000Y-22516981D02*
X12916000Y-27539683D01*
X13207977Y-22225004D02*
X12916000Y-22516981D01*
%TO.N,/F2*%
X12573000Y-18161000D02*
X12830000Y-18418000D01*
X12830000Y-21486050D02*
X12488885Y-21827165D01*
X11445289Y-28432711D02*
X11445289Y-31877002D01*
X11445289Y-31877002D02*
X11349237Y-31973054D01*
X12830000Y-18418000D02*
X12830000Y-21486050D01*
X12488885Y-21827165D02*
X12488885Y-27389115D01*
X12488885Y-27389115D02*
X11445289Y-28432711D01*
%TO.N,/F0*%
X8513194Y-30001107D02*
X8513194Y-19682974D01*
X8128000Y-32893000D02*
X8502795Y-32518205D01*
X8502795Y-30011507D02*
X8513194Y-30001107D01*
X8502795Y-32518205D02*
X8502795Y-30011507D01*
X8513194Y-19682974D02*
X8118000Y-19287780D01*
%TO.N,/~{Set Enable}*%
X4761000Y-8868062D02*
X5026033Y-8603029D01*
X4761000Y-13208000D02*
X4761000Y-8868062D01*
X4824500Y-13271500D02*
X4761000Y-13208000D01*
%TO.N,/Read Flags*%
X0Y-12700000D02*
X3010000Y-15710000D01*
X3010000Y-27013000D02*
X3048000Y-27051000D01*
X3010000Y-15710000D02*
X3010000Y-27013000D01*
%TO.N,/Write Flags*%
X11460680Y-22980559D02*
X11460680Y-23773158D01*
X11460680Y-23773158D02*
X10952266Y-24281572D01*
X11238850Y-17183379D02*
X11238850Y-22758729D01*
X11238850Y-22758729D02*
X11460680Y-22980559D01*
%TO.N,/~{Write Clear Interrupt}*%
X12791956Y-1770966D02*
X13052990Y-2032000D01*
X12791956Y1764836D02*
X12791956Y-1770966D01*
%TO.N,/F_{Interrupt Enable}*%
X7620000Y-12700000D02*
X7960329Y-12700000D01*
X8599245Y-13338916D02*
X8599245Y-15838245D01*
X10752377Y-17991377D02*
X10752377Y-23301751D01*
X8599245Y-15838245D02*
X10752377Y-17991377D01*
X7960329Y-12700000D02*
X8599245Y-13338916D01*
%TD*%
%TA.AperFunction,Conductor*%
%TO.N,/GND*%
G36*
X10080703Y-11326780D02*
G01*
X10107910Y-11368502D01*
X10111281Y-11366880D01*
X10111876Y-11368116D01*
X10116174Y-11381175D01*
X10117003Y-11382446D01*
X10117443Y-11382293D01*
X10120512Y-11391061D01*
X10120513Y-11391064D01*
X10120514Y-11391066D01*
X10147160Y-11441484D01*
X10148181Y-11443506D01*
X10172921Y-11494881D01*
X10177578Y-11501713D01*
X10182561Y-11508463D01*
X10182563Y-11508467D01*
X10222868Y-11548772D01*
X10224451Y-11550416D01*
X10263242Y-11592222D01*
X10270508Y-11598016D01*
X10269970Y-11598689D01*
X10282064Y-11607968D01*
X11538612Y-12864516D01*
X11543248Y-12869704D01*
X11560008Y-12890720D01*
X11567056Y-12899557D01*
X11614149Y-12931664D01*
X11616040Y-12933006D01*
X11661900Y-12966852D01*
X11661901Y-12966852D01*
X11668764Y-12971917D01*
X11697181Y-13001248D01*
X11701515Y-13007528D01*
X11701517Y-13007530D01*
X11819760Y-13112283D01*
X11819762Y-13112284D01*
X11959634Y-13185696D01*
X12113014Y-13223500D01*
X12113015Y-13223500D01*
X12270985Y-13223500D01*
X12424365Y-13185696D01*
X12498249Y-13146918D01*
X12564240Y-13112283D01*
X12682483Y-13007530D01*
X12772220Y-12877523D01*
X12806395Y-12787409D01*
X12848573Y-12731707D01*
X12914170Y-12707650D01*
X12982361Y-12722877D01*
X13010018Y-12743700D01*
X13715999Y-13449682D01*
X13716000Y-19420428D01*
X13664349Y-19420428D01*
X13510969Y-19458231D01*
X13364454Y-19535130D01*
X13363256Y-19532848D01*
X13308553Y-19550874D01*
X13240906Y-19533391D01*
X13193450Y-19482111D01*
X13180500Y-19426940D01*
X13180500Y-18467211D01*
X13183139Y-18441764D01*
X13185043Y-18432685D01*
X13184058Y-18424785D01*
X13191163Y-18365473D01*
X13209237Y-18317818D01*
X13228278Y-18161000D01*
X13209237Y-18004182D01*
X13153220Y-17856477D01*
X13063483Y-17726470D01*
X12945240Y-17621717D01*
X12945238Y-17621716D01*
X12945237Y-17621715D01*
X12805365Y-17548303D01*
X12651986Y-17510500D01*
X12651985Y-17510500D01*
X12494015Y-17510500D01*
X12494014Y-17510500D01*
X12340634Y-17548303D01*
X12200762Y-17621715D01*
X12200759Y-17621717D01*
X12200760Y-17621717D01*
X12086816Y-17722662D01*
X12082516Y-17726471D01*
X11992781Y-17856475D01*
X11992780Y-17856476D01*
X11936762Y-18004181D01*
X11917721Y-18160999D01*
X11917721Y-18161000D01*
X11936762Y-18317818D01*
X11977331Y-18424788D01*
X11992780Y-18465523D01*
X12082517Y-18595530D01*
X12200760Y-18700283D01*
X12340635Y-18773696D01*
X12385173Y-18784673D01*
X12445554Y-18819828D01*
X12477343Y-18882047D01*
X12479499Y-18905070D01*
X12479499Y-21289505D01*
X12459814Y-21356544D01*
X12443180Y-21377186D01*
X12275840Y-21544526D01*
X12255991Y-21560647D01*
X12248216Y-21565727D01*
X12228028Y-21591663D01*
X12222952Y-21597413D01*
X12220519Y-21599846D01*
X12220509Y-21599859D01*
X12208580Y-21616566D01*
X12207049Y-21618618D01*
X12176368Y-21658037D01*
X12172860Y-21664518D01*
X12169646Y-21671096D01*
X12155391Y-21718974D01*
X12154610Y-21721411D01*
X12138384Y-21768677D01*
X12137179Y-21775898D01*
X12136267Y-21783213D01*
X12138331Y-21833114D01*
X12138384Y-21835676D01*
X12138384Y-27192570D01*
X12118699Y-27259609D01*
X12102065Y-27280251D01*
X11232244Y-28150072D01*
X11212395Y-28166193D01*
X11204620Y-28171273D01*
X11184432Y-28197209D01*
X11179356Y-28202959D01*
X11176923Y-28205392D01*
X11176913Y-28205405D01*
X11164984Y-28222112D01*
X11163453Y-28224164D01*
X11132772Y-28263583D01*
X11129264Y-28270064D01*
X11126050Y-28276642D01*
X11111795Y-28324520D01*
X11111014Y-28326957D01*
X11094788Y-28374223D01*
X11093583Y-28381444D01*
X11092671Y-28388757D01*
X11094736Y-28438659D01*
X11094789Y-28441221D01*
X11094789Y-31296987D01*
X11075104Y-31364026D01*
X11028416Y-31406783D01*
X10977000Y-31433768D01*
X10976999Y-31433769D01*
X10858753Y-31538525D01*
X10769018Y-31668529D01*
X10769017Y-31668530D01*
X10712999Y-31816235D01*
X10693959Y-31973053D01*
X10693959Y-31973054D01*
X10712999Y-32129872D01*
X10734720Y-32187144D01*
X10769017Y-32277577D01*
X10858754Y-32407584D01*
X10976997Y-32512337D01*
X10976999Y-32512338D01*
X11116871Y-32585750D01*
X11270251Y-32623554D01*
X11270252Y-32623554D01*
X11428222Y-32623554D01*
X11581602Y-32585750D01*
X11721477Y-32512337D01*
X11839720Y-32407584D01*
X11929457Y-32277577D01*
X11985474Y-32129872D01*
X12004515Y-31973054D01*
X11996185Y-31904446D01*
X12007646Y-31835522D01*
X12054550Y-31783737D01*
X12119281Y-31765500D01*
X12224284Y-31765500D01*
X12377664Y-31727696D01*
X12405426Y-31713125D01*
X12517539Y-31654283D01*
X12635782Y-31549530D01*
X12725519Y-31419523D01*
X12737352Y-31388320D01*
X12779529Y-31332618D01*
X12845126Y-31308560D01*
X12913317Y-31323786D01*
X12940971Y-31344607D01*
X13715999Y-32119635D01*
X13716000Y-40463232D01*
X1524000Y-40463232D01*
X1524000Y-15704046D01*
X1628755Y-15808801D01*
X1710179Y-15890225D01*
X1743664Y-15951548D01*
X1746498Y-15977906D01*
X1746499Y-37718766D01*
X1746109Y-37725712D01*
X1741834Y-37763657D01*
X1747287Y-37792470D01*
X1752438Y-37819698D01*
X1752821Y-37821952D01*
X1761315Y-37878305D01*
X1763781Y-37886301D01*
X1766521Y-37894130D01*
X1793145Y-37944504D01*
X1794190Y-37946574D01*
X1818930Y-37997948D01*
X1823586Y-38004778D01*
X1828569Y-38011528D01*
X1828571Y-38011532D01*
X1868876Y-38051837D01*
X1870459Y-38053481D01*
X1909250Y-38095287D01*
X1916516Y-38101081D01*
X1915978Y-38101754D01*
X1928072Y-38111033D01*
X1976998Y-38159959D01*
X2010483Y-38221282D01*
X2012413Y-38232693D01*
X2030763Y-38383818D01*
X2086780Y-38531523D01*
X2176517Y-38661530D01*
X2294760Y-38766283D01*
X2294773Y-38766290D01*
X2434634Y-38839696D01*
X2588014Y-38877500D01*
X2588015Y-38877500D01*
X2745985Y-38877500D01*
X2899365Y-38839696D01*
X2899364Y-38839695D01*
X3039240Y-38766283D01*
X3157483Y-38661530D01*
X3247220Y-38531523D01*
X3303237Y-38383818D01*
X3322278Y-38227000D01*
X3315178Y-38168521D01*
X3303237Y-38070181D01*
X3275842Y-37997948D01*
X3247220Y-37922477D01*
X3157483Y-37792470D01*
X3039240Y-37687717D01*
X3039238Y-37687716D01*
X3039237Y-37687715D01*
X2899365Y-37614303D01*
X2745985Y-37576499D01*
X2738540Y-37575596D01*
X2738880Y-37572794D01*
X2684461Y-37556815D01*
X2638706Y-37504011D01*
X2627500Y-37452500D01*
X2627500Y-32623554D01*
X2627499Y-27770074D01*
X2647184Y-27703036D01*
X2699988Y-27657281D01*
X2769146Y-27647337D01*
X2809125Y-27660279D01*
X2815635Y-27663696D01*
X2815637Y-27663697D01*
X2969014Y-27701500D01*
X2969015Y-27701500D01*
X3126985Y-27701500D01*
X3280365Y-27663696D01*
X3350643Y-27626811D01*
X3420240Y-27590283D01*
X3482238Y-27535357D01*
X3545471Y-27505636D01*
X3614734Y-27514820D01*
X3668038Y-27559992D01*
X3688458Y-27626811D01*
X3688465Y-27628173D01*
X3688465Y-31613373D01*
X3685828Y-31638811D01*
X3683923Y-31647898D01*
X3683923Y-31647902D01*
X3687989Y-31680522D01*
X3688466Y-31688199D01*
X3688466Y-31691625D01*
X3689604Y-31698444D01*
X3691842Y-31711861D01*
X3692211Y-31714393D01*
X3698393Y-31763978D01*
X3700486Y-31771011D01*
X3702873Y-31777964D01*
X3702874Y-31777966D01*
X3704807Y-31781537D01*
X3726657Y-31821915D01*
X3727830Y-31824193D01*
X3749768Y-31869069D01*
X3749770Y-31869071D01*
X3754037Y-31875049D01*
X3758548Y-31880844D01*
X3795307Y-31914683D01*
X3797156Y-31916457D01*
X5917690Y-34036991D01*
X5951175Y-34098314D01*
X5953105Y-34139617D01*
X5943103Y-34221999D01*
X5943103Y-34222000D01*
X5962143Y-34378818D01*
X6018161Y-34526523D01*
X6107898Y-34656530D01*
X6226141Y-34761283D01*
X6226143Y-34761284D01*
X6366015Y-34834696D01*
X6519395Y-34872500D01*
X6519396Y-34872500D01*
X6677366Y-34872500D01*
X6830746Y-34834696D01*
X6830745Y-34834696D01*
X6970621Y-34761283D01*
X7088864Y-34656530D01*
X7178601Y-34526523D01*
X7234618Y-34378818D01*
X7253659Y-34222000D01*
X7234618Y-34065182D01*
X7178601Y-33917477D01*
X7088864Y-33787470D01*
X6970621Y-33682717D01*
X6970619Y-33682716D01*
X6970618Y-33682715D01*
X6830746Y-33609303D01*
X6677367Y-33571500D01*
X6677366Y-33571500D01*
X6519396Y-33571500D01*
X6519394Y-33571500D01*
X6511953Y-33572404D01*
X6511565Y-33569209D01*
X6456043Y-33566476D01*
X6409105Y-33537042D01*
X6374945Y-33502882D01*
X6341460Y-33441559D01*
X6346444Y-33371867D01*
X6388316Y-33315934D01*
X6437604Y-33296151D01*
X6437147Y-33294295D01*
X6597809Y-33254696D01*
X6618977Y-33243586D01*
X6737684Y-33181283D01*
X6855927Y-33076530D01*
X6945664Y-32946523D01*
X7001681Y-32798818D01*
X7018246Y-32662387D01*
X7045868Y-32598211D01*
X7053650Y-32589665D01*
X7940615Y-31702701D01*
X8001937Y-31669217D01*
X8071629Y-31674201D01*
X8127562Y-31716073D01*
X8151979Y-31781537D01*
X8152295Y-31790383D01*
X8152295Y-32120105D01*
X8132610Y-32187144D01*
X8079806Y-32232899D01*
X8056024Y-32239599D01*
X8056297Y-32240705D01*
X7895634Y-32280303D01*
X7755762Y-32353715D01*
X7637516Y-32458471D01*
X7547781Y-32588475D01*
X7547780Y-32588476D01*
X7491762Y-32736181D01*
X7472721Y-32892999D01*
X7472721Y-32893000D01*
X7491762Y-33049818D01*
X7531276Y-33154006D01*
X7547780Y-33197523D01*
X7637517Y-33327530D01*
X7755760Y-33432283D01*
X7755762Y-33432284D01*
X7895634Y-33505696D01*
X8049014Y-33543500D01*
X8049015Y-33543500D01*
X8206985Y-33543500D01*
X8360365Y-33505696D01*
X8381066Y-33494830D01*
X8449574Y-33481104D01*
X8514628Y-33506595D01*
X8555573Y-33563210D01*
X8562694Y-33604626D01*
X8562694Y-36355988D01*
X8543009Y-36423027D01*
X8526375Y-36443669D01*
X7429858Y-37540187D01*
X7368535Y-37573672D01*
X7342177Y-37576506D01*
X7287014Y-37576506D01*
X7133634Y-37614309D01*
X6993762Y-37687721D01*
X6875516Y-37792477D01*
X6785781Y-37922481D01*
X6785780Y-37922482D01*
X6729762Y-38070187D01*
X6710721Y-38227005D01*
X6710721Y-38227006D01*
X6729762Y-38383824D01*
X6785778Y-38531523D01*
X6785780Y-38531529D01*
X6875517Y-38661536D01*
X6993760Y-38766289D01*
X6993762Y-38766290D01*
X7133634Y-38839702D01*
X7287014Y-38877506D01*
X7287015Y-38877506D01*
X7444985Y-38877506D01*
X7598365Y-38839702D01*
X7598376Y-38839696D01*
X7738240Y-38766289D01*
X7856483Y-38661536D01*
X7946220Y-38531529D01*
X8002237Y-38383824D01*
X8020587Y-38232696D01*
X8048207Y-38168521D01*
X8055990Y-38159975D01*
X9294722Y-36921243D01*
X9299890Y-36916624D01*
X9329751Y-36892813D01*
X9361888Y-36845674D01*
X9363176Y-36843858D01*
X9397046Y-36797969D01*
X9397047Y-36797967D01*
X9400937Y-36790606D01*
X9404550Y-36783101D01*
X9404554Y-36783097D01*
X9421355Y-36728623D01*
X9422079Y-36726426D01*
X9440904Y-36672631D01*
X9440904Y-36672624D01*
X9442450Y-36664454D01*
X9443691Y-36656215D01*
X9443694Y-36656207D01*
X9443693Y-36599217D01*
X9443735Y-36596932D01*
X9445869Y-36539935D01*
X9445868Y-36539934D01*
X9444829Y-36530705D01*
X9445682Y-36530608D01*
X9443694Y-36515494D01*
X9443694Y-25986737D01*
X9463379Y-25919698D01*
X9516183Y-25873943D01*
X9585341Y-25863999D01*
X9648897Y-25893024D01*
X9655375Y-25899056D01*
X9733309Y-25976990D01*
X9766794Y-26038313D01*
X9768724Y-26079616D01*
X9758722Y-26161999D01*
X9758722Y-26162000D01*
X9777762Y-26318818D01*
X9827561Y-26450124D01*
X9833780Y-26466523D01*
X9923517Y-26596530D01*
X10041760Y-26701283D01*
X10041762Y-26701284D01*
X10181634Y-26774696D01*
X10335014Y-26812500D01*
X10335015Y-26812500D01*
X10361606Y-26812500D01*
X10428645Y-26832185D01*
X10474400Y-26884989D01*
X10484702Y-26921553D01*
X10499263Y-27041474D01*
X10555280Y-27189179D01*
X10645017Y-27319186D01*
X10763260Y-27423939D01*
X10763262Y-27423940D01*
X10903134Y-27497352D01*
X11056514Y-27535156D01*
X11056515Y-27535156D01*
X11214485Y-27535156D01*
X11367865Y-27497352D01*
X11367864Y-27497352D01*
X11507740Y-27423939D01*
X11625983Y-27319186D01*
X11715720Y-27189179D01*
X11771737Y-27041474D01*
X11790778Y-26884656D01*
X11771737Y-26727838D01*
X11761666Y-26701284D01*
X11745658Y-26659073D01*
X11715720Y-26580133D01*
X11637301Y-26466523D01*
X11625982Y-26450124D01*
X11558476Y-26390320D01*
X11527772Y-26363119D01*
X11490646Y-26303932D01*
X11486000Y-26270312D01*
X11486000Y-25916713D01*
X11488640Y-25891264D01*
X11490543Y-25882187D01*
X11489515Y-25873943D01*
X11486475Y-25849562D01*
X11485999Y-25841886D01*
X11486000Y-25838460D01*
X11482622Y-25818221D01*
X11482253Y-25815688D01*
X11476073Y-25766111D01*
X11476073Y-25766108D01*
X11476070Y-25766103D01*
X11473977Y-25759072D01*
X11471593Y-25752128D01*
X11471592Y-25752119D01*
X11447812Y-25708178D01*
X11446639Y-25705898D01*
X11424699Y-25661018D01*
X11420428Y-25655038D01*
X11415920Y-25649247D01*
X11415918Y-25649242D01*
X11398064Y-25632806D01*
X11379145Y-25615389D01*
X11377296Y-25613615D01*
X10907435Y-25143753D01*
X10873950Y-25082430D01*
X10878934Y-25012738D01*
X10920806Y-24956805D01*
X10986270Y-24932388D01*
X10995116Y-24932072D01*
X11031251Y-24932072D01*
X11184631Y-24894268D01*
X11184631Y-24894267D01*
X11324506Y-24820855D01*
X11442749Y-24716102D01*
X11532486Y-24586095D01*
X11588503Y-24438390D01*
X11607544Y-24281572D01*
X11597540Y-24199189D01*
X11609000Y-24130268D01*
X11632952Y-24096566D01*
X11673726Y-24055792D01*
X11693582Y-24039669D01*
X11701349Y-24034595D01*
X11721553Y-24008635D01*
X11726621Y-24002897D01*
X11729055Y-24000465D01*
X11741005Y-23983725D01*
X11742512Y-23981706D01*
X11749147Y-23973182D01*
X11773197Y-23942284D01*
X11773199Y-23942276D01*
X11776697Y-23935813D01*
X11779921Y-23929221D01*
X11781256Y-23924735D01*
X11794186Y-23881302D01*
X11794944Y-23878935D01*
X11811180Y-23831646D01*
X11811180Y-23831639D01*
X11812386Y-23824414D01*
X11813297Y-23817110D01*
X11811233Y-23767208D01*
X11811180Y-23764646D01*
X11811180Y-23029770D01*
X11813819Y-23004323D01*
X11815723Y-22995244D01*
X11812565Y-22969910D01*
X11811657Y-22962620D01*
X11811180Y-22954944D01*
X11811180Y-22951521D01*
X11808571Y-22935886D01*
X11807798Y-22931258D01*
X11807434Y-22928749D01*
X11801253Y-22879166D01*
X11799157Y-22872127D01*
X11796771Y-22865175D01*
X11772997Y-22821247D01*
X11771837Y-22818996D01*
X11756234Y-22787077D01*
X11749880Y-22774078D01*
X11745599Y-22768083D01*
X11741100Y-22762303D01*
X11741098Y-22762301D01*
X11704322Y-22728446D01*
X11702500Y-22726697D01*
X11625669Y-22649866D01*
X11592184Y-22588543D01*
X11589350Y-22562185D01*
X11589350Y-17797729D01*
X11609035Y-17730690D01*
X11631121Y-17704915D01*
X11729333Y-17617909D01*
X11819070Y-17487902D01*
X11875087Y-17340197D01*
X11894128Y-17183379D01*
X11880366Y-17070033D01*
X11875087Y-17026560D01*
X11848686Y-16956948D01*
X11819070Y-16878856D01*
X11729333Y-16748849D01*
X11611090Y-16644096D01*
X11611088Y-16644095D01*
X11611087Y-16644094D01*
X11471215Y-16570682D01*
X11317836Y-16532879D01*
X11317835Y-16532879D01*
X11159865Y-16532879D01*
X11159864Y-16532879D01*
X11006484Y-16570682D01*
X10866612Y-16644094D01*
X10748366Y-16748850D01*
X10658631Y-16878854D01*
X10658630Y-16878855D01*
X10602613Y-17026559D01*
X10598730Y-17058538D01*
X10571107Y-17122716D01*
X10513173Y-17161771D01*
X10443320Y-17163306D01*
X10387953Y-17131271D01*
X8986064Y-15729382D01*
X8952579Y-15668059D01*
X8949745Y-15641701D01*
X8949745Y-14893818D01*
X8969430Y-14826779D01*
X9022234Y-14781024D01*
X9091392Y-14771080D01*
X9154948Y-14800105D01*
X9181635Y-14839643D01*
X9184020Y-14838353D01*
X9188907Y-14847385D01*
X9188908Y-14847387D01*
X9197343Y-14862973D01*
X9212691Y-14891336D01*
X9213864Y-14893614D01*
X9235802Y-14938490D01*
X9235804Y-14938492D01*
X9240071Y-14944470D01*
X9244582Y-14950265D01*
X9281341Y-14984104D01*
X9283190Y-14985878D01*
X9733303Y-15435991D01*
X9766788Y-15497314D01*
X9768718Y-15538617D01*
X9758716Y-15620999D01*
X9758716Y-15621000D01*
X9777756Y-15777818D01*
X9816222Y-15879243D01*
X9833774Y-15925523D01*
X9923511Y-16055530D01*
X10041754Y-16160283D01*
X10041756Y-16160284D01*
X10181628Y-16233696D01*
X10335008Y-16271500D01*
X10335009Y-16271500D01*
X10492979Y-16271500D01*
X10646359Y-16233696D01*
X10646358Y-16233696D01*
X10786234Y-16160283D01*
X10904477Y-16055530D01*
X10994214Y-15925523D01*
X11050231Y-15777818D01*
X11069272Y-15621000D01*
X11051755Y-15476729D01*
X11050231Y-15464181D01*
X11028986Y-15408163D01*
X10994214Y-15316477D01*
X10904477Y-15186470D01*
X10786234Y-15081717D01*
X10786232Y-15081716D01*
X10786231Y-15081715D01*
X10646359Y-15008303D01*
X10492980Y-14970500D01*
X10492979Y-14970500D01*
X10335009Y-14970500D01*
X10335007Y-14970500D01*
X10327566Y-14971404D01*
X10327178Y-14968209D01*
X10271656Y-14965476D01*
X10224718Y-14936042D01*
X9911818Y-14623142D01*
X9878333Y-14561819D01*
X9875500Y-14535470D01*
X9875500Y-11420492D01*
X9895185Y-11353454D01*
X9947989Y-11307699D01*
X10017147Y-11297755D01*
X10080703Y-11326780D01*
G37*
%TD.AperFunction*%
%TA.AperFunction,Conductor*%
G36*
X13715999Y-31128271D02*
G01*
X13538368Y-30950640D01*
X13504884Y-30889318D01*
X13509868Y-30819626D01*
X13551740Y-30763693D01*
X13568415Y-30753168D01*
X13633804Y-30718850D01*
X13715999Y-30646031D01*
X13715999Y-31128271D01*
G37*
%TD.AperFunction*%
%TA.AperFunction,Conductor*%
G36*
X4868650Y-15502221D02*
G01*
X4909594Y-15558836D01*
X4916715Y-15600251D01*
X4916715Y-15669540D01*
X4914076Y-15694984D01*
X4912172Y-15704063D01*
X4912172Y-15704069D01*
X4916238Y-15736689D01*
X4916715Y-15744366D01*
X4916715Y-15747792D01*
X4917793Y-15754252D01*
X4920091Y-15768028D01*
X4920460Y-15770560D01*
X4926642Y-15820145D01*
X4928735Y-15827178D01*
X4931122Y-15834131D01*
X4931123Y-15834133D01*
X4938823Y-15848361D01*
X4954906Y-15878082D01*
X4956079Y-15880360D01*
X4978017Y-15925236D01*
X4978019Y-15925238D01*
X4982286Y-15931216D01*
X4986795Y-15937008D01*
X5023557Y-15970851D01*
X5025406Y-15972625D01*
X5161309Y-16108528D01*
X5194794Y-16169851D01*
X5196724Y-16211154D01*
X5186722Y-16293536D01*
X5186722Y-16293537D01*
X5205762Y-16450355D01*
X5237060Y-16532879D01*
X5261780Y-16598060D01*
X5351517Y-16728067D01*
X5469760Y-16832820D01*
X5469762Y-16832821D01*
X5609634Y-16906233D01*
X5763014Y-16944037D01*
X5763015Y-16944037D01*
X5920985Y-16944037D01*
X6074365Y-16906233D01*
X6079565Y-16903504D01*
X6214240Y-16832820D01*
X6332483Y-16728067D01*
X6349319Y-16703674D01*
X6403599Y-16659683D01*
X6473047Y-16652021D01*
X6535613Y-16683122D01*
X6571432Y-16743112D01*
X6573207Y-16751055D01*
X6578432Y-16778663D01*
X6578821Y-16780951D01*
X6587315Y-16837306D01*
X6589781Y-16845301D01*
X6592521Y-16853130D01*
X6619145Y-16903504D01*
X6620190Y-16905574D01*
X6644930Y-16956948D01*
X6649586Y-16963778D01*
X6654569Y-16970528D01*
X6654571Y-16970532D01*
X6694876Y-17010837D01*
X6696459Y-17012481D01*
X6735250Y-17054287D01*
X6742516Y-17060081D01*
X6741978Y-17060754D01*
X6754072Y-17070033D01*
X8110672Y-18426633D01*
X8144157Y-18487956D01*
X8139173Y-18557648D01*
X8097301Y-18613581D01*
X8045976Y-18634186D01*
X8046297Y-18635485D01*
X7885634Y-18675083D01*
X7745762Y-18748495D01*
X7627516Y-18853251D01*
X7537781Y-18983255D01*
X7537780Y-18983256D01*
X7481763Y-19130960D01*
X7466105Y-19259912D01*
X7438483Y-19324090D01*
X7380548Y-19363146D01*
X7310696Y-19364681D01*
X7255328Y-19332646D01*
X7013637Y-19090955D01*
X6997511Y-19071098D01*
X6992437Y-19063331D01*
X6966487Y-19043133D01*
X6960741Y-19038059D01*
X6958307Y-19035625D01*
X6941609Y-19023703D01*
X6939555Y-19022171D01*
X6914275Y-19002496D01*
X6900126Y-18991483D01*
X6900124Y-18991482D01*
X6893648Y-18987977D01*
X6887066Y-18984759D01*
X6839182Y-18970503D01*
X6836743Y-18969722D01*
X6789484Y-18953498D01*
X6782269Y-18952294D01*
X6774953Y-18951382D01*
X6726139Y-18953401D01*
X6725049Y-18953447D01*
X6722489Y-18953500D01*
X6709564Y-18953500D01*
X6642525Y-18933815D01*
X6607513Y-18899938D01*
X6586484Y-18869471D01*
X6530448Y-18819828D01*
X6468240Y-18764717D01*
X6468238Y-18764716D01*
X6468237Y-18764715D01*
X6328365Y-18691303D01*
X6174986Y-18653500D01*
X6174985Y-18653500D01*
X6017015Y-18653500D01*
X6017014Y-18653500D01*
X5863634Y-18691303D01*
X5723762Y-18764715D01*
X5605516Y-18869471D01*
X5515781Y-18999475D01*
X5515780Y-18999476D01*
X5459762Y-19147181D01*
X5440721Y-19303999D01*
X5440721Y-19304000D01*
X5459762Y-19460818D01*
X5515779Y-19608523D01*
X5515780Y-19608523D01*
X5605517Y-19738530D01*
X5723760Y-19843283D01*
X5723762Y-19843284D01*
X5863634Y-19916696D01*
X5901259Y-19925969D01*
X5952421Y-19938579D01*
X6012802Y-19973734D01*
X6044591Y-20035953D01*
X6043267Y-20084240D01*
X6043300Y-20084244D01*
X6043257Y-20084590D01*
X6043147Y-20088639D01*
X6042396Y-20091685D01*
X6023355Y-20248507D01*
X6023355Y-20248510D01*
X6026903Y-20277734D01*
X6015442Y-20346657D01*
X5968537Y-20398443D01*
X5903807Y-20416679D01*
X5890014Y-20416679D01*
X5736634Y-20454482D01*
X5596762Y-20527894D01*
X5596759Y-20527896D01*
X5596760Y-20527896D01*
X5505878Y-20608410D01*
X5478516Y-20632650D01*
X5388781Y-20762654D01*
X5388780Y-20762655D01*
X5332762Y-20910360D01*
X5313721Y-21067178D01*
X5313721Y-21067179D01*
X5332762Y-21223997D01*
X5377086Y-21340868D01*
X5388780Y-21371702D01*
X5478517Y-21501709D01*
X5586546Y-21597413D01*
X5589332Y-21599881D01*
X5626459Y-21659071D01*
X5625691Y-21728936D01*
X5587274Y-21787296D01*
X5523403Y-21815621D01*
X5511046Y-21816436D01*
X5508903Y-21816696D01*
X5355523Y-21854500D01*
X5215651Y-21927912D01*
X5097405Y-22032668D01*
X5007670Y-22162672D01*
X5007669Y-22162673D01*
X4951651Y-22310378D01*
X4932611Y-22467196D01*
X4932611Y-22467197D01*
X4951651Y-22624015D01*
X5004097Y-22762301D01*
X5007669Y-22771720D01*
X5097406Y-22901727D01*
X5097407Y-22901728D01*
X5098669Y-22903556D01*
X5120552Y-22969910D01*
X5103087Y-23037562D01*
X5098669Y-23044436D01*
X5017086Y-23162630D01*
X5017085Y-23162631D01*
X4961068Y-23310335D01*
X4960331Y-23316407D01*
X4932707Y-23380584D01*
X4874772Y-23419639D01*
X4804919Y-23421172D01*
X4749554Y-23389138D01*
X4196819Y-22836403D01*
X4163334Y-22775080D01*
X4160500Y-22748722D01*
X4160500Y-15647886D01*
X4180185Y-15580847D01*
X4232989Y-15535092D01*
X4302147Y-15525148D01*
X4314152Y-15527484D01*
X4389725Y-15546111D01*
X4389727Y-15546111D01*
X4547695Y-15546111D01*
X4701075Y-15508307D01*
X4735089Y-15490454D01*
X4803596Y-15476729D01*
X4868650Y-15502221D01*
G37*
%TD.AperFunction*%
%TA.AperFunction,Conductor*%
G36*
X12179016Y2364165D02*
G01*
X12246046Y2344452D01*
X12291779Y2291629D01*
X12301693Y2222467D01*
X12281013Y2169725D01*
X12211737Y2069361D01*
X12211736Y2069360D01*
X12155718Y1921655D01*
X12136678Y1764837D01*
X12136678Y1764836D01*
X12155718Y1608018D01*
X12211736Y1460313D01*
X12211737Y1460312D01*
X12301473Y1330305D01*
X12321302Y1312739D01*
X12399682Y1243301D01*
X12436809Y1184113D01*
X12441456Y1150486D01*
X12441456Y-1721754D01*
X12438817Y-1747198D01*
X12436913Y-1756278D01*
X12436913Y-1756283D01*
X12439274Y-1775227D01*
X12432169Y-1834532D01*
X12416753Y-1875180D01*
X12416752Y-1875185D01*
X12397712Y-2031999D01*
X12397712Y-2032000D01*
X12414259Y-2168283D01*
X12402798Y-2237206D01*
X12355894Y-2288992D01*
X12288438Y-2307199D01*
X12221848Y-2286046D01*
X12189114Y-2253670D01*
X12174481Y-2232470D01*
X12056238Y-2127717D01*
X12056236Y-2127716D01*
X12056235Y-2127715D01*
X11916363Y-2054303D01*
X11762984Y-2016500D01*
X11762983Y-2016500D01*
X11605013Y-2016500D01*
X11605012Y-2016500D01*
X11451632Y-2054303D01*
X11311760Y-2127715D01*
X11277822Y-2157781D01*
X11214977Y-2213457D01*
X11193514Y-2232471D01*
X11103779Y-2362475D01*
X11103778Y-2362476D01*
X11047760Y-2510181D01*
X11028720Y-2666999D01*
X11028720Y-2667000D01*
X11047760Y-2823818D01*
X11094476Y-2946995D01*
X11103778Y-2971523D01*
X11193515Y-3101530D01*
X11311758Y-3206283D01*
X11312596Y-3206723D01*
X11451632Y-3279696D01*
X11605012Y-3317500D01*
X11605013Y-3317500D01*
X11762984Y-3317500D01*
X11770429Y-3316596D01*
X11770835Y-3319941D01*
X11825457Y-3322221D01*
X11873273Y-3351957D01*
X12429877Y-3908561D01*
X12463362Y-3969884D01*
X12466196Y-3996242D01*
X12466196Y-7405520D01*
X12446511Y-7472559D01*
X12424423Y-7498335D01*
X12326215Y-7585339D01*
X12236478Y-7715346D01*
X12236477Y-7715347D01*
X12180459Y-7863052D01*
X12161419Y-8019870D01*
X12161419Y-8019871D01*
X12180459Y-8176689D01*
X12236477Y-8324394D01*
X12236478Y-8324395D01*
X12326214Y-8454402D01*
X12347725Y-8473458D01*
X12384852Y-8532647D01*
X12389499Y-8566273D01*
X12389500Y-8735902D01*
X12369816Y-8802942D01*
X12317012Y-8848697D01*
X12247854Y-8858641D01*
X12235826Y-8856300D01*
X12118974Y-8827500D01*
X12118973Y-8827500D01*
X11961003Y-8827500D01*
X11961002Y-8827500D01*
X11807622Y-8865303D01*
X11667750Y-8938715D01*
X11549504Y-9043471D01*
X11459769Y-9173475D01*
X11459768Y-9173476D01*
X11403750Y-9321181D01*
X11384710Y-9477999D01*
X11384710Y-9478000D01*
X11403750Y-9634818D01*
X11442715Y-9737559D01*
X11459768Y-9782523D01*
X11549505Y-9912530D01*
X11653727Y-10004862D01*
X11690853Y-10064050D01*
X11695500Y-10097677D01*
X11695500Y-11234788D01*
X11692861Y-11260232D01*
X11690957Y-11269312D01*
X11690957Y-11269316D01*
X11695023Y-11301938D01*
X11695499Y-11309600D01*
X11695499Y-11313033D01*
X11695501Y-11313052D01*
X11698876Y-11333277D01*
X11699245Y-11335809D01*
X11705427Y-11385393D01*
X11707520Y-11392426D01*
X11709907Y-11399379D01*
X11709908Y-11399381D01*
X11711385Y-11402110D01*
X11733691Y-11443330D01*
X11734864Y-11445608D01*
X11756802Y-11490484D01*
X11756803Y-11490485D01*
X11761315Y-11499714D01*
X11757975Y-11501346D01*
X11774665Y-11549389D01*
X11758270Y-11617308D01*
X11707759Y-11665582D01*
X11639167Y-11678884D01*
X11574272Y-11652991D01*
X11563131Y-11643113D01*
X11017811Y-11097793D01*
X10984326Y-11036470D01*
X10981492Y-11010112D01*
X10981492Y-7378498D01*
X11001177Y-7311459D01*
X11053981Y-7265704D01*
X11105492Y-7254498D01*
X11127985Y-7254498D01*
X11281365Y-7216694D01*
X11359176Y-7175855D01*
X11421240Y-7143281D01*
X11539483Y-7038528D01*
X11629220Y-6908521D01*
X11685237Y-6760816D01*
X11704278Y-6603998D01*
X11701912Y-6584507D01*
X11685237Y-6447179D01*
X11663992Y-6391161D01*
X11629220Y-6299475D01*
X11539483Y-6169468D01*
X11421240Y-6064715D01*
X11421238Y-6064714D01*
X11421237Y-6064713D01*
X11281365Y-5991301D01*
X11127986Y-5953498D01*
X11127985Y-5953498D01*
X10970015Y-5953498D01*
X10970014Y-5953498D01*
X10816634Y-5991301D01*
X10676762Y-6064713D01*
X10676759Y-6064715D01*
X10676760Y-6064715D01*
X10567865Y-6161187D01*
X10558516Y-6169469D01*
X10468781Y-6299473D01*
X10468780Y-6299474D01*
X10412763Y-6447178D01*
X10394413Y-6598303D01*
X10366791Y-6662481D01*
X10358998Y-6671037D01*
X10249473Y-6780563D01*
X10244286Y-6785198D01*
X10214435Y-6809004D01*
X10214433Y-6809006D01*
X10182323Y-6856102D01*
X10180983Y-6857990D01*
X10147140Y-6903847D01*
X10143240Y-6911227D01*
X10139631Y-6918721D01*
X10122833Y-6973177D01*
X10122110Y-6975374D01*
X10116544Y-6991284D01*
X10075826Y-7048063D01*
X10010875Y-7073814D01*
X9942312Y-7060362D01*
X9891907Y-7011978D01*
X9875500Y-6950337D01*
X9875500Y-1339542D01*
X9895185Y-1272503D01*
X9911815Y-1251865D01*
X10224724Y-938955D01*
X10286045Y-905472D01*
X10327270Y-906039D01*
X10327567Y-903596D01*
X10335013Y-904500D01*
X10335015Y-904500D01*
X10492985Y-904500D01*
X10646365Y-866696D01*
X10658435Y-860361D01*
X10786240Y-793283D01*
X10904483Y-688530D01*
X10994220Y-558523D01*
X11050237Y-410818D01*
X11069278Y-254000D01*
X11065576Y-223506D01*
X11050237Y-97181D01*
X11028992Y-41163D01*
X10994220Y50523D01*
X10904483Y180530D01*
X10786240Y285283D01*
X10786238Y285284D01*
X10786237Y285285D01*
X10646365Y358697D01*
X10492986Y396500D01*
X10492985Y396500D01*
X10335015Y396500D01*
X10335014Y396500D01*
X10181634Y358697D01*
X10041762Y285285D01*
X9923516Y180529D01*
X9833781Y50525D01*
X9833780Y50524D01*
X9777763Y-97181D01*
X9758722Y-254000D01*
X9768724Y-336381D01*
X9757263Y-405304D01*
X9733309Y-439007D01*
X9311955Y-860361D01*
X9292106Y-876482D01*
X9284331Y-881562D01*
X9264143Y-907498D01*
X9259067Y-913248D01*
X9256634Y-915681D01*
X9256624Y-915694D01*
X9244695Y-932401D01*
X9243164Y-934453D01*
X9212483Y-973872D01*
X9208975Y-980353D01*
X9205761Y-986931D01*
X9191506Y-1034809D01*
X9190725Y-1037246D01*
X9174499Y-1084512D01*
X9173294Y-1091733D01*
X9172382Y-1099046D01*
X9174447Y-1148948D01*
X9174500Y-1151510D01*
X9174500Y-13177101D01*
X9154815Y-13244140D01*
X9102011Y-13289895D01*
X9032853Y-13299839D01*
X8969297Y-13270814D01*
X8942613Y-13231282D01*
X8940228Y-13232573D01*
X8911560Y-13179599D01*
X8910387Y-13177321D01*
X8910279Y-13177101D01*
X8888443Y-13132433D01*
X8888441Y-13132431D01*
X8884181Y-13126463D01*
X8879662Y-13120657D01*
X8842891Y-13086806D01*
X8841042Y-13085032D01*
X8248814Y-12492803D01*
X8220553Y-12449093D01*
X8200220Y-12395477D01*
X8110483Y-12265470D01*
X7992240Y-12160717D01*
X7992238Y-12160716D01*
X7992237Y-12160715D01*
X7852365Y-12087303D01*
X7852076Y-12087194D01*
X7851894Y-12087056D01*
X7845724Y-12083818D01*
X7846262Y-12082792D01*
X7796373Y-12045017D01*
X7772315Y-11979419D01*
X7787542Y-11911229D01*
X7808359Y-11883577D01*
X7960050Y-11731885D01*
X7979902Y-11715766D01*
X7987669Y-11710692D01*
X8007873Y-11684732D01*
X8012941Y-11678994D01*
X8015375Y-11676562D01*
X8027333Y-11659810D01*
X8028800Y-11657844D01*
X8059517Y-11618381D01*
X8059519Y-11618373D01*
X8063006Y-11611930D01*
X8066234Y-11605327D01*
X8066239Y-11605321D01*
X8080501Y-11557410D01*
X8081259Y-11555045D01*
X8097500Y-11507743D01*
X8097500Y-11507736D01*
X8098705Y-11500516D01*
X8099617Y-11493207D01*
X8097553Y-11443306D01*
X8097500Y-11440744D01*
X8097500Y-9917379D01*
X8117185Y-9850340D01*
X8139271Y-9824565D01*
X8237483Y-9737559D01*
X8327220Y-9607552D01*
X8383237Y-9459847D01*
X8402278Y-9303029D01*
X8399730Y-9282040D01*
X8383237Y-9146210D01*
X8344273Y-9043471D01*
X8327220Y-8998506D01*
X8237483Y-8868499D01*
X8119240Y-8763746D01*
X8119238Y-8763745D01*
X8119237Y-8763744D01*
X7979365Y-8690332D01*
X7825986Y-8652529D01*
X7825985Y-8652529D01*
X7668015Y-8652529D01*
X7668014Y-8652529D01*
X7514634Y-8690332D01*
X7374762Y-8763744D01*
X7330516Y-8802942D01*
X7260124Y-8865304D01*
X7256516Y-8868500D01*
X7166781Y-8998504D01*
X7166780Y-8998505D01*
X7110762Y-9146210D01*
X7091721Y-9303028D01*
X7091721Y-9303029D01*
X7110762Y-9459847D01*
X7166780Y-9607552D01*
X7166781Y-9607553D01*
X7256517Y-9737560D01*
X7317109Y-9791239D01*
X7354726Y-9824564D01*
X7391853Y-9883752D01*
X7396500Y-9917379D01*
X7396500Y-11252710D01*
X7376815Y-11319749D01*
X7360181Y-11340391D01*
X7081379Y-11619192D01*
X7020056Y-11652677D01*
X6950364Y-11647693D01*
X6894431Y-11605821D01*
X6891429Y-11601062D01*
X6891248Y-11601188D01*
X6797250Y-11465008D01*
X6760889Y-11432795D01*
X6726251Y-11402109D01*
X6689125Y-11342920D01*
X6689893Y-11273055D01*
X6710381Y-11236503D01*
X6709222Y-11235703D01*
X6720621Y-11219189D01*
X6803220Y-11099523D01*
X6859237Y-10951818D01*
X6878278Y-10795000D01*
X6859237Y-10638182D01*
X6819473Y-10533333D01*
X6800561Y-10483465D01*
X6801930Y-10482945D01*
X6790088Y-10434892D01*
X6790088Y-8318513D01*
X6809773Y-8251474D01*
X6831859Y-8225699D01*
X6930071Y-8138693D01*
X7019808Y-8008686D01*
X7075825Y-7860981D01*
X7094866Y-7704163D01*
X7075825Y-7547345D01*
X7075723Y-7547077D01*
X7046180Y-7469177D01*
X7019808Y-7399640D01*
X6930071Y-7269633D01*
X6811828Y-7164880D01*
X6811826Y-7164879D01*
X6811825Y-7164878D01*
X6671953Y-7091466D01*
X6518574Y-7053663D01*
X6518573Y-7053663D01*
X6360603Y-7053663D01*
X6360602Y-7053663D01*
X6237964Y-7083889D01*
X6168161Y-7080819D01*
X6111100Y-7040499D01*
X6084895Y-6975729D01*
X6084290Y-6963492D01*
X6084290Y-3363541D01*
X6696033Y-3363541D01*
X6715074Y-3520359D01*
X6763983Y-3649319D01*
X6771092Y-3668064D01*
X6798888Y-3708335D01*
X6860829Y-3798072D01*
X6889486Y-3823459D01*
X6959038Y-3885076D01*
X6996165Y-3944264D01*
X7000812Y-3977891D01*
X7000812Y-5873106D01*
X6998173Y-5898550D01*
X6996269Y-5907629D01*
X6996269Y-5907635D01*
X7000335Y-5940255D01*
X7000812Y-5947932D01*
X7000812Y-5951358D01*
X7001169Y-5953498D01*
X7004188Y-5971594D01*
X7004557Y-5974126D01*
X7010739Y-6023711D01*
X7012832Y-6030744D01*
X7015219Y-6037697D01*
X7015220Y-6037699D01*
X7022920Y-6051927D01*
X7039003Y-6081648D01*
X7040176Y-6083926D01*
X7062114Y-6128802D01*
X7062116Y-6128804D01*
X7066385Y-6134784D01*
X7076138Y-6147313D01*
X7101783Y-6212305D01*
X7101384Y-6238425D01*
X7091722Y-6318005D01*
X7091722Y-6318006D01*
X7110762Y-6474824D01*
X7152360Y-6584507D01*
X7166780Y-6622529D01*
X7256517Y-6752536D01*
X7374760Y-6857289D01*
X7374762Y-6857290D01*
X7514634Y-6930702D01*
X7668014Y-6968506D01*
X7668015Y-6968506D01*
X7825985Y-6968506D01*
X7979365Y-6930702D01*
X7979364Y-6930702D01*
X8119240Y-6857289D01*
X8237483Y-6752536D01*
X8327220Y-6622529D01*
X8383237Y-6474824D01*
X8402278Y-6318006D01*
X8399772Y-6297362D01*
X8383237Y-6161187D01*
X8353494Y-6082762D01*
X8327220Y-6013483D01*
X8237483Y-5883476D01*
X8119240Y-5778723D01*
X8119238Y-5778722D01*
X8119237Y-5778721D01*
X7979365Y-5705309D01*
X7825986Y-5667506D01*
X7825985Y-5667506D01*
X7825812Y-5667506D01*
X7825689Y-5667469D01*
X7818540Y-5666602D01*
X7818684Y-5665413D01*
X7758773Y-5647821D01*
X7713018Y-5595017D01*
X7701812Y-5543506D01*
X7701812Y-5019084D01*
X7721497Y-4952045D01*
X7774301Y-4906290D01*
X7843459Y-4896346D01*
X7883439Y-4909289D01*
X7895635Y-4915690D01*
X8049014Y-4953494D01*
X8049015Y-4953494D01*
X8206985Y-4953494D01*
X8360365Y-4915690D01*
X8397221Y-4896346D01*
X8500240Y-4842277D01*
X8618483Y-4737524D01*
X8708220Y-4607517D01*
X8764237Y-4459812D01*
X8783278Y-4302994D01*
X8764237Y-4146176D01*
X8708220Y-3998471D01*
X8618483Y-3868464D01*
X8520271Y-3781457D01*
X8483145Y-3722268D01*
X8478499Y-3688642D01*
X8478499Y-3150254D01*
X8478499Y-2554201D01*
X8481137Y-2528771D01*
X8483043Y-2519685D01*
X8481488Y-2507211D01*
X8478977Y-2487061D01*
X8478500Y-2479385D01*
X8478500Y-2475962D01*
X8476926Y-2466530D01*
X8475118Y-2455699D01*
X8474754Y-2453190D01*
X8468573Y-2403607D01*
X8466477Y-2396568D01*
X8464091Y-2389616D01*
X8440317Y-2345688D01*
X8439157Y-2343437D01*
X8421443Y-2307199D01*
X8417200Y-2298519D01*
X8412919Y-2292524D01*
X8408420Y-2286744D01*
X8407662Y-2286046D01*
X8371642Y-2252887D01*
X8369820Y-2251138D01*
X8156946Y-2038264D01*
X8123461Y-1976941D01*
X8121531Y-1935641D01*
X8131535Y-1853257D01*
X8112494Y-1696439D01*
X8056477Y-1548734D01*
X7966740Y-1418727D01*
X7848497Y-1313974D01*
X7848495Y-1313973D01*
X7848494Y-1313972D01*
X7708622Y-1240560D01*
X7555243Y-1202757D01*
X7555242Y-1202757D01*
X7397272Y-1202757D01*
X7397271Y-1202757D01*
X7243891Y-1240560D01*
X7104019Y-1313972D01*
X6985773Y-1418728D01*
X6896038Y-1548732D01*
X6896037Y-1548733D01*
X6840019Y-1696438D01*
X6820979Y-1853256D01*
X6820979Y-1853257D01*
X6840019Y-2010075D01*
X6890331Y-2142735D01*
X6896037Y-2157780D01*
X6985774Y-2287787D01*
X7104017Y-2392540D01*
X7116117Y-2398890D01*
X7243891Y-2465953D01*
X7243890Y-2465953D01*
X7270876Y-2472604D01*
X7331257Y-2507760D01*
X7363046Y-2569979D01*
X7356150Y-2639507D01*
X7312760Y-2694271D01*
X7270877Y-2713398D01*
X7118945Y-2750845D01*
X6979074Y-2824256D01*
X6860828Y-2929012D01*
X6771093Y-3059016D01*
X6771092Y-3059017D01*
X6715074Y-3206722D01*
X6696033Y-3363540D01*
X6696033Y-3363541D01*
X6084290Y-3363541D01*
X6084290Y-3228822D01*
X6103975Y-3161783D01*
X6126065Y-3136005D01*
X6148026Y-3116550D01*
X6237763Y-2986543D01*
X6293780Y-2838838D01*
X6312821Y-2682020D01*
X6293780Y-2525202D01*
X6291686Y-2519681D01*
X6266951Y-2454459D01*
X6237763Y-2377497D01*
X6148026Y-2247490D01*
X6029783Y-2142737D01*
X6029781Y-2142736D01*
X6029780Y-2142735D01*
X5889908Y-2069323D01*
X5736529Y-2031520D01*
X5736528Y-2031520D01*
X5578558Y-2031520D01*
X5578557Y-2031520D01*
X5425177Y-2069323D01*
X5285304Y-2142735D01*
X5285302Y-2142737D01*
X5205474Y-2213457D01*
X5142241Y-2243178D01*
X5072977Y-2233994D01*
X5041022Y-2213458D01*
X4944240Y-2127717D01*
X4940348Y-2125674D01*
X4869258Y-2088362D01*
X4819046Y-2039776D01*
X4803072Y-1971757D01*
X4826408Y-1905900D01*
X4839198Y-1890891D01*
X5219331Y-1510758D01*
X5280652Y-1477275D01*
X5350344Y-1482259D01*
X5364636Y-1488645D01*
X5454634Y-1535880D01*
X5608014Y-1573684D01*
X5608015Y-1573684D01*
X5765985Y-1573684D01*
X5919365Y-1535880D01*
X5919364Y-1535880D01*
X6059240Y-1462467D01*
X6177483Y-1357714D01*
X6267220Y-1227707D01*
X6323237Y-1080002D01*
X6342278Y-923184D01*
X6341369Y-915693D01*
X6323237Y-766365D01*
X6279943Y-652209D01*
X6267220Y-618661D01*
X6177483Y-488654D01*
X6059240Y-383901D01*
X6059238Y-383900D01*
X6059237Y-383899D01*
X5919365Y-310487D01*
X5765986Y-272684D01*
X5765985Y-272684D01*
X5608015Y-272684D01*
X5608014Y-272684D01*
X5574995Y-280822D01*
X5505192Y-277752D01*
X5448131Y-237432D01*
X5421926Y-172662D01*
X5429378Y-116457D01*
X5462234Y-29824D01*
X5481275Y126994D01*
X5464044Y268910D01*
X5462234Y283813D01*
X5429658Y369707D01*
X5406217Y431517D01*
X5316480Y561524D01*
X5198237Y666277D01*
X5198235Y666278D01*
X5198234Y666279D01*
X5058362Y739691D01*
X4904983Y777494D01*
X4904982Y777494D01*
X4747012Y777494D01*
X4747011Y777494D01*
X4593631Y739691D01*
X4453759Y666279D01*
X4335512Y561523D01*
X4314484Y531056D01*
X4260202Y487064D01*
X4212433Y477494D01*
X4012255Y477494D01*
X3986809Y480133D01*
X3977729Y482037D01*
X3977728Y482037D01*
X3977726Y482037D01*
X3945105Y477971D01*
X3937429Y477494D01*
X3934004Y477494D01*
X3913772Y474119D01*
X3911240Y473750D01*
X3861655Y467569D01*
X3854604Y465470D01*
X3847661Y463086D01*
X3803722Y439308D01*
X3801446Y438136D01*
X3756559Y416192D01*
X3750573Y411919D01*
X3744787Y407415D01*
X3710946Y370653D01*
X3709172Y368805D01*
X2086181Y-1254186D01*
X2024858Y-1287671D01*
X1955166Y-1282687D01*
X1899233Y-1240815D01*
X1874816Y-1175351D01*
X1874500Y-1166505D01*
X1874500Y147644D01*
X1894185Y214683D01*
X1916271Y240458D01*
X2014483Y327464D01*
X2104220Y457471D01*
X2160237Y605176D01*
X2179278Y761994D01*
X2160237Y918812D01*
X2104220Y1066517D01*
X2014483Y1196524D01*
X1896240Y1301277D01*
X1896238Y1301278D01*
X1896237Y1301279D01*
X1756365Y1374691D01*
X1602986Y1412494D01*
X1602985Y1412494D01*
X1524000Y1412494D01*
X1524000Y2363521D01*
X6411718Y2365567D01*
X6478763Y2345910D01*
X6524540Y2293126D01*
X6528284Y2283989D01*
X6583317Y2132787D01*
X6663613Y1993709D01*
X6683008Y1960117D01*
X6683012Y1960110D01*
X6715280Y1921655D01*
X6811174Y1807374D01*
X6963913Y1679210D01*
X7136587Y1579517D01*
X7323949Y1511323D01*
X7520307Y1476700D01*
X7520309Y1476700D01*
X7719691Y1476700D01*
X7719693Y1476700D01*
X7916051Y1511323D01*
X8103413Y1579517D01*
X8276087Y1679210D01*
X8428826Y1807374D01*
X8556990Y1960113D01*
X8656683Y2132787D01*
X8711711Y2283979D01*
X8753137Y2340241D01*
X8818406Y2365177D01*
X8828262Y2365567D01*
X12179016Y2364165D01*
G37*
%TD.AperFunction*%
%TA.AperFunction,Conductor*%
G36*
X13715999Y2363522D02*
G01*
X13716000Y1338708D01*
X13610637Y1312739D01*
X13522449Y1266454D01*
X13453940Y1252729D01*
X13388887Y1278222D01*
X13347943Y1334838D01*
X13344108Y1404602D01*
X13362772Y1446690D01*
X13372176Y1460313D01*
X13428193Y1608018D01*
X13447234Y1764836D01*
X13428193Y1921654D01*
X13413607Y1960113D01*
X13382957Y2040931D01*
X13372176Y2069359D01*
X13303251Y2169215D01*
X13281369Y2235566D01*
X13298834Y2303218D01*
X13350102Y2350688D01*
X13405351Y2363652D01*
X13715999Y2363522D01*
G37*
%TD.AperFunction*%
%TD*%
%TA.AperFunction,Conductor*%
%TO.N,/GND*%
G36*
X16709761Y-23579330D02*
G01*
X16755907Y-23631792D01*
X16767499Y-23684141D01*
X16767499Y-38098138D01*
X16767386Y-38101883D01*
X16750494Y-38381108D01*
X16749591Y-38388547D01*
X16699504Y-38661864D01*
X16697711Y-38669140D01*
X16615044Y-38934428D01*
X16612386Y-38941435D01*
X16498348Y-39194815D01*
X16494865Y-39201451D01*
X16351111Y-39439246D01*
X16346854Y-39445413D01*
X16175489Y-39664143D01*
X16170519Y-39669752D01*
X15974032Y-39866237D01*
X15968423Y-39871206D01*
X15749687Y-40042573D01*
X15743520Y-40046830D01*
X15505730Y-40190576D01*
X15499095Y-40194058D01*
X15245708Y-40308095D01*
X15238702Y-40310752D01*
X14973405Y-40393419D01*
X14966129Y-40395213D01*
X14692820Y-40445295D01*
X14685381Y-40446199D01*
X14405610Y-40463119D01*
X14401867Y-40463232D01*
X13716000Y-40463232D01*
X13716000Y-38565701D01*
X14189500Y-38565701D01*
X14192401Y-38602567D01*
X14192402Y-38602573D01*
X14238254Y-38760393D01*
X14238255Y-38760396D01*
X14321917Y-38901862D01*
X14321923Y-38901870D01*
X14438129Y-39018076D01*
X14438133Y-39018079D01*
X14438135Y-39018081D01*
X14579602Y-39101744D01*
X14621224Y-39113836D01*
X14737426Y-39147597D01*
X14737429Y-39147597D01*
X14737431Y-39147598D01*
X14774306Y-39150500D01*
X14774314Y-39150500D01*
X15705686Y-39150500D01*
X15705694Y-39150500D01*
X15742569Y-39147598D01*
X15742571Y-39147597D01*
X15742573Y-39147597D01*
X15784191Y-39135505D01*
X15900398Y-39101744D01*
X16041865Y-39018081D01*
X16158081Y-38901865D01*
X16241744Y-38760398D01*
X16287598Y-38602569D01*
X16290500Y-38565694D01*
X16290500Y-37634306D01*
X16287598Y-37597431D01*
X16241744Y-37439602D01*
X16158081Y-37298135D01*
X16158079Y-37298133D01*
X16158076Y-37298129D01*
X16041870Y-37181923D01*
X16041862Y-37181917D01*
X15900396Y-37098255D01*
X15900393Y-37098254D01*
X15742573Y-37052402D01*
X15742567Y-37052401D01*
X15705701Y-37049500D01*
X15705694Y-37049500D01*
X14774306Y-37049500D01*
X14774298Y-37049500D01*
X14737432Y-37052401D01*
X14737426Y-37052402D01*
X14579606Y-37098254D01*
X14579603Y-37098255D01*
X14438137Y-37181917D01*
X14438129Y-37181923D01*
X14321923Y-37298129D01*
X14321917Y-37298137D01*
X14238255Y-37439603D01*
X14238254Y-37439606D01*
X14192402Y-37597426D01*
X14192401Y-37597432D01*
X14189500Y-37634298D01*
X14189500Y-38565701D01*
X13716000Y-38565701D01*
X13716000Y-35559999D01*
X14184417Y-35559999D01*
X14204699Y-35765932D01*
X14204700Y-35765934D01*
X14264768Y-35963954D01*
X14362315Y-36146450D01*
X14362317Y-36146452D01*
X14493589Y-36306410D01*
X14590209Y-36385702D01*
X14653550Y-36437685D01*
X14836046Y-36535232D01*
X15034066Y-36595300D01*
X15034065Y-36595300D01*
X15052529Y-36597118D01*
X15240000Y-36615583D01*
X15445934Y-36595300D01*
X15643954Y-36535232D01*
X15826450Y-36437685D01*
X15986410Y-36306410D01*
X16117685Y-36146450D01*
X16215232Y-35963954D01*
X16275300Y-35765934D01*
X16295583Y-35560000D01*
X16275300Y-35354066D01*
X16215232Y-35156046D01*
X16117685Y-34973550D01*
X16065702Y-34910209D01*
X15986410Y-34813589D01*
X15826452Y-34682317D01*
X15826453Y-34682317D01*
X15826450Y-34682315D01*
X15643954Y-34584768D01*
X15445934Y-34524700D01*
X15445932Y-34524699D01*
X15445934Y-34524699D01*
X15258463Y-34506235D01*
X15240000Y-34504417D01*
X15239999Y-34504417D01*
X15034067Y-34524699D01*
X14836043Y-34584769D01*
X14725897Y-34643643D01*
X14653550Y-34682315D01*
X14653548Y-34682316D01*
X14653547Y-34682317D01*
X14493589Y-34813589D01*
X14362317Y-34973547D01*
X14264769Y-35156043D01*
X14204699Y-35354067D01*
X14184417Y-35559999D01*
X13716000Y-35559999D01*
X13716000Y-32119635D01*
X14029912Y-32433547D01*
X14200028Y-32603663D01*
X14233513Y-32664986D01*
X14231008Y-32727338D01*
X14204699Y-32814067D01*
X14184417Y-33020000D01*
X14204699Y-33225932D01*
X14204700Y-33225934D01*
X14264768Y-33423954D01*
X14362315Y-33606450D01*
X14362317Y-33606452D01*
X14493589Y-33766410D01*
X14590209Y-33845702D01*
X14653550Y-33897685D01*
X14836046Y-33995232D01*
X15034066Y-34055300D01*
X15034065Y-34055300D01*
X15052529Y-34057118D01*
X15240000Y-34075583D01*
X15445934Y-34055300D01*
X15643954Y-33995232D01*
X15826450Y-33897685D01*
X15986410Y-33766410D01*
X16117685Y-33606450D01*
X16215232Y-33423954D01*
X16275300Y-33225934D01*
X16295583Y-33020000D01*
X16275300Y-32814066D01*
X16215232Y-32616046D01*
X16117685Y-32433550D01*
X16065702Y-32370209D01*
X15986410Y-32273589D01*
X15826452Y-32142317D01*
X15826453Y-32142317D01*
X15826450Y-32142315D01*
X15643954Y-32044768D01*
X15445934Y-31984700D01*
X15445932Y-31984699D01*
X15445934Y-31984699D01*
X15240000Y-31964417D01*
X15034067Y-31984699D01*
X14836042Y-32044769D01*
X14784504Y-32072318D01*
X14716101Y-32086560D01*
X14650857Y-32061560D01*
X14638369Y-32050641D01*
X13716000Y-31128272D01*
X13715999Y-30646032D01*
X13752047Y-30614097D01*
X13841784Y-30484090D01*
X13843335Y-30480000D01*
X14184417Y-30480000D01*
X14204699Y-30685932D01*
X14204700Y-30685934D01*
X14264768Y-30883954D01*
X14362315Y-31066450D01*
X14362317Y-31066452D01*
X14493589Y-31226410D01*
X14590209Y-31305702D01*
X14653550Y-31357685D01*
X14836046Y-31455232D01*
X15034066Y-31515300D01*
X15034065Y-31515300D01*
X15054347Y-31517297D01*
X15240000Y-31535583D01*
X15445934Y-31515300D01*
X15643954Y-31455232D01*
X15826450Y-31357685D01*
X15986410Y-31226410D01*
X16117685Y-31066450D01*
X16215232Y-30883954D01*
X16275300Y-30685934D01*
X16295583Y-30480000D01*
X16275300Y-30274066D01*
X16215232Y-30076046D01*
X16117685Y-29893550D01*
X16062146Y-29825875D01*
X15986410Y-29733589D01*
X15826452Y-29602317D01*
X15826453Y-29602317D01*
X15826450Y-29602315D01*
X15643954Y-29504768D01*
X15445934Y-29444700D01*
X15445932Y-29444699D01*
X15445934Y-29444699D01*
X15258463Y-29426235D01*
X15240000Y-29424417D01*
X15239999Y-29424417D01*
X15034067Y-29444699D01*
X14836043Y-29504769D01*
X14725897Y-29563643D01*
X14653550Y-29602315D01*
X14653548Y-29602316D01*
X14653547Y-29602317D01*
X14493589Y-29733589D01*
X14362317Y-29893547D01*
X14264769Y-30076043D01*
X14204699Y-30274067D01*
X14184417Y-30480000D01*
X13843335Y-30480000D01*
X13897801Y-30336385D01*
X13916842Y-30179567D01*
X13897801Y-30022749D01*
X13896111Y-30018294D01*
X13841784Y-29875045D01*
X13841784Y-29875044D01*
X13807842Y-29825871D01*
X13785961Y-29759520D01*
X13803426Y-29691869D01*
X13827668Y-29662618D01*
X13849454Y-29643318D01*
X13930483Y-29571533D01*
X14020220Y-29441526D01*
X14076237Y-29293821D01*
X14095278Y-29137003D01*
X14085274Y-29054620D01*
X14096734Y-28985699D01*
X14120686Y-28951997D01*
X14353046Y-28719637D01*
X14372902Y-28703514D01*
X14380669Y-28698440D01*
X14400873Y-28672480D01*
X14405941Y-28666742D01*
X14408375Y-28664310D01*
X14420313Y-28647588D01*
X14421809Y-28645581D01*
X14452517Y-28606129D01*
X14452518Y-28606123D01*
X14456017Y-28599659D01*
X14459235Y-28593074D01*
X14459239Y-28593070D01*
X14473500Y-28545166D01*
X14474270Y-28542766D01*
X14480265Y-28525302D01*
X14490500Y-28495491D01*
X14490500Y-28495486D01*
X14491706Y-28488259D01*
X14492617Y-28480956D01*
X14492542Y-28479157D01*
X14490550Y-28431002D01*
X14490500Y-28428540D01*
X14490500Y-26397413D01*
X14510185Y-26330374D01*
X14562989Y-26284620D01*
X14632147Y-26274676D01*
X14672950Y-26288054D01*
X14836046Y-26375232D01*
X15034066Y-26435300D01*
X15034065Y-26435300D01*
X15054347Y-26437297D01*
X15240000Y-26455583D01*
X15445934Y-26435300D01*
X15643954Y-26375232D01*
X15826450Y-26277685D01*
X15986410Y-26146410D01*
X16117685Y-25986450D01*
X16215232Y-25803954D01*
X16275300Y-25605934D01*
X16295583Y-25400000D01*
X16275300Y-25194066D01*
X16215232Y-24996046D01*
X16117685Y-24813550D01*
X16065702Y-24750209D01*
X15986410Y-24653589D01*
X15823760Y-24520107D01*
X15784425Y-24462361D01*
X15782554Y-24392516D01*
X15814741Y-24336574D01*
X16553046Y-23598269D01*
X16572900Y-23582146D01*
X16575687Y-23580326D01*
X16642577Y-23560144D01*
X16709761Y-23579330D01*
G37*
%TD.AperFunction*%
%TA.AperFunction,Conductor*%
G36*
X14349134Y2363257D02*
G01*
X14349400Y2363233D01*
X14360100Y2363233D01*
X14402395Y2363233D01*
X14406138Y2363120D01*
X14424192Y2362029D01*
X14685390Y2346233D01*
X14692824Y2345329D01*
X14966153Y2295243D01*
X14973415Y2293452D01*
X15238710Y2210785D01*
X15245716Y2208128D01*
X15499109Y2094089D01*
X15505740Y2090609D01*
X15743553Y1946848D01*
X15749700Y1942605D01*
X15968452Y1771227D01*
X15974049Y1766267D01*
X16170543Y1569776D01*
X16175513Y1564167D01*
X16346879Y1345436D01*
X16351136Y1339269D01*
X16494893Y1101468D01*
X16498375Y1094833D01*
X16612419Y841443D01*
X16615072Y834449D01*
X16692351Y586453D01*
X16697742Y569153D01*
X16699535Y561877D01*
X16749624Y288552D01*
X16750527Y281113D01*
X16767386Y2432D01*
X16767499Y-1313D01*
X16767499Y-21052455D01*
X16747814Y-21119494D01*
X16695010Y-21165249D01*
X16625852Y-21175193D01*
X16562296Y-21146168D01*
X16555818Y-21140136D01*
X16250191Y-20834509D01*
X16216706Y-20773186D01*
X16219210Y-20710837D01*
X16275300Y-20525934D01*
X16295583Y-20320000D01*
X16275300Y-20114066D01*
X16215232Y-19916046D01*
X16117685Y-19733550D01*
X16046646Y-19646988D01*
X15986410Y-19573589D01*
X15826452Y-19442317D01*
X15826453Y-19442317D01*
X15826450Y-19442315D01*
X15643954Y-19344768D01*
X15445934Y-19284700D01*
X15445932Y-19284699D01*
X15445934Y-19284699D01*
X15258463Y-19266235D01*
X15240000Y-19264417D01*
X15239999Y-19264417D01*
X15034067Y-19284699D01*
X14836043Y-19344769D01*
X14725897Y-19403643D01*
X14653550Y-19442315D01*
X14653548Y-19442316D01*
X14653547Y-19442317D01*
X14493589Y-19573590D01*
X14433353Y-19646988D01*
X14375607Y-19686322D01*
X14305763Y-19688193D01*
X14245994Y-19652005D01*
X14235448Y-19638760D01*
X14233818Y-19636398D01*
X14233817Y-19636398D01*
X14115575Y-19531645D01*
X14115573Y-19531644D01*
X14115572Y-19531643D01*
X13975700Y-19458231D01*
X13822321Y-19420428D01*
X13822320Y-19420428D01*
X13716000Y-19420428D01*
X13716000Y-17780000D01*
X14184417Y-17780000D01*
X14204699Y-17985932D01*
X14204700Y-17985934D01*
X14264768Y-18183954D01*
X14362315Y-18366450D01*
X14362317Y-18366452D01*
X14493589Y-18526410D01*
X14590209Y-18605702D01*
X14653550Y-18657685D01*
X14836046Y-18755232D01*
X15034066Y-18815300D01*
X15034065Y-18815300D01*
X15054347Y-18817297D01*
X15240000Y-18835583D01*
X15445934Y-18815300D01*
X15643954Y-18755232D01*
X15826450Y-18657685D01*
X15986410Y-18526410D01*
X16117685Y-18366450D01*
X16215232Y-18183954D01*
X16275300Y-17985934D01*
X16295583Y-17780000D01*
X16275300Y-17574066D01*
X16215232Y-17376046D01*
X16117685Y-17193550D01*
X16065702Y-17130209D01*
X15986410Y-17033589D01*
X15826452Y-16902317D01*
X15826453Y-16902317D01*
X15826450Y-16902315D01*
X15643954Y-16804768D01*
X15445934Y-16744700D01*
X15445932Y-16744699D01*
X15445934Y-16744699D01*
X15240000Y-16724417D01*
X15034067Y-16744699D01*
X14836043Y-16804769D01*
X14725897Y-16863643D01*
X14653550Y-16902315D01*
X14653548Y-16902316D01*
X14653547Y-16902317D01*
X14493589Y-17033589D01*
X14362317Y-17193547D01*
X14264769Y-17376043D01*
X14204699Y-17574067D01*
X14184417Y-17780000D01*
X13716000Y-17780000D01*
X13716000Y-13449682D01*
X14543122Y-14276804D01*
X14576607Y-14338127D01*
X14571623Y-14407819D01*
X14534107Y-14460337D01*
X14493590Y-14493588D01*
X14362317Y-14653547D01*
X14264769Y-14836043D01*
X14204699Y-15034067D01*
X14184417Y-15239999D01*
X14204699Y-15445932D01*
X14204700Y-15445934D01*
X14264768Y-15643954D01*
X14362315Y-15826450D01*
X14362317Y-15826452D01*
X14493589Y-15986410D01*
X14590209Y-16065702D01*
X14653550Y-16117685D01*
X14836046Y-16215232D01*
X15034066Y-16275300D01*
X15034065Y-16275300D01*
X15052529Y-16277118D01*
X15240000Y-16295583D01*
X15445934Y-16275300D01*
X15643954Y-16215232D01*
X15826450Y-16117685D01*
X15986410Y-15986410D01*
X16117685Y-15826450D01*
X16215232Y-15643954D01*
X16275300Y-15445934D01*
X16295583Y-15240000D01*
X16275300Y-15034066D01*
X16215232Y-14836046D01*
X16117685Y-14653550D01*
X16065702Y-14590209D01*
X15986410Y-14493589D01*
X15826452Y-14362317D01*
X15826453Y-14362317D01*
X15826450Y-14362315D01*
X15666472Y-14276804D01*
X15643953Y-14264767D01*
X15499264Y-14220876D01*
X15447579Y-14189897D01*
X15218980Y-13961298D01*
X15185495Y-13899975D01*
X15190479Y-13830283D01*
X15232351Y-13774350D01*
X15294505Y-13750214D01*
X15445934Y-13735300D01*
X15643954Y-13675232D01*
X15826450Y-13577685D01*
X15986410Y-13446410D01*
X16117685Y-13286450D01*
X16215232Y-13103954D01*
X16275300Y-12905934D01*
X16295583Y-12700000D01*
X16275300Y-12494066D01*
X16215232Y-12296046D01*
X16117685Y-12113550D01*
X16047343Y-12027837D01*
X15986410Y-11953589D01*
X15868677Y-11856969D01*
X15826450Y-11822315D01*
X15644919Y-11725284D01*
X15643956Y-11724769D01*
X15643955Y-11724768D01*
X15643954Y-11724768D01*
X15445934Y-11664700D01*
X15445932Y-11664699D01*
X15445934Y-11664699D01*
X15240000Y-11644417D01*
X15034067Y-11664699D01*
X14836043Y-11724769D01*
X14725898Y-11783643D01*
X14653550Y-11822315D01*
X14653548Y-11822316D01*
X14653547Y-11822317D01*
X14493589Y-11953589D01*
X14362317Y-12113547D01*
X14321147Y-12190569D01*
X14272184Y-12240413D01*
X14204046Y-12255873D01*
X14138366Y-12232041D01*
X14124108Y-12219796D01*
X13932149Y-12027837D01*
X13898664Y-11966514D01*
X13903648Y-11896822D01*
X13945520Y-11840889D01*
X13990154Y-11819760D01*
X14075617Y-11798696D01*
X14215492Y-11725283D01*
X14333735Y-11620530D01*
X14423472Y-11490523D01*
X14479489Y-11342818D01*
X14498530Y-11186000D01*
X14479489Y-11029182D01*
X14478585Y-11021736D01*
X14481803Y-11021345D01*
X14484152Y-10966227D01*
X14490500Y-10947740D01*
X14490500Y-10947732D01*
X14491705Y-10940512D01*
X14492617Y-10933204D01*
X14490552Y-10883301D01*
X14490499Y-10880737D01*
X14490499Y-9899313D01*
X14490499Y-8916539D01*
X14510184Y-8849504D01*
X14526813Y-8828867D01*
X14725491Y-8630189D01*
X14786812Y-8596706D01*
X14849162Y-8599210D01*
X15034066Y-8655300D01*
X15034065Y-8655300D01*
X15054347Y-8657297D01*
X15240000Y-8675583D01*
X15445934Y-8655300D01*
X15643954Y-8595232D01*
X15826450Y-8497685D01*
X15986410Y-8366410D01*
X16117685Y-8206450D01*
X16215232Y-8023954D01*
X16275300Y-7825934D01*
X16295583Y-7620000D01*
X16275300Y-7414066D01*
X16215232Y-7216046D01*
X16117685Y-7033550D01*
X16065702Y-6970209D01*
X15986410Y-6873589D01*
X15826452Y-6742317D01*
X15826453Y-6742317D01*
X15826450Y-6742315D01*
X15643954Y-6644768D01*
X15445934Y-6584700D01*
X15445932Y-6584699D01*
X15445934Y-6584699D01*
X15240000Y-6564417D01*
X15034067Y-6584699D01*
X14836043Y-6644769D01*
X14725898Y-6703643D01*
X14653550Y-6742315D01*
X14653548Y-6742316D01*
X14653547Y-6742317D01*
X14493589Y-6873589D01*
X14362317Y-7033547D01*
X14323856Y-7105499D01*
X14274892Y-7155342D01*
X14206755Y-7170801D01*
X14141075Y-7146968D01*
X14098708Y-7091409D01*
X14090500Y-7047048D01*
X14090500Y-6776543D01*
X14110185Y-6709503D01*
X14126815Y-6688866D01*
X14725491Y-6090189D01*
X14786812Y-6056706D01*
X14849162Y-6059210D01*
X15034066Y-6115300D01*
X15034065Y-6115300D01*
X15052529Y-6117118D01*
X15240000Y-6135583D01*
X15445934Y-6115300D01*
X15643954Y-6055232D01*
X15826450Y-5957685D01*
X15986410Y-5826410D01*
X16117685Y-5666450D01*
X16215232Y-5483954D01*
X16275300Y-5285934D01*
X16295583Y-5080000D01*
X16275300Y-4874066D01*
X16215232Y-4676046D01*
X16117685Y-4493550D01*
X16065702Y-4430209D01*
X15986410Y-4333589D01*
X15826452Y-4202317D01*
X15826453Y-4202317D01*
X15826450Y-4202315D01*
X15656554Y-4111502D01*
X15643956Y-4104769D01*
X15643955Y-4104768D01*
X15643954Y-4104768D01*
X15445934Y-4044700D01*
X15445932Y-4044699D01*
X15445934Y-4044699D01*
X15240000Y-4024417D01*
X15034067Y-4044699D01*
X14836041Y-4104769D01*
X14793690Y-4127407D01*
X14725287Y-4141649D01*
X14660043Y-4116649D01*
X14618673Y-4060344D01*
X14614311Y-3990610D01*
X14646429Y-3933017D01*
X14646009Y-3932645D01*
X14647704Y-3930731D01*
X14648342Y-3929588D01*
X14650504Y-3927570D01*
X14650981Y-3927032D01*
X14650981Y-3927031D01*
X14650983Y-3927030D01*
X14740720Y-3797023D01*
X14796737Y-3649318D01*
X14798532Y-3642036D01*
X14801358Y-3642732D01*
X14823623Y-3590935D01*
X14881538Y-3551852D01*
X14951390Y-3550284D01*
X14955111Y-3551349D01*
X15034063Y-3575299D01*
X15034065Y-3575300D01*
X15052529Y-3577118D01*
X15240000Y-3595583D01*
X15445934Y-3575300D01*
X15643954Y-3515232D01*
X15826450Y-3417685D01*
X15986410Y-3286410D01*
X16117685Y-3126450D01*
X16215232Y-2943954D01*
X16275300Y-2745934D01*
X16295583Y-2540000D01*
X16275300Y-2334066D01*
X16215232Y-2136046D01*
X16117685Y-1953550D01*
X16065702Y-1890209D01*
X15986410Y-1793589D01*
X15826452Y-1662317D01*
X15826453Y-1662317D01*
X15826450Y-1662315D01*
X15643954Y-1564768D01*
X15445934Y-1504700D01*
X15445932Y-1504699D01*
X15445934Y-1504699D01*
X15240000Y-1484417D01*
X15034067Y-1504699D01*
X14836043Y-1564769D01*
X14774865Y-1597470D01*
X14653550Y-1662315D01*
X14653548Y-1662316D01*
X14653547Y-1662317D01*
X14488880Y-1797455D01*
X14487739Y-1796065D01*
X14433836Y-1825487D01*
X14364145Y-1820490D01*
X14308219Y-1778608D01*
X14283814Y-1713139D01*
X14283500Y-1704316D01*
X14283500Y-835682D01*
X14303185Y-768643D01*
X14355989Y-722888D01*
X14425147Y-712944D01*
X14488703Y-741969D01*
X14492595Y-745594D01*
X14520681Y-768643D01*
X14653550Y-877685D01*
X14836046Y-975232D01*
X15034066Y-1035300D01*
X15034065Y-1035300D01*
X15052529Y-1037118D01*
X15240000Y-1055583D01*
X15445934Y-1035300D01*
X15643954Y-975232D01*
X15826450Y-877685D01*
X15986410Y-746410D01*
X16117685Y-586450D01*
X16215232Y-403954D01*
X16275300Y-205934D01*
X16295583Y0D01*
X16275300Y205934D01*
X16215232Y403954D01*
X16117685Y586450D01*
X16024463Y700042D01*
X15986410Y746411D01*
X15851825Y856860D01*
X15826450Y877685D01*
X15643954Y975232D01*
X15445934Y1035300D01*
X15445932Y1035301D01*
X15445934Y1035301D01*
X15240000Y1055583D01*
X15034067Y1035301D01*
X14836043Y975231D01*
X14653544Y877682D01*
X14647992Y873125D01*
X14583681Y845815D01*
X14514814Y857610D01*
X14463256Y904764D01*
X14453390Y925012D01*
X14434344Y975232D01*
X14423220Y1004565D01*
X14333483Y1134572D01*
X14215240Y1239325D01*
X14215238Y1239326D01*
X14215237Y1239327D01*
X14075365Y1312739D01*
X13921986Y1350542D01*
X13921985Y1350542D01*
X13764015Y1350542D01*
X13764014Y1350542D01*
X13716000Y1338709D01*
X13716000Y2363522D01*
X14349134Y2363257D01*
G37*
%TD.AperFunction*%
%TD*%
%TA.AperFunction,Conductor*%
%TO.N,/GND*%
G36*
X-1322297Y-13684025D02*
G01*
X-1315819Y-13690057D01*
X-824360Y-14181516D01*
X-819724Y-14186704D01*
X-802964Y-14207720D01*
X-795916Y-14216557D01*
X-748823Y-14248664D01*
X-746945Y-14249996D01*
X-735428Y-14258496D01*
X-718538Y-14270962D01*
X-676287Y-14326609D01*
X-670828Y-14396265D01*
X-703895Y-14457815D01*
X-713505Y-14466584D01*
X-746409Y-14493588D01*
X-877683Y-14653547D01*
X-975231Y-14836043D01*
X-1035301Y-15034067D01*
X-1055583Y-15239999D01*
X-1035301Y-15445932D01*
X-1035300Y-15445934D01*
X-975232Y-15643954D01*
X-877685Y-15826450D01*
X-877683Y-15826452D01*
X-746411Y-15986410D01*
X-659440Y-16057784D01*
X-586450Y-16117685D01*
X-403954Y-16215232D01*
X-205934Y-16275300D01*
X-205935Y-16275300D01*
X-185652Y-16277297D01*
X0Y-16295583D01*
X205934Y-16275300D01*
X403954Y-16215232D01*
X586450Y-16117685D01*
X746410Y-15986410D01*
X877685Y-15826450D01*
X975232Y-15643954D01*
X1028914Y-15466984D01*
X1067210Y-15408548D01*
X1131023Y-15380092D01*
X1200090Y-15390652D01*
X1235255Y-15415301D01*
X1524000Y-15704046D01*
X1524000Y-40463232D01*
X837604Y-40463232D01*
X833861Y-40463119D01*
X554615Y-40446232D01*
X547175Y-40445328D01*
X273860Y-40395245D01*
X266584Y-40393451D01*
X1288Y-40310784D01*
X-5718Y-40308127D01*
X-259110Y-40194087D01*
X-265745Y-40190605D01*
X-503543Y-40046854D01*
X-509705Y-40042601D01*
X-728451Y-39871227D01*
X-734050Y-39866266D01*
X-930544Y-39669775D01*
X-935510Y-39664171D01*
X-1106880Y-39445435D01*
X-1111137Y-39439268D01*
X-1134367Y-39400842D01*
X-1254902Y-39201454D01*
X-1258368Y-39194851D01*
X-1372423Y-38941432D01*
X-1375070Y-38934455D01*
X-1457746Y-38669142D01*
X-1459537Y-38661873D01*
X-1509625Y-38388551D01*
X-1510529Y-38381112D01*
X-1512877Y-38342298D01*
X-1527387Y-38102411D01*
X-1527460Y-38100000D01*
X-1055583Y-38100000D01*
X-1053368Y-38122497D01*
X-1035301Y-38305932D01*
X-1035300Y-38305934D01*
X-975232Y-38503954D01*
X-877685Y-38686450D01*
X-877683Y-38686452D01*
X-746411Y-38846410D01*
X-649791Y-38925702D01*
X-586450Y-38977685D01*
X-403954Y-39075232D01*
X-205934Y-39135300D01*
X-205935Y-39135300D01*
X-187471Y-39137118D01*
X0Y-39155583D01*
X205934Y-39135300D01*
X403954Y-39075232D01*
X586450Y-38977685D01*
X746410Y-38846410D01*
X877685Y-38686450D01*
X975232Y-38503954D01*
X1035300Y-38305934D01*
X1055583Y-38100000D01*
X1035300Y-37894066D01*
X975232Y-37696046D01*
X877685Y-37513550D01*
X825702Y-37450209D01*
X746410Y-37353589D01*
X586452Y-37222317D01*
X586453Y-37222317D01*
X586450Y-37222315D01*
X403954Y-37124768D01*
X205934Y-37064700D01*
X205932Y-37064699D01*
X205934Y-37064699D01*
X18463Y-37046235D01*
X0Y-37044417D01*
X-1Y-37044417D01*
X-205933Y-37064699D01*
X-403957Y-37124769D01*
X-514103Y-37183643D01*
X-586450Y-37222315D01*
X-586452Y-37222316D01*
X-586453Y-37222317D01*
X-746411Y-37353589D01*
X-877683Y-37513547D01*
X-975231Y-37696043D01*
X-1035301Y-37894067D01*
X-1051233Y-38055830D01*
X-1055583Y-38100000D01*
X-1527460Y-38100000D01*
X-1527500Y-38098667D01*
X-1527500Y-35560000D01*
X-1055583Y-35560000D01*
X-1035301Y-35765932D01*
X-1035300Y-35765934D01*
X-975232Y-35963954D01*
X-877685Y-36146450D01*
X-877683Y-36146452D01*
X-746411Y-36306410D01*
X-649791Y-36385702D01*
X-586450Y-36437685D01*
X-403954Y-36535232D01*
X-205934Y-36595300D01*
X-205935Y-36595300D01*
X-187471Y-36597118D01*
X0Y-36615583D01*
X205934Y-36595300D01*
X403954Y-36535232D01*
X586450Y-36437685D01*
X746410Y-36306410D01*
X877685Y-36146450D01*
X975232Y-35963954D01*
X1035300Y-35765934D01*
X1055583Y-35560000D01*
X1035300Y-35354066D01*
X975232Y-35156046D01*
X877685Y-34973550D01*
X825702Y-34910209D01*
X746410Y-34813589D01*
X586452Y-34682317D01*
X586453Y-34682317D01*
X586450Y-34682315D01*
X403954Y-34584768D01*
X205934Y-34524700D01*
X205932Y-34524699D01*
X205934Y-34524699D01*
X0Y-34504417D01*
X-205933Y-34524699D01*
X-403957Y-34584769D01*
X-514103Y-34643643D01*
X-586450Y-34682315D01*
X-586452Y-34682316D01*
X-586453Y-34682317D01*
X-746411Y-34813589D01*
X-877683Y-34973547D01*
X-975231Y-35156043D01*
X-1035301Y-35354067D01*
X-1055583Y-35560000D01*
X-1527500Y-35560000D01*
X-1527500Y-33019999D01*
X-1055583Y-33019999D01*
X-1035301Y-33225932D01*
X-1035300Y-33225934D01*
X-975232Y-33423954D01*
X-877685Y-33606450D01*
X-877683Y-33606452D01*
X-746411Y-33766410D01*
X-649791Y-33845702D01*
X-586450Y-33897685D01*
X-403954Y-33995232D01*
X-205934Y-34055300D01*
X-205935Y-34055300D01*
X-185653Y-34057297D01*
X0Y-34075583D01*
X205934Y-34055300D01*
X403954Y-33995232D01*
X586450Y-33897685D01*
X746410Y-33766410D01*
X877685Y-33606450D01*
X975232Y-33423954D01*
X1035300Y-33225934D01*
X1055583Y-33020000D01*
X1035300Y-32814066D01*
X975232Y-32616046D01*
X877685Y-32433550D01*
X825702Y-32370209D01*
X746410Y-32273589D01*
X586452Y-32142317D01*
X586453Y-32142317D01*
X586450Y-32142315D01*
X403954Y-32044768D01*
X205934Y-31984700D01*
X205932Y-31984699D01*
X205934Y-31984699D01*
X0Y-31964417D01*
X-205933Y-31984699D01*
X-403957Y-32044769D01*
X-514103Y-32103643D01*
X-586450Y-32142315D01*
X-586452Y-32142316D01*
X-586453Y-32142317D01*
X-746411Y-32273589D01*
X-877683Y-32433547D01*
X-975231Y-32616043D01*
X-1035301Y-32814067D01*
X-1055583Y-33019999D01*
X-1527500Y-33019999D01*
X-1527500Y-30480000D01*
X-1055583Y-30480000D01*
X-1035301Y-30685932D01*
X-1035300Y-30685934D01*
X-975232Y-30883954D01*
X-877685Y-31066450D01*
X-877683Y-31066452D01*
X-746411Y-31226410D01*
X-649791Y-31305702D01*
X-586450Y-31357685D01*
X-403954Y-31455232D01*
X-205934Y-31515300D01*
X-205935Y-31515300D01*
X-187471Y-31517118D01*
X0Y-31535583D01*
X205934Y-31515300D01*
X403954Y-31455232D01*
X586450Y-31357685D01*
X746410Y-31226410D01*
X877685Y-31066450D01*
X975232Y-30883954D01*
X1035300Y-30685934D01*
X1055583Y-30480000D01*
X1035300Y-30274066D01*
X975232Y-30076046D01*
X877685Y-29893550D01*
X825702Y-29830209D01*
X746410Y-29733589D01*
X586452Y-29602317D01*
X586453Y-29602317D01*
X586450Y-29602315D01*
X403954Y-29504768D01*
X205934Y-29444700D01*
X205932Y-29444699D01*
X205934Y-29444699D01*
X0Y-29424417D01*
X-205933Y-29444699D01*
X-403957Y-29504769D01*
X-514103Y-29563643D01*
X-586450Y-29602315D01*
X-586452Y-29602316D01*
X-586453Y-29602317D01*
X-746411Y-29733589D01*
X-877683Y-29893547D01*
X-975231Y-30076043D01*
X-1035301Y-30274067D01*
X-1055583Y-30480000D01*
X-1527500Y-30480000D01*
X-1527500Y-25399999D01*
X-1055583Y-25399999D01*
X-1035301Y-25605932D01*
X-1035300Y-25605934D01*
X-975232Y-25803954D01*
X-877685Y-25986450D01*
X-877683Y-25986452D01*
X-746411Y-26146410D01*
X-649791Y-26225702D01*
X-586450Y-26277685D01*
X-403954Y-26375232D01*
X-205934Y-26435300D01*
X-205935Y-26435300D01*
X-187471Y-26437118D01*
X0Y-26455583D01*
X205934Y-26435300D01*
X403954Y-26375232D01*
X586450Y-26277685D01*
X746410Y-26146410D01*
X877685Y-25986450D01*
X975232Y-25803954D01*
X1035300Y-25605934D01*
X1055583Y-25400000D01*
X1035300Y-25194066D01*
X975232Y-24996046D01*
X877685Y-24813550D01*
X825702Y-24750209D01*
X746410Y-24653589D01*
X586452Y-24522317D01*
X586453Y-24522317D01*
X586450Y-24522315D01*
X403954Y-24424768D01*
X205934Y-24364700D01*
X205932Y-24364699D01*
X205934Y-24364699D01*
X0Y-24344417D01*
X-205933Y-24364699D01*
X-403957Y-24424769D01*
X-514103Y-24483643D01*
X-586450Y-24522315D01*
X-586452Y-24522316D01*
X-586453Y-24522317D01*
X-746411Y-24653589D01*
X-877683Y-24813547D01*
X-975231Y-24996043D01*
X-1035301Y-25194067D01*
X-1055583Y-25399999D01*
X-1527500Y-25399999D01*
X-1527500Y-22860000D01*
X-1055583Y-22860000D01*
X-1035301Y-23065932D01*
X-1035300Y-23065934D01*
X-975232Y-23263954D01*
X-877685Y-23446450D01*
X-877683Y-23446452D01*
X-746411Y-23606410D01*
X-649791Y-23685702D01*
X-586450Y-23737685D01*
X-403954Y-23835232D01*
X-205934Y-23895300D01*
X-205935Y-23895300D01*
X-187471Y-23897118D01*
X0Y-23915583D01*
X205934Y-23895300D01*
X403954Y-23835232D01*
X586450Y-23737685D01*
X746410Y-23606410D01*
X877685Y-23446450D01*
X975232Y-23263954D01*
X1035300Y-23065934D01*
X1055583Y-22860000D01*
X1035300Y-22654066D01*
X975232Y-22456046D01*
X877685Y-22273550D01*
X825702Y-22210209D01*
X746410Y-22113589D01*
X586452Y-21982317D01*
X586453Y-21982317D01*
X586450Y-21982315D01*
X403954Y-21884768D01*
X205934Y-21824700D01*
X205932Y-21824699D01*
X205934Y-21824699D01*
X18463Y-21806235D01*
X0Y-21804417D01*
X-1Y-21804417D01*
X-205933Y-21824699D01*
X-403957Y-21884769D01*
X-514102Y-21943643D01*
X-586450Y-21982315D01*
X-586452Y-21982316D01*
X-586453Y-21982317D01*
X-746411Y-22113589D01*
X-877683Y-22273547D01*
X-975231Y-22456043D01*
X-1035301Y-22654067D01*
X-1055583Y-22860000D01*
X-1527500Y-22860000D01*
X-1527500Y-20319999D01*
X-1055583Y-20319999D01*
X-1035301Y-20525932D01*
X-1035300Y-20525934D01*
X-975232Y-20723954D01*
X-877685Y-20906450D01*
X-877683Y-20906452D01*
X-746411Y-21066410D01*
X-649791Y-21145702D01*
X-586450Y-21197685D01*
X-403954Y-21295232D01*
X-205934Y-21355300D01*
X-205935Y-21355300D01*
X-185653Y-21357297D01*
X0Y-21375583D01*
X205934Y-21355300D01*
X403954Y-21295232D01*
X586450Y-21197685D01*
X746410Y-21066410D01*
X877685Y-20906450D01*
X975232Y-20723954D01*
X1035300Y-20525934D01*
X1055583Y-20320000D01*
X1035300Y-20114066D01*
X975232Y-19916046D01*
X877685Y-19733550D01*
X825702Y-19670209D01*
X746410Y-19573589D01*
X586452Y-19442317D01*
X586453Y-19442317D01*
X586450Y-19442315D01*
X403954Y-19344768D01*
X205934Y-19284700D01*
X205932Y-19284699D01*
X205934Y-19284699D01*
X0Y-19264417D01*
X-205933Y-19284699D01*
X-403957Y-19344769D01*
X-514102Y-19403643D01*
X-586450Y-19442315D01*
X-586452Y-19442316D01*
X-586453Y-19442317D01*
X-746411Y-19573589D01*
X-877683Y-19733547D01*
X-975231Y-19916043D01*
X-1035301Y-20114067D01*
X-1055583Y-20319999D01*
X-1527500Y-20319999D01*
X-1527500Y-17780000D01*
X-1055583Y-17780000D01*
X-1035301Y-17985932D01*
X-1035300Y-17985934D01*
X-975232Y-18183954D01*
X-877685Y-18366450D01*
X-877683Y-18366452D01*
X-746411Y-18526410D01*
X-649791Y-18605702D01*
X-586450Y-18657685D01*
X-403954Y-18755232D01*
X-205934Y-18815300D01*
X-205935Y-18815300D01*
X-187471Y-18817118D01*
X0Y-18835583D01*
X205934Y-18815300D01*
X403954Y-18755232D01*
X586450Y-18657685D01*
X746410Y-18526410D01*
X877685Y-18366450D01*
X975232Y-18183954D01*
X1035300Y-17985934D01*
X1055583Y-17780000D01*
X1035300Y-17574066D01*
X975232Y-17376046D01*
X877685Y-17193550D01*
X825702Y-17130209D01*
X746410Y-17033589D01*
X586452Y-16902317D01*
X586453Y-16902317D01*
X586450Y-16902315D01*
X403954Y-16804768D01*
X205934Y-16744700D01*
X205932Y-16744699D01*
X205934Y-16744699D01*
X18463Y-16726235D01*
X0Y-16724417D01*
X-1Y-16724417D01*
X-205933Y-16744699D01*
X-403957Y-16804769D01*
X-514102Y-16863643D01*
X-586450Y-16902315D01*
X-586452Y-16902316D01*
X-586453Y-16902317D01*
X-746411Y-17033589D01*
X-877683Y-17193547D01*
X-975231Y-17376043D01*
X-1035301Y-17574067D01*
X-1055583Y-17780000D01*
X-1527500Y-17780000D01*
X-1527500Y-13777738D01*
X-1507815Y-13710699D01*
X-1455011Y-13664944D01*
X-1385853Y-13655000D01*
X-1322297Y-13684025D01*
G37*
%TD.AperFunction*%
%TA.AperFunction,Conductor*%
G36*
X-626836Y-8464541D02*
G01*
X-586450Y-8497685D01*
X-403954Y-8595232D01*
X-205934Y-8655300D01*
X-205935Y-8655300D01*
X-187471Y-8657118D01*
X0Y-8675583D01*
X205934Y-8655300D01*
X403954Y-8595232D01*
X567048Y-8508055D01*
X635449Y-8493814D01*
X700693Y-8518814D01*
X742064Y-8575118D01*
X749500Y-8617414D01*
X749500Y-11403455D01*
X729815Y-11470494D01*
X713181Y-11491136D01*
X514508Y-11689808D01*
X453185Y-11723293D01*
X390833Y-11720788D01*
X205934Y-11664700D01*
X205932Y-11664699D01*
X205934Y-11664699D01*
X18463Y-11646235D01*
X0Y-11644417D01*
X-1Y-11644417D01*
X-205933Y-11664699D01*
X-381308Y-11717898D01*
X-399091Y-11723293D01*
X-403957Y-11724769D01*
X-586454Y-11822317D01*
X-626836Y-11855458D01*
X-691146Y-11882770D01*
X-760014Y-11870978D01*
X-811573Y-11823826D01*
X-829500Y-11759604D01*
X-829500Y-8560395D01*
X-809815Y-8493356D01*
X-757011Y-8447601D01*
X-687853Y-8437657D01*
X-626836Y-8464541D01*
G37*
%TD.AperFunction*%
%TA.AperFunction,Conductor*%
G36*
X1524000Y1412494D02*
G01*
X1445014Y1412494D01*
X1291634Y1374691D01*
X1151762Y1301279D01*
X1033516Y1196523D01*
X943781Y1066519D01*
X943779Y1066516D01*
X924044Y1014480D01*
X881866Y958778D01*
X816268Y934722D01*
X748078Y949950D01*
X745001Y951711D01*
X660398Y1001744D01*
X660397Y1001745D01*
X660396Y1001745D01*
X660393Y1001746D01*
X502573Y1047598D01*
X502567Y1047599D01*
X465701Y1050500D01*
X465694Y1050500D01*
X-465694Y1050500D01*
X-465702Y1050500D01*
X-502568Y1047599D01*
X-502574Y1047598D01*
X-660394Y1001746D01*
X-660397Y1001745D01*
X-801863Y918083D01*
X-801871Y918077D01*
X-918077Y801871D01*
X-918083Y801863D01*
X-1001745Y660397D01*
X-1001746Y660394D01*
X-1047598Y502574D01*
X-1047599Y502568D01*
X-1050500Y465702D01*
X-1050501Y465687D01*
X-1050501Y-376176D01*
X-1070186Y-443216D01*
X-1086820Y-463857D01*
X-1315819Y-692856D01*
X-1377142Y-726341D01*
X-1446834Y-721357D01*
X-1502767Y-679485D01*
X-1527184Y-614021D01*
X-1527500Y-605175D01*
X-1527500Y-1876D01*
X-1527387Y1868D01*
X-1515407Y199917D01*
X-1510496Y281117D01*
X-1509592Y288548D01*
X-1459505Y561865D01*
X-1457712Y569141D01*
X-1375038Y834450D01*
X-1372395Y841417D01*
X-1258342Y1094831D01*
X-1254870Y1101446D01*
X-1111107Y1339255D01*
X-1106855Y1345414D01*
X-935479Y1564157D01*
X-930520Y1569753D01*
X-734033Y1766238D01*
X-728424Y1771207D01*
X-549263Y1911569D01*
X-509681Y1942580D01*
X-503539Y1946819D01*
X-265713Y2090587D01*
X-259108Y2094054D01*
X-5699Y2208101D01*
X1297Y2210753D01*
X266594Y2293420D01*
X273861Y2295212D01*
X547180Y2345297D01*
X554610Y2346199D01*
X834389Y2363119D01*
X838133Y2363232D01*
X890799Y2363232D01*
X891059Y2363256D01*
X1524000Y2363521D01*
X1524000Y1412494D01*
G37*
%TD.AperFunction*%
%TD*%
M02*
