%TF.GenerationSoftware,KiCad,Pcbnew,9.0.2*%
%TF.CreationDate,2025-06-27T19:22:51+02:00*%
%TF.ProjectId,Flags Enable Interrupt,466c6167-7320-4456-9e61-626c6520496e,V1*%
%TF.SameCoordinates,Original*%
%TF.FileFunction,Legend,Top*%
%TF.FilePolarity,Positive*%
%FSLAX46Y46*%
G04 Gerber Fmt 4.6, Leading zero omitted, Abs format (unit mm)*
G04 Created by KiCad (PCBNEW 9.0.2) date 2025-06-27 19:22:51*
%MOMM*%
%LPD*%
G01*
G04 APERTURE LIST*
%ADD10C,0.150000*%
%ADD11C,0.200000*%
%ADD12C,0.120000*%
G04 APERTURE END LIST*
D10*
X13339125Y-32973344D02*
X13127458Y-32973344D01*
X13127458Y-33305963D02*
X13127458Y-32670963D01*
X13127458Y-32670963D02*
X13429839Y-32670963D01*
X14004363Y-33305963D02*
X13641506Y-33305963D01*
X13822934Y-33305963D02*
X13822934Y-32670963D01*
X13822934Y-32670963D02*
X13762458Y-32761677D01*
X13762458Y-32761677D02*
X13701982Y-32822153D01*
X13701982Y-32822153D02*
X13641506Y-32852391D01*
X13339125Y-20273344D02*
X13127458Y-20273344D01*
X13127458Y-20605963D02*
X13127458Y-19970963D01*
X13127458Y-19970963D02*
X13429839Y-19970963D01*
X13974125Y-19970963D02*
X13671744Y-19970963D01*
X13671744Y-19970963D02*
X13641506Y-20273344D01*
X13641506Y-20273344D02*
X13671744Y-20243105D01*
X13671744Y-20243105D02*
X13732220Y-20212867D01*
X13732220Y-20212867D02*
X13883411Y-20212867D01*
X13883411Y-20212867D02*
X13943887Y-20243105D01*
X13943887Y-20243105D02*
X13974125Y-20273344D01*
X13974125Y-20273344D02*
X14004363Y-20333820D01*
X14004363Y-20333820D02*
X14004363Y-20485010D01*
X14004363Y-20485010D02*
X13974125Y-20545486D01*
X13974125Y-20545486D02*
X13943887Y-20575725D01*
X13943887Y-20575725D02*
X13883411Y-20605963D01*
X13883411Y-20605963D02*
X13732220Y-20605963D01*
X13732220Y-20605963D02*
X13671744Y-20575725D01*
X13671744Y-20575725D02*
X13641506Y-20545486D01*
X13339125Y-25353344D02*
X13127458Y-25353344D01*
X13127458Y-25685963D02*
X13127458Y-25050963D01*
X13127458Y-25050963D02*
X13429839Y-25050963D01*
X13611268Y-25050963D02*
X14004363Y-25050963D01*
X14004363Y-25050963D02*
X13792696Y-25292867D01*
X13792696Y-25292867D02*
X13883411Y-25292867D01*
X13883411Y-25292867D02*
X13943887Y-25323105D01*
X13943887Y-25323105D02*
X13974125Y-25353344D01*
X13974125Y-25353344D02*
X14004363Y-25413820D01*
X14004363Y-25413820D02*
X14004363Y-25565010D01*
X14004363Y-25565010D02*
X13974125Y-25625486D01*
X13974125Y-25625486D02*
X13943887Y-25655725D01*
X13943887Y-25655725D02*
X13883411Y-25685963D01*
X13883411Y-25685963D02*
X13701982Y-25685963D01*
X13701982Y-25685963D02*
X13641506Y-25655725D01*
X13641506Y-25655725D02*
X13611268Y-25625486D01*
X1598493Y-9841201D02*
X1538017Y-9810963D01*
X1538017Y-9810963D02*
X1447303Y-9810963D01*
X1447303Y-9810963D02*
X1356588Y-9841201D01*
X1356588Y-9841201D02*
X1296112Y-9901677D01*
X1296112Y-9901677D02*
X1265874Y-9962153D01*
X1265874Y-9962153D02*
X1235636Y-10083105D01*
X1235636Y-10083105D02*
X1235636Y-10173820D01*
X1235636Y-10173820D02*
X1265874Y-10294772D01*
X1265874Y-10294772D02*
X1296112Y-10355248D01*
X1296112Y-10355248D02*
X1356588Y-10415725D01*
X1356588Y-10415725D02*
X1447303Y-10445963D01*
X1447303Y-10445963D02*
X1507779Y-10445963D01*
X1507779Y-10445963D02*
X1598493Y-10415725D01*
X1598493Y-10415725D02*
X1628731Y-10385486D01*
X1628731Y-10385486D02*
X1628731Y-10173820D01*
X1628731Y-10173820D02*
X1507779Y-10173820D01*
X1900874Y-10445963D02*
X1900874Y-9810963D01*
X1900874Y-9810963D02*
X2263731Y-10445963D01*
X2263731Y-10445963D02*
X2263731Y-9810963D01*
X2566112Y-10445963D02*
X2566112Y-9810963D01*
X2566112Y-9810963D02*
X2717302Y-9810963D01*
X2717302Y-9810963D02*
X2808017Y-9841201D01*
X2808017Y-9841201D02*
X2868493Y-9901677D01*
X2868493Y-9901677D02*
X2898731Y-9962153D01*
X2898731Y-9962153D02*
X2928969Y-10083105D01*
X2928969Y-10083105D02*
X2928969Y-10173820D01*
X2928969Y-10173820D02*
X2898731Y-10294772D01*
X2898731Y-10294772D02*
X2868493Y-10355248D01*
X2868493Y-10355248D02*
X2808017Y-10415725D01*
X2808017Y-10415725D02*
X2717302Y-10445963D01*
X2717302Y-10445963D02*
X2566112Y-10445963D01*
X11101505Y-15574344D02*
X11313172Y-15574344D01*
X11403886Y-15906963D02*
X11101505Y-15906963D01*
X11101505Y-15906963D02*
X11101505Y-15271963D01*
X11101505Y-15271963D02*
X11403886Y-15271963D01*
X11676029Y-15483629D02*
X11676029Y-15906963D01*
X11676029Y-15544105D02*
X11706267Y-15513867D01*
X11706267Y-15513867D02*
X11766743Y-15483629D01*
X11766743Y-15483629D02*
X11857458Y-15483629D01*
X11857458Y-15483629D02*
X11917934Y-15513867D01*
X11917934Y-15513867D02*
X11948172Y-15574344D01*
X11948172Y-15574344D02*
X11948172Y-15906963D01*
X12522696Y-15906963D02*
X12522696Y-15574344D01*
X12522696Y-15574344D02*
X12492458Y-15513867D01*
X12492458Y-15513867D02*
X12431982Y-15483629D01*
X12431982Y-15483629D02*
X12311029Y-15483629D01*
X12311029Y-15483629D02*
X12250553Y-15513867D01*
X12522696Y-15876725D02*
X12462220Y-15906963D01*
X12462220Y-15906963D02*
X12311029Y-15906963D01*
X12311029Y-15906963D02*
X12250553Y-15876725D01*
X12250553Y-15876725D02*
X12220315Y-15816248D01*
X12220315Y-15816248D02*
X12220315Y-15755772D01*
X12220315Y-15755772D02*
X12250553Y-15695296D01*
X12250553Y-15695296D02*
X12311029Y-15665058D01*
X12311029Y-15665058D02*
X12462220Y-15665058D01*
X12462220Y-15665058D02*
X12522696Y-15634820D01*
X12825077Y-15906963D02*
X12825077Y-15271963D01*
X12825077Y-15513867D02*
X12885553Y-15483629D01*
X12885553Y-15483629D02*
X13006506Y-15483629D01*
X13006506Y-15483629D02*
X13066982Y-15513867D01*
X13066982Y-15513867D02*
X13097220Y-15544105D01*
X13097220Y-15544105D02*
X13127458Y-15604582D01*
X13127458Y-15604582D02*
X13127458Y-15786010D01*
X13127458Y-15786010D02*
X13097220Y-15846486D01*
X13097220Y-15846486D02*
X13066982Y-15876725D01*
X13066982Y-15876725D02*
X13006506Y-15906963D01*
X13006506Y-15906963D02*
X12885553Y-15906963D01*
X12885553Y-15906963D02*
X12825077Y-15876725D01*
X13490315Y-15906963D02*
X13429839Y-15876725D01*
X13429839Y-15876725D02*
X13399601Y-15816248D01*
X13399601Y-15816248D02*
X13399601Y-15271963D01*
X13974125Y-15876725D02*
X13913649Y-15906963D01*
X13913649Y-15906963D02*
X13792696Y-15906963D01*
X13792696Y-15906963D02*
X13732220Y-15876725D01*
X13732220Y-15876725D02*
X13701982Y-15816248D01*
X13701982Y-15816248D02*
X13701982Y-15574344D01*
X13701982Y-15574344D02*
X13732220Y-15513867D01*
X13732220Y-15513867D02*
X13792696Y-15483629D01*
X13792696Y-15483629D02*
X13913649Y-15483629D01*
X13913649Y-15483629D02*
X13974125Y-15513867D01*
X13974125Y-15513867D02*
X14004363Y-15574344D01*
X14004363Y-15574344D02*
X14004363Y-15634820D01*
X14004363Y-15634820D02*
X13701982Y-15695296D01*
X11013815Y-15095675D02*
X14061816Y-15095675D01*
X842541Y-11637344D02*
X630874Y-11637344D01*
X630874Y-11969963D02*
X630874Y-11334963D01*
X630874Y-11334963D02*
X933255Y-11334963D01*
X1265874Y-11969963D02*
X1205398Y-11939725D01*
X1205398Y-11939725D02*
X1175160Y-11879248D01*
X1175160Y-11879248D02*
X1175160Y-11334963D01*
X1767827Y-12040115D02*
X1598493Y-11798210D01*
X1477541Y-12040115D02*
X1477541Y-11532115D01*
X1477541Y-11532115D02*
X1671065Y-11532115D01*
X1671065Y-11532115D02*
X1719446Y-11556305D01*
X1719446Y-11556305D02*
X1743636Y-11580496D01*
X1743636Y-11580496D02*
X1767827Y-11628877D01*
X1767827Y-11628877D02*
X1767827Y-11701448D01*
X1767827Y-11701448D02*
X1743636Y-11749829D01*
X1743636Y-11749829D02*
X1719446Y-11774020D01*
X1719446Y-11774020D02*
X1671065Y-11798210D01*
X1671065Y-11798210D02*
X1477541Y-11798210D01*
X1985541Y-12040115D02*
X1985541Y-11532115D01*
X1985541Y-11532115D02*
X2106493Y-11532115D01*
X2106493Y-11532115D02*
X2179065Y-11556305D01*
X2179065Y-11556305D02*
X2227446Y-11604686D01*
X2227446Y-11604686D02*
X2251636Y-11653067D01*
X2251636Y-11653067D02*
X2275827Y-11749829D01*
X2275827Y-11749829D02*
X2275827Y-11822401D01*
X2275827Y-11822401D02*
X2251636Y-11919163D01*
X2251636Y-11919163D02*
X2227446Y-11967544D01*
X2227446Y-11967544D02*
X2179065Y-12015925D01*
X2179065Y-12015925D02*
X2106493Y-12040115D01*
X2106493Y-12040115D02*
X1985541Y-12040115D01*
X1265874Y-18065963D02*
X1265874Y-17430963D01*
X1265874Y-17430963D02*
X1417064Y-17430963D01*
X1417064Y-17430963D02*
X1507779Y-17461201D01*
X1507779Y-17461201D02*
X1568255Y-17521677D01*
X1568255Y-17521677D02*
X1598493Y-17582153D01*
X1598493Y-17582153D02*
X1628731Y-17703105D01*
X1628731Y-17703105D02*
X1628731Y-17793820D01*
X1628731Y-17793820D02*
X1598493Y-17914772D01*
X1598493Y-17914772D02*
X1568255Y-17975248D01*
X1568255Y-17975248D02*
X1507779Y-18035725D01*
X1507779Y-18035725D02*
X1417064Y-18065963D01*
X1417064Y-18065963D02*
X1265874Y-18065963D01*
X1840398Y-17430963D02*
X2263731Y-17430963D01*
X2263731Y-17430963D02*
X1991588Y-18065963D01*
X1265874Y-25685963D02*
X1265874Y-25050963D01*
X1265874Y-25050963D02*
X1417064Y-25050963D01*
X1417064Y-25050963D02*
X1507779Y-25081201D01*
X1507779Y-25081201D02*
X1568255Y-25141677D01*
X1568255Y-25141677D02*
X1598493Y-25202153D01*
X1598493Y-25202153D02*
X1628731Y-25323105D01*
X1628731Y-25323105D02*
X1628731Y-25413820D01*
X1628731Y-25413820D02*
X1598493Y-25534772D01*
X1598493Y-25534772D02*
X1568255Y-25595248D01*
X1568255Y-25595248D02*
X1507779Y-25655725D01*
X1507779Y-25655725D02*
X1417064Y-25685963D01*
X1417064Y-25685963D02*
X1265874Y-25685963D01*
X2173017Y-25262629D02*
X2173017Y-25685963D01*
X2021826Y-25020725D02*
X1870636Y-25474296D01*
X1870636Y-25474296D02*
X2263731Y-25474296D01*
X884874Y-4603963D02*
X884874Y-3968963D01*
X1550112Y-4603963D02*
X1338445Y-4301582D01*
X1187255Y-4603963D02*
X1187255Y-3968963D01*
X1187255Y-3968963D02*
X1429160Y-3968963D01*
X1429160Y-3968963D02*
X1489636Y-3999201D01*
X1489636Y-3999201D02*
X1519874Y-4029439D01*
X1519874Y-4029439D02*
X1550112Y-4089915D01*
X1550112Y-4089915D02*
X1550112Y-4180629D01*
X1550112Y-4180629D02*
X1519874Y-4241105D01*
X1519874Y-4241105D02*
X1489636Y-4271344D01*
X1489636Y-4271344D02*
X1429160Y-4301582D01*
X1429160Y-4301582D02*
X1187255Y-4301582D01*
X1743636Y-4166115D02*
X1864588Y-4674115D01*
X1864588Y-4674115D02*
X1961350Y-4311258D01*
X1961350Y-4311258D02*
X2058112Y-4674115D01*
X2058112Y-4674115D02*
X2179065Y-4166115D01*
X2372588Y-4674115D02*
X2372588Y-4166115D01*
X2372588Y-4166115D02*
X2493540Y-4166115D01*
X2493540Y-4166115D02*
X2566112Y-4190305D01*
X2566112Y-4190305D02*
X2614493Y-4238686D01*
X2614493Y-4238686D02*
X2638683Y-4287067D01*
X2638683Y-4287067D02*
X2662874Y-4383829D01*
X2662874Y-4383829D02*
X2662874Y-4456401D01*
X2662874Y-4456401D02*
X2638683Y-4553163D01*
X2638683Y-4553163D02*
X2614493Y-4601544D01*
X2614493Y-4601544D02*
X2566112Y-4649925D01*
X2566112Y-4649925D02*
X2493540Y-4674115D01*
X2493540Y-4674115D02*
X2372588Y-4674115D01*
X1265874Y-33305963D02*
X1265874Y-32670963D01*
X1265874Y-32670963D02*
X1417064Y-32670963D01*
X1417064Y-32670963D02*
X1507779Y-32701201D01*
X1507779Y-32701201D02*
X1568255Y-32761677D01*
X1568255Y-32761677D02*
X1598493Y-32822153D01*
X1598493Y-32822153D02*
X1628731Y-32943105D01*
X1628731Y-32943105D02*
X1628731Y-33033820D01*
X1628731Y-33033820D02*
X1598493Y-33154772D01*
X1598493Y-33154772D02*
X1568255Y-33215248D01*
X1568255Y-33215248D02*
X1507779Y-33275725D01*
X1507779Y-33275725D02*
X1417064Y-33305963D01*
X1417064Y-33305963D02*
X1265874Y-33305963D01*
X1870636Y-32731439D02*
X1900874Y-32701201D01*
X1900874Y-32701201D02*
X1961350Y-32670963D01*
X1961350Y-32670963D02*
X2112541Y-32670963D01*
X2112541Y-32670963D02*
X2173017Y-32701201D01*
X2173017Y-32701201D02*
X2203255Y-32731439D01*
X2203255Y-32731439D02*
X2233493Y-32791915D01*
X2233493Y-32791915D02*
X2233493Y-32852391D01*
X2233493Y-32852391D02*
X2203255Y-32943105D01*
X2203255Y-32943105D02*
X1840398Y-33305963D01*
X1840398Y-33305963D02*
X2233493Y-33305963D01*
X13339125Y-30433344D02*
X13127458Y-30433344D01*
X13127458Y-30765963D02*
X13127458Y-30130963D01*
X13127458Y-30130963D02*
X13429839Y-30130963D01*
X13641506Y-30191439D02*
X13671744Y-30161201D01*
X13671744Y-30161201D02*
X13732220Y-30130963D01*
X13732220Y-30130963D02*
X13883411Y-30130963D01*
X13883411Y-30130963D02*
X13943887Y-30161201D01*
X13943887Y-30161201D02*
X13974125Y-30191439D01*
X13974125Y-30191439D02*
X14004363Y-30251915D01*
X14004363Y-30251915D02*
X14004363Y-30312391D01*
X14004363Y-30312391D02*
X13974125Y-30403105D01*
X13974125Y-30403105D02*
X13611268Y-30765963D01*
X13611268Y-30765963D02*
X14004363Y-30765963D01*
D11*
G36*
X11730905Y-32356143D02*
G01*
X11686016Y-32356143D01*
X11641707Y-32333988D01*
X11619552Y-32289678D01*
X11619552Y-32146417D01*
X11641707Y-32102107D01*
X11676607Y-32084657D01*
X11730905Y-32356143D01*
G37*
G36*
X12031746Y-29062139D02*
G01*
X12056414Y-29086806D01*
X12086219Y-29146416D01*
X12086219Y-29289678D01*
X12076797Y-29308523D01*
X11628975Y-29308523D01*
X11619552Y-29289677D01*
X11619552Y-29146416D01*
X11649357Y-29086806D01*
X11674025Y-29062137D01*
X11733635Y-29032333D01*
X11972135Y-29032333D01*
X12031746Y-29062139D01*
G37*
G36*
X11960837Y-25931445D02*
G01*
X12031746Y-25966900D01*
X12056414Y-25991567D01*
X12086219Y-26051177D01*
X12086219Y-26099201D01*
X12056414Y-26158810D01*
X12031746Y-26183477D01*
X11960837Y-26218932D01*
X11792956Y-26260903D01*
X11579480Y-26260903D01*
X11411599Y-26218932D01*
X11340692Y-26183479D01*
X11316024Y-26158810D01*
X11286219Y-26099200D01*
X11286219Y-26051177D01*
X11316024Y-25991567D01*
X11340692Y-25966898D01*
X11411599Y-25931445D01*
X11579480Y-25889475D01*
X11792956Y-25889475D01*
X11960837Y-25931445D01*
G37*
G36*
X12728742Y-34572016D02*
G01*
X10975108Y-34572016D01*
X10975108Y-34341396D01*
X11088140Y-34341396D01*
X11088140Y-34380414D01*
X11103072Y-34416462D01*
X11130662Y-34444052D01*
X11166710Y-34458984D01*
X11186219Y-34460905D01*
X12186219Y-34460905D01*
X12205728Y-34458984D01*
X12241776Y-34444052D01*
X12269366Y-34416462D01*
X12284298Y-34380414D01*
X12284298Y-34341396D01*
X12269366Y-34305348D01*
X12241776Y-34277758D01*
X12205728Y-34262826D01*
X12186219Y-34260905D01*
X11186219Y-34260905D01*
X11166710Y-34262826D01*
X11130662Y-34277758D01*
X11103072Y-34305348D01*
X11088140Y-34341396D01*
X10975108Y-34341396D01*
X10975108Y-33599001D01*
X11419552Y-33599001D01*
X11419552Y-33741858D01*
X11421473Y-33761367D01*
X11422848Y-33764687D01*
X11423103Y-33768271D01*
X11430109Y-33786579D01*
X11446400Y-33819162D01*
X11436405Y-33829158D01*
X11421473Y-33865206D01*
X11421473Y-33904224D01*
X11436405Y-33940272D01*
X11463995Y-33967862D01*
X11500043Y-33982794D01*
X11519552Y-33984715D01*
X12186219Y-33984715D01*
X12205728Y-33982794D01*
X12241776Y-33967862D01*
X12269366Y-33940272D01*
X12284298Y-33904224D01*
X12284298Y-33865206D01*
X12269366Y-33829158D01*
X12241776Y-33801568D01*
X12205728Y-33786636D01*
X12186219Y-33784715D01*
X11656212Y-33784715D01*
X11649357Y-33777860D01*
X11619552Y-33718250D01*
X11619552Y-33622608D01*
X11641707Y-33578298D01*
X11686016Y-33556144D01*
X12186219Y-33556144D01*
X12205728Y-33554223D01*
X12241776Y-33539291D01*
X12269366Y-33511701D01*
X12284298Y-33475653D01*
X12284298Y-33436635D01*
X12269366Y-33400587D01*
X12241776Y-33372997D01*
X12205728Y-33358065D01*
X12186219Y-33356144D01*
X11662409Y-33356144D01*
X11642900Y-33358065D01*
X11639579Y-33359440D01*
X11635996Y-33359695D01*
X11617687Y-33366701D01*
X11522450Y-33414320D01*
X11519186Y-33416374D01*
X11517648Y-33416887D01*
X11515732Y-33418548D01*
X11505859Y-33424763D01*
X11497641Y-33434238D01*
X11488171Y-33442452D01*
X11481957Y-33452323D01*
X11480295Y-33454240D01*
X11479781Y-33455778D01*
X11477728Y-33459042D01*
X11430109Y-33554280D01*
X11423103Y-33572588D01*
X11422848Y-33576171D01*
X11421473Y-33579492D01*
X11419552Y-33599001D01*
X10975108Y-33599001D01*
X10975108Y-32960444D01*
X11088140Y-32960444D01*
X11088140Y-32999462D01*
X11103072Y-33035510D01*
X11130662Y-33063100D01*
X11166710Y-33078032D01*
X11186219Y-33079953D01*
X11419552Y-33079953D01*
X11419552Y-33122810D01*
X11421473Y-33142319D01*
X11436405Y-33178367D01*
X11463995Y-33205957D01*
X11500043Y-33220889D01*
X11539061Y-33220889D01*
X11575109Y-33205957D01*
X11602699Y-33178367D01*
X11617631Y-33142319D01*
X11619552Y-33122810D01*
X11619552Y-33079953D01*
X12043361Y-33079953D01*
X12062870Y-33078032D01*
X12066190Y-33076656D01*
X12069773Y-33076402D01*
X12088082Y-33069396D01*
X12183321Y-33021777D01*
X12186584Y-33019723D01*
X12188123Y-33019210D01*
X12190039Y-33017547D01*
X12199911Y-33011334D01*
X12208125Y-33001862D01*
X12217600Y-32993646D01*
X12223812Y-32983775D01*
X12225476Y-32981858D01*
X12225989Y-32980317D01*
X12228043Y-32977055D01*
X12275662Y-32881818D01*
X12282668Y-32863509D01*
X12282922Y-32859925D01*
X12284298Y-32856605D01*
X12286219Y-32837096D01*
X12286219Y-32741858D01*
X12284298Y-32722349D01*
X12269366Y-32686301D01*
X12241776Y-32658711D01*
X12205728Y-32643779D01*
X12166710Y-32643779D01*
X12130662Y-32658711D01*
X12103072Y-32686301D01*
X12088140Y-32722349D01*
X12086219Y-32741858D01*
X12086219Y-32813489D01*
X12064064Y-32857798D01*
X12019754Y-32879953D01*
X11619552Y-32879953D01*
X11619552Y-32741858D01*
X11617631Y-32722349D01*
X11602699Y-32686301D01*
X11575109Y-32658711D01*
X11539061Y-32643779D01*
X11500043Y-32643779D01*
X11463995Y-32658711D01*
X11436405Y-32686301D01*
X11421473Y-32722349D01*
X11419552Y-32741858D01*
X11419552Y-32879953D01*
X11186219Y-32879953D01*
X11166710Y-32881874D01*
X11130662Y-32896806D01*
X11103072Y-32924396D01*
X11088140Y-32960444D01*
X10975108Y-32960444D01*
X10975108Y-32122810D01*
X11419552Y-32122810D01*
X11419552Y-32313286D01*
X11421473Y-32332795D01*
X11422848Y-32336115D01*
X11423103Y-32339699D01*
X11430109Y-32358007D01*
X11477728Y-32453245D01*
X11479781Y-32456508D01*
X11480295Y-32458047D01*
X11481957Y-32459963D01*
X11488171Y-32469835D01*
X11497641Y-32478048D01*
X11505859Y-32487524D01*
X11515732Y-32493738D01*
X11517648Y-32495400D01*
X11519186Y-32495912D01*
X11522450Y-32497967D01*
X11617687Y-32545586D01*
X11635996Y-32552592D01*
X11639579Y-32552846D01*
X11642900Y-32554222D01*
X11662409Y-32556143D01*
X11852990Y-32556143D01*
X12043361Y-32556143D01*
X12062870Y-32554222D01*
X12066190Y-32552846D01*
X12069773Y-32552592D01*
X12088082Y-32545586D01*
X12183321Y-32497967D01*
X12186584Y-32495913D01*
X12188123Y-32495400D01*
X12190039Y-32493737D01*
X12199911Y-32487524D01*
X12208125Y-32478052D01*
X12217600Y-32469836D01*
X12223812Y-32459965D01*
X12225476Y-32458048D01*
X12225989Y-32456507D01*
X12228043Y-32453245D01*
X12275662Y-32358008D01*
X12282668Y-32339699D01*
X12282922Y-32336115D01*
X12284298Y-32332795D01*
X12286219Y-32313286D01*
X12286219Y-32122810D01*
X12284298Y-32103301D01*
X12282922Y-32099980D01*
X12282668Y-32096397D01*
X12275662Y-32078088D01*
X12228043Y-31982851D01*
X12217600Y-31966260D01*
X12188123Y-31940696D01*
X12151107Y-31928357D01*
X12112187Y-31931123D01*
X12077288Y-31948572D01*
X12051724Y-31978049D01*
X12039385Y-32015065D01*
X12042151Y-32053985D01*
X12049157Y-32072293D01*
X12086219Y-32146417D01*
X12086219Y-32289679D01*
X12064064Y-32333988D01*
X12019754Y-32356143D01*
X11934865Y-32356143D01*
X11855705Y-31960341D01*
X11849995Y-31941588D01*
X11844543Y-31933447D01*
X11840794Y-31924396D01*
X11833794Y-31917396D01*
X11828284Y-31909168D01*
X11820130Y-31903732D01*
X11813204Y-31896806D01*
X11804057Y-31893017D01*
X11795819Y-31887525D01*
X11786208Y-31885623D01*
X11777156Y-31881874D01*
X11757647Y-31879953D01*
X11662409Y-31879953D01*
X11642900Y-31881874D01*
X11639579Y-31883249D01*
X11635996Y-31883504D01*
X11617687Y-31890510D01*
X11522450Y-31938129D01*
X11519186Y-31940183D01*
X11517648Y-31940696D01*
X11515732Y-31942357D01*
X11505859Y-31948572D01*
X11497641Y-31958047D01*
X11488171Y-31966261D01*
X11481957Y-31976132D01*
X11480295Y-31978049D01*
X11479781Y-31979587D01*
X11477728Y-31982851D01*
X11430109Y-32078089D01*
X11423103Y-32096397D01*
X11422848Y-32099980D01*
X11421473Y-32103301D01*
X11419552Y-32122810D01*
X10975108Y-32122810D01*
X10975108Y-31265667D01*
X11419552Y-31265667D01*
X11419552Y-31360905D01*
X11421473Y-31380414D01*
X11422848Y-31383734D01*
X11423103Y-31387318D01*
X11430109Y-31405626D01*
X11462273Y-31469955D01*
X11436405Y-31495824D01*
X11421473Y-31531872D01*
X11421473Y-31570890D01*
X11436405Y-31606938D01*
X11463995Y-31634528D01*
X11500043Y-31649460D01*
X11519552Y-31651381D01*
X12186219Y-31651381D01*
X12205728Y-31649460D01*
X12241776Y-31634528D01*
X12269366Y-31606938D01*
X12284298Y-31570890D01*
X12284298Y-31531872D01*
X12269366Y-31495824D01*
X12241776Y-31468234D01*
X12205728Y-31453302D01*
X12186219Y-31451381D01*
X11733635Y-31451381D01*
X11674025Y-31421576D01*
X11649357Y-31396907D01*
X11619552Y-31337297D01*
X11619552Y-31265667D01*
X11617631Y-31246158D01*
X11602699Y-31210110D01*
X11575109Y-31182520D01*
X11539061Y-31167588D01*
X11500043Y-31167588D01*
X11463995Y-31182520D01*
X11436405Y-31210110D01*
X11421473Y-31246158D01*
X11419552Y-31265667D01*
X10975108Y-31265667D01*
X10975108Y-30646619D01*
X11419552Y-30646619D01*
X11419552Y-30741857D01*
X11421473Y-30761366D01*
X11422848Y-30764686D01*
X11423103Y-30768270D01*
X11430109Y-30786578D01*
X11462273Y-30850907D01*
X11436405Y-30876776D01*
X11421473Y-30912824D01*
X11421473Y-30951842D01*
X11436405Y-30987890D01*
X11463995Y-31015480D01*
X11500043Y-31030412D01*
X11519552Y-31032333D01*
X12186219Y-31032333D01*
X12205728Y-31030412D01*
X12241776Y-31015480D01*
X12269366Y-30987890D01*
X12284298Y-30951842D01*
X12284298Y-30912824D01*
X12269366Y-30876776D01*
X12241776Y-30849186D01*
X12205728Y-30834254D01*
X12186219Y-30832333D01*
X11733635Y-30832333D01*
X11674025Y-30802528D01*
X11649357Y-30777859D01*
X11619552Y-30718249D01*
X11619552Y-30646619D01*
X11617631Y-30627110D01*
X11602699Y-30591062D01*
X11575109Y-30563472D01*
X11539061Y-30548540D01*
X11500043Y-30548540D01*
X11463995Y-30563472D01*
X11436405Y-30591062D01*
X11421473Y-30627110D01*
X11419552Y-30646619D01*
X10975108Y-30646619D01*
X10975108Y-29865205D01*
X11421473Y-29865205D01*
X11421473Y-29904223D01*
X11436405Y-29940271D01*
X11463995Y-29967861D01*
X11500043Y-29982793D01*
X11519552Y-29984714D01*
X12049560Y-29984714D01*
X12056414Y-29991568D01*
X12086219Y-30051178D01*
X12086219Y-30146821D01*
X12064064Y-30191130D01*
X12019754Y-30213285D01*
X11519552Y-30213285D01*
X11500043Y-30215206D01*
X11463995Y-30230138D01*
X11436405Y-30257728D01*
X11421473Y-30293776D01*
X11421473Y-30332794D01*
X11436405Y-30368842D01*
X11463995Y-30396432D01*
X11500043Y-30411364D01*
X11519552Y-30413285D01*
X12043361Y-30413285D01*
X12062870Y-30411364D01*
X12066190Y-30409988D01*
X12069773Y-30409734D01*
X12088082Y-30402728D01*
X12183321Y-30355109D01*
X12186584Y-30353055D01*
X12188123Y-30352542D01*
X12190039Y-30350879D01*
X12199911Y-30344666D01*
X12208125Y-30335194D01*
X12217600Y-30326978D01*
X12223812Y-30317107D01*
X12225476Y-30315190D01*
X12225989Y-30313649D01*
X12228043Y-30310387D01*
X12275662Y-30215150D01*
X12282668Y-30196841D01*
X12282922Y-30193257D01*
X12284298Y-30189937D01*
X12286219Y-30170428D01*
X12286219Y-30027571D01*
X12284298Y-30008062D01*
X12282922Y-30004741D01*
X12282668Y-30001158D01*
X12275662Y-29982849D01*
X12259370Y-29950266D01*
X12269366Y-29940271D01*
X12284298Y-29904223D01*
X12284298Y-29865205D01*
X12269366Y-29829157D01*
X12241776Y-29801567D01*
X12205728Y-29786635D01*
X12186219Y-29784714D01*
X11519552Y-29784714D01*
X11500043Y-29786635D01*
X11463995Y-29801567D01*
X11436405Y-29829157D01*
X11421473Y-29865205D01*
X10975108Y-29865205D01*
X10975108Y-29122809D01*
X11419552Y-29122809D01*
X11419552Y-29313285D01*
X11421473Y-29332794D01*
X11422848Y-29336114D01*
X11423103Y-29339698D01*
X11430109Y-29358006D01*
X11432410Y-29362609D01*
X11421473Y-29389014D01*
X11421473Y-29428032D01*
X11436405Y-29464080D01*
X11463995Y-29491670D01*
X11500043Y-29506602D01*
X11519552Y-29508523D01*
X12519552Y-29508523D01*
X12539061Y-29506602D01*
X12575109Y-29491670D01*
X12602699Y-29464080D01*
X12617631Y-29428032D01*
X12617631Y-29389014D01*
X12602699Y-29352966D01*
X12575109Y-29325376D01*
X12539061Y-29310444D01*
X12519552Y-29308523D01*
X12286219Y-29308523D01*
X12286219Y-29122809D01*
X12284298Y-29103300D01*
X12282922Y-29099979D01*
X12282668Y-29096396D01*
X12275662Y-29078087D01*
X12228043Y-28982850D01*
X12222757Y-28974453D01*
X12221747Y-28972013D01*
X12219493Y-28969267D01*
X12217600Y-28966259D01*
X12215603Y-28964527D01*
X12209310Y-28956859D01*
X12161690Y-28909241D01*
X12154020Y-28902946D01*
X12152291Y-28900952D01*
X12149286Y-28899060D01*
X12146537Y-28896804D01*
X12144093Y-28895792D01*
X12135701Y-28890509D01*
X12040463Y-28842890D01*
X12022155Y-28835884D01*
X12018571Y-28835629D01*
X12015251Y-28834254D01*
X11995742Y-28832333D01*
X11710028Y-28832333D01*
X11690519Y-28834254D01*
X11687198Y-28835629D01*
X11683615Y-28835884D01*
X11665306Y-28842890D01*
X11570069Y-28890509D01*
X11561672Y-28895794D01*
X11559232Y-28896805D01*
X11556486Y-28899058D01*
X11553478Y-28900952D01*
X11551745Y-28902949D01*
X11544079Y-28909242D01*
X11496460Y-28956860D01*
X11490165Y-28964530D01*
X11488171Y-28966260D01*
X11486277Y-28969267D01*
X11484024Y-28972014D01*
X11483013Y-28974453D01*
X11477728Y-28982850D01*
X11430109Y-29078088D01*
X11423103Y-29096396D01*
X11422848Y-29099979D01*
X11421473Y-29103300D01*
X11419552Y-29122809D01*
X10975108Y-29122809D01*
X10975108Y-28484252D01*
X11088140Y-28484252D01*
X11088140Y-28523270D01*
X11103072Y-28559318D01*
X11130662Y-28586908D01*
X11166710Y-28601840D01*
X11186219Y-28603761D01*
X11419552Y-28603761D01*
X11419552Y-28646618D01*
X11421473Y-28666127D01*
X11436405Y-28702175D01*
X11463995Y-28729765D01*
X11500043Y-28744697D01*
X11539061Y-28744697D01*
X11575109Y-28729765D01*
X11602699Y-28702175D01*
X11617631Y-28666127D01*
X11619552Y-28646618D01*
X11619552Y-28603761D01*
X12043361Y-28603761D01*
X12062870Y-28601840D01*
X12066190Y-28600464D01*
X12069773Y-28600210D01*
X12088082Y-28593204D01*
X12183321Y-28545585D01*
X12186584Y-28543531D01*
X12188123Y-28543018D01*
X12190039Y-28541355D01*
X12199911Y-28535142D01*
X12208125Y-28525670D01*
X12217600Y-28517454D01*
X12223812Y-28507583D01*
X12225476Y-28505666D01*
X12225989Y-28504125D01*
X12228043Y-28500863D01*
X12275662Y-28405626D01*
X12282668Y-28387317D01*
X12282922Y-28383733D01*
X12284298Y-28380413D01*
X12286219Y-28360904D01*
X12286219Y-28265666D01*
X12284298Y-28246157D01*
X12269366Y-28210109D01*
X12241776Y-28182519D01*
X12205728Y-28167587D01*
X12166710Y-28167587D01*
X12130662Y-28182519D01*
X12103072Y-28210109D01*
X12088140Y-28246157D01*
X12086219Y-28265666D01*
X12086219Y-28337297D01*
X12064064Y-28381606D01*
X12019754Y-28403761D01*
X11619552Y-28403761D01*
X11619552Y-28265666D01*
X11617631Y-28246157D01*
X11602699Y-28210109D01*
X11575109Y-28182519D01*
X11539061Y-28167587D01*
X11500043Y-28167587D01*
X11463995Y-28182519D01*
X11436405Y-28210109D01*
X11421473Y-28246157D01*
X11419552Y-28265666D01*
X11419552Y-28403761D01*
X11186219Y-28403761D01*
X11166710Y-28405682D01*
X11130662Y-28420614D01*
X11103072Y-28448204D01*
X11088140Y-28484252D01*
X10975108Y-28484252D01*
X10975108Y-26634111D01*
X11087004Y-26634111D01*
X11089770Y-26673031D01*
X11107220Y-26707930D01*
X11136696Y-26733495D01*
X11154596Y-26741486D01*
X11869991Y-26979951D01*
X11154596Y-27218416D01*
X11136696Y-27226407D01*
X11107220Y-27251972D01*
X11089770Y-27286871D01*
X11087004Y-27325791D01*
X11099342Y-27362807D01*
X11124907Y-27392283D01*
X11159806Y-27409733D01*
X11198726Y-27412499D01*
X11217842Y-27408152D01*
X12217841Y-27074819D01*
X12235742Y-27066828D01*
X12241143Y-27062143D01*
X12247530Y-27058950D01*
X12255742Y-27049481D01*
X12265218Y-27041263D01*
X12268413Y-27034871D01*
X12273095Y-27029474D01*
X12277061Y-27017576D01*
X12282667Y-27006364D01*
X12283173Y-26999239D01*
X12285434Y-26992458D01*
X12284544Y-26979951D01*
X12285434Y-26967444D01*
X12283173Y-26960662D01*
X12282667Y-26953538D01*
X12277061Y-26942325D01*
X12273095Y-26930428D01*
X12268413Y-26925030D01*
X12265218Y-26918639D01*
X12255742Y-26910420D01*
X12247530Y-26900952D01*
X12241143Y-26897758D01*
X12235742Y-26893074D01*
X12217841Y-26885083D01*
X11217842Y-26551750D01*
X11198726Y-26547403D01*
X11159806Y-26550169D01*
X11124907Y-26567619D01*
X11099342Y-26597095D01*
X11087004Y-26634111D01*
X10975108Y-26634111D01*
X10975108Y-26027570D01*
X11086219Y-26027570D01*
X11086219Y-26122808D01*
X11088140Y-26142317D01*
X11089515Y-26145637D01*
X11089770Y-26149221D01*
X11096776Y-26167529D01*
X11144395Y-26262767D01*
X11149680Y-26271163D01*
X11150691Y-26273603D01*
X11152944Y-26276349D01*
X11154838Y-26279357D01*
X11156832Y-26281086D01*
X11163127Y-26288757D01*
X11210746Y-26336375D01*
X11218412Y-26342667D01*
X11220145Y-26344665D01*
X11223153Y-26346558D01*
X11225899Y-26348812D01*
X11228339Y-26349822D01*
X11236736Y-26355108D01*
X11331973Y-26402727D01*
X11333401Y-26403273D01*
X11333981Y-26403703D01*
X11342157Y-26406624D01*
X11350282Y-26409733D01*
X11351002Y-26409784D01*
X11352441Y-26410298D01*
X11542917Y-26457917D01*
X11546298Y-26458417D01*
X11547662Y-26458982D01*
X11555012Y-26459705D01*
X11562310Y-26460785D01*
X11563768Y-26460567D01*
X11567171Y-26460903D01*
X11805266Y-26460903D01*
X11808668Y-26460567D01*
X11810127Y-26460785D01*
X11817424Y-26459705D01*
X11824775Y-26458982D01*
X11826138Y-26458417D01*
X11829520Y-26457917D01*
X12019995Y-26410298D01*
X12021432Y-26409784D01*
X12022155Y-26409733D01*
X12030279Y-26406624D01*
X12038456Y-26403703D01*
X12039036Y-26403272D01*
X12040463Y-26402727D01*
X12135701Y-26355108D01*
X12144093Y-26349824D01*
X12146537Y-26348813D01*
X12149286Y-26346556D01*
X12152291Y-26344665D01*
X12154020Y-26342670D01*
X12161690Y-26336376D01*
X12209310Y-26288758D01*
X12215603Y-26281089D01*
X12217600Y-26279358D01*
X12219493Y-26276349D01*
X12221747Y-26273604D01*
X12222757Y-26271163D01*
X12228043Y-26262767D01*
X12275662Y-26167530D01*
X12282668Y-26149221D01*
X12282922Y-26145637D01*
X12284298Y-26142317D01*
X12286219Y-26122808D01*
X12286219Y-26027570D01*
X12284298Y-26008061D01*
X12282922Y-26004740D01*
X12282668Y-26001157D01*
X12275662Y-25982848D01*
X12228043Y-25887611D01*
X12222757Y-25879214D01*
X12221747Y-25876774D01*
X12219493Y-25874028D01*
X12217600Y-25871020D01*
X12215603Y-25869288D01*
X12209310Y-25861620D01*
X12161690Y-25814002D01*
X12154020Y-25807707D01*
X12152291Y-25805713D01*
X12149286Y-25803821D01*
X12146537Y-25801565D01*
X12144093Y-25800553D01*
X12135701Y-25795270D01*
X12040463Y-25747651D01*
X12039036Y-25747105D01*
X12038456Y-25746675D01*
X12030279Y-25743753D01*
X12022155Y-25740645D01*
X12021432Y-25740593D01*
X12019995Y-25740080D01*
X11829520Y-25692461D01*
X11826138Y-25691960D01*
X11824775Y-25691396D01*
X11817424Y-25690672D01*
X11810127Y-25689593D01*
X11808668Y-25689810D01*
X11805266Y-25689475D01*
X11567171Y-25689475D01*
X11563768Y-25689810D01*
X11562310Y-25689593D01*
X11555012Y-25690672D01*
X11547662Y-25691396D01*
X11546298Y-25691960D01*
X11542917Y-25692461D01*
X11352441Y-25740080D01*
X11351002Y-25740593D01*
X11350282Y-25740645D01*
X11342157Y-25743753D01*
X11333981Y-25746675D01*
X11333401Y-25747104D01*
X11331973Y-25747651D01*
X11236736Y-25795270D01*
X11228339Y-25800555D01*
X11225899Y-25801566D01*
X11223153Y-25803819D01*
X11220145Y-25805713D01*
X11218412Y-25807710D01*
X11210746Y-25814003D01*
X11163127Y-25861621D01*
X11156832Y-25869291D01*
X11154838Y-25871021D01*
X11152944Y-25874028D01*
X11150691Y-25876775D01*
X11149680Y-25879214D01*
X11144395Y-25887611D01*
X11096776Y-25982849D01*
X11089770Y-26001157D01*
X11089515Y-26004740D01*
X11088140Y-26008061D01*
X11086219Y-26027570D01*
X10975108Y-26027570D01*
X10975108Y-25578364D01*
X12728742Y-25578364D01*
X12728742Y-34572016D01*
G37*
D10*
X13339125Y-22813344D02*
X13127458Y-22813344D01*
X13127458Y-23145963D02*
X13127458Y-22510963D01*
X13127458Y-22510963D02*
X13429839Y-22510963D01*
X13943887Y-22722629D02*
X13943887Y-23145963D01*
X13792696Y-22480725D02*
X13641506Y-22934296D01*
X13641506Y-22934296D02*
X14034601Y-22934296D01*
X13339125Y-17733344D02*
X13127458Y-17733344D01*
X13127458Y-18065963D02*
X13127458Y-17430963D01*
X13127458Y-17430963D02*
X13429839Y-17430963D01*
X13943887Y-17430963D02*
X13822934Y-17430963D01*
X13822934Y-17430963D02*
X13762458Y-17461201D01*
X13762458Y-17461201D02*
X13732220Y-17491439D01*
X13732220Y-17491439D02*
X13671744Y-17582153D01*
X13671744Y-17582153D02*
X13641506Y-17703105D01*
X13641506Y-17703105D02*
X13641506Y-17945010D01*
X13641506Y-17945010D02*
X13671744Y-18005486D01*
X13671744Y-18005486D02*
X13701982Y-18035725D01*
X13701982Y-18035725D02*
X13762458Y-18065963D01*
X13762458Y-18065963D02*
X13883411Y-18065963D01*
X13883411Y-18065963D02*
X13943887Y-18035725D01*
X13943887Y-18035725D02*
X13974125Y-18005486D01*
X13974125Y-18005486D02*
X14004363Y-17945010D01*
X14004363Y-17945010D02*
X14004363Y-17793820D01*
X14004363Y-17793820D02*
X13974125Y-17733344D01*
X13974125Y-17733344D02*
X13943887Y-17703105D01*
X13943887Y-17703105D02*
X13883411Y-17672867D01*
X13883411Y-17672867D02*
X13762458Y-17672867D01*
X13762458Y-17672867D02*
X13701982Y-17703105D01*
X13701982Y-17703105D02*
X13671744Y-17733344D01*
X13671744Y-17733344D02*
X13641506Y-17793820D01*
X1441255Y349036D02*
X1138874Y349036D01*
X1138874Y349036D02*
X1108636Y46655D01*
X1108636Y46655D02*
X1138874Y76894D01*
X1138874Y76894D02*
X1199350Y107132D01*
X1199350Y107132D02*
X1350541Y107132D01*
X1350541Y107132D02*
X1411017Y76894D01*
X1411017Y76894D02*
X1441255Y46655D01*
X1441255Y46655D02*
X1471493Y-13820D01*
X1471493Y-13820D02*
X1471493Y-165010D01*
X1471493Y-165010D02*
X1441255Y-225486D01*
X1441255Y-225486D02*
X1411017Y-255725D01*
X1411017Y-255725D02*
X1350541Y-285963D01*
X1350541Y-285963D02*
X1199350Y-285963D01*
X1199350Y-285963D02*
X1138874Y-255725D01*
X1138874Y-255725D02*
X1108636Y-225486D01*
X1652922Y349036D02*
X1864588Y-285963D01*
X1864588Y-285963D02*
X2076255Y349036D01*
X12915791Y-285963D02*
X12704124Y16417D01*
X12552934Y-285963D02*
X12552934Y349036D01*
X12552934Y349036D02*
X12794839Y349036D01*
X12794839Y349036D02*
X12855315Y318798D01*
X12855315Y318798D02*
X12885553Y288560D01*
X12885553Y288560D02*
X12915791Y228084D01*
X12915791Y228084D02*
X12915791Y137370D01*
X12915791Y137370D02*
X12885553Y76894D01*
X12885553Y76894D02*
X12855315Y46655D01*
X12855315Y46655D02*
X12794839Y16417D01*
X12794839Y16417D02*
X12552934Y16417D01*
X13157696Y-255725D02*
X13248410Y-285963D01*
X13248410Y-285963D02*
X13399601Y-285963D01*
X13399601Y-285963D02*
X13460077Y-255725D01*
X13460077Y-255725D02*
X13490315Y-225486D01*
X13490315Y-225486D02*
X13520553Y-165010D01*
X13520553Y-165010D02*
X13520553Y-104534D01*
X13520553Y-104534D02*
X13490315Y-44058D01*
X13490315Y-44058D02*
X13460077Y-13820D01*
X13460077Y-13820D02*
X13399601Y16417D01*
X13399601Y16417D02*
X13278648Y46655D01*
X13278648Y46655D02*
X13218172Y76894D01*
X13218172Y76894D02*
X13187934Y107132D01*
X13187934Y107132D02*
X13157696Y167608D01*
X13157696Y167608D02*
X13157696Y228084D01*
X13157696Y228084D02*
X13187934Y288560D01*
X13187934Y288560D02*
X13218172Y318798D01*
X13218172Y318798D02*
X13278648Y349036D01*
X13278648Y349036D02*
X13429839Y349036D01*
X13429839Y349036D02*
X13520553Y318798D01*
X13701982Y349036D02*
X14064839Y349036D01*
X13883410Y-285963D02*
X13883410Y349036D01*
X12465244Y525325D02*
X14061816Y525325D01*
X1265874Y-30765963D02*
X1265874Y-30130963D01*
X1265874Y-30130963D02*
X1417064Y-30130963D01*
X1417064Y-30130963D02*
X1507779Y-30161201D01*
X1507779Y-30161201D02*
X1568255Y-30221677D01*
X1568255Y-30221677D02*
X1598493Y-30282153D01*
X1598493Y-30282153D02*
X1628731Y-30403105D01*
X1628731Y-30403105D02*
X1628731Y-30493820D01*
X1628731Y-30493820D02*
X1598493Y-30614772D01*
X1598493Y-30614772D02*
X1568255Y-30675248D01*
X1568255Y-30675248D02*
X1507779Y-30735725D01*
X1507779Y-30735725D02*
X1417064Y-30765963D01*
X1417064Y-30765963D02*
X1265874Y-30765963D01*
X1840398Y-30130963D02*
X2233493Y-30130963D01*
X2233493Y-30130963D02*
X2021826Y-30372867D01*
X2021826Y-30372867D02*
X2112541Y-30372867D01*
X2112541Y-30372867D02*
X2173017Y-30403105D01*
X2173017Y-30403105D02*
X2203255Y-30433344D01*
X2203255Y-30433344D02*
X2233493Y-30493820D01*
X2233493Y-30493820D02*
X2233493Y-30645010D01*
X2233493Y-30645010D02*
X2203255Y-30705486D01*
X2203255Y-30705486D02*
X2173017Y-30735725D01*
X2173017Y-30735725D02*
X2112541Y-30765963D01*
X2112541Y-30765963D02*
X1931112Y-30765963D01*
X1931112Y-30765963D02*
X1870636Y-30735725D01*
X1870636Y-30735725D02*
X1840398Y-30705486D01*
X12673887Y-9841201D02*
X12613411Y-9810963D01*
X12613411Y-9810963D02*
X12522697Y-9810963D01*
X12522697Y-9810963D02*
X12431982Y-9841201D01*
X12431982Y-9841201D02*
X12371506Y-9901677D01*
X12371506Y-9901677D02*
X12341268Y-9962153D01*
X12341268Y-9962153D02*
X12311030Y-10083105D01*
X12311030Y-10083105D02*
X12311030Y-10173820D01*
X12311030Y-10173820D02*
X12341268Y-10294772D01*
X12341268Y-10294772D02*
X12371506Y-10355248D01*
X12371506Y-10355248D02*
X12431982Y-10415725D01*
X12431982Y-10415725D02*
X12522697Y-10445963D01*
X12522697Y-10445963D02*
X12583173Y-10445963D01*
X12583173Y-10445963D02*
X12673887Y-10415725D01*
X12673887Y-10415725D02*
X12704125Y-10385486D01*
X12704125Y-10385486D02*
X12704125Y-10173820D01*
X12704125Y-10173820D02*
X12583173Y-10173820D01*
X12976268Y-10445963D02*
X12976268Y-9810963D01*
X12976268Y-9810963D02*
X13339125Y-10445963D01*
X13339125Y-10445963D02*
X13339125Y-9810963D01*
X13641506Y-10445963D02*
X13641506Y-9810963D01*
X13641506Y-9810963D02*
X13792696Y-9810963D01*
X13792696Y-9810963D02*
X13883411Y-9841201D01*
X13883411Y-9841201D02*
X13943887Y-9901677D01*
X13943887Y-9901677D02*
X13974125Y-9962153D01*
X13974125Y-9962153D02*
X14004363Y-10083105D01*
X14004363Y-10083105D02*
X14004363Y-10173820D01*
X14004363Y-10173820D02*
X13974125Y-10294772D01*
X13974125Y-10294772D02*
X13943887Y-10355248D01*
X13943887Y-10355248D02*
X13883411Y-10415725D01*
X13883411Y-10415725D02*
X13792696Y-10445963D01*
X13792696Y-10445963D02*
X13641506Y-10445963D01*
X842541Y-14177344D02*
X630874Y-14177344D01*
X630874Y-14509963D02*
X630874Y-13874963D01*
X630874Y-13874963D02*
X933255Y-13874963D01*
X1265874Y-14509963D02*
X1205398Y-14479725D01*
X1205398Y-14479725D02*
X1175160Y-14419248D01*
X1175160Y-14419248D02*
X1175160Y-13874963D01*
X1429160Y-14072115D02*
X1550112Y-14580115D01*
X1550112Y-14580115D02*
X1646874Y-14217258D01*
X1646874Y-14217258D02*
X1743636Y-14580115D01*
X1743636Y-14580115D02*
X1864589Y-14072115D01*
X2058112Y-14580115D02*
X2058112Y-14072115D01*
X2058112Y-14072115D02*
X2179064Y-14072115D01*
X2179064Y-14072115D02*
X2251636Y-14096305D01*
X2251636Y-14096305D02*
X2300017Y-14144686D01*
X2300017Y-14144686D02*
X2324207Y-14193067D01*
X2324207Y-14193067D02*
X2348398Y-14289829D01*
X2348398Y-14289829D02*
X2348398Y-14362401D01*
X2348398Y-14362401D02*
X2324207Y-14459163D01*
X2324207Y-14459163D02*
X2300017Y-14507544D01*
X2300017Y-14507544D02*
X2251636Y-14555925D01*
X2251636Y-14555925D02*
X2179064Y-14580115D01*
X2179064Y-14580115D02*
X2058112Y-14580115D01*
X1265874Y-20605963D02*
X1265874Y-19970963D01*
X1265874Y-19970963D02*
X1417064Y-19970963D01*
X1417064Y-19970963D02*
X1507779Y-20001201D01*
X1507779Y-20001201D02*
X1568255Y-20061677D01*
X1568255Y-20061677D02*
X1598493Y-20122153D01*
X1598493Y-20122153D02*
X1628731Y-20243105D01*
X1628731Y-20243105D02*
X1628731Y-20333820D01*
X1628731Y-20333820D02*
X1598493Y-20454772D01*
X1598493Y-20454772D02*
X1568255Y-20515248D01*
X1568255Y-20515248D02*
X1507779Y-20575725D01*
X1507779Y-20575725D02*
X1417064Y-20605963D01*
X1417064Y-20605963D02*
X1265874Y-20605963D01*
X2173017Y-19970963D02*
X2052064Y-19970963D01*
X2052064Y-19970963D02*
X1991588Y-20001201D01*
X1991588Y-20001201D02*
X1961350Y-20031439D01*
X1961350Y-20031439D02*
X1900874Y-20122153D01*
X1900874Y-20122153D02*
X1870636Y-20243105D01*
X1870636Y-20243105D02*
X1870636Y-20485010D01*
X1870636Y-20485010D02*
X1900874Y-20545486D01*
X1900874Y-20545486D02*
X1931112Y-20575725D01*
X1931112Y-20575725D02*
X1991588Y-20605963D01*
X1991588Y-20605963D02*
X2112541Y-20605963D01*
X2112541Y-20605963D02*
X2173017Y-20575725D01*
X2173017Y-20575725D02*
X2203255Y-20545486D01*
X2203255Y-20545486D02*
X2233493Y-20485010D01*
X2233493Y-20485010D02*
X2233493Y-20333820D01*
X2233493Y-20333820D02*
X2203255Y-20273344D01*
X2203255Y-20273344D02*
X2173017Y-20243105D01*
X2173017Y-20243105D02*
X2112541Y-20212867D01*
X2112541Y-20212867D02*
X1991588Y-20212867D01*
X1991588Y-20212867D02*
X1931112Y-20243105D01*
X1931112Y-20243105D02*
X1900874Y-20273344D01*
X1900874Y-20273344D02*
X1870636Y-20333820D01*
X1265874Y-23145963D02*
X1265874Y-22510963D01*
X1265874Y-22510963D02*
X1417064Y-22510963D01*
X1417064Y-22510963D02*
X1507779Y-22541201D01*
X1507779Y-22541201D02*
X1568255Y-22601677D01*
X1568255Y-22601677D02*
X1598493Y-22662153D01*
X1598493Y-22662153D02*
X1628731Y-22783105D01*
X1628731Y-22783105D02*
X1628731Y-22873820D01*
X1628731Y-22873820D02*
X1598493Y-22994772D01*
X1598493Y-22994772D02*
X1568255Y-23055248D01*
X1568255Y-23055248D02*
X1507779Y-23115725D01*
X1507779Y-23115725D02*
X1417064Y-23145963D01*
X1417064Y-23145963D02*
X1265874Y-23145963D01*
X2203255Y-22510963D02*
X1900874Y-22510963D01*
X1900874Y-22510963D02*
X1870636Y-22813344D01*
X1870636Y-22813344D02*
X1900874Y-22783105D01*
X1900874Y-22783105D02*
X1961350Y-22752867D01*
X1961350Y-22752867D02*
X2112541Y-22752867D01*
X2112541Y-22752867D02*
X2173017Y-22783105D01*
X2173017Y-22783105D02*
X2203255Y-22813344D01*
X2203255Y-22813344D02*
X2233493Y-22873820D01*
X2233493Y-22873820D02*
X2233493Y-23025010D01*
X2233493Y-23025010D02*
X2203255Y-23085486D01*
X2203255Y-23085486D02*
X2173017Y-23115725D01*
X2173017Y-23115725D02*
X2112541Y-23145963D01*
X2112541Y-23145963D02*
X1961350Y-23145963D01*
X1961350Y-23145963D02*
X1900874Y-23115725D01*
X1900874Y-23115725D02*
X1870636Y-23085486D01*
X866731Y-1749486D02*
X836493Y-1779725D01*
X836493Y-1779725D02*
X745779Y-1809963D01*
X745779Y-1809963D02*
X685303Y-1809963D01*
X685303Y-1809963D02*
X594588Y-1779725D01*
X594588Y-1779725D02*
X534112Y-1719248D01*
X534112Y-1719248D02*
X503874Y-1658772D01*
X503874Y-1658772D02*
X473636Y-1537820D01*
X473636Y-1537820D02*
X473636Y-1447105D01*
X473636Y-1447105D02*
X503874Y-1326153D01*
X503874Y-1326153D02*
X534112Y-1265677D01*
X534112Y-1265677D02*
X594588Y-1205201D01*
X594588Y-1205201D02*
X685303Y-1174963D01*
X685303Y-1174963D02*
X745779Y-1174963D01*
X745779Y-1174963D02*
X836493Y-1205201D01*
X836493Y-1205201D02*
X866731Y-1235439D01*
X1441255Y-1809963D02*
X1138874Y-1809963D01*
X1138874Y-1809963D02*
X1138874Y-1174963D01*
X1652922Y-1809963D02*
X1652922Y-1174963D01*
X2015779Y-1809963D02*
X1743636Y-1447105D01*
X2015779Y-1174963D02*
X1652922Y-1537820D01*
X12825077Y-5365963D02*
X12825077Y-4730963D01*
X13127458Y-5365963D02*
X13127458Y-4730963D01*
X13127458Y-4730963D02*
X13490315Y-5365963D01*
X13490315Y-5365963D02*
X13490315Y-4730963D01*
X13701982Y-4730963D02*
X14064839Y-4730963D01*
X13883410Y-5365963D02*
X13883410Y-4730963D01*
X376874Y-6762963D02*
X376874Y-6127963D01*
X649017Y-6732725D02*
X739731Y-6762963D01*
X739731Y-6762963D02*
X890922Y-6762963D01*
X890922Y-6762963D02*
X951398Y-6732725D01*
X951398Y-6732725D02*
X981636Y-6702486D01*
X981636Y-6702486D02*
X1011874Y-6642010D01*
X1011874Y-6642010D02*
X1011874Y-6581534D01*
X1011874Y-6581534D02*
X981636Y-6521058D01*
X981636Y-6521058D02*
X951398Y-6490820D01*
X951398Y-6490820D02*
X890922Y-6460582D01*
X890922Y-6460582D02*
X769969Y-6430344D01*
X769969Y-6430344D02*
X709493Y-6400105D01*
X709493Y-6400105D02*
X679255Y-6369867D01*
X679255Y-6369867D02*
X649017Y-6309391D01*
X649017Y-6309391D02*
X649017Y-6248915D01*
X649017Y-6248915D02*
X679255Y-6188439D01*
X679255Y-6188439D02*
X709493Y-6158201D01*
X709493Y-6158201D02*
X769969Y-6127963D01*
X769969Y-6127963D02*
X921160Y-6127963D01*
X921160Y-6127963D02*
X1011874Y-6158201D01*
X1284017Y-6762963D02*
X1284017Y-6127963D01*
X1284017Y-6127963D02*
X1435207Y-6127963D01*
X1435207Y-6127963D02*
X1525922Y-6158201D01*
X1525922Y-6158201D02*
X1586398Y-6218677D01*
X1586398Y-6218677D02*
X1616636Y-6279153D01*
X1616636Y-6279153D02*
X1646874Y-6400105D01*
X1646874Y-6400105D02*
X1646874Y-6490820D01*
X1646874Y-6490820D02*
X1616636Y-6611772D01*
X1616636Y-6611772D02*
X1586398Y-6672248D01*
X1586398Y-6672248D02*
X1525922Y-6732725D01*
X1525922Y-6732725D02*
X1435207Y-6762963D01*
X1435207Y-6762963D02*
X1284017Y-6762963D01*
X2281874Y-6702486D02*
X2251636Y-6732725D01*
X2251636Y-6732725D02*
X2160922Y-6762963D01*
X2160922Y-6762963D02*
X2100446Y-6762963D01*
X2100446Y-6762963D02*
X2009731Y-6732725D01*
X2009731Y-6732725D02*
X1949255Y-6672248D01*
X1949255Y-6672248D02*
X1919017Y-6611772D01*
X1919017Y-6611772D02*
X1888779Y-6490820D01*
X1888779Y-6490820D02*
X1888779Y-6400105D01*
X1888779Y-6400105D02*
X1919017Y-6279153D01*
X1919017Y-6279153D02*
X1949255Y-6218677D01*
X1949255Y-6218677D02*
X2009731Y-6158201D01*
X2009731Y-6158201D02*
X2100446Y-6127963D01*
X2100446Y-6127963D02*
X2160922Y-6127963D01*
X2160922Y-6127963D02*
X2251636Y-6158201D01*
X2251636Y-6158201D02*
X2281874Y-6188439D01*
X12347315Y-12653344D02*
X12558982Y-12653344D01*
X12649696Y-12985963D02*
X12347315Y-12985963D01*
X12347315Y-12985963D02*
X12347315Y-12350963D01*
X12347315Y-12350963D02*
X12649696Y-12350963D01*
X12921839Y-12562629D02*
X12921839Y-12985963D01*
X12921839Y-12623105D02*
X12952077Y-12592867D01*
X12952077Y-12592867D02*
X13012553Y-12562629D01*
X13012553Y-12562629D02*
X13103268Y-12562629D01*
X13103268Y-12562629D02*
X13163744Y-12592867D01*
X13163744Y-12592867D02*
X13193982Y-12653344D01*
X13193982Y-12653344D02*
X13193982Y-12985963D01*
X13496363Y-12985963D02*
X13496363Y-12350963D01*
X13496363Y-12592867D02*
X13556839Y-12562629D01*
X13556839Y-12562629D02*
X13677792Y-12562629D01*
X13677792Y-12562629D02*
X13738268Y-12592867D01*
X13738268Y-12592867D02*
X13768506Y-12623105D01*
X13768506Y-12623105D02*
X13798744Y-12683582D01*
X13798744Y-12683582D02*
X13798744Y-12865010D01*
X13798744Y-12865010D02*
X13768506Y-12925486D01*
X13768506Y-12925486D02*
X13738268Y-12955725D01*
X13738268Y-12955725D02*
X13677792Y-12985963D01*
X13677792Y-12985963D02*
X13556839Y-12985963D01*
X13556839Y-12985963D02*
X13496363Y-12955725D01*
X14161601Y-12985963D02*
X14101125Y-12955725D01*
X14101125Y-12955725D02*
X14070887Y-12895248D01*
X14070887Y-12895248D02*
X14070887Y-12350963D01*
X1265874Y-35845963D02*
X1265874Y-35210963D01*
X1265874Y-35210963D02*
X1417064Y-35210963D01*
X1417064Y-35210963D02*
X1507779Y-35241201D01*
X1507779Y-35241201D02*
X1568255Y-35301677D01*
X1568255Y-35301677D02*
X1598493Y-35362153D01*
X1598493Y-35362153D02*
X1628731Y-35483105D01*
X1628731Y-35483105D02*
X1628731Y-35573820D01*
X1628731Y-35573820D02*
X1598493Y-35694772D01*
X1598493Y-35694772D02*
X1568255Y-35755248D01*
X1568255Y-35755248D02*
X1507779Y-35815725D01*
X1507779Y-35815725D02*
X1417064Y-35845963D01*
X1417064Y-35845963D02*
X1265874Y-35845963D01*
X2233493Y-35845963D02*
X1870636Y-35845963D01*
X2052064Y-35845963D02*
X2052064Y-35210963D01*
X2052064Y-35210963D02*
X1991588Y-35301677D01*
X1991588Y-35301677D02*
X1931112Y-35362153D01*
X1931112Y-35362153D02*
X1870636Y-35392391D01*
X12825077Y-7905963D02*
X12825077Y-7270963D01*
X13127458Y-7905963D02*
X13127458Y-7270963D01*
X13127458Y-7270963D02*
X13490315Y-7905963D01*
X13490315Y-7905963D02*
X13490315Y-7270963D01*
X13701982Y-7270963D02*
X14064839Y-7270963D01*
X13883410Y-7905963D02*
X13883410Y-7270963D01*
X12737387Y-7094675D02*
X14061816Y-7094675D01*
X1265874Y-38385963D02*
X1265874Y-37750963D01*
X1265874Y-37750963D02*
X1417064Y-37750963D01*
X1417064Y-37750963D02*
X1507779Y-37781201D01*
X1507779Y-37781201D02*
X1568255Y-37841677D01*
X1568255Y-37841677D02*
X1598493Y-37902153D01*
X1598493Y-37902153D02*
X1628731Y-38023105D01*
X1628731Y-38023105D02*
X1628731Y-38113820D01*
X1628731Y-38113820D02*
X1598493Y-38234772D01*
X1598493Y-38234772D02*
X1568255Y-38295248D01*
X1568255Y-38295248D02*
X1507779Y-38355725D01*
X1507779Y-38355725D02*
X1417064Y-38385963D01*
X1417064Y-38385963D02*
X1265874Y-38385963D01*
X2021826Y-37750963D02*
X2082303Y-37750963D01*
X2082303Y-37750963D02*
X2142779Y-37781201D01*
X2142779Y-37781201D02*
X2173017Y-37811439D01*
X2173017Y-37811439D02*
X2203255Y-37871915D01*
X2203255Y-37871915D02*
X2233493Y-37992867D01*
X2233493Y-37992867D02*
X2233493Y-38144058D01*
X2233493Y-38144058D02*
X2203255Y-38265010D01*
X2203255Y-38265010D02*
X2173017Y-38325486D01*
X2173017Y-38325486D02*
X2142779Y-38355725D01*
X2142779Y-38355725D02*
X2082303Y-38385963D01*
X2082303Y-38385963D02*
X2021826Y-38385963D01*
X2021826Y-38385963D02*
X1961350Y-38355725D01*
X1961350Y-38355725D02*
X1931112Y-38325486D01*
X1931112Y-38325486D02*
X1900874Y-38265010D01*
X1900874Y-38265010D02*
X1870636Y-38144058D01*
X1870636Y-38144058D02*
X1870636Y-37992867D01*
X1870636Y-37992867D02*
X1900874Y-37871915D01*
X1900874Y-37871915D02*
X1931112Y-37811439D01*
X1931112Y-37811439D02*
X1961350Y-37781201D01*
X1961350Y-37781201D02*
X2021826Y-37750963D01*
X13339125Y-35513344D02*
X13127458Y-35513344D01*
X13127458Y-35845963D02*
X13127458Y-35210963D01*
X13127458Y-35210963D02*
X13429839Y-35210963D01*
X13792696Y-35210963D02*
X13853173Y-35210963D01*
X13853173Y-35210963D02*
X13913649Y-35241201D01*
X13913649Y-35241201D02*
X13943887Y-35271439D01*
X13943887Y-35271439D02*
X13974125Y-35331915D01*
X13974125Y-35331915D02*
X14004363Y-35452867D01*
X14004363Y-35452867D02*
X14004363Y-35604058D01*
X14004363Y-35604058D02*
X13974125Y-35725010D01*
X13974125Y-35725010D02*
X13943887Y-35785486D01*
X13943887Y-35785486D02*
X13913649Y-35815725D01*
X13913649Y-35815725D02*
X13853173Y-35845963D01*
X13853173Y-35845963D02*
X13792696Y-35845963D01*
X13792696Y-35845963D02*
X13732220Y-35815725D01*
X13732220Y-35815725D02*
X13701982Y-35785486D01*
X13701982Y-35785486D02*
X13671744Y-35725010D01*
X13671744Y-35725010D02*
X13641506Y-35604058D01*
X13641506Y-35604058D02*
X13641506Y-35452867D01*
X13641506Y-35452867D02*
X13671744Y-35331915D01*
X13671744Y-35331915D02*
X13701982Y-35271439D01*
X13701982Y-35271439D02*
X13732220Y-35241201D01*
X13732220Y-35241201D02*
X13792696Y-35210963D01*
X1344493Y-27621201D02*
X1284017Y-27590963D01*
X1284017Y-27590963D02*
X1193303Y-27590963D01*
X1193303Y-27590963D02*
X1102588Y-27621201D01*
X1102588Y-27621201D02*
X1042112Y-27681677D01*
X1042112Y-27681677D02*
X1011874Y-27742153D01*
X1011874Y-27742153D02*
X981636Y-27863105D01*
X981636Y-27863105D02*
X981636Y-27953820D01*
X981636Y-27953820D02*
X1011874Y-28074772D01*
X1011874Y-28074772D02*
X1042112Y-28135248D01*
X1042112Y-28135248D02*
X1102588Y-28195725D01*
X1102588Y-28195725D02*
X1193303Y-28225963D01*
X1193303Y-28225963D02*
X1253779Y-28225963D01*
X1253779Y-28225963D02*
X1344493Y-28195725D01*
X1344493Y-28195725D02*
X1374731Y-28165486D01*
X1374731Y-28165486D02*
X1374731Y-27953820D01*
X1374731Y-27953820D02*
X1253779Y-27953820D01*
X1646874Y-28225963D02*
X1646874Y-27590963D01*
X1646874Y-27590963D02*
X2009731Y-28225963D01*
X2009731Y-28225963D02*
X2009731Y-27590963D01*
X2312112Y-28225963D02*
X2312112Y-27590963D01*
X2312112Y-27590963D02*
X2463302Y-27590963D01*
X2463302Y-27590963D02*
X2554017Y-27621201D01*
X2554017Y-27621201D02*
X2614493Y-27681677D01*
X2614493Y-27681677D02*
X2644731Y-27742153D01*
X2644731Y-27742153D02*
X2674969Y-27863105D01*
X2674969Y-27863105D02*
X2674969Y-27953820D01*
X2674969Y-27953820D02*
X2644731Y-28074772D01*
X2644731Y-28074772D02*
X2614493Y-28135248D01*
X2614493Y-28135248D02*
X2554017Y-28195725D01*
X2554017Y-28195725D02*
X2463302Y-28225963D01*
X2463302Y-28225963D02*
X2312112Y-28225963D01*
X13466125Y-27240201D02*
X13405649Y-27209963D01*
X13405649Y-27209963D02*
X13314935Y-27209963D01*
X13314935Y-27209963D02*
X13224220Y-27240201D01*
X13224220Y-27240201D02*
X13163744Y-27300677D01*
X13163744Y-27300677D02*
X13133506Y-27361153D01*
X13133506Y-27361153D02*
X13103268Y-27482105D01*
X13103268Y-27482105D02*
X13103268Y-27572820D01*
X13103268Y-27572820D02*
X13133506Y-27693772D01*
X13133506Y-27693772D02*
X13163744Y-27754248D01*
X13163744Y-27754248D02*
X13224220Y-27814725D01*
X13224220Y-27814725D02*
X13314935Y-27844963D01*
X13314935Y-27844963D02*
X13375411Y-27844963D01*
X13375411Y-27844963D02*
X13466125Y-27814725D01*
X13466125Y-27814725D02*
X13496363Y-27784486D01*
X13496363Y-27784486D02*
X13496363Y-27572820D01*
X13496363Y-27572820D02*
X13375411Y-27572820D01*
X13768506Y-27844963D02*
X13768506Y-27209963D01*
X13768506Y-27209963D02*
X13919696Y-27209963D01*
X13919696Y-27209963D02*
X14010411Y-27240201D01*
X14010411Y-27240201D02*
X14070887Y-27300677D01*
X14070887Y-27300677D02*
X14101125Y-27361153D01*
X14101125Y-27361153D02*
X14131363Y-27482105D01*
X14131363Y-27482105D02*
X14131363Y-27572820D01*
X14131363Y-27572820D02*
X14101125Y-27693772D01*
X14101125Y-27693772D02*
X14070887Y-27754248D01*
X14070887Y-27754248D02*
X14010411Y-27814725D01*
X14010411Y-27814725D02*
X13919696Y-27844963D01*
X13919696Y-27844963D02*
X13768506Y-27844963D01*
X13429839Y-37750963D02*
X13127458Y-37750963D01*
X13127458Y-37750963D02*
X13097220Y-38053344D01*
X13097220Y-38053344D02*
X13127458Y-38023105D01*
X13127458Y-38023105D02*
X13187934Y-37992867D01*
X13187934Y-37992867D02*
X13339125Y-37992867D01*
X13339125Y-37992867D02*
X13399601Y-38023105D01*
X13399601Y-38023105D02*
X13429839Y-38053344D01*
X13429839Y-38053344D02*
X13460077Y-38113820D01*
X13460077Y-38113820D02*
X13460077Y-38265010D01*
X13460077Y-38265010D02*
X13429839Y-38325486D01*
X13429839Y-38325486D02*
X13399601Y-38355725D01*
X13399601Y-38355725D02*
X13339125Y-38385963D01*
X13339125Y-38385963D02*
X13187934Y-38385963D01*
X13187934Y-38385963D02*
X13127458Y-38355725D01*
X13127458Y-38355725D02*
X13097220Y-38325486D01*
X13641506Y-37750963D02*
X13853172Y-38385963D01*
X13853172Y-38385963D02*
X14064839Y-37750963D01*
X8076595Y-4222963D02*
X8016119Y-4343915D01*
X8681357Y-4857963D02*
X8318500Y-4857963D01*
X8499928Y-4857963D02*
X8499928Y-4222963D01*
X8499928Y-4222963D02*
X8439452Y-4313677D01*
X8439452Y-4313677D02*
X8378976Y-4374153D01*
X8378976Y-4374153D02*
X8318500Y-4404391D01*
X9286119Y-4253201D02*
X9225643Y-4222963D01*
X9225643Y-4222963D02*
X9134929Y-4222963D01*
X9134929Y-4222963D02*
X9044214Y-4253201D01*
X9044214Y-4253201D02*
X8983738Y-4313677D01*
X8983738Y-4313677D02*
X8953500Y-4374153D01*
X8953500Y-4374153D02*
X8923262Y-4495105D01*
X8923262Y-4495105D02*
X8923262Y-4585820D01*
X8923262Y-4585820D02*
X8953500Y-4706772D01*
X8953500Y-4706772D02*
X8983738Y-4767248D01*
X8983738Y-4767248D02*
X9044214Y-4827725D01*
X9044214Y-4827725D02*
X9134929Y-4857963D01*
X9134929Y-4857963D02*
X9195405Y-4857963D01*
X9195405Y-4857963D02*
X9286119Y-4827725D01*
X9286119Y-4827725D02*
X9316357Y-4797486D01*
X9316357Y-4797486D02*
X9316357Y-4585820D01*
X9316357Y-4585820D02*
X9195405Y-4585820D01*
X9921119Y-4857963D02*
X9558262Y-4857963D01*
X9739690Y-4857963D02*
X9739690Y-4222963D01*
X9739690Y-4222963D02*
X9679214Y-4313677D01*
X9679214Y-4313677D02*
X9618738Y-4374153D01*
X9618738Y-4374153D02*
X9558262Y-4404391D01*
X10525881Y-4857963D02*
X10163024Y-4857963D01*
X10344452Y-4857963D02*
X10344452Y-4222963D01*
X10344452Y-4222963D02*
X10283976Y-4313677D01*
X10283976Y-4313677D02*
X10223500Y-4374153D01*
X10223500Y-4374153D02*
X10163024Y-4404391D01*
X11297166Y-22239486D02*
X11266928Y-22269725D01*
X11266928Y-22269725D02*
X11176214Y-22299963D01*
X11176214Y-22299963D02*
X11115738Y-22299963D01*
X11115738Y-22299963D02*
X11025023Y-22269725D01*
X11025023Y-22269725D02*
X10964547Y-22209248D01*
X10964547Y-22209248D02*
X10934309Y-22148772D01*
X10934309Y-22148772D02*
X10904071Y-22027820D01*
X10904071Y-22027820D02*
X10904071Y-21937105D01*
X10904071Y-21937105D02*
X10934309Y-21816153D01*
X10934309Y-21816153D02*
X10964547Y-21755677D01*
X10964547Y-21755677D02*
X11025023Y-21695201D01*
X11025023Y-21695201D02*
X11115738Y-21664963D01*
X11115738Y-21664963D02*
X11176214Y-21664963D01*
X11176214Y-21664963D02*
X11266928Y-21695201D01*
X11266928Y-21695201D02*
X11297166Y-21725439D01*
X11660023Y-21937105D02*
X11599547Y-21906867D01*
X11599547Y-21906867D02*
X11569309Y-21876629D01*
X11569309Y-21876629D02*
X11539071Y-21816153D01*
X11539071Y-21816153D02*
X11539071Y-21785915D01*
X11539071Y-21785915D02*
X11569309Y-21725439D01*
X11569309Y-21725439D02*
X11599547Y-21695201D01*
X11599547Y-21695201D02*
X11660023Y-21664963D01*
X11660023Y-21664963D02*
X11780976Y-21664963D01*
X11780976Y-21664963D02*
X11841452Y-21695201D01*
X11841452Y-21695201D02*
X11871690Y-21725439D01*
X11871690Y-21725439D02*
X11901928Y-21785915D01*
X11901928Y-21785915D02*
X11901928Y-21816153D01*
X11901928Y-21816153D02*
X11871690Y-21876629D01*
X11871690Y-21876629D02*
X11841452Y-21906867D01*
X11841452Y-21906867D02*
X11780976Y-21937105D01*
X11780976Y-21937105D02*
X11660023Y-21937105D01*
X11660023Y-21937105D02*
X11599547Y-21967344D01*
X11599547Y-21967344D02*
X11569309Y-21997582D01*
X11569309Y-21997582D02*
X11539071Y-22058058D01*
X11539071Y-22058058D02*
X11539071Y-22179010D01*
X11539071Y-22179010D02*
X11569309Y-22239486D01*
X11569309Y-22239486D02*
X11599547Y-22269725D01*
X11599547Y-22269725D02*
X11660023Y-22299963D01*
X11660023Y-22299963D02*
X11780976Y-22299963D01*
X11780976Y-22299963D02*
X11841452Y-22269725D01*
X11841452Y-22269725D02*
X11871690Y-22239486D01*
X11871690Y-22239486D02*
X11901928Y-22179010D01*
X11901928Y-22179010D02*
X11901928Y-22058058D01*
X11901928Y-22058058D02*
X11871690Y-21997582D01*
X11871690Y-21997582D02*
X11841452Y-21967344D01*
X11841452Y-21967344D02*
X11780976Y-21937105D01*
X11006666Y-18192963D02*
X10643809Y-18192963D01*
X10825237Y-18192963D02*
X10825237Y-17557963D01*
X10825237Y-17557963D02*
X10764761Y-17648677D01*
X10764761Y-17648677D02*
X10704285Y-17709153D01*
X10704285Y-17709153D02*
X10643809Y-17739391D01*
X11278809Y-17769629D02*
X11278809Y-18404629D01*
X11581190Y-18102248D02*
X11611428Y-18162725D01*
X11611428Y-18162725D02*
X11671904Y-18192963D01*
X11278809Y-18102248D02*
X11309047Y-18162725D01*
X11309047Y-18162725D02*
X11369523Y-18192963D01*
X11369523Y-18192963D02*
X11490476Y-18192963D01*
X11490476Y-18192963D02*
X11550952Y-18162725D01*
X11550952Y-18162725D02*
X11581190Y-18102248D01*
X11581190Y-18102248D02*
X11581190Y-17769629D01*
X12155714Y-17860344D02*
X11944047Y-17860344D01*
X11944047Y-18192963D02*
X11944047Y-17557963D01*
X11944047Y-17557963D02*
X12246428Y-17557963D01*
X4481285Y-40163963D02*
X4118428Y-40163963D01*
X4299856Y-40163963D02*
X4299856Y-39528963D01*
X4299856Y-39528963D02*
X4239380Y-39619677D01*
X4239380Y-39619677D02*
X4178904Y-39680153D01*
X4178904Y-39680153D02*
X4118428Y-39710391D01*
X4874380Y-39528963D02*
X4934857Y-39528963D01*
X4934857Y-39528963D02*
X4995333Y-39559201D01*
X4995333Y-39559201D02*
X5025571Y-39589439D01*
X5025571Y-39589439D02*
X5055809Y-39649915D01*
X5055809Y-39649915D02*
X5086047Y-39770867D01*
X5086047Y-39770867D02*
X5086047Y-39922058D01*
X5086047Y-39922058D02*
X5055809Y-40043010D01*
X5055809Y-40043010D02*
X5025571Y-40103486D01*
X5025571Y-40103486D02*
X4995333Y-40133725D01*
X4995333Y-40133725D02*
X4934857Y-40163963D01*
X4934857Y-40163963D02*
X4874380Y-40163963D01*
X4874380Y-40163963D02*
X4813904Y-40133725D01*
X4813904Y-40133725D02*
X4783666Y-40103486D01*
X4783666Y-40103486D02*
X4753428Y-40043010D01*
X4753428Y-40043010D02*
X4723190Y-39922058D01*
X4723190Y-39922058D02*
X4723190Y-39770867D01*
X4723190Y-39770867D02*
X4753428Y-39649915D01*
X4753428Y-39649915D02*
X4783666Y-39589439D01*
X4783666Y-39589439D02*
X4813904Y-39559201D01*
X4813904Y-39559201D02*
X4874380Y-39528963D01*
X5358190Y-39740629D02*
X5358190Y-40375629D01*
X5660571Y-40073248D02*
X5690809Y-40133725D01*
X5690809Y-40133725D02*
X5751285Y-40163963D01*
X5358190Y-40073248D02*
X5388428Y-40133725D01*
X5388428Y-40133725D02*
X5448904Y-40163963D01*
X5448904Y-40163963D02*
X5569857Y-40163963D01*
X5569857Y-40163963D02*
X5630333Y-40133725D01*
X5630333Y-40133725D02*
X5660571Y-40073248D01*
X5660571Y-40073248D02*
X5660571Y-39740629D01*
X6235095Y-39831344D02*
X6023428Y-39831344D01*
X6023428Y-40163963D02*
X6023428Y-39528963D01*
X6023428Y-39528963D02*
X6325809Y-39528963D01*
X5222119Y476036D02*
X5222119Y1111036D01*
X5887357Y536513D02*
X5857119Y506275D01*
X5857119Y506275D02*
X5766405Y476036D01*
X5766405Y476036D02*
X5705929Y476036D01*
X5705929Y476036D02*
X5615214Y506275D01*
X5615214Y506275D02*
X5554738Y566751D01*
X5554738Y566751D02*
X5524500Y627227D01*
X5524500Y627227D02*
X5494262Y748179D01*
X5494262Y748179D02*
X5494262Y838894D01*
X5494262Y838894D02*
X5524500Y959846D01*
X5524500Y959846D02*
X5554738Y1020322D01*
X5554738Y1020322D02*
X5615214Y1080798D01*
X5615214Y1080798D02*
X5705929Y1111036D01*
X5705929Y1111036D02*
X5766405Y1111036D01*
X5766405Y1111036D02*
X5857119Y1080798D01*
X5857119Y1080798D02*
X5887357Y1050560D01*
X6099024Y1111036D02*
X6492119Y1111036D01*
X6492119Y1111036D02*
X6280452Y869132D01*
X6280452Y869132D02*
X6371167Y869132D01*
X6371167Y869132D02*
X6431643Y838894D01*
X6431643Y838894D02*
X6461881Y808655D01*
X6461881Y808655D02*
X6492119Y748179D01*
X6492119Y748179D02*
X6492119Y596989D01*
X6492119Y596989D02*
X6461881Y536513D01*
X6461881Y536513D02*
X6431643Y506275D01*
X6431643Y506275D02*
X6371167Y476036D01*
X6371167Y476036D02*
X6189738Y476036D01*
X6189738Y476036D02*
X6129262Y506275D01*
X6129262Y506275D02*
X6099024Y536513D01*
X3876523Y-4095963D02*
X4299856Y-4095963D01*
X4299856Y-4095963D02*
X4027713Y-4730963D01*
X4813904Y-4307629D02*
X4813904Y-4730963D01*
X4662713Y-4065725D02*
X4511523Y-4519296D01*
X4511523Y-4519296D02*
X4904618Y-4519296D01*
X5448904Y-4730963D02*
X5146523Y-4730963D01*
X5146523Y-4730963D02*
X5146523Y-4095963D01*
X5569857Y-4095963D02*
X5781523Y-4730963D01*
X5781523Y-4730963D02*
X5993190Y-4095963D01*
X6567714Y-4670486D02*
X6537476Y-4700725D01*
X6537476Y-4700725D02*
X6446762Y-4730963D01*
X6446762Y-4730963D02*
X6386286Y-4730963D01*
X6386286Y-4730963D02*
X6295571Y-4700725D01*
X6295571Y-4700725D02*
X6235095Y-4640248D01*
X6235095Y-4640248D02*
X6204857Y-4579772D01*
X6204857Y-4579772D02*
X6174619Y-4458820D01*
X6174619Y-4458820D02*
X6174619Y-4368105D01*
X6174619Y-4368105D02*
X6204857Y-4247153D01*
X6204857Y-4247153D02*
X6235095Y-4186677D01*
X6235095Y-4186677D02*
X6295571Y-4126201D01*
X6295571Y-4126201D02*
X6386286Y-4095963D01*
X6386286Y-4095963D02*
X6446762Y-4095963D01*
X6446762Y-4095963D02*
X6537476Y-4126201D01*
X6537476Y-4126201D02*
X6567714Y-4156439D01*
X6960809Y-4095963D02*
X7021286Y-4095963D01*
X7021286Y-4095963D02*
X7081762Y-4126201D01*
X7081762Y-4126201D02*
X7112000Y-4156439D01*
X7112000Y-4156439D02*
X7142238Y-4216915D01*
X7142238Y-4216915D02*
X7172476Y-4337867D01*
X7172476Y-4337867D02*
X7172476Y-4489058D01*
X7172476Y-4489058D02*
X7142238Y-4610010D01*
X7142238Y-4610010D02*
X7112000Y-4670486D01*
X7112000Y-4670486D02*
X7081762Y-4700725D01*
X7081762Y-4700725D02*
X7021286Y-4730963D01*
X7021286Y-4730963D02*
X6960809Y-4730963D01*
X6960809Y-4730963D02*
X6900333Y-4700725D01*
X6900333Y-4700725D02*
X6870095Y-4670486D01*
X6870095Y-4670486D02*
X6839857Y-4610010D01*
X6839857Y-4610010D02*
X6809619Y-4489058D01*
X6809619Y-4489058D02*
X6809619Y-4337867D01*
X6809619Y-4337867D02*
X6839857Y-4216915D01*
X6839857Y-4216915D02*
X6870095Y-4156439D01*
X6870095Y-4156439D02*
X6900333Y-4126201D01*
X6900333Y-4126201D02*
X6960809Y-4095963D01*
X7716762Y-4307629D02*
X7716762Y-4730963D01*
X7565571Y-4065725D02*
X7414381Y-4519296D01*
X7414381Y-4519296D02*
X7807476Y-4519296D01*
X10879666Y-9048963D02*
X10516809Y-9048963D01*
X10698237Y-9048963D02*
X10698237Y-8413963D01*
X10698237Y-8413963D02*
X10637761Y-8504677D01*
X10637761Y-8504677D02*
X10577285Y-8565153D01*
X10577285Y-8565153D02*
X10516809Y-8595391D01*
X11151809Y-8625629D02*
X11151809Y-9260629D01*
X11454190Y-8958248D02*
X11484428Y-9018725D01*
X11484428Y-9018725D02*
X11544904Y-9048963D01*
X11151809Y-8958248D02*
X11182047Y-9018725D01*
X11182047Y-9018725D02*
X11242523Y-9048963D01*
X11242523Y-9048963D02*
X11363476Y-9048963D01*
X11363476Y-9048963D02*
X11423952Y-9018725D01*
X11423952Y-9018725D02*
X11454190Y-8958248D01*
X11454190Y-8958248D02*
X11454190Y-8625629D01*
X12028714Y-8716344D02*
X11817047Y-8716344D01*
X11817047Y-9048963D02*
X11817047Y-8413963D01*
X11817047Y-8413963D02*
X12119428Y-8413963D01*
X11986166Y-36073486D02*
X11955928Y-36103725D01*
X11955928Y-36103725D02*
X11865214Y-36133963D01*
X11865214Y-36133963D02*
X11804738Y-36133963D01*
X11804738Y-36133963D02*
X11714023Y-36103725D01*
X11714023Y-36103725D02*
X11653547Y-36043248D01*
X11653547Y-36043248D02*
X11623309Y-35982772D01*
X11623309Y-35982772D02*
X11593071Y-35861820D01*
X11593071Y-35861820D02*
X11593071Y-35771105D01*
X11593071Y-35771105D02*
X11623309Y-35650153D01*
X11623309Y-35650153D02*
X11653547Y-35589677D01*
X11653547Y-35589677D02*
X11714023Y-35529201D01*
X11714023Y-35529201D02*
X11804738Y-35498963D01*
X11804738Y-35498963D02*
X11865214Y-35498963D01*
X11865214Y-35498963D02*
X11955928Y-35529201D01*
X11955928Y-35529201D02*
X11986166Y-35559439D01*
X12530452Y-35710629D02*
X12530452Y-36133963D01*
X12379261Y-35468725D02*
X12228071Y-35922296D01*
X12228071Y-35922296D02*
X12621166Y-35922296D01*
X10958285Y-40163963D02*
X10595428Y-40163963D01*
X10776856Y-40163963D02*
X10776856Y-39528963D01*
X10776856Y-39528963D02*
X10716380Y-39619677D01*
X10716380Y-39619677D02*
X10655904Y-39680153D01*
X10655904Y-39680153D02*
X10595428Y-39710391D01*
X11351380Y-39528963D02*
X11411857Y-39528963D01*
X11411857Y-39528963D02*
X11472333Y-39559201D01*
X11472333Y-39559201D02*
X11502571Y-39589439D01*
X11502571Y-39589439D02*
X11532809Y-39649915D01*
X11532809Y-39649915D02*
X11563047Y-39770867D01*
X11563047Y-39770867D02*
X11563047Y-39922058D01*
X11563047Y-39922058D02*
X11532809Y-40043010D01*
X11532809Y-40043010D02*
X11502571Y-40103486D01*
X11502571Y-40103486D02*
X11472333Y-40133725D01*
X11472333Y-40133725D02*
X11411857Y-40163963D01*
X11411857Y-40163963D02*
X11351380Y-40163963D01*
X11351380Y-40163963D02*
X11290904Y-40133725D01*
X11290904Y-40133725D02*
X11260666Y-40103486D01*
X11260666Y-40103486D02*
X11230428Y-40043010D01*
X11230428Y-40043010D02*
X11200190Y-39922058D01*
X11200190Y-39922058D02*
X11200190Y-39770867D01*
X11200190Y-39770867D02*
X11230428Y-39649915D01*
X11230428Y-39649915D02*
X11260666Y-39589439D01*
X11260666Y-39589439D02*
X11290904Y-39559201D01*
X11290904Y-39559201D02*
X11351380Y-39528963D01*
X11835190Y-39740629D02*
X11835190Y-40375629D01*
X12137571Y-40073248D02*
X12167809Y-40133725D01*
X12167809Y-40133725D02*
X12228285Y-40163963D01*
X11835190Y-40073248D02*
X11865428Y-40133725D01*
X11865428Y-40133725D02*
X11925904Y-40163963D01*
X11925904Y-40163963D02*
X12046857Y-40163963D01*
X12046857Y-40163963D02*
X12107333Y-40133725D01*
X12107333Y-40133725D02*
X12137571Y-40073248D01*
X12137571Y-40073248D02*
X12137571Y-39740629D01*
X12712095Y-39831344D02*
X12500428Y-39831344D01*
X12500428Y-40163963D02*
X12500428Y-39528963D01*
X12500428Y-39528963D02*
X12802809Y-39528963D01*
X2751666Y-36861963D02*
X2388809Y-36861963D01*
X2570237Y-36861963D02*
X2570237Y-36226963D01*
X2570237Y-36226963D02*
X2509761Y-36317677D01*
X2509761Y-36317677D02*
X2449285Y-36378153D01*
X2449285Y-36378153D02*
X2388809Y-36408391D01*
X3023809Y-36438629D02*
X3023809Y-37073629D01*
X3326190Y-36771248D02*
X3356428Y-36831725D01*
X3356428Y-36831725D02*
X3416904Y-36861963D01*
X3023809Y-36771248D02*
X3054047Y-36831725D01*
X3054047Y-36831725D02*
X3114523Y-36861963D01*
X3114523Y-36861963D02*
X3235476Y-36861963D01*
X3235476Y-36861963D02*
X3295952Y-36831725D01*
X3295952Y-36831725D02*
X3326190Y-36771248D01*
X3326190Y-36771248D02*
X3326190Y-36438629D01*
X3900714Y-36529344D02*
X3689047Y-36529344D01*
X3689047Y-36861963D02*
X3689047Y-36226963D01*
X3689047Y-36226963D02*
X3991428Y-36226963D01*
X5840119Y-33432963D02*
X5840119Y-32797963D01*
X6505357Y-33372486D02*
X6475119Y-33402725D01*
X6475119Y-33402725D02*
X6384405Y-33432963D01*
X6384405Y-33432963D02*
X6323929Y-33432963D01*
X6323929Y-33432963D02*
X6233214Y-33402725D01*
X6233214Y-33402725D02*
X6172738Y-33342248D01*
X6172738Y-33342248D02*
X6142500Y-33281772D01*
X6142500Y-33281772D02*
X6112262Y-33160820D01*
X6112262Y-33160820D02*
X6112262Y-33070105D01*
X6112262Y-33070105D02*
X6142500Y-32949153D01*
X6142500Y-32949153D02*
X6172738Y-32888677D01*
X6172738Y-32888677D02*
X6233214Y-32828201D01*
X6233214Y-32828201D02*
X6323929Y-32797963D01*
X6323929Y-32797963D02*
X6384405Y-32797963D01*
X6384405Y-32797963D02*
X6475119Y-32828201D01*
X6475119Y-32828201D02*
X6505357Y-32858439D01*
X7049643Y-32797963D02*
X6928690Y-32797963D01*
X6928690Y-32797963D02*
X6868214Y-32828201D01*
X6868214Y-32828201D02*
X6837976Y-32858439D01*
X6837976Y-32858439D02*
X6777500Y-32949153D01*
X6777500Y-32949153D02*
X6747262Y-33070105D01*
X6747262Y-33070105D02*
X6747262Y-33312010D01*
X6747262Y-33312010D02*
X6777500Y-33372486D01*
X6777500Y-33372486D02*
X6807738Y-33402725D01*
X6807738Y-33402725D02*
X6868214Y-33432963D01*
X6868214Y-33432963D02*
X6989167Y-33432963D01*
X6989167Y-33432963D02*
X7049643Y-33402725D01*
X7049643Y-33402725D02*
X7079881Y-33372486D01*
X7079881Y-33372486D02*
X7110119Y-33312010D01*
X7110119Y-33312010D02*
X7110119Y-33160820D01*
X7110119Y-33160820D02*
X7079881Y-33100344D01*
X7079881Y-33100344D02*
X7049643Y-33070105D01*
X7049643Y-33070105D02*
X6989167Y-33039867D01*
X6989167Y-33039867D02*
X6868214Y-33039867D01*
X6868214Y-33039867D02*
X6807738Y-33070105D01*
X6807738Y-33070105D02*
X6777500Y-33100344D01*
X6777500Y-33100344D02*
X6747262Y-33160820D01*
X4192142Y-26193963D02*
X4615475Y-26193963D01*
X4615475Y-26193963D02*
X4343332Y-26828963D01*
X5129523Y-26405629D02*
X5129523Y-26828963D01*
X4978332Y-26163725D02*
X4827142Y-26617296D01*
X4827142Y-26617296D02*
X5220237Y-26617296D01*
X5764523Y-26828963D02*
X5462142Y-26828963D01*
X5462142Y-26828963D02*
X5462142Y-26193963D01*
X5885476Y-26193963D02*
X6097142Y-26828963D01*
X6097142Y-26828963D02*
X6308809Y-26193963D01*
X6883333Y-26768486D02*
X6853095Y-26798725D01*
X6853095Y-26798725D02*
X6762381Y-26828963D01*
X6762381Y-26828963D02*
X6701905Y-26828963D01*
X6701905Y-26828963D02*
X6611190Y-26798725D01*
X6611190Y-26798725D02*
X6550714Y-26738248D01*
X6550714Y-26738248D02*
X6520476Y-26677772D01*
X6520476Y-26677772D02*
X6490238Y-26556820D01*
X6490238Y-26556820D02*
X6490238Y-26466105D01*
X6490238Y-26466105D02*
X6520476Y-26345153D01*
X6520476Y-26345153D02*
X6550714Y-26284677D01*
X6550714Y-26284677D02*
X6611190Y-26224201D01*
X6611190Y-26224201D02*
X6701905Y-26193963D01*
X6701905Y-26193963D02*
X6762381Y-26193963D01*
X6762381Y-26193963D02*
X6853095Y-26224201D01*
X6853095Y-26224201D02*
X6883333Y-26254439D01*
X7457857Y-26193963D02*
X7155476Y-26193963D01*
X7155476Y-26193963D02*
X7125238Y-26496344D01*
X7125238Y-26496344D02*
X7155476Y-26466105D01*
X7155476Y-26466105D02*
X7215952Y-26435867D01*
X7215952Y-26435867D02*
X7367143Y-26435867D01*
X7367143Y-26435867D02*
X7427619Y-26466105D01*
X7427619Y-26466105D02*
X7457857Y-26496344D01*
X7457857Y-26496344D02*
X7488095Y-26556820D01*
X7488095Y-26556820D02*
X7488095Y-26708010D01*
X7488095Y-26708010D02*
X7457857Y-26768486D01*
X7457857Y-26768486D02*
X7427619Y-26798725D01*
X7427619Y-26798725D02*
X7367143Y-26828963D01*
X7367143Y-26828963D02*
X7215952Y-26828963D01*
X7215952Y-26828963D02*
X7155476Y-26798725D01*
X7155476Y-26798725D02*
X7125238Y-26768486D01*
X7699762Y-26193963D02*
X8123095Y-26193963D01*
X8123095Y-26193963D02*
X7850952Y-26828963D01*
X8304524Y-26193963D02*
X8697619Y-26193963D01*
X8697619Y-26193963D02*
X8485952Y-26435867D01*
X8485952Y-26435867D02*
X8576667Y-26435867D01*
X8576667Y-26435867D02*
X8637143Y-26466105D01*
X8637143Y-26466105D02*
X8667381Y-26496344D01*
X8667381Y-26496344D02*
X8697619Y-26556820D01*
X8697619Y-26556820D02*
X8697619Y-26708010D01*
X8697619Y-26708010D02*
X8667381Y-26768486D01*
X8667381Y-26768486D02*
X8637143Y-26798725D01*
X8637143Y-26798725D02*
X8576667Y-26828963D01*
X8576667Y-26828963D02*
X8395238Y-26828963D01*
X8395238Y-26828963D02*
X8334762Y-26798725D01*
X8334762Y-26798725D02*
X8304524Y-26768486D01*
X11133666Y1619036D02*
X10770809Y1619036D01*
X10952237Y1619036D02*
X10952237Y2254036D01*
X10952237Y2254036D02*
X10891761Y2163322D01*
X10891761Y2163322D02*
X10831285Y2102846D01*
X10831285Y2102846D02*
X10770809Y2072608D01*
X11405809Y2042370D02*
X11405809Y1407370D01*
X11708190Y1709751D02*
X11738428Y1649275D01*
X11738428Y1649275D02*
X11798904Y1619036D01*
X11405809Y1709751D02*
X11436047Y1649275D01*
X11436047Y1649275D02*
X11496523Y1619036D01*
X11496523Y1619036D02*
X11617476Y1619036D01*
X11617476Y1619036D02*
X11677952Y1649275D01*
X11677952Y1649275D02*
X11708190Y1709751D01*
X11708190Y1709751D02*
X11708190Y2042370D01*
X12282714Y1951655D02*
X12071047Y1951655D01*
X12071047Y1619036D02*
X12071047Y2254036D01*
X12071047Y2254036D02*
X12373428Y2254036D01*
X10735666Y-11715963D02*
X10372809Y-11715963D01*
X10554237Y-11715963D02*
X10554237Y-11080963D01*
X10554237Y-11080963D02*
X10493761Y-11171677D01*
X10493761Y-11171677D02*
X10433285Y-11232153D01*
X10433285Y-11232153D02*
X10372809Y-11262391D01*
X11007809Y-11292629D02*
X11007809Y-11927629D01*
X11310190Y-11625248D02*
X11340428Y-11685725D01*
X11340428Y-11685725D02*
X11400904Y-11715963D01*
X11007809Y-11625248D02*
X11038047Y-11685725D01*
X11038047Y-11685725D02*
X11098523Y-11715963D01*
X11098523Y-11715963D02*
X11219476Y-11715963D01*
X11219476Y-11715963D02*
X11279952Y-11685725D01*
X11279952Y-11685725D02*
X11310190Y-11625248D01*
X11310190Y-11625248D02*
X11310190Y-11292629D01*
X11884714Y-11383344D02*
X11673047Y-11383344D01*
X11673047Y-11715963D02*
X11673047Y-11080963D01*
X11673047Y-11080963D02*
X11975428Y-11080963D01*
X5586119Y-5858963D02*
X5586119Y-5223963D01*
X6251357Y-5798486D02*
X6221119Y-5828725D01*
X6221119Y-5828725D02*
X6130405Y-5858963D01*
X6130405Y-5858963D02*
X6069929Y-5858963D01*
X6069929Y-5858963D02*
X5979214Y-5828725D01*
X5979214Y-5828725D02*
X5918738Y-5768248D01*
X5918738Y-5768248D02*
X5888500Y-5707772D01*
X5888500Y-5707772D02*
X5858262Y-5586820D01*
X5858262Y-5586820D02*
X5858262Y-5496105D01*
X5858262Y-5496105D02*
X5888500Y-5375153D01*
X5888500Y-5375153D02*
X5918738Y-5314677D01*
X5918738Y-5314677D02*
X5979214Y-5254201D01*
X5979214Y-5254201D02*
X6069929Y-5223963D01*
X6069929Y-5223963D02*
X6130405Y-5223963D01*
X6130405Y-5223963D02*
X6221119Y-5254201D01*
X6221119Y-5254201D02*
X6251357Y-5284439D01*
X6493262Y-5284439D02*
X6523500Y-5254201D01*
X6523500Y-5254201D02*
X6583976Y-5223963D01*
X6583976Y-5223963D02*
X6735167Y-5223963D01*
X6735167Y-5223963D02*
X6795643Y-5254201D01*
X6795643Y-5254201D02*
X6825881Y-5284439D01*
X6825881Y-5284439D02*
X6856119Y-5344915D01*
X6856119Y-5344915D02*
X6856119Y-5405391D01*
X6856119Y-5405391D02*
X6825881Y-5496105D01*
X6825881Y-5496105D02*
X6463024Y-5858963D01*
X6463024Y-5858963D02*
X6856119Y-5858963D01*
X4240523Y-10430963D02*
X4663856Y-10430963D01*
X4663856Y-10430963D02*
X4391713Y-11065963D01*
X5177904Y-10642629D02*
X5177904Y-11065963D01*
X5026713Y-10400725D02*
X4875523Y-10854296D01*
X4875523Y-10854296D02*
X5268618Y-10854296D01*
X5812904Y-11065963D02*
X5510523Y-11065963D01*
X5510523Y-11065963D02*
X5510523Y-10430963D01*
X5933857Y-10430963D02*
X6145523Y-11065963D01*
X6145523Y-11065963D02*
X6357190Y-10430963D01*
X6931714Y-11005486D02*
X6901476Y-11035725D01*
X6901476Y-11035725D02*
X6810762Y-11065963D01*
X6810762Y-11065963D02*
X6750286Y-11065963D01*
X6750286Y-11065963D02*
X6659571Y-11035725D01*
X6659571Y-11035725D02*
X6599095Y-10975248D01*
X6599095Y-10975248D02*
X6568857Y-10914772D01*
X6568857Y-10914772D02*
X6538619Y-10793820D01*
X6538619Y-10793820D02*
X6538619Y-10703105D01*
X6538619Y-10703105D02*
X6568857Y-10582153D01*
X6568857Y-10582153D02*
X6599095Y-10521677D01*
X6599095Y-10521677D02*
X6659571Y-10461201D01*
X6659571Y-10461201D02*
X6750286Y-10430963D01*
X6750286Y-10430963D02*
X6810762Y-10430963D01*
X6810762Y-10430963D02*
X6901476Y-10461201D01*
X6901476Y-10461201D02*
X6931714Y-10491439D01*
X7143381Y-10430963D02*
X7566714Y-10430963D01*
X7566714Y-10430963D02*
X7294571Y-11065963D01*
X8080762Y-10642629D02*
X8080762Y-11065963D01*
X7929571Y-10400725D02*
X7778381Y-10854296D01*
X7778381Y-10854296D02*
X8171476Y-10854296D01*
X6492119Y-38208963D02*
X6492119Y-37573963D01*
X7157357Y-38148486D02*
X7127119Y-38178725D01*
X7127119Y-38178725D02*
X7036405Y-38208963D01*
X7036405Y-38208963D02*
X6975929Y-38208963D01*
X6975929Y-38208963D02*
X6885214Y-38178725D01*
X6885214Y-38178725D02*
X6824738Y-38118248D01*
X6824738Y-38118248D02*
X6794500Y-38057772D01*
X6794500Y-38057772D02*
X6764262Y-37936820D01*
X6764262Y-37936820D02*
X6764262Y-37846105D01*
X6764262Y-37846105D02*
X6794500Y-37725153D01*
X6794500Y-37725153D02*
X6824738Y-37664677D01*
X6824738Y-37664677D02*
X6885214Y-37604201D01*
X6885214Y-37604201D02*
X6975929Y-37573963D01*
X6975929Y-37573963D02*
X7036405Y-37573963D01*
X7036405Y-37573963D02*
X7127119Y-37604201D01*
X7127119Y-37604201D02*
X7157357Y-37634439D01*
X7731881Y-37573963D02*
X7429500Y-37573963D01*
X7429500Y-37573963D02*
X7399262Y-37876344D01*
X7399262Y-37876344D02*
X7429500Y-37846105D01*
X7429500Y-37846105D02*
X7489976Y-37815867D01*
X7489976Y-37815867D02*
X7641167Y-37815867D01*
X7641167Y-37815867D02*
X7701643Y-37846105D01*
X7701643Y-37846105D02*
X7731881Y-37876344D01*
X7731881Y-37876344D02*
X7762119Y-37936820D01*
X7762119Y-37936820D02*
X7762119Y-38088010D01*
X7762119Y-38088010D02*
X7731881Y-38148486D01*
X7731881Y-38148486D02*
X7701643Y-38178725D01*
X7701643Y-38178725D02*
X7641167Y-38208963D01*
X7641167Y-38208963D02*
X7489976Y-38208963D01*
X7489976Y-38208963D02*
X7429500Y-38178725D01*
X7429500Y-38178725D02*
X7399262Y-38148486D01*
X6957785Y-35995534D02*
X7260166Y-35995534D01*
X6897309Y-36176963D02*
X7108975Y-35541963D01*
X7108975Y-35541963D02*
X7320642Y-36176963D01*
X7532309Y-36176963D02*
X7532309Y-35541963D01*
X7532309Y-35541963D02*
X7774214Y-35541963D01*
X7774214Y-35541963D02*
X7834690Y-35572201D01*
X7834690Y-35572201D02*
X7864928Y-35602439D01*
X7864928Y-35602439D02*
X7895166Y-35662915D01*
X7895166Y-35662915D02*
X7895166Y-35753629D01*
X7895166Y-35753629D02*
X7864928Y-35814105D01*
X7864928Y-35814105D02*
X7834690Y-35844344D01*
X7834690Y-35844344D02*
X7774214Y-35874582D01*
X7774214Y-35874582D02*
X7532309Y-35874582D01*
X8106833Y-35541963D02*
X8530166Y-35541963D01*
X8530166Y-35541963D02*
X8258023Y-36176963D01*
X8711595Y-35541963D02*
X9104690Y-35541963D01*
X9104690Y-35541963D02*
X8893023Y-35783867D01*
X8893023Y-35783867D02*
X8983738Y-35783867D01*
X8983738Y-35783867D02*
X9044214Y-35814105D01*
X9044214Y-35814105D02*
X9074452Y-35844344D01*
X9074452Y-35844344D02*
X9104690Y-35904820D01*
X9104690Y-35904820D02*
X9104690Y-36056010D01*
X9104690Y-36056010D02*
X9074452Y-36116486D01*
X9074452Y-36116486D02*
X9044214Y-36146725D01*
X9044214Y-36146725D02*
X8983738Y-36176963D01*
X8983738Y-36176963D02*
X8802309Y-36176963D01*
X8802309Y-36176963D02*
X8741833Y-36146725D01*
X8741833Y-36146725D02*
X8711595Y-36116486D01*
X9648976Y-35541963D02*
X9528023Y-35541963D01*
X9528023Y-35541963D02*
X9467547Y-35572201D01*
X9467547Y-35572201D02*
X9437309Y-35602439D01*
X9437309Y-35602439D02*
X9376833Y-35693153D01*
X9376833Y-35693153D02*
X9346595Y-35814105D01*
X9346595Y-35814105D02*
X9346595Y-36056010D01*
X9346595Y-36056010D02*
X9376833Y-36116486D01*
X9376833Y-36116486D02*
X9407071Y-36146725D01*
X9407071Y-36146725D02*
X9467547Y-36176963D01*
X9467547Y-36176963D02*
X9588500Y-36176963D01*
X9588500Y-36176963D02*
X9648976Y-36146725D01*
X9648976Y-36146725D02*
X9679214Y-36116486D01*
X9679214Y-36116486D02*
X9709452Y-36056010D01*
X9709452Y-36056010D02*
X9709452Y-35904820D01*
X9709452Y-35904820D02*
X9679214Y-35844344D01*
X9679214Y-35844344D02*
X9648976Y-35814105D01*
X9648976Y-35814105D02*
X9588500Y-35783867D01*
X9588500Y-35783867D02*
X9467547Y-35783867D01*
X9467547Y-35783867D02*
X9407071Y-35814105D01*
X9407071Y-35814105D02*
X9376833Y-35844344D01*
X9376833Y-35844344D02*
X9346595Y-35904820D01*
X10283976Y-35541963D02*
X9981595Y-35541963D01*
X9981595Y-35541963D02*
X9951357Y-35844344D01*
X9951357Y-35844344D02*
X9981595Y-35814105D01*
X9981595Y-35814105D02*
X10042071Y-35783867D01*
X10042071Y-35783867D02*
X10193262Y-35783867D01*
X10193262Y-35783867D02*
X10253738Y-35814105D01*
X10253738Y-35814105D02*
X10283976Y-35844344D01*
X10283976Y-35844344D02*
X10314214Y-35904820D01*
X10314214Y-35904820D02*
X10314214Y-36056010D01*
X10314214Y-36056010D02*
X10283976Y-36116486D01*
X10283976Y-36116486D02*
X10253738Y-36146725D01*
X10253738Y-36146725D02*
X10193262Y-36176963D01*
X10193262Y-36176963D02*
X10042071Y-36176963D01*
X10042071Y-36176963D02*
X9981595Y-36146725D01*
X9981595Y-36146725D02*
X9951357Y-36116486D01*
X5586119Y-12589963D02*
X5586119Y-11954963D01*
X6251357Y-12529486D02*
X6221119Y-12559725D01*
X6221119Y-12559725D02*
X6130405Y-12589963D01*
X6130405Y-12589963D02*
X6069929Y-12589963D01*
X6069929Y-12589963D02*
X5979214Y-12559725D01*
X5979214Y-12559725D02*
X5918738Y-12499248D01*
X5918738Y-12499248D02*
X5888500Y-12438772D01*
X5888500Y-12438772D02*
X5858262Y-12317820D01*
X5858262Y-12317820D02*
X5858262Y-12227105D01*
X5858262Y-12227105D02*
X5888500Y-12106153D01*
X5888500Y-12106153D02*
X5918738Y-12045677D01*
X5918738Y-12045677D02*
X5979214Y-11985201D01*
X5979214Y-11985201D02*
X6069929Y-11954963D01*
X6069929Y-11954963D02*
X6130405Y-11954963D01*
X6130405Y-11954963D02*
X6221119Y-11985201D01*
X6221119Y-11985201D02*
X6251357Y-12015439D01*
X6463024Y-11954963D02*
X6886357Y-11954963D01*
X6886357Y-11954963D02*
X6614214Y-12589963D01*
X4240523Y-17161963D02*
X4663856Y-17161963D01*
X4663856Y-17161963D02*
X4391713Y-17796963D01*
X5177904Y-17373629D02*
X5177904Y-17796963D01*
X5026713Y-17131725D02*
X4875523Y-17585296D01*
X4875523Y-17585296D02*
X5268618Y-17585296D01*
X5812904Y-17796963D02*
X5510523Y-17796963D01*
X5510523Y-17796963D02*
X5510523Y-17161963D01*
X5933857Y-17161963D02*
X6145523Y-17796963D01*
X6145523Y-17796963D02*
X6357190Y-17161963D01*
X6931714Y-17736486D02*
X6901476Y-17766725D01*
X6901476Y-17766725D02*
X6810762Y-17796963D01*
X6810762Y-17796963D02*
X6750286Y-17796963D01*
X6750286Y-17796963D02*
X6659571Y-17766725D01*
X6659571Y-17766725D02*
X6599095Y-17706248D01*
X6599095Y-17706248D02*
X6568857Y-17645772D01*
X6568857Y-17645772D02*
X6538619Y-17524820D01*
X6538619Y-17524820D02*
X6538619Y-17434105D01*
X6538619Y-17434105D02*
X6568857Y-17313153D01*
X6568857Y-17313153D02*
X6599095Y-17252677D01*
X6599095Y-17252677D02*
X6659571Y-17192201D01*
X6659571Y-17192201D02*
X6750286Y-17161963D01*
X6750286Y-17161963D02*
X6810762Y-17161963D01*
X6810762Y-17161963D02*
X6901476Y-17192201D01*
X6901476Y-17192201D02*
X6931714Y-17222439D01*
X7324809Y-17161963D02*
X7385286Y-17161963D01*
X7385286Y-17161963D02*
X7445762Y-17192201D01*
X7445762Y-17192201D02*
X7476000Y-17222439D01*
X7476000Y-17222439D02*
X7506238Y-17282915D01*
X7506238Y-17282915D02*
X7536476Y-17403867D01*
X7536476Y-17403867D02*
X7536476Y-17555058D01*
X7536476Y-17555058D02*
X7506238Y-17676010D01*
X7506238Y-17676010D02*
X7476000Y-17736486D01*
X7476000Y-17736486D02*
X7445762Y-17766725D01*
X7445762Y-17766725D02*
X7385286Y-17796963D01*
X7385286Y-17796963D02*
X7324809Y-17796963D01*
X7324809Y-17796963D02*
X7264333Y-17766725D01*
X7264333Y-17766725D02*
X7234095Y-17736486D01*
X7234095Y-17736486D02*
X7203857Y-17676010D01*
X7203857Y-17676010D02*
X7173619Y-17555058D01*
X7173619Y-17555058D02*
X7173619Y-17403867D01*
X7173619Y-17403867D02*
X7203857Y-17282915D01*
X7203857Y-17282915D02*
X7234095Y-17222439D01*
X7234095Y-17222439D02*
X7264333Y-17192201D01*
X7264333Y-17192201D02*
X7324809Y-17161963D01*
X7929571Y-17161963D02*
X7990048Y-17161963D01*
X7990048Y-17161963D02*
X8050524Y-17192201D01*
X8050524Y-17192201D02*
X8080762Y-17222439D01*
X8080762Y-17222439D02*
X8111000Y-17282915D01*
X8111000Y-17282915D02*
X8141238Y-17403867D01*
X8141238Y-17403867D02*
X8141238Y-17555058D01*
X8141238Y-17555058D02*
X8111000Y-17676010D01*
X8111000Y-17676010D02*
X8080762Y-17736486D01*
X8080762Y-17736486D02*
X8050524Y-17766725D01*
X8050524Y-17766725D02*
X7990048Y-17796963D01*
X7990048Y-17796963D02*
X7929571Y-17796963D01*
X7929571Y-17796963D02*
X7869095Y-17766725D01*
X7869095Y-17766725D02*
X7838857Y-17736486D01*
X7838857Y-17736486D02*
X7808619Y-17676010D01*
X7808619Y-17676010D02*
X7778381Y-17555058D01*
X7778381Y-17555058D02*
X7778381Y-17403867D01*
X7778381Y-17403867D02*
X7808619Y-17282915D01*
X7808619Y-17282915D02*
X7838857Y-17222439D01*
X7838857Y-17222439D02*
X7869095Y-17192201D01*
X7869095Y-17192201D02*
X7929571Y-17161963D01*
X5857119Y-19335963D02*
X5857119Y-18700963D01*
X6522357Y-19275486D02*
X6492119Y-19305725D01*
X6492119Y-19305725D02*
X6401405Y-19335963D01*
X6401405Y-19335963D02*
X6340929Y-19335963D01*
X6340929Y-19335963D02*
X6250214Y-19305725D01*
X6250214Y-19305725D02*
X6189738Y-19245248D01*
X6189738Y-19245248D02*
X6159500Y-19184772D01*
X6159500Y-19184772D02*
X6129262Y-19063820D01*
X6129262Y-19063820D02*
X6129262Y-18973105D01*
X6129262Y-18973105D02*
X6159500Y-18852153D01*
X6159500Y-18852153D02*
X6189738Y-18791677D01*
X6189738Y-18791677D02*
X6250214Y-18731201D01*
X6250214Y-18731201D02*
X6340929Y-18700963D01*
X6340929Y-18700963D02*
X6401405Y-18700963D01*
X6401405Y-18700963D02*
X6492119Y-18731201D01*
X6492119Y-18731201D02*
X6522357Y-18761439D01*
X6885214Y-18973105D02*
X6824738Y-18942867D01*
X6824738Y-18942867D02*
X6794500Y-18912629D01*
X6794500Y-18912629D02*
X6764262Y-18852153D01*
X6764262Y-18852153D02*
X6764262Y-18821915D01*
X6764262Y-18821915D02*
X6794500Y-18761439D01*
X6794500Y-18761439D02*
X6824738Y-18731201D01*
X6824738Y-18731201D02*
X6885214Y-18700963D01*
X6885214Y-18700963D02*
X7006167Y-18700963D01*
X7006167Y-18700963D02*
X7066643Y-18731201D01*
X7066643Y-18731201D02*
X7096881Y-18761439D01*
X7096881Y-18761439D02*
X7127119Y-18821915D01*
X7127119Y-18821915D02*
X7127119Y-18852153D01*
X7127119Y-18852153D02*
X7096881Y-18912629D01*
X7096881Y-18912629D02*
X7066643Y-18942867D01*
X7066643Y-18942867D02*
X7006167Y-18973105D01*
X7006167Y-18973105D02*
X6885214Y-18973105D01*
X6885214Y-18973105D02*
X6824738Y-19003344D01*
X6824738Y-19003344D02*
X6794500Y-19033582D01*
X6794500Y-19033582D02*
X6764262Y-19094058D01*
X6764262Y-19094058D02*
X6764262Y-19215010D01*
X6764262Y-19215010D02*
X6794500Y-19275486D01*
X6794500Y-19275486D02*
X6824738Y-19305725D01*
X6824738Y-19305725D02*
X6885214Y-19335963D01*
X6885214Y-19335963D02*
X7006167Y-19335963D01*
X7006167Y-19335963D02*
X7066643Y-19305725D01*
X7066643Y-19305725D02*
X7096881Y-19275486D01*
X7096881Y-19275486D02*
X7127119Y-19215010D01*
X7127119Y-19215010D02*
X7127119Y-19094058D01*
X7127119Y-19094058D02*
X7096881Y-19033582D01*
X7096881Y-19033582D02*
X7066643Y-19003344D01*
X7066643Y-19003344D02*
X7006167Y-18973105D01*
X4209142Y-25304963D02*
X4632475Y-25304963D01*
X4632475Y-25304963D02*
X4360332Y-25939963D01*
X5146523Y-25516629D02*
X5146523Y-25939963D01*
X4995332Y-25274725D02*
X4844142Y-25728296D01*
X4844142Y-25728296D02*
X5237237Y-25728296D01*
X5781523Y-25939963D02*
X5479142Y-25939963D01*
X5479142Y-25939963D02*
X5479142Y-25304963D01*
X5902476Y-25304963D02*
X6114142Y-25939963D01*
X6114142Y-25939963D02*
X6325809Y-25304963D01*
X6900333Y-25879486D02*
X6870095Y-25909725D01*
X6870095Y-25909725D02*
X6779381Y-25939963D01*
X6779381Y-25939963D02*
X6718905Y-25939963D01*
X6718905Y-25939963D02*
X6628190Y-25909725D01*
X6628190Y-25909725D02*
X6567714Y-25849248D01*
X6567714Y-25849248D02*
X6537476Y-25788772D01*
X6537476Y-25788772D02*
X6507238Y-25667820D01*
X6507238Y-25667820D02*
X6507238Y-25577105D01*
X6507238Y-25577105D02*
X6537476Y-25456153D01*
X6537476Y-25456153D02*
X6567714Y-25395677D01*
X6567714Y-25395677D02*
X6628190Y-25335201D01*
X6628190Y-25335201D02*
X6718905Y-25304963D01*
X6718905Y-25304963D02*
X6779381Y-25304963D01*
X6779381Y-25304963D02*
X6870095Y-25335201D01*
X6870095Y-25335201D02*
X6900333Y-25365439D01*
X7474857Y-25304963D02*
X7172476Y-25304963D01*
X7172476Y-25304963D02*
X7142238Y-25607344D01*
X7142238Y-25607344D02*
X7172476Y-25577105D01*
X7172476Y-25577105D02*
X7232952Y-25546867D01*
X7232952Y-25546867D02*
X7384143Y-25546867D01*
X7384143Y-25546867D02*
X7444619Y-25577105D01*
X7444619Y-25577105D02*
X7474857Y-25607344D01*
X7474857Y-25607344D02*
X7505095Y-25667820D01*
X7505095Y-25667820D02*
X7505095Y-25819010D01*
X7505095Y-25819010D02*
X7474857Y-25879486D01*
X7474857Y-25879486D02*
X7444619Y-25909725D01*
X7444619Y-25909725D02*
X7384143Y-25939963D01*
X7384143Y-25939963D02*
X7232952Y-25939963D01*
X7232952Y-25939963D02*
X7172476Y-25909725D01*
X7172476Y-25909725D02*
X7142238Y-25879486D01*
X7716762Y-25304963D02*
X8140095Y-25304963D01*
X8140095Y-25304963D02*
X7867952Y-25939963D01*
X8321524Y-25304963D02*
X8714619Y-25304963D01*
X8714619Y-25304963D02*
X8502952Y-25546867D01*
X8502952Y-25546867D02*
X8593667Y-25546867D01*
X8593667Y-25546867D02*
X8654143Y-25577105D01*
X8654143Y-25577105D02*
X8684381Y-25607344D01*
X8684381Y-25607344D02*
X8714619Y-25667820D01*
X8714619Y-25667820D02*
X8714619Y-25819010D01*
X8714619Y-25819010D02*
X8684381Y-25879486D01*
X8684381Y-25879486D02*
X8654143Y-25909725D01*
X8654143Y-25909725D02*
X8593667Y-25939963D01*
X8593667Y-25939963D02*
X8412238Y-25939963D01*
X8412238Y-25939963D02*
X8351762Y-25909725D01*
X8351762Y-25909725D02*
X8321524Y-25879486D01*
D11*
%TO.C,IC1*%
X10565000Y-2331000D02*
X11440000Y-2331000D01*
X11790000Y-2556000D02*
X12340000Y-2556000D01*
X11790000Y-4556000D02*
X11790000Y-2556000D01*
X12340000Y-2556000D02*
X12340000Y-4556000D01*
X12340000Y-4556000D02*
X11790000Y-4556000D01*
D12*
%TO.C,C8*%
X10695000Y-19693748D02*
X10695000Y-20216252D01*
X12165000Y-19693748D02*
X12165000Y-20216252D01*
%TO.C,C5*%
X4472000Y-38218252D02*
X4472000Y-37695748D01*
X5942000Y-38218252D02*
X5942000Y-37695748D01*
D11*
%TO.C,IC3*%
X2167000Y1382000D02*
X3642000Y1382000D01*
X3992000Y1357000D02*
X7692000Y1357000D01*
X3992000Y-3643000D02*
X3992000Y1357000D01*
X7692000Y1357000D02*
X7692000Y-3643000D01*
X7692000Y-3643000D02*
X3992000Y-3643000D01*
D12*
%TO.C,C1*%
X10568000Y-6612748D02*
X10568000Y-7135252D01*
X12038000Y-6612748D02*
X12038000Y-7135252D01*
%TO.C,C4*%
X11330000Y-38168252D02*
X11330000Y-37645748D01*
X12800000Y-38168252D02*
X12800000Y-37645748D01*
%TO.C,C2*%
X4055748Y-34317000D02*
X4578252Y-34317000D01*
X4055748Y-35787000D02*
X4578252Y-35787000D01*
D11*
%TO.C,IC6*%
X4610000Y-27230000D02*
X8310000Y-27230000D01*
X4610000Y-33730000D02*
X4610000Y-27230000D01*
X8310000Y-27230000D02*
X8310000Y-33730000D01*
X8310000Y-33730000D02*
X4610000Y-33730000D01*
X10135000Y-33980000D02*
X8660000Y-33980000D01*
D12*
%TO.C,C7*%
X10822000Y118252D02*
X10822000Y-404252D01*
X12292000Y118252D02*
X12292000Y-404252D01*
%TO.C,C9*%
X10424000Y-13216748D02*
X10424000Y-13739252D01*
X11894000Y-13216748D02*
X11894000Y-13739252D01*
D11*
%TO.C,IC2*%
X2531000Y-4953000D02*
X4006000Y-4953000D01*
X4356000Y-4978000D02*
X8056000Y-4978000D01*
X4356000Y-9978000D02*
X4356000Y-4978000D01*
X8056000Y-4978000D02*
X8056000Y-9978000D01*
X8056000Y-9978000D02*
X4356000Y-9978000D01*
%TO.C,IC5*%
X8261000Y-36423000D02*
X9011000Y-36423000D01*
X8261000Y-39423000D02*
X8261000Y-36423000D01*
X9011000Y-36423000D02*
X9011000Y-39423000D01*
X9011000Y-39423000D02*
X8261000Y-39423000D01*
X10511000Y-39423000D02*
X9361000Y-39423000D01*
%TO.C,IC7*%
X2531000Y-11684000D02*
X4006000Y-11684000D01*
X4356000Y-11709000D02*
X8056000Y-11709000D01*
X4356000Y-16709000D02*
X4356000Y-11709000D01*
X8056000Y-11709000D02*
X8056000Y-16709000D01*
X8056000Y-16709000D02*
X4356000Y-16709000D01*
%TO.C,IC8*%
X2802000Y-18217000D02*
X4277000Y-18217000D01*
X4627000Y-18467000D02*
X8327000Y-18467000D01*
X4627000Y-24967000D02*
X4627000Y-18467000D01*
X8327000Y-18467000D02*
X8327000Y-24967000D01*
X8327000Y-24967000D02*
X4627000Y-24967000D01*
%TD*%
M02*
