%TF.GenerationSoftware,KiCad,Pcbnew,7.0.5*%
%TF.CreationDate,2024-02-19T15:18:16+02:00*%
%TF.ProjectId,Flags Enable Interrupt,466c6167-7320-4456-9e61-626c6520496e,V1*%
%TF.SameCoordinates,PX6d01460PY32de760*%
%TF.FileFunction,Copper,L1,Top*%
%TF.FilePolarity,Positive*%
%FSLAX46Y46*%
G04 Gerber Fmt 4.6, Leading zero omitted, Abs format (unit mm)*
G04 Created by KiCad (PCBNEW 7.0.5) date 2024-02-19 15:18:16*
%MOMM*%
%LPD*%
G01*
G04 APERTURE LIST*
G04 Aperture macros list*
%AMRoundRect*
0 Rectangle with rounded corners*
0 $1 Rounding radius*
0 $2 $3 $4 $5 $6 $7 $8 $9 X,Y pos of 4 corners*
0 Add a 4 corners polygon primitive as box body*
4,1,4,$2,$3,$4,$5,$6,$7,$8,$9,$2,$3,0*
0 Add four circle primitives for the rounded corners*
1,1,$1+$1,$2,$3*
1,1,$1+$1,$4,$5*
1,1,$1+$1,$6,$7*
1,1,$1+$1,$8,$9*
0 Add four rect primitives between the rounded corners*
20,1,$1+$1,$2,$3,$4,$5,0*
20,1,$1+$1,$4,$5,$6,$7,0*
20,1,$1+$1,$6,$7,$8,$9,0*
20,1,$1+$1,$8,$9,$2,$3,0*%
G04 Aperture macros list end*
%TA.AperFunction,ComponentPad*%
%ADD10RoundRect,0.400000X-0.400000X-0.400000X0.400000X-0.400000X0.400000X0.400000X-0.400000X0.400000X0*%
%TD*%
%TA.AperFunction,ComponentPad*%
%ADD11O,1.600000X1.600000*%
%TD*%
%TA.AperFunction,ComponentPad*%
%ADD12R,1.600000X1.600000*%
%TD*%
%TA.AperFunction,SMDPad,CuDef*%
%ADD13R,0.875000X0.450000*%
%TD*%
%TA.AperFunction,SMDPad,CuDef*%
%ADD14RoundRect,0.250000X-0.475000X0.250000X-0.475000X-0.250000X0.475000X-0.250000X0.475000X0.250000X0*%
%TD*%
%TA.AperFunction,SMDPad,CuDef*%
%ADD15C,0.500000*%
%TD*%
%TA.AperFunction,SMDPad,CuDef*%
%ADD16RoundRect,0.250000X0.475000X-0.250000X0.475000X0.250000X-0.475000X0.250000X-0.475000X-0.250000X0*%
%TD*%
%TA.AperFunction,SMDPad,CuDef*%
%ADD17R,1.475000X0.450000*%
%TD*%
%TA.AperFunction,SMDPad,CuDef*%
%ADD18RoundRect,0.250000X-0.250000X-0.475000X0.250000X-0.475000X0.250000X0.475000X-0.250000X0.475000X0*%
%TD*%
%TA.AperFunction,SMDPad,CuDef*%
%ADD19R,1.150000X0.600000*%
%TD*%
%TA.AperFunction,ViaPad*%
%ADD20C,0.800000*%
%TD*%
%TA.AperFunction,Conductor*%
%ADD21C,0.380000*%
%TD*%
%TA.AperFunction,Conductor*%
%ADD22C,0.200000*%
%TD*%
G04 APERTURE END LIST*
%TA.AperFunction,EtchedComponent*%
%TO.C,NT2*%
G36*
X5580000Y-2028000D02*
G01*
X4580000Y-2028000D01*
X4580000Y-1528000D01*
X5580000Y-1528000D01*
X5580000Y-2028000D01*
G37*
%TD.AperFunction*%
%TA.AperFunction,EtchedComponent*%
%TO.C,NT1*%
G36*
X3548000Y-11426000D02*
G01*
X2548000Y-11426000D01*
X2548000Y-10926000D01*
X3548000Y-10926000D01*
X3548000Y-11426000D01*
G37*
%TD.AperFunction*%
%TD*%
D10*
%TO.P,J1,1,Pin_1*%
%TO.N,/5V*%
X0Y0D03*
D11*
%TO.P,J1,2,Pin_2*%
%TO.N,/CLK*%
X0Y-2540000D03*
%TO.P,J1,3,Pin_3*%
%TO.N,/Write Clear Interrupt*%
X0Y-5080000D03*
%TO.P,J1,4,Pin_4*%
%TO.N,/~{Set Interrupt on CLK}*%
X0Y-7620000D03*
D12*
%TO.P,J1,5,Pin_5*%
%TO.N,/GND*%
X0Y-10160000D03*
D11*
%TO.P,J1,6,Pin_6*%
%TO.N,/Read Flags*%
X0Y-12700000D03*
%TO.P,J1,7,Pin_7*%
%TO.N,/Write Flags*%
X0Y-15240000D03*
%TO.P,J1,8,Pin_8*%
%TO.N,/D7*%
X0Y-17780000D03*
%TO.P,J1,9,Pin_9*%
%TO.N,/D6*%
X0Y-20320000D03*
%TO.P,J1,10,Pin_10*%
%TO.N,/D5*%
X0Y-22860000D03*
%TO.P,J1,11,Pin_11*%
%TO.N,/D4*%
X0Y-25400000D03*
D12*
%TO.P,J1,12,Pin_12*%
%TO.N,/GND*%
X0Y-27940000D03*
D11*
%TO.P,J1,13,Pin_13*%
%TO.N,/D3*%
X0Y-30480000D03*
%TO.P,J1,14,Pin_14*%
%TO.N,/D2*%
X0Y-33020000D03*
%TO.P,J1,15,Pin_15*%
%TO.N,/D1*%
X0Y-35560000D03*
%TO.P,J1,16,Pin_16*%
%TO.N,/D0*%
X0Y-38100000D03*
D10*
%TO.P,J1,17,Pin_17*%
%TO.N,/5V*%
X15240000Y-38100000D03*
D11*
%TO.P,J1,18,Pin_18*%
%TO.N,/F0*%
X15240000Y-35560000D03*
%TO.P,J1,19,Pin_19*%
%TO.N,/F1*%
X15240000Y-33020000D03*
%TO.P,J1,20,Pin_20*%
%TO.N,/F2*%
X15240000Y-30480000D03*
D12*
%TO.P,J1,21,Pin_21*%
%TO.N,/GND*%
X15240000Y-27940000D03*
D11*
%TO.P,J1,22,Pin_22*%
%TO.N,/F3*%
X15240000Y-25400000D03*
%TO.P,J1,23,Pin_23*%
%TO.N,/F4*%
X15240000Y-22860000D03*
%TO.P,J1,24,Pin_24*%
%TO.N,/F5*%
X15240000Y-20320000D03*
%TO.P,J1,25,Pin_25*%
%TO.N,unconnected-(J1-Pin_25-Pad25)*%
X15240000Y-17780000D03*
%TO.P,J1,26,Pin_26*%
%TO.N,/~{Enable}*%
X15240000Y-15240000D03*
%TO.P,J1,27,Pin_27*%
%TO.N,/Enable*%
X15240000Y-12700000D03*
D12*
%TO.P,J1,28,Pin_28*%
%TO.N,/GND*%
X15240000Y-10160000D03*
D11*
%TO.P,J1,29,Pin_29*%
%TO.N,/~{Interrupt}*%
X15240000Y-7620000D03*
%TO.P,J1,30,Pin_30*%
%TO.N,/Interrupt*%
X15240000Y-5080000D03*
%TO.P,J1,31,Pin_31*%
%TO.N,unconnected-(J1-Pin_31-Pad31)*%
X15240000Y-2540000D03*
%TO.P,J1,32,Pin_32*%
%TO.N,/~{Reset}*%
X15240000Y0D03*
%TD*%
D13*
%TO.P,IC1,1,A*%
%TO.N,/Enable*%
X11003000Y-2906000D03*
%TO.P,IC1,2,GND*%
%TO.N,/GND*%
X11003000Y-3556000D03*
%TO.P,IC1,3,B*%
%TO.N,/Interrupt Enable*%
X11003000Y-4206000D03*
%TO.P,IC1,4,Y*%
%TO.N,/~{Clear Interrupt}*%
X13127000Y-4206000D03*
%TO.P,IC1,5,3V*%
%TO.N,/3.3V*%
X13127000Y-3556000D03*
%TO.P,IC1,6,C*%
%TO.N,/~{Write Clear Interrupt}*%
X13127000Y-2906000D03*
%TD*%
D14*
%TO.P,C8,1*%
%TO.N,/3.3V*%
X11430000Y-19005000D03*
%TO.P,C8,2*%
%TO.N,/GND*%
X11430000Y-20905000D03*
%TD*%
D15*
%TO.P,NT2,1,1*%
%TO.N,/D6*%
X5580000Y-1778000D03*
%TO.P,NT2,2,2*%
%TO.N,/Enable Bit_{2}*%
X4580000Y-1778000D03*
%TD*%
D16*
%TO.P,C5,1*%
%TO.N,/3.3V*%
X5207000Y-38907000D03*
%TO.P,C5,2*%
%TO.N,/GND*%
X5207000Y-37007000D03*
%TD*%
D17*
%TO.P,IC3,1,1A*%
%TO.N,/Write Clear Interrupt*%
X2904000Y807000D03*
%TO.P,IC3,2,1Y*%
%TO.N,/~{Write Clear Interrupt}*%
X2904000Y157000D03*
%TO.P,IC3,3,2A*%
%TO.N,/Read Flags*%
X2904000Y-493000D03*
%TO.P,IC3,4,2Y*%
%TO.N,/~{Read Flags}*%
X2904000Y-1143000D03*
%TO.P,IC3,5,3A*%
%TO.N,/Enable Bit_{2}*%
X2904000Y-1793000D03*
%TO.P,IC3,6,3Y*%
%TO.N,/~{Enable Bit}*%
X2904000Y-2443000D03*
%TO.P,IC3,7,GND*%
%TO.N,/GND*%
X2904000Y-3093000D03*
%TO.P,IC3,8,4Y*%
%TO.N,/~{Set Disable}*%
X8780000Y-3093000D03*
%TO.P,IC3,9,4A*%
%TO.N,/Set Disable*%
X8780000Y-2443000D03*
%TO.P,IC3,10,5Y*%
%TO.N,/Interrupt Enable*%
X8780000Y-1793000D03*
%TO.P,IC3,11,5A*%
%TO.N,/~{Interrupt Enable}*%
X8780000Y-1143000D03*
%TO.P,IC3,12,6Y*%
%TO.N,unconnected-(IC3F-6Y-Pad12)*%
X8780000Y-493000D03*
%TO.P,IC3,13,6A*%
%TO.N,/GND*%
X8780000Y157000D03*
%TO.P,IC3,14,3V*%
%TO.N,/3.3V*%
X8780000Y807000D03*
%TD*%
D14*
%TO.P,C1,1*%
%TO.N,/3.3V*%
X11303000Y-5924000D03*
%TO.P,C1,2*%
%TO.N,/GND*%
X11303000Y-7824000D03*
%TD*%
D16*
%TO.P,C4,1*%
%TO.N,/5V*%
X12065000Y-38857000D03*
%TO.P,C4,2*%
%TO.N,/GND*%
X12065000Y-36957000D03*
%TD*%
D18*
%TO.P,C2,1*%
%TO.N,/3.3V*%
X3367000Y-35052000D03*
%TO.P,C2,2*%
%TO.N,/GND*%
X5267000Y-35052000D03*
%TD*%
D17*
%TO.P,IC6,1,~{OE}*%
%TO.N,/~{Read Flags}*%
X9398000Y-33405000D03*
%TO.P,IC6,2,D0*%
%TO.N,/F0*%
X9398000Y-32755000D03*
%TO.P,IC6,3,D1*%
%TO.N,/F1*%
X9398000Y-32105000D03*
%TO.P,IC6,4,D2*%
%TO.N,/F2*%
X9398000Y-31455000D03*
%TO.P,IC6,5,D3*%
%TO.N,/F3*%
X9398000Y-30805000D03*
%TO.P,IC6,6,D4*%
%TO.N,/F4*%
X9398000Y-30155000D03*
%TO.P,IC6,7,D5*%
%TO.N,/F5*%
X9398000Y-29505000D03*
%TO.P,IC6,8,D6*%
%TO.N,/Enable*%
X9398000Y-28855000D03*
%TO.P,IC6,9,D7*%
%TO.N,/Interrupt*%
X9398000Y-28205000D03*
%TO.P,IC6,10,GND*%
%TO.N,/GND*%
X9398000Y-27555000D03*
%TO.P,IC6,11,LE*%
%TO.N,/Read Flags*%
X3522000Y-27555000D03*
%TO.P,IC6,12,Q7*%
%TO.N,/D7*%
X3522000Y-28205000D03*
%TO.P,IC6,13,Q6*%
%TO.N,/D6*%
X3522000Y-28855000D03*
%TO.P,IC6,14,Q5*%
%TO.N,/D5*%
X3522000Y-29505000D03*
%TO.P,IC6,15,Q4*%
%TO.N,/D4*%
X3522000Y-30155000D03*
%TO.P,IC6,16,Q3*%
%TO.N,/D3*%
X3522000Y-30805000D03*
%TO.P,IC6,17,Q2*%
%TO.N,/D2*%
X3522000Y-31455000D03*
%TO.P,IC6,18,Q1*%
%TO.N,/D1*%
X3522000Y-32105000D03*
%TO.P,IC6,19,Q0*%
%TO.N,/D0*%
X3522000Y-32755000D03*
%TO.P,IC6,20,3V*%
%TO.N,/3.3V*%
X3522000Y-33405000D03*
%TD*%
D14*
%TO.P,C7,1*%
%TO.N,/3.3V*%
X11557000Y807000D03*
%TO.P,C7,2*%
%TO.N,/GND*%
X11557000Y-1093000D03*
%TD*%
%TO.P,C9,1*%
%TO.N,/3.3V*%
X11159000Y-12528000D03*
%TO.P,C9,2*%
%TO.N,/GND*%
X11159000Y-14428000D03*
%TD*%
D17*
%TO.P,IC2,1,~{1RD}*%
%TO.N,/3.3V*%
X3268000Y-5528000D03*
%TO.P,IC2,2,1D*%
%TO.N,/~{Set Interrupt on CLK}*%
X3268000Y-6178000D03*
%TO.P,IC2,3,1CP*%
%TO.N,/CLK*%
X3268000Y-6828000D03*
%TO.P,IC2,4,~{1SD}*%
%TO.N,/~{Clear Interrupt}*%
X3268000Y-7478000D03*
%TO.P,IC2,5,1Q*%
%TO.N,/~{Interrupt}*%
X3268000Y-8128000D03*
%TO.P,IC2,6,~{1Q}*%
%TO.N,/Interrupt*%
X3268000Y-8778000D03*
%TO.P,IC2,7,GND*%
%TO.N,/GND*%
X3268000Y-9428000D03*
%TO.P,IC2,8,~{2Q}*%
%TO.N,/~{Enable}*%
X9144000Y-9428000D03*
%TO.P,IC2,9,2Q*%
%TO.N,/Enable*%
X9144000Y-8778000D03*
%TO.P,IC2,10,~{2SD}*%
%TO.N,/~{Set Enable}*%
X9144000Y-8128000D03*
%TO.P,IC2,11,2CP*%
%TO.N,/GND*%
X9144000Y-7478000D03*
%TO.P,IC2,12,2D*%
X9144000Y-6828000D03*
%TO.P,IC2,13,~{2RD}*%
%TO.N,/~{Set Disable}*%
X9144000Y-6178000D03*
%TO.P,IC2,14,3V*%
%TO.N,/3.3V*%
X9144000Y-5528000D03*
%TD*%
D19*
%TO.P,IC5,1,VIN*%
%TO.N,/5V*%
X9936000Y-38873000D03*
%TO.P,IC5,2,GND*%
%TO.N,/GND*%
X9936000Y-37923000D03*
%TO.P,IC5,3,EN*%
%TO.N,/5V*%
X9936000Y-36973000D03*
%TO.P,IC5,4,ADJ*%
%TO.N,unconnected-(IC5-ADJ-Pad4)*%
X7336000Y-36973000D03*
%TO.P,IC5,5,VOUT*%
%TO.N,/3.3V*%
X7336000Y-38873000D03*
%TD*%
D17*
%TO.P,IC7,1,1A*%
%TO.N,/Write Flags*%
X3268000Y-12259000D03*
%TO.P,IC7,2,1B*%
%TO.N,/Enable Bit_{1}*%
X3268000Y-12909000D03*
%TO.P,IC7,3,1Y*%
%TO.N,/~{Set Enable}*%
X3268000Y-13559000D03*
%TO.P,IC7,4,2A*%
%TO.N,/Write Flags*%
X3268000Y-14209000D03*
%TO.P,IC7,5,2B*%
%TO.N,/~{Enable Bit}*%
X3268000Y-14859000D03*
%TO.P,IC7,6,2Y*%
%TO.N,Net-(IC7B-2Y)*%
X3268000Y-15509000D03*
%TO.P,IC7,7,GND*%
%TO.N,/GND*%
X3268000Y-16159000D03*
%TO.P,IC7,8,3Y*%
%TO.N,/Set Disable*%
X9144000Y-16159000D03*
%TO.P,IC7,9,3A*%
%TO.N,/~{Reset}*%
X9144000Y-15509000D03*
%TO.P,IC7,10,3B*%
%TO.N,Net-(IC7B-2Y)*%
X9144000Y-14859000D03*
%TO.P,IC7,11,4Y*%
%TO.N,/~{Interrupt Enable}*%
X9144000Y-14209000D03*
%TO.P,IC7,12,4A*%
%TO.N,/Enable*%
X9144000Y-13559000D03*
%TO.P,IC7,13,4B*%
%TO.N,/F_{Interrupt Enable}*%
X9144000Y-12909000D03*
%TO.P,IC7,14,3V*%
%TO.N,/3.3V*%
X9144000Y-12259000D03*
%TD*%
D15*
%TO.P,NT1,1,1*%
%TO.N,/D6*%
X2548000Y-11176000D03*
%TO.P,NT1,2,2*%
%TO.N,/Enable Bit_{1}*%
X3548000Y-11176000D03*
%TD*%
D17*
%TO.P,IC8,1,~{OE}*%
%TO.N,/GND*%
X3539000Y-18792000D03*
%TO.P,IC8,2,D0*%
%TO.N,/D0*%
X3539000Y-19442000D03*
%TO.P,IC8,3,D1*%
%TO.N,/D1*%
X3539000Y-20092000D03*
%TO.P,IC8,4,D2*%
%TO.N,/D2*%
X3539000Y-20742000D03*
%TO.P,IC8,5,D3*%
%TO.N,/D3*%
X3539000Y-21392000D03*
%TO.P,IC8,6,D4*%
%TO.N,/D4*%
X3539000Y-22042000D03*
%TO.P,IC8,7,D5*%
%TO.N,/D5*%
X3539000Y-22692000D03*
%TO.P,IC8,8,D6*%
%TO.N,/D6*%
X3539000Y-23342000D03*
%TO.P,IC8,9,D7*%
%TO.N,/D7*%
X3539000Y-23992000D03*
%TO.P,IC8,10,GND*%
%TO.N,/GND*%
X3539000Y-24642000D03*
%TO.P,IC8,11,LE*%
%TO.N,/Write Flags*%
X9415000Y-24642000D03*
%TO.P,IC8,12,Q7*%
%TO.N,/F_{Interrupt Enable}*%
X9415000Y-23992000D03*
%TO.P,IC8,13,Q6*%
%TO.N,unconnected-(IC8-Q6-Pad13)*%
X9415000Y-23342000D03*
%TO.P,IC8,14,Q5*%
%TO.N,/F5*%
X9415000Y-22692000D03*
%TO.P,IC8,15,Q4*%
%TO.N,/F4*%
X9415000Y-22042000D03*
%TO.P,IC8,16,Q3*%
%TO.N,/F3*%
X9415000Y-21392000D03*
%TO.P,IC8,17,Q2*%
%TO.N,/F2*%
X9415000Y-20742000D03*
%TO.P,IC8,18,Q1*%
%TO.N,/F1*%
X9415000Y-20092000D03*
%TO.P,IC8,19,Q0*%
%TO.N,/F0*%
X9415000Y-19442000D03*
%TO.P,IC8,20,3V*%
%TO.N,/3.3V*%
X9415000Y-18792000D03*
%TD*%
D20*
%TO.N,/GND*%
X-635000Y-16510000D03*
X1383975Y-16142025D03*
%TO.N,/5V*%
X2667000Y-38227000D03*
%TO.N,/GND*%
X6668843Y405187D03*
X4445000Y-36322000D03*
X12130000Y-20744991D03*
X7747000Y-7366000D03*
X11683994Y-25009573D03*
X11346000Y-10931714D03*
X4510006Y-16637000D03*
X6477000Y-4302996D03*
X12065000Y-7112000D03*
X4953000Y-18857997D03*
X12065000Y-35941000D03*
%TO.N,/3.3V*%
X14160500Y-3492500D03*
X7366000Y-38227006D03*
X6306767Y-11899538D03*
X11049000Y-6603998D03*
X12192000Y-12573000D03*
X8806000Y-18499000D03*
X13843000Y700042D03*
%TO.N,/Interrupt Enable*%
X7476257Y-1853257D03*
X8128000Y-4302994D03*
%TO.N,/~{Interrupt}*%
X6223000Y-10795000D03*
X6439588Y-7704163D03*
X13843252Y-11186000D03*
%TO.N,/~{Enable}*%
X12039988Y-9478000D03*
%TO.N,/Enable*%
X11135500Y-26884656D03*
X11683998Y-2667000D03*
X12816697Y-8019871D03*
X7899245Y-13660223D03*
%TO.N,/Interrupt*%
X7747000Y-9303029D03*
X10414000Y-26162000D03*
X13439988Y-9360030D03*
%TO.N,/D0*%
X6365444Y-32642000D03*
X6096000Y-19304000D03*
%TO.N,/D1*%
X6678633Y-20248508D03*
X5565166Y-32002970D03*
%TO.N,/D2*%
X5969000Y-21067179D03*
X6383542Y-31088878D03*
%TO.N,/D3*%
X6477000Y-21971000D03*
X5509530Y-30602970D03*
%TO.N,/D4*%
X5587889Y-22467197D03*
X5181802Y-29658195D03*
%TO.N,/D5*%
X5597305Y-23467155D03*
X5813195Y-28882729D03*
%TO.N,/D6*%
X5360259Y-27991184D03*
X5687000Y-923184D03*
X2200000Y-11128271D03*
X5280355Y-24415621D03*
%TO.N,/D7*%
X4538159Y-25562187D03*
X4831857Y-27142187D03*
%TO.N,/F5*%
X14440012Y-24130000D03*
X13440000Y-29137003D03*
%TO.N,/F4*%
X13261564Y-30179567D03*
%TO.N,/F3*%
X12145299Y-31115000D03*
X13207977Y-22225004D03*
%TO.N,/F2*%
X11349237Y-31973054D03*
X12573000Y-18161000D03*
%TO.N,/F1*%
X13743335Y-20070928D03*
%TO.N,/F0*%
X8128000Y-32893000D03*
X8118000Y-19287780D03*
%TO.N,/~{Reset}*%
X10414000Y-254000D03*
X10413994Y-15621000D03*
%TO.N,/CLK*%
X1521878Y-7019037D03*
X1397000Y-3810000D03*
%TO.N,/~{Read Flags}*%
X6598381Y-34222000D03*
X4446734Y-798298D03*
%TO.N,/~{Set Enable}*%
X4824500Y-13271500D03*
X5026033Y-8603029D03*
%TO.N,/Read Flags*%
X4825997Y126994D03*
X3048000Y-27051000D03*
%TO.N,/Write Flags*%
X10952266Y-24281572D03*
X11238850Y-17183379D03*
%TO.N,/~{Set Disable}*%
X7747000Y-6318006D03*
X7351312Y-3363541D03*
%TO.N,/~{Enable Bit}*%
X4468710Y-14895611D03*
X4572000Y-2667000D03*
%TO.N,/~{Write Clear Interrupt}*%
X12791956Y1764836D03*
X13052990Y-2032000D03*
%TO.N,/Write Clear Interrupt*%
X1524000Y761994D03*
%TO.N,/~{Clear Interrupt}*%
X5033790Y-5188621D03*
X4825992Y-7030781D03*
%TO.N,/Set Disable*%
X5033790Y-3608621D03*
X5842000Y-16293537D03*
%TO.N,/~{Interrupt Enable}*%
X5657543Y-2682020D03*
X5951537Y-14512659D03*
%TO.N,/F_{Interrupt Enable}*%
X10752377Y-23301751D03*
X7620000Y-12700000D03*
%TD*%
D21*
%TO.N,/GND*%
X3348621Y-4398621D02*
X2904000Y-3954000D01*
X6477000Y-4302996D02*
X6381375Y-4398621D01*
X6381375Y-4398621D02*
X3348621Y-4398621D01*
X2904000Y-3954000D02*
X2904000Y-3093000D01*
D22*
%TO.N,/~{Set Interrupt on CLK}*%
X3247999Y-6157999D02*
X1297880Y-6157999D01*
X1297880Y-6157999D02*
X216879Y-7239000D01*
D21*
%TO.N,/GND*%
X492915Y-6270000D02*
X2808915Y-3954000D01*
X-332915Y-6270000D02*
X492915Y-6270000D01*
X0Y-10160000D02*
X-1190000Y-8970000D01*
X2808915Y-3954000D02*
X2904000Y-3954000D01*
X-1190000Y-7127085D02*
X-332915Y-6270000D01*
X-1190000Y-8970000D02*
X-1190000Y-7127085D01*
D22*
%TO.N,/CLK*%
X1712915Y-6828000D02*
X1521878Y-7019037D01*
X3268000Y-6828000D02*
X1712915Y-6828000D01*
D21*
%TO.N,/GND*%
X16510000Y-8890000D02*
X15240000Y-10160000D01*
X16510000Y-2127085D02*
X16510000Y-8890000D01*
X15732915Y-1350000D02*
X16510000Y-2127085D01*
X14555000Y-1093000D02*
X14812000Y-1350000D01*
X14812000Y-1350000D02*
X15732915Y-1350000D01*
X11557000Y-1093000D02*
X14555000Y-1093000D01*
D22*
%TO.N,/~{Interrupt Enable}*%
X6103973Y-14360223D02*
X5951537Y-14512659D01*
X8189195Y-14360223D02*
X6103973Y-14360223D01*
X8340418Y-14209000D02*
X8189195Y-14360223D01*
X9144000Y-14209000D02*
X8340418Y-14209000D01*
%TO.N,/Enable*%
X13589000Y-12700000D02*
X15240000Y-12700000D01*
X9223000Y-13480000D02*
X12809000Y-13480000D01*
X12809000Y-13480000D02*
X13589000Y-12700000D01*
D21*
%TO.N,/3.3V*%
X11159000Y-12528000D02*
X12147000Y-12528000D01*
X12147000Y-12528000D02*
X12192000Y-12573000D01*
%TO.N,/GND*%
X15652915Y-13970000D02*
X16430000Y-13192915D01*
X16430000Y-13192915D02*
X16430000Y-12954000D01*
X16430000Y-11350000D02*
X16430000Y-12954000D01*
X15652915Y-13970000D02*
X16430000Y-14747085D01*
X11617000Y-13970000D02*
X15652915Y-13970000D01*
X16430000Y-14747085D02*
X16430000Y-15367000D01*
X11159000Y-14428000D02*
X11617000Y-13970000D01*
X16430000Y-15367000D02*
X16430000Y-20320000D01*
X16430000Y-22733000D02*
X16430000Y-26750000D01*
X15668000Y-21590000D02*
X16430000Y-22352000D01*
X16430000Y-22352000D02*
X16430000Y-22733000D01*
X15668000Y-21590000D02*
X16430000Y-20828000D01*
X14176348Y-21590000D02*
X15668000Y-21590000D01*
X13331339Y-20744991D02*
X14176348Y-21590000D01*
X12130000Y-20744991D02*
X13331339Y-20744991D01*
X16430000Y-20828000D02*
X16430000Y-20320000D01*
D22*
%TO.N,/F1*%
X13717398Y-20044991D02*
X13743335Y-20070928D01*
X9462009Y-20044991D02*
X13717398Y-20044991D01*
%TO.N,/Write Flags*%
X11023229Y-17399000D02*
X11238850Y-17183379D01*
X6919476Y-17399000D02*
X11023229Y-17399000D01*
X6717477Y-17601000D02*
X6919476Y-17399000D01*
X1853000Y-17601000D02*
X6717477Y-17601000D01*
X0Y-15748000D02*
X1853000Y-17601000D01*
D21*
%TO.N,/GND*%
X3268000Y-16159000D02*
X1400950Y-16159000D01*
X1400950Y-16159000D02*
X1383975Y-16142025D01*
X-1190000Y-15955000D02*
X-635000Y-16510000D01*
X-1190000Y-11350000D02*
X-1190000Y-15621000D01*
X-1190000Y-15621000D02*
X-1190000Y-15955000D01*
X-1190000Y-17145000D02*
X-1190000Y-17065000D01*
X-1190000Y-17145000D02*
X-1190000Y-26750000D01*
X-1190000Y-17065000D02*
X-635000Y-16510000D01*
D22*
%TO.N,/~{Write Clear Interrupt}*%
X3816500Y157000D02*
X2904000Y157000D01*
X9257836Y1764836D02*
X8860796Y1367796D01*
X12791956Y1764836D02*
X9257836Y1764836D01*
X8860796Y1367796D02*
X5027296Y1367796D01*
X5027296Y1367796D02*
X3816500Y157000D01*
%TO.N,/~{Read Flags}*%
X2904000Y-1143000D02*
X4102032Y-1143000D01*
X4102032Y-1143000D02*
X4446734Y-798298D01*
%TO.N,/Read Flags*%
X3732186Y-493000D02*
X4352180Y126994D01*
X2904000Y-493000D02*
X3732186Y-493000D01*
X4352180Y126994D02*
X4825997Y126994D01*
%TO.N,/D6*%
X5969000Y-1389000D02*
X5969000Y-1205184D01*
X5969000Y-1205184D02*
X5687000Y-923184D01*
X5580000Y-1778000D02*
X5969000Y-1389000D01*
D21*
%TO.N,/GND*%
X8780000Y157000D02*
X6917030Y157000D01*
X6917030Y157000D02*
X6668843Y405187D01*
D22*
%TO.N,/~{Interrupt Enable}*%
X7296563Y-1043000D02*
X5657543Y-2682020D01*
X8680000Y-1043000D02*
X7296563Y-1043000D01*
%TO.N,/Set Disable*%
X6909743Y-2553257D02*
X5854379Y-3608621D01*
X8669743Y-2553257D02*
X6909743Y-2553257D01*
%TO.N,/Interrupt Enable*%
X7536514Y-1793000D02*
X7476257Y-1853257D01*
X8780000Y-1793000D02*
X7536514Y-1793000D01*
%TO.N,/Set Disable*%
X5854379Y-3608621D02*
X5033790Y-3608621D01*
%TO.N,/Write Clear Interrupt*%
X1569006Y807000D02*
X1524000Y761994D01*
X2904000Y807000D02*
X1569006Y807000D01*
D21*
%TO.N,/3.3V*%
X11557000Y807000D02*
X8780000Y807000D01*
D22*
%TO.N,/Enable Bit_{2}*%
X4565000Y-1793000D02*
X2904000Y-1793000D01*
%TO.N,/~{Enable Bit}*%
X4348000Y-2443000D02*
X4572000Y-2667000D01*
X2904000Y-2443000D02*
X4348000Y-2443000D01*
%TO.N,/~{Clear Interrupt}*%
X5219411Y-5003000D02*
X5033790Y-5188621D01*
X13127000Y-4206000D02*
X12330000Y-5003000D01*
X12330000Y-5003000D02*
X5219411Y-5003000D01*
%TO.N,/~{Set Disable}*%
X7621853Y-3093000D02*
X7351312Y-3363541D01*
X8780000Y-3093000D02*
X7621853Y-3093000D01*
D21*
%TO.N,/3.3V*%
X10657500Y-5924000D02*
X10261500Y-5528000D01*
X10261500Y-5528000D02*
X9144000Y-5528000D01*
X11303000Y-5924000D02*
X10657500Y-5924000D01*
%TO.N,/GND*%
X11766000Y-7411000D02*
X12065000Y-7112000D01*
X11766000Y-7809000D02*
X11766000Y-7411000D01*
X10515500Y-7732000D02*
X11211000Y-7732000D01*
X10261500Y-7478000D02*
X10515500Y-7732000D01*
X9144000Y-7478000D02*
X10261500Y-7478000D01*
%TO.N,/3.3V*%
X11049000Y-6239992D02*
X11049000Y-6603998D01*
X13954500Y-4841500D02*
X13954500Y-3667500D01*
X11303000Y-5924000D02*
X12872000Y-5924000D01*
X12872000Y-5924000D02*
X13954500Y-4841500D01*
X11288000Y-6000992D02*
X11049000Y-6239992D01*
D22*
%TO.N,/Enable*%
X12058568Y-8778000D02*
X12816697Y-8019871D01*
X9144000Y-8778000D02*
X12058568Y-8778000D01*
%TO.N,/Interrupt*%
X12622018Y-10178000D02*
X13439988Y-9360030D01*
X8331500Y-10178000D02*
X12622018Y-10178000D01*
X7747000Y-9303029D02*
X7747000Y-9593500D01*
%TO.N,/~{Enable}*%
X11989988Y-9428000D02*
X12039988Y-9478000D01*
X9144000Y-9428000D02*
X11989988Y-9428000D01*
%TO.N,/Interrupt*%
X7747000Y-9593500D02*
X8331500Y-10178000D01*
%TO.N,/Interrupt Enable*%
X8224994Y-4206000D02*
X8128000Y-4302994D01*
X11003000Y-4206000D02*
X8224994Y-4206000D01*
D21*
%TO.N,/5V*%
X8971000Y-37003000D02*
X9001000Y-36973000D01*
X8971000Y-38613000D02*
X8971000Y-38893000D01*
X9231000Y-38873000D02*
X8971000Y-38613000D01*
X4237000Y-39797000D02*
X2667000Y-38227000D01*
X9936000Y-38873000D02*
X9231000Y-38873000D01*
X9936000Y-38873000D02*
X12049000Y-38873000D01*
X8971000Y-38893000D02*
X8067000Y-39797000D01*
X15240000Y-38100000D02*
X12822000Y-38100000D01*
X8971000Y-38613000D02*
X8971000Y-37003000D01*
X9001000Y-36973000D02*
X9936000Y-36973000D01*
X8067000Y-39797000D02*
X4237000Y-39797000D01*
X12822000Y-38100000D02*
X12065000Y-38857000D01*
%TO.N,/GND*%
X4210930Y-26352187D02*
X4865388Y-26352187D01*
X11557000Y-1093000D02*
X10033000Y-2617000D01*
X4094000Y-9428000D02*
X4459033Y-9793033D01*
X4887003Y-18792000D02*
X4953000Y-18857997D01*
X4970177Y-26250312D02*
X4984446Y-26250312D01*
X3539000Y-24642000D02*
X3539000Y-25680257D01*
X15004000Y-10396000D02*
X13159966Y-10396000D01*
X6692673Y-33432000D02*
X6217771Y-33432000D01*
X5267000Y-34382771D02*
X5267000Y-35052000D01*
X4895418Y-26325071D02*
X4970177Y-26250312D01*
X0Y-10160000D02*
X-1190000Y-11350000D01*
X12065000Y-36957000D02*
X11099000Y-37923000D01*
X12065000Y-36957000D02*
X12065000Y-35941000D01*
X3539000Y-25680257D02*
X4210930Y-26352187D01*
X7173542Y-31416107D02*
X7155444Y-31434205D01*
X2637000Y-9428000D02*
X1905000Y-10160000D01*
X11331000Y-14600000D02*
X11331000Y-15974000D01*
X16430000Y-29130000D02*
X16430000Y-36148000D01*
X6804229Y-9793033D02*
X7806196Y-10795000D01*
X7859000Y-7478000D02*
X7747000Y-7366000D01*
X0Y-10160000D02*
X1905000Y-10160000D01*
X4984446Y-26250312D02*
X5117758Y-26117000D01*
X11099000Y-37923000D02*
X9936000Y-37923000D01*
X15240000Y-27940000D02*
X16430000Y-29130000D01*
X11590009Y-20744991D02*
X12130000Y-20744991D01*
X4892504Y-26325071D02*
X4895418Y-26325071D01*
X9144000Y-7478000D02*
X7859000Y-7478000D01*
X7155444Y-30743551D02*
X7173542Y-30761649D01*
X-1190000Y-26750000D02*
X0Y-27940000D01*
X13159966Y-10396000D02*
X12624252Y-10931714D01*
X10287000Y-3556000D02*
X11003000Y-3556000D01*
X9398000Y-27555000D02*
X8280500Y-27555000D01*
X7155444Y-31434205D02*
X7155444Y-32969229D01*
X5267000Y-35052000D02*
X5267000Y-36947000D01*
X3268000Y-9428000D02*
X4094000Y-9428000D01*
X16430000Y-26750000D02*
X15240000Y-27940000D01*
X4984006Y-17111000D02*
X4510006Y-16637000D01*
X7806196Y-10795000D02*
X11209286Y-10795000D01*
X7155444Y-32969229D02*
X6692673Y-33432000D01*
X9144000Y-6828000D02*
X9144000Y-7478000D01*
X5117758Y-26117000D02*
X9189000Y-26117000D01*
X5130000Y-37007000D02*
X4445000Y-36322000D01*
X7173542Y-30761649D02*
X7173542Y-31416107D01*
X3268000Y-16159000D02*
X4032006Y-16159000D01*
X3539000Y-18792000D02*
X4887003Y-18792000D01*
X11331000Y-15974000D02*
X10414000Y-16891000D01*
X6734512Y-16891000D02*
X6514512Y-17111000D01*
X10414000Y-16891000D02*
X6734512Y-16891000D01*
X6514512Y-17111000D02*
X4984006Y-17111000D01*
X3268000Y-9428000D02*
X2637000Y-9428000D01*
X9988018Y-25317982D02*
X11375585Y-25317982D01*
X4032006Y-16159000D02*
X4510006Y-16637000D01*
X9189000Y-26117000D02*
X9988018Y-25317982D01*
X10033000Y-2617000D02*
X10033000Y-3302000D01*
X15240000Y-10160000D02*
X16430000Y-11350000D01*
X4459033Y-9793033D02*
X6804229Y-9793033D01*
X11209286Y-10795000D02*
X11346000Y-10931714D01*
X11375585Y-25317982D02*
X11683994Y-25009573D01*
X12624252Y-10931714D02*
X11346000Y-10931714D01*
X6217771Y-33432000D02*
X5267000Y-34382771D01*
X4865388Y-26352187D02*
X4892504Y-26325071D01*
X10033000Y-3302000D02*
X10287000Y-3556000D01*
X15668000Y-36910000D02*
X12112000Y-36910000D01*
X8280500Y-27555000D02*
X7155444Y-28680056D01*
X7155444Y-28680056D02*
X7155444Y-30743551D01*
X16430000Y-36148000D02*
X15668000Y-36910000D01*
%TO.N,/3.3V*%
X10890000Y-12259000D02*
X9144000Y-12259000D01*
X11217000Y-18792000D02*
X9415000Y-18792000D01*
X3367000Y-35052000D02*
X3367000Y-33560000D01*
X7336000Y-38257006D02*
X7366000Y-38227006D01*
X13843000Y-3556000D02*
X13127000Y-3556000D01*
X3367000Y-33560000D02*
X3522000Y-33405000D01*
X13954500Y-3667500D02*
X14129500Y-3492500D01*
X7336000Y-38873000D02*
X7336000Y-38257006D01*
X9144000Y-12259000D02*
X8322000Y-12259000D01*
X11557000Y807000D02*
X13736042Y807000D01*
X3367000Y-37067000D02*
X3367000Y-35052000D01*
X13736042Y807000D02*
X13843000Y700042D01*
X4183555Y-5528000D02*
X4706561Y-6051006D01*
X7962538Y-11899538D02*
X6306767Y-11899538D01*
X5207000Y-38907000D02*
X3367000Y-37067000D01*
X6648994Y-6051006D02*
X7172000Y-5528000D01*
X13954500Y-3667500D02*
X13843000Y-3556000D01*
X8322000Y-12259000D02*
X7962538Y-11899538D01*
X14129500Y-3492500D02*
X14160500Y-3492500D01*
X9415000Y-18792000D02*
X9122000Y-18499000D01*
X3268000Y-5528000D02*
X4183555Y-5528000D01*
X9122000Y-18499000D02*
X8806000Y-18499000D01*
X7336000Y-38873000D02*
X5241000Y-38873000D01*
X4706561Y-6051006D02*
X6648994Y-6051006D01*
X7172000Y-5528000D02*
X9144000Y-5528000D01*
D22*
%TO.N,/~{Interrupt}*%
X6713000Y-11285000D02*
X8745000Y-11285000D01*
X4736083Y-7903029D02*
X6240722Y-7903029D01*
X6223000Y-10795000D02*
X6713000Y-11285000D01*
X3268000Y-8128000D02*
X4511112Y-8128000D01*
X8745000Y-11285000D02*
X9136000Y-11676000D01*
X13353252Y-11676000D02*
X13843252Y-11186000D01*
X6240722Y-7903029D02*
X6439588Y-7704163D01*
X9136000Y-11676000D02*
X13353252Y-11676000D01*
X4511112Y-8128000D02*
X4736083Y-7903029D01*
%TO.N,/Enable*%
X10335500Y-28855000D02*
X11135500Y-28055000D01*
X9144000Y-13559000D02*
X8000468Y-13559000D01*
X11444998Y-2906000D02*
X11683998Y-2667000D01*
X11003000Y-2906000D02*
X11444998Y-2906000D01*
X8000468Y-13559000D02*
X7899245Y-13660223D01*
X11135500Y-28055000D02*
X11135500Y-26884656D01*
X9398000Y-28855000D02*
X10335500Y-28855000D01*
%TO.N,/Interrupt*%
X9398000Y-28205000D02*
X10335500Y-28205000D01*
X10435500Y-28105000D02*
X10435500Y-26183500D01*
X3268000Y-8778000D02*
X4205500Y-8778000D01*
X4730529Y-9303029D02*
X7747000Y-9303029D01*
X10435500Y-26183500D02*
X10414000Y-26162000D01*
X10335500Y-28205000D02*
X10435500Y-28105000D01*
X4205500Y-8778000D02*
X4730529Y-9303029D01*
%TO.N,/D0*%
X3522000Y-32755000D02*
X6252444Y-32755000D01*
X2584500Y-32755000D02*
X3522000Y-32755000D01*
X6252444Y-32755000D02*
X6365444Y-32642000D01*
X2484500Y-32855000D02*
X2584500Y-32755000D01*
X3655003Y-19558003D02*
X5841997Y-19558003D01*
X0Y-38100000D02*
X2484500Y-35615500D01*
X5841997Y-19558003D02*
X6096000Y-19304000D01*
X2484500Y-35615500D02*
X2484500Y-32855000D01*
%TO.N,/D1*%
X2609500Y-32105000D02*
X3522000Y-32105000D01*
X6522125Y-20092000D02*
X6678633Y-20248508D01*
X3522000Y-32105000D02*
X5463136Y-32105000D01*
X3539000Y-20092000D02*
X6522125Y-20092000D01*
X0Y-34714500D02*
X2609500Y-32105000D01*
X5463136Y-32105000D02*
X5565166Y-32002970D01*
X0Y-35560000D02*
X0Y-34714500D01*
%TO.N,/D2*%
X5827369Y-31275081D02*
X6197339Y-31275081D01*
X1565000Y-31455000D02*
X3522000Y-31455000D01*
X5799480Y-31302970D02*
X5827369Y-31275081D01*
X0Y-33020000D02*
X1565000Y-31455000D01*
X3539000Y-20742000D02*
X5643821Y-20742000D01*
X5643821Y-20742000D02*
X5969000Y-21067179D01*
X6197339Y-31275081D02*
X6383542Y-31088878D01*
X5076080Y-31455000D02*
X5228110Y-31302970D01*
X3522000Y-31455000D02*
X5076080Y-31455000D01*
X5228110Y-31302970D02*
X5799480Y-31302970D01*
%TO.N,/D3*%
X5307500Y-30805000D02*
X5509530Y-30602970D01*
X3522000Y-30805000D02*
X325000Y-30805000D01*
X5154518Y-21392000D02*
X5529715Y-21767197D01*
X3539000Y-21392000D02*
X5154518Y-21392000D01*
X6273197Y-21767197D02*
X6477000Y-21971000D01*
X3522000Y-30805000D02*
X5307500Y-30805000D01*
X5529715Y-21767197D02*
X6273197Y-21767197D01*
%TO.N,/D4*%
X5162692Y-22042000D02*
X5587889Y-22467197D01*
X1100000Y-28645500D02*
X1100000Y-26500000D01*
X2609500Y-30155000D02*
X1100000Y-28645500D01*
X4684997Y-30155000D02*
X5181802Y-29658195D01*
X1100000Y-26500000D02*
X0Y-25400000D01*
X3539000Y-22042000D02*
X5162692Y-22042000D01*
X3522000Y-30155000D02*
X2609500Y-30155000D01*
X3522000Y-30155000D02*
X4684997Y-30155000D01*
%TO.N,/D5*%
X3522000Y-29505000D02*
X4293460Y-29505000D01*
X1500000Y-28395500D02*
X1500000Y-24360000D01*
X3539000Y-22692000D02*
X4822150Y-22692000D01*
X4293460Y-29505000D02*
X4915731Y-28882729D01*
X2609500Y-29505000D02*
X1500000Y-28395500D01*
X1500000Y-24360000D02*
X0Y-22860000D01*
X4822150Y-22692000D02*
X5597305Y-23467155D01*
X3522000Y-29505000D02*
X2609500Y-29505000D01*
X4915731Y-28882729D02*
X5813195Y-28882729D01*
%TO.N,/D6*%
X2584500Y-28855000D02*
X1900000Y-28170500D01*
X1900000Y-28170500D02*
X1900000Y-22220000D01*
X4377774Y-28855000D02*
X5241590Y-27991184D01*
X4476500Y-23342000D02*
X5280355Y-24145855D01*
X1900000Y-22220000D02*
X0Y-20320000D01*
X3522000Y-28855000D02*
X4377774Y-28855000D01*
X5241590Y-27991184D02*
X5360259Y-27991184D01*
X3539000Y-23342000D02*
X4476500Y-23342000D01*
X3522000Y-28855000D02*
X2584500Y-28855000D01*
X5280355Y-24145855D02*
X5280355Y-24415621D01*
%TO.N,/D7*%
X4576500Y-25523846D02*
X4538159Y-25562187D01*
X3522000Y-28205000D02*
X2609500Y-28205000D01*
X4459500Y-28205000D02*
X4559500Y-28105000D01*
X2300000Y-27895500D02*
X2300000Y-20080000D01*
X2300000Y-20080000D02*
X0Y-17780000D01*
X2609500Y-28205000D02*
X2300000Y-27895500D01*
X3522000Y-28205000D02*
X4459500Y-28205000D01*
X4559500Y-27414544D02*
X4831857Y-27142187D01*
X4559500Y-28105000D02*
X4559500Y-27414544D01*
X4291069Y-23992000D02*
X4576500Y-24277431D01*
X4576500Y-24277431D02*
X4576500Y-25523846D01*
X3539000Y-23992000D02*
X4291069Y-23992000D01*
%TO.N,/F5*%
X9398000Y-29505000D02*
X13072003Y-29505000D01*
X9505249Y-22601751D02*
X11902116Y-22601751D01*
X13072003Y-29505000D02*
X13440000Y-29137003D01*
X11902116Y-22601751D02*
X13430365Y-24130000D01*
X13430365Y-24130000D02*
X14440012Y-24130000D01*
%TO.N,/F4*%
X10416174Y-22042000D02*
X10575925Y-22201751D01*
X12067801Y-22201751D02*
X12918050Y-23052000D01*
X10575925Y-22201751D02*
X12067801Y-22201751D01*
X9415000Y-22042000D02*
X10416174Y-22042000D01*
X13236997Y-30155000D02*
X13261564Y-30179567D01*
X9398000Y-30155000D02*
X13236997Y-30155000D01*
X12918050Y-23052000D02*
X15048000Y-23052000D01*
%TO.N,/F3*%
X9398000Y-30805000D02*
X11835299Y-30805000D01*
X9415000Y-21392000D02*
X10414183Y-21392000D01*
X14140000Y-26500000D02*
X14140000Y-30461470D01*
X11835299Y-30805000D02*
X12145299Y-31115000D01*
X15240000Y-25400000D02*
X14140000Y-26500000D01*
X10414183Y-21392000D02*
X10823934Y-21801751D01*
X14140000Y-30461470D02*
X13486470Y-31115000D01*
X12784724Y-21801751D02*
X13207977Y-22225004D01*
X10823934Y-21801751D02*
X12784724Y-21801751D01*
X13486470Y-31115000D02*
X12145299Y-31115000D01*
%TO.N,/F2*%
X10174986Y-17799000D02*
X10536986Y-18161000D01*
X8477500Y-20742000D02*
X7418000Y-19682500D01*
X7418000Y-19682500D02*
X7418000Y-18135050D01*
X10536986Y-18161000D02*
X12573000Y-18161000D01*
X7754050Y-17799000D02*
X10174986Y-17799000D01*
X15240000Y-30480000D02*
X13746946Y-31973054D01*
X9415000Y-20742000D02*
X8477500Y-20742000D01*
X7418000Y-18135050D02*
X7754050Y-17799000D01*
X13746946Y-31973054D02*
X11349237Y-31973054D01*
X9398000Y-31455000D02*
X10831183Y-31455000D01*
X10831183Y-31455000D02*
X11349237Y-31973054D01*
%TO.N,/F1*%
X10491233Y-32105000D02*
X11406233Y-33020000D01*
X9398000Y-32105000D02*
X10491233Y-32105000D01*
X11406233Y-33020000D02*
X15240000Y-33020000D01*
%TO.N,/F0*%
X8272220Y-19442000D02*
X8118000Y-19287780D01*
X13335000Y-35560000D02*
X15240000Y-35560000D01*
X9398000Y-32755000D02*
X10530000Y-32755000D01*
X10530000Y-32755000D02*
X13335000Y-35560000D01*
X9415000Y-19442000D02*
X8272220Y-19442000D01*
X8266000Y-32755000D02*
X8128000Y-32893000D01*
X9398000Y-32755000D02*
X8266000Y-32755000D01*
%TO.N,/~{Reset}*%
X10668000Y0D02*
X10414000Y-254000D01*
X10301994Y-15509000D02*
X10413994Y-15621000D01*
X9144000Y-15509000D02*
X10301994Y-15509000D01*
X15240000Y0D02*
X10668000Y0D01*
%TO.N,/CLK*%
X1270000Y-3810000D02*
X1397000Y-3810000D01*
X0Y-2540000D02*
X1270000Y-3810000D01*
%TO.N,/~{Read Flags}*%
X9398000Y-33405000D02*
X8581000Y-34222000D01*
X8581000Y-34222000D02*
X6598381Y-34222000D01*
%TO.N,/~{Set Enable}*%
X4537000Y-13559000D02*
X4824500Y-13271500D01*
X9144000Y-8128000D02*
X7286186Y-8128000D01*
X7286186Y-8128000D02*
X6811157Y-8603029D01*
X6811157Y-8603029D02*
X5026033Y-8603029D01*
X3268000Y-13559000D02*
X4537000Y-13559000D01*
%TO.N,/Read Flags*%
X3522000Y-27525000D02*
X3048000Y-27051000D01*
%TO.N,/Write Flags*%
X0Y-15240000D02*
X1031000Y-14209000D01*
X2159000Y-12430500D02*
X2159000Y-14209000D01*
X9415000Y-24642000D02*
X10591838Y-24642000D01*
X2159000Y-14209000D02*
X3268000Y-14209000D01*
X1031000Y-14209000D02*
X2159000Y-14209000D01*
X10591838Y-24642000D02*
X10952266Y-24281572D01*
X3268000Y-12259000D02*
X2330500Y-12259000D01*
X2330500Y-12259000D02*
X2159000Y-12430500D01*
%TO.N,/~{Set Disable}*%
X9144000Y-6178000D02*
X7887006Y-6178000D01*
X7887006Y-6178000D02*
X7747000Y-6318006D01*
%TO.N,/~{Enable Bit}*%
X4432099Y-14859000D02*
X4468710Y-14895611D01*
X3268000Y-14859000D02*
X4432099Y-14859000D01*
%TO.N,Net-(IC7B-2Y)*%
X4758660Y-15595611D02*
X4760734Y-15593537D01*
X3354611Y-15595611D02*
X4758660Y-15595611D01*
X5860627Y-15593537D02*
X6595164Y-14859000D01*
X4760734Y-15593537D02*
X5860627Y-15593537D01*
X6595164Y-14859000D02*
X9144000Y-14859000D01*
%TO.N,/~{Write Clear Interrupt}*%
X13127000Y-2906000D02*
X13127000Y-2106010D01*
X13127000Y-2106010D02*
X13052990Y-2032000D01*
%TO.N,/~{Clear Interrupt}*%
X4378773Y-7478000D02*
X4825992Y-7030781D01*
X3268000Y-7478000D02*
X4378773Y-7478000D01*
%TO.N,/Set Disable*%
X9144000Y-16159000D02*
X5976537Y-16159000D01*
X5976537Y-16159000D02*
X5842000Y-16293537D01*
%TO.N,/F_{Interrupt Enable}*%
X9415000Y-23992000D02*
X10250546Y-23992000D01*
X10250546Y-23992000D02*
X10752377Y-23490169D01*
X7829000Y-12909000D02*
X7620000Y-12700000D01*
X10752377Y-23490169D02*
X10752377Y-23301751D01*
X9144000Y-12909000D02*
X7829000Y-12909000D01*
%TO.N,/Enable Bit_{1}*%
X4305500Y-11417500D02*
X4064000Y-11176000D01*
X4064000Y-11176000D02*
X3548000Y-11176000D01*
X4197050Y-12909000D02*
X4305500Y-12800550D01*
X3268000Y-12909000D02*
X4197050Y-12909000D01*
X4305500Y-12800550D02*
X4305500Y-11417500D01*
%TD*%
%TA.AperFunction,Conductor*%
%TO.N,/GND*%
G36*
X2786859Y-35911335D02*
G01*
X2817836Y-35928251D01*
X2876811Y-35972400D01*
X2918682Y-36028334D01*
X2926500Y-36071666D01*
X2926500Y-37038771D01*
X2926110Y-37045719D01*
X2921834Y-37083656D01*
X2927728Y-37114805D01*
X2932438Y-37139698D01*
X2932821Y-37141952D01*
X2941315Y-37198305D01*
X2943781Y-37206301D01*
X2946521Y-37214130D01*
X2973145Y-37264504D01*
X2974190Y-37266574D01*
X2998930Y-37317948D01*
X3003586Y-37324778D01*
X3008569Y-37331528D01*
X3008571Y-37331532D01*
X3048876Y-37371837D01*
X3050459Y-37373481D01*
X3089250Y-37415287D01*
X3096516Y-37421081D01*
X3095978Y-37421754D01*
X3108072Y-37431033D01*
X3148203Y-37471164D01*
X3181688Y-37532487D01*
X3176704Y-37602179D01*
X3134832Y-37658112D01*
X3069368Y-37682529D01*
X3002896Y-37668641D01*
X2899365Y-37614303D01*
X2745986Y-37576500D01*
X2745985Y-37576500D01*
X2588015Y-37576500D01*
X2588014Y-37576500D01*
X2434634Y-37614303D01*
X2294762Y-37687715D01*
X2176516Y-37792471D01*
X2086781Y-37922475D01*
X2086780Y-37922476D01*
X2030762Y-38070181D01*
X2011721Y-38226999D01*
X2011721Y-38227000D01*
X2030762Y-38383818D01*
X2081705Y-38518141D01*
X2086780Y-38531523D01*
X2176517Y-38661530D01*
X2294760Y-38766283D01*
X2294762Y-38766284D01*
X2434634Y-38839696D01*
X2588014Y-38877500D01*
X2588015Y-38877500D01*
X2643177Y-38877500D01*
X2710216Y-38897185D01*
X2730858Y-38913819D01*
X3905555Y-40088516D01*
X3910191Y-40093704D01*
X3933999Y-40123557D01*
X3981099Y-40155669D01*
X3982982Y-40157006D01*
X4028842Y-40190852D01*
X4028846Y-40190853D01*
X4036223Y-40194752D01*
X4043713Y-40198359D01*
X4043715Y-40198360D01*
X4071679Y-40206985D01*
X4098184Y-40215161D01*
X4100370Y-40215880D01*
X4118406Y-40222191D01*
X4175181Y-40262914D01*
X4200927Y-40327867D01*
X4187470Y-40396429D01*
X4139081Y-40446831D01*
X4077449Y-40463232D01*
X1524000Y-40463232D01*
X1524000Y-37071681D01*
X2655846Y-35939834D01*
X2717167Y-35906351D01*
X2786859Y-35911335D01*
G37*
%TD.AperFunction*%
%TA.AperFunction,Conductor*%
G36*
X13716000Y-40463232D02*
G01*
X8241158Y-40463232D01*
X8174119Y-40443547D01*
X8128364Y-40390743D01*
X8118420Y-40321585D01*
X8147445Y-40258029D01*
X8191212Y-40229480D01*
X8189891Y-40226738D01*
X8191119Y-40226146D01*
X8201624Y-40222688D01*
X8204614Y-40220739D01*
X8206289Y-40220222D01*
X8214127Y-40217479D01*
X8214127Y-40217478D01*
X8214131Y-40217478D01*
X8264529Y-40190840D01*
X8266575Y-40189808D01*
X8317946Y-40165070D01*
X8317948Y-40165067D01*
X8324804Y-40160393D01*
X8331532Y-40155429D01*
X8331531Y-40155428D01*
X8371837Y-40115122D01*
X8373460Y-40113558D01*
X8415287Y-40074750D01*
X8415289Y-40074746D01*
X8421082Y-40067482D01*
X8421758Y-40068021D01*
X8431031Y-40055928D01*
X9080244Y-39406715D01*
X9141565Y-39373232D01*
X9211257Y-39378216D01*
X9236812Y-39391295D01*
X9259894Y-39406717D01*
X9263260Y-39408966D01*
X9263263Y-39408966D01*
X9263264Y-39408967D01*
X9336321Y-39423499D01*
X9336324Y-39423500D01*
X9336326Y-39423500D01*
X10535676Y-39423500D01*
X10535677Y-39423499D01*
X10608740Y-39408966D01*
X10691601Y-39353601D01*
X10691603Y-39353597D01*
X10695387Y-39349815D01*
X10756712Y-39316333D01*
X10783065Y-39313500D01*
X11057311Y-39313500D01*
X11124350Y-39333185D01*
X11156577Y-39363188D01*
X11232455Y-39464547D01*
X11347664Y-39550793D01*
X11347671Y-39550797D01*
X11482517Y-39601091D01*
X11482516Y-39601091D01*
X11489444Y-39601835D01*
X11542127Y-39607500D01*
X12587872Y-39607499D01*
X12647483Y-39601091D01*
X12782331Y-39550796D01*
X12897546Y-39464546D01*
X12983796Y-39349331D01*
X13034091Y-39214483D01*
X13040500Y-39154873D01*
X13040499Y-38664499D01*
X13060183Y-38597461D01*
X13112987Y-38551706D01*
X13164499Y-38540500D01*
X13716000Y-38540500D01*
X13716000Y-40463232D01*
G37*
%TD.AperFunction*%
%TA.AperFunction,Conductor*%
G36*
X7530710Y-20290892D02*
G01*
X8194862Y-20955044D01*
X8210986Y-20974899D01*
X8216063Y-20982669D01*
X8242008Y-21002862D01*
X8247760Y-21007942D01*
X8250193Y-21010375D01*
X8266935Y-21022328D01*
X8268934Y-21023819D01*
X8308375Y-21054518D01*
X8314821Y-21058006D01*
X8321430Y-21061237D01*
X8321432Y-21061237D01*
X8321434Y-21061239D01*
X8338382Y-21066284D01*
X8397016Y-21104277D01*
X8425803Y-21167941D01*
X8427000Y-21185129D01*
X8427000Y-21641673D01*
X8437171Y-21692809D01*
X8437171Y-21741188D01*
X8427000Y-21792325D01*
X8427000Y-22291673D01*
X8437171Y-22342809D01*
X8437171Y-22391188D01*
X8427000Y-22442325D01*
X8427000Y-22941673D01*
X8437171Y-22992810D01*
X8437171Y-23041190D01*
X8427000Y-23092326D01*
X8427000Y-23591673D01*
X8437171Y-23642810D01*
X8437171Y-23691190D01*
X8427000Y-23742326D01*
X8427000Y-24241676D01*
X8437171Y-24292807D01*
X8437171Y-24341190D01*
X8427000Y-24392321D01*
X8427000Y-24891678D01*
X8441532Y-24964735D01*
X8441533Y-24964739D01*
X8441534Y-24964740D01*
X8496899Y-25047601D01*
X8546526Y-25080760D01*
X8579760Y-25102966D01*
X8579764Y-25102967D01*
X8652821Y-25117499D01*
X8652824Y-25117500D01*
X8652826Y-25117500D01*
X10177176Y-25117500D01*
X10177177Y-25117499D01*
X10250240Y-25102966D01*
X10333101Y-25047601D01*
X10333105Y-25047594D01*
X10341734Y-25038967D01*
X10342509Y-25039742D01*
X10386704Y-25002805D01*
X10436197Y-24992500D01*
X10542627Y-24992500D01*
X10568072Y-24995138D01*
X10577153Y-24997043D01*
X10592843Y-24995087D01*
X10609777Y-24992977D01*
X10617453Y-24992500D01*
X10620873Y-24992500D01*
X10620878Y-24992500D01*
X10630141Y-24990954D01*
X10641116Y-24989123D01*
X10643649Y-24988753D01*
X10693231Y-24982573D01*
X10693237Y-24982569D01*
X10700289Y-24980470D01*
X10707215Y-24978092D01*
X10707219Y-24978092D01*
X10736104Y-24962459D01*
X10751167Y-24954308D01*
X10753428Y-24953143D01*
X10781827Y-24939261D01*
X10850701Y-24927505D01*
X10865957Y-24930266D01*
X10873281Y-24932072D01*
X11031251Y-24932072D01*
X11184631Y-24894268D01*
X11189573Y-24891674D01*
X11324506Y-24820855D01*
X11442749Y-24716102D01*
X11532486Y-24586095D01*
X11588503Y-24438390D01*
X11607544Y-24281572D01*
X11588503Y-24124754D01*
X11532486Y-23977049D01*
X11442749Y-23847042D01*
X11353494Y-23767970D01*
X11316368Y-23708781D01*
X11317136Y-23638916D01*
X11329587Y-23613168D01*
X11329110Y-23612918D01*
X11332592Y-23606280D01*
X11332597Y-23606274D01*
X11388614Y-23458569D01*
X11407655Y-23301751D01*
X11388614Y-23144933D01*
X11388613Y-23144930D01*
X11388613Y-23144929D01*
X11379243Y-23120221D01*
X11373876Y-23050558D01*
X11407024Y-22989052D01*
X11468163Y-22955231D01*
X11495185Y-22952251D01*
X11705572Y-22952251D01*
X11772611Y-22971936D01*
X11793253Y-22988570D01*
X13147727Y-24343044D01*
X13163854Y-24362902D01*
X13168928Y-24370669D01*
X13168930Y-24370671D01*
X13194870Y-24390860D01*
X13200633Y-24395950D01*
X13203058Y-24398375D01*
X13203060Y-24398377D01*
X13219755Y-24410297D01*
X13221810Y-24411829D01*
X13228941Y-24417379D01*
X13261239Y-24442517D01*
X13261243Y-24442518D01*
X13267711Y-24446018D01*
X13274295Y-24449237D01*
X13274298Y-24449239D01*
X13322207Y-24463502D01*
X13324609Y-24464272D01*
X13371877Y-24480500D01*
X13371879Y-24480500D01*
X13379119Y-24481708D01*
X13386411Y-24482617D01*
X13436315Y-24480552D01*
X13438876Y-24480500D01*
X13716000Y-24480500D01*
X13716000Y-28507843D01*
X13647853Y-28517642D01*
X13635825Y-28515301D01*
X13605566Y-28507843D01*
X13518985Y-28486503D01*
X13361015Y-28486503D01*
X13361014Y-28486503D01*
X13207634Y-28524306D01*
X13067762Y-28597718D01*
X13054859Y-28609149D01*
X12956779Y-28696040D01*
X12949516Y-28702474D01*
X12859781Y-28832478D01*
X12859780Y-28832479D01*
X12803763Y-28980184D01*
X12795839Y-29045446D01*
X12768217Y-29109624D01*
X12710283Y-29148681D01*
X12672743Y-29154500D01*
X10831043Y-29154500D01*
X10764004Y-29134815D01*
X10718249Y-29082011D01*
X10708305Y-29012853D01*
X10737330Y-28949297D01*
X10743362Y-28942819D01*
X10880237Y-28805944D01*
X11348543Y-28337636D01*
X11368394Y-28321516D01*
X11376169Y-28316437D01*
X11396364Y-28290488D01*
X11401442Y-28284737D01*
X11403875Y-28282306D01*
X11415801Y-28265600D01*
X11417304Y-28263584D01*
X11448017Y-28224126D01*
X11448019Y-28224117D01*
X11451517Y-28217655D01*
X11454741Y-28211063D01*
X11456076Y-28206577D01*
X11469006Y-28163144D01*
X11469764Y-28160777D01*
X11486000Y-28113488D01*
X11486000Y-28113481D01*
X11487206Y-28106258D01*
X11488117Y-28098951D01*
X11486053Y-28049041D01*
X11486000Y-28046479D01*
X11486000Y-27779980D01*
X11486000Y-27499002D01*
X11505683Y-27431967D01*
X11527764Y-27406199D01*
X11625983Y-27319186D01*
X11715720Y-27189179D01*
X11771737Y-27041474D01*
X11790778Y-26884656D01*
X11771737Y-26727838D01*
X11764083Y-26707657D01*
X11729501Y-26616471D01*
X11715720Y-26580133D01*
X11625983Y-26450126D01*
X11507740Y-26345373D01*
X11507738Y-26345372D01*
X11507737Y-26345371D01*
X11367865Y-26271959D01*
X11214486Y-26234156D01*
X11214485Y-26234156D01*
X11187894Y-26234156D01*
X11120855Y-26214471D01*
X11075100Y-26161667D01*
X11064798Y-26125103D01*
X11063549Y-26114819D01*
X11050237Y-26005182D01*
X10994220Y-25857477D01*
X10904483Y-25727470D01*
X10786240Y-25622717D01*
X10786238Y-25622716D01*
X10786237Y-25622715D01*
X10646365Y-25549303D01*
X10492986Y-25511500D01*
X10492985Y-25511500D01*
X10335015Y-25511500D01*
X10335014Y-25511500D01*
X10181634Y-25549303D01*
X10041762Y-25622715D01*
X9923516Y-25727471D01*
X9833781Y-25857475D01*
X9833780Y-25857476D01*
X9777762Y-26005181D01*
X9758721Y-26161999D01*
X9758721Y-26162000D01*
X9777762Y-26318818D01*
X9824705Y-26442594D01*
X9833780Y-26466523D01*
X9912199Y-26580132D01*
X9923518Y-26596531D01*
X9942316Y-26613185D01*
X9979443Y-26672374D01*
X9978675Y-26742240D01*
X9940258Y-26800599D01*
X9876387Y-26828924D01*
X9860089Y-26830000D01*
X9623000Y-26830000D01*
X9623000Y-27605500D01*
X9603315Y-27672539D01*
X9550511Y-27718294D01*
X9499000Y-27729500D01*
X8635824Y-27729500D01*
X8562759Y-27744033D01*
X8540206Y-27759103D01*
X8473528Y-27779980D01*
X8471317Y-27780000D01*
X8160500Y-27780000D01*
X8160500Y-27827844D01*
X8166901Y-27887372D01*
X8166903Y-27887379D01*
X8217145Y-28022086D01*
X8217147Y-28022088D01*
X8303309Y-28137186D01*
X8303310Y-28137187D01*
X8360311Y-28179858D01*
X8402182Y-28235792D01*
X8410000Y-28279125D01*
X8409999Y-28454673D01*
X8420171Y-28505810D01*
X8420171Y-28554190D01*
X8410000Y-28605326D01*
X8410000Y-29104673D01*
X8420171Y-29155810D01*
X8420171Y-29204190D01*
X8410000Y-29255326D01*
X8410000Y-29754673D01*
X8420171Y-29805809D01*
X8420171Y-29854188D01*
X8410000Y-29905325D01*
X8410000Y-30404673D01*
X8420171Y-30455810D01*
X8420171Y-30504190D01*
X8410000Y-30555326D01*
X8410000Y-31054673D01*
X8420171Y-31105809D01*
X8420171Y-31154188D01*
X8410000Y-31205325D01*
X8410000Y-31704673D01*
X8420171Y-31755810D01*
X8420171Y-31804190D01*
X8410000Y-31855326D01*
X8410000Y-32134264D01*
X8390315Y-32201303D01*
X8337511Y-32247058D01*
X8268353Y-32257002D01*
X8256325Y-32254661D01*
X8206985Y-32242500D01*
X8049015Y-32242500D01*
X8049014Y-32242500D01*
X7895634Y-32280303D01*
X7755762Y-32353715D01*
X7637516Y-32458471D01*
X7547781Y-32588475D01*
X7547780Y-32588476D01*
X7491762Y-32736181D01*
X7472721Y-32892999D01*
X7472721Y-32893000D01*
X7491762Y-33049818D01*
X7531777Y-33155326D01*
X7547780Y-33197523D01*
X7637517Y-33327530D01*
X7755760Y-33432283D01*
X7755762Y-33432284D01*
X7895634Y-33505696D01*
X8049014Y-33543500D01*
X8049015Y-33543500D01*
X8206985Y-33543500D01*
X8256325Y-33531339D01*
X8326128Y-33534408D01*
X8383190Y-33574728D01*
X8409395Y-33639498D01*
X8410000Y-33651736D01*
X8410000Y-33654674D01*
X8410000Y-33654676D01*
X8409999Y-33654676D01*
X8423652Y-33723308D01*
X8417425Y-33792900D01*
X8374562Y-33848077D01*
X8308673Y-33871322D01*
X8302035Y-33871500D01*
X7211945Y-33871500D01*
X7144906Y-33851815D01*
X7109894Y-33817938D01*
X7088865Y-33787471D01*
X7088864Y-33787470D01*
X6970621Y-33682717D01*
X6970619Y-33682716D01*
X6970618Y-33682715D01*
X6830746Y-33609303D01*
X6677367Y-33571500D01*
X6677366Y-33571500D01*
X6519396Y-33571500D01*
X6519395Y-33571500D01*
X6366015Y-33609303D01*
X6226143Y-33682715D01*
X6107897Y-33787471D01*
X6042729Y-33881883D01*
X5988446Y-33925873D01*
X5918997Y-33933533D01*
X5875582Y-33916981D01*
X5836130Y-33892646D01*
X5836119Y-33892641D01*
X5669697Y-33837494D01*
X5669690Y-33837493D01*
X5566986Y-33827000D01*
X5517000Y-33827000D01*
X5516999Y-34802000D01*
X6273156Y-34802000D01*
X6330782Y-34816204D01*
X6366015Y-34834696D01*
X6519395Y-34872500D01*
X6519396Y-34872500D01*
X6677366Y-34872500D01*
X6830746Y-34834696D01*
X6893042Y-34802000D01*
X6970621Y-34761283D01*
X7088864Y-34656530D01*
X7109894Y-34626061D01*
X7164176Y-34582070D01*
X7211945Y-34572500D01*
X8531789Y-34572500D01*
X8557234Y-34575138D01*
X8566315Y-34577043D01*
X8582005Y-34575087D01*
X8598939Y-34572977D01*
X8606615Y-34572500D01*
X8610035Y-34572500D01*
X8610040Y-34572500D01*
X8619303Y-34570954D01*
X8630278Y-34569123D01*
X8632811Y-34568753D01*
X8682393Y-34562573D01*
X8682399Y-34562569D01*
X8689451Y-34560470D01*
X8696377Y-34558092D01*
X8696381Y-34558092D01*
X8725266Y-34542459D01*
X8740329Y-34534308D01*
X8742590Y-34533143D01*
X8787484Y-34511198D01*
X8787487Y-34511194D01*
X8793453Y-34506935D01*
X8799254Y-34502419D01*
X8799258Y-34502418D01*
X8833101Y-34465653D01*
X8834826Y-34463854D01*
X9381862Y-33916819D01*
X9443186Y-33883334D01*
X9469544Y-33880500D01*
X10160176Y-33880500D01*
X10160177Y-33880499D01*
X10233240Y-33865966D01*
X10316101Y-33810601D01*
X10371466Y-33727740D01*
X10386000Y-33654674D01*
X10386000Y-33406040D01*
X10405683Y-33339005D01*
X10458487Y-33293250D01*
X10527646Y-33283306D01*
X10591201Y-33312331D01*
X10597680Y-33318363D01*
X13052362Y-35773044D01*
X13068486Y-35792899D01*
X13073563Y-35800669D01*
X13099508Y-35820862D01*
X13105260Y-35825942D01*
X13107693Y-35828375D01*
X13124414Y-35840313D01*
X13126421Y-35841809D01*
X13165874Y-35872517D01*
X13165876Y-35872517D01*
X13172357Y-35876025D01*
X13178933Y-35879240D01*
X13226822Y-35893497D01*
X13229242Y-35894272D01*
X13276512Y-35910500D01*
X13276514Y-35910500D01*
X13283751Y-35911707D01*
X13291046Y-35912617D01*
X13340950Y-35910552D01*
X13343511Y-35910500D01*
X13716000Y-35910500D01*
X13716000Y-37659500D01*
X13351881Y-37659500D01*
X13284842Y-37639815D01*
X13239087Y-37587011D01*
X13229143Y-37517853D01*
X13234175Y-37496496D01*
X13279505Y-37359697D01*
X13279506Y-37359690D01*
X13289999Y-37256986D01*
X13290000Y-37256973D01*
X13290000Y-37207000D01*
X11939000Y-37207000D01*
X11871961Y-37187315D01*
X11826206Y-37134511D01*
X11815000Y-37083000D01*
X11814999Y-35957000D01*
X12314999Y-35957000D01*
X12314999Y-36706999D01*
X12315001Y-36707000D01*
X13289999Y-36707000D01*
X13289999Y-36657028D01*
X13289998Y-36657013D01*
X13279505Y-36554302D01*
X13224358Y-36387880D01*
X13224356Y-36387875D01*
X13132315Y-36238654D01*
X13008345Y-36114684D01*
X12859124Y-36022643D01*
X12859119Y-36022641D01*
X12692697Y-35967494D01*
X12692690Y-35967493D01*
X12589986Y-35957000D01*
X12314999Y-35957000D01*
X11814999Y-35957000D01*
X11540029Y-35957000D01*
X11540012Y-35957001D01*
X11437302Y-35967494D01*
X11270880Y-36022641D01*
X11270875Y-36022643D01*
X11121654Y-36114684D01*
X10997684Y-36238654D01*
X10905643Y-36387875D01*
X10905642Y-36387878D01*
X10889589Y-36436324D01*
X10849816Y-36493768D01*
X10785300Y-36520591D01*
X10716524Y-36508276D01*
X10702452Y-36498142D01*
X10701756Y-36499185D01*
X10691601Y-36492400D01*
X10691601Y-36492399D01*
X10636947Y-36455881D01*
X10608739Y-36437033D01*
X10608735Y-36437032D01*
X10535677Y-36422500D01*
X10535674Y-36422500D01*
X9336326Y-36422500D01*
X9336323Y-36422500D01*
X9263264Y-36437032D01*
X9263260Y-36437033D01*
X9180397Y-36492400D01*
X9176613Y-36496185D01*
X9115288Y-36529667D01*
X9088935Y-36532500D01*
X9029221Y-36532500D01*
X9022281Y-36532110D01*
X9011174Y-36530859D01*
X8984345Y-36527835D01*
X8928364Y-36538427D01*
X8926080Y-36538815D01*
X8869692Y-36547315D01*
X8861753Y-36549763D01*
X8853869Y-36552522D01*
X8853868Y-36552523D01*
X8853866Y-36552523D01*
X8853866Y-36552524D01*
X8803499Y-36579142D01*
X8801432Y-36580186D01*
X8750055Y-36604928D01*
X8743197Y-36609603D01*
X8736464Y-36614573D01*
X8696185Y-36654852D01*
X8694515Y-36656461D01*
X8668573Y-36680531D01*
X8665061Y-36683554D01*
X8644447Y-36699994D01*
X8644442Y-36699999D01*
X8612332Y-36747096D01*
X8610991Y-36748985D01*
X8577147Y-36794844D01*
X8573248Y-36802221D01*
X8569640Y-36809715D01*
X8552841Y-36864172D01*
X8552117Y-36866372D01*
X8533290Y-36920178D01*
X8531745Y-36928340D01*
X8530500Y-36936605D01*
X8530500Y-36993595D01*
X8530457Y-36995879D01*
X8529634Y-37017869D01*
X8528324Y-37052877D01*
X8529365Y-37062110D01*
X8528508Y-37062206D01*
X8530500Y-37077319D01*
X8530500Y-38584771D01*
X8530110Y-38591719D01*
X8525834Y-38629658D01*
X8525834Y-38629659D01*
X8527262Y-38637205D01*
X8520381Y-38706735D01*
X8493105Y-38747934D01*
X8373179Y-38867859D01*
X8311859Y-38901343D01*
X8242167Y-38896359D01*
X8186233Y-38854488D01*
X8161816Y-38789024D01*
X8161500Y-38780177D01*
X8161500Y-38548323D01*
X8161499Y-38548321D01*
X8146967Y-38475264D01*
X8146966Y-38475260D01*
X8118395Y-38432500D01*
X8091601Y-38392399D01*
X8091599Y-38392398D01*
X8091599Y-38392397D01*
X8071374Y-38378883D01*
X8026569Y-38325270D01*
X8017170Y-38260835D01*
X8017223Y-38260402D01*
X8021278Y-38227006D01*
X8002237Y-38070188D01*
X7946220Y-37922483D01*
X7882057Y-37829527D01*
X7856482Y-37792474D01*
X7797606Y-37740316D01*
X7760479Y-37681127D01*
X7761245Y-37611261D01*
X7799663Y-37552901D01*
X7863533Y-37524576D01*
X7879832Y-37523500D01*
X7935676Y-37523500D01*
X7935677Y-37523499D01*
X8008740Y-37508966D01*
X8091601Y-37453601D01*
X8146966Y-37370740D01*
X8161500Y-37297674D01*
X8161500Y-36648326D01*
X8161500Y-36648325D01*
X8161500Y-36648323D01*
X8161499Y-36648321D01*
X8146967Y-36575264D01*
X8146966Y-36575260D01*
X8091601Y-36492399D01*
X8036235Y-36455405D01*
X8008739Y-36437033D01*
X8008735Y-36437032D01*
X7935677Y-36422500D01*
X7935674Y-36422500D01*
X6736326Y-36422500D01*
X6736323Y-36422500D01*
X6663264Y-36437032D01*
X6663260Y-36437033D01*
X6580394Y-36492402D01*
X6575350Y-36497447D01*
X6514026Y-36530930D01*
X6444334Y-36525943D01*
X6388402Y-36484070D01*
X6369966Y-36448768D01*
X6366357Y-36437878D01*
X6366356Y-36437875D01*
X6274315Y-36288654D01*
X6150344Y-36164683D01*
X6144677Y-36160202D01*
X6145474Y-36159193D01*
X6103774Y-36112829D01*
X6092553Y-36043867D01*
X6110057Y-35994143D01*
X6201356Y-35846124D01*
X6201358Y-35846119D01*
X6256505Y-35679697D01*
X6256506Y-35679690D01*
X6266999Y-35576986D01*
X6267000Y-35576973D01*
X6267000Y-35302000D01*
X5517000Y-35302000D01*
X5517000Y-36205637D01*
X5497315Y-36272676D01*
X5480682Y-36293318D01*
X5457000Y-36317000D01*
X5457000Y-37133000D01*
X5437315Y-37200039D01*
X5384511Y-37245794D01*
X5333000Y-37257000D01*
X5081000Y-37257000D01*
X5013961Y-37237315D01*
X4968206Y-37184511D01*
X4957000Y-37133000D01*
X4957000Y-36078362D01*
X4976685Y-36011323D01*
X4993319Y-35990681D01*
X5017000Y-35967000D01*
X5016999Y-33827000D01*
X5016999Y-33826999D01*
X4967029Y-33827000D01*
X4967011Y-33827001D01*
X4864302Y-33837494D01*
X4697880Y-33892641D01*
X4697871Y-33892645D01*
X4650507Y-33921860D01*
X4583114Y-33940300D01*
X4516451Y-33919377D01*
X4471682Y-33865735D01*
X4463021Y-33796404D01*
X4482310Y-33747429D01*
X4495466Y-33727740D01*
X4510000Y-33654674D01*
X4510000Y-33229500D01*
X4529685Y-33162461D01*
X4582489Y-33116706D01*
X4634000Y-33105500D01*
X5860635Y-33105500D01*
X5927674Y-33125185D01*
X5942860Y-33136682D01*
X5993204Y-33181283D01*
X5993206Y-33181284D01*
X6133078Y-33254696D01*
X6286458Y-33292500D01*
X6286459Y-33292500D01*
X6444429Y-33292500D01*
X6597809Y-33254696D01*
X6674669Y-33214356D01*
X6737684Y-33181283D01*
X6855927Y-33076530D01*
X6945664Y-32946523D01*
X7001681Y-32798818D01*
X7020722Y-32642000D01*
X7001681Y-32485182D01*
X6993760Y-32464297D01*
X6960697Y-32377116D01*
X6945664Y-32337477D01*
X6855927Y-32207470D01*
X6737684Y-32102717D01*
X6737682Y-32102716D01*
X6737681Y-32102715D01*
X6597809Y-32029303D01*
X6444430Y-31991500D01*
X6444429Y-31991500D01*
X6328906Y-31991500D01*
X6261867Y-31971815D01*
X6216112Y-31919011D01*
X6205812Y-31882461D01*
X6205311Y-31878339D01*
X6216763Y-31809414D01*
X6263661Y-31757623D01*
X6328405Y-31739378D01*
X6462527Y-31739378D01*
X6615907Y-31701574D01*
X6621657Y-31698556D01*
X6755782Y-31628161D01*
X6874025Y-31523408D01*
X6963762Y-31393401D01*
X7019779Y-31245696D01*
X7038820Y-31088878D01*
X7019779Y-30932060D01*
X6963762Y-30784355D01*
X6874025Y-30654348D01*
X6755782Y-30549595D01*
X6755780Y-30549594D01*
X6755779Y-30549593D01*
X6615907Y-30476181D01*
X6462528Y-30438378D01*
X6462527Y-30438378D01*
X6304557Y-30438378D01*
X6304556Y-30438378D01*
X6263305Y-30448545D01*
X6193503Y-30445475D01*
X6136441Y-30405155D01*
X6117691Y-30372121D01*
X6089750Y-30298447D01*
X6000013Y-30168440D01*
X5881770Y-30063687D01*
X5881768Y-30063686D01*
X5881767Y-30063685D01*
X5847235Y-30045561D01*
X5797023Y-29996977D01*
X5781048Y-29928958D01*
X5788920Y-29891793D01*
X5818038Y-29815017D01*
X5818038Y-29815015D01*
X5818039Y-29815013D01*
X5837080Y-29658195D01*
X5837080Y-29658194D01*
X5837080Y-29650695D01*
X5838590Y-29650695D01*
X5848644Y-29590187D01*
X5895543Y-29538396D01*
X5930606Y-29523757D01*
X6045560Y-29495425D01*
X6185435Y-29422012D01*
X6303678Y-29317259D01*
X6393415Y-29187252D01*
X6449432Y-29039547D01*
X6468473Y-28882729D01*
X6462372Y-28832478D01*
X6449432Y-28725910D01*
X6403700Y-28605326D01*
X6393415Y-28578206D01*
X6303678Y-28448199D01*
X6185435Y-28343446D01*
X6143638Y-28321509D01*
X6061291Y-28278289D01*
X6011079Y-28229704D01*
X5995105Y-28161685D01*
X5995822Y-28153546D01*
X5996494Y-28148005D01*
X5996496Y-28148002D01*
X6015537Y-27991184D01*
X5996496Y-27834366D01*
X5940479Y-27686661D01*
X5850742Y-27556654D01*
X5732499Y-27451901D01*
X5732497Y-27451900D01*
X5732496Y-27451899D01*
X5592625Y-27378488D01*
X5569004Y-27372666D01*
X5508623Y-27337509D01*
X5504787Y-27330000D01*
X8160500Y-27330000D01*
X9173000Y-27330000D01*
X9173000Y-26830000D01*
X8612655Y-26830000D01*
X8553127Y-26836401D01*
X8553120Y-26836403D01*
X8418413Y-26886645D01*
X8418406Y-26886649D01*
X8303312Y-26972809D01*
X8303309Y-26972812D01*
X8217149Y-27087906D01*
X8217145Y-27087913D01*
X8166903Y-27222620D01*
X8166901Y-27222627D01*
X8160500Y-27282155D01*
X8160500Y-27330000D01*
X5504787Y-27330000D01*
X5476835Y-27275290D01*
X5475583Y-27237325D01*
X5487135Y-27142187D01*
X5468094Y-26985369D01*
X5462434Y-26970446D01*
X5433511Y-26894181D01*
X5412077Y-26837664D01*
X5322340Y-26707657D01*
X5204097Y-26602904D01*
X5204095Y-26602903D01*
X5204094Y-26602902D01*
X5064222Y-26529490D01*
X4910843Y-26491687D01*
X4910842Y-26491687D01*
X4752872Y-26491687D01*
X4752871Y-26491687D01*
X4599491Y-26529490D01*
X4459619Y-26602902D01*
X4341373Y-26707658D01*
X4251638Y-26837662D01*
X4251637Y-26837663D01*
X4192960Y-26992382D01*
X4191740Y-26991919D01*
X4160515Y-27045553D01*
X4098297Y-27077343D01*
X4075271Y-27079500D01*
X3816593Y-27079500D01*
X3749554Y-27059815D01*
X3703799Y-27007011D01*
X3693497Y-26970446D01*
X3684237Y-26894182D01*
X3628220Y-26746477D01*
X3538483Y-26616470D01*
X3420240Y-26511717D01*
X3420238Y-26511716D01*
X3420237Y-26511715D01*
X3280365Y-26438303D01*
X3126986Y-26400500D01*
X3126985Y-26400500D01*
X2969015Y-26400500D01*
X2969014Y-26400500D01*
X2808351Y-26440099D01*
X2807845Y-26438047D01*
X2748805Y-26442594D01*
X2687299Y-26409445D01*
X2653480Y-26348306D01*
X2650500Y-26321286D01*
X2650500Y-25491000D01*
X2670185Y-25423961D01*
X2722989Y-25378206D01*
X2774500Y-25367000D01*
X3314000Y-25367000D01*
X3314000Y-24591500D01*
X3333685Y-24524461D01*
X3386489Y-24478706D01*
X3438000Y-24467500D01*
X3640000Y-24467500D01*
X3707039Y-24487185D01*
X3752794Y-24539989D01*
X3764000Y-24591500D01*
X3764000Y-25367000D01*
X3766614Y-25367000D01*
X3833653Y-25386685D01*
X3879408Y-25439489D01*
X3889709Y-25505945D01*
X3884445Y-25549303D01*
X3882881Y-25562187D01*
X3901921Y-25719005D01*
X3954437Y-25857475D01*
X3957939Y-25866710D01*
X4047676Y-25996717D01*
X4165919Y-26101470D01*
X4165921Y-26101471D01*
X4305793Y-26174883D01*
X4459173Y-26212687D01*
X4459174Y-26212687D01*
X4617144Y-26212687D01*
X4770524Y-26174883D01*
X4795072Y-26161999D01*
X4910399Y-26101470D01*
X5028642Y-25996717D01*
X5118379Y-25866710D01*
X5174396Y-25719005D01*
X5193437Y-25562187D01*
X5184794Y-25491000D01*
X5174396Y-25405368D01*
X5144704Y-25327077D01*
X5118379Y-25257664D01*
X5118377Y-25257661D01*
X5114892Y-25251020D01*
X5116885Y-25249973D01*
X5098496Y-25194200D01*
X5115965Y-25126549D01*
X5167235Y-25079082D01*
X5222429Y-25066121D01*
X5359340Y-25066121D01*
X5512720Y-25028317D01*
X5561328Y-25002805D01*
X5652595Y-24954904D01*
X5770838Y-24850151D01*
X5860575Y-24720144D01*
X5916592Y-24572439D01*
X5935633Y-24415621D01*
X5933245Y-24395958D01*
X5916592Y-24258803D01*
X5916592Y-24258802D01*
X5884514Y-24174221D01*
X5879148Y-24104563D01*
X5912295Y-24043057D01*
X5942829Y-24020459D01*
X5969545Y-24006438D01*
X6087788Y-23901685D01*
X6177525Y-23771678D01*
X6233542Y-23623973D01*
X6252583Y-23467155D01*
X6251541Y-23458569D01*
X6233542Y-23310336D01*
X6209277Y-23246356D01*
X6177525Y-23162632D01*
X6165308Y-23144933D01*
X6111159Y-23066484D01*
X6087788Y-23032625D01*
X6087785Y-23032623D01*
X6086524Y-23030795D01*
X6064641Y-22964441D01*
X6082106Y-22896789D01*
X6086498Y-22889953D01*
X6168109Y-22771720D01*
X6200908Y-22685234D01*
X6243086Y-22629532D01*
X6308683Y-22605475D01*
X6346524Y-22608808D01*
X6398015Y-22621500D01*
X6555985Y-22621500D01*
X6709365Y-22583696D01*
X6709364Y-22583696D01*
X6849240Y-22510283D01*
X6967483Y-22405530D01*
X7057220Y-22275523D01*
X7113237Y-22127818D01*
X7132278Y-21971000D01*
X7113237Y-21814182D01*
X7057220Y-21666477D01*
X6967483Y-21536470D01*
X6849240Y-21431717D01*
X6849238Y-21431716D01*
X6849237Y-21431715D01*
X6709365Y-21358303D01*
X6699087Y-21355770D01*
X6638708Y-21320612D01*
X6606921Y-21258391D01*
X6605670Y-21220427D01*
X6607547Y-21204973D01*
X6624278Y-21067179D01*
X6624278Y-21067176D01*
X6620730Y-21037953D01*
X6632191Y-20969030D01*
X6679096Y-20917244D01*
X6743826Y-20899008D01*
X6757618Y-20899008D01*
X6910998Y-20861204D01*
X6910997Y-20861204D01*
X7050873Y-20787791D01*
X7169116Y-20683038D01*
X7258853Y-20553031D01*
X7314870Y-20405326D01*
X7319933Y-20363626D01*
X7347554Y-20299449D01*
X7405488Y-20260392D01*
X7475341Y-20258857D01*
X7530710Y-20290892D01*
G37*
%TD.AperFunction*%
%TA.AperFunction,Conductor*%
G36*
X11012130Y-37692685D02*
G01*
X11030682Y-37714096D01*
X11033559Y-37711220D01*
X11121654Y-37799315D01*
X11270875Y-37891356D01*
X11270880Y-37891358D01*
X11363140Y-37921930D01*
X11420585Y-37961702D01*
X11447408Y-38026218D01*
X11435093Y-38094994D01*
X11387550Y-38146194D01*
X11367471Y-38155817D01*
X11347674Y-38163201D01*
X11347664Y-38163206D01*
X11232455Y-38249452D01*
X11226183Y-38255725D01*
X11224672Y-38254214D01*
X11178332Y-38288904D01*
X11108640Y-38293888D01*
X11047318Y-38260402D01*
X11013833Y-38199079D01*
X11011033Y-38173033D01*
X11011000Y-38173000D01*
X9810000Y-38173000D01*
X9742961Y-38153315D01*
X9697206Y-38100511D01*
X9686000Y-38049000D01*
X9686000Y-37797000D01*
X9705685Y-37729961D01*
X9758489Y-37684206D01*
X9810000Y-37673000D01*
X10945091Y-37673000D01*
X11012130Y-37692685D01*
G37*
%TD.AperFunction*%
%TA.AperFunction,Conductor*%
G36*
X4243787Y-35684029D02*
G01*
X4293194Y-35733433D01*
X4302069Y-35753859D01*
X4332641Y-35846119D01*
X4332645Y-35846128D01*
X4390870Y-35940526D01*
X4409310Y-36007918D01*
X4388387Y-36074582D01*
X4350429Y-36111160D01*
X4263656Y-36164682D01*
X4139684Y-36288654D01*
X4047643Y-36437875D01*
X4044592Y-36444421D01*
X4042187Y-36443299D01*
X4009425Y-36490610D01*
X3944907Y-36517428D01*
X3876132Y-36505107D01*
X3824936Y-36457560D01*
X3807500Y-36394155D01*
X3807500Y-36071666D01*
X3827185Y-36004627D01*
X3857189Y-35972399D01*
X3859329Y-35970796D01*
X3859331Y-35970796D01*
X3974546Y-35884546D01*
X4060796Y-35769331D01*
X4068180Y-35749532D01*
X4110050Y-35693598D01*
X4175514Y-35669179D01*
X4243787Y-35684029D01*
G37*
%TD.AperFunction*%
%TA.AperFunction,Conductor*%
G36*
X2053332Y-33259361D02*
G01*
X2109266Y-33301232D01*
X2133683Y-33366697D01*
X2133999Y-33375543D01*
X2133999Y-35418955D01*
X2114314Y-35485994D01*
X2097680Y-35506636D01*
X1524000Y-36080316D01*
X1524000Y-33686182D01*
X1922322Y-33287859D01*
X1983641Y-33254377D01*
X2053332Y-33259361D01*
G37*
%TD.AperFunction*%
%TA.AperFunction,Conductor*%
G36*
X13716000Y-35209500D02*
G01*
X13531544Y-35209500D01*
X13464505Y-35189815D01*
X13443863Y-35173181D01*
X11852863Y-33582181D01*
X11819378Y-33520858D01*
X11824362Y-33451166D01*
X11866234Y-33395233D01*
X11931698Y-33370816D01*
X11940544Y-33370500D01*
X13716000Y-33370500D01*
X13716000Y-35209500D01*
G37*
%TD.AperFunction*%
%TA.AperFunction,Conductor*%
G36*
X13716000Y-32325448D02*
G01*
X13716000Y-32669500D01*
X11871038Y-32669500D01*
X11803999Y-32649815D01*
X11758244Y-32597011D01*
X11748300Y-32527853D01*
X11777325Y-32464297D01*
X11788812Y-32452684D01*
X11839720Y-32407584D01*
X11860750Y-32377115D01*
X11915032Y-32333124D01*
X11962801Y-32323554D01*
X13697735Y-32323554D01*
X13716000Y-32325448D01*
G37*
%TD.AperFunction*%
%TA.AperFunction,Conductor*%
G36*
X1864143Y-29905325D02*
G01*
X2201637Y-30242819D01*
X2235122Y-30304142D01*
X2230138Y-30373834D01*
X2188266Y-30429767D01*
X2122802Y-30454184D01*
X2113956Y-30454500D01*
X1524000Y-30454500D01*
X1524000Y-29565182D01*
X1864143Y-29905325D01*
G37*
%TD.AperFunction*%
%TA.AperFunction,Conductor*%
G36*
X1546665Y-22390184D02*
G01*
X1549499Y-22416542D01*
X1549499Y-23614455D01*
X1529814Y-23681494D01*
X1524000Y-23686531D01*
X1523999Y-22348676D01*
X1546665Y-22390184D01*
G37*
%TD.AperFunction*%
%TA.AperFunction,Conductor*%
G36*
X13178906Y-20415176D02*
G01*
X13213917Y-20449051D01*
X13252852Y-20505458D01*
X13371095Y-20610211D01*
X13371097Y-20610212D01*
X13510969Y-20683624D01*
X13664349Y-20721428D01*
X13716000Y-20721428D01*
X13716000Y-21815885D01*
X13698460Y-21790474D01*
X13580217Y-21685721D01*
X13580215Y-21685720D01*
X13580214Y-21685719D01*
X13440342Y-21612307D01*
X13286963Y-21574504D01*
X13286962Y-21574504D01*
X13128992Y-21574504D01*
X13128989Y-21574504D01*
X13123006Y-21575230D01*
X13054083Y-21563765D01*
X13031911Y-21549991D01*
X13020216Y-21540888D01*
X13014466Y-21535811D01*
X13012031Y-21533376D01*
X12995333Y-21521454D01*
X12993279Y-21519922D01*
X12967999Y-21500247D01*
X12953850Y-21489234D01*
X12953848Y-21489233D01*
X12947372Y-21485728D01*
X12940790Y-21482510D01*
X12892906Y-21468254D01*
X12890467Y-21467473D01*
X12843208Y-21451249D01*
X12835993Y-21450045D01*
X12828677Y-21449133D01*
X12779863Y-21451152D01*
X12778773Y-21451198D01*
X12776213Y-21451251D01*
X12767130Y-21451251D01*
X12700091Y-21431566D01*
X12654336Y-21378762D01*
X12645104Y-21314562D01*
X12643818Y-21314431D01*
X12654999Y-21204986D01*
X12655000Y-21204973D01*
X12655000Y-21155000D01*
X11304000Y-21155000D01*
X11236961Y-21135315D01*
X11191206Y-21082511D01*
X11180000Y-21031000D01*
X11180000Y-20779000D01*
X11199685Y-20711961D01*
X11252489Y-20666206D01*
X11304000Y-20655000D01*
X12654999Y-20655000D01*
X12654999Y-20605028D01*
X12654998Y-20605013D01*
X12647549Y-20532093D01*
X12660319Y-20463400D01*
X12708199Y-20412516D01*
X12770907Y-20395491D01*
X13111867Y-20395491D01*
X13178906Y-20415176D01*
G37*
%TD.AperFunction*%
%TA.AperFunction,Conductor*%
G36*
X13716000Y-19420428D02*
G01*
X13664349Y-19420428D01*
X13510969Y-19458231D01*
X13371097Y-19531643D01*
X13371094Y-19531645D01*
X13371095Y-19531645D01*
X13253514Y-19635812D01*
X13252850Y-19636400D01*
X13249722Y-19640932D01*
X13195439Y-19684922D01*
X13147673Y-19694491D01*
X12448925Y-19694491D01*
X12381886Y-19674806D01*
X12336131Y-19622002D01*
X12326187Y-19552844D01*
X12345696Y-19505742D01*
X12344546Y-19505114D01*
X12348793Y-19497334D01*
X12348796Y-19497331D01*
X12399091Y-19362483D01*
X12405500Y-19302873D01*
X12405499Y-18935499D01*
X12425183Y-18868461D01*
X12477987Y-18822706D01*
X12529499Y-18811500D01*
X12651985Y-18811500D01*
X12805365Y-18773696D01*
X12822477Y-18764715D01*
X12945240Y-18700283D01*
X13063483Y-18595530D01*
X13153220Y-18465523D01*
X13209237Y-18317818D01*
X13228278Y-18161000D01*
X13226161Y-18143560D01*
X13209237Y-18004181D01*
X13175766Y-17915926D01*
X13153220Y-17856477D01*
X13063483Y-17726470D01*
X12945240Y-17621717D01*
X12945238Y-17621716D01*
X12945237Y-17621715D01*
X12805365Y-17548303D01*
X12651986Y-17510500D01*
X12651985Y-17510500D01*
X12494015Y-17510500D01*
X12494014Y-17510500D01*
X12340634Y-17548303D01*
X12200762Y-17621715D01*
X12082515Y-17726471D01*
X12061487Y-17756938D01*
X12007205Y-17800930D01*
X11959436Y-17810500D01*
X11832659Y-17810500D01*
X11765620Y-17790815D01*
X11719865Y-17738011D01*
X11709921Y-17668853D01*
X11730609Y-17616060D01*
X11775972Y-17550340D01*
X11819070Y-17487902D01*
X11875087Y-17340197D01*
X11894128Y-17183379D01*
X11885832Y-17115050D01*
X11875087Y-17026560D01*
X11843790Y-16944037D01*
X11819070Y-16878856D01*
X11729333Y-16748849D01*
X11611090Y-16644096D01*
X11611088Y-16644095D01*
X11611087Y-16644094D01*
X11471215Y-16570682D01*
X11317836Y-16532879D01*
X11317835Y-16532879D01*
X11159865Y-16532879D01*
X11159864Y-16532879D01*
X11006484Y-16570682D01*
X10866612Y-16644094D01*
X10748366Y-16748850D01*
X10658631Y-16878854D01*
X10658630Y-16878855D01*
X10624644Y-16968471D01*
X10582466Y-17024174D01*
X10516869Y-17048231D01*
X10508702Y-17048500D01*
X6968683Y-17048500D01*
X6943236Y-17045861D01*
X6940988Y-17045389D01*
X6934158Y-17043957D01*
X6901545Y-17048023D01*
X6893868Y-17048500D01*
X6890436Y-17048500D01*
X6870191Y-17051878D01*
X6867658Y-17052247D01*
X6818084Y-17058426D01*
X6811038Y-17060524D01*
X6804094Y-17062908D01*
X6760135Y-17086696D01*
X6757859Y-17087868D01*
X6712990Y-17109803D01*
X6707015Y-17114068D01*
X6701217Y-17118582D01*
X6667375Y-17155342D01*
X6665602Y-17157190D01*
X6608613Y-17214180D01*
X6547292Y-17247666D01*
X6520932Y-17250500D01*
X2049543Y-17250500D01*
X1982504Y-17230815D01*
X1961862Y-17214181D01*
X1524000Y-16776319D01*
X1524000Y-16384000D01*
X2030500Y-16384000D01*
X2030500Y-16431844D01*
X2036901Y-16491372D01*
X2036903Y-16491379D01*
X2087145Y-16626086D01*
X2087149Y-16626093D01*
X2173309Y-16741187D01*
X2173312Y-16741190D01*
X2288406Y-16827350D01*
X2288413Y-16827354D01*
X2423120Y-16877596D01*
X2423127Y-16877598D01*
X2482655Y-16883999D01*
X2482672Y-16884000D01*
X3043000Y-16884000D01*
X3043000Y-16384000D01*
X3493000Y-16384000D01*
X3493000Y-16884000D01*
X4053328Y-16884000D01*
X4053344Y-16883999D01*
X4112872Y-16877598D01*
X4112879Y-16877596D01*
X4247586Y-16827354D01*
X4247593Y-16827350D01*
X4362687Y-16741190D01*
X4362690Y-16741187D01*
X4448850Y-16626093D01*
X4448854Y-16626086D01*
X4499096Y-16491379D01*
X4499098Y-16491372D01*
X4505499Y-16431844D01*
X4505500Y-16431827D01*
X4505500Y-16384000D01*
X3493000Y-16384000D01*
X3043000Y-16384000D01*
X2030500Y-16384000D01*
X1524000Y-16384000D01*
X1524000Y-14559500D01*
X2100512Y-14559500D01*
X2141938Y-14559500D01*
X2147059Y-14559712D01*
X2161796Y-14560932D01*
X2166236Y-14561300D01*
X2231421Y-14586452D01*
X2272661Y-14642853D01*
X2279999Y-14684877D01*
X2279999Y-15108673D01*
X2290171Y-15159810D01*
X2290171Y-15208190D01*
X2280000Y-15259326D01*
X2280000Y-15434873D01*
X2260315Y-15501912D01*
X2230312Y-15534139D01*
X2173314Y-15576807D01*
X2173308Y-15576814D01*
X2087149Y-15691906D01*
X2087145Y-15691913D01*
X2036903Y-15826620D01*
X2036901Y-15826627D01*
X2030500Y-15886155D01*
X2030500Y-15934000D01*
X2341317Y-15934000D01*
X2408356Y-15953685D01*
X2410206Y-15954897D01*
X2432759Y-15969966D01*
X2505823Y-15984500D01*
X2505826Y-15984500D01*
X4030176Y-15984500D01*
X4030177Y-15984499D01*
X4103240Y-15969966D01*
X4105479Y-15968469D01*
X4107665Y-15967010D01*
X4174342Y-15946131D01*
X4176557Y-15946111D01*
X4709449Y-15946111D01*
X4734894Y-15948749D01*
X4743975Y-15950654D01*
X4759665Y-15948698D01*
X4776599Y-15946588D01*
X4784275Y-15946111D01*
X4787699Y-15946111D01*
X4787700Y-15946111D01*
X4789996Y-15945727D01*
X4810404Y-15944037D01*
X5099192Y-15944037D01*
X5166231Y-15963722D01*
X5211986Y-16016526D01*
X5221930Y-16085684D01*
X5215134Y-16112007D01*
X5205763Y-16136715D01*
X5205763Y-16136717D01*
X5186721Y-16293536D01*
X5186721Y-16293537D01*
X5205762Y-16450355D01*
X5249091Y-16564602D01*
X5261780Y-16598060D01*
X5351517Y-16728067D01*
X5469760Y-16832820D01*
X5469762Y-16832821D01*
X5609634Y-16906233D01*
X5763014Y-16944037D01*
X5763015Y-16944037D01*
X5920985Y-16944037D01*
X6074365Y-16906233D01*
X6116726Y-16884000D01*
X6214240Y-16832820D01*
X6332483Y-16728067D01*
X6422220Y-16598060D01*
X6425455Y-16589528D01*
X6467633Y-16533827D01*
X6533230Y-16509769D01*
X6541397Y-16509500D01*
X8122803Y-16509500D01*
X8189842Y-16529185D01*
X8217186Y-16556046D01*
X8217266Y-16555967D01*
X8225896Y-16564597D01*
X8225899Y-16564601D01*
X8308760Y-16619966D01*
X8308763Y-16619966D01*
X8308764Y-16619967D01*
X8381821Y-16634499D01*
X8381824Y-16634500D01*
X8381826Y-16634500D01*
X9906176Y-16634500D01*
X9906177Y-16634499D01*
X9979240Y-16619966D01*
X10062101Y-16564601D01*
X10117466Y-16481740D01*
X10132000Y-16408674D01*
X10132000Y-16379736D01*
X10151685Y-16312698D01*
X10204489Y-16266943D01*
X10273647Y-16256999D01*
X10285665Y-16259338D01*
X10335009Y-16271500D01*
X10492979Y-16271500D01*
X10646359Y-16233696D01*
X10646358Y-16233696D01*
X10786234Y-16160283D01*
X10904477Y-16055530D01*
X10994214Y-15925523D01*
X11050231Y-15777818D01*
X11069272Y-15621000D01*
X11069009Y-15618829D01*
X11050231Y-15464181D01*
X11011614Y-15362358D01*
X10994214Y-15316477D01*
X10994212Y-15316474D01*
X10994210Y-15316470D01*
X10930950Y-15224821D01*
X10909067Y-15158467D01*
X10909000Y-15154382D01*
X10909000Y-14678000D01*
X11409000Y-14678000D01*
X11409000Y-15427999D01*
X11683972Y-15427999D01*
X11683986Y-15427998D01*
X11786697Y-15417505D01*
X11953119Y-15362358D01*
X11953124Y-15362356D01*
X12102345Y-15270315D01*
X12226315Y-15146345D01*
X12318356Y-14997124D01*
X12318358Y-14997119D01*
X12373505Y-14830697D01*
X12373506Y-14830690D01*
X12383999Y-14727986D01*
X12384000Y-14727973D01*
X12384000Y-14678000D01*
X11409000Y-14678000D01*
X10909000Y-14678000D01*
X10909000Y-14302000D01*
X10928685Y-14234961D01*
X10981489Y-14189206D01*
X11033000Y-14178000D01*
X12383999Y-14178000D01*
X12383999Y-14128028D01*
X12383998Y-14128013D01*
X12373505Y-14025301D01*
X12362969Y-13993503D01*
X12360567Y-13923675D01*
X12396299Y-13863633D01*
X12458820Y-13832441D01*
X12480675Y-13830500D01*
X12759789Y-13830500D01*
X12785234Y-13833138D01*
X12794315Y-13835043D01*
X12810005Y-13833087D01*
X12826939Y-13830977D01*
X12834615Y-13830500D01*
X12838035Y-13830500D01*
X12838040Y-13830500D01*
X12847303Y-13828954D01*
X12858278Y-13827123D01*
X12860811Y-13826753D01*
X12910393Y-13820573D01*
X12910399Y-13820569D01*
X12917451Y-13818470D01*
X12924377Y-13816092D01*
X12924381Y-13816092D01*
X12953266Y-13800459D01*
X12968329Y-13792308D01*
X12970590Y-13791143D01*
X13015484Y-13769198D01*
X13015487Y-13769194D01*
X13021453Y-13764935D01*
X13027254Y-13760419D01*
X13027258Y-13760418D01*
X13061101Y-13723653D01*
X13062826Y-13721854D01*
X13697862Y-13086819D01*
X13716000Y-13076915D01*
X13716000Y-19420428D01*
G37*
%TD.AperFunction*%
%TA.AperFunction,Conductor*%
G36*
X1570360Y-17814041D02*
G01*
X1586484Y-17833896D01*
X1591563Y-17841669D01*
X1610589Y-17856477D01*
X1617509Y-17861863D01*
X1623272Y-17866953D01*
X1625694Y-17869375D01*
X1631630Y-17873613D01*
X1642391Y-17881296D01*
X1644429Y-17882816D01*
X1683874Y-17913517D01*
X1683875Y-17913517D01*
X1683876Y-17913518D01*
X1690342Y-17917017D01*
X1696933Y-17920240D01*
X1744822Y-17934497D01*
X1747242Y-17935272D01*
X1794512Y-17951500D01*
X1794517Y-17951500D01*
X1801768Y-17952710D01*
X1809046Y-17953617D01*
X1858962Y-17951552D01*
X1861521Y-17951500D01*
X2416813Y-17951500D01*
X2483852Y-17971185D01*
X2529607Y-18023989D01*
X2539551Y-18093147D01*
X2510526Y-18156703D01*
X2491125Y-18174766D01*
X2444309Y-18209812D01*
X2358149Y-18324906D01*
X2358145Y-18324913D01*
X2307903Y-18459620D01*
X2307901Y-18459627D01*
X2301500Y-18519155D01*
X2301500Y-18519172D01*
X2301499Y-18567000D01*
X4776500Y-18567000D01*
X4776500Y-18519172D01*
X4776499Y-18519155D01*
X4770098Y-18459627D01*
X4770096Y-18459620D01*
X4719854Y-18324913D01*
X4719850Y-18324906D01*
X4633690Y-18209812D01*
X4586875Y-18174766D01*
X4545005Y-18118832D01*
X4540021Y-18049140D01*
X4573507Y-17987818D01*
X4634830Y-17954333D01*
X4661187Y-17951500D01*
X6668267Y-17951500D01*
X6693712Y-17954138D01*
X6702793Y-17956043D01*
X6718483Y-17954087D01*
X6735417Y-17951977D01*
X6743093Y-17951500D01*
X6746515Y-17951500D01*
X6746517Y-17951500D01*
X6746519Y-17951499D01*
X6746525Y-17951499D01*
X6754914Y-17950098D01*
X6766763Y-17948120D01*
X6769282Y-17947754D01*
X6783088Y-17946033D01*
X6818871Y-17941573D01*
X6818872Y-17941572D01*
X6825880Y-17939486D01*
X6832850Y-17937093D01*
X6832858Y-17937092D01*
X6876828Y-17913295D01*
X6879033Y-17912161D01*
X6904387Y-17899766D01*
X6973260Y-17888009D01*
X7037556Y-17915353D01*
X7076863Y-17973118D01*
X7078699Y-18042963D01*
X7076128Y-18051427D01*
X7067498Y-18076565D01*
X7066294Y-18083783D01*
X7065382Y-18091096D01*
X7067447Y-18140998D01*
X7067500Y-18143560D01*
X7067500Y-19516111D01*
X7047815Y-19583150D01*
X6995011Y-19628905D01*
X6925853Y-19638849D01*
X6913826Y-19636508D01*
X6822211Y-19613928D01*
X6761830Y-19578773D01*
X6730041Y-19516554D01*
X6731366Y-19468268D01*
X6731333Y-19468264D01*
X6731376Y-19467902D01*
X6731488Y-19463855D01*
X6732233Y-19460827D01*
X6732237Y-19460818D01*
X6751278Y-19304000D01*
X6745825Y-19259086D01*
X6732237Y-19147181D01*
X6701004Y-19064827D01*
X6676220Y-18999477D01*
X6586483Y-18869470D01*
X6468240Y-18764717D01*
X6468238Y-18764716D01*
X6468237Y-18764715D01*
X6328365Y-18691303D01*
X6174986Y-18653500D01*
X6174985Y-18653500D01*
X6017015Y-18653500D01*
X6017014Y-18653500D01*
X5863634Y-18691303D01*
X5723762Y-18764715D01*
X5605516Y-18869471D01*
X5515781Y-18999475D01*
X5515780Y-18999476D01*
X5467237Y-19127474D01*
X5425059Y-19183177D01*
X5359461Y-19207234D01*
X5351295Y-19207503D01*
X4899207Y-19207503D01*
X4832168Y-19187818D01*
X4786413Y-19135014D01*
X4775918Y-19070244D01*
X4776499Y-19064836D01*
X4776500Y-19064827D01*
X4776500Y-19017000D01*
X4465683Y-19017000D01*
X4398644Y-18997315D01*
X4396794Y-18996103D01*
X4374240Y-18981033D01*
X4301176Y-18966500D01*
X4301174Y-18966500D01*
X2776826Y-18966500D01*
X2776824Y-18966500D01*
X2703759Y-18981033D01*
X2681206Y-18996103D01*
X2614528Y-19016980D01*
X2612317Y-19017000D01*
X2301500Y-19017000D01*
X2301500Y-19064844D01*
X2307901Y-19124372D01*
X2307903Y-19124379D01*
X2358145Y-19259086D01*
X2358147Y-19259088D01*
X2444309Y-19374186D01*
X2444310Y-19374187D01*
X2501311Y-19416858D01*
X2543182Y-19472792D01*
X2551000Y-19516125D01*
X2551000Y-19535956D01*
X2531315Y-19602995D01*
X2478511Y-19648750D01*
X2409353Y-19658694D01*
X2345797Y-19629669D01*
X2339319Y-19623637D01*
X1524000Y-18808318D01*
X1524000Y-17767681D01*
X1570360Y-17814041D01*
G37*
%TD.AperFunction*%
%TA.AperFunction,Conductor*%
G36*
X2240246Y-7372767D02*
G01*
X2276063Y-7432757D01*
X2280000Y-7463754D01*
X2280000Y-7727673D01*
X2290171Y-7778810D01*
X2290171Y-7827190D01*
X2280000Y-7878326D01*
X2280000Y-8377673D01*
X2290171Y-8428809D01*
X2290171Y-8477188D01*
X2280000Y-8528325D01*
X2280000Y-8703873D01*
X2260315Y-8770912D01*
X2230312Y-8803139D01*
X2173314Y-8845807D01*
X2173308Y-8845814D01*
X2087149Y-8960906D01*
X2087145Y-8960913D01*
X2036903Y-9095620D01*
X2036901Y-9095627D01*
X2030500Y-9155155D01*
X2030500Y-9203000D01*
X2341317Y-9203000D01*
X2408356Y-9222685D01*
X2410206Y-9223897D01*
X2432759Y-9238966D01*
X2505823Y-9253500D01*
X3369000Y-9253500D01*
X3436039Y-9273185D01*
X3481794Y-9325989D01*
X3493000Y-9377500D01*
X3493000Y-10153000D01*
X4053328Y-10153000D01*
X4053344Y-10152999D01*
X4112872Y-10146598D01*
X4112879Y-10146596D01*
X4247586Y-10096354D01*
X4247593Y-10096350D01*
X4362687Y-10010190D01*
X4362690Y-10010187D01*
X4448850Y-9895093D01*
X4448854Y-9895086D01*
X4499096Y-9760379D01*
X4499097Y-9760377D01*
X4499723Y-9754554D01*
X4526456Y-9690001D01*
X4583846Y-9650149D01*
X4653671Y-9647651D01*
X4663273Y-9650519D01*
X4672041Y-9653529D01*
X4672042Y-9653529D01*
X4679280Y-9654736D01*
X4686575Y-9655646D01*
X4736479Y-9653581D01*
X4739040Y-9653529D01*
X7133436Y-9653529D01*
X7200475Y-9673214D01*
X7235487Y-9707091D01*
X7256515Y-9737557D01*
X7256516Y-9737558D01*
X7256517Y-9737559D01*
X7374760Y-9842312D01*
X7514635Y-9915725D01*
X7559246Y-9926720D01*
X7617254Y-9959436D01*
X8048860Y-10391041D01*
X8064984Y-10410896D01*
X8070063Y-10418669D01*
X8096009Y-10438863D01*
X8101772Y-10443953D01*
X8104194Y-10446375D01*
X8120891Y-10458296D01*
X8122929Y-10459816D01*
X8162374Y-10490517D01*
X8162375Y-10490517D01*
X8162376Y-10490518D01*
X8168842Y-10494017D01*
X8175433Y-10497240D01*
X8223322Y-10511497D01*
X8225742Y-10512272D01*
X8273012Y-10528500D01*
X8273017Y-10528500D01*
X8280268Y-10529710D01*
X8287546Y-10530617D01*
X8337462Y-10528552D01*
X8340021Y-10528500D01*
X12572807Y-10528500D01*
X12598252Y-10531138D01*
X12607333Y-10533043D01*
X12623023Y-10531087D01*
X12639957Y-10528977D01*
X12647633Y-10528500D01*
X12651053Y-10528500D01*
X12651058Y-10528500D01*
X12660321Y-10526954D01*
X12671296Y-10525123D01*
X12673829Y-10524753D01*
X12723411Y-10518573D01*
X12723417Y-10518569D01*
X12730469Y-10516470D01*
X12737395Y-10514092D01*
X12737399Y-10514092D01*
X12776509Y-10492926D01*
X12781347Y-10490308D01*
X12783608Y-10489143D01*
X12828502Y-10467198D01*
X12828505Y-10467194D01*
X12834471Y-10462935D01*
X12840272Y-10458419D01*
X12840276Y-10458418D01*
X12874119Y-10421653D01*
X12875844Y-10419854D01*
X13250713Y-10044985D01*
X13312034Y-10011502D01*
X13353259Y-10012069D01*
X13353556Y-10009626D01*
X13361002Y-10010530D01*
X13361003Y-10010530D01*
X13518973Y-10010530D01*
X13672353Y-9972726D01*
X13716000Y-9949818D01*
X13716000Y-10547395D01*
X13610886Y-10573303D01*
X13471014Y-10646715D01*
X13352768Y-10751471D01*
X13263033Y-10881475D01*
X13263032Y-10881476D01*
X13207014Y-11029181D01*
X13187974Y-11185999D01*
X13188042Y-11186559D01*
X13187974Y-11186967D01*
X13187974Y-11193500D01*
X13186887Y-11193500D01*
X13176578Y-11255482D01*
X13129672Y-11307266D01*
X13064945Y-11325500D01*
X9332544Y-11325500D01*
X9265505Y-11305815D01*
X9244863Y-11289181D01*
X9027637Y-11071955D01*
X9011511Y-11052098D01*
X9006437Y-11044331D01*
X8980487Y-11024133D01*
X8974741Y-11019059D01*
X8972307Y-11016625D01*
X8955609Y-11004703D01*
X8953555Y-11003171D01*
X8928275Y-10983496D01*
X8914126Y-10972483D01*
X8914124Y-10972482D01*
X8907648Y-10968977D01*
X8901066Y-10965759D01*
X8853182Y-10951503D01*
X8850743Y-10950722D01*
X8803484Y-10934498D01*
X8796269Y-10933294D01*
X8788953Y-10932382D01*
X8740139Y-10934401D01*
X8739049Y-10934447D01*
X8736489Y-10934500D01*
X7001307Y-10934500D01*
X6934268Y-10914815D01*
X6888513Y-10862011D01*
X6879286Y-10802500D01*
X6878278Y-10802500D01*
X6878277Y-10795997D01*
X6878210Y-10795559D01*
X6878278Y-10795000D01*
X6859237Y-10638182D01*
X6840579Y-10588986D01*
X6819363Y-10533043D01*
X6803220Y-10490477D01*
X6713483Y-10360470D01*
X6595240Y-10255717D01*
X6595238Y-10255716D01*
X6595237Y-10255715D01*
X6455365Y-10182303D01*
X6301986Y-10144500D01*
X6301985Y-10144500D01*
X6144015Y-10144500D01*
X6144014Y-10144500D01*
X5990634Y-10182303D01*
X5850762Y-10255715D01*
X5732516Y-10360471D01*
X5642781Y-10490475D01*
X5642780Y-10490476D01*
X5586762Y-10638181D01*
X5567721Y-10794999D01*
X5567721Y-10795000D01*
X5586762Y-10951818D01*
X5642780Y-11099523D01*
X5642781Y-11099524D01*
X5702470Y-11186000D01*
X5732517Y-11229530D01*
X5763576Y-11257046D01*
X5803514Y-11292427D01*
X5840641Y-11351617D01*
X5839873Y-11421482D01*
X5819390Y-11458037D01*
X5820545Y-11458835D01*
X5726548Y-11595013D01*
X5726547Y-11595014D01*
X5670529Y-11742719D01*
X5651489Y-11899537D01*
X5651489Y-11899538D01*
X5670529Y-12056356D01*
X5705234Y-12147864D01*
X5726547Y-12204061D01*
X5816284Y-12334068D01*
X5934527Y-12438821D01*
X5934529Y-12438822D01*
X6074401Y-12512234D01*
X6227781Y-12550038D01*
X6227782Y-12550038D01*
X6385752Y-12550038D01*
X6539132Y-12512234D01*
X6547182Y-12508009D01*
X6679007Y-12438821D01*
X6755311Y-12371221D01*
X6818545Y-12341501D01*
X6837538Y-12340038D01*
X6881160Y-12340038D01*
X6948199Y-12359723D01*
X6993954Y-12412527D01*
X7003898Y-12481685D01*
X6997102Y-12508009D01*
X6983763Y-12543181D01*
X6964721Y-12699999D01*
X6964721Y-12700000D01*
X6983762Y-12856818D01*
X7030638Y-12980418D01*
X7039780Y-13004523D01*
X7129517Y-13134530D01*
X7247760Y-13239283D01*
X7247761Y-13239283D01*
X7247764Y-13239286D01*
X7253934Y-13243545D01*
X7253039Y-13244840D01*
X7296959Y-13287339D01*
X7312932Y-13355358D01*
X7305061Y-13392518D01*
X7263008Y-13503404D01*
X7243967Y-13660222D01*
X7243967Y-13660223D01*
X7263008Y-13817042D01*
X7263008Y-13817044D01*
X7272379Y-13841753D01*
X7277746Y-13911416D01*
X7244598Y-13972922D01*
X7183459Y-14006743D01*
X7156437Y-14009723D01*
X6411831Y-14009723D01*
X6344792Y-13990038D01*
X6329603Y-13978537D01*
X6323780Y-13973378D01*
X6323772Y-13973373D01*
X6183902Y-13899962D01*
X6030523Y-13862159D01*
X6030522Y-13862159D01*
X5872552Y-13862159D01*
X5872551Y-13862159D01*
X5719171Y-13899962D01*
X5579299Y-13973374D01*
X5461053Y-14078130D01*
X5371318Y-14208134D01*
X5371317Y-14208135D01*
X5315299Y-14355840D01*
X5296259Y-14512658D01*
X5296259Y-14512659D01*
X5303648Y-14573517D01*
X5292187Y-14642441D01*
X5245283Y-14694226D01*
X5177827Y-14712433D01*
X5111236Y-14691280D01*
X5066653Y-14637483D01*
X5064610Y-14632434D01*
X5055846Y-14609326D01*
X5048930Y-14591088D01*
X5029633Y-14563132D01*
X5007965Y-14531740D01*
X4959193Y-14461081D01*
X4840950Y-14356328D01*
X4840948Y-14356327D01*
X4840947Y-14356326D01*
X4701075Y-14282914D01*
X4547696Y-14245111D01*
X4547695Y-14245111D01*
X4389725Y-14245111D01*
X4382225Y-14245111D01*
X4382225Y-14242363D01*
X4326015Y-14233013D01*
X4274232Y-14186105D01*
X4256000Y-14121381D01*
X4256000Y-14033500D01*
X4275685Y-13966461D01*
X4328489Y-13920706D01*
X4380000Y-13909500D01*
X4487789Y-13909500D01*
X4513234Y-13912138D01*
X4522315Y-13914043D01*
X4538005Y-13912087D01*
X4554939Y-13909977D01*
X4562615Y-13909500D01*
X4566035Y-13909500D01*
X4566040Y-13909500D01*
X4581147Y-13906978D01*
X4586277Y-13906123D01*
X4588804Y-13905754D01*
X4626357Y-13901073D01*
X4671366Y-13903723D01*
X4745515Y-13922000D01*
X4745516Y-13922000D01*
X4903485Y-13922000D01*
X5056865Y-13884196D01*
X5078372Y-13872908D01*
X5196740Y-13810783D01*
X5314983Y-13706030D01*
X5404720Y-13576023D01*
X5460737Y-13428318D01*
X5479778Y-13271500D01*
X5460737Y-13114682D01*
X5459827Y-13112283D01*
X5424954Y-13020331D01*
X5404720Y-12966977D01*
X5314983Y-12836970D01*
X5196740Y-12732217D01*
X5196738Y-12732216D01*
X5196737Y-12732215D01*
X5056865Y-12658803D01*
X4903486Y-12621000D01*
X4903485Y-12621000D01*
X4780000Y-12621000D01*
X4712961Y-12601315D01*
X4667206Y-12548511D01*
X4656000Y-12497000D01*
X4656000Y-11466711D01*
X4658639Y-11441264D01*
X4660543Y-11432185D01*
X4658770Y-11417963D01*
X4656477Y-11399561D01*
X4656000Y-11391885D01*
X4656000Y-11388462D01*
X4656000Y-11388460D01*
X4652620Y-11368214D01*
X4652253Y-11365688D01*
X4648338Y-11334283D01*
X4646073Y-11316108D01*
X4646070Y-11316103D01*
X4643977Y-11309072D01*
X4641593Y-11302128D01*
X4641592Y-11302119D01*
X4617812Y-11258178D01*
X4616639Y-11255898D01*
X4594699Y-11211018D01*
X4590428Y-11205038D01*
X4585920Y-11199247D01*
X4585918Y-11199242D01*
X4568025Y-11182770D01*
X4549147Y-11165391D01*
X4547298Y-11163617D01*
X4446542Y-11062861D01*
X4346632Y-10962950D01*
X4330513Y-10943100D01*
X4325437Y-10935331D01*
X4299487Y-10915133D01*
X4293741Y-10910059D01*
X4291307Y-10907625D01*
X4274609Y-10895703D01*
X4272555Y-10894171D01*
X4247275Y-10874496D01*
X4233126Y-10863483D01*
X4233124Y-10863482D01*
X4226648Y-10859977D01*
X4220066Y-10856759D01*
X4172182Y-10842503D01*
X4169743Y-10841722D01*
X4122484Y-10825498D01*
X4115269Y-10824294D01*
X4107953Y-10823382D01*
X4059139Y-10825401D01*
X4058049Y-10825447D01*
X4055489Y-10825500D01*
X3961895Y-10825500D01*
X3894856Y-10805815D01*
X3880688Y-10795210D01*
X3879132Y-10793862D01*
X3879128Y-10793857D01*
X3758053Y-10716047D01*
X3758051Y-10716046D01*
X3758049Y-10716045D01*
X3758050Y-10716045D01*
X3619963Y-10675500D01*
X3619961Y-10675500D01*
X3584886Y-10675500D01*
X3560694Y-10673117D01*
X3548001Y-10670592D01*
X3547999Y-10670592D01*
X3535306Y-10673117D01*
X3511114Y-10675500D01*
X2716920Y-10675500D01*
X2649881Y-10655815D01*
X2634694Y-10644316D01*
X2572240Y-10588988D01*
X2572238Y-10588986D01*
X2432365Y-10515574D01*
X2278986Y-10477771D01*
X2278985Y-10477771D01*
X2121015Y-10477771D01*
X2121014Y-10477771D01*
X1967634Y-10515574D01*
X1827762Y-10588986D01*
X1709516Y-10693742D01*
X1619781Y-10823746D01*
X1619780Y-10823747D01*
X1563762Y-10971452D01*
X1544721Y-11128270D01*
X1544721Y-11128271D01*
X1563762Y-11285089D01*
X1607176Y-11399561D01*
X1619780Y-11432794D01*
X1709517Y-11562801D01*
X1827760Y-11667554D01*
X1827762Y-11667555D01*
X1967634Y-11740967D01*
X1974743Y-11742719D01*
X2061052Y-11763991D01*
X2121432Y-11799146D01*
X2153221Y-11861365D01*
X2146326Y-11930894D01*
X2117322Y-11969299D01*
X2119198Y-11971026D01*
X2078403Y-12015339D01*
X2076630Y-12017187D01*
X1945952Y-12147864D01*
X1926102Y-12163984D01*
X1918332Y-12169060D01*
X1918332Y-12169061D01*
X1898143Y-12194998D01*
X1893067Y-12200748D01*
X1890634Y-12203181D01*
X1890624Y-12203194D01*
X1878695Y-12219901D01*
X1877164Y-12221953D01*
X1846483Y-12261372D01*
X1842975Y-12267853D01*
X1839761Y-12274431D01*
X1825506Y-12322309D01*
X1824725Y-12324746D01*
X1808499Y-12372012D01*
X1807294Y-12379233D01*
X1806382Y-12386546D01*
X1808447Y-12436448D01*
X1808500Y-12439010D01*
X1808500Y-13734500D01*
X1788815Y-13801539D01*
X1736011Y-13847294D01*
X1684500Y-13858500D01*
X1524000Y-13858500D01*
X1524000Y-9653000D01*
X2030500Y-9653000D01*
X2030500Y-9700844D01*
X2036901Y-9760372D01*
X2036903Y-9760379D01*
X2087145Y-9895086D01*
X2087149Y-9895093D01*
X2173309Y-10010187D01*
X2173312Y-10010190D01*
X2288406Y-10096350D01*
X2288413Y-10096354D01*
X2423120Y-10146596D01*
X2423127Y-10146598D01*
X2482655Y-10152999D01*
X2482672Y-10153000D01*
X3043000Y-10153000D01*
X3043000Y-9653000D01*
X2030500Y-9653000D01*
X1524000Y-9653000D01*
X1524000Y-7669537D01*
X1600863Y-7669537D01*
X1754243Y-7631733D01*
X1754242Y-7631733D01*
X1894118Y-7558320D01*
X2012361Y-7453567D01*
X2049585Y-7399639D01*
X2053950Y-7393315D01*
X2108232Y-7349324D01*
X2177681Y-7341664D01*
X2240246Y-7372767D01*
G37*
%TD.AperFunction*%
%TA.AperFunction,Conductor*%
G36*
X13715999Y-11837481D02*
G01*
X13716000Y-12349500D01*
X13638211Y-12349500D01*
X13612765Y-12346861D01*
X13603685Y-12344957D01*
X13603684Y-12344957D01*
X13603682Y-12344957D01*
X13571061Y-12349023D01*
X13563385Y-12349500D01*
X13559960Y-12349500D01*
X13539728Y-12352875D01*
X13537196Y-12353244D01*
X13487611Y-12359425D01*
X13480560Y-12361524D01*
X13473617Y-12363908D01*
X13429678Y-12387686D01*
X13427402Y-12388858D01*
X13382515Y-12410802D01*
X13376529Y-12415075D01*
X13370742Y-12419580D01*
X13336890Y-12456353D01*
X13335117Y-12458201D01*
X13049813Y-12743504D01*
X12988490Y-12776989D01*
X12918798Y-12772005D01*
X12862865Y-12730133D01*
X12838448Y-12664669D01*
X12839036Y-12640876D01*
X12847278Y-12573000D01*
X12828237Y-12416182D01*
X12827817Y-12415075D01*
X12797095Y-12334068D01*
X12772220Y-12268477D01*
X12739408Y-12220940D01*
X12717525Y-12154585D01*
X12734991Y-12086933D01*
X12786259Y-12039464D01*
X12841458Y-12026500D01*
X13304041Y-12026500D01*
X13329486Y-12029138D01*
X13338567Y-12031043D01*
X13354257Y-12029087D01*
X13371191Y-12026977D01*
X13378867Y-12026500D01*
X13382287Y-12026500D01*
X13382292Y-12026500D01*
X13391555Y-12024954D01*
X13402530Y-12023123D01*
X13405063Y-12022753D01*
X13454645Y-12016573D01*
X13454651Y-12016569D01*
X13461703Y-12014470D01*
X13468629Y-12012092D01*
X13468633Y-12012092D01*
X13497518Y-11996459D01*
X13512581Y-11988308D01*
X13514842Y-11987143D01*
X13559736Y-11965198D01*
X13559739Y-11965194D01*
X13565705Y-11960935D01*
X13571506Y-11956419D01*
X13571510Y-11956418D01*
X13605353Y-11919653D01*
X13607078Y-11917854D01*
X13653977Y-11870955D01*
X13715298Y-11837472D01*
X13715999Y-11837481D01*
G37*
%TD.AperFunction*%
%TA.AperFunction,Conductor*%
G36*
X13716000Y-8770242D02*
G01*
X13672353Y-8747334D01*
X13672350Y-8747333D01*
X13518974Y-8709530D01*
X13518973Y-8709530D01*
X13361003Y-8709530D01*
X13360998Y-8709530D01*
X13359935Y-8709659D01*
X13359159Y-8709530D01*
X13353503Y-8709530D01*
X13353503Y-8708589D01*
X13291012Y-8698197D01*
X13239228Y-8651291D01*
X13221023Y-8583835D01*
X13242178Y-8517245D01*
X13262767Y-8493747D01*
X13307179Y-8454402D01*
X13309707Y-8450740D01*
X13396917Y-8324394D01*
X13452934Y-8176689D01*
X13471975Y-8019871D01*
X13454789Y-7878326D01*
X13452934Y-7863052D01*
X13419487Y-7774861D01*
X13396917Y-7715348D01*
X13307180Y-7585341D01*
X13188937Y-7480588D01*
X13188935Y-7480587D01*
X13188934Y-7480586D01*
X13049062Y-7407174D01*
X12895683Y-7369371D01*
X12895682Y-7369371D01*
X12737712Y-7369371D01*
X12737711Y-7369371D01*
X12629540Y-7396032D01*
X12559738Y-7392963D01*
X12502676Y-7352642D01*
X12482160Y-7314638D01*
X12462359Y-7254882D01*
X12462356Y-7254875D01*
X12370315Y-7105654D01*
X12246345Y-6981684D01*
X12097124Y-6889643D01*
X12097119Y-6889641D01*
X12004859Y-6859069D01*
X11947414Y-6819296D01*
X11920591Y-6754780D01*
X11932906Y-6686004D01*
X11980449Y-6634804D01*
X12000533Y-6625180D01*
X12020328Y-6617797D01*
X12020327Y-6617797D01*
X12020331Y-6617796D01*
X12135546Y-6531546D01*
X12221796Y-6416331D01*
X12221796Y-6416329D01*
X12223399Y-6414189D01*
X12279333Y-6372318D01*
X12322666Y-6364500D01*
X12843772Y-6364500D01*
X12850712Y-6364889D01*
X12880651Y-6368263D01*
X12888656Y-6369165D01*
X12888656Y-6369164D01*
X12888657Y-6369165D01*
X12944704Y-6358559D01*
X12946971Y-6358175D01*
X13003306Y-6349685D01*
X13011277Y-6347226D01*
X13019127Y-6344479D01*
X13019127Y-6344478D01*
X13019131Y-6344478D01*
X13069529Y-6317840D01*
X13071575Y-6316808D01*
X13122946Y-6292070D01*
X13122948Y-6292067D01*
X13129804Y-6287393D01*
X13136532Y-6282429D01*
X13137478Y-6281483D01*
X13176837Y-6242122D01*
X13178460Y-6240558D01*
X13220287Y-6201750D01*
X13220289Y-6201746D01*
X13226082Y-6194482D01*
X13226760Y-6195023D01*
X13236028Y-6182931D01*
X13716000Y-5702960D01*
X13716000Y-8770242D01*
G37*
%TD.AperFunction*%
%TA.AperFunction,Conductor*%
G36*
X7051014Y-6398050D02*
G01*
X7100084Y-6447788D01*
X7107830Y-6467914D01*
X7108103Y-6467811D01*
X7122006Y-6504470D01*
X7166780Y-6622529D01*
X7256517Y-6752536D01*
X7374760Y-6857289D01*
X7386860Y-6863639D01*
X7514634Y-6930702D01*
X7668014Y-6968506D01*
X7782500Y-6968506D01*
X7849539Y-6988191D01*
X7895294Y-7040995D01*
X7906500Y-7092506D01*
X7906500Y-7100835D01*
X7910683Y-7139748D01*
X7910683Y-7166252D01*
X7906500Y-7205164D01*
X7906500Y-7253000D01*
X8918999Y-7253000D01*
X8919000Y-6777500D01*
X8938685Y-6710461D01*
X8991489Y-6664706D01*
X9043000Y-6653500D01*
X9245000Y-6653500D01*
X9312039Y-6673185D01*
X9357794Y-6725989D01*
X9369000Y-6777500D01*
X9369000Y-7528500D01*
X9349315Y-7595539D01*
X9296511Y-7641294D01*
X9245000Y-7652500D01*
X8381824Y-7652500D01*
X8308759Y-7667033D01*
X8286206Y-7682103D01*
X8219528Y-7702980D01*
X8217317Y-7703000D01*
X7906500Y-7703000D01*
X7870181Y-7739319D01*
X7867841Y-7736979D01*
X7834011Y-7766294D01*
X7782500Y-7777500D01*
X7335392Y-7777500D01*
X7309947Y-7774861D01*
X7300871Y-7772958D01*
X7300868Y-7772958D01*
X7268254Y-7777023D01*
X7260578Y-7777500D01*
X7257146Y-7777500D01*
X7236889Y-7780879D01*
X7234364Y-7781247D01*
X7229587Y-7781842D01*
X7160629Y-7770591D01*
X7108701Y-7723844D01*
X7091172Y-7673741D01*
X7075825Y-7547345D01*
X7019808Y-7399640D01*
X6930071Y-7269633D01*
X6811828Y-7164880D01*
X6811826Y-7164879D01*
X6811825Y-7164878D01*
X6671953Y-7091466D01*
X6518574Y-7053663D01*
X6518573Y-7053663D01*
X6360603Y-7053663D01*
X6360602Y-7053663D01*
X6207222Y-7091466D01*
X6067350Y-7164878D01*
X5949104Y-7269634D01*
X5859369Y-7399638D01*
X5859368Y-7399639D01*
X5831736Y-7472500D01*
X5789558Y-7528203D01*
X5723960Y-7552260D01*
X5715794Y-7552529D01*
X5492535Y-7552529D01*
X5425496Y-7532844D01*
X5379741Y-7480040D01*
X5369797Y-7410882D01*
X5390485Y-7358090D01*
X5406208Y-7335310D01*
X5406208Y-7335309D01*
X5406212Y-7335304D01*
X5462229Y-7187599D01*
X5481270Y-7030781D01*
X5462229Y-6873963D01*
X5456580Y-6859069D01*
X5417029Y-6754780D01*
X5406212Y-6726258D01*
X5378387Y-6685946D01*
X5356504Y-6619591D01*
X5373970Y-6551939D01*
X5425238Y-6504470D01*
X5480437Y-6491506D01*
X6620766Y-6491506D01*
X6627706Y-6491895D01*
X6657645Y-6495269D01*
X6665650Y-6496171D01*
X6665650Y-6496170D01*
X6665651Y-6496171D01*
X6721698Y-6485565D01*
X6723965Y-6485181D01*
X6780300Y-6476691D01*
X6788271Y-6474232D01*
X6796121Y-6471485D01*
X6796121Y-6471484D01*
X6796125Y-6471484D01*
X6846523Y-6444846D01*
X6848569Y-6443814D01*
X6899940Y-6419076D01*
X6899942Y-6419073D01*
X6906785Y-6414408D01*
X6913518Y-6409439D01*
X6913526Y-6409435D01*
X6913532Y-6409428D01*
X6917215Y-6406711D01*
X6982843Y-6382737D01*
X7051014Y-6398050D01*
G37*
%TD.AperFunction*%
%TA.AperFunction,Conductor*%
G36*
X1832128Y147698D02*
G01*
X1889190Y107378D01*
X1915395Y42608D01*
X1916000Y30370D01*
X1916000Y-92673D01*
X1926171Y-143810D01*
X1926171Y-192190D01*
X1916000Y-243326D01*
X1916000Y-742673D01*
X1926171Y-793809D01*
X1926171Y-842188D01*
X1916000Y-893325D01*
X1916000Y-1392673D01*
X1926171Y-1443810D01*
X1926171Y-1492190D01*
X1916000Y-1543326D01*
X1916000Y-2042673D01*
X1926171Y-2093810D01*
X1926171Y-2142190D01*
X1916000Y-2193326D01*
X1916000Y-2368873D01*
X1896315Y-2435912D01*
X1866312Y-2468139D01*
X1809314Y-2510807D01*
X1809308Y-2510814D01*
X1723149Y-2625906D01*
X1723145Y-2625913D01*
X1672903Y-2760620D01*
X1672901Y-2760627D01*
X1666500Y-2820155D01*
X1666500Y-2868000D01*
X1977317Y-2868000D01*
X2044356Y-2887685D01*
X2046206Y-2888897D01*
X2068759Y-2903966D01*
X2141823Y-2918500D01*
X3005000Y-2918500D01*
X3072039Y-2938185D01*
X3117794Y-2990989D01*
X3129000Y-3042500D01*
X3129000Y-3818000D01*
X3689328Y-3818000D01*
X3689344Y-3817999D01*
X3748872Y-3811598D01*
X3748879Y-3811596D01*
X3883586Y-3761354D01*
X3883593Y-3761350D01*
X3998687Y-3675190D01*
X3998690Y-3675187D01*
X4084850Y-3560093D01*
X4084854Y-3560086D01*
X4135096Y-3425379D01*
X4135098Y-3425373D01*
X4141361Y-3367125D01*
X4168099Y-3302574D01*
X4225491Y-3262726D01*
X4295317Y-3260233D01*
X4322272Y-3270583D01*
X4339635Y-3279696D01*
X4339636Y-3279696D01*
X4345104Y-3282566D01*
X4395316Y-3331152D01*
X4411290Y-3399171D01*
X4403421Y-3436328D01*
X4397554Y-3451798D01*
X4397552Y-3451806D01*
X4378512Y-3608620D01*
X4378512Y-3608621D01*
X4397552Y-3765439D01*
X4450553Y-3905190D01*
X4453570Y-3913144D01*
X4543307Y-4043151D01*
X4661550Y-4147904D01*
X4661552Y-4147905D01*
X4801424Y-4221317D01*
X4954804Y-4259121D01*
X4954805Y-4259121D01*
X5112775Y-4259121D01*
X5266155Y-4221317D01*
X5343242Y-4180858D01*
X5406030Y-4147904D01*
X5524273Y-4043151D01*
X5545303Y-4012682D01*
X5599585Y-3968691D01*
X5647354Y-3959121D01*
X5805168Y-3959121D01*
X5830613Y-3961759D01*
X5839694Y-3963664D01*
X5855384Y-3961708D01*
X5872318Y-3959598D01*
X5879994Y-3959121D01*
X5883414Y-3959121D01*
X5883419Y-3959121D01*
X5892682Y-3957575D01*
X5903657Y-3955744D01*
X5906190Y-3955374D01*
X5955772Y-3949194D01*
X5955778Y-3949190D01*
X5962830Y-3947091D01*
X5969756Y-3944713D01*
X5969760Y-3944713D01*
X5998645Y-3929080D01*
X6013708Y-3920929D01*
X6015969Y-3919764D01*
X6060863Y-3897819D01*
X6060866Y-3897815D01*
X6066832Y-3893556D01*
X6072633Y-3889040D01*
X6072637Y-3889039D01*
X6106480Y-3852274D01*
X6108205Y-3850475D01*
X6505031Y-3453649D01*
X6566352Y-3420166D01*
X6636044Y-3425150D01*
X6691977Y-3467022D01*
X6710729Y-3513705D01*
X6713280Y-3513077D01*
X6715074Y-3520359D01*
X6765187Y-3652494D01*
X6771092Y-3668064D01*
X6860829Y-3798071D01*
X6979072Y-3902824D01*
X6979074Y-3902825D01*
X7118946Y-3976237D01*
X7272326Y-4014041D01*
X7367840Y-4014041D01*
X7434879Y-4033726D01*
X7480634Y-4086530D01*
X7490936Y-4152987D01*
X7472722Y-4302993D01*
X7472721Y-4302994D01*
X7491762Y-4459811D01*
X7501137Y-4484528D01*
X7506504Y-4554191D01*
X7473357Y-4615697D01*
X7412220Y-4649519D01*
X7385195Y-4652500D01*
X5442618Y-4652500D01*
X5384992Y-4638296D01*
X5266155Y-4575924D01*
X5112776Y-4538121D01*
X5112775Y-4538121D01*
X4954805Y-4538121D01*
X4954804Y-4538121D01*
X4801424Y-4575924D01*
X4661552Y-4649336D01*
X4543306Y-4754092D01*
X4453571Y-4884096D01*
X4453570Y-4884097D01*
X4404934Y-5012340D01*
X4362756Y-5068043D01*
X4297158Y-5092100D01*
X4265934Y-5090206D01*
X4258200Y-5088742D01*
X4249954Y-5087500D01*
X4249950Y-5087500D01*
X4192959Y-5087500D01*
X4190679Y-5087457D01*
X4177011Y-5086946D01*
X4165500Y-5086515D01*
X4115144Y-5070205D01*
X4114523Y-5071707D01*
X4103240Y-5067033D01*
X4030176Y-5052500D01*
X4030174Y-5052500D01*
X2505826Y-5052500D01*
X2505823Y-5052500D01*
X2432764Y-5067032D01*
X2432760Y-5067033D01*
X2349899Y-5122399D01*
X2294533Y-5205260D01*
X2294532Y-5205264D01*
X2280000Y-5278321D01*
X2280000Y-5683499D01*
X2260315Y-5750538D01*
X2207511Y-5796293D01*
X2156000Y-5807499D01*
X1524000Y-5807499D01*
X1524000Y-4448665D01*
X1629365Y-4422696D01*
X1769240Y-4349283D01*
X1887483Y-4244530D01*
X1977220Y-4114523D01*
X2033237Y-3966818D01*
X2038065Y-3927053D01*
X2065686Y-3862876D01*
X2123620Y-3823819D01*
X2161161Y-3818000D01*
X2679000Y-3818000D01*
X2679000Y-3318000D01*
X1869639Y-3318000D01*
X1802600Y-3298315D01*
X1787413Y-3286816D01*
X1769240Y-3270717D01*
X1769238Y-3270715D01*
X1629365Y-3197303D01*
X1524000Y-3171333D01*
X1524000Y111494D01*
X1602985Y111494D01*
X1762325Y150767D01*
X1832128Y147698D01*
G37*
%TD.AperFunction*%
%TA.AperFunction,Conductor*%
G36*
X13716000Y-2480954D02*
G01*
X13688285Y-2462436D01*
X13643480Y-2408824D01*
X13634773Y-2339499D01*
X13641230Y-2315373D01*
X13689227Y-2188818D01*
X13708268Y-2032000D01*
X13696529Y-1935315D01*
X13689227Y-1875181D01*
X13665017Y-1811345D01*
X13633210Y-1727477D01*
X13543473Y-1597470D01*
X13425230Y-1492717D01*
X13425228Y-1492716D01*
X13425227Y-1492715D01*
X13285355Y-1419303D01*
X13131976Y-1381500D01*
X13131975Y-1381500D01*
X12974005Y-1381500D01*
X12974004Y-1381500D01*
X12918756Y-1395117D01*
X12848954Y-1392048D01*
X12801401Y-1362401D01*
X12782000Y-1343000D01*
X10332001Y-1343000D01*
X10332001Y-1392986D01*
X10342494Y-1495697D01*
X10397641Y-1662119D01*
X10397643Y-1662124D01*
X10489684Y-1811345D01*
X10613654Y-1935315D01*
X10762875Y-2027356D01*
X10762880Y-2027358D01*
X10929302Y-2082505D01*
X10929309Y-2082506D01*
X11032018Y-2092999D01*
X11053517Y-2092999D01*
X11120557Y-2112681D01*
X11166314Y-2165483D01*
X11176261Y-2234641D01*
X11155573Y-2287438D01*
X11103775Y-2362481D01*
X11102912Y-2364126D01*
X11101962Y-2365106D01*
X11099518Y-2368649D01*
X11098929Y-2368242D01*
X11054327Y-2414339D01*
X10993116Y-2430500D01*
X10540823Y-2430500D01*
X10467764Y-2445032D01*
X10467760Y-2445033D01*
X10384899Y-2500399D01*
X10329533Y-2583260D01*
X10329532Y-2583264D01*
X10315000Y-2656321D01*
X10315000Y-2831873D01*
X10295315Y-2898912D01*
X10265312Y-2931139D01*
X10208314Y-2973807D01*
X10208308Y-2973814D01*
X10122149Y-3088906D01*
X10122145Y-3088913D01*
X10071903Y-3223620D01*
X10071901Y-3223627D01*
X10065500Y-3283155D01*
X10065500Y-3331000D01*
X10376317Y-3331000D01*
X10443356Y-3350685D01*
X10445206Y-3351897D01*
X10467759Y-3366966D01*
X10540823Y-3381500D01*
X10540826Y-3381500D01*
X11465176Y-3381500D01*
X11538240Y-3366966D01*
X11560794Y-3351897D01*
X11627472Y-3331020D01*
X11629683Y-3331000D01*
X11940500Y-3331000D01*
X11945067Y-3326432D01*
X11960185Y-3274948D01*
X12006872Y-3232192D01*
X12056238Y-3206283D01*
X12174481Y-3101530D01*
X12212949Y-3045798D01*
X12267232Y-3001807D01*
X12336681Y-2994147D01*
X12399246Y-3025250D01*
X12435063Y-3085240D01*
X12439000Y-3116237D01*
X12439000Y-3155673D01*
X12449171Y-3206809D01*
X12449171Y-3255188D01*
X12439000Y-3306325D01*
X12439000Y-3805673D01*
X12449171Y-3856810D01*
X12449171Y-3905190D01*
X12439000Y-3956326D01*
X12439000Y-4346955D01*
X12419315Y-4413994D01*
X12402681Y-4434636D01*
X12221137Y-4616181D01*
X12159814Y-4649666D01*
X12133456Y-4652500D01*
X11802943Y-4652500D01*
X11735904Y-4632815D01*
X11690149Y-4580011D01*
X11680205Y-4510853D01*
X11681326Y-4504308D01*
X11691000Y-4455676D01*
X11691000Y-4280125D01*
X11710685Y-4213086D01*
X11740689Y-4180858D01*
X11797689Y-4138187D01*
X11797690Y-4138186D01*
X11883852Y-4023088D01*
X11883854Y-4023086D01*
X11934096Y-3888379D01*
X11934098Y-3888372D01*
X11940499Y-3828844D01*
X11940500Y-3828827D01*
X11940500Y-3781000D01*
X11629683Y-3781000D01*
X11562644Y-3761315D01*
X11560794Y-3760103D01*
X11538240Y-3745033D01*
X11465176Y-3730500D01*
X11465174Y-3730500D01*
X10540826Y-3730500D01*
X10540824Y-3730500D01*
X10467759Y-3745033D01*
X10445206Y-3760103D01*
X10378528Y-3780980D01*
X10376317Y-3781000D01*
X10065500Y-3781000D01*
X10029181Y-3817319D01*
X10026841Y-3814979D01*
X9993011Y-3844294D01*
X9941500Y-3855500D01*
X8650876Y-3855500D01*
X8583837Y-3835815D01*
X8568650Y-3824316D01*
X8560752Y-3817319D01*
X8524626Y-3785315D01*
X8487500Y-3726127D01*
X8488266Y-3656262D01*
X8526683Y-3597902D01*
X8590554Y-3569576D01*
X8606853Y-3568500D01*
X9542176Y-3568500D01*
X9542177Y-3568499D01*
X9615240Y-3553966D01*
X9698101Y-3498601D01*
X9753466Y-3415740D01*
X9768000Y-3342674D01*
X9768000Y-2843326D01*
X9757827Y-2792188D01*
X9757827Y-2743811D01*
X9768000Y-2692674D01*
X9768000Y-2193326D01*
X9767779Y-2192217D01*
X9765549Y-2181006D01*
X9757827Y-2142188D01*
X9757828Y-2093810D01*
X9768000Y-2042674D01*
X9768000Y-1543326D01*
X9757828Y-1492188D01*
X9757828Y-1443810D01*
X9768000Y-1392674D01*
X9768000Y-893326D01*
X9757828Y-842188D01*
X9757833Y-793780D01*
X9758316Y-791353D01*
X9790717Y-729450D01*
X9851442Y-694891D01*
X9921210Y-698649D01*
X9962151Y-722757D01*
X10007108Y-762584D01*
X10041762Y-793285D01*
X10181634Y-866696D01*
X10335014Y-904500D01*
X10335015Y-904500D01*
X10492985Y-904500D01*
X10646365Y-866696D01*
X10664450Y-857203D01*
X10722077Y-843000D01*
X12781999Y-843000D01*
X12781999Y-793028D01*
X12781998Y-793013D01*
X12771505Y-690302D01*
X12714086Y-517023D01*
X12716164Y-516334D01*
X12707277Y-457829D01*
X12735796Y-394045D01*
X12794272Y-355804D01*
X12830151Y-350500D01*
X13716000Y-350500D01*
X13716000Y-2480954D01*
G37*
%TD.AperFunction*%
%TA.AperFunction,Conductor*%
G36*
X7735039Y997611D02*
G01*
X7780794Y944807D01*
X7792000Y893296D01*
X7792000Y881127D01*
X7772315Y814088D01*
X7742312Y781861D01*
X7685314Y739193D01*
X7685308Y739186D01*
X7599149Y624094D01*
X7599145Y624087D01*
X7548903Y489380D01*
X7548901Y489373D01*
X7542500Y429845D01*
X7542500Y382000D01*
X7853317Y382000D01*
X7920356Y362315D01*
X7922206Y361103D01*
X7944759Y346034D01*
X8017823Y331500D01*
X8881000Y331500D01*
X8948039Y311815D01*
X8993794Y259011D01*
X9005000Y207500D01*
X9005000Y106500D01*
X8985315Y39461D01*
X8932511Y-6294D01*
X8881000Y-17500D01*
X8017824Y-17500D01*
X7944759Y-32033D01*
X7922206Y-47103D01*
X7855528Y-67980D01*
X7853317Y-68000D01*
X7542500Y-68000D01*
X7542500Y-115844D01*
X7548901Y-175372D01*
X7548903Y-175379D01*
X7599145Y-310086D01*
X7599147Y-310088D01*
X7685309Y-425186D01*
X7685310Y-425187D01*
X7742311Y-467858D01*
X7784182Y-523792D01*
X7792000Y-567125D01*
X7792000Y-568500D01*
X7772315Y-635539D01*
X7719511Y-681294D01*
X7668000Y-692500D01*
X7345769Y-692500D01*
X7320324Y-689861D01*
X7311248Y-687958D01*
X7311245Y-687958D01*
X7278631Y-692023D01*
X7270955Y-692500D01*
X7267523Y-692500D01*
X7247279Y-695877D01*
X7244756Y-696245D01*
X7195169Y-702426D01*
X7188138Y-704519D01*
X7181181Y-706907D01*
X7137250Y-730682D01*
X7134974Y-731853D01*
X7090076Y-753803D01*
X7084129Y-758048D01*
X7078302Y-762584D01*
X7044476Y-799329D01*
X7042702Y-801178D01*
X6535807Y-1308071D01*
X6474484Y-1341556D01*
X6404792Y-1336572D01*
X6348859Y-1294700D01*
X6324442Y-1229236D01*
X6324337Y-1222238D01*
X6319977Y-1187251D01*
X6319500Y-1179575D01*
X6319500Y-1176147D01*
X6319499Y-1176141D01*
X6316123Y-1155912D01*
X6315753Y-1153373D01*
X6314527Y-1143540D01*
X6321636Y-1084223D01*
X6323237Y-1080001D01*
X6342278Y-923184D01*
X6342278Y-923183D01*
X6323237Y-766365D01*
X6296644Y-696245D01*
X6267220Y-618661D01*
X6177483Y-488654D01*
X6059240Y-383901D01*
X6059238Y-383900D01*
X6059237Y-383899D01*
X5919365Y-310487D01*
X5765986Y-272684D01*
X5765985Y-272684D01*
X5608015Y-272684D01*
X5608014Y-272684D01*
X5574995Y-280822D01*
X5505192Y-277752D01*
X5448131Y-237432D01*
X5421926Y-172662D01*
X5429378Y-116457D01*
X5462234Y-29824D01*
X5481275Y126994D01*
X5478389Y150767D01*
X5462234Y283813D01*
X5432462Y362315D01*
X5406217Y431517D01*
X5316480Y561524D01*
X5198237Y666277D01*
X5189874Y670666D01*
X5100360Y717648D01*
X5050148Y766233D01*
X5034174Y834252D01*
X5057510Y900110D01*
X5070296Y915116D01*
X5136160Y980980D01*
X5197483Y1014462D01*
X5223840Y1017296D01*
X7668000Y1017296D01*
X7735039Y997611D01*
G37*
%TD.AperFunction*%
%TA.AperFunction,Conductor*%
G36*
X6478763Y2345910D02*
G01*
X6524540Y2293126D01*
X6528284Y2283989D01*
X6583315Y2132793D01*
X6583319Y2132783D01*
X6616113Y2075983D01*
X6663613Y1993709D01*
X6683008Y1960117D01*
X6683012Y1960110D01*
X6714989Y1922002D01*
X6743002Y1857994D01*
X6731963Y1789002D01*
X6685376Y1736930D01*
X6620000Y1718296D01*
X5076502Y1718296D01*
X5051057Y1720935D01*
X5041981Y1722838D01*
X5041978Y1722838D01*
X5009364Y1718773D01*
X5001688Y1718296D01*
X4998256Y1718296D01*
X4978012Y1714919D01*
X4975489Y1714551D01*
X4925902Y1708370D01*
X4918871Y1706277D01*
X4911914Y1703889D01*
X4867983Y1680114D01*
X4865707Y1678943D01*
X4820809Y1656993D01*
X4814862Y1652748D01*
X4809035Y1648212D01*
X4775209Y1611467D01*
X4773435Y1609619D01*
X4103681Y939865D01*
X4042358Y906380D01*
X3972666Y911364D01*
X3916733Y953236D01*
X3892316Y1018700D01*
X3892000Y1027546D01*
X3892000Y1056677D01*
X3891999Y1056679D01*
X3877467Y1129736D01*
X3877466Y1129740D01*
X3874237Y1134572D01*
X3822101Y1212601D01*
X3741503Y1266454D01*
X3739239Y1267967D01*
X3739235Y1267968D01*
X3666177Y1282500D01*
X3666174Y1282500D01*
X2141826Y1282500D01*
X2141824Y1282500D01*
X2068759Y1267967D01*
X2057477Y1263293D01*
X2056719Y1265123D01*
X2004680Y1248835D01*
X1937303Y1267329D01*
X1920264Y1279994D01*
X1896240Y1301277D01*
X1896235Y1301280D01*
X1896232Y1301282D01*
X1756365Y1374691D01*
X1602986Y1412494D01*
X1602985Y1412494D01*
X1524000Y1412494D01*
X1524000Y2363521D01*
X6411718Y2365567D01*
X6478763Y2345910D01*
G37*
%TD.AperFunction*%
%TA.AperFunction,Conductor*%
G36*
X13715999Y2363522D02*
G01*
X13716000Y1338709D01*
X13610634Y1312739D01*
X13522448Y1266454D01*
X13453940Y1252728D01*
X13388886Y1278220D01*
X13347942Y1334836D01*
X13344106Y1404600D01*
X13362772Y1446690D01*
X13372176Y1460313D01*
X13428193Y1608018D01*
X13447234Y1764836D01*
X13428193Y1921654D01*
X13413607Y1960113D01*
X13382957Y2040931D01*
X13372176Y2069359D01*
X13303251Y2169215D01*
X13281369Y2235566D01*
X13298834Y2303218D01*
X13350102Y2350688D01*
X13405351Y2363652D01*
X13715999Y2363522D01*
G37*
%TD.AperFunction*%
%TD*%
%TA.AperFunction,Conductor*%
%TO.N,/GND*%
G36*
X14349134Y2363257D02*
G01*
X14349400Y2363233D01*
X14360100Y2363233D01*
X14402395Y2363233D01*
X14406138Y2363120D01*
X14424192Y2362029D01*
X14685390Y2346233D01*
X14692824Y2345329D01*
X14966153Y2295243D01*
X14973415Y2293452D01*
X15238710Y2210785D01*
X15245716Y2208128D01*
X15499109Y2094089D01*
X15505740Y2090609D01*
X15743553Y1946848D01*
X15749700Y1942605D01*
X15968452Y1771227D01*
X15974049Y1766267D01*
X16170543Y1569776D01*
X16175513Y1564167D01*
X16346879Y1345436D01*
X16351136Y1339269D01*
X16494893Y1101468D01*
X16498375Y1094833D01*
X16612419Y841443D01*
X16615072Y834449D01*
X16697742Y569153D01*
X16699535Y561877D01*
X16749624Y288552D01*
X16750527Y281113D01*
X16767386Y2432D01*
X16767499Y-1313D01*
X16767499Y-38098138D01*
X16767386Y-38101883D01*
X16750494Y-38381108D01*
X16749591Y-38388547D01*
X16699504Y-38661864D01*
X16697711Y-38669140D01*
X16615044Y-38934428D01*
X16612386Y-38941435D01*
X16498348Y-39194815D01*
X16494865Y-39201451D01*
X16351111Y-39439246D01*
X16346854Y-39445413D01*
X16175489Y-39664143D01*
X16170519Y-39669752D01*
X15974032Y-39866237D01*
X15968423Y-39871206D01*
X15749687Y-40042573D01*
X15743520Y-40046830D01*
X15505730Y-40190576D01*
X15499095Y-40194058D01*
X15245708Y-40308095D01*
X15238702Y-40310752D01*
X14973405Y-40393419D01*
X14966129Y-40395213D01*
X14692820Y-40445295D01*
X14685381Y-40446199D01*
X14405610Y-40463119D01*
X14401867Y-40463232D01*
X13716000Y-40463232D01*
X13716000Y-38540500D01*
X14081267Y-38540500D01*
X14148306Y-38560185D01*
X14194061Y-38612989D01*
X14200343Y-38629905D01*
X14238253Y-38760393D01*
X14238255Y-38760396D01*
X14321917Y-38901862D01*
X14321923Y-38901870D01*
X14438129Y-39018076D01*
X14438133Y-39018079D01*
X14438135Y-39018081D01*
X14579602Y-39101744D01*
X14621224Y-39113836D01*
X14737426Y-39147597D01*
X14737429Y-39147597D01*
X14737431Y-39147598D01*
X14774306Y-39150500D01*
X14774314Y-39150500D01*
X15705686Y-39150500D01*
X15705694Y-39150500D01*
X15742569Y-39147598D01*
X15742571Y-39147597D01*
X15742573Y-39147597D01*
X15784191Y-39135505D01*
X15900398Y-39101744D01*
X16041865Y-39018081D01*
X16158081Y-38901865D01*
X16241744Y-38760398D01*
X16287598Y-38602569D01*
X16290500Y-38565694D01*
X16290500Y-37634306D01*
X16287598Y-37597431D01*
X16241744Y-37439602D01*
X16158081Y-37298135D01*
X16158079Y-37298133D01*
X16158076Y-37298129D01*
X16041870Y-37181923D01*
X16041862Y-37181917D01*
X15900396Y-37098255D01*
X15900393Y-37098254D01*
X15742573Y-37052402D01*
X15742567Y-37052401D01*
X15705701Y-37049500D01*
X15705694Y-37049500D01*
X14774306Y-37049500D01*
X14774298Y-37049500D01*
X14737432Y-37052401D01*
X14737426Y-37052402D01*
X14579606Y-37098254D01*
X14579603Y-37098255D01*
X14438137Y-37181917D01*
X14438129Y-37181923D01*
X14321923Y-37298129D01*
X14321917Y-37298137D01*
X14238255Y-37439603D01*
X14238253Y-37439606D01*
X14200343Y-37570095D01*
X14162737Y-37628981D01*
X14099264Y-37658187D01*
X14081267Y-37659500D01*
X13716000Y-37659500D01*
X13716000Y-35910500D01*
X14161873Y-35910500D01*
X14228912Y-35930185D01*
X14271231Y-35976046D01*
X14362315Y-36146450D01*
X14362317Y-36146452D01*
X14493589Y-36306410D01*
X14590209Y-36385702D01*
X14653550Y-36437685D01*
X14836046Y-36535232D01*
X15034066Y-36595300D01*
X15034065Y-36595300D01*
X15052529Y-36597118D01*
X15240000Y-36615583D01*
X15445934Y-36595300D01*
X15643954Y-36535232D01*
X15826450Y-36437685D01*
X15986410Y-36306410D01*
X16117685Y-36146450D01*
X16215232Y-35963954D01*
X16275300Y-35765934D01*
X16295583Y-35560000D01*
X16275300Y-35354066D01*
X16215232Y-35156046D01*
X16117685Y-34973550D01*
X16065702Y-34910209D01*
X15986410Y-34813589D01*
X15826452Y-34682317D01*
X15826453Y-34682317D01*
X15826450Y-34682315D01*
X15643954Y-34584768D01*
X15445934Y-34524700D01*
X15445932Y-34524699D01*
X15445934Y-34524699D01*
X15258463Y-34506235D01*
X15240000Y-34504417D01*
X15239999Y-34504417D01*
X15034067Y-34524699D01*
X14836043Y-34584769D01*
X14725897Y-34643643D01*
X14653550Y-34682315D01*
X14653548Y-34682316D01*
X14653547Y-34682317D01*
X14493589Y-34813589D01*
X14362317Y-34973547D01*
X14271231Y-35143954D01*
X14222268Y-35193798D01*
X14161873Y-35209500D01*
X13716000Y-35209500D01*
X13716000Y-33370500D01*
X14161873Y-33370500D01*
X14228912Y-33390185D01*
X14271231Y-33436046D01*
X14362315Y-33606450D01*
X14362317Y-33606452D01*
X14493589Y-33766410D01*
X14590209Y-33845702D01*
X14653550Y-33897685D01*
X14836046Y-33995232D01*
X15034066Y-34055300D01*
X15034065Y-34055300D01*
X15052529Y-34057118D01*
X15240000Y-34075583D01*
X15445934Y-34055300D01*
X15643954Y-33995232D01*
X15826450Y-33897685D01*
X15986410Y-33766410D01*
X16117685Y-33606450D01*
X16215232Y-33423954D01*
X16275300Y-33225934D01*
X16295583Y-33020000D01*
X16275300Y-32814066D01*
X16215232Y-32616046D01*
X16117685Y-32433550D01*
X16065702Y-32370209D01*
X15986410Y-32273589D01*
X15826452Y-32142317D01*
X15826453Y-32142317D01*
X15826450Y-32142315D01*
X15643954Y-32044768D01*
X15445934Y-31984700D01*
X15445932Y-31984699D01*
X15445934Y-31984699D01*
X15240000Y-31964417D01*
X15034067Y-31984699D01*
X14836043Y-32044769D01*
X14725897Y-32103643D01*
X14653550Y-32142315D01*
X14653548Y-32142316D01*
X14653547Y-32142317D01*
X14493589Y-32273589D01*
X14362317Y-32433547D01*
X14362315Y-32433550D01*
X14333946Y-32486625D01*
X14271231Y-32603954D01*
X14222268Y-32653798D01*
X14161873Y-32669500D01*
X13716000Y-32669500D01*
X13716000Y-32325448D01*
X13723180Y-32326192D01*
X13732261Y-32328097D01*
X13747951Y-32326141D01*
X13764885Y-32324031D01*
X13772561Y-32323554D01*
X13775981Y-32323554D01*
X13775986Y-32323554D01*
X13785249Y-32322008D01*
X13796224Y-32320177D01*
X13798757Y-32319807D01*
X13848339Y-32313627D01*
X13848345Y-32313623D01*
X13855397Y-32311524D01*
X13862323Y-32309146D01*
X13862327Y-32309146D01*
X13891212Y-32293513D01*
X13906275Y-32285362D01*
X13908536Y-32284197D01*
X13953430Y-32262252D01*
X13953433Y-32262248D01*
X13959399Y-32257989D01*
X13965200Y-32253473D01*
X13965204Y-32253472D01*
X13999047Y-32216707D01*
X14000772Y-32214908D01*
X14725491Y-31490189D01*
X14786812Y-31456706D01*
X14849162Y-31459210D01*
X15034066Y-31515300D01*
X15034065Y-31515300D01*
X15054347Y-31517297D01*
X15240000Y-31535583D01*
X15445934Y-31515300D01*
X15643954Y-31455232D01*
X15826450Y-31357685D01*
X15986410Y-31226410D01*
X16117685Y-31066450D01*
X16215232Y-30883954D01*
X16275300Y-30685934D01*
X16295583Y-30480000D01*
X16275300Y-30274066D01*
X16215232Y-30076046D01*
X16117685Y-29893550D01*
X16040334Y-29799297D01*
X15986410Y-29733589D01*
X15868677Y-29636969D01*
X15826450Y-29602315D01*
X15643954Y-29504768D01*
X15445934Y-29444700D01*
X15445932Y-29444699D01*
X15445934Y-29444699D01*
X15258463Y-29426235D01*
X15240000Y-29424417D01*
X15239999Y-29424417D01*
X15034067Y-29444699D01*
X14836041Y-29504769D01*
X14672953Y-29591943D01*
X14604551Y-29606185D01*
X14539307Y-29581185D01*
X14497936Y-29524880D01*
X14490500Y-29482585D01*
X14490500Y-26696542D01*
X14510185Y-26629503D01*
X14526814Y-26608866D01*
X14725491Y-26410189D01*
X14786812Y-26376706D01*
X14849162Y-26379210D01*
X15034066Y-26435300D01*
X15034065Y-26435300D01*
X15054347Y-26437297D01*
X15240000Y-26455583D01*
X15445934Y-26435300D01*
X15643954Y-26375232D01*
X15826450Y-26277685D01*
X15986410Y-26146410D01*
X16117685Y-25986450D01*
X16215232Y-25803954D01*
X16275300Y-25605934D01*
X16295583Y-25400000D01*
X16275300Y-25194066D01*
X16215232Y-24996046D01*
X16117685Y-24813550D01*
X15999290Y-24669284D01*
X15986410Y-24653589D01*
X15826452Y-24522317D01*
X15826453Y-24522317D01*
X15826450Y-24522315D01*
X15643954Y-24424768D01*
X15445934Y-24364700D01*
X15445932Y-24364699D01*
X15445934Y-24364699D01*
X15258463Y-24346235D01*
X15240000Y-24344417D01*
X15239999Y-24344417D01*
X15239995Y-24344417D01*
X15221073Y-24346280D01*
X15152428Y-24333259D01*
X15101719Y-24285193D01*
X15085047Y-24217341D01*
X15085825Y-24207947D01*
X15095290Y-24130000D01*
X15085827Y-24052067D01*
X15097287Y-23983146D01*
X15144191Y-23931359D01*
X15211646Y-23913152D01*
X15221071Y-23913718D01*
X15240000Y-23915583D01*
X15445934Y-23895300D01*
X15643954Y-23835232D01*
X15826450Y-23737685D01*
X15986410Y-23606410D01*
X16117685Y-23446450D01*
X16215232Y-23263954D01*
X16275300Y-23065934D01*
X16295583Y-22860000D01*
X16275300Y-22654066D01*
X16215232Y-22456046D01*
X16117685Y-22273550D01*
X16065702Y-22210209D01*
X15986410Y-22113589D01*
X15826452Y-21982317D01*
X15826453Y-21982317D01*
X15826450Y-21982315D01*
X15643954Y-21884768D01*
X15445934Y-21824700D01*
X15445932Y-21824699D01*
X15445934Y-21824699D01*
X15240000Y-21804417D01*
X15034067Y-21824699D01*
X14836043Y-21884769D01*
X14769236Y-21920479D01*
X14653550Y-21982315D01*
X14653548Y-21982316D01*
X14653547Y-21982317D01*
X14493589Y-22113589D01*
X14378385Y-22253968D01*
X14362315Y-22273550D01*
X14350054Y-22296489D01*
X14264769Y-22456043D01*
X14217007Y-22613495D01*
X14178709Y-22671934D01*
X14114897Y-22700390D01*
X14098346Y-22701500D01*
X13902621Y-22701500D01*
X13835582Y-22681815D01*
X13789827Y-22629011D01*
X13779883Y-22559853D01*
X13786679Y-22533529D01*
X13816065Y-22456046D01*
X13844214Y-22381822D01*
X13863255Y-22225004D01*
X13844214Y-22068186D01*
X13788197Y-21920481D01*
X13716000Y-21815885D01*
X13716000Y-20721428D01*
X13822320Y-20721428D01*
X13975700Y-20683624D01*
X14081750Y-20627963D01*
X14150258Y-20614238D01*
X14215311Y-20639730D01*
X14256256Y-20696346D01*
X14258036Y-20701763D01*
X14264768Y-20723954D01*
X14362315Y-20906450D01*
X14362317Y-20906452D01*
X14493589Y-21066410D01*
X14590209Y-21145702D01*
X14653550Y-21197685D01*
X14836046Y-21295232D01*
X15034066Y-21355300D01*
X15034065Y-21355300D01*
X15052529Y-21357118D01*
X15240000Y-21375583D01*
X15445934Y-21355300D01*
X15643954Y-21295232D01*
X15826450Y-21197685D01*
X15986410Y-21066410D01*
X16117685Y-20906450D01*
X16215232Y-20723954D01*
X16275300Y-20525934D01*
X16295583Y-20320000D01*
X16275300Y-20114066D01*
X16215232Y-19916046D01*
X16117685Y-19733550D01*
X16046646Y-19646988D01*
X15986410Y-19573589D01*
X15826452Y-19442317D01*
X15826453Y-19442317D01*
X15826450Y-19442315D01*
X15643954Y-19344768D01*
X15445934Y-19284700D01*
X15445932Y-19284699D01*
X15445934Y-19284699D01*
X15258463Y-19266235D01*
X15240000Y-19264417D01*
X15239999Y-19264417D01*
X15034067Y-19284699D01*
X14836043Y-19344769D01*
X14725897Y-19403643D01*
X14653550Y-19442315D01*
X14653548Y-19442316D01*
X14653547Y-19442317D01*
X14493589Y-19573590D01*
X14433353Y-19646988D01*
X14375607Y-19686322D01*
X14305763Y-19688193D01*
X14245994Y-19652005D01*
X14235448Y-19638760D01*
X14233818Y-19636398D01*
X14233817Y-19636398D01*
X14115575Y-19531645D01*
X14115573Y-19531644D01*
X14115572Y-19531643D01*
X13975700Y-19458231D01*
X13822321Y-19420428D01*
X13822320Y-19420428D01*
X13716000Y-19420428D01*
X13716000Y-17780000D01*
X14184417Y-17780000D01*
X14204699Y-17985932D01*
X14204700Y-17985934D01*
X14264768Y-18183954D01*
X14362315Y-18366450D01*
X14362317Y-18366452D01*
X14493589Y-18526410D01*
X14590209Y-18605702D01*
X14653550Y-18657685D01*
X14836046Y-18755232D01*
X15034066Y-18815300D01*
X15034065Y-18815300D01*
X15054347Y-18817297D01*
X15240000Y-18835583D01*
X15445934Y-18815300D01*
X15643954Y-18755232D01*
X15826450Y-18657685D01*
X15986410Y-18526410D01*
X16117685Y-18366450D01*
X16215232Y-18183954D01*
X16275300Y-17985934D01*
X16295583Y-17780000D01*
X16275300Y-17574066D01*
X16215232Y-17376046D01*
X16117685Y-17193550D01*
X16065702Y-17130209D01*
X15986410Y-17033589D01*
X15826452Y-16902317D01*
X15826453Y-16902317D01*
X15826450Y-16902315D01*
X15643954Y-16804768D01*
X15445934Y-16744700D01*
X15445932Y-16744699D01*
X15445934Y-16744699D01*
X15240000Y-16724417D01*
X15034067Y-16744699D01*
X14836043Y-16804769D01*
X14725897Y-16863643D01*
X14653550Y-16902315D01*
X14653548Y-16902316D01*
X14653547Y-16902317D01*
X14493589Y-17033589D01*
X14362317Y-17193547D01*
X14264769Y-17376043D01*
X14204699Y-17574067D01*
X14184417Y-17780000D01*
X13716000Y-17780000D01*
X13716000Y-15239999D01*
X14184417Y-15239999D01*
X14204699Y-15445932D01*
X14204700Y-15445934D01*
X14264768Y-15643954D01*
X14362315Y-15826450D01*
X14362317Y-15826452D01*
X14493589Y-15986410D01*
X14590209Y-16065702D01*
X14653550Y-16117685D01*
X14836046Y-16215232D01*
X15034066Y-16275300D01*
X15034065Y-16275300D01*
X15052529Y-16277118D01*
X15240000Y-16295583D01*
X15445934Y-16275300D01*
X15643954Y-16215232D01*
X15826450Y-16117685D01*
X15986410Y-15986410D01*
X16117685Y-15826450D01*
X16215232Y-15643954D01*
X16275300Y-15445934D01*
X16295583Y-15240000D01*
X16275300Y-15034066D01*
X16215232Y-14836046D01*
X16117685Y-14653550D01*
X16065702Y-14590209D01*
X15986410Y-14493589D01*
X15826452Y-14362317D01*
X15826453Y-14362317D01*
X15826450Y-14362315D01*
X15643954Y-14264768D01*
X15445934Y-14204700D01*
X15445932Y-14204699D01*
X15445934Y-14204699D01*
X15258463Y-14186235D01*
X15240000Y-14184417D01*
X15239999Y-14184417D01*
X15034067Y-14204699D01*
X14836043Y-14264769D01*
X14725898Y-14323643D01*
X14653550Y-14362315D01*
X14653548Y-14362316D01*
X14653547Y-14362317D01*
X14493589Y-14493589D01*
X14362317Y-14653547D01*
X14264769Y-14836043D01*
X14204699Y-15034067D01*
X14184417Y-15239999D01*
X13716000Y-15239999D01*
X13716000Y-13076915D01*
X13759186Y-13053334D01*
X13785544Y-13050500D01*
X14161873Y-13050500D01*
X14228912Y-13070185D01*
X14271231Y-13116046D01*
X14362315Y-13286450D01*
X14362317Y-13286452D01*
X14493589Y-13446410D01*
X14590209Y-13525702D01*
X14653550Y-13577685D01*
X14836046Y-13675232D01*
X15034066Y-13735300D01*
X15034065Y-13735300D01*
X15054347Y-13737297D01*
X15240000Y-13755583D01*
X15445934Y-13735300D01*
X15643954Y-13675232D01*
X15826450Y-13577685D01*
X15986410Y-13446410D01*
X16117685Y-13286450D01*
X16215232Y-13103954D01*
X16275300Y-12905934D01*
X16295583Y-12700000D01*
X16275300Y-12494066D01*
X16215232Y-12296046D01*
X16117685Y-12113550D01*
X16049974Y-12031043D01*
X15986410Y-11953589D01*
X15844930Y-11837481D01*
X15826450Y-11822315D01*
X15644919Y-11725284D01*
X15643956Y-11724769D01*
X15643955Y-11724768D01*
X15643954Y-11724768D01*
X15445934Y-11664700D01*
X15445932Y-11664699D01*
X15445934Y-11664699D01*
X15240000Y-11644417D01*
X15034067Y-11664699D01*
X14836043Y-11724769D01*
X14725898Y-11783643D01*
X14653550Y-11822315D01*
X14653548Y-11822316D01*
X14653547Y-11822317D01*
X14493589Y-11953589D01*
X14362317Y-12113547D01*
X14271231Y-12283954D01*
X14222268Y-12333798D01*
X14161873Y-12349500D01*
X13716000Y-12349500D01*
X13715999Y-11837481D01*
X13756523Y-11838039D01*
X13756820Y-11835596D01*
X13764266Y-11836500D01*
X13764267Y-11836500D01*
X13922237Y-11836500D01*
X14075617Y-11798696D01*
X14075617Y-11798695D01*
X14215492Y-11725283D01*
X14333735Y-11620530D01*
X14423472Y-11490523D01*
X14479489Y-11342818D01*
X14498530Y-11186000D01*
X14479489Y-11029182D01*
X14423472Y-10881477D01*
X14333735Y-10751470D01*
X14215492Y-10646717D01*
X14215490Y-10646716D01*
X14215489Y-10646715D01*
X14075617Y-10573303D01*
X13922238Y-10535500D01*
X13922237Y-10535500D01*
X13764267Y-10535500D01*
X13764266Y-10535500D01*
X13716000Y-10547395D01*
X13715999Y-9949817D01*
X13812228Y-9899313D01*
X13930471Y-9794560D01*
X14020208Y-9664553D01*
X14076225Y-9516848D01*
X14095266Y-9360030D01*
X14076225Y-9203212D01*
X14020208Y-9055507D01*
X13930471Y-8925500D01*
X13812228Y-8820747D01*
X13812226Y-8820746D01*
X13812225Y-8820745D01*
X13716000Y-8770241D01*
X13716000Y-7620000D01*
X14184417Y-7620000D01*
X14204699Y-7825932D01*
X14204700Y-7825934D01*
X14264768Y-8023954D01*
X14362315Y-8206450D01*
X14362317Y-8206452D01*
X14493589Y-8366410D01*
X14590209Y-8445702D01*
X14653550Y-8497685D01*
X14836046Y-8595232D01*
X15034066Y-8655300D01*
X15034065Y-8655300D01*
X15054347Y-8657297D01*
X15240000Y-8675583D01*
X15445934Y-8655300D01*
X15643954Y-8595232D01*
X15826450Y-8497685D01*
X15986410Y-8366410D01*
X16117685Y-8206450D01*
X16215232Y-8023954D01*
X16275300Y-7825934D01*
X16295583Y-7620000D01*
X16275300Y-7414066D01*
X16215232Y-7216046D01*
X16117685Y-7033550D01*
X16065702Y-6970209D01*
X15986410Y-6873589D01*
X15826452Y-6742317D01*
X15826453Y-6742317D01*
X15826450Y-6742315D01*
X15643954Y-6644768D01*
X15445934Y-6584700D01*
X15445932Y-6584699D01*
X15445934Y-6584699D01*
X15240000Y-6564417D01*
X15034067Y-6584699D01*
X14836043Y-6644769D01*
X14725898Y-6703643D01*
X14653550Y-6742315D01*
X14653548Y-6742316D01*
X14653547Y-6742317D01*
X14493589Y-6873589D01*
X14362317Y-7033547D01*
X14264769Y-7216043D01*
X14204699Y-7414067D01*
X14184417Y-7620000D01*
X13716000Y-7620000D01*
X13716000Y-5702960D01*
X14041732Y-5377227D01*
X14103053Y-5343744D01*
X14172745Y-5348728D01*
X14228678Y-5390600D01*
X14248071Y-5428914D01*
X14264767Y-5483952D01*
X14264768Y-5483954D01*
X14362315Y-5666450D01*
X14362317Y-5666452D01*
X14493589Y-5826410D01*
X14590209Y-5905702D01*
X14653550Y-5957685D01*
X14836046Y-6055232D01*
X15034066Y-6115300D01*
X15034065Y-6115300D01*
X15052529Y-6117118D01*
X15240000Y-6135583D01*
X15445934Y-6115300D01*
X15643954Y-6055232D01*
X15826450Y-5957685D01*
X15986410Y-5826410D01*
X16117685Y-5666450D01*
X16215232Y-5483954D01*
X16275300Y-5285934D01*
X16295583Y-5080000D01*
X16275300Y-4874066D01*
X16215232Y-4676046D01*
X16117685Y-4493550D01*
X16039531Y-4398318D01*
X15986410Y-4333589D01*
X15826452Y-4202317D01*
X15826453Y-4202317D01*
X15826450Y-4202315D01*
X15643954Y-4104768D01*
X15445934Y-4044700D01*
X15445932Y-4044699D01*
X15445934Y-4044699D01*
X15240000Y-4024417D01*
X15034067Y-4044699D01*
X14836041Y-4104769D01*
X14793690Y-4127407D01*
X14725287Y-4141649D01*
X14660043Y-4116649D01*
X14618673Y-4060344D01*
X14614311Y-3990610D01*
X14646429Y-3933017D01*
X14646009Y-3932645D01*
X14647704Y-3930731D01*
X14648342Y-3929588D01*
X14650504Y-3927570D01*
X14650981Y-3927032D01*
X14650981Y-3927031D01*
X14650983Y-3927030D01*
X14740720Y-3797023D01*
X14796737Y-3649318D01*
X14798532Y-3642036D01*
X14801358Y-3642732D01*
X14823623Y-3590935D01*
X14881538Y-3551852D01*
X14951390Y-3550284D01*
X14955111Y-3551349D01*
X15034063Y-3575299D01*
X15034065Y-3575300D01*
X15052529Y-3577118D01*
X15240000Y-3595583D01*
X15445934Y-3575300D01*
X15643954Y-3515232D01*
X15826450Y-3417685D01*
X15986410Y-3286410D01*
X16117685Y-3126450D01*
X16215232Y-2943954D01*
X16275300Y-2745934D01*
X16295583Y-2540000D01*
X16275300Y-2334066D01*
X16215232Y-2136046D01*
X16117685Y-1953550D01*
X16065702Y-1890209D01*
X15986410Y-1793589D01*
X15826452Y-1662317D01*
X15826453Y-1662317D01*
X15826450Y-1662315D01*
X15643954Y-1564768D01*
X15445934Y-1504700D01*
X15445932Y-1504699D01*
X15445934Y-1504699D01*
X15240000Y-1484417D01*
X15034067Y-1504699D01*
X14836043Y-1564769D01*
X14774865Y-1597470D01*
X14653550Y-1662315D01*
X14653548Y-1662316D01*
X14653547Y-1662317D01*
X14493589Y-1793589D01*
X14362317Y-1953547D01*
X14264769Y-2136043D01*
X14204699Y-2334067D01*
X14188317Y-2500399D01*
X14184417Y-2540000D01*
X14195874Y-2656326D01*
X14200752Y-2705845D01*
X14187733Y-2774492D01*
X14139669Y-2825202D01*
X14088698Y-2838940D01*
X14088960Y-2841096D01*
X14081514Y-2841999D01*
X13968673Y-2869812D01*
X13898871Y-2866743D01*
X13841809Y-2826422D01*
X13815604Y-2761653D01*
X13815000Y-2749434D01*
X13815000Y-2656326D01*
X13800466Y-2583260D01*
X13745101Y-2500399D01*
X13745100Y-2500398D01*
X13716000Y-2480954D01*
X13716000Y-350500D01*
X14161873Y-350500D01*
X14228912Y-370185D01*
X14271231Y-416046D01*
X14362315Y-586450D01*
X14362317Y-586452D01*
X14493589Y-746410D01*
X14590209Y-825702D01*
X14653550Y-877685D01*
X14836046Y-975232D01*
X15034066Y-1035300D01*
X15034065Y-1035300D01*
X15052529Y-1037118D01*
X15240000Y-1055583D01*
X15445934Y-1035300D01*
X15643954Y-975232D01*
X15826450Y-877685D01*
X15986410Y-746410D01*
X16117685Y-586450D01*
X16215232Y-403954D01*
X16275300Y-205934D01*
X16295583Y0D01*
X16275300Y205934D01*
X16215232Y403954D01*
X16117685Y586450D01*
X16065702Y649791D01*
X15986410Y746411D01*
X15851825Y856860D01*
X15826450Y877685D01*
X15643954Y975232D01*
X15445934Y1035300D01*
X15445932Y1035301D01*
X15445934Y1035301D01*
X15240000Y1055583D01*
X15034067Y1035301D01*
X14836043Y975231D01*
X14653544Y877682D01*
X14647992Y873125D01*
X14583681Y845815D01*
X14514814Y857610D01*
X14463256Y904764D01*
X14453390Y925012D01*
X14434344Y975232D01*
X14423220Y1004565D01*
X14333483Y1134572D01*
X14215240Y1239325D01*
X14215238Y1239326D01*
X14215237Y1239327D01*
X14075365Y1312739D01*
X13921986Y1350542D01*
X13921985Y1350542D01*
X13764015Y1350542D01*
X13764014Y1350542D01*
X13716000Y1338709D01*
X13716000Y2363522D01*
X14349134Y2363257D01*
G37*
%TD.AperFunction*%
%TA.AperFunction,Conductor*%
G36*
X13893487Y-24500185D02*
G01*
X13928499Y-24534062D01*
X13949527Y-24564528D01*
X13949528Y-24564529D01*
X13949529Y-24564530D01*
X14067772Y-24669283D01*
X14207647Y-24742696D01*
X14222895Y-24746454D01*
X14283274Y-24781608D01*
X14315065Y-24843827D01*
X14308170Y-24913355D01*
X14302580Y-24925303D01*
X14264769Y-24996042D01*
X14204699Y-25194067D01*
X14184417Y-25399999D01*
X14204699Y-25605932D01*
X14260788Y-25790832D01*
X14261411Y-25860699D01*
X14229808Y-25914508D01*
X13926955Y-26217361D01*
X13907106Y-26233482D01*
X13899331Y-26238562D01*
X13879143Y-26264498D01*
X13874067Y-26270248D01*
X13871634Y-26272681D01*
X13871624Y-26272694D01*
X13859695Y-26289401D01*
X13858164Y-26291453D01*
X13827483Y-26330872D01*
X13823975Y-26337353D01*
X13820761Y-26343931D01*
X13806506Y-26391809D01*
X13805725Y-26394246D01*
X13789499Y-26441512D01*
X13788294Y-26448733D01*
X13787382Y-26456046D01*
X13789447Y-26505948D01*
X13789500Y-26508510D01*
X13789500Y-28394904D01*
X13769815Y-28461943D01*
X13717011Y-28507698D01*
X13716000Y-28507843D01*
X13716000Y-24480500D01*
X13826448Y-24480500D01*
X13893487Y-24500185D01*
G37*
%TD.AperFunction*%
%TD*%
%TA.AperFunction,Conductor*%
%TO.N,/GND*%
G36*
X1524000Y1412494D02*
G01*
X1445014Y1412494D01*
X1291634Y1374691D01*
X1151762Y1301279D01*
X1033516Y1196523D01*
X943781Y1066519D01*
X943779Y1066516D01*
X924044Y1014480D01*
X881866Y958778D01*
X816268Y934722D01*
X748078Y949950D01*
X745001Y951711D01*
X660398Y1001744D01*
X660397Y1001745D01*
X660396Y1001745D01*
X660393Y1001746D01*
X502573Y1047598D01*
X502567Y1047599D01*
X465701Y1050500D01*
X465694Y1050500D01*
X-465694Y1050500D01*
X-465702Y1050500D01*
X-502568Y1047599D01*
X-502574Y1047598D01*
X-660394Y1001746D01*
X-660397Y1001745D01*
X-801863Y918083D01*
X-801871Y918077D01*
X-918077Y801871D01*
X-918083Y801863D01*
X-1001745Y660397D01*
X-1001746Y660394D01*
X-1047598Y502574D01*
X-1047599Y502568D01*
X-1050500Y465702D01*
X-1050500Y-465701D01*
X-1047599Y-502567D01*
X-1047598Y-502573D01*
X-1001746Y-660393D01*
X-1001745Y-660396D01*
X-918083Y-801862D01*
X-918077Y-801870D01*
X-801871Y-918076D01*
X-801867Y-918079D01*
X-801865Y-918081D01*
X-660398Y-1001744D01*
X-618776Y-1013836D01*
X-502574Y-1047597D01*
X-502571Y-1047597D01*
X-502569Y-1047598D01*
X-465694Y-1050500D01*
X-465686Y-1050500D01*
X465686Y-1050500D01*
X465694Y-1050500D01*
X502569Y-1047598D01*
X502571Y-1047597D01*
X502573Y-1047597D01*
X544191Y-1035505D01*
X660398Y-1001744D01*
X801865Y-918081D01*
X918081Y-801865D01*
X1001744Y-660398D01*
X1047598Y-502569D01*
X1050500Y-465694D01*
X1050500Y70735D01*
X1070185Y137774D01*
X1122989Y183529D01*
X1192147Y193473D01*
X1232125Y180532D01*
X1291635Y149298D01*
X1338391Y137774D01*
X1445014Y111494D01*
X1524000Y111494D01*
X1524000Y-3171333D01*
X1475986Y-3159500D01*
X1475985Y-3159500D01*
X1318015Y-3159500D01*
X1318011Y-3159500D01*
X1223190Y-3182870D01*
X1153388Y-3179800D01*
X1105836Y-3150154D01*
X1010191Y-3054509D01*
X976706Y-2993186D01*
X979210Y-2930837D01*
X1035300Y-2745934D01*
X1055583Y-2540000D01*
X1035300Y-2334066D01*
X975232Y-2136046D01*
X877685Y-1953550D01*
X825702Y-1890209D01*
X746410Y-1793589D01*
X586452Y-1662317D01*
X586453Y-1662317D01*
X586450Y-1662315D01*
X403954Y-1564768D01*
X205934Y-1504700D01*
X205932Y-1504699D01*
X205934Y-1504699D01*
X0Y-1484417D01*
X-205933Y-1504699D01*
X-403957Y-1564769D01*
X-514102Y-1623643D01*
X-586450Y-1662315D01*
X-586452Y-1662316D01*
X-586453Y-1662317D01*
X-746411Y-1793589D01*
X-877683Y-1953547D01*
X-975231Y-2136043D01*
X-1035301Y-2334067D01*
X-1055583Y-2539999D01*
X-1035301Y-2745932D01*
X-1035300Y-2745934D01*
X-975232Y-2943954D01*
X-877685Y-3126450D01*
X-877683Y-3126452D01*
X-746411Y-3286410D01*
X-649791Y-3365702D01*
X-586450Y-3417685D01*
X-403954Y-3515232D01*
X-205934Y-3575300D01*
X-205935Y-3575300D01*
X-187471Y-3577118D01*
X0Y-3595583D01*
X205934Y-3575300D01*
X390836Y-3519210D01*
X460699Y-3518588D01*
X514509Y-3550191D01*
X706959Y-3742641D01*
X740444Y-3803964D01*
X742374Y-3815375D01*
X760763Y-3966819D01*
X804272Y-4081542D01*
X809639Y-4151205D01*
X776492Y-4212711D01*
X715353Y-4246533D01*
X645635Y-4241931D01*
X609667Y-4221367D01*
X586456Y-4202318D01*
X403956Y-4104769D01*
X403955Y-4104768D01*
X403954Y-4104768D01*
X205934Y-4044700D01*
X205932Y-4044699D01*
X205934Y-4044699D01*
X0Y-4024417D01*
X-205933Y-4044699D01*
X-403957Y-4104769D01*
X-490831Y-4151205D01*
X-586450Y-4202315D01*
X-586452Y-4202316D01*
X-586453Y-4202317D01*
X-746411Y-4333589D01*
X-877683Y-4493547D01*
X-975231Y-4676043D01*
X-1035301Y-4874067D01*
X-1055583Y-5080000D01*
X-1035301Y-5285932D01*
X-1035300Y-5285934D01*
X-975232Y-5483954D01*
X-877685Y-5666450D01*
X-877683Y-5666452D01*
X-746411Y-5826410D01*
X-649791Y-5905702D01*
X-586450Y-5957685D01*
X-403954Y-6055232D01*
X-205934Y-6115300D01*
X-205935Y-6115300D01*
X-187471Y-6117118D01*
X0Y-6135583D01*
X205934Y-6115300D01*
X403954Y-6055232D01*
X586450Y-5957685D01*
X746410Y-5826410D01*
X877685Y-5666450D01*
X975232Y-5483954D01*
X1035300Y-5285934D01*
X1055583Y-5080000D01*
X1035300Y-4874066D01*
X975232Y-4676046D01*
X903264Y-4541405D01*
X889023Y-4473006D01*
X914022Y-4407761D01*
X970327Y-4366390D01*
X1040060Y-4362028D01*
X1070249Y-4373158D01*
X1164634Y-4422696D01*
X1318014Y-4460500D01*
X1318015Y-4460500D01*
X1475985Y-4460500D01*
X1524000Y-4448665D01*
X1524000Y-5807499D01*
X1347086Y-5807499D01*
X1321641Y-5804860D01*
X1312565Y-5802957D01*
X1312562Y-5802957D01*
X1279948Y-5807022D01*
X1272272Y-5807499D01*
X1268840Y-5807499D01*
X1248596Y-5810876D01*
X1246073Y-5811244D01*
X1196486Y-5817425D01*
X1189455Y-5819518D01*
X1182498Y-5821906D01*
X1138567Y-5845681D01*
X1136291Y-5846852D01*
X1091393Y-5868802D01*
X1085446Y-5873047D01*
X1079619Y-5877583D01*
X1045793Y-5914328D01*
X1044019Y-5916176D01*
X388585Y-6571610D01*
X327262Y-6605095D01*
X264910Y-6602590D01*
X205934Y-6584700D01*
X205931Y-6584699D01*
X205933Y-6584699D01*
X20281Y-6566414D01*
X0Y-6564417D01*
X-1Y-6564417D01*
X-205933Y-6584699D01*
X-403957Y-6644769D01*
X-479707Y-6685259D01*
X-586450Y-6742315D01*
X-586452Y-6742316D01*
X-586453Y-6742317D01*
X-746411Y-6873589D01*
X-877683Y-7033547D01*
X-975231Y-7216043D01*
X-1035301Y-7414067D01*
X-1055583Y-7619999D01*
X-1035301Y-7825932D01*
X-1035300Y-7825934D01*
X-975232Y-8023954D01*
X-877685Y-8206450D01*
X-877683Y-8206452D01*
X-746411Y-8366410D01*
X-649791Y-8445702D01*
X-586450Y-8497685D01*
X-403954Y-8595232D01*
X-205934Y-8655300D01*
X-205935Y-8655300D01*
X-187471Y-8657118D01*
X0Y-8675583D01*
X205934Y-8655300D01*
X403954Y-8595232D01*
X586450Y-8497685D01*
X746410Y-8366410D01*
X877685Y-8206450D01*
X975232Y-8023954D01*
X1035300Y-7825934D01*
X1047940Y-7697598D01*
X1074101Y-7632812D01*
X1131135Y-7592453D01*
X1200935Y-7589336D01*
X1228969Y-7599957D01*
X1289512Y-7631733D01*
X1442892Y-7669537D01*
X1524000Y-7669537D01*
X1524000Y-13858500D01*
X1080206Y-13858500D01*
X1054761Y-13855861D01*
X1045685Y-13853958D01*
X1045682Y-13853958D01*
X1013068Y-13858023D01*
X1005392Y-13858500D01*
X1001960Y-13858500D01*
X981716Y-13861877D01*
X979193Y-13862245D01*
X929606Y-13868426D01*
X922575Y-13870519D01*
X915618Y-13872907D01*
X871687Y-13896682D01*
X869411Y-13897853D01*
X824513Y-13919803D01*
X818566Y-13924048D01*
X812739Y-13928584D01*
X778913Y-13965329D01*
X777139Y-13967177D01*
X514508Y-14229808D01*
X453185Y-14263293D01*
X390833Y-14260788D01*
X205934Y-14204700D01*
X205932Y-14204699D01*
X205934Y-14204699D01*
X0Y-14184417D01*
X-205933Y-14204699D01*
X-381308Y-14257898D01*
X-399091Y-14263293D01*
X-403957Y-14264769D01*
X-514102Y-14323643D01*
X-586450Y-14362315D01*
X-586452Y-14362316D01*
X-586453Y-14362317D01*
X-746411Y-14493589D01*
X-877683Y-14653547D01*
X-975231Y-14836043D01*
X-1035301Y-15034067D01*
X-1055583Y-15239999D01*
X-1035301Y-15445932D01*
X-1035300Y-15445934D01*
X-975232Y-15643954D01*
X-877685Y-15826450D01*
X-843031Y-15868677D01*
X-746411Y-15986410D01*
X-649791Y-16065702D01*
X-586450Y-16117685D01*
X-403954Y-16215232D01*
X-205934Y-16275300D01*
X-205935Y-16275300D01*
X-137290Y-16282061D01*
X0Y-16295583D01*
X0Y-16295582D01*
X2Y-16295583D01*
X539Y-16295583D01*
X810Y-16295662D01*
X6063Y-16296180D01*
X5964Y-16297176D01*
X67578Y-16315268D01*
X88220Y-16331902D01*
X288203Y-16531885D01*
X321688Y-16593208D01*
X316704Y-16662900D01*
X274832Y-16718833D01*
X209368Y-16743250D01*
X188368Y-16742969D01*
X0Y-16724417D01*
X-205933Y-16744699D01*
X-403957Y-16804769D01*
X-514102Y-16863643D01*
X-586450Y-16902315D01*
X-586452Y-16902316D01*
X-586453Y-16902317D01*
X-746411Y-17033589D01*
X-877683Y-17193547D01*
X-975231Y-17376043D01*
X-1035301Y-17574067D01*
X-1055583Y-17780000D01*
X-1035301Y-17985932D01*
X-1035300Y-17985934D01*
X-975232Y-18183954D01*
X-877685Y-18366450D01*
X-877683Y-18366452D01*
X-746411Y-18526410D01*
X-649791Y-18605702D01*
X-586450Y-18657685D01*
X-403954Y-18755232D01*
X-205934Y-18815300D01*
X-205935Y-18815300D01*
X-187471Y-18817118D01*
X0Y-18835583D01*
X205934Y-18815300D01*
X390836Y-18759210D01*
X460699Y-18758588D01*
X514509Y-18790191D01*
X1523999Y-19799681D01*
X1523999Y-21348317D01*
X1010191Y-20834509D01*
X976706Y-20773186D01*
X979210Y-20710837D01*
X1035300Y-20525934D01*
X1055583Y-20320000D01*
X1035300Y-20114066D01*
X975232Y-19916046D01*
X877685Y-19733550D01*
X825702Y-19670209D01*
X746410Y-19573589D01*
X586452Y-19442317D01*
X586453Y-19442317D01*
X586450Y-19442315D01*
X403954Y-19344768D01*
X205934Y-19284700D01*
X205932Y-19284699D01*
X205934Y-19284699D01*
X0Y-19264417D01*
X-205933Y-19284699D01*
X-403957Y-19344769D01*
X-514102Y-19403643D01*
X-586450Y-19442315D01*
X-586452Y-19442316D01*
X-586453Y-19442317D01*
X-746411Y-19573589D01*
X-877683Y-19733547D01*
X-975231Y-19916043D01*
X-1035301Y-20114067D01*
X-1055583Y-20319999D01*
X-1035301Y-20525932D01*
X-1035300Y-20525934D01*
X-975232Y-20723954D01*
X-877685Y-20906450D01*
X-877683Y-20906452D01*
X-746411Y-21066410D01*
X-649791Y-21145702D01*
X-586450Y-21197685D01*
X-403954Y-21295232D01*
X-205934Y-21355300D01*
X-205935Y-21355300D01*
X-185653Y-21357297D01*
X0Y-21375583D01*
X205934Y-21355300D01*
X390836Y-21299210D01*
X460699Y-21298588D01*
X514509Y-21330191D01*
X1513180Y-22328862D01*
X1523999Y-22348677D01*
X1524000Y-23686533D01*
X1477012Y-23727250D01*
X1407853Y-23737194D01*
X1344297Y-23708169D01*
X1337819Y-23702137D01*
X1010191Y-23374509D01*
X976706Y-23313186D01*
X979210Y-23250837D01*
X1035300Y-23065934D01*
X1055583Y-22860000D01*
X1035300Y-22654066D01*
X975232Y-22456046D01*
X877685Y-22273550D01*
X809906Y-22190960D01*
X746410Y-22113589D01*
X586452Y-21982317D01*
X586453Y-21982317D01*
X586450Y-21982315D01*
X403954Y-21884768D01*
X205934Y-21824700D01*
X205932Y-21824699D01*
X205934Y-21824699D01*
X18463Y-21806235D01*
X0Y-21804417D01*
X-1Y-21804417D01*
X-205933Y-21824699D01*
X-403957Y-21884769D01*
X-514102Y-21943643D01*
X-586450Y-21982315D01*
X-586452Y-21982316D01*
X-586453Y-21982317D01*
X-746411Y-22113589D01*
X-877683Y-22273547D01*
X-975231Y-22456043D01*
X-1035301Y-22654067D01*
X-1055583Y-22860000D01*
X-1035301Y-23065932D01*
X-1035300Y-23065934D01*
X-975232Y-23263954D01*
X-877685Y-23446450D01*
X-877683Y-23446452D01*
X-746411Y-23606410D01*
X-649791Y-23685702D01*
X-586450Y-23737685D01*
X-403954Y-23835232D01*
X-205934Y-23895300D01*
X-205935Y-23895300D01*
X-187471Y-23897118D01*
X0Y-23915583D01*
X205934Y-23895300D01*
X390836Y-23839210D01*
X460699Y-23838588D01*
X514509Y-23870191D01*
X1113180Y-24468862D01*
X1146665Y-24530185D01*
X1149499Y-24556543D01*
X1149499Y-24827042D01*
X1129814Y-24894081D01*
X1077010Y-24939836D01*
X1007852Y-24949780D01*
X944296Y-24920755D01*
X916141Y-24885496D01*
X877685Y-24813550D01*
X825702Y-24750209D01*
X746410Y-24653589D01*
X628157Y-24556543D01*
X586450Y-24522315D01*
X403954Y-24424768D01*
X205934Y-24364700D01*
X205932Y-24364699D01*
X205934Y-24364699D01*
X0Y-24344417D01*
X-205933Y-24364699D01*
X-403957Y-24424769D01*
X-514103Y-24483643D01*
X-586450Y-24522315D01*
X-586452Y-24522316D01*
X-586453Y-24522317D01*
X-746411Y-24653589D01*
X-877683Y-24813547D01*
X-877685Y-24813550D01*
X-916141Y-24885496D01*
X-975231Y-24996043D01*
X-1035301Y-25194067D01*
X-1055583Y-25399999D01*
X-1035301Y-25605932D01*
X-1035300Y-25605934D01*
X-975232Y-25803954D01*
X-877685Y-25986450D01*
X-877683Y-25986452D01*
X-746411Y-26146410D01*
X-649791Y-26225702D01*
X-586450Y-26277685D01*
X-403954Y-26375232D01*
X-205934Y-26435300D01*
X-205935Y-26435300D01*
X-187471Y-26437118D01*
X0Y-26455583D01*
X205934Y-26435300D01*
X390836Y-26379210D01*
X460701Y-26378588D01*
X514510Y-26410191D01*
X713181Y-26608862D01*
X746666Y-26670185D01*
X749500Y-26696543D01*
X749500Y-28596288D01*
X746861Y-28621732D01*
X744957Y-28630811D01*
X744957Y-28630817D01*
X749023Y-28663437D01*
X749500Y-28671114D01*
X749500Y-28674540D01*
X752232Y-28690920D01*
X752876Y-28694776D01*
X753245Y-28697308D01*
X759427Y-28746893D01*
X761520Y-28753926D01*
X763907Y-28760879D01*
X763908Y-28760881D01*
X771608Y-28775109D01*
X787691Y-28804830D01*
X788864Y-28807108D01*
X810802Y-28851984D01*
X810804Y-28851986D01*
X815071Y-28857964D01*
X819582Y-28863759D01*
X856341Y-28897598D01*
X858190Y-28899371D01*
X1524000Y-29565182D01*
X1524000Y-30454500D01*
X1165458Y-30454500D01*
X1098419Y-30434815D01*
X1052664Y-30382011D01*
X1042055Y-30342653D01*
X1035300Y-30274067D01*
X1035300Y-30274066D01*
X975232Y-30076046D01*
X877685Y-29893550D01*
X809333Y-29810262D01*
X746410Y-29733589D01*
X586452Y-29602317D01*
X586453Y-29602317D01*
X586450Y-29602315D01*
X403954Y-29504768D01*
X205934Y-29444700D01*
X205932Y-29444699D01*
X205934Y-29444699D01*
X0Y-29424417D01*
X-205933Y-29444699D01*
X-403957Y-29504769D01*
X-514103Y-29563643D01*
X-586450Y-29602315D01*
X-586452Y-29602316D01*
X-586453Y-29602317D01*
X-746411Y-29733589D01*
X-877683Y-29893547D01*
X-975231Y-30076043D01*
X-1035301Y-30274067D01*
X-1055583Y-30480000D01*
X-1035301Y-30685932D01*
X-1035300Y-30685934D01*
X-975232Y-30883954D01*
X-877685Y-31066450D01*
X-877683Y-31066452D01*
X-746411Y-31226410D01*
X-660216Y-31297147D01*
X-586450Y-31357685D01*
X-403954Y-31455232D01*
X-205934Y-31515300D01*
X-205935Y-31515300D01*
X-187471Y-31517118D01*
X0Y-31535583D01*
X205934Y-31515300D01*
X403954Y-31455232D01*
X586450Y-31357685D01*
X746410Y-31226410D01*
X767397Y-31200836D01*
X825143Y-31161501D01*
X863252Y-31155500D01*
X1069455Y-31155500D01*
X1136494Y-31175185D01*
X1182249Y-31227989D01*
X1192193Y-31297147D01*
X1163168Y-31360703D01*
X1157136Y-31367181D01*
X514508Y-32009808D01*
X453185Y-32043293D01*
X390833Y-32040788D01*
X205934Y-31984700D01*
X205932Y-31984699D01*
X205934Y-31984699D01*
X0Y-31964417D01*
X-205933Y-31984699D01*
X-362120Y-32032078D01*
X-399091Y-32043293D01*
X-403957Y-32044769D01*
X-514103Y-32103643D01*
X-586450Y-32142315D01*
X-586452Y-32142316D01*
X-586453Y-32142317D01*
X-746411Y-32273589D01*
X-877683Y-32433547D01*
X-975231Y-32616043D01*
X-1035301Y-32814067D01*
X-1055583Y-33019999D01*
X-1035301Y-33225932D01*
X-1035300Y-33225934D01*
X-975232Y-33423954D01*
X-877685Y-33606450D01*
X-877683Y-33606452D01*
X-746411Y-33766410D01*
X-649791Y-33845702D01*
X-586450Y-33897685D01*
X-403954Y-33995232D01*
X-205934Y-34055300D01*
X-130522Y-34062727D01*
X-65735Y-34088887D01*
X-25376Y-34145922D01*
X-22259Y-34215722D01*
X-54995Y-34273811D01*
X-213045Y-34431861D01*
X-232894Y-34447982D01*
X-240669Y-34453062D01*
X-260857Y-34478998D01*
X-265933Y-34484748D01*
X-268366Y-34487181D01*
X-268376Y-34487194D01*
X-280306Y-34503902D01*
X-281837Y-34505955D01*
X-300214Y-34529565D01*
X-356925Y-34570377D01*
X-362067Y-34572061D01*
X-403957Y-34584769D01*
X-514103Y-34643643D01*
X-586450Y-34682315D01*
X-586452Y-34682316D01*
X-586453Y-34682317D01*
X-746411Y-34813589D01*
X-877683Y-34973547D01*
X-975231Y-35156043D01*
X-1035301Y-35354067D01*
X-1055583Y-35560000D01*
X-1035301Y-35765932D01*
X-1035300Y-35765934D01*
X-975232Y-35963954D01*
X-877685Y-36146450D01*
X-877683Y-36146452D01*
X-746411Y-36306410D01*
X-649791Y-36385702D01*
X-586450Y-36437685D01*
X-403954Y-36535232D01*
X-205934Y-36595300D01*
X-205935Y-36595300D01*
X-187471Y-36597118D01*
X0Y-36615583D01*
X205934Y-36595300D01*
X403954Y-36535232D01*
X586450Y-36437685D01*
X746410Y-36306410D01*
X877685Y-36146450D01*
X975232Y-35963954D01*
X1035300Y-35765934D01*
X1055583Y-35560000D01*
X1035300Y-35354066D01*
X975232Y-35156046D01*
X877685Y-34973550D01*
X825702Y-34910209D01*
X746410Y-34813589D01*
X660031Y-34742701D01*
X620696Y-34684955D01*
X618825Y-34615111D01*
X651012Y-34559168D01*
X1524000Y-33686181D01*
X1524000Y-36080316D01*
X514508Y-37089808D01*
X453185Y-37123293D01*
X390833Y-37120788D01*
X205934Y-37064700D01*
X205932Y-37064699D01*
X205934Y-37064699D01*
X18463Y-37046235D01*
X0Y-37044417D01*
X-1Y-37044417D01*
X-205933Y-37064699D01*
X-381308Y-37117898D01*
X-399091Y-37123293D01*
X-403957Y-37124769D01*
X-514103Y-37183643D01*
X-586450Y-37222315D01*
X-586452Y-37222316D01*
X-586453Y-37222317D01*
X-746411Y-37353589D01*
X-877683Y-37513547D01*
X-975231Y-37696043D01*
X-1035301Y-37894067D01*
X-1051233Y-38055830D01*
X-1055583Y-38100000D01*
X-1053368Y-38122497D01*
X-1035301Y-38305932D01*
X-1035300Y-38305934D01*
X-975232Y-38503954D01*
X-877685Y-38686450D01*
X-877683Y-38686452D01*
X-746411Y-38846410D01*
X-649791Y-38925702D01*
X-586450Y-38977685D01*
X-403954Y-39075232D01*
X-205934Y-39135300D01*
X-205935Y-39135300D01*
X-187471Y-39137118D01*
X0Y-39155583D01*
X205934Y-39135300D01*
X403954Y-39075232D01*
X586450Y-38977685D01*
X746410Y-38846410D01*
X877685Y-38686450D01*
X975232Y-38503954D01*
X1035300Y-38305934D01*
X1055583Y-38100000D01*
X1035300Y-37894066D01*
X979210Y-37709163D01*
X978588Y-37639298D01*
X1010189Y-37585491D01*
X1523999Y-37071682D01*
X1524000Y-40463232D01*
X837604Y-40463232D01*
X833861Y-40463119D01*
X554615Y-40446232D01*
X547175Y-40445328D01*
X273860Y-40395245D01*
X266584Y-40393451D01*
X1288Y-40310784D01*
X-5718Y-40308127D01*
X-259110Y-40194087D01*
X-265745Y-40190605D01*
X-503543Y-40046854D01*
X-509705Y-40042601D01*
X-728451Y-39871227D01*
X-734050Y-39866266D01*
X-930544Y-39669775D01*
X-935510Y-39664171D01*
X-1106880Y-39445435D01*
X-1111137Y-39439268D01*
X-1134367Y-39400842D01*
X-1254902Y-39201454D01*
X-1258368Y-39194851D01*
X-1372423Y-38941432D01*
X-1375070Y-38934455D01*
X-1457746Y-38669142D01*
X-1459537Y-38661873D01*
X-1509625Y-38388551D01*
X-1510529Y-38381112D01*
X-1527387Y-38102411D01*
X-1527500Y-38098667D01*
X-1527500Y-19264417D01*
X-1527500Y-12700000D01*
X-1055583Y-12700000D01*
X-1035301Y-12905932D01*
X-1035300Y-12905934D01*
X-975232Y-13103954D01*
X-877685Y-13286450D01*
X-877683Y-13286452D01*
X-746411Y-13446410D01*
X-649791Y-13525702D01*
X-586450Y-13577685D01*
X-403954Y-13675232D01*
X-205934Y-13735300D01*
X-205935Y-13735300D01*
X-187471Y-13737118D01*
X0Y-13755583D01*
X205934Y-13735300D01*
X403954Y-13675232D01*
X586450Y-13577685D01*
X746410Y-13446410D01*
X877685Y-13286450D01*
X975232Y-13103954D01*
X1035300Y-12905934D01*
X1055583Y-12700000D01*
X1035300Y-12494066D01*
X975232Y-12296046D01*
X877685Y-12113550D01*
X825702Y-12050209D01*
X746410Y-11953589D01*
X586452Y-11822317D01*
X586453Y-11822317D01*
X586450Y-11822315D01*
X403954Y-11724768D01*
X205934Y-11664700D01*
X205932Y-11664699D01*
X205934Y-11664699D01*
X18463Y-11646235D01*
X0Y-11644417D01*
X-1Y-11644417D01*
X-205933Y-11664699D01*
X-403957Y-11724769D01*
X-504986Y-11778771D01*
X-586450Y-11822315D01*
X-586452Y-11822316D01*
X-586453Y-11822317D01*
X-746411Y-11953589D01*
X-877683Y-12113547D01*
X-975231Y-12296043D01*
X-1035301Y-12494067D01*
X-1055583Y-12700000D01*
X-1527500Y-12700000D01*
X-1527500Y-1842D01*
X-1527389Y1837D01*
X-1514028Y222711D01*
X-1510495Y281109D01*
X-1509592Y288548D01*
X-1459505Y561865D01*
X-1457712Y569141D01*
X-1375038Y834450D01*
X-1372395Y841417D01*
X-1258342Y1094831D01*
X-1254870Y1101446D01*
X-1111107Y1339255D01*
X-1106855Y1345414D01*
X-935479Y1564157D01*
X-930520Y1569753D01*
X-734033Y1766238D01*
X-728424Y1771207D01*
X-549263Y1911569D01*
X-509681Y1942580D01*
X-503539Y1946819D01*
X-265713Y2090587D01*
X-259108Y2094054D01*
X-5699Y2208101D01*
X1297Y2210753D01*
X266594Y2293420D01*
X273861Y2295212D01*
X547180Y2345297D01*
X554610Y2346199D01*
X834389Y2363119D01*
X838133Y2363232D01*
X890799Y2363232D01*
X891059Y2363256D01*
X1524000Y2363521D01*
X1524000Y1412494D01*
G37*
%TD.AperFunction*%
%TA.AperFunction,Conductor*%
G36*
X1232059Y-17478255D02*
G01*
X1248114Y-17491795D01*
X1524000Y-17767681D01*
X1523999Y-18808317D01*
X1010191Y-18294509D01*
X976706Y-18233186D01*
X979210Y-18170837D01*
X1035300Y-17985934D01*
X1055583Y-17780000D01*
X1037029Y-17591630D01*
X1050049Y-17522984D01*
X1098114Y-17472274D01*
X1165965Y-17455599D01*
X1232059Y-17478255D01*
G37*
%TD.AperFunction*%
%TA.AperFunction,Conductor*%
G36*
X1524000Y-16776318D02*
G01*
X820327Y-16072645D01*
X786842Y-16011322D01*
X791826Y-15941630D01*
X812155Y-15906299D01*
X877685Y-15826450D01*
X975232Y-15643954D01*
X1035300Y-15445934D01*
X1055583Y-15240000D01*
X1035300Y-15034066D01*
X979210Y-14849163D01*
X978588Y-14779298D01*
X1010187Y-14725493D01*
X1139864Y-14595816D01*
X1201187Y-14562334D01*
X1227544Y-14559500D01*
X1524000Y-14559500D01*
X1524000Y-16776318D01*
G37*
%TD.AperFunction*%
%TD*%
M02*
