M48
; DRILL file {KiCad 8.0.7} date 2025-01-28T13:31:35+0200
; FORMAT={-:-/ absolute / inch / decimal}
; #@! TF.CreationDate,2025-01-28T13:31:35+02:00
; #@! TF.GenerationSoftware,Kicad,Pcbnew,8.0.7
; #@! TF.FileFunction,Plated,1,2,PTH
FMAT,2
INCH
; #@! TA.AperFunction,Plated,PTH,ViaDrill
T1C0.0157
; #@! TA.AperFunction,Plated,PTH,ComponentDrill
T2C0.0394
%
G90
G05
T1
X0.0469Y-0.85
X0.0543Y-0.6513
X0.0709Y-0.615
X0.075Y-1.36
X0.08Y-0.1969
X0.08Y-0.97
X0.0811Y-0.8176
X0.085Y-1.23
X0.09Y-0.13
X0.091Y-0.42
X0.0936Y-0.664
X0.1Y-1.505
X0.12Y-0.005
X0.13Y-0.535
X0.135Y-1.11
X0.1361Y-1.3375
X0.145Y-0.255
X0.1516Y-0.5688
X0.1664Y-1.4878
X0.1868Y-0.5232
X0.19Y-1.055
X0.1968Y-1.0142
X0.1976Y-0.94
X0.2Y-0.12
X0.205Y-0.395
X0.2093Y0.0226
X0.2149Y-0.8289
X0.215Y-0.675
X0.2155Y-0.4711
X0.2269Y-1.2395
X0.23Y-0.745
X0.2398Y-0.935
X0.2463Y-0.3941
X0.2544Y-1.3255
X0.2576Y-1.0219
X0.2695Y-0.6821
X0.27Y-0.2147
X0.2714Y-1.1512
X0.2726Y-0.795
X0.275Y-0.115
X0.275Y-0.75
X0.2785Y-0.6418
X0.2846Y-1.2687
X0.29Y-1.21
X0.2961Y-0.5019
X0.3021Y-0.885
X0.31Y-1.1246
X0.3104Y-0.1556
X0.3111Y-0.065
X0.3129Y-0.9698
X0.315Y-0.61
X0.3199Y-0.4249
X0.32Y-0.3389
X0.3249Y-0.7609
X0.3657Y-1.0569
X0.37Y-1.3845
X0.373Y-0.2881
X0.385Y-1.4254
X0.385Y-0.0326
X0.435Y-1.48
X0.445Y-0.9
X0.445Y-1.16
X0.4472Y-0.63
X0.45Y-1.3391
X0.455Y-0.08
X0.455Y-0.365
X0.4605Y-0.57
X0.48Y-1.12
X0.48Y-1.0
X0.485Y-0.468
X0.4975Y-0.9525
X0.5037Y-1.3902
X0.5103Y-1.2728
X0.515Y-1.435
X0.5234Y-0.1626
X0.5276Y-0.4203
X0.5442Y-0.5191
X0.5461Y-1.2423
T2
X0.0Y0.0
X0.0Y-0.1
X0.0Y-0.2
X0.0Y-0.3
X0.0Y-0.4
X0.0Y-0.5
X0.0Y-0.6
X0.0Y-0.7
X0.0Y-0.8
X0.0Y-0.9
X0.0Y-1.0
X0.0Y-1.1
X0.0Y-1.2
X0.0Y-1.3
X0.0Y-1.4
X0.0Y-1.5
X0.6Y0.0
X0.6Y-0.1
X0.6Y-0.2
X0.6Y-0.3
X0.6Y-0.4
X0.6Y-0.5
X0.6Y-0.6
X0.6Y-0.7
X0.6Y-0.8
X0.6Y-0.9
X0.6Y-1.0
X0.6Y-1.1
X0.6Y-1.2
X0.6Y-1.3
X0.6Y-1.4
X0.6Y-1.5
M30
