%TF.GenerationSoftware,KiCad,Pcbnew,7.0.5*%
%TF.CreationDate,2024-02-10T15:25:04+02:00*%
%TF.ProjectId,HCP65 Main Memory Address,48435036-3520-44d6-9169-6e204d656d6f,rev?*%
%TF.SameCoordinates,Original*%
%TF.FileFunction,Soldermask,Top*%
%TF.FilePolarity,Negative*%
%FSLAX46Y46*%
G04 Gerber Fmt 4.6, Leading zero omitted, Abs format (unit mm)*
G04 Created by KiCad (PCBNEW 7.0.5) date 2024-02-10 15:25:04*
%MOMM*%
%LPD*%
G01*
G04 APERTURE LIST*
G04 Aperture macros list*
%AMRoundRect*
0 Rectangle with rounded corners*
0 $1 Rounding radius*
0 $2 $3 $4 $5 $6 $7 $8 $9 X,Y pos of 4 corners*
0 Add a 4 corners polygon primitive as box body*
4,1,4,$2,$3,$4,$5,$6,$7,$8,$9,$2,$3,0*
0 Add four circle primitives for the rounded corners*
1,1,$1+$1,$2,$3*
1,1,$1+$1,$4,$5*
1,1,$1+$1,$6,$7*
1,1,$1+$1,$8,$9*
0 Add four rect primitives between the rounded corners*
20,1,$1+$1,$2,$3,$4,$5,0*
20,1,$1+$1,$4,$5,$6,$7,0*
20,1,$1+$1,$6,$7,$8,$9,0*
20,1,$1+$1,$8,$9,$2,$3,0*%
G04 Aperture macros list end*
%ADD10R,1.250000X0.600000*%
%ADD11RoundRect,0.250000X0.475000X-0.250000X0.475000X0.250000X-0.475000X0.250000X-0.475000X-0.250000X0*%
%ADD12R,1.600000X1.600000*%
%ADD13O,1.600000X1.600000*%
%ADD14RoundRect,0.400000X-0.400000X-0.400000X0.400000X-0.400000X0.400000X0.400000X-0.400000X0.400000X0*%
%ADD15R,1.400000X0.400000*%
%ADD16R,1.400000X0.280000*%
%ADD17RoundRect,0.250000X-0.475000X0.250000X-0.475000X-0.250000X0.475000X-0.250000X0.475000X0.250000X0*%
%ADD18R,1.150000X0.600000*%
G04 APERTURE END LIST*
D10*
%TO.C,IC2*%
X95402400Y-64429600D03*
X95402400Y-65379600D03*
X95402400Y-66329600D03*
X97902400Y-66329600D03*
X97902400Y-64429600D03*
%TD*%
D11*
%TO.C,C8*%
X100330485Y-136640400D03*
X100330485Y-134740400D03*
%TD*%
D12*
%TO.C,J2*%
X88900000Y-58420000D03*
D13*
X88900000Y-60960000D03*
D14*
X88900000Y-63500000D03*
D13*
X88900000Y-66040000D03*
X88900000Y-68580000D03*
X88900000Y-71120000D03*
X88900000Y-73660000D03*
X88900000Y-76200000D03*
X88900000Y-78740000D03*
D12*
X88900000Y-81280000D03*
D13*
X88900000Y-83820000D03*
X88900000Y-86360000D03*
X88900000Y-88900000D03*
X88900000Y-91440000D03*
X88900000Y-93980000D03*
X88900000Y-96520000D03*
X88900000Y-99060000D03*
X88900000Y-101600000D03*
X88900000Y-104140000D03*
X88900000Y-106680000D03*
X88900000Y-109220000D03*
X88900000Y-111760000D03*
D12*
X88900000Y-114300000D03*
D13*
X88900000Y-116840000D03*
X88900000Y-119380000D03*
X88900000Y-121920000D03*
X88900000Y-124460000D03*
X88900000Y-127000000D03*
X88900000Y-129540000D03*
X88900000Y-132080000D03*
X88900000Y-134620000D03*
X88900000Y-137160000D03*
X104140000Y-137160000D03*
X104140000Y-134620000D03*
D14*
X104140000Y-132080000D03*
D13*
X104140000Y-129540000D03*
X104140000Y-127000000D03*
X104140000Y-124460000D03*
X104140000Y-121920000D03*
X104140000Y-119380000D03*
X104140000Y-116840000D03*
D12*
X104140000Y-114300000D03*
D13*
X104140000Y-111760000D03*
X104140000Y-109220000D03*
X104140000Y-106680000D03*
X104140000Y-104140000D03*
X104140000Y-101600000D03*
X104140000Y-99060000D03*
X104140000Y-96520000D03*
X104140000Y-93980000D03*
X104140000Y-91440000D03*
X104140000Y-88900000D03*
X104140000Y-86360000D03*
X104140000Y-83820000D03*
D12*
X104140000Y-81280000D03*
D13*
X104140000Y-78740000D03*
X104140000Y-76200000D03*
X104140000Y-73660000D03*
X104140000Y-71120000D03*
X104140000Y-68580000D03*
X104140000Y-66040000D03*
X104140000Y-63500000D03*
X104140000Y-60960000D03*
X104140000Y-58420000D03*
%TD*%
D15*
%TO.C,IC1*%
X100397000Y-82899000D03*
D16*
X100397000Y-82339000D03*
X100397000Y-81839000D03*
X100397000Y-81339000D03*
X100397000Y-80839000D03*
X100397000Y-80339000D03*
X100397000Y-79839000D03*
X100397000Y-79339000D03*
X100397000Y-78839000D03*
X100397000Y-78339000D03*
X100397000Y-77839000D03*
X100397000Y-77339000D03*
X100397000Y-76839000D03*
X100397000Y-76339000D03*
X100397000Y-75839000D03*
X100397000Y-75339000D03*
X100397000Y-74839000D03*
X100397000Y-74339000D03*
X100397000Y-73839000D03*
X100397000Y-73339000D03*
X100397000Y-72839000D03*
X100397000Y-72339000D03*
X100397000Y-71839000D03*
D15*
X100397000Y-71279000D03*
X92897000Y-71279000D03*
D16*
X92897000Y-71839000D03*
X92897000Y-72339000D03*
X92897000Y-72839000D03*
X92897000Y-73339000D03*
X92897000Y-73839000D03*
X92897000Y-74339000D03*
X92897000Y-74839000D03*
X92897000Y-75339000D03*
X92897000Y-75839000D03*
X92897000Y-76339000D03*
X92897000Y-76839000D03*
X92897000Y-77339000D03*
X92897000Y-77839000D03*
X92897000Y-78339000D03*
X92897000Y-78839000D03*
X92897000Y-79339000D03*
X92897000Y-79839000D03*
X92897000Y-80339000D03*
X92897000Y-80839000D03*
X92897000Y-81339000D03*
X92897000Y-81839000D03*
X92897000Y-82339000D03*
D15*
X92897000Y-82899000D03*
%TD*%
D17*
%TO.C,C9*%
X93066085Y-134620000D03*
X93066085Y-136520000D03*
%TD*%
D18*
%TO.C,IC5*%
X97922085Y-136631000D03*
X97922085Y-135681000D03*
X97922085Y-134731000D03*
X95322085Y-134731000D03*
X95322085Y-136631000D03*
%TD*%
D15*
%TO.C,IC4*%
X100270000Y-120160800D03*
D16*
X100270000Y-119600800D03*
X100270000Y-119100800D03*
X100270000Y-118600800D03*
X100270000Y-118100800D03*
X100270000Y-117600800D03*
X100270000Y-117100800D03*
X100270000Y-116600800D03*
X100270000Y-116100800D03*
X100270000Y-115600800D03*
X100270000Y-115100800D03*
X100270000Y-114600800D03*
X100270000Y-114100800D03*
X100270000Y-113600800D03*
X100270000Y-113100800D03*
X100270000Y-112600800D03*
X100270000Y-112100800D03*
X100270000Y-111600800D03*
X100270000Y-111100800D03*
X100270000Y-110600800D03*
X100270000Y-110100800D03*
X100270000Y-109600800D03*
X100270000Y-109100800D03*
D15*
X100270000Y-108540800D03*
X92770000Y-108540800D03*
D16*
X92770000Y-109100800D03*
X92770000Y-109600800D03*
X92770000Y-110100800D03*
X92770000Y-110600800D03*
X92770000Y-111100800D03*
X92770000Y-111600800D03*
X92770000Y-112100800D03*
X92770000Y-112600800D03*
X92770000Y-113100800D03*
X92770000Y-113600800D03*
X92770000Y-114100800D03*
X92770000Y-114600800D03*
X92770000Y-115100800D03*
X92770000Y-115600800D03*
X92770000Y-116100800D03*
X92770000Y-116600800D03*
X92770000Y-117100800D03*
X92770000Y-117600800D03*
X92770000Y-118100800D03*
X92770000Y-118600800D03*
X92770000Y-119100800D03*
X92770000Y-119600800D03*
D15*
X92770000Y-120160800D03*
%TD*%
M02*
