M48
; DRILL file {KiCad 9.0.4} date 2025-09-11T20:12:11+0200
; FORMAT={-:-/ absolute / inch / decimal}
; #@! TF.CreationDate,2025-09-11T20:12:11+02:00
; #@! TF.GenerationSoftware,Kicad,Pcbnew,9.0.4
; #@! TF.FileFunction,Plated,1,2,PTH
FMAT,2
INCH
; #@! TA.AperFunction,Plated,PTH,ViaDrill
T1C0.0157
; #@! TA.AperFunction,Plated,PTH,ComponentDrill
T2C0.0276
; #@! TA.AperFunction,Plated,PTH,ComponentDrill
T3C0.0315
; #@! TA.AperFunction,Plated,PTH,ViaDrill
T4C0.0394
; #@! TA.AperFunction,Plated,PTH,ComponentDrill
T5C0.0394
; #@! TA.AperFunction,Plated,PTH,ComponentDrill
T6C0.0472
; #@! TA.AperFunction,Plated,PTH,ComponentDrill
T7C0.1024
; #@! TA.AperFunction,Plated,PTH,ComponentDrill
T8C0.1181
%
G90
G05
T1
X0.16Y-0.765
X0.2Y-1.62
X1.17Y-1.62
X1.175Y-1.85
X1.18Y-1.67
X1.4Y-1.65
X1.475Y-1.78
X1.53Y-1.1
X1.535Y-1.87
X1.56Y-0.845
T2
X0.44Y-1.72
X0.44Y-1.92
X1.2242Y-1.505
X1.4242Y-1.505
T3
X0.6194Y-1.56
X0.62Y-1.28
X0.6206Y-1.0
X0.7178Y-1.56
X0.7184Y-1.28
X0.7191Y-1.0
X0.9006Y-1.0
X0.9006Y-1.28
X0.9006Y-1.56
X0.9013Y-0.72
X0.9013Y-1.84
X0.9991Y-1.0
X0.9991Y-1.28
X0.9991Y-1.56
X0.9997Y-0.72
X0.9997Y-1.84
T4
X0.13Y-0.675
X0.145Y-1.49
X0.25Y-1.185
X0.25Y-1.49
X0.255Y-0.935
X0.34Y-1.51
X0.34Y-1.715
X0.46Y-0.94
X0.6206Y-0.825
X0.7Y-0.6
X0.77Y-0.185
X0.805Y-1.72
X0.855Y-0.04
X1.095Y-0.14
X1.3Y-0.5
X1.3Y-0.89
X1.44Y-1.28
X1.5625Y-0.6125
X1.57Y-1.92
T5
X0.0Y0.0
X0.0Y-0.1
X0.0Y-0.2
X0.0Y-0.3
X0.0Y-0.4
X0.0Y-0.5
X0.0Y-0.6
X0.0Y-0.7
X0.0Y-0.8
X0.0Y-0.9
X0.0Y-1.0
X0.0Y-1.1
X0.0Y-1.2
X0.0Y-1.3
X0.0Y-1.4
X0.0Y-1.5
X0.0Y-1.6
X0.0Y-1.7
X0.0Y-1.8
X0.0Y-1.9
X0.18Y-1.8
X0.24Y-0.6
X0.28Y-1.8
X0.7951Y-0.6
X1.3114Y-0.052
X1.3114Y-0.308
X1.4886Y-0.052
X1.4886Y-0.308
X1.7Y0.0
X1.7Y-0.1
X1.7Y-0.2
X1.7Y-0.3
X1.7Y-0.4
X1.7Y-0.5
X1.7Y-0.6
X1.7Y-0.7
X1.7Y-0.8
X1.7Y-0.9
X1.7Y-1.0
X1.7Y-1.1
X1.7Y-1.2
X1.7Y-1.3
X1.7Y-1.4
X1.7Y-1.5
X1.7Y-1.6
X1.7Y-1.7
X1.7Y-1.8
X1.7Y-1.9
T6
X0.8357Y-0.4518
X1.0443Y-0.4518
T7
X0.215Y-0.274
X0.4Y-0.1559
T8
X0.4Y-0.4
M30
