%TF.GenerationSoftware,KiCad,Pcbnew,7.0.5*%
%TF.CreationDate,2024-02-16T13:46:34+02:00*%
%TF.ProjectId,Audio DAC,41756469-6f20-4444-9143-2e6b69636164,V0*%
%TF.SameCoordinates,PX6d01460PY32de760*%
%TF.FileFunction,Paste,Top*%
%TF.FilePolarity,Positive*%
%FSLAX46Y46*%
G04 Gerber Fmt 4.6, Leading zero omitted, Abs format (unit mm)*
G04 Created by KiCad (PCBNEW 7.0.5) date 2024-02-16 13:46:34*
%MOMM*%
%LPD*%
G01*
G04 APERTURE LIST*
G04 Aperture macros list*
%AMRoundRect*
0 Rectangle with rounded corners*
0 $1 Rounding radius*
0 $2 $3 $4 $5 $6 $7 $8 $9 X,Y pos of 4 corners*
0 Add a 4 corners polygon primitive as box body*
4,1,4,$2,$3,$4,$5,$6,$7,$8,$9,$2,$3,0*
0 Add four circle primitives for the rounded corners*
1,1,$1+$1,$2,$3*
1,1,$1+$1,$4,$5*
1,1,$1+$1,$6,$7*
1,1,$1+$1,$8,$9*
0 Add four rect primitives between the rounded corners*
20,1,$1+$1,$2,$3,$4,$5,0*
20,1,$1+$1,$4,$5,$6,$7,0*
20,1,$1+$1,$6,$7,$8,$9,0*
20,1,$1+$1,$8,$9,$2,$3,0*%
G04 Aperture macros list end*
%ADD10R,1.450000X0.450000*%
%ADD11R,1.550000X0.650000*%
%ADD12RoundRect,0.250000X0.450000X-0.262500X0.450000X0.262500X-0.450000X0.262500X-0.450000X-0.262500X0*%
%ADD13RoundRect,0.250000X0.475000X-0.250000X0.475000X0.250000X-0.475000X0.250000X-0.475000X-0.250000X0*%
%ADD14RoundRect,0.250000X-0.475000X0.250000X-0.475000X-0.250000X0.475000X-0.250000X0.475000X0.250000X0*%
%ADD15RoundRect,0.250000X-0.450000X0.262500X-0.450000X-0.262500X0.450000X-0.262500X0.450000X0.262500X0*%
G04 APERTURE END LIST*
D10*
%TO.C,IC6*%
X6727000Y-36841000D03*
X6727000Y-37491000D03*
X6727000Y-38141000D03*
X6727000Y-38791000D03*
X6727000Y-39441000D03*
X6727000Y-40091000D03*
X6727000Y-40741000D03*
X6727000Y-41391000D03*
X12577000Y-41391000D03*
X12577000Y-40741000D03*
X12577000Y-40091000D03*
X12577000Y-39441000D03*
X12577000Y-38791000D03*
X12577000Y-38141000D03*
X12577000Y-37491000D03*
X12577000Y-36841000D03*
%TD*%
D11*
%TO.C,IC1*%
X15055000Y-37211000D03*
X15055000Y-38481000D03*
X15055000Y-39751000D03*
X15055000Y-41021000D03*
X20505000Y-41021000D03*
X20505000Y-39751000D03*
X20505000Y-38481000D03*
X20505000Y-37211000D03*
%TD*%
D12*
%TO.C,R3*%
X7229000Y-28217500D03*
X7229000Y-26392500D03*
%TD*%
D13*
%TO.C,C15*%
X10033000Y-17952000D03*
X10033000Y-16052000D03*
%TD*%
%TO.C,C6*%
X4445000Y-41320000D03*
X4445000Y-39420000D03*
%TD*%
D12*
%TO.C,R6*%
X16754000Y-10945500D03*
X16754000Y-9120500D03*
%TD*%
%TO.C,R10*%
X12690000Y-23137500D03*
X12690000Y-21312500D03*
%TD*%
%TO.C,R11*%
X12690000Y-17930500D03*
X12690000Y-16105500D03*
%TD*%
D13*
%TO.C,C7*%
X4435000Y-23236000D03*
X4435000Y-21336000D03*
%TD*%
D12*
%TO.C,R4*%
X7229000Y-23137500D03*
X7229000Y-21312500D03*
%TD*%
D13*
%TO.C,C16*%
X15367000Y-17952000D03*
X15367000Y-16052000D03*
%TD*%
D12*
%TO.C,R8*%
X5197000Y-10818500D03*
X5197000Y-8993500D03*
%TD*%
%TO.C,R2*%
X2276000Y-41298500D03*
X2276000Y-39473500D03*
%TD*%
D13*
%TO.C,C11*%
X4445000Y-17952000D03*
X4445000Y-16052000D03*
%TD*%
D14*
%TO.C,C1*%
X17145000Y-31705000D03*
X17145000Y-33605000D03*
%TD*%
%TO.C,C2*%
X19939000Y-31705000D03*
X19939000Y-33605000D03*
%TD*%
D12*
%TO.C,R5*%
X7229000Y-17930500D03*
X7229000Y-16105500D03*
%TD*%
D15*
%TO.C,R1*%
X3566000Y-35917500D03*
X3566000Y-37742500D03*
%TD*%
D13*
%TO.C,C10*%
X10033000Y-23159000D03*
X10033000Y-21259000D03*
%TD*%
%TO.C,C14*%
X15494000Y-23032000D03*
X15494000Y-21132000D03*
%TD*%
D15*
%TO.C,R7*%
X4455000Y-26392500D03*
X4455000Y-28217500D03*
%TD*%
D12*
%TO.C,R9*%
X12690000Y-28217500D03*
X12690000Y-26392500D03*
%TD*%
D13*
%TO.C,C13*%
X18542000Y-28366000D03*
X18542000Y-26466000D03*
%TD*%
D15*
%TO.C,R12*%
X15377000Y-26392500D03*
X15377000Y-28217500D03*
%TD*%
D11*
%TO.C,IC7*%
X13774000Y-12700000D03*
X13774000Y-11430000D03*
X13774000Y-10160000D03*
X13774000Y-8890000D03*
X8324000Y-8890000D03*
X8324000Y-10160000D03*
X8324000Y-11430000D03*
X8324000Y-12700000D03*
%TD*%
M02*
