%TF.GenerationSoftware,KiCad,Pcbnew,7.0.5*%
%TF.CreationDate,2024-02-15T21:55:39+02:00*%
%TF.ProjectId,W65C816 Debug Display,57363543-3831-4362-9044-656275672044,V1*%
%TF.SameCoordinates,PX2b4c984PY5781bbc*%
%TF.FileFunction,Paste,Top*%
%TF.FilePolarity,Positive*%
%FSLAX46Y46*%
G04 Gerber Fmt 4.6, Leading zero omitted, Abs format (unit mm)*
G04 Created by KiCad (PCBNEW 7.0.5) date 2024-02-15 21:55:39*
%MOMM*%
%LPD*%
G01*
G04 APERTURE LIST*
G04 Aperture macros list*
%AMRoundRect*
0 Rectangle with rounded corners*
0 $1 Rounding radius*
0 $2 $3 $4 $5 $6 $7 $8 $9 X,Y pos of 4 corners*
0 Add a 4 corners polygon primitive as box body*
4,1,4,$2,$3,$4,$5,$6,$7,$8,$9,$2,$3,0*
0 Add four circle primitives for the rounded corners*
1,1,$1+$1,$2,$3*
1,1,$1+$1,$4,$5*
1,1,$1+$1,$6,$7*
1,1,$1+$1,$8,$9*
0 Add four rect primitives between the rounded corners*
20,1,$1+$1,$2,$3,$4,$5,0*
20,1,$1+$1,$4,$5,$6,$7,0*
20,1,$1+$1,$6,$7,$8,$9,0*
20,1,$1+$1,$8,$9,$2,$3,0*%
G04 Aperture macros list end*
%ADD10R,0.450000X0.900000*%
%ADD11R,1.000000X0.800000*%
%ADD12R,1.000000X3.000000*%
%ADD13RoundRect,0.250000X-0.475000X0.250000X-0.475000X-0.250000X0.475000X-0.250000X0.475000X0.250000X0*%
%ADD14RoundRect,0.250000X0.450000X-0.262500X0.450000X0.262500X-0.450000X0.262500X-0.450000X-0.262500X0*%
%ADD15R,1.550000X0.650000*%
%ADD16RoundRect,0.250000X0.475000X-0.250000X0.475000X0.250000X-0.475000X0.250000X-0.475000X-0.250000X0*%
%ADD17R,0.650000X1.925000*%
%ADD18R,1.200000X1.500000*%
%ADD19R,3.300000X1.500000*%
%ADD20RoundRect,0.250000X-0.450000X0.262500X-0.450000X-0.262500X0.450000X-0.262500X0.450000X0.262500X0*%
%ADD21RoundRect,0.250000X0.250000X0.475000X-0.250000X0.475000X-0.250000X-0.475000X0.250000X-0.475000X0*%
%ADD22RoundRect,0.250000X-0.250000X-0.475000X0.250000X-0.475000X0.250000X0.475000X-0.250000X0.475000X0*%
G04 APERTURE END LIST*
D10*
%TO.C,RN4*%
X16262500Y21057500D03*
X17062500Y21057500D03*
X17862500Y21057500D03*
X18662500Y21057500D03*
X18662500Y22757500D03*
X17862500Y22757500D03*
X17062500Y22757500D03*
X16262500Y22757500D03*
%TD*%
D11*
%TO.C,LED5*%
X102743000Y17764000D03*
X102743000Y15764000D03*
%TD*%
D10*
%TO.C,RN11*%
X68827500Y22757500D03*
X68027500Y22757500D03*
X67227500Y22757500D03*
X66427500Y22757500D03*
X66427500Y21057500D03*
X67227500Y21057500D03*
X68027500Y21057500D03*
X68827500Y21057500D03*
%TD*%
D11*
%TO.C,LED10*%
X106807000Y27622500D03*
X106807000Y25622500D03*
%TD*%
D12*
%TO.C,DS3*%
X58337500Y29877500D03*
X59837500Y29877500D03*
X61337500Y29877500D03*
X62837500Y29877500D03*
X64337500Y29877500D03*
X65837500Y29877500D03*
X67337500Y29877500D03*
X68837500Y29877500D03*
X70337500Y29877500D03*
X71837500Y29877500D03*
X71837500Y41877500D03*
X70337500Y41877500D03*
X68837500Y41877500D03*
X67337500Y41877500D03*
X65837500Y41877500D03*
X64337500Y41877500D03*
X62837500Y41877500D03*
X61337500Y41877500D03*
X59837500Y41877500D03*
X58337500Y41877500D03*
%TD*%
D10*
%TO.C,RN8*%
X56902500Y21057500D03*
X57702500Y21057500D03*
X58502500Y21057500D03*
X59302500Y21057500D03*
X59302500Y22757500D03*
X58502500Y22757500D03*
X57702500Y22757500D03*
X56902500Y22757500D03*
%TD*%
D11*
%TO.C,LED11*%
X110871000Y27622500D03*
X110871000Y25622500D03*
%TD*%
D13*
%TO.C,C31*%
X76200000Y12364000D03*
X76200000Y10464000D03*
%TD*%
D14*
%TO.C,R5*%
X112188121Y41251500D03*
X112188121Y43076500D03*
%TD*%
D15*
%TO.C,IC10*%
X114934121Y36576000D03*
X114934121Y35306000D03*
X114934121Y34036000D03*
X114934121Y32766000D03*
X120384121Y32766000D03*
X120384121Y34036000D03*
X120384121Y35306000D03*
X120384121Y36576000D03*
%TD*%
D12*
%TO.C,DS2*%
X17697500Y29877500D03*
X19197500Y29877500D03*
X20697500Y29877500D03*
X22197500Y29877500D03*
X23697500Y29877500D03*
X25197500Y29877500D03*
X26697500Y29877500D03*
X28197500Y29877500D03*
X29697500Y29877500D03*
X31197500Y29877500D03*
X31197500Y41877500D03*
X29697500Y41877500D03*
X28197500Y41877500D03*
X26697500Y41877500D03*
X25197500Y41877500D03*
X23697500Y41877500D03*
X22197500Y41877500D03*
X20697500Y41877500D03*
X19197500Y41877500D03*
X17697500Y41877500D03*
%TD*%
D13*
%TO.C,C37*%
X55880000Y12364000D03*
X55880000Y10464000D03*
%TD*%
D11*
%TO.C,LED9*%
X102743000Y27622500D03*
X102743000Y25622500D03*
%TD*%
D16*
%TO.C,C7*%
X118802121Y41230000D03*
X118802121Y43130000D03*
%TD*%
D11*
%TO.C,LED13*%
X102870000Y8112000D03*
X102870000Y6112000D03*
%TD*%
D10*
%TO.C,RN10*%
X73272500Y22757500D03*
X72472500Y22757500D03*
X71672500Y22757500D03*
X70872500Y22757500D03*
X70872500Y21057500D03*
X71672500Y21057500D03*
X72472500Y21057500D03*
X73272500Y21057500D03*
%TD*%
%TO.C,RN22*%
X103448000Y2931000D03*
X104248000Y2931000D03*
X105048000Y2931000D03*
X105848000Y2931000D03*
X105848000Y4631000D03*
X105048000Y4631000D03*
X104248000Y4631000D03*
X103448000Y4631000D03*
%TD*%
D11*
%TO.C,LED3*%
X102743000Y38211000D03*
X102743000Y36211000D03*
%TD*%
%TO.C,LED2*%
X98679000Y38211000D03*
X98679000Y36211000D03*
%TD*%
D16*
%TO.C,C8*%
X115754121Y41230000D03*
X115754121Y43130000D03*
%TD*%
D14*
%TO.C,R7*%
X98669000Y31980500D03*
X98669000Y33805500D03*
%TD*%
D11*
%TO.C,LED4*%
X98679000Y17764000D03*
X98679000Y15764000D03*
%TD*%
D12*
%TO.C,DS5*%
X42462500Y29877500D03*
X43962500Y29877500D03*
X45462500Y29877500D03*
X46962500Y29877500D03*
X48462500Y29877500D03*
X49962500Y29877500D03*
X51462500Y29877500D03*
X52962500Y29877500D03*
X54462500Y29877500D03*
X55962500Y29877500D03*
X55962500Y41877500D03*
X54462500Y41877500D03*
X52962500Y41877500D03*
X51462500Y41877500D03*
X49962500Y41877500D03*
X48462500Y41877500D03*
X46962500Y41877500D03*
X45462500Y41877500D03*
X43962500Y41877500D03*
X42462500Y41877500D03*
%TD*%
D10*
%TO.C,RN20*%
X102990800Y11821000D03*
X103790800Y11821000D03*
X104590800Y11821000D03*
X105390800Y11821000D03*
X105390800Y13521000D03*
X104590800Y13521000D03*
X103790800Y13521000D03*
X102990800Y13521000D03*
%TD*%
D17*
%TO.C,IC21*%
X37782500Y3860500D03*
X39052500Y3860500D03*
X40322500Y3860500D03*
X41592500Y3860500D03*
X42862500Y3860500D03*
X44132500Y3860500D03*
X45402500Y3860500D03*
X46672500Y3860500D03*
X47942500Y3860500D03*
X49212500Y3860500D03*
X50482500Y3860500D03*
X51752500Y3860500D03*
X51752500Y13284500D03*
X50482500Y13284500D03*
X49212500Y13284500D03*
X47942500Y13284500D03*
X46672500Y13284500D03*
X45402500Y13284500D03*
X44132500Y13284500D03*
X42862500Y13284500D03*
X41592500Y13284500D03*
X40322500Y13284500D03*
X39052500Y13284500D03*
X37782500Y13284500D03*
%TD*%
D18*
%TO.C,IC1*%
X7225000Y25375000D03*
X9525000Y25375000D03*
X11825000Y25375000D03*
D19*
X9525000Y31775000D03*
%TD*%
D13*
%TO.C,C33*%
X35560000Y12364000D03*
X35560000Y10464000D03*
%TD*%
D11*
%TO.C,LED6*%
X106807000Y17764000D03*
X106807000Y15764000D03*
%TD*%
D17*
%TO.C,IC19*%
X58102500Y3860500D03*
X59372500Y3860500D03*
X60642500Y3860500D03*
X61912500Y3860500D03*
X63182500Y3860500D03*
X64452500Y3860500D03*
X65722500Y3860500D03*
X66992500Y3860500D03*
X68262500Y3860500D03*
X69532500Y3860500D03*
X70802500Y3860500D03*
X72072500Y3860500D03*
X72072500Y13284500D03*
X70802500Y13284500D03*
X69532500Y13284500D03*
X68262500Y13284500D03*
X66992500Y13284500D03*
X65722500Y13284500D03*
X64452500Y13284500D03*
X63182500Y13284500D03*
X61912500Y13284500D03*
X60642500Y13284500D03*
X59372500Y13284500D03*
X58102500Y13284500D03*
%TD*%
D11*
%TO.C,LED12*%
X98679000Y8112000D03*
X98679000Y6112000D03*
%TD*%
D10*
%TO.C,RN9*%
X61347500Y21057500D03*
X62147500Y21057500D03*
X62947500Y21057500D03*
X63747500Y21057500D03*
X63747500Y22757500D03*
X62947500Y22757500D03*
X62147500Y22757500D03*
X61347500Y22757500D03*
%TD*%
%TO.C,RN18*%
X52952500Y22757500D03*
X52152500Y22757500D03*
X51352500Y22757500D03*
X50552500Y22757500D03*
X50552500Y21057500D03*
X51352500Y21057500D03*
X52152500Y21057500D03*
X52952500Y21057500D03*
%TD*%
D14*
%TO.C,R8*%
X102733000Y32107500D03*
X102733000Y33932500D03*
%TD*%
D10*
%TO.C,RN16*%
X36582500Y21057500D03*
X37382500Y21057500D03*
X38182500Y21057500D03*
X38982500Y21057500D03*
X38982500Y22757500D03*
X38182500Y22757500D03*
X37382500Y22757500D03*
X36582500Y22757500D03*
%TD*%
D14*
%TO.C,R1*%
X106797000Y32107500D03*
X106797000Y33932500D03*
%TD*%
D10*
%TO.C,RN21*%
X103702000Y22438200D03*
X104502000Y22438200D03*
X105302000Y22438200D03*
X106102000Y22438200D03*
X106102000Y24138200D03*
X105302000Y24138200D03*
X104502000Y24138200D03*
X103702000Y24138200D03*
%TD*%
D11*
%TO.C,LED1*%
X106807000Y38227000D03*
X106807000Y36227000D03*
%TD*%
D10*
%TO.C,RN15*%
X89147500Y22757500D03*
X88347500Y22757500D03*
X87547500Y22757500D03*
X86747500Y22757500D03*
X86747500Y21057500D03*
X87547500Y21057500D03*
X88347500Y21057500D03*
X89147500Y21057500D03*
%TD*%
%TO.C,RN13*%
X81667500Y21057500D03*
X82467500Y21057500D03*
X83267500Y21057500D03*
X84067500Y21057500D03*
X84067500Y22757500D03*
X83267500Y22757500D03*
X82467500Y22757500D03*
X81667500Y22757500D03*
%TD*%
%TO.C,RN17*%
X41027500Y21057500D03*
X41827500Y21057500D03*
X42627500Y21057500D03*
X43427500Y21057500D03*
X43427500Y22757500D03*
X42627500Y22757500D03*
X41827500Y22757500D03*
X41027500Y22757500D03*
%TD*%
D20*
%TO.C,R4*%
X109611000Y43076500D03*
X109611000Y41251500D03*
%TD*%
D10*
%TO.C,RN19*%
X48507500Y22757500D03*
X47707500Y22757500D03*
X46907500Y22757500D03*
X46107500Y22757500D03*
X46107500Y21057500D03*
X46907500Y21057500D03*
X47707500Y21057500D03*
X48507500Y21057500D03*
%TD*%
D11*
%TO.C,LED15*%
X110871000Y8112000D03*
X110871000Y6112000D03*
%TD*%
%TO.C,LED7*%
X110871000Y17764000D03*
X110871000Y15764000D03*
%TD*%
%TO.C,LED8*%
X98679000Y27622500D03*
X98679000Y25622500D03*
%TD*%
D10*
%TO.C,RN12*%
X77222500Y21057500D03*
X78022500Y21057500D03*
X78822500Y21057500D03*
X79622500Y21057500D03*
X79622500Y22757500D03*
X78822500Y22757500D03*
X78022500Y22757500D03*
X77222500Y22757500D03*
%TD*%
%TO.C,RN5*%
X20712500Y21057500D03*
X21512500Y21057500D03*
X22312500Y21057500D03*
X23112500Y21057500D03*
X23112500Y22757500D03*
X22312500Y22757500D03*
X21512500Y22757500D03*
X20712500Y22757500D03*
%TD*%
%TO.C,RN14*%
X93592500Y22757500D03*
X92792500Y22757500D03*
X91992500Y22757500D03*
X91192500Y22757500D03*
X91192500Y21057500D03*
X91992500Y21057500D03*
X92792500Y21057500D03*
X93592500Y21057500D03*
%TD*%
D17*
%TO.C,IC20*%
X78422500Y3860500D03*
X79692500Y3860500D03*
X80962500Y3860500D03*
X82232500Y3860500D03*
X83502500Y3860500D03*
X84772500Y3860500D03*
X86042500Y3860500D03*
X87312500Y3860500D03*
X88582500Y3860500D03*
X89852500Y3860500D03*
X91122500Y3860500D03*
X92392500Y3860500D03*
X92392500Y13284500D03*
X91122500Y13284500D03*
X89852500Y13284500D03*
X88582500Y13284500D03*
X87312500Y13284500D03*
X86042500Y13284500D03*
X84772500Y13284500D03*
X83502500Y13284500D03*
X82232500Y13284500D03*
X80962500Y13284500D03*
X79692500Y13284500D03*
X78422500Y13284500D03*
%TD*%
D21*
%TO.C,C24*%
X115926121Y38481000D03*
X114026121Y38481000D03*
%TD*%
D10*
%TO.C,RN6*%
X28187500Y22757500D03*
X27387500Y22757500D03*
X26587500Y22757500D03*
X25787500Y22757500D03*
X25787500Y21057500D03*
X26587500Y21057500D03*
X27387500Y21057500D03*
X28187500Y21057500D03*
%TD*%
D22*
%TO.C,C2*%
X7448000Y21971000D03*
X9348000Y21971000D03*
%TD*%
D17*
%TO.C,IC18*%
X17462500Y3860500D03*
X18732500Y3860500D03*
X20002500Y3860500D03*
X21272500Y3860500D03*
X22542500Y3860500D03*
X23812500Y3860500D03*
X25082500Y3860500D03*
X26352500Y3860500D03*
X27622500Y3860500D03*
X28892500Y3860500D03*
X30162500Y3860500D03*
X31432500Y3860500D03*
X31432500Y13284500D03*
X30162500Y13284500D03*
X28892500Y13284500D03*
X27622500Y13284500D03*
X26352500Y13284500D03*
X25082500Y13284500D03*
X23812500Y13284500D03*
X22542500Y13284500D03*
X21272500Y13284500D03*
X20002500Y13284500D03*
X18732500Y13284500D03*
X17462500Y13284500D03*
%TD*%
D11*
%TO.C,LED14*%
X106807000Y8112000D03*
X106807000Y6112000D03*
%TD*%
D13*
%TO.C,C35*%
X15367000Y12999000D03*
X15367000Y11099000D03*
%TD*%
D10*
%TO.C,RN7*%
X32632500Y22757500D03*
X31832500Y22757500D03*
X31032500Y22757500D03*
X30232500Y22757500D03*
X30232500Y21057500D03*
X31032500Y21057500D03*
X31832500Y21057500D03*
X32632500Y21057500D03*
%TD*%
D12*
%TO.C,DS4*%
X74212500Y29877500D03*
X75712500Y29877500D03*
X77212500Y29877500D03*
X78712500Y29877500D03*
X80212500Y29877500D03*
X81712500Y29877500D03*
X83212500Y29877500D03*
X84712500Y29877500D03*
X86212500Y29877500D03*
X87712500Y29877500D03*
X87712500Y41877500D03*
X86212500Y41877500D03*
X84712500Y41877500D03*
X83212500Y41877500D03*
X81712500Y41877500D03*
X80212500Y41877500D03*
X78712500Y41877500D03*
X77212500Y41877500D03*
X75712500Y41877500D03*
X74212500Y41877500D03*
%TD*%
M02*
