%TF.GenerationSoftware,KiCad,Pcbnew,7.0.5*%
%TF.CreationDate,2024-02-06T11:47:55+02:00*%
%TF.ProjectId,W65C816 Debug Display,57363543-3831-4362-9044-656275672044,rev?*%
%TF.SameCoordinates,Original*%
%TF.FileFunction,Paste,Top*%
%TF.FilePolarity,Positive*%
%FSLAX46Y46*%
G04 Gerber Fmt 4.6, Leading zero omitted, Abs format (unit mm)*
G04 Created by KiCad (PCBNEW 7.0.5) date 2024-02-06 11:47:55*
%MOMM*%
%LPD*%
G01*
G04 APERTURE LIST*
G04 Aperture macros list*
%AMRoundRect*
0 Rectangle with rounded corners*
0 $1 Rounding radius*
0 $2 $3 $4 $5 $6 $7 $8 $9 X,Y pos of 4 corners*
0 Add a 4 corners polygon primitive as box body*
4,1,4,$2,$3,$4,$5,$6,$7,$8,$9,$2,$3,0*
0 Add four circle primitives for the rounded corners*
1,1,$1+$1,$2,$3*
1,1,$1+$1,$4,$5*
1,1,$1+$1,$6,$7*
1,1,$1+$1,$8,$9*
0 Add four rect primitives between the rounded corners*
20,1,$1+$1,$2,$3,$4,$5,0*
20,1,$1+$1,$4,$5,$6,$7,0*
20,1,$1+$1,$6,$7,$8,$9,0*
20,1,$1+$1,$8,$9,$2,$3,0*%
G04 Aperture macros list end*
%ADD10R,0.450000X0.900000*%
%ADD11R,1.000000X0.800000*%
%ADD12R,1.000000X3.000000*%
%ADD13RoundRect,0.250000X-0.475000X0.250000X-0.475000X-0.250000X0.475000X-0.250000X0.475000X0.250000X0*%
%ADD14RoundRect,0.250000X0.450000X-0.262500X0.450000X0.262500X-0.450000X0.262500X-0.450000X-0.262500X0*%
%ADD15R,1.550000X0.650000*%
%ADD16RoundRect,0.250000X0.475000X-0.250000X0.475000X0.250000X-0.475000X0.250000X-0.475000X-0.250000X0*%
%ADD17R,0.650000X1.925000*%
%ADD18R,1.200000X1.500000*%
%ADD19R,3.300000X1.500000*%
%ADD20RoundRect,0.250000X-0.450000X0.262500X-0.450000X-0.262500X0.450000X-0.262500X0.450000X0.262500X0*%
%ADD21RoundRect,0.250000X0.250000X0.475000X-0.250000X0.475000X-0.250000X-0.475000X0.250000X-0.475000X0*%
%ADD22RoundRect,0.250000X-0.250000X-0.475000X0.250000X-0.475000X0.250000X0.475000X-0.250000X0.475000X0*%
G04 APERTURE END LIST*
D10*
%TO.C,RN4*%
X61665000Y-70700000D03*
X62465000Y-70700000D03*
X63265000Y-70700000D03*
X64065000Y-70700000D03*
X64065000Y-69000000D03*
X63265000Y-69000000D03*
X62465000Y-69000000D03*
X61665000Y-69000000D03*
%TD*%
D11*
%TO.C,LED5*%
X148145500Y-73993500D03*
X148145500Y-75993500D03*
%TD*%
D10*
%TO.C,RN11*%
X114230000Y-69000000D03*
X113430000Y-69000000D03*
X112630000Y-69000000D03*
X111830000Y-69000000D03*
X111830000Y-70700000D03*
X112630000Y-70700000D03*
X113430000Y-70700000D03*
X114230000Y-70700000D03*
%TD*%
D11*
%TO.C,LED10*%
X152209500Y-64135000D03*
X152209500Y-66135000D03*
%TD*%
D12*
%TO.C,DS3*%
X103740000Y-61880000D03*
X105240000Y-61880000D03*
X106740000Y-61880000D03*
X108240000Y-61880000D03*
X109740000Y-61880000D03*
X111240000Y-61880000D03*
X112740000Y-61880000D03*
X114240000Y-61880000D03*
X115740000Y-61880000D03*
X117240000Y-61880000D03*
X117240000Y-49880000D03*
X115740000Y-49880000D03*
X114240000Y-49880000D03*
X112740000Y-49880000D03*
X111240000Y-49880000D03*
X109740000Y-49880000D03*
X108240000Y-49880000D03*
X106740000Y-49880000D03*
X105240000Y-49880000D03*
X103740000Y-49880000D03*
%TD*%
D10*
%TO.C,RN8*%
X102305000Y-70700000D03*
X103105000Y-70700000D03*
X103905000Y-70700000D03*
X104705000Y-70700000D03*
X104705000Y-69000000D03*
X103905000Y-69000000D03*
X103105000Y-69000000D03*
X102305000Y-69000000D03*
%TD*%
D11*
%TO.C,LED11*%
X156273500Y-64135000D03*
X156273500Y-66135000D03*
%TD*%
D13*
%TO.C,C31*%
X121602500Y-79393500D03*
X121602500Y-81293500D03*
%TD*%
D14*
%TO.C,R5*%
X157590621Y-50506000D03*
X157590621Y-48681000D03*
%TD*%
D15*
%TO.C,IC10*%
X160336621Y-55181500D03*
X160336621Y-56451500D03*
X160336621Y-57721500D03*
X160336621Y-58991500D03*
X165786621Y-58991500D03*
X165786621Y-57721500D03*
X165786621Y-56451500D03*
X165786621Y-55181500D03*
%TD*%
D12*
%TO.C,DS2*%
X63100000Y-61880000D03*
X64600000Y-61880000D03*
X66100000Y-61880000D03*
X67600000Y-61880000D03*
X69100000Y-61880000D03*
X70600000Y-61880000D03*
X72100000Y-61880000D03*
X73600000Y-61880000D03*
X75100000Y-61880000D03*
X76600000Y-61880000D03*
X76600000Y-49880000D03*
X75100000Y-49880000D03*
X73600000Y-49880000D03*
X72100000Y-49880000D03*
X70600000Y-49880000D03*
X69100000Y-49880000D03*
X67600000Y-49880000D03*
X66100000Y-49880000D03*
X64600000Y-49880000D03*
X63100000Y-49880000D03*
%TD*%
D13*
%TO.C,C37*%
X101282500Y-79393500D03*
X101282500Y-81293500D03*
%TD*%
D11*
%TO.C,LED9*%
X148145500Y-64135000D03*
X148145500Y-66135000D03*
%TD*%
D16*
%TO.C,C7*%
X164204621Y-50527500D03*
X164204621Y-48627500D03*
%TD*%
D11*
%TO.C,LED13*%
X148272500Y-83645500D03*
X148272500Y-85645500D03*
%TD*%
D10*
%TO.C,RN10*%
X118675000Y-69000000D03*
X117875000Y-69000000D03*
X117075000Y-69000000D03*
X116275000Y-69000000D03*
X116275000Y-70700000D03*
X117075000Y-70700000D03*
X117875000Y-70700000D03*
X118675000Y-70700000D03*
%TD*%
%TO.C,RN22*%
X148850500Y-88826500D03*
X149650500Y-88826500D03*
X150450500Y-88826500D03*
X151250500Y-88826500D03*
X151250500Y-87126500D03*
X150450500Y-87126500D03*
X149650500Y-87126500D03*
X148850500Y-87126500D03*
%TD*%
D11*
%TO.C,LED3*%
X148145500Y-53546500D03*
X148145500Y-55546500D03*
%TD*%
%TO.C,LED2*%
X144081500Y-53546500D03*
X144081500Y-55546500D03*
%TD*%
D16*
%TO.C,C8*%
X161156621Y-50527500D03*
X161156621Y-48627500D03*
%TD*%
D14*
%TO.C,R7*%
X144071500Y-59777000D03*
X144071500Y-57952000D03*
%TD*%
D11*
%TO.C,LED4*%
X144081500Y-73993500D03*
X144081500Y-75993500D03*
%TD*%
D12*
%TO.C,DS5*%
X87865000Y-61880000D03*
X89365000Y-61880000D03*
X90865000Y-61880000D03*
X92365000Y-61880000D03*
X93865000Y-61880000D03*
X95365000Y-61880000D03*
X96865000Y-61880000D03*
X98365000Y-61880000D03*
X99865000Y-61880000D03*
X101365000Y-61880000D03*
X101365000Y-49880000D03*
X99865000Y-49880000D03*
X98365000Y-49880000D03*
X96865000Y-49880000D03*
X95365000Y-49880000D03*
X93865000Y-49880000D03*
X92365000Y-49880000D03*
X90865000Y-49880000D03*
X89365000Y-49880000D03*
X87865000Y-49880000D03*
%TD*%
D10*
%TO.C,RN20*%
X148393300Y-79936500D03*
X149193300Y-79936500D03*
X149993300Y-79936500D03*
X150793300Y-79936500D03*
X150793300Y-78236500D03*
X149993300Y-78236500D03*
X149193300Y-78236500D03*
X148393300Y-78236500D03*
%TD*%
D17*
%TO.C,IC21*%
X83185000Y-87897000D03*
X84455000Y-87897000D03*
X85725000Y-87897000D03*
X86995000Y-87897000D03*
X88265000Y-87897000D03*
X89535000Y-87897000D03*
X90805000Y-87897000D03*
X92075000Y-87897000D03*
X93345000Y-87897000D03*
X94615000Y-87897000D03*
X95885000Y-87897000D03*
X97155000Y-87897000D03*
X97155000Y-78473000D03*
X95885000Y-78473000D03*
X94615000Y-78473000D03*
X93345000Y-78473000D03*
X92075000Y-78473000D03*
X90805000Y-78473000D03*
X89535000Y-78473000D03*
X88265000Y-78473000D03*
X86995000Y-78473000D03*
X85725000Y-78473000D03*
X84455000Y-78473000D03*
X83185000Y-78473000D03*
%TD*%
D18*
%TO.C,IC1*%
X52627500Y-66382500D03*
X54927500Y-66382500D03*
X57227500Y-66382500D03*
D19*
X54927500Y-59982500D03*
%TD*%
D13*
%TO.C,C33*%
X80962500Y-79393500D03*
X80962500Y-81293500D03*
%TD*%
D11*
%TO.C,LED6*%
X152209500Y-73993500D03*
X152209500Y-75993500D03*
%TD*%
D17*
%TO.C,IC19*%
X103505000Y-87897000D03*
X104775000Y-87897000D03*
X106045000Y-87897000D03*
X107315000Y-87897000D03*
X108585000Y-87897000D03*
X109855000Y-87897000D03*
X111125000Y-87897000D03*
X112395000Y-87897000D03*
X113665000Y-87897000D03*
X114935000Y-87897000D03*
X116205000Y-87897000D03*
X117475000Y-87897000D03*
X117475000Y-78473000D03*
X116205000Y-78473000D03*
X114935000Y-78473000D03*
X113665000Y-78473000D03*
X112395000Y-78473000D03*
X111125000Y-78473000D03*
X109855000Y-78473000D03*
X108585000Y-78473000D03*
X107315000Y-78473000D03*
X106045000Y-78473000D03*
X104775000Y-78473000D03*
X103505000Y-78473000D03*
%TD*%
D11*
%TO.C,LED12*%
X144081500Y-83645500D03*
X144081500Y-85645500D03*
%TD*%
D10*
%TO.C,RN9*%
X106750000Y-70700000D03*
X107550000Y-70700000D03*
X108350000Y-70700000D03*
X109150000Y-70700000D03*
X109150000Y-69000000D03*
X108350000Y-69000000D03*
X107550000Y-69000000D03*
X106750000Y-69000000D03*
%TD*%
%TO.C,RN18*%
X98355000Y-69000000D03*
X97555000Y-69000000D03*
X96755000Y-69000000D03*
X95955000Y-69000000D03*
X95955000Y-70700000D03*
X96755000Y-70700000D03*
X97555000Y-70700000D03*
X98355000Y-70700000D03*
%TD*%
D14*
%TO.C,R8*%
X148135500Y-59650000D03*
X148135500Y-57825000D03*
%TD*%
D10*
%TO.C,RN16*%
X81985000Y-70700000D03*
X82785000Y-70700000D03*
X83585000Y-70700000D03*
X84385000Y-70700000D03*
X84385000Y-69000000D03*
X83585000Y-69000000D03*
X82785000Y-69000000D03*
X81985000Y-69000000D03*
%TD*%
D14*
%TO.C,R1*%
X152199500Y-59650000D03*
X152199500Y-57825000D03*
%TD*%
D10*
%TO.C,RN21*%
X149104500Y-69319300D03*
X149904500Y-69319300D03*
X150704500Y-69319300D03*
X151504500Y-69319300D03*
X151504500Y-67619300D03*
X150704500Y-67619300D03*
X149904500Y-67619300D03*
X149104500Y-67619300D03*
%TD*%
D11*
%TO.C,LED1*%
X152209500Y-53530500D03*
X152209500Y-55530500D03*
%TD*%
D10*
%TO.C,RN15*%
X134550000Y-69000000D03*
X133750000Y-69000000D03*
X132950000Y-69000000D03*
X132150000Y-69000000D03*
X132150000Y-70700000D03*
X132950000Y-70700000D03*
X133750000Y-70700000D03*
X134550000Y-70700000D03*
%TD*%
%TO.C,RN13*%
X127070000Y-70700000D03*
X127870000Y-70700000D03*
X128670000Y-70700000D03*
X129470000Y-70700000D03*
X129470000Y-69000000D03*
X128670000Y-69000000D03*
X127870000Y-69000000D03*
X127070000Y-69000000D03*
%TD*%
%TO.C,RN17*%
X86430000Y-70700000D03*
X87230000Y-70700000D03*
X88030000Y-70700000D03*
X88830000Y-70700000D03*
X88830000Y-69000000D03*
X88030000Y-69000000D03*
X87230000Y-69000000D03*
X86430000Y-69000000D03*
%TD*%
D20*
%TO.C,R4*%
X155013500Y-48681000D03*
X155013500Y-50506000D03*
%TD*%
D10*
%TO.C,RN19*%
X93910000Y-69000000D03*
X93110000Y-69000000D03*
X92310000Y-69000000D03*
X91510000Y-69000000D03*
X91510000Y-70700000D03*
X92310000Y-70700000D03*
X93110000Y-70700000D03*
X93910000Y-70700000D03*
%TD*%
D11*
%TO.C,LED15*%
X156273500Y-83645500D03*
X156273500Y-85645500D03*
%TD*%
%TO.C,LED7*%
X156273500Y-73993500D03*
X156273500Y-75993500D03*
%TD*%
%TO.C,LED8*%
X144081500Y-64135000D03*
X144081500Y-66135000D03*
%TD*%
D10*
%TO.C,RN12*%
X122625000Y-70700000D03*
X123425000Y-70700000D03*
X124225000Y-70700000D03*
X125025000Y-70700000D03*
X125025000Y-69000000D03*
X124225000Y-69000000D03*
X123425000Y-69000000D03*
X122625000Y-69000000D03*
%TD*%
%TO.C,RN5*%
X66115000Y-70700000D03*
X66915000Y-70700000D03*
X67715000Y-70700000D03*
X68515000Y-70700000D03*
X68515000Y-69000000D03*
X67715000Y-69000000D03*
X66915000Y-69000000D03*
X66115000Y-69000000D03*
%TD*%
%TO.C,RN14*%
X138995000Y-69000000D03*
X138195000Y-69000000D03*
X137395000Y-69000000D03*
X136595000Y-69000000D03*
X136595000Y-70700000D03*
X137395000Y-70700000D03*
X138195000Y-70700000D03*
X138995000Y-70700000D03*
%TD*%
D17*
%TO.C,IC20*%
X123825000Y-87897000D03*
X125095000Y-87897000D03*
X126365000Y-87897000D03*
X127635000Y-87897000D03*
X128905000Y-87897000D03*
X130175000Y-87897000D03*
X131445000Y-87897000D03*
X132715000Y-87897000D03*
X133985000Y-87897000D03*
X135255000Y-87897000D03*
X136525000Y-87897000D03*
X137795000Y-87897000D03*
X137795000Y-78473000D03*
X136525000Y-78473000D03*
X135255000Y-78473000D03*
X133985000Y-78473000D03*
X132715000Y-78473000D03*
X131445000Y-78473000D03*
X130175000Y-78473000D03*
X128905000Y-78473000D03*
X127635000Y-78473000D03*
X126365000Y-78473000D03*
X125095000Y-78473000D03*
X123825000Y-78473000D03*
%TD*%
D21*
%TO.C,C24*%
X161328621Y-53276500D03*
X159428621Y-53276500D03*
%TD*%
D10*
%TO.C,RN6*%
X73590000Y-69000000D03*
X72790000Y-69000000D03*
X71990000Y-69000000D03*
X71190000Y-69000000D03*
X71190000Y-70700000D03*
X71990000Y-70700000D03*
X72790000Y-70700000D03*
X73590000Y-70700000D03*
%TD*%
D22*
%TO.C,C2*%
X52850500Y-69786500D03*
X54750500Y-69786500D03*
%TD*%
D17*
%TO.C,IC18*%
X62865000Y-87897000D03*
X64135000Y-87897000D03*
X65405000Y-87897000D03*
X66675000Y-87897000D03*
X67945000Y-87897000D03*
X69215000Y-87897000D03*
X70485000Y-87897000D03*
X71755000Y-87897000D03*
X73025000Y-87897000D03*
X74295000Y-87897000D03*
X75565000Y-87897000D03*
X76835000Y-87897000D03*
X76835000Y-78473000D03*
X75565000Y-78473000D03*
X74295000Y-78473000D03*
X73025000Y-78473000D03*
X71755000Y-78473000D03*
X70485000Y-78473000D03*
X69215000Y-78473000D03*
X67945000Y-78473000D03*
X66675000Y-78473000D03*
X65405000Y-78473000D03*
X64135000Y-78473000D03*
X62865000Y-78473000D03*
%TD*%
D11*
%TO.C,LED14*%
X152209500Y-83645500D03*
X152209500Y-85645500D03*
%TD*%
D13*
%TO.C,C35*%
X60769500Y-78758500D03*
X60769500Y-80658500D03*
%TD*%
D10*
%TO.C,RN7*%
X78035000Y-69000000D03*
X77235000Y-69000000D03*
X76435000Y-69000000D03*
X75635000Y-69000000D03*
X75635000Y-70700000D03*
X76435000Y-70700000D03*
X77235000Y-70700000D03*
X78035000Y-70700000D03*
%TD*%
D12*
%TO.C,DS4*%
X119615000Y-61880000D03*
X121115000Y-61880000D03*
X122615000Y-61880000D03*
X124115000Y-61880000D03*
X125615000Y-61880000D03*
X127115000Y-61880000D03*
X128615000Y-61880000D03*
X130115000Y-61880000D03*
X131615000Y-61880000D03*
X133115000Y-61880000D03*
X133115000Y-49880000D03*
X131615000Y-49880000D03*
X130115000Y-49880000D03*
X128615000Y-49880000D03*
X127115000Y-49880000D03*
X125615000Y-49880000D03*
X124115000Y-49880000D03*
X122615000Y-49880000D03*
X121115000Y-49880000D03*
X119615000Y-49880000D03*
%TD*%
M02*
