M48
; DRILL file {KiCad 8.0.4} date 2024-08-13T19:00:50+0200
; FORMAT={-:-/ absolute / inch / decimal}
; #@! TF.CreationDate,2024-08-13T19:00:50+02:00
; #@! TF.GenerationSoftware,Kicad,Pcbnew,8.0.4
; #@! TF.FileFunction,Plated,1,2,PTH
FMAT,2
INCH
; #@! TA.AperFunction,Plated,PTH,ViaDrill
T1C0.0157
; #@! TA.AperFunction,Plated,PTH,ComponentDrill
T2C0.0394
%
G90
G05
T1
X3.6Y-3.265
X3.63Y-3.515
X3.64Y-3.875
X3.695Y-2.955
X3.7031Y-2.58
X3.7312Y-3.0
X3.74Y-2.65
X3.74Y-2.84
X3.75Y-3.56
X3.7729Y-3.2821
X3.7788Y-2.947
X3.795Y-2.62
X3.812Y-3.1
X3.8138Y-3.3477
X3.815Y-3.21
X3.815Y-3.415
X3.82Y-3.715
X3.8202Y-3.5048
X3.835Y-2.315
X3.85Y-2.8
X3.86Y-2.47
X3.86Y-2.93
X3.885Y-3.7
X3.885Y-3.19
X3.8874Y-2.705
X3.8874Y-2.9
X3.915Y-2.23
X3.915Y-3.02
X3.925Y-3.875
X3.93Y-2.57
X3.93Y-2.525
X3.9496Y-3.1746
X3.9496Y-3.664
X3.95Y-2.965
X3.95Y-3.07
X3.965Y-2.7689
X4.0076Y-3.1
X4.0076Y-3.3475
X4.01Y-3.23
X4.0304Y-3.1383
X4.0382Y-3.2608
X4.0397Y-3.39
X4.0429Y-3.5121
X4.0634Y-2.9928
X4.0686Y-2.8459
X4.0748Y-3.6152
X4.0748Y-2.685
X4.0755Y-3.4445
X4.0792Y-3.1089
X4.0909Y-2.9529
X4.1027Y-2.6508
X4.1049Y-3.5853
X4.1116Y-3.3807
X4.1185Y-2.99
X4.1206Y-2.927
X4.13Y-3.55
X4.13Y-3.7
X4.1347Y-2.6253
X4.1489Y-2.8997
X4.1628Y-3.4956
X4.165Y-2.6
X4.17Y-2.49
X4.175Y-2.83
X4.265Y-3.23
X4.276Y-2.9409
X4.285Y-2.89
X4.3123Y-3.3462
T2
X3.5Y-2.3
X3.5Y-2.4
X3.5Y-2.5
X3.5Y-2.6
X3.5Y-2.7
X3.5Y-2.8
X3.5Y-2.9
X3.5Y-3.0
X3.5Y-3.1
X3.5Y-3.2
X3.5Y-3.3
X3.5Y-3.4
X3.5Y-3.5
X3.5Y-3.6
X3.5Y-3.7
X3.5Y-3.8
X4.4Y-2.3
X4.4Y-2.4
X4.4Y-2.5
X4.4Y-2.6
X4.4Y-2.7
X4.4Y-2.8
X4.4Y-2.9
X4.4Y-3.0
X4.4Y-3.1
X4.4Y-3.2
X4.4Y-3.3
X4.4Y-3.4
X4.4Y-3.5
X4.4Y-3.6
X4.4Y-3.7
X4.4Y-3.8
M30
