%TF.GenerationSoftware,KiCad,Pcbnew,7.0.5*%
%TF.CreationDate,2023-12-18T07:09:22+02:00*%
%TF.ProjectId,PS2 FIFO,50533220-4649-4464-9f2e-6b696361645f,rev?*%
%TF.SameCoordinates,Original*%
%TF.FileFunction,Copper,L2,Bot*%
%TF.FilePolarity,Positive*%
%FSLAX46Y46*%
G04 Gerber Fmt 4.6, Leading zero omitted, Abs format (unit mm)*
G04 Created by KiCad (PCBNEW 7.0.5) date 2023-12-18 07:09:22*
%MOMM*%
%LPD*%
G01*
G04 APERTURE LIST*
G04 Aperture macros list*
%AMRoundRect*
0 Rectangle with rounded corners*
0 $1 Rounding radius*
0 $2 $3 $4 $5 $6 $7 $8 $9 X,Y pos of 4 corners*
0 Add a 4 corners polygon primitive as box body*
4,1,4,$2,$3,$4,$5,$6,$7,$8,$9,$2,$3,0*
0 Add four circle primitives for the rounded corners*
1,1,$1+$1,$2,$3*
1,1,$1+$1,$4,$5*
1,1,$1+$1,$6,$7*
1,1,$1+$1,$8,$9*
0 Add four rect primitives between the rounded corners*
20,1,$1+$1,$2,$3,$4,$5,0*
20,1,$1+$1,$4,$5,$6,$7,0*
20,1,$1+$1,$6,$7,$8,$9,0*
20,1,$1+$1,$8,$9,$2,$3,0*%
G04 Aperture macros list end*
%TA.AperFunction,ComponentPad*%
%ADD10RoundRect,0.400000X-0.400000X-0.400000X0.400000X-0.400000X0.400000X0.400000X-0.400000X0.400000X0*%
%TD*%
%TA.AperFunction,ComponentPad*%
%ADD11O,1.600000X1.600000*%
%TD*%
%TA.AperFunction,ComponentPad*%
%ADD12R,1.600000X1.600000*%
%TD*%
%TA.AperFunction,ViaPad*%
%ADD13C,0.800000*%
%TD*%
%TA.AperFunction,Conductor*%
%ADD14C,0.380000*%
%TD*%
%TA.AperFunction,Conductor*%
%ADD15C,0.200000*%
%TD*%
G04 APERTURE END LIST*
D10*
%TO.P,J1,1,Pin_1*%
%TO.N,/5V*%
X114300000Y-53340000D03*
D11*
%TO.P,J1,2,Pin_2*%
%TO.N,/~{Packet Pulse}*%
X114300000Y-55880000D03*
%TO.P,J1,3,Pin_3*%
%TO.N,/Read*%
X114300000Y-58420000D03*
%TO.P,J1,4,Pin_4*%
%TO.N,/~{Code Pulse}*%
X114300000Y-60960000D03*
D12*
%TO.P,J1,5,Pin_5*%
%TO.N,/GND*%
X114300000Y-63500000D03*
D11*
%TO.P,J1,6,Pin_6*%
%TO.N,/~{Clear Packet Waiting}*%
X114300000Y-66040000D03*
%TO.P,J1,7,Pin_7*%
%TO.N,/~{Clear Code Waiting}*%
X114300000Y-68580000D03*
%TO.P,J1,8,Pin_8*%
%TO.N,/Packet Pulse*%
X114300000Y-71120000D03*
%TO.P,J1,9,Pin_9*%
%TO.N,/~{Reset}*%
X114300000Y-73660000D03*
%TO.P,J1,10,Pin_10*%
%TO.N,unconnected-(J1-Pin_10-Pad10)*%
X114300000Y-76200000D03*
%TO.P,J1,11,Pin_11*%
%TO.N,unconnected-(J1-Pin_11-Pad11)*%
X114300000Y-78740000D03*
D12*
%TO.P,J1,12,Pin_12*%
%TO.N,/GND*%
X114300000Y-81280000D03*
D11*
%TO.P,J1,13,Pin_13*%
%TO.N,/Packet Pulse_{2}*%
X114300000Y-83820000D03*
%TO.P,J1,14,Pin_14*%
%TO.N,unconnected-(J1-Pin_14-Pad14)*%
X114300000Y-86360000D03*
%TO.P,J1,15,Pin_15*%
%TO.N,unconnected-(J1-Pin_15-Pad15)*%
X114300000Y-88900000D03*
%TO.P,J1,16,Pin_16*%
%TO.N,unconnected-(J1-Pin_16-Pad16)*%
X114300000Y-91440000D03*
D10*
%TO.P,J1,17,Pin_17*%
%TO.N,/5V*%
X137160000Y-91440000D03*
D11*
%TO.P,J1,18,Pin_18*%
%TO.N,/D0*%
X137160000Y-88900000D03*
%TO.P,J1,19,Pin_19*%
%TO.N,/D1*%
X137160000Y-86360000D03*
%TO.P,J1,20,Pin_20*%
%TO.N,/D2*%
X137160000Y-83820000D03*
D12*
%TO.P,J1,21,Pin_21*%
%TO.N,/GND*%
X137160000Y-81280000D03*
D11*
%TO.P,J1,22,Pin_22*%
%TO.N,/D3*%
X137160000Y-78740000D03*
%TO.P,J1,23,Pin_23*%
%TO.N,/D4*%
X137160000Y-76200000D03*
%TO.P,J1,24,Pin_24*%
%TO.N,/D5*%
X137160000Y-73660000D03*
%TO.P,J1,25,Pin_25*%
%TO.N,/D6*%
X137160000Y-71120000D03*
%TO.P,J1,26,Pin_26*%
%TO.N,/D7*%
X137160000Y-68580000D03*
%TO.P,J1,27,Pin_27*%
%TO.N,/Output Ready*%
X137160000Y-66040000D03*
D12*
%TO.P,J1,28,Pin_28*%
%TO.N,/GND*%
X137160000Y-63500000D03*
D11*
%TO.P,J1,29,Pin_29*%
%TO.N,/~{Packet Waiting}*%
X137160000Y-60960000D03*
%TO.P,J1,30,Pin_30*%
%TO.N,/~{Code Waiting}*%
X137160000Y-58420000D03*
%TO.P,J1,31,Pin_31*%
%TO.N,/~{Clock}*%
X137160000Y-55880000D03*
%TO.P,J1,32,Pin_32*%
%TO.N,/Data*%
X137160000Y-53340000D03*
%TD*%
D13*
%TO.N,/5V*%
X128270000Y-93726000D03*
X124460000Y-80518000D03*
X125105183Y-67548413D03*
X122700623Y-56549000D03*
%TO.N,/GND*%
X129286004Y-84328000D03*
X130810000Y-77978000D03*
X128900000Y-59709797D03*
X126238000Y-93698000D03*
X120650000Y-68834000D03*
X130010794Y-55771295D03*
X120142008Y-77978000D03*
X120650000Y-83566000D03*
X120396000Y-92709996D03*
X127254000Y-69850000D03*
X128900000Y-61722000D03*
X125984000Y-59944000D03*
X126746000Y-73406000D03*
X129032000Y-50291992D03*
%TO.N,/Output Ready*%
X117348000Y-84581988D03*
X117094006Y-69850000D03*
%TO.N,/Data*%
X135382000Y-59182000D03*
%TO.N,/3.3V*%
X135382000Y-90424000D03*
X128900000Y-58481585D03*
X134366000Y-69596000D03*
X133858000Y-58401000D03*
X134569385Y-61722000D03*
X134366000Y-76708000D03*
X126238000Y-51562000D03*
%TO.N,/Packet Pulse*%
X117856000Y-67310000D03*
X127254000Y-54610000D03*
X127508000Y-66576101D03*
X128065000Y-62812348D03*
%TO.N,/~{Clock}*%
X126545251Y-56466526D03*
X126664986Y-63184000D03*
%TO.N,/Packet Pulse_{2}*%
X116648000Y-71816272D03*
%TO.N,/Q0*%
X120142000Y-51562000D03*
X119460000Y-73244499D03*
%TO.N,/Q1*%
X119486932Y-74488426D03*
X120904000Y-52832000D03*
%TO.N,/Q2*%
X120396000Y-63969000D03*
X121353178Y-75829833D03*
%TO.N,/Q3*%
X121440000Y-76962000D03*
X121326310Y-63602220D03*
%TO.N,/~{Reset}*%
X125845251Y-55594385D03*
X126474838Y-64233313D03*
X126596657Y-81230115D03*
X127812615Y-71678615D03*
X125378994Y-92710000D03*
%TO.N,/~{Code Pulse}*%
X127000000Y-53086000D03*
X117348000Y-48768000D03*
X125225385Y-50749860D03*
%TO.N,/~{Code Waiting}*%
X133604000Y-57404000D03*
X132517950Y-55071295D03*
%TO.N,/~{Packet Pulse}*%
X132174004Y-57088000D03*
X132334000Y-53866801D03*
%TO.N,/Q4*%
X121172432Y-62498432D03*
X120650000Y-87630000D03*
%TO.N,/Q5*%
X121158000Y-88900000D03*
X121814569Y-61729731D03*
%TO.N,/Q6*%
X121082836Y-60810188D03*
X121666000Y-90170006D03*
%TO.N,/Q7*%
X121778240Y-60091566D03*
X122174000Y-91440000D03*
%TO.N,Net-(IC3-~{1RD})*%
X129619737Y-51482263D03*
X132333984Y-62738000D03*
%TO.N,/~{Packet Waiting}*%
X133350000Y-55688000D03*
%TO.N,Net-(IC3-~{2RD})*%
X130556000Y-54102000D03*
X130810000Y-64262000D03*
%TO.N,/~{Clear Code Waiting}*%
X130556000Y-66464012D03*
X130810000Y-63246000D03*
X115824000Y-67056000D03*
%TO.N,/D0*%
X132272000Y-79009997D03*
X132588000Y-88646000D03*
%TO.N,/D1*%
X132588000Y-86106000D03*
X132272000Y-80035969D03*
%TO.N,/D2*%
X135636000Y-79756006D03*
%TO.N,/D4*%
X133604000Y-75692000D03*
X132797825Y-81288098D03*
%TO.N,/~{Read}_{3}*%
X124978004Y-82550000D03*
X126238000Y-70485000D03*
%TO.N,Net-(IC5-DS)*%
X125984000Y-53473000D03*
X127314720Y-64776087D03*
%TO.N,/~{Read}*%
X128524000Y-77216000D03*
X128777995Y-72898005D03*
%TO.N,/Read*%
X130020000Y-83058000D03*
X130565016Y-57649000D03*
X131064000Y-71132000D03*
%TO.N,/~{Clear Packet Waiting}*%
X132668744Y-63774869D03*
X132842000Y-65786000D03*
%TD*%
D14*
%TO.N,/5V*%
X122700623Y-56549000D02*
X124642000Y-58490377D01*
X125222000Y-79756000D02*
X125222000Y-67665230D01*
X124009000Y-94037000D02*
X124009000Y-91832756D01*
X127508000Y-94488000D02*
X124460000Y-94488000D01*
X124642000Y-67085230D02*
X125105183Y-67548413D01*
X128270000Y-93726000D02*
X127508000Y-94488000D01*
X124460000Y-94488000D02*
X124009000Y-94037000D01*
X124188000Y-91653756D02*
X124188000Y-80790000D01*
X125222000Y-67665230D02*
X125105183Y-67548413D01*
X124642000Y-58490377D02*
X124642000Y-67085230D01*
X124460000Y-80518000D02*
X125222000Y-79756000D01*
X124188000Y-80790000D02*
X124460000Y-80518000D01*
X124009000Y-91832756D02*
X124188000Y-91653756D01*
%TO.N,/GND*%
X129426624Y-52406380D02*
X129426624Y-55187125D01*
X126746000Y-73406000D02*
X126492000Y-73660000D01*
X126492000Y-80194965D02*
X125806657Y-80880308D01*
X130810000Y-77978000D02*
X130810000Y-83566000D01*
X125806657Y-80880308D02*
X125806657Y-90855343D01*
X130048000Y-84328000D02*
X129286004Y-84328000D01*
X120650000Y-68834000D02*
X120650000Y-75415782D01*
X127254000Y-69850000D02*
X127254000Y-71120000D01*
X120142008Y-75923774D02*
X120142008Y-77978000D01*
X128900000Y-61722000D02*
X128900000Y-59709797D01*
X124589000Y-92073000D02*
X124589000Y-93093000D01*
X125222000Y-66548000D02*
X127254000Y-68580000D01*
X120650000Y-83566000D02*
X119634000Y-84582000D01*
X128750000Y-50573992D02*
X128750000Y-51729756D01*
X126492000Y-73660000D02*
X126492000Y-80194965D01*
X126492000Y-73152000D02*
X126746000Y-73406000D01*
X129426624Y-55187125D02*
X130010794Y-55771295D01*
X127254000Y-68580000D02*
X127254000Y-69850000D01*
X119634000Y-84582000D02*
X119634000Y-91947996D01*
X125222000Y-60706000D02*
X125222000Y-66548000D01*
X127254000Y-71120000D02*
X126492000Y-71882000D01*
X125194000Y-93698000D02*
X126238000Y-93698000D01*
X119634000Y-91947996D02*
X120396000Y-92709996D01*
X124589000Y-93093000D02*
X125194000Y-93698000D01*
X120650000Y-75415782D02*
X120142008Y-75923774D01*
X128750000Y-51729756D02*
X129426624Y-52406380D01*
X125984000Y-59944000D02*
X125222000Y-60706000D01*
X125806657Y-90855343D02*
X124589000Y-92073000D01*
X126492000Y-71882000D02*
X126492000Y-73152000D01*
X130810000Y-83566000D02*
X130048000Y-84328000D01*
X129032000Y-50291992D02*
X128750000Y-50573992D01*
D15*
%TO.N,/Output Ready*%
X117348000Y-70103994D02*
X117348000Y-84581988D01*
X117094006Y-69850000D02*
X117348000Y-70103994D01*
%TO.N,/Data*%
X135382000Y-55118000D02*
X135382000Y-59182000D01*
X137160000Y-53340000D02*
X135382000Y-55118000D01*
D14*
%TO.N,/3.3V*%
X134874000Y-69088000D02*
X134874000Y-62026615D01*
X133858000Y-58401000D02*
X133858000Y-61010615D01*
X134394000Y-76680000D02*
X134366000Y-76708000D01*
X133858000Y-61010615D02*
X134569385Y-61722000D01*
X127762000Y-51562000D02*
X128846624Y-52646624D01*
X134366000Y-76708000D02*
X134366000Y-89662000D01*
X128846624Y-52646624D02*
X128846624Y-58428209D01*
X135128000Y-90424000D02*
X135382000Y-90424000D01*
X134394000Y-69624000D02*
X134394000Y-76680000D01*
X134366000Y-89662000D02*
X135128000Y-90424000D01*
X134874000Y-62026615D02*
X134569385Y-61722000D01*
X134366000Y-69596000D02*
X134394000Y-69624000D01*
X126238000Y-51562000D02*
X127762000Y-51562000D01*
X128846624Y-58428209D02*
X128900000Y-58481585D01*
X134366000Y-69596000D02*
X134874000Y-69088000D01*
D15*
%TO.N,/Packet Pulse*%
X117856000Y-67564000D02*
X117856000Y-67310000D01*
X114300000Y-71120000D02*
X117856000Y-67564000D01*
X128215205Y-62962553D02*
X128215205Y-65868896D01*
X128200000Y-62677348D02*
X128065000Y-62812348D01*
X128065000Y-62812348D02*
X128215205Y-62962553D01*
X127254000Y-54610000D02*
X128200000Y-55556000D01*
X128215205Y-65868896D02*
X127508000Y-66576101D01*
X128200000Y-55556000D02*
X128200000Y-62677348D01*
%TO.N,/~{Clock}*%
X127400000Y-61887686D02*
X126664986Y-62622700D01*
X126545251Y-56466526D02*
X127400000Y-57321275D01*
X127400000Y-57321275D02*
X127400000Y-61887686D01*
X126664986Y-62622700D02*
X126664986Y-63184000D01*
%TO.N,/Packet Pulse_{2}*%
X116648000Y-81472000D02*
X116648000Y-71816272D01*
X114300000Y-83820000D02*
X116648000Y-81472000D01*
%TO.N,/Q0*%
X120142000Y-51562000D02*
X119145462Y-52558538D01*
X119145462Y-52558538D02*
X119145462Y-72929961D01*
X119145462Y-72929961D02*
X119460000Y-73244499D01*
%TO.N,/Q1*%
X120904000Y-52832000D02*
X119545462Y-54190538D01*
X119545462Y-54190538D02*
X119545462Y-71724427D01*
X120160000Y-73815358D02*
X119486932Y-74488426D01*
X120160000Y-72338965D02*
X120160000Y-73815358D01*
X119545462Y-71724427D02*
X120160000Y-72338965D01*
%TO.N,/Q2*%
X121698000Y-65271000D02*
X120396000Y-63969000D01*
X121353178Y-75829833D02*
X121698000Y-75485011D01*
X121698000Y-75485011D02*
X121698000Y-65271000D01*
%TO.N,/Q3*%
X121440000Y-76962000D02*
X122098000Y-76304000D01*
X122098000Y-64373910D02*
X121326310Y-63602220D01*
X122098000Y-76304000D02*
X122098000Y-64373910D01*
%TO.N,/~{Reset}*%
X126596661Y-81230119D02*
X126596657Y-81230115D01*
X127000000Y-58166000D02*
X127000000Y-61667034D01*
X125845251Y-55594385D02*
X125845251Y-57011251D01*
X125964986Y-63723461D02*
X126474838Y-64233313D01*
X126596661Y-91492333D02*
X126596661Y-81230119D01*
X126474838Y-67107874D02*
X126474838Y-64233313D01*
X128016000Y-71475230D02*
X128016000Y-68649036D01*
X128016000Y-68649036D02*
X126474838Y-67107874D01*
X125378994Y-92710000D02*
X126596661Y-91492333D01*
X127000000Y-61667034D02*
X125964986Y-62702048D01*
X127762000Y-71729230D02*
X127812615Y-71678615D01*
X125845251Y-57011251D02*
X127000000Y-58166000D01*
X125964986Y-62702048D02*
X125964986Y-63723461D01*
X127762000Y-80064772D02*
X127762000Y-71729230D01*
X127812615Y-71678615D02*
X128016000Y-71475230D01*
X126596657Y-81230115D02*
X127762000Y-80064772D01*
%TO.N,/~{Code Pulse}*%
X117348000Y-48768000D02*
X117348000Y-57912000D01*
X125225385Y-51565385D02*
X126746000Y-53086000D01*
X125225385Y-51565385D02*
X125225385Y-50749860D01*
X127000000Y-53086000D02*
X126746000Y-53086000D01*
X117348000Y-57912000D02*
X114300000Y-60960000D01*
%TO.N,/~{Code Waiting}*%
X132517950Y-56317950D02*
X133604000Y-57404000D01*
X132517950Y-55071295D02*
X132517950Y-56317950D01*
%TO.N,/~{Packet Pulse}*%
X131817950Y-56731946D02*
X132174004Y-57088000D01*
X131817950Y-54382851D02*
X131817950Y-56731946D01*
X132334000Y-53866801D02*
X131817950Y-54382851D01*
%TO.N,/Q4*%
X122498000Y-63783960D02*
X121212472Y-62498432D01*
X121212472Y-62498432D02*
X121172432Y-62498432D01*
X122498000Y-85782000D02*
X122498000Y-63783960D01*
X120650000Y-87630000D02*
X122498000Y-85782000D01*
%TO.N,/Q5*%
X121158000Y-88900000D02*
X122898000Y-87160000D01*
X122898000Y-62813162D02*
X121814569Y-61729731D01*
X122898000Y-87160000D02*
X122898000Y-62813162D01*
%TO.N,/Q6*%
X121666000Y-90170006D02*
X123298000Y-88538006D01*
X123298000Y-88538006D02*
X123298000Y-62223212D01*
X121884976Y-60810188D02*
X121082836Y-60810188D01*
X123298000Y-62223212D02*
X121884976Y-60810188D01*
%TO.N,/Q7*%
X123698000Y-89916000D02*
X123698000Y-62011326D01*
X122174000Y-91440000D02*
X123698000Y-89916000D01*
X123698000Y-62011326D02*
X121778240Y-60091566D01*
%TO.N,Net-(IC3-~{1RD})*%
X132333984Y-58237930D02*
X131318000Y-57221946D01*
X131318000Y-57221946D02*
X131318000Y-53180526D01*
X131318000Y-53180526D02*
X129619737Y-51482263D01*
X132333984Y-62738000D02*
X132333984Y-58237930D01*
%TO.N,/~{Packet Waiting}*%
X134620000Y-56958000D02*
X133350000Y-55688000D01*
X135890000Y-60960000D02*
X134620000Y-59690000D01*
X134620000Y-59690000D02*
X134620000Y-56958000D01*
X137160000Y-60960000D02*
X135890000Y-60960000D01*
%TO.N,Net-(IC3-~{2RD})*%
X129794000Y-63246000D02*
X129794000Y-57377950D01*
X130820472Y-56351478D02*
X130820472Y-54366472D01*
X130810000Y-64262000D02*
X129794000Y-63246000D01*
X130820472Y-54366472D02*
X130556000Y-54102000D01*
X129794000Y-57377950D02*
X130820472Y-56351478D01*
%TO.N,/~{Clear Code Waiting}*%
X114300000Y-68580000D02*
X115824000Y-67056000D01*
X131572000Y-65448012D02*
X130556000Y-66464012D01*
X131572000Y-64008000D02*
X131572000Y-65448012D01*
X130810000Y-63246000D02*
X131572000Y-64008000D01*
%TO.N,/D0*%
X131300000Y-79981997D02*
X132272000Y-79009997D01*
X131300000Y-87358000D02*
X131300000Y-79981997D01*
X132588000Y-88646000D02*
X131300000Y-87358000D01*
%TO.N,/D1*%
X131700000Y-85218000D02*
X131700000Y-80607969D01*
X132588000Y-86106000D02*
X131700000Y-85218000D01*
X131700000Y-80607969D02*
X132272000Y-80035969D01*
%TO.N,/D2*%
X135636000Y-82296000D02*
X135636000Y-79756006D01*
X137160000Y-83820000D02*
X135636000Y-82296000D01*
%TO.N,/D4*%
X133350000Y-75946000D02*
X133604000Y-75692000D01*
X132797825Y-81288098D02*
X133350000Y-80735923D01*
X133350000Y-80735923D02*
X133350000Y-75946000D01*
%TO.N,/~{Read}_{3}*%
X124978004Y-82550000D02*
X124978004Y-81015996D01*
X124978004Y-81015996D02*
X125730000Y-80264000D01*
X125730000Y-80264000D02*
X125730000Y-70993000D01*
X125730000Y-70993000D02*
X126238000Y-70485000D01*
%TO.N,Net-(IC5-DS)*%
X127800000Y-56426000D02*
X127800000Y-62065136D01*
X125984000Y-54610000D02*
X127800000Y-56426000D01*
X127365000Y-62500136D02*
X127365000Y-64725807D01*
X127800000Y-62065136D02*
X127365000Y-62500136D01*
X125984000Y-53473000D02*
X125984000Y-54610000D01*
X127365000Y-64725807D02*
X127314720Y-64776087D01*
%TO.N,/~{Read}*%
X128524000Y-77216000D02*
X128524000Y-73152000D01*
X128524000Y-73152000D02*
X128777995Y-72898005D01*
%TO.N,/Read*%
X131318000Y-66267697D02*
X131972000Y-65613697D01*
X131572000Y-58655984D02*
X130565016Y-57649000D01*
X131318000Y-70878000D02*
X131318000Y-66267697D01*
X131972000Y-65613697D02*
X131972000Y-63842314D01*
X131064000Y-71132000D02*
X131318000Y-70878000D01*
X131572000Y-63442314D02*
X131572000Y-58655984D01*
X131064000Y-71132000D02*
X130020000Y-72176000D01*
X130020000Y-72176000D02*
X130020000Y-83058000D01*
X131972000Y-63842314D02*
X131572000Y-63442314D01*
%TO.N,/~{Clear Packet Waiting}*%
X132668744Y-63774869D02*
X132842000Y-63948125D01*
X132842000Y-63948125D02*
X132842000Y-65786000D01*
%TD*%
%TA.AperFunction,Conductor*%
%TO.N,/GND*%
G36*
X133986351Y-47875559D02*
G01*
X134403236Y-47893760D01*
X134408589Y-47894229D01*
X134820967Y-47948519D01*
X134826268Y-47949454D01*
X135232335Y-48039477D01*
X135237525Y-48040867D01*
X135634209Y-48165941D01*
X135639286Y-48167789D01*
X136023552Y-48326958D01*
X136028422Y-48329229D01*
X136397371Y-48521291D01*
X136402020Y-48523976D01*
X136752809Y-48747454D01*
X136757231Y-48750550D01*
X137087197Y-49003741D01*
X137091342Y-49007220D01*
X137363881Y-49256957D01*
X137397975Y-49288198D01*
X137401801Y-49292024D01*
X137682779Y-49598657D01*
X137686258Y-49602802D01*
X137939449Y-49932768D01*
X137942548Y-49937194D01*
X138166018Y-50287972D01*
X138168712Y-50292635D01*
X138325093Y-50593042D01*
X138360761Y-50661559D01*
X138363048Y-50666463D01*
X138522208Y-51050709D01*
X138524059Y-51055794D01*
X138649125Y-51452450D01*
X138650525Y-51457677D01*
X138740543Y-51863725D01*
X138741483Y-51869054D01*
X138795768Y-52281393D01*
X138796240Y-52286784D01*
X138814441Y-52703648D01*
X138814500Y-52706352D01*
X138814500Y-92073646D01*
X138814441Y-92076350D01*
X138796240Y-92493215D01*
X138795768Y-92498606D01*
X138741483Y-92910945D01*
X138740543Y-92916274D01*
X138650525Y-93322322D01*
X138649125Y-93327546D01*
X138634858Y-93372795D01*
X138524059Y-93724205D01*
X138522208Y-93729290D01*
X138363048Y-94113536D01*
X138360760Y-94118440D01*
X138246104Y-94338696D01*
X138168719Y-94487351D01*
X138166013Y-94492037D01*
X137942553Y-94842798D01*
X137939449Y-94847231D01*
X137686258Y-95177197D01*
X137682779Y-95181342D01*
X137401801Y-95487975D01*
X137397975Y-95491801D01*
X137091342Y-95772779D01*
X137087197Y-95776258D01*
X136757231Y-96029449D01*
X136752798Y-96032553D01*
X136402037Y-96256013D01*
X136397351Y-96258719D01*
X136028440Y-96450761D01*
X136023536Y-96453048D01*
X135639290Y-96612208D01*
X135634205Y-96614059D01*
X135237549Y-96739125D01*
X135232322Y-96740525D01*
X134826274Y-96830543D01*
X134820945Y-96831483D01*
X134408606Y-96885768D01*
X134403215Y-96886240D01*
X133986351Y-96904441D01*
X133983647Y-96904500D01*
X117476353Y-96904500D01*
X117473649Y-96904441D01*
X117056784Y-96886240D01*
X117051393Y-96885768D01*
X116845223Y-96858625D01*
X116639051Y-96831482D01*
X116633725Y-96830543D01*
X116227677Y-96740525D01*
X116222458Y-96739127D01*
X116036218Y-96680405D01*
X115825794Y-96614059D01*
X115820709Y-96612208D01*
X115600171Y-96520858D01*
X115436457Y-96453045D01*
X115431567Y-96450765D01*
X115062635Y-96258712D01*
X115057972Y-96256018D01*
X114707194Y-96032548D01*
X114702768Y-96029449D01*
X114372802Y-95776258D01*
X114368657Y-95772779D01*
X114062024Y-95491801D01*
X114058198Y-95487975D01*
X113777220Y-95181342D01*
X113773741Y-95177197D01*
X113578056Y-94922175D01*
X113520548Y-94847228D01*
X113517454Y-94842809D01*
X113293976Y-94492020D01*
X113291291Y-94487371D01*
X113099229Y-94118422D01*
X113096958Y-94113552D01*
X112937789Y-93729286D01*
X112935940Y-93724205D01*
X112810867Y-93327525D01*
X112809477Y-93322335D01*
X112719454Y-92916268D01*
X112718519Y-92910967D01*
X112664229Y-92498589D01*
X112663760Y-92493236D01*
X112645559Y-92076350D01*
X112645500Y-92073646D01*
X112645500Y-91439999D01*
X113244417Y-91439999D01*
X113264699Y-91645932D01*
X113288620Y-91724790D01*
X113324768Y-91843954D01*
X113422315Y-92026450D01*
X113448211Y-92058004D01*
X113553589Y-92186410D01*
X113650209Y-92265702D01*
X113713550Y-92317685D01*
X113896046Y-92415232D01*
X114094066Y-92475300D01*
X114094065Y-92475300D01*
X114112529Y-92477118D01*
X114300000Y-92495583D01*
X114505934Y-92475300D01*
X114703954Y-92415232D01*
X114886450Y-92317685D01*
X115046410Y-92186410D01*
X115177685Y-92026450D01*
X115275232Y-91843954D01*
X115335300Y-91645934D01*
X115355583Y-91440000D01*
X115335300Y-91234066D01*
X115275232Y-91036046D01*
X115177685Y-90853550D01*
X115070145Y-90722511D01*
X115046410Y-90693589D01*
X114916814Y-90587234D01*
X114886450Y-90562315D01*
X114703954Y-90464768D01*
X114505934Y-90404700D01*
X114505932Y-90404699D01*
X114505934Y-90404699D01*
X114318463Y-90386235D01*
X114300000Y-90384417D01*
X114299999Y-90384417D01*
X114094067Y-90404699D01*
X113896043Y-90464769D01*
X113789129Y-90521917D01*
X113713550Y-90562315D01*
X113713548Y-90562316D01*
X113713547Y-90562317D01*
X113553589Y-90693589D01*
X113426452Y-90848509D01*
X113422315Y-90853550D01*
X113394045Y-90906439D01*
X113324769Y-91036043D01*
X113264699Y-91234067D01*
X113244417Y-91439999D01*
X112645500Y-91439999D01*
X112645500Y-88900000D01*
X113244417Y-88900000D01*
X113264699Y-89105932D01*
X113288770Y-89185283D01*
X113324768Y-89303954D01*
X113422315Y-89486450D01*
X113448645Y-89518533D01*
X113553589Y-89646410D01*
X113592882Y-89678656D01*
X113713550Y-89777685D01*
X113896046Y-89875232D01*
X114094066Y-89935300D01*
X114094065Y-89935300D01*
X114112529Y-89937118D01*
X114300000Y-89955583D01*
X114505934Y-89935300D01*
X114703954Y-89875232D01*
X114886450Y-89777685D01*
X115046410Y-89646410D01*
X115177685Y-89486450D01*
X115275232Y-89303954D01*
X115335300Y-89105934D01*
X115355583Y-88900000D01*
X115335300Y-88694066D01*
X115275232Y-88496046D01*
X115177685Y-88313550D01*
X115096842Y-88215042D01*
X115046410Y-88153589D01*
X114886452Y-88022317D01*
X114886453Y-88022317D01*
X114886450Y-88022315D01*
X114703954Y-87924768D01*
X114505934Y-87864700D01*
X114505932Y-87864699D01*
X114505934Y-87864699D01*
X114300000Y-87844417D01*
X114094067Y-87864699D01*
X113896043Y-87924769D01*
X113785897Y-87983643D01*
X113713550Y-88022315D01*
X113713548Y-88022316D01*
X113713547Y-88022317D01*
X113553589Y-88153589D01*
X113422317Y-88313547D01*
X113422315Y-88313550D01*
X113394044Y-88366441D01*
X113324769Y-88496043D01*
X113264699Y-88694067D01*
X113244417Y-88900000D01*
X112645500Y-88900000D01*
X112645500Y-86359999D01*
X113244417Y-86359999D01*
X113264699Y-86565932D01*
X113264700Y-86565934D01*
X113324768Y-86763954D01*
X113422315Y-86946450D01*
X113422317Y-86946452D01*
X113553589Y-87106410D01*
X113620663Y-87161455D01*
X113713550Y-87237685D01*
X113896046Y-87335232D01*
X114094066Y-87395300D01*
X114094065Y-87395300D01*
X114114347Y-87397297D01*
X114300000Y-87415583D01*
X114505934Y-87395300D01*
X114703954Y-87335232D01*
X114886450Y-87237685D01*
X115046410Y-87106410D01*
X115177685Y-86946450D01*
X115275232Y-86763954D01*
X115335300Y-86565934D01*
X115355583Y-86360000D01*
X115335300Y-86154066D01*
X115275232Y-85956046D01*
X115177685Y-85773550D01*
X115095278Y-85673136D01*
X115046410Y-85613589D01*
X114886452Y-85482317D01*
X114886453Y-85482317D01*
X114886450Y-85482315D01*
X114703954Y-85384768D01*
X114505934Y-85324700D01*
X114505932Y-85324699D01*
X114505934Y-85324699D01*
X114300000Y-85304417D01*
X114094067Y-85324699D01*
X113896043Y-85384769D01*
X113785897Y-85443643D01*
X113713550Y-85482315D01*
X113713548Y-85482316D01*
X113713547Y-85482317D01*
X113553589Y-85613589D01*
X113422317Y-85773547D01*
X113324769Y-85956043D01*
X113264699Y-86154067D01*
X113244417Y-86359999D01*
X112645500Y-86359999D01*
X112645500Y-82127844D01*
X113000000Y-82127844D01*
X113006401Y-82187372D01*
X113006403Y-82187379D01*
X113056645Y-82322086D01*
X113056649Y-82322093D01*
X113142809Y-82437187D01*
X113142812Y-82437190D01*
X113257906Y-82523350D01*
X113257913Y-82523354D01*
X113392620Y-82573596D01*
X113392627Y-82573598D01*
X113452155Y-82579999D01*
X113452172Y-82580000D01*
X113932930Y-82580000D01*
X113999969Y-82599685D01*
X114045724Y-82652489D01*
X114055668Y-82721647D01*
X114026643Y-82785203D01*
X113968925Y-82822660D01*
X113896046Y-82844768D01*
X113896043Y-82844769D01*
X113790506Y-82901181D01*
X113713550Y-82942315D01*
X113713548Y-82942316D01*
X113713547Y-82942317D01*
X113553589Y-83073589D01*
X113422317Y-83233547D01*
X113324769Y-83416043D01*
X113264699Y-83614067D01*
X113244417Y-83820000D01*
X113264699Y-84025932D01*
X113269787Y-84042705D01*
X113324768Y-84223954D01*
X113422315Y-84406450D01*
X113422317Y-84406452D01*
X113553589Y-84566410D01*
X113650209Y-84645702D01*
X113713550Y-84697685D01*
X113896046Y-84795232D01*
X114094066Y-84855300D01*
X114094065Y-84855300D01*
X114112529Y-84857118D01*
X114300000Y-84875583D01*
X114505934Y-84855300D01*
X114703954Y-84795232D01*
X114886450Y-84697685D01*
X115046410Y-84566410D01*
X115177685Y-84406450D01*
X115275232Y-84223954D01*
X115335300Y-84025934D01*
X115355583Y-83820000D01*
X115335300Y-83614066D01*
X115279210Y-83429163D01*
X115278588Y-83359298D01*
X115310189Y-83305491D01*
X116785819Y-81829862D01*
X116847142Y-81796377D01*
X116916834Y-81801361D01*
X116972767Y-81843233D01*
X116997184Y-81908697D01*
X116997500Y-81917543D01*
X116997500Y-83967637D01*
X116977815Y-84034676D01*
X116955728Y-84060450D01*
X116857519Y-84147456D01*
X116857516Y-84147459D01*
X116767781Y-84277463D01*
X116767780Y-84277464D01*
X116711762Y-84425169D01*
X116692721Y-84581987D01*
X116692721Y-84581988D01*
X116711762Y-84738806D01*
X116767779Y-84886511D01*
X116767780Y-84886511D01*
X116857517Y-85016518D01*
X116975760Y-85121271D01*
X116975762Y-85121272D01*
X117115634Y-85194684D01*
X117269014Y-85232488D01*
X117269015Y-85232488D01*
X117426985Y-85232488D01*
X117580365Y-85194684D01*
X117720240Y-85121271D01*
X117838483Y-85016518D01*
X117928220Y-84886511D01*
X117984237Y-84738806D01*
X118003278Y-84581988D01*
X117984237Y-84425170D01*
X117977137Y-84406450D01*
X117962992Y-84369152D01*
X117928220Y-84277465D01*
X117838483Y-84147458D01*
X117838482Y-84147456D01*
X117770976Y-84087652D01*
X117740272Y-84060451D01*
X117703146Y-84001264D01*
X117698500Y-83967644D01*
X117698500Y-72915278D01*
X118790419Y-72915278D01*
X118794485Y-72947898D01*
X118794962Y-72955575D01*
X118794962Y-72959001D01*
X118797694Y-72975381D01*
X118798338Y-72979237D01*
X118798707Y-72981769D01*
X118804889Y-73031354D01*
X118806982Y-73038387D01*
X118812706Y-73055056D01*
X118809925Y-73056010D01*
X118821116Y-73108410D01*
X118820562Y-73114040D01*
X118804722Y-73244498D01*
X118804721Y-73244499D01*
X118823762Y-73401317D01*
X118879780Y-73549022D01*
X118879781Y-73549023D01*
X118969516Y-73679028D01*
X119089785Y-73785576D01*
X119126912Y-73844766D01*
X119126144Y-73914631D01*
X119089785Y-73971207D01*
X118996450Y-74053894D01*
X118906713Y-74183901D01*
X118906712Y-74183902D01*
X118850694Y-74331607D01*
X118831654Y-74488425D01*
X118831654Y-74488426D01*
X118850694Y-74645244D01*
X118906711Y-74792948D01*
X118906712Y-74792949D01*
X118996449Y-74922956D01*
X119114692Y-75027709D01*
X119114694Y-75027710D01*
X119254566Y-75101122D01*
X119407946Y-75138926D01*
X119407947Y-75138926D01*
X119565917Y-75138926D01*
X119719297Y-75101122D01*
X119789805Y-75064116D01*
X119859172Y-75027709D01*
X119977415Y-74922956D01*
X120067152Y-74792949D01*
X120123169Y-74645244D01*
X120142210Y-74488426D01*
X120132206Y-74406042D01*
X120143666Y-74337121D01*
X120167618Y-74303419D01*
X120373043Y-74097994D01*
X120392894Y-74081874D01*
X120400669Y-74076795D01*
X120420864Y-74050846D01*
X120425942Y-74045095D01*
X120428375Y-74042664D01*
X120440301Y-74025958D01*
X120441804Y-74023942D01*
X120472517Y-73984484D01*
X120472519Y-73984475D01*
X120476017Y-73978013D01*
X120479241Y-73971421D01*
X120485873Y-73949143D01*
X120493506Y-73923502D01*
X120494264Y-73921135D01*
X120510500Y-73873846D01*
X120510500Y-73873839D01*
X120511706Y-73866614D01*
X120512617Y-73859310D01*
X120510553Y-73809408D01*
X120510500Y-73806846D01*
X120510500Y-72388176D01*
X120513139Y-72362729D01*
X120513979Y-72358722D01*
X120515043Y-72353650D01*
X120510996Y-72321182D01*
X120510977Y-72321026D01*
X120510500Y-72313350D01*
X120510500Y-72309927D01*
X120509762Y-72305504D01*
X120507118Y-72289664D01*
X120506754Y-72287155D01*
X120500573Y-72237572D01*
X120498477Y-72230533D01*
X120496091Y-72223581D01*
X120474946Y-72184510D01*
X120472313Y-72179646D01*
X120471157Y-72177402D01*
X120457949Y-72150383D01*
X120449200Y-72132484D01*
X120444919Y-72126489D01*
X120440420Y-72120709D01*
X120436947Y-72117512D01*
X120403642Y-72086852D01*
X120401820Y-72085103D01*
X119932281Y-71615564D01*
X119898796Y-71554241D01*
X119895962Y-71527883D01*
X119895962Y-64646330D01*
X119915647Y-64579291D01*
X119968451Y-64533536D01*
X120037609Y-64523592D01*
X120077584Y-64536532D01*
X120163635Y-64581696D01*
X120240325Y-64600597D01*
X120317014Y-64619500D01*
X120317015Y-64619500D01*
X120474986Y-64619500D01*
X120482431Y-64618596D01*
X120482837Y-64621941D01*
X120537459Y-64624221D01*
X120585275Y-64653957D01*
X121311181Y-65379863D01*
X121344666Y-65441186D01*
X121347500Y-65467544D01*
X121347500Y-75064116D01*
X121327815Y-75131155D01*
X121275011Y-75176910D01*
X121253175Y-75184513D01*
X121120811Y-75217137D01*
X120980940Y-75290548D01*
X120862694Y-75395304D01*
X120772959Y-75525308D01*
X120772958Y-75525309D01*
X120716940Y-75673014D01*
X120697900Y-75829832D01*
X120697900Y-75829833D01*
X120716940Y-75986651D01*
X120772958Y-76134356D01*
X120862695Y-76264363D01*
X120949833Y-76341559D01*
X120986958Y-76400747D01*
X120986191Y-76470613D01*
X120953709Y-76521162D01*
X120954491Y-76521855D01*
X120950027Y-76526892D01*
X120949844Y-76527179D01*
X120949520Y-76527466D01*
X120949518Y-76527467D01*
X120859781Y-76657475D01*
X120859780Y-76657476D01*
X120803762Y-76805181D01*
X120784721Y-76961999D01*
X120784721Y-76962000D01*
X120803762Y-77118818D01*
X120850714Y-77242618D01*
X120859780Y-77266523D01*
X120949517Y-77396530D01*
X121067760Y-77501283D01*
X121067762Y-77501284D01*
X121207634Y-77574696D01*
X121361014Y-77612500D01*
X121361015Y-77612500D01*
X121518985Y-77612500D01*
X121672365Y-77574696D01*
X121672364Y-77574696D01*
X121812240Y-77501283D01*
X121930483Y-77396530D01*
X121930486Y-77396525D01*
X121930681Y-77396306D01*
X121930867Y-77396189D01*
X121936097Y-77391556D01*
X121936867Y-77392425D01*
X121989869Y-77359177D01*
X122059735Y-77359941D01*
X122118096Y-77398356D01*
X122146424Y-77462226D01*
X122147500Y-77478529D01*
X122147500Y-85585455D01*
X122127815Y-85652494D01*
X122111181Y-85673136D01*
X120839274Y-86945042D01*
X120777951Y-86978527D01*
X120736721Y-86978004D01*
X120736430Y-86980404D01*
X120728985Y-86979500D01*
X120571015Y-86979500D01*
X120571014Y-86979500D01*
X120417634Y-87017303D01*
X120277762Y-87090715D01*
X120159516Y-87195471D01*
X120069781Y-87325475D01*
X120069780Y-87325476D01*
X120013762Y-87473181D01*
X119994721Y-87629999D01*
X119994721Y-87630000D01*
X120013762Y-87786818D01*
X120058789Y-87905543D01*
X120069780Y-87934523D01*
X120159517Y-88064530D01*
X120277760Y-88169283D01*
X120277762Y-88169284D01*
X120417634Y-88242696D01*
X120445240Y-88249500D01*
X120571015Y-88280500D01*
X120571024Y-88280500D01*
X120574225Y-88280889D01*
X120576413Y-88281830D01*
X120578297Y-88282295D01*
X120578219Y-88282608D01*
X120638404Y-88308508D01*
X120677463Y-88366441D01*
X120679001Y-88436293D01*
X120661335Y-88474425D01*
X120577780Y-88595476D01*
X120521762Y-88743181D01*
X120502721Y-88899999D01*
X120502721Y-88900000D01*
X120521762Y-89056818D01*
X120574498Y-89195869D01*
X120577780Y-89204523D01*
X120667517Y-89334530D01*
X120785760Y-89439283D01*
X120785762Y-89439284D01*
X120925634Y-89512696D01*
X121079010Y-89550499D01*
X121079011Y-89550499D01*
X121079015Y-89550500D01*
X121079018Y-89550500D01*
X121082224Y-89550889D01*
X121084411Y-89551830D01*
X121086297Y-89552295D01*
X121086219Y-89552608D01*
X121146404Y-89578505D01*
X121185466Y-89636435D01*
X121187007Y-89706288D01*
X121169339Y-89744425D01*
X121085780Y-89865482D01*
X121029762Y-90013187D01*
X121010721Y-90170005D01*
X121010721Y-90170006D01*
X121029762Y-90326824D01*
X121085779Y-90474528D01*
X121085780Y-90474529D01*
X121175517Y-90604536D01*
X121293760Y-90709289D01*
X121293762Y-90709290D01*
X121433634Y-90782702D01*
X121522050Y-90804494D01*
X121587015Y-90820506D01*
X121587019Y-90820506D01*
X121590215Y-90820894D01*
X121592396Y-90821832D01*
X121594297Y-90822301D01*
X121594219Y-90822616D01*
X121654396Y-90848509D01*
X121693458Y-90906439D01*
X121695000Y-90976291D01*
X121677331Y-91014431D01*
X121593781Y-91135475D01*
X121593780Y-91135476D01*
X121537762Y-91283181D01*
X121518721Y-91439999D01*
X121518721Y-91440000D01*
X121537762Y-91596818D01*
X121587581Y-91728177D01*
X121593780Y-91744523D01*
X121683517Y-91874530D01*
X121801760Y-91979283D01*
X121801762Y-91979284D01*
X121941634Y-92052696D01*
X122095014Y-92090500D01*
X122095015Y-92090500D01*
X122252985Y-92090500D01*
X122406365Y-92052696D01*
X122406364Y-92052695D01*
X122546240Y-91979283D01*
X122664483Y-91874530D01*
X122754220Y-91744523D01*
X122810237Y-91596818D01*
X122829278Y-91440000D01*
X122819274Y-91357617D01*
X122830734Y-91288696D01*
X122854686Y-91254994D01*
X123535819Y-90573862D01*
X123597141Y-90540378D01*
X123666833Y-90545362D01*
X123722766Y-90587234D01*
X123747183Y-90652698D01*
X123747499Y-90661544D01*
X123747499Y-91418158D01*
X123727814Y-91485197D01*
X123700816Y-91515102D01*
X123682441Y-91529756D01*
X123650331Y-91576852D01*
X123648991Y-91578740D01*
X123615148Y-91624597D01*
X123611248Y-91631977D01*
X123607640Y-91639471D01*
X123590841Y-91693928D01*
X123590117Y-91696128D01*
X123571290Y-91749934D01*
X123569745Y-91758096D01*
X123568500Y-91766361D01*
X123568500Y-91823351D01*
X123568457Y-91825635D01*
X123567772Y-91843954D01*
X123566324Y-91882633D01*
X123567365Y-91891866D01*
X123566508Y-91891962D01*
X123568500Y-91907075D01*
X123568500Y-94008771D01*
X123568110Y-94015719D01*
X123563834Y-94053656D01*
X123569728Y-94084805D01*
X123574438Y-94109698D01*
X123574821Y-94111952D01*
X123583315Y-94168305D01*
X123585781Y-94176301D01*
X123588521Y-94184130D01*
X123615145Y-94234504D01*
X123616190Y-94236574D01*
X123640930Y-94287948D01*
X123645586Y-94294778D01*
X123650569Y-94301528D01*
X123650571Y-94301532D01*
X123690876Y-94341837D01*
X123692459Y-94343481D01*
X123731250Y-94385287D01*
X123738516Y-94391081D01*
X123737978Y-94391754D01*
X123750072Y-94401033D01*
X124128555Y-94779516D01*
X124133191Y-94784704D01*
X124150124Y-94805936D01*
X124156999Y-94814557D01*
X124201778Y-94845087D01*
X124204099Y-94846669D01*
X124205982Y-94848006D01*
X124251842Y-94881852D01*
X124251846Y-94881853D01*
X124259223Y-94885752D01*
X124266713Y-94889359D01*
X124266715Y-94889360D01*
X124294679Y-94897985D01*
X124321184Y-94906161D01*
X124323370Y-94906880D01*
X124377181Y-94925710D01*
X124377186Y-94925710D01*
X124385356Y-94927256D01*
X124393604Y-94928499D01*
X124393605Y-94928500D01*
X124450596Y-94928500D01*
X124452877Y-94928542D01*
X124509877Y-94930675D01*
X124519110Y-94929635D01*
X124519206Y-94930489D01*
X124534320Y-94928500D01*
X127479772Y-94928500D01*
X127486712Y-94928889D01*
X127516651Y-94932263D01*
X127524656Y-94933165D01*
X127524656Y-94933164D01*
X127524657Y-94933165D01*
X127580704Y-94922559D01*
X127582971Y-94922175D01*
X127639306Y-94913685D01*
X127647277Y-94911226D01*
X127655127Y-94908479D01*
X127655127Y-94908478D01*
X127655131Y-94908478D01*
X127705529Y-94881840D01*
X127707575Y-94880808D01*
X127758946Y-94856070D01*
X127758948Y-94856067D01*
X127765804Y-94851393D01*
X127772532Y-94846429D01*
X127776163Y-94842798D01*
X127812837Y-94806122D01*
X127814460Y-94804558D01*
X127856287Y-94765750D01*
X127856289Y-94765746D01*
X127862082Y-94758482D01*
X127862758Y-94759021D01*
X127872028Y-94746931D01*
X128206143Y-94412816D01*
X128267465Y-94379334D01*
X128293823Y-94376500D01*
X128348985Y-94376500D01*
X128502365Y-94338696D01*
X128573174Y-94301532D01*
X128642240Y-94265283D01*
X128760483Y-94160530D01*
X128850220Y-94030523D01*
X128906237Y-93882818D01*
X128925278Y-93726000D01*
X128906237Y-93569182D01*
X128906236Y-93569180D01*
X128884992Y-93513163D01*
X128850220Y-93421477D01*
X128760483Y-93291470D01*
X128642240Y-93186717D01*
X128642238Y-93186716D01*
X128642237Y-93186715D01*
X128502365Y-93113303D01*
X128348986Y-93075500D01*
X128348985Y-93075500D01*
X128191015Y-93075500D01*
X128191014Y-93075500D01*
X128037634Y-93113303D01*
X127897762Y-93186715D01*
X127779516Y-93291471D01*
X127689781Y-93421475D01*
X127689780Y-93421476D01*
X127633763Y-93569180D01*
X127615413Y-93720305D01*
X127587791Y-93784483D01*
X127579999Y-93793039D01*
X127361856Y-94011182D01*
X127300536Y-94044666D01*
X127274177Y-94047500D01*
X124693823Y-94047500D01*
X124626784Y-94027815D01*
X124606142Y-94011181D01*
X124485819Y-93890858D01*
X124452334Y-93829535D01*
X124449500Y-93803177D01*
X124449500Y-92068352D01*
X124469185Y-92001313D01*
X124496188Y-91971405D01*
X124514557Y-91956757D01*
X124546684Y-91909633D01*
X124547986Y-91907798D01*
X124581852Y-91861914D01*
X124581853Y-91861912D01*
X124585741Y-91854554D01*
X124589359Y-91847043D01*
X124589360Y-91847041D01*
X124606166Y-91792552D01*
X124606881Y-91790381D01*
X124625710Y-91736575D01*
X124625710Y-91736569D01*
X124627255Y-91728404D01*
X124628497Y-91720159D01*
X124628500Y-91720151D01*
X124628499Y-91663161D01*
X124628541Y-91660876D01*
X124630675Y-91603879D01*
X124630674Y-91603878D01*
X124629635Y-91594649D01*
X124630488Y-91594552D01*
X124628500Y-91579438D01*
X124628500Y-83292098D01*
X124648185Y-83225059D01*
X124700989Y-83179304D01*
X124770147Y-83169360D01*
X124782172Y-83171700D01*
X124899019Y-83200500D01*
X125056989Y-83200500D01*
X125210369Y-83162696D01*
X125210369Y-83162695D01*
X125350244Y-83089283D01*
X125468487Y-82984530D01*
X125558224Y-82854523D01*
X125614241Y-82706818D01*
X125633282Y-82550000D01*
X125614241Y-82393182D01*
X125558224Y-82245477D01*
X125468487Y-82115470D01*
X125370276Y-82028463D01*
X125333151Y-81969276D01*
X125328504Y-81935649D01*
X125328504Y-81212539D01*
X125348189Y-81145500D01*
X125364819Y-81124862D01*
X125943046Y-80546634D01*
X125962902Y-80530511D01*
X125970669Y-80525437D01*
X125990873Y-80499477D01*
X125995941Y-80493739D01*
X125998375Y-80491307D01*
X126010325Y-80474567D01*
X126011832Y-80472548D01*
X126013427Y-80470499D01*
X126042517Y-80433126D01*
X126042519Y-80433118D01*
X126046017Y-80426655D01*
X126049241Y-80420063D01*
X126050576Y-80415577D01*
X126063506Y-80372144D01*
X126064264Y-80369777D01*
X126080500Y-80322488D01*
X126080500Y-80322481D01*
X126081706Y-80315256D01*
X126082617Y-80307952D01*
X126080553Y-80258050D01*
X126080500Y-80255488D01*
X126080500Y-71259500D01*
X126100185Y-71192461D01*
X126152989Y-71146706D01*
X126204500Y-71135500D01*
X126316985Y-71135500D01*
X126470365Y-71097696D01*
X126610240Y-71024283D01*
X126728483Y-70919530D01*
X126818220Y-70789523D01*
X126874237Y-70641818D01*
X126893278Y-70485000D01*
X126879751Y-70373590D01*
X126874237Y-70328181D01*
X126841672Y-70242315D01*
X126818220Y-70180477D01*
X126728483Y-70050470D01*
X126610240Y-69945717D01*
X126610238Y-69945716D01*
X126610237Y-69945715D01*
X126470365Y-69872303D01*
X126316986Y-69834500D01*
X126316985Y-69834500D01*
X126159015Y-69834500D01*
X126159014Y-69834500D01*
X126005634Y-69872303D01*
X125865761Y-69945715D01*
X125859588Y-69949977D01*
X125858238Y-69948022D01*
X125805469Y-69972813D01*
X125736207Y-69963617D01*
X125682913Y-69918434D01*
X125662506Y-69851611D01*
X125662500Y-69850464D01*
X125662500Y-67924756D01*
X125682185Y-67857716D01*
X125684428Y-67854347D01*
X125685403Y-67852936D01*
X125741420Y-67705231D01*
X125760461Y-67548413D01*
X125757548Y-67524417D01*
X125741420Y-67391594D01*
X125704686Y-67294735D01*
X125685403Y-67243890D01*
X125595666Y-67113883D01*
X125477423Y-67009130D01*
X125477421Y-67009129D01*
X125477420Y-67009128D01*
X125337548Y-66935716D01*
X125176886Y-66896118D01*
X125177634Y-66893080D01*
X125126262Y-66870253D01*
X125087887Y-66811865D01*
X125082500Y-66775713D01*
X125082500Y-62647735D01*
X125082500Y-58518587D01*
X125082887Y-58511686D01*
X125087165Y-58473721D01*
X125076556Y-58417656D01*
X125076177Y-58415417D01*
X125067685Y-58359071D01*
X125067684Y-58359068D01*
X125065231Y-58351115D01*
X125062479Y-58343252D01*
X125062478Y-58343246D01*
X125035841Y-58292847D01*
X125034808Y-58290800D01*
X125010068Y-58239427D01*
X125005403Y-58232584D01*
X125000428Y-58225844D01*
X124983472Y-58208888D01*
X124960121Y-58185537D01*
X124958539Y-58183894D01*
X124919750Y-58142090D01*
X124912482Y-58136294D01*
X124913017Y-58135622D01*
X124900926Y-58126342D01*
X123390624Y-56616040D01*
X123357139Y-56554717D01*
X123355210Y-56543315D01*
X123336860Y-56392182D01*
X123280843Y-56244477D01*
X123191106Y-56114470D01*
X123072863Y-56009717D01*
X123072861Y-56009716D01*
X123072860Y-56009715D01*
X122932988Y-55936303D01*
X122779609Y-55898500D01*
X122779608Y-55898500D01*
X122621638Y-55898500D01*
X122621637Y-55898500D01*
X122468257Y-55936303D01*
X122328385Y-56009715D01*
X122210139Y-56114471D01*
X122120404Y-56244475D01*
X122120403Y-56244476D01*
X122064385Y-56392181D01*
X122045345Y-56548999D01*
X122045345Y-56549000D01*
X122064385Y-56705818D01*
X122088156Y-56768495D01*
X122120403Y-56853523D01*
X122210140Y-56983530D01*
X122328383Y-57088283D01*
X122328385Y-57088284D01*
X122468257Y-57161696D01*
X122621637Y-57199500D01*
X122621638Y-57199500D01*
X122676800Y-57199500D01*
X122743839Y-57219185D01*
X122764481Y-57235819D01*
X124165181Y-58636519D01*
X124198666Y-58697842D01*
X124201500Y-58724200D01*
X124201500Y-61718484D01*
X124181815Y-61785523D01*
X124129011Y-61831278D01*
X124059853Y-61841222D01*
X123996297Y-61812197D01*
X123979647Y-61794647D01*
X123978418Y-61793068D01*
X123941645Y-61759215D01*
X123939796Y-61757441D01*
X122458929Y-60276574D01*
X122425444Y-60215251D01*
X122423514Y-60173950D01*
X122433518Y-60091566D01*
X122414477Y-59934748D01*
X122358460Y-59787043D01*
X122268723Y-59657036D01*
X122150480Y-59552283D01*
X122150478Y-59552282D01*
X122150477Y-59552281D01*
X122010605Y-59478869D01*
X121857226Y-59441066D01*
X121857225Y-59441066D01*
X121699255Y-59441066D01*
X121699254Y-59441066D01*
X121545874Y-59478869D01*
X121406002Y-59552281D01*
X121287756Y-59657037D01*
X121198021Y-59787041D01*
X121198020Y-59787042D01*
X121142003Y-59934747D01*
X121127932Y-60050634D01*
X121100310Y-60114812D01*
X121042376Y-60153869D01*
X121011284Y-60158688D01*
X121011296Y-60158784D01*
X121008398Y-60159135D01*
X121004836Y-60159688D01*
X121003850Y-60159688D01*
X120850470Y-60197491D01*
X120710598Y-60270903D01*
X120710595Y-60270905D01*
X120710596Y-60270905D01*
X120594733Y-60373550D01*
X120592352Y-60375659D01*
X120502617Y-60505663D01*
X120502616Y-60505664D01*
X120446598Y-60653369D01*
X120427558Y-60810187D01*
X120427558Y-60810188D01*
X120446598Y-60967006D01*
X120486228Y-61071500D01*
X120502616Y-61114711D01*
X120592353Y-61244718D01*
X120710596Y-61349471D01*
X120710598Y-61349472D01*
X120850470Y-61422884D01*
X121003850Y-61460688D01*
X121051991Y-61460688D01*
X121119030Y-61480373D01*
X121164785Y-61533177D01*
X121175087Y-61599634D01*
X121159291Y-61729730D01*
X121159291Y-61734554D01*
X121139606Y-61801593D01*
X121086802Y-61847348D01*
X121064966Y-61854951D01*
X120940065Y-61885736D01*
X120800194Y-61959147D01*
X120721363Y-62028984D01*
X120686976Y-62059449D01*
X120681948Y-62063903D01*
X120592213Y-62193907D01*
X120592212Y-62193908D01*
X120536194Y-62341613D01*
X120517153Y-62498431D01*
X120517153Y-62498432D01*
X120536194Y-62655250D01*
X120584955Y-62783821D01*
X120592212Y-62802955D01*
X120681949Y-62932962D01*
X120795750Y-63033780D01*
X120832875Y-63092967D01*
X120832108Y-63162833D01*
X120815572Y-63197034D01*
X120743022Y-63302140D01*
X120688739Y-63346130D01*
X120619290Y-63353790D01*
X120611298Y-63352097D01*
X120474986Y-63318500D01*
X120474985Y-63318500D01*
X120317015Y-63318500D01*
X120317014Y-63318500D01*
X120163634Y-63356303D01*
X120077588Y-63401465D01*
X120009080Y-63415191D01*
X119944027Y-63389699D01*
X119903082Y-63333083D01*
X119895962Y-63291669D01*
X119895962Y-54387080D01*
X119915647Y-54320041D01*
X119932277Y-54299403D01*
X120714724Y-53516955D01*
X120776045Y-53483472D01*
X120817270Y-53484039D01*
X120817567Y-53481596D01*
X120825013Y-53482500D01*
X120825015Y-53482500D01*
X120982985Y-53482500D01*
X121136365Y-53444696D01*
X121156091Y-53434343D01*
X121276240Y-53371283D01*
X121394483Y-53266530D01*
X121484220Y-53136523D01*
X121540237Y-52988818D01*
X121559278Y-52832000D01*
X121553144Y-52781477D01*
X121540237Y-52675181D01*
X121501841Y-52573940D01*
X121484220Y-52527477D01*
X121394483Y-52397470D01*
X121276240Y-52292717D01*
X121276238Y-52292716D01*
X121276237Y-52292715D01*
X121136365Y-52219303D01*
X120982986Y-52181500D01*
X120982985Y-52181500D01*
X120825015Y-52181500D01*
X120825014Y-52181500D01*
X120755415Y-52198654D01*
X120685613Y-52195584D01*
X120628551Y-52155264D01*
X120602346Y-52090495D01*
X120615319Y-52021840D01*
X120628325Y-52002774D01*
X120628222Y-52002703D01*
X120632483Y-51996530D01*
X120722220Y-51866523D01*
X120778237Y-51718818D01*
X120797278Y-51562000D01*
X120795906Y-51550696D01*
X120778237Y-51405181D01*
X120747996Y-51325444D01*
X120722220Y-51257477D01*
X120632483Y-51127470D01*
X120514240Y-51022717D01*
X120514238Y-51022716D01*
X120514237Y-51022715D01*
X120374365Y-50949303D01*
X120220986Y-50911500D01*
X120220985Y-50911500D01*
X120063015Y-50911500D01*
X120063014Y-50911500D01*
X119909634Y-50949303D01*
X119769762Y-51022715D01*
X119651516Y-51127471D01*
X119561781Y-51257475D01*
X119561780Y-51257476D01*
X119505763Y-51405181D01*
X119486722Y-51562000D01*
X119496724Y-51644381D01*
X119485263Y-51713304D01*
X119461309Y-51747007D01*
X118932417Y-52275899D01*
X118912568Y-52292020D01*
X118904793Y-52297100D01*
X118884605Y-52323036D01*
X118879529Y-52328786D01*
X118877096Y-52331219D01*
X118877086Y-52331232D01*
X118865157Y-52347939D01*
X118863626Y-52349991D01*
X118832945Y-52389410D01*
X118829437Y-52395891D01*
X118826223Y-52402469D01*
X118811968Y-52450347D01*
X118811187Y-52452784D01*
X118794961Y-52500050D01*
X118793756Y-52507271D01*
X118792844Y-52514584D01*
X118794909Y-52564486D01*
X118794962Y-52567048D01*
X118794962Y-72880749D01*
X118792323Y-72906193D01*
X118790419Y-72915272D01*
X118790419Y-72915278D01*
X117698500Y-72915278D01*
X117698500Y-70153204D01*
X117701139Y-70127758D01*
X117702389Y-70121796D01*
X117703043Y-70118679D01*
X117703042Y-70118672D01*
X117703468Y-70108408D01*
X117704349Y-70108444D01*
X117710190Y-70059692D01*
X117713687Y-70050471D01*
X117730243Y-70006818D01*
X117749284Y-69850000D01*
X117730243Y-69693182D01*
X117730120Y-69692858D01*
X117693386Y-69595999D01*
X117674226Y-69545477D01*
X117584489Y-69415470D01*
X117466246Y-69310717D01*
X117466244Y-69310716D01*
X117466243Y-69310715D01*
X117326371Y-69237303D01*
X117172992Y-69199500D01*
X117172991Y-69199500D01*
X117015543Y-69199500D01*
X116948504Y-69179815D01*
X116902749Y-69127011D01*
X116892805Y-69057853D01*
X116921830Y-68994297D01*
X116927862Y-68987819D01*
X117428238Y-68487443D01*
X117937346Y-67978334D01*
X117995350Y-67945621D01*
X118088365Y-67922696D01*
X118228240Y-67849283D01*
X118346483Y-67744530D01*
X118436220Y-67614523D01*
X118492237Y-67466818D01*
X118511278Y-67310000D01*
X118501152Y-67226600D01*
X118492237Y-67153181D01*
X118455380Y-67055999D01*
X118436220Y-67005477D01*
X118346483Y-66875470D01*
X118228240Y-66770717D01*
X118228238Y-66770716D01*
X118228237Y-66770715D01*
X118088365Y-66697303D01*
X117934986Y-66659500D01*
X117934985Y-66659500D01*
X117777015Y-66659500D01*
X117777014Y-66659500D01*
X117623634Y-66697303D01*
X117483762Y-66770715D01*
X117365516Y-66875471D01*
X117275781Y-67005475D01*
X117275780Y-67005476D01*
X117219762Y-67153181D01*
X117200721Y-67309999D01*
X117200721Y-67310000D01*
X117219763Y-67466818D01*
X117256703Y-67564222D01*
X117262070Y-67633885D01*
X117228922Y-67695391D01*
X117228442Y-67695874D01*
X114814508Y-70109808D01*
X114753185Y-70143293D01*
X114690833Y-70140788D01*
X114505934Y-70084700D01*
X114505932Y-70084699D01*
X114505934Y-70084699D01*
X114318463Y-70066235D01*
X114300000Y-70064417D01*
X114299999Y-70064417D01*
X114094067Y-70084699D01*
X113971775Y-70121796D01*
X113900909Y-70143293D01*
X113896043Y-70144769D01*
X113785898Y-70203643D01*
X113713550Y-70242315D01*
X113713548Y-70242316D01*
X113713547Y-70242317D01*
X113553589Y-70373589D01*
X113422317Y-70533547D01*
X113324769Y-70716043D01*
X113264699Y-70914067D01*
X113244417Y-71120000D01*
X113264699Y-71325932D01*
X113264700Y-71325934D01*
X113324768Y-71523954D01*
X113422315Y-71706450D01*
X113456969Y-71748677D01*
X113553589Y-71866410D01*
X113612265Y-71914563D01*
X113713550Y-71997685D01*
X113896046Y-72095232D01*
X114094066Y-72155300D01*
X114094065Y-72155300D01*
X114112529Y-72157118D01*
X114300000Y-72175583D01*
X114505934Y-72155300D01*
X114703954Y-72095232D01*
X114886450Y-71997685D01*
X115046410Y-71866410D01*
X115177685Y-71706450D01*
X115275232Y-71523954D01*
X115335300Y-71325934D01*
X115355583Y-71120000D01*
X115335300Y-70914066D01*
X115279210Y-70729163D01*
X115278588Y-70659298D01*
X115310189Y-70605491D01*
X116236195Y-69679485D01*
X116297516Y-69646002D01*
X116367208Y-69650986D01*
X116423141Y-69692858D01*
X116447558Y-69758322D01*
X116446970Y-69782113D01*
X116438728Y-69849998D01*
X116438728Y-69850000D01*
X116457768Y-70006818D01*
X116496828Y-70109808D01*
X116513786Y-70154523D01*
X116603523Y-70284530D01*
X116721766Y-70389283D01*
X116861641Y-70462696D01*
X116903174Y-70472932D01*
X116963554Y-70508087D01*
X116995344Y-70570305D01*
X116997500Y-70593329D01*
X116997500Y-71074173D01*
X116977815Y-71141212D01*
X116925011Y-71186967D01*
X116855853Y-71196911D01*
X116843825Y-71194570D01*
X116835268Y-71192461D01*
X116726985Y-71165772D01*
X116569015Y-71165772D01*
X116569014Y-71165772D01*
X116415634Y-71203575D01*
X116275762Y-71276987D01*
X116220514Y-71325932D01*
X116166155Y-71374090D01*
X116157516Y-71381743D01*
X116067781Y-71511747D01*
X116067780Y-71511748D01*
X116011762Y-71659453D01*
X115992721Y-71816271D01*
X115992721Y-71816272D01*
X116011762Y-71973090D01*
X116054917Y-72086878D01*
X116067780Y-72120795D01*
X116091597Y-72155300D01*
X116157517Y-72250803D01*
X116199984Y-72288424D01*
X116255726Y-72337807D01*
X116292853Y-72396995D01*
X116297500Y-72430622D01*
X116297500Y-81275455D01*
X116277815Y-81342494D01*
X116261181Y-81363136D01*
X115811681Y-81812636D01*
X115750358Y-81846121D01*
X115680666Y-81841137D01*
X115624733Y-81799265D01*
X115600316Y-81733801D01*
X115600000Y-81724955D01*
X115600000Y-81530000D01*
X114733686Y-81530000D01*
X114759493Y-81489844D01*
X114800000Y-81351889D01*
X114800000Y-81208111D01*
X114759493Y-81070156D01*
X114733686Y-81030000D01*
X115600000Y-81030000D01*
X115600000Y-80432172D01*
X115599999Y-80432155D01*
X115593598Y-80372627D01*
X115593596Y-80372620D01*
X115543354Y-80237913D01*
X115543350Y-80237906D01*
X115457190Y-80122812D01*
X115457187Y-80122809D01*
X115342093Y-80036649D01*
X115342086Y-80036645D01*
X115207379Y-79986403D01*
X115207372Y-79986401D01*
X115147844Y-79980000D01*
X114667070Y-79980000D01*
X114600031Y-79960315D01*
X114554276Y-79907511D01*
X114544332Y-79838353D01*
X114573357Y-79774797D01*
X114631074Y-79737339D01*
X114703954Y-79715232D01*
X114886450Y-79617685D01*
X115046410Y-79486410D01*
X115177685Y-79326450D01*
X115275232Y-79143954D01*
X115335300Y-78945934D01*
X115355583Y-78740000D01*
X115335300Y-78534066D01*
X115275232Y-78336046D01*
X115177685Y-78153550D01*
X115125702Y-78090209D01*
X115046410Y-77993589D01*
X114886452Y-77862317D01*
X114886453Y-77862317D01*
X114886450Y-77862315D01*
X114703954Y-77764768D01*
X114505934Y-77704700D01*
X114505932Y-77704699D01*
X114505934Y-77704699D01*
X114300000Y-77684417D01*
X114094067Y-77704699D01*
X113896043Y-77764769D01*
X113785897Y-77823643D01*
X113713550Y-77862315D01*
X113713548Y-77862316D01*
X113713547Y-77862317D01*
X113553589Y-77993589D01*
X113422317Y-78153547D01*
X113324769Y-78336043D01*
X113264699Y-78534067D01*
X113244417Y-78739999D01*
X113264699Y-78945932D01*
X113264700Y-78945934D01*
X113324768Y-79143954D01*
X113422315Y-79326450D01*
X113422317Y-79326452D01*
X113553589Y-79486410D01*
X113638222Y-79555865D01*
X113713550Y-79617685D01*
X113896046Y-79715232D01*
X113968925Y-79737339D01*
X114027364Y-79775637D01*
X114055820Y-79839449D01*
X114045260Y-79908516D01*
X113999036Y-79960910D01*
X113932930Y-79980000D01*
X113452155Y-79980000D01*
X113392627Y-79986401D01*
X113392620Y-79986403D01*
X113257913Y-80036645D01*
X113257906Y-80036649D01*
X113142812Y-80122809D01*
X113142809Y-80122812D01*
X113056649Y-80237906D01*
X113056645Y-80237913D01*
X113006403Y-80372620D01*
X113006401Y-80372627D01*
X113000000Y-80432155D01*
X113000000Y-81030000D01*
X113866314Y-81030000D01*
X113840507Y-81070156D01*
X113800000Y-81208111D01*
X113800000Y-81351889D01*
X113840507Y-81489844D01*
X113866314Y-81530000D01*
X113000000Y-81530000D01*
X113000000Y-82127844D01*
X112645500Y-82127844D01*
X112645500Y-76200000D01*
X113244417Y-76200000D01*
X113264699Y-76405932D01*
X113264700Y-76405934D01*
X113324768Y-76603954D01*
X113422315Y-76786450D01*
X113422317Y-76786452D01*
X113553589Y-76946410D01*
X113650209Y-77025702D01*
X113713550Y-77077685D01*
X113896046Y-77175232D01*
X114094066Y-77235300D01*
X114094065Y-77235300D01*
X114112529Y-77237118D01*
X114300000Y-77255583D01*
X114505934Y-77235300D01*
X114703954Y-77175232D01*
X114886450Y-77077685D01*
X115046410Y-76946410D01*
X115177685Y-76786450D01*
X115275232Y-76603954D01*
X115335300Y-76405934D01*
X115355583Y-76200000D01*
X115335300Y-75994066D01*
X115275232Y-75796046D01*
X115177685Y-75613550D01*
X115125702Y-75550209D01*
X115046410Y-75453589D01*
X114886452Y-75322317D01*
X114886453Y-75322317D01*
X114886450Y-75322315D01*
X114703954Y-75224768D01*
X114505934Y-75164700D01*
X114505932Y-75164699D01*
X114505934Y-75164699D01*
X114318463Y-75146235D01*
X114300000Y-75144417D01*
X114299999Y-75144417D01*
X114094067Y-75164699D01*
X113896043Y-75224769D01*
X113785898Y-75283643D01*
X113713550Y-75322315D01*
X113713548Y-75322316D01*
X113713547Y-75322317D01*
X113553589Y-75453589D01*
X113422317Y-75613547D01*
X113324769Y-75796043D01*
X113264699Y-75994067D01*
X113244417Y-76200000D01*
X112645500Y-76200000D01*
X112645500Y-73659999D01*
X113244417Y-73659999D01*
X113264699Y-73865932D01*
X113279472Y-73914631D01*
X113324768Y-74063954D01*
X113422315Y-74246450D01*
X113422317Y-74246452D01*
X113553589Y-74406410D01*
X113650209Y-74485702D01*
X113713550Y-74537685D01*
X113896046Y-74635232D01*
X114094066Y-74695300D01*
X114094065Y-74695300D01*
X114114347Y-74697297D01*
X114300000Y-74715583D01*
X114505934Y-74695300D01*
X114703954Y-74635232D01*
X114886450Y-74537685D01*
X115046410Y-74406410D01*
X115177685Y-74246450D01*
X115275232Y-74063954D01*
X115335300Y-73865934D01*
X115355583Y-73660000D01*
X115335300Y-73454066D01*
X115275232Y-73256046D01*
X115177685Y-73073550D01*
X115119348Y-73002466D01*
X115046410Y-72913589D01*
X114886452Y-72782317D01*
X114886453Y-72782317D01*
X114886450Y-72782315D01*
X114703954Y-72684768D01*
X114505934Y-72624700D01*
X114505932Y-72624699D01*
X114505934Y-72624699D01*
X114300000Y-72604417D01*
X114094067Y-72624699D01*
X113896043Y-72684769D01*
X113790496Y-72741186D01*
X113713550Y-72782315D01*
X113713548Y-72782316D01*
X113713547Y-72782317D01*
X113553589Y-72913589D01*
X113422317Y-73073547D01*
X113422315Y-73073550D01*
X113388943Y-73135984D01*
X113324769Y-73256043D01*
X113264699Y-73454067D01*
X113244417Y-73659999D01*
X112645500Y-73659999D01*
X112645500Y-58420000D01*
X113244417Y-58420000D01*
X113264699Y-58625932D01*
X113278270Y-58670669D01*
X113324768Y-58823954D01*
X113422315Y-59006450D01*
X113437688Y-59025182D01*
X113553589Y-59166410D01*
X113623379Y-59223684D01*
X113713550Y-59297685D01*
X113896046Y-59395232D01*
X114094066Y-59455300D01*
X114094065Y-59455300D01*
X114112529Y-59457118D01*
X114300000Y-59475583D01*
X114505934Y-59455300D01*
X114703954Y-59395232D01*
X114886450Y-59297685D01*
X115046410Y-59166410D01*
X115177685Y-59006450D01*
X115275232Y-58823954D01*
X115335300Y-58625934D01*
X115355583Y-58420000D01*
X115335300Y-58214066D01*
X115275232Y-58016046D01*
X115177685Y-57833550D01*
X115122919Y-57766817D01*
X115046410Y-57673589D01*
X114886452Y-57542317D01*
X114886453Y-57542317D01*
X114886450Y-57542315D01*
X114703954Y-57444768D01*
X114505934Y-57384700D01*
X114505932Y-57384699D01*
X114505934Y-57384699D01*
X114300000Y-57364417D01*
X114094067Y-57384699D01*
X113896043Y-57444769D01*
X113785898Y-57503643D01*
X113713550Y-57542315D01*
X113713548Y-57542316D01*
X113713547Y-57542317D01*
X113553589Y-57673589D01*
X113422317Y-57833547D01*
X113422315Y-57833550D01*
X113388669Y-57896497D01*
X113324769Y-58016043D01*
X113324768Y-58016045D01*
X113324768Y-58016046D01*
X113323511Y-58020190D01*
X113264699Y-58214067D01*
X113244417Y-58420000D01*
X112645500Y-58420000D01*
X112645500Y-55879999D01*
X113244417Y-55879999D01*
X113264699Y-56085932D01*
X113278201Y-56130443D01*
X113324768Y-56283954D01*
X113422315Y-56466450D01*
X113440705Y-56488858D01*
X113553589Y-56626410D01*
X113610158Y-56672834D01*
X113713550Y-56757685D01*
X113896046Y-56855232D01*
X114094066Y-56915300D01*
X114094065Y-56915300D01*
X114112529Y-56917118D01*
X114300000Y-56935583D01*
X114505934Y-56915300D01*
X114703954Y-56855232D01*
X114886450Y-56757685D01*
X115046410Y-56626410D01*
X115177685Y-56466450D01*
X115275232Y-56283954D01*
X115335300Y-56085934D01*
X115355583Y-55880000D01*
X115335300Y-55674066D01*
X115275232Y-55476046D01*
X115177685Y-55293550D01*
X115067966Y-55159856D01*
X115046410Y-55133589D01*
X114928677Y-55036969D01*
X114886450Y-55002315D01*
X114703954Y-54904768D01*
X114505934Y-54844700D01*
X114505932Y-54844699D01*
X114505934Y-54844699D01*
X114300000Y-54824417D01*
X114094067Y-54844699D01*
X113896043Y-54904769D01*
X113789102Y-54961931D01*
X113713550Y-55002315D01*
X113713548Y-55002316D01*
X113713547Y-55002317D01*
X113553589Y-55133589D01*
X113422317Y-55293547D01*
X113324769Y-55476043D01*
X113264699Y-55674067D01*
X113244417Y-55879999D01*
X112645500Y-55879999D01*
X112645500Y-53805701D01*
X113249500Y-53805701D01*
X113252401Y-53842567D01*
X113252402Y-53842573D01*
X113298254Y-54000393D01*
X113298255Y-54000396D01*
X113298256Y-54000398D01*
X113311989Y-54023619D01*
X113381917Y-54141862D01*
X113381923Y-54141870D01*
X113498129Y-54258076D01*
X113498133Y-54258079D01*
X113498135Y-54258081D01*
X113639602Y-54341744D01*
X113681224Y-54353836D01*
X113797426Y-54387597D01*
X113797429Y-54387597D01*
X113797431Y-54387598D01*
X113834306Y-54390500D01*
X113834314Y-54390500D01*
X114765686Y-54390500D01*
X114765694Y-54390500D01*
X114802569Y-54387598D01*
X114802571Y-54387597D01*
X114802573Y-54387597D01*
X114844899Y-54375300D01*
X114960398Y-54341744D01*
X115101865Y-54258081D01*
X115218081Y-54141865D01*
X115301744Y-54000398D01*
X115347598Y-53842569D01*
X115350500Y-53805694D01*
X115350500Y-52874306D01*
X115347598Y-52837431D01*
X115346020Y-52832000D01*
X115301745Y-52679606D01*
X115301744Y-52679603D01*
X115301744Y-52679602D01*
X115218081Y-52538135D01*
X115218079Y-52538133D01*
X115218076Y-52538129D01*
X115101870Y-52421923D01*
X115101862Y-52421917D01*
X115005229Y-52364769D01*
X114960398Y-52338256D01*
X114960397Y-52338255D01*
X114960396Y-52338255D01*
X114960393Y-52338254D01*
X114802573Y-52292402D01*
X114802567Y-52292401D01*
X114765701Y-52289500D01*
X114765694Y-52289500D01*
X113834306Y-52289500D01*
X113834298Y-52289500D01*
X113797432Y-52292401D01*
X113797426Y-52292402D01*
X113639606Y-52338254D01*
X113639603Y-52338255D01*
X113498137Y-52421917D01*
X113498129Y-52421923D01*
X113381923Y-52538129D01*
X113381917Y-52538137D01*
X113298255Y-52679603D01*
X113298254Y-52679606D01*
X113252402Y-52837426D01*
X113252401Y-52837432D01*
X113249500Y-52874298D01*
X113249500Y-53805701D01*
X112645500Y-53805701D01*
X112645500Y-52706352D01*
X112645559Y-52703648D01*
X112646968Y-52671369D01*
X112663760Y-52286761D01*
X112664229Y-52281412D01*
X112718520Y-51869028D01*
X112719456Y-51863725D01*
X112809478Y-51457658D01*
X112810866Y-51452479D01*
X112935943Y-51055783D01*
X112937786Y-51050721D01*
X113096962Y-50666438D01*
X113099225Y-50661586D01*
X113291297Y-50292618D01*
X113293970Y-50287989D01*
X113517461Y-49937179D01*
X113520540Y-49932781D01*
X113773753Y-49602786D01*
X113777212Y-49598665D01*
X114058209Y-49292012D01*
X114062012Y-49288209D01*
X114368665Y-49007212D01*
X114372786Y-49003753D01*
X114702781Y-48750540D01*
X114707179Y-48747461D01*
X115057989Y-48523970D01*
X115062618Y-48521297D01*
X115431586Y-48329225D01*
X115436438Y-48326962D01*
X115820721Y-48167786D01*
X115825783Y-48165943D01*
X116222479Y-48040866D01*
X116227658Y-48039478D01*
X116633735Y-47949454D01*
X116639028Y-47948520D01*
X117051410Y-47894229D01*
X117056763Y-47893760D01*
X117170797Y-47888782D01*
X117238631Y-47905524D01*
X117286646Y-47956282D01*
X117299596Y-48024941D01*
X117273370Y-48089702D01*
X117216295Y-48130004D01*
X117205880Y-48133061D01*
X117115633Y-48155304D01*
X116975762Y-48228715D01*
X116857516Y-48333471D01*
X116767781Y-48463475D01*
X116767780Y-48463476D01*
X116711762Y-48611181D01*
X116692721Y-48767999D01*
X116692721Y-48768000D01*
X116711762Y-48924818D01*
X116767780Y-49072523D01*
X116767781Y-49072524D01*
X116857517Y-49202531D01*
X116918109Y-49256210D01*
X116955726Y-49289535D01*
X116992853Y-49348723D01*
X116997500Y-49382350D01*
X116997500Y-57715455D01*
X116977815Y-57782494D01*
X116961181Y-57803136D01*
X114814508Y-59949808D01*
X114753185Y-59983293D01*
X114690833Y-59980788D01*
X114505934Y-59924700D01*
X114505932Y-59924699D01*
X114505934Y-59924699D01*
X114300000Y-59904417D01*
X114094067Y-59924699D01*
X113955470Y-59966742D01*
X113900909Y-59983293D01*
X113896043Y-59984769D01*
X113791207Y-60040806D01*
X113713550Y-60082315D01*
X113713548Y-60082316D01*
X113713547Y-60082317D01*
X113553589Y-60213589D01*
X113422317Y-60373547D01*
X113422315Y-60373550D01*
X113421188Y-60375659D01*
X113324769Y-60556043D01*
X113264699Y-60754067D01*
X113244417Y-60959999D01*
X113264699Y-61165932D01*
X113282905Y-61225950D01*
X113324768Y-61363954D01*
X113422315Y-61546450D01*
X113456969Y-61588677D01*
X113553589Y-61706410D01*
X113616888Y-61758357D01*
X113713550Y-61837685D01*
X113896046Y-61935232D01*
X113968925Y-61957339D01*
X114027364Y-61995637D01*
X114055820Y-62059449D01*
X114045260Y-62128516D01*
X113999036Y-62180910D01*
X113932930Y-62200000D01*
X113452155Y-62200000D01*
X113392627Y-62206401D01*
X113392620Y-62206403D01*
X113257913Y-62256645D01*
X113257906Y-62256649D01*
X113142812Y-62342809D01*
X113142809Y-62342812D01*
X113056649Y-62457906D01*
X113056645Y-62457913D01*
X113006403Y-62592620D01*
X113006401Y-62592627D01*
X113000000Y-62652155D01*
X113000000Y-63250000D01*
X113866314Y-63250000D01*
X113840507Y-63290156D01*
X113800000Y-63428111D01*
X113800000Y-63571889D01*
X113840507Y-63709844D01*
X113866314Y-63750000D01*
X113000000Y-63750000D01*
X113000000Y-64347844D01*
X113006401Y-64407372D01*
X113006403Y-64407379D01*
X113056645Y-64542086D01*
X113056649Y-64542093D01*
X113142809Y-64657187D01*
X113142812Y-64657190D01*
X113257906Y-64743350D01*
X113257913Y-64743354D01*
X113392620Y-64793596D01*
X113392627Y-64793598D01*
X113452155Y-64799999D01*
X113452172Y-64800000D01*
X113932930Y-64800000D01*
X113999969Y-64819685D01*
X114045724Y-64872489D01*
X114055668Y-64941647D01*
X114026643Y-65005203D01*
X113968925Y-65042660D01*
X113896046Y-65064768D01*
X113896043Y-65064769D01*
X113785898Y-65123643D01*
X113713550Y-65162315D01*
X113713548Y-65162316D01*
X113713547Y-65162317D01*
X113553589Y-65293589D01*
X113422317Y-65453547D01*
X113324769Y-65636043D01*
X113264699Y-65834067D01*
X113244417Y-66040000D01*
X113264699Y-66245932D01*
X113272479Y-66271578D01*
X113324768Y-66443954D01*
X113422315Y-66626450D01*
X113422317Y-66626452D01*
X113553589Y-66786410D01*
X113601504Y-66825732D01*
X113713550Y-66917685D01*
X113896046Y-67015232D01*
X114094066Y-67075300D01*
X114094065Y-67075300D01*
X114100848Y-67075968D01*
X114300000Y-67095583D01*
X114505934Y-67075300D01*
X114703954Y-67015232D01*
X114886450Y-66917685D01*
X114979581Y-66841254D01*
X115043892Y-66813941D01*
X115112760Y-66825732D01*
X115164320Y-66872884D01*
X115182203Y-66940427D01*
X115181343Y-66952053D01*
X115168722Y-67056000D01*
X115178724Y-67138381D01*
X115167263Y-67207304D01*
X115143309Y-67241007D01*
X114814508Y-67569808D01*
X114753185Y-67603293D01*
X114690833Y-67600788D01*
X114505934Y-67544700D01*
X114505932Y-67544699D01*
X114505934Y-67544699D01*
X114300000Y-67524417D01*
X114094067Y-67544699D01*
X113927314Y-67595283D01*
X113900909Y-67603293D01*
X113896043Y-67604769D01*
X113785898Y-67663643D01*
X113713550Y-67702315D01*
X113713548Y-67702316D01*
X113713547Y-67702317D01*
X113553589Y-67833589D01*
X113422317Y-67993547D01*
X113324769Y-68176043D01*
X113264699Y-68374067D01*
X113244417Y-68579999D01*
X113264699Y-68785932D01*
X113282793Y-68845580D01*
X113324768Y-68983954D01*
X113422315Y-69166450D01*
X113449438Y-69199500D01*
X113553589Y-69326410D01*
X113632295Y-69391001D01*
X113713550Y-69457685D01*
X113896046Y-69555232D01*
X114094066Y-69615300D01*
X114094065Y-69615300D01*
X114114348Y-69617297D01*
X114300000Y-69635583D01*
X114505934Y-69615300D01*
X114703954Y-69555232D01*
X114886450Y-69457685D01*
X115046410Y-69326410D01*
X115177685Y-69166450D01*
X115275232Y-68983954D01*
X115335300Y-68785934D01*
X115355583Y-68580000D01*
X115335300Y-68374066D01*
X115279210Y-68189163D01*
X115278588Y-68119298D01*
X115310189Y-68065491D01*
X115634725Y-67740955D01*
X115696046Y-67707472D01*
X115737271Y-67708039D01*
X115737568Y-67705596D01*
X115745014Y-67706500D01*
X115745015Y-67706500D01*
X115902985Y-67706500D01*
X116056365Y-67668696D01*
X116121239Y-67634647D01*
X116196240Y-67595283D01*
X116314483Y-67490530D01*
X116404220Y-67360523D01*
X116460237Y-67212818D01*
X116479278Y-67056000D01*
X116473144Y-67005477D01*
X116460237Y-66899181D01*
X116413411Y-66775713D01*
X116404220Y-66751477D01*
X116314483Y-66621470D01*
X116196240Y-66516717D01*
X116196238Y-66516716D01*
X116196237Y-66516715D01*
X116056365Y-66443303D01*
X115902986Y-66405500D01*
X115902985Y-66405500D01*
X115745015Y-66405500D01*
X115745014Y-66405500D01*
X115591637Y-66443303D01*
X115477820Y-66503039D01*
X115409311Y-66516764D01*
X115344258Y-66491271D01*
X115303314Y-66434655D01*
X115299479Y-66364891D01*
X115301534Y-66357246D01*
X115335300Y-66245934D01*
X115355583Y-66040000D01*
X115335300Y-65834066D01*
X115275232Y-65636046D01*
X115177685Y-65453550D01*
X115093909Y-65351468D01*
X115046410Y-65293589D01*
X114928677Y-65196969D01*
X114886450Y-65162315D01*
X114703954Y-65064768D01*
X114631074Y-65042660D01*
X114572636Y-65004363D01*
X114544180Y-64940551D01*
X114554740Y-64871484D01*
X114600964Y-64819090D01*
X114667070Y-64800000D01*
X115147828Y-64800000D01*
X115147844Y-64799999D01*
X115207372Y-64793598D01*
X115207379Y-64793596D01*
X115342086Y-64743354D01*
X115342093Y-64743350D01*
X115457187Y-64657190D01*
X115457190Y-64657187D01*
X115543350Y-64542093D01*
X115543354Y-64542086D01*
X115593596Y-64407379D01*
X115593598Y-64407372D01*
X115599999Y-64347844D01*
X115600000Y-64347827D01*
X115600000Y-63750000D01*
X114733686Y-63750000D01*
X114759493Y-63709844D01*
X114800000Y-63571889D01*
X114800000Y-63428111D01*
X114759493Y-63290156D01*
X114733686Y-63250000D01*
X115600000Y-63250000D01*
X115600000Y-62652172D01*
X115599999Y-62652155D01*
X115593598Y-62592627D01*
X115593596Y-62592620D01*
X115543354Y-62457913D01*
X115543350Y-62457906D01*
X115457190Y-62342812D01*
X115457187Y-62342809D01*
X115342093Y-62256649D01*
X115342086Y-62256645D01*
X115207379Y-62206403D01*
X115207372Y-62206401D01*
X115147844Y-62200000D01*
X114667070Y-62200000D01*
X114600031Y-62180315D01*
X114554276Y-62127511D01*
X114544332Y-62058353D01*
X114573357Y-61994797D01*
X114631074Y-61957339D01*
X114703954Y-61935232D01*
X114886450Y-61837685D01*
X115046410Y-61706410D01*
X115177685Y-61546450D01*
X115275232Y-61363954D01*
X115335300Y-61165934D01*
X115355583Y-60960000D01*
X115335300Y-60754066D01*
X115279210Y-60569163D01*
X115278588Y-60499298D01*
X115310189Y-60445491D01*
X117561046Y-58194634D01*
X117580902Y-58178511D01*
X117588669Y-58173437D01*
X117608873Y-58147477D01*
X117613941Y-58141739D01*
X117616375Y-58139307D01*
X117628339Y-58122549D01*
X117629832Y-58120548D01*
X117660517Y-58081126D01*
X117660519Y-58081118D01*
X117664017Y-58074655D01*
X117667241Y-58068063D01*
X117673495Y-58047055D01*
X117681506Y-58020144D01*
X117682264Y-58017777D01*
X117698500Y-57970488D01*
X117698500Y-57970481D01*
X117699706Y-57963256D01*
X117700617Y-57955952D01*
X117698553Y-57906050D01*
X117698500Y-57903488D01*
X117698500Y-50749860D01*
X124570107Y-50749860D01*
X124589147Y-50906678D01*
X124645165Y-51054383D01*
X124645166Y-51054384D01*
X124734902Y-51184391D01*
X124756274Y-51203324D01*
X124833111Y-51271395D01*
X124870238Y-51330583D01*
X124874885Y-51364210D01*
X124874885Y-51516173D01*
X124872246Y-51541617D01*
X124870342Y-51550696D01*
X124870342Y-51550702D01*
X124874408Y-51583322D01*
X124874885Y-51590999D01*
X124874885Y-51594425D01*
X124877511Y-51610164D01*
X124878261Y-51614661D01*
X124878630Y-51617193D01*
X124884812Y-51666778D01*
X124886905Y-51673811D01*
X124889292Y-51680764D01*
X124889293Y-51680766D01*
X124896993Y-51694994D01*
X124913076Y-51724715D01*
X124914249Y-51726993D01*
X124936187Y-51771869D01*
X124936189Y-51771871D01*
X124940456Y-51777849D01*
X124944967Y-51783644D01*
X124981726Y-51817483D01*
X124983575Y-51819257D01*
X125815178Y-52650860D01*
X125848663Y-52712183D01*
X125843679Y-52781875D01*
X125801807Y-52837808D01*
X125757182Y-52858935D01*
X125751641Y-52860301D01*
X125751634Y-52860303D01*
X125611762Y-52933715D01*
X125493516Y-53038471D01*
X125403781Y-53168475D01*
X125403780Y-53168476D01*
X125347762Y-53316181D01*
X125328721Y-53472999D01*
X125328721Y-53473000D01*
X125347762Y-53629818D01*
X125386073Y-53730833D01*
X125403780Y-53777523D01*
X125423225Y-53805694D01*
X125493517Y-53907531D01*
X125552180Y-53959500D01*
X125591726Y-53994535D01*
X125628853Y-54053723D01*
X125633500Y-54087350D01*
X125633500Y-54560788D01*
X125630861Y-54586232D01*
X125628957Y-54595311D01*
X125628957Y-54595317D01*
X125633023Y-54627937D01*
X125633500Y-54635614D01*
X125633500Y-54639040D01*
X125636232Y-54655420D01*
X125636876Y-54659276D01*
X125637245Y-54661808D01*
X125643427Y-54711393D01*
X125645520Y-54718426D01*
X125647907Y-54725379D01*
X125647908Y-54725381D01*
X125655608Y-54739609D01*
X125671691Y-54769330D01*
X125672855Y-54771589D01*
X125690570Y-54807827D01*
X125702330Y-54876699D01*
X125674987Y-54940996D01*
X125619736Y-54978593D01*
X125619901Y-54979028D01*
X125618087Y-54979715D01*
X125617223Y-54980304D01*
X125614484Y-54981082D01*
X125612885Y-54981688D01*
X125473013Y-55055100D01*
X125354767Y-55159856D01*
X125265032Y-55289860D01*
X125265031Y-55289861D01*
X125209013Y-55437566D01*
X125189973Y-55594384D01*
X125189973Y-55594385D01*
X125209013Y-55751203D01*
X125255208Y-55873007D01*
X125265031Y-55898908D01*
X125354768Y-56028915D01*
X125452977Y-56115920D01*
X125490103Y-56175108D01*
X125494750Y-56208735D01*
X125494751Y-56962039D01*
X125492112Y-56987483D01*
X125490208Y-56996562D01*
X125490208Y-56996568D01*
X125494274Y-57029188D01*
X125494751Y-57036865D01*
X125494751Y-57040291D01*
X125497483Y-57056671D01*
X125498127Y-57060527D01*
X125498496Y-57063059D01*
X125504678Y-57112644D01*
X125506771Y-57119677D01*
X125509158Y-57126630D01*
X125509159Y-57126632D01*
X125514505Y-57136510D01*
X125532942Y-57170581D01*
X125534115Y-57172859D01*
X125556053Y-57217735D01*
X125556055Y-57217737D01*
X125560322Y-57223715D01*
X125564833Y-57229510D01*
X125601592Y-57263349D01*
X125603441Y-57265123D01*
X126613181Y-58274863D01*
X126646666Y-58336186D01*
X126649500Y-58362544D01*
X126649500Y-61470489D01*
X126629815Y-61537528D01*
X126613181Y-61558170D01*
X125751941Y-62419409D01*
X125732092Y-62435530D01*
X125724317Y-62440610D01*
X125704129Y-62466546D01*
X125699053Y-62472296D01*
X125696620Y-62474729D01*
X125696610Y-62474742D01*
X125684681Y-62491449D01*
X125683150Y-62493501D01*
X125652469Y-62532920D01*
X125648961Y-62539401D01*
X125645747Y-62545979D01*
X125631492Y-62593857D01*
X125630711Y-62596294D01*
X125614485Y-62643560D01*
X125613280Y-62650781D01*
X125612368Y-62658094D01*
X125614433Y-62707996D01*
X125614486Y-62710558D01*
X125614486Y-63674249D01*
X125611847Y-63699693D01*
X125609943Y-63708772D01*
X125609943Y-63708778D01*
X125614009Y-63741398D01*
X125614486Y-63749075D01*
X125614486Y-63752501D01*
X125617218Y-63768881D01*
X125617862Y-63772737D01*
X125618231Y-63775269D01*
X125624413Y-63824854D01*
X125626506Y-63831887D01*
X125628893Y-63838840D01*
X125628894Y-63838842D01*
X125636594Y-63853070D01*
X125652677Y-63882791D01*
X125653850Y-63885069D01*
X125675788Y-63929945D01*
X125675790Y-63929947D01*
X125680057Y-63935925D01*
X125684568Y-63941720D01*
X125721327Y-63975559D01*
X125723176Y-63977333D01*
X125794147Y-64048304D01*
X125827632Y-64109627D01*
X125829562Y-64150930D01*
X125819560Y-64233312D01*
X125819560Y-64233313D01*
X125838600Y-64390131D01*
X125883410Y-64508283D01*
X125894618Y-64537836D01*
X125984355Y-64667843D01*
X126082564Y-64754848D01*
X126119690Y-64814036D01*
X126124337Y-64847663D01*
X126124337Y-67058662D01*
X126121700Y-67084100D01*
X126119795Y-67093187D01*
X126119795Y-67093191D01*
X126123861Y-67125811D01*
X126124338Y-67133488D01*
X126124338Y-67136914D01*
X126124583Y-67138381D01*
X126127714Y-67157150D01*
X126128083Y-67159682D01*
X126134265Y-67209267D01*
X126136358Y-67216300D01*
X126138745Y-67223253D01*
X126138746Y-67223255D01*
X126140557Y-67226601D01*
X126162529Y-67267204D01*
X126163702Y-67269482D01*
X126185640Y-67314358D01*
X126185642Y-67314360D01*
X126189909Y-67320338D01*
X126194420Y-67326133D01*
X126231179Y-67359972D01*
X126233028Y-67361746D01*
X127629181Y-68757899D01*
X127662666Y-68819222D01*
X127665500Y-68845580D01*
X127665500Y-70947996D01*
X127645815Y-71015035D01*
X127593011Y-71060790D01*
X127585478Y-71063935D01*
X127580252Y-71065917D01*
X127440377Y-71139330D01*
X127322131Y-71244086D01*
X127232396Y-71374090D01*
X127232395Y-71374091D01*
X127176377Y-71521796D01*
X127157337Y-71678614D01*
X127157337Y-71678615D01*
X127176377Y-71835433D01*
X127232395Y-71983138D01*
X127232396Y-71983139D01*
X127322132Y-72113146D01*
X127369726Y-72155309D01*
X127406853Y-72214498D01*
X127411500Y-72248125D01*
X127411500Y-79868227D01*
X127391815Y-79935266D01*
X127375181Y-79955908D01*
X126785931Y-80545157D01*
X126724608Y-80578642D01*
X126683378Y-80578119D01*
X126683087Y-80580519D01*
X126675642Y-80579615D01*
X126517672Y-80579615D01*
X126517671Y-80579615D01*
X126364291Y-80617418D01*
X126224419Y-80690830D01*
X126106173Y-80795586D01*
X126016438Y-80925590D01*
X126016437Y-80925591D01*
X125960419Y-81073296D01*
X125941379Y-81230114D01*
X125941379Y-81230115D01*
X125960419Y-81386933D01*
X126016437Y-81534638D01*
X126016438Y-81534639D01*
X126106174Y-81664646D01*
X126204386Y-81751652D01*
X126241513Y-81810841D01*
X126246160Y-81844468D01*
X126246160Y-91295788D01*
X126226475Y-91362827D01*
X126209841Y-91383469D01*
X125568268Y-92025042D01*
X125506945Y-92058527D01*
X125465715Y-92058004D01*
X125465424Y-92060404D01*
X125457979Y-92059500D01*
X125300009Y-92059500D01*
X125300008Y-92059500D01*
X125146628Y-92097303D01*
X125006756Y-92170715D01*
X124888510Y-92275471D01*
X124798775Y-92405475D01*
X124798774Y-92405476D01*
X124742756Y-92553181D01*
X124723716Y-92709999D01*
X124723716Y-92710000D01*
X124742756Y-92866818D01*
X124798773Y-93014522D01*
X124798774Y-93014523D01*
X124888511Y-93144530D01*
X125006754Y-93249283D01*
X125006756Y-93249284D01*
X125146628Y-93322696D01*
X125300008Y-93360500D01*
X125300009Y-93360500D01*
X125457979Y-93360500D01*
X125611359Y-93322696D01*
X125612072Y-93322322D01*
X125751234Y-93249283D01*
X125869477Y-93144530D01*
X125959214Y-93014523D01*
X126015231Y-92866818D01*
X126034272Y-92710000D01*
X126024268Y-92627617D01*
X126035728Y-92558696D01*
X126059680Y-92524994D01*
X126809707Y-91774967D01*
X126829563Y-91758844D01*
X126837330Y-91753770D01*
X126857534Y-91727810D01*
X126862602Y-91722072D01*
X126865036Y-91719640D01*
X126876994Y-91702888D01*
X126878461Y-91700922D01*
X126909178Y-91661459D01*
X126909180Y-91661451D01*
X126912667Y-91655008D01*
X126915895Y-91648405D01*
X126915900Y-91648399D01*
X126930162Y-91600488D01*
X126930920Y-91598123D01*
X126947161Y-91550821D01*
X126947161Y-91550814D01*
X126948366Y-91543594D01*
X126949278Y-91536285D01*
X126947214Y-91486384D01*
X126947161Y-91483822D01*
X126947161Y-81844462D01*
X126966846Y-81777423D01*
X126988935Y-81751646D01*
X127087139Y-81664646D01*
X127093974Y-81654744D01*
X127176877Y-81534638D01*
X127232894Y-81386933D01*
X127251935Y-81230115D01*
X127241931Y-81147731D01*
X127253391Y-81078810D01*
X127277343Y-81045108D01*
X127975043Y-80347408D01*
X127994894Y-80331288D01*
X128002669Y-80326209D01*
X128022864Y-80300260D01*
X128027942Y-80294509D01*
X128030375Y-80292078D01*
X128042301Y-80275372D01*
X128043804Y-80273356D01*
X128074517Y-80233898D01*
X128074519Y-80233889D01*
X128078017Y-80227427D01*
X128081241Y-80220835D01*
X128082576Y-80216349D01*
X128095506Y-80172916D01*
X128096264Y-80170549D01*
X128112500Y-80123260D01*
X128112500Y-80123253D01*
X128113706Y-80116028D01*
X128114617Y-80108724D01*
X128112553Y-80058822D01*
X128112500Y-80056260D01*
X128112500Y-77939799D01*
X128132185Y-77872760D01*
X128184989Y-77827005D01*
X128254147Y-77817061D01*
X128284321Y-77826831D01*
X128284623Y-77826037D01*
X128291634Y-77828696D01*
X128445014Y-77866500D01*
X128445015Y-77866500D01*
X128602985Y-77866500D01*
X128756365Y-77828696D01*
X128778533Y-77817061D01*
X128896240Y-77755283D01*
X129014483Y-77650530D01*
X129104220Y-77520523D01*
X129160237Y-77372818D01*
X129179278Y-77216000D01*
X129160237Y-77059182D01*
X129104220Y-76911477D01*
X129030850Y-76805182D01*
X129014482Y-76781468D01*
X128935499Y-76711497D01*
X128916272Y-76694463D01*
X128879146Y-76635276D01*
X128874499Y-76601656D01*
X128874500Y-73641334D01*
X128894185Y-73574295D01*
X128946989Y-73528540D01*
X128968815Y-73520940D01*
X129010360Y-73510701D01*
X129150235Y-73437288D01*
X129268478Y-73332535D01*
X129358215Y-73202528D01*
X129414232Y-73054823D01*
X129422403Y-72987520D01*
X129450026Y-72923342D01*
X129487699Y-72897943D01*
X129464297Y-72887256D01*
X129426523Y-72828478D01*
X129422404Y-72808489D01*
X129414232Y-72741186D01*
X129362362Y-72604417D01*
X129358215Y-72593482D01*
X129268478Y-72463475D01*
X129150235Y-72358722D01*
X129150233Y-72358721D01*
X129150232Y-72358720D01*
X129010360Y-72285308D01*
X128856981Y-72247505D01*
X128856980Y-72247505D01*
X128699010Y-72247505D01*
X128699009Y-72247505D01*
X128545629Y-72285308D01*
X128405756Y-72358720D01*
X128405754Y-72358722D01*
X128318726Y-72435821D01*
X128255493Y-72465542D01*
X128186229Y-72456358D01*
X128132927Y-72411185D01*
X128112507Y-72344366D01*
X128112500Y-72343005D01*
X128112500Y-72330833D01*
X128132185Y-72263794D01*
X128178878Y-72221035D01*
X128179026Y-72220957D01*
X128184855Y-72217898D01*
X128303098Y-72113145D01*
X128392835Y-71983138D01*
X128448852Y-71835433D01*
X128467893Y-71678615D01*
X128465567Y-71659454D01*
X128448852Y-71521796D01*
X128416512Y-71436523D01*
X128392835Y-71374092D01*
X128388450Y-71367739D01*
X128366567Y-71301384D01*
X128366500Y-71297299D01*
X128366500Y-68698244D01*
X128369139Y-68672796D01*
X128371042Y-68663720D01*
X128370232Y-68657231D01*
X128366975Y-68631103D01*
X128366499Y-68623428D01*
X128366500Y-68619996D01*
X128363121Y-68599749D01*
X128362753Y-68597224D01*
X128360606Y-68579999D01*
X128356573Y-68547643D01*
X128356571Y-68547640D01*
X128354481Y-68540615D01*
X128352091Y-68533652D01*
X128328317Y-68489724D01*
X128327157Y-68487473D01*
X128313949Y-68460454D01*
X128305200Y-68442555D01*
X128300919Y-68436560D01*
X128296420Y-68430780D01*
X128296418Y-68430778D01*
X128259642Y-68396923D01*
X128257820Y-68395174D01*
X127292637Y-67429990D01*
X127259152Y-67368667D01*
X127264136Y-67298975D01*
X127306008Y-67243042D01*
X127371472Y-67218625D01*
X127409994Y-67221912D01*
X127429013Y-67226600D01*
X127429014Y-67226601D01*
X127429015Y-67226601D01*
X127586985Y-67226601D01*
X127740365Y-67188797D01*
X127795838Y-67159682D01*
X127880240Y-67115384D01*
X127998483Y-67010631D01*
X128088220Y-66880624D01*
X128144237Y-66732919D01*
X128163278Y-66576101D01*
X128153274Y-66493717D01*
X128164734Y-66424796D01*
X128188686Y-66391094D01*
X128428248Y-66151532D01*
X128448099Y-66135412D01*
X128455874Y-66130333D01*
X128476069Y-66104384D01*
X128481147Y-66098633D01*
X128483580Y-66096202D01*
X128495506Y-66079496D01*
X128497009Y-66077480D01*
X128527722Y-66038022D01*
X128527724Y-66038013D01*
X128531222Y-66031551D01*
X128534446Y-66024959D01*
X128541517Y-66001207D01*
X128548711Y-65977040D01*
X128549469Y-65974673D01*
X128565705Y-65927384D01*
X128565705Y-65927377D01*
X128566911Y-65920152D01*
X128567822Y-65912848D01*
X128565758Y-65862946D01*
X128565705Y-65860384D01*
X128565705Y-63270708D01*
X128585390Y-63203669D01*
X128587655Y-63200268D01*
X128610142Y-63167690D01*
X128645220Y-63116871D01*
X128701237Y-62969166D01*
X128720278Y-62812348D01*
X128720172Y-62811470D01*
X128701237Y-62655529D01*
X128675024Y-62586412D01*
X128645220Y-62507825D01*
X128572450Y-62402399D01*
X128550567Y-62336044D01*
X128550500Y-62331959D01*
X128550500Y-59223684D01*
X128570185Y-59156645D01*
X128622989Y-59110890D01*
X128692147Y-59100946D01*
X128704172Y-59103286D01*
X128821015Y-59132085D01*
X128978985Y-59132085D01*
X129132365Y-59094281D01*
X129261873Y-59026308D01*
X129330381Y-59012583D01*
X129395434Y-59038075D01*
X129436379Y-59094691D01*
X129443499Y-59136105D01*
X129443500Y-63196788D01*
X129440861Y-63222232D01*
X129438957Y-63231312D01*
X129438957Y-63231316D01*
X129443023Y-63263938D01*
X129443499Y-63271600D01*
X129443499Y-63275033D01*
X129443501Y-63275052D01*
X129446876Y-63295277D01*
X129447245Y-63297809D01*
X129453427Y-63347393D01*
X129455520Y-63354426D01*
X129457907Y-63361379D01*
X129457908Y-63361381D01*
X129460047Y-63365333D01*
X129481691Y-63405330D01*
X129482864Y-63407608D01*
X129504802Y-63452484D01*
X129504804Y-63452486D01*
X129509071Y-63458464D01*
X129513582Y-63464259D01*
X129550341Y-63498098D01*
X129552190Y-63499872D01*
X130129309Y-64076991D01*
X130162794Y-64138314D01*
X130164724Y-64179617D01*
X130154722Y-64261999D01*
X130154722Y-64262000D01*
X130173762Y-64418818D01*
X130218900Y-64537836D01*
X130229780Y-64566523D01*
X130319517Y-64696530D01*
X130437760Y-64801283D01*
X130437762Y-64801284D01*
X130577634Y-64874696D01*
X130731014Y-64912500D01*
X130731015Y-64912500D01*
X130888985Y-64912500D01*
X131042365Y-64874696D01*
X131049377Y-64872037D01*
X131050104Y-64873955D01*
X131108371Y-64862278D01*
X131173427Y-64887764D01*
X131214376Y-64944377D01*
X131221499Y-64985800D01*
X131221499Y-65251467D01*
X131201814Y-65318506D01*
X131185180Y-65339148D01*
X130745274Y-65779054D01*
X130683951Y-65812539D01*
X130642721Y-65812016D01*
X130642430Y-65814416D01*
X130634985Y-65813512D01*
X130477015Y-65813512D01*
X130477014Y-65813512D01*
X130323634Y-65851315D01*
X130183762Y-65924727D01*
X130104931Y-65994564D01*
X130070623Y-66024959D01*
X130065516Y-66029483D01*
X129975781Y-66159487D01*
X129975780Y-66159488D01*
X129919762Y-66307193D01*
X129900721Y-66464011D01*
X129900721Y-66464012D01*
X129919762Y-66620830D01*
X129969310Y-66751475D01*
X129975780Y-66768535D01*
X130065517Y-66898542D01*
X130183760Y-67003295D01*
X130187917Y-67005477D01*
X130323634Y-67076708D01*
X130477014Y-67114512D01*
X130477015Y-67114512D01*
X130634985Y-67114512D01*
X130788365Y-67076708D01*
X130795377Y-67074049D01*
X130796105Y-67075968D01*
X130854361Y-67064288D01*
X130919419Y-67089769D01*
X130960373Y-67146377D01*
X130967500Y-67187811D01*
X130967500Y-70388668D01*
X130947815Y-70455707D01*
X130895011Y-70501462D01*
X130873176Y-70509065D01*
X130831632Y-70519304D01*
X130691762Y-70592715D01*
X130573516Y-70697471D01*
X130483781Y-70827475D01*
X130483780Y-70827476D01*
X130427763Y-70975181D01*
X130408722Y-71132000D01*
X130418724Y-71214381D01*
X130407263Y-71283304D01*
X130383309Y-71317007D01*
X129806955Y-71893361D01*
X129787106Y-71909482D01*
X129779331Y-71914562D01*
X129759143Y-71940498D01*
X129754067Y-71946248D01*
X129751634Y-71948681D01*
X129751624Y-71948694D01*
X129739695Y-71965401D01*
X129738164Y-71967453D01*
X129707483Y-72006872D01*
X129703975Y-72013353D01*
X129700761Y-72019931D01*
X129686506Y-72067809D01*
X129685725Y-72070246D01*
X129669499Y-72117512D01*
X129668294Y-72124733D01*
X129667382Y-72132046D01*
X129669447Y-72181948D01*
X129669500Y-72184510D01*
X129669500Y-72793543D01*
X129649815Y-72860582D01*
X129605016Y-72899400D01*
X129637406Y-72919224D01*
X129667821Y-72982127D01*
X129669500Y-73002466D01*
X129669500Y-82443649D01*
X129649815Y-82510688D01*
X129627728Y-82536462D01*
X129578585Y-82580000D01*
X129529516Y-82623471D01*
X129439781Y-82753475D01*
X129439780Y-82753476D01*
X129383762Y-82901181D01*
X129364721Y-83057999D01*
X129364721Y-83058000D01*
X129383762Y-83214818D01*
X129413071Y-83292098D01*
X129439780Y-83362523D01*
X129529517Y-83492530D01*
X129647760Y-83597283D01*
X129647762Y-83597284D01*
X129787634Y-83670696D01*
X129941014Y-83708500D01*
X129941015Y-83708500D01*
X130098985Y-83708500D01*
X130252365Y-83670696D01*
X130392240Y-83597283D01*
X130510483Y-83492530D01*
X130600220Y-83362523D01*
X130656237Y-83214818D01*
X130675278Y-83058000D01*
X130661232Y-82942315D01*
X130656237Y-82901181D01*
X130611933Y-82784363D01*
X130600220Y-82753477D01*
X130510483Y-82623470D01*
X130412271Y-82536463D01*
X130375145Y-82477274D01*
X130370499Y-82443648D01*
X130370499Y-77462226D01*
X130370499Y-72372539D01*
X130390184Y-72305504D01*
X130406809Y-72284871D01*
X130874725Y-71816955D01*
X130936046Y-71783472D01*
X130977271Y-71784039D01*
X130977568Y-71781596D01*
X130985014Y-71782500D01*
X130985015Y-71782500D01*
X131142985Y-71782500D01*
X131296365Y-71744696D01*
X131296364Y-71744696D01*
X131436240Y-71671283D01*
X131554483Y-71566530D01*
X131644220Y-71436523D01*
X131700237Y-71288818D01*
X131719278Y-71132000D01*
X131711014Y-71063935D01*
X131700237Y-70975181D01*
X131676584Y-70912814D01*
X131668630Y-70873924D01*
X131668552Y-70872020D01*
X131668500Y-70869480D01*
X131668500Y-66464240D01*
X131688185Y-66397201D01*
X131704815Y-66376563D01*
X132051670Y-66029707D01*
X132112993Y-65996223D01*
X132182685Y-66001207D01*
X132238618Y-66043079D01*
X132255293Y-66073417D01*
X132261781Y-66090525D01*
X132289257Y-66130331D01*
X132351517Y-66220530D01*
X132469760Y-66325283D01*
X132469762Y-66325284D01*
X132609634Y-66398696D01*
X132763014Y-66436500D01*
X132763015Y-66436500D01*
X132920985Y-66436500D01*
X133074365Y-66398696D01*
X133153340Y-66357246D01*
X133214240Y-66325283D01*
X133332483Y-66220530D01*
X133422220Y-66090523D01*
X133478237Y-65942818D01*
X133497278Y-65786000D01*
X133479071Y-65636046D01*
X133478237Y-65629181D01*
X133456992Y-65573164D01*
X133422220Y-65481477D01*
X133332483Y-65351470D01*
X133332482Y-65351468D01*
X133264976Y-65291664D01*
X133234272Y-65264463D01*
X133197146Y-65205276D01*
X133192500Y-65171656D01*
X133192500Y-64199834D01*
X133212185Y-64132794D01*
X133214450Y-64129394D01*
X133228094Y-64109627D01*
X133248964Y-64079392D01*
X133304981Y-63931687D01*
X133324022Y-63774869D01*
X133321003Y-63750000D01*
X133304981Y-63618050D01*
X133283736Y-63562032D01*
X133248964Y-63470346D01*
X133159227Y-63340339D01*
X133040984Y-63235586D01*
X133040982Y-63235585D01*
X133040981Y-63235584D01*
X132971456Y-63199094D01*
X132921243Y-63150509D01*
X132905269Y-63082490D01*
X132913140Y-63045326D01*
X132914201Y-63042526D01*
X132914204Y-63042523D01*
X132970221Y-62894818D01*
X132989262Y-62738000D01*
X132979249Y-62655530D01*
X132970221Y-62581181D01*
X132936190Y-62491449D01*
X132914204Y-62433477D01*
X132824467Y-62303470D01*
X132726256Y-62216463D01*
X132689131Y-62157276D01*
X132684484Y-62123649D01*
X132684484Y-60213589D01*
X132684484Y-58287126D01*
X132687121Y-58261696D01*
X132689026Y-58252615D01*
X132686529Y-58232584D01*
X132684961Y-58219998D01*
X132684484Y-58212321D01*
X132684484Y-58208888D01*
X132683586Y-58203510D01*
X132681098Y-58188603D01*
X132680736Y-58186108D01*
X132674557Y-58136537D01*
X132672461Y-58129498D01*
X132670075Y-58122546D01*
X132646301Y-58078618D01*
X132645141Y-58076367D01*
X132630812Y-58047055D01*
X132623184Y-58031449D01*
X132618903Y-58025454D01*
X132614404Y-58019674D01*
X132610460Y-58016043D01*
X132577626Y-57985817D01*
X132575804Y-57984068D01*
X132450810Y-57859074D01*
X132417325Y-57797751D01*
X132422309Y-57728059D01*
X132464181Y-57672126D01*
X132480855Y-57661601D01*
X132546244Y-57627283D01*
X132664487Y-57522530D01*
X132732707Y-57423695D01*
X132786987Y-57379707D01*
X132856435Y-57372047D01*
X132919000Y-57403150D01*
X132954818Y-57463140D01*
X132957851Y-57479190D01*
X132967763Y-57560818D01*
X133023780Y-57708523D01*
X133113517Y-57838530D01*
X133231760Y-57943283D01*
X133231766Y-57943286D01*
X133234325Y-57945053D01*
X133235766Y-57946832D01*
X133237374Y-57948256D01*
X133237137Y-57948523D01*
X133278316Y-57999336D01*
X133285976Y-58068784D01*
X133279828Y-58091075D01*
X133221763Y-58244181D01*
X133202721Y-58400999D01*
X133202721Y-58401000D01*
X133221762Y-58557818D01*
X133274867Y-58697842D01*
X133277780Y-58705523D01*
X133318727Y-58764845D01*
X133359526Y-58823954D01*
X133367517Y-58835530D01*
X133375723Y-58842800D01*
X133412852Y-58901987D01*
X133417500Y-58935618D01*
X133417500Y-60982386D01*
X133417110Y-60989334D01*
X133412834Y-61027271D01*
X133414331Y-61035181D01*
X133423438Y-61083313D01*
X133423821Y-61085567D01*
X133432315Y-61141920D01*
X133434781Y-61149916D01*
X133437521Y-61157745D01*
X133464145Y-61208119D01*
X133465190Y-61210189D01*
X133489930Y-61261563D01*
X133494586Y-61268393D01*
X133499569Y-61275143D01*
X133499571Y-61275147D01*
X133539876Y-61315452D01*
X133541459Y-61317096D01*
X133580250Y-61358902D01*
X133587516Y-61364696D01*
X133586978Y-61365369D01*
X133599072Y-61374648D01*
X133879383Y-61654959D01*
X133912868Y-61716282D01*
X133914798Y-61727693D01*
X133933148Y-61878819D01*
X133982883Y-62009959D01*
X133989165Y-62026523D01*
X134078902Y-62156530D01*
X134197145Y-62261283D01*
X134337020Y-62334696D01*
X134339166Y-62335225D01*
X134340572Y-62336043D01*
X134344036Y-62337357D01*
X134343817Y-62337932D01*
X134399547Y-62370373D01*
X134431342Y-62432590D01*
X134433500Y-62455623D01*
X134433500Y-68821500D01*
X134413815Y-68888539D01*
X134361011Y-68934294D01*
X134309500Y-68945500D01*
X134287014Y-68945500D01*
X134133634Y-68983303D01*
X133993762Y-69056715D01*
X133875516Y-69161471D01*
X133785781Y-69291475D01*
X133785780Y-69291476D01*
X133729762Y-69439181D01*
X133710721Y-69595999D01*
X133710721Y-69596000D01*
X133729762Y-69752818D01*
X133775078Y-69872304D01*
X133785780Y-69900523D01*
X133875517Y-70030530D01*
X133911725Y-70062608D01*
X133948852Y-70121796D01*
X133953499Y-70155423D01*
X133953499Y-74949901D01*
X133933814Y-75016940D01*
X133881010Y-75062695D01*
X133811852Y-75072639D01*
X133799831Y-75070299D01*
X133682985Y-75041500D01*
X133525015Y-75041500D01*
X133525014Y-75041500D01*
X133371634Y-75079303D01*
X133231762Y-75152715D01*
X133113516Y-75257471D01*
X133023781Y-75387475D01*
X133023780Y-75387476D01*
X132967762Y-75535181D01*
X132948721Y-75691999D01*
X132948721Y-75692000D01*
X132967762Y-75848814D01*
X132967764Y-75848823D01*
X132991415Y-75911185D01*
X132999363Y-75949945D01*
X132999416Y-75951201D01*
X132999445Y-75951915D01*
X132999500Y-75954494D01*
X132999500Y-78520915D01*
X132979815Y-78587954D01*
X132927011Y-78633709D01*
X132857853Y-78643653D01*
X132794297Y-78614628D01*
X132773451Y-78591356D01*
X132762484Y-78575469D01*
X132762483Y-78575467D01*
X132644240Y-78470714D01*
X132644238Y-78470713D01*
X132644237Y-78470712D01*
X132504365Y-78397300D01*
X132350986Y-78359497D01*
X132350985Y-78359497D01*
X132193015Y-78359497D01*
X132193014Y-78359497D01*
X132039634Y-78397300D01*
X131899762Y-78470712D01*
X131781516Y-78575468D01*
X131691781Y-78705472D01*
X131691780Y-78705473D01*
X131635762Y-78853178D01*
X131616722Y-79009996D01*
X131616722Y-79009997D01*
X131626724Y-79092379D01*
X131615263Y-79161302D01*
X131591309Y-79195005D01*
X131086955Y-79699358D01*
X131067106Y-79715479D01*
X131059331Y-79720559D01*
X131039143Y-79746495D01*
X131034067Y-79752245D01*
X131031634Y-79754678D01*
X131031624Y-79754691D01*
X131019695Y-79771398D01*
X131018164Y-79773450D01*
X130987483Y-79812869D01*
X130983975Y-79819350D01*
X130980761Y-79825928D01*
X130966506Y-79873806D01*
X130965725Y-79876243D01*
X130949499Y-79923509D01*
X130948294Y-79930730D01*
X130947382Y-79938043D01*
X130949447Y-79987945D01*
X130949500Y-79990507D01*
X130949500Y-87308788D01*
X130946861Y-87334232D01*
X130944957Y-87343311D01*
X130944957Y-87343317D01*
X130949023Y-87375937D01*
X130949500Y-87383614D01*
X130949500Y-87387040D01*
X130950878Y-87395300D01*
X130952876Y-87407276D01*
X130953245Y-87409808D01*
X130959427Y-87459393D01*
X130961520Y-87466426D01*
X130963907Y-87473379D01*
X130963908Y-87473381D01*
X130971608Y-87487609D01*
X130987691Y-87517330D01*
X130988864Y-87519608D01*
X131010802Y-87564484D01*
X131010804Y-87564486D01*
X131015071Y-87570464D01*
X131019582Y-87576259D01*
X131056341Y-87610098D01*
X131058190Y-87611872D01*
X131907309Y-88460991D01*
X131940794Y-88522314D01*
X131942724Y-88563617D01*
X131932722Y-88645999D01*
X131932722Y-88646000D01*
X131951762Y-88802818D01*
X131988619Y-88900000D01*
X132007780Y-88950523D01*
X132097517Y-89080530D01*
X132215760Y-89185283D01*
X132215762Y-89185284D01*
X132355634Y-89258696D01*
X132509014Y-89296500D01*
X132509015Y-89296500D01*
X132666985Y-89296500D01*
X132820365Y-89258696D01*
X132914594Y-89209240D01*
X132960240Y-89185283D01*
X133078483Y-89080530D01*
X133168220Y-88950523D01*
X133224237Y-88802818D01*
X133243278Y-88646000D01*
X133237144Y-88595477D01*
X133224237Y-88489181D01*
X133202992Y-88433163D01*
X133168220Y-88341477D01*
X133078483Y-88211470D01*
X132960240Y-88106717D01*
X132960238Y-88106716D01*
X132960237Y-88106715D01*
X132820365Y-88033303D01*
X132666986Y-87995500D01*
X132666985Y-87995500D01*
X132509015Y-87995500D01*
X132509013Y-87995500D01*
X132501572Y-87996404D01*
X132501184Y-87993209D01*
X132445662Y-87990476D01*
X132398724Y-87961042D01*
X131686818Y-87249136D01*
X131653333Y-87187813D01*
X131650499Y-87161455D01*
X131650499Y-86439862D01*
X131650499Y-85963540D01*
X131670184Y-85896504D01*
X131722988Y-85850749D01*
X131792146Y-85840805D01*
X131855702Y-85869830D01*
X131862180Y-85875862D01*
X131907309Y-85920991D01*
X131940794Y-85982314D01*
X131942724Y-86023617D01*
X131932722Y-86105999D01*
X131932722Y-86106000D01*
X131951762Y-86262818D01*
X131988619Y-86360000D01*
X132007780Y-86410523D01*
X132097517Y-86540530D01*
X132215760Y-86645283D01*
X132215762Y-86645284D01*
X132355634Y-86718696D01*
X132509014Y-86756500D01*
X132509015Y-86756500D01*
X132666985Y-86756500D01*
X132820365Y-86718696D01*
X132820364Y-86718696D01*
X132960240Y-86645283D01*
X133078483Y-86540530D01*
X133168220Y-86410523D01*
X133224237Y-86262818D01*
X133243278Y-86106000D01*
X133225071Y-85956046D01*
X133224237Y-85949181D01*
X133183135Y-85840805D01*
X133168220Y-85801477D01*
X133078483Y-85671470D01*
X132960240Y-85566717D01*
X132960238Y-85566716D01*
X132960237Y-85566715D01*
X132820365Y-85493303D01*
X132666986Y-85455500D01*
X132666985Y-85455500D01*
X132509015Y-85455500D01*
X132509014Y-85455500D01*
X132501568Y-85456404D01*
X132501177Y-85453188D01*
X132445782Y-85450519D01*
X132398723Y-85421042D01*
X132086819Y-85109137D01*
X132053334Y-85047814D01*
X132050500Y-85021456D01*
X132050500Y-81748457D01*
X132070185Y-81681418D01*
X132122989Y-81635663D01*
X132192147Y-81625719D01*
X132255703Y-81654744D01*
X132276546Y-81678013D01*
X132307342Y-81722628D01*
X132425585Y-81827381D01*
X132425587Y-81827382D01*
X132565459Y-81900794D01*
X132718839Y-81938598D01*
X132718840Y-81938598D01*
X132876810Y-81938598D01*
X133030190Y-81900794D01*
X133134359Y-81846121D01*
X133170065Y-81827381D01*
X133288308Y-81722628D01*
X133378045Y-81592621D01*
X133434062Y-81444916D01*
X133453103Y-81288098D01*
X133443099Y-81205715D01*
X133454559Y-81136794D01*
X133478511Y-81103092D01*
X133563046Y-81018557D01*
X133582902Y-81002434D01*
X133590669Y-80997360D01*
X133610873Y-80971400D01*
X133615941Y-80965662D01*
X133618375Y-80963230D01*
X133630313Y-80946508D01*
X133631809Y-80944501D01*
X133662517Y-80905049D01*
X133662518Y-80905043D01*
X133666017Y-80898579D01*
X133669235Y-80891994D01*
X133669239Y-80891990D01*
X133682655Y-80846924D01*
X133720649Y-80788289D01*
X133784313Y-80759503D01*
X133853434Y-80769706D01*
X133906066Y-80815658D01*
X133925500Y-80882306D01*
X133925500Y-89633771D01*
X133925110Y-89640711D01*
X133923954Y-89650969D01*
X133920834Y-89678656D01*
X133926063Y-89706288D01*
X133931438Y-89734698D01*
X133931821Y-89736952D01*
X133940315Y-89793305D01*
X133942781Y-89801301D01*
X133945521Y-89809130D01*
X133972145Y-89859504D01*
X133973190Y-89861574D01*
X133997930Y-89912948D01*
X134002586Y-89919778D01*
X134007569Y-89926528D01*
X134007571Y-89926532D01*
X134047876Y-89966837D01*
X134049459Y-89968481D01*
X134088250Y-90010287D01*
X134095516Y-90016081D01*
X134094978Y-90016754D01*
X134107072Y-90026033D01*
X134779839Y-90698800D01*
X134797287Y-90722511D01*
X134797520Y-90722351D01*
X134801779Y-90728522D01*
X134801780Y-90728523D01*
X134891517Y-90858530D01*
X135009760Y-90963283D01*
X135009762Y-90963284D01*
X135149634Y-91036696D01*
X135303014Y-91074500D01*
X135303015Y-91074500D01*
X135460985Y-91074500D01*
X135614365Y-91036696D01*
X135673860Y-91005470D01*
X135754240Y-90963283D01*
X135872483Y-90858530D01*
X135891824Y-90830509D01*
X135946104Y-90786520D01*
X136015553Y-90778860D01*
X136078118Y-90809962D01*
X136113936Y-90869952D01*
X136113017Y-90931105D01*
X136113540Y-90931201D01*
X136112969Y-90934325D01*
X136112951Y-90935538D01*
X136112403Y-90937422D01*
X136112401Y-90937432D01*
X136109500Y-90974298D01*
X136109500Y-91905701D01*
X136112401Y-91942567D01*
X136112402Y-91942573D01*
X136158254Y-92100393D01*
X136158255Y-92100396D01*
X136241917Y-92241862D01*
X136241923Y-92241870D01*
X136358129Y-92358076D01*
X136358133Y-92358079D01*
X136358135Y-92358081D01*
X136499602Y-92441744D01*
X136541224Y-92453836D01*
X136657426Y-92487597D01*
X136657429Y-92487597D01*
X136657431Y-92487598D01*
X136694306Y-92490500D01*
X136694314Y-92490500D01*
X137625686Y-92490500D01*
X137625694Y-92490500D01*
X137662569Y-92487598D01*
X137662571Y-92487597D01*
X137662573Y-92487597D01*
X137704899Y-92475300D01*
X137820398Y-92441744D01*
X137961865Y-92358081D01*
X138078081Y-92241865D01*
X138161744Y-92100398D01*
X138196931Y-91979284D01*
X138207597Y-91942573D01*
X138207598Y-91942567D01*
X138210500Y-91905694D01*
X138210500Y-90974306D01*
X138207598Y-90937431D01*
X138207595Y-90937422D01*
X138164185Y-90788004D01*
X138161744Y-90779602D01*
X138078081Y-90638135D01*
X138078079Y-90638133D01*
X138078076Y-90638129D01*
X137961870Y-90521923D01*
X137961862Y-90521917D01*
X137865229Y-90464769D01*
X137820398Y-90438256D01*
X137820397Y-90438255D01*
X137820396Y-90438255D01*
X137820393Y-90438254D01*
X137662573Y-90392402D01*
X137662567Y-90392401D01*
X137625701Y-90389500D01*
X137625694Y-90389500D01*
X136694306Y-90389500D01*
X136694298Y-90389500D01*
X136657432Y-90392401D01*
X136657426Y-90392402D01*
X136499606Y-90438254D01*
X136499603Y-90438255D01*
X136358137Y-90521917D01*
X136358129Y-90521923D01*
X136236402Y-90643651D01*
X136234936Y-90642185D01*
X136187019Y-90676787D01*
X136117251Y-90680572D01*
X136056513Y-90646037D01*
X136024088Y-90584147D01*
X136022594Y-90544933D01*
X136037278Y-90424000D01*
X136018237Y-90267182D01*
X135962220Y-90119477D01*
X135872483Y-89989470D01*
X135754240Y-89884717D01*
X135754238Y-89884716D01*
X135754237Y-89884715D01*
X135614365Y-89811303D01*
X135460986Y-89773500D01*
X135460985Y-89773500D01*
X135303015Y-89773500D01*
X135208416Y-89796815D01*
X135138614Y-89793747D01*
X135091061Y-89764100D01*
X134842819Y-89515858D01*
X134809334Y-89454535D01*
X134806500Y-89428177D01*
X134806500Y-88900000D01*
X136104417Y-88900000D01*
X136124699Y-89105932D01*
X136148770Y-89185283D01*
X136184768Y-89303954D01*
X136282315Y-89486450D01*
X136308645Y-89518533D01*
X136413589Y-89646410D01*
X136452882Y-89678656D01*
X136573550Y-89777685D01*
X136756046Y-89875232D01*
X136954066Y-89935300D01*
X136954065Y-89935300D01*
X136972529Y-89937118D01*
X137160000Y-89955583D01*
X137365934Y-89935300D01*
X137563954Y-89875232D01*
X137746450Y-89777685D01*
X137906410Y-89646410D01*
X138037685Y-89486450D01*
X138135232Y-89303954D01*
X138195300Y-89105934D01*
X138215583Y-88900000D01*
X138195300Y-88694066D01*
X138135232Y-88496046D01*
X138037685Y-88313550D01*
X137956842Y-88215042D01*
X137906410Y-88153589D01*
X137746452Y-88022317D01*
X137746453Y-88022317D01*
X137746450Y-88022315D01*
X137563954Y-87924768D01*
X137365934Y-87864700D01*
X137365932Y-87864699D01*
X137365934Y-87864699D01*
X137160000Y-87844417D01*
X136954067Y-87864699D01*
X136756043Y-87924769D01*
X136645897Y-87983643D01*
X136573550Y-88022315D01*
X136573548Y-88022316D01*
X136573547Y-88022317D01*
X136413589Y-88153589D01*
X136282317Y-88313547D01*
X136282315Y-88313550D01*
X136254044Y-88366441D01*
X136184769Y-88496043D01*
X136124699Y-88694067D01*
X136104417Y-88900000D01*
X134806500Y-88900000D01*
X134806500Y-86359999D01*
X136104417Y-86359999D01*
X136124699Y-86565932D01*
X136124700Y-86565934D01*
X136184768Y-86763954D01*
X136282315Y-86946450D01*
X136282317Y-86946452D01*
X136413589Y-87106410D01*
X136480663Y-87161455D01*
X136573550Y-87237685D01*
X136756046Y-87335232D01*
X136954066Y-87395300D01*
X136954065Y-87395300D01*
X136974348Y-87397297D01*
X137160000Y-87415583D01*
X137365934Y-87395300D01*
X137563954Y-87335232D01*
X137746450Y-87237685D01*
X137906410Y-87106410D01*
X138037685Y-86946450D01*
X138135232Y-86763954D01*
X138195300Y-86565934D01*
X138215583Y-86360000D01*
X138195300Y-86154066D01*
X138135232Y-85956046D01*
X138037685Y-85773550D01*
X137955278Y-85673136D01*
X137906410Y-85613589D01*
X137746452Y-85482317D01*
X137746453Y-85482317D01*
X137746450Y-85482315D01*
X137563954Y-85384768D01*
X137365934Y-85324700D01*
X137365932Y-85324699D01*
X137365934Y-85324699D01*
X137160000Y-85304417D01*
X136954067Y-85324699D01*
X136756043Y-85384769D01*
X136645897Y-85443643D01*
X136573550Y-85482315D01*
X136573548Y-85482316D01*
X136573547Y-85482317D01*
X136413589Y-85613589D01*
X136282317Y-85773547D01*
X136184769Y-85956043D01*
X136124699Y-86154067D01*
X136104417Y-86359999D01*
X134806500Y-86359999D01*
X134806500Y-80079877D01*
X134826185Y-80012838D01*
X134878989Y-79967083D01*
X134948147Y-79957139D01*
X135011703Y-79986164D01*
X135046442Y-80035906D01*
X135055780Y-80060529D01*
X135055781Y-80060530D01*
X135145517Y-80190537D01*
X135194460Y-80233895D01*
X135243726Y-80277541D01*
X135280853Y-80336729D01*
X135285500Y-80370356D01*
X135285500Y-82246788D01*
X135282861Y-82272232D01*
X135280957Y-82281311D01*
X135280957Y-82281317D01*
X135285023Y-82313937D01*
X135285500Y-82321614D01*
X135285500Y-82325040D01*
X135288232Y-82341420D01*
X135288876Y-82345276D01*
X135289245Y-82347808D01*
X135295427Y-82397393D01*
X135297520Y-82404426D01*
X135299907Y-82411379D01*
X135299908Y-82411381D01*
X135307608Y-82425609D01*
X135323691Y-82455330D01*
X135324864Y-82457608D01*
X135346802Y-82502484D01*
X135346804Y-82502486D01*
X135351071Y-82508464D01*
X135355582Y-82514259D01*
X135392341Y-82548098D01*
X135394190Y-82549872D01*
X136149808Y-83305490D01*
X136183293Y-83366813D01*
X136180788Y-83429166D01*
X136124699Y-83614067D01*
X136104417Y-83820000D01*
X136124699Y-84025932D01*
X136129787Y-84042705D01*
X136184768Y-84223954D01*
X136282315Y-84406450D01*
X136282317Y-84406452D01*
X136413589Y-84566410D01*
X136510209Y-84645702D01*
X136573550Y-84697685D01*
X136756046Y-84795232D01*
X136954066Y-84855300D01*
X136954065Y-84855300D01*
X136972529Y-84857118D01*
X137160000Y-84875583D01*
X137365934Y-84855300D01*
X137563954Y-84795232D01*
X137746450Y-84697685D01*
X137906410Y-84566410D01*
X138037685Y-84406450D01*
X138135232Y-84223954D01*
X138195300Y-84025934D01*
X138215583Y-83820000D01*
X138195300Y-83614066D01*
X138135232Y-83416046D01*
X138037685Y-83233550D01*
X137979537Y-83162696D01*
X137906410Y-83073589D01*
X137746452Y-82942317D01*
X137746453Y-82942317D01*
X137746450Y-82942315D01*
X137563954Y-82844768D01*
X137491074Y-82822660D01*
X137432636Y-82784363D01*
X137404180Y-82720551D01*
X137414740Y-82651484D01*
X137460964Y-82599090D01*
X137527070Y-82580000D01*
X138007828Y-82580000D01*
X138007844Y-82579999D01*
X138067372Y-82573598D01*
X138067379Y-82573596D01*
X138202086Y-82523354D01*
X138202093Y-82523350D01*
X138317187Y-82437190D01*
X138317190Y-82437187D01*
X138403350Y-82322093D01*
X138403354Y-82322086D01*
X138453596Y-82187379D01*
X138453598Y-82187372D01*
X138459999Y-82127844D01*
X138460000Y-82127827D01*
X138460000Y-81530000D01*
X137593686Y-81530000D01*
X137619493Y-81489844D01*
X137660000Y-81351889D01*
X137660000Y-81208111D01*
X137619493Y-81070156D01*
X137593686Y-81030000D01*
X138460000Y-81030000D01*
X138460000Y-80432172D01*
X138459999Y-80432155D01*
X138453598Y-80372627D01*
X138453596Y-80372620D01*
X138403354Y-80237913D01*
X138403350Y-80237906D01*
X138317190Y-80122812D01*
X138317187Y-80122809D01*
X138202093Y-80036649D01*
X138202086Y-80036645D01*
X138067379Y-79986403D01*
X138067372Y-79986401D01*
X138007844Y-79980000D01*
X137527070Y-79980000D01*
X137460031Y-79960315D01*
X137414276Y-79907511D01*
X137404332Y-79838353D01*
X137433357Y-79774797D01*
X137491074Y-79737339D01*
X137563954Y-79715232D01*
X137746450Y-79617685D01*
X137906410Y-79486410D01*
X138037685Y-79326450D01*
X138135232Y-79143954D01*
X138195300Y-78945934D01*
X138215583Y-78740000D01*
X138195300Y-78534066D01*
X138135232Y-78336046D01*
X138037685Y-78153550D01*
X137985702Y-78090209D01*
X137906410Y-77993589D01*
X137746452Y-77862317D01*
X137746453Y-77862317D01*
X137746450Y-77862315D01*
X137563954Y-77764768D01*
X137365934Y-77704700D01*
X137365932Y-77704699D01*
X137365934Y-77704699D01*
X137160000Y-77684417D01*
X136954067Y-77704699D01*
X136756043Y-77764769D01*
X136645897Y-77823643D01*
X136573550Y-77862315D01*
X136573548Y-77862316D01*
X136573547Y-77862317D01*
X136413589Y-77993589D01*
X136282317Y-78153547D01*
X136184769Y-78336043D01*
X136124699Y-78534067D01*
X136104417Y-78739999D01*
X136124699Y-78945932D01*
X136158468Y-79057254D01*
X136159091Y-79127121D01*
X136121842Y-79186234D01*
X136058548Y-79215825D01*
X135989304Y-79206498D01*
X135982181Y-79203045D01*
X135868365Y-79143309D01*
X135714986Y-79105506D01*
X135714985Y-79105506D01*
X135557015Y-79105506D01*
X135557014Y-79105506D01*
X135403634Y-79143309D01*
X135263762Y-79216721D01*
X135145516Y-79321477D01*
X135055781Y-79451481D01*
X135055778Y-79451487D01*
X135046441Y-79476106D01*
X135004263Y-79531809D01*
X134938665Y-79555865D01*
X134870475Y-79540637D01*
X134821342Y-79490961D01*
X134806500Y-79432134D01*
X134806500Y-77242618D01*
X134826185Y-77175579D01*
X134848274Y-77149801D01*
X134856483Y-77142530D01*
X134946220Y-77012523D01*
X135002237Y-76864818D01*
X135021278Y-76708000D01*
X135015144Y-76657477D01*
X135002237Y-76551181D01*
X134971681Y-76470613D01*
X134946220Y-76403477D01*
X134946218Y-76403474D01*
X134946216Y-76403470D01*
X134856450Y-76273420D01*
X134834567Y-76207066D01*
X134834500Y-76202981D01*
X134834500Y-76200000D01*
X136104417Y-76200000D01*
X136124699Y-76405932D01*
X136124700Y-76405934D01*
X136184768Y-76603954D01*
X136282315Y-76786450D01*
X136282317Y-76786452D01*
X136413589Y-76946410D01*
X136510209Y-77025702D01*
X136573550Y-77077685D01*
X136756046Y-77175232D01*
X136954066Y-77235300D01*
X136954065Y-77235300D01*
X136972529Y-77237118D01*
X137160000Y-77255583D01*
X137365934Y-77235300D01*
X137563954Y-77175232D01*
X137746450Y-77077685D01*
X137906410Y-76946410D01*
X138037685Y-76786450D01*
X138135232Y-76603954D01*
X138195300Y-76405934D01*
X138215583Y-76200000D01*
X138195300Y-75994066D01*
X138135232Y-75796046D01*
X138037685Y-75613550D01*
X137985702Y-75550209D01*
X137906410Y-75453589D01*
X137746452Y-75322317D01*
X137746453Y-75322317D01*
X137746450Y-75322315D01*
X137563954Y-75224768D01*
X137365934Y-75164700D01*
X137365932Y-75164699D01*
X137365934Y-75164699D01*
X137178463Y-75146235D01*
X137160000Y-75144417D01*
X137159999Y-75144417D01*
X136954067Y-75164699D01*
X136756043Y-75224769D01*
X136645897Y-75283643D01*
X136573550Y-75322315D01*
X136573548Y-75322316D01*
X136573547Y-75322317D01*
X136413589Y-75453589D01*
X136282317Y-75613547D01*
X136184769Y-75796043D01*
X136124699Y-75994067D01*
X136104417Y-76200000D01*
X134834500Y-76200000D01*
X134834500Y-73659999D01*
X136104417Y-73659999D01*
X136124699Y-73865932D01*
X136139472Y-73914631D01*
X136184768Y-74063954D01*
X136282315Y-74246450D01*
X136282317Y-74246452D01*
X136413589Y-74406410D01*
X136510209Y-74485702D01*
X136573550Y-74537685D01*
X136756046Y-74635232D01*
X136954066Y-74695300D01*
X136954065Y-74695300D01*
X136974347Y-74697297D01*
X137160000Y-74715583D01*
X137365934Y-74695300D01*
X137563954Y-74635232D01*
X137746450Y-74537685D01*
X137906410Y-74406410D01*
X138037685Y-74246450D01*
X138135232Y-74063954D01*
X138195300Y-73865934D01*
X138215583Y-73660000D01*
X138195300Y-73454066D01*
X138135232Y-73256046D01*
X138037685Y-73073550D01*
X137979348Y-73002466D01*
X137906410Y-72913589D01*
X137746452Y-72782317D01*
X137746453Y-72782317D01*
X137746450Y-72782315D01*
X137563954Y-72684768D01*
X137365934Y-72624700D01*
X137365932Y-72624699D01*
X137365934Y-72624699D01*
X137160000Y-72604417D01*
X136954067Y-72624699D01*
X136756043Y-72684769D01*
X136650496Y-72741186D01*
X136573550Y-72782315D01*
X136573548Y-72782316D01*
X136573547Y-72782317D01*
X136413589Y-72913589D01*
X136282317Y-73073547D01*
X136282315Y-73073550D01*
X136248943Y-73135984D01*
X136184769Y-73256043D01*
X136124699Y-73454067D01*
X136104417Y-73659999D01*
X134834500Y-73659999D01*
X134834500Y-71120000D01*
X136104417Y-71120000D01*
X136124699Y-71325932D01*
X136124700Y-71325934D01*
X136184768Y-71523954D01*
X136282315Y-71706450D01*
X136316969Y-71748677D01*
X136413589Y-71866410D01*
X136472265Y-71914563D01*
X136573550Y-71997685D01*
X136756046Y-72095232D01*
X136954066Y-72155300D01*
X136954065Y-72155300D01*
X136972529Y-72157118D01*
X137160000Y-72175583D01*
X137365934Y-72155300D01*
X137563954Y-72095232D01*
X137746450Y-71997685D01*
X137906410Y-71866410D01*
X138037685Y-71706450D01*
X138135232Y-71523954D01*
X138195300Y-71325934D01*
X138215583Y-71120000D01*
X138195300Y-70914066D01*
X138135232Y-70716046D01*
X138037685Y-70533550D01*
X137919290Y-70389284D01*
X137906410Y-70373589D01*
X137746452Y-70242317D01*
X137746453Y-70242317D01*
X137746450Y-70242315D01*
X137563954Y-70144768D01*
X137365934Y-70084700D01*
X137365932Y-70084699D01*
X137365934Y-70084699D01*
X137178463Y-70066235D01*
X137160000Y-70064417D01*
X137159999Y-70064417D01*
X136954067Y-70084699D01*
X136831775Y-70121796D01*
X136760909Y-70143293D01*
X136756043Y-70144769D01*
X136645897Y-70203643D01*
X136573550Y-70242315D01*
X136573548Y-70242316D01*
X136573547Y-70242317D01*
X136413589Y-70373589D01*
X136282317Y-70533547D01*
X136184769Y-70716043D01*
X136124699Y-70914067D01*
X136104417Y-71120000D01*
X134834500Y-71120000D01*
X134834500Y-70101017D01*
X134854185Y-70033978D01*
X134856450Y-70030577D01*
X134856481Y-70030531D01*
X134856483Y-70030530D01*
X134946220Y-69900523D01*
X135002237Y-69752818D01*
X135020587Y-69601690D01*
X135048207Y-69537515D01*
X135055990Y-69528969D01*
X135165528Y-69419431D01*
X135170696Y-69414812D01*
X135200557Y-69391001D01*
X135232684Y-69343877D01*
X135233986Y-69342042D01*
X135267852Y-69296158D01*
X135267853Y-69296156D01*
X135271733Y-69288814D01*
X135275356Y-69281289D01*
X135275360Y-69281285D01*
X135292170Y-69226784D01*
X135292877Y-69224639D01*
X135308562Y-69179815D01*
X135311710Y-69170820D01*
X135311710Y-69170817D01*
X135313253Y-69162660D01*
X135314500Y-69154394D01*
X135314500Y-69097404D01*
X135314542Y-69095122D01*
X135316675Y-69038123D01*
X135316674Y-69038121D01*
X135315635Y-69028894D01*
X135316488Y-69028797D01*
X135314500Y-69013682D01*
X135314500Y-68579999D01*
X136104417Y-68579999D01*
X136124699Y-68785932D01*
X136142793Y-68845580D01*
X136184768Y-68983954D01*
X136282315Y-69166450D01*
X136309438Y-69199500D01*
X136413589Y-69326410D01*
X136492295Y-69391001D01*
X136573550Y-69457685D01*
X136756046Y-69555232D01*
X136954066Y-69615300D01*
X136954065Y-69615300D01*
X136974348Y-69617297D01*
X137160000Y-69635583D01*
X137365934Y-69615300D01*
X137563954Y-69555232D01*
X137746450Y-69457685D01*
X137906410Y-69326410D01*
X138037685Y-69166450D01*
X138135232Y-68983954D01*
X138195300Y-68785934D01*
X138215583Y-68580000D01*
X138195300Y-68374066D01*
X138135232Y-68176046D01*
X138037685Y-67993550D01*
X137922287Y-67852936D01*
X137906410Y-67833589D01*
X137788677Y-67736969D01*
X137746450Y-67702315D01*
X137563954Y-67604768D01*
X137365934Y-67544700D01*
X137365932Y-67544699D01*
X137365934Y-67544699D01*
X137160000Y-67524417D01*
X136954067Y-67544699D01*
X136787314Y-67595283D01*
X136760909Y-67603293D01*
X136756043Y-67604769D01*
X136645897Y-67663643D01*
X136573550Y-67702315D01*
X136573548Y-67702316D01*
X136573547Y-67702317D01*
X136413589Y-67833589D01*
X136282317Y-67993547D01*
X136184769Y-68176043D01*
X136124699Y-68374067D01*
X136104417Y-68579999D01*
X135314500Y-68579999D01*
X135314500Y-62054843D01*
X135314889Y-62047904D01*
X135319165Y-62009959D01*
X135308556Y-61953894D01*
X135308177Y-61951655D01*
X135305702Y-61935232D01*
X135299685Y-61895309D01*
X135299684Y-61895306D01*
X135297231Y-61887353D01*
X135294479Y-61879490D01*
X135294478Y-61879484D01*
X135267841Y-61829085D01*
X135266808Y-61827038D01*
X135238039Y-61767299D01*
X135240211Y-61766252D01*
X135225181Y-61726269D01*
X135224236Y-61718484D01*
X135205622Y-61565182D01*
X135149605Y-61417477D01*
X135059868Y-61287470D01*
X134941625Y-61182717D01*
X134941623Y-61182716D01*
X134941622Y-61182715D01*
X134801750Y-61109303D01*
X134648371Y-61071500D01*
X134648370Y-61071500D01*
X134593208Y-61071500D01*
X134526169Y-61051815D01*
X134505527Y-61035181D01*
X134334819Y-60864472D01*
X134301334Y-60803149D01*
X134298500Y-60776791D01*
X134298500Y-60163544D01*
X134318185Y-60096505D01*
X134370989Y-60050750D01*
X134440147Y-60040806D01*
X134503703Y-60069831D01*
X134510181Y-60075863D01*
X135607362Y-61173044D01*
X135623486Y-61192899D01*
X135628563Y-61200669D01*
X135654508Y-61220862D01*
X135660260Y-61225942D01*
X135662693Y-61228375D01*
X135679435Y-61240328D01*
X135681423Y-61241811D01*
X135705261Y-61260365D01*
X135720875Y-61272518D01*
X135727321Y-61276006D01*
X135733931Y-61279237D01*
X135733934Y-61279239D01*
X135781820Y-61293494D01*
X135784202Y-61294257D01*
X135831512Y-61310500D01*
X135831516Y-61310500D01*
X135838760Y-61311709D01*
X135846046Y-61312617D01*
X135895950Y-61310552D01*
X135898511Y-61310500D01*
X136081873Y-61310500D01*
X136148912Y-61330185D01*
X136191231Y-61376046D01*
X136282315Y-61546450D01*
X136316969Y-61588677D01*
X136413589Y-61706410D01*
X136476888Y-61758357D01*
X136573550Y-61837685D01*
X136756046Y-61935232D01*
X136828925Y-61957339D01*
X136887364Y-61995637D01*
X136915820Y-62059449D01*
X136905260Y-62128516D01*
X136859036Y-62180910D01*
X136792930Y-62200000D01*
X136312155Y-62200000D01*
X136252627Y-62206401D01*
X136252620Y-62206403D01*
X136117913Y-62256645D01*
X136117906Y-62256649D01*
X136002812Y-62342809D01*
X136002809Y-62342812D01*
X135916649Y-62457906D01*
X135916645Y-62457913D01*
X135866403Y-62592620D01*
X135866401Y-62592627D01*
X135860000Y-62652155D01*
X135860000Y-63250000D01*
X136726314Y-63250000D01*
X136700507Y-63290156D01*
X136660000Y-63428111D01*
X136660000Y-63571889D01*
X136700507Y-63709844D01*
X136726314Y-63750000D01*
X135860000Y-63750000D01*
X135860000Y-64347844D01*
X135866401Y-64407372D01*
X135866403Y-64407379D01*
X135916645Y-64542086D01*
X135916649Y-64542093D01*
X136002809Y-64657187D01*
X136002812Y-64657190D01*
X136117906Y-64743350D01*
X136117913Y-64743354D01*
X136252620Y-64793596D01*
X136252627Y-64793598D01*
X136312155Y-64799999D01*
X136312172Y-64800000D01*
X136792930Y-64800000D01*
X136859969Y-64819685D01*
X136905724Y-64872489D01*
X136915668Y-64941647D01*
X136886643Y-65005203D01*
X136828925Y-65042660D01*
X136756046Y-65064768D01*
X136756043Y-65064769D01*
X136645898Y-65123643D01*
X136573550Y-65162315D01*
X136573548Y-65162316D01*
X136573547Y-65162317D01*
X136413589Y-65293589D01*
X136282317Y-65453547D01*
X136184769Y-65636043D01*
X136124699Y-65834067D01*
X136104417Y-66040000D01*
X136124699Y-66245932D01*
X136132479Y-66271578D01*
X136184768Y-66443954D01*
X136282315Y-66626450D01*
X136282317Y-66626452D01*
X136413589Y-66786410D01*
X136461504Y-66825732D01*
X136573550Y-66917685D01*
X136756046Y-67015232D01*
X136954066Y-67075300D01*
X136954065Y-67075300D01*
X136960848Y-67075968D01*
X137160000Y-67095583D01*
X137365934Y-67075300D01*
X137563954Y-67015232D01*
X137746450Y-66917685D01*
X137906410Y-66786410D01*
X138037685Y-66626450D01*
X138135232Y-66443954D01*
X138195300Y-66245934D01*
X138215583Y-66040000D01*
X138195300Y-65834066D01*
X138135232Y-65636046D01*
X138037685Y-65453550D01*
X137953909Y-65351468D01*
X137906410Y-65293589D01*
X137788677Y-65196969D01*
X137746450Y-65162315D01*
X137563954Y-65064768D01*
X137491074Y-65042660D01*
X137432636Y-65004363D01*
X137404180Y-64940551D01*
X137414740Y-64871484D01*
X137460964Y-64819090D01*
X137527070Y-64800000D01*
X138007828Y-64800000D01*
X138007844Y-64799999D01*
X138067372Y-64793598D01*
X138067379Y-64793596D01*
X138202086Y-64743354D01*
X138202093Y-64743350D01*
X138317187Y-64657190D01*
X138317190Y-64657187D01*
X138403350Y-64542093D01*
X138403354Y-64542086D01*
X138453596Y-64407379D01*
X138453598Y-64407372D01*
X138459999Y-64347844D01*
X138460000Y-64347827D01*
X138460000Y-63750000D01*
X137593686Y-63750000D01*
X137619493Y-63709844D01*
X137660000Y-63571889D01*
X137660000Y-63428111D01*
X137619493Y-63290156D01*
X137593686Y-63250000D01*
X138460000Y-63250000D01*
X138460000Y-62652172D01*
X138459999Y-62652155D01*
X138453598Y-62592627D01*
X138453596Y-62592620D01*
X138403354Y-62457913D01*
X138403350Y-62457906D01*
X138317190Y-62342812D01*
X138317187Y-62342809D01*
X138202093Y-62256649D01*
X138202086Y-62256645D01*
X138067379Y-62206403D01*
X138067372Y-62206401D01*
X138007844Y-62200000D01*
X137527070Y-62200000D01*
X137460031Y-62180315D01*
X137414276Y-62127511D01*
X137404332Y-62058353D01*
X137433357Y-61994797D01*
X137491074Y-61957339D01*
X137563954Y-61935232D01*
X137746450Y-61837685D01*
X137906410Y-61706410D01*
X138037685Y-61546450D01*
X138135232Y-61363954D01*
X138195300Y-61165934D01*
X138215583Y-60960000D01*
X138195300Y-60754066D01*
X138135232Y-60556046D01*
X138037685Y-60373550D01*
X137985702Y-60310209D01*
X137906410Y-60213589D01*
X137786048Y-60114812D01*
X137746450Y-60082315D01*
X137563954Y-59984768D01*
X137365934Y-59924700D01*
X137365932Y-59924699D01*
X137365934Y-59924699D01*
X137160000Y-59904417D01*
X136954067Y-59924699D01*
X136815470Y-59966742D01*
X136760909Y-59983293D01*
X136756043Y-59984769D01*
X136651207Y-60040806D01*
X136573550Y-60082315D01*
X136573548Y-60082316D01*
X136573547Y-60082317D01*
X136413589Y-60213589D01*
X136282317Y-60373547D01*
X136282315Y-60373550D01*
X136239482Y-60453683D01*
X136192858Y-60540910D01*
X136143895Y-60590754D01*
X136075757Y-60606214D01*
X136010078Y-60582382D01*
X135995819Y-60570137D01*
X135453747Y-60028065D01*
X135420262Y-59966742D01*
X135425246Y-59897050D01*
X135467118Y-59841117D01*
X135511754Y-59819987D01*
X135614365Y-59794696D01*
X135628950Y-59787041D01*
X135754240Y-59721283D01*
X135872483Y-59616530D01*
X135962220Y-59486523D01*
X136018237Y-59338818D01*
X136037278Y-59182000D01*
X136018237Y-59025182D01*
X136018235Y-59025179D01*
X136017530Y-59019365D01*
X136028990Y-58950441D01*
X136075894Y-58898655D01*
X136143350Y-58880448D01*
X136209941Y-58901600D01*
X136249983Y-58945963D01*
X136282315Y-59006451D01*
X136413589Y-59166410D01*
X136483379Y-59223684D01*
X136573550Y-59297685D01*
X136756046Y-59395232D01*
X136954066Y-59455300D01*
X136954065Y-59455300D01*
X136972529Y-59457118D01*
X137160000Y-59475583D01*
X137365934Y-59455300D01*
X137563954Y-59395232D01*
X137746450Y-59297685D01*
X137906410Y-59166410D01*
X138037685Y-59006450D01*
X138135232Y-58823954D01*
X138195300Y-58625934D01*
X138215583Y-58420000D01*
X138195300Y-58214066D01*
X138135232Y-58016046D01*
X138037685Y-57833550D01*
X137982919Y-57766817D01*
X137906410Y-57673589D01*
X137746452Y-57542317D01*
X137746453Y-57542317D01*
X137746450Y-57542315D01*
X137563954Y-57444768D01*
X137365934Y-57384700D01*
X137365932Y-57384699D01*
X137365934Y-57384699D01*
X137160000Y-57364417D01*
X136954067Y-57384699D01*
X136756043Y-57444769D01*
X136645898Y-57503643D01*
X136573550Y-57542315D01*
X136573548Y-57542316D01*
X136573547Y-57542317D01*
X136413589Y-57673589D01*
X136282317Y-57833547D01*
X136282315Y-57833550D01*
X136248669Y-57896497D01*
X136184769Y-58016043D01*
X136184768Y-58016045D01*
X136184768Y-58016046D01*
X136183511Y-58020190D01*
X136124699Y-58214067D01*
X136104417Y-58420000D01*
X136124699Y-58625932D01*
X136157574Y-58734306D01*
X136158197Y-58804173D01*
X136120949Y-58863286D01*
X136057654Y-58892877D01*
X135988410Y-58883550D01*
X135936863Y-58840741D01*
X135872483Y-58747470D01*
X135774272Y-58660463D01*
X135737147Y-58601276D01*
X135732500Y-58567649D01*
X135732500Y-55879999D01*
X136104417Y-55879999D01*
X136124699Y-56085932D01*
X136138201Y-56130443D01*
X136184768Y-56283954D01*
X136282315Y-56466450D01*
X136300705Y-56488858D01*
X136413589Y-56626410D01*
X136470158Y-56672834D01*
X136573550Y-56757685D01*
X136756046Y-56855232D01*
X136954066Y-56915300D01*
X136954065Y-56915300D01*
X136972529Y-56917118D01*
X137160000Y-56935583D01*
X137365934Y-56915300D01*
X137563954Y-56855232D01*
X137746450Y-56757685D01*
X137906410Y-56626410D01*
X138037685Y-56466450D01*
X138135232Y-56283954D01*
X138195300Y-56085934D01*
X138215583Y-55880000D01*
X138195300Y-55674066D01*
X138135232Y-55476046D01*
X138037685Y-55293550D01*
X137927966Y-55159856D01*
X137906410Y-55133589D01*
X137788677Y-55036969D01*
X137746450Y-55002315D01*
X137563954Y-54904768D01*
X137365934Y-54844700D01*
X137365932Y-54844699D01*
X137365934Y-54844699D01*
X137160000Y-54824417D01*
X136954067Y-54844699D01*
X136756043Y-54904769D01*
X136649102Y-54961931D01*
X136573550Y-55002315D01*
X136573548Y-55002316D01*
X136573547Y-55002317D01*
X136413589Y-55133589D01*
X136282317Y-55293547D01*
X136184769Y-55476043D01*
X136124699Y-55674067D01*
X136104417Y-55879999D01*
X135732500Y-55879999D01*
X135732500Y-55314543D01*
X135752185Y-55247504D01*
X135768815Y-55226866D01*
X136645491Y-54350189D01*
X136706812Y-54316706D01*
X136769162Y-54319210D01*
X136954066Y-54375300D01*
X136954065Y-54375300D01*
X136972529Y-54377118D01*
X137160000Y-54395583D01*
X137365934Y-54375300D01*
X137563954Y-54315232D01*
X137746450Y-54217685D01*
X137906410Y-54086410D01*
X138037685Y-53926450D01*
X138135232Y-53743954D01*
X138195300Y-53545934D01*
X138215583Y-53340000D01*
X138195300Y-53134066D01*
X138135232Y-52936046D01*
X138037685Y-52753550D01*
X137976998Y-52679602D01*
X137906410Y-52593589D01*
X137746452Y-52462317D01*
X137746453Y-52462317D01*
X137746450Y-52462315D01*
X137563954Y-52364768D01*
X137365934Y-52304700D01*
X137365932Y-52304699D01*
X137365934Y-52304699D01*
X137160000Y-52284417D01*
X136954067Y-52304699D01*
X136756043Y-52364769D01*
X136685513Y-52402469D01*
X136573550Y-52462315D01*
X136573548Y-52462316D01*
X136573547Y-52462317D01*
X136413589Y-52593589D01*
X136282317Y-52753547D01*
X136184769Y-52936043D01*
X136124699Y-53134067D01*
X136104417Y-53340000D01*
X136124699Y-53545932D01*
X136180788Y-53730833D01*
X136181411Y-53800700D01*
X136149808Y-53854509D01*
X135168955Y-54835361D01*
X135149106Y-54851482D01*
X135141331Y-54856562D01*
X135121143Y-54882498D01*
X135116067Y-54888248D01*
X135113634Y-54890681D01*
X135113624Y-54890694D01*
X135101695Y-54907401D01*
X135100164Y-54909453D01*
X135069483Y-54948872D01*
X135065975Y-54955353D01*
X135062761Y-54961931D01*
X135048506Y-55009809D01*
X135047725Y-55012246D01*
X135031499Y-55059512D01*
X135030294Y-55066733D01*
X135029382Y-55074046D01*
X135031447Y-55123948D01*
X135031500Y-55126510D01*
X135031500Y-56574456D01*
X135011815Y-56641495D01*
X134959011Y-56687250D01*
X134889853Y-56697194D01*
X134826297Y-56668169D01*
X134819819Y-56662137D01*
X134030689Y-55873007D01*
X133997204Y-55811684D01*
X133995274Y-55770384D01*
X134005278Y-55688000D01*
X133986237Y-55531182D01*
X133930220Y-55383477D01*
X133840483Y-55253470D01*
X133722240Y-55148717D01*
X133722238Y-55148716D01*
X133722237Y-55148715D01*
X133582365Y-55075303D01*
X133428986Y-55037500D01*
X133428985Y-55037500D01*
X133278979Y-55037500D01*
X133211940Y-55017815D01*
X133166185Y-54965011D01*
X133155883Y-54928445D01*
X133154187Y-54914476D01*
X133127724Y-54844699D01*
X133098170Y-54766772D01*
X133008433Y-54636765D01*
X132890190Y-54532012D01*
X132887199Y-54530442D01*
X132844479Y-54508020D01*
X132794267Y-54459434D01*
X132778293Y-54391415D01*
X132801629Y-54325558D01*
X132819883Y-54305405D01*
X132824483Y-54301331D01*
X132914220Y-54171324D01*
X132970237Y-54023619D01*
X132989278Y-53866801D01*
X132987786Y-53854509D01*
X132970237Y-53709982D01*
X132938115Y-53625284D01*
X132914220Y-53562278D01*
X132824483Y-53432271D01*
X132706240Y-53327518D01*
X132706238Y-53327517D01*
X132706237Y-53327516D01*
X132566365Y-53254104D01*
X132412986Y-53216301D01*
X132412985Y-53216301D01*
X132255015Y-53216301D01*
X132255014Y-53216301D01*
X132101634Y-53254104D01*
X131961762Y-53327516D01*
X131935579Y-53350712D01*
X131890642Y-53390523D01*
X131874727Y-53404622D01*
X131811493Y-53434343D01*
X131742230Y-53425159D01*
X131688927Y-53379987D01*
X131668507Y-53313167D01*
X131668500Y-53311806D01*
X131668500Y-53229737D01*
X131671139Y-53204290D01*
X131673043Y-53195211D01*
X131671270Y-53180989D01*
X131668977Y-53162587D01*
X131668500Y-53154911D01*
X131668500Y-53151488D01*
X131668500Y-53151486D01*
X131665120Y-53131240D01*
X131664753Y-53128714D01*
X131659429Y-53086000D01*
X131658573Y-53079134D01*
X131658570Y-53079129D01*
X131656477Y-53072098D01*
X131654093Y-53065154D01*
X131654092Y-53065145D01*
X131630312Y-53021204D01*
X131629139Y-53018924D01*
X131607199Y-52974044D01*
X131602928Y-52968064D01*
X131598420Y-52962273D01*
X131598418Y-52962268D01*
X131580564Y-52945832D01*
X131561645Y-52928415D01*
X131559796Y-52926641D01*
X130300426Y-51667271D01*
X130266941Y-51605948D01*
X130265011Y-51564647D01*
X130275015Y-51482263D01*
X130255974Y-51325445D01*
X130199957Y-51177740D01*
X130110220Y-51047733D01*
X129991977Y-50942980D01*
X129991975Y-50942979D01*
X129991974Y-50942978D01*
X129852102Y-50869566D01*
X129698723Y-50831763D01*
X129698722Y-50831763D01*
X129540752Y-50831763D01*
X129540751Y-50831763D01*
X129387371Y-50869566D01*
X129247499Y-50942978D01*
X129129253Y-51047734D01*
X129039518Y-51177738D01*
X129039517Y-51177739D01*
X128983499Y-51325444D01*
X128964459Y-51482262D01*
X128964459Y-51482263D01*
X128983499Y-51639081D01*
X129024431Y-51747007D01*
X129039517Y-51786786D01*
X129129254Y-51916793D01*
X129247497Y-52021546D01*
X129259597Y-52027896D01*
X129387371Y-52094959D01*
X129540751Y-52132763D01*
X129540752Y-52132763D01*
X129698723Y-52132763D01*
X129706168Y-52131859D01*
X129706574Y-52135204D01*
X129761196Y-52137484D01*
X129809012Y-52167220D01*
X130931181Y-53289389D01*
X130964666Y-53350712D01*
X130967500Y-53377070D01*
X130967500Y-53378200D01*
X130947815Y-53445239D01*
X130895011Y-53490994D01*
X130825853Y-53500938D01*
X130795677Y-53491170D01*
X130795377Y-53491963D01*
X130788365Y-53489303D01*
X130634986Y-53451500D01*
X130634985Y-53451500D01*
X130477015Y-53451500D01*
X130477014Y-53451500D01*
X130323634Y-53489303D01*
X130183762Y-53562715D01*
X130065516Y-53667471D01*
X129975781Y-53797475D01*
X129975780Y-53797476D01*
X129919762Y-53945181D01*
X129900721Y-54101999D01*
X129900721Y-54102000D01*
X129919762Y-54258818D01*
X129968406Y-54387080D01*
X129975780Y-54406523D01*
X130065517Y-54536530D01*
X130183760Y-54641283D01*
X130323635Y-54714696D01*
X130375646Y-54727515D01*
X130436027Y-54762670D01*
X130467816Y-54824890D01*
X130469972Y-54847912D01*
X130469971Y-56154933D01*
X130450286Y-56221973D01*
X130433652Y-56242614D01*
X129580955Y-57095311D01*
X129561106Y-57111432D01*
X129553331Y-57116512D01*
X129533143Y-57142448D01*
X129528067Y-57148198D01*
X129525634Y-57150631D01*
X129525623Y-57150645D01*
X129513692Y-57167354D01*
X129512157Y-57169413D01*
X129508967Y-57173511D01*
X129452251Y-57214317D01*
X129382478Y-57217982D01*
X129321799Y-57183343D01*
X129289480Y-57121398D01*
X129287123Y-57097344D01*
X129287123Y-52674854D01*
X129287513Y-52667906D01*
X129289366Y-52651471D01*
X129291789Y-52629967D01*
X129281184Y-52573926D01*
X129280799Y-52571652D01*
X129277041Y-52546717D01*
X129272309Y-52515318D01*
X129272307Y-52515314D01*
X129269852Y-52507354D01*
X129267103Y-52499499D01*
X129267102Y-52499493D01*
X129240465Y-52449094D01*
X129239432Y-52447047D01*
X129214692Y-52395674D01*
X129210027Y-52388831D01*
X129205052Y-52382091D01*
X129187729Y-52364768D01*
X129164745Y-52341784D01*
X129163163Y-52340141D01*
X129124374Y-52298337D01*
X129117106Y-52292541D01*
X129117641Y-52291869D01*
X129105550Y-52282589D01*
X128093443Y-51270482D01*
X128088806Y-51265294D01*
X128082572Y-51257477D01*
X128065001Y-51235443D01*
X128065000Y-51235442D01*
X128064999Y-51235441D01*
X128017893Y-51203324D01*
X128016003Y-51201983D01*
X127983151Y-51177738D01*
X127970157Y-51168148D01*
X127970155Y-51168147D01*
X127962794Y-51164256D01*
X127955284Y-51160639D01*
X127900818Y-51143839D01*
X127898615Y-51143114D01*
X127844819Y-51124289D01*
X127836640Y-51122741D01*
X127828399Y-51121500D01*
X127828395Y-51121500D01*
X127771404Y-51121500D01*
X127769122Y-51121457D01*
X127745061Y-51120557D01*
X127712122Y-51119324D01*
X127702890Y-51120365D01*
X127702793Y-51119510D01*
X127687680Y-51121500D01*
X126768771Y-51121500D01*
X126701732Y-51101815D01*
X126686544Y-51090316D01*
X126610240Y-51022717D01*
X126610238Y-51022716D01*
X126610237Y-51022715D01*
X126470365Y-50949303D01*
X126316986Y-50911500D01*
X126316985Y-50911500D01*
X126159015Y-50911500D01*
X126159014Y-50911500D01*
X126026267Y-50944218D01*
X125956465Y-50941148D01*
X125899403Y-50900828D01*
X125873198Y-50836059D01*
X125873497Y-50808874D01*
X125880663Y-50749860D01*
X125861622Y-50593042D01*
X125805605Y-50445337D01*
X125715868Y-50315330D01*
X125597625Y-50210577D01*
X125597623Y-50210576D01*
X125597622Y-50210575D01*
X125457750Y-50137163D01*
X125304371Y-50099360D01*
X125304370Y-50099360D01*
X125146400Y-50099360D01*
X125146399Y-50099360D01*
X124993019Y-50137163D01*
X124853147Y-50210575D01*
X124734901Y-50315331D01*
X124645166Y-50445335D01*
X124645165Y-50445336D01*
X124589147Y-50593041D01*
X124570107Y-50749859D01*
X124570107Y-50749860D01*
X117698500Y-50749860D01*
X117698500Y-49382350D01*
X117718185Y-49315311D01*
X117740271Y-49289536D01*
X117838483Y-49202530D01*
X117928220Y-49072523D01*
X117984237Y-48924818D01*
X118003278Y-48768000D01*
X118000960Y-48748905D01*
X117984237Y-48611181D01*
X117950142Y-48521280D01*
X117928220Y-48463477D01*
X117838483Y-48333470D01*
X117720240Y-48228717D01*
X117720238Y-48228716D01*
X117720237Y-48228715D01*
X117580366Y-48155304D01*
X117438413Y-48120316D01*
X117378032Y-48085160D01*
X117346244Y-48022940D01*
X117353140Y-47953412D01*
X117396531Y-47898649D01*
X117462638Y-47876039D01*
X117471233Y-47875664D01*
X117473658Y-47875559D01*
X117476356Y-47875500D01*
X117519170Y-47875500D01*
X133940830Y-47875500D01*
X133983647Y-47875500D01*
X133986351Y-47875559D01*
G37*
%TD.AperFunction*%
%TD*%
M02*
