%TF.GenerationSoftware,KiCad,Pcbnew,8.0.5*%
%TF.CreationDate,2024-09-17T11:48:52+02:00*%
%TF.ProjectId,PS2 Board,50533220-426f-4617-9264-2e6b69636164,rev?*%
%TF.SameCoordinates,PX292dfe0PY463f660*%
%TF.FileFunction,Soldermask,Bot*%
%TF.FilePolarity,Negative*%
%FSLAX46Y46*%
G04 Gerber Fmt 4.6, Leading zero omitted, Abs format (unit mm)*
G04 Created by KiCad (PCBNEW 8.0.5) date 2024-09-17 11:48:52*
%MOMM*%
%LPD*%
G01*
G04 APERTURE LIST*
%ADD10C,1.500000*%
%ADD11R,1.500000X1.500000*%
%ADD12C,5.600000*%
%ADD13C,1.200000*%
%ADD14R,1.200000X1.200000*%
%ADD15C,3.700000*%
%ADD16C,1.700000*%
%ADD17R,1.780000X8.620000*%
G04 APERTURE END LIST*
D10*
%TO.C,C4*%
X6890000Y-60960000D03*
D11*
X8890000Y-60960000D03*
%TD*%
D12*
%TO.C,H10*%
X0Y-69215000D03*
%TD*%
D10*
%TO.C,B16*%
X25400000Y-43180000D03*
X27940000Y-43180000D03*
X30480000Y-43180000D03*
X33020000Y-43180000D03*
X35560000Y-43180000D03*
X38100000Y-43180000D03*
X40640000Y-43180000D03*
X43180000Y-43180000D03*
X45720000Y-43180000D03*
X48260000Y-43180000D03*
X50800000Y-43180000D03*
X53340000Y-43180000D03*
X55880000Y-43180000D03*
X58420000Y-43180000D03*
X60960000Y-43180000D03*
X63500000Y-43180000D03*
X66040000Y-43180000D03*
X68580000Y-43180000D03*
X71120000Y-43180000D03*
X73660000Y-43180000D03*
X76200000Y-43180000D03*
X78740000Y-43180000D03*
X81280000Y-43180000D03*
X83820000Y-43180000D03*
X86360000Y-43180000D03*
X88900000Y-43180000D03*
X91440000Y-43180000D03*
X93980000Y-43180000D03*
X96520000Y-43180000D03*
X99060000Y-43180000D03*
X101600000Y-43180000D03*
X104140000Y-43180000D03*
X104140000Y-58420000D03*
X101600000Y-58420000D03*
X99060000Y-58420000D03*
X96520000Y-58420000D03*
X93980000Y-58420000D03*
X91440000Y-58420000D03*
X88900000Y-58420000D03*
X86360000Y-58420000D03*
X83820000Y-58420000D03*
X81280000Y-58420000D03*
X78740000Y-58420000D03*
X76200000Y-58420000D03*
X73660000Y-58420000D03*
X71120000Y-58420000D03*
X68580000Y-58420000D03*
X66040000Y-58420000D03*
X63500000Y-58420000D03*
X60960000Y-58420000D03*
X58420000Y-58420000D03*
X55880000Y-58420000D03*
X53340000Y-58420000D03*
X50800000Y-58420000D03*
X48260000Y-58420000D03*
X45720000Y-58420000D03*
X43180000Y-58420000D03*
X40640000Y-58420000D03*
X38100000Y-58420000D03*
X35560000Y-58420000D03*
X33020000Y-58420000D03*
X30480000Y-58420000D03*
X27940000Y-58420000D03*
X25400000Y-58420000D03*
%TD*%
%TO.C,LED1*%
X-1270000Y-62230000D03*
D11*
X1270000Y-62230000D03*
%TD*%
D10*
%TO.C,B4*%
X147320000Y-58420000D03*
X144780000Y-58420000D03*
X142240000Y-58420000D03*
X139700000Y-58420000D03*
X137160000Y-58420000D03*
X134620000Y-58420000D03*
X132080000Y-58420000D03*
X129540000Y-58420000D03*
X127000000Y-58420000D03*
X124460000Y-58420000D03*
X121920000Y-58420000D03*
X119380000Y-58420000D03*
X119380001Y-43180000D03*
X121920000Y-43180000D03*
X124460000Y-43180000D03*
X127000000Y-43180000D03*
X129539999Y-43180000D03*
X132080000Y-43180000D03*
X134620000Y-43180000D03*
X137160000Y-43180000D03*
X139700000Y-43180000D03*
X142240001Y-43180000D03*
X144780000Y-43180000D03*
X147320000Y-43180000D03*
%TD*%
D13*
%TO.C,IC1*%
X7620000Y-50800000D03*
X5080000Y-48260000D03*
X5080000Y-50800000D03*
X2540000Y-48260000D03*
X5080000Y-45720000D03*
X2540000Y-45720000D03*
X5080000Y-43180000D03*
X2540000Y-43180000D03*
X5080000Y-40640000D03*
X2540000Y-40640000D03*
X5080000Y-38100000D03*
X2540000Y-38100000D03*
X5080000Y-35560000D03*
X7620000Y-38100000D03*
X7620000Y-35560000D03*
X10160000Y-38100000D03*
X10160000Y-35560000D03*
X12700000Y-38100000D03*
X12700000Y-35560000D03*
X15240000Y-38100000D03*
X12700000Y-40640000D03*
X15240000Y-40640000D03*
X12700000Y-43180000D03*
X15240000Y-43180000D03*
X12700000Y-45720000D03*
X15240000Y-45720000D03*
X12700000Y-48260000D03*
X15240000Y-48260000D03*
X12700000Y-50800000D03*
X10160000Y-48260000D03*
X10160000Y-50800000D03*
D14*
X7620000Y-48260000D03*
%TD*%
D10*
%TO.C,B11*%
X83820000Y2540000D03*
X83820000Y0D03*
X83820000Y-2540000D03*
X83820000Y-5080000D03*
X83820000Y-7620000D03*
X83820000Y-10160000D03*
X83820000Y-12700000D03*
X83820000Y-15240000D03*
X83820000Y-17780000D03*
X83820000Y-20320000D03*
X83820000Y-22860000D03*
X83820000Y-25400000D03*
X83820000Y-27940000D03*
X83820000Y-30480000D03*
X83820000Y-33020000D03*
X83820000Y-35560000D03*
X68580000Y-35560000D03*
X68580000Y-33020000D03*
X68580000Y-30480000D03*
X68580000Y-27940000D03*
X68580000Y-25400000D03*
X68580000Y-22860000D03*
X68580000Y-20320000D03*
X68580000Y-17780000D03*
X68580000Y-15240000D03*
X68580000Y-12700000D03*
X68580000Y-10160000D03*
X68580000Y-7620000D03*
X68580000Y-5080000D03*
X68580000Y-2540000D03*
X68580000Y0D03*
X68580000Y2540000D03*
%TD*%
%TO.C,C3*%
X14700000Y-60960000D03*
D11*
X12700000Y-60960000D03*
%TD*%
D10*
%TO.C,B1*%
X63500000Y2540000D03*
X63500000Y0D03*
X63500000Y-2540000D03*
X63500000Y-5080000D03*
X63500000Y-7620000D03*
X63500000Y-10160000D03*
X63500000Y-12700000D03*
X63500000Y-15240000D03*
X63500000Y-17780000D03*
X63500000Y-20320000D03*
X63500000Y-22860000D03*
X63500000Y-25400000D03*
X63500000Y-27940000D03*
X63500000Y-30480000D03*
X63500000Y-33020000D03*
X63500000Y-35560000D03*
X48260000Y-35560000D03*
X48260000Y-33020000D03*
X48260000Y-30480000D03*
X48260000Y-27940000D03*
X48260000Y-25400000D03*
X48260000Y-22860000D03*
X48260000Y-20320000D03*
X48260000Y-17780000D03*
X48260000Y-15240000D03*
X48260000Y-12700000D03*
X48260000Y-10160000D03*
X48260000Y-7620000D03*
X48260000Y-5080000D03*
X48260000Y-2540000D03*
X48260000Y0D03*
X48260000Y2540000D03*
%TD*%
%TO.C,B5*%
X144780000Y2540000D03*
X144780000Y0D03*
X144780000Y-2540000D03*
X144780000Y-5080000D03*
X144780000Y-7620000D03*
X144780000Y-10160000D03*
X144780000Y-12700000D03*
X144780000Y-15240000D03*
X144780000Y-17780000D03*
X144780000Y-20320000D03*
X144780000Y-22860000D03*
X144780000Y-25400000D03*
X144780000Y-27940000D03*
X144780000Y-30480000D03*
X144780000Y-33020000D03*
X144780000Y-35560000D03*
X129540000Y-35560000D03*
X129540000Y-33020000D03*
X129540000Y-30480000D03*
X129540000Y-27940000D03*
X129540000Y-25400000D03*
X129540000Y-22860000D03*
X129540000Y-20320000D03*
X129540000Y-17780000D03*
X129540000Y-15240000D03*
X129540000Y-12700000D03*
X129540000Y-10160000D03*
X129540000Y-7620000D03*
X129540000Y-5080000D03*
X129540000Y-2540000D03*
X129540000Y0D03*
X129540000Y2540000D03*
%TD*%
D12*
%TO.C,H7*%
X0Y0D03*
%TD*%
D10*
%TO.C,B7*%
X457200Y-5734000D03*
X2997200Y-5734000D03*
X5537200Y-5734000D03*
X8077200Y-5734000D03*
X10617200Y-5734000D03*
X13157200Y-5734000D03*
X15697200Y-5734000D03*
X18237200Y-5734000D03*
X20777200Y-5734000D03*
X23317200Y-5734000D03*
X25857200Y-5734000D03*
X28397200Y-5734000D03*
X30937200Y-5734000D03*
X33477200Y-5734000D03*
X36017200Y-5734000D03*
X38557200Y-5734000D03*
X38557200Y-28594000D03*
X36017200Y-28594000D03*
X33477200Y-28594000D03*
X30937200Y-28594000D03*
X28397200Y-28594000D03*
X25857200Y-28594000D03*
X23317200Y-28594000D03*
X20777200Y-28594000D03*
X18237200Y-28594000D03*
X15697200Y-28594000D03*
X13157200Y-28594000D03*
X10617200Y-28594000D03*
X8077200Y-28594000D03*
X5537200Y-28594000D03*
X2997200Y-28594000D03*
X457200Y-28594000D03*
D15*
X800000Y-10160000D03*
D16*
X6300000Y-13510000D03*
X3800000Y-13510000D03*
X3800000Y-15610000D03*
D15*
X0Y-16910000D03*
D16*
X3800000Y-18210000D03*
X6300000Y-20310000D03*
X3800000Y-20310000D03*
D15*
X800000Y-23660000D03*
%TD*%
D10*
%TO.C,B3*%
X106680000Y31750000D03*
X109220000Y31750000D03*
X111760000Y31750000D03*
X114300000Y31750000D03*
X116840000Y31750000D03*
X119380000Y31750000D03*
X121920000Y31750000D03*
X124460000Y31750000D03*
X127000000Y31750000D03*
X129540000Y31750000D03*
X132080000Y31750000D03*
X134620000Y31750000D03*
X137160000Y31750000D03*
X139700000Y31750000D03*
X142240000Y31750000D03*
X144780000Y31750000D03*
X144780000Y8890000D03*
X142240000Y8890000D03*
X139700000Y8890000D03*
X137160000Y8890000D03*
X134620000Y8890000D03*
X132080000Y8890000D03*
X129540000Y8890000D03*
X127000000Y8890000D03*
X124460000Y8890000D03*
X121920000Y8890000D03*
X119380000Y8890000D03*
X116840000Y8890000D03*
X114300000Y8890000D03*
X111760000Y8890000D03*
X109220000Y8890000D03*
X106680000Y8890000D03*
%TD*%
D17*
%TO.C,J1*%
X153619200Y-69850000D03*
X151079200Y-69850000D03*
X148539200Y-69850000D03*
X145999200Y-69850000D03*
X143459200Y-69850000D03*
X140919200Y-69850000D03*
X138379200Y-69850000D03*
X135839200Y-69850000D03*
X133299200Y-69850000D03*
X130759200Y-69850000D03*
X128219200Y-69850000D03*
X125679200Y-69850000D03*
X123139200Y-69850000D03*
X120599200Y-69850000D03*
X118059200Y-69850000D03*
X115519200Y-69850000D03*
X112979200Y-69850000D03*
X110439200Y-69850000D03*
X100279200Y-69850000D03*
X97739200Y-69850000D03*
X95199200Y-69850000D03*
X92659200Y-69850000D03*
X90119200Y-69850000D03*
X87579200Y-69850000D03*
X85039200Y-69850000D03*
X82499200Y-69850000D03*
X79959200Y-69850000D03*
X77419200Y-69850000D03*
X74879200Y-69850000D03*
X72339200Y-69850000D03*
X69799200Y-69850000D03*
X67259200Y-69850000D03*
X64719200Y-69850000D03*
X62179200Y-69850000D03*
X59639200Y-69850000D03*
X57099200Y-69850000D03*
X54559200Y-69850000D03*
X52019200Y-69850000D03*
X49479200Y-69850000D03*
X46939200Y-69850000D03*
X44399200Y-69850000D03*
X41859200Y-69850000D03*
X39319200Y-69850000D03*
X36779200Y-69850000D03*
X34239200Y-69850000D03*
X31699200Y-69850000D03*
X29159200Y-69850000D03*
X26619200Y-69850000D03*
X24079200Y-69850000D03*
%TD*%
D10*
%TO.C,B2*%
X457200Y28556000D03*
X2997200Y28556000D03*
X5537200Y28556000D03*
X8077200Y28556000D03*
X10617200Y28556000D03*
X13157200Y28556000D03*
X15697200Y28556000D03*
X18237200Y28556000D03*
X20777200Y28556000D03*
X23317200Y28556000D03*
X25857200Y28556000D03*
X28397200Y28556000D03*
X30937200Y28556000D03*
X33477200Y28556000D03*
X36017200Y28556000D03*
X38557200Y28556000D03*
X38557200Y5696000D03*
X36017200Y5696000D03*
X33477200Y5696000D03*
X30937200Y5696000D03*
X28397200Y5696000D03*
X25857200Y5696000D03*
X23317200Y5696000D03*
X20777200Y5696000D03*
X18237200Y5696000D03*
X15697200Y5696000D03*
X13157200Y5696000D03*
X10617200Y5696000D03*
X8077200Y5696000D03*
X5537200Y5696000D03*
X2997200Y5696000D03*
X457200Y5696000D03*
D15*
X800000Y24130000D03*
D16*
X6300000Y20780000D03*
X3800000Y20780000D03*
X3800000Y18680000D03*
D15*
X0Y17380000D03*
D16*
X3800000Y16080000D03*
X6300000Y13980000D03*
X3800000Y13980000D03*
D15*
X800000Y10630000D03*
%TD*%
D10*
%TO.C,B12*%
X104140000Y2540000D03*
X104140000Y0D03*
X104140000Y-2540000D03*
X104140000Y-5080000D03*
X104140000Y-7620000D03*
X104140000Y-10160000D03*
X104140000Y-12700000D03*
X104140000Y-15240000D03*
X104140000Y-17780000D03*
X104140000Y-20320000D03*
X104140000Y-22860000D03*
X104140000Y-25400000D03*
X104140000Y-27940000D03*
X104140000Y-30480000D03*
X104140000Y-33020000D03*
X104140000Y-35560000D03*
X88900000Y-35560000D03*
X88900000Y-33020000D03*
X88900000Y-30480000D03*
X88900000Y-27940000D03*
X88900000Y-25400000D03*
X88900000Y-22860000D03*
X88900000Y-20320000D03*
X88900000Y-17780000D03*
X88900000Y-15240000D03*
X88900000Y-12700000D03*
X88900000Y-10160000D03*
X88900000Y-7620000D03*
X88900000Y-5080000D03*
X88900000Y-2540000D03*
X88900000Y0D03*
X88900000Y2540000D03*
%TD*%
%TO.C,B9*%
X124460000Y2540000D03*
X124460000Y0D03*
X124460000Y-2540000D03*
X124460000Y-5080000D03*
X124460000Y-7620000D03*
X124460000Y-10160000D03*
X124460000Y-12700000D03*
X124460000Y-15240000D03*
X124460000Y-17780000D03*
X124460000Y-20320000D03*
X124460000Y-22860000D03*
X124460000Y-25400000D03*
X124460000Y-27940000D03*
X124460000Y-30480000D03*
X124460000Y-33020000D03*
X124460000Y-35560000D03*
X109220000Y-35560000D03*
X109220000Y-33020000D03*
X109220000Y-30480000D03*
X109220000Y-27940000D03*
X109220000Y-25400000D03*
X109220000Y-22860000D03*
X109220000Y-20320000D03*
X109220000Y-17780000D03*
X109220000Y-15240000D03*
X109220000Y-12700000D03*
X109220000Y-10160000D03*
X109220000Y-7620000D03*
X109220000Y-5080000D03*
X109220000Y-2540000D03*
X109220000Y0D03*
X109220000Y2540000D03*
%TD*%
%TO.C,B8*%
X53340000Y31750000D03*
X55880000Y31750000D03*
X58420000Y31750000D03*
X60960000Y31750000D03*
X63500000Y31750000D03*
X66040000Y31750000D03*
X68580000Y31750000D03*
X71120000Y31750000D03*
X73660000Y31750000D03*
X76200000Y31750000D03*
X78740000Y31750000D03*
X81280000Y31750000D03*
X83820000Y31750000D03*
X86360000Y31750000D03*
X88900000Y31750000D03*
X91440000Y31750000D03*
X91440000Y8890000D03*
X88900000Y8890000D03*
X86360000Y8890000D03*
X83820000Y8890000D03*
X81280000Y8890000D03*
X78740000Y8890000D03*
X76200000Y8890000D03*
X73660000Y8890000D03*
X71120000Y8890000D03*
X68580000Y8890000D03*
X66040000Y8890000D03*
X63500000Y8890000D03*
X60960000Y8890000D03*
X58420000Y8890000D03*
X55880000Y8890000D03*
X53340000Y8890000D03*
%TD*%
M02*
