%TF.GenerationSoftware,KiCad,Pcbnew,9.0.2*%
%TF.CreationDate,2025-07-03T20:54:59+02:00*%
%TF.ProjectId,Main Memory Enable,4d61696e-204d-4656-9d6f-727920456e61,V0*%
%TF.SameCoordinates,Original*%
%TF.FileFunction,Legend,Top*%
%TF.FilePolarity,Positive*%
%FSLAX46Y46*%
G04 Gerber Fmt 4.6, Leading zero omitted, Abs format (unit mm)*
G04 Created by KiCad (PCBNEW 9.0.2) date 2025-07-03 20:54:59*
%MOMM*%
%LPD*%
G01*
G04 APERTURE LIST*
%ADD10C,0.150000*%
%ADD11C,0.200000*%
%ADD12C,0.120000*%
%ADD13C,0.100000*%
G04 APERTURE END LIST*
D10*
X1265874Y-18065963D02*
X1265874Y-17430963D01*
X1265874Y-17430963D02*
X1477541Y-17884534D01*
X1477541Y-17884534D02*
X1689207Y-17430963D01*
X1689207Y-17430963D02*
X1689207Y-18065963D01*
X2263731Y-18065963D02*
X2263731Y-17733344D01*
X2263731Y-17733344D02*
X2233493Y-17672867D01*
X2233493Y-17672867D02*
X2173017Y-17642629D01*
X2173017Y-17642629D02*
X2052064Y-17642629D01*
X2052064Y-17642629D02*
X1991588Y-17672867D01*
X2263731Y-18035725D02*
X2203255Y-18065963D01*
X2203255Y-18065963D02*
X2052064Y-18065963D01*
X2052064Y-18065963D02*
X1991588Y-18035725D01*
X1991588Y-18035725D02*
X1961350Y-17975248D01*
X1961350Y-17975248D02*
X1961350Y-17914772D01*
X1961350Y-17914772D02*
X1991588Y-17854296D01*
X1991588Y-17854296D02*
X2052064Y-17824058D01*
X2052064Y-17824058D02*
X2203255Y-17824058D01*
X2203255Y-17824058D02*
X2263731Y-17793820D01*
X2566112Y-18065963D02*
X2566112Y-17642629D01*
X2566112Y-17430963D02*
X2535874Y-17461201D01*
X2535874Y-17461201D02*
X2566112Y-17491439D01*
X2566112Y-17491439D02*
X2596350Y-17461201D01*
X2596350Y-17461201D02*
X2566112Y-17430963D01*
X2566112Y-17430963D02*
X2566112Y-17491439D01*
X2868493Y-17642629D02*
X2868493Y-18065963D01*
X2868493Y-17703105D02*
X2898731Y-17672867D01*
X2898731Y-17672867D02*
X2959207Y-17642629D01*
X2959207Y-17642629D02*
X3049922Y-17642629D01*
X3049922Y-17642629D02*
X3110398Y-17672867D01*
X3110398Y-17672867D02*
X3140636Y-17733344D01*
X3140636Y-17733344D02*
X3140636Y-18065963D01*
X1178184Y-17254675D02*
X3228327Y-17254675D01*
X3382541Y-17430963D02*
X3775636Y-17430963D01*
X3775636Y-17430963D02*
X3563969Y-17672867D01*
X3563969Y-17672867D02*
X3654684Y-17672867D01*
X3654684Y-17672867D02*
X3715160Y-17703105D01*
X3715160Y-17703105D02*
X3745398Y-17733344D01*
X3745398Y-17733344D02*
X3775636Y-17793820D01*
X3775636Y-17793820D02*
X3775636Y-17945010D01*
X3775636Y-17945010D02*
X3745398Y-18005486D01*
X3745398Y-18005486D02*
X3715160Y-18035725D01*
X3715160Y-18035725D02*
X3654684Y-18065963D01*
X3654684Y-18065963D02*
X3473255Y-18065963D01*
X3473255Y-18065963D02*
X3412779Y-18035725D01*
X3412779Y-18035725D02*
X3382541Y-18005486D01*
X1265874Y-25685963D02*
X1265874Y-25050963D01*
X1265874Y-25050963D02*
X1477541Y-25504534D01*
X1477541Y-25504534D02*
X1689207Y-25050963D01*
X1689207Y-25050963D02*
X1689207Y-25685963D01*
X2263731Y-25685963D02*
X2263731Y-25353344D01*
X2263731Y-25353344D02*
X2233493Y-25292867D01*
X2233493Y-25292867D02*
X2173017Y-25262629D01*
X2173017Y-25262629D02*
X2052064Y-25262629D01*
X2052064Y-25262629D02*
X1991588Y-25292867D01*
X2263731Y-25655725D02*
X2203255Y-25685963D01*
X2203255Y-25685963D02*
X2052064Y-25685963D01*
X2052064Y-25685963D02*
X1991588Y-25655725D01*
X1991588Y-25655725D02*
X1961350Y-25595248D01*
X1961350Y-25595248D02*
X1961350Y-25534772D01*
X1961350Y-25534772D02*
X1991588Y-25474296D01*
X1991588Y-25474296D02*
X2052064Y-25444058D01*
X2052064Y-25444058D02*
X2203255Y-25444058D01*
X2203255Y-25444058D02*
X2263731Y-25413820D01*
X2566112Y-25685963D02*
X2566112Y-25262629D01*
X2566112Y-25050963D02*
X2535874Y-25081201D01*
X2535874Y-25081201D02*
X2566112Y-25111439D01*
X2566112Y-25111439D02*
X2596350Y-25081201D01*
X2596350Y-25081201D02*
X2566112Y-25050963D01*
X2566112Y-25050963D02*
X2566112Y-25111439D01*
X2868493Y-25262629D02*
X2868493Y-25685963D01*
X2868493Y-25323105D02*
X2898731Y-25292867D01*
X2898731Y-25292867D02*
X2959207Y-25262629D01*
X2959207Y-25262629D02*
X3049922Y-25262629D01*
X3049922Y-25262629D02*
X3110398Y-25292867D01*
X3110398Y-25292867D02*
X3140636Y-25353344D01*
X3140636Y-25353344D02*
X3140636Y-25685963D01*
X1178184Y-24874675D02*
X3228327Y-24874675D01*
X3715160Y-25050963D02*
X3594207Y-25050963D01*
X3594207Y-25050963D02*
X3533731Y-25081201D01*
X3533731Y-25081201D02*
X3503493Y-25111439D01*
X3503493Y-25111439D02*
X3443017Y-25202153D01*
X3443017Y-25202153D02*
X3412779Y-25323105D01*
X3412779Y-25323105D02*
X3412779Y-25565010D01*
X3412779Y-25565010D02*
X3443017Y-25625486D01*
X3443017Y-25625486D02*
X3473255Y-25655725D01*
X3473255Y-25655725D02*
X3533731Y-25685963D01*
X3533731Y-25685963D02*
X3654684Y-25685963D01*
X3654684Y-25685963D02*
X3715160Y-25655725D01*
X3715160Y-25655725D02*
X3745398Y-25625486D01*
X3745398Y-25625486D02*
X3775636Y-25565010D01*
X3775636Y-25565010D02*
X3775636Y-25413820D01*
X3775636Y-25413820D02*
X3745398Y-25353344D01*
X3745398Y-25353344D02*
X3715160Y-25323105D01*
X3715160Y-25323105D02*
X3654684Y-25292867D01*
X3654684Y-25292867D02*
X3533731Y-25292867D01*
X3533731Y-25292867D02*
X3473255Y-25323105D01*
X3473255Y-25323105D02*
X3443017Y-25353344D01*
X3443017Y-25353344D02*
X3412779Y-25413820D01*
X1265874Y-20605963D02*
X1265874Y-19970963D01*
X1265874Y-19970963D02*
X1477541Y-20424534D01*
X1477541Y-20424534D02*
X1689207Y-19970963D01*
X1689207Y-19970963D02*
X1689207Y-20605963D01*
X2263731Y-20605963D02*
X2263731Y-20273344D01*
X2263731Y-20273344D02*
X2233493Y-20212867D01*
X2233493Y-20212867D02*
X2173017Y-20182629D01*
X2173017Y-20182629D02*
X2052064Y-20182629D01*
X2052064Y-20182629D02*
X1991588Y-20212867D01*
X2263731Y-20575725D02*
X2203255Y-20605963D01*
X2203255Y-20605963D02*
X2052064Y-20605963D01*
X2052064Y-20605963D02*
X1991588Y-20575725D01*
X1991588Y-20575725D02*
X1961350Y-20515248D01*
X1961350Y-20515248D02*
X1961350Y-20454772D01*
X1961350Y-20454772D02*
X1991588Y-20394296D01*
X1991588Y-20394296D02*
X2052064Y-20364058D01*
X2052064Y-20364058D02*
X2203255Y-20364058D01*
X2203255Y-20364058D02*
X2263731Y-20333820D01*
X2566112Y-20605963D02*
X2566112Y-20182629D01*
X2566112Y-19970963D02*
X2535874Y-20001201D01*
X2535874Y-20001201D02*
X2566112Y-20031439D01*
X2566112Y-20031439D02*
X2596350Y-20001201D01*
X2596350Y-20001201D02*
X2566112Y-19970963D01*
X2566112Y-19970963D02*
X2566112Y-20031439D01*
X2868493Y-20182629D02*
X2868493Y-20605963D01*
X2868493Y-20243105D02*
X2898731Y-20212867D01*
X2898731Y-20212867D02*
X2959207Y-20182629D01*
X2959207Y-20182629D02*
X3049922Y-20182629D01*
X3049922Y-20182629D02*
X3110398Y-20212867D01*
X3110398Y-20212867D02*
X3140636Y-20273344D01*
X3140636Y-20273344D02*
X3140636Y-20605963D01*
X1178184Y-19794675D02*
X3228327Y-19794675D01*
X3715160Y-20182629D02*
X3715160Y-20605963D01*
X3563969Y-19940725D02*
X3412779Y-20394296D01*
X3412779Y-20394296D02*
X3805874Y-20394296D01*
X12099363Y-7905963D02*
X12099363Y-7270963D01*
X12099363Y-7270963D02*
X12311030Y-7724534D01*
X12311030Y-7724534D02*
X12522696Y-7270963D01*
X12522696Y-7270963D02*
X12522696Y-7905963D01*
X13097220Y-7905963D02*
X13097220Y-7573344D01*
X13097220Y-7573344D02*
X13066982Y-7512867D01*
X13066982Y-7512867D02*
X13006506Y-7482629D01*
X13006506Y-7482629D02*
X12885553Y-7482629D01*
X12885553Y-7482629D02*
X12825077Y-7512867D01*
X13097220Y-7875725D02*
X13036744Y-7905963D01*
X13036744Y-7905963D02*
X12885553Y-7905963D01*
X12885553Y-7905963D02*
X12825077Y-7875725D01*
X12825077Y-7875725D02*
X12794839Y-7815248D01*
X12794839Y-7815248D02*
X12794839Y-7754772D01*
X12794839Y-7754772D02*
X12825077Y-7694296D01*
X12825077Y-7694296D02*
X12885553Y-7664058D01*
X12885553Y-7664058D02*
X13036744Y-7664058D01*
X13036744Y-7664058D02*
X13097220Y-7633820D01*
X13399601Y-7905963D02*
X13399601Y-7482629D01*
X13399601Y-7270963D02*
X13369363Y-7301201D01*
X13369363Y-7301201D02*
X13399601Y-7331439D01*
X13399601Y-7331439D02*
X13429839Y-7301201D01*
X13429839Y-7301201D02*
X13399601Y-7270963D01*
X13399601Y-7270963D02*
X13399601Y-7331439D01*
X13701982Y-7482629D02*
X13701982Y-7905963D01*
X13701982Y-7543105D02*
X13732220Y-7512867D01*
X13732220Y-7512867D02*
X13792696Y-7482629D01*
X13792696Y-7482629D02*
X13883411Y-7482629D01*
X13883411Y-7482629D02*
X13943887Y-7512867D01*
X13943887Y-7512867D02*
X13974125Y-7573344D01*
X13974125Y-7573344D02*
X13974125Y-7905963D01*
X12011673Y-7094675D02*
X14061816Y-7094675D01*
X1628731Y-35845963D02*
X1417064Y-35543582D01*
X1265874Y-35845963D02*
X1265874Y-35210963D01*
X1265874Y-35210963D02*
X1507779Y-35210963D01*
X1507779Y-35210963D02*
X1568255Y-35241201D01*
X1568255Y-35241201D02*
X1598493Y-35271439D01*
X1598493Y-35271439D02*
X1628731Y-35331915D01*
X1628731Y-35331915D02*
X1628731Y-35422629D01*
X1628731Y-35422629D02*
X1598493Y-35483105D01*
X1598493Y-35483105D02*
X1568255Y-35513344D01*
X1568255Y-35513344D02*
X1507779Y-35543582D01*
X1507779Y-35543582D02*
X1265874Y-35543582D01*
X1900874Y-35513344D02*
X2112541Y-35513344D01*
X2203255Y-35845963D02*
X1900874Y-35845963D01*
X1900874Y-35845963D02*
X1900874Y-35210963D01*
X1900874Y-35210963D02*
X2203255Y-35210963D01*
X2445160Y-35815725D02*
X2535874Y-35845963D01*
X2535874Y-35845963D02*
X2687065Y-35845963D01*
X2687065Y-35845963D02*
X2747541Y-35815725D01*
X2747541Y-35815725D02*
X2777779Y-35785486D01*
X2777779Y-35785486D02*
X2808017Y-35725010D01*
X2808017Y-35725010D02*
X2808017Y-35664534D01*
X2808017Y-35664534D02*
X2777779Y-35604058D01*
X2777779Y-35604058D02*
X2747541Y-35573820D01*
X2747541Y-35573820D02*
X2687065Y-35543582D01*
X2687065Y-35543582D02*
X2566112Y-35513344D01*
X2566112Y-35513344D02*
X2505636Y-35483105D01*
X2505636Y-35483105D02*
X2475398Y-35452867D01*
X2475398Y-35452867D02*
X2445160Y-35392391D01*
X2445160Y-35392391D02*
X2445160Y-35331915D01*
X2445160Y-35331915D02*
X2475398Y-35271439D01*
X2475398Y-35271439D02*
X2505636Y-35241201D01*
X2505636Y-35241201D02*
X2566112Y-35210963D01*
X2566112Y-35210963D02*
X2717303Y-35210963D01*
X2717303Y-35210963D02*
X2808017Y-35241201D01*
X1178184Y-35034675D02*
X2865470Y-35034675D01*
X1265874Y-30765963D02*
X1265874Y-30130963D01*
X1265874Y-30130963D02*
X1477541Y-30584534D01*
X1477541Y-30584534D02*
X1689207Y-30130963D01*
X1689207Y-30130963D02*
X1689207Y-30765963D01*
X1178184Y-29954675D02*
X1776898Y-29954675D01*
X1931112Y-30130963D02*
X2354445Y-30130963D01*
X2354445Y-30130963D02*
X2082302Y-30765963D01*
X1568255Y349036D02*
X1265874Y349036D01*
X1265874Y349036D02*
X1235636Y46655D01*
X1235636Y46655D02*
X1265874Y76894D01*
X1265874Y76894D02*
X1326350Y107132D01*
X1326350Y107132D02*
X1477541Y107132D01*
X1477541Y107132D02*
X1538017Y76894D01*
X1538017Y76894D02*
X1568255Y46655D01*
X1568255Y46655D02*
X1598493Y-13820D01*
X1598493Y-13820D02*
X1598493Y-165010D01*
X1598493Y-165010D02*
X1568255Y-225486D01*
X1568255Y-225486D02*
X1538017Y-255725D01*
X1538017Y-255725D02*
X1477541Y-285963D01*
X1477541Y-285963D02*
X1326350Y-285963D01*
X1326350Y-285963D02*
X1265874Y-255725D01*
X1265874Y-255725D02*
X1235636Y-225486D01*
X1779922Y349036D02*
X1991588Y-285963D01*
X1991588Y-285963D02*
X2203255Y349036D01*
X1265874Y-12985963D02*
X1265874Y-12350963D01*
X1265874Y-12350963D02*
X1477541Y-12804534D01*
X1477541Y-12804534D02*
X1689207Y-12350963D01*
X1689207Y-12350963D02*
X1689207Y-12985963D01*
X1178184Y-12174675D02*
X1776898Y-12174675D01*
X2324207Y-12985963D02*
X1961350Y-12985963D01*
X2142778Y-12985963D02*
X2142778Y-12350963D01*
X2142778Y-12350963D02*
X2082302Y-12441677D01*
X2082302Y-12441677D02*
X2021826Y-12502153D01*
X2021826Y-12502153D02*
X1961350Y-12532391D01*
X1628731Y-38325486D02*
X1598493Y-38355725D01*
X1598493Y-38355725D02*
X1507779Y-38385963D01*
X1507779Y-38385963D02*
X1447303Y-38385963D01*
X1447303Y-38385963D02*
X1356588Y-38355725D01*
X1356588Y-38355725D02*
X1296112Y-38295248D01*
X1296112Y-38295248D02*
X1265874Y-38234772D01*
X1265874Y-38234772D02*
X1235636Y-38113820D01*
X1235636Y-38113820D02*
X1235636Y-38023105D01*
X1235636Y-38023105D02*
X1265874Y-37902153D01*
X1265874Y-37902153D02*
X1296112Y-37841677D01*
X1296112Y-37841677D02*
X1356588Y-37781201D01*
X1356588Y-37781201D02*
X1447303Y-37750963D01*
X1447303Y-37750963D02*
X1507779Y-37750963D01*
X1507779Y-37750963D02*
X1598493Y-37781201D01*
X1598493Y-37781201D02*
X1628731Y-37811439D01*
X2021826Y-37750963D02*
X2142779Y-37750963D01*
X2142779Y-37750963D02*
X2203255Y-37781201D01*
X2203255Y-37781201D02*
X2263731Y-37841677D01*
X2263731Y-37841677D02*
X2293969Y-37962629D01*
X2293969Y-37962629D02*
X2293969Y-38174296D01*
X2293969Y-38174296D02*
X2263731Y-38295248D01*
X2263731Y-38295248D02*
X2203255Y-38355725D01*
X2203255Y-38355725D02*
X2142779Y-38385963D01*
X2142779Y-38385963D02*
X2021826Y-38385963D01*
X2021826Y-38385963D02*
X1961350Y-38355725D01*
X1961350Y-38355725D02*
X1900874Y-38295248D01*
X1900874Y-38295248D02*
X1870636Y-38174296D01*
X1870636Y-38174296D02*
X1870636Y-37962629D01*
X1870636Y-37962629D02*
X1900874Y-37841677D01*
X1900874Y-37841677D02*
X1961350Y-37781201D01*
X1961350Y-37781201D02*
X2021826Y-37750963D01*
X2566112Y-38385963D02*
X2566112Y-37750963D01*
X2566112Y-37750963D02*
X2928969Y-38385963D01*
X2928969Y-38385963D02*
X2928969Y-37750963D01*
X1178184Y-37574675D02*
X3016660Y-37574675D01*
X1598493Y-27621201D02*
X1538017Y-27590963D01*
X1538017Y-27590963D02*
X1447303Y-27590963D01*
X1447303Y-27590963D02*
X1356588Y-27621201D01*
X1356588Y-27621201D02*
X1296112Y-27681677D01*
X1296112Y-27681677D02*
X1265874Y-27742153D01*
X1265874Y-27742153D02*
X1235636Y-27863105D01*
X1235636Y-27863105D02*
X1235636Y-27953820D01*
X1235636Y-27953820D02*
X1265874Y-28074772D01*
X1265874Y-28074772D02*
X1296112Y-28135248D01*
X1296112Y-28135248D02*
X1356588Y-28195725D01*
X1356588Y-28195725D02*
X1447303Y-28225963D01*
X1447303Y-28225963D02*
X1507779Y-28225963D01*
X1507779Y-28225963D02*
X1598493Y-28195725D01*
X1598493Y-28195725D02*
X1628731Y-28165486D01*
X1628731Y-28165486D02*
X1628731Y-27953820D01*
X1628731Y-27953820D02*
X1507779Y-27953820D01*
X1900874Y-28225963D02*
X1900874Y-27590963D01*
X1900874Y-27590963D02*
X2263731Y-28225963D01*
X2263731Y-28225963D02*
X2263731Y-27590963D01*
X2566112Y-28225963D02*
X2566112Y-27590963D01*
X2566112Y-27590963D02*
X2717302Y-27590963D01*
X2717302Y-27590963D02*
X2808017Y-27621201D01*
X2808017Y-27621201D02*
X2868493Y-27681677D01*
X2868493Y-27681677D02*
X2898731Y-27742153D01*
X2898731Y-27742153D02*
X2928969Y-27863105D01*
X2928969Y-27863105D02*
X2928969Y-27953820D01*
X2928969Y-27953820D02*
X2898731Y-28074772D01*
X2898731Y-28074772D02*
X2868493Y-28135248D01*
X2868493Y-28135248D02*
X2808017Y-28195725D01*
X2808017Y-28195725D02*
X2717302Y-28225963D01*
X2717302Y-28225963D02*
X2566112Y-28225963D01*
X13339125Y-27621201D02*
X13278649Y-27590963D01*
X13278649Y-27590963D02*
X13187935Y-27590963D01*
X13187935Y-27590963D02*
X13097220Y-27621201D01*
X13097220Y-27621201D02*
X13036744Y-27681677D01*
X13036744Y-27681677D02*
X13006506Y-27742153D01*
X13006506Y-27742153D02*
X12976268Y-27863105D01*
X12976268Y-27863105D02*
X12976268Y-27953820D01*
X12976268Y-27953820D02*
X13006506Y-28074772D01*
X13006506Y-28074772D02*
X13036744Y-28135248D01*
X13036744Y-28135248D02*
X13097220Y-28195725D01*
X13097220Y-28195725D02*
X13187935Y-28225963D01*
X13187935Y-28225963D02*
X13248411Y-28225963D01*
X13248411Y-28225963D02*
X13339125Y-28195725D01*
X13339125Y-28195725D02*
X13369363Y-28165486D01*
X13369363Y-28165486D02*
X13369363Y-27953820D01*
X13369363Y-27953820D02*
X13248411Y-27953820D01*
X13641506Y-28225963D02*
X13641506Y-27590963D01*
X13641506Y-27590963D02*
X13792696Y-27590963D01*
X13792696Y-27590963D02*
X13883411Y-27621201D01*
X13883411Y-27621201D02*
X13943887Y-27681677D01*
X13943887Y-27681677D02*
X13974125Y-27742153D01*
X13974125Y-27742153D02*
X14004363Y-27863105D01*
X14004363Y-27863105D02*
X14004363Y-27953820D01*
X14004363Y-27953820D02*
X13974125Y-28074772D01*
X13974125Y-28074772D02*
X13943887Y-28135248D01*
X13943887Y-28135248D02*
X13883411Y-28195725D01*
X13883411Y-28195725D02*
X13792696Y-28225963D01*
X13792696Y-28225963D02*
X13641506Y-28225963D01*
X1265874Y-7905963D02*
X1265874Y-7270963D01*
X1265874Y-7270963D02*
X1477541Y-7724534D01*
X1477541Y-7724534D02*
X1689207Y-7270963D01*
X1689207Y-7270963D02*
X1689207Y-7905963D01*
X1178184Y-7094675D02*
X1776898Y-7094675D01*
X2112540Y-7270963D02*
X2173017Y-7270963D01*
X2173017Y-7270963D02*
X2233493Y-7301201D01*
X2233493Y-7301201D02*
X2263731Y-7331439D01*
X2263731Y-7331439D02*
X2293969Y-7391915D01*
X2293969Y-7391915D02*
X2324207Y-7512867D01*
X2324207Y-7512867D02*
X2324207Y-7664058D01*
X2324207Y-7664058D02*
X2293969Y-7785010D01*
X2293969Y-7785010D02*
X2263731Y-7845486D01*
X2263731Y-7845486D02*
X2233493Y-7875725D01*
X2233493Y-7875725D02*
X2173017Y-7905963D01*
X2173017Y-7905963D02*
X2112540Y-7905963D01*
X2112540Y-7905963D02*
X2052064Y-7875725D01*
X2052064Y-7875725D02*
X2021826Y-7845486D01*
X2021826Y-7845486D02*
X1991588Y-7785010D01*
X1991588Y-7785010D02*
X1961350Y-7664058D01*
X1961350Y-7664058D02*
X1961350Y-7512867D01*
X1961350Y-7512867D02*
X1991588Y-7391915D01*
X1991588Y-7391915D02*
X2021826Y-7331439D01*
X2021826Y-7331439D02*
X2052064Y-7301201D01*
X2052064Y-7301201D02*
X2112540Y-7270963D01*
D11*
G36*
X5829475Y-1147768D02*
G01*
X5810630Y-1157191D01*
X5619749Y-1157191D01*
X5575439Y-1135036D01*
X5553285Y-1090726D01*
X5553285Y-1042702D01*
X5575440Y-998392D01*
X5619749Y-976238D01*
X5829475Y-976238D01*
X5829475Y-1147768D01*
G37*
G36*
X6727382Y-720329D02*
G01*
X6752051Y-744997D01*
X6781856Y-804607D01*
X6781856Y-1043107D01*
X6752051Y-1102715D01*
X6727382Y-1127385D01*
X6667773Y-1157191D01*
X6524511Y-1157191D01*
X6505666Y-1147768D01*
X6505666Y-699946D01*
X6524511Y-690524D01*
X6667773Y-690524D01*
X6727382Y-720329D01*
G37*
G36*
X8140654Y-712679D02*
G01*
X8158104Y-747579D01*
X7886619Y-801876D01*
X7886619Y-756988D01*
X7908774Y-712678D01*
X7953083Y-690524D01*
X8096345Y-690524D01*
X8140654Y-712679D01*
G37*
G36*
X10632145Y-386996D02*
G01*
X10656814Y-411664D01*
X10692267Y-482571D01*
X10734238Y-650452D01*
X10734238Y-863928D01*
X10692267Y-1031809D01*
X10656814Y-1102715D01*
X10632145Y-1127385D01*
X10572536Y-1157191D01*
X10524512Y-1157191D01*
X10464902Y-1127386D01*
X10440235Y-1102718D01*
X10404780Y-1031809D01*
X10362810Y-863928D01*
X10362810Y-650453D01*
X10404780Y-482571D01*
X10440234Y-411664D01*
X10464902Y-386995D01*
X10524512Y-357191D01*
X10572536Y-357191D01*
X10632145Y-386996D01*
G37*
G36*
X4043761Y462174D02*
G01*
X4024917Y452752D01*
X3834034Y452752D01*
X3789726Y474906D01*
X3767571Y519217D01*
X3767571Y567240D01*
X3789726Y611550D01*
X3834035Y633705D01*
X4043761Y633705D01*
X4043761Y462174D01*
G37*
G36*
X8212082Y897263D02*
G01*
X8229532Y862363D01*
X7958047Y808066D01*
X7958047Y852954D01*
X7980202Y897264D01*
X8024511Y919419D01*
X8167773Y919419D01*
X8212082Y897263D01*
G37*
G36*
X10417858Y889613D02*
G01*
X10442527Y864945D01*
X10472332Y805336D01*
X10472332Y566836D01*
X10442527Y507226D01*
X10417856Y482555D01*
X10358250Y452752D01*
X10262605Y452752D01*
X10202997Y482556D01*
X10178328Y507226D01*
X10148523Y566836D01*
X10148523Y805335D01*
X10178328Y864945D01*
X10202996Y889614D01*
X10262606Y919419D01*
X10358249Y919419D01*
X10417858Y889613D01*
G37*
G36*
X12210942Y-1468302D02*
G01*
X2361222Y-1468302D01*
X2361222Y-257191D01*
X3591380Y-257191D01*
X3591380Y-1257191D01*
X3593301Y-1276700D01*
X3608233Y-1312748D01*
X3635823Y-1340338D01*
X3671871Y-1355270D01*
X3691380Y-1357191D01*
X4167570Y-1357191D01*
X4187079Y-1355270D01*
X4223127Y-1340338D01*
X4250717Y-1312748D01*
X4265649Y-1276700D01*
X4265649Y-1237682D01*
X4250717Y-1201634D01*
X4223127Y-1174044D01*
X4187079Y-1159112D01*
X4167570Y-1157191D01*
X3791380Y-1157191D01*
X3791380Y-833381D01*
X4024713Y-833381D01*
X4044222Y-831460D01*
X4080270Y-816528D01*
X4107860Y-788938D01*
X4122792Y-752890D01*
X4122792Y-713872D01*
X4107860Y-677824D01*
X4080270Y-650234D01*
X4044222Y-635302D01*
X4024713Y-633381D01*
X3791380Y-633381D01*
X3791380Y-590524D01*
X4496142Y-590524D01*
X4496142Y-1257191D01*
X4498063Y-1276700D01*
X4512995Y-1312748D01*
X4540585Y-1340338D01*
X4576633Y-1355270D01*
X4615651Y-1355270D01*
X4651699Y-1340338D01*
X4679289Y-1312748D01*
X4694221Y-1276700D01*
X4696142Y-1257191D01*
X4696142Y-727183D01*
X4702996Y-720328D01*
X4762606Y-690524D01*
X4858249Y-690524D01*
X4902558Y-712679D01*
X4924713Y-756988D01*
X4924713Y-1257191D01*
X4926634Y-1276700D01*
X4941566Y-1312748D01*
X4969156Y-1340338D01*
X5005204Y-1355270D01*
X5044222Y-1355270D01*
X5080270Y-1340338D01*
X5107860Y-1312748D01*
X5122792Y-1276700D01*
X5124713Y-1257191D01*
X5124713Y-1019095D01*
X5353285Y-1019095D01*
X5353285Y-1114333D01*
X5355206Y-1133842D01*
X5356581Y-1137162D01*
X5356836Y-1140745D01*
X5363842Y-1159054D01*
X5411461Y-1254293D01*
X5413514Y-1257556D01*
X5414028Y-1259095D01*
X5415690Y-1261011D01*
X5421904Y-1270883D01*
X5431375Y-1279097D01*
X5439592Y-1288572D01*
X5449462Y-1294784D01*
X5451380Y-1296448D01*
X5452920Y-1296961D01*
X5456183Y-1299015D01*
X5551420Y-1346634D01*
X5569729Y-1353640D01*
X5573312Y-1353894D01*
X5576633Y-1355270D01*
X5596142Y-1357191D01*
X5834237Y-1357191D01*
X5853746Y-1355270D01*
X5857066Y-1353894D01*
X5860650Y-1353640D01*
X5878958Y-1346634D01*
X5883561Y-1344332D01*
X5909966Y-1355270D01*
X5948984Y-1355270D01*
X5985032Y-1340338D01*
X6012622Y-1312748D01*
X6027554Y-1276700D01*
X6029475Y-1257191D01*
X6029475Y-733381D01*
X6027554Y-713872D01*
X6026178Y-710551D01*
X6025924Y-706968D01*
X6018918Y-688659D01*
X5971299Y-593422D01*
X5969244Y-590158D01*
X5968732Y-588620D01*
X5967070Y-586704D01*
X5960856Y-576831D01*
X5951380Y-568613D01*
X5943167Y-559143D01*
X5933295Y-552929D01*
X5931379Y-551267D01*
X5929840Y-550753D01*
X5926577Y-548700D01*
X5831339Y-501081D01*
X5813031Y-494075D01*
X5809447Y-493820D01*
X5806127Y-492445D01*
X5786618Y-490524D01*
X5596142Y-490524D01*
X5576633Y-492445D01*
X5573312Y-493820D01*
X5569729Y-494075D01*
X5551420Y-501081D01*
X5456183Y-548700D01*
X5439592Y-559143D01*
X5414028Y-588620D01*
X5401689Y-625636D01*
X5404455Y-664556D01*
X5421904Y-699455D01*
X5451381Y-725019D01*
X5488397Y-737358D01*
X5527317Y-734592D01*
X5545625Y-727586D01*
X5619749Y-690524D01*
X5763011Y-690524D01*
X5807320Y-712679D01*
X5829475Y-756988D01*
X5829475Y-766815D01*
X5810630Y-776238D01*
X5596142Y-776238D01*
X5576633Y-778159D01*
X5573312Y-779534D01*
X5569729Y-779789D01*
X5551420Y-786795D01*
X5456183Y-834414D01*
X5452919Y-836468D01*
X5451381Y-836981D01*
X5449465Y-838642D01*
X5439592Y-844857D01*
X5431374Y-854332D01*
X5421904Y-862546D01*
X5415690Y-872417D01*
X5414028Y-874334D01*
X5413514Y-875872D01*
X5411461Y-879136D01*
X5363842Y-974374D01*
X5356836Y-992682D01*
X5356581Y-996265D01*
X5355206Y-999586D01*
X5353285Y-1019095D01*
X5124713Y-1019095D01*
X5124713Y-733381D01*
X5122792Y-713872D01*
X5121416Y-710551D01*
X5121162Y-706968D01*
X5114156Y-688659D01*
X5066537Y-593422D01*
X5064482Y-590158D01*
X5063970Y-588620D01*
X5062308Y-586704D01*
X5056094Y-576831D01*
X5046618Y-568613D01*
X5038405Y-559143D01*
X5028533Y-552929D01*
X5026617Y-551267D01*
X5025078Y-550753D01*
X5021815Y-548700D01*
X4926577Y-501081D01*
X4908269Y-494075D01*
X4904685Y-493820D01*
X4901365Y-492445D01*
X4881856Y-490524D01*
X4738999Y-490524D01*
X4719490Y-492445D01*
X4716169Y-493820D01*
X4712586Y-494075D01*
X4694277Y-501081D01*
X4661694Y-517372D01*
X4651699Y-507377D01*
X4615651Y-492445D01*
X4576633Y-492445D01*
X4540585Y-507377D01*
X4512995Y-534967D01*
X4498063Y-571015D01*
X4496142Y-590524D01*
X3791380Y-590524D01*
X3791380Y-357191D01*
X4167570Y-357191D01*
X4187079Y-355270D01*
X4223127Y-340338D01*
X4250717Y-312748D01*
X4265649Y-276700D01*
X4265649Y-257191D01*
X6305666Y-257191D01*
X6305666Y-1257191D01*
X6307587Y-1276700D01*
X6322519Y-1312748D01*
X6350109Y-1340338D01*
X6386157Y-1355270D01*
X6425175Y-1355270D01*
X6451579Y-1344332D01*
X6456182Y-1346634D01*
X6474491Y-1353640D01*
X6478074Y-1353894D01*
X6481395Y-1355270D01*
X6500904Y-1357191D01*
X6691380Y-1357191D01*
X6710889Y-1355270D01*
X6714209Y-1353894D01*
X6717793Y-1353640D01*
X6736101Y-1346634D01*
X6831339Y-1299015D01*
X6839734Y-1293730D01*
X6842176Y-1292719D01*
X6844923Y-1290463D01*
X6847929Y-1288572D01*
X6849659Y-1286577D01*
X6857329Y-1280282D01*
X6904948Y-1232662D01*
X6911240Y-1224995D01*
X6913237Y-1223264D01*
X6915130Y-1220256D01*
X6917385Y-1217509D01*
X6918396Y-1215067D01*
X6923680Y-1206673D01*
X6971299Y-1111436D01*
X6978305Y-1093127D01*
X6978559Y-1089543D01*
X6979935Y-1086223D01*
X6981856Y-1066714D01*
X6981856Y-781000D01*
X6979935Y-761491D01*
X6978559Y-758170D01*
X6978305Y-754587D01*
X6971299Y-736278D01*
X6923680Y-641041D01*
X6918394Y-632644D01*
X6917384Y-630204D01*
X6915130Y-627458D01*
X6913237Y-624450D01*
X6911239Y-622717D01*
X6904947Y-615051D01*
X6857329Y-567432D01*
X6849658Y-561137D01*
X6847929Y-559143D01*
X6844921Y-557249D01*
X6842175Y-554996D01*
X6839735Y-553985D01*
X6831339Y-548700D01*
X6736101Y-501081D01*
X6717793Y-494075D01*
X6714209Y-493820D01*
X6710889Y-492445D01*
X6691380Y-490524D01*
X6505666Y-490524D01*
X6505666Y-257191D01*
X7210428Y-257191D01*
X7210428Y-1114333D01*
X7212349Y-1133842D01*
X7213724Y-1137162D01*
X7213979Y-1140745D01*
X7220985Y-1159054D01*
X7268604Y-1254293D01*
X7270657Y-1257556D01*
X7271171Y-1259095D01*
X7272833Y-1261011D01*
X7279047Y-1270883D01*
X7288518Y-1279097D01*
X7296735Y-1288572D01*
X7306605Y-1294784D01*
X7308523Y-1296448D01*
X7310063Y-1296961D01*
X7313326Y-1299015D01*
X7408563Y-1346634D01*
X7426872Y-1353640D01*
X7465792Y-1356406D01*
X7502808Y-1344067D01*
X7532285Y-1318502D01*
X7549734Y-1283604D01*
X7552499Y-1244684D01*
X7540161Y-1207668D01*
X7514596Y-1178191D01*
X7498006Y-1167748D01*
X7432582Y-1135036D01*
X7410428Y-1090726D01*
X7410428Y-733381D01*
X7686619Y-733381D01*
X7686619Y-1114333D01*
X7688540Y-1133842D01*
X7689915Y-1137162D01*
X7690170Y-1140745D01*
X7697176Y-1159054D01*
X7744795Y-1254293D01*
X7746848Y-1257556D01*
X7747362Y-1259095D01*
X7749024Y-1261011D01*
X7755238Y-1270883D01*
X7764709Y-1279097D01*
X7772926Y-1288572D01*
X7782796Y-1294784D01*
X7784714Y-1296448D01*
X7786254Y-1296961D01*
X7789517Y-1299015D01*
X7884754Y-1346634D01*
X7903063Y-1353640D01*
X7906646Y-1353894D01*
X7909967Y-1355270D01*
X7929476Y-1357191D01*
X8119952Y-1357191D01*
X8139461Y-1355270D01*
X8142781Y-1353894D01*
X8146365Y-1353640D01*
X8164673Y-1346634D01*
X8259911Y-1299015D01*
X8276501Y-1288572D01*
X8302066Y-1259095D01*
X8314404Y-1222079D01*
X8311639Y-1183159D01*
X8294190Y-1148261D01*
X8264713Y-1122696D01*
X8227697Y-1110357D01*
X8188777Y-1113123D01*
X8170468Y-1120129D01*
X8096345Y-1157191D01*
X7953083Y-1157191D01*
X7908773Y-1135036D01*
X7886619Y-1090726D01*
X7886619Y-1005837D01*
X8282315Y-926698D01*
X8282318Y-926698D01*
X8282320Y-926696D01*
X8282420Y-926677D01*
X8301174Y-920967D01*
X8309314Y-915515D01*
X8318366Y-911766D01*
X8325367Y-904764D01*
X8333593Y-899256D01*
X8339027Y-891104D01*
X8345956Y-884176D01*
X8349745Y-875028D01*
X8355237Y-866791D01*
X8357138Y-857180D01*
X8360888Y-848128D01*
X8362809Y-828619D01*
X8362809Y-733381D01*
X8360888Y-713872D01*
X8359512Y-710551D01*
X8359258Y-706968D01*
X8352252Y-688659D01*
X8304633Y-593422D01*
X8302578Y-590158D01*
X8302066Y-588620D01*
X8300404Y-586704D01*
X8294190Y-576831D01*
X8284714Y-568613D01*
X8276501Y-559143D01*
X8266629Y-552929D01*
X8264713Y-551267D01*
X8263174Y-550753D01*
X8259911Y-548700D01*
X8164673Y-501081D01*
X8146365Y-494075D01*
X8142781Y-493820D01*
X8139461Y-492445D01*
X8119952Y-490524D01*
X7929476Y-490524D01*
X7909967Y-492445D01*
X7906646Y-493820D01*
X7903063Y-494075D01*
X7884754Y-501081D01*
X7789517Y-548700D01*
X7786253Y-550754D01*
X7784715Y-551267D01*
X7782799Y-552928D01*
X7772926Y-559143D01*
X7764708Y-568618D01*
X7755238Y-576832D01*
X7749024Y-586703D01*
X7747362Y-588620D01*
X7746848Y-590158D01*
X7744795Y-593422D01*
X7697176Y-688660D01*
X7690170Y-706968D01*
X7689915Y-710551D01*
X7688540Y-713872D01*
X7686619Y-733381D01*
X7410428Y-733381D01*
X7410428Y-269698D01*
X9211214Y-269698D01*
X9215561Y-288814D01*
X9548894Y-1288813D01*
X9556885Y-1306714D01*
X9561568Y-1312113D01*
X9564763Y-1318503D01*
X9574234Y-1326718D01*
X9582450Y-1336190D01*
X9588838Y-1339384D01*
X9594239Y-1344068D01*
X9606140Y-1348035D01*
X9617349Y-1353639D01*
X9624473Y-1354145D01*
X9631255Y-1356406D01*
X9643764Y-1355516D01*
X9656269Y-1356406D01*
X9663047Y-1354146D01*
X9670175Y-1353640D01*
X9681391Y-1348031D01*
X9693285Y-1344067D01*
X9698682Y-1339386D01*
X9705074Y-1336190D01*
X9713292Y-1326714D01*
X9722761Y-1318502D01*
X9725954Y-1312115D01*
X9730639Y-1306714D01*
X9738630Y-1288814D01*
X9955520Y-638143D01*
X10162810Y-638143D01*
X10162810Y-876238D01*
X10163145Y-879640D01*
X10162928Y-881099D01*
X10164007Y-888396D01*
X10164731Y-895747D01*
X10165295Y-897110D01*
X10165796Y-900492D01*
X10213415Y-1090967D01*
X10213928Y-1092404D01*
X10213980Y-1093127D01*
X10217088Y-1101251D01*
X10220010Y-1109428D01*
X10220440Y-1110008D01*
X10220986Y-1111435D01*
X10268605Y-1206673D01*
X10273888Y-1215065D01*
X10274900Y-1217509D01*
X10277156Y-1220258D01*
X10279048Y-1223263D01*
X10281042Y-1224992D01*
X10287337Y-1232662D01*
X10334955Y-1280282D01*
X10342623Y-1286575D01*
X10344355Y-1288572D01*
X10347363Y-1290465D01*
X10350109Y-1292719D01*
X10352549Y-1293729D01*
X10360946Y-1299015D01*
X10456183Y-1346634D01*
X10474492Y-1353640D01*
X10478075Y-1353894D01*
X10481396Y-1355270D01*
X10500905Y-1357191D01*
X10596143Y-1357191D01*
X10615652Y-1355270D01*
X10618972Y-1353894D01*
X10622556Y-1353640D01*
X10640864Y-1346634D01*
X10736102Y-1299015D01*
X10744497Y-1293730D01*
X10746939Y-1292719D01*
X10749686Y-1290463D01*
X10752692Y-1288572D01*
X10754422Y-1286577D01*
X10762092Y-1280282D01*
X10809711Y-1232662D01*
X10816003Y-1224995D01*
X10818000Y-1223264D01*
X10819893Y-1220256D01*
X10822148Y-1217509D01*
X10823159Y-1215067D01*
X10828443Y-1206673D01*
X10876062Y-1111436D01*
X10876608Y-1110007D01*
X10877038Y-1109428D01*
X10879959Y-1101251D01*
X10883068Y-1093127D01*
X10883119Y-1092406D01*
X10883633Y-1090968D01*
X10931252Y-900492D01*
X10931752Y-897110D01*
X10932317Y-895747D01*
X10933040Y-888396D01*
X10934120Y-881099D01*
X10933902Y-879640D01*
X10934238Y-876238D01*
X10934238Y-638143D01*
X10933902Y-634740D01*
X10934120Y-633282D01*
X10933040Y-625984D01*
X10932317Y-618634D01*
X10931752Y-617270D01*
X10931252Y-613889D01*
X10883633Y-423413D01*
X10883119Y-421974D01*
X10883068Y-421254D01*
X10879959Y-413129D01*
X10877038Y-404953D01*
X10876608Y-404373D01*
X10876062Y-402945D01*
X10828443Y-307708D01*
X10823157Y-299311D01*
X10822147Y-296871D01*
X10819893Y-294125D01*
X10818000Y-291117D01*
X10816002Y-289384D01*
X10809710Y-281718D01*
X10762092Y-234099D01*
X10754421Y-227804D01*
X10752692Y-225810D01*
X10749684Y-223916D01*
X10746938Y-221663D01*
X10744498Y-220652D01*
X10736102Y-215367D01*
X10640864Y-167748D01*
X10622556Y-160742D01*
X10618972Y-160487D01*
X10615652Y-159112D01*
X10596143Y-157191D01*
X10500905Y-157191D01*
X10481396Y-159112D01*
X10478075Y-160487D01*
X10474492Y-160742D01*
X10456183Y-167748D01*
X10360946Y-215367D01*
X10352549Y-220652D01*
X10350109Y-221663D01*
X10347363Y-223916D01*
X10344355Y-225810D01*
X10342622Y-227807D01*
X10334956Y-234100D01*
X10287337Y-281718D01*
X10281042Y-289388D01*
X10279048Y-291118D01*
X10277154Y-294125D01*
X10274901Y-296872D01*
X10273890Y-299311D01*
X10268605Y-307708D01*
X10220986Y-402946D01*
X10220440Y-404372D01*
X10220010Y-404953D01*
X10217088Y-413129D01*
X10213980Y-421254D01*
X10213928Y-421976D01*
X10213415Y-423414D01*
X10165796Y-613889D01*
X10165295Y-617270D01*
X10164731Y-618634D01*
X10164007Y-625984D01*
X10162928Y-633282D01*
X10163145Y-634740D01*
X10162810Y-638143D01*
X9955520Y-638143D01*
X10071963Y-288814D01*
X10076310Y-269699D01*
X10073544Y-230779D01*
X10056094Y-195880D01*
X10026618Y-170315D01*
X9989602Y-157976D01*
X9950682Y-160743D01*
X9915783Y-178192D01*
X9890218Y-207668D01*
X9882227Y-225569D01*
X9643762Y-940963D01*
X9405297Y-225568D01*
X9397306Y-207668D01*
X9371741Y-178192D01*
X9336842Y-160742D01*
X9297922Y-157976D01*
X9260906Y-170314D01*
X9231430Y-195879D01*
X9213980Y-230778D01*
X9211214Y-269698D01*
X7410428Y-269698D01*
X7410428Y-257191D01*
X7408507Y-237682D01*
X7393575Y-201634D01*
X7365985Y-174044D01*
X7329937Y-159112D01*
X7290919Y-159112D01*
X7254871Y-174044D01*
X7227281Y-201634D01*
X7212349Y-237682D01*
X7210428Y-257191D01*
X6505666Y-257191D01*
X6503745Y-237682D01*
X6488813Y-201634D01*
X6461223Y-174044D01*
X6425175Y-159112D01*
X6386157Y-159112D01*
X6350109Y-174044D01*
X6322519Y-201634D01*
X6307587Y-237682D01*
X6305666Y-257191D01*
X4265649Y-257191D01*
X4265649Y-237682D01*
X4250717Y-201634D01*
X4223127Y-174044D01*
X4187079Y-159112D01*
X4167570Y-157191D01*
X3691380Y-157191D01*
X3671871Y-159112D01*
X3635823Y-174044D01*
X3608233Y-201634D01*
X3593301Y-237682D01*
X3591380Y-257191D01*
X2361222Y-257191D01*
X2361222Y31926D01*
X11425499Y31926D01*
X11428265Y-6994D01*
X11445714Y-41893D01*
X11475191Y-67457D01*
X11512207Y-79796D01*
X11551127Y-77030D01*
X11569435Y-70024D01*
X11664673Y-22405D01*
X11673069Y-17119D01*
X11675509Y-16109D01*
X11678255Y-13855D01*
X11681263Y-11962D01*
X11682992Y-9967D01*
X11690663Y-3673D01*
X11738281Y43946D01*
X11750718Y59099D01*
X11750955Y59673D01*
X11751390Y60118D01*
X11760419Y77518D01*
X11855657Y315613D01*
X11856181Y317419D01*
X11856983Y319118D01*
X12095078Y985785D01*
X12099831Y1004804D01*
X12097893Y1043774D01*
X12081190Y1079036D01*
X12052264Y1105222D01*
X12015519Y1118345D01*
X11976549Y1116408D01*
X11941287Y1099704D01*
X11915100Y1070779D01*
X11906730Y1053052D01*
X11762809Y650073D01*
X11618888Y1053053D01*
X11610518Y1070779D01*
X11584331Y1099705D01*
X11549069Y1116408D01*
X11510099Y1118346D01*
X11473354Y1105223D01*
X11444428Y1079036D01*
X11427725Y1043774D01*
X11425787Y1004804D01*
X11430540Y985785D01*
X11655907Y354756D01*
X11582345Y170853D01*
X11560716Y149224D01*
X11479993Y108862D01*
X11463402Y98419D01*
X11437838Y68942D01*
X11425499Y31926D01*
X2361222Y31926D01*
X2361222Y1352752D01*
X2472333Y1352752D01*
X2472333Y352752D01*
X2474254Y333243D01*
X2489186Y297195D01*
X2516776Y269605D01*
X2552824Y254673D01*
X2591842Y254673D01*
X2627890Y269605D01*
X2655480Y297195D01*
X2670412Y333243D01*
X2672333Y352752D01*
X2672333Y901995D01*
X2815048Y596178D01*
X2819280Y589032D01*
X2820160Y586615D01*
X2821725Y584905D01*
X2825039Y579312D01*
X2836249Y569045D01*
X2846511Y557840D01*
X2850536Y555961D01*
X2853814Y552960D01*
X2868096Y547766D01*
X2881869Y541339D01*
X2886308Y541143D01*
X2890483Y539626D01*
X2905666Y540293D01*
X2920849Y539626D01*
X2925022Y541143D01*
X2929464Y541339D01*
X2943248Y547771D01*
X2957518Y552961D01*
X2960791Y555958D01*
X2964821Y557839D01*
X2975090Y569053D01*
X2986293Y579312D01*
X2989604Y584902D01*
X2991173Y586615D01*
X2992053Y589036D01*
X2996284Y596178D01*
X3138999Y901996D01*
X3138999Y352752D01*
X3140920Y333243D01*
X3155852Y297195D01*
X3183442Y269605D01*
X3219490Y254673D01*
X3258508Y254673D01*
X3294556Y269605D01*
X3322146Y297195D01*
X3337078Y333243D01*
X3338999Y352752D01*
X3338999Y590848D01*
X3567571Y590848D01*
X3567571Y495610D01*
X3569492Y476101D01*
X3570867Y472780D01*
X3571122Y469197D01*
X3578128Y450889D01*
X3625747Y355651D01*
X3627799Y352390D01*
X3628313Y350850D01*
X3629976Y348932D01*
X3636190Y339061D01*
X3645662Y330845D01*
X3653878Y321373D01*
X3663749Y315159D01*
X3665667Y313496D01*
X3667207Y312982D01*
X3670468Y310930D01*
X3765706Y263310D01*
X3784015Y256303D01*
X3787598Y256048D01*
X3790919Y254673D01*
X3810428Y252752D01*
X4048523Y252752D01*
X4068032Y254673D01*
X4071351Y256048D01*
X4074937Y256303D01*
X4093245Y263310D01*
X4097846Y265610D01*
X4124252Y254673D01*
X4163270Y254673D01*
X4199318Y269605D01*
X4226908Y297195D01*
X4241840Y333243D01*
X4243761Y352752D01*
X4243761Y876562D01*
X4241840Y896071D01*
X4240464Y899391D01*
X4240210Y902975D01*
X4233204Y921284D01*
X4185585Y1016521D01*
X4183760Y1019419D01*
X4519952Y1019419D01*
X4519952Y352752D01*
X4521873Y333243D01*
X4536805Y297195D01*
X4564395Y269605D01*
X4600443Y254673D01*
X4639461Y254673D01*
X4675509Y269605D01*
X4703099Y297195D01*
X4718031Y333243D01*
X4719952Y352752D01*
X4719952Y1019419D01*
X4996142Y1019419D01*
X4996142Y352752D01*
X4998063Y333243D01*
X5012995Y297195D01*
X5040585Y269605D01*
X5076633Y254673D01*
X5115651Y254673D01*
X5151699Y269605D01*
X5179289Y297195D01*
X5194221Y333243D01*
X5196142Y352752D01*
X5196142Y882759D01*
X5202996Y889614D01*
X5262606Y919419D01*
X5358249Y919419D01*
X5402558Y897263D01*
X5424713Y852955D01*
X5424713Y352752D01*
X5426634Y333243D01*
X5441566Y297195D01*
X5469156Y269605D01*
X5505204Y254673D01*
X5544222Y254673D01*
X5580270Y269605D01*
X5607860Y297195D01*
X5622792Y333243D01*
X5624713Y352752D01*
X5624713Y876562D01*
X5622792Y896071D01*
X5621416Y899391D01*
X5621162Y902975D01*
X5614156Y921284D01*
X5566537Y1016521D01*
X5564482Y1019784D01*
X5563970Y1021323D01*
X5562308Y1023238D01*
X5556094Y1033112D01*
X5546618Y1041329D01*
X5538405Y1050800D01*
X5528533Y1057013D01*
X5526617Y1058676D01*
X5525078Y1059189D01*
X5521815Y1061243D01*
X5426577Y1108862D01*
X5408269Y1115868D01*
X5404685Y1116122D01*
X5401365Y1117498D01*
X5381856Y1119419D01*
X5238999Y1119419D01*
X5219490Y1117498D01*
X5216169Y1116122D01*
X5212586Y1115868D01*
X5194277Y1108862D01*
X5161694Y1092570D01*
X5151699Y1102566D01*
X5115651Y1117498D01*
X5076633Y1117498D01*
X5040585Y1102566D01*
X5012995Y1074976D01*
X4998063Y1038928D01*
X4996142Y1019419D01*
X4719952Y1019419D01*
X4718031Y1038928D01*
X4703099Y1074976D01*
X4675509Y1102566D01*
X4639461Y1117498D01*
X4600443Y1117498D01*
X4564395Y1102566D01*
X4536805Y1074976D01*
X4521873Y1038928D01*
X4519952Y1019419D01*
X4183760Y1019419D01*
X4183530Y1019784D01*
X4183018Y1021323D01*
X4181356Y1023238D01*
X4175142Y1033112D01*
X4165666Y1041329D01*
X4157453Y1050800D01*
X4147581Y1057013D01*
X4145665Y1058676D01*
X4144126Y1059189D01*
X4140863Y1061243D01*
X4045625Y1108862D01*
X4027317Y1115868D01*
X4023733Y1116122D01*
X4020413Y1117498D01*
X4000904Y1119419D01*
X3810428Y1119419D01*
X3790919Y1117498D01*
X3787598Y1116122D01*
X3784015Y1115868D01*
X3765706Y1108862D01*
X3670469Y1061243D01*
X3653878Y1050800D01*
X3628314Y1021323D01*
X3615975Y984307D01*
X3618741Y945387D01*
X3636190Y910488D01*
X3665667Y884924D01*
X3702683Y872585D01*
X3741603Y875351D01*
X3759911Y882357D01*
X3834035Y919419D01*
X3977297Y919419D01*
X4021606Y897263D01*
X4043761Y852955D01*
X4043761Y843127D01*
X4024916Y833705D01*
X3810428Y833705D01*
X3790919Y831784D01*
X3787598Y830408D01*
X3784015Y830154D01*
X3765706Y823148D01*
X3670469Y775529D01*
X3667205Y773474D01*
X3665667Y772962D01*
X3663751Y771300D01*
X3653878Y765086D01*
X3645660Y755610D01*
X3636190Y747397D01*
X3629976Y737525D01*
X3628314Y735609D01*
X3627800Y734070D01*
X3625747Y730807D01*
X3578128Y635569D01*
X3571122Y617261D01*
X3570867Y613677D01*
X3569492Y610357D01*
X3567571Y590848D01*
X3338999Y590848D01*
X3338999Y1324642D01*
X4474254Y1324642D01*
X4474254Y1285624D01*
X4489186Y1249576D01*
X4501622Y1234422D01*
X4549241Y1186804D01*
X4564394Y1174367D01*
X4574952Y1169993D01*
X4600443Y1159435D01*
X4639461Y1159435D01*
X4675509Y1174367D01*
X4690663Y1186803D01*
X4738281Y1234422D01*
X4750718Y1249575D01*
X4765649Y1285624D01*
X4765649Y1324642D01*
X4763863Y1328955D01*
X4754006Y1352752D01*
X6662809Y1352752D01*
X6662809Y352752D01*
X6664730Y333243D01*
X6679662Y297195D01*
X6707252Y269605D01*
X6743300Y254673D01*
X6782318Y254673D01*
X6818366Y269605D01*
X6845956Y297195D01*
X6860888Y333243D01*
X6862809Y352752D01*
X6862809Y901995D01*
X7005524Y596178D01*
X7009756Y589032D01*
X7010636Y586615D01*
X7012201Y584905D01*
X7015515Y579312D01*
X7026725Y569045D01*
X7036987Y557840D01*
X7041012Y555961D01*
X7044290Y552960D01*
X7058572Y547766D01*
X7072345Y541339D01*
X7076784Y541143D01*
X7080959Y539626D01*
X7096142Y540293D01*
X7111325Y539626D01*
X7115498Y541143D01*
X7119940Y541339D01*
X7133724Y547771D01*
X7147994Y552961D01*
X7151267Y555958D01*
X7155297Y557839D01*
X7165566Y569053D01*
X7176769Y579312D01*
X7180080Y584902D01*
X7181649Y586615D01*
X7182529Y589036D01*
X7186760Y596178D01*
X7329475Y901996D01*
X7329475Y352752D01*
X7331396Y333243D01*
X7346328Y297195D01*
X7373918Y269605D01*
X7409966Y254673D01*
X7448984Y254673D01*
X7485032Y269605D01*
X7512622Y297195D01*
X7527554Y333243D01*
X7529475Y352752D01*
X7529475Y876562D01*
X7758047Y876562D01*
X7758047Y495610D01*
X7759968Y476101D01*
X7761343Y472780D01*
X7761598Y469197D01*
X7768604Y450889D01*
X7816223Y355651D01*
X7818275Y352390D01*
X7818789Y350850D01*
X7820452Y348932D01*
X7826666Y339061D01*
X7836138Y330845D01*
X7844354Y321373D01*
X7854225Y315159D01*
X7856143Y313496D01*
X7857683Y312982D01*
X7860944Y310930D01*
X7956182Y263310D01*
X7974491Y256303D01*
X7978074Y256048D01*
X7981395Y254673D01*
X8000904Y252752D01*
X8191380Y252752D01*
X8210889Y254673D01*
X8214208Y256048D01*
X8217794Y256303D01*
X8236102Y263310D01*
X8331340Y310930D01*
X8347931Y321373D01*
X8373495Y350850D01*
X8385833Y387866D01*
X8383067Y426786D01*
X8365618Y461684D01*
X8336141Y487249D01*
X8299125Y499587D01*
X8260205Y496821D01*
X8241896Y489814D01*
X8167774Y452752D01*
X8024510Y452752D01*
X7980202Y474906D01*
X7958047Y519217D01*
X7958047Y604105D01*
X8353743Y683245D01*
X8353746Y683245D01*
X8353748Y683246D01*
X8353848Y683266D01*
X8372602Y688976D01*
X8380742Y694427D01*
X8389794Y698177D01*
X8396795Y705178D01*
X8405021Y710687D01*
X8410455Y718838D01*
X8417384Y725767D01*
X8421173Y734914D01*
X8426665Y743152D01*
X8428566Y752762D01*
X8432316Y761815D01*
X8434237Y781324D01*
X8434237Y876562D01*
X8432316Y896071D01*
X8430940Y899391D01*
X8430686Y902975D01*
X8423680Y921284D01*
X8376061Y1016521D01*
X8374236Y1019419D01*
X8662809Y1019419D01*
X8662809Y352752D01*
X8664730Y333243D01*
X8679662Y297195D01*
X8707252Y269605D01*
X8743300Y254673D01*
X8782318Y254673D01*
X8818366Y269605D01*
X8845956Y297195D01*
X8860888Y333243D01*
X8862809Y352752D01*
X8862809Y882759D01*
X8869663Y889614D01*
X8929273Y919419D01*
X9024916Y919419D01*
X9069225Y897263D01*
X9091380Y852955D01*
X9091380Y352752D01*
X9093301Y333243D01*
X9108233Y297195D01*
X9135823Y269605D01*
X9171871Y254673D01*
X9210889Y254673D01*
X9246937Y269605D01*
X9274527Y297195D01*
X9289459Y333243D01*
X9291380Y352752D01*
X9291380Y852954D01*
X9313535Y897264D01*
X9357844Y919419D01*
X9453487Y919419D01*
X9497797Y897264D01*
X9519952Y852955D01*
X9519952Y352752D01*
X9521873Y333243D01*
X9536805Y297195D01*
X9564395Y269605D01*
X9600443Y254673D01*
X9639461Y254673D01*
X9675509Y269605D01*
X9703099Y297195D01*
X9718031Y333243D01*
X9719952Y352752D01*
X9719952Y828943D01*
X9948523Y828943D01*
X9948523Y543229D01*
X9950444Y523720D01*
X9951819Y520399D01*
X9952074Y516816D01*
X9959080Y498508D01*
X10006699Y403270D01*
X10011984Y394873D01*
X10012995Y392434D01*
X10015248Y389687D01*
X10017142Y386680D01*
X10019136Y384950D01*
X10025431Y377280D01*
X10073050Y329662D01*
X10080719Y323367D01*
X10082449Y321373D01*
X10085453Y319481D01*
X10088203Y317225D01*
X10090646Y316213D01*
X10099039Y310930D01*
X10194277Y263310D01*
X10212586Y256303D01*
X10216169Y256048D01*
X10219490Y254673D01*
X10238999Y252752D01*
X10381856Y252752D01*
X10401365Y254673D01*
X10404684Y256048D01*
X10408270Y256303D01*
X10426578Y263310D01*
X10521816Y310930D01*
X10530211Y316214D01*
X10532651Y317225D01*
X10535396Y319478D01*
X10538407Y321373D01*
X10540138Y323369D01*
X10547805Y329661D01*
X10595423Y377280D01*
X10601715Y384946D01*
X10603713Y386679D01*
X10605606Y389687D01*
X10607860Y392433D01*
X10608870Y394873D01*
X10614156Y403270D01*
X10661775Y498507D01*
X10668781Y516816D01*
X10669035Y520399D01*
X10670411Y523720D01*
X10672332Y543229D01*
X10672332Y828943D01*
X10670411Y848452D01*
X10669035Y851772D01*
X10668781Y855356D01*
X10661775Y873665D01*
X10614156Y968902D01*
X10608870Y977298D01*
X10607860Y979739D01*
X10605606Y982484D01*
X10603713Y985493D01*
X10601715Y987225D01*
X10595423Y994892D01*
X10570897Y1019419D01*
X10900904Y1019419D01*
X10900904Y352752D01*
X10902825Y333243D01*
X10917757Y297195D01*
X10945347Y269605D01*
X10981395Y254673D01*
X11020413Y254673D01*
X11056461Y269605D01*
X11084051Y297195D01*
X11098983Y333243D01*
X11100904Y352752D01*
X11100904Y805335D01*
X11130709Y864945D01*
X11155377Y889614D01*
X11214987Y919419D01*
X11286618Y919419D01*
X11306127Y921340D01*
X11342175Y936272D01*
X11369765Y963862D01*
X11384697Y999910D01*
X11384697Y1038928D01*
X11369765Y1074976D01*
X11342175Y1102566D01*
X11306127Y1117498D01*
X11286618Y1119419D01*
X11191380Y1119419D01*
X11171871Y1117498D01*
X11168550Y1116122D01*
X11164967Y1115868D01*
X11146658Y1108862D01*
X11082329Y1076697D01*
X11056461Y1102566D01*
X11020413Y1117498D01*
X10981395Y1117498D01*
X10945347Y1102566D01*
X10917757Y1074976D01*
X10902825Y1038928D01*
X10900904Y1019419D01*
X10570897Y1019419D01*
X10547805Y1042511D01*
X10540134Y1048805D01*
X10538405Y1050800D01*
X10535397Y1052693D01*
X10532651Y1054947D01*
X10530211Y1055957D01*
X10521815Y1061243D01*
X10426577Y1108862D01*
X10408269Y1115868D01*
X10404685Y1116122D01*
X10401365Y1117498D01*
X10381856Y1119419D01*
X10238999Y1119419D01*
X10219490Y1117498D01*
X10216169Y1116122D01*
X10212586Y1115868D01*
X10194277Y1108862D01*
X10099040Y1061243D01*
X10090643Y1055957D01*
X10088203Y1054947D01*
X10085457Y1052693D01*
X10082449Y1050800D01*
X10080716Y1048802D01*
X10073050Y1042510D01*
X10025431Y994892D01*
X10019136Y987221D01*
X10017142Y985492D01*
X10015248Y982484D01*
X10012995Y979738D01*
X10011984Y977298D01*
X10006699Y968902D01*
X9959080Y873664D01*
X9952074Y855356D01*
X9951819Y851772D01*
X9950444Y848452D01*
X9948523Y828943D01*
X9719952Y828943D01*
X9719952Y876562D01*
X9718031Y896071D01*
X9716655Y899391D01*
X9716401Y902975D01*
X9709395Y921284D01*
X9661776Y1016521D01*
X9659722Y1019783D01*
X9659209Y1021324D01*
X9657545Y1023241D01*
X9651333Y1033112D01*
X9641858Y1041328D01*
X9633644Y1050800D01*
X9623772Y1057013D01*
X9621856Y1058676D01*
X9620317Y1059189D01*
X9617054Y1061243D01*
X9521815Y1108862D01*
X9503506Y1115868D01*
X9499923Y1116122D01*
X9496603Y1117498D01*
X9477094Y1119419D01*
X9334237Y1119419D01*
X9314728Y1117498D01*
X9311407Y1116122D01*
X9307824Y1115868D01*
X9289515Y1108862D01*
X9194278Y1061243D01*
X9191379Y1059418D01*
X9188482Y1061243D01*
X9093244Y1108862D01*
X9074936Y1115868D01*
X9071352Y1116122D01*
X9068032Y1117498D01*
X9048523Y1119419D01*
X8905666Y1119419D01*
X8886157Y1117498D01*
X8882836Y1116122D01*
X8879253Y1115868D01*
X8860944Y1108862D01*
X8828361Y1092570D01*
X8818366Y1102566D01*
X8782318Y1117498D01*
X8743300Y1117498D01*
X8707252Y1102566D01*
X8679662Y1074976D01*
X8664730Y1038928D01*
X8662809Y1019419D01*
X8374236Y1019419D01*
X8374006Y1019784D01*
X8373494Y1021323D01*
X8371832Y1023238D01*
X8365618Y1033112D01*
X8356142Y1041329D01*
X8347929Y1050800D01*
X8338057Y1057013D01*
X8336141Y1058676D01*
X8334602Y1059189D01*
X8331339Y1061243D01*
X8236101Y1108862D01*
X8217793Y1115868D01*
X8214209Y1116122D01*
X8210889Y1117498D01*
X8191380Y1119419D01*
X8000904Y1119419D01*
X7981395Y1117498D01*
X7978074Y1116122D01*
X7974491Y1115868D01*
X7956182Y1108862D01*
X7860945Y1061243D01*
X7857681Y1059188D01*
X7856143Y1058676D01*
X7854227Y1057014D01*
X7844354Y1050800D01*
X7836136Y1041324D01*
X7826666Y1033111D01*
X7820452Y1023239D01*
X7818790Y1021323D01*
X7818276Y1019784D01*
X7816223Y1016521D01*
X7768604Y921283D01*
X7761598Y902975D01*
X7761343Y899391D01*
X7759968Y896071D01*
X7758047Y876562D01*
X7529475Y876562D01*
X7529475Y1352752D01*
X7528212Y1365575D01*
X7528316Y1367935D01*
X7527855Y1369202D01*
X7527554Y1372261D01*
X7520913Y1388291D01*
X7514982Y1404604D01*
X7513475Y1406249D01*
X7512622Y1408309D01*
X7500360Y1420570D01*
X7488630Y1433380D01*
X7486606Y1434324D01*
X7485032Y1435899D01*
X7469016Y1442533D01*
X7453273Y1449880D01*
X7451043Y1449977D01*
X7448984Y1450831D01*
X7431632Y1450831D01*
X7414292Y1451593D01*
X7412196Y1450831D01*
X7409966Y1450831D01*
X7393935Y1444190D01*
X7377623Y1438259D01*
X7375977Y1436752D01*
X7373918Y1435899D01*
X7361650Y1423631D01*
X7348848Y1411907D01*
X7347281Y1409262D01*
X7346328Y1408309D01*
X7345424Y1406127D01*
X7338857Y1395041D01*
X7096141Y874937D01*
X6853427Y1395041D01*
X6846859Y1406127D01*
X6845956Y1408309D01*
X6845002Y1409262D01*
X6843436Y1411907D01*
X6830639Y1423625D01*
X6818366Y1435899D01*
X6816304Y1436752D01*
X6814661Y1438258D01*
X6798359Y1444186D01*
X6782318Y1450831D01*
X6780087Y1450831D01*
X6777992Y1451593D01*
X6760652Y1450831D01*
X6743300Y1450831D01*
X6741240Y1449977D01*
X6739012Y1449880D01*
X6723281Y1442538D01*
X6707252Y1435899D01*
X6705675Y1434322D01*
X6703654Y1433379D01*
X6691935Y1420582D01*
X6679662Y1408309D01*
X6678808Y1406247D01*
X6677303Y1404604D01*
X6671374Y1388302D01*
X6664730Y1372261D01*
X6664428Y1369202D01*
X6663968Y1367935D01*
X6664071Y1365575D01*
X6662809Y1352752D01*
X4754006Y1352752D01*
X4750718Y1360691D01*
X4738281Y1375844D01*
X4690663Y1423463D01*
X4675509Y1435899D01*
X4639461Y1450831D01*
X4600443Y1450831D01*
X4574952Y1440272D01*
X4564394Y1435899D01*
X4549241Y1423462D01*
X4501622Y1375844D01*
X4489187Y1360691D01*
X4489186Y1360690D01*
X4474254Y1324642D01*
X3338999Y1324642D01*
X3338999Y1352752D01*
X3337736Y1365575D01*
X3337840Y1367935D01*
X3337379Y1369202D01*
X3337078Y1372261D01*
X3330437Y1388291D01*
X3324506Y1404604D01*
X3322999Y1406249D01*
X3322146Y1408309D01*
X3309884Y1420570D01*
X3298154Y1433380D01*
X3296130Y1434324D01*
X3294556Y1435899D01*
X3278540Y1442533D01*
X3262797Y1449880D01*
X3260567Y1449977D01*
X3258508Y1450831D01*
X3241156Y1450831D01*
X3223816Y1451593D01*
X3221720Y1450831D01*
X3219490Y1450831D01*
X3203459Y1444190D01*
X3187147Y1438259D01*
X3185501Y1436752D01*
X3183442Y1435899D01*
X3171174Y1423631D01*
X3158372Y1411907D01*
X3156805Y1409262D01*
X3155852Y1408309D01*
X3154948Y1406127D01*
X3148381Y1395041D01*
X2905665Y874937D01*
X2662951Y1395041D01*
X2656383Y1406127D01*
X2655480Y1408309D01*
X2654526Y1409262D01*
X2652960Y1411907D01*
X2640163Y1423625D01*
X2627890Y1435899D01*
X2625828Y1436752D01*
X2624185Y1438258D01*
X2607883Y1444186D01*
X2591842Y1450831D01*
X2589611Y1450831D01*
X2587516Y1451593D01*
X2570176Y1450831D01*
X2552824Y1450831D01*
X2550764Y1449977D01*
X2548536Y1449880D01*
X2532805Y1442538D01*
X2516776Y1435899D01*
X2515199Y1434322D01*
X2513178Y1433379D01*
X2501459Y1420582D01*
X2489186Y1408309D01*
X2488332Y1406247D01*
X2486827Y1404604D01*
X2480898Y1388302D01*
X2474254Y1372261D01*
X2473952Y1369202D01*
X2473492Y1367935D01*
X2473595Y1365575D01*
X2472333Y1352752D01*
X2361222Y1352752D01*
X2361222Y1562704D01*
X12210942Y1562704D01*
X12210942Y-1468302D01*
G37*
D10*
X12673887Y-9841201D02*
X12613411Y-9810963D01*
X12613411Y-9810963D02*
X12522697Y-9810963D01*
X12522697Y-9810963D02*
X12431982Y-9841201D01*
X12431982Y-9841201D02*
X12371506Y-9901677D01*
X12371506Y-9901677D02*
X12341268Y-9962153D01*
X12341268Y-9962153D02*
X12311030Y-10083105D01*
X12311030Y-10083105D02*
X12311030Y-10173820D01*
X12311030Y-10173820D02*
X12341268Y-10294772D01*
X12341268Y-10294772D02*
X12371506Y-10355248D01*
X12371506Y-10355248D02*
X12431982Y-10415725D01*
X12431982Y-10415725D02*
X12522697Y-10445963D01*
X12522697Y-10445963D02*
X12583173Y-10445963D01*
X12583173Y-10445963D02*
X12673887Y-10415725D01*
X12673887Y-10415725D02*
X12704125Y-10385486D01*
X12704125Y-10385486D02*
X12704125Y-10173820D01*
X12704125Y-10173820D02*
X12583173Y-10173820D01*
X12976268Y-10445963D02*
X12976268Y-9810963D01*
X12976268Y-9810963D02*
X13339125Y-10445963D01*
X13339125Y-10445963D02*
X13339125Y-9810963D01*
X13641506Y-10445963D02*
X13641506Y-9810963D01*
X13641506Y-9810963D02*
X13792696Y-9810963D01*
X13792696Y-9810963D02*
X13883411Y-9841201D01*
X13883411Y-9841201D02*
X13943887Y-9901677D01*
X13943887Y-9901677D02*
X13974125Y-9962153D01*
X13974125Y-9962153D02*
X14004363Y-10083105D01*
X14004363Y-10083105D02*
X14004363Y-10173820D01*
X14004363Y-10173820D02*
X13974125Y-10294772D01*
X13974125Y-10294772D02*
X13943887Y-10355248D01*
X13943887Y-10355248D02*
X13883411Y-10415725D01*
X13883411Y-10415725D02*
X13792696Y-10445963D01*
X13792696Y-10445963D02*
X13641506Y-10445963D01*
X1265874Y-23145963D02*
X1265874Y-22510963D01*
X1265874Y-22510963D02*
X1477541Y-22964534D01*
X1477541Y-22964534D02*
X1689207Y-22510963D01*
X1689207Y-22510963D02*
X1689207Y-23145963D01*
X2263731Y-23145963D02*
X2263731Y-22813344D01*
X2263731Y-22813344D02*
X2233493Y-22752867D01*
X2233493Y-22752867D02*
X2173017Y-22722629D01*
X2173017Y-22722629D02*
X2052064Y-22722629D01*
X2052064Y-22722629D02*
X1991588Y-22752867D01*
X2263731Y-23115725D02*
X2203255Y-23145963D01*
X2203255Y-23145963D02*
X2052064Y-23145963D01*
X2052064Y-23145963D02*
X1991588Y-23115725D01*
X1991588Y-23115725D02*
X1961350Y-23055248D01*
X1961350Y-23055248D02*
X1961350Y-22994772D01*
X1961350Y-22994772D02*
X1991588Y-22934296D01*
X1991588Y-22934296D02*
X2052064Y-22904058D01*
X2052064Y-22904058D02*
X2203255Y-22904058D01*
X2203255Y-22904058D02*
X2263731Y-22873820D01*
X2566112Y-23145963D02*
X2566112Y-22722629D01*
X2566112Y-22510963D02*
X2535874Y-22541201D01*
X2535874Y-22541201D02*
X2566112Y-22571439D01*
X2566112Y-22571439D02*
X2596350Y-22541201D01*
X2596350Y-22541201D02*
X2566112Y-22510963D01*
X2566112Y-22510963D02*
X2566112Y-22571439D01*
X2868493Y-22722629D02*
X2868493Y-23145963D01*
X2868493Y-22783105D02*
X2898731Y-22752867D01*
X2898731Y-22752867D02*
X2959207Y-22722629D01*
X2959207Y-22722629D02*
X3049922Y-22722629D01*
X3049922Y-22722629D02*
X3110398Y-22752867D01*
X3110398Y-22752867D02*
X3140636Y-22813344D01*
X3140636Y-22813344D02*
X3140636Y-23145963D01*
X1178184Y-22334675D02*
X3228327Y-22334675D01*
X3745398Y-22510963D02*
X3443017Y-22510963D01*
X3443017Y-22510963D02*
X3412779Y-22813344D01*
X3412779Y-22813344D02*
X3443017Y-22783105D01*
X3443017Y-22783105D02*
X3503493Y-22752867D01*
X3503493Y-22752867D02*
X3654684Y-22752867D01*
X3654684Y-22752867D02*
X3715160Y-22783105D01*
X3715160Y-22783105D02*
X3745398Y-22813344D01*
X3745398Y-22813344D02*
X3775636Y-22873820D01*
X3775636Y-22873820D02*
X3775636Y-23025010D01*
X3775636Y-23025010D02*
X3745398Y-23085486D01*
X3745398Y-23085486D02*
X3715160Y-23115725D01*
X3715160Y-23115725D02*
X3654684Y-23145963D01*
X3654684Y-23145963D02*
X3503493Y-23145963D01*
X3503493Y-23145963D02*
X3443017Y-23115725D01*
X3443017Y-23115725D02*
X3412779Y-23085486D01*
X1392874Y-15525963D02*
X1392874Y-14890963D01*
X1392874Y-14890963D02*
X1604541Y-15344534D01*
X1604541Y-15344534D02*
X1816207Y-14890963D01*
X1816207Y-14890963D02*
X1816207Y-15525963D01*
X1305184Y-14714675D02*
X1903898Y-14714675D01*
X2088350Y-14951439D02*
X2118588Y-14921201D01*
X2118588Y-14921201D02*
X2179064Y-14890963D01*
X2179064Y-14890963D02*
X2330255Y-14890963D01*
X2330255Y-14890963D02*
X2390731Y-14921201D01*
X2390731Y-14921201D02*
X2420969Y-14951439D01*
X2420969Y-14951439D02*
X2451207Y-15011915D01*
X2451207Y-15011915D02*
X2451207Y-15072391D01*
X2451207Y-15072391D02*
X2420969Y-15163105D01*
X2420969Y-15163105D02*
X2058112Y-15525963D01*
X2058112Y-15525963D02*
X2451207Y-15525963D01*
X1598493Y-9841201D02*
X1538017Y-9810963D01*
X1538017Y-9810963D02*
X1447303Y-9810963D01*
X1447303Y-9810963D02*
X1356588Y-9841201D01*
X1356588Y-9841201D02*
X1296112Y-9901677D01*
X1296112Y-9901677D02*
X1265874Y-9962153D01*
X1265874Y-9962153D02*
X1235636Y-10083105D01*
X1235636Y-10083105D02*
X1235636Y-10173820D01*
X1235636Y-10173820D02*
X1265874Y-10294772D01*
X1265874Y-10294772D02*
X1296112Y-10355248D01*
X1296112Y-10355248D02*
X1356588Y-10415725D01*
X1356588Y-10415725D02*
X1447303Y-10445963D01*
X1447303Y-10445963D02*
X1507779Y-10445963D01*
X1507779Y-10445963D02*
X1598493Y-10415725D01*
X1598493Y-10415725D02*
X1628731Y-10385486D01*
X1628731Y-10385486D02*
X1628731Y-10173820D01*
X1628731Y-10173820D02*
X1507779Y-10173820D01*
X1900874Y-10445963D02*
X1900874Y-9810963D01*
X1900874Y-9810963D02*
X2263731Y-10445963D01*
X2263731Y-10445963D02*
X2263731Y-9810963D01*
X2566112Y-10445963D02*
X2566112Y-9810963D01*
X2566112Y-9810963D02*
X2717302Y-9810963D01*
X2717302Y-9810963D02*
X2808017Y-9841201D01*
X2808017Y-9841201D02*
X2868493Y-9901677D01*
X2868493Y-9901677D02*
X2898731Y-9962153D01*
X2898731Y-9962153D02*
X2928969Y-10083105D01*
X2928969Y-10083105D02*
X2928969Y-10173820D01*
X2928969Y-10173820D02*
X2898731Y-10294772D01*
X2898731Y-10294772D02*
X2868493Y-10355248D01*
X2868493Y-10355248D02*
X2808017Y-10415725D01*
X2808017Y-10415725D02*
X2717302Y-10445963D01*
X2717302Y-10445963D02*
X2566112Y-10445963D01*
X12583172Y-32973344D02*
X12371505Y-32973344D01*
X12371505Y-33305963D02*
X12371505Y-32670963D01*
X12371505Y-32670963D02*
X12673886Y-32670963D01*
X12885553Y-33124534D02*
X13187934Y-33124534D01*
X12825077Y-33305963D02*
X13036743Y-32670963D01*
X13036743Y-32670963D02*
X13248410Y-33305963D01*
X13460077Y-33305963D02*
X13460077Y-32670963D01*
X14064839Y-33305963D02*
X13762458Y-33305963D01*
X13762458Y-33305963D02*
X13762458Y-32670963D01*
X12283815Y-32494675D02*
X14061816Y-32494675D01*
X13429839Y-37750963D02*
X13127458Y-37750963D01*
X13127458Y-37750963D02*
X13097220Y-38053344D01*
X13097220Y-38053344D02*
X13127458Y-38023105D01*
X13127458Y-38023105D02*
X13187934Y-37992867D01*
X13187934Y-37992867D02*
X13339125Y-37992867D01*
X13339125Y-37992867D02*
X13399601Y-38023105D01*
X13399601Y-38023105D02*
X13429839Y-38053344D01*
X13429839Y-38053344D02*
X13460077Y-38113820D01*
X13460077Y-38113820D02*
X13460077Y-38265010D01*
X13460077Y-38265010D02*
X13429839Y-38325486D01*
X13429839Y-38325486D02*
X13399601Y-38355725D01*
X13399601Y-38355725D02*
X13339125Y-38385963D01*
X13339125Y-38385963D02*
X13187934Y-38385963D01*
X13187934Y-38385963D02*
X13127458Y-38355725D01*
X13127458Y-38355725D02*
X13097220Y-38325486D01*
X13641506Y-37750963D02*
X13853172Y-38385963D01*
X13853172Y-38385963D02*
X14064839Y-37750963D01*
X12286839Y349036D02*
X12679934Y349036D01*
X12679934Y349036D02*
X12468267Y107132D01*
X12468267Y107132D02*
X12558982Y107132D01*
X12558982Y107132D02*
X12619458Y76894D01*
X12619458Y76894D02*
X12649696Y46655D01*
X12649696Y46655D02*
X12679934Y-13820D01*
X12679934Y-13820D02*
X12679934Y-165010D01*
X12679934Y-165010D02*
X12649696Y-225486D01*
X12649696Y-225486D02*
X12619458Y-255725D01*
X12619458Y-255725D02*
X12558982Y-285963D01*
X12558982Y-285963D02*
X12377553Y-285963D01*
X12377553Y-285963D02*
X12317077Y-255725D01*
X12317077Y-255725D02*
X12286839Y-225486D01*
X12952077Y-225486D02*
X12982315Y-255725D01*
X12982315Y-255725D02*
X12952077Y-285963D01*
X12952077Y-285963D02*
X12921839Y-255725D01*
X12921839Y-255725D02*
X12952077Y-225486D01*
X12952077Y-225486D02*
X12952077Y-285963D01*
X13193982Y349036D02*
X13587077Y349036D01*
X13587077Y349036D02*
X13375410Y107132D01*
X13375410Y107132D02*
X13466125Y107132D01*
X13466125Y107132D02*
X13526601Y76894D01*
X13526601Y76894D02*
X13556839Y46655D01*
X13556839Y46655D02*
X13587077Y-13820D01*
X13587077Y-13820D02*
X13587077Y-165010D01*
X13587077Y-165010D02*
X13556839Y-225486D01*
X13556839Y-225486D02*
X13526601Y-255725D01*
X13526601Y-255725D02*
X13466125Y-285963D01*
X13466125Y-285963D02*
X13284696Y-285963D01*
X13284696Y-285963D02*
X13224220Y-255725D01*
X13224220Y-255725D02*
X13193982Y-225486D01*
X13768506Y349036D02*
X13980172Y-285963D01*
X13980172Y-285963D02*
X14191839Y349036D01*
X7442963Y-11091333D02*
X7442963Y-11454190D01*
X7442963Y-11272762D02*
X6807963Y-11272762D01*
X6807963Y-11272762D02*
X6898677Y-11333238D01*
X6898677Y-11333238D02*
X6959153Y-11393714D01*
X6959153Y-11393714D02*
X6989391Y-11454190D01*
X7019629Y-10819190D02*
X7654629Y-10819190D01*
X7352248Y-10516809D02*
X7412725Y-10486571D01*
X7412725Y-10486571D02*
X7442963Y-10426095D01*
X7352248Y-10819190D02*
X7412725Y-10788952D01*
X7412725Y-10788952D02*
X7442963Y-10728476D01*
X7442963Y-10728476D02*
X7442963Y-10607523D01*
X7442963Y-10607523D02*
X7412725Y-10547047D01*
X7412725Y-10547047D02*
X7352248Y-10516809D01*
X7352248Y-10516809D02*
X7019629Y-10516809D01*
X7110344Y-9942285D02*
X7110344Y-10153952D01*
X7442963Y-10153952D02*
X6807963Y-10153952D01*
X6807963Y-10153952D02*
X6807963Y-9851571D01*
X4328486Y-2364834D02*
X4358725Y-2395072D01*
X4358725Y-2395072D02*
X4388963Y-2485786D01*
X4388963Y-2485786D02*
X4388963Y-2546262D01*
X4388963Y-2546262D02*
X4358725Y-2636977D01*
X4358725Y-2636977D02*
X4298248Y-2697453D01*
X4298248Y-2697453D02*
X4237772Y-2727691D01*
X4237772Y-2727691D02*
X4116820Y-2757929D01*
X4116820Y-2757929D02*
X4026105Y-2757929D01*
X4026105Y-2757929D02*
X3905153Y-2727691D01*
X3905153Y-2727691D02*
X3844677Y-2697453D01*
X3844677Y-2697453D02*
X3784201Y-2636977D01*
X3784201Y-2636977D02*
X3753963Y-2546262D01*
X3753963Y-2546262D02*
X3753963Y-2485786D01*
X3753963Y-2485786D02*
X3784201Y-2395072D01*
X3784201Y-2395072D02*
X3814439Y-2364834D01*
X3965629Y-1820548D02*
X4388963Y-1820548D01*
X3723725Y-1971739D02*
X4177296Y-2122929D01*
X4177296Y-2122929D02*
X4177296Y-1729834D01*
X8212666Y-2571963D02*
X7849809Y-2571963D01*
X8031237Y-2571963D02*
X8031237Y-1936963D01*
X8031237Y-1936963D02*
X7970761Y-2027677D01*
X7970761Y-2027677D02*
X7910285Y-2088153D01*
X7910285Y-2088153D02*
X7849809Y-2118391D01*
X8484809Y-2148629D02*
X8484809Y-2783629D01*
X8787190Y-2481248D02*
X8817428Y-2541725D01*
X8817428Y-2541725D02*
X8877904Y-2571963D01*
X8484809Y-2481248D02*
X8515047Y-2541725D01*
X8515047Y-2541725D02*
X8575523Y-2571963D01*
X8575523Y-2571963D02*
X8696476Y-2571963D01*
X8696476Y-2571963D02*
X8756952Y-2541725D01*
X8756952Y-2541725D02*
X8787190Y-2481248D01*
X8787190Y-2481248D02*
X8787190Y-2148629D01*
X9361714Y-2239344D02*
X9150047Y-2239344D01*
X9150047Y-2571963D02*
X9150047Y-1936963D01*
X9150047Y-1936963D02*
X9452428Y-1936963D01*
X7778963Y-30537452D02*
X7476582Y-30749119D01*
X7778963Y-30900309D02*
X7143963Y-30900309D01*
X7143963Y-30900309D02*
X7143963Y-30658404D01*
X7143963Y-30658404D02*
X7174201Y-30597928D01*
X7174201Y-30597928D02*
X7204439Y-30567690D01*
X7204439Y-30567690D02*
X7264915Y-30537452D01*
X7264915Y-30537452D02*
X7355629Y-30537452D01*
X7355629Y-30537452D02*
X7416105Y-30567690D01*
X7416105Y-30567690D02*
X7446344Y-30597928D01*
X7446344Y-30597928D02*
X7476582Y-30658404D01*
X7476582Y-30658404D02*
X7476582Y-30900309D01*
X7778963Y-30265309D02*
X7143963Y-30265309D01*
X7143963Y-30265309D02*
X7778963Y-29902452D01*
X7778963Y-29902452D02*
X7143963Y-29902452D01*
X7778963Y-29267452D02*
X7778963Y-29630309D01*
X7778963Y-29448881D02*
X7143963Y-29448881D01*
X7143963Y-29448881D02*
X7234677Y-29509357D01*
X7234677Y-29509357D02*
X7295153Y-29569833D01*
X7295153Y-29569833D02*
X7325391Y-29630309D01*
X2698962Y-31111975D02*
X2698962Y-31232928D01*
X2698962Y-31232928D02*
X2729200Y-31293404D01*
X2729200Y-31293404D02*
X2759438Y-31323642D01*
X2759438Y-31323642D02*
X2850152Y-31384118D01*
X2850152Y-31384118D02*
X2971104Y-31414356D01*
X2971104Y-31414356D02*
X3213009Y-31414356D01*
X3213009Y-31414356D02*
X3273485Y-31384118D01*
X3273485Y-31384118D02*
X3303724Y-31353880D01*
X3303724Y-31353880D02*
X3333962Y-31293404D01*
X3333962Y-31293404D02*
X3333962Y-31172451D01*
X3333962Y-31172451D02*
X3303724Y-31111975D01*
X3303724Y-31111975D02*
X3273485Y-31081737D01*
X3273485Y-31081737D02*
X3213009Y-31051499D01*
X3213009Y-31051499D02*
X3061819Y-31051499D01*
X3061819Y-31051499D02*
X3001343Y-31081737D01*
X3001343Y-31081737D02*
X2971104Y-31111975D01*
X2971104Y-31111975D02*
X2940866Y-31172451D01*
X2940866Y-31172451D02*
X2940866Y-31293404D01*
X2940866Y-31293404D02*
X2971104Y-31353880D01*
X2971104Y-31353880D02*
X3001343Y-31384118D01*
X3001343Y-31384118D02*
X3061819Y-31414356D01*
X3273485Y-30779356D02*
X3303724Y-30749118D01*
X3303724Y-30749118D02*
X3333962Y-30779356D01*
X3333962Y-30779356D02*
X3303724Y-30809594D01*
X3303724Y-30809594D02*
X3273485Y-30779356D01*
X3273485Y-30779356D02*
X3333962Y-30779356D01*
X2971104Y-30386261D02*
X2940866Y-30446737D01*
X2940866Y-30446737D02*
X2910628Y-30476975D01*
X2910628Y-30476975D02*
X2850152Y-30507213D01*
X2850152Y-30507213D02*
X2819914Y-30507213D01*
X2819914Y-30507213D02*
X2759438Y-30476975D01*
X2759438Y-30476975D02*
X2729200Y-30446737D01*
X2729200Y-30446737D02*
X2698962Y-30386261D01*
X2698962Y-30386261D02*
X2698962Y-30265308D01*
X2698962Y-30265308D02*
X2729200Y-30204832D01*
X2729200Y-30204832D02*
X2759438Y-30174594D01*
X2759438Y-30174594D02*
X2819914Y-30144356D01*
X2819914Y-30144356D02*
X2850152Y-30144356D01*
X2850152Y-30144356D02*
X2910628Y-30174594D01*
X2910628Y-30174594D02*
X2940866Y-30204832D01*
X2940866Y-30204832D02*
X2971104Y-30265308D01*
X2971104Y-30265308D02*
X2971104Y-30386261D01*
X2971104Y-30386261D02*
X3001343Y-30446737D01*
X3001343Y-30446737D02*
X3031581Y-30476975D01*
X3031581Y-30476975D02*
X3092057Y-30507213D01*
X3092057Y-30507213D02*
X3213009Y-30507213D01*
X3213009Y-30507213D02*
X3273485Y-30476975D01*
X3273485Y-30476975D02*
X3303724Y-30446737D01*
X3303724Y-30446737D02*
X3333962Y-30386261D01*
X3333962Y-30386261D02*
X3333962Y-30265308D01*
X3333962Y-30265308D02*
X3303724Y-30204832D01*
X3303724Y-30204832D02*
X3273485Y-30174594D01*
X3273485Y-30174594D02*
X3213009Y-30144356D01*
X3213009Y-30144356D02*
X3092057Y-30144356D01*
X3092057Y-30144356D02*
X3031581Y-30174594D01*
X3031581Y-30174594D02*
X3001343Y-30204832D01*
X3001343Y-30204832D02*
X2971104Y-30265308D01*
X3333962Y-29872213D02*
X2698962Y-29872213D01*
X3333962Y-29509356D02*
X2971104Y-29781499D01*
X2698962Y-29509356D02*
X3061819Y-29872213D01*
X3333962Y-29267451D02*
X3333962Y-29116261D01*
X3333962Y-29116261D02*
X3213009Y-29116261D01*
X3213009Y-29116261D02*
X3182771Y-29176737D01*
X3182771Y-29176737D02*
X3122295Y-29237213D01*
X3122295Y-29237213D02*
X3031581Y-29267451D01*
X3031581Y-29267451D02*
X2880390Y-29267451D01*
X2880390Y-29267451D02*
X2789676Y-29237213D01*
X2789676Y-29237213D02*
X2729200Y-29176737D01*
X2729200Y-29176737D02*
X2698962Y-29086023D01*
X2698962Y-29086023D02*
X2698962Y-28965070D01*
X2698962Y-28965070D02*
X2729200Y-28874356D01*
X2729200Y-28874356D02*
X2789676Y-28813880D01*
X2789676Y-28813880D02*
X2880390Y-28783642D01*
X2880390Y-28783642D02*
X3031581Y-28783642D01*
X3031581Y-28783642D02*
X3122295Y-28813880D01*
X3122295Y-28813880D02*
X3182771Y-28874356D01*
X3182771Y-28874356D02*
X3213009Y-28934832D01*
X3213009Y-28934832D02*
X3333962Y-28934832D01*
X3333962Y-28934832D02*
X3333962Y-28783642D01*
X13493963Y-30537452D02*
X13191582Y-30749119D01*
X13493963Y-30900309D02*
X12858963Y-30900309D01*
X12858963Y-30900309D02*
X12858963Y-30658404D01*
X12858963Y-30658404D02*
X12889201Y-30597928D01*
X12889201Y-30597928D02*
X12919439Y-30567690D01*
X12919439Y-30567690D02*
X12979915Y-30537452D01*
X12979915Y-30537452D02*
X13070629Y-30537452D01*
X13070629Y-30537452D02*
X13131105Y-30567690D01*
X13131105Y-30567690D02*
X13161344Y-30597928D01*
X13161344Y-30597928D02*
X13191582Y-30658404D01*
X13191582Y-30658404D02*
X13191582Y-30900309D01*
X13493963Y-30265309D02*
X12858963Y-30265309D01*
X12858963Y-30265309D02*
X13493963Y-29902452D01*
X13493963Y-29902452D02*
X12858963Y-29902452D01*
X12919439Y-29630309D02*
X12889201Y-29600071D01*
X12889201Y-29600071D02*
X12858963Y-29539595D01*
X12858963Y-29539595D02*
X12858963Y-29388404D01*
X12858963Y-29388404D02*
X12889201Y-29327928D01*
X12889201Y-29327928D02*
X12919439Y-29297690D01*
X12919439Y-29297690D02*
X12979915Y-29267452D01*
X12979915Y-29267452D02*
X13040391Y-29267452D01*
X13040391Y-29267452D02*
X13131105Y-29297690D01*
X13131105Y-29297690D02*
X13493963Y-29660547D01*
X13493963Y-29660547D02*
X13493963Y-29267452D01*
X8413962Y-31111975D02*
X8413962Y-31232928D01*
X8413962Y-31232928D02*
X8444200Y-31293404D01*
X8444200Y-31293404D02*
X8474438Y-31323642D01*
X8474438Y-31323642D02*
X8565152Y-31384118D01*
X8565152Y-31384118D02*
X8686104Y-31414356D01*
X8686104Y-31414356D02*
X8928009Y-31414356D01*
X8928009Y-31414356D02*
X8988485Y-31384118D01*
X8988485Y-31384118D02*
X9018724Y-31353880D01*
X9018724Y-31353880D02*
X9048962Y-31293404D01*
X9048962Y-31293404D02*
X9048962Y-31172451D01*
X9048962Y-31172451D02*
X9018724Y-31111975D01*
X9018724Y-31111975D02*
X8988485Y-31081737D01*
X8988485Y-31081737D02*
X8928009Y-31051499D01*
X8928009Y-31051499D02*
X8776819Y-31051499D01*
X8776819Y-31051499D02*
X8716343Y-31081737D01*
X8716343Y-31081737D02*
X8686104Y-31111975D01*
X8686104Y-31111975D02*
X8655866Y-31172451D01*
X8655866Y-31172451D02*
X8655866Y-31293404D01*
X8655866Y-31293404D02*
X8686104Y-31353880D01*
X8686104Y-31353880D02*
X8716343Y-31384118D01*
X8716343Y-31384118D02*
X8776819Y-31414356D01*
X8988485Y-30779356D02*
X9018724Y-30749118D01*
X9018724Y-30749118D02*
X9048962Y-30779356D01*
X9048962Y-30779356D02*
X9018724Y-30809594D01*
X9018724Y-30809594D02*
X8988485Y-30779356D01*
X8988485Y-30779356D02*
X9048962Y-30779356D01*
X8686104Y-30386261D02*
X8655866Y-30446737D01*
X8655866Y-30446737D02*
X8625628Y-30476975D01*
X8625628Y-30476975D02*
X8565152Y-30507213D01*
X8565152Y-30507213D02*
X8534914Y-30507213D01*
X8534914Y-30507213D02*
X8474438Y-30476975D01*
X8474438Y-30476975D02*
X8444200Y-30446737D01*
X8444200Y-30446737D02*
X8413962Y-30386261D01*
X8413962Y-30386261D02*
X8413962Y-30265308D01*
X8413962Y-30265308D02*
X8444200Y-30204832D01*
X8444200Y-30204832D02*
X8474438Y-30174594D01*
X8474438Y-30174594D02*
X8534914Y-30144356D01*
X8534914Y-30144356D02*
X8565152Y-30144356D01*
X8565152Y-30144356D02*
X8625628Y-30174594D01*
X8625628Y-30174594D02*
X8655866Y-30204832D01*
X8655866Y-30204832D02*
X8686104Y-30265308D01*
X8686104Y-30265308D02*
X8686104Y-30386261D01*
X8686104Y-30386261D02*
X8716343Y-30446737D01*
X8716343Y-30446737D02*
X8746581Y-30476975D01*
X8746581Y-30476975D02*
X8807057Y-30507213D01*
X8807057Y-30507213D02*
X8928009Y-30507213D01*
X8928009Y-30507213D02*
X8988485Y-30476975D01*
X8988485Y-30476975D02*
X9018724Y-30446737D01*
X9018724Y-30446737D02*
X9048962Y-30386261D01*
X9048962Y-30386261D02*
X9048962Y-30265308D01*
X9048962Y-30265308D02*
X9018724Y-30204832D01*
X9018724Y-30204832D02*
X8988485Y-30174594D01*
X8988485Y-30174594D02*
X8928009Y-30144356D01*
X8928009Y-30144356D02*
X8807057Y-30144356D01*
X8807057Y-30144356D02*
X8746581Y-30174594D01*
X8746581Y-30174594D02*
X8716343Y-30204832D01*
X8716343Y-30204832D02*
X8686104Y-30265308D01*
X9048962Y-29872213D02*
X8413962Y-29872213D01*
X9048962Y-29509356D02*
X8686104Y-29781499D01*
X8413962Y-29509356D02*
X8776819Y-29872213D01*
X9048962Y-29267451D02*
X9048962Y-29116261D01*
X9048962Y-29116261D02*
X8928009Y-29116261D01*
X8928009Y-29116261D02*
X8897771Y-29176737D01*
X8897771Y-29176737D02*
X8837295Y-29237213D01*
X8837295Y-29237213D02*
X8746581Y-29267451D01*
X8746581Y-29267451D02*
X8595390Y-29267451D01*
X8595390Y-29267451D02*
X8504676Y-29237213D01*
X8504676Y-29237213D02*
X8444200Y-29176737D01*
X8444200Y-29176737D02*
X8413962Y-29086023D01*
X8413962Y-29086023D02*
X8413962Y-28965070D01*
X8413962Y-28965070D02*
X8444200Y-28874356D01*
X8444200Y-28874356D02*
X8504676Y-28813880D01*
X8504676Y-28813880D02*
X8595390Y-28783642D01*
X8595390Y-28783642D02*
X8746581Y-28783642D01*
X8746581Y-28783642D02*
X8837295Y-28813880D01*
X8837295Y-28813880D02*
X8897771Y-28874356D01*
X8897771Y-28874356D02*
X8928009Y-28934832D01*
X8928009Y-28934832D02*
X9048962Y-28934832D01*
X9048962Y-28934832D02*
X9048962Y-28783642D01*
X10429119Y-13874963D02*
X10429119Y-13239963D01*
X11094357Y-13814486D02*
X11064119Y-13844725D01*
X11064119Y-13844725D02*
X10973405Y-13874963D01*
X10973405Y-13874963D02*
X10912929Y-13874963D01*
X10912929Y-13874963D02*
X10822214Y-13844725D01*
X10822214Y-13844725D02*
X10761738Y-13784248D01*
X10761738Y-13784248D02*
X10731500Y-13723772D01*
X10731500Y-13723772D02*
X10701262Y-13602820D01*
X10701262Y-13602820D02*
X10701262Y-13512105D01*
X10701262Y-13512105D02*
X10731500Y-13391153D01*
X10731500Y-13391153D02*
X10761738Y-13330677D01*
X10761738Y-13330677D02*
X10822214Y-13270201D01*
X10822214Y-13270201D02*
X10912929Y-13239963D01*
X10912929Y-13239963D02*
X10973405Y-13239963D01*
X10973405Y-13239963D02*
X11064119Y-13270201D01*
X11064119Y-13270201D02*
X11094357Y-13300439D01*
X11699119Y-13874963D02*
X11336262Y-13874963D01*
X11517690Y-13874963D02*
X11517690Y-13239963D01*
X11517690Y-13239963D02*
X11457214Y-13330677D01*
X11457214Y-13330677D02*
X11396738Y-13391153D01*
X11396738Y-13391153D02*
X11336262Y-13421391D01*
X7719785Y-15979534D02*
X8022166Y-15979534D01*
X7659309Y-16160963D02*
X7870975Y-15525963D01*
X7870975Y-15525963D02*
X8082642Y-16160963D01*
X8294309Y-16160963D02*
X8294309Y-15525963D01*
X8294309Y-15525963D02*
X8536214Y-15525963D01*
X8536214Y-15525963D02*
X8596690Y-15556201D01*
X8596690Y-15556201D02*
X8626928Y-15586439D01*
X8626928Y-15586439D02*
X8657166Y-15646915D01*
X8657166Y-15646915D02*
X8657166Y-15737629D01*
X8657166Y-15737629D02*
X8626928Y-15798105D01*
X8626928Y-15798105D02*
X8596690Y-15828344D01*
X8596690Y-15828344D02*
X8536214Y-15858582D01*
X8536214Y-15858582D02*
X8294309Y-15858582D01*
X8868833Y-15525963D02*
X9292166Y-15525963D01*
X9292166Y-15525963D02*
X9020023Y-16160963D01*
X9473595Y-15525963D02*
X9866690Y-15525963D01*
X9866690Y-15525963D02*
X9655023Y-15767867D01*
X9655023Y-15767867D02*
X9745738Y-15767867D01*
X9745738Y-15767867D02*
X9806214Y-15798105D01*
X9806214Y-15798105D02*
X9836452Y-15828344D01*
X9836452Y-15828344D02*
X9866690Y-15888820D01*
X9866690Y-15888820D02*
X9866690Y-16040010D01*
X9866690Y-16040010D02*
X9836452Y-16100486D01*
X9836452Y-16100486D02*
X9806214Y-16130725D01*
X9806214Y-16130725D02*
X9745738Y-16160963D01*
X9745738Y-16160963D02*
X9564309Y-16160963D01*
X9564309Y-16160963D02*
X9503833Y-16130725D01*
X9503833Y-16130725D02*
X9473595Y-16100486D01*
X10410976Y-15525963D02*
X10290023Y-15525963D01*
X10290023Y-15525963D02*
X10229547Y-15556201D01*
X10229547Y-15556201D02*
X10199309Y-15586439D01*
X10199309Y-15586439D02*
X10138833Y-15677153D01*
X10138833Y-15677153D02*
X10108595Y-15798105D01*
X10108595Y-15798105D02*
X10108595Y-16040010D01*
X10108595Y-16040010D02*
X10138833Y-16100486D01*
X10138833Y-16100486D02*
X10169071Y-16130725D01*
X10169071Y-16130725D02*
X10229547Y-16160963D01*
X10229547Y-16160963D02*
X10350500Y-16160963D01*
X10350500Y-16160963D02*
X10410976Y-16130725D01*
X10410976Y-16130725D02*
X10441214Y-16100486D01*
X10441214Y-16100486D02*
X10471452Y-16040010D01*
X10471452Y-16040010D02*
X10471452Y-15888820D01*
X10471452Y-15888820D02*
X10441214Y-15828344D01*
X10441214Y-15828344D02*
X10410976Y-15798105D01*
X10410976Y-15798105D02*
X10350500Y-15767867D01*
X10350500Y-15767867D02*
X10229547Y-15767867D01*
X10229547Y-15767867D02*
X10169071Y-15798105D01*
X10169071Y-15798105D02*
X10138833Y-15828344D01*
X10138833Y-15828344D02*
X10108595Y-15888820D01*
X11045976Y-15525963D02*
X10743595Y-15525963D01*
X10743595Y-15525963D02*
X10713357Y-15828344D01*
X10713357Y-15828344D02*
X10743595Y-15798105D01*
X10743595Y-15798105D02*
X10804071Y-15767867D01*
X10804071Y-15767867D02*
X10955262Y-15767867D01*
X10955262Y-15767867D02*
X11015738Y-15798105D01*
X11015738Y-15798105D02*
X11045976Y-15828344D01*
X11045976Y-15828344D02*
X11076214Y-15888820D01*
X11076214Y-15888820D02*
X11076214Y-16040010D01*
X11076214Y-16040010D02*
X11045976Y-16100486D01*
X11045976Y-16100486D02*
X11015738Y-16130725D01*
X11015738Y-16130725D02*
X10955262Y-16160963D01*
X10955262Y-16160963D02*
X10804071Y-16160963D01*
X10804071Y-16160963D02*
X10743595Y-16130725D01*
X10743595Y-16130725D02*
X10713357Y-16100486D01*
X11924963Y-11393714D02*
X11924963Y-11756571D01*
X11924963Y-11575143D02*
X11289963Y-11575143D01*
X11289963Y-11575143D02*
X11380677Y-11635619D01*
X11380677Y-11635619D02*
X11441153Y-11696095D01*
X11441153Y-11696095D02*
X11471391Y-11756571D01*
X11289963Y-11000619D02*
X11289963Y-10940142D01*
X11289963Y-10940142D02*
X11320201Y-10879666D01*
X11320201Y-10879666D02*
X11350439Y-10849428D01*
X11350439Y-10849428D02*
X11410915Y-10819190D01*
X11410915Y-10819190D02*
X11531867Y-10788952D01*
X11531867Y-10788952D02*
X11683058Y-10788952D01*
X11683058Y-10788952D02*
X11804010Y-10819190D01*
X11804010Y-10819190D02*
X11864486Y-10849428D01*
X11864486Y-10849428D02*
X11894725Y-10879666D01*
X11894725Y-10879666D02*
X11924963Y-10940142D01*
X11924963Y-10940142D02*
X11924963Y-11000619D01*
X11924963Y-11000619D02*
X11894725Y-11061095D01*
X11894725Y-11061095D02*
X11864486Y-11091333D01*
X11864486Y-11091333D02*
X11804010Y-11121571D01*
X11804010Y-11121571D02*
X11683058Y-11151809D01*
X11683058Y-11151809D02*
X11531867Y-11151809D01*
X11531867Y-11151809D02*
X11410915Y-11121571D01*
X11410915Y-11121571D02*
X11350439Y-11091333D01*
X11350439Y-11091333D02*
X11320201Y-11061095D01*
X11320201Y-11061095D02*
X11289963Y-11000619D01*
X11501629Y-10516809D02*
X12136629Y-10516809D01*
X11834248Y-10214428D02*
X11894725Y-10184190D01*
X11894725Y-10184190D02*
X11924963Y-10123714D01*
X11834248Y-10516809D02*
X11894725Y-10486571D01*
X11894725Y-10486571D02*
X11924963Y-10426095D01*
X11924963Y-10426095D02*
X11924963Y-10305142D01*
X11924963Y-10305142D02*
X11894725Y-10244666D01*
X11894725Y-10244666D02*
X11834248Y-10214428D01*
X11834248Y-10214428D02*
X11501629Y-10214428D01*
X11592344Y-9639904D02*
X11592344Y-9851571D01*
X11924963Y-9851571D02*
X11289963Y-9851571D01*
X11289963Y-9851571D02*
X11289963Y-9549190D01*
X7635119Y-19589963D02*
X7635119Y-18954963D01*
X8300357Y-19529486D02*
X8270119Y-19559725D01*
X8270119Y-19559725D02*
X8179405Y-19589963D01*
X8179405Y-19589963D02*
X8118929Y-19589963D01*
X8118929Y-19589963D02*
X8028214Y-19559725D01*
X8028214Y-19559725D02*
X7967738Y-19499248D01*
X7967738Y-19499248D02*
X7937500Y-19438772D01*
X7937500Y-19438772D02*
X7907262Y-19317820D01*
X7907262Y-19317820D02*
X7907262Y-19227105D01*
X7907262Y-19227105D02*
X7937500Y-19106153D01*
X7937500Y-19106153D02*
X7967738Y-19045677D01*
X7967738Y-19045677D02*
X8028214Y-18985201D01*
X8028214Y-18985201D02*
X8118929Y-18954963D01*
X8118929Y-18954963D02*
X8179405Y-18954963D01*
X8179405Y-18954963D02*
X8270119Y-18985201D01*
X8270119Y-18985201D02*
X8300357Y-19015439D01*
X8512024Y-18954963D02*
X8905119Y-18954963D01*
X8905119Y-18954963D02*
X8693452Y-19196867D01*
X8693452Y-19196867D02*
X8784167Y-19196867D01*
X8784167Y-19196867D02*
X8844643Y-19227105D01*
X8844643Y-19227105D02*
X8874881Y-19257344D01*
X8874881Y-19257344D02*
X8905119Y-19317820D01*
X8905119Y-19317820D02*
X8905119Y-19469010D01*
X8905119Y-19469010D02*
X8874881Y-19529486D01*
X8874881Y-19529486D02*
X8844643Y-19559725D01*
X8844643Y-19559725D02*
X8784167Y-19589963D01*
X8784167Y-19589963D02*
X8602738Y-19589963D01*
X8602738Y-19589963D02*
X8542262Y-19559725D01*
X8542262Y-19559725D02*
X8512024Y-19529486D01*
X6864047Y-27590963D02*
X7287380Y-27590963D01*
X7287380Y-27590963D02*
X7015237Y-28225963D01*
X7801428Y-27802629D02*
X7801428Y-28225963D01*
X7650237Y-27560725D02*
X7499047Y-28014296D01*
X7499047Y-28014296D02*
X7892142Y-28014296D01*
X8345714Y-27893344D02*
X8134047Y-27893344D01*
X8134047Y-28225963D02*
X8134047Y-27590963D01*
X8134047Y-27590963D02*
X8436428Y-27590963D01*
X8617857Y-27590963D02*
X9010952Y-27590963D01*
X9010952Y-27590963D02*
X8799285Y-27832867D01*
X8799285Y-27832867D02*
X8890000Y-27832867D01*
X8890000Y-27832867D02*
X8950476Y-27863105D01*
X8950476Y-27863105D02*
X8980714Y-27893344D01*
X8980714Y-27893344D02*
X9010952Y-27953820D01*
X9010952Y-27953820D02*
X9010952Y-28105010D01*
X9010952Y-28105010D02*
X8980714Y-28165486D01*
X8980714Y-28165486D02*
X8950476Y-28195725D01*
X8950476Y-28195725D02*
X8890000Y-28225963D01*
X8890000Y-28225963D02*
X8708571Y-28225963D01*
X8708571Y-28225963D02*
X8648095Y-28195725D01*
X8648095Y-28195725D02*
X8617857Y-28165486D01*
X9404047Y-27590963D02*
X9464524Y-27590963D01*
X9464524Y-27590963D02*
X9525000Y-27621201D01*
X9525000Y-27621201D02*
X9555238Y-27651439D01*
X9555238Y-27651439D02*
X9585476Y-27711915D01*
X9585476Y-27711915D02*
X9615714Y-27832867D01*
X9615714Y-27832867D02*
X9615714Y-27984058D01*
X9615714Y-27984058D02*
X9585476Y-28105010D01*
X9585476Y-28105010D02*
X9555238Y-28165486D01*
X9555238Y-28165486D02*
X9525000Y-28195725D01*
X9525000Y-28195725D02*
X9464524Y-28225963D01*
X9464524Y-28225963D02*
X9404047Y-28225963D01*
X9404047Y-28225963D02*
X9343571Y-28195725D01*
X9343571Y-28195725D02*
X9313333Y-28165486D01*
X9313333Y-28165486D02*
X9283095Y-28105010D01*
X9283095Y-28105010D02*
X9252857Y-27984058D01*
X9252857Y-27984058D02*
X9252857Y-27832867D01*
X9252857Y-27832867D02*
X9283095Y-27711915D01*
X9283095Y-27711915D02*
X9313333Y-27651439D01*
X9313333Y-27651439D02*
X9343571Y-27621201D01*
X9343571Y-27621201D02*
X9404047Y-27590963D01*
X7204119Y-35337963D02*
X7204119Y-34702963D01*
X7869357Y-35277486D02*
X7839119Y-35307725D01*
X7839119Y-35307725D02*
X7748405Y-35337963D01*
X7748405Y-35337963D02*
X7687929Y-35337963D01*
X7687929Y-35337963D02*
X7597214Y-35307725D01*
X7597214Y-35307725D02*
X7536738Y-35247248D01*
X7536738Y-35247248D02*
X7506500Y-35186772D01*
X7506500Y-35186772D02*
X7476262Y-35065820D01*
X7476262Y-35065820D02*
X7476262Y-34975105D01*
X7476262Y-34975105D02*
X7506500Y-34854153D01*
X7506500Y-34854153D02*
X7536738Y-34793677D01*
X7536738Y-34793677D02*
X7597214Y-34733201D01*
X7597214Y-34733201D02*
X7687929Y-34702963D01*
X7687929Y-34702963D02*
X7748405Y-34702963D01*
X7748405Y-34702963D02*
X7839119Y-34733201D01*
X7839119Y-34733201D02*
X7869357Y-34763439D01*
X8413643Y-34914629D02*
X8413643Y-35337963D01*
X8262452Y-34672725D02*
X8111262Y-35126296D01*
X8111262Y-35126296D02*
X8504357Y-35126296D01*
X5858523Y-39909963D02*
X6281856Y-39909963D01*
X6281856Y-39909963D02*
X6009713Y-40544963D01*
X6795904Y-40121629D02*
X6795904Y-40544963D01*
X6644713Y-39879725D02*
X6493523Y-40333296D01*
X6493523Y-40333296D02*
X6886618Y-40333296D01*
X7430904Y-40544963D02*
X7128523Y-40544963D01*
X7128523Y-40544963D02*
X7128523Y-39909963D01*
X7551857Y-39909963D02*
X7763523Y-40544963D01*
X7763523Y-40544963D02*
X7975190Y-39909963D01*
X8549714Y-40484486D02*
X8519476Y-40514725D01*
X8519476Y-40514725D02*
X8428762Y-40544963D01*
X8428762Y-40544963D02*
X8368286Y-40544963D01*
X8368286Y-40544963D02*
X8277571Y-40514725D01*
X8277571Y-40514725D02*
X8217095Y-40454248D01*
X8217095Y-40454248D02*
X8186857Y-40393772D01*
X8186857Y-40393772D02*
X8156619Y-40272820D01*
X8156619Y-40272820D02*
X8156619Y-40182105D01*
X8156619Y-40182105D02*
X8186857Y-40061153D01*
X8186857Y-40061153D02*
X8217095Y-40000677D01*
X8217095Y-40000677D02*
X8277571Y-39940201D01*
X8277571Y-39940201D02*
X8368286Y-39909963D01*
X8368286Y-39909963D02*
X8428762Y-39909963D01*
X8428762Y-39909963D02*
X8519476Y-39940201D01*
X8519476Y-39940201D02*
X8549714Y-39970439D01*
X8761381Y-39909963D02*
X9184714Y-39909963D01*
X9184714Y-39909963D02*
X8912571Y-40544963D01*
X9698762Y-40121629D02*
X9698762Y-40544963D01*
X9547571Y-39879725D02*
X9396381Y-40333296D01*
X9396381Y-40333296D02*
X9789476Y-40333296D01*
X5476119Y-4476963D02*
X5476119Y-3841963D01*
X6141357Y-4416486D02*
X6111119Y-4446725D01*
X6111119Y-4446725D02*
X6020405Y-4476963D01*
X6020405Y-4476963D02*
X5959929Y-4476963D01*
X5959929Y-4476963D02*
X5869214Y-4446725D01*
X5869214Y-4446725D02*
X5808738Y-4386248D01*
X5808738Y-4386248D02*
X5778500Y-4325772D01*
X5778500Y-4325772D02*
X5748262Y-4204820D01*
X5748262Y-4204820D02*
X5748262Y-4114105D01*
X5748262Y-4114105D02*
X5778500Y-3993153D01*
X5778500Y-3993153D02*
X5808738Y-3932677D01*
X5808738Y-3932677D02*
X5869214Y-3872201D01*
X5869214Y-3872201D02*
X5959929Y-3841963D01*
X5959929Y-3841963D02*
X6020405Y-3841963D01*
X6020405Y-3841963D02*
X6111119Y-3872201D01*
X6111119Y-3872201D02*
X6141357Y-3902439D01*
X6715881Y-3841963D02*
X6413500Y-3841963D01*
X6413500Y-3841963D02*
X6383262Y-4144344D01*
X6383262Y-4144344D02*
X6413500Y-4114105D01*
X6413500Y-4114105D02*
X6473976Y-4083867D01*
X6473976Y-4083867D02*
X6625167Y-4083867D01*
X6625167Y-4083867D02*
X6685643Y-4114105D01*
X6685643Y-4114105D02*
X6715881Y-4144344D01*
X6715881Y-4144344D02*
X6746119Y-4204820D01*
X6746119Y-4204820D02*
X6746119Y-4356010D01*
X6746119Y-4356010D02*
X6715881Y-4416486D01*
X6715881Y-4416486D02*
X6685643Y-4446725D01*
X6685643Y-4446725D02*
X6625167Y-4476963D01*
X6625167Y-4476963D02*
X6473976Y-4476963D01*
X6473976Y-4476963D02*
X6413500Y-4446725D01*
X6413500Y-4446725D02*
X6383262Y-4416486D01*
X3495523Y-8921963D02*
X3918856Y-8921963D01*
X3918856Y-8921963D02*
X3646713Y-9556963D01*
X4432904Y-9133629D02*
X4432904Y-9556963D01*
X4281713Y-8891725D02*
X4130523Y-9345296D01*
X4130523Y-9345296D02*
X4523618Y-9345296D01*
X5128380Y-9496486D02*
X5098142Y-9526725D01*
X5098142Y-9526725D02*
X5007428Y-9556963D01*
X5007428Y-9556963D02*
X4946952Y-9556963D01*
X4946952Y-9556963D02*
X4856237Y-9526725D01*
X4856237Y-9526725D02*
X4795761Y-9466248D01*
X4795761Y-9466248D02*
X4765523Y-9405772D01*
X4765523Y-9405772D02*
X4735285Y-9284820D01*
X4735285Y-9284820D02*
X4735285Y-9194105D01*
X4735285Y-9194105D02*
X4765523Y-9073153D01*
X4765523Y-9073153D02*
X4795761Y-9012677D01*
X4795761Y-9012677D02*
X4856237Y-8952201D01*
X4856237Y-8952201D02*
X4946952Y-8921963D01*
X4946952Y-8921963D02*
X5007428Y-8921963D01*
X5007428Y-8921963D02*
X5098142Y-8952201D01*
X5098142Y-8952201D02*
X5128380Y-8982439D01*
X5612190Y-9224344D02*
X5702904Y-9254582D01*
X5702904Y-9254582D02*
X5733142Y-9284820D01*
X5733142Y-9284820D02*
X5763380Y-9345296D01*
X5763380Y-9345296D02*
X5763380Y-9436010D01*
X5763380Y-9436010D02*
X5733142Y-9496486D01*
X5733142Y-9496486D02*
X5702904Y-9526725D01*
X5702904Y-9526725D02*
X5642428Y-9556963D01*
X5642428Y-9556963D02*
X5400523Y-9556963D01*
X5400523Y-9556963D02*
X5400523Y-8921963D01*
X5400523Y-8921963D02*
X5612190Y-8921963D01*
X5612190Y-8921963D02*
X5672666Y-8952201D01*
X5672666Y-8952201D02*
X5702904Y-8982439D01*
X5702904Y-8982439D02*
X5733142Y-9042915D01*
X5733142Y-9042915D02*
X5733142Y-9103391D01*
X5733142Y-9103391D02*
X5702904Y-9163867D01*
X5702904Y-9163867D02*
X5672666Y-9194105D01*
X5672666Y-9194105D02*
X5612190Y-9224344D01*
X5612190Y-9224344D02*
X5400523Y-9224344D01*
X5944809Y-8921963D02*
X6307666Y-8921963D01*
X6126237Y-9556963D02*
X6126237Y-8921963D01*
X6458857Y-8921963D02*
X6851952Y-8921963D01*
X6851952Y-8921963D02*
X6640285Y-9163867D01*
X6640285Y-9163867D02*
X6731000Y-9163867D01*
X6731000Y-9163867D02*
X6791476Y-9194105D01*
X6791476Y-9194105D02*
X6821714Y-9224344D01*
X6821714Y-9224344D02*
X6851952Y-9284820D01*
X6851952Y-9284820D02*
X6851952Y-9436010D01*
X6851952Y-9436010D02*
X6821714Y-9496486D01*
X6821714Y-9496486D02*
X6791476Y-9526725D01*
X6791476Y-9526725D02*
X6731000Y-9556963D01*
X6731000Y-9556963D02*
X6549571Y-9556963D01*
X6549571Y-9556963D02*
X6489095Y-9526725D01*
X6489095Y-9526725D02*
X6458857Y-9496486D01*
X7093857Y-8982439D02*
X7124095Y-8952201D01*
X7124095Y-8952201D02*
X7184571Y-8921963D01*
X7184571Y-8921963D02*
X7335762Y-8921963D01*
X7335762Y-8921963D02*
X7396238Y-8952201D01*
X7396238Y-8952201D02*
X7426476Y-8982439D01*
X7426476Y-8982439D02*
X7456714Y-9042915D01*
X7456714Y-9042915D02*
X7456714Y-9103391D01*
X7456714Y-9103391D02*
X7426476Y-9194105D01*
X7426476Y-9194105D02*
X7063619Y-9556963D01*
X7063619Y-9556963D02*
X7456714Y-9556963D01*
X8031238Y-8921963D02*
X7728857Y-8921963D01*
X7728857Y-8921963D02*
X7698619Y-9224344D01*
X7698619Y-9224344D02*
X7728857Y-9194105D01*
X7728857Y-9194105D02*
X7789333Y-9163867D01*
X7789333Y-9163867D02*
X7940524Y-9163867D01*
X7940524Y-9163867D02*
X8001000Y-9194105D01*
X8001000Y-9194105D02*
X8031238Y-9224344D01*
X8031238Y-9224344D02*
X8061476Y-9284820D01*
X8061476Y-9284820D02*
X8061476Y-9436010D01*
X8061476Y-9436010D02*
X8031238Y-9496486D01*
X8031238Y-9496486D02*
X8001000Y-9526725D01*
X8001000Y-9526725D02*
X7940524Y-9556963D01*
X7940524Y-9556963D02*
X7789333Y-9556963D01*
X7789333Y-9556963D02*
X7728857Y-9526725D01*
X7728857Y-9526725D02*
X7698619Y-9496486D01*
X8273143Y-8921963D02*
X8696476Y-8921963D01*
X8696476Y-8921963D02*
X8424333Y-9556963D01*
X7167486Y-33225834D02*
X7197725Y-33256072D01*
X7197725Y-33256072D02*
X7227963Y-33346786D01*
X7227963Y-33346786D02*
X7227963Y-33407262D01*
X7227963Y-33407262D02*
X7197725Y-33497977D01*
X7197725Y-33497977D02*
X7137248Y-33558453D01*
X7137248Y-33558453D02*
X7076772Y-33588691D01*
X7076772Y-33588691D02*
X6955820Y-33618929D01*
X6955820Y-33618929D02*
X6865105Y-33618929D01*
X6865105Y-33618929D02*
X6744153Y-33588691D01*
X6744153Y-33588691D02*
X6683677Y-33558453D01*
X6683677Y-33558453D02*
X6623201Y-33497977D01*
X6623201Y-33497977D02*
X6592963Y-33407262D01*
X6592963Y-33407262D02*
X6592963Y-33346786D01*
X6592963Y-33346786D02*
X6623201Y-33256072D01*
X6623201Y-33256072D02*
X6653439Y-33225834D01*
X6592963Y-33014167D02*
X6592963Y-32621072D01*
X6592963Y-32621072D02*
X6834867Y-32832739D01*
X6834867Y-32832739D02*
X6834867Y-32742024D01*
X6834867Y-32742024D02*
X6865105Y-32681548D01*
X6865105Y-32681548D02*
X6895344Y-32651310D01*
X6895344Y-32651310D02*
X6955820Y-32621072D01*
X6955820Y-32621072D02*
X7107010Y-32621072D01*
X7107010Y-32621072D02*
X7167486Y-32651310D01*
X7167486Y-32651310D02*
X7197725Y-32681548D01*
X7197725Y-32681548D02*
X7227963Y-32742024D01*
X7227963Y-32742024D02*
X7227963Y-32923453D01*
X7227963Y-32923453D02*
X7197725Y-32983929D01*
X7197725Y-32983929D02*
X7167486Y-33014167D01*
X11334963Y-33570333D02*
X11334963Y-33933190D01*
X11334963Y-33751762D02*
X10699963Y-33751762D01*
X10699963Y-33751762D02*
X10790677Y-33812238D01*
X10790677Y-33812238D02*
X10851153Y-33872714D01*
X10851153Y-33872714D02*
X10881391Y-33933190D01*
X10911629Y-33298190D02*
X11546629Y-33298190D01*
X11244248Y-32995809D02*
X11304725Y-32965571D01*
X11304725Y-32965571D02*
X11334963Y-32905095D01*
X11244248Y-33298190D02*
X11304725Y-33267952D01*
X11304725Y-33267952D02*
X11334963Y-33207476D01*
X11334963Y-33207476D02*
X11334963Y-33086523D01*
X11334963Y-33086523D02*
X11304725Y-33026047D01*
X11304725Y-33026047D02*
X11244248Y-32995809D01*
X11244248Y-32995809D02*
X10911629Y-32995809D01*
X11002344Y-32421285D02*
X11002344Y-32632952D01*
X11334963Y-32632952D02*
X10699963Y-32632952D01*
X10699963Y-32632952D02*
X10699963Y-32330571D01*
X5476119Y-13747963D02*
X5476119Y-13112963D01*
X6141357Y-13687486D02*
X6111119Y-13717725D01*
X6111119Y-13717725D02*
X6020405Y-13747963D01*
X6020405Y-13747963D02*
X5959929Y-13747963D01*
X5959929Y-13747963D02*
X5869214Y-13717725D01*
X5869214Y-13717725D02*
X5808738Y-13657248D01*
X5808738Y-13657248D02*
X5778500Y-13596772D01*
X5778500Y-13596772D02*
X5748262Y-13475820D01*
X5748262Y-13475820D02*
X5748262Y-13385105D01*
X5748262Y-13385105D02*
X5778500Y-13264153D01*
X5778500Y-13264153D02*
X5808738Y-13203677D01*
X5808738Y-13203677D02*
X5869214Y-13143201D01*
X5869214Y-13143201D02*
X5959929Y-13112963D01*
X5959929Y-13112963D02*
X6020405Y-13112963D01*
X6020405Y-13112963D02*
X6111119Y-13143201D01*
X6111119Y-13143201D02*
X6141357Y-13173439D01*
X6383262Y-13173439D02*
X6413500Y-13143201D01*
X6413500Y-13143201D02*
X6473976Y-13112963D01*
X6473976Y-13112963D02*
X6625167Y-13112963D01*
X6625167Y-13112963D02*
X6685643Y-13143201D01*
X6685643Y-13143201D02*
X6715881Y-13173439D01*
X6715881Y-13173439D02*
X6746119Y-13233915D01*
X6746119Y-13233915D02*
X6746119Y-13294391D01*
X6746119Y-13294391D02*
X6715881Y-13385105D01*
X6715881Y-13385105D02*
X6353024Y-13747963D01*
X6353024Y-13747963D02*
X6746119Y-13747963D01*
X3504595Y-15271963D02*
X3444119Y-15392915D01*
X4109357Y-15906963D02*
X3746500Y-15906963D01*
X3927928Y-15906963D02*
X3927928Y-15271963D01*
X3927928Y-15271963D02*
X3867452Y-15362677D01*
X3867452Y-15362677D02*
X3806976Y-15423153D01*
X3806976Y-15423153D02*
X3746500Y-15453391D01*
X4714119Y-15302201D02*
X4653643Y-15271963D01*
X4653643Y-15271963D02*
X4562929Y-15271963D01*
X4562929Y-15271963D02*
X4472214Y-15302201D01*
X4472214Y-15302201D02*
X4411738Y-15362677D01*
X4411738Y-15362677D02*
X4381500Y-15423153D01*
X4381500Y-15423153D02*
X4351262Y-15544105D01*
X4351262Y-15544105D02*
X4351262Y-15634820D01*
X4351262Y-15634820D02*
X4381500Y-15755772D01*
X4381500Y-15755772D02*
X4411738Y-15816248D01*
X4411738Y-15816248D02*
X4472214Y-15876725D01*
X4472214Y-15876725D02*
X4562929Y-15906963D01*
X4562929Y-15906963D02*
X4623405Y-15906963D01*
X4623405Y-15906963D02*
X4714119Y-15876725D01*
X4714119Y-15876725D02*
X4744357Y-15846486D01*
X4744357Y-15846486D02*
X4744357Y-15634820D01*
X4744357Y-15634820D02*
X4623405Y-15634820D01*
X5137452Y-15271963D02*
X5197929Y-15271963D01*
X5197929Y-15271963D02*
X5258405Y-15302201D01*
X5258405Y-15302201D02*
X5288643Y-15332439D01*
X5288643Y-15332439D02*
X5318881Y-15392915D01*
X5318881Y-15392915D02*
X5349119Y-15513867D01*
X5349119Y-15513867D02*
X5349119Y-15665058D01*
X5349119Y-15665058D02*
X5318881Y-15786010D01*
X5318881Y-15786010D02*
X5288643Y-15846486D01*
X5288643Y-15846486D02*
X5258405Y-15876725D01*
X5258405Y-15876725D02*
X5197929Y-15906963D01*
X5197929Y-15906963D02*
X5137452Y-15906963D01*
X5137452Y-15906963D02*
X5076976Y-15876725D01*
X5076976Y-15876725D02*
X5046738Y-15846486D01*
X5046738Y-15846486D02*
X5016500Y-15786010D01*
X5016500Y-15786010D02*
X4986262Y-15665058D01*
X4986262Y-15665058D02*
X4986262Y-15513867D01*
X4986262Y-15513867D02*
X5016500Y-15392915D01*
X5016500Y-15392915D02*
X5046738Y-15332439D01*
X5046738Y-15332439D02*
X5076976Y-15302201D01*
X5076976Y-15302201D02*
X5137452Y-15271963D01*
X5893405Y-15483629D02*
X5893405Y-15906963D01*
X5742214Y-15241725D02*
X5591024Y-15695296D01*
X5591024Y-15695296D02*
X5984119Y-15695296D01*
X6635963Y-17695333D02*
X6635963Y-18058190D01*
X6635963Y-17876762D02*
X6000963Y-17876762D01*
X6000963Y-17876762D02*
X6091677Y-17937238D01*
X6091677Y-17937238D02*
X6152153Y-17997714D01*
X6152153Y-17997714D02*
X6182391Y-18058190D01*
X6212629Y-17423190D02*
X6847629Y-17423190D01*
X6545248Y-17120809D02*
X6605725Y-17090571D01*
X6605725Y-17090571D02*
X6635963Y-17030095D01*
X6545248Y-17423190D02*
X6605725Y-17392952D01*
X6605725Y-17392952D02*
X6635963Y-17332476D01*
X6635963Y-17332476D02*
X6635963Y-17211523D01*
X6635963Y-17211523D02*
X6605725Y-17151047D01*
X6605725Y-17151047D02*
X6545248Y-17120809D01*
X6545248Y-17120809D02*
X6212629Y-17120809D01*
X6303344Y-16546285D02*
X6303344Y-16757952D01*
X6635963Y-16757952D02*
X6000963Y-16757952D01*
X6000963Y-16757952D02*
X6000963Y-16455571D01*
X12101285Y-15779963D02*
X11738428Y-15779963D01*
X11919856Y-15779963D02*
X11919856Y-15144963D01*
X11919856Y-15144963D02*
X11859380Y-15235677D01*
X11859380Y-15235677D02*
X11798904Y-15296153D01*
X11798904Y-15296153D02*
X11738428Y-15326391D01*
X12494380Y-15144963D02*
X12554857Y-15144963D01*
X12554857Y-15144963D02*
X12615333Y-15175201D01*
X12615333Y-15175201D02*
X12645571Y-15205439D01*
X12645571Y-15205439D02*
X12675809Y-15265915D01*
X12675809Y-15265915D02*
X12706047Y-15386867D01*
X12706047Y-15386867D02*
X12706047Y-15538058D01*
X12706047Y-15538058D02*
X12675809Y-15659010D01*
X12675809Y-15659010D02*
X12645571Y-15719486D01*
X12645571Y-15719486D02*
X12615333Y-15749725D01*
X12615333Y-15749725D02*
X12554857Y-15779963D01*
X12554857Y-15779963D02*
X12494380Y-15779963D01*
X12494380Y-15779963D02*
X12433904Y-15749725D01*
X12433904Y-15749725D02*
X12403666Y-15719486D01*
X12403666Y-15719486D02*
X12373428Y-15659010D01*
X12373428Y-15659010D02*
X12343190Y-15538058D01*
X12343190Y-15538058D02*
X12343190Y-15386867D01*
X12343190Y-15386867D02*
X12373428Y-15265915D01*
X12373428Y-15265915D02*
X12403666Y-15205439D01*
X12403666Y-15205439D02*
X12433904Y-15175201D01*
X12433904Y-15175201D02*
X12494380Y-15144963D01*
X12978190Y-15356629D02*
X12978190Y-15991629D01*
X13280571Y-15689248D02*
X13310809Y-15749725D01*
X13310809Y-15749725D02*
X13371285Y-15779963D01*
X12978190Y-15689248D02*
X13008428Y-15749725D01*
X13008428Y-15749725D02*
X13068904Y-15779963D01*
X13068904Y-15779963D02*
X13189857Y-15779963D01*
X13189857Y-15779963D02*
X13250333Y-15749725D01*
X13250333Y-15749725D02*
X13280571Y-15689248D01*
X13280571Y-15689248D02*
X13280571Y-15356629D01*
X13855095Y-15447344D02*
X13643428Y-15447344D01*
X13643428Y-15779963D02*
X13643428Y-15144963D01*
X13643428Y-15144963D02*
X13945809Y-15144963D01*
D12*
%TO.C,C1*%
X5198252Y-11403000D02*
X4675748Y-11403000D01*
X5198252Y-9933000D02*
X4675748Y-9933000D01*
%TO.C,C4*%
X6423252Y-3021000D02*
X5900748Y-3021000D01*
X6423252Y-1551000D02*
X5900748Y-1551000D01*
D13*
%TO.C,RN1*%
X6807000Y-30370000D02*
X6807000Y-29770000D01*
X3607000Y-30370000D02*
X3607000Y-29770000D01*
%TO.C,RN2*%
X12522000Y-30370000D02*
X12522000Y-29770000D01*
X9322000Y-30370000D02*
X9322000Y-29770000D01*
D11*
%TO.C,IC1*%
X9900000Y-15089000D02*
X9150000Y-15089000D01*
X9900000Y-12089000D02*
X9900000Y-15089000D01*
X9150000Y-15089000D02*
X9150000Y-12089000D01*
X9150000Y-12089000D02*
X9900000Y-12089000D01*
X7650000Y-12089000D02*
X8800000Y-12089000D01*
D12*
%TO.C,C10*%
X9279748Y-11403000D02*
X9802252Y-11403000D01*
X9279748Y-9933000D02*
X9802252Y-9933000D01*
D11*
%TO.C,IC3*%
X9855000Y-27312000D02*
X6655000Y-27312000D01*
X9855000Y-18662000D02*
X9855000Y-27312000D01*
X6655000Y-27312000D02*
X6655000Y-18662000D01*
X6655000Y-18662000D02*
X9855000Y-18662000D01*
X4755000Y-18502000D02*
X6305000Y-18502000D01*
%TO.C,IC4*%
X9674000Y-39457000D02*
X5974000Y-39457000D01*
X9674000Y-34457000D02*
X9674000Y-39457000D01*
X5974000Y-39457000D02*
X5974000Y-34457000D01*
X5974000Y-34457000D02*
X9674000Y-34457000D01*
X4149000Y-34432000D02*
X5624000Y-34432000D01*
%TO.C,IC5*%
X7946000Y-8596000D02*
X4246000Y-8596000D01*
X7946000Y-3596000D02*
X7946000Y-8596000D01*
X4246000Y-8596000D02*
X4246000Y-3596000D01*
X4246000Y-3596000D02*
X7946000Y-3596000D01*
X2421000Y-3246000D02*
X3896000Y-3246000D01*
D12*
%TO.C,C3*%
X9262252Y-33882000D02*
X8739748Y-33882000D01*
X9262252Y-32412000D02*
X8739748Y-32412000D01*
D11*
%TO.C,IC2*%
X4974000Y-14962000D02*
X4424000Y-14962000D01*
X4974000Y-11962000D02*
X4974000Y-14962000D01*
X4424000Y-14962000D02*
X4424000Y-11962000D01*
X4424000Y-11962000D02*
X4974000Y-11962000D01*
X2824000Y-11962000D02*
X4074000Y-11962000D01*
D12*
%TO.C,C6*%
X8881252Y-18007000D02*
X8358748Y-18007000D01*
X8881252Y-16537000D02*
X8358748Y-16537000D01*
%TO.C,C11*%
X13562000Y-13089748D02*
X13562000Y-13612252D01*
X12092000Y-13089748D02*
X12092000Y-13612252D01*
%TD*%
M02*
