M48
; DRILL file {KiCad 7.0.5} date Wed Jan 10 12:53:27 2024
; FORMAT={-:-/ absolute / inch / decimal}
; #@! TF.CreationDate,2024-01-10T12:53:27+02:00
; #@! TF.GenerationSoftware,Kicad,Pcbnew,7.0.5
; #@! TF.FileFunction,Plated,1,2,PTH
FMAT,2
INCH
; #@! TA.AperFunction,Plated,PTH,ViaDrill
T1C0.0157
; #@! TA.AperFunction,Plated,PTH,ComponentDrill
T2C0.0394
%
G90
G05
T1
X3.4306Y-3.6458
X3.46Y-3.96
X3.4632Y-3.4808
X3.465Y-3.08
X3.483Y-3.873
X3.4919Y-3.0481
X3.4948Y-3.4489
X3.505Y-4.625
X3.5069Y-3.3619
X3.5079Y-3.7906
X3.525Y-3.72
X3.53Y-2.985
X3.53Y-3.33
X3.535Y-2.945
X3.56Y-4.7295
X3.5898Y-3.6356
X3.595Y-2.895
X3.595Y-3.26
X3.61Y-4.55
X3.6144Y-3.6049
X3.638Y-3.7615
X3.644Y-3.8089
X3.6537Y-3.6021
X3.656Y-4.1339
X3.6563Y-4.0525
X3.6574Y-4.1732
X3.6752Y-3.85
X3.676Y-4.388
X3.6763Y-4.3144
X3.6805Y-3.1
X3.685Y-3.46
X3.6962Y-4.2803
X3.7052Y-3.8214
X3.7097Y-4.0673
X3.71Y-3.065
X3.7117Y-4.441
X3.7126Y-4.11
X3.7127Y-4.2446
X3.7189Y-3.415
X3.7191Y-4.3301
X3.7208Y-3.3348
X3.7262Y-4.3991
X3.7301Y-3.7769
X3.7312Y-4.0319
X3.7321Y-3.0
X3.7356Y-3.3748
X3.7404Y-3.7389
X3.7405Y-4.4687
X3.747Y-4.3646
X3.7597Y-2.9694
X3.7697Y-4.495
X3.7698Y-3.1465
X3.7793Y-3.9124
X3.7863Y-4.1918
X3.81Y-3.54
X3.825Y-3.1776
X3.8377Y-3.9676
X3.86Y-4.505
X3.8633Y-3.5477
X3.8686Y-3.7021
X3.87Y-4.225
X3.875Y-2.9129
X3.875Y-3.285
X3.878Y-3.627
X3.88Y-3.37
X3.8916Y-4.6634
X3.9139Y-4.04
X3.9149Y-4.3201
X3.925Y-3.635
X3.925Y-4.455
X3.945Y-4.25
X3.95Y-3.975
T2
X3.4Y-2.8
X3.4Y-2.9
X3.4Y-3.0
X3.4Y-3.1
X3.4Y-3.2
X3.4Y-3.3
X3.4Y-3.4
X3.4Y-3.5
X3.4Y-3.6
X3.4Y-3.7
X3.4Y-3.8
X3.4Y-3.9
X3.4Y-4.0
X3.4Y-4.1
X3.4Y-4.2
X3.4Y-4.3
X3.4Y-4.4
X3.4Y-4.5
X3.4Y-4.6
X3.4Y-4.7
X4.0Y-2.8
X4.0Y-2.9
X4.0Y-3.0
X4.0Y-3.1
X4.0Y-3.2
X4.0Y-3.3
X4.0Y-3.4
X4.0Y-3.5
X4.0Y-3.6
X4.0Y-3.7
X4.0Y-3.8
X4.0Y-3.9
X4.0Y-4.0
X4.0Y-4.1
X4.0Y-4.2
X4.0Y-4.3
X4.0Y-4.4
X4.0Y-4.5
X4.0Y-4.6
X4.0Y-4.7
T0
M30
