%TF.GenerationSoftware,KiCad,Pcbnew,7.0.5*%
%TF.CreationDate,2024-03-06T08:42:59+02:00*%
%TF.ProjectId,Selector 18bit,53656c65-6374-46f7-9220-31386269742e,V1*%
%TF.SameCoordinates,PX525bfc0PY43d3480*%
%TF.FileFunction,Copper,L2,Bot*%
%TF.FilePolarity,Positive*%
%FSLAX46Y46*%
G04 Gerber Fmt 4.6, Leading zero omitted, Abs format (unit mm)*
G04 Created by KiCad (PCBNEW 7.0.5) date 2024-03-06 08:42:59*
%MOMM*%
%LPD*%
G01*
G04 APERTURE LIST*
G04 Aperture macros list*
%AMRoundRect*
0 Rectangle with rounded corners*
0 $1 Rounding radius*
0 $2 $3 $4 $5 $6 $7 $8 $9 X,Y pos of 4 corners*
0 Add a 4 corners polygon primitive as box body*
4,1,4,$2,$3,$4,$5,$6,$7,$8,$9,$2,$3,0*
0 Add four circle primitives for the rounded corners*
1,1,$1+$1,$2,$3*
1,1,$1+$1,$4,$5*
1,1,$1+$1,$6,$7*
1,1,$1+$1,$8,$9*
0 Add four rect primitives between the rounded corners*
20,1,$1+$1,$2,$3,$4,$5,0*
20,1,$1+$1,$4,$5,$6,$7,0*
20,1,$1+$1,$6,$7,$8,$9,0*
20,1,$1+$1,$8,$9,$2,$3,0*%
G04 Aperture macros list end*
%TA.AperFunction,ComponentPad*%
%ADD10R,1.600000X1.600000*%
%TD*%
%TA.AperFunction,ComponentPad*%
%ADD11O,1.600000X1.600000*%
%TD*%
%TA.AperFunction,ComponentPad*%
%ADD12RoundRect,0.400000X-0.400000X-0.400000X0.400000X-0.400000X0.400000X0.400000X-0.400000X0.400000X0*%
%TD*%
%TA.AperFunction,ViaPad*%
%ADD13C,0.800000*%
%TD*%
%TA.AperFunction,Conductor*%
%ADD14C,0.200000*%
%TD*%
%TA.AperFunction,Conductor*%
%ADD15C,0.380000*%
%TD*%
G04 APERTURE END LIST*
D10*
%TO.P,J2,1,Pin_1*%
%TO.N,A13*%
X0Y0D03*
D11*
%TO.P,J2,2,Pin_2*%
%TO.N,A12*%
X0Y-2540000D03*
D12*
%TO.P,J2,3,Pin_3*%
%TO.N,5V*%
X0Y-5080000D03*
D11*
%TO.P,J2,4,Pin_4*%
%TO.N,A11*%
X0Y-7620000D03*
%TO.P,J2,5,Pin_5*%
%TO.N,A10*%
X0Y-10160000D03*
%TO.P,J2,6,Pin_6*%
%TO.N,A9*%
X0Y-12700000D03*
%TO.P,J2,7,Pin_7*%
%TO.N,A8*%
X0Y-15240000D03*
%TO.P,J2,8,Pin_8*%
%TO.N,A7*%
X0Y-17780000D03*
%TO.P,J2,9,Pin_9*%
%TO.N,A6*%
X0Y-20320000D03*
D10*
%TO.P,J2,10,Pin_10*%
%TO.N,GND*%
X0Y-22860000D03*
D11*
%TO.P,J2,11,Pin_11*%
%TO.N,A5*%
X0Y-25400000D03*
%TO.P,J2,12,Pin_12*%
%TO.N,A4*%
X0Y-27940000D03*
%TO.P,J2,13,Pin_13*%
%TO.N,A3*%
X0Y-30480000D03*
%TO.P,J2,14,Pin_14*%
%TO.N,A2*%
X0Y-33020000D03*
%TO.P,J2,15,Pin_15*%
%TO.N,A1*%
X0Y-35560000D03*
%TO.P,J2,16,Pin_16*%
%TO.N,A0*%
X0Y-38100000D03*
%TO.P,J2,17,Pin_17*%
%TO.N,S*%
X0Y-40640000D03*
%TO.P,J2,18,Pin_18*%
%TO.N,unconnected-(J2-Pin_18-Pad18)*%
X0Y-43180000D03*
%TO.P,J2,19,Pin_19*%
%TO.N,B17*%
X0Y-45720000D03*
%TO.P,J2,20,Pin_20*%
%TO.N,B16*%
X0Y-48260000D03*
%TO.P,J2,21,Pin_21*%
%TO.N,B15*%
X0Y-50800000D03*
%TO.P,J2,22,Pin_22*%
%TO.N,B14*%
X0Y-53340000D03*
D10*
%TO.P,J2,23,Pin_23*%
%TO.N,GND*%
X0Y-55880000D03*
D11*
%TO.P,J2,24,Pin_24*%
%TO.N,B13*%
X0Y-58420000D03*
%TO.P,J2,25,Pin_25*%
%TO.N,B12*%
X0Y-60960000D03*
%TO.P,J2,26,Pin_26*%
%TO.N,B11*%
X0Y-63500000D03*
%TO.P,J2,27,Pin_27*%
%TO.N,B10*%
X0Y-66040000D03*
%TO.P,J2,28,Pin_28*%
%TO.N,B9*%
X0Y-68580000D03*
%TO.P,J2,29,Pin_29*%
%TO.N,B8*%
X0Y-71120000D03*
%TO.P,J2,30,Pin_30*%
%TO.N,B7*%
X0Y-73660000D03*
%TO.P,J2,31,Pin_31*%
%TO.N,B6*%
X0Y-76200000D03*
%TO.P,J2,32,Pin_32*%
%TO.N,B5*%
X0Y-78740000D03*
%TO.P,J2,33,Pin_33*%
%TO.N,B0*%
X15240000Y-78740000D03*
%TO.P,J2,34,Pin_34*%
%TO.N,B1*%
X15240000Y-76200000D03*
D12*
%TO.P,J2,35,Pin_35*%
%TO.N,5V*%
X15240000Y-73660000D03*
D11*
%TO.P,J2,36,Pin_36*%
%TO.N,B2*%
X15240000Y-71120000D03*
%TO.P,J2,37,Pin_37*%
%TO.N,B3*%
X15240000Y-68580000D03*
%TO.P,J2,38,Pin_38*%
%TO.N,B4*%
X15240000Y-66040000D03*
%TO.P,J2,39,Pin_39*%
%TO.N,unconnected-(J2-Pin_39-Pad39)*%
X15240000Y-63500000D03*
%TO.P,J2,40,Pin_40*%
%TO.N,unconnected-(J2-Pin_40-Pad40)*%
X15240000Y-60960000D03*
%TO.P,J2,41,Pin_41*%
%TO.N,Y0*%
X15240000Y-58420000D03*
D10*
%TO.P,J2,42,Pin_42*%
%TO.N,GND*%
X15240000Y-55880000D03*
D11*
%TO.P,J2,43,Pin_43*%
%TO.N,Y1*%
X15240000Y-53340000D03*
%TO.P,J2,44,Pin_44*%
%TO.N,Y2*%
X15240000Y-50800000D03*
%TO.P,J2,45,Pin_45*%
%TO.N,Y3*%
X15240000Y-48260000D03*
%TO.P,J2,46,Pin_46*%
%TO.N,Y4*%
X15240000Y-45720000D03*
%TO.P,J2,47,Pin_47*%
%TO.N,Y5*%
X15240000Y-43180000D03*
%TO.P,J2,48,Pin_48*%
%TO.N,Y6*%
X15240000Y-40640000D03*
%TO.P,J2,49,Pin_49*%
%TO.N,Y7*%
X15240000Y-38100000D03*
%TO.P,J2,50,Pin_50*%
%TO.N,Y8*%
X15240000Y-35560000D03*
%TO.P,J2,51,Pin_51*%
%TO.N,Y9*%
X15240000Y-33020000D03*
%TO.P,J2,52,Pin_52*%
%TO.N,Y10*%
X15240000Y-30480000D03*
%TO.P,J2,53,Pin_53*%
%TO.N,Y11*%
X15240000Y-27940000D03*
%TO.P,J2,54,Pin_54*%
%TO.N,Y12*%
X15240000Y-25400000D03*
D10*
%TO.P,J2,55,Pin_55*%
%TO.N,GND*%
X15240000Y-22860000D03*
D11*
%TO.P,J2,56,Pin_56*%
%TO.N,Y13*%
X15240000Y-20320000D03*
%TO.P,J2,57,Pin_57*%
%TO.N,Y14*%
X15240000Y-17780000D03*
%TO.P,J2,58,Pin_58*%
%TO.N,Y15*%
X15240000Y-15240000D03*
%TO.P,J2,59,Pin_59*%
%TO.N,Y16*%
X15240000Y-12700000D03*
%TO.P,J2,60,Pin_60*%
%TO.N,Y17*%
X15240000Y-10160000D03*
%TO.P,J2,61,Pin_61*%
%TO.N,A14*%
X15240000Y-7620000D03*
%TO.P,J2,62,Pin_62*%
%TO.N,A15*%
X15240000Y-5080000D03*
%TO.P,J2,63,Pin_63*%
%TO.N,A16*%
X15240000Y-2540000D03*
%TO.P,J2,64,Pin_64*%
%TO.N,A17*%
X15240000Y0D03*
%TD*%
D13*
%TO.N,/3.3V*%
X11049000Y-3240000D03*
X10541000Y-76073000D03*
X10799000Y-26924000D03*
X11346000Y-36703000D03*
X11766000Y-48513033D03*
X11049000Y-13716006D03*
%TO.N,GND*%
X12699998Y-77470000D03*
X14463696Y-39264456D03*
X9667815Y-4460821D03*
X8450931Y-13718652D03*
%TO.N,5V*%
X4348004Y-78740000D03*
%TO.N,A3*%
X1937500Y-30955500D03*
X8701018Y-47244000D03*
X9566000Y-52330004D03*
X2200000Y-46990000D03*
%TO.N,S*%
X3810000Y-5842000D03*
X5015000Y-26670000D03*
X4793000Y-50193000D03*
X4866356Y-38740365D03*
X4507000Y-15747990D03*
%TO.N,A15*%
X12840847Y-17834000D03*
%TO.N,A16*%
X8862000Y-6841624D03*
%TO.N,A17*%
X8199005Y-8579995D03*
%TO.N,B4*%
X6147206Y-28692992D03*
X5149998Y-65786000D03*
%TO.N,Y4*%
X13208002Y-45974000D03*
X11331000Y-33199731D03*
X7751030Y-33401000D03*
X6486618Y-29639672D03*
%TO.N,A5*%
X1216298Y-29466535D03*
%TO.N,B5*%
X6352420Y-30630629D03*
X7559227Y-75764998D03*
%TO.N,Y5*%
X13039990Y-43053000D03*
X12065000Y-26797000D03*
%TO.N,A0*%
X6135344Y-51578630D03*
X6870856Y-37736097D03*
%TO.N,A1*%
X1492417Y-53625583D03*
%TO.N,A2*%
X7898000Y-54415429D03*
X6223000Y-33528000D03*
%TO.N,B6*%
X10160000Y-72009000D03*
X9472936Y-31372342D03*
%TO.N,A6*%
X9943969Y-22169000D03*
X9474113Y-30372340D03*
%TO.N,Y7*%
X14478000Y-29210000D03*
%TO.N,B7*%
X9072940Y-29456335D03*
X9779000Y-70485000D03*
%TO.N,A7*%
X2361001Y-24384002D03*
X9072551Y-24177000D03*
X9072940Y-28456333D03*
%TO.N,B0*%
X6220000Y-74676006D03*
X6277547Y-52615220D03*
%TO.N,Y0*%
X2593000Y-58547000D03*
X2652703Y-52805969D03*
%TO.N,B1*%
X6274718Y-53615219D03*
X6920000Y-73279000D03*
%TO.N,Y1*%
X13168601Y-57305000D03*
X6287112Y-54615145D03*
X6287100Y-57214112D03*
%TO.N,Y2*%
X12746000Y-55598000D03*
X13208000Y-50673000D03*
%TO.N,B2*%
X14162028Y-54533475D03*
%TO.N,Y3*%
X13755041Y-52960562D03*
%TO.N,B3*%
X12346000Y-52800051D03*
X12346001Y-68707000D03*
%TO.N,A8*%
X5207000Y-14986000D03*
X5865929Y-38711071D03*
%TO.N,B8*%
X6140902Y-40762543D03*
%TO.N,Y8*%
X3870856Y-35586514D03*
X3513417Y-40925307D03*
%TO.N,A9*%
X3253960Y-41891064D03*
%TO.N,B9*%
X3465336Y-42868471D03*
%TO.N,Y9*%
X2664125Y-43660000D03*
X2333682Y-34464682D03*
%TO.N,Y10*%
X13117906Y-44142347D03*
X12492103Y-30903378D03*
%TO.N,B10*%
X8763000Y-64643000D03*
X8508992Y-44069000D03*
%TO.N,A10*%
X7304000Y-13970000D03*
X8650426Y-43079049D03*
%TO.N,Y11*%
X13985819Y-41386182D03*
%TO.N,B11*%
X9392905Y-42409176D03*
X9695000Y-63500000D03*
%TO.N,A11*%
X9134103Y-36322387D03*
X3052847Y-36167000D03*
X9558018Y-40894000D03*
%TO.N,A12*%
X4593638Y-2772374D03*
X6604000Y-16383000D03*
%TO.N,B12*%
X8087112Y-61136757D03*
X6997915Y-17302150D03*
%TO.N,Y12*%
X6858000Y-23749000D03*
X6896272Y-18317396D03*
%TO.N,A13*%
X6173389Y-19008371D03*
%TO.N,B13*%
X1918025Y-19417975D03*
%TO.N,Y13*%
X6417877Y-19978026D03*
X6361061Y-21558026D03*
%TO.N,Y14*%
X13462000Y-20574000D03*
%TO.N,B14*%
X2600016Y-45850000D03*
X12065000Y-20294000D03*
X2540000Y-51435000D03*
X13716000Y-44958000D03*
%TO.N,A14*%
X13462000Y-13273000D03*
X9630595Y-19665523D03*
X9992406Y-13294406D03*
%TO.N,Y15*%
X13397000Y-18935559D03*
%TO.N,B15*%
X9958000Y-48133000D03*
X9271000Y-18415000D03*
%TO.N,B16*%
X3682992Y-7238992D03*
X4393000Y-47752000D03*
%TO.N,Y16*%
X7462000Y-7747000D03*
X7366000Y-12700000D03*
%TO.N,B17*%
X3107000Y-9207504D03*
X3993000Y-44986010D03*
%TO.N,Y17*%
X8636000Y-12319000D03*
X8636000Y-9652000D03*
%TD*%
D14*
%TO.N,B14*%
X2600016Y-45850000D02*
X2921000Y-46170984D01*
%TO.N,A1*%
X1100000Y-37596691D02*
X1100000Y-53233166D01*
X0Y-36496691D02*
X1100000Y-37596691D01*
X0Y-35560000D02*
X0Y-36496691D01*
%TO.N,B14*%
X2921000Y-46170984D02*
X2921000Y-51054000D01*
%TO.N,B13*%
X1661001Y-19674999D02*
X1918025Y-19417975D01*
X1661001Y-24673952D02*
X1661001Y-19674999D01*
X1100000Y-37031005D02*
X1100000Y-30595107D01*
X1500000Y-37431005D02*
X1100000Y-37031005D01*
X1500000Y-52643216D02*
X1500000Y-37431005D01*
X2224000Y-53367216D02*
X1500000Y-52643216D01*
X2224000Y-56196000D02*
X2224000Y-53367216D01*
%TO.N,B14*%
X2921000Y-51054000D02*
X2540000Y-51435000D01*
%TO.N,B13*%
X0Y-58420000D02*
X2224000Y-56196000D01*
%TO.N,Y0*%
X2893000Y-53046266D02*
X2652703Y-52805969D01*
X2893000Y-58247000D02*
X2893000Y-53046266D01*
X2593000Y-58547000D02*
X2893000Y-58247000D01*
%TO.N,B13*%
X1916298Y-24929249D02*
X1661001Y-24673952D01*
%TO.N,A1*%
X1100000Y-53233166D02*
X1492417Y-53625583D01*
%TO.N,B13*%
X1100000Y-30595107D02*
X1916298Y-29778809D01*
%TO.N,B9*%
X3465336Y-44514614D02*
X3465336Y-42868471D01*
X3621000Y-45881034D02*
X3293000Y-45553034D01*
%TO.N,B13*%
X1916298Y-29778809D02*
X1916298Y-24929249D01*
%TO.N,B9*%
X3621000Y-64959000D02*
X3621000Y-45881034D01*
X3293000Y-44686950D02*
X3465336Y-44514614D01*
X0Y-68580000D02*
X3621000Y-64959000D01*
X3293000Y-45553034D02*
X3293000Y-44686950D01*
%TO.N,A3*%
X8701018Y-50691962D02*
X8701018Y-47244000D01*
X9566000Y-52330004D02*
X9566000Y-51556944D01*
%TO.N,B10*%
X8001000Y-50557630D02*
X8001000Y-44576992D01*
X8866000Y-51422630D02*
X8001000Y-50557630D01*
X8866000Y-53189000D02*
X8866000Y-51422630D01*
X9398000Y-53721002D02*
X8866000Y-53189000D01*
X9398000Y-60391555D02*
X9398000Y-53721002D01*
X8001000Y-44576992D02*
X8508992Y-44069000D01*
X8876939Y-60912616D02*
X9398000Y-60391555D01*
X8876939Y-64529061D02*
X8876939Y-60912616D01*
%TO.N,A3*%
X9566000Y-51556944D02*
X8701018Y-50691962D01*
%TO.N,B10*%
X8763000Y-64643000D02*
X8876939Y-64529061D01*
%TO.N,B11*%
X9258000Y-47843050D02*
X9800962Y-47300088D01*
X9258000Y-50660000D02*
X9258000Y-47843050D01*
X10266000Y-51668000D02*
X9258000Y-50660000D01*
X10266000Y-62929000D02*
X10266000Y-51668000D01*
X9800962Y-47300088D02*
X9800962Y-42817233D01*
X9695000Y-63500000D02*
X10266000Y-62929000D01*
X9800962Y-42817233D02*
X9392905Y-42409176D01*
%TO.N,A10*%
X8650426Y-42150649D02*
X8650426Y-43079049D01*
X8858000Y-41943075D02*
X8650426Y-42150649D01*
X8858000Y-37036234D02*
X8858000Y-41943075D01*
X8434103Y-36612337D02*
X8858000Y-37036234D01*
X8434103Y-36032437D02*
X8434103Y-36612337D01*
X8851000Y-35615540D02*
X8434103Y-36032437D01*
X8851000Y-32923315D02*
X8851000Y-35615540D01*
X7972940Y-32045254D02*
X8851000Y-32923315D01*
X8001000Y-14667000D02*
X8001000Y-18854160D01*
X7304000Y-13970000D02*
X8001000Y-14667000D01*
X8001000Y-18854160D02*
X7972941Y-18882219D01*
X7972941Y-18882219D02*
X7972940Y-32045254D01*
%TO.N,Y4*%
X12059464Y-44825462D02*
X13208002Y-45974000D01*
X12059464Y-33928195D02*
X12059464Y-44825462D01*
X11331000Y-33199731D02*
X12059464Y-33928195D01*
%TO.N,B14*%
X13270001Y-41686357D02*
X14140000Y-42556356D01*
X13270001Y-21499001D02*
X13270001Y-41686357D01*
X12065000Y-20294000D02*
X13270001Y-21499001D01*
%TO.N,Y10*%
X13740000Y-43520253D02*
X13117906Y-44142347D01*
X13740000Y-42722042D02*
X13740000Y-43520253D01*
X12870001Y-31281276D02*
X12870001Y-41852043D01*
X12492103Y-30903378D02*
X12870001Y-31281276D01*
%TO.N,B14*%
X14140000Y-42556356D02*
X14140000Y-44534000D01*
X14140000Y-44534000D02*
X13716000Y-44958000D01*
%TO.N,Y10*%
X12870001Y-41852043D02*
X13740000Y-42722042D01*
%TO.N,Y5*%
X11322461Y-32023461D02*
X12470001Y-33171001D01*
X12470001Y-42483011D02*
X13039990Y-43053000D01*
X12065000Y-26797000D02*
X11322461Y-27539539D01*
X11322461Y-27539539D02*
X11322461Y-32023461D01*
X12470001Y-33171001D02*
X12470001Y-42483011D01*
%TO.N,Y11*%
X13740000Y-28308630D02*
X13740000Y-41140363D01*
X14108630Y-27940000D02*
X13740000Y-28308630D01*
X15240000Y-27940000D02*
X14108630Y-27940000D01*
X13740000Y-41140363D02*
X13985819Y-41386182D01*
%TO.N,A17*%
X12573000Y0D02*
X15240000Y0D01*
X8162000Y-4411000D02*
X12573000Y0D01*
X8162000Y-8542990D02*
X8162000Y-4411000D01*
X8199005Y-8579995D02*
X8162000Y-8542990D01*
D15*
%TO.N,GND*%
X9906004Y-4699010D02*
X9667815Y-4460821D01*
X9906004Y-12263579D02*
X9906004Y-4699010D01*
D14*
%TO.N,A16*%
X10598686Y-2540000D02*
X15240000Y-2540000D01*
X8862000Y-4276686D02*
X10598686Y-2540000D01*
D15*
%TO.N,GND*%
X8450931Y-13718652D02*
X9906004Y-12263579D01*
D14*
%TO.N,A16*%
X8862000Y-6841624D02*
X8862000Y-4276686D01*
%TO.N,A13*%
X5640005Y-18474987D02*
X6173389Y-19008371D01*
X5640005Y-15836860D02*
X5640005Y-18474987D01*
X5950000Y-15526865D02*
X5640005Y-15836860D01*
X5950000Y-5950000D02*
X5950000Y-15526865D01*
X0Y0D02*
X5950000Y-5950000D01*
%TO.N,S*%
X4507000Y-6539000D02*
X3810000Y-5842000D01*
X4507000Y-15747990D02*
X4507000Y-6539000D01*
%TO.N,A15*%
X12749469Y-17742622D02*
X12840847Y-17834000D01*
X12749469Y-7570531D02*
X12749469Y-17742622D01*
X15240000Y-5080000D02*
X12749469Y-7570531D01*
%TO.N,Y15*%
X13540847Y-18791712D02*
X13397000Y-18935559D01*
X13540847Y-16939153D02*
X13540847Y-18791712D01*
X15240000Y-15240000D02*
X13540847Y-16939153D01*
%TO.N,A5*%
X1216298Y-26616298D02*
X1216298Y-29466535D01*
X0Y-25400000D02*
X1216298Y-26616298D01*
%TO.N,A11*%
X3052847Y-35301153D02*
X3052847Y-36167000D01*
X3461001Y-34892999D02*
X3052847Y-35301153D01*
X3461001Y-23895363D02*
X3461001Y-34892999D01*
X3461003Y-16911375D02*
X3461003Y-23895361D01*
X0Y-7620000D02*
X3006999Y-10626999D01*
X3007000Y-16457372D02*
X3461003Y-16911375D01*
%TO.N,A9*%
X2159000Y-14859000D02*
X0Y-12700000D01*
%TO.N,A11*%
X3006999Y-10626999D02*
X3007000Y-16457372D01*
%TO.N,A9*%
X2159000Y-16175056D02*
X2159000Y-14859000D01*
X3061003Y-17077059D02*
X2159000Y-16175056D01*
X3061003Y-23729675D02*
X3061003Y-17077059D01*
X3061001Y-23729677D02*
X3061003Y-23729675D01*
X3061001Y-34727314D02*
X3061001Y-23729677D01*
X2700008Y-36844428D02*
X2352847Y-36497267D01*
%TO.N,A11*%
X3461003Y-23895361D02*
X3461001Y-23895363D01*
%TO.N,A9*%
X2700008Y-41337112D02*
X2700008Y-36844428D01*
X3253960Y-41891064D02*
X2700008Y-41337112D01*
X2352847Y-35435468D02*
X3061001Y-34727314D01*
X2352847Y-36497267D02*
X2352847Y-35435468D01*
%TO.N,A14*%
X10160000Y-13462000D02*
X9992406Y-13294406D01*
X9630595Y-19665523D02*
X10160000Y-19136118D01*
%TO.N,Y17*%
X8636000Y-9652000D02*
X8636000Y-12319000D01*
%TO.N,A14*%
X10160000Y-19136118D02*
X10160000Y-13462000D01*
%TO.N,Y16*%
X7493000Y-7778000D02*
X7493000Y-12573000D01*
X7462000Y-7747000D02*
X7493000Y-7778000D01*
X7493000Y-12573000D02*
X7366000Y-12700000D01*
%TO.N,A12*%
X4804374Y-2772374D02*
X4593638Y-2772374D01*
X6604000Y-4572000D02*
X4804374Y-2772374D01*
X6604000Y-16383000D02*
X6604000Y-4572000D01*
%TO.N,B6*%
X10051000Y-31950406D02*
X9472936Y-31372342D01*
X10646000Y-39831455D02*
X10646000Y-35712964D01*
X10646000Y-35712964D02*
X10051000Y-35117964D01*
X11057999Y-40243454D02*
X10646000Y-39831455D01*
X11057999Y-48497996D02*
X11057999Y-40243454D01*
X11066000Y-48505998D02*
X11057999Y-48497996D01*
X10051000Y-35117964D02*
X10051000Y-31950406D01*
X11066000Y-71103000D02*
X11066000Y-48505998D01*
X10160000Y-72009000D02*
X11066000Y-71103000D01*
%TO.N,B7*%
X8772940Y-29756335D02*
X9072940Y-29456335D01*
X8772940Y-31713882D02*
X8772940Y-29756335D01*
X9651000Y-32591942D02*
X8772940Y-31713882D01*
X10246000Y-35878649D02*
X9651000Y-35283649D01*
X10657998Y-40409139D02*
X10246000Y-39997141D01*
X10666000Y-48671684D02*
X10657999Y-48663681D01*
X9651000Y-35283649D02*
X9651000Y-32591942D01*
X10666000Y-69598000D02*
X10666000Y-48671684D01*
X10246000Y-39997141D02*
X10246000Y-35878649D01*
X9779000Y-70485000D02*
X10666000Y-69598000D01*
X10657999Y-48663681D02*
X10657998Y-40409139D01*
%TO.N,B15*%
X10258000Y-47833000D02*
X9958000Y-48133000D01*
X10258000Y-40574828D02*
X10258000Y-47833000D01*
X9846000Y-40162828D02*
X10258000Y-40574828D01*
X9251000Y-32757630D02*
X9251001Y-35449335D01*
X9846000Y-36044334D02*
X9846000Y-40162828D01*
X8372942Y-19313058D02*
X8372940Y-31879568D01*
X9271000Y-18415000D02*
X8372942Y-19313058D01*
X8372940Y-31879568D02*
X9251000Y-32757630D01*
X9251001Y-35449335D02*
X9846000Y-36044334D01*
%TO.N,A2*%
X6616072Y-33921072D02*
X6223000Y-33528000D01*
X6616072Y-36491362D02*
X6616072Y-33921072D01*
X7658000Y-37533290D02*
X6616072Y-36491362D01*
X7658000Y-41381442D02*
X7658000Y-37533290D01*
X6693000Y-42346442D02*
X7658000Y-41381442D01*
X6693000Y-50946685D02*
X6693000Y-42346442D01*
X7898000Y-54415429D02*
X7620000Y-54137429D01*
X7620000Y-51873685D02*
X6693000Y-50946685D01*
X7620000Y-54137429D02*
X7620000Y-51873685D01*
%TO.N,B4*%
X5147393Y-65783395D02*
X5149998Y-65786000D01*
X6170856Y-34504934D02*
X6170856Y-38026047D01*
X6170856Y-38026047D02*
X6858000Y-38713191D01*
X5461000Y-33795078D02*
X6170856Y-34504934D01*
X5461000Y-29379198D02*
X5461000Y-33795078D01*
X5893000Y-50684098D02*
X5147393Y-51429705D01*
X6147206Y-28692992D02*
X5461000Y-29379198D01*
%TO.N,Y8*%
X3175000Y-37403678D02*
X3870856Y-36707822D01*
X3175000Y-40586890D02*
X3175000Y-37403678D01*
X3513417Y-40925307D02*
X3175000Y-40586890D01*
%TO.N,B17*%
X4211485Y-44767525D02*
X3993000Y-44986010D01*
%TO.N,B4*%
X5893001Y-42009256D02*
X5893000Y-50684098D01*
X6858000Y-38713191D02*
X6858000Y-41044257D01*
%TO.N,B17*%
X3766352Y-40188292D02*
X4213417Y-40635357D01*
X4570856Y-35167684D02*
X4570856Y-36715773D01*
X3861003Y-16745689D02*
X3861003Y-34457831D01*
X3407000Y-16291686D02*
X3861003Y-16745689D01*
%TO.N,B4*%
X6858000Y-41044257D02*
X5893001Y-42009256D01*
%TO.N,B17*%
X3107000Y-9207504D02*
X3407000Y-9507504D01*
%TO.N,B16*%
X4693000Y-47452000D02*
X4393000Y-47752000D01*
X4166356Y-39030315D02*
X4182819Y-39046778D01*
X4166356Y-38597696D02*
X4166356Y-39030315D01*
X4166360Y-38597692D02*
X4166356Y-38597696D01*
%TO.N,B17*%
X4211485Y-41217189D02*
X4211485Y-44767525D01*
%TO.N,B16*%
X4182819Y-38433951D02*
X4166356Y-38450415D01*
%TO.N,B17*%
X3766352Y-37520277D02*
X3766352Y-40188292D01*
%TO.N,B16*%
X4182819Y-37669496D02*
X4182819Y-38433951D01*
X4182819Y-39046778D02*
X4182819Y-39177133D01*
X4970856Y-35001995D02*
X4970856Y-36881459D01*
%TO.N,B4*%
X5147393Y-51429705D02*
X5147393Y-65783395D01*
%TO.N,B16*%
X4261003Y-34292142D02*
X4970856Y-35001995D01*
X4261003Y-16580003D02*
X4261003Y-34292142D01*
X4166356Y-38450415D02*
X4166360Y-38597692D01*
X3807000Y-7363000D02*
X3807000Y-16126000D01*
%TO.N,S*%
X4866356Y-37596635D02*
X4866356Y-38740365D01*
%TO.N,B16*%
X3807000Y-16126000D02*
X4261003Y-16580003D01*
%TO.N,S*%
X5370856Y-37092135D02*
X4866356Y-37596635D01*
X5370856Y-34836306D02*
X5370856Y-37092135D01*
%TO.N,B17*%
X4213417Y-41215257D02*
X4211485Y-41217189D01*
%TO.N,S*%
X4661001Y-34126451D02*
X5370856Y-34836306D01*
X4661001Y-27977999D02*
X4661001Y-34126451D01*
%TO.N,B16*%
X4693000Y-39687314D02*
X4693000Y-47452000D01*
%TO.N,S*%
X5080000Y-27559000D02*
X4661001Y-27977999D01*
%TO.N,B17*%
X4213417Y-40635357D02*
X4213417Y-41215257D01*
%TO.N,S*%
X5080000Y-26735000D02*
X5080000Y-27559000D01*
X5015000Y-26670000D02*
X5080000Y-26735000D01*
%TO.N,A8*%
X5770856Y-34670619D02*
X5770856Y-38615998D01*
%TO.N,B17*%
X4570856Y-36715773D02*
X3766352Y-37520277D01*
%TO.N,A8*%
X5061000Y-33960764D02*
X5770856Y-34670619D01*
X5715000Y-27532950D02*
X5061000Y-28186950D01*
%TO.N,B16*%
X4970856Y-36881459D02*
X4182819Y-37669496D01*
%TO.N,B17*%
X3407000Y-9507504D02*
X3407000Y-16291686D01*
%TO.N,A8*%
X5207000Y-14986000D02*
X5207000Y-25299050D01*
%TO.N,B16*%
X4182819Y-39177133D02*
X4693000Y-39687314D01*
%TO.N,A8*%
X5715000Y-25807050D02*
X5715000Y-27532950D01*
X5207000Y-25299050D02*
X5715000Y-25807050D01*
%TO.N,B17*%
X3861003Y-34457831D02*
X4570856Y-35167684D01*
%TO.N,A8*%
X5061000Y-28186950D02*
X5061000Y-33960764D01*
%TO.N,Y8*%
X3870856Y-36707822D02*
X3870856Y-35586514D01*
%TO.N,B16*%
X3682992Y-7238992D02*
X3807000Y-7363000D01*
%TO.N,A8*%
X5770856Y-38615998D02*
X5865929Y-38711071D01*
D15*
%TO.N,/3.3V*%
X11547999Y-48295032D02*
X11766000Y-48513033D01*
X11049000Y-13716006D02*
X11049000Y-3240000D01*
X10541000Y-27182000D02*
X10541000Y-34915007D01*
X10541000Y-76073000D02*
X11556000Y-75058000D01*
X11547999Y-37982001D02*
X11346000Y-37780002D01*
X11049000Y-26674000D02*
X10799000Y-26924000D01*
X11556000Y-63463333D02*
X11556003Y-63463330D01*
X10541000Y-34915007D02*
X11346000Y-35720007D01*
X11346000Y-35720007D02*
X11346000Y-36703000D01*
X11556003Y-63463330D02*
X11556003Y-48723030D01*
X11346000Y-37780002D02*
X11346000Y-36703000D01*
X11556000Y-75058000D02*
X11556000Y-63463333D01*
X11547999Y-37982001D02*
X11547999Y-48295032D01*
X10799000Y-26924000D02*
X10541000Y-27182000D01*
X11049000Y-13716006D02*
X11049000Y-26674000D01*
X11556003Y-48723030D02*
X11766000Y-48513033D01*
%TO.N,GND*%
X14489240Y-39290000D02*
X14463696Y-39264456D01*
X16430000Y-24050000D02*
X16430000Y-38100000D01*
X16430000Y-54690000D02*
X15240000Y-55880000D01*
X16430000Y-57070000D02*
X16430000Y-76692915D01*
X15732915Y-39290000D02*
X15732915Y-39307915D01*
X16430000Y-38100000D02*
X16430000Y-38592915D01*
X16430000Y-38592915D02*
X15732915Y-39290000D01*
X15732915Y-39307915D02*
X16430000Y-40005000D01*
X16430000Y-40005000D02*
X16430000Y-54690000D01*
X15240000Y-55880000D02*
X16430000Y-57070000D01*
X15732915Y-39290000D02*
X14489240Y-39290000D01*
X16430000Y-76692915D02*
X15652915Y-77470000D01*
X15652915Y-77470000D02*
X12699998Y-77470000D01*
X15240000Y-22860000D02*
X16430000Y-24050000D01*
%TO.N,5V*%
X0Y-5080000D02*
X-1190000Y-6270000D01*
X-1190000Y-74152915D02*
X-332915Y-75010000D01*
X4475004Y-78867000D02*
X4348004Y-78740000D01*
X618004Y-75010000D02*
X4348004Y-78740000D01*
X-332915Y-75010000D02*
X618004Y-75010000D01*
X-1190000Y-6270000D02*
X-1190000Y-74152915D01*
X15240000Y-73660000D02*
X10033000Y-78867000D01*
X10033000Y-78867000D02*
X4475004Y-78867000D01*
D14*
%TO.N,A3*%
X1937500Y-30955500D02*
X1500000Y-31393000D01*
X1900000Y-46690000D02*
X2200000Y-46990000D01*
X1900000Y-37265320D02*
X1900000Y-46690000D01*
X1500000Y-36865319D02*
X1900000Y-37265320D01*
X1500000Y-31393000D02*
X1500000Y-36865319D01*
%TO.N,S*%
X4507000Y-15747990D02*
X4699000Y-15939990D01*
X5093000Y-49893000D02*
X4793000Y-50193000D01*
X4866356Y-38740365D02*
X5093000Y-38967009D01*
X4699000Y-25654000D02*
X5015000Y-25970000D01*
X5093000Y-38967009D02*
X5093000Y-49893000D01*
X5015000Y-25970000D02*
X5015000Y-26670000D01*
X4699000Y-15939990D02*
X4699000Y-25654000D01*
%TO.N,Y4*%
X7751030Y-33119394D02*
X7112000Y-32480364D01*
X7112000Y-30265054D02*
X6486618Y-29639672D01*
X7751030Y-33401000D02*
X7751030Y-33119394D01*
X7112000Y-32480364D02*
X7112000Y-30265054D01*
%TO.N,B5*%
X8058000Y-37367605D02*
X8058000Y-41547128D01*
X8058000Y-41547128D02*
X7093000Y-42512129D01*
X7387112Y-60488573D02*
X7387112Y-71591426D01*
X7093000Y-42512129D02*
X7093000Y-50781001D01*
X7051000Y-36360604D02*
X8058000Y-37367605D01*
X6352420Y-30630629D02*
X6352420Y-32286470D01*
X7051000Y-32985050D02*
X7051000Y-36360604D01*
X6352420Y-32286470D02*
X7051000Y-32985050D01*
X8066000Y-53520372D02*
X8598000Y-54052372D01*
X8598000Y-59277685D02*
X7387112Y-60488573D01*
X7686225Y-75638000D02*
X7559227Y-75764998D01*
X7093000Y-50781001D02*
X8066000Y-51754000D01*
X8598000Y-54052372D02*
X8598000Y-59277685D01*
X7686225Y-71890539D02*
X7686225Y-75638000D01*
X7387112Y-71591426D02*
X7686225Y-71890539D01*
X8066000Y-51754000D02*
X8066000Y-53520372D01*
%TO.N,A0*%
X7258000Y-38123241D02*
X7258000Y-41215756D01*
X6293001Y-51420973D02*
X6135344Y-51578630D01*
X6293001Y-42180755D02*
X6293001Y-51420973D01*
X6870856Y-37736097D02*
X7258000Y-38123241D01*
X7258000Y-41215756D02*
X6293001Y-42180755D01*
%TO.N,A6*%
X9913181Y-29933272D02*
X9913181Y-22199788D01*
X9913181Y-22199788D02*
X9943969Y-22169000D01*
X9474113Y-30372340D02*
X9913181Y-29933272D01*
%TO.N,Y7*%
X15240000Y-38100000D02*
X15240000Y-37115635D01*
X14140000Y-29548000D02*
X14478000Y-29210000D01*
X15240000Y-37115635D02*
X14140000Y-36015635D01*
X14140000Y-36015635D02*
X14140000Y-29548000D01*
%TO.N,A7*%
X2661001Y-23563992D02*
X2661001Y-24084002D01*
X2661001Y-24084002D02*
X2361001Y-24384002D01*
X0Y-17780000D02*
X1270000Y-17780000D01*
X2661003Y-23563990D02*
X2661001Y-23563992D01*
X9072940Y-28456333D02*
X8772940Y-28156333D01*
X1270000Y-17780000D02*
X2661003Y-19171003D01*
X2661003Y-19171003D02*
X2661003Y-23563990D01*
X8772940Y-24476611D02*
X9072551Y-24177000D01*
X8772940Y-28156333D02*
X8772940Y-24476611D01*
%TO.N,B0*%
X5547393Y-53345374D02*
X6277547Y-52615220D01*
X6220000Y-74676006D02*
X6220000Y-64894000D01*
X5547393Y-64221393D02*
X5547393Y-53345374D01*
X6220000Y-64894000D02*
X5547393Y-64221393D01*
%TO.N,B1*%
X6987112Y-73211888D02*
X6987112Y-54325195D01*
X6987112Y-54325195D02*
X6277136Y-53615219D01*
X6277136Y-53615219D02*
X6274718Y-53615219D01*
X6920000Y-73279000D02*
X6987112Y-73211888D01*
%TO.N,Y1*%
X6287112Y-57214100D02*
X6287100Y-57214112D01*
X13168601Y-57305000D02*
X13462000Y-57011601D01*
X14365553Y-53340000D02*
X15240000Y-53340000D01*
X13462000Y-57011601D02*
X13462000Y-54243553D01*
X13462000Y-54243553D02*
X14365553Y-53340000D01*
X6287112Y-54615145D02*
X6287112Y-57214100D01*
%TO.N,Y2*%
X13055041Y-50825959D02*
X13055041Y-55288959D01*
X13055041Y-55288959D02*
X12746000Y-55598000D01*
X13208000Y-50673000D02*
X13055041Y-50825959D01*
%TO.N,B2*%
X15240000Y-71120000D02*
X14097000Y-69977000D01*
X14097000Y-69977000D02*
X14097000Y-54598503D01*
X14097000Y-54598503D02*
X14162028Y-54533475D01*
%TO.N,Y3*%
X15240000Y-48260000D02*
X13970000Y-49530000D01*
X13970000Y-49530000D02*
X13970000Y-52745603D01*
X13970000Y-52745603D02*
X13755041Y-52960562D01*
%TO.N,B3*%
X12046000Y-68406999D02*
X12346001Y-68707000D01*
X12346000Y-53057250D02*
X12046000Y-53357250D01*
X12346000Y-52800051D02*
X12346000Y-53057250D01*
X12046000Y-53357250D02*
X12046000Y-68406999D01*
%TO.N,B8*%
X6140902Y-40762543D02*
X5493001Y-41410444D01*
X4191000Y-51820412D02*
X4191000Y-66929000D01*
X4191000Y-66929000D02*
X0Y-71120000D01*
X5493000Y-50518412D02*
X4191000Y-51820412D01*
X5493001Y-41410444D02*
X5493000Y-50518412D01*
%TO.N,Y9*%
X1900000Y-36699635D02*
X2300000Y-37099635D01*
X2300000Y-37099635D02*
X2300000Y-43295875D01*
X2300000Y-43295875D02*
X2664125Y-43660000D01*
X2333682Y-34464682D02*
X1900000Y-34898364D01*
X1900000Y-34898364D02*
X1900000Y-36699635D01*
%TO.N,A11*%
X9359000Y-36547284D02*
X9134103Y-36322387D01*
X9359000Y-40694982D02*
X9359000Y-36547284D01*
X9558018Y-40894000D02*
X9359000Y-40694982D01*
%TO.N,B12*%
X8998000Y-60225869D02*
X8087112Y-61136757D01*
X8458000Y-37201920D02*
X8458000Y-41712814D01*
X7493000Y-42677814D02*
X7493000Y-50615315D01*
X7596272Y-18607346D02*
X7572940Y-18630678D01*
X8466000Y-51588315D02*
X8466000Y-53354686D01*
X8998000Y-53886687D02*
X8998000Y-60225869D01*
X6997915Y-17302150D02*
X7596272Y-17900507D01*
X8034103Y-36778022D02*
X8458000Y-37201920D01*
X7572940Y-18630678D02*
X7572940Y-32210940D01*
X8034103Y-35378202D02*
X8034103Y-36778022D01*
X8466000Y-53354686D02*
X8998000Y-53886687D01*
X8458000Y-41712814D02*
X7493000Y-42677814D01*
X7596272Y-17900507D02*
X7596272Y-18607346D01*
X8451000Y-33089000D02*
X8451000Y-34961305D01*
X8451000Y-34961305D02*
X8034103Y-35378202D01*
X7493000Y-50615315D02*
X8466000Y-51588315D01*
X7572940Y-32210940D02*
X8451000Y-33089000D01*
%TO.N,Y12*%
X6896272Y-18317396D02*
X7119917Y-18541041D01*
X7119917Y-23487083D02*
X6858000Y-23749000D01*
X7119917Y-18541041D02*
X7119917Y-23487083D01*
%TO.N,Y13*%
X6417877Y-21501210D02*
X6417877Y-19978026D01*
X6361061Y-21558026D02*
X6417877Y-21501210D01*
%TO.N,Y14*%
X14097000Y-18923000D02*
X14097000Y-19939000D01*
X14097000Y-19939000D02*
X13462000Y-20574000D01*
X15240000Y-17780000D02*
X14097000Y-18923000D01*
%TO.N,A14*%
X15240000Y-7620000D02*
X13462000Y-9398000D01*
X13462000Y-9398000D02*
X13462000Y-13273000D01*
%TD*%
%TA.AperFunction,Conductor*%
%TO.N,GND*%
G36*
X14351120Y2363255D02*
G01*
X14351359Y2363233D01*
X14401390Y2363233D01*
X14402801Y2363233D01*
X14405749Y2363144D01*
X14686140Y2346187D01*
X14692070Y2345467D01*
X14966886Y2295108D01*
X14972687Y2293679D01*
X15186951Y2226914D01*
X15239429Y2210561D01*
X15245023Y2208439D01*
X15399160Y2139071D01*
X15499805Y2093776D01*
X15505097Y2090998D01*
X15744187Y1946464D01*
X15749111Y1943065D01*
X15969045Y1770761D01*
X15973524Y1766793D01*
X16171073Y1569247D01*
X16175041Y1564768D01*
X16347349Y1344836D01*
X16350748Y1339912D01*
X16495283Y1100823D01*
X16498063Y1095525D01*
X16547347Y986024D01*
X16612733Y840745D01*
X16614851Y835158D01*
X16697968Y568426D01*
X16699400Y562617D01*
X16749762Y287806D01*
X16750482Y281868D01*
X16767409Y2040D01*
X16767499Y-926D01*
X16767499Y-78736825D01*
X16767500Y-78736838D01*
X16767500Y-78738509D01*
X16767410Y-78741476D01*
X16755636Y-78936126D01*
X16750450Y-79021863D01*
X16749729Y-79027802D01*
X16699369Y-79302606D01*
X16697937Y-79308415D01*
X16614820Y-79575145D01*
X16612699Y-79580739D01*
X16498035Y-79835508D01*
X16495255Y-79840806D01*
X16350720Y-80079892D01*
X16347322Y-80084816D01*
X16175017Y-80304744D01*
X16171050Y-80309223D01*
X15973503Y-80506767D01*
X15969024Y-80510735D01*
X15749093Y-80683037D01*
X15744169Y-80686436D01*
X15505082Y-80830967D01*
X15499784Y-80833748D01*
X15245012Y-80948407D01*
X15239418Y-80950529D01*
X14972688Y-81033644D01*
X14966879Y-81035075D01*
X14692067Y-81085433D01*
X14686127Y-81086154D01*
X14554853Y-81094093D01*
X14405223Y-81103142D01*
X14402248Y-81103232D01*
X13970000Y-81103232D01*
X13970000Y-78740003D01*
X14234659Y-78740003D01*
X14253974Y-78936126D01*
X14253975Y-78936129D01*
X14311187Y-79124730D01*
X14311188Y-79124732D01*
X14332636Y-79164858D01*
X14404090Y-79298538D01*
X14404092Y-79298540D01*
X14404093Y-79298542D01*
X14529112Y-79450878D01*
X14529121Y-79450887D01*
X14680530Y-79575145D01*
X14681462Y-79575910D01*
X14855273Y-79668814D01*
X15043868Y-79726024D01*
X15043870Y-79726024D01*
X15043873Y-79726025D01*
X15239997Y-79745341D01*
X15240000Y-79745341D01*
X15240003Y-79745341D01*
X15436126Y-79726025D01*
X15436127Y-79726024D01*
X15436132Y-79726024D01*
X15624727Y-79668814D01*
X15798538Y-79575910D01*
X15950883Y-79450883D01*
X16075910Y-79298538D01*
X16168814Y-79124727D01*
X16226024Y-78936132D01*
X16226742Y-78928849D01*
X16245341Y-78740003D01*
X16245341Y-78739996D01*
X16226025Y-78543873D01*
X16226024Y-78543870D01*
X16226024Y-78543868D01*
X16168814Y-78355273D01*
X16075910Y-78181462D01*
X16075906Y-78181457D01*
X15950887Y-78029121D01*
X15950878Y-78029112D01*
X15798542Y-77904093D01*
X15798540Y-77904092D01*
X15798538Y-77904090D01*
X15757618Y-77882218D01*
X15624732Y-77811188D01*
X15624730Y-77811187D01*
X15436129Y-77753975D01*
X15436126Y-77753974D01*
X15240003Y-77734659D01*
X15239997Y-77734659D01*
X15043873Y-77753974D01*
X15043870Y-77753975D01*
X14855269Y-77811187D01*
X14855267Y-77811188D01*
X14681467Y-77904087D01*
X14681457Y-77904093D01*
X14529121Y-78029112D01*
X14529112Y-78029121D01*
X14404093Y-78181457D01*
X14404087Y-78181467D01*
X14311188Y-78355267D01*
X14311187Y-78355269D01*
X14253975Y-78543870D01*
X14253974Y-78543873D01*
X14234659Y-78739996D01*
X14234659Y-78740003D01*
X13970000Y-78740003D01*
X13970000Y-76200003D01*
X14234659Y-76200003D01*
X14253974Y-76396126D01*
X14253975Y-76396129D01*
X14311187Y-76584730D01*
X14311188Y-76584732D01*
X14382218Y-76717618D01*
X14404090Y-76758538D01*
X14404092Y-76758540D01*
X14404093Y-76758542D01*
X14529112Y-76910878D01*
X14529121Y-76910887D01*
X14681457Y-77035906D01*
X14681462Y-77035910D01*
X14855273Y-77128814D01*
X15043868Y-77186024D01*
X15043870Y-77186024D01*
X15043873Y-77186025D01*
X15239997Y-77205341D01*
X15240000Y-77205341D01*
X15240003Y-77205341D01*
X15436126Y-77186025D01*
X15436127Y-77186024D01*
X15436132Y-77186024D01*
X15624727Y-77128814D01*
X15798538Y-77035910D01*
X15950883Y-76910883D01*
X16075910Y-76758538D01*
X16168814Y-76584727D01*
X16226024Y-76396132D01*
X16245341Y-76200000D01*
X16245341Y-76199996D01*
X16226025Y-76003873D01*
X16226024Y-76003870D01*
X16226024Y-76003868D01*
X16168814Y-75815273D01*
X16075910Y-75641462D01*
X16075906Y-75641457D01*
X15950887Y-75489121D01*
X15950878Y-75489112D01*
X15798542Y-75364093D01*
X15798540Y-75364092D01*
X15798538Y-75364090D01*
X15757618Y-75342218D01*
X15624732Y-75271188D01*
X15624730Y-75271187D01*
X15436129Y-75213975D01*
X15436126Y-75213974D01*
X15240003Y-75194659D01*
X15239997Y-75194659D01*
X15043873Y-75213974D01*
X15043870Y-75213975D01*
X14855269Y-75271187D01*
X14855267Y-75271188D01*
X14681467Y-75364087D01*
X14681457Y-75364093D01*
X14529121Y-75489112D01*
X14529112Y-75489121D01*
X14404093Y-75641457D01*
X14404087Y-75641467D01*
X14311188Y-75815267D01*
X14311187Y-75815269D01*
X14253975Y-76003870D01*
X14253974Y-76003873D01*
X14234659Y-76199996D01*
X14234659Y-76200003D01*
X13970000Y-76200003D01*
X13970000Y-75482249D01*
X14762755Y-74689493D01*
X14817270Y-74661718D01*
X14832744Y-74660499D01*
X15679360Y-74660499D01*
X15796762Y-74645044D01*
X15942841Y-74584536D01*
X16068282Y-74488282D01*
X16164536Y-74362841D01*
X16225044Y-74216762D01*
X16240500Y-74099361D01*
X16240499Y-73220640D01*
X16225044Y-73103238D01*
X16164537Y-72957161D01*
X16164537Y-72957160D01*
X16068286Y-72831723D01*
X16068285Y-72831722D01*
X16068282Y-72831718D01*
X16068277Y-72831714D01*
X16068276Y-72831713D01*
X15942838Y-72735462D01*
X15796766Y-72674957D01*
X15796758Y-72674955D01*
X15679361Y-72659500D01*
X14800642Y-72659500D01*
X14800637Y-72659501D01*
X14683241Y-72674955D01*
X14683233Y-72674957D01*
X14537161Y-72735462D01*
X14537160Y-72735462D01*
X14411723Y-72831713D01*
X14411713Y-72831723D01*
X14315462Y-72957160D01*
X14315462Y-72957161D01*
X14254957Y-73103233D01*
X14254955Y-73103241D01*
X14239500Y-73220637D01*
X14239500Y-74067240D01*
X14220593Y-74125431D01*
X14210504Y-74137243D01*
X13970000Y-74377747D01*
X13970000Y-70274971D01*
X14300759Y-70605730D01*
X14328536Y-70660247D01*
X14318965Y-70720679D01*
X14318066Y-70722401D01*
X14311187Y-70735270D01*
X14253975Y-70923870D01*
X14253974Y-70923873D01*
X14234659Y-71119996D01*
X14234659Y-71120003D01*
X14253974Y-71316126D01*
X14253975Y-71316129D01*
X14311187Y-71504730D01*
X14311188Y-71504732D01*
X14382218Y-71637618D01*
X14404090Y-71678538D01*
X14404092Y-71678540D01*
X14404093Y-71678542D01*
X14529112Y-71830878D01*
X14529121Y-71830887D01*
X14681457Y-71955906D01*
X14681462Y-71955910D01*
X14855273Y-72048814D01*
X15043868Y-72106024D01*
X15043870Y-72106024D01*
X15043873Y-72106025D01*
X15239997Y-72125341D01*
X15240000Y-72125341D01*
X15240003Y-72125341D01*
X15436126Y-72106025D01*
X15436127Y-72106024D01*
X15436132Y-72106024D01*
X15624727Y-72048814D01*
X15798538Y-71955910D01*
X15950883Y-71830883D01*
X16075910Y-71678538D01*
X16168814Y-71504727D01*
X16226024Y-71316132D01*
X16245341Y-71120000D01*
X16245341Y-71119996D01*
X16226025Y-70923873D01*
X16226024Y-70923870D01*
X16226024Y-70923868D01*
X16168814Y-70735273D01*
X16075910Y-70561462D01*
X16075906Y-70561457D01*
X15950887Y-70409121D01*
X15950878Y-70409112D01*
X15798542Y-70284093D01*
X15798540Y-70284092D01*
X15798538Y-70284090D01*
X15757618Y-70262218D01*
X15624732Y-70191188D01*
X15624730Y-70191187D01*
X15436129Y-70133975D01*
X15436126Y-70133974D01*
X15240003Y-70114659D01*
X15239997Y-70114659D01*
X15043873Y-70133974D01*
X15043870Y-70133975D01*
X14855270Y-70191187D01*
X14842401Y-70198066D01*
X14782169Y-70208821D01*
X14727118Y-70182119D01*
X14725730Y-70180759D01*
X14426496Y-69881525D01*
X14398719Y-69827008D01*
X14397500Y-69811521D01*
X14397500Y-69392186D01*
X14416407Y-69333995D01*
X14465907Y-69298031D01*
X14527093Y-69298031D01*
X14559305Y-69315658D01*
X14681462Y-69415910D01*
X14855273Y-69508814D01*
X15043868Y-69566024D01*
X15043870Y-69566024D01*
X15043873Y-69566025D01*
X15239997Y-69585341D01*
X15240000Y-69585341D01*
X15240003Y-69585341D01*
X15436126Y-69566025D01*
X15436127Y-69566024D01*
X15436132Y-69566024D01*
X15624727Y-69508814D01*
X15798538Y-69415910D01*
X15950883Y-69290883D01*
X16075910Y-69138538D01*
X16168814Y-68964727D01*
X16226024Y-68776132D01*
X16245341Y-68580000D01*
X16245341Y-68579996D01*
X16226025Y-68383873D01*
X16226024Y-68383870D01*
X16226024Y-68383868D01*
X16168814Y-68195273D01*
X16075910Y-68021462D01*
X16075906Y-68021457D01*
X15950887Y-67869121D01*
X15950878Y-67869112D01*
X15798542Y-67744093D01*
X15798540Y-67744092D01*
X15798538Y-67744090D01*
X15757618Y-67722218D01*
X15624732Y-67651188D01*
X15624730Y-67651187D01*
X15436129Y-67593975D01*
X15436126Y-67593974D01*
X15240003Y-67574659D01*
X15239997Y-67574659D01*
X15043873Y-67593974D01*
X15043870Y-67593975D01*
X14855269Y-67651187D01*
X14855267Y-67651188D01*
X14681467Y-67744087D01*
X14681451Y-67744097D01*
X14559303Y-67844341D01*
X14502327Y-67866641D01*
X14443124Y-67851192D01*
X14404308Y-67803895D01*
X14397500Y-67767818D01*
X14397500Y-66852182D01*
X14416406Y-66793995D01*
X14465906Y-66758031D01*
X14527092Y-66758031D01*
X14559304Y-66775658D01*
X14652554Y-66852186D01*
X14681462Y-66875910D01*
X14855273Y-66968814D01*
X15043868Y-67026024D01*
X15043870Y-67026024D01*
X15043873Y-67026025D01*
X15239997Y-67045341D01*
X15240000Y-67045341D01*
X15240003Y-67045341D01*
X15436126Y-67026025D01*
X15436127Y-67026024D01*
X15436132Y-67026024D01*
X15624727Y-66968814D01*
X15798538Y-66875910D01*
X15950883Y-66750883D01*
X16075910Y-66598538D01*
X16168814Y-66424727D01*
X16226024Y-66236132D01*
X16245341Y-66040000D01*
X16245341Y-66039996D01*
X16226025Y-65843873D01*
X16226024Y-65843870D01*
X16226024Y-65843868D01*
X16168814Y-65655273D01*
X16075910Y-65481462D01*
X16075906Y-65481457D01*
X15950887Y-65329121D01*
X15950878Y-65329112D01*
X15798542Y-65204093D01*
X15798540Y-65204092D01*
X15798538Y-65204090D01*
X15757618Y-65182218D01*
X15624732Y-65111188D01*
X15624730Y-65111187D01*
X15436129Y-65053975D01*
X15436126Y-65053974D01*
X15240003Y-65034659D01*
X15239997Y-65034659D01*
X15043873Y-65053974D01*
X15043870Y-65053975D01*
X14855269Y-65111187D01*
X14855267Y-65111188D01*
X14681467Y-65204087D01*
X14681451Y-65204097D01*
X14559303Y-65304341D01*
X14502327Y-65326641D01*
X14443124Y-65311192D01*
X14404308Y-65263895D01*
X14397500Y-65227818D01*
X14397500Y-64312182D01*
X14416406Y-64253995D01*
X14465906Y-64218031D01*
X14527092Y-64218031D01*
X14559304Y-64235658D01*
X14652554Y-64312186D01*
X14681462Y-64335910D01*
X14855273Y-64428814D01*
X15043868Y-64486024D01*
X15043870Y-64486024D01*
X15043873Y-64486025D01*
X15239997Y-64505341D01*
X15240000Y-64505341D01*
X15240003Y-64505341D01*
X15436126Y-64486025D01*
X15436127Y-64486024D01*
X15436132Y-64486024D01*
X15624727Y-64428814D01*
X15798538Y-64335910D01*
X15950883Y-64210883D01*
X16075910Y-64058538D01*
X16168814Y-63884727D01*
X16226024Y-63696132D01*
X16245341Y-63500000D01*
X16245341Y-63499996D01*
X16226025Y-63303873D01*
X16226024Y-63303870D01*
X16226024Y-63303868D01*
X16168814Y-63115273D01*
X16075910Y-62941462D01*
X16075906Y-62941457D01*
X15950887Y-62789121D01*
X15950878Y-62789112D01*
X15798542Y-62664093D01*
X15798540Y-62664092D01*
X15798538Y-62664090D01*
X15757618Y-62642218D01*
X15624732Y-62571188D01*
X15624730Y-62571187D01*
X15436129Y-62513975D01*
X15436126Y-62513974D01*
X15240003Y-62494659D01*
X15239997Y-62494659D01*
X15043873Y-62513974D01*
X15043870Y-62513975D01*
X14855269Y-62571187D01*
X14855267Y-62571188D01*
X14681467Y-62664087D01*
X14681451Y-62664097D01*
X14559303Y-62764341D01*
X14502327Y-62786641D01*
X14443124Y-62771192D01*
X14404308Y-62723895D01*
X14397500Y-62687818D01*
X14397500Y-61772182D01*
X14416406Y-61713995D01*
X14465906Y-61678031D01*
X14527092Y-61678031D01*
X14559304Y-61695658D01*
X14652554Y-61772186D01*
X14681462Y-61795910D01*
X14855273Y-61888814D01*
X15043868Y-61946024D01*
X15043870Y-61946024D01*
X15043873Y-61946025D01*
X15239997Y-61965341D01*
X15240000Y-61965341D01*
X15240003Y-61965341D01*
X15436126Y-61946025D01*
X15436127Y-61946024D01*
X15436132Y-61946024D01*
X15624727Y-61888814D01*
X15798538Y-61795910D01*
X15950883Y-61670883D01*
X16075910Y-61518538D01*
X16168814Y-61344727D01*
X16226024Y-61156132D01*
X16245341Y-60960000D01*
X16245341Y-60959996D01*
X16226025Y-60763873D01*
X16226024Y-60763870D01*
X16226024Y-60763868D01*
X16168814Y-60575273D01*
X16075910Y-60401462D01*
X16075906Y-60401457D01*
X15950887Y-60249121D01*
X15950878Y-60249112D01*
X15798542Y-60124093D01*
X15798540Y-60124092D01*
X15798538Y-60124090D01*
X15757618Y-60102218D01*
X15624732Y-60031188D01*
X15624730Y-60031187D01*
X15436129Y-59973975D01*
X15436126Y-59973974D01*
X15240003Y-59954659D01*
X15239997Y-59954659D01*
X15043873Y-59973974D01*
X15043870Y-59973975D01*
X14855269Y-60031187D01*
X14855267Y-60031188D01*
X14681467Y-60124087D01*
X14681451Y-60124097D01*
X14559303Y-60224341D01*
X14502327Y-60246641D01*
X14443124Y-60231192D01*
X14404308Y-60183895D01*
X14397500Y-60147818D01*
X14397500Y-59232182D01*
X14416406Y-59173995D01*
X14465906Y-59138031D01*
X14527092Y-59138031D01*
X14559304Y-59155658D01*
X14652554Y-59232186D01*
X14681462Y-59255910D01*
X14855273Y-59348814D01*
X15043868Y-59406024D01*
X15043870Y-59406024D01*
X15043873Y-59406025D01*
X15239997Y-59425341D01*
X15240000Y-59425341D01*
X15240003Y-59425341D01*
X15436126Y-59406025D01*
X15436127Y-59406024D01*
X15436132Y-59406024D01*
X15624727Y-59348814D01*
X15798538Y-59255910D01*
X15950883Y-59130883D01*
X16075910Y-58978538D01*
X16168814Y-58804727D01*
X16226024Y-58616132D01*
X16245341Y-58420000D01*
X16245341Y-58419996D01*
X16226025Y-58223873D01*
X16226024Y-58223870D01*
X16226024Y-58223868D01*
X16168814Y-58035273D01*
X16075910Y-57861462D01*
X16075906Y-57861457D01*
X15950887Y-57709121D01*
X15950878Y-57709112D01*
X15798542Y-57584093D01*
X15798540Y-57584092D01*
X15798538Y-57584090D01*
X15757618Y-57562218D01*
X15624732Y-57491188D01*
X15624730Y-57491187D01*
X15436129Y-57433975D01*
X15436126Y-57433974D01*
X15240003Y-57414659D01*
X15239997Y-57414659D01*
X15043873Y-57433974D01*
X15043870Y-57433975D01*
X14855269Y-57491187D01*
X14855267Y-57491188D01*
X14681467Y-57584087D01*
X14681457Y-57584093D01*
X14559305Y-57684341D01*
X14502328Y-57706641D01*
X14443125Y-57691192D01*
X14404310Y-57643895D01*
X14397500Y-57607813D01*
X14397500Y-55152065D01*
X14416407Y-55093874D01*
X14458616Y-55060600D01*
X14464869Y-55058011D01*
X14590310Y-54961757D01*
X14686564Y-54836316D01*
X14747072Y-54690237D01*
X14767710Y-54533475D01*
X14747816Y-54382366D01*
X14758966Y-54322208D01*
X14803348Y-54280090D01*
X14864010Y-54272104D01*
X14874698Y-54274706D01*
X15043868Y-54326024D01*
X15043870Y-54326024D01*
X15043873Y-54326025D01*
X15239997Y-54345341D01*
X15240000Y-54345341D01*
X15240003Y-54345341D01*
X15436126Y-54326025D01*
X15436127Y-54326024D01*
X15436132Y-54326024D01*
X15624727Y-54268814D01*
X15798538Y-54175910D01*
X15950883Y-54050883D01*
X16075910Y-53898538D01*
X16168814Y-53724727D01*
X16226024Y-53536132D01*
X16231051Y-53485098D01*
X16245341Y-53340003D01*
X16245341Y-53339996D01*
X16226025Y-53143873D01*
X16226024Y-53143870D01*
X16226024Y-53143868D01*
X16168814Y-52955273D01*
X16075910Y-52781462D01*
X16043927Y-52742491D01*
X15950887Y-52629121D01*
X15950878Y-52629112D01*
X15798542Y-52504093D01*
X15798540Y-52504092D01*
X15798538Y-52504090D01*
X15757618Y-52482218D01*
X15624732Y-52411188D01*
X15624730Y-52411187D01*
X15436129Y-52353975D01*
X15436126Y-52353974D01*
X15240003Y-52334659D01*
X15239997Y-52334659D01*
X15043873Y-52353974D01*
X15043870Y-52353975D01*
X14855269Y-52411187D01*
X14855267Y-52411188D01*
X14681467Y-52504087D01*
X14681457Y-52504093D01*
X14529121Y-52629112D01*
X14529112Y-52629121D01*
X14460188Y-52713106D01*
X14408656Y-52746093D01*
X14347577Y-52742491D01*
X14300280Y-52703676D01*
X14292197Y-52688188D01*
X14278036Y-52654002D01*
X14270499Y-52616119D01*
X14270499Y-51472442D01*
X14289406Y-51414252D01*
X14338906Y-51378288D01*
X14400092Y-51378288D01*
X14446027Y-51409638D01*
X14529112Y-51510878D01*
X14529121Y-51510887D01*
X14681457Y-51635906D01*
X14681462Y-51635910D01*
X14855273Y-51728814D01*
X15043868Y-51786024D01*
X15043870Y-51786024D01*
X15043873Y-51786025D01*
X15239997Y-51805341D01*
X15240000Y-51805341D01*
X15240003Y-51805341D01*
X15436126Y-51786025D01*
X15436127Y-51786024D01*
X15436132Y-51786024D01*
X15624727Y-51728814D01*
X15798538Y-51635910D01*
X15950883Y-51510883D01*
X16075910Y-51358538D01*
X16168814Y-51184727D01*
X16226024Y-50996132D01*
X16245341Y-50800000D01*
X16245341Y-50799996D01*
X16226025Y-50603873D01*
X16226024Y-50603870D01*
X16226024Y-50603868D01*
X16168814Y-50415273D01*
X16075910Y-50241462D01*
X16058087Y-50219745D01*
X15950887Y-50089121D01*
X15950878Y-50089112D01*
X15798542Y-49964093D01*
X15798540Y-49964092D01*
X15798538Y-49964090D01*
X15757618Y-49942218D01*
X15624732Y-49871188D01*
X15624730Y-49871187D01*
X15436129Y-49813975D01*
X15436126Y-49813974D01*
X15240003Y-49794659D01*
X15239997Y-49794659D01*
X15043873Y-49813974D01*
X15043870Y-49813975D01*
X14855269Y-49871187D01*
X14855267Y-49871188D01*
X14681467Y-49964087D01*
X14681457Y-49964093D01*
X14529121Y-50089112D01*
X14529112Y-50089121D01*
X14446027Y-50190360D01*
X14394495Y-50223347D01*
X14333416Y-50219745D01*
X14286119Y-50180929D01*
X14270499Y-50127555D01*
X14270499Y-49695475D01*
X14289406Y-49637287D01*
X14299483Y-49625487D01*
X14725731Y-49199238D01*
X14780246Y-49171463D01*
X14840678Y-49181034D01*
X14842384Y-49181925D01*
X14855273Y-49188814D01*
X14992944Y-49230576D01*
X15043867Y-49246024D01*
X15043873Y-49246025D01*
X15239997Y-49265341D01*
X15240000Y-49265341D01*
X15240003Y-49265341D01*
X15436126Y-49246025D01*
X15436127Y-49246024D01*
X15436132Y-49246024D01*
X15624727Y-49188814D01*
X15798538Y-49095910D01*
X15950883Y-48970883D01*
X16075910Y-48818538D01*
X16168814Y-48644727D01*
X16226024Y-48456132D01*
X16245341Y-48260000D01*
X16245341Y-48259996D01*
X16226025Y-48063873D01*
X16226024Y-48063870D01*
X16226024Y-48063868D01*
X16168814Y-47875273D01*
X16075910Y-47701462D01*
X16075906Y-47701457D01*
X15950887Y-47549121D01*
X15950878Y-47549112D01*
X15798542Y-47424093D01*
X15798540Y-47424092D01*
X15798538Y-47424090D01*
X15757618Y-47402218D01*
X15624732Y-47331188D01*
X15624730Y-47331187D01*
X15436129Y-47273975D01*
X15436126Y-47273974D01*
X15240003Y-47254659D01*
X15239997Y-47254659D01*
X15043873Y-47273974D01*
X15043870Y-47273975D01*
X14855269Y-47331187D01*
X14855267Y-47331188D01*
X14681467Y-47424087D01*
X14681457Y-47424093D01*
X14529121Y-47549112D01*
X14529112Y-47549121D01*
X14404093Y-47701457D01*
X14404087Y-47701467D01*
X14311188Y-47875267D01*
X14311187Y-47875269D01*
X14253975Y-48063870D01*
X14253974Y-48063873D01*
X14234659Y-48259996D01*
X14234659Y-48260003D01*
X14253974Y-48456126D01*
X14253975Y-48456129D01*
X14311186Y-48644727D01*
X14318066Y-48657599D01*
X14328820Y-48717832D01*
X14302116Y-48772883D01*
X14300758Y-48774269D01*
X13970000Y-49105027D01*
X13970000Y-45502766D01*
X14018841Y-45482536D01*
X14097353Y-45422291D01*
X14155025Y-45401869D01*
X14213691Y-45419246D01*
X14250938Y-45467788D01*
X14254716Y-45520143D01*
X14253975Y-45523868D01*
X14234659Y-45719996D01*
X14234659Y-45720003D01*
X14253974Y-45916126D01*
X14253975Y-45916129D01*
X14311187Y-46104730D01*
X14311188Y-46104732D01*
X14382218Y-46237618D01*
X14404090Y-46278538D01*
X14404092Y-46278540D01*
X14404093Y-46278542D01*
X14529112Y-46430878D01*
X14529121Y-46430887D01*
X14681457Y-46555906D01*
X14681462Y-46555910D01*
X14855273Y-46648814D01*
X15043868Y-46706024D01*
X15043870Y-46706024D01*
X15043873Y-46706025D01*
X15239997Y-46725341D01*
X15240000Y-46725341D01*
X15240003Y-46725341D01*
X15436126Y-46706025D01*
X15436127Y-46706024D01*
X15436132Y-46706024D01*
X15624727Y-46648814D01*
X15798538Y-46555910D01*
X15950883Y-46430883D01*
X16075910Y-46278538D01*
X16168814Y-46104727D01*
X16226024Y-45916132D01*
X16245341Y-45720000D01*
X16245341Y-45719996D01*
X16226025Y-45523873D01*
X16226024Y-45523870D01*
X16226024Y-45523868D01*
X16168814Y-45335273D01*
X16075910Y-45161462D01*
X16013108Y-45084938D01*
X15950887Y-45009121D01*
X15950878Y-45009112D01*
X15798542Y-44884093D01*
X15798540Y-44884092D01*
X15798538Y-44884090D01*
X15732390Y-44848733D01*
X15624732Y-44791188D01*
X15624730Y-44791187D01*
X15436129Y-44733975D01*
X15436126Y-44733974D01*
X15240003Y-44714659D01*
X15239997Y-44714659D01*
X15043873Y-44733974D01*
X15043870Y-44733975D01*
X14855269Y-44791187D01*
X14855267Y-44791188D01*
X14681467Y-44884087D01*
X14681457Y-44884093D01*
X14529121Y-45009112D01*
X14529111Y-45009122D01*
X14493962Y-45051951D01*
X14442430Y-45084938D01*
X14381351Y-45081335D01*
X14334055Y-45042519D01*
X14318607Y-44983315D01*
X14319278Y-44976258D01*
X14321682Y-44958000D01*
X14307296Y-44848733D01*
X14318447Y-44788572D01*
X14332283Y-44769121D01*
X14356622Y-44742422D01*
X14358177Y-44740793D01*
X14372175Y-44726797D01*
X14374188Y-44723857D01*
X14378437Y-44718492D01*
X14399916Y-44694933D01*
X14403465Y-44685769D01*
X14414111Y-44665575D01*
X14419657Y-44657480D01*
X14426954Y-44626447D01*
X14428979Y-44619908D01*
X14440500Y-44590173D01*
X14440500Y-44580346D01*
X14443130Y-44557678D01*
X14445379Y-44548118D01*
X14440975Y-44516543D01*
X14440500Y-44509697D01*
X14440500Y-44027475D01*
X14459407Y-43969284D01*
X14508907Y-43933320D01*
X14570093Y-43933320D01*
X14602304Y-43950946D01*
X14681462Y-44015910D01*
X14855273Y-44108814D01*
X15043868Y-44166024D01*
X15043870Y-44166024D01*
X15043873Y-44166025D01*
X15239997Y-44185341D01*
X15240000Y-44185341D01*
X15240003Y-44185341D01*
X15436126Y-44166025D01*
X15436127Y-44166024D01*
X15436132Y-44166024D01*
X15624727Y-44108814D01*
X15798538Y-44015910D01*
X15950883Y-43890883D01*
X16075910Y-43738538D01*
X16168814Y-43564727D01*
X16226024Y-43376132D01*
X16245341Y-43180000D01*
X16245341Y-43179996D01*
X16226025Y-42983873D01*
X16226024Y-42983870D01*
X16226024Y-42983868D01*
X16168814Y-42795273D01*
X16075910Y-42621462D01*
X16075906Y-42621457D01*
X15950887Y-42469121D01*
X15950878Y-42469112D01*
X15798542Y-42344093D01*
X15798540Y-42344092D01*
X15798538Y-42344090D01*
X15757618Y-42322218D01*
X15624732Y-42251188D01*
X15624730Y-42251187D01*
X15436129Y-42193975D01*
X15436126Y-42193974D01*
X15240003Y-42174659D01*
X15239997Y-42174659D01*
X15043873Y-42193974D01*
X15043870Y-42193975D01*
X14855269Y-42251187D01*
X14855267Y-42251188D01*
X14681467Y-42344087D01*
X14681457Y-42344093D01*
X14557076Y-42446170D01*
X14500099Y-42468470D01*
X14440896Y-42453021D01*
X14412874Y-42425994D01*
X14412865Y-42425981D01*
X14403697Y-42409616D01*
X14392206Y-42383590D01*
X14392205Y-42383589D01*
X14392204Y-42383587D01*
X14385254Y-42376637D01*
X14371088Y-42358751D01*
X14365921Y-42350406D01*
X14365919Y-42350404D01*
X14340487Y-42331198D01*
X14335310Y-42326693D01*
X14132275Y-42123659D01*
X14104498Y-42069142D01*
X14114069Y-42008710D01*
X14157334Y-41965445D01*
X14164394Y-41962191D01*
X14261338Y-41922035D01*
X14288660Y-41910718D01*
X14414101Y-41814464D01*
X14510355Y-41689023D01*
X14570863Y-41542944D01*
X14570863Y-41542940D01*
X14571843Y-41540576D01*
X14611579Y-41494050D01*
X14671074Y-41479766D01*
X14709975Y-41491151D01*
X14855267Y-41568811D01*
X14855273Y-41568814D01*
X15043868Y-41626024D01*
X15043870Y-41626024D01*
X15043873Y-41626025D01*
X15239997Y-41645341D01*
X15240000Y-41645341D01*
X15240003Y-41645341D01*
X15436126Y-41626025D01*
X15436127Y-41626024D01*
X15436132Y-41626024D01*
X15624727Y-41568814D01*
X15798538Y-41475910D01*
X15950883Y-41350883D01*
X16075910Y-41198538D01*
X16168814Y-41024727D01*
X16226024Y-40836132D01*
X16230795Y-40787698D01*
X16245341Y-40640003D01*
X16245341Y-40639996D01*
X16226025Y-40443873D01*
X16226024Y-40443870D01*
X16226024Y-40443868D01*
X16168814Y-40255273D01*
X16075910Y-40081462D01*
X16075906Y-40081457D01*
X15950887Y-39929121D01*
X15950878Y-39929112D01*
X15798542Y-39804093D01*
X15798540Y-39804092D01*
X15798538Y-39804090D01*
X15757618Y-39782218D01*
X15624732Y-39711188D01*
X15624730Y-39711187D01*
X15436129Y-39653975D01*
X15436126Y-39653974D01*
X15240003Y-39634659D01*
X15239997Y-39634659D01*
X15043873Y-39653974D01*
X15043870Y-39653975D01*
X14855269Y-39711187D01*
X14855267Y-39711188D01*
X14681467Y-39804087D01*
X14681457Y-39804093D01*
X14529121Y-39929112D01*
X14529112Y-39929121D01*
X14404093Y-40081457D01*
X14404087Y-40081467D01*
X14311188Y-40255267D01*
X14311187Y-40255269D01*
X14253975Y-40443870D01*
X14253974Y-40443873D01*
X14238023Y-40605840D01*
X14213504Y-40661898D01*
X14160717Y-40692837D01*
X14099826Y-40686840D01*
X14054089Y-40646197D01*
X14040500Y-40596137D01*
X14040500Y-38143862D01*
X14053473Y-38103931D01*
X14040500Y-38056137D01*
X14040500Y-36580114D01*
X14059407Y-36521923D01*
X14108907Y-36485959D01*
X14170093Y-36485959D01*
X14209504Y-36510110D01*
X14770859Y-37071465D01*
X14798636Y-37125982D01*
X14789065Y-37186414D01*
X14747524Y-37228779D01*
X14681463Y-37264089D01*
X14681457Y-37264093D01*
X14529121Y-37389112D01*
X14529112Y-37389121D01*
X14404093Y-37541457D01*
X14404087Y-37541467D01*
X14311188Y-37715267D01*
X14311187Y-37715269D01*
X14253975Y-37903870D01*
X14253974Y-37903873D01*
X14238023Y-38065840D01*
X14224129Y-38097605D01*
X14238023Y-38134159D01*
X14253974Y-38296126D01*
X14253975Y-38296129D01*
X14311187Y-38484730D01*
X14311188Y-38484732D01*
X14382218Y-38617618D01*
X14404090Y-38658538D01*
X14404092Y-38658540D01*
X14404093Y-38658542D01*
X14529112Y-38810878D01*
X14529121Y-38810887D01*
X14681457Y-38935906D01*
X14681462Y-38935910D01*
X14855273Y-39028814D01*
X15043868Y-39086024D01*
X15043870Y-39086024D01*
X15043873Y-39086025D01*
X15239997Y-39105341D01*
X15240000Y-39105341D01*
X15240003Y-39105341D01*
X15436126Y-39086025D01*
X15436127Y-39086024D01*
X15436132Y-39086024D01*
X15624727Y-39028814D01*
X15798538Y-38935910D01*
X15950883Y-38810883D01*
X16075910Y-38658538D01*
X16168814Y-38484727D01*
X16226024Y-38296132D01*
X16245341Y-38100000D01*
X16245341Y-38099996D01*
X16226025Y-37903873D01*
X16226024Y-37903870D01*
X16226024Y-37903868D01*
X16168814Y-37715273D01*
X16075910Y-37541462D01*
X16075906Y-37541457D01*
X15950887Y-37389121D01*
X15950878Y-37389112D01*
X15798542Y-37264093D01*
X15798540Y-37264092D01*
X15798538Y-37264090D01*
X15732476Y-37228779D01*
X15624732Y-37171188D01*
X15624725Y-37171185D01*
X15609489Y-37166563D01*
X15559293Y-37131576D01*
X15540916Y-37090022D01*
X15540500Y-37087796D01*
X15540500Y-37087791D01*
X15539844Y-37084288D01*
X15539056Y-37077487D01*
X15537585Y-37045644D01*
X15533613Y-37036649D01*
X15526865Y-37014855D01*
X15525061Y-37005202D01*
X15508278Y-36978097D01*
X15505085Y-36972041D01*
X15496090Y-36951666D01*
X15492207Y-36942871D01*
X15485257Y-36935921D01*
X15471088Y-36918031D01*
X15465920Y-36909684D01*
X15465919Y-36909683D01*
X15440483Y-36890474D01*
X15435306Y-36885969D01*
X15273924Y-36724588D01*
X15246147Y-36670071D01*
X15255718Y-36609639D01*
X15298983Y-36566374D01*
X15334225Y-36556061D01*
X15436126Y-36546025D01*
X15436127Y-36546024D01*
X15436132Y-36546024D01*
X15624727Y-36488814D01*
X15798538Y-36395910D01*
X15950883Y-36270883D01*
X16075910Y-36118538D01*
X16168814Y-35944727D01*
X16226024Y-35756132D01*
X16245341Y-35560000D01*
X16245341Y-35559996D01*
X16226025Y-35363873D01*
X16226024Y-35363870D01*
X16226024Y-35363868D01*
X16168814Y-35175273D01*
X16075910Y-35001462D01*
X16039500Y-34957096D01*
X15950887Y-34849121D01*
X15950878Y-34849112D01*
X15798542Y-34724093D01*
X15798540Y-34724092D01*
X15798538Y-34724090D01*
X15757618Y-34702218D01*
X15624732Y-34631188D01*
X15624730Y-34631187D01*
X15436129Y-34573975D01*
X15436126Y-34573974D01*
X15240003Y-34554659D01*
X15239997Y-34554659D01*
X15043873Y-34573974D01*
X15043870Y-34573975D01*
X14855269Y-34631187D01*
X14855267Y-34631188D01*
X14681467Y-34724087D01*
X14681457Y-34724093D01*
X14602305Y-34789052D01*
X14545328Y-34811352D01*
X14486125Y-34795903D01*
X14447310Y-34748606D01*
X14440500Y-34712524D01*
X14440500Y-33867475D01*
X14459407Y-33809284D01*
X14508907Y-33773320D01*
X14570093Y-33773320D01*
X14602304Y-33790946D01*
X14681462Y-33855910D01*
X14855273Y-33948814D01*
X15043868Y-34006024D01*
X15043870Y-34006024D01*
X15043873Y-34006025D01*
X15239997Y-34025341D01*
X15240000Y-34025341D01*
X15240003Y-34025341D01*
X15436126Y-34006025D01*
X15436127Y-34006024D01*
X15436132Y-34006024D01*
X15624727Y-33948814D01*
X15798538Y-33855910D01*
X15950883Y-33730883D01*
X16075910Y-33578538D01*
X16168814Y-33404727D01*
X16226024Y-33216132D01*
X16245341Y-33020000D01*
X16245341Y-33019996D01*
X16226025Y-32823873D01*
X16226024Y-32823870D01*
X16226024Y-32823868D01*
X16168814Y-32635273D01*
X16075910Y-32461462D01*
X16039500Y-32417096D01*
X15950887Y-32309121D01*
X15950878Y-32309112D01*
X15798542Y-32184093D01*
X15798540Y-32184092D01*
X15798538Y-32184090D01*
X15757618Y-32162218D01*
X15624732Y-32091188D01*
X15624730Y-32091187D01*
X15436129Y-32033975D01*
X15436126Y-32033974D01*
X15240003Y-32014659D01*
X15239997Y-32014659D01*
X15043873Y-32033974D01*
X15043870Y-32033975D01*
X14855269Y-32091187D01*
X14855267Y-32091188D01*
X14681467Y-32184087D01*
X14681457Y-32184093D01*
X14602305Y-32249052D01*
X14545328Y-32271352D01*
X14486125Y-32255903D01*
X14447310Y-32208606D01*
X14440500Y-32172524D01*
X14440500Y-31327475D01*
X14459407Y-31269284D01*
X14508907Y-31233320D01*
X14570093Y-31233320D01*
X14602304Y-31250946D01*
X14681462Y-31315910D01*
X14855273Y-31408814D01*
X15043868Y-31466024D01*
X15043870Y-31466024D01*
X15043873Y-31466025D01*
X15239997Y-31485341D01*
X15240000Y-31485341D01*
X15240003Y-31485341D01*
X15436126Y-31466025D01*
X15436127Y-31466024D01*
X15436132Y-31466024D01*
X15624727Y-31408814D01*
X15798538Y-31315910D01*
X15950883Y-31190883D01*
X16075910Y-31038538D01*
X16168814Y-30864727D01*
X16226024Y-30676132D01*
X16245341Y-30480000D01*
X16245341Y-30479996D01*
X16226025Y-30283873D01*
X16226024Y-30283870D01*
X16226024Y-30283868D01*
X16168814Y-30095273D01*
X16075910Y-29921462D01*
X16039500Y-29877096D01*
X15950887Y-29769121D01*
X15950878Y-29769112D01*
X15798542Y-29644093D01*
X15798540Y-29644092D01*
X15798538Y-29644090D01*
X15757618Y-29622218D01*
X15624732Y-29551188D01*
X15624730Y-29551187D01*
X15436129Y-29493975D01*
X15436126Y-29493974D01*
X15240003Y-29474659D01*
X15239995Y-29474659D01*
X15170464Y-29481506D01*
X15110700Y-29468393D01*
X15070059Y-29422656D01*
X15062609Y-29370061D01*
X15063043Y-29366764D01*
X15063044Y-29366762D01*
X15083682Y-29210000D01*
X15063044Y-29053238D01*
X15063043Y-29053236D01*
X15062609Y-29049938D01*
X15073759Y-28989778D01*
X15118141Y-28947660D01*
X15170465Y-28938493D01*
X15239997Y-28945341D01*
X15240000Y-28945341D01*
X15240003Y-28945341D01*
X15436126Y-28926025D01*
X15436127Y-28926024D01*
X15436132Y-28926024D01*
X15624727Y-28868814D01*
X15798538Y-28775910D01*
X15950883Y-28650883D01*
X16075910Y-28498538D01*
X16168814Y-28324727D01*
X16226024Y-28136132D01*
X16228024Y-28115833D01*
X16245341Y-27940003D01*
X16245341Y-27939996D01*
X16226025Y-27743873D01*
X16226024Y-27743870D01*
X16226024Y-27743868D01*
X16168814Y-27555273D01*
X16075910Y-27381462D01*
X16075906Y-27381457D01*
X15950887Y-27229121D01*
X15950878Y-27229112D01*
X15798542Y-27104093D01*
X15798540Y-27104092D01*
X15798538Y-27104090D01*
X15757618Y-27082218D01*
X15624732Y-27011188D01*
X15624730Y-27011187D01*
X15436129Y-26953975D01*
X15436126Y-26953974D01*
X15240003Y-26934659D01*
X15239997Y-26934659D01*
X15043873Y-26953974D01*
X15043870Y-26953975D01*
X14855269Y-27011187D01*
X14855267Y-27011188D01*
X14681467Y-27104087D01*
X14681457Y-27104093D01*
X14529121Y-27229112D01*
X14529112Y-27229121D01*
X14404093Y-27381457D01*
X14404087Y-27381467D01*
X14311188Y-27555267D01*
X14311186Y-27555272D01*
X14306950Y-27569238D01*
X14271965Y-27619435D01*
X14214157Y-27639481D01*
X14212213Y-27639500D01*
X14173798Y-27639500D01*
X14160118Y-27637267D01*
X14159948Y-27638493D01*
X14150864Y-27637225D01*
X14110521Y-27639091D01*
X14102816Y-27639447D01*
X14100540Y-27639500D01*
X14080786Y-27639500D01*
X14080772Y-27639501D01*
X14077288Y-27640152D01*
X14070483Y-27640941D01*
X14047993Y-27641981D01*
X14038639Y-27642414D01*
X14038638Y-27642414D01*
X14029641Y-27646387D01*
X14007852Y-27653134D01*
X14001312Y-27654356D01*
X13998196Y-27654939D01*
X13971097Y-27671717D01*
X13970000Y-27672295D01*
X13970000Y-25400003D01*
X14234659Y-25400003D01*
X14253974Y-25596126D01*
X14253975Y-25596129D01*
X14311187Y-25784730D01*
X14311188Y-25784732D01*
X14382218Y-25917618D01*
X14404090Y-25958538D01*
X14404092Y-25958540D01*
X14404093Y-25958542D01*
X14529112Y-26110878D01*
X14529121Y-26110887D01*
X14681457Y-26235906D01*
X14681462Y-26235910D01*
X14855273Y-26328814D01*
X15043868Y-26386024D01*
X15043870Y-26386024D01*
X15043873Y-26386025D01*
X15239997Y-26405341D01*
X15240000Y-26405341D01*
X15240003Y-26405341D01*
X15436126Y-26386025D01*
X15436127Y-26386024D01*
X15436132Y-26386024D01*
X15624727Y-26328814D01*
X15798538Y-26235910D01*
X15950883Y-26110883D01*
X16075910Y-25958538D01*
X16168814Y-25784727D01*
X16226024Y-25596132D01*
X16245341Y-25400000D01*
X16245341Y-25399996D01*
X16226025Y-25203873D01*
X16226024Y-25203870D01*
X16226024Y-25203868D01*
X16168814Y-25015273D01*
X16075910Y-24841462D01*
X16075906Y-24841457D01*
X15950887Y-24689121D01*
X15950878Y-24689112D01*
X15798542Y-24564093D01*
X15798540Y-24564092D01*
X15798538Y-24564090D01*
X15757618Y-24542218D01*
X15624732Y-24471188D01*
X15624730Y-24471187D01*
X15436129Y-24413975D01*
X15436126Y-24413974D01*
X15240003Y-24394659D01*
X15239997Y-24394659D01*
X15043873Y-24413974D01*
X15043870Y-24413975D01*
X14855269Y-24471187D01*
X14855267Y-24471188D01*
X14681467Y-24564087D01*
X14681457Y-24564093D01*
X14529121Y-24689112D01*
X14529112Y-24689121D01*
X14404093Y-24841457D01*
X14404087Y-24841467D01*
X14311188Y-25015267D01*
X14311187Y-25015269D01*
X14253975Y-25203870D01*
X14253974Y-25203873D01*
X14234659Y-25399996D01*
X14234659Y-25400003D01*
X13970000Y-25400003D01*
X13970000Y-20898391D01*
X13986536Y-20876841D01*
X14047044Y-20730762D01*
X14067682Y-20574000D01*
X14067681Y-20573992D01*
X14067681Y-20569415D01*
X14086583Y-20511222D01*
X14136080Y-20475254D01*
X14197265Y-20475249D01*
X14246768Y-20511208D01*
X14261418Y-20540667D01*
X14311187Y-20704730D01*
X14311188Y-20704732D01*
X14325104Y-20730766D01*
X14404090Y-20878538D01*
X14404092Y-20878540D01*
X14404093Y-20878542D01*
X14529112Y-21030878D01*
X14529121Y-21030887D01*
X14681457Y-21155906D01*
X14681462Y-21155910D01*
X14855273Y-21248814D01*
X15043868Y-21306024D01*
X15043870Y-21306024D01*
X15043873Y-21306025D01*
X15239997Y-21325341D01*
X15240000Y-21325341D01*
X15240003Y-21325341D01*
X15436126Y-21306025D01*
X15436127Y-21306024D01*
X15436132Y-21306024D01*
X15624727Y-21248814D01*
X15798538Y-21155910D01*
X15950883Y-21030883D01*
X16075910Y-20878538D01*
X16168814Y-20704727D01*
X16226024Y-20516132D01*
X16245341Y-20320000D01*
X16228176Y-20145718D01*
X16226025Y-20123873D01*
X16226024Y-20123870D01*
X16226024Y-20123868D01*
X16168814Y-19935273D01*
X16075910Y-19761462D01*
X16075906Y-19761457D01*
X15950887Y-19609121D01*
X15950878Y-19609112D01*
X15798542Y-19484093D01*
X15798540Y-19484092D01*
X15798538Y-19484090D01*
X15753647Y-19460095D01*
X15624732Y-19391188D01*
X15624730Y-19391187D01*
X15436129Y-19333975D01*
X15436126Y-19333974D01*
X15240003Y-19314659D01*
X15239997Y-19314659D01*
X15043873Y-19333974D01*
X15043870Y-19333975D01*
X14855269Y-19391187D01*
X14855267Y-19391188D01*
X14681467Y-19484087D01*
X14681457Y-19484093D01*
X14559305Y-19584341D01*
X14502328Y-19606641D01*
X14443125Y-19591192D01*
X14404310Y-19543895D01*
X14397500Y-19507813D01*
X14397500Y-19088478D01*
X14416407Y-19030287D01*
X14426496Y-19018475D01*
X14725729Y-18719241D01*
X14780246Y-18691463D01*
X14840678Y-18701034D01*
X14842384Y-18701925D01*
X14855273Y-18708814D01*
X14992944Y-18750576D01*
X15043867Y-18766024D01*
X15043873Y-18766025D01*
X15239997Y-18785341D01*
X15240000Y-18785341D01*
X15240003Y-18785341D01*
X15436126Y-18766025D01*
X15436127Y-18766024D01*
X15436132Y-18766024D01*
X15624727Y-18708814D01*
X15798538Y-18615910D01*
X15950883Y-18490883D01*
X16075910Y-18338538D01*
X16168814Y-18164727D01*
X16226024Y-17976132D01*
X16245341Y-17780000D01*
X16245341Y-17779996D01*
X16226025Y-17583873D01*
X16226024Y-17583870D01*
X16226024Y-17583868D01*
X16168814Y-17395273D01*
X16075910Y-17221462D01*
X16075906Y-17221457D01*
X15950887Y-17069121D01*
X15950878Y-17069112D01*
X15798542Y-16944093D01*
X15798540Y-16944092D01*
X15798538Y-16944090D01*
X15757618Y-16922218D01*
X15624732Y-16851188D01*
X15624730Y-16851187D01*
X15436129Y-16793975D01*
X15436126Y-16793974D01*
X15240003Y-16774659D01*
X15239997Y-16774659D01*
X15043873Y-16793974D01*
X15043870Y-16793975D01*
X14855269Y-16851187D01*
X14855267Y-16851188D01*
X14681467Y-16944087D01*
X14681457Y-16944093D01*
X14529121Y-17069112D01*
X14529112Y-17069121D01*
X14404093Y-17221457D01*
X14404087Y-17221467D01*
X14311188Y-17395267D01*
X14311187Y-17395269D01*
X14253975Y-17583870D01*
X14253974Y-17583873D01*
X14234659Y-17779996D01*
X14234659Y-17780003D01*
X14253974Y-17976126D01*
X14253975Y-17976129D01*
X14311186Y-18164727D01*
X14318066Y-18177599D01*
X14328820Y-18237832D01*
X14302116Y-18292883D01*
X14300758Y-18294269D01*
X14019062Y-18575965D01*
X13970000Y-18600962D01*
X13970000Y-16934970D01*
X14725731Y-16179238D01*
X14780246Y-16151463D01*
X14840678Y-16161034D01*
X14842384Y-16161925D01*
X14855273Y-16168814D01*
X14992944Y-16210576D01*
X15043867Y-16226024D01*
X15043873Y-16226025D01*
X15239997Y-16245341D01*
X15240000Y-16245341D01*
X15240003Y-16245341D01*
X15436126Y-16226025D01*
X15436127Y-16226024D01*
X15436132Y-16226024D01*
X15624727Y-16168814D01*
X15798538Y-16075910D01*
X15950883Y-15950883D01*
X16075910Y-15798538D01*
X16168814Y-15624727D01*
X16226024Y-15436132D01*
X16245341Y-15240000D01*
X16245341Y-15239996D01*
X16226025Y-15043873D01*
X16226024Y-15043870D01*
X16226024Y-15043868D01*
X16168814Y-14855273D01*
X16075910Y-14681462D01*
X16075906Y-14681457D01*
X15950887Y-14529121D01*
X15950878Y-14529112D01*
X15798542Y-14404093D01*
X15798540Y-14404092D01*
X15798538Y-14404090D01*
X15757618Y-14382218D01*
X15624732Y-14311188D01*
X15624730Y-14311187D01*
X15436129Y-14253975D01*
X15436126Y-14253974D01*
X15240003Y-14234659D01*
X15239997Y-14234659D01*
X15043873Y-14253974D01*
X15043870Y-14253975D01*
X14855269Y-14311187D01*
X14855267Y-14311188D01*
X14681467Y-14404087D01*
X14681457Y-14404093D01*
X14529121Y-14529112D01*
X14529112Y-14529121D01*
X14404093Y-14681457D01*
X14404087Y-14681467D01*
X14311188Y-14855267D01*
X14311187Y-14855269D01*
X14253975Y-15043870D01*
X14253974Y-15043873D01*
X14234659Y-15239996D01*
X14234659Y-15240003D01*
X14253974Y-15436126D01*
X14253975Y-15436129D01*
X14311186Y-15624727D01*
X14318066Y-15637599D01*
X14328820Y-15697832D01*
X14302116Y-15752883D01*
X14300758Y-15754268D01*
X13970000Y-16085026D01*
X13970000Y-13597391D01*
X13986536Y-13575841D01*
X14047044Y-13429762D01*
X14067682Y-13273000D01*
X14047044Y-13116238D01*
X13986537Y-12970161D01*
X13986537Y-12970160D01*
X13970000Y-12948608D01*
X13970000Y-12700003D01*
X14234659Y-12700003D01*
X14253974Y-12896126D01*
X14253975Y-12896129D01*
X14311187Y-13084730D01*
X14311188Y-13084732D01*
X14382218Y-13217618D01*
X14404090Y-13258538D01*
X14404092Y-13258540D01*
X14404093Y-13258542D01*
X14529112Y-13410878D01*
X14529121Y-13410887D01*
X14681457Y-13535906D01*
X14681462Y-13535910D01*
X14855273Y-13628814D01*
X15043868Y-13686024D01*
X15043870Y-13686024D01*
X15043873Y-13686025D01*
X15239997Y-13705341D01*
X15240000Y-13705341D01*
X15240003Y-13705341D01*
X15436126Y-13686025D01*
X15436127Y-13686024D01*
X15436132Y-13686024D01*
X15624727Y-13628814D01*
X15798538Y-13535910D01*
X15950883Y-13410883D01*
X16075910Y-13258538D01*
X16168814Y-13084727D01*
X16226024Y-12896132D01*
X16245341Y-12700000D01*
X16244155Y-12687956D01*
X16226025Y-12503873D01*
X16226024Y-12503870D01*
X16226024Y-12503868D01*
X16168814Y-12315273D01*
X16075910Y-12141462D01*
X16075906Y-12141457D01*
X15950887Y-11989121D01*
X15950878Y-11989112D01*
X15798542Y-11864093D01*
X15798540Y-11864092D01*
X15798538Y-11864090D01*
X15757618Y-11842218D01*
X15624732Y-11771188D01*
X15624730Y-11771187D01*
X15436129Y-11713975D01*
X15436126Y-11713974D01*
X15240003Y-11694659D01*
X15239997Y-11694659D01*
X15043873Y-11713974D01*
X15043870Y-11713975D01*
X14855269Y-11771187D01*
X14855267Y-11771188D01*
X14681467Y-11864087D01*
X14681457Y-11864093D01*
X14529121Y-11989112D01*
X14529112Y-11989121D01*
X14404093Y-12141457D01*
X14404087Y-12141467D01*
X14311188Y-12315267D01*
X14311187Y-12315269D01*
X14253975Y-12503870D01*
X14253974Y-12503873D01*
X14234659Y-12699996D01*
X14234659Y-12700003D01*
X13970000Y-12700003D01*
X13970000Y-10160003D01*
X14234659Y-10160003D01*
X14253974Y-10356126D01*
X14253975Y-10356129D01*
X14311187Y-10544730D01*
X14311188Y-10544732D01*
X14382218Y-10677618D01*
X14404090Y-10718538D01*
X14404092Y-10718540D01*
X14404093Y-10718542D01*
X14529112Y-10870878D01*
X14529121Y-10870887D01*
X14681457Y-10995906D01*
X14681462Y-10995910D01*
X14855273Y-11088814D01*
X15043868Y-11146024D01*
X15043870Y-11146024D01*
X15043873Y-11146025D01*
X15239997Y-11165341D01*
X15240000Y-11165341D01*
X15240003Y-11165341D01*
X15436126Y-11146025D01*
X15436127Y-11146024D01*
X15436132Y-11146024D01*
X15624727Y-11088814D01*
X15798538Y-10995910D01*
X15950883Y-10870883D01*
X16075910Y-10718538D01*
X16168814Y-10544727D01*
X16226024Y-10356132D01*
X16245341Y-10160000D01*
X16245341Y-10159996D01*
X16226025Y-9963873D01*
X16226024Y-9963870D01*
X16226024Y-9963868D01*
X16168814Y-9775273D01*
X16075910Y-9601462D01*
X16069211Y-9593299D01*
X15950887Y-9449121D01*
X15950878Y-9449112D01*
X15798542Y-9324093D01*
X15798540Y-9324092D01*
X15798538Y-9324090D01*
X15757618Y-9302218D01*
X15624732Y-9231188D01*
X15624730Y-9231187D01*
X15436129Y-9173975D01*
X15436126Y-9173974D01*
X15240003Y-9154659D01*
X15239997Y-9154659D01*
X15043873Y-9173974D01*
X15043870Y-9173975D01*
X14855269Y-9231187D01*
X14855267Y-9231188D01*
X14681467Y-9324087D01*
X14681457Y-9324093D01*
X14529121Y-9449112D01*
X14529112Y-9449121D01*
X14404093Y-9601457D01*
X14404087Y-9601467D01*
X14311188Y-9775267D01*
X14311187Y-9775269D01*
X14253975Y-9963870D01*
X14253974Y-9963873D01*
X14234659Y-10159996D01*
X14234659Y-10160003D01*
X13970000Y-10160003D01*
X13970000Y-9314970D01*
X14725731Y-8559238D01*
X14780246Y-8531463D01*
X14840678Y-8541034D01*
X14842384Y-8541925D01*
X14855273Y-8548814D01*
X14992944Y-8590576D01*
X15043867Y-8606024D01*
X15043873Y-8606025D01*
X15239997Y-8625341D01*
X15240000Y-8625341D01*
X15240003Y-8625341D01*
X15436126Y-8606025D01*
X15436127Y-8606024D01*
X15436132Y-8606024D01*
X15624727Y-8548814D01*
X15798538Y-8455910D01*
X15950883Y-8330883D01*
X16075910Y-8178538D01*
X16168814Y-8004727D01*
X16226024Y-7816132D01*
X16230979Y-7765830D01*
X16245341Y-7620003D01*
X16245341Y-7619996D01*
X16226025Y-7423873D01*
X16226024Y-7423870D01*
X16226024Y-7423868D01*
X16168814Y-7235273D01*
X16075910Y-7061462D01*
X16075906Y-7061457D01*
X15950887Y-6909121D01*
X15950878Y-6909112D01*
X15798542Y-6784093D01*
X15798540Y-6784092D01*
X15798538Y-6784090D01*
X15757618Y-6762218D01*
X15624732Y-6691188D01*
X15624730Y-6691187D01*
X15436129Y-6633975D01*
X15436126Y-6633974D01*
X15240003Y-6614659D01*
X15239997Y-6614659D01*
X15043873Y-6633974D01*
X15043870Y-6633975D01*
X14855269Y-6691187D01*
X14855267Y-6691188D01*
X14681467Y-6784087D01*
X14681457Y-6784093D01*
X14529121Y-6909112D01*
X14529112Y-6909121D01*
X14404093Y-7061457D01*
X14404087Y-7061467D01*
X14311188Y-7235267D01*
X14311187Y-7235269D01*
X14253975Y-7423870D01*
X14253974Y-7423873D01*
X14234659Y-7619996D01*
X14234659Y-7620003D01*
X14253974Y-7816126D01*
X14253975Y-7816129D01*
X14311186Y-8004727D01*
X14318066Y-8017599D01*
X14328820Y-8077832D01*
X14302116Y-8132883D01*
X14300758Y-8134268D01*
X13970000Y-8465026D01*
X13970000Y-6774970D01*
X14725731Y-6019238D01*
X14780246Y-5991463D01*
X14840678Y-6001034D01*
X14842384Y-6001925D01*
X14855273Y-6008814D01*
X14992944Y-6050576D01*
X15043867Y-6066024D01*
X15043873Y-6066025D01*
X15239997Y-6085341D01*
X15240000Y-6085341D01*
X15240003Y-6085341D01*
X15436126Y-6066025D01*
X15436127Y-6066024D01*
X15436132Y-6066024D01*
X15624727Y-6008814D01*
X15798538Y-5915910D01*
X15950883Y-5790883D01*
X16075910Y-5638538D01*
X16168814Y-5464727D01*
X16226024Y-5276132D01*
X16245341Y-5080000D01*
X16245341Y-5079996D01*
X16226025Y-4883873D01*
X16226024Y-4883870D01*
X16226024Y-4883868D01*
X16168814Y-4695273D01*
X16075910Y-4521462D01*
X16075906Y-4521457D01*
X15950887Y-4369121D01*
X15950878Y-4369112D01*
X15798542Y-4244093D01*
X15798540Y-4244092D01*
X15798538Y-4244090D01*
X15757618Y-4222218D01*
X15624732Y-4151188D01*
X15624730Y-4151187D01*
X15436129Y-4093975D01*
X15436126Y-4093974D01*
X15240003Y-4074659D01*
X15239997Y-4074659D01*
X15043873Y-4093974D01*
X15043870Y-4093975D01*
X14855269Y-4151187D01*
X14855267Y-4151188D01*
X14681467Y-4244087D01*
X14681457Y-4244093D01*
X14529121Y-4369112D01*
X14529112Y-4369121D01*
X14404093Y-4521457D01*
X14404087Y-4521467D01*
X14311188Y-4695267D01*
X14311187Y-4695269D01*
X14253975Y-4883870D01*
X14253974Y-4883873D01*
X14234659Y-5079996D01*
X14234659Y-5080003D01*
X14253974Y-5276126D01*
X14253975Y-5276129D01*
X14311186Y-5464727D01*
X14318066Y-5477599D01*
X14328820Y-5537832D01*
X14302116Y-5592883D01*
X14300758Y-5594268D01*
X13970000Y-5925026D01*
X13970000Y-2840500D01*
X14212213Y-2840500D01*
X14270404Y-2859407D01*
X14306368Y-2908907D01*
X14306950Y-2910762D01*
X14311186Y-2924727D01*
X14311188Y-2924732D01*
X14382218Y-3057618D01*
X14404090Y-3098538D01*
X14404092Y-3098540D01*
X14404093Y-3098542D01*
X14529112Y-3250878D01*
X14529121Y-3250887D01*
X14681457Y-3375906D01*
X14681462Y-3375910D01*
X14855273Y-3468814D01*
X15043868Y-3526024D01*
X15043870Y-3526024D01*
X15043873Y-3526025D01*
X15239997Y-3545341D01*
X15240000Y-3545341D01*
X15240003Y-3545341D01*
X15436126Y-3526025D01*
X15436127Y-3526024D01*
X15436132Y-3526024D01*
X15624727Y-3468814D01*
X15798538Y-3375910D01*
X15950883Y-3250883D01*
X16075910Y-3098538D01*
X16168814Y-2924727D01*
X16226024Y-2736132D01*
X16227197Y-2724228D01*
X16245341Y-2540003D01*
X16245341Y-2539996D01*
X16226025Y-2343873D01*
X16226024Y-2343870D01*
X16226024Y-2343868D01*
X16168814Y-2155273D01*
X16075910Y-1981462D01*
X16075906Y-1981457D01*
X15950887Y-1829121D01*
X15950878Y-1829112D01*
X15798542Y-1704093D01*
X15798540Y-1704092D01*
X15798538Y-1704090D01*
X15757618Y-1682218D01*
X15624732Y-1611188D01*
X15624730Y-1611187D01*
X15436129Y-1553975D01*
X15436126Y-1553974D01*
X15240003Y-1534659D01*
X15239997Y-1534659D01*
X15043873Y-1553974D01*
X15043870Y-1553975D01*
X14855269Y-1611187D01*
X14855267Y-1611188D01*
X14681467Y-1704087D01*
X14681457Y-1704093D01*
X14529121Y-1829112D01*
X14529112Y-1829121D01*
X14404093Y-1981457D01*
X14404087Y-1981467D01*
X14311188Y-2155267D01*
X14311186Y-2155272D01*
X14306950Y-2169238D01*
X14271965Y-2219435D01*
X14214157Y-2239481D01*
X14212213Y-2239500D01*
X13970000Y-2239500D01*
X13970000Y-300500D01*
X14212213Y-300500D01*
X14270404Y-319407D01*
X14306368Y-368907D01*
X14306950Y-370762D01*
X14311186Y-384727D01*
X14311188Y-384732D01*
X14382218Y-517618D01*
X14404090Y-558538D01*
X14404092Y-558540D01*
X14404093Y-558542D01*
X14529112Y-710878D01*
X14529121Y-710887D01*
X14681457Y-835906D01*
X14681462Y-835910D01*
X14855273Y-928814D01*
X15043868Y-986024D01*
X15043870Y-986024D01*
X15043873Y-986025D01*
X15239997Y-1005341D01*
X15240000Y-1005341D01*
X15240003Y-1005341D01*
X15436126Y-986025D01*
X15436127Y-986024D01*
X15436132Y-986024D01*
X15624727Y-928814D01*
X15798538Y-835910D01*
X15950883Y-710883D01*
X16075910Y-558538D01*
X16168814Y-384727D01*
X16226024Y-196132D01*
X16227197Y-184228D01*
X16245341Y-3D01*
X16245341Y4D01*
X16226025Y196127D01*
X16226024Y196130D01*
X16226024Y196132D01*
X16168814Y384727D01*
X16075910Y558538D01*
X16075906Y558543D01*
X15950887Y710879D01*
X15950878Y710888D01*
X15798542Y835907D01*
X15798540Y835908D01*
X15798538Y835910D01*
X15757618Y857782D01*
X15624732Y928812D01*
X15624730Y928813D01*
X15436129Y986025D01*
X15436126Y986026D01*
X15240003Y1005341D01*
X15239997Y1005341D01*
X15043873Y986026D01*
X15043870Y986025D01*
X14855269Y928813D01*
X14855267Y928812D01*
X14681467Y835913D01*
X14681457Y835907D01*
X14529121Y710888D01*
X14529112Y710879D01*
X14404093Y558543D01*
X14404087Y558533D01*
X14311188Y384733D01*
X14311186Y384728D01*
X14306950Y370762D01*
X14271965Y320565D01*
X14214157Y300519D01*
X14212213Y300500D01*
X13970000Y300500D01*
X13969999Y2363415D01*
X14351120Y2363255D01*
G37*
%TD.AperFunction*%
%TD*%
%TA.AperFunction,Conductor*%
%TO.N,GND*%
G36*
X13970000Y-81103232D02*
G01*
X1270000Y-81103232D01*
X1270000Y-76214246D01*
X3161766Y-78106012D01*
X3714016Y-78658262D01*
X3741793Y-78712779D01*
X3742065Y-78733511D01*
X3742322Y-78733511D01*
X3742322Y-78740000D01*
X3762959Y-78896758D01*
X3762961Y-78896766D01*
X3823466Y-79042838D01*
X3823466Y-79042839D01*
X3823468Y-79042841D01*
X3919722Y-79168282D01*
X4045163Y-79264536D01*
X4191242Y-79325044D01*
X4308813Y-79340522D01*
X4348003Y-79345682D01*
X4348004Y-79345682D01*
X4348005Y-79345682D01*
X4379356Y-79341554D01*
X4504766Y-79325044D01*
X4649638Y-79265035D01*
X4687523Y-79257500D01*
X10094850Y-79257500D01*
X10094850Y-79257499D01*
X10104250Y-79254444D01*
X10117026Y-79250294D01*
X10132133Y-79246665D01*
X10155175Y-79243017D01*
X10175962Y-79232424D01*
X10190294Y-79226487D01*
X10212493Y-79219275D01*
X10231369Y-79205560D01*
X10244602Y-79197451D01*
X10265391Y-79186859D01*
X10352859Y-79099391D01*
X10352859Y-79099390D01*
X13970000Y-75482249D01*
X13970000Y-81103232D01*
G37*
%TD.AperFunction*%
%TA.AperFunction,Conductor*%
G36*
X13137780Y-56159740D02*
G01*
X13161195Y-56216268D01*
X13161500Y-56224035D01*
X13161499Y-56613431D01*
X13142592Y-56671622D01*
X13093091Y-56707586D01*
X13075423Y-56711584D01*
X13011837Y-56719956D01*
X12865762Y-56780462D01*
X12865761Y-56780462D01*
X12740324Y-56876713D01*
X12740314Y-56876723D01*
X12644063Y-57002160D01*
X12644063Y-57002161D01*
X12583558Y-57148233D01*
X12583556Y-57148241D01*
X12562919Y-57304999D01*
X12562919Y-57305000D01*
X12583556Y-57461758D01*
X12583558Y-57461766D01*
X12644063Y-57607838D01*
X12644063Y-57607839D01*
X12718245Y-57704515D01*
X12740319Y-57733282D01*
X12865760Y-57829536D01*
X12865761Y-57829536D01*
X12865762Y-57829537D01*
X12888610Y-57839001D01*
X13011839Y-57890044D01*
X13129410Y-57905522D01*
X13168600Y-57910682D01*
X13168601Y-57910682D01*
X13168602Y-57910682D01*
X13199953Y-57906554D01*
X13325363Y-57890044D01*
X13471442Y-57829536D01*
X13596883Y-57733282D01*
X13618957Y-57704514D01*
X13669380Y-57669858D01*
X13730545Y-57671459D01*
X13779087Y-57708706D01*
X13796499Y-57764781D01*
X13796499Y-69911835D01*
X13794315Y-69925518D01*
X13795494Y-69925683D01*
X13794226Y-69934766D01*
X13796447Y-69982783D01*
X13796500Y-69985069D01*
X13796500Y-70004842D01*
X13797152Y-70008332D01*
X13797943Y-70015149D01*
X13799414Y-70046987D01*
X13799415Y-70046994D01*
X13803384Y-70055982D01*
X13810133Y-70077773D01*
X13811939Y-70087433D01*
X13828717Y-70114533D01*
X13831915Y-70120600D01*
X13844793Y-70149763D01*
X13844794Y-70149765D01*
X13851745Y-70156716D01*
X13865907Y-70174596D01*
X13870590Y-70182159D01*
X13871081Y-70182952D01*
X13896511Y-70202156D01*
X13901690Y-70206662D01*
X13970000Y-70274971D01*
X13970000Y-74377749D01*
X9900246Y-78447504D01*
X9845729Y-78475281D01*
X9830242Y-78476500D01*
X4951549Y-78476500D01*
X4893358Y-78457593D01*
X4873007Y-78437767D01*
X4776290Y-78311723D01*
X4776289Y-78311722D01*
X4776286Y-78311718D01*
X4776281Y-78311714D01*
X4776280Y-78311713D01*
X4650842Y-78215462D01*
X4504770Y-78154957D01*
X4504762Y-78154955D01*
X4348005Y-78134318D01*
X4341515Y-78134318D01*
X4341515Y-78132740D01*
X4289023Y-78123006D01*
X4266266Y-78106012D01*
X1270000Y-75109746D01*
X1270000Y-70274970D01*
X4357405Y-67187564D01*
X4368664Y-67179493D01*
X4367905Y-67178487D01*
X4375221Y-67172961D01*
X4375228Y-67172958D01*
X4407632Y-67137411D01*
X4409186Y-67135783D01*
X4423174Y-67121797D01*
X4425181Y-67118865D01*
X4429440Y-67113490D01*
X4450916Y-67089933D01*
X4454465Y-67080770D01*
X4465106Y-67060582D01*
X4470656Y-67052481D01*
X4477955Y-67021443D01*
X4479977Y-67014914D01*
X4491500Y-66985173D01*
X4491500Y-66975348D01*
X4494129Y-66952683D01*
X4496379Y-66943119D01*
X4491975Y-66911546D01*
X4491500Y-66904699D01*
X4491500Y-66205902D01*
X4510407Y-66147711D01*
X4559907Y-66111747D01*
X4621093Y-66111747D01*
X4669040Y-66145634D01*
X4721716Y-66214282D01*
X4847157Y-66310536D01*
X4993236Y-66371044D01*
X5110807Y-66386522D01*
X5149997Y-66391682D01*
X5149998Y-66391682D01*
X5149999Y-66391682D01*
X5181350Y-66387554D01*
X5306760Y-66371044D01*
X5452839Y-66310536D01*
X5578280Y-66214282D01*
X5674534Y-66088841D01*
X5729035Y-65957263D01*
X5768771Y-65910738D01*
X5828266Y-65896454D01*
X5884794Y-65919869D01*
X5916764Y-65972038D01*
X5919499Y-65995149D01*
X5919499Y-74100852D01*
X5900592Y-74159043D01*
X5880767Y-74179394D01*
X5791720Y-74247722D01*
X5791713Y-74247729D01*
X5695462Y-74373166D01*
X5695462Y-74373167D01*
X5634957Y-74519239D01*
X5634955Y-74519247D01*
X5614318Y-74676005D01*
X5614318Y-74676006D01*
X5634955Y-74832764D01*
X5634957Y-74832772D01*
X5695462Y-74978844D01*
X5695462Y-74978845D01*
X5791713Y-75104282D01*
X5791718Y-75104288D01*
X5791722Y-75104291D01*
X5791723Y-75104292D01*
X5811999Y-75119850D01*
X5917159Y-75200542D01*
X5917160Y-75200542D01*
X5917161Y-75200543D01*
X5934920Y-75207899D01*
X6063238Y-75261050D01*
X6180809Y-75276528D01*
X6219999Y-75281688D01*
X6220000Y-75281688D01*
X6220001Y-75281688D01*
X6251352Y-75277560D01*
X6376762Y-75261050D01*
X6522841Y-75200542D01*
X6648282Y-75104288D01*
X6744536Y-74978847D01*
X6805044Y-74832768D01*
X6825682Y-74676006D01*
X6805044Y-74519244D01*
X6744537Y-74373167D01*
X6744537Y-74373166D01*
X6648286Y-74247729D01*
X6648285Y-74247728D01*
X6648282Y-74247724D01*
X6648277Y-74247720D01*
X6648276Y-74247719D01*
X6559233Y-74179394D01*
X6524577Y-74128969D01*
X6520500Y-74100852D01*
X6520500Y-73911662D01*
X6539407Y-73853471D01*
X6588907Y-73817507D01*
X6650093Y-73817507D01*
X6657372Y-73820193D01*
X6763238Y-73864044D01*
X6879135Y-73879302D01*
X6919999Y-73884682D01*
X6920000Y-73884682D01*
X6920001Y-73884682D01*
X6960865Y-73879302D01*
X7076762Y-73864044D01*
X7149801Y-73833790D01*
X7222837Y-73803538D01*
X7222837Y-73803537D01*
X7222841Y-73803536D01*
X7226457Y-73800761D01*
X7284131Y-73780336D01*
X7342797Y-73797712D01*
X7380046Y-73846253D01*
X7385725Y-73879302D01*
X7385725Y-75120737D01*
X7366818Y-75178928D01*
X7324612Y-75212201D01*
X7256384Y-75240462D01*
X7130950Y-75336711D01*
X7130940Y-75336721D01*
X7034689Y-75462158D01*
X7034689Y-75462159D01*
X6974184Y-75608231D01*
X6974182Y-75608239D01*
X6953545Y-75764997D01*
X6953545Y-75764998D01*
X6974182Y-75921756D01*
X6974184Y-75921764D01*
X7034689Y-76067836D01*
X7034689Y-76067837D01*
X7034691Y-76067839D01*
X7130945Y-76193280D01*
X7256386Y-76289534D01*
X7402465Y-76350042D01*
X7520036Y-76365520D01*
X7559226Y-76370680D01*
X7559227Y-76370680D01*
X7559228Y-76370680D01*
X7590579Y-76366552D01*
X7715989Y-76350042D01*
X7862068Y-76289534D01*
X7987509Y-76193280D01*
X8083763Y-76067839D01*
X8144271Y-75921760D01*
X8164909Y-75764998D01*
X8144271Y-75608236D01*
X8083764Y-75462159D01*
X8083764Y-75462158D01*
X8007183Y-75362355D01*
X7986759Y-75304679D01*
X7986725Y-75302088D01*
X7986725Y-71955708D01*
X7988956Y-71942035D01*
X7987730Y-71941864D01*
X7988998Y-71932772D01*
X7986778Y-71884755D01*
X7986725Y-71882468D01*
X7986725Y-71862699D01*
X7986725Y-71862695D01*
X7986071Y-71859203D01*
X7985281Y-71852398D01*
X7983810Y-71820548D01*
X7979838Y-71811553D01*
X7973090Y-71789759D01*
X7971286Y-71780106D01*
X7954503Y-71753001D01*
X7951310Y-71746945D01*
X7942315Y-71726570D01*
X7938432Y-71717775D01*
X7931482Y-71710825D01*
X7917313Y-71692935D01*
X7912145Y-71684588D01*
X7912144Y-71684587D01*
X7886708Y-71665378D01*
X7881531Y-71660873D01*
X7716608Y-71495951D01*
X7688831Y-71441434D01*
X7687612Y-71425947D01*
X7687612Y-61769419D01*
X7706519Y-61711228D01*
X7756019Y-61675264D01*
X7817205Y-61675264D01*
X7824484Y-61677950D01*
X7930350Y-61721801D01*
X8047921Y-61737279D01*
X8087111Y-61742439D01*
X8087112Y-61742439D01*
X8087113Y-61742439D01*
X8118464Y-61738311D01*
X8243874Y-61721801D01*
X8389953Y-61661293D01*
X8417172Y-61640406D01*
X8474848Y-61619983D01*
X8533513Y-61637361D01*
X8570761Y-61685902D01*
X8576439Y-61718949D01*
X8576439Y-64004149D01*
X8557532Y-64062340D01*
X8515325Y-64095613D01*
X8460160Y-64118463D01*
X8334723Y-64214713D01*
X8334713Y-64214723D01*
X8238462Y-64340160D01*
X8238462Y-64340161D01*
X8177957Y-64486233D01*
X8177955Y-64486241D01*
X8157318Y-64642999D01*
X8157318Y-64643000D01*
X8177955Y-64799758D01*
X8177957Y-64799766D01*
X8238462Y-64945838D01*
X8238462Y-64945839D01*
X8334713Y-65071276D01*
X8334718Y-65071282D01*
X8460159Y-65167536D01*
X8460160Y-65167536D01*
X8460161Y-65167537D01*
X8559892Y-65208847D01*
X8606238Y-65228044D01*
X8723809Y-65243522D01*
X8762999Y-65248682D01*
X8763000Y-65248682D01*
X8763001Y-65248682D01*
X8794352Y-65244554D01*
X8919762Y-65228044D01*
X9065841Y-65167536D01*
X9191282Y-65071282D01*
X9287536Y-64945841D01*
X9348044Y-64799762D01*
X9368682Y-64643000D01*
X9348044Y-64486238D01*
X9287537Y-64340161D01*
X9287537Y-64340160D01*
X9197897Y-64223338D01*
X9177473Y-64165662D01*
X9177439Y-64163071D01*
X9177439Y-64060527D01*
X9196346Y-64002336D01*
X9245846Y-63966372D01*
X9307032Y-63966372D01*
X9336701Y-63981982D01*
X9392159Y-64024536D01*
X9392162Y-64024537D01*
X9392163Y-64024538D01*
X9538233Y-64085042D01*
X9538238Y-64085044D01*
X9655809Y-64100522D01*
X9694999Y-64105682D01*
X9695000Y-64105682D01*
X9695001Y-64105682D01*
X9726352Y-64101554D01*
X9851762Y-64085044D01*
X9997841Y-64024536D01*
X10123282Y-63928282D01*
X10187958Y-63843993D01*
X10238382Y-63809338D01*
X10299546Y-63810939D01*
X10348088Y-63848186D01*
X10365500Y-63904261D01*
X10365500Y-69432520D01*
X10346593Y-69490711D01*
X10336503Y-69502524D01*
X9973207Y-69865819D01*
X9918691Y-69893596D01*
X9890282Y-69893968D01*
X9779001Y-69879318D01*
X9778999Y-69879318D01*
X9622241Y-69899955D01*
X9622233Y-69899957D01*
X9476161Y-69960462D01*
X9476160Y-69960462D01*
X9350723Y-70056713D01*
X9350713Y-70056723D01*
X9254462Y-70182160D01*
X9254462Y-70182161D01*
X9193957Y-70328233D01*
X9193955Y-70328241D01*
X9173318Y-70484999D01*
X9173318Y-70485000D01*
X9193955Y-70641758D01*
X9193957Y-70641766D01*
X9254462Y-70787838D01*
X9254462Y-70787839D01*
X9254464Y-70787841D01*
X9350718Y-70913282D01*
X9476159Y-71009536D01*
X9622238Y-71070044D01*
X9739809Y-71085522D01*
X9778999Y-71090682D01*
X9779000Y-71090682D01*
X9779001Y-71090682D01*
X9810352Y-71086554D01*
X9935762Y-71070044D01*
X10081841Y-71009536D01*
X10207282Y-70913282D01*
X10303536Y-70787841D01*
X10364044Y-70641762D01*
X10384682Y-70485000D01*
X10370030Y-70373714D01*
X10381181Y-70313553D01*
X10398177Y-70290792D01*
X10596498Y-70092472D01*
X10651013Y-70064696D01*
X10711445Y-70074267D01*
X10754710Y-70117532D01*
X10765500Y-70162477D01*
X10765500Y-70937520D01*
X10746593Y-70995711D01*
X10736503Y-71007524D01*
X10354207Y-71389819D01*
X10299691Y-71417596D01*
X10271282Y-71417968D01*
X10160001Y-71403318D01*
X10159999Y-71403318D01*
X10003241Y-71423955D01*
X10003233Y-71423957D01*
X9857161Y-71484462D01*
X9857160Y-71484462D01*
X9731723Y-71580713D01*
X9731713Y-71580723D01*
X9635462Y-71706160D01*
X9635462Y-71706161D01*
X9574957Y-71852233D01*
X9574955Y-71852241D01*
X9554318Y-72008999D01*
X9554318Y-72009000D01*
X9574955Y-72165758D01*
X9574957Y-72165766D01*
X9635462Y-72311838D01*
X9635462Y-72311839D01*
X9635464Y-72311841D01*
X9731718Y-72437282D01*
X9857159Y-72533536D01*
X10003238Y-72594044D01*
X10120809Y-72609522D01*
X10159999Y-72614682D01*
X10160000Y-72614682D01*
X10160001Y-72614682D01*
X10191352Y-72610554D01*
X10316762Y-72594044D01*
X10462841Y-72533536D01*
X10588282Y-72437282D01*
X10684536Y-72311841D01*
X10745044Y-72165762D01*
X10765682Y-72009000D01*
X10751030Y-71897714D01*
X10762181Y-71837553D01*
X10779177Y-71814792D01*
X10996498Y-71597472D01*
X11051013Y-71569696D01*
X11111445Y-71579267D01*
X11154710Y-71622532D01*
X11165500Y-71667477D01*
X11165500Y-74855241D01*
X11146593Y-74913432D01*
X11136504Y-74925245D01*
X10622736Y-75439012D01*
X10568219Y-75466789D01*
X10547489Y-75467061D01*
X10547489Y-75467318D01*
X10540999Y-75467318D01*
X10384241Y-75487955D01*
X10384233Y-75487957D01*
X10238161Y-75548462D01*
X10238160Y-75548462D01*
X10112723Y-75644713D01*
X10112713Y-75644723D01*
X10016462Y-75770160D01*
X10016462Y-75770161D01*
X9955957Y-75916233D01*
X9955955Y-75916241D01*
X9935318Y-76072999D01*
X9935318Y-76073000D01*
X9955955Y-76229758D01*
X9955957Y-76229766D01*
X10016462Y-76375838D01*
X10016462Y-76375839D01*
X10016464Y-76375841D01*
X10112718Y-76501282D01*
X10238159Y-76597536D01*
X10384238Y-76658044D01*
X10501809Y-76673522D01*
X10540999Y-76678682D01*
X10541000Y-76678682D01*
X10541001Y-76678682D01*
X10572352Y-76674554D01*
X10697762Y-76658044D01*
X10843841Y-76597536D01*
X10969282Y-76501282D01*
X11065536Y-76375841D01*
X11126044Y-76229762D01*
X11146682Y-76073000D01*
X11146682Y-76072999D01*
X11146682Y-76066510D01*
X11148263Y-76066510D01*
X11157984Y-76014034D01*
X11174983Y-75991265D01*
X11853858Y-75312392D01*
X11853857Y-75312392D01*
X11875859Y-75290391D01*
X11875861Y-75290386D01*
X11877415Y-75288833D01*
X11879417Y-75283409D01*
X11886448Y-75269610D01*
X11894565Y-75256364D01*
X11906118Y-75240462D01*
X11908275Y-75237493D01*
X11915487Y-75215294D01*
X11921424Y-75200962D01*
X11932017Y-75180175D01*
X11935665Y-75157133D01*
X11939294Y-75142026D01*
X11946499Y-75119851D01*
X11946500Y-75119850D01*
X11946500Y-69339662D01*
X11965407Y-69281471D01*
X12014907Y-69245507D01*
X12076093Y-69245507D01*
X12083381Y-69248196D01*
X12189239Y-69292044D01*
X12306810Y-69307522D01*
X12346000Y-69312682D01*
X12346001Y-69312682D01*
X12346002Y-69312682D01*
X12377353Y-69308554D01*
X12502763Y-69292044D01*
X12648842Y-69231536D01*
X12774283Y-69135282D01*
X12870537Y-69009841D01*
X12931045Y-68863762D01*
X12951683Y-68707000D01*
X12931045Y-68550238D01*
X12870538Y-68404161D01*
X12870538Y-68404160D01*
X12774287Y-68278723D01*
X12774286Y-68278722D01*
X12774283Y-68278718D01*
X12774278Y-68278714D01*
X12774277Y-68278713D01*
X12648839Y-68182462D01*
X12502763Y-68121956D01*
X12432577Y-68112715D01*
X12377352Y-68086373D01*
X12348158Y-68032602D01*
X12346500Y-68014562D01*
X12346500Y-56230662D01*
X12365407Y-56172471D01*
X12414907Y-56136507D01*
X12476093Y-56136507D01*
X12483372Y-56139193D01*
X12589238Y-56183044D01*
X12706809Y-56198522D01*
X12745999Y-56203682D01*
X12746000Y-56203682D01*
X12746001Y-56203682D01*
X12777352Y-56199554D01*
X12902762Y-56183044D01*
X13024614Y-56132570D01*
X13085611Y-56127770D01*
X13137780Y-56159740D01*
G37*
%TD.AperFunction*%
%TA.AperFunction,Conductor*%
G36*
X2534322Y-56403177D02*
G01*
X2579539Y-56444397D01*
X2592500Y-56493369D01*
X2592500Y-57854562D01*
X2573593Y-57912753D01*
X2524093Y-57948717D01*
X2506423Y-57952715D01*
X2436237Y-57961956D01*
X2290161Y-58022462D01*
X2290160Y-58022462D01*
X2164723Y-58118713D01*
X2164713Y-58118723D01*
X2068462Y-58244160D01*
X2068462Y-58244161D01*
X2007957Y-58390233D01*
X2007955Y-58390241D01*
X1987318Y-58546999D01*
X1987318Y-58547000D01*
X2007955Y-58703758D01*
X2007957Y-58703766D01*
X2068462Y-58849838D01*
X2068462Y-58849839D01*
X2164713Y-58975276D01*
X2164718Y-58975282D01*
X2290159Y-59071536D01*
X2436238Y-59132044D01*
X2553809Y-59147522D01*
X2592999Y-59152682D01*
X2593000Y-59152682D01*
X2593001Y-59152682D01*
X2624352Y-59148554D01*
X2749762Y-59132044D01*
X2895841Y-59071536D01*
X3021282Y-58975282D01*
X3117536Y-58849841D01*
X3130035Y-58819664D01*
X3169772Y-58773138D01*
X3229267Y-58758854D01*
X3285795Y-58782268D01*
X3317764Y-58834437D01*
X3320500Y-58857549D01*
X3320500Y-64793520D01*
X3301593Y-64851711D01*
X3291504Y-64863524D01*
X1270000Y-66885028D01*
X1270000Y-57574970D01*
X2390405Y-56454564D01*
X2401664Y-56446493D01*
X2400905Y-56445487D01*
X2408221Y-56439961D01*
X2408228Y-56439958D01*
X2420338Y-56426673D01*
X2473512Y-56396408D01*
X2534322Y-56403177D01*
G37*
%TD.AperFunction*%
%TA.AperFunction,Conductor*%
G36*
X12107503Y-45298472D02*
G01*
X12588821Y-45779791D01*
X12616598Y-45834307D01*
X12616970Y-45862715D01*
X12602320Y-45973998D01*
X12602320Y-45974000D01*
X12622957Y-46130758D01*
X12622959Y-46130766D01*
X12683464Y-46276838D01*
X12683464Y-46276839D01*
X12779715Y-46402276D01*
X12779720Y-46402282D01*
X12905161Y-46498536D01*
X13051240Y-46559044D01*
X13168811Y-46574522D01*
X13208001Y-46579682D01*
X13208002Y-46579682D01*
X13208003Y-46579682D01*
X13239354Y-46575554D01*
X13364764Y-46559044D01*
X13510843Y-46498536D01*
X13636284Y-46402282D01*
X13732538Y-46276841D01*
X13793046Y-46130762D01*
X13813684Y-45974000D01*
X13793046Y-45817238D01*
X13738840Y-45686373D01*
X13734039Y-45625376D01*
X13766009Y-45573207D01*
X13817380Y-45550335D01*
X13872762Y-45543044D01*
X13970000Y-45502766D01*
X13970000Y-49105027D01*
X13803590Y-49271437D01*
X13792361Y-49279550D01*
X13793090Y-49280515D01*
X13785771Y-49286041D01*
X13753372Y-49321580D01*
X13751796Y-49323231D01*
X13737830Y-49337198D01*
X13737817Y-49337213D01*
X13735813Y-49340138D01*
X13731561Y-49345504D01*
X13710084Y-49369065D01*
X13710083Y-49369067D01*
X13706529Y-49378240D01*
X13695896Y-49398412D01*
X13690346Y-49406515D01*
X13690342Y-49406524D01*
X13683045Y-49437545D01*
X13681016Y-49444098D01*
X13669500Y-49473824D01*
X13669500Y-49483651D01*
X13666870Y-49506318D01*
X13664621Y-49515879D01*
X13669025Y-49547452D01*
X13669500Y-49554298D01*
X13669500Y-50069455D01*
X13650593Y-50127646D01*
X13601093Y-50163610D01*
X13539907Y-50163610D01*
X13516647Y-50151373D01*
X13516456Y-50151706D01*
X13510838Y-50148462D01*
X13364766Y-50087957D01*
X13364758Y-50087955D01*
X13208001Y-50067318D01*
X13207999Y-50067318D01*
X13051241Y-50087955D01*
X13051233Y-50087957D01*
X12905161Y-50148462D01*
X12905160Y-50148462D01*
X12779723Y-50244713D01*
X12779713Y-50244723D01*
X12683462Y-50370160D01*
X12683462Y-50370161D01*
X12622957Y-50516233D01*
X12622955Y-50516241D01*
X12602318Y-50672999D01*
X12602318Y-50673000D01*
X12622955Y-50829758D01*
X12622957Y-50829766D01*
X12683462Y-50975838D01*
X12683463Y-50975840D01*
X12683464Y-50975841D01*
X12734083Y-51041809D01*
X12754507Y-51099484D01*
X12754541Y-51102076D01*
X12754541Y-52171133D01*
X12735634Y-52229324D01*
X12686134Y-52265288D01*
X12624948Y-52265288D01*
X12617656Y-52262597D01*
X12502766Y-52215008D01*
X12502758Y-52215006D01*
X12346001Y-52194369D01*
X12345999Y-52194369D01*
X12189241Y-52215006D01*
X12189233Y-52215008D01*
X12083388Y-52258851D01*
X12022392Y-52263652D01*
X11970223Y-52231682D01*
X11946808Y-52175154D01*
X11946503Y-52167387D01*
X11946503Y-50672999D01*
X11946503Y-49154388D01*
X11965409Y-49096201D01*
X12007614Y-49062929D01*
X12068841Y-49037569D01*
X12194282Y-48941315D01*
X12290536Y-48815874D01*
X12351044Y-48669795D01*
X12371682Y-48513033D01*
X12351044Y-48356271D01*
X12343080Y-48337044D01*
X12290537Y-48210194D01*
X12290537Y-48210193D01*
X12194286Y-48084756D01*
X12194285Y-48084755D01*
X12194282Y-48084751D01*
X12194277Y-48084747D01*
X12194276Y-48084746D01*
X12093989Y-48007794D01*
X12068841Y-47988497D01*
X12068839Y-47988496D01*
X11999613Y-47959821D01*
X11953087Y-47920084D01*
X11938499Y-47868357D01*
X11938499Y-45368475D01*
X11957406Y-45310284D01*
X12006906Y-45274320D01*
X12068092Y-45274320D01*
X12107503Y-45298472D01*
G37*
%TD.AperFunction*%
%TA.AperFunction,Conductor*%
G36*
X11617041Y-20696638D02*
G01*
X11636718Y-20722282D01*
X11762159Y-20818536D01*
X11908238Y-20879044D01*
X12025809Y-20894522D01*
X12064999Y-20899682D01*
X12065000Y-20899682D01*
X12176284Y-20885031D01*
X12236443Y-20896181D01*
X12259209Y-20913180D01*
X12940505Y-21594476D01*
X12968282Y-21648993D01*
X12969501Y-21664480D01*
X12969501Y-30312032D01*
X12950594Y-30370223D01*
X12901094Y-30406187D01*
X12839908Y-30406187D01*
X12810235Y-30390575D01*
X12794941Y-30378840D01*
X12648869Y-30318335D01*
X12648861Y-30318333D01*
X12492104Y-30297696D01*
X12492102Y-30297696D01*
X12335344Y-30318333D01*
X12335336Y-30318335D01*
X12189264Y-30378840D01*
X12189263Y-30378840D01*
X12063826Y-30475091D01*
X12063816Y-30475101D01*
X11967565Y-30600538D01*
X11967565Y-30600539D01*
X11907060Y-30746611D01*
X11907058Y-30746619D01*
X11886421Y-30903377D01*
X11886421Y-30903378D01*
X11907058Y-31060136D01*
X11907060Y-31060144D01*
X11967565Y-31206216D01*
X11967565Y-31206217D01*
X12063816Y-31331654D01*
X12063821Y-31331660D01*
X12189262Y-31427914D01*
X12335341Y-31488422D01*
X12483423Y-31507917D01*
X12538648Y-31534258D01*
X12567843Y-31588029D01*
X12569501Y-31606070D01*
X12569501Y-32606522D01*
X12550594Y-32664713D01*
X12501094Y-32700677D01*
X12439908Y-32700677D01*
X12400497Y-32676526D01*
X11651957Y-31927986D01*
X11624180Y-31873469D01*
X11622961Y-31857982D01*
X11622961Y-27705017D01*
X11641868Y-27646826D01*
X11651957Y-27635014D01*
X11870789Y-27416181D01*
X11925306Y-27388403D01*
X11953714Y-27388031D01*
X11995415Y-27393521D01*
X12064999Y-27402682D01*
X12065000Y-27402682D01*
X12065001Y-27402682D01*
X12096352Y-27398554D01*
X12221762Y-27382044D01*
X12367841Y-27321536D01*
X12493282Y-27225282D01*
X12589536Y-27099841D01*
X12650044Y-26953762D01*
X12670682Y-26797000D01*
X12670573Y-26796175D01*
X12653345Y-26665314D01*
X12650044Y-26640238D01*
X12589537Y-26494161D01*
X12589537Y-26494160D01*
X12493286Y-26368723D01*
X12493285Y-26368722D01*
X12493282Y-26368718D01*
X12493277Y-26368714D01*
X12493276Y-26368713D01*
X12367838Y-26272462D01*
X12221766Y-26211957D01*
X12221758Y-26211955D01*
X12065001Y-26191318D01*
X12064999Y-26191318D01*
X11908241Y-26211955D01*
X11908233Y-26211957D01*
X11762161Y-26272462D01*
X11762160Y-26272462D01*
X11636723Y-26368713D01*
X11636713Y-26368723D01*
X11617042Y-26394360D01*
X11566618Y-26429016D01*
X11505453Y-26427415D01*
X11456912Y-26390167D01*
X11439500Y-26334093D01*
X11439500Y-20756906D01*
X11458407Y-20698715D01*
X11507907Y-20662751D01*
X11569093Y-20662751D01*
X11617041Y-20696638D01*
G37*
%TD.AperFunction*%
%TA.AperFunction,Conductor*%
G36*
X13970000Y-27672295D02*
G01*
X13965028Y-27674916D01*
X13935864Y-27687793D01*
X13928916Y-27694742D01*
X13911036Y-27708905D01*
X13902678Y-27714080D01*
X13883466Y-27739519D01*
X13878962Y-27744695D01*
X13739505Y-27884153D01*
X13684988Y-27911931D01*
X13624556Y-27902360D01*
X13581292Y-27859095D01*
X13570501Y-27814150D01*
X13570501Y-21564170D01*
X13572732Y-21550497D01*
X13571506Y-21550326D01*
X13572774Y-21541234D01*
X13570554Y-21493217D01*
X13570501Y-21490930D01*
X13570501Y-21471161D01*
X13570501Y-21471157D01*
X13569847Y-21467665D01*
X13569057Y-21460860D01*
X13567586Y-21429010D01*
X13563614Y-21420015D01*
X13556866Y-21398221D01*
X13555062Y-21388568D01*
X13538279Y-21361463D01*
X13535086Y-21355407D01*
X13527431Y-21338068D01*
X13522207Y-21326234D01*
X13517023Y-21318667D01*
X13519986Y-21316637D01*
X13499874Y-21277163D01*
X13509445Y-21216731D01*
X13552710Y-21173466D01*
X13584730Y-21163524D01*
X13618762Y-21159044D01*
X13764841Y-21098536D01*
X13890282Y-21002282D01*
X13970000Y-20898391D01*
X13970000Y-27672295D01*
G37*
%TD.AperFunction*%
%TA.AperFunction,Conductor*%
G36*
X1753154Y-18688125D02*
G01*
X1780931Y-18742642D01*
X1771360Y-18803074D01*
X1728095Y-18846339D01*
X1721036Y-18849593D01*
X1615185Y-18893438D01*
X1489748Y-18989688D01*
X1489738Y-18989698D01*
X1393487Y-19115135D01*
X1393487Y-19115136D01*
X1332982Y-19261208D01*
X1332980Y-19261216D01*
X1312343Y-19417974D01*
X1312343Y-19417975D01*
X1332980Y-19574733D01*
X1332981Y-19574738D01*
X1348481Y-19612156D01*
X1355911Y-19654612D01*
X1355621Y-19660875D01*
X1360026Y-19692451D01*
X1360501Y-19699297D01*
X1360501Y-24608787D01*
X1358281Y-24622465D01*
X1359495Y-24622635D01*
X1358227Y-24631718D01*
X1360448Y-24679735D01*
X1360501Y-24682021D01*
X1360501Y-24701794D01*
X1361153Y-24705284D01*
X1361944Y-24712101D01*
X1363415Y-24743939D01*
X1363416Y-24743946D01*
X1367385Y-24752934D01*
X1374134Y-24774725D01*
X1375940Y-24784385D01*
X1392718Y-24811485D01*
X1395916Y-24817552D01*
X1408794Y-24846715D01*
X1408795Y-24846717D01*
X1415746Y-24853668D01*
X1429908Y-24871548D01*
X1435082Y-24879904D01*
X1460516Y-24899111D01*
X1465694Y-24903616D01*
X1533562Y-24971484D01*
X1586801Y-25024722D01*
X1614579Y-25079239D01*
X1615798Y-25094726D01*
X1615798Y-26345206D01*
X1596891Y-26403397D01*
X1547391Y-26439361D01*
X1486205Y-26439361D01*
X1449620Y-26415763D01*
X1449537Y-26415874D01*
X1448042Y-26414745D01*
X1443639Y-26411905D01*
X1442219Y-26410347D01*
X1416781Y-26391137D01*
X1411604Y-26386632D01*
X1270000Y-26245028D01*
X1270000Y-18204971D01*
X1753154Y-18688125D01*
G37*
%TD.AperFunction*%
%TA.AperFunction,Conductor*%
G36*
X13969999Y-5925027D02*
G01*
X12583059Y-7311968D01*
X12571830Y-7320081D01*
X12572559Y-7321046D01*
X12565240Y-7326572D01*
X12532841Y-7362111D01*
X12531265Y-7363762D01*
X12517299Y-7377729D01*
X12517286Y-7377744D01*
X12515282Y-7380669D01*
X12511030Y-7386035D01*
X12489553Y-7409596D01*
X12489552Y-7409598D01*
X12485998Y-7418771D01*
X12475365Y-7438943D01*
X12469815Y-7447046D01*
X12469811Y-7447055D01*
X12462514Y-7478076D01*
X12460485Y-7484629D01*
X12448969Y-7514355D01*
X12448969Y-7524182D01*
X12446339Y-7546849D01*
X12444090Y-7556410D01*
X12448494Y-7587983D01*
X12448969Y-7594829D01*
X12448969Y-17328962D01*
X12430062Y-17387153D01*
X12416798Y-17400768D01*
X12417156Y-17401126D01*
X12412565Y-17405716D01*
X12316309Y-17531160D01*
X12316309Y-17531161D01*
X12255804Y-17677233D01*
X12255802Y-17677241D01*
X12235165Y-17833999D01*
X12235165Y-17834000D01*
X12255802Y-17990758D01*
X12255804Y-17990766D01*
X12316309Y-18136838D01*
X12316309Y-18136839D01*
X12409458Y-18258233D01*
X12412565Y-18262282D01*
X12538006Y-18358536D01*
X12538007Y-18358536D01*
X12538008Y-18358537D01*
X12674322Y-18415000D01*
X12684085Y-18419044D01*
X12834088Y-18438792D01*
X12889313Y-18465133D01*
X12918508Y-18518904D01*
X12910522Y-18579565D01*
X12899709Y-18597211D01*
X12872462Y-18632720D01*
X12811957Y-18778792D01*
X12811955Y-18778800D01*
X12791318Y-18935558D01*
X12791318Y-18935559D01*
X12811955Y-19092317D01*
X12811957Y-19092325D01*
X12872462Y-19238397D01*
X12872462Y-19238398D01*
X12967829Y-19362683D01*
X12968718Y-19363841D01*
X13094159Y-19460095D01*
X13094160Y-19460095D01*
X13094161Y-19460096D01*
X13199974Y-19503925D01*
X13240238Y-19520603D01*
X13333697Y-19532907D01*
X13396999Y-19541241D01*
X13397000Y-19541241D01*
X13397001Y-19541241D01*
X13433969Y-19536374D01*
X13553762Y-19520603D01*
X13659615Y-19476756D01*
X13720611Y-19471956D01*
X13772780Y-19503925D01*
X13796195Y-19560453D01*
X13796500Y-19568221D01*
X13796500Y-19773521D01*
X13777593Y-19831712D01*
X13767503Y-19843525D01*
X13656208Y-19954819D01*
X13601692Y-19982596D01*
X13573283Y-19982968D01*
X13462001Y-19968318D01*
X13461999Y-19968318D01*
X13305241Y-19988955D01*
X13305233Y-19988957D01*
X13159161Y-20049462D01*
X13159160Y-20049462D01*
X13033723Y-20145713D01*
X13033713Y-20145723D01*
X12937462Y-20271160D01*
X12937462Y-20271161D01*
X12876957Y-20417233D01*
X12876955Y-20417240D01*
X12872476Y-20451267D01*
X12846135Y-20506491D01*
X12792364Y-20535686D01*
X12731702Y-20527700D01*
X12704319Y-20508348D01*
X12684180Y-20488209D01*
X12656403Y-20433692D01*
X12656031Y-20405283D01*
X12670682Y-20294000D01*
X12670682Y-20293999D01*
X12656998Y-20190059D01*
X12650044Y-20137238D01*
X12632055Y-20093809D01*
X12589537Y-19991161D01*
X12589537Y-19991160D01*
X12493286Y-19865723D01*
X12493285Y-19865722D01*
X12493282Y-19865718D01*
X12493277Y-19865714D01*
X12493276Y-19865713D01*
X12367838Y-19769462D01*
X12221766Y-19708957D01*
X12221758Y-19708955D01*
X12065001Y-19688318D01*
X12064999Y-19688318D01*
X11908241Y-19708955D01*
X11908233Y-19708957D01*
X11762161Y-19769462D01*
X11762160Y-19769462D01*
X11636723Y-19865713D01*
X11636713Y-19865723D01*
X11617042Y-19891360D01*
X11566618Y-19926016D01*
X11505453Y-19924415D01*
X11456912Y-19887167D01*
X11439500Y-19831093D01*
X11439500Y-14222100D01*
X11458407Y-14163909D01*
X11472875Y-14149058D01*
X11472693Y-14148876D01*
X11477273Y-14144294D01*
X11477282Y-14144288D01*
X11573536Y-14018847D01*
X11634044Y-13872768D01*
X11654682Y-13716006D01*
X11634044Y-13559244D01*
X11626787Y-13541723D01*
X11573537Y-13413167D01*
X11573537Y-13413166D01*
X11477286Y-13287729D01*
X11477285Y-13287728D01*
X11477282Y-13287724D01*
X11477277Y-13287720D01*
X11472694Y-13283137D01*
X11473809Y-13282021D01*
X11443574Y-13238018D01*
X11439500Y-13209911D01*
X11439500Y-3746094D01*
X11458407Y-3687903D01*
X11472875Y-3673052D01*
X11472693Y-3672870D01*
X11477273Y-3668288D01*
X11477282Y-3668282D01*
X11573536Y-3542841D01*
X11634044Y-3396762D01*
X11654682Y-3240000D01*
X11634044Y-3083238D01*
X11630720Y-3075212D01*
X11590199Y-2977385D01*
X11585398Y-2916389D01*
X11617368Y-2864220D01*
X11673896Y-2840805D01*
X11681663Y-2840500D01*
X13970000Y-2840500D01*
X13969999Y-5925027D01*
G37*
%TD.AperFunction*%
%TA.AperFunction,Conductor*%
G36*
X10402392Y-3258006D02*
G01*
X10445657Y-3301271D01*
X10455600Y-3333293D01*
X10463955Y-3396759D01*
X10463957Y-3396766D01*
X10524462Y-3542838D01*
X10524462Y-3542839D01*
X10524464Y-3542841D01*
X10620718Y-3668282D01*
X10620722Y-3668285D01*
X10625307Y-3672870D01*
X10624188Y-3673988D01*
X10654421Y-3717970D01*
X10658500Y-3746094D01*
X10658500Y-12884402D01*
X10639593Y-12942593D01*
X10590093Y-12978557D01*
X10528907Y-12978557D01*
X10480958Y-12944669D01*
X10420692Y-12866129D01*
X10420691Y-12866128D01*
X10420688Y-12866124D01*
X10420683Y-12866120D01*
X10420682Y-12866119D01*
X10295244Y-12769868D01*
X10149172Y-12709363D01*
X10149164Y-12709361D01*
X9992407Y-12688724D01*
X9992405Y-12688724D01*
X9835647Y-12709361D01*
X9835639Y-12709363D01*
X9689567Y-12769868D01*
X9689566Y-12769868D01*
X9564129Y-12866119D01*
X9564119Y-12866129D01*
X9467868Y-12991566D01*
X9467868Y-12991567D01*
X9407363Y-13137639D01*
X9407361Y-13137647D01*
X9386724Y-13294405D01*
X9386724Y-13294406D01*
X9407361Y-13451164D01*
X9407363Y-13451172D01*
X9467868Y-13597244D01*
X9467868Y-13597245D01*
X9564119Y-13722682D01*
X9564124Y-13722688D01*
X9689565Y-13818942D01*
X9798386Y-13864017D01*
X9844911Y-13903752D01*
X9859500Y-13955480D01*
X9859500Y-17908905D01*
X9840593Y-17967096D01*
X9791093Y-18003060D01*
X9729907Y-18003060D01*
X9700233Y-17987447D01*
X9573838Y-17890462D01*
X9427766Y-17829957D01*
X9427758Y-17829955D01*
X9271001Y-17809318D01*
X9270999Y-17809318D01*
X9114241Y-17829955D01*
X9114233Y-17829957D01*
X8968161Y-17890462D01*
X8968160Y-17890462D01*
X8842723Y-17986713D01*
X8842713Y-17986723D01*
X8746462Y-18112160D01*
X8746462Y-18112161D01*
X8685957Y-18258233D01*
X8685955Y-18258241D01*
X8665318Y-18414999D01*
X8665318Y-18415000D01*
X8679968Y-18526282D01*
X8668818Y-18586443D01*
X8651819Y-18609207D01*
X8470504Y-18790523D01*
X8415987Y-18818301D01*
X8355555Y-18808730D01*
X8312290Y-18765465D01*
X8301500Y-18720520D01*
X8301500Y-14732169D01*
X8303731Y-14718496D01*
X8302505Y-14718325D01*
X8303773Y-14709233D01*
X8302013Y-14671166D01*
X8301552Y-14661208D01*
X8301500Y-14658929D01*
X8301500Y-14639160D01*
X8301500Y-14639156D01*
X8300846Y-14635664D01*
X8300056Y-14628859D01*
X8298585Y-14597009D01*
X8294613Y-14588014D01*
X8287865Y-14566220D01*
X8286895Y-14561031D01*
X8286061Y-14556567D01*
X8269278Y-14529462D01*
X8266085Y-14523406D01*
X8253339Y-14494536D01*
X8253207Y-14494236D01*
X8246257Y-14487286D01*
X8232088Y-14469396D01*
X8226920Y-14461049D01*
X8226919Y-14461048D01*
X8201483Y-14441839D01*
X8196306Y-14437334D01*
X7923180Y-14164209D01*
X7895403Y-14109692D01*
X7895031Y-14081283D01*
X7903252Y-14018844D01*
X7909682Y-13970000D01*
X7889044Y-13813238D01*
X7886177Y-13806317D01*
X7828537Y-13667161D01*
X7828537Y-13667160D01*
X7732286Y-13541723D01*
X7732285Y-13541722D01*
X7732282Y-13541718D01*
X7732277Y-13541714D01*
X7732276Y-13541713D01*
X7606839Y-13445462D01*
X7606836Y-13445461D01*
X7591970Y-13439303D01*
X7545445Y-13399566D01*
X7531162Y-13340071D01*
X7554578Y-13283543D01*
X7591971Y-13256376D01*
X7668841Y-13224536D01*
X7794282Y-13128282D01*
X7890536Y-13002841D01*
X7951044Y-12856762D01*
X7969739Y-12714757D01*
X7996078Y-12659534D01*
X8049849Y-12630339D01*
X8110511Y-12638325D01*
X8146433Y-12667414D01*
X8178621Y-12709363D01*
X8207718Y-12747282D01*
X8333159Y-12843536D01*
X8333160Y-12843536D01*
X8333161Y-12843537D01*
X8365089Y-12856762D01*
X8479238Y-12904044D01*
X8596809Y-12919522D01*
X8635999Y-12924682D01*
X8636000Y-12924682D01*
X8636001Y-12924682D01*
X8667352Y-12920554D01*
X8792762Y-12904044D01*
X8938841Y-12843536D01*
X9064282Y-12747282D01*
X9160536Y-12621841D01*
X9221044Y-12475762D01*
X9241682Y-12319000D01*
X9241156Y-12315008D01*
X9230899Y-12237093D01*
X9221044Y-12162238D01*
X9160537Y-12016161D01*
X9160537Y-12016160D01*
X9064286Y-11890723D01*
X9064285Y-11890722D01*
X9064282Y-11890718D01*
X9064277Y-11890714D01*
X9064276Y-11890713D01*
X8975233Y-11822388D01*
X8940577Y-11771963D01*
X8936500Y-11743846D01*
X8936500Y-10227154D01*
X8955407Y-10168963D01*
X8975233Y-10148612D01*
X9014979Y-10118112D01*
X9064282Y-10080282D01*
X9160536Y-9954841D01*
X9221044Y-9808762D01*
X9241682Y-9652000D01*
X9221044Y-9495238D01*
X9220313Y-9493474D01*
X9160537Y-9349161D01*
X9160537Y-9349160D01*
X9064286Y-9223723D01*
X9064285Y-9223722D01*
X9064282Y-9223718D01*
X9064277Y-9223714D01*
X9064276Y-9223713D01*
X8973477Y-9154041D01*
X8938841Y-9127464D01*
X8938840Y-9127463D01*
X8938838Y-9127462D01*
X8792766Y-9066957D01*
X8792763Y-9066956D01*
X8792762Y-9066956D01*
X8776892Y-9064866D01*
X8771578Y-9064167D01*
X8716354Y-9037825D01*
X8687159Y-8984054D01*
X8695147Y-8923392D01*
X8705958Y-8905749D01*
X8723541Y-8882836D01*
X8784049Y-8736757D01*
X8804687Y-8579995D01*
X8804008Y-8574841D01*
X8784049Y-8423236D01*
X8784049Y-8423233D01*
X8723542Y-8277156D01*
X8723542Y-8277155D01*
X8627291Y-8151718D01*
X8627290Y-8151717D01*
X8627287Y-8151713D01*
X8627282Y-8151709D01*
X8627281Y-8151708D01*
X8501233Y-8054988D01*
X8466577Y-8004563D01*
X8462500Y-7976446D01*
X8462500Y-7474286D01*
X8481407Y-7416095D01*
X8530907Y-7380131D01*
X8592093Y-7380131D01*
X8599372Y-7382817D01*
X8705238Y-7426668D01*
X8822809Y-7442146D01*
X8861999Y-7447306D01*
X8862000Y-7447306D01*
X8862001Y-7447306D01*
X8893352Y-7443178D01*
X9018762Y-7426668D01*
X9164841Y-7366160D01*
X9290282Y-7269906D01*
X9386536Y-7144465D01*
X9447044Y-6998386D01*
X9467682Y-6841624D01*
X9447044Y-6684862D01*
X9434239Y-6653947D01*
X9386537Y-6538785D01*
X9386537Y-6538784D01*
X9290286Y-6413347D01*
X9290285Y-6413346D01*
X9290282Y-6413342D01*
X9201230Y-6345010D01*
X9166576Y-6294586D01*
X9162499Y-6266469D01*
X9162499Y-5413713D01*
X9162499Y-4442160D01*
X9181406Y-4383973D01*
X9191483Y-4372173D01*
X10287445Y-3276210D01*
X10341960Y-3248435D01*
X10402392Y-3258006D01*
G37*
%TD.AperFunction*%
%TA.AperFunction,Conductor*%
G36*
X13970000Y-18600963D02*
G01*
X13964546Y-18603742D01*
X13904114Y-18594171D01*
X13870516Y-18566227D01*
X13861804Y-18554873D01*
X13841381Y-18497197D01*
X13841347Y-18494607D01*
X13841347Y-17104631D01*
X13860254Y-17046440D01*
X13870337Y-17034633D01*
X13970000Y-16934971D01*
X13970000Y-18600963D01*
G37*
%TD.AperFunction*%
%TA.AperFunction,Conductor*%
G36*
X13970000Y-16085027D02*
G01*
X13374437Y-16680590D01*
X13363208Y-16688703D01*
X13363937Y-16689668D01*
X13356618Y-16695194D01*
X13324219Y-16730733D01*
X13322643Y-16732384D01*
X13308677Y-16746351D01*
X13308664Y-16746366D01*
X13306660Y-16749291D01*
X13302408Y-16754657D01*
X13280931Y-16778218D01*
X13280930Y-16778220D01*
X13277376Y-16787393D01*
X13266743Y-16807565D01*
X13261193Y-16815668D01*
X13261189Y-16815677D01*
X13253892Y-16846698D01*
X13251863Y-16853251D01*
X13241285Y-16880558D01*
X13202635Y-16927990D01*
X13143486Y-16943646D01*
X13086432Y-16921545D01*
X13053265Y-16870129D01*
X13049969Y-16844798D01*
X13049969Y-13900472D01*
X13068876Y-13842281D01*
X13118376Y-13806317D01*
X13179562Y-13806317D01*
X13186853Y-13809007D01*
X13305238Y-13858044D01*
X13417109Y-13872772D01*
X13461999Y-13878682D01*
X13462000Y-13878682D01*
X13462001Y-13878682D01*
X13506891Y-13872772D01*
X13618762Y-13858044D01*
X13764841Y-13797536D01*
X13890282Y-13701282D01*
X13970000Y-13597391D01*
X13970000Y-16085027D01*
G37*
%TD.AperFunction*%
%TA.AperFunction,Conductor*%
G36*
X5620505Y-6045476D02*
G01*
X5648281Y-6099991D01*
X5649500Y-6115478D01*
X5649500Y-14371148D01*
X5630593Y-14429339D01*
X5581093Y-14465303D01*
X5519907Y-14465303D01*
X5512615Y-14462612D01*
X5363767Y-14400957D01*
X5363758Y-14400955D01*
X5207001Y-14380318D01*
X5206999Y-14380318D01*
X5050241Y-14400955D01*
X5050232Y-14400957D01*
X4944385Y-14444801D01*
X4883389Y-14449602D01*
X4831220Y-14417632D01*
X4807805Y-14361104D01*
X4807500Y-14353337D01*
X4807500Y-6604169D01*
X4809731Y-6590496D01*
X4808505Y-6590325D01*
X4809773Y-6581233D01*
X4808542Y-6554609D01*
X4807552Y-6533208D01*
X4807500Y-6530929D01*
X4807500Y-6511160D01*
X4807500Y-6511156D01*
X4806846Y-6507664D01*
X4806056Y-6500859D01*
X4804585Y-6469009D01*
X4800613Y-6460014D01*
X4793865Y-6438220D01*
X4792895Y-6433031D01*
X4792061Y-6428567D01*
X4775278Y-6401462D01*
X4772085Y-6395406D01*
X4763090Y-6375031D01*
X4759207Y-6366236D01*
X4752257Y-6359286D01*
X4738088Y-6341396D01*
X4732920Y-6333049D01*
X4732919Y-6333048D01*
X4707483Y-6313839D01*
X4702306Y-6309334D01*
X4429180Y-6036209D01*
X4401403Y-5981692D01*
X4401031Y-5953283D01*
X4415682Y-5842000D01*
X4415682Y-5841999D01*
X4410522Y-5802809D01*
X4395044Y-5685238D01*
X4334537Y-5539161D01*
X4334537Y-5539160D01*
X4238286Y-5413723D01*
X4238285Y-5413722D01*
X4238282Y-5413718D01*
X4238277Y-5413714D01*
X4238276Y-5413713D01*
X4112838Y-5317462D01*
X3966766Y-5256957D01*
X3966758Y-5256955D01*
X3810001Y-5236318D01*
X3809999Y-5236318D01*
X3653241Y-5256955D01*
X3653233Y-5256957D01*
X3507161Y-5317462D01*
X3507160Y-5317462D01*
X3381723Y-5413713D01*
X3381713Y-5413723D01*
X3285462Y-5539160D01*
X3285462Y-5539161D01*
X3224957Y-5685233D01*
X3224955Y-5685241D01*
X3204318Y-5841999D01*
X3204318Y-5842000D01*
X3224955Y-5998758D01*
X3224957Y-5998766D01*
X3285462Y-6144838D01*
X3285462Y-6144839D01*
X3285464Y-6144841D01*
X3381718Y-6270282D01*
X3507159Y-6366536D01*
X3507160Y-6366536D01*
X3507161Y-6366537D01*
X3650896Y-6426074D01*
X3653238Y-6427044D01*
X3738129Y-6438220D01*
X3809999Y-6447682D01*
X3810000Y-6447682D01*
X3921284Y-6433031D01*
X3981443Y-6444181D01*
X4004209Y-6461180D01*
X4097638Y-6554609D01*
X4125415Y-6609126D01*
X4115844Y-6669558D01*
X4072579Y-6712823D01*
X4012147Y-6722394D01*
X3989749Y-6716077D01*
X3839759Y-6653949D01*
X3839750Y-6653947D01*
X3682993Y-6633310D01*
X3682991Y-6633310D01*
X3526233Y-6653947D01*
X3526225Y-6653949D01*
X3380153Y-6714454D01*
X3380152Y-6714454D01*
X3254715Y-6810705D01*
X3254705Y-6810715D01*
X3158454Y-6936152D01*
X3158454Y-6936153D01*
X3097949Y-7082225D01*
X3097947Y-7082233D01*
X3077310Y-7238991D01*
X3077310Y-7238992D01*
X3097947Y-7395750D01*
X3097949Y-7395758D01*
X3158454Y-7541830D01*
X3158454Y-7541831D01*
X3193868Y-7587983D01*
X3254710Y-7667274D01*
X3254714Y-7667277D01*
X3254715Y-7667278D01*
X3284317Y-7689992D01*
X3380151Y-7763528D01*
X3445388Y-7790550D01*
X3491911Y-7830284D01*
X3506500Y-7882012D01*
X3506500Y-8574841D01*
X3487593Y-8633032D01*
X3438093Y-8668996D01*
X3376907Y-8668996D01*
X3369615Y-8666305D01*
X3263767Y-8622461D01*
X3263758Y-8622459D01*
X3107001Y-8601822D01*
X3106999Y-8601822D01*
X2950241Y-8622459D01*
X2950233Y-8622461D01*
X2804161Y-8682966D01*
X2804160Y-8682966D01*
X2678723Y-8779217D01*
X2678713Y-8779227D01*
X2582462Y-8904664D01*
X2582462Y-8904665D01*
X2521957Y-9050737D01*
X2521955Y-9050745D01*
X2501318Y-9207503D01*
X2501318Y-9207504D01*
X2521955Y-9364262D01*
X2521957Y-9364271D01*
X2580900Y-9506572D01*
X2585701Y-9567569D01*
X2553731Y-9619738D01*
X2497203Y-9643152D01*
X2437708Y-9628868D01*
X2419432Y-9614461D01*
X1270000Y-8465028D01*
X1270000Y-1694971D01*
X5620505Y-6045476D01*
G37*
%TD.AperFunction*%
%TA.AperFunction,Conductor*%
G36*
X13970000Y-12948609D02*
G01*
X13890286Y-12844723D01*
X13890285Y-12844722D01*
X13890282Y-12844718D01*
X13801231Y-12776387D01*
X13766576Y-12725964D01*
X13762499Y-12697852D01*
X13762499Y-9563477D01*
X13781406Y-9505287D01*
X13791496Y-9493474D01*
X13970000Y-9314970D01*
X13970000Y-12948609D01*
G37*
%TD.AperFunction*%
%TA.AperFunction,Conductor*%
G36*
X13970000Y-8465027D02*
G01*
X13295590Y-9139437D01*
X13284361Y-9147550D01*
X13285090Y-9148515D01*
X13277771Y-9154041D01*
X13245372Y-9189580D01*
X13243796Y-9191231D01*
X13229830Y-9205198D01*
X13226902Y-9208724D01*
X13225759Y-9207775D01*
X13182140Y-9241338D01*
X13120978Y-9243020D01*
X13070507Y-9208432D01*
X13050006Y-9150783D01*
X13049969Y-9148060D01*
X13049969Y-7736010D01*
X13068876Y-7677819D01*
X13078965Y-7666006D01*
X13522509Y-7222462D01*
X13970000Y-6774971D01*
X13970000Y-8465027D01*
G37*
%TD.AperFunction*%
%TA.AperFunction,Conductor*%
G36*
X13970000Y2363414D02*
G01*
X13970000Y300500D01*
X12638164Y300500D01*
X12624488Y302733D01*
X12624317Y301506D01*
X12615233Y302774D01*
X12574886Y300908D01*
X12567206Y300553D01*
X12564930Y300500D01*
X12545153Y300500D01*
X12541658Y299847D01*
X12534845Y299057D01*
X12503010Y297586D01*
X12503006Y297585D01*
X12494015Y293615D01*
X12472227Y286868D01*
X12462570Y285063D01*
X12462564Y285061D01*
X12435466Y268283D01*
X12429399Y265085D01*
X12400237Y252208D01*
X12400233Y252205D01*
X12393284Y245256D01*
X12375409Y231097D01*
X12367048Y225920D01*
X12347839Y200485D01*
X12343335Y195308D01*
X7995590Y-4152437D01*
X7984361Y-4160550D01*
X7985090Y-4161515D01*
X7977771Y-4167041D01*
X7945372Y-4202580D01*
X7943796Y-4204231D01*
X7929830Y-4218198D01*
X7929817Y-4218213D01*
X7927813Y-4221138D01*
X7923561Y-4226504D01*
X7902084Y-4250065D01*
X7902083Y-4250067D01*
X7898529Y-4259240D01*
X7887896Y-4279412D01*
X7882346Y-4287515D01*
X7882342Y-4287524D01*
X7875045Y-4318545D01*
X7873016Y-4325097D01*
X7861499Y-4354826D01*
X7861499Y-4364657D01*
X7858871Y-4387312D01*
X7856621Y-4396880D01*
X7861025Y-4428451D01*
X7861500Y-4435298D01*
X7861500Y-7114337D01*
X7842593Y-7172528D01*
X7793093Y-7208492D01*
X7731907Y-7208492D01*
X7724615Y-7205801D01*
X7618767Y-7161957D01*
X7618758Y-7161955D01*
X7462001Y-7141318D01*
X7461999Y-7141318D01*
X7305241Y-7161955D01*
X7305233Y-7161957D01*
X7159161Y-7222462D01*
X7159160Y-7222462D01*
X7063767Y-7295660D01*
X7006091Y-7316084D01*
X6947425Y-7298706D01*
X6910178Y-7250164D01*
X6904500Y-7217118D01*
X6904500Y-4637168D01*
X6906731Y-4623495D01*
X6905505Y-4623324D01*
X6906773Y-4614232D01*
X6904553Y-4566215D01*
X6904500Y-4563928D01*
X6904500Y-4544160D01*
X6904500Y-4544156D01*
X6903846Y-4540664D01*
X6903056Y-4533859D01*
X6901585Y-4502008D01*
X6897614Y-4493016D01*
X6890864Y-4471214D01*
X6889061Y-4461568D01*
X6889061Y-4461567D01*
X6872276Y-4434458D01*
X6869088Y-4428410D01*
X6856206Y-4399234D01*
X6856205Y-4399233D01*
X6856204Y-4399231D01*
X6849254Y-4392281D01*
X6835088Y-4374395D01*
X6829921Y-4366050D01*
X6829919Y-4366048D01*
X6804487Y-4346842D01*
X6799310Y-4342337D01*
X5218529Y-2761558D01*
X5190752Y-2707041D01*
X5190380Y-2704475D01*
X5186666Y-2676264D01*
X5178682Y-2615612D01*
X5118175Y-2469535D01*
X5118175Y-2469534D01*
X5021924Y-2344097D01*
X5021923Y-2344096D01*
X5021920Y-2344092D01*
X5021915Y-2344088D01*
X5021914Y-2344087D01*
X4896476Y-2247836D01*
X4750404Y-2187331D01*
X4750396Y-2187329D01*
X4593639Y-2166692D01*
X4593637Y-2166692D01*
X4436879Y-2187329D01*
X4436871Y-2187331D01*
X4290799Y-2247836D01*
X4290798Y-2247836D01*
X4165361Y-2344087D01*
X4165351Y-2344097D01*
X4069100Y-2469534D01*
X4069100Y-2469535D01*
X4008595Y-2615607D01*
X4008593Y-2615615D01*
X3987956Y-2772373D01*
X3987956Y-2772374D01*
X4008593Y-2929132D01*
X4008595Y-2929140D01*
X4069100Y-3075212D01*
X4069100Y-3075213D01*
X4089805Y-3102196D01*
X4165356Y-3200656D01*
X4290797Y-3296910D01*
X4290798Y-3296910D01*
X4290799Y-3296911D01*
X4346635Y-3320039D01*
X4436876Y-3357418D01*
X4554447Y-3372896D01*
X4593637Y-3378056D01*
X4593638Y-3378056D01*
X4593639Y-3378056D01*
X4624990Y-3373928D01*
X4750400Y-3357418D01*
X4840641Y-3320038D01*
X4901634Y-3315238D01*
X4948528Y-3341499D01*
X6274504Y-4667475D01*
X6302281Y-4721992D01*
X6303500Y-4737479D01*
X6303500Y-5639521D01*
X6284593Y-5697712D01*
X6235093Y-5733676D01*
X6173907Y-5733676D01*
X6134496Y-5709525D01*
X1270000Y-845029D01*
X1270000Y2363416D01*
X6425685Y2365574D01*
X6483882Y2346691D01*
X6518755Y2300434D01*
X6579775Y2132781D01*
X6579776Y2132779D01*
X6660069Y1993709D01*
X6679466Y1960113D01*
X6807630Y1807374D01*
X6960369Y1679210D01*
X7016579Y1646757D01*
X7133034Y1579521D01*
X7133036Y1579520D01*
X7133040Y1579519D01*
X7133043Y1579517D01*
X7320405Y1511323D01*
X7516763Y1476700D01*
X7516764Y1476700D01*
X7716148Y1476700D01*
X7716149Y1476700D01*
X7912507Y1511323D01*
X8099869Y1579517D01*
X8099872Y1579520D01*
X8099875Y1579520D01*
X8099877Y1579521D01*
X8160121Y1614304D01*
X8272543Y1679210D01*
X8425282Y1807374D01*
X8553446Y1960113D01*
X8644025Y2117001D01*
X8653135Y2132779D01*
X8653136Y2132781D01*
X8653136Y2132784D01*
X8653139Y2132787D01*
X8714158Y2300438D01*
X8751825Y2348648D01*
X8807225Y2365574D01*
X13970000Y2363414D01*
G37*
%TD.AperFunction*%
%TA.AperFunction,Conductor*%
G36*
X13970000Y-2239500D02*
G01*
X10997479Y-2239500D01*
X10939288Y-2220593D01*
X10903324Y-2171093D01*
X10903324Y-2109907D01*
X10927475Y-2070496D01*
X12668475Y-329496D01*
X12722992Y-301719D01*
X12738479Y-300500D01*
X13970000Y-300500D01*
X13970000Y-2239500D01*
G37*
%TD.AperFunction*%
%TD*%
%TA.AperFunction,NonConductor*%
G36*
X1899780Y-54180867D02*
G01*
X1923195Y-54237395D01*
X1923500Y-54245163D01*
X1923500Y-56030520D01*
X1904593Y-56088711D01*
X1894504Y-56100524D01*
X1270000Y-56725028D01*
X1270000Y-54183431D01*
X1335655Y-54210627D01*
X1453226Y-54226105D01*
X1492416Y-54231265D01*
X1492417Y-54231265D01*
X1492418Y-54231265D01*
X1523769Y-54227137D01*
X1649179Y-54210627D01*
X1786615Y-54153698D01*
X1847611Y-54148898D01*
X1899780Y-54180867D01*
G37*
%TD.AperFunction*%
%TA.AperFunction,Conductor*%
%TO.N,GND*%
G36*
X-1358496Y-74536669D02*
G01*
X-620692Y-75274473D01*
X-592915Y-75328990D01*
X-602486Y-75389422D01*
X-627890Y-75421004D01*
X-710878Y-75489111D01*
X-710888Y-75489121D01*
X-835907Y-75641457D01*
X-835913Y-75641467D01*
X-928812Y-75815267D01*
X-928813Y-75815269D01*
X-986025Y-76003870D01*
X-986026Y-76003873D01*
X-1005341Y-76199996D01*
X-1005341Y-76200003D01*
X-986026Y-76396126D01*
X-986025Y-76396129D01*
X-928813Y-76584730D01*
X-928812Y-76584732D01*
X-857782Y-76717618D01*
X-835910Y-76758538D01*
X-835908Y-76758540D01*
X-835907Y-76758542D01*
X-710888Y-76910878D01*
X-710879Y-76910887D01*
X-558543Y-77035906D01*
X-558538Y-77035910D01*
X-384727Y-77128814D01*
X-196132Y-77186024D01*
X-196130Y-77186024D01*
X-196127Y-77186025D01*
X-3Y-77205341D01*
X0Y-77205341D01*
X3Y-77205341D01*
X196126Y-77186025D01*
X196127Y-77186024D01*
X196132Y-77186024D01*
X384727Y-77128814D01*
X558538Y-77035910D01*
X710883Y-76910883D01*
X835910Y-76758538D01*
X928814Y-76584727D01*
X986024Y-76396132D01*
X1005341Y-76200000D01*
X1005103Y-76197585D01*
X1005341Y-76196502D01*
X1005341Y-76195137D01*
X1005640Y-76195137D01*
X1018214Y-76137823D01*
X1063949Y-76097179D01*
X1124839Y-76091179D01*
X1173630Y-76117876D01*
X1270000Y-76214246D01*
X1270000Y-81103232D01*
X837217Y-81103232D01*
X834253Y-81103142D01*
X631757Y-81090897D01*
X553869Y-81086187D01*
X547929Y-81085466D01*
X273113Y-81035107D01*
X267304Y-81033676D01*
X562Y-80950558D01*
X-5032Y-80948436D01*
X-78200Y-80915507D01*
X-259804Y-80833775D01*
X-265091Y-80831000D01*
X-504188Y-80686463D01*
X-509112Y-80683065D01*
X-729046Y-80510760D01*
X-733525Y-80506792D01*
X-931074Y-80309246D01*
X-935042Y-80304767D01*
X-1107350Y-80084835D01*
X-1110745Y-80079917D01*
X-1255286Y-79840820D01*
X-1258065Y-79835523D01*
X-1333097Y-79668811D01*
X-1372735Y-79580740D01*
X-1374850Y-79575163D01*
X-1457971Y-79308419D01*
X-1459400Y-79302623D01*
X-1509766Y-79027786D01*
X-1510482Y-79021883D01*
X-1527411Y-78742021D01*
X-1527472Y-78740003D01*
X-1005341Y-78740003D01*
X-986026Y-78936126D01*
X-986025Y-78936129D01*
X-928813Y-79124730D01*
X-928812Y-79124732D01*
X-857782Y-79257618D01*
X-835910Y-79298538D01*
X-835908Y-79298540D01*
X-835907Y-79298542D01*
X-710888Y-79450878D01*
X-710879Y-79450887D01*
X-609390Y-79534177D01*
X-558538Y-79575910D01*
X-384727Y-79668814D01*
X-196132Y-79726024D01*
X-196130Y-79726024D01*
X-196127Y-79726025D01*
X-3Y-79745341D01*
X0Y-79745341D01*
X3Y-79745341D01*
X196126Y-79726025D01*
X196127Y-79726024D01*
X196132Y-79726024D01*
X384727Y-79668814D01*
X558538Y-79575910D01*
X710883Y-79450883D01*
X835910Y-79298538D01*
X928814Y-79124727D01*
X986024Y-78936132D01*
X999250Y-78801850D01*
X1005341Y-78740003D01*
X1005341Y-78739996D01*
X986025Y-78543873D01*
X986024Y-78543870D01*
X986024Y-78543868D01*
X928814Y-78355273D01*
X835910Y-78181462D01*
X835906Y-78181457D01*
X710887Y-78029121D01*
X710878Y-78029112D01*
X558542Y-77904093D01*
X558540Y-77904092D01*
X558538Y-77904090D01*
X517618Y-77882218D01*
X384732Y-77811188D01*
X384730Y-77811187D01*
X196129Y-77753975D01*
X196126Y-77753974D01*
X3Y-77734659D01*
X-3Y-77734659D01*
X-196127Y-77753974D01*
X-196130Y-77753975D01*
X-384731Y-77811187D01*
X-384733Y-77811188D01*
X-558533Y-77904087D01*
X-558543Y-77904093D01*
X-710879Y-78029112D01*
X-710888Y-78029121D01*
X-835907Y-78181457D01*
X-835913Y-78181467D01*
X-928812Y-78355267D01*
X-928813Y-78355269D01*
X-986025Y-78543870D01*
X-986026Y-78543873D01*
X-1005341Y-78739996D01*
X-1005341Y-78740003D01*
X-1527472Y-78740003D01*
X-1527500Y-78739054D01*
X-1527500Y-74606673D01*
X-1508593Y-74548482D01*
X-1459093Y-74512518D01*
X-1397907Y-74512518D01*
X-1358496Y-74536669D01*
G37*
%TD.AperFunction*%
%TA.AperFunction,Conductor*%
G36*
X1270000Y-75109746D02*
G01*
X850396Y-74690142D01*
X850395Y-74690141D01*
X829610Y-74679550D01*
X816374Y-74671439D01*
X812184Y-74668395D01*
X797497Y-74657725D01*
X775308Y-74650515D01*
X760963Y-74644573D01*
X740179Y-74633983D01*
X717141Y-74630334D01*
X702039Y-74626708D01*
X679854Y-74619500D01*
X672156Y-74618281D01*
X672582Y-74615585D01*
X626439Y-74600593D01*
X590475Y-74551093D01*
X590475Y-74489907D01*
X621825Y-74443972D01*
X710878Y-74370887D01*
X710877Y-74370887D01*
X710883Y-74370883D01*
X835910Y-74218538D01*
X928814Y-74044727D01*
X986024Y-73856132D01*
X1005341Y-73660000D01*
X1005341Y-73659996D01*
X986025Y-73463873D01*
X986024Y-73463870D01*
X986024Y-73463868D01*
X928814Y-73275273D01*
X835910Y-73101462D01*
X799500Y-73057096D01*
X710887Y-72949121D01*
X710878Y-72949112D01*
X558542Y-72824093D01*
X558540Y-72824092D01*
X558538Y-72824090D01*
X517618Y-72802218D01*
X384732Y-72731188D01*
X384730Y-72731187D01*
X196129Y-72673975D01*
X196126Y-72673974D01*
X3Y-72654659D01*
X-3Y-72654659D01*
X-196127Y-72673974D01*
X-196130Y-72673975D01*
X-384731Y-72731187D01*
X-384733Y-72731188D01*
X-558533Y-72824087D01*
X-558543Y-72824093D01*
X-637695Y-72889052D01*
X-694672Y-72911352D01*
X-753875Y-72895903D01*
X-792690Y-72848606D01*
X-799500Y-72812524D01*
X-799500Y-71967475D01*
X-780593Y-71909284D01*
X-731093Y-71873320D01*
X-669907Y-71873320D01*
X-637696Y-71890946D01*
X-558538Y-71955910D01*
X-384727Y-72048814D01*
X-196132Y-72106024D01*
X-196130Y-72106024D01*
X-196127Y-72106025D01*
X-3Y-72125341D01*
X0Y-72125341D01*
X3Y-72125341D01*
X196126Y-72106025D01*
X196127Y-72106024D01*
X196132Y-72106024D01*
X384727Y-72048814D01*
X558538Y-71955910D01*
X710883Y-71830883D01*
X835910Y-71678538D01*
X928814Y-71504727D01*
X986024Y-71316132D01*
X1005341Y-71120000D01*
X1005341Y-71119996D01*
X986025Y-70923873D01*
X986024Y-70923867D01*
X970576Y-70872944D01*
X928814Y-70735273D01*
X921933Y-70722401D01*
X911177Y-70662170D01*
X937879Y-70607118D01*
X939241Y-70605729D01*
X1027874Y-70517096D01*
X1269999Y-70274971D01*
X1270000Y-75109746D01*
G37*
%TD.AperFunction*%
%TA.AperFunction,Conductor*%
G36*
X925737Y-53896913D02*
G01*
X968197Y-53928836D01*
X1061846Y-54050883D01*
X1064135Y-54053865D01*
X1189576Y-54150119D01*
X1270000Y-54183431D01*
X1270000Y-56725027D01*
X514269Y-57480758D01*
X459752Y-57508535D01*
X399320Y-57498964D01*
X397599Y-57498066D01*
X384727Y-57491186D01*
X196129Y-57433975D01*
X196126Y-57433974D01*
X3Y-57414659D01*
X-3Y-57414659D01*
X-196127Y-57433974D01*
X-196130Y-57433975D01*
X-384731Y-57491187D01*
X-384733Y-57491188D01*
X-558533Y-57584087D01*
X-558543Y-57584093D01*
X-637695Y-57649052D01*
X-694672Y-57671352D01*
X-753875Y-57655903D01*
X-792690Y-57608606D01*
X-799500Y-57572524D01*
X-799500Y-54187475D01*
X-780593Y-54129284D01*
X-731093Y-54093320D01*
X-669907Y-54093320D01*
X-637696Y-54110946D01*
X-558538Y-54175910D01*
X-384727Y-54268814D01*
X-196132Y-54326024D01*
X-196130Y-54326024D01*
X-196127Y-54326025D01*
X-3Y-54345341D01*
X0Y-54345341D01*
X3Y-54345341D01*
X196126Y-54326025D01*
X196127Y-54326024D01*
X196132Y-54326024D01*
X384727Y-54268814D01*
X558538Y-54175910D01*
X710883Y-54050883D01*
X813128Y-53926296D01*
X864658Y-53893311D01*
X925737Y-53896913D01*
G37*
%TD.AperFunction*%
%TA.AperFunction,Conductor*%
G36*
X1162712Y-18099407D02*
G01*
X1174525Y-18109496D01*
X1270000Y-18204971D01*
X1269999Y-26245028D01*
X939240Y-25914269D01*
X911463Y-25859752D01*
X921034Y-25799320D01*
X921898Y-25797665D01*
X928814Y-25784727D01*
X986024Y-25596132D01*
X1005341Y-25400000D01*
X1005341Y-25399996D01*
X986025Y-25203873D01*
X986024Y-25203870D01*
X986024Y-25203868D01*
X928814Y-25015273D01*
X835910Y-24841462D01*
X799500Y-24797096D01*
X710887Y-24689121D01*
X710878Y-24689112D01*
X558542Y-24564093D01*
X558540Y-24564092D01*
X558538Y-24564090D01*
X517618Y-24542218D01*
X384732Y-24471188D01*
X384730Y-24471187D01*
X196129Y-24413975D01*
X196126Y-24413974D01*
X3Y-24394659D01*
X-3Y-24394659D01*
X-196127Y-24413974D01*
X-196130Y-24413975D01*
X-384731Y-24471187D01*
X-384733Y-24471188D01*
X-558533Y-24564087D01*
X-558543Y-24564093D01*
X-637695Y-24629052D01*
X-694672Y-24651352D01*
X-753875Y-24635903D01*
X-792690Y-24588606D01*
X-799500Y-24552524D01*
X-799500Y-21167475D01*
X-780593Y-21109284D01*
X-731093Y-21073320D01*
X-669907Y-21073320D01*
X-637696Y-21090946D01*
X-558538Y-21155910D01*
X-384727Y-21248814D01*
X-196132Y-21306024D01*
X-196130Y-21306024D01*
X-196127Y-21306025D01*
X-3Y-21325341D01*
X0Y-21325341D01*
X3Y-21325341D01*
X196126Y-21306025D01*
X196127Y-21306024D01*
X196132Y-21306024D01*
X384727Y-21248814D01*
X558538Y-21155910D01*
X710883Y-21030883D01*
X835910Y-20878538D01*
X928814Y-20704727D01*
X986024Y-20516132D01*
X1005341Y-20320000D01*
X1005341Y-20319996D01*
X986025Y-20123873D01*
X986024Y-20123870D01*
X986024Y-20123868D01*
X928814Y-19935273D01*
X835910Y-19761462D01*
X799500Y-19717096D01*
X710887Y-19609121D01*
X710878Y-19609112D01*
X558542Y-19484093D01*
X558540Y-19484092D01*
X558538Y-19484090D01*
X495993Y-19450659D01*
X384732Y-19391188D01*
X384730Y-19391187D01*
X196129Y-19333975D01*
X196126Y-19333974D01*
X3Y-19314659D01*
X-3Y-19314659D01*
X-196127Y-19333974D01*
X-196130Y-19333975D01*
X-384731Y-19391187D01*
X-384733Y-19391188D01*
X-558533Y-19484087D01*
X-558543Y-19484093D01*
X-637695Y-19549052D01*
X-694672Y-19571352D01*
X-753875Y-19555903D01*
X-792690Y-19508606D01*
X-799500Y-19472524D01*
X-799500Y-18627475D01*
X-780593Y-18569284D01*
X-731093Y-18533320D01*
X-669907Y-18533320D01*
X-637696Y-18550946D01*
X-558538Y-18615910D01*
X-384727Y-18708814D01*
X-196132Y-18766024D01*
X-196130Y-18766024D01*
X-196127Y-18766025D01*
X-3Y-18785341D01*
X0Y-18785341D01*
X3Y-18785341D01*
X196126Y-18766025D01*
X196127Y-18766024D01*
X196132Y-18766024D01*
X384727Y-18708814D01*
X558538Y-18615910D01*
X710883Y-18490883D01*
X835910Y-18338538D01*
X928814Y-18164727D01*
X933050Y-18150761D01*
X968035Y-18100565D01*
X1025843Y-18080519D01*
X1027787Y-18080500D01*
X1104521Y-18080500D01*
X1162712Y-18099407D01*
G37*
%TD.AperFunction*%
%TA.AperFunction,Conductor*%
G36*
X1270000Y-845029D02*
G01*
X1029496Y-604525D01*
X1001719Y-550008D01*
X1000500Y-534521D01*
X1000500Y819747D01*
X1000498Y819759D01*
X996323Y840747D01*
X988867Y878231D01*
X944552Y944552D01*
X944548Y944555D01*
X878233Y988866D01*
X878231Y988867D01*
X878228Y988868D01*
X878227Y988868D01*
X819758Y1000499D01*
X819748Y1000500D01*
X-819748Y1000500D01*
X-819749Y1000500D01*
X-819759Y1000499D01*
X-878228Y988868D01*
X-878234Y988866D01*
X-944549Y944555D01*
X-944555Y944549D01*
X-988866Y878234D01*
X-988868Y878228D01*
X-1000499Y819759D01*
X-1000500Y819747D01*
X-1000500Y-819746D01*
X-1000499Y-819758D01*
X-988868Y-878227D01*
X-988867Y-878231D01*
X-944552Y-944552D01*
X-878231Y-988867D01*
X-833769Y-997711D01*
X-819759Y-1000498D01*
X-819754Y-1000498D01*
X-819748Y-1000500D01*
X534521Y-1000500D01*
X592712Y-1019407D01*
X604525Y-1029496D01*
X1270000Y-1694971D01*
X1270000Y-8465028D01*
X939241Y-8134269D01*
X911464Y-8079752D01*
X921035Y-8019320D01*
X921937Y-8017593D01*
X928812Y-8004730D01*
X928813Y-8004728D01*
X928814Y-8004727D01*
X986024Y-7816132D01*
X1005341Y-7620000D01*
X1005341Y-7619996D01*
X986025Y-7423873D01*
X986024Y-7423870D01*
X986024Y-7423868D01*
X928814Y-7235273D01*
X835910Y-7061462D01*
X799500Y-7017096D01*
X710887Y-6909121D01*
X710878Y-6909112D01*
X558542Y-6784093D01*
X558540Y-6784092D01*
X558538Y-6784090D01*
X517618Y-6762218D01*
X384732Y-6691188D01*
X384730Y-6691187D01*
X196129Y-6633975D01*
X196126Y-6633974D01*
X3Y-6614659D01*
X-3Y-6614659D01*
X-196127Y-6633974D01*
X-196130Y-6633975D01*
X-384731Y-6691187D01*
X-384733Y-6691188D01*
X-558533Y-6784087D01*
X-558543Y-6784093D01*
X-637695Y-6849052D01*
X-694672Y-6871352D01*
X-753875Y-6855903D01*
X-792690Y-6808606D01*
X-799500Y-6772524D01*
X-799500Y-6472757D01*
X-780593Y-6414566D01*
X-770504Y-6402754D01*
X-477247Y-6109496D01*
X-422730Y-6081718D01*
X-407256Y-6080499D01*
X439360Y-6080499D01*
X556762Y-6065044D01*
X702841Y-6004536D01*
X828282Y-5908282D01*
X924536Y-5782841D01*
X985044Y-5636762D01*
X1000500Y-5519361D01*
X1000499Y-4640640D01*
X985044Y-4523238D01*
X924537Y-4377161D01*
X924537Y-4377160D01*
X828286Y-4251723D01*
X828285Y-4251722D01*
X828282Y-4251718D01*
X828277Y-4251714D01*
X828276Y-4251713D01*
X702838Y-4155462D01*
X556766Y-4094957D01*
X556758Y-4094955D01*
X439361Y-4079500D01*
X-439358Y-4079500D01*
X-439363Y-4079501D01*
X-556759Y-4094955D01*
X-556767Y-4094957D01*
X-702839Y-4155462D01*
X-702840Y-4155462D01*
X-828277Y-4251713D01*
X-828287Y-4251723D01*
X-924538Y-4377160D01*
X-924538Y-4377161D01*
X-985043Y-4523233D01*
X-985045Y-4523241D01*
X-1000500Y-4640637D01*
X-1000500Y-5487240D01*
X-1019407Y-5545431D01*
X-1029496Y-5557243D01*
X-1358496Y-5886244D01*
X-1413013Y-5914022D01*
X-1473445Y-5904451D01*
X-1516710Y-5861186D01*
X-1527500Y-5816241D01*
X-1527500Y-2540003D01*
X-1005341Y-2540003D01*
X-986026Y-2736126D01*
X-986025Y-2736129D01*
X-928813Y-2924730D01*
X-928812Y-2924732D01*
X-857782Y-3057618D01*
X-835910Y-3098538D01*
X-835908Y-3098540D01*
X-835907Y-3098542D01*
X-710888Y-3250878D01*
X-710879Y-3250887D01*
X-558543Y-3375906D01*
X-558538Y-3375910D01*
X-384727Y-3468814D01*
X-196132Y-3526024D01*
X-196130Y-3526024D01*
X-196127Y-3526025D01*
X-3Y-3545341D01*
X0Y-3545341D01*
X3Y-3545341D01*
X196126Y-3526025D01*
X196127Y-3526024D01*
X196132Y-3526024D01*
X384727Y-3468814D01*
X558538Y-3375910D01*
X710883Y-3250883D01*
X835910Y-3098538D01*
X928814Y-2924727D01*
X986024Y-2736132D01*
X1005341Y-2540000D01*
X1005341Y-2539996D01*
X986025Y-2343873D01*
X986024Y-2343870D01*
X986024Y-2343868D01*
X928814Y-2155273D01*
X835910Y-1981462D01*
X835906Y-1981457D01*
X710887Y-1829121D01*
X710878Y-1829112D01*
X558542Y-1704093D01*
X558540Y-1704092D01*
X558538Y-1704090D01*
X517618Y-1682218D01*
X384732Y-1611188D01*
X384730Y-1611187D01*
X196129Y-1553975D01*
X196126Y-1553974D01*
X3Y-1534659D01*
X-3Y-1534659D01*
X-196127Y-1553974D01*
X-196130Y-1553975D01*
X-384731Y-1611187D01*
X-384733Y-1611188D01*
X-558533Y-1704087D01*
X-558543Y-1704093D01*
X-710879Y-1829112D01*
X-710888Y-1829121D01*
X-835907Y-1981457D01*
X-835913Y-1981467D01*
X-928812Y-2155267D01*
X-928813Y-2155269D01*
X-986025Y-2343870D01*
X-986026Y-2343873D01*
X-1005341Y-2539996D01*
X-1005341Y-2540003D01*
X-1527500Y-2540003D01*
X-1527500Y24678D01*
X-1527977Y29520D01*
X-1527222Y29595D01*
X-1528302Y45348D01*
X-1521315Y160852D01*
X-1513993Y281886D01*
X-1513277Y287784D01*
X-1462912Y562625D01*
X-1461484Y568413D01*
X-1378361Y835166D01*
X-1376250Y840732D01*
X-1261577Y1095527D01*
X-1258805Y1100808D01*
X-1114253Y1339928D01*
X-1110879Y1344816D01*
X-938559Y1564767D01*
X-934607Y1569228D01*
X-737043Y1766793D01*
X-732565Y1770759D01*
X-512627Y1943071D01*
X-507734Y1946449D01*
X-268619Y2090999D01*
X-263328Y2093775D01*
X-256830Y2096700D01*
X-8536Y2208450D01*
X-2976Y2210558D01*
X263780Y2293683D01*
X269562Y2295108D01*
X544402Y2345476D01*
X550307Y2346193D01*
X830502Y2363143D01*
X833464Y2363232D01*
X885101Y2363233D01*
X885338Y2363255D01*
X1270000Y2363416D01*
X1270000Y-845029D01*
G37*
%TD.AperFunction*%
%TD*%
M02*
