%TF.GenerationSoftware,KiCad,Pcbnew,7.0.5*%
%TF.CreationDate,2024-03-06T08:42:59+02:00*%
%TF.ProjectId,Selector 18bit,53656c65-6374-46f7-9220-31386269742e,V1*%
%TF.SameCoordinates,PX525bfc0PY43d3480*%
%TF.FileFunction,Legend,Top*%
%TF.FilePolarity,Positive*%
%FSLAX46Y46*%
G04 Gerber Fmt 4.6, Leading zero omitted, Abs format (unit mm)*
G04 Created by KiCad (PCBNEW 7.0.5) date 2024-03-06 08:42:59*
%MOMM*%
%LPD*%
G01*
G04 APERTURE LIST*
%ADD10C,0.150000*%
%ADD11C,0.200000*%
%ADD12C,0.120000*%
G04 APERTURE END LIST*
D10*
X13121411Y-78693344D02*
X13212125Y-78723582D01*
X13212125Y-78723582D02*
X13242363Y-78753820D01*
X13242363Y-78753820D02*
X13272601Y-78814296D01*
X13272601Y-78814296D02*
X13272601Y-78905010D01*
X13272601Y-78905010D02*
X13242363Y-78965486D01*
X13242363Y-78965486D02*
X13212125Y-78995725D01*
X13212125Y-78995725D02*
X13151649Y-79025963D01*
X13151649Y-79025963D02*
X12909744Y-79025963D01*
X12909744Y-79025963D02*
X12909744Y-78390963D01*
X12909744Y-78390963D02*
X13121411Y-78390963D01*
X13121411Y-78390963D02*
X13181887Y-78421201D01*
X13181887Y-78421201D02*
X13212125Y-78451439D01*
X13212125Y-78451439D02*
X13242363Y-78511915D01*
X13242363Y-78511915D02*
X13242363Y-78572391D01*
X13242363Y-78572391D02*
X13212125Y-78632867D01*
X13212125Y-78632867D02*
X13181887Y-78663105D01*
X13181887Y-78663105D02*
X13121411Y-78693344D01*
X13121411Y-78693344D02*
X12909744Y-78693344D01*
X13665696Y-78390963D02*
X13726173Y-78390963D01*
X13726173Y-78390963D02*
X13786649Y-78421201D01*
X13786649Y-78421201D02*
X13816887Y-78451439D01*
X13816887Y-78451439D02*
X13847125Y-78511915D01*
X13847125Y-78511915D02*
X13877363Y-78632867D01*
X13877363Y-78632867D02*
X13877363Y-78784058D01*
X13877363Y-78784058D02*
X13847125Y-78905010D01*
X13847125Y-78905010D02*
X13816887Y-78965486D01*
X13816887Y-78965486D02*
X13786649Y-78995725D01*
X13786649Y-78995725D02*
X13726173Y-79025963D01*
X13726173Y-79025963D02*
X13665696Y-79025963D01*
X13665696Y-79025963D02*
X13605220Y-78995725D01*
X13605220Y-78995725D02*
X13574982Y-78965486D01*
X13574982Y-78965486D02*
X13544744Y-78905010D01*
X13544744Y-78905010D02*
X13514506Y-78784058D01*
X13514506Y-78784058D02*
X13514506Y-78632867D01*
X13514506Y-78632867D02*
X13544744Y-78511915D01*
X13544744Y-78511915D02*
X13574982Y-78451439D01*
X13574982Y-78451439D02*
X13605220Y-78421201D01*
X13605220Y-78421201D02*
X13665696Y-78390963D01*
X12994411Y-76153344D02*
X13085125Y-76183582D01*
X13085125Y-76183582D02*
X13115363Y-76213820D01*
X13115363Y-76213820D02*
X13145601Y-76274296D01*
X13145601Y-76274296D02*
X13145601Y-76365010D01*
X13145601Y-76365010D02*
X13115363Y-76425486D01*
X13115363Y-76425486D02*
X13085125Y-76455725D01*
X13085125Y-76455725D02*
X13024649Y-76485963D01*
X13024649Y-76485963D02*
X12782744Y-76485963D01*
X12782744Y-76485963D02*
X12782744Y-75850963D01*
X12782744Y-75850963D02*
X12994411Y-75850963D01*
X12994411Y-75850963D02*
X13054887Y-75881201D01*
X13054887Y-75881201D02*
X13085125Y-75911439D01*
X13085125Y-75911439D02*
X13115363Y-75971915D01*
X13115363Y-75971915D02*
X13115363Y-76032391D01*
X13115363Y-76032391D02*
X13085125Y-76092867D01*
X13085125Y-76092867D02*
X13054887Y-76123105D01*
X13054887Y-76123105D02*
X12994411Y-76153344D01*
X12994411Y-76153344D02*
X12782744Y-76153344D01*
X13750363Y-76485963D02*
X13387506Y-76485963D01*
X13568934Y-76485963D02*
X13568934Y-75850963D01*
X13568934Y-75850963D02*
X13508458Y-75941677D01*
X13508458Y-75941677D02*
X13447982Y-76002153D01*
X13447982Y-76002153D02*
X13387506Y-76032391D01*
X13302839Y-73310963D02*
X13000458Y-73310963D01*
X13000458Y-73310963D02*
X12970220Y-73613344D01*
X12970220Y-73613344D02*
X13000458Y-73583105D01*
X13000458Y-73583105D02*
X13060934Y-73552867D01*
X13060934Y-73552867D02*
X13212125Y-73552867D01*
X13212125Y-73552867D02*
X13272601Y-73583105D01*
X13272601Y-73583105D02*
X13302839Y-73613344D01*
X13302839Y-73613344D02*
X13333077Y-73673820D01*
X13333077Y-73673820D02*
X13333077Y-73825010D01*
X13333077Y-73825010D02*
X13302839Y-73885486D01*
X13302839Y-73885486D02*
X13272601Y-73915725D01*
X13272601Y-73915725D02*
X13212125Y-73945963D01*
X13212125Y-73945963D02*
X13060934Y-73945963D01*
X13060934Y-73945963D02*
X13000458Y-73915725D01*
X13000458Y-73915725D02*
X12970220Y-73885486D01*
X13514506Y-73310963D02*
X13726172Y-73945963D01*
X13726172Y-73945963D02*
X13937839Y-73310963D01*
X13121411Y-71073344D02*
X13212125Y-71103582D01*
X13212125Y-71103582D02*
X13242363Y-71133820D01*
X13242363Y-71133820D02*
X13272601Y-71194296D01*
X13272601Y-71194296D02*
X13272601Y-71285010D01*
X13272601Y-71285010D02*
X13242363Y-71345486D01*
X13242363Y-71345486D02*
X13212125Y-71375725D01*
X13212125Y-71375725D02*
X13151649Y-71405963D01*
X13151649Y-71405963D02*
X12909744Y-71405963D01*
X12909744Y-71405963D02*
X12909744Y-70770963D01*
X12909744Y-70770963D02*
X13121411Y-70770963D01*
X13121411Y-70770963D02*
X13181887Y-70801201D01*
X13181887Y-70801201D02*
X13212125Y-70831439D01*
X13212125Y-70831439D02*
X13242363Y-70891915D01*
X13242363Y-70891915D02*
X13242363Y-70952391D01*
X13242363Y-70952391D02*
X13212125Y-71012867D01*
X13212125Y-71012867D02*
X13181887Y-71043105D01*
X13181887Y-71043105D02*
X13121411Y-71073344D01*
X13121411Y-71073344D02*
X12909744Y-71073344D01*
X13514506Y-70831439D02*
X13544744Y-70801201D01*
X13544744Y-70801201D02*
X13605220Y-70770963D01*
X13605220Y-70770963D02*
X13756411Y-70770963D01*
X13756411Y-70770963D02*
X13816887Y-70801201D01*
X13816887Y-70801201D02*
X13847125Y-70831439D01*
X13847125Y-70831439D02*
X13877363Y-70891915D01*
X13877363Y-70891915D02*
X13877363Y-70952391D01*
X13877363Y-70952391D02*
X13847125Y-71043105D01*
X13847125Y-71043105D02*
X13484268Y-71405963D01*
X13484268Y-71405963D02*
X13877363Y-71405963D01*
X1604541Y-78693344D02*
X1695255Y-78723582D01*
X1695255Y-78723582D02*
X1725493Y-78753820D01*
X1725493Y-78753820D02*
X1755731Y-78814296D01*
X1755731Y-78814296D02*
X1755731Y-78905010D01*
X1755731Y-78905010D02*
X1725493Y-78965486D01*
X1725493Y-78965486D02*
X1695255Y-78995725D01*
X1695255Y-78995725D02*
X1634779Y-79025963D01*
X1634779Y-79025963D02*
X1392874Y-79025963D01*
X1392874Y-79025963D02*
X1392874Y-78390963D01*
X1392874Y-78390963D02*
X1604541Y-78390963D01*
X1604541Y-78390963D02*
X1665017Y-78421201D01*
X1665017Y-78421201D02*
X1695255Y-78451439D01*
X1695255Y-78451439D02*
X1725493Y-78511915D01*
X1725493Y-78511915D02*
X1725493Y-78572391D01*
X1725493Y-78572391D02*
X1695255Y-78632867D01*
X1695255Y-78632867D02*
X1665017Y-78663105D01*
X1665017Y-78663105D02*
X1604541Y-78693344D01*
X1604541Y-78693344D02*
X1392874Y-78693344D01*
X2330255Y-78390963D02*
X2027874Y-78390963D01*
X2027874Y-78390963D02*
X1997636Y-78693344D01*
X1997636Y-78693344D02*
X2027874Y-78663105D01*
X2027874Y-78663105D02*
X2088350Y-78632867D01*
X2088350Y-78632867D02*
X2239541Y-78632867D01*
X2239541Y-78632867D02*
X2300017Y-78663105D01*
X2300017Y-78663105D02*
X2330255Y-78693344D01*
X2330255Y-78693344D02*
X2360493Y-78753820D01*
X2360493Y-78753820D02*
X2360493Y-78905010D01*
X2360493Y-78905010D02*
X2330255Y-78965486D01*
X2330255Y-78965486D02*
X2300017Y-78995725D01*
X2300017Y-78995725D02*
X2239541Y-79025963D01*
X2239541Y-79025963D02*
X2088350Y-79025963D01*
X2088350Y-79025963D02*
X2027874Y-78995725D01*
X2027874Y-78995725D02*
X1997636Y-78965486D01*
X1604541Y-76153344D02*
X1695255Y-76183582D01*
X1695255Y-76183582D02*
X1725493Y-76213820D01*
X1725493Y-76213820D02*
X1755731Y-76274296D01*
X1755731Y-76274296D02*
X1755731Y-76365010D01*
X1755731Y-76365010D02*
X1725493Y-76425486D01*
X1725493Y-76425486D02*
X1695255Y-76455725D01*
X1695255Y-76455725D02*
X1634779Y-76485963D01*
X1634779Y-76485963D02*
X1392874Y-76485963D01*
X1392874Y-76485963D02*
X1392874Y-75850963D01*
X1392874Y-75850963D02*
X1604541Y-75850963D01*
X1604541Y-75850963D02*
X1665017Y-75881201D01*
X1665017Y-75881201D02*
X1695255Y-75911439D01*
X1695255Y-75911439D02*
X1725493Y-75971915D01*
X1725493Y-75971915D02*
X1725493Y-76032391D01*
X1725493Y-76032391D02*
X1695255Y-76092867D01*
X1695255Y-76092867D02*
X1665017Y-76123105D01*
X1665017Y-76123105D02*
X1604541Y-76153344D01*
X1604541Y-76153344D02*
X1392874Y-76153344D01*
X2300017Y-75850963D02*
X2179064Y-75850963D01*
X2179064Y-75850963D02*
X2118588Y-75881201D01*
X2118588Y-75881201D02*
X2088350Y-75911439D01*
X2088350Y-75911439D02*
X2027874Y-76002153D01*
X2027874Y-76002153D02*
X1997636Y-76123105D01*
X1997636Y-76123105D02*
X1997636Y-76365010D01*
X1997636Y-76365010D02*
X2027874Y-76425486D01*
X2027874Y-76425486D02*
X2058112Y-76455725D01*
X2058112Y-76455725D02*
X2118588Y-76485963D01*
X2118588Y-76485963D02*
X2239541Y-76485963D01*
X2239541Y-76485963D02*
X2300017Y-76455725D01*
X2300017Y-76455725D02*
X2330255Y-76425486D01*
X2330255Y-76425486D02*
X2360493Y-76365010D01*
X2360493Y-76365010D02*
X2360493Y-76213820D01*
X2360493Y-76213820D02*
X2330255Y-76153344D01*
X2330255Y-76153344D02*
X2300017Y-76123105D01*
X2300017Y-76123105D02*
X2239541Y-76092867D01*
X2239541Y-76092867D02*
X2118588Y-76092867D01*
X2118588Y-76092867D02*
X2058112Y-76123105D01*
X2058112Y-76123105D02*
X2027874Y-76153344D01*
X2027874Y-76153344D02*
X1997636Y-76213820D01*
X1604541Y-73613344D02*
X1695255Y-73643582D01*
X1695255Y-73643582D02*
X1725493Y-73673820D01*
X1725493Y-73673820D02*
X1755731Y-73734296D01*
X1755731Y-73734296D02*
X1755731Y-73825010D01*
X1755731Y-73825010D02*
X1725493Y-73885486D01*
X1725493Y-73885486D02*
X1695255Y-73915725D01*
X1695255Y-73915725D02*
X1634779Y-73945963D01*
X1634779Y-73945963D02*
X1392874Y-73945963D01*
X1392874Y-73945963D02*
X1392874Y-73310963D01*
X1392874Y-73310963D02*
X1604541Y-73310963D01*
X1604541Y-73310963D02*
X1665017Y-73341201D01*
X1665017Y-73341201D02*
X1695255Y-73371439D01*
X1695255Y-73371439D02*
X1725493Y-73431915D01*
X1725493Y-73431915D02*
X1725493Y-73492391D01*
X1725493Y-73492391D02*
X1695255Y-73552867D01*
X1695255Y-73552867D02*
X1665017Y-73583105D01*
X1665017Y-73583105D02*
X1604541Y-73613344D01*
X1604541Y-73613344D02*
X1392874Y-73613344D01*
X1967398Y-73310963D02*
X2390731Y-73310963D01*
X2390731Y-73310963D02*
X2118588Y-73945963D01*
X1604541Y-71073344D02*
X1695255Y-71103582D01*
X1695255Y-71103582D02*
X1725493Y-71133820D01*
X1725493Y-71133820D02*
X1755731Y-71194296D01*
X1755731Y-71194296D02*
X1755731Y-71285010D01*
X1755731Y-71285010D02*
X1725493Y-71345486D01*
X1725493Y-71345486D02*
X1695255Y-71375725D01*
X1695255Y-71375725D02*
X1634779Y-71405963D01*
X1634779Y-71405963D02*
X1392874Y-71405963D01*
X1392874Y-71405963D02*
X1392874Y-70770963D01*
X1392874Y-70770963D02*
X1604541Y-70770963D01*
X1604541Y-70770963D02*
X1665017Y-70801201D01*
X1665017Y-70801201D02*
X1695255Y-70831439D01*
X1695255Y-70831439D02*
X1725493Y-70891915D01*
X1725493Y-70891915D02*
X1725493Y-70952391D01*
X1725493Y-70952391D02*
X1695255Y-71012867D01*
X1695255Y-71012867D02*
X1665017Y-71043105D01*
X1665017Y-71043105D02*
X1604541Y-71073344D01*
X1604541Y-71073344D02*
X1392874Y-71073344D01*
X2118588Y-71043105D02*
X2058112Y-71012867D01*
X2058112Y-71012867D02*
X2027874Y-70982629D01*
X2027874Y-70982629D02*
X1997636Y-70922153D01*
X1997636Y-70922153D02*
X1997636Y-70891915D01*
X1997636Y-70891915D02*
X2027874Y-70831439D01*
X2027874Y-70831439D02*
X2058112Y-70801201D01*
X2058112Y-70801201D02*
X2118588Y-70770963D01*
X2118588Y-70770963D02*
X2239541Y-70770963D01*
X2239541Y-70770963D02*
X2300017Y-70801201D01*
X2300017Y-70801201D02*
X2330255Y-70831439D01*
X2330255Y-70831439D02*
X2360493Y-70891915D01*
X2360493Y-70891915D02*
X2360493Y-70922153D01*
X2360493Y-70922153D02*
X2330255Y-70982629D01*
X2330255Y-70982629D02*
X2300017Y-71012867D01*
X2300017Y-71012867D02*
X2239541Y-71043105D01*
X2239541Y-71043105D02*
X2118588Y-71043105D01*
X2118588Y-71043105D02*
X2058112Y-71073344D01*
X2058112Y-71073344D02*
X2027874Y-71103582D01*
X2027874Y-71103582D02*
X1997636Y-71164058D01*
X1997636Y-71164058D02*
X1997636Y-71285010D01*
X1997636Y-71285010D02*
X2027874Y-71345486D01*
X2027874Y-71345486D02*
X2058112Y-71375725D01*
X2058112Y-71375725D02*
X2118588Y-71405963D01*
X2118588Y-71405963D02*
X2239541Y-71405963D01*
X2239541Y-71405963D02*
X2300017Y-71375725D01*
X2300017Y-71375725D02*
X2330255Y-71345486D01*
X2330255Y-71345486D02*
X2360493Y-71285010D01*
X2360493Y-71285010D02*
X2360493Y-71164058D01*
X2360493Y-71164058D02*
X2330255Y-71103582D01*
X2330255Y-71103582D02*
X2300017Y-71073344D01*
X2300017Y-71073344D02*
X2239541Y-71043105D01*
X1235636Y-25504534D02*
X1538017Y-25504534D01*
X1175160Y-25685963D02*
X1386826Y-25050963D01*
X1386826Y-25050963D02*
X1598493Y-25685963D01*
X2112541Y-25050963D02*
X1810160Y-25050963D01*
X1810160Y-25050963D02*
X1779922Y-25353344D01*
X1779922Y-25353344D02*
X1810160Y-25323105D01*
X1810160Y-25323105D02*
X1870636Y-25292867D01*
X1870636Y-25292867D02*
X2021827Y-25292867D01*
X2021827Y-25292867D02*
X2082303Y-25323105D01*
X2082303Y-25323105D02*
X2112541Y-25353344D01*
X2112541Y-25353344D02*
X2142779Y-25413820D01*
X2142779Y-25413820D02*
X2142779Y-25565010D01*
X2142779Y-25565010D02*
X2112541Y-25625486D01*
X2112541Y-25625486D02*
X2082303Y-25655725D01*
X2082303Y-25655725D02*
X2021827Y-25685963D01*
X2021827Y-25685963D02*
X1870636Y-25685963D01*
X1870636Y-25685963D02*
X1810160Y-25655725D01*
X1810160Y-25655725D02*
X1779922Y-25625486D01*
X1604541Y-58373344D02*
X1695255Y-58403582D01*
X1695255Y-58403582D02*
X1725493Y-58433820D01*
X1725493Y-58433820D02*
X1755731Y-58494296D01*
X1755731Y-58494296D02*
X1755731Y-58585010D01*
X1755731Y-58585010D02*
X1725493Y-58645486D01*
X1725493Y-58645486D02*
X1695255Y-58675725D01*
X1695255Y-58675725D02*
X1634779Y-58705963D01*
X1634779Y-58705963D02*
X1392874Y-58705963D01*
X1392874Y-58705963D02*
X1392874Y-58070963D01*
X1392874Y-58070963D02*
X1604541Y-58070963D01*
X1604541Y-58070963D02*
X1665017Y-58101201D01*
X1665017Y-58101201D02*
X1695255Y-58131439D01*
X1695255Y-58131439D02*
X1725493Y-58191915D01*
X1725493Y-58191915D02*
X1725493Y-58252391D01*
X1725493Y-58252391D02*
X1695255Y-58312867D01*
X1695255Y-58312867D02*
X1665017Y-58343105D01*
X1665017Y-58343105D02*
X1604541Y-58373344D01*
X1604541Y-58373344D02*
X1392874Y-58373344D01*
X2360493Y-58705963D02*
X1997636Y-58705963D01*
X2179064Y-58705963D02*
X2179064Y-58070963D01*
X2179064Y-58070963D02*
X2118588Y-58161677D01*
X2118588Y-58161677D02*
X2058112Y-58222153D01*
X2058112Y-58222153D02*
X1997636Y-58252391D01*
X2572160Y-58070963D02*
X2965255Y-58070963D01*
X2965255Y-58070963D02*
X2753588Y-58312867D01*
X2753588Y-58312867D02*
X2844303Y-58312867D01*
X2844303Y-58312867D02*
X2904779Y-58343105D01*
X2904779Y-58343105D02*
X2935017Y-58373344D01*
X2935017Y-58373344D02*
X2965255Y-58433820D01*
X2965255Y-58433820D02*
X2965255Y-58585010D01*
X2965255Y-58585010D02*
X2935017Y-58645486D01*
X2935017Y-58645486D02*
X2904779Y-58675725D01*
X2904779Y-58675725D02*
X2844303Y-58705963D01*
X2844303Y-58705963D02*
X2662874Y-58705963D01*
X2662874Y-58705963D02*
X2602398Y-58675725D01*
X2602398Y-58675725D02*
X2572160Y-58645486D01*
X12546887Y-55561201D02*
X12486411Y-55530963D01*
X12486411Y-55530963D02*
X12395697Y-55530963D01*
X12395697Y-55530963D02*
X12304982Y-55561201D01*
X12304982Y-55561201D02*
X12244506Y-55621677D01*
X12244506Y-55621677D02*
X12214268Y-55682153D01*
X12214268Y-55682153D02*
X12184030Y-55803105D01*
X12184030Y-55803105D02*
X12184030Y-55893820D01*
X12184030Y-55893820D02*
X12214268Y-56014772D01*
X12214268Y-56014772D02*
X12244506Y-56075248D01*
X12244506Y-56075248D02*
X12304982Y-56135725D01*
X12304982Y-56135725D02*
X12395697Y-56165963D01*
X12395697Y-56165963D02*
X12456173Y-56165963D01*
X12456173Y-56165963D02*
X12546887Y-56135725D01*
X12546887Y-56135725D02*
X12577125Y-56105486D01*
X12577125Y-56105486D02*
X12577125Y-55893820D01*
X12577125Y-55893820D02*
X12456173Y-55893820D01*
X12849268Y-56165963D02*
X12849268Y-55530963D01*
X12849268Y-55530963D02*
X13212125Y-56165963D01*
X13212125Y-56165963D02*
X13212125Y-55530963D01*
X13514506Y-56165963D02*
X13514506Y-55530963D01*
X13514506Y-55530963D02*
X13665696Y-55530963D01*
X13665696Y-55530963D02*
X13756411Y-55561201D01*
X13756411Y-55561201D02*
X13816887Y-55621677D01*
X13816887Y-55621677D02*
X13847125Y-55682153D01*
X13847125Y-55682153D02*
X13877363Y-55803105D01*
X13877363Y-55803105D02*
X13877363Y-55893820D01*
X13877363Y-55893820D02*
X13847125Y-56014772D01*
X13847125Y-56014772D02*
X13816887Y-56075248D01*
X13816887Y-56075248D02*
X13756411Y-56135725D01*
X13756411Y-56135725D02*
X13665696Y-56165963D01*
X13665696Y-56165963D02*
X13514506Y-56165963D01*
X1604541Y-60913344D02*
X1695255Y-60943582D01*
X1695255Y-60943582D02*
X1725493Y-60973820D01*
X1725493Y-60973820D02*
X1755731Y-61034296D01*
X1755731Y-61034296D02*
X1755731Y-61125010D01*
X1755731Y-61125010D02*
X1725493Y-61185486D01*
X1725493Y-61185486D02*
X1695255Y-61215725D01*
X1695255Y-61215725D02*
X1634779Y-61245963D01*
X1634779Y-61245963D02*
X1392874Y-61245963D01*
X1392874Y-61245963D02*
X1392874Y-60610963D01*
X1392874Y-60610963D02*
X1604541Y-60610963D01*
X1604541Y-60610963D02*
X1665017Y-60641201D01*
X1665017Y-60641201D02*
X1695255Y-60671439D01*
X1695255Y-60671439D02*
X1725493Y-60731915D01*
X1725493Y-60731915D02*
X1725493Y-60792391D01*
X1725493Y-60792391D02*
X1695255Y-60852867D01*
X1695255Y-60852867D02*
X1665017Y-60883105D01*
X1665017Y-60883105D02*
X1604541Y-60913344D01*
X1604541Y-60913344D02*
X1392874Y-60913344D01*
X2360493Y-61245963D02*
X1997636Y-61245963D01*
X2179064Y-61245963D02*
X2179064Y-60610963D01*
X2179064Y-60610963D02*
X2118588Y-60701677D01*
X2118588Y-60701677D02*
X2058112Y-60762153D01*
X2058112Y-60762153D02*
X1997636Y-60792391D01*
X2602398Y-60671439D02*
X2632636Y-60641201D01*
X2632636Y-60641201D02*
X2693112Y-60610963D01*
X2693112Y-60610963D02*
X2844303Y-60610963D01*
X2844303Y-60610963D02*
X2904779Y-60641201D01*
X2904779Y-60641201D02*
X2935017Y-60671439D01*
X2935017Y-60671439D02*
X2965255Y-60731915D01*
X2965255Y-60731915D02*
X2965255Y-60792391D01*
X2965255Y-60792391D02*
X2935017Y-60883105D01*
X2935017Y-60883105D02*
X2572160Y-61245963D01*
X2572160Y-61245963D02*
X2965255Y-61245963D01*
X12492458Y-5184534D02*
X12794839Y-5184534D01*
X12431982Y-5365963D02*
X12643648Y-4730963D01*
X12643648Y-4730963D02*
X12855315Y-5365963D01*
X13399601Y-5365963D02*
X13036744Y-5365963D01*
X13218172Y-5365963D02*
X13218172Y-4730963D01*
X13218172Y-4730963D02*
X13157696Y-4821677D01*
X13157696Y-4821677D02*
X13097220Y-4882153D01*
X13097220Y-4882153D02*
X13036744Y-4912391D01*
X13974125Y-4730963D02*
X13671744Y-4730963D01*
X13671744Y-4730963D02*
X13641506Y-5033344D01*
X13641506Y-5033344D02*
X13671744Y-5003105D01*
X13671744Y-5003105D02*
X13732220Y-4972867D01*
X13732220Y-4972867D02*
X13883411Y-4972867D01*
X13883411Y-4972867D02*
X13943887Y-5003105D01*
X13943887Y-5003105D02*
X13974125Y-5033344D01*
X13974125Y-5033344D02*
X14004363Y-5093820D01*
X14004363Y-5093820D02*
X14004363Y-5245010D01*
X14004363Y-5245010D02*
X13974125Y-5305486D01*
X13974125Y-5305486D02*
X13943887Y-5335725D01*
X13943887Y-5335725D02*
X13883411Y-5365963D01*
X13883411Y-5365963D02*
X13732220Y-5365963D01*
X13732220Y-5365963D02*
X13671744Y-5335725D01*
X13671744Y-5335725D02*
X13641506Y-5305486D01*
X12516648Y-12683582D02*
X12516648Y-12985963D01*
X12304982Y-12350963D02*
X12516648Y-12683582D01*
X12516648Y-12683582D02*
X12728315Y-12350963D01*
X13272601Y-12985963D02*
X12909744Y-12985963D01*
X13091172Y-12985963D02*
X13091172Y-12350963D01*
X13091172Y-12350963D02*
X13030696Y-12441677D01*
X13030696Y-12441677D02*
X12970220Y-12502153D01*
X12970220Y-12502153D02*
X12909744Y-12532391D01*
X13816887Y-12350963D02*
X13695934Y-12350963D01*
X13695934Y-12350963D02*
X13635458Y-12381201D01*
X13635458Y-12381201D02*
X13605220Y-12411439D01*
X13605220Y-12411439D02*
X13544744Y-12502153D01*
X13544744Y-12502153D02*
X13514506Y-12623105D01*
X13514506Y-12623105D02*
X13514506Y-12865010D01*
X13514506Y-12865010D02*
X13544744Y-12925486D01*
X13544744Y-12925486D02*
X13574982Y-12955725D01*
X13574982Y-12955725D02*
X13635458Y-12985963D01*
X13635458Y-12985963D02*
X13756411Y-12985963D01*
X13756411Y-12985963D02*
X13816887Y-12955725D01*
X13816887Y-12955725D02*
X13847125Y-12925486D01*
X13847125Y-12925486D02*
X13877363Y-12865010D01*
X13877363Y-12865010D02*
X13877363Y-12713820D01*
X13877363Y-12713820D02*
X13847125Y-12653344D01*
X13847125Y-12653344D02*
X13816887Y-12623105D01*
X13816887Y-12623105D02*
X13756411Y-12592867D01*
X13756411Y-12592867D02*
X13635458Y-12592867D01*
X13635458Y-12592867D02*
X13574982Y-12623105D01*
X13574982Y-12623105D02*
X13544744Y-12653344D01*
X13544744Y-12653344D02*
X13514506Y-12713820D01*
X12492458Y-2644534D02*
X12794839Y-2644534D01*
X12431982Y-2825963D02*
X12643648Y-2190963D01*
X12643648Y-2190963D02*
X12855315Y-2825963D01*
X13399601Y-2825963D02*
X13036744Y-2825963D01*
X13218172Y-2825963D02*
X13218172Y-2190963D01*
X13218172Y-2190963D02*
X13157696Y-2281677D01*
X13157696Y-2281677D02*
X13097220Y-2342153D01*
X13097220Y-2342153D02*
X13036744Y-2372391D01*
X13943887Y-2190963D02*
X13822934Y-2190963D01*
X13822934Y-2190963D02*
X13762458Y-2221201D01*
X13762458Y-2221201D02*
X13732220Y-2251439D01*
X13732220Y-2251439D02*
X13671744Y-2342153D01*
X13671744Y-2342153D02*
X13641506Y-2463105D01*
X13641506Y-2463105D02*
X13641506Y-2705010D01*
X13641506Y-2705010D02*
X13671744Y-2765486D01*
X13671744Y-2765486D02*
X13701982Y-2795725D01*
X13701982Y-2795725D02*
X13762458Y-2825963D01*
X13762458Y-2825963D02*
X13883411Y-2825963D01*
X13883411Y-2825963D02*
X13943887Y-2795725D01*
X13943887Y-2795725D02*
X13974125Y-2765486D01*
X13974125Y-2765486D02*
X14004363Y-2705010D01*
X14004363Y-2705010D02*
X14004363Y-2553820D01*
X14004363Y-2553820D02*
X13974125Y-2493344D01*
X13974125Y-2493344D02*
X13943887Y-2463105D01*
X13943887Y-2463105D02*
X13883411Y-2432867D01*
X13883411Y-2432867D02*
X13762458Y-2432867D01*
X13762458Y-2432867D02*
X13701982Y-2463105D01*
X13701982Y-2463105D02*
X13671744Y-2493344D01*
X13671744Y-2493344D02*
X13641506Y-2553820D01*
X1235636Y-30584534D02*
X1538017Y-30584534D01*
X1175160Y-30765963D02*
X1386826Y-30130963D01*
X1386826Y-30130963D02*
X1598493Y-30765963D01*
X1749684Y-30130963D02*
X2142779Y-30130963D01*
X2142779Y-30130963D02*
X1931112Y-30372867D01*
X1931112Y-30372867D02*
X2021827Y-30372867D01*
X2021827Y-30372867D02*
X2082303Y-30403105D01*
X2082303Y-30403105D02*
X2112541Y-30433344D01*
X2112541Y-30433344D02*
X2142779Y-30493820D01*
X2142779Y-30493820D02*
X2142779Y-30645010D01*
X2142779Y-30645010D02*
X2112541Y-30705486D01*
X2112541Y-30705486D02*
X2082303Y-30735725D01*
X2082303Y-30735725D02*
X2021827Y-30765963D01*
X2021827Y-30765963D02*
X1840398Y-30765963D01*
X1840398Y-30765963D02*
X1779922Y-30735725D01*
X1779922Y-30735725D02*
X1749684Y-30705486D01*
X12516648Y-17890582D02*
X12516648Y-18192963D01*
X12304982Y-17557963D02*
X12516648Y-17890582D01*
X12516648Y-17890582D02*
X12728315Y-17557963D01*
X13272601Y-18192963D02*
X12909744Y-18192963D01*
X13091172Y-18192963D02*
X13091172Y-17557963D01*
X13091172Y-17557963D02*
X13030696Y-17648677D01*
X13030696Y-17648677D02*
X12970220Y-17709153D01*
X12970220Y-17709153D02*
X12909744Y-17739391D01*
X13816887Y-17769629D02*
X13816887Y-18192963D01*
X13665696Y-17527725D02*
X13514506Y-17981296D01*
X13514506Y-17981296D02*
X13907601Y-17981296D01*
X13121410Y-33003582D02*
X13121410Y-33305963D01*
X12909744Y-32670963D02*
X13121410Y-33003582D01*
X13121410Y-33003582D02*
X13333077Y-32670963D01*
X13574982Y-33305963D02*
X13695934Y-33305963D01*
X13695934Y-33305963D02*
X13756411Y-33275725D01*
X13756411Y-33275725D02*
X13786649Y-33245486D01*
X13786649Y-33245486D02*
X13847125Y-33154772D01*
X13847125Y-33154772D02*
X13877363Y-33033820D01*
X13877363Y-33033820D02*
X13877363Y-32791915D01*
X13877363Y-32791915D02*
X13847125Y-32731439D01*
X13847125Y-32731439D02*
X13816887Y-32701201D01*
X13816887Y-32701201D02*
X13756411Y-32670963D01*
X13756411Y-32670963D02*
X13635458Y-32670963D01*
X13635458Y-32670963D02*
X13574982Y-32701201D01*
X13574982Y-32701201D02*
X13544744Y-32731439D01*
X13544744Y-32731439D02*
X13514506Y-32791915D01*
X13514506Y-32791915D02*
X13514506Y-32943105D01*
X13514506Y-32943105D02*
X13544744Y-33003582D01*
X13544744Y-33003582D02*
X13574982Y-33033820D01*
X13574982Y-33033820D02*
X13635458Y-33064058D01*
X13635458Y-33064058D02*
X13756411Y-33064058D01*
X13756411Y-33064058D02*
X13816887Y-33033820D01*
X13816887Y-33033820D02*
X13847125Y-33003582D01*
X13847125Y-33003582D02*
X13877363Y-32943105D01*
X1725493Y-55561201D02*
X1665017Y-55530963D01*
X1665017Y-55530963D02*
X1574303Y-55530963D01*
X1574303Y-55530963D02*
X1483588Y-55561201D01*
X1483588Y-55561201D02*
X1423112Y-55621677D01*
X1423112Y-55621677D02*
X1392874Y-55682153D01*
X1392874Y-55682153D02*
X1362636Y-55803105D01*
X1362636Y-55803105D02*
X1362636Y-55893820D01*
X1362636Y-55893820D02*
X1392874Y-56014772D01*
X1392874Y-56014772D02*
X1423112Y-56075248D01*
X1423112Y-56075248D02*
X1483588Y-56135725D01*
X1483588Y-56135725D02*
X1574303Y-56165963D01*
X1574303Y-56165963D02*
X1634779Y-56165963D01*
X1634779Y-56165963D02*
X1725493Y-56135725D01*
X1725493Y-56135725D02*
X1755731Y-56105486D01*
X1755731Y-56105486D02*
X1755731Y-55893820D01*
X1755731Y-55893820D02*
X1634779Y-55893820D01*
X2027874Y-56165963D02*
X2027874Y-55530963D01*
X2027874Y-55530963D02*
X2390731Y-56165963D01*
X2390731Y-56165963D02*
X2390731Y-55530963D01*
X2693112Y-56165963D02*
X2693112Y-55530963D01*
X2693112Y-55530963D02*
X2844302Y-55530963D01*
X2844302Y-55530963D02*
X2935017Y-55561201D01*
X2935017Y-55561201D02*
X2995493Y-55621677D01*
X2995493Y-55621677D02*
X3025731Y-55682153D01*
X3025731Y-55682153D02*
X3055969Y-55803105D01*
X3055969Y-55803105D02*
X3055969Y-55893820D01*
X3055969Y-55893820D02*
X3025731Y-56014772D01*
X3025731Y-56014772D02*
X2995493Y-56075248D01*
X2995493Y-56075248D02*
X2935017Y-56135725D01*
X2935017Y-56135725D02*
X2844302Y-56165963D01*
X2844302Y-56165963D02*
X2693112Y-56165963D01*
X1235636Y-17884534D02*
X1538017Y-17884534D01*
X1175160Y-18065963D02*
X1386826Y-17430963D01*
X1386826Y-17430963D02*
X1598493Y-18065963D01*
X1749684Y-17430963D02*
X2173017Y-17430963D01*
X2173017Y-17430963D02*
X1900874Y-18065963D01*
X1604541Y-53293344D02*
X1695255Y-53323582D01*
X1695255Y-53323582D02*
X1725493Y-53353820D01*
X1725493Y-53353820D02*
X1755731Y-53414296D01*
X1755731Y-53414296D02*
X1755731Y-53505010D01*
X1755731Y-53505010D02*
X1725493Y-53565486D01*
X1725493Y-53565486D02*
X1695255Y-53595725D01*
X1695255Y-53595725D02*
X1634779Y-53625963D01*
X1634779Y-53625963D02*
X1392874Y-53625963D01*
X1392874Y-53625963D02*
X1392874Y-52990963D01*
X1392874Y-52990963D02*
X1604541Y-52990963D01*
X1604541Y-52990963D02*
X1665017Y-53021201D01*
X1665017Y-53021201D02*
X1695255Y-53051439D01*
X1695255Y-53051439D02*
X1725493Y-53111915D01*
X1725493Y-53111915D02*
X1725493Y-53172391D01*
X1725493Y-53172391D02*
X1695255Y-53232867D01*
X1695255Y-53232867D02*
X1665017Y-53263105D01*
X1665017Y-53263105D02*
X1604541Y-53293344D01*
X1604541Y-53293344D02*
X1392874Y-53293344D01*
X2360493Y-53625963D02*
X1997636Y-53625963D01*
X2179064Y-53625963D02*
X2179064Y-52990963D01*
X2179064Y-52990963D02*
X2118588Y-53081677D01*
X2118588Y-53081677D02*
X2058112Y-53142153D01*
X2058112Y-53142153D02*
X1997636Y-53172391D01*
X2904779Y-53202629D02*
X2904779Y-53625963D01*
X2753588Y-52960725D02*
X2602398Y-53414296D01*
X2602398Y-53414296D02*
X2995493Y-53414296D01*
X1477541Y-50753344D02*
X1568255Y-50783582D01*
X1568255Y-50783582D02*
X1598493Y-50813820D01*
X1598493Y-50813820D02*
X1628731Y-50874296D01*
X1628731Y-50874296D02*
X1628731Y-50965010D01*
X1628731Y-50965010D02*
X1598493Y-51025486D01*
X1598493Y-51025486D02*
X1568255Y-51055725D01*
X1568255Y-51055725D02*
X1507779Y-51085963D01*
X1507779Y-51085963D02*
X1265874Y-51085963D01*
X1265874Y-51085963D02*
X1265874Y-50450963D01*
X1265874Y-50450963D02*
X1477541Y-50450963D01*
X1477541Y-50450963D02*
X1538017Y-50481201D01*
X1538017Y-50481201D02*
X1568255Y-50511439D01*
X1568255Y-50511439D02*
X1598493Y-50571915D01*
X1598493Y-50571915D02*
X1598493Y-50632391D01*
X1598493Y-50632391D02*
X1568255Y-50692867D01*
X1568255Y-50692867D02*
X1538017Y-50723105D01*
X1538017Y-50723105D02*
X1477541Y-50753344D01*
X1477541Y-50753344D02*
X1265874Y-50753344D01*
X2233493Y-51085963D02*
X1870636Y-51085963D01*
X2052064Y-51085963D02*
X2052064Y-50450963D01*
X2052064Y-50450963D02*
X1991588Y-50541677D01*
X1991588Y-50541677D02*
X1931112Y-50602153D01*
X1931112Y-50602153D02*
X1870636Y-50632391D01*
X2808017Y-50450963D02*
X2505636Y-50450963D01*
X2505636Y-50450963D02*
X2475398Y-50753344D01*
X2475398Y-50753344D02*
X2505636Y-50723105D01*
X2505636Y-50723105D02*
X2566112Y-50692867D01*
X2566112Y-50692867D02*
X2717303Y-50692867D01*
X2717303Y-50692867D02*
X2777779Y-50723105D01*
X2777779Y-50723105D02*
X2808017Y-50753344D01*
X2808017Y-50753344D02*
X2838255Y-50813820D01*
X2838255Y-50813820D02*
X2838255Y-50965010D01*
X2838255Y-50965010D02*
X2808017Y-51025486D01*
X2808017Y-51025486D02*
X2777779Y-51055725D01*
X2777779Y-51055725D02*
X2717303Y-51085963D01*
X2717303Y-51085963D02*
X2566112Y-51085963D01*
X2566112Y-51085963D02*
X2505636Y-51055725D01*
X2505636Y-51055725D02*
X2475398Y-51025486D01*
X12546887Y-22541201D02*
X12486411Y-22510963D01*
X12486411Y-22510963D02*
X12395697Y-22510963D01*
X12395697Y-22510963D02*
X12304982Y-22541201D01*
X12304982Y-22541201D02*
X12244506Y-22601677D01*
X12244506Y-22601677D02*
X12214268Y-22662153D01*
X12214268Y-22662153D02*
X12184030Y-22783105D01*
X12184030Y-22783105D02*
X12184030Y-22873820D01*
X12184030Y-22873820D02*
X12214268Y-22994772D01*
X12214268Y-22994772D02*
X12244506Y-23055248D01*
X12244506Y-23055248D02*
X12304982Y-23115725D01*
X12304982Y-23115725D02*
X12395697Y-23145963D01*
X12395697Y-23145963D02*
X12456173Y-23145963D01*
X12456173Y-23145963D02*
X12546887Y-23115725D01*
X12546887Y-23115725D02*
X12577125Y-23085486D01*
X12577125Y-23085486D02*
X12577125Y-22873820D01*
X12577125Y-22873820D02*
X12456173Y-22873820D01*
X12849268Y-23145963D02*
X12849268Y-22510963D01*
X12849268Y-22510963D02*
X13212125Y-23145963D01*
X13212125Y-23145963D02*
X13212125Y-22510963D01*
X13514506Y-23145963D02*
X13514506Y-22510963D01*
X13514506Y-22510963D02*
X13665696Y-22510963D01*
X13665696Y-22510963D02*
X13756411Y-22541201D01*
X13756411Y-22541201D02*
X13816887Y-22601677D01*
X13816887Y-22601677D02*
X13847125Y-22662153D01*
X13847125Y-22662153D02*
X13877363Y-22783105D01*
X13877363Y-22783105D02*
X13877363Y-22873820D01*
X13877363Y-22873820D02*
X13847125Y-22994772D01*
X13847125Y-22994772D02*
X13816887Y-23055248D01*
X13816887Y-23055248D02*
X13756411Y-23115725D01*
X13756411Y-23115725D02*
X13665696Y-23145963D01*
X13665696Y-23145963D02*
X13514506Y-23145963D01*
X1235636Y-20424534D02*
X1538017Y-20424534D01*
X1175160Y-20605963D02*
X1386826Y-19970963D01*
X1386826Y-19970963D02*
X1598493Y-20605963D01*
X2082303Y-19970963D02*
X1961350Y-19970963D01*
X1961350Y-19970963D02*
X1900874Y-20001201D01*
X1900874Y-20001201D02*
X1870636Y-20031439D01*
X1870636Y-20031439D02*
X1810160Y-20122153D01*
X1810160Y-20122153D02*
X1779922Y-20243105D01*
X1779922Y-20243105D02*
X1779922Y-20485010D01*
X1779922Y-20485010D02*
X1810160Y-20545486D01*
X1810160Y-20545486D02*
X1840398Y-20575725D01*
X1840398Y-20575725D02*
X1900874Y-20605963D01*
X1900874Y-20605963D02*
X2021827Y-20605963D01*
X2021827Y-20605963D02*
X2082303Y-20575725D01*
X2082303Y-20575725D02*
X2112541Y-20545486D01*
X2112541Y-20545486D02*
X2142779Y-20485010D01*
X2142779Y-20485010D02*
X2142779Y-20333820D01*
X2142779Y-20333820D02*
X2112541Y-20273344D01*
X2112541Y-20273344D02*
X2082303Y-20243105D01*
X2082303Y-20243105D02*
X2021827Y-20212867D01*
X2021827Y-20212867D02*
X1900874Y-20212867D01*
X1900874Y-20212867D02*
X1840398Y-20243105D01*
X1840398Y-20243105D02*
X1810160Y-20273344D01*
X1810160Y-20273344D02*
X1779922Y-20333820D01*
X13121410Y-40623582D02*
X13121410Y-40925963D01*
X12909744Y-40290963D02*
X13121410Y-40623582D01*
X13121410Y-40623582D02*
X13333077Y-40290963D01*
X13816887Y-40290963D02*
X13695934Y-40290963D01*
X13695934Y-40290963D02*
X13635458Y-40321201D01*
X13635458Y-40321201D02*
X13605220Y-40351439D01*
X13605220Y-40351439D02*
X13544744Y-40442153D01*
X13544744Y-40442153D02*
X13514506Y-40563105D01*
X13514506Y-40563105D02*
X13514506Y-40805010D01*
X13514506Y-40805010D02*
X13544744Y-40865486D01*
X13544744Y-40865486D02*
X13574982Y-40895725D01*
X13574982Y-40895725D02*
X13635458Y-40925963D01*
X13635458Y-40925963D02*
X13756411Y-40925963D01*
X13756411Y-40925963D02*
X13816887Y-40895725D01*
X13816887Y-40895725D02*
X13847125Y-40865486D01*
X13847125Y-40865486D02*
X13877363Y-40805010D01*
X13877363Y-40805010D02*
X13877363Y-40653820D01*
X13877363Y-40653820D02*
X13847125Y-40593344D01*
X13847125Y-40593344D02*
X13816887Y-40563105D01*
X13816887Y-40563105D02*
X13756411Y-40532867D01*
X13756411Y-40532867D02*
X13635458Y-40532867D01*
X13635458Y-40532867D02*
X13574982Y-40563105D01*
X13574982Y-40563105D02*
X13544744Y-40593344D01*
X13544744Y-40593344D02*
X13514506Y-40653820D01*
X1235636Y-15344534D02*
X1538017Y-15344534D01*
X1175160Y-15525963D02*
X1386826Y-14890963D01*
X1386826Y-14890963D02*
X1598493Y-15525963D01*
X1900874Y-15163105D02*
X1840398Y-15132867D01*
X1840398Y-15132867D02*
X1810160Y-15102629D01*
X1810160Y-15102629D02*
X1779922Y-15042153D01*
X1779922Y-15042153D02*
X1779922Y-15011915D01*
X1779922Y-15011915D02*
X1810160Y-14951439D01*
X1810160Y-14951439D02*
X1840398Y-14921201D01*
X1840398Y-14921201D02*
X1900874Y-14890963D01*
X1900874Y-14890963D02*
X2021827Y-14890963D01*
X2021827Y-14890963D02*
X2082303Y-14921201D01*
X2082303Y-14921201D02*
X2112541Y-14951439D01*
X2112541Y-14951439D02*
X2142779Y-15011915D01*
X2142779Y-15011915D02*
X2142779Y-15042153D01*
X2142779Y-15042153D02*
X2112541Y-15102629D01*
X2112541Y-15102629D02*
X2082303Y-15132867D01*
X2082303Y-15132867D02*
X2021827Y-15163105D01*
X2021827Y-15163105D02*
X1900874Y-15163105D01*
X1900874Y-15163105D02*
X1840398Y-15193344D01*
X1840398Y-15193344D02*
X1810160Y-15223582D01*
X1810160Y-15223582D02*
X1779922Y-15284058D01*
X1779922Y-15284058D02*
X1779922Y-15405010D01*
X1779922Y-15405010D02*
X1810160Y-15465486D01*
X1810160Y-15465486D02*
X1840398Y-15495725D01*
X1840398Y-15495725D02*
X1900874Y-15525963D01*
X1900874Y-15525963D02*
X2021827Y-15525963D01*
X2021827Y-15525963D02*
X2082303Y-15495725D01*
X2082303Y-15495725D02*
X2112541Y-15465486D01*
X2112541Y-15465486D02*
X2142779Y-15405010D01*
X2142779Y-15405010D02*
X2142779Y-15284058D01*
X2142779Y-15284058D02*
X2112541Y-15223582D01*
X2112541Y-15223582D02*
X2082303Y-15193344D01*
X2082303Y-15193344D02*
X2021827Y-15163105D01*
X1235636Y-10264534D02*
X1538017Y-10264534D01*
X1175160Y-10445963D02*
X1386826Y-9810963D01*
X1386826Y-9810963D02*
X1598493Y-10445963D01*
X2142779Y-10445963D02*
X1779922Y-10445963D01*
X1961350Y-10445963D02*
X1961350Y-9810963D01*
X1961350Y-9810963D02*
X1900874Y-9901677D01*
X1900874Y-9901677D02*
X1840398Y-9962153D01*
X1840398Y-9962153D02*
X1779922Y-9992391D01*
X2535874Y-9810963D02*
X2596351Y-9810963D01*
X2596351Y-9810963D02*
X2656827Y-9841201D01*
X2656827Y-9841201D02*
X2687065Y-9871439D01*
X2687065Y-9871439D02*
X2717303Y-9931915D01*
X2717303Y-9931915D02*
X2747541Y-10052867D01*
X2747541Y-10052867D02*
X2747541Y-10204058D01*
X2747541Y-10204058D02*
X2717303Y-10325010D01*
X2717303Y-10325010D02*
X2687065Y-10385486D01*
X2687065Y-10385486D02*
X2656827Y-10415725D01*
X2656827Y-10415725D02*
X2596351Y-10445963D01*
X2596351Y-10445963D02*
X2535874Y-10445963D01*
X2535874Y-10445963D02*
X2475398Y-10415725D01*
X2475398Y-10415725D02*
X2445160Y-10385486D01*
X2445160Y-10385486D02*
X2414922Y-10325010D01*
X2414922Y-10325010D02*
X2384684Y-10204058D01*
X2384684Y-10204058D02*
X2384684Y-10052867D01*
X2384684Y-10052867D02*
X2414922Y-9931915D01*
X2414922Y-9931915D02*
X2445160Y-9871439D01*
X2445160Y-9871439D02*
X2475398Y-9841201D01*
X2475398Y-9841201D02*
X2535874Y-9810963D01*
X1604541Y-63453344D02*
X1695255Y-63483582D01*
X1695255Y-63483582D02*
X1725493Y-63513820D01*
X1725493Y-63513820D02*
X1755731Y-63574296D01*
X1755731Y-63574296D02*
X1755731Y-63665010D01*
X1755731Y-63665010D02*
X1725493Y-63725486D01*
X1725493Y-63725486D02*
X1695255Y-63755725D01*
X1695255Y-63755725D02*
X1634779Y-63785963D01*
X1634779Y-63785963D02*
X1392874Y-63785963D01*
X1392874Y-63785963D02*
X1392874Y-63150963D01*
X1392874Y-63150963D02*
X1604541Y-63150963D01*
X1604541Y-63150963D02*
X1665017Y-63181201D01*
X1665017Y-63181201D02*
X1695255Y-63211439D01*
X1695255Y-63211439D02*
X1725493Y-63271915D01*
X1725493Y-63271915D02*
X1725493Y-63332391D01*
X1725493Y-63332391D02*
X1695255Y-63392867D01*
X1695255Y-63392867D02*
X1665017Y-63423105D01*
X1665017Y-63423105D02*
X1604541Y-63453344D01*
X1604541Y-63453344D02*
X1392874Y-63453344D01*
X2360493Y-63785963D02*
X1997636Y-63785963D01*
X2179064Y-63785963D02*
X2179064Y-63150963D01*
X2179064Y-63150963D02*
X2118588Y-63241677D01*
X2118588Y-63241677D02*
X2058112Y-63302153D01*
X2058112Y-63302153D02*
X1997636Y-63332391D01*
X2965255Y-63785963D02*
X2602398Y-63785963D01*
X2783826Y-63785963D02*
X2783826Y-63150963D01*
X2783826Y-63150963D02*
X2723350Y-63241677D01*
X2723350Y-63241677D02*
X2662874Y-63302153D01*
X2662874Y-63302153D02*
X2602398Y-63332391D01*
X13121410Y-48243582D02*
X13121410Y-48545963D01*
X12909744Y-47910963D02*
X13121410Y-48243582D01*
X13121410Y-48243582D02*
X13333077Y-47910963D01*
X13484268Y-47910963D02*
X13877363Y-47910963D01*
X13877363Y-47910963D02*
X13665696Y-48152867D01*
X13665696Y-48152867D02*
X13756411Y-48152867D01*
X13756411Y-48152867D02*
X13816887Y-48183105D01*
X13816887Y-48183105D02*
X13847125Y-48213344D01*
X13847125Y-48213344D02*
X13877363Y-48273820D01*
X13877363Y-48273820D02*
X13877363Y-48425010D01*
X13877363Y-48425010D02*
X13847125Y-48485486D01*
X13847125Y-48485486D02*
X13816887Y-48515725D01*
X13816887Y-48515725D02*
X13756411Y-48545963D01*
X13756411Y-48545963D02*
X13574982Y-48545963D01*
X13574982Y-48545963D02*
X13514506Y-48515725D01*
X13514506Y-48515725D02*
X13484268Y-48485486D01*
X13121410Y-53323582D02*
X13121410Y-53625963D01*
X12909744Y-52990963D02*
X13121410Y-53323582D01*
X13121410Y-53323582D02*
X13333077Y-52990963D01*
X13877363Y-53625963D02*
X13514506Y-53625963D01*
X13695934Y-53625963D02*
X13695934Y-52990963D01*
X13695934Y-52990963D02*
X13635458Y-53081677D01*
X13635458Y-53081677D02*
X13574982Y-53142153D01*
X13574982Y-53142153D02*
X13514506Y-53172391D01*
X13121411Y-68533344D02*
X13212125Y-68563582D01*
X13212125Y-68563582D02*
X13242363Y-68593820D01*
X13242363Y-68593820D02*
X13272601Y-68654296D01*
X13272601Y-68654296D02*
X13272601Y-68745010D01*
X13272601Y-68745010D02*
X13242363Y-68805486D01*
X13242363Y-68805486D02*
X13212125Y-68835725D01*
X13212125Y-68835725D02*
X13151649Y-68865963D01*
X13151649Y-68865963D02*
X12909744Y-68865963D01*
X12909744Y-68865963D02*
X12909744Y-68230963D01*
X12909744Y-68230963D02*
X13121411Y-68230963D01*
X13121411Y-68230963D02*
X13181887Y-68261201D01*
X13181887Y-68261201D02*
X13212125Y-68291439D01*
X13212125Y-68291439D02*
X13242363Y-68351915D01*
X13242363Y-68351915D02*
X13242363Y-68412391D01*
X13242363Y-68412391D02*
X13212125Y-68472867D01*
X13212125Y-68472867D02*
X13181887Y-68503105D01*
X13181887Y-68503105D02*
X13121411Y-68533344D01*
X13121411Y-68533344D02*
X12909744Y-68533344D01*
X13484268Y-68230963D02*
X13877363Y-68230963D01*
X13877363Y-68230963D02*
X13665696Y-68472867D01*
X13665696Y-68472867D02*
X13756411Y-68472867D01*
X13756411Y-68472867D02*
X13816887Y-68503105D01*
X13816887Y-68503105D02*
X13847125Y-68533344D01*
X13847125Y-68533344D02*
X13877363Y-68593820D01*
X13877363Y-68593820D02*
X13877363Y-68745010D01*
X13877363Y-68745010D02*
X13847125Y-68805486D01*
X13847125Y-68805486D02*
X13816887Y-68835725D01*
X13816887Y-68835725D02*
X13756411Y-68865963D01*
X13756411Y-68865963D02*
X13574982Y-68865963D01*
X13574982Y-68865963D02*
X13514506Y-68835725D01*
X13514506Y-68835725D02*
X13484268Y-68805486D01*
X12516648Y-30336582D02*
X12516648Y-30638963D01*
X12304982Y-30003963D02*
X12516648Y-30336582D01*
X12516648Y-30336582D02*
X12728315Y-30003963D01*
X13272601Y-30638963D02*
X12909744Y-30638963D01*
X13091172Y-30638963D02*
X13091172Y-30003963D01*
X13091172Y-30003963D02*
X13030696Y-30094677D01*
X13030696Y-30094677D02*
X12970220Y-30155153D01*
X12970220Y-30155153D02*
X12909744Y-30185391D01*
X13665696Y-30003963D02*
X13726173Y-30003963D01*
X13726173Y-30003963D02*
X13786649Y-30034201D01*
X13786649Y-30034201D02*
X13816887Y-30064439D01*
X13816887Y-30064439D02*
X13847125Y-30124915D01*
X13847125Y-30124915D02*
X13877363Y-30245867D01*
X13877363Y-30245867D02*
X13877363Y-30397058D01*
X13877363Y-30397058D02*
X13847125Y-30518010D01*
X13847125Y-30518010D02*
X13816887Y-30578486D01*
X13816887Y-30578486D02*
X13786649Y-30608725D01*
X13786649Y-30608725D02*
X13726173Y-30638963D01*
X13726173Y-30638963D02*
X13665696Y-30638963D01*
X13665696Y-30638963D02*
X13605220Y-30608725D01*
X13605220Y-30608725D02*
X13574982Y-30578486D01*
X13574982Y-30578486D02*
X13544744Y-30518010D01*
X13544744Y-30518010D02*
X13514506Y-30397058D01*
X13514506Y-30397058D02*
X13514506Y-30245867D01*
X13514506Y-30245867D02*
X13544744Y-30124915D01*
X13544744Y-30124915D02*
X13574982Y-30064439D01*
X13574982Y-30064439D02*
X13605220Y-30034201D01*
X13605220Y-30034201D02*
X13665696Y-30003963D01*
X1604541Y-68533344D02*
X1695255Y-68563582D01*
X1695255Y-68563582D02*
X1725493Y-68593820D01*
X1725493Y-68593820D02*
X1755731Y-68654296D01*
X1755731Y-68654296D02*
X1755731Y-68745010D01*
X1755731Y-68745010D02*
X1725493Y-68805486D01*
X1725493Y-68805486D02*
X1695255Y-68835725D01*
X1695255Y-68835725D02*
X1634779Y-68865963D01*
X1634779Y-68865963D02*
X1392874Y-68865963D01*
X1392874Y-68865963D02*
X1392874Y-68230963D01*
X1392874Y-68230963D02*
X1604541Y-68230963D01*
X1604541Y-68230963D02*
X1665017Y-68261201D01*
X1665017Y-68261201D02*
X1695255Y-68291439D01*
X1695255Y-68291439D02*
X1725493Y-68351915D01*
X1725493Y-68351915D02*
X1725493Y-68412391D01*
X1725493Y-68412391D02*
X1695255Y-68472867D01*
X1695255Y-68472867D02*
X1665017Y-68503105D01*
X1665017Y-68503105D02*
X1604541Y-68533344D01*
X1604541Y-68533344D02*
X1392874Y-68533344D01*
X2058112Y-68865963D02*
X2179064Y-68865963D01*
X2179064Y-68865963D02*
X2239541Y-68835725D01*
X2239541Y-68835725D02*
X2269779Y-68805486D01*
X2269779Y-68805486D02*
X2330255Y-68714772D01*
X2330255Y-68714772D02*
X2360493Y-68593820D01*
X2360493Y-68593820D02*
X2360493Y-68351915D01*
X2360493Y-68351915D02*
X2330255Y-68291439D01*
X2330255Y-68291439D02*
X2300017Y-68261201D01*
X2300017Y-68261201D02*
X2239541Y-68230963D01*
X2239541Y-68230963D02*
X2118588Y-68230963D01*
X2118588Y-68230963D02*
X2058112Y-68261201D01*
X2058112Y-68261201D02*
X2027874Y-68291439D01*
X2027874Y-68291439D02*
X1997636Y-68351915D01*
X1997636Y-68351915D02*
X1997636Y-68503105D01*
X1997636Y-68503105D02*
X2027874Y-68563582D01*
X2027874Y-68563582D02*
X2058112Y-68593820D01*
X2058112Y-68593820D02*
X2118588Y-68624058D01*
X2118588Y-68624058D02*
X2239541Y-68624058D01*
X2239541Y-68624058D02*
X2300017Y-68593820D01*
X2300017Y-68593820D02*
X2330255Y-68563582D01*
X2330255Y-68563582D02*
X2360493Y-68503105D01*
X12516648Y-15223582D02*
X12516648Y-15525963D01*
X12304982Y-14890963D02*
X12516648Y-15223582D01*
X12516648Y-15223582D02*
X12728315Y-14890963D01*
X13272601Y-15525963D02*
X12909744Y-15525963D01*
X13091172Y-15525963D02*
X13091172Y-14890963D01*
X13091172Y-14890963D02*
X13030696Y-14981677D01*
X13030696Y-14981677D02*
X12970220Y-15042153D01*
X12970220Y-15042153D02*
X12909744Y-15072391D01*
X13847125Y-14890963D02*
X13544744Y-14890963D01*
X13544744Y-14890963D02*
X13514506Y-15193344D01*
X13514506Y-15193344D02*
X13544744Y-15163105D01*
X13544744Y-15163105D02*
X13605220Y-15132867D01*
X13605220Y-15132867D02*
X13756411Y-15132867D01*
X13756411Y-15132867D02*
X13816887Y-15163105D01*
X13816887Y-15163105D02*
X13847125Y-15193344D01*
X13847125Y-15193344D02*
X13877363Y-15253820D01*
X13877363Y-15253820D02*
X13877363Y-15405010D01*
X13877363Y-15405010D02*
X13847125Y-15465486D01*
X13847125Y-15465486D02*
X13816887Y-15495725D01*
X13816887Y-15495725D02*
X13756411Y-15525963D01*
X13756411Y-15525963D02*
X13605220Y-15525963D01*
X13605220Y-15525963D02*
X13544744Y-15495725D01*
X13544744Y-15495725D02*
X13514506Y-15465486D01*
X1695255Y-4857963D02*
X1392874Y-4857963D01*
X1392874Y-4857963D02*
X1362636Y-5160344D01*
X1362636Y-5160344D02*
X1392874Y-5130105D01*
X1392874Y-5130105D02*
X1453350Y-5099867D01*
X1453350Y-5099867D02*
X1604541Y-5099867D01*
X1604541Y-5099867D02*
X1665017Y-5130105D01*
X1665017Y-5130105D02*
X1695255Y-5160344D01*
X1695255Y-5160344D02*
X1725493Y-5220820D01*
X1725493Y-5220820D02*
X1725493Y-5372010D01*
X1725493Y-5372010D02*
X1695255Y-5432486D01*
X1695255Y-5432486D02*
X1665017Y-5462725D01*
X1665017Y-5462725D02*
X1604541Y-5492963D01*
X1604541Y-5492963D02*
X1453350Y-5492963D01*
X1453350Y-5492963D02*
X1392874Y-5462725D01*
X1392874Y-5462725D02*
X1362636Y-5432486D01*
X1906922Y-4857963D02*
X2118588Y-5492963D01*
X2118588Y-5492963D02*
X2330255Y-4857963D01*
X12516648Y-10143582D02*
X12516648Y-10445963D01*
X12304982Y-9810963D02*
X12516648Y-10143582D01*
X12516648Y-10143582D02*
X12728315Y-9810963D01*
X13272601Y-10445963D02*
X12909744Y-10445963D01*
X13091172Y-10445963D02*
X13091172Y-9810963D01*
X13091172Y-9810963D02*
X13030696Y-9901677D01*
X13030696Y-9901677D02*
X12970220Y-9962153D01*
X12970220Y-9962153D02*
X12909744Y-9992391D01*
X13484268Y-9810963D02*
X13907601Y-9810963D01*
X13907601Y-9810963D02*
X13635458Y-10445963D01*
X1235636Y-40895725D02*
X1326350Y-40925963D01*
X1326350Y-40925963D02*
X1477541Y-40925963D01*
X1477541Y-40925963D02*
X1538017Y-40895725D01*
X1538017Y-40895725D02*
X1568255Y-40865486D01*
X1568255Y-40865486D02*
X1598493Y-40805010D01*
X1598493Y-40805010D02*
X1598493Y-40744534D01*
X1598493Y-40744534D02*
X1568255Y-40684058D01*
X1568255Y-40684058D02*
X1538017Y-40653820D01*
X1538017Y-40653820D02*
X1477541Y-40623582D01*
X1477541Y-40623582D02*
X1356588Y-40593344D01*
X1356588Y-40593344D02*
X1296112Y-40563105D01*
X1296112Y-40563105D02*
X1265874Y-40532867D01*
X1265874Y-40532867D02*
X1235636Y-40472391D01*
X1235636Y-40472391D02*
X1235636Y-40411915D01*
X1235636Y-40411915D02*
X1265874Y-40351439D01*
X1265874Y-40351439D02*
X1296112Y-40321201D01*
X1296112Y-40321201D02*
X1356588Y-40290963D01*
X1356588Y-40290963D02*
X1507779Y-40290963D01*
X1507779Y-40290963D02*
X1598493Y-40321201D01*
D11*
G36*
X6473525Y-62925594D02*
G01*
X6498195Y-62950264D01*
X6527999Y-63009872D01*
X6527999Y-63153136D01*
X6498195Y-63212743D01*
X6473524Y-63237414D01*
X6413917Y-63267219D01*
X6270653Y-63267219D01*
X6211046Y-63237415D01*
X6186375Y-63212743D01*
X6156571Y-63153135D01*
X6156571Y-63009872D01*
X6186375Y-62950263D01*
X6211045Y-62925593D01*
X6270653Y-62895790D01*
X6413917Y-62895790D01*
X6473525Y-62925594D01*
G37*
G36*
X6473525Y-62497023D02*
G01*
X6498195Y-62521693D01*
X6527999Y-62581301D01*
X6527999Y-62581708D01*
X6498195Y-62641315D01*
X6473525Y-62665985D01*
X6413917Y-62695790D01*
X6270653Y-62695790D01*
X6211045Y-62665986D01*
X6186375Y-62641316D01*
X6156571Y-62581707D01*
X6156571Y-62581301D01*
X6186375Y-62521692D01*
X6211045Y-62497023D01*
X6270653Y-62467219D01*
X6413917Y-62467219D01*
X6473525Y-62497023D01*
G37*
G36*
X7378287Y-62830356D02*
G01*
X7402957Y-62855026D01*
X7432761Y-62914634D01*
X7432761Y-63153136D01*
X7402957Y-63212743D01*
X7378286Y-63237414D01*
X7318679Y-63267219D01*
X7175415Y-63267219D01*
X7156571Y-63257797D01*
X7156571Y-62809973D01*
X7175415Y-62800552D01*
X7318679Y-62800552D01*
X7378287Y-62830356D01*
G37*
G36*
X10949716Y-62497023D02*
G01*
X10974386Y-62521693D01*
X11009837Y-62592596D01*
X11051809Y-62760482D01*
X11051809Y-62973954D01*
X11009837Y-63141842D01*
X10974386Y-63212743D01*
X10949715Y-63237414D01*
X10890108Y-63267219D01*
X10842082Y-63267219D01*
X10782475Y-63237415D01*
X10757804Y-63212743D01*
X10722352Y-63141840D01*
X10680381Y-62973955D01*
X10680381Y-62760482D01*
X10722352Y-62592595D01*
X10757804Y-62521692D01*
X10782473Y-62497023D01*
X10842082Y-62467219D01*
X10890108Y-62467219D01*
X10949716Y-62497023D01*
G37*
G36*
X6553463Y-61212706D02*
G01*
X6570914Y-61247607D01*
X6299428Y-61301904D01*
X6299428Y-61257015D01*
X6321582Y-61212706D01*
X6365891Y-61190552D01*
X6509155Y-61190552D01*
X6553463Y-61212706D01*
G37*
G36*
X7934416Y-61212706D02*
G01*
X7951867Y-61247607D01*
X7680380Y-61301904D01*
X7680381Y-61257015D01*
X7702535Y-61212706D01*
X7746844Y-61190552D01*
X7890108Y-61190552D01*
X7934416Y-61212706D01*
G37*
G36*
X10235431Y-61220356D02*
G01*
X10260101Y-61245025D01*
X10289905Y-61304633D01*
X10289905Y-61543136D01*
X10260101Y-61602743D01*
X10235430Y-61627414D01*
X10175823Y-61657219D01*
X10080178Y-61657219D01*
X10020571Y-61627415D01*
X9995900Y-61602743D01*
X9966096Y-61543135D01*
X9966096Y-61304634D01*
X9995900Y-61245025D01*
X10020570Y-61220355D01*
X10080178Y-61190552D01*
X10175823Y-61190552D01*
X10235431Y-61220356D01*
G37*
G36*
X11935143Y-63942857D02*
G01*
X4320857Y-63942857D01*
X4320857Y-62656606D01*
X5000033Y-62656606D01*
X5018553Y-62712334D01*
X5064262Y-62749204D01*
X5122648Y-62755507D01*
X5232933Y-62700364D01*
X5249376Y-62696787D01*
X5268855Y-62677307D01*
X5289036Y-62658536D01*
X5289520Y-62656642D01*
X5289904Y-62656258D01*
X5289904Y-63267219D01*
X5089811Y-63267219D01*
X5047843Y-63279542D01*
X5009386Y-63323924D01*
X5001029Y-63382051D01*
X5025424Y-63435470D01*
X5074827Y-63467219D01*
X5382750Y-63467219D01*
X5404736Y-63470380D01*
X5411658Y-63467219D01*
X5689997Y-63467219D01*
X5731965Y-63454896D01*
X5770422Y-63410514D01*
X5778779Y-63352387D01*
X5754384Y-63298968D01*
X5704981Y-63267219D01*
X5489904Y-63267219D01*
X5489904Y-62997454D01*
X5952951Y-62997454D01*
X5956571Y-63006182D01*
X5956571Y-63171356D01*
X5953997Y-63195200D01*
X5963135Y-63213476D01*
X5968894Y-63233089D01*
X5976035Y-63239277D01*
X6009139Y-63305484D01*
X6012716Y-63321927D01*
X6032199Y-63341410D01*
X6050968Y-63361588D01*
X6052860Y-63362071D01*
X6072232Y-63381444D01*
X6080825Y-63395911D01*
X6105463Y-63408230D01*
X6129654Y-63421440D01*
X6131603Y-63421300D01*
X6197508Y-63454253D01*
X6217684Y-63467219D01*
X6238119Y-63467219D01*
X6258235Y-63470839D01*
X6266963Y-63467219D01*
X6432138Y-63467219D01*
X6455981Y-63469793D01*
X6474257Y-63460654D01*
X6493870Y-63454896D01*
X6500058Y-63447754D01*
X6566266Y-63414650D01*
X6582710Y-63411073D01*
X6602195Y-63391587D01*
X6622369Y-63372822D01*
X6622853Y-63370928D01*
X6642226Y-63351555D01*
X6656691Y-63342964D01*
X6669008Y-63318329D01*
X6682220Y-63294133D01*
X6682080Y-63292185D01*
X6715033Y-63226280D01*
X6727999Y-63206105D01*
X6727999Y-63185669D01*
X6731619Y-63165554D01*
X6727999Y-63156825D01*
X6727999Y-62991650D01*
X6730573Y-62967807D01*
X6721434Y-62949529D01*
X6715676Y-62929919D01*
X6708534Y-62923731D01*
X6675429Y-62857520D01*
X6671853Y-62841080D01*
X6652378Y-62821605D01*
X6633602Y-62801419D01*
X6631707Y-62800934D01*
X6626563Y-62795790D01*
X6642224Y-62780128D01*
X6656691Y-62771536D01*
X6666537Y-62751844D01*
X6952414Y-62751844D01*
X6956571Y-62764352D01*
X6956571Y-63317833D01*
X6955598Y-63345420D01*
X6956571Y-63347058D01*
X6956571Y-63381598D01*
X6968894Y-63423566D01*
X7013276Y-63462023D01*
X7071403Y-63470380D01*
X7104117Y-63455440D01*
X7122446Y-63467219D01*
X7142881Y-63467219D01*
X7162997Y-63470839D01*
X7171725Y-63467219D01*
X7336900Y-63467219D01*
X7360743Y-63469793D01*
X7379019Y-63460654D01*
X7398632Y-63454896D01*
X7404820Y-63447754D01*
X7471028Y-63414650D01*
X7487472Y-63411073D01*
X7506957Y-63391587D01*
X7517696Y-63381598D01*
X7861333Y-63381598D01*
X7873656Y-63423566D01*
X7918038Y-63462023D01*
X7976165Y-63470380D01*
X8029584Y-63445985D01*
X8061333Y-63396582D01*
X8061333Y-62715384D01*
X8191505Y-62715384D01*
X8215900Y-62768803D01*
X8265303Y-62800552D01*
X8337523Y-62800552D01*
X8337523Y-63218975D01*
X8334949Y-63242819D01*
X8344087Y-63261096D01*
X8349846Y-63280708D01*
X8356986Y-63286895D01*
X8384306Y-63341535D01*
X8384169Y-63345420D01*
X8397313Y-63367550D01*
X8402129Y-63377182D01*
X8404632Y-63379873D01*
X8414158Y-63395911D01*
X8424240Y-63400952D01*
X8431920Y-63409208D01*
X8449996Y-63413830D01*
X8530841Y-63454253D01*
X8551017Y-63467219D01*
X8571452Y-63467219D01*
X8591568Y-63470839D01*
X8600296Y-63467219D01*
X8689997Y-63467219D01*
X8731965Y-63454896D01*
X8770422Y-63410514D01*
X8778779Y-63352387D01*
X8754384Y-63298968D01*
X8704981Y-63267219D01*
X8603986Y-63267219D01*
X8559677Y-63245064D01*
X8537523Y-63200755D01*
X8537523Y-62800552D01*
X8689997Y-62800552D01*
X8731965Y-62788229D01*
X8770422Y-62743847D01*
X8778779Y-62685720D01*
X8754384Y-62632301D01*
X8704981Y-62600552D01*
X8537523Y-62600552D01*
X8537523Y-62370986D01*
X9523846Y-62370986D01*
X9860744Y-63381679D01*
X9860337Y-63392949D01*
X9869852Y-63409002D01*
X9871012Y-63412482D01*
X9877146Y-63421309D01*
X9890280Y-63443467D01*
X9893756Y-63445209D01*
X9895974Y-63448400D01*
X9919765Y-63458242D01*
X9942782Y-63469776D01*
X9946645Y-63469362D01*
X9950239Y-63470849D01*
X9975569Y-63466266D01*
X10001174Y-63463526D01*
X10004204Y-63461086D01*
X10008026Y-63460395D01*
X10026852Y-63442851D01*
X10046916Y-63426698D01*
X10048145Y-63423009D01*
X10050989Y-63420360D01*
X10057345Y-63395409D01*
X10195137Y-62982033D01*
X10476245Y-62982033D01*
X10480381Y-62998577D01*
X10480381Y-63000645D01*
X10483860Y-63012495D01*
X10526665Y-63183715D01*
X10525426Y-63195200D01*
X10533647Y-63211643D01*
X10534473Y-63214945D01*
X10540058Y-63224465D01*
X10580568Y-63305484D01*
X10584145Y-63321927D01*
X10603628Y-63341410D01*
X10622397Y-63361588D01*
X10624289Y-63362071D01*
X10643661Y-63381444D01*
X10652254Y-63395911D01*
X10676892Y-63408230D01*
X10701083Y-63421440D01*
X10703032Y-63421300D01*
X10768937Y-63454253D01*
X10789113Y-63467219D01*
X10809548Y-63467219D01*
X10829664Y-63470839D01*
X10838392Y-63467219D01*
X10908329Y-63467219D01*
X10932172Y-63469793D01*
X10950448Y-63460654D01*
X10970061Y-63454896D01*
X10976249Y-63447754D01*
X11042457Y-63414650D01*
X11058901Y-63411073D01*
X11078386Y-63391587D01*
X11098560Y-63372822D01*
X11099044Y-63370928D01*
X11118417Y-63351555D01*
X11132882Y-63342964D01*
X11145199Y-63318329D01*
X11158411Y-63294133D01*
X11158271Y-63292185D01*
X11185666Y-63237395D01*
X11194083Y-63229482D01*
X11198542Y-63211643D01*
X11200063Y-63208603D01*
X11202016Y-63197748D01*
X11244832Y-63026485D01*
X11251809Y-63015629D01*
X11251809Y-62998577D01*
X11252311Y-62996570D01*
X11251809Y-62984223D01*
X11251809Y-62764629D01*
X11255945Y-62752404D01*
X11251809Y-62735860D01*
X11251809Y-62733792D01*
X11248329Y-62721941D01*
X11205524Y-62550720D01*
X11206764Y-62539236D01*
X11198542Y-62522792D01*
X11197717Y-62519492D01*
X11192133Y-62509975D01*
X11151620Y-62428949D01*
X11148044Y-62412509D01*
X11128569Y-62393034D01*
X11109793Y-62372848D01*
X11107898Y-62372363D01*
X11088528Y-62352993D01*
X11079936Y-62338527D01*
X11055301Y-62326209D01*
X11031106Y-62312998D01*
X11029156Y-62313137D01*
X10963255Y-62280186D01*
X10943077Y-62267219D01*
X10922641Y-62267219D01*
X10902526Y-62263599D01*
X10893798Y-62267219D01*
X10823860Y-62267219D01*
X10800017Y-62264645D01*
X10781739Y-62273783D01*
X10762129Y-62279542D01*
X10755941Y-62286683D01*
X10689730Y-62319788D01*
X10673290Y-62323365D01*
X10653815Y-62342839D01*
X10633629Y-62361616D01*
X10633144Y-62363510D01*
X10613774Y-62382880D01*
X10599308Y-62391473D01*
X10586990Y-62416107D01*
X10573779Y-62440303D01*
X10573918Y-62442252D01*
X10546524Y-62497040D01*
X10538107Y-62504955D01*
X10533646Y-62522795D01*
X10532127Y-62525835D01*
X10530174Y-62536686D01*
X10487357Y-62707951D01*
X10480381Y-62718808D01*
X10480381Y-62735859D01*
X10479879Y-62737867D01*
X10480381Y-62750213D01*
X10480381Y-62969807D01*
X10476245Y-62982033D01*
X10195137Y-62982033D01*
X10394081Y-62385201D01*
X10395662Y-62341490D01*
X10365719Y-62290972D01*
X10313217Y-62264662D01*
X10254825Y-62270913D01*
X10209083Y-62307740D01*
X9961333Y-63050990D01*
X9718321Y-62321955D01*
X9693359Y-62286038D01*
X9639094Y-62263589D01*
X9581307Y-62274042D01*
X9538343Y-62314078D01*
X9523846Y-62370986D01*
X8537523Y-62370986D01*
X8537523Y-62352840D01*
X8525200Y-62310872D01*
X8480818Y-62272415D01*
X8422691Y-62264058D01*
X8369272Y-62288453D01*
X8337523Y-62337856D01*
X8337523Y-62600552D01*
X8280287Y-62600552D01*
X8238319Y-62612875D01*
X8199862Y-62657257D01*
X8191505Y-62715384D01*
X8061333Y-62715384D01*
X8061333Y-62686173D01*
X8049010Y-62644205D01*
X8004628Y-62605748D01*
X7946501Y-62597391D01*
X7893082Y-62621786D01*
X7861333Y-62671189D01*
X7861333Y-63381598D01*
X7517696Y-63381598D01*
X7527131Y-63372822D01*
X7527615Y-63370928D01*
X7546988Y-63351555D01*
X7561453Y-63342964D01*
X7573770Y-63318329D01*
X7586982Y-63294133D01*
X7586842Y-63292185D01*
X7619795Y-63226280D01*
X7632761Y-63206105D01*
X7632761Y-63185669D01*
X7636381Y-63165554D01*
X7632761Y-63156825D01*
X7632760Y-62896412D01*
X7635335Y-62872569D01*
X7626196Y-62854291D01*
X7620438Y-62834681D01*
X7613296Y-62828493D01*
X7580191Y-62762282D01*
X7576615Y-62745842D01*
X7557140Y-62726367D01*
X7538364Y-62706181D01*
X7536469Y-62705696D01*
X7517099Y-62686326D01*
X7508507Y-62671860D01*
X7483872Y-62659542D01*
X7459677Y-62646331D01*
X7457727Y-62646470D01*
X7391826Y-62613519D01*
X7371648Y-62600552D01*
X7351212Y-62600552D01*
X7331097Y-62596932D01*
X7322369Y-62600552D01*
X7157193Y-62600552D01*
X7156571Y-62600484D01*
X7156571Y-62407403D01*
X7809757Y-62407403D01*
X7814478Y-62429106D01*
X7816063Y-62451260D01*
X7820623Y-62457352D01*
X7822241Y-62464786D01*
X7837942Y-62480487D01*
X7851256Y-62498272D01*
X7858386Y-62500931D01*
X7872573Y-62515118D01*
X7873656Y-62518804D01*
X7887721Y-62530991D01*
X7898875Y-62545891D01*
X7909482Y-62549847D01*
X7918038Y-62557261D01*
X7929244Y-62558872D01*
X7939179Y-62564297D01*
X7946767Y-62563754D01*
X7953898Y-62566414D01*
X7964960Y-62564007D01*
X7976165Y-62565618D01*
X7986464Y-62560914D01*
X7997755Y-62560107D01*
X8003845Y-62555547D01*
X8011281Y-62553930D01*
X8019284Y-62545926D01*
X8029584Y-62541223D01*
X8035705Y-62531697D01*
X8044766Y-62524915D01*
X8047425Y-62517785D01*
X8074605Y-62490605D01*
X8092385Y-62477296D01*
X8100145Y-62456489D01*
X8110792Y-62436992D01*
X8110249Y-62429401D01*
X8112908Y-62422273D01*
X8108186Y-62400569D01*
X8106602Y-62378416D01*
X8102042Y-62372325D01*
X8100425Y-62364890D01*
X8084719Y-62349184D01*
X8071410Y-62331405D01*
X8064280Y-62328745D01*
X8050092Y-62314557D01*
X8049010Y-62310872D01*
X8034942Y-62298682D01*
X8023791Y-62283786D01*
X8013185Y-62279830D01*
X8004628Y-62272415D01*
X7993421Y-62270803D01*
X7983487Y-62265379D01*
X7975896Y-62265921D01*
X7968768Y-62263263D01*
X7957707Y-62265669D01*
X7946501Y-62264058D01*
X7936203Y-62268760D01*
X7924911Y-62269568D01*
X7918818Y-62274128D01*
X7911385Y-62275746D01*
X7903381Y-62283749D01*
X7893082Y-62288453D01*
X7886961Y-62297976D01*
X7877899Y-62304761D01*
X7875239Y-62311891D01*
X7848064Y-62339066D01*
X7830280Y-62352380D01*
X7822517Y-62373192D01*
X7811874Y-62392684D01*
X7812416Y-62400272D01*
X7809757Y-62407403D01*
X7156571Y-62407403D01*
X7156571Y-62352840D01*
X7144248Y-62310872D01*
X7099866Y-62272415D01*
X7041739Y-62264058D01*
X6988320Y-62288453D01*
X6956571Y-62337856D01*
X6956571Y-62735586D01*
X6952414Y-62751844D01*
X6666537Y-62751844D01*
X6669009Y-62746899D01*
X6682220Y-62722706D01*
X6682080Y-62720757D01*
X6715033Y-62654852D01*
X6727999Y-62634677D01*
X6727999Y-62614241D01*
X6731619Y-62594126D01*
X6727999Y-62585397D01*
X6727999Y-62563079D01*
X6730573Y-62539236D01*
X6721434Y-62520958D01*
X6715676Y-62501348D01*
X6708534Y-62495160D01*
X6675429Y-62428949D01*
X6671853Y-62412509D01*
X6652378Y-62393034D01*
X6633602Y-62372848D01*
X6631707Y-62372363D01*
X6612337Y-62352993D01*
X6603745Y-62338527D01*
X6579110Y-62326209D01*
X6554915Y-62312998D01*
X6552965Y-62313137D01*
X6487064Y-62280186D01*
X6466886Y-62267219D01*
X6446450Y-62267219D01*
X6426335Y-62263599D01*
X6417607Y-62267219D01*
X6252431Y-62267219D01*
X6228588Y-62264645D01*
X6210310Y-62273783D01*
X6190700Y-62279542D01*
X6184512Y-62286683D01*
X6118301Y-62319788D01*
X6101861Y-62323365D01*
X6082386Y-62342839D01*
X6062200Y-62361616D01*
X6061715Y-62363510D01*
X6042345Y-62382880D01*
X6027879Y-62391473D01*
X6015561Y-62416107D01*
X6002350Y-62440303D01*
X6002489Y-62442252D01*
X5969538Y-62508153D01*
X5956571Y-62528332D01*
X5956571Y-62548767D01*
X5952951Y-62568883D01*
X5956571Y-62577611D01*
X5956571Y-62599928D01*
X5953997Y-62623772D01*
X5963135Y-62642048D01*
X5968894Y-62661661D01*
X5976035Y-62667849D01*
X6009139Y-62734057D01*
X6012717Y-62750500D01*
X6032196Y-62769979D01*
X6050968Y-62790160D01*
X6052861Y-62790644D01*
X6058006Y-62795790D01*
X6042345Y-62811451D01*
X6027879Y-62820044D01*
X6015561Y-62844678D01*
X6002350Y-62868874D01*
X6002489Y-62870823D01*
X5969538Y-62936724D01*
X5956571Y-62956903D01*
X5956571Y-62977338D01*
X5952951Y-62997454D01*
X5489904Y-62997454D01*
X5489904Y-62382457D01*
X5494112Y-62368970D01*
X5489904Y-62353694D01*
X5489904Y-62352840D01*
X5486100Y-62339888D01*
X5478516Y-62312353D01*
X5477837Y-62311744D01*
X5477581Y-62310872D01*
X5456051Y-62292216D01*
X5434787Y-62273156D01*
X5433886Y-62273011D01*
X5433199Y-62272415D01*
X5404975Y-62268357D01*
X5376807Y-62263823D01*
X5375972Y-62264187D01*
X5375072Y-62264058D01*
X5349139Y-62275900D01*
X5322987Y-62287317D01*
X5322482Y-62288074D01*
X5321653Y-62288453D01*
X5306220Y-62312467D01*
X5216954Y-62446365D01*
X5140192Y-62523128D01*
X5046608Y-62569921D01*
X5014581Y-62599711D01*
X5000033Y-62656606D01*
X4320857Y-62656606D01*
X4320857Y-60958883D01*
X5143427Y-60958883D01*
X5147047Y-60967611D01*
X5147047Y-61037547D01*
X5144473Y-61061391D01*
X5153611Y-61079667D01*
X5159370Y-61099280D01*
X5166511Y-61105468D01*
X5199615Y-61171676D01*
X5203193Y-61188119D01*
X5222672Y-61207598D01*
X5241444Y-61227779D01*
X5243337Y-61228263D01*
X5262708Y-61247634D01*
X5271301Y-61262101D01*
X5295937Y-61274419D01*
X5320131Y-61287630D01*
X5322079Y-61287490D01*
X5376869Y-61314885D01*
X5384783Y-61323302D01*
X5402621Y-61327761D01*
X5405662Y-61329282D01*
X5416516Y-61331235D01*
X5593098Y-61375380D01*
X5664001Y-61410832D01*
X5688671Y-61435502D01*
X5718475Y-61495110D01*
X5718475Y-61543136D01*
X5688671Y-61602743D01*
X5664000Y-61627414D01*
X5604393Y-61657219D01*
X5406131Y-61657219D01*
X5265029Y-61610185D01*
X5221317Y-61608604D01*
X5170799Y-61638547D01*
X5144490Y-61691048D01*
X5150740Y-61749441D01*
X5187568Y-61795183D01*
X5346385Y-61848121D01*
X5360541Y-61857219D01*
X5388096Y-61857219D01*
X5415633Y-61858215D01*
X5417313Y-61857219D01*
X5622614Y-61857219D01*
X5646457Y-61859793D01*
X5664733Y-61850654D01*
X5684346Y-61844896D01*
X5690534Y-61837754D01*
X5756742Y-61804650D01*
X5773186Y-61801073D01*
X5792671Y-61781587D01*
X5812845Y-61762822D01*
X5813329Y-61760928D01*
X5832702Y-61741555D01*
X5847167Y-61732964D01*
X5859484Y-61708329D01*
X5872696Y-61684133D01*
X5872556Y-61682185D01*
X5905509Y-61616280D01*
X5918475Y-61596105D01*
X5918475Y-61575669D01*
X5922095Y-61555554D01*
X5918474Y-61546825D01*
X5918475Y-61476888D01*
X5921049Y-61453045D01*
X5911910Y-61434767D01*
X5906152Y-61415157D01*
X5899010Y-61408969D01*
X5865905Y-61342758D01*
X5862329Y-61326318D01*
X5842854Y-61306843D01*
X5824078Y-61286657D01*
X5822183Y-61286172D01*
X5802813Y-61266802D01*
X5794221Y-61252336D01*
X5778744Y-61244597D01*
X6095808Y-61244597D01*
X6099428Y-61253325D01*
X6099428Y-61397463D01*
X6097974Y-61400023D01*
X6099428Y-61426625D01*
X6099428Y-61608975D01*
X6096854Y-61632819D01*
X6105992Y-61651096D01*
X6111751Y-61670708D01*
X6118891Y-61676895D01*
X6146211Y-61731535D01*
X6146074Y-61735420D01*
X6159218Y-61757550D01*
X6164034Y-61767182D01*
X6166537Y-61769873D01*
X6176063Y-61785911D01*
X6186145Y-61790952D01*
X6193825Y-61799208D01*
X6211901Y-61803830D01*
X6292746Y-61844253D01*
X6312922Y-61857219D01*
X6333357Y-61857219D01*
X6353473Y-61860839D01*
X6362201Y-61857219D01*
X6527376Y-61857219D01*
X6551219Y-61859793D01*
X6569495Y-61850654D01*
X6589108Y-61844896D01*
X6595296Y-61837754D01*
X6685581Y-61792612D01*
X6717607Y-61762822D01*
X6732156Y-61705927D01*
X6713636Y-61650199D01*
X6692089Y-61632819D01*
X7001616Y-61632819D01*
X7010754Y-61651096D01*
X7016513Y-61670708D01*
X7023653Y-61676895D01*
X7050973Y-61731535D01*
X7050836Y-61735420D01*
X7063980Y-61757550D01*
X7068796Y-61767182D01*
X7071299Y-61769873D01*
X7080825Y-61785911D01*
X7090907Y-61790952D01*
X7098587Y-61799208D01*
X7116663Y-61803830D01*
X7215186Y-61853092D01*
X7258235Y-61860839D01*
X7312480Y-61838341D01*
X7345950Y-61790088D01*
X7348020Y-61731399D01*
X7318031Y-61680908D01*
X7226344Y-61635064D01*
X7204190Y-61590755D01*
X7204190Y-61244597D01*
X7476761Y-61244597D01*
X7480381Y-61253325D01*
X7480381Y-61397463D01*
X7478927Y-61400023D01*
X7480381Y-61426625D01*
X7480381Y-61608975D01*
X7477807Y-61632819D01*
X7486945Y-61651096D01*
X7492704Y-61670708D01*
X7499844Y-61676895D01*
X7527164Y-61731535D01*
X7527027Y-61735420D01*
X7540171Y-61757550D01*
X7544987Y-61767182D01*
X7547490Y-61769873D01*
X7557016Y-61785911D01*
X7567098Y-61790952D01*
X7574778Y-61799208D01*
X7592854Y-61803830D01*
X7673699Y-61844253D01*
X7693875Y-61857219D01*
X7714310Y-61857219D01*
X7734426Y-61860839D01*
X7743154Y-61857219D01*
X7908329Y-61857219D01*
X7932172Y-61859793D01*
X7950448Y-61850654D01*
X7970061Y-61844896D01*
X7976249Y-61837754D01*
X8066534Y-61792612D01*
X8098560Y-61762822D01*
X8113109Y-61705927D01*
X8094589Y-61650199D01*
X8048879Y-61613329D01*
X7990493Y-61607026D01*
X7890108Y-61657219D01*
X7746844Y-61657219D01*
X7702535Y-61635064D01*
X7680381Y-61590755D01*
X7680380Y-61505865D01*
X8059339Y-61430073D01*
X8071403Y-61431808D01*
X8087560Y-61424429D01*
X8090282Y-61423885D01*
X8100592Y-61418477D01*
X8124822Y-61407413D01*
X8126413Y-61404937D01*
X8129018Y-61403571D01*
X8142168Y-61380421D01*
X8156571Y-61358010D01*
X8156571Y-61355066D01*
X8158024Y-61352509D01*
X8156571Y-61325925D01*
X8156571Y-61292216D01*
X8333904Y-61292216D01*
X8337524Y-61300944D01*
X8337524Y-61561356D01*
X8334950Y-61585200D01*
X8344088Y-61603476D01*
X8349847Y-61623089D01*
X8356988Y-61629277D01*
X8390092Y-61695484D01*
X8393669Y-61711927D01*
X8413152Y-61731410D01*
X8431921Y-61751588D01*
X8433813Y-61752071D01*
X8453185Y-61771444D01*
X8461778Y-61785911D01*
X8486416Y-61798230D01*
X8510607Y-61811440D01*
X8512556Y-61811300D01*
X8578461Y-61844253D01*
X8598637Y-61857219D01*
X8619072Y-61857219D01*
X8639188Y-61860839D01*
X8647916Y-61857219D01*
X8813091Y-61857219D01*
X8836934Y-61859793D01*
X8855210Y-61850654D01*
X8874823Y-61844896D01*
X8881011Y-61837754D01*
X8971296Y-61792612D01*
X9003322Y-61762822D01*
X9017871Y-61705927D01*
X8999351Y-61650199D01*
X8953641Y-61613329D01*
X8895255Y-61607026D01*
X8794870Y-61657219D01*
X8651606Y-61657219D01*
X8591999Y-61627415D01*
X8567328Y-61602743D01*
X8537524Y-61543135D01*
X8537524Y-61304634D01*
X8567328Y-61245025D01*
X8591998Y-61220355D01*
X8651606Y-61190552D01*
X8794870Y-61190552D01*
X8881853Y-61234044D01*
X8924902Y-61241791D01*
X8979147Y-61219293D01*
X9012617Y-61171040D01*
X9014687Y-61112351D01*
X9010549Y-61105384D01*
X9096268Y-61105384D01*
X9120663Y-61158803D01*
X9170066Y-61190552D01*
X9242286Y-61190552D01*
X9242286Y-61608975D01*
X9239712Y-61632819D01*
X9248850Y-61651096D01*
X9254609Y-61670708D01*
X9261749Y-61676895D01*
X9289069Y-61731535D01*
X9288932Y-61735420D01*
X9302076Y-61757550D01*
X9306892Y-61767182D01*
X9309395Y-61769873D01*
X9318921Y-61785911D01*
X9329003Y-61790952D01*
X9336683Y-61799208D01*
X9354759Y-61803830D01*
X9435604Y-61844253D01*
X9455780Y-61857219D01*
X9476215Y-61857219D01*
X9496331Y-61860839D01*
X9505059Y-61857219D01*
X9594760Y-61857219D01*
X9636728Y-61844896D01*
X9675185Y-61800514D01*
X9683542Y-61742387D01*
X9659147Y-61688968D01*
X9609744Y-61657219D01*
X9508749Y-61657219D01*
X9464440Y-61635064D01*
X9442286Y-61590755D01*
X9442286Y-61292216D01*
X9762476Y-61292216D01*
X9766096Y-61300944D01*
X9766096Y-61561356D01*
X9763522Y-61585200D01*
X9772660Y-61603476D01*
X9778419Y-61623089D01*
X9785560Y-61629277D01*
X9818664Y-61695484D01*
X9822241Y-61711927D01*
X9841724Y-61731410D01*
X9860493Y-61751588D01*
X9862385Y-61752071D01*
X9881757Y-61771444D01*
X9890350Y-61785911D01*
X9914988Y-61798230D01*
X9939179Y-61811440D01*
X9941128Y-61811300D01*
X10007033Y-61844253D01*
X10027209Y-61857219D01*
X10047644Y-61857219D01*
X10067760Y-61860839D01*
X10076488Y-61857219D01*
X10194044Y-61857219D01*
X10217887Y-61859793D01*
X10236163Y-61850654D01*
X10255776Y-61844896D01*
X10261964Y-61837754D01*
X10328172Y-61804650D01*
X10344616Y-61801073D01*
X10364101Y-61781587D01*
X10384275Y-61762822D01*
X10384759Y-61760928D01*
X10404132Y-61741555D01*
X10418597Y-61732964D01*
X10430914Y-61708329D01*
X10444126Y-61684133D01*
X10443986Y-61682185D01*
X10476939Y-61616280D01*
X10489905Y-61596105D01*
X10489905Y-61575669D01*
X10493525Y-61555554D01*
X10489905Y-61546825D01*
X10489904Y-61292216D01*
X10714857Y-61292216D01*
X10718477Y-61300944D01*
X10718477Y-61771598D01*
X10730800Y-61813566D01*
X10775182Y-61852023D01*
X10833309Y-61860380D01*
X10886728Y-61835985D01*
X10918477Y-61786582D01*
X10918477Y-61304634D01*
X10948281Y-61245025D01*
X10972951Y-61220355D01*
X11032559Y-61190552D01*
X11118570Y-61190552D01*
X11160538Y-61178229D01*
X11198995Y-61133847D01*
X11207352Y-61075720D01*
X11182957Y-61022301D01*
X11133554Y-60990552D01*
X11014337Y-60990552D01*
X10990494Y-60987978D01*
X10972216Y-60997116D01*
X10952606Y-61002875D01*
X10946418Y-61010016D01*
X10903185Y-61031632D01*
X10861772Y-60995748D01*
X10803645Y-60987391D01*
X10750226Y-61011786D01*
X10718477Y-61061189D01*
X10718477Y-61272100D01*
X10714857Y-61292216D01*
X10489904Y-61292216D01*
X10489904Y-61286412D01*
X10492479Y-61262569D01*
X10483340Y-61244291D01*
X10477582Y-61224681D01*
X10470440Y-61218493D01*
X10437335Y-61152282D01*
X10433759Y-61135842D01*
X10414284Y-61116367D01*
X10395508Y-61096181D01*
X10393613Y-61095696D01*
X10374243Y-61076326D01*
X10365651Y-61061860D01*
X10341016Y-61049542D01*
X10316821Y-61036331D01*
X10314871Y-61036470D01*
X10248970Y-61003519D01*
X10228792Y-60990552D01*
X10208356Y-60990552D01*
X10188241Y-60986932D01*
X10179513Y-60990552D01*
X10061956Y-60990552D01*
X10038113Y-60987978D01*
X10019835Y-60997116D01*
X10000225Y-61002875D01*
X9994037Y-61010016D01*
X9927826Y-61043121D01*
X9911386Y-61046698D01*
X9891911Y-61066172D01*
X9871725Y-61084949D01*
X9871240Y-61086843D01*
X9851870Y-61106213D01*
X9837404Y-61114806D01*
X9825086Y-61139440D01*
X9811875Y-61163636D01*
X9812014Y-61165585D01*
X9779063Y-61231486D01*
X9766096Y-61251665D01*
X9766096Y-61272100D01*
X9762476Y-61292216D01*
X9442286Y-61292216D01*
X9442286Y-61190552D01*
X9594760Y-61190552D01*
X9636728Y-61178229D01*
X9675185Y-61133847D01*
X9683542Y-61075720D01*
X9659147Y-61022301D01*
X9609744Y-60990552D01*
X9442286Y-60990552D01*
X9442286Y-60742840D01*
X9429963Y-60700872D01*
X9385581Y-60662415D01*
X9327454Y-60654058D01*
X9274035Y-60678453D01*
X9242286Y-60727856D01*
X9242286Y-60990552D01*
X9185050Y-60990552D01*
X9143082Y-61002875D01*
X9104625Y-61047257D01*
X9096268Y-61105384D01*
X9010549Y-61105384D01*
X8984698Y-61061860D01*
X8868017Y-61003519D01*
X8847839Y-60990552D01*
X8827403Y-60990552D01*
X8807288Y-60986932D01*
X8798560Y-60990552D01*
X8633384Y-60990552D01*
X8609541Y-60987978D01*
X8591263Y-60997116D01*
X8571653Y-61002875D01*
X8565465Y-61010016D01*
X8499254Y-61043121D01*
X8482814Y-61046698D01*
X8463339Y-61066172D01*
X8443153Y-61084949D01*
X8442668Y-61086843D01*
X8423298Y-61106213D01*
X8408832Y-61114806D01*
X8396514Y-61139440D01*
X8383303Y-61163636D01*
X8383442Y-61165585D01*
X8350491Y-61231486D01*
X8337524Y-61251665D01*
X8337524Y-61272100D01*
X8333904Y-61292216D01*
X8156571Y-61292216D01*
X8156571Y-61238793D01*
X8159145Y-61214950D01*
X8150006Y-61196672D01*
X8144248Y-61177062D01*
X8137106Y-61170874D01*
X8109787Y-61116236D01*
X8109925Y-61112351D01*
X8096775Y-61090211D01*
X8091964Y-61080589D01*
X8089463Y-61077900D01*
X8079936Y-61061860D01*
X8069854Y-61056819D01*
X8062174Y-61048562D01*
X8044093Y-61043938D01*
X7963255Y-61003519D01*
X7943077Y-60990552D01*
X7922641Y-60990552D01*
X7902526Y-60986932D01*
X7893798Y-60990552D01*
X7728622Y-60990552D01*
X7704779Y-60987978D01*
X7686501Y-60997116D01*
X7666891Y-61002875D01*
X7660703Y-61010016D01*
X7606065Y-61037335D01*
X7602180Y-61037198D01*
X7580040Y-61050347D01*
X7570418Y-61055159D01*
X7567729Y-61057659D01*
X7551689Y-61067187D01*
X7546648Y-61077268D01*
X7538391Y-61084949D01*
X7533767Y-61103029D01*
X7493348Y-61183867D01*
X7480381Y-61204046D01*
X7480380Y-61224481D01*
X7476761Y-61244597D01*
X7204190Y-61244597D01*
X7204190Y-60742840D01*
X7191867Y-60700872D01*
X7147485Y-60662415D01*
X7089358Y-60654058D01*
X7035939Y-60678453D01*
X7004190Y-60727856D01*
X7004190Y-61608975D01*
X7001616Y-61632819D01*
X6692089Y-61632819D01*
X6667926Y-61613329D01*
X6609540Y-61607026D01*
X6509155Y-61657219D01*
X6365891Y-61657219D01*
X6321582Y-61635064D01*
X6299428Y-61590755D01*
X6299428Y-61505865D01*
X6678386Y-61430073D01*
X6690450Y-61431808D01*
X6706607Y-61424429D01*
X6709329Y-61423885D01*
X6719639Y-61418477D01*
X6743869Y-61407413D01*
X6745460Y-61404937D01*
X6748065Y-61403571D01*
X6761215Y-61380421D01*
X6775618Y-61358010D01*
X6775618Y-61355066D01*
X6777071Y-61352509D01*
X6775618Y-61325925D01*
X6775618Y-61238793D01*
X6778192Y-61214950D01*
X6769053Y-61196672D01*
X6763295Y-61177062D01*
X6756153Y-61170874D01*
X6728834Y-61116236D01*
X6728972Y-61112351D01*
X6715822Y-61090211D01*
X6711011Y-61080589D01*
X6708510Y-61077900D01*
X6698983Y-61061860D01*
X6688901Y-61056819D01*
X6681221Y-61048562D01*
X6663140Y-61043938D01*
X6582302Y-61003519D01*
X6562124Y-60990552D01*
X6541688Y-60990552D01*
X6521573Y-60986932D01*
X6512845Y-60990552D01*
X6347669Y-60990552D01*
X6323826Y-60987978D01*
X6305548Y-60997116D01*
X6285938Y-61002875D01*
X6279750Y-61010016D01*
X6225112Y-61037335D01*
X6221227Y-61037198D01*
X6199087Y-61050347D01*
X6189465Y-61055159D01*
X6186776Y-61057659D01*
X6170736Y-61067187D01*
X6165695Y-61077268D01*
X6157438Y-61084949D01*
X6152814Y-61103029D01*
X6112395Y-61183867D01*
X6099428Y-61204046D01*
X6099428Y-61224481D01*
X6095808Y-61244597D01*
X5778744Y-61244597D01*
X5769586Y-61240018D01*
X5745391Y-61226807D01*
X5743441Y-61226946D01*
X5688653Y-61199552D01*
X5680739Y-61191135D01*
X5662899Y-61186675D01*
X5659859Y-61185155D01*
X5649007Y-61183202D01*
X5472422Y-61139056D01*
X5401521Y-61103605D01*
X5376851Y-61078935D01*
X5347047Y-61019326D01*
X5347047Y-60971301D01*
X5376851Y-60911692D01*
X5401521Y-60887023D01*
X5461129Y-60857219D01*
X5659390Y-60857219D01*
X5800493Y-60904253D01*
X5844204Y-60905834D01*
X5894722Y-60875891D01*
X5921032Y-60823389D01*
X5914781Y-60764997D01*
X5877953Y-60719255D01*
X5719136Y-60666316D01*
X5704981Y-60657219D01*
X5677426Y-60657219D01*
X5649888Y-60656223D01*
X5648208Y-60657219D01*
X5442907Y-60657219D01*
X5419064Y-60654645D01*
X5400786Y-60663783D01*
X5381176Y-60669542D01*
X5374988Y-60676683D01*
X5308777Y-60709788D01*
X5292337Y-60713365D01*
X5272862Y-60732839D01*
X5252676Y-60751616D01*
X5252191Y-60753510D01*
X5232821Y-60772880D01*
X5218355Y-60781473D01*
X5206037Y-60806107D01*
X5192826Y-60830303D01*
X5192965Y-60832252D01*
X5160014Y-60898153D01*
X5147047Y-60918332D01*
X5147047Y-60938767D01*
X5143427Y-60958883D01*
X4320857Y-60958883D01*
X4320857Y-59947143D01*
X11935143Y-59947143D01*
X11935143Y-63942857D01*
G37*
D10*
X12492458Y-104534D02*
X12794839Y-104534D01*
X12431982Y-285963D02*
X12643648Y349037D01*
X12643648Y349037D02*
X12855315Y-285963D01*
X13399601Y-285963D02*
X13036744Y-285963D01*
X13218172Y-285963D02*
X13218172Y349037D01*
X13218172Y349037D02*
X13157696Y258323D01*
X13157696Y258323D02*
X13097220Y197847D01*
X13097220Y197847D02*
X13036744Y167609D01*
X13611268Y349037D02*
X14034601Y349037D01*
X14034601Y349037D02*
X13762458Y-285963D01*
X1235636Y-12804534D02*
X1538017Y-12804534D01*
X1175160Y-12985963D02*
X1386826Y-12350963D01*
X1386826Y-12350963D02*
X1598493Y-12985963D01*
X1840398Y-12985963D02*
X1961350Y-12985963D01*
X1961350Y-12985963D02*
X2021827Y-12955725D01*
X2021827Y-12955725D02*
X2052065Y-12925486D01*
X2052065Y-12925486D02*
X2112541Y-12834772D01*
X2112541Y-12834772D02*
X2142779Y-12713820D01*
X2142779Y-12713820D02*
X2142779Y-12471915D01*
X2142779Y-12471915D02*
X2112541Y-12411439D01*
X2112541Y-12411439D02*
X2082303Y-12381201D01*
X2082303Y-12381201D02*
X2021827Y-12350963D01*
X2021827Y-12350963D02*
X1900874Y-12350963D01*
X1900874Y-12350963D02*
X1840398Y-12381201D01*
X1840398Y-12381201D02*
X1810160Y-12411439D01*
X1810160Y-12411439D02*
X1779922Y-12471915D01*
X1779922Y-12471915D02*
X1779922Y-12623105D01*
X1779922Y-12623105D02*
X1810160Y-12683582D01*
X1810160Y-12683582D02*
X1840398Y-12713820D01*
X1840398Y-12713820D02*
X1900874Y-12744058D01*
X1900874Y-12744058D02*
X2021827Y-12744058D01*
X2021827Y-12744058D02*
X2082303Y-12713820D01*
X2082303Y-12713820D02*
X2112541Y-12683582D01*
X2112541Y-12683582D02*
X2142779Y-12623105D01*
X1235636Y-38204534D02*
X1538017Y-38204534D01*
X1175160Y-38385963D02*
X1386826Y-37750963D01*
X1386826Y-37750963D02*
X1598493Y-38385963D01*
X1931112Y-37750963D02*
X1991589Y-37750963D01*
X1991589Y-37750963D02*
X2052065Y-37781201D01*
X2052065Y-37781201D02*
X2082303Y-37811439D01*
X2082303Y-37811439D02*
X2112541Y-37871915D01*
X2112541Y-37871915D02*
X2142779Y-37992867D01*
X2142779Y-37992867D02*
X2142779Y-38144058D01*
X2142779Y-38144058D02*
X2112541Y-38265010D01*
X2112541Y-38265010D02*
X2082303Y-38325486D01*
X2082303Y-38325486D02*
X2052065Y-38355725D01*
X2052065Y-38355725D02*
X1991589Y-38385963D01*
X1991589Y-38385963D02*
X1931112Y-38385963D01*
X1931112Y-38385963D02*
X1870636Y-38355725D01*
X1870636Y-38355725D02*
X1840398Y-38325486D01*
X1840398Y-38325486D02*
X1810160Y-38265010D01*
X1810160Y-38265010D02*
X1779922Y-38144058D01*
X1779922Y-38144058D02*
X1779922Y-37992867D01*
X1779922Y-37992867D02*
X1810160Y-37871915D01*
X1810160Y-37871915D02*
X1840398Y-37811439D01*
X1840398Y-37811439D02*
X1870636Y-37781201D01*
X1870636Y-37781201D02*
X1931112Y-37750963D01*
X12643648Y-20303582D02*
X12643648Y-20605963D01*
X12431982Y-19970963D02*
X12643648Y-20303582D01*
X12643648Y-20303582D02*
X12855315Y-19970963D01*
X13399601Y-20605963D02*
X13036744Y-20605963D01*
X13218172Y-20605963D02*
X13218172Y-19970963D01*
X13218172Y-19970963D02*
X13157696Y-20061677D01*
X13157696Y-20061677D02*
X13097220Y-20122153D01*
X13097220Y-20122153D02*
X13036744Y-20152391D01*
X13611268Y-19970963D02*
X14004363Y-19970963D01*
X14004363Y-19970963D02*
X13792696Y-20212867D01*
X13792696Y-20212867D02*
X13883411Y-20212867D01*
X13883411Y-20212867D02*
X13943887Y-20243105D01*
X13943887Y-20243105D02*
X13974125Y-20273344D01*
X13974125Y-20273344D02*
X14004363Y-20333820D01*
X14004363Y-20333820D02*
X14004363Y-20485010D01*
X14004363Y-20485010D02*
X13974125Y-20545486D01*
X13974125Y-20545486D02*
X13943887Y-20575725D01*
X13943887Y-20575725D02*
X13883411Y-20605963D01*
X13883411Y-20605963D02*
X13701982Y-20605963D01*
X13701982Y-20605963D02*
X13641506Y-20575725D01*
X13641506Y-20575725D02*
X13611268Y-20545486D01*
X13121410Y-38083582D02*
X13121410Y-38385963D01*
X12909744Y-37750963D02*
X13121410Y-38083582D01*
X13121410Y-38083582D02*
X13333077Y-37750963D01*
X13484268Y-37750963D02*
X13907601Y-37750963D01*
X13907601Y-37750963D02*
X13635458Y-38385963D01*
X1477541Y-48213344D02*
X1568255Y-48243582D01*
X1568255Y-48243582D02*
X1598493Y-48273820D01*
X1598493Y-48273820D02*
X1628731Y-48334296D01*
X1628731Y-48334296D02*
X1628731Y-48425010D01*
X1628731Y-48425010D02*
X1598493Y-48485486D01*
X1598493Y-48485486D02*
X1568255Y-48515725D01*
X1568255Y-48515725D02*
X1507779Y-48545963D01*
X1507779Y-48545963D02*
X1265874Y-48545963D01*
X1265874Y-48545963D02*
X1265874Y-47910963D01*
X1265874Y-47910963D02*
X1477541Y-47910963D01*
X1477541Y-47910963D02*
X1538017Y-47941201D01*
X1538017Y-47941201D02*
X1568255Y-47971439D01*
X1568255Y-47971439D02*
X1598493Y-48031915D01*
X1598493Y-48031915D02*
X1598493Y-48092391D01*
X1598493Y-48092391D02*
X1568255Y-48152867D01*
X1568255Y-48152867D02*
X1538017Y-48183105D01*
X1538017Y-48183105D02*
X1477541Y-48213344D01*
X1477541Y-48213344D02*
X1265874Y-48213344D01*
X2233493Y-48545963D02*
X1870636Y-48545963D01*
X2052064Y-48545963D02*
X2052064Y-47910963D01*
X2052064Y-47910963D02*
X1991588Y-48001677D01*
X1991588Y-48001677D02*
X1931112Y-48062153D01*
X1931112Y-48062153D02*
X1870636Y-48092391D01*
X2777779Y-47910963D02*
X2656826Y-47910963D01*
X2656826Y-47910963D02*
X2596350Y-47941201D01*
X2596350Y-47941201D02*
X2566112Y-47971439D01*
X2566112Y-47971439D02*
X2505636Y-48062153D01*
X2505636Y-48062153D02*
X2475398Y-48183105D01*
X2475398Y-48183105D02*
X2475398Y-48425010D01*
X2475398Y-48425010D02*
X2505636Y-48485486D01*
X2505636Y-48485486D02*
X2535874Y-48515725D01*
X2535874Y-48515725D02*
X2596350Y-48545963D01*
X2596350Y-48545963D02*
X2717303Y-48545963D01*
X2717303Y-48545963D02*
X2777779Y-48515725D01*
X2777779Y-48515725D02*
X2808017Y-48485486D01*
X2808017Y-48485486D02*
X2838255Y-48425010D01*
X2838255Y-48425010D02*
X2838255Y-48273820D01*
X2838255Y-48273820D02*
X2808017Y-48213344D01*
X2808017Y-48213344D02*
X2777779Y-48183105D01*
X2777779Y-48183105D02*
X2717303Y-48152867D01*
X2717303Y-48152867D02*
X2596350Y-48152867D01*
X2596350Y-48152867D02*
X2535874Y-48183105D01*
X2535874Y-48183105D02*
X2505636Y-48213344D01*
X2505636Y-48213344D02*
X2475398Y-48273820D01*
X13248410Y-58403582D02*
X13248410Y-58705963D01*
X13036744Y-58070963D02*
X13248410Y-58403582D01*
X13248410Y-58403582D02*
X13460077Y-58070963D01*
X13792696Y-58070963D02*
X13853173Y-58070963D01*
X13853173Y-58070963D02*
X13913649Y-58101201D01*
X13913649Y-58101201D02*
X13943887Y-58131439D01*
X13943887Y-58131439D02*
X13974125Y-58191915D01*
X13974125Y-58191915D02*
X14004363Y-58312867D01*
X14004363Y-58312867D02*
X14004363Y-58464058D01*
X14004363Y-58464058D02*
X13974125Y-58585010D01*
X13974125Y-58585010D02*
X13943887Y-58645486D01*
X13943887Y-58645486D02*
X13913649Y-58675725D01*
X13913649Y-58675725D02*
X13853173Y-58705963D01*
X13853173Y-58705963D02*
X13792696Y-58705963D01*
X13792696Y-58705963D02*
X13732220Y-58675725D01*
X13732220Y-58675725D02*
X13701982Y-58645486D01*
X13701982Y-58645486D02*
X13671744Y-58585010D01*
X13671744Y-58585010D02*
X13641506Y-58464058D01*
X13641506Y-58464058D02*
X13641506Y-58312867D01*
X13641506Y-58312867D02*
X13671744Y-58191915D01*
X13671744Y-58191915D02*
X13701982Y-58131439D01*
X13701982Y-58131439D02*
X13732220Y-58101201D01*
X13732220Y-58101201D02*
X13792696Y-58070963D01*
X1235636Y-7724534D02*
X1538017Y-7724534D01*
X1175160Y-7905963D02*
X1386826Y-7270963D01*
X1386826Y-7270963D02*
X1598493Y-7905963D01*
X2142779Y-7905963D02*
X1779922Y-7905963D01*
X1961350Y-7905963D02*
X1961350Y-7270963D01*
X1961350Y-7270963D02*
X1900874Y-7361677D01*
X1900874Y-7361677D02*
X1840398Y-7422153D01*
X1840398Y-7422153D02*
X1779922Y-7452391D01*
X2747541Y-7905963D02*
X2384684Y-7905963D01*
X2566112Y-7905963D02*
X2566112Y-7270963D01*
X2566112Y-7270963D02*
X2505636Y-7361677D01*
X2505636Y-7361677D02*
X2445160Y-7422153D01*
X2445160Y-7422153D02*
X2384684Y-7452391D01*
X13121410Y-50783582D02*
X13121410Y-51085963D01*
X12909744Y-50450963D02*
X13121410Y-50783582D01*
X13121410Y-50783582D02*
X13333077Y-50450963D01*
X13514506Y-50511439D02*
X13544744Y-50481201D01*
X13544744Y-50481201D02*
X13605220Y-50450963D01*
X13605220Y-50450963D02*
X13756411Y-50450963D01*
X13756411Y-50450963D02*
X13816887Y-50481201D01*
X13816887Y-50481201D02*
X13847125Y-50511439D01*
X13847125Y-50511439D02*
X13877363Y-50571915D01*
X13877363Y-50571915D02*
X13877363Y-50632391D01*
X13877363Y-50632391D02*
X13847125Y-50723105D01*
X13847125Y-50723105D02*
X13484268Y-51085963D01*
X13484268Y-51085963D02*
X13877363Y-51085963D01*
X1235636Y-35664534D02*
X1538017Y-35664534D01*
X1175160Y-35845963D02*
X1386826Y-35210963D01*
X1386826Y-35210963D02*
X1598493Y-35845963D01*
X2142779Y-35845963D02*
X1779922Y-35845963D01*
X1961350Y-35845963D02*
X1961350Y-35210963D01*
X1961350Y-35210963D02*
X1900874Y-35301677D01*
X1900874Y-35301677D02*
X1840398Y-35362153D01*
X1840398Y-35362153D02*
X1779922Y-35392391D01*
X13121410Y-35543582D02*
X13121410Y-35845963D01*
X12909744Y-35210963D02*
X13121410Y-35543582D01*
X13121410Y-35543582D02*
X13333077Y-35210963D01*
X13635458Y-35483105D02*
X13574982Y-35452867D01*
X13574982Y-35452867D02*
X13544744Y-35422629D01*
X13544744Y-35422629D02*
X13514506Y-35362153D01*
X13514506Y-35362153D02*
X13514506Y-35331915D01*
X13514506Y-35331915D02*
X13544744Y-35271439D01*
X13544744Y-35271439D02*
X13574982Y-35241201D01*
X13574982Y-35241201D02*
X13635458Y-35210963D01*
X13635458Y-35210963D02*
X13756411Y-35210963D01*
X13756411Y-35210963D02*
X13816887Y-35241201D01*
X13816887Y-35241201D02*
X13847125Y-35271439D01*
X13847125Y-35271439D02*
X13877363Y-35331915D01*
X13877363Y-35331915D02*
X13877363Y-35362153D01*
X13877363Y-35362153D02*
X13847125Y-35422629D01*
X13847125Y-35422629D02*
X13816887Y-35452867D01*
X13816887Y-35452867D02*
X13756411Y-35483105D01*
X13756411Y-35483105D02*
X13635458Y-35483105D01*
X13635458Y-35483105D02*
X13574982Y-35513344D01*
X13574982Y-35513344D02*
X13544744Y-35543582D01*
X13544744Y-35543582D02*
X13514506Y-35604058D01*
X13514506Y-35604058D02*
X13514506Y-35725010D01*
X13514506Y-35725010D02*
X13544744Y-35785486D01*
X13544744Y-35785486D02*
X13574982Y-35815725D01*
X13574982Y-35815725D02*
X13635458Y-35845963D01*
X13635458Y-35845963D02*
X13756411Y-35845963D01*
X13756411Y-35845963D02*
X13816887Y-35815725D01*
X13816887Y-35815725D02*
X13847125Y-35785486D01*
X13847125Y-35785486D02*
X13877363Y-35725010D01*
X13877363Y-35725010D02*
X13877363Y-35604058D01*
X13877363Y-35604058D02*
X13847125Y-35543582D01*
X13847125Y-35543582D02*
X13816887Y-35513344D01*
X13816887Y-35513344D02*
X13756411Y-35483105D01*
X1235636Y-33124534D02*
X1538017Y-33124534D01*
X1175160Y-33305963D02*
X1386826Y-32670963D01*
X1386826Y-32670963D02*
X1598493Y-33305963D01*
X1779922Y-32731439D02*
X1810160Y-32701201D01*
X1810160Y-32701201D02*
X1870636Y-32670963D01*
X1870636Y-32670963D02*
X2021827Y-32670963D01*
X2021827Y-32670963D02*
X2082303Y-32701201D01*
X2082303Y-32701201D02*
X2112541Y-32731439D01*
X2112541Y-32731439D02*
X2142779Y-32791915D01*
X2142779Y-32791915D02*
X2142779Y-32852391D01*
X2142779Y-32852391D02*
X2112541Y-32943105D01*
X2112541Y-32943105D02*
X1749684Y-33305963D01*
X1749684Y-33305963D02*
X2142779Y-33305963D01*
X1598493Y-22541201D02*
X1538017Y-22510963D01*
X1538017Y-22510963D02*
X1447303Y-22510963D01*
X1447303Y-22510963D02*
X1356588Y-22541201D01*
X1356588Y-22541201D02*
X1296112Y-22601677D01*
X1296112Y-22601677D02*
X1265874Y-22662153D01*
X1265874Y-22662153D02*
X1235636Y-22783105D01*
X1235636Y-22783105D02*
X1235636Y-22873820D01*
X1235636Y-22873820D02*
X1265874Y-22994772D01*
X1265874Y-22994772D02*
X1296112Y-23055248D01*
X1296112Y-23055248D02*
X1356588Y-23115725D01*
X1356588Y-23115725D02*
X1447303Y-23145963D01*
X1447303Y-23145963D02*
X1507779Y-23145963D01*
X1507779Y-23145963D02*
X1598493Y-23115725D01*
X1598493Y-23115725D02*
X1628731Y-23085486D01*
X1628731Y-23085486D02*
X1628731Y-22873820D01*
X1628731Y-22873820D02*
X1507779Y-22873820D01*
X1900874Y-23145963D02*
X1900874Y-22510963D01*
X1900874Y-22510963D02*
X2263731Y-23145963D01*
X2263731Y-23145963D02*
X2263731Y-22510963D01*
X2566112Y-23145963D02*
X2566112Y-22510963D01*
X2566112Y-22510963D02*
X2717302Y-22510963D01*
X2717302Y-22510963D02*
X2808017Y-22541201D01*
X2808017Y-22541201D02*
X2868493Y-22601677D01*
X2868493Y-22601677D02*
X2898731Y-22662153D01*
X2898731Y-22662153D02*
X2928969Y-22783105D01*
X2928969Y-22783105D02*
X2928969Y-22873820D01*
X2928969Y-22873820D02*
X2898731Y-22994772D01*
X2898731Y-22994772D02*
X2868493Y-23055248D01*
X2868493Y-23055248D02*
X2808017Y-23115725D01*
X2808017Y-23115725D02*
X2717302Y-23145963D01*
X2717302Y-23145963D02*
X2566112Y-23145963D01*
X13121410Y-45703582D02*
X13121410Y-46005963D01*
X12909744Y-45370963D02*
X13121410Y-45703582D01*
X13121410Y-45703582D02*
X13333077Y-45370963D01*
X13816887Y-45582629D02*
X13816887Y-46005963D01*
X13665696Y-45340725D02*
X13514506Y-45794296D01*
X13514506Y-45794296D02*
X13907601Y-45794296D01*
X1235636Y-104534D02*
X1538017Y-104534D01*
X1175160Y-285963D02*
X1386826Y349037D01*
X1386826Y349037D02*
X1598493Y-285963D01*
X2142779Y-285963D02*
X1779922Y-285963D01*
X1961350Y-285963D02*
X1961350Y349037D01*
X1961350Y349037D02*
X1900874Y258323D01*
X1900874Y258323D02*
X1840398Y197847D01*
X1840398Y197847D02*
X1779922Y167609D01*
X2354446Y349037D02*
X2747541Y349037D01*
X2747541Y349037D02*
X2535874Y107133D01*
X2535874Y107133D02*
X2626589Y107133D01*
X2626589Y107133D02*
X2687065Y76895D01*
X2687065Y76895D02*
X2717303Y46656D01*
X2717303Y46656D02*
X2747541Y-13820D01*
X2747541Y-13820D02*
X2747541Y-165010D01*
X2747541Y-165010D02*
X2717303Y-225486D01*
X2717303Y-225486D02*
X2687065Y-255725D01*
X2687065Y-255725D02*
X2626589Y-285963D01*
X2626589Y-285963D02*
X2445160Y-285963D01*
X2445160Y-285963D02*
X2384684Y-255725D01*
X2384684Y-255725D02*
X2354446Y-225486D01*
X1235636Y-2644534D02*
X1538017Y-2644534D01*
X1175160Y-2825963D02*
X1386826Y-2190963D01*
X1386826Y-2190963D02*
X1598493Y-2825963D01*
X2142779Y-2825963D02*
X1779922Y-2825963D01*
X1961350Y-2825963D02*
X1961350Y-2190963D01*
X1961350Y-2190963D02*
X1900874Y-2281677D01*
X1900874Y-2281677D02*
X1840398Y-2342153D01*
X1840398Y-2342153D02*
X1779922Y-2372391D01*
X2384684Y-2251439D02*
X2414922Y-2221201D01*
X2414922Y-2221201D02*
X2475398Y-2190963D01*
X2475398Y-2190963D02*
X2626589Y-2190963D01*
X2626589Y-2190963D02*
X2687065Y-2221201D01*
X2687065Y-2221201D02*
X2717303Y-2251439D01*
X2717303Y-2251439D02*
X2747541Y-2311915D01*
X2747541Y-2311915D02*
X2747541Y-2372391D01*
X2747541Y-2372391D02*
X2717303Y-2463105D01*
X2717303Y-2463105D02*
X2354446Y-2825963D01*
X2354446Y-2825963D02*
X2747541Y-2825963D01*
X12516648Y-25383582D02*
X12516648Y-25685963D01*
X12304982Y-25050963D02*
X12516648Y-25383582D01*
X12516648Y-25383582D02*
X12728315Y-25050963D01*
X13272601Y-25685963D02*
X12909744Y-25685963D01*
X13091172Y-25685963D02*
X13091172Y-25050963D01*
X13091172Y-25050963D02*
X13030696Y-25141677D01*
X13030696Y-25141677D02*
X12970220Y-25202153D01*
X12970220Y-25202153D02*
X12909744Y-25232391D01*
X13514506Y-25111439D02*
X13544744Y-25081201D01*
X13544744Y-25081201D02*
X13605220Y-25050963D01*
X13605220Y-25050963D02*
X13756411Y-25050963D01*
X13756411Y-25050963D02*
X13816887Y-25081201D01*
X13816887Y-25081201D02*
X13847125Y-25111439D01*
X13847125Y-25111439D02*
X13877363Y-25171915D01*
X13877363Y-25171915D02*
X13877363Y-25232391D01*
X13877363Y-25232391D02*
X13847125Y-25323105D01*
X13847125Y-25323105D02*
X13484268Y-25685963D01*
X13484268Y-25685963D02*
X13877363Y-25685963D01*
X12365458Y-7724534D02*
X12667839Y-7724534D01*
X12304982Y-7905963D02*
X12516648Y-7270963D01*
X12516648Y-7270963D02*
X12728315Y-7905963D01*
X13272601Y-7905963D02*
X12909744Y-7905963D01*
X13091172Y-7905963D02*
X13091172Y-7270963D01*
X13091172Y-7270963D02*
X13030696Y-7361677D01*
X13030696Y-7361677D02*
X12970220Y-7422153D01*
X12970220Y-7422153D02*
X12909744Y-7452391D01*
X13816887Y-7482629D02*
X13816887Y-7905963D01*
X13665696Y-7240725D02*
X13514506Y-7694296D01*
X13514506Y-7694296D02*
X13907601Y-7694296D01*
X1235636Y-28044534D02*
X1538017Y-28044534D01*
X1175160Y-28225963D02*
X1386826Y-27590963D01*
X1386826Y-27590963D02*
X1598493Y-28225963D01*
X2082303Y-27802629D02*
X2082303Y-28225963D01*
X1931112Y-27560725D02*
X1779922Y-28014296D01*
X1779922Y-28014296D02*
X2173017Y-28014296D01*
X13121411Y-65993344D02*
X13212125Y-66023582D01*
X13212125Y-66023582D02*
X13242363Y-66053820D01*
X13242363Y-66053820D02*
X13272601Y-66114296D01*
X13272601Y-66114296D02*
X13272601Y-66205010D01*
X13272601Y-66205010D02*
X13242363Y-66265486D01*
X13242363Y-66265486D02*
X13212125Y-66295725D01*
X13212125Y-66295725D02*
X13151649Y-66325963D01*
X13151649Y-66325963D02*
X12909744Y-66325963D01*
X12909744Y-66325963D02*
X12909744Y-65690963D01*
X12909744Y-65690963D02*
X13121411Y-65690963D01*
X13121411Y-65690963D02*
X13181887Y-65721201D01*
X13181887Y-65721201D02*
X13212125Y-65751439D01*
X13212125Y-65751439D02*
X13242363Y-65811915D01*
X13242363Y-65811915D02*
X13242363Y-65872391D01*
X13242363Y-65872391D02*
X13212125Y-65932867D01*
X13212125Y-65932867D02*
X13181887Y-65963105D01*
X13181887Y-65963105D02*
X13121411Y-65993344D01*
X13121411Y-65993344D02*
X12909744Y-65993344D01*
X13816887Y-65902629D02*
X13816887Y-66325963D01*
X13665696Y-65660725D02*
X13514506Y-66114296D01*
X13514506Y-66114296D02*
X13907601Y-66114296D01*
X1477541Y-45673344D02*
X1568255Y-45703582D01*
X1568255Y-45703582D02*
X1598493Y-45733820D01*
X1598493Y-45733820D02*
X1628731Y-45794296D01*
X1628731Y-45794296D02*
X1628731Y-45885010D01*
X1628731Y-45885010D02*
X1598493Y-45945486D01*
X1598493Y-45945486D02*
X1568255Y-45975725D01*
X1568255Y-45975725D02*
X1507779Y-46005963D01*
X1507779Y-46005963D02*
X1265874Y-46005963D01*
X1265874Y-46005963D02*
X1265874Y-45370963D01*
X1265874Y-45370963D02*
X1477541Y-45370963D01*
X1477541Y-45370963D02*
X1538017Y-45401201D01*
X1538017Y-45401201D02*
X1568255Y-45431439D01*
X1568255Y-45431439D02*
X1598493Y-45491915D01*
X1598493Y-45491915D02*
X1598493Y-45552391D01*
X1598493Y-45552391D02*
X1568255Y-45612867D01*
X1568255Y-45612867D02*
X1538017Y-45643105D01*
X1538017Y-45643105D02*
X1477541Y-45673344D01*
X1477541Y-45673344D02*
X1265874Y-45673344D01*
X2233493Y-46005963D02*
X1870636Y-46005963D01*
X2052064Y-46005963D02*
X2052064Y-45370963D01*
X2052064Y-45370963D02*
X1991588Y-45461677D01*
X1991588Y-45461677D02*
X1931112Y-45522153D01*
X1931112Y-45522153D02*
X1870636Y-45552391D01*
X2445160Y-45370963D02*
X2868493Y-45370963D01*
X2868493Y-45370963D02*
X2596350Y-46005963D01*
X13121410Y-43163582D02*
X13121410Y-43465963D01*
X12909744Y-42830963D02*
X13121410Y-43163582D01*
X13121410Y-43163582D02*
X13333077Y-42830963D01*
X13847125Y-42830963D02*
X13544744Y-42830963D01*
X13544744Y-42830963D02*
X13514506Y-43133344D01*
X13514506Y-43133344D02*
X13544744Y-43103105D01*
X13544744Y-43103105D02*
X13605220Y-43072867D01*
X13605220Y-43072867D02*
X13756411Y-43072867D01*
X13756411Y-43072867D02*
X13816887Y-43103105D01*
X13816887Y-43103105D02*
X13847125Y-43133344D01*
X13847125Y-43133344D02*
X13877363Y-43193820D01*
X13877363Y-43193820D02*
X13877363Y-43345010D01*
X13877363Y-43345010D02*
X13847125Y-43405486D01*
X13847125Y-43405486D02*
X13816887Y-43435725D01*
X13816887Y-43435725D02*
X13756411Y-43465963D01*
X13756411Y-43465963D02*
X13605220Y-43465963D01*
X13605220Y-43465963D02*
X13544744Y-43435725D01*
X13544744Y-43435725D02*
X13514506Y-43405486D01*
X12516648Y-27923582D02*
X12516648Y-28225963D01*
X12304982Y-27590963D02*
X12516648Y-27923582D01*
X12516648Y-27923582D02*
X12728315Y-27590963D01*
X13272601Y-28225963D02*
X12909744Y-28225963D01*
X13091172Y-28225963D02*
X13091172Y-27590963D01*
X13091172Y-27590963D02*
X13030696Y-27681677D01*
X13030696Y-27681677D02*
X12970220Y-27742153D01*
X12970220Y-27742153D02*
X12909744Y-27772391D01*
X13877363Y-28225963D02*
X13514506Y-28225963D01*
X13695934Y-28225963D02*
X13695934Y-27590963D01*
X13695934Y-27590963D02*
X13635458Y-27681677D01*
X13635458Y-27681677D02*
X13574982Y-27742153D01*
X13574982Y-27742153D02*
X13514506Y-27772391D01*
X1604541Y-65993344D02*
X1695255Y-66023582D01*
X1695255Y-66023582D02*
X1725493Y-66053820D01*
X1725493Y-66053820D02*
X1755731Y-66114296D01*
X1755731Y-66114296D02*
X1755731Y-66205010D01*
X1755731Y-66205010D02*
X1725493Y-66265486D01*
X1725493Y-66265486D02*
X1695255Y-66295725D01*
X1695255Y-66295725D02*
X1634779Y-66325963D01*
X1634779Y-66325963D02*
X1392874Y-66325963D01*
X1392874Y-66325963D02*
X1392874Y-65690963D01*
X1392874Y-65690963D02*
X1604541Y-65690963D01*
X1604541Y-65690963D02*
X1665017Y-65721201D01*
X1665017Y-65721201D02*
X1695255Y-65751439D01*
X1695255Y-65751439D02*
X1725493Y-65811915D01*
X1725493Y-65811915D02*
X1725493Y-65872391D01*
X1725493Y-65872391D02*
X1695255Y-65932867D01*
X1695255Y-65932867D02*
X1665017Y-65963105D01*
X1665017Y-65963105D02*
X1604541Y-65993344D01*
X1604541Y-65993344D02*
X1392874Y-65993344D01*
X2360493Y-66325963D02*
X1997636Y-66325963D01*
X2179064Y-66325963D02*
X2179064Y-65690963D01*
X2179064Y-65690963D02*
X2118588Y-65781677D01*
X2118588Y-65781677D02*
X2058112Y-65842153D01*
X2058112Y-65842153D02*
X1997636Y-65872391D01*
X2753588Y-65690963D02*
X2814065Y-65690963D01*
X2814065Y-65690963D02*
X2874541Y-65721201D01*
X2874541Y-65721201D02*
X2904779Y-65751439D01*
X2904779Y-65751439D02*
X2935017Y-65811915D01*
X2935017Y-65811915D02*
X2965255Y-65932867D01*
X2965255Y-65932867D02*
X2965255Y-66084058D01*
X2965255Y-66084058D02*
X2935017Y-66205010D01*
X2935017Y-66205010D02*
X2904779Y-66265486D01*
X2904779Y-66265486D02*
X2874541Y-66295725D01*
X2874541Y-66295725D02*
X2814065Y-66325963D01*
X2814065Y-66325963D02*
X2753588Y-66325963D01*
X2753588Y-66325963D02*
X2693112Y-66295725D01*
X2693112Y-66295725D02*
X2662874Y-66265486D01*
X2662874Y-66265486D02*
X2632636Y-66205010D01*
X2632636Y-66205010D02*
X2602398Y-66084058D01*
X2602398Y-66084058D02*
X2602398Y-65932867D01*
X2602398Y-65932867D02*
X2632636Y-65811915D01*
X2632636Y-65811915D02*
X2662874Y-65751439D01*
X2662874Y-65751439D02*
X2693112Y-65721201D01*
X2693112Y-65721201D02*
X2753588Y-65690963D01*
%TO.C,IC42*%
X8378738Y-78644963D02*
X8378738Y-78009963D01*
X9043976Y-78584486D02*
X9013738Y-78614725D01*
X9013738Y-78614725D02*
X8923024Y-78644963D01*
X8923024Y-78644963D02*
X8862548Y-78644963D01*
X8862548Y-78644963D02*
X8771833Y-78614725D01*
X8771833Y-78614725D02*
X8711357Y-78554248D01*
X8711357Y-78554248D02*
X8681119Y-78493772D01*
X8681119Y-78493772D02*
X8650881Y-78372820D01*
X8650881Y-78372820D02*
X8650881Y-78282105D01*
X8650881Y-78282105D02*
X8681119Y-78161153D01*
X8681119Y-78161153D02*
X8711357Y-78100677D01*
X8711357Y-78100677D02*
X8771833Y-78040201D01*
X8771833Y-78040201D02*
X8862548Y-78009963D01*
X8862548Y-78009963D02*
X8923024Y-78009963D01*
X8923024Y-78009963D02*
X9013738Y-78040201D01*
X9013738Y-78040201D02*
X9043976Y-78070439D01*
X9588262Y-78221629D02*
X9588262Y-78644963D01*
X9437071Y-77979725D02*
X9285881Y-78433296D01*
X9285881Y-78433296D02*
X9678976Y-78433296D01*
X9890643Y-78070439D02*
X9920881Y-78040201D01*
X9920881Y-78040201D02*
X9981357Y-78009963D01*
X9981357Y-78009963D02*
X10132548Y-78009963D01*
X10132548Y-78009963D02*
X10193024Y-78040201D01*
X10193024Y-78040201D02*
X10223262Y-78070439D01*
X10223262Y-78070439D02*
X10253500Y-78130915D01*
X10253500Y-78130915D02*
X10253500Y-78191391D01*
X10253500Y-78191391D02*
X10223262Y-78282105D01*
X10223262Y-78282105D02*
X9860405Y-78644963D01*
X9860405Y-78644963D02*
X10253500Y-78644963D01*
X6098785Y-80495534D02*
X6401166Y-80495534D01*
X6038309Y-80676963D02*
X6249975Y-80041963D01*
X6249975Y-80041963D02*
X6461642Y-80676963D01*
X6673309Y-80676963D02*
X6673309Y-80041963D01*
X6673309Y-80041963D02*
X6915214Y-80041963D01*
X6915214Y-80041963D02*
X6975690Y-80072201D01*
X6975690Y-80072201D02*
X7005928Y-80102439D01*
X7005928Y-80102439D02*
X7036166Y-80162915D01*
X7036166Y-80162915D02*
X7036166Y-80253629D01*
X7036166Y-80253629D02*
X7005928Y-80314105D01*
X7005928Y-80314105D02*
X6975690Y-80344344D01*
X6975690Y-80344344D02*
X6915214Y-80374582D01*
X6915214Y-80374582D02*
X6673309Y-80374582D01*
X7247833Y-80041963D02*
X7671166Y-80041963D01*
X7671166Y-80041963D02*
X7399023Y-80676963D01*
X7852595Y-80041963D02*
X8245690Y-80041963D01*
X8245690Y-80041963D02*
X8034023Y-80283867D01*
X8034023Y-80283867D02*
X8124738Y-80283867D01*
X8124738Y-80283867D02*
X8185214Y-80314105D01*
X8185214Y-80314105D02*
X8215452Y-80344344D01*
X8215452Y-80344344D02*
X8245690Y-80404820D01*
X8245690Y-80404820D02*
X8245690Y-80556010D01*
X8245690Y-80556010D02*
X8215452Y-80616486D01*
X8215452Y-80616486D02*
X8185214Y-80646725D01*
X8185214Y-80646725D02*
X8124738Y-80676963D01*
X8124738Y-80676963D02*
X7943309Y-80676963D01*
X7943309Y-80676963D02*
X7882833Y-80646725D01*
X7882833Y-80646725D02*
X7852595Y-80616486D01*
X8789976Y-80041963D02*
X8669023Y-80041963D01*
X8669023Y-80041963D02*
X8608547Y-80072201D01*
X8608547Y-80072201D02*
X8578309Y-80102439D01*
X8578309Y-80102439D02*
X8517833Y-80193153D01*
X8517833Y-80193153D02*
X8487595Y-80314105D01*
X8487595Y-80314105D02*
X8487595Y-80556010D01*
X8487595Y-80556010D02*
X8517833Y-80616486D01*
X8517833Y-80616486D02*
X8548071Y-80646725D01*
X8548071Y-80646725D02*
X8608547Y-80676963D01*
X8608547Y-80676963D02*
X8729500Y-80676963D01*
X8729500Y-80676963D02*
X8789976Y-80646725D01*
X8789976Y-80646725D02*
X8820214Y-80616486D01*
X8820214Y-80616486D02*
X8850452Y-80556010D01*
X8850452Y-80556010D02*
X8850452Y-80404820D01*
X8850452Y-80404820D02*
X8820214Y-80344344D01*
X8820214Y-80344344D02*
X8789976Y-80314105D01*
X8789976Y-80314105D02*
X8729500Y-80283867D01*
X8729500Y-80283867D02*
X8608547Y-80283867D01*
X8608547Y-80283867D02*
X8548071Y-80314105D01*
X8548071Y-80314105D02*
X8517833Y-80344344D01*
X8517833Y-80344344D02*
X8487595Y-80404820D01*
X9424976Y-80041963D02*
X9122595Y-80041963D01*
X9122595Y-80041963D02*
X9092357Y-80344344D01*
X9092357Y-80344344D02*
X9122595Y-80314105D01*
X9122595Y-80314105D02*
X9183071Y-80283867D01*
X9183071Y-80283867D02*
X9334262Y-80283867D01*
X9334262Y-80283867D02*
X9394738Y-80314105D01*
X9394738Y-80314105D02*
X9424976Y-80344344D01*
X9424976Y-80344344D02*
X9455214Y-80404820D01*
X9455214Y-80404820D02*
X9455214Y-80556010D01*
X9455214Y-80556010D02*
X9424976Y-80616486D01*
X9424976Y-80616486D02*
X9394738Y-80646725D01*
X9394738Y-80646725D02*
X9334262Y-80676963D01*
X9334262Y-80676963D02*
X9183071Y-80676963D01*
X9183071Y-80676963D02*
X9122595Y-80646725D01*
X9122595Y-80646725D02*
X9092357Y-80616486D01*
%TO.C,IC5*%
X7254119Y-6635963D02*
X7254119Y-6000963D01*
X7919357Y-6575486D02*
X7889119Y-6605725D01*
X7889119Y-6605725D02*
X7798405Y-6635963D01*
X7798405Y-6635963D02*
X7737929Y-6635963D01*
X7737929Y-6635963D02*
X7647214Y-6605725D01*
X7647214Y-6605725D02*
X7586738Y-6545248D01*
X7586738Y-6545248D02*
X7556500Y-6484772D01*
X7556500Y-6484772D02*
X7526262Y-6363820D01*
X7526262Y-6363820D02*
X7526262Y-6273105D01*
X7526262Y-6273105D02*
X7556500Y-6152153D01*
X7556500Y-6152153D02*
X7586738Y-6091677D01*
X7586738Y-6091677D02*
X7647214Y-6031201D01*
X7647214Y-6031201D02*
X7737929Y-6000963D01*
X7737929Y-6000963D02*
X7798405Y-6000963D01*
X7798405Y-6000963D02*
X7889119Y-6031201D01*
X7889119Y-6031201D02*
X7919357Y-6061439D01*
X8493881Y-6000963D02*
X8191500Y-6000963D01*
X8191500Y-6000963D02*
X8161262Y-6303344D01*
X8161262Y-6303344D02*
X8191500Y-6273105D01*
X8191500Y-6273105D02*
X8251976Y-6242867D01*
X8251976Y-6242867D02*
X8403167Y-6242867D01*
X8403167Y-6242867D02*
X8463643Y-6273105D01*
X8463643Y-6273105D02*
X8493881Y-6303344D01*
X8493881Y-6303344D02*
X8524119Y-6363820D01*
X8524119Y-6363820D02*
X8524119Y-6515010D01*
X8524119Y-6515010D02*
X8493881Y-6575486D01*
X8493881Y-6575486D02*
X8463643Y-6605725D01*
X8463643Y-6605725D02*
X8403167Y-6635963D01*
X8403167Y-6635963D02*
X8251976Y-6635963D01*
X8251976Y-6635963D02*
X8191500Y-6605725D01*
X8191500Y-6605725D02*
X8161262Y-6575486D01*
X5606142Y-11207963D02*
X6029475Y-11207963D01*
X6029475Y-11207963D02*
X5757332Y-11842963D01*
X6543523Y-11419629D02*
X6543523Y-11842963D01*
X6392332Y-11177725D02*
X6241142Y-11631296D01*
X6241142Y-11631296D02*
X6634237Y-11631296D01*
X7178523Y-11842963D02*
X6876142Y-11842963D01*
X6876142Y-11842963D02*
X6876142Y-11207963D01*
X7299476Y-11207963D02*
X7511142Y-11842963D01*
X7511142Y-11842963D02*
X7722809Y-11207963D01*
X8297333Y-11782486D02*
X8267095Y-11812725D01*
X8267095Y-11812725D02*
X8176381Y-11842963D01*
X8176381Y-11842963D02*
X8115905Y-11842963D01*
X8115905Y-11842963D02*
X8025190Y-11812725D01*
X8025190Y-11812725D02*
X7964714Y-11752248D01*
X7964714Y-11752248D02*
X7934476Y-11691772D01*
X7934476Y-11691772D02*
X7904238Y-11570820D01*
X7904238Y-11570820D02*
X7904238Y-11480105D01*
X7904238Y-11480105D02*
X7934476Y-11359153D01*
X7934476Y-11359153D02*
X7964714Y-11298677D01*
X7964714Y-11298677D02*
X8025190Y-11238201D01*
X8025190Y-11238201D02*
X8115905Y-11207963D01*
X8115905Y-11207963D02*
X8176381Y-11207963D01*
X8176381Y-11207963D02*
X8267095Y-11238201D01*
X8267095Y-11238201D02*
X8297333Y-11268439D01*
X8902095Y-11842963D02*
X8539238Y-11842963D01*
X8720666Y-11842963D02*
X8720666Y-11207963D01*
X8720666Y-11207963D02*
X8660190Y-11298677D01*
X8660190Y-11298677D02*
X8599714Y-11359153D01*
X8599714Y-11359153D02*
X8539238Y-11389391D01*
X9476619Y-11207963D02*
X9174238Y-11207963D01*
X9174238Y-11207963D02*
X9144000Y-11510344D01*
X9144000Y-11510344D02*
X9174238Y-11480105D01*
X9174238Y-11480105D02*
X9234714Y-11449867D01*
X9234714Y-11449867D02*
X9385905Y-11449867D01*
X9385905Y-11449867D02*
X9446381Y-11480105D01*
X9446381Y-11480105D02*
X9476619Y-11510344D01*
X9476619Y-11510344D02*
X9506857Y-11570820D01*
X9506857Y-11570820D02*
X9506857Y-11722010D01*
X9506857Y-11722010D02*
X9476619Y-11782486D01*
X9476619Y-11782486D02*
X9446381Y-11812725D01*
X9446381Y-11812725D02*
X9385905Y-11842963D01*
X9385905Y-11842963D02*
X9234714Y-11842963D01*
X9234714Y-11842963D02*
X9174238Y-11812725D01*
X9174238Y-11812725D02*
X9144000Y-11782486D01*
X9718524Y-11207963D02*
X10141857Y-11207963D01*
X10141857Y-11207963D02*
X9869714Y-11842963D01*
%TO.C,IC4*%
X7254119Y-17049963D02*
X7254119Y-16414963D01*
X7919357Y-16989486D02*
X7889119Y-17019725D01*
X7889119Y-17019725D02*
X7798405Y-17049963D01*
X7798405Y-17049963D02*
X7737929Y-17049963D01*
X7737929Y-17049963D02*
X7647214Y-17019725D01*
X7647214Y-17019725D02*
X7586738Y-16959248D01*
X7586738Y-16959248D02*
X7556500Y-16898772D01*
X7556500Y-16898772D02*
X7526262Y-16777820D01*
X7526262Y-16777820D02*
X7526262Y-16687105D01*
X7526262Y-16687105D02*
X7556500Y-16566153D01*
X7556500Y-16566153D02*
X7586738Y-16505677D01*
X7586738Y-16505677D02*
X7647214Y-16445201D01*
X7647214Y-16445201D02*
X7737929Y-16414963D01*
X7737929Y-16414963D02*
X7798405Y-16414963D01*
X7798405Y-16414963D02*
X7889119Y-16445201D01*
X7889119Y-16445201D02*
X7919357Y-16475439D01*
X8463643Y-16626629D02*
X8463643Y-17049963D01*
X8312452Y-16384725D02*
X8161262Y-16838296D01*
X8161262Y-16838296D02*
X8554357Y-16838296D01*
X5606142Y-21621963D02*
X6029475Y-21621963D01*
X6029475Y-21621963D02*
X5757332Y-22256963D01*
X6543523Y-21833629D02*
X6543523Y-22256963D01*
X6392332Y-21591725D02*
X6241142Y-22045296D01*
X6241142Y-22045296D02*
X6634237Y-22045296D01*
X7178523Y-22256963D02*
X6876142Y-22256963D01*
X6876142Y-22256963D02*
X6876142Y-21621963D01*
X7299476Y-21621963D02*
X7511142Y-22256963D01*
X7511142Y-22256963D02*
X7722809Y-21621963D01*
X8297333Y-22196486D02*
X8267095Y-22226725D01*
X8267095Y-22226725D02*
X8176381Y-22256963D01*
X8176381Y-22256963D02*
X8115905Y-22256963D01*
X8115905Y-22256963D02*
X8025190Y-22226725D01*
X8025190Y-22226725D02*
X7964714Y-22166248D01*
X7964714Y-22166248D02*
X7934476Y-22105772D01*
X7934476Y-22105772D02*
X7904238Y-21984820D01*
X7904238Y-21984820D02*
X7904238Y-21894105D01*
X7904238Y-21894105D02*
X7934476Y-21773153D01*
X7934476Y-21773153D02*
X7964714Y-21712677D01*
X7964714Y-21712677D02*
X8025190Y-21652201D01*
X8025190Y-21652201D02*
X8115905Y-21621963D01*
X8115905Y-21621963D02*
X8176381Y-21621963D01*
X8176381Y-21621963D02*
X8267095Y-21652201D01*
X8267095Y-21652201D02*
X8297333Y-21682439D01*
X8902095Y-22256963D02*
X8539238Y-22256963D01*
X8720666Y-22256963D02*
X8720666Y-21621963D01*
X8720666Y-21621963D02*
X8660190Y-21712677D01*
X8660190Y-21712677D02*
X8599714Y-21773153D01*
X8599714Y-21773153D02*
X8539238Y-21803391D01*
X9476619Y-21621963D02*
X9174238Y-21621963D01*
X9174238Y-21621963D02*
X9144000Y-21924344D01*
X9144000Y-21924344D02*
X9174238Y-21894105D01*
X9174238Y-21894105D02*
X9234714Y-21863867D01*
X9234714Y-21863867D02*
X9385905Y-21863867D01*
X9385905Y-21863867D02*
X9446381Y-21894105D01*
X9446381Y-21894105D02*
X9476619Y-21924344D01*
X9476619Y-21924344D02*
X9506857Y-21984820D01*
X9506857Y-21984820D02*
X9506857Y-22136010D01*
X9506857Y-22136010D02*
X9476619Y-22196486D01*
X9476619Y-22196486D02*
X9446381Y-22226725D01*
X9446381Y-22226725D02*
X9385905Y-22256963D01*
X9385905Y-22256963D02*
X9234714Y-22256963D01*
X9234714Y-22256963D02*
X9174238Y-22226725D01*
X9174238Y-22226725D02*
X9144000Y-22196486D01*
X9718524Y-21621963D02*
X10141857Y-21621963D01*
X10141857Y-21621963D02*
X9869714Y-22256963D01*
%TO.C,IC3*%
X7254119Y-40163963D02*
X7254119Y-39528963D01*
X7919357Y-40103486D02*
X7889119Y-40133725D01*
X7889119Y-40133725D02*
X7798405Y-40163963D01*
X7798405Y-40163963D02*
X7737929Y-40163963D01*
X7737929Y-40163963D02*
X7647214Y-40133725D01*
X7647214Y-40133725D02*
X7586738Y-40073248D01*
X7586738Y-40073248D02*
X7556500Y-40012772D01*
X7556500Y-40012772D02*
X7526262Y-39891820D01*
X7526262Y-39891820D02*
X7526262Y-39801105D01*
X7526262Y-39801105D02*
X7556500Y-39680153D01*
X7556500Y-39680153D02*
X7586738Y-39619677D01*
X7586738Y-39619677D02*
X7647214Y-39559201D01*
X7647214Y-39559201D02*
X7737929Y-39528963D01*
X7737929Y-39528963D02*
X7798405Y-39528963D01*
X7798405Y-39528963D02*
X7889119Y-39559201D01*
X7889119Y-39559201D02*
X7919357Y-39589439D01*
X8131024Y-39528963D02*
X8524119Y-39528963D01*
X8524119Y-39528963D02*
X8312452Y-39770867D01*
X8312452Y-39770867D02*
X8403167Y-39770867D01*
X8403167Y-39770867D02*
X8463643Y-39801105D01*
X8463643Y-39801105D02*
X8493881Y-39831344D01*
X8493881Y-39831344D02*
X8524119Y-39891820D01*
X8524119Y-39891820D02*
X8524119Y-40043010D01*
X8524119Y-40043010D02*
X8493881Y-40103486D01*
X8493881Y-40103486D02*
X8463643Y-40133725D01*
X8463643Y-40133725D02*
X8403167Y-40163963D01*
X8403167Y-40163963D02*
X8221738Y-40163963D01*
X8221738Y-40163963D02*
X8161262Y-40133725D01*
X8161262Y-40133725D02*
X8131024Y-40103486D01*
X5606142Y-44735963D02*
X6029475Y-44735963D01*
X6029475Y-44735963D02*
X5757332Y-45370963D01*
X6543523Y-44947629D02*
X6543523Y-45370963D01*
X6392332Y-44705725D02*
X6241142Y-45159296D01*
X6241142Y-45159296D02*
X6634237Y-45159296D01*
X7178523Y-45370963D02*
X6876142Y-45370963D01*
X6876142Y-45370963D02*
X6876142Y-44735963D01*
X7299476Y-44735963D02*
X7511142Y-45370963D01*
X7511142Y-45370963D02*
X7722809Y-44735963D01*
X8297333Y-45310486D02*
X8267095Y-45340725D01*
X8267095Y-45340725D02*
X8176381Y-45370963D01*
X8176381Y-45370963D02*
X8115905Y-45370963D01*
X8115905Y-45370963D02*
X8025190Y-45340725D01*
X8025190Y-45340725D02*
X7964714Y-45280248D01*
X7964714Y-45280248D02*
X7934476Y-45219772D01*
X7934476Y-45219772D02*
X7904238Y-45098820D01*
X7904238Y-45098820D02*
X7904238Y-45008105D01*
X7904238Y-45008105D02*
X7934476Y-44887153D01*
X7934476Y-44887153D02*
X7964714Y-44826677D01*
X7964714Y-44826677D02*
X8025190Y-44766201D01*
X8025190Y-44766201D02*
X8115905Y-44735963D01*
X8115905Y-44735963D02*
X8176381Y-44735963D01*
X8176381Y-44735963D02*
X8267095Y-44766201D01*
X8267095Y-44766201D02*
X8297333Y-44796439D01*
X8902095Y-45370963D02*
X8539238Y-45370963D01*
X8720666Y-45370963D02*
X8720666Y-44735963D01*
X8720666Y-44735963D02*
X8660190Y-44826677D01*
X8660190Y-44826677D02*
X8599714Y-44887153D01*
X8599714Y-44887153D02*
X8539238Y-44917391D01*
X9476619Y-44735963D02*
X9174238Y-44735963D01*
X9174238Y-44735963D02*
X9144000Y-45038344D01*
X9144000Y-45038344D02*
X9174238Y-45008105D01*
X9174238Y-45008105D02*
X9234714Y-44977867D01*
X9234714Y-44977867D02*
X9385905Y-44977867D01*
X9385905Y-44977867D02*
X9446381Y-45008105D01*
X9446381Y-45008105D02*
X9476619Y-45038344D01*
X9476619Y-45038344D02*
X9506857Y-45098820D01*
X9506857Y-45098820D02*
X9506857Y-45250010D01*
X9506857Y-45250010D02*
X9476619Y-45310486D01*
X9476619Y-45310486D02*
X9446381Y-45340725D01*
X9446381Y-45340725D02*
X9385905Y-45370963D01*
X9385905Y-45370963D02*
X9234714Y-45370963D01*
X9234714Y-45370963D02*
X9174238Y-45340725D01*
X9174238Y-45340725D02*
X9144000Y-45310486D01*
X9718524Y-44735963D02*
X10141857Y-44735963D01*
X10141857Y-44735963D02*
X9869714Y-45370963D01*
%TO.C,IC2*%
X7254119Y-51593963D02*
X7254119Y-50958963D01*
X7919357Y-51533486D02*
X7889119Y-51563725D01*
X7889119Y-51563725D02*
X7798405Y-51593963D01*
X7798405Y-51593963D02*
X7737929Y-51593963D01*
X7737929Y-51593963D02*
X7647214Y-51563725D01*
X7647214Y-51563725D02*
X7586738Y-51503248D01*
X7586738Y-51503248D02*
X7556500Y-51442772D01*
X7556500Y-51442772D02*
X7526262Y-51321820D01*
X7526262Y-51321820D02*
X7526262Y-51231105D01*
X7526262Y-51231105D02*
X7556500Y-51110153D01*
X7556500Y-51110153D02*
X7586738Y-51049677D01*
X7586738Y-51049677D02*
X7647214Y-50989201D01*
X7647214Y-50989201D02*
X7737929Y-50958963D01*
X7737929Y-50958963D02*
X7798405Y-50958963D01*
X7798405Y-50958963D02*
X7889119Y-50989201D01*
X7889119Y-50989201D02*
X7919357Y-51019439D01*
X8161262Y-51019439D02*
X8191500Y-50989201D01*
X8191500Y-50989201D02*
X8251976Y-50958963D01*
X8251976Y-50958963D02*
X8403167Y-50958963D01*
X8403167Y-50958963D02*
X8463643Y-50989201D01*
X8463643Y-50989201D02*
X8493881Y-51019439D01*
X8493881Y-51019439D02*
X8524119Y-51079915D01*
X8524119Y-51079915D02*
X8524119Y-51140391D01*
X8524119Y-51140391D02*
X8493881Y-51231105D01*
X8493881Y-51231105D02*
X8131024Y-51593963D01*
X8131024Y-51593963D02*
X8524119Y-51593963D01*
X5606142Y-56165963D02*
X6029475Y-56165963D01*
X6029475Y-56165963D02*
X5757332Y-56800963D01*
X6543523Y-56377629D02*
X6543523Y-56800963D01*
X6392332Y-56135725D02*
X6241142Y-56589296D01*
X6241142Y-56589296D02*
X6634237Y-56589296D01*
X7178523Y-56800963D02*
X6876142Y-56800963D01*
X6876142Y-56800963D02*
X6876142Y-56165963D01*
X7299476Y-56165963D02*
X7511142Y-56800963D01*
X7511142Y-56800963D02*
X7722809Y-56165963D01*
X8297333Y-56740486D02*
X8267095Y-56770725D01*
X8267095Y-56770725D02*
X8176381Y-56800963D01*
X8176381Y-56800963D02*
X8115905Y-56800963D01*
X8115905Y-56800963D02*
X8025190Y-56770725D01*
X8025190Y-56770725D02*
X7964714Y-56710248D01*
X7964714Y-56710248D02*
X7934476Y-56649772D01*
X7934476Y-56649772D02*
X7904238Y-56528820D01*
X7904238Y-56528820D02*
X7904238Y-56438105D01*
X7904238Y-56438105D02*
X7934476Y-56317153D01*
X7934476Y-56317153D02*
X7964714Y-56256677D01*
X7964714Y-56256677D02*
X8025190Y-56196201D01*
X8025190Y-56196201D02*
X8115905Y-56165963D01*
X8115905Y-56165963D02*
X8176381Y-56165963D01*
X8176381Y-56165963D02*
X8267095Y-56196201D01*
X8267095Y-56196201D02*
X8297333Y-56226439D01*
X8902095Y-56800963D02*
X8539238Y-56800963D01*
X8720666Y-56800963D02*
X8720666Y-56165963D01*
X8720666Y-56165963D02*
X8660190Y-56256677D01*
X8660190Y-56256677D02*
X8599714Y-56317153D01*
X8599714Y-56317153D02*
X8539238Y-56347391D01*
X9476619Y-56165963D02*
X9174238Y-56165963D01*
X9174238Y-56165963D02*
X9144000Y-56468344D01*
X9144000Y-56468344D02*
X9174238Y-56438105D01*
X9174238Y-56438105D02*
X9234714Y-56407867D01*
X9234714Y-56407867D02*
X9385905Y-56407867D01*
X9385905Y-56407867D02*
X9446381Y-56438105D01*
X9446381Y-56438105D02*
X9476619Y-56468344D01*
X9476619Y-56468344D02*
X9506857Y-56528820D01*
X9506857Y-56528820D02*
X9506857Y-56680010D01*
X9506857Y-56680010D02*
X9476619Y-56740486D01*
X9476619Y-56740486D02*
X9446381Y-56770725D01*
X9446381Y-56770725D02*
X9385905Y-56800963D01*
X9385905Y-56800963D02*
X9234714Y-56800963D01*
X9234714Y-56800963D02*
X9174238Y-56770725D01*
X9174238Y-56770725D02*
X9144000Y-56740486D01*
X9718524Y-56165963D02*
X10141857Y-56165963D01*
X10141857Y-56165963D02*
X9869714Y-56800963D01*
%TO.C,IC1*%
X7254119Y-28098963D02*
X7254119Y-27463963D01*
X7919357Y-28038486D02*
X7889119Y-28068725D01*
X7889119Y-28068725D02*
X7798405Y-28098963D01*
X7798405Y-28098963D02*
X7737929Y-28098963D01*
X7737929Y-28098963D02*
X7647214Y-28068725D01*
X7647214Y-28068725D02*
X7586738Y-28008248D01*
X7586738Y-28008248D02*
X7556500Y-27947772D01*
X7556500Y-27947772D02*
X7526262Y-27826820D01*
X7526262Y-27826820D02*
X7526262Y-27736105D01*
X7526262Y-27736105D02*
X7556500Y-27615153D01*
X7556500Y-27615153D02*
X7586738Y-27554677D01*
X7586738Y-27554677D02*
X7647214Y-27494201D01*
X7647214Y-27494201D02*
X7737929Y-27463963D01*
X7737929Y-27463963D02*
X7798405Y-27463963D01*
X7798405Y-27463963D02*
X7889119Y-27494201D01*
X7889119Y-27494201D02*
X7919357Y-27524439D01*
X8524119Y-28098963D02*
X8161262Y-28098963D01*
X8342690Y-28098963D02*
X8342690Y-27463963D01*
X8342690Y-27463963D02*
X8282214Y-27554677D01*
X8282214Y-27554677D02*
X8221738Y-27615153D01*
X8221738Y-27615153D02*
X8161262Y-27645391D01*
X5606142Y-32670963D02*
X6029475Y-32670963D01*
X6029475Y-32670963D02*
X5757332Y-33305963D01*
X6543523Y-32882629D02*
X6543523Y-33305963D01*
X6392332Y-32640725D02*
X6241142Y-33094296D01*
X6241142Y-33094296D02*
X6634237Y-33094296D01*
X7178523Y-33305963D02*
X6876142Y-33305963D01*
X6876142Y-33305963D02*
X6876142Y-32670963D01*
X7299476Y-32670963D02*
X7511142Y-33305963D01*
X7511142Y-33305963D02*
X7722809Y-32670963D01*
X8297333Y-33245486D02*
X8267095Y-33275725D01*
X8267095Y-33275725D02*
X8176381Y-33305963D01*
X8176381Y-33305963D02*
X8115905Y-33305963D01*
X8115905Y-33305963D02*
X8025190Y-33275725D01*
X8025190Y-33275725D02*
X7964714Y-33215248D01*
X7964714Y-33215248D02*
X7934476Y-33154772D01*
X7934476Y-33154772D02*
X7904238Y-33033820D01*
X7904238Y-33033820D02*
X7904238Y-32943105D01*
X7904238Y-32943105D02*
X7934476Y-32822153D01*
X7934476Y-32822153D02*
X7964714Y-32761677D01*
X7964714Y-32761677D02*
X8025190Y-32701201D01*
X8025190Y-32701201D02*
X8115905Y-32670963D01*
X8115905Y-32670963D02*
X8176381Y-32670963D01*
X8176381Y-32670963D02*
X8267095Y-32701201D01*
X8267095Y-32701201D02*
X8297333Y-32731439D01*
X8902095Y-33305963D02*
X8539238Y-33305963D01*
X8720666Y-33305963D02*
X8720666Y-32670963D01*
X8720666Y-32670963D02*
X8660190Y-32761677D01*
X8660190Y-32761677D02*
X8599714Y-32822153D01*
X8599714Y-32822153D02*
X8539238Y-32852391D01*
X9476619Y-32670963D02*
X9174238Y-32670963D01*
X9174238Y-32670963D02*
X9144000Y-32973344D01*
X9144000Y-32973344D02*
X9174238Y-32943105D01*
X9174238Y-32943105D02*
X9234714Y-32912867D01*
X9234714Y-32912867D02*
X9385905Y-32912867D01*
X9385905Y-32912867D02*
X9446381Y-32943105D01*
X9446381Y-32943105D02*
X9476619Y-32973344D01*
X9476619Y-32973344D02*
X9506857Y-33033820D01*
X9506857Y-33033820D02*
X9506857Y-33185010D01*
X9506857Y-33185010D02*
X9476619Y-33245486D01*
X9476619Y-33245486D02*
X9446381Y-33275725D01*
X9446381Y-33275725D02*
X9385905Y-33305963D01*
X9385905Y-33305963D02*
X9234714Y-33305963D01*
X9234714Y-33305963D02*
X9174238Y-33275725D01*
X9174238Y-33275725D02*
X9144000Y-33245486D01*
X9718524Y-32670963D02*
X10141857Y-32670963D01*
X10141857Y-32670963D02*
X9869714Y-33305963D01*
%TO.C,C45*%
X3966785Y-76636486D02*
X3936547Y-76666725D01*
X3936547Y-76666725D02*
X3845833Y-76696963D01*
X3845833Y-76696963D02*
X3785357Y-76696963D01*
X3785357Y-76696963D02*
X3694642Y-76666725D01*
X3694642Y-76666725D02*
X3634166Y-76606248D01*
X3634166Y-76606248D02*
X3603928Y-76545772D01*
X3603928Y-76545772D02*
X3573690Y-76424820D01*
X3573690Y-76424820D02*
X3573690Y-76334105D01*
X3573690Y-76334105D02*
X3603928Y-76213153D01*
X3603928Y-76213153D02*
X3634166Y-76152677D01*
X3634166Y-76152677D02*
X3694642Y-76092201D01*
X3694642Y-76092201D02*
X3785357Y-76061963D01*
X3785357Y-76061963D02*
X3845833Y-76061963D01*
X3845833Y-76061963D02*
X3936547Y-76092201D01*
X3936547Y-76092201D02*
X3966785Y-76122439D01*
X4511071Y-76273629D02*
X4511071Y-76696963D01*
X4359880Y-76031725D02*
X4208690Y-76485296D01*
X4208690Y-76485296D02*
X4601785Y-76485296D01*
X5146071Y-76061963D02*
X4843690Y-76061963D01*
X4843690Y-76061963D02*
X4813452Y-76364344D01*
X4813452Y-76364344D02*
X4843690Y-76334105D01*
X4843690Y-76334105D02*
X4904166Y-76303867D01*
X4904166Y-76303867D02*
X5055357Y-76303867D01*
X5055357Y-76303867D02*
X5115833Y-76334105D01*
X5115833Y-76334105D02*
X5146071Y-76364344D01*
X5146071Y-76364344D02*
X5176309Y-76424820D01*
X5176309Y-76424820D02*
X5176309Y-76576010D01*
X5176309Y-76576010D02*
X5146071Y-76636486D01*
X5146071Y-76636486D02*
X5115833Y-76666725D01*
X5115833Y-76666725D02*
X5055357Y-76696963D01*
X5055357Y-76696963D02*
X4904166Y-76696963D01*
X4904166Y-76696963D02*
X4843690Y-76666725D01*
X4843690Y-76666725D02*
X4813452Y-76636486D01*
X3622285Y-80803963D02*
X3259428Y-80803963D01*
X3440856Y-80803963D02*
X3440856Y-80168963D01*
X3440856Y-80168963D02*
X3380380Y-80259677D01*
X3380380Y-80259677D02*
X3319904Y-80320153D01*
X3319904Y-80320153D02*
X3259428Y-80350391D01*
X4015380Y-80168963D02*
X4075857Y-80168963D01*
X4075857Y-80168963D02*
X4136333Y-80199201D01*
X4136333Y-80199201D02*
X4166571Y-80229439D01*
X4166571Y-80229439D02*
X4196809Y-80289915D01*
X4196809Y-80289915D02*
X4227047Y-80410867D01*
X4227047Y-80410867D02*
X4227047Y-80562058D01*
X4227047Y-80562058D02*
X4196809Y-80683010D01*
X4196809Y-80683010D02*
X4166571Y-80743486D01*
X4166571Y-80743486D02*
X4136333Y-80773725D01*
X4136333Y-80773725D02*
X4075857Y-80803963D01*
X4075857Y-80803963D02*
X4015380Y-80803963D01*
X4015380Y-80803963D02*
X3954904Y-80773725D01*
X3954904Y-80773725D02*
X3924666Y-80743486D01*
X3924666Y-80743486D02*
X3894428Y-80683010D01*
X3894428Y-80683010D02*
X3864190Y-80562058D01*
X3864190Y-80562058D02*
X3864190Y-80410867D01*
X3864190Y-80410867D02*
X3894428Y-80289915D01*
X3894428Y-80289915D02*
X3924666Y-80229439D01*
X3924666Y-80229439D02*
X3954904Y-80199201D01*
X3954904Y-80199201D02*
X4015380Y-80168963D01*
X4499190Y-80380629D02*
X4499190Y-81015629D01*
X4801571Y-80713248D02*
X4831809Y-80773725D01*
X4831809Y-80773725D02*
X4892285Y-80803963D01*
X4499190Y-80713248D02*
X4529428Y-80773725D01*
X4529428Y-80773725D02*
X4589904Y-80803963D01*
X4589904Y-80803963D02*
X4710857Y-80803963D01*
X4710857Y-80803963D02*
X4771333Y-80773725D01*
X4771333Y-80773725D02*
X4801571Y-80713248D01*
X4801571Y-80713248D02*
X4801571Y-80380629D01*
X5376095Y-80471344D02*
X5164428Y-80471344D01*
X5164428Y-80803963D02*
X5164428Y-80168963D01*
X5164428Y-80168963D02*
X5466809Y-80168963D01*
%TO.C,C1*%
X8056486Y-25986833D02*
X8086725Y-26017071D01*
X8086725Y-26017071D02*
X8116963Y-26107785D01*
X8116963Y-26107785D02*
X8116963Y-26168261D01*
X8116963Y-26168261D02*
X8086725Y-26258976D01*
X8086725Y-26258976D02*
X8026248Y-26319452D01*
X8026248Y-26319452D02*
X7965772Y-26349690D01*
X7965772Y-26349690D02*
X7844820Y-26379928D01*
X7844820Y-26379928D02*
X7754105Y-26379928D01*
X7754105Y-26379928D02*
X7633153Y-26349690D01*
X7633153Y-26349690D02*
X7572677Y-26319452D01*
X7572677Y-26319452D02*
X7512201Y-26258976D01*
X7512201Y-26258976D02*
X7481963Y-26168261D01*
X7481963Y-26168261D02*
X7481963Y-26107785D01*
X7481963Y-26107785D02*
X7512201Y-26017071D01*
X7512201Y-26017071D02*
X7542439Y-25986833D01*
X8116963Y-25382071D02*
X8116963Y-25744928D01*
X8116963Y-25563500D02*
X7481963Y-25563500D01*
X7481963Y-25563500D02*
X7572677Y-25623976D01*
X7572677Y-25623976D02*
X7633153Y-25684452D01*
X7633153Y-25684452D02*
X7663391Y-25744928D01*
X12223963Y-26331333D02*
X12223963Y-26694190D01*
X12223963Y-26512762D02*
X11588963Y-26512762D01*
X11588963Y-26512762D02*
X11679677Y-26573238D01*
X11679677Y-26573238D02*
X11740153Y-26633714D01*
X11740153Y-26633714D02*
X11770391Y-26694190D01*
X11800629Y-26059190D02*
X12435629Y-26059190D01*
X12133248Y-25756809D02*
X12193725Y-25726571D01*
X12193725Y-25726571D02*
X12223963Y-25666095D01*
X12133248Y-26059190D02*
X12193725Y-26028952D01*
X12193725Y-26028952D02*
X12223963Y-25968476D01*
X12223963Y-25968476D02*
X12223963Y-25847523D01*
X12223963Y-25847523D02*
X12193725Y-25787047D01*
X12193725Y-25787047D02*
X12133248Y-25756809D01*
X12133248Y-25756809D02*
X11800629Y-25756809D01*
X11891344Y-25182285D02*
X11891344Y-25393952D01*
X12223963Y-25393952D02*
X11588963Y-25393952D01*
X11588963Y-25393952D02*
X11588963Y-25091571D01*
%TO.C,C5*%
X8056486Y-4523833D02*
X8086725Y-4554071D01*
X8086725Y-4554071D02*
X8116963Y-4644785D01*
X8116963Y-4644785D02*
X8116963Y-4705261D01*
X8116963Y-4705261D02*
X8086725Y-4795976D01*
X8086725Y-4795976D02*
X8026248Y-4856452D01*
X8026248Y-4856452D02*
X7965772Y-4886690D01*
X7965772Y-4886690D02*
X7844820Y-4916928D01*
X7844820Y-4916928D02*
X7754105Y-4916928D01*
X7754105Y-4916928D02*
X7633153Y-4886690D01*
X7633153Y-4886690D02*
X7572677Y-4856452D01*
X7572677Y-4856452D02*
X7512201Y-4795976D01*
X7512201Y-4795976D02*
X7481963Y-4705261D01*
X7481963Y-4705261D02*
X7481963Y-4644785D01*
X7481963Y-4644785D02*
X7512201Y-4554071D01*
X7512201Y-4554071D02*
X7542439Y-4523833D01*
X7481963Y-3949309D02*
X7481963Y-4251690D01*
X7481963Y-4251690D02*
X7784344Y-4281928D01*
X7784344Y-4281928D02*
X7754105Y-4251690D01*
X7754105Y-4251690D02*
X7723867Y-4191214D01*
X7723867Y-4191214D02*
X7723867Y-4040023D01*
X7723867Y-4040023D02*
X7754105Y-3979547D01*
X7754105Y-3979547D02*
X7784344Y-3949309D01*
X7784344Y-3949309D02*
X7844820Y-3919071D01*
X7844820Y-3919071D02*
X7996010Y-3919071D01*
X7996010Y-3919071D02*
X8056486Y-3949309D01*
X8056486Y-3949309D02*
X8086725Y-3979547D01*
X8086725Y-3979547D02*
X8116963Y-4040023D01*
X8116963Y-4040023D02*
X8116963Y-4191214D01*
X8116963Y-4191214D02*
X8086725Y-4251690D01*
X8086725Y-4251690D02*
X8056486Y-4281928D01*
X12223963Y-4868333D02*
X12223963Y-5231190D01*
X12223963Y-5049762D02*
X11588963Y-5049762D01*
X11588963Y-5049762D02*
X11679677Y-5110238D01*
X11679677Y-5110238D02*
X11740153Y-5170714D01*
X11740153Y-5170714D02*
X11770391Y-5231190D01*
X11800629Y-4596190D02*
X12435629Y-4596190D01*
X12133248Y-4293809D02*
X12193725Y-4263571D01*
X12193725Y-4263571D02*
X12223963Y-4203095D01*
X12133248Y-4596190D02*
X12193725Y-4565952D01*
X12193725Y-4565952D02*
X12223963Y-4505476D01*
X12223963Y-4505476D02*
X12223963Y-4384523D01*
X12223963Y-4384523D02*
X12193725Y-4324047D01*
X12193725Y-4324047D02*
X12133248Y-4293809D01*
X12133248Y-4293809D02*
X11800629Y-4293809D01*
X11891344Y-3719285D02*
X11891344Y-3930952D01*
X12223963Y-3930952D02*
X11588963Y-3930952D01*
X11588963Y-3930952D02*
X11588963Y-3628571D01*
%TO.C,C46*%
X10921785Y-76509486D02*
X10891547Y-76539725D01*
X10891547Y-76539725D02*
X10800833Y-76569963D01*
X10800833Y-76569963D02*
X10740357Y-76569963D01*
X10740357Y-76569963D02*
X10649642Y-76539725D01*
X10649642Y-76539725D02*
X10589166Y-76479248D01*
X10589166Y-76479248D02*
X10558928Y-76418772D01*
X10558928Y-76418772D02*
X10528690Y-76297820D01*
X10528690Y-76297820D02*
X10528690Y-76207105D01*
X10528690Y-76207105D02*
X10558928Y-76086153D01*
X10558928Y-76086153D02*
X10589166Y-76025677D01*
X10589166Y-76025677D02*
X10649642Y-75965201D01*
X10649642Y-75965201D02*
X10740357Y-75934963D01*
X10740357Y-75934963D02*
X10800833Y-75934963D01*
X10800833Y-75934963D02*
X10891547Y-75965201D01*
X10891547Y-75965201D02*
X10921785Y-75995439D01*
X11466071Y-76146629D02*
X11466071Y-76569963D01*
X11314880Y-75904725D02*
X11163690Y-76358296D01*
X11163690Y-76358296D02*
X11556785Y-76358296D01*
X12070833Y-75934963D02*
X11949880Y-75934963D01*
X11949880Y-75934963D02*
X11889404Y-75965201D01*
X11889404Y-75965201D02*
X11859166Y-75995439D01*
X11859166Y-75995439D02*
X11798690Y-76086153D01*
X11798690Y-76086153D02*
X11768452Y-76207105D01*
X11768452Y-76207105D02*
X11768452Y-76449010D01*
X11768452Y-76449010D02*
X11798690Y-76509486D01*
X11798690Y-76509486D02*
X11828928Y-76539725D01*
X11828928Y-76539725D02*
X11889404Y-76569963D01*
X11889404Y-76569963D02*
X12010357Y-76569963D01*
X12010357Y-76569963D02*
X12070833Y-76539725D01*
X12070833Y-76539725D02*
X12101071Y-76509486D01*
X12101071Y-76509486D02*
X12131309Y-76449010D01*
X12131309Y-76449010D02*
X12131309Y-76297820D01*
X12131309Y-76297820D02*
X12101071Y-76237344D01*
X12101071Y-76237344D02*
X12070833Y-76207105D01*
X12070833Y-76207105D02*
X12010357Y-76176867D01*
X12010357Y-76176867D02*
X11889404Y-76176867D01*
X11889404Y-76176867D02*
X11828928Y-76207105D01*
X11828928Y-76207105D02*
X11798690Y-76237344D01*
X11798690Y-76237344D02*
X11768452Y-76297820D01*
X10577285Y-80676963D02*
X10214428Y-80676963D01*
X10395856Y-80676963D02*
X10395856Y-80041963D01*
X10395856Y-80041963D02*
X10335380Y-80132677D01*
X10335380Y-80132677D02*
X10274904Y-80193153D01*
X10274904Y-80193153D02*
X10214428Y-80223391D01*
X10970380Y-80041963D02*
X11030857Y-80041963D01*
X11030857Y-80041963D02*
X11091333Y-80072201D01*
X11091333Y-80072201D02*
X11121571Y-80102439D01*
X11121571Y-80102439D02*
X11151809Y-80162915D01*
X11151809Y-80162915D02*
X11182047Y-80283867D01*
X11182047Y-80283867D02*
X11182047Y-80435058D01*
X11182047Y-80435058D02*
X11151809Y-80556010D01*
X11151809Y-80556010D02*
X11121571Y-80616486D01*
X11121571Y-80616486D02*
X11091333Y-80646725D01*
X11091333Y-80646725D02*
X11030857Y-80676963D01*
X11030857Y-80676963D02*
X10970380Y-80676963D01*
X10970380Y-80676963D02*
X10909904Y-80646725D01*
X10909904Y-80646725D02*
X10879666Y-80616486D01*
X10879666Y-80616486D02*
X10849428Y-80556010D01*
X10849428Y-80556010D02*
X10819190Y-80435058D01*
X10819190Y-80435058D02*
X10819190Y-80283867D01*
X10819190Y-80283867D02*
X10849428Y-80162915D01*
X10849428Y-80162915D02*
X10879666Y-80102439D01*
X10879666Y-80102439D02*
X10909904Y-80072201D01*
X10909904Y-80072201D02*
X10970380Y-80041963D01*
X11454190Y-80253629D02*
X11454190Y-80888629D01*
X11756571Y-80586248D02*
X11786809Y-80646725D01*
X11786809Y-80646725D02*
X11847285Y-80676963D01*
X11454190Y-80586248D02*
X11484428Y-80646725D01*
X11484428Y-80646725D02*
X11544904Y-80676963D01*
X11544904Y-80676963D02*
X11665857Y-80676963D01*
X11665857Y-80676963D02*
X11726333Y-80646725D01*
X11726333Y-80646725D02*
X11756571Y-80586248D01*
X11756571Y-80586248D02*
X11756571Y-80253629D01*
X12331095Y-80344344D02*
X12119428Y-80344344D01*
X12119428Y-80676963D02*
X12119428Y-80041963D01*
X12119428Y-80041963D02*
X12421809Y-80041963D01*
%TO.C,C2*%
X8310486Y-38051833D02*
X8340725Y-38082071D01*
X8340725Y-38082071D02*
X8370963Y-38172785D01*
X8370963Y-38172785D02*
X8370963Y-38233261D01*
X8370963Y-38233261D02*
X8340725Y-38323976D01*
X8340725Y-38323976D02*
X8280248Y-38384452D01*
X8280248Y-38384452D02*
X8219772Y-38414690D01*
X8219772Y-38414690D02*
X8098820Y-38444928D01*
X8098820Y-38444928D02*
X8008105Y-38444928D01*
X8008105Y-38444928D02*
X7887153Y-38414690D01*
X7887153Y-38414690D02*
X7826677Y-38384452D01*
X7826677Y-38384452D02*
X7766201Y-38323976D01*
X7766201Y-38323976D02*
X7735963Y-38233261D01*
X7735963Y-38233261D02*
X7735963Y-38172785D01*
X7735963Y-38172785D02*
X7766201Y-38082071D01*
X7766201Y-38082071D02*
X7796439Y-38051833D01*
X7796439Y-37809928D02*
X7766201Y-37779690D01*
X7766201Y-37779690D02*
X7735963Y-37719214D01*
X7735963Y-37719214D02*
X7735963Y-37568023D01*
X7735963Y-37568023D02*
X7766201Y-37507547D01*
X7766201Y-37507547D02*
X7796439Y-37477309D01*
X7796439Y-37477309D02*
X7856915Y-37447071D01*
X7856915Y-37447071D02*
X7917391Y-37447071D01*
X7917391Y-37447071D02*
X8008105Y-37477309D01*
X8008105Y-37477309D02*
X8370963Y-37840166D01*
X8370963Y-37840166D02*
X8370963Y-37447071D01*
X12477963Y-38396333D02*
X12477963Y-38759190D01*
X12477963Y-38577762D02*
X11842963Y-38577762D01*
X11842963Y-38577762D02*
X11933677Y-38638238D01*
X11933677Y-38638238D02*
X11994153Y-38698714D01*
X11994153Y-38698714D02*
X12024391Y-38759190D01*
X12054629Y-38124190D02*
X12689629Y-38124190D01*
X12387248Y-37821809D02*
X12447725Y-37791571D01*
X12447725Y-37791571D02*
X12477963Y-37731095D01*
X12387248Y-38124190D02*
X12447725Y-38093952D01*
X12447725Y-38093952D02*
X12477963Y-38033476D01*
X12477963Y-38033476D02*
X12477963Y-37912523D01*
X12477963Y-37912523D02*
X12447725Y-37852047D01*
X12447725Y-37852047D02*
X12387248Y-37821809D01*
X12387248Y-37821809D02*
X12054629Y-37821809D01*
X12145344Y-37247285D02*
X12145344Y-37458952D01*
X12477963Y-37458952D02*
X11842963Y-37458952D01*
X11842963Y-37458952D02*
X11842963Y-37156571D01*
%TO.C,C4*%
X8260486Y-49481833D02*
X8290725Y-49512071D01*
X8290725Y-49512071D02*
X8320963Y-49602785D01*
X8320963Y-49602785D02*
X8320963Y-49663261D01*
X8320963Y-49663261D02*
X8290725Y-49753976D01*
X8290725Y-49753976D02*
X8230248Y-49814452D01*
X8230248Y-49814452D02*
X8169772Y-49844690D01*
X8169772Y-49844690D02*
X8048820Y-49874928D01*
X8048820Y-49874928D02*
X7958105Y-49874928D01*
X7958105Y-49874928D02*
X7837153Y-49844690D01*
X7837153Y-49844690D02*
X7776677Y-49814452D01*
X7776677Y-49814452D02*
X7716201Y-49753976D01*
X7716201Y-49753976D02*
X7685963Y-49663261D01*
X7685963Y-49663261D02*
X7685963Y-49602785D01*
X7685963Y-49602785D02*
X7716201Y-49512071D01*
X7716201Y-49512071D02*
X7746439Y-49481833D01*
X7897629Y-48937547D02*
X8320963Y-48937547D01*
X7655725Y-49088738D02*
X8109296Y-49239928D01*
X8109296Y-49239928D02*
X8109296Y-48846833D01*
X12427963Y-49826333D02*
X12427963Y-50189190D01*
X12427963Y-50007762D02*
X11792963Y-50007762D01*
X11792963Y-50007762D02*
X11883677Y-50068238D01*
X11883677Y-50068238D02*
X11944153Y-50128714D01*
X11944153Y-50128714D02*
X11974391Y-50189190D01*
X12004629Y-49554190D02*
X12639629Y-49554190D01*
X12337248Y-49251809D02*
X12397725Y-49221571D01*
X12397725Y-49221571D02*
X12427963Y-49161095D01*
X12337248Y-49554190D02*
X12397725Y-49523952D01*
X12397725Y-49523952D02*
X12427963Y-49463476D01*
X12427963Y-49463476D02*
X12427963Y-49342523D01*
X12427963Y-49342523D02*
X12397725Y-49282047D01*
X12397725Y-49282047D02*
X12337248Y-49251809D01*
X12337248Y-49251809D02*
X12004629Y-49251809D01*
X12095344Y-48677285D02*
X12095344Y-48888952D01*
X12427963Y-48888952D02*
X11792963Y-48888952D01*
X11792963Y-48888952D02*
X11792963Y-48586571D01*
%TO.C,C3*%
X7421486Y-14937833D02*
X7451725Y-14968071D01*
X7451725Y-14968071D02*
X7481963Y-15058785D01*
X7481963Y-15058785D02*
X7481963Y-15119261D01*
X7481963Y-15119261D02*
X7451725Y-15209976D01*
X7451725Y-15209976D02*
X7391248Y-15270452D01*
X7391248Y-15270452D02*
X7330772Y-15300690D01*
X7330772Y-15300690D02*
X7209820Y-15330928D01*
X7209820Y-15330928D02*
X7119105Y-15330928D01*
X7119105Y-15330928D02*
X6998153Y-15300690D01*
X6998153Y-15300690D02*
X6937677Y-15270452D01*
X6937677Y-15270452D02*
X6877201Y-15209976D01*
X6877201Y-15209976D02*
X6846963Y-15119261D01*
X6846963Y-15119261D02*
X6846963Y-15058785D01*
X6846963Y-15058785D02*
X6877201Y-14968071D01*
X6877201Y-14968071D02*
X6907439Y-14937833D01*
X6846963Y-14726166D02*
X6846963Y-14333071D01*
X6846963Y-14333071D02*
X7088867Y-14544738D01*
X7088867Y-14544738D02*
X7088867Y-14454023D01*
X7088867Y-14454023D02*
X7119105Y-14393547D01*
X7119105Y-14393547D02*
X7149344Y-14363309D01*
X7149344Y-14363309D02*
X7209820Y-14333071D01*
X7209820Y-14333071D02*
X7361010Y-14333071D01*
X7361010Y-14333071D02*
X7421486Y-14363309D01*
X7421486Y-14363309D02*
X7451725Y-14393547D01*
X7451725Y-14393547D02*
X7481963Y-14454023D01*
X7481963Y-14454023D02*
X7481963Y-14635452D01*
X7481963Y-14635452D02*
X7451725Y-14695928D01*
X7451725Y-14695928D02*
X7421486Y-14726166D01*
X11588963Y-15282333D02*
X11588963Y-15645190D01*
X11588963Y-15463762D02*
X10953963Y-15463762D01*
X10953963Y-15463762D02*
X11044677Y-15524238D01*
X11044677Y-15524238D02*
X11105153Y-15584714D01*
X11105153Y-15584714D02*
X11135391Y-15645190D01*
X11165629Y-15010190D02*
X11800629Y-15010190D01*
X11498248Y-14707809D02*
X11558725Y-14677571D01*
X11558725Y-14677571D02*
X11588963Y-14617095D01*
X11498248Y-15010190D02*
X11558725Y-14979952D01*
X11558725Y-14979952D02*
X11588963Y-14919476D01*
X11588963Y-14919476D02*
X11588963Y-14798523D01*
X11588963Y-14798523D02*
X11558725Y-14738047D01*
X11558725Y-14738047D02*
X11498248Y-14707809D01*
X11498248Y-14707809D02*
X11165629Y-14707809D01*
X11256344Y-14133285D02*
X11256344Y-14344952D01*
X11588963Y-14344952D02*
X10953963Y-14344952D01*
X10953963Y-14344952D02*
X10953963Y-14042571D01*
D11*
%TO.C,IC42*%
X5902000Y-76859000D02*
X7052000Y-76859000D01*
X7402000Y-76859000D02*
X8152000Y-76859000D01*
X7402000Y-79859000D02*
X7402000Y-76859000D01*
X8152000Y-76859000D02*
X8152000Y-79859000D01*
X8152000Y-79859000D02*
X7402000Y-79859000D01*
%TO.C,IC5*%
X4224000Y-5405000D02*
X5674000Y-5405000D01*
X6024000Y-5755000D02*
X9724000Y-5755000D01*
X6024000Y-10755000D02*
X6024000Y-5755000D01*
X9724000Y-5755000D02*
X9724000Y-10755000D01*
X9724000Y-10755000D02*
X6024000Y-10755000D01*
%TO.C,IC4*%
X4224000Y-15819000D02*
X5674000Y-15819000D01*
X6024000Y-16169000D02*
X9724000Y-16169000D01*
X6024000Y-21169000D02*
X6024000Y-16169000D01*
X9724000Y-16169000D02*
X9724000Y-21169000D01*
X9724000Y-21169000D02*
X6024000Y-21169000D01*
%TO.C,IC3*%
X4224000Y-38933000D02*
X5674000Y-38933000D01*
X6024000Y-39283000D02*
X9724000Y-39283000D01*
X6024000Y-44283000D02*
X6024000Y-39283000D01*
X9724000Y-39283000D02*
X9724000Y-44283000D01*
X9724000Y-44283000D02*
X6024000Y-44283000D01*
%TO.C,IC2*%
X4224000Y-50363000D02*
X5674000Y-50363000D01*
X6024000Y-50713000D02*
X9724000Y-50713000D01*
X6024000Y-55713000D02*
X6024000Y-50713000D01*
X9724000Y-50713000D02*
X9724000Y-55713000D01*
X9724000Y-55713000D02*
X6024000Y-55713000D01*
%TO.C,IC1*%
X4224000Y-26868000D02*
X5674000Y-26868000D01*
X6024000Y-27218000D02*
X9724000Y-27218000D01*
X6024000Y-32218000D02*
X6024000Y-27218000D01*
X9724000Y-27218000D02*
X9724000Y-32218000D01*
X9724000Y-32218000D02*
X6024000Y-32218000D01*
D12*
%TO.C,C45*%
X3613000Y-78731252D02*
X3613000Y-78208748D01*
X5083000Y-78731252D02*
X5083000Y-78208748D01*
%TO.C,C1*%
X10151252Y-26643000D02*
X9628748Y-26643000D01*
X10151252Y-25173000D02*
X9628748Y-25173000D01*
%TO.C,C5*%
X10151252Y-5180000D02*
X9628748Y-5180000D01*
X10151252Y-3710000D02*
X9628748Y-3710000D01*
%TO.C,C46*%
X10568000Y-78604252D02*
X10568000Y-78081748D01*
X12038000Y-78604252D02*
X12038000Y-78081748D01*
%TO.C,C2*%
X10405252Y-38708000D02*
X9882748Y-38708000D01*
X10405252Y-37238000D02*
X9882748Y-37238000D01*
%TO.C,C4*%
X10355252Y-50138000D02*
X9832748Y-50138000D01*
X10355252Y-48668000D02*
X9832748Y-48668000D01*
%TO.C,C3*%
X9516252Y-15594000D02*
X8993748Y-15594000D01*
X9516252Y-14124000D02*
X8993748Y-14124000D01*
%TD*%
M02*
