%TF.GenerationSoftware,KiCad,Pcbnew,9.0.2*%
%TF.CreationDate,2025-06-27T12:01:00+02:00*%
%TF.ProjectId,RAM 48K Select,52414d20-3438-44b2-9053-656c6563742e,V0*%
%TF.SameCoordinates,Original*%
%TF.FileFunction,Copper,L2,Bot*%
%TF.FilePolarity,Positive*%
%FSLAX46Y46*%
G04 Gerber Fmt 4.6, Leading zero omitted, Abs format (unit mm)*
G04 Created by KiCad (PCBNEW 9.0.2) date 2025-06-27 12:01:00*
%MOMM*%
%LPD*%
G01*
G04 APERTURE LIST*
G04 Aperture macros list*
%AMRoundRect*
0 Rectangle with rounded corners*
0 $1 Rounding radius*
0 $2 $3 $4 $5 $6 $7 $8 $9 X,Y pos of 4 corners*
0 Add a 4 corners polygon primitive as box body*
4,1,4,$2,$3,$4,$5,$6,$7,$8,$9,$2,$3,0*
0 Add four circle primitives for the rounded corners*
1,1,$1+$1,$2,$3*
1,1,$1+$1,$4,$5*
1,1,$1+$1,$6,$7*
1,1,$1+$1,$8,$9*
0 Add four rect primitives between the rounded corners*
20,1,$1+$1,$2,$3,$4,$5,0*
20,1,$1+$1,$4,$5,$6,$7,0*
20,1,$1+$1,$6,$7,$8,$9,0*
20,1,$1+$1,$8,$9,$2,$3,0*%
G04 Aperture macros list end*
%TA.AperFunction,ComponentPad*%
%ADD10RoundRect,0.250000X-0.550000X-0.550000X0.550000X-0.550000X0.550000X0.550000X-0.550000X0.550000X0*%
%TD*%
%TA.AperFunction,ComponentPad*%
%ADD11C,1.600000*%
%TD*%
%TA.AperFunction,ViaPad*%
%ADD12C,0.600000*%
%TD*%
%TA.AperFunction,Conductor*%
%ADD13C,0.200000*%
%TD*%
G04 APERTURE END LIST*
D10*
%TO.P,J5,1,Pin_1*%
%TO.N,Net-(J5-Pin_1)*%
X0Y0D03*
D11*
%TO.P,J5,2,Pin_2*%
%TO.N,Net-(J5-Pin_2)*%
X0Y-2540000D03*
%TO.P,J5,3,Pin_3*%
%TO.N,Net-(J5-Pin_3)*%
X0Y-5080000D03*
%TO.P,J5,4,Pin_4*%
%TO.N,unconnected-(J5-Pin_4-Pad4)*%
X0Y-7620000D03*
%TO.P,J5,5,Pin_5*%
%TO.N,Net-(J5-Pin_1)*%
X0Y-10160000D03*
%TO.P,J5,6,Pin_6*%
%TO.N,Net-(J5-Pin_2)*%
X0Y-12700000D03*
%TO.P,J5,7,Pin_7*%
%TO.N,Net-(J5-Pin_3)*%
X0Y-15240000D03*
%TO.P,J5,8,Pin_8*%
%TO.N,unconnected-(J5-Pin_8-Pad8)*%
X7620000Y-15240000D03*
%TO.P,J5,9,Pin_9*%
%TO.N,unconnected-(J5-Pin_9-Pad9)*%
X7620000Y-12700000D03*
%TO.P,J5,10,Pin_10*%
%TO.N,unconnected-(J5-Pin_10-Pad10)*%
X7620000Y-10160000D03*
%TO.P,J5,11,Pin_11*%
%TO.N,unconnected-(J5-Pin_11-Pad11)*%
X7620000Y-7620000D03*
%TO.P,J5,12,Pin_12*%
%TO.N,unconnected-(J5-Pin_12-Pad12)*%
X7620000Y-5080000D03*
%TO.P,J5,13,Pin_13*%
%TO.N,unconnected-(J5-Pin_13-Pad13)*%
X7620000Y-2540000D03*
%TO.P,J5,14,Pin_14*%
%TO.N,unconnected-(J5-Pin_14-Pad14)*%
X7620000Y0D03*
%TD*%
D12*
%TO.N,Net-(J5-Pin_1)*%
X1524000Y-2540000D03*
X1524000Y-7620000D03*
%TO.N,Net-(J5-Pin_2)*%
X2286000Y-5969000D03*
X2286000Y-9271000D03*
%TD*%
D13*
%TO.N,Net-(J5-Pin_1)*%
X1524000Y-7620000D02*
X1524000Y-2540000D01*
%TO.N,Net-(J5-Pin_2)*%
X2286000Y-9271000D02*
X2286000Y-5969000D01*
%TD*%
%TA.AperFunction,Conductor*%
%TO.N,Net-(J5-Pin_1)*%
G36*
X1621379Y-7029191D02*
G01*
X1624776Y-7036631D01*
X1631199Y-7126572D01*
X1650534Y-7201770D01*
X1650534Y-7201772D01*
X1678618Y-7260886D01*
X1711922Y-7313211D01*
X1712147Y-7313578D01*
X1772114Y-7415930D01*
X1772919Y-7417594D01*
X1797235Y-7479939D01*
X1797668Y-7481283D01*
X1815175Y-7549540D01*
X1813911Y-7558405D01*
X1806749Y-7563780D01*
X1806162Y-7563915D01*
X1526320Y-7620530D01*
X1521680Y-7620530D01*
X1241867Y-7563921D01*
X1234438Y-7558921D01*
X1232719Y-7550133D01*
X1232856Y-7549540D01*
X1251366Y-7478105D01*
X1251814Y-7476737D01*
X1277467Y-7412496D01*
X1278257Y-7410889D01*
X1335852Y-7313578D01*
X1336069Y-7313227D01*
X1361978Y-7273310D01*
X1367557Y-7260886D01*
X1406336Y-7174518D01*
X1406337Y-7174517D01*
X1415816Y-7126574D01*
X1419292Y-7108989D01*
X1423376Y-7036803D01*
X1427264Y-7028737D01*
X1435057Y-7025764D01*
X1613106Y-7025764D01*
X1621379Y-7029191D01*
G37*
%TD.AperFunction*%
%TD*%
%TA.AperFunction,Conductor*%
%TO.N,Net-(J5-Pin_1)*%
G36*
X1806132Y-2596078D02*
G01*
X1813561Y-2601078D01*
X1815280Y-2609866D01*
X1815138Y-2610481D01*
X1796638Y-2681875D01*
X1796178Y-2683279D01*
X1770535Y-2747495D01*
X1769738Y-2749115D01*
X1712169Y-2846384D01*
X1711914Y-2846795D01*
X1686020Y-2886690D01*
X1641663Y-2985480D01*
X1641662Y-2985481D01*
X1628708Y-3051005D01*
X1628708Y-3051010D01*
X1624624Y-3123197D01*
X1620736Y-3131263D01*
X1612943Y-3134236D01*
X1434894Y-3134236D01*
X1426621Y-3130809D01*
X1423224Y-3123369D01*
X1416800Y-3033426D01*
X1416800Y-3033425D01*
X1397464Y-2958223D01*
X1369383Y-2899116D01*
X1369382Y-2899115D01*
X1369381Y-2899112D01*
X1336077Y-2846787D01*
X1335852Y-2846420D01*
X1275884Y-2744068D01*
X1275079Y-2742404D01*
X1250760Y-2680047D01*
X1250334Y-2678727D01*
X1232824Y-2610457D01*
X1234088Y-2601594D01*
X1241250Y-2596219D01*
X1241818Y-2596088D01*
X1521682Y-2539469D01*
X1526318Y-2539469D01*
X1806132Y-2596078D01*
G37*
%TD.AperFunction*%
%TD*%
%TA.AperFunction,Conductor*%
%TO.N,Net-(J5-Pin_2)*%
G36*
X2383379Y-8680191D02*
G01*
X2386776Y-8687631D01*
X2393199Y-8777572D01*
X2412534Y-8852770D01*
X2412534Y-8852772D01*
X2440618Y-8911886D01*
X2473922Y-8964211D01*
X2474147Y-8964578D01*
X2534114Y-9066930D01*
X2534919Y-9068594D01*
X2559235Y-9130939D01*
X2559668Y-9132283D01*
X2577175Y-9200540D01*
X2575911Y-9209405D01*
X2568749Y-9214780D01*
X2568162Y-9214915D01*
X2288320Y-9271530D01*
X2283680Y-9271530D01*
X2003867Y-9214921D01*
X1996438Y-9209921D01*
X1994719Y-9201133D01*
X1994856Y-9200540D01*
X2013366Y-9129105D01*
X2013814Y-9127737D01*
X2039467Y-9063496D01*
X2040257Y-9061889D01*
X2097852Y-8964578D01*
X2098069Y-8964227D01*
X2123978Y-8924310D01*
X2129557Y-8911886D01*
X2168336Y-8825518D01*
X2168337Y-8825517D01*
X2177816Y-8777574D01*
X2181292Y-8759989D01*
X2185376Y-8687803D01*
X2189264Y-8679737D01*
X2197057Y-8676764D01*
X2375106Y-8676764D01*
X2383379Y-8680191D01*
G37*
%TD.AperFunction*%
%TD*%
%TA.AperFunction,Conductor*%
%TO.N,Net-(J5-Pin_2)*%
G36*
X2568132Y-6025078D02*
G01*
X2575561Y-6030078D01*
X2577280Y-6038866D01*
X2577138Y-6039481D01*
X2558638Y-6110875D01*
X2558178Y-6112279D01*
X2532535Y-6176495D01*
X2531738Y-6178115D01*
X2474169Y-6275384D01*
X2473914Y-6275795D01*
X2448020Y-6315690D01*
X2403663Y-6414480D01*
X2403662Y-6414481D01*
X2390708Y-6480005D01*
X2390708Y-6480010D01*
X2386624Y-6552197D01*
X2382736Y-6560263D01*
X2374943Y-6563236D01*
X2196894Y-6563236D01*
X2188621Y-6559809D01*
X2185224Y-6552369D01*
X2178800Y-6462426D01*
X2178800Y-6462425D01*
X2159464Y-6387223D01*
X2131383Y-6328116D01*
X2131382Y-6328115D01*
X2131381Y-6328112D01*
X2098077Y-6275787D01*
X2097852Y-6275420D01*
X2037884Y-6173068D01*
X2037079Y-6171404D01*
X2012760Y-6109047D01*
X2012334Y-6107727D01*
X1994824Y-6039457D01*
X1996088Y-6030594D01*
X2003250Y-6025219D01*
X2003818Y-6025088D01*
X2283682Y-5968469D01*
X2288318Y-5968469D01*
X2568132Y-6025078D01*
G37*
%TD.AperFunction*%
%TD*%
M02*
