M48
; DRILL file {KiCad 8.0.7} date 2025-01-13T20:53:56+0200
; FORMAT={-:-/ absolute / inch / decimal}
; #@! TF.CreationDate,2025-01-13T20:53:56+02:00
; #@! TF.GenerationSoftware,Kicad,Pcbnew,8.0.7
; #@! TF.FileFunction,Plated,1,2,PTH
FMAT,2
INCH
; #@! TA.AperFunction,Plated,PTH,ViaDrill
T1C0.0157
; #@! TA.AperFunction,Plated,PTH,ViaDrill
T2C0.0236
; #@! TA.AperFunction,Plated,PTH,ViaDrill
T3C0.0394
; #@! TA.AperFunction,Plated,PTH,ComponentDrill
T4C0.0394
; #@! TA.AperFunction,Plated,PTH,ComponentDrill
T5C0.1260
%
G90
G05
T1
X-0.775Y4.025
X-0.763Y1.84
X-0.763Y0.8379
X-0.7348Y4.125
X-0.733Y3.505
X-0.678Y4.425
X-0.678Y3.34
X-0.57Y4.625
X-0.565Y4.32
X-0.535Y4.725
X-0.4529Y2.4697
X-0.418Y2.68
X-0.4145Y2.4919
X-0.353Y2.575
X-0.3136Y2.595
X-0.2761Y2.76
X-0.2089Y2.85
X-0.17Y3.26
X-0.15Y5.28
X-0.1025Y3.4705
X-0.1016Y1.985
X-0.093Y4.47
X-0.09Y5.89
X-0.06Y5.025
X-0.058Y4.85
X-0.0509Y5.8255
X-0.028Y1.77
X-0.0208Y0.8095
X0.002Y4.14
X0.002Y0.3545
X0.0095Y4.225
X0.0373Y5.855
X0.0373Y4.6937
X0.0508Y0.507
X0.0547Y0.295
X0.0765Y2.745
X0.087Y4.665
X0.147Y2.995
X0.172Y4.89
X0.1727Y3.11
X0.19Y5.65
X0.19Y5.11
X0.207Y4.225
X0.212Y1.215
X0.222Y4.755
X0.2567Y1.525
X0.272Y0.22
X0.2739Y5.6795
X0.304Y0.3261
X0.317Y4.975
X0.3428Y0.3118
X0.3836Y0.2833
X0.392Y1.845
X0.402Y1.74
X0.402Y1.235
X0.427Y0.28
X0.447Y4.14
X0.452Y4.27
X0.462Y4.94
X0.487Y3.33
X0.497Y0.235
X0.5028Y3.265
X0.5186Y0.4484
X0.532Y2.65
X0.5393Y0.3671
X0.5465Y0.2708
X0.562Y4.425
X0.562Y3.19
X0.562Y2.305
X0.5632Y0.2098
X0.565Y4.97
X0.567Y5.275
X0.592Y0.755
X0.595Y3.125
X0.707Y0.435
X0.732Y1.975
X0.7597Y4.5492
X0.7597Y3.0171
X0.762Y0.305
X0.772Y1.82
X0.8Y0.34
X0.812Y1.725
X0.842Y3.13
X0.842Y1.6
X0.8739Y2.35
X0.8945Y0.3925
X0.907Y2.975
X0.907Y2.465
X0.907Y1.775
X0.9792Y2.66
X1.0032Y3.8707
X1.0285Y3.775
X1.0285Y3.575
X1.03Y3.6801
X1.032Y2.9329
X1.0348Y3.975
X1.047Y2.415
X1.05Y5.75
X1.057Y2.19
X1.067Y5.025
X1.067Y4.1896
X1.1001Y4.075
X1.1245Y5.405
X1.1245Y4.375
X1.1536Y4.5492
X1.162Y2.58
X1.162Y2.175
X1.1878Y3.4455
X1.1971Y4.6716
X1.206Y1.685
X1.207Y4.49
X1.247Y3.045
X1.252Y4.27
X1.297Y4.425
X1.3Y5.45
X1.302Y2.425
X1.3074Y4.525
X1.317Y3.045
X1.335Y5.075
X1.367Y5.41
X1.367Y4.97
X1.377Y4.6716
X1.377Y4.185
X1.387Y3.025
X1.387Y1.64
X1.395Y4.235
X1.395Y2.975
X1.4Y5.87
X1.422Y1.775
X1.4225Y2.425
X1.44Y5.75
X1.457Y2.9321
X1.4595Y2.8825
X1.467Y1.33
X1.4695Y3.225
X1.49Y4.625
X1.542Y5.2959
X1.587Y5.025
X1.5932Y2.0648
X1.627Y3.895
X1.657Y0.88
X1.662Y1.85
X1.727Y0.705
X1.735Y5.87
X1.742Y0.3
X1.8165Y2.0375
X1.817Y2.625
X1.8268Y4.6959
X1.832Y2.28
X1.847Y4.62
X1.8471Y3.2464
X1.8499Y2.0132
X1.855Y4.825
X1.862Y2.725
X1.892Y4.42
X1.9015Y1.32
X1.905Y4.7679
X1.9062Y3.9545
X1.9325Y1.2336
X1.952Y1.055
X1.9604Y4.7804
X1.966Y4.9804
X1.9898Y2.63
X2.012Y0.33
X2.0296Y0.99
X2.0382Y5.08
X2.0665Y2.2258
X2.0811Y4.0259
X2.082Y0.955
X2.087Y3.4
X2.087Y3.275
X2.092Y2.65
X2.102Y0.25
X2.1091Y2.4945
X2.1165Y3.9545
X2.1165Y3.805
X2.1263Y5.2199
X2.152Y0.3649
X2.1565Y2.96
X2.1581Y4.57
X2.162Y2.42
X2.187Y4.285
X2.1941Y5.2476
X2.197Y3.98
X2.197Y3.4886
X2.222Y4.525
X2.2235Y5.4383
X2.232Y2.78
X2.2475Y4.025
X2.262Y2.465
X2.2651Y2.32
X2.272Y4.2526
X2.272Y4.1959
X2.2741Y1.7662
X2.277Y4.12
X2.2879Y3.625
X2.2907Y3.5181
X2.302Y1.37
X2.34Y3.55
X2.342Y3.425
X2.3602Y0.3855
X2.3955Y3.8526
X2.397Y4.095
X2.4Y0.265
X2.4125Y1.855
X2.4195Y3.3325
X2.447Y2.835
X2.452Y0.41
X2.472Y3.5123
X2.4812Y1.9261
X2.495Y5.445
X2.502Y1.8875
X2.537Y1.995
X2.542Y2.23
X2.5749Y2.15
X2.592Y0.3
X2.602Y2.095
X2.6069Y3.675
X2.6078Y3.7745
X2.6332Y4.4902
X2.6415Y5.2515
X2.65Y5.44
X2.6572Y5.2897
X2.672Y4.475
X2.677Y4.575
X2.677Y2.35
X2.682Y4.2869
X2.7Y5.35
X2.717Y5.145
X2.732Y4.265
X2.732Y0.3
X2.7331Y0.2105
X2.7389Y2.1844
X2.747Y2.78
X2.752Y2.11
X2.752Y0.8
X2.762Y4.9459
X2.762Y4.075
X2.762Y0.4
X2.7721Y2.525
X2.8Y5.481
X2.8016Y2.99
X2.8016Y2.725
X2.802Y3.455
X2.812Y1.55
X2.84Y3.56
X2.84Y3.055
X2.842Y2.75
X2.8591Y1.74
X2.862Y1.335
X2.877Y4.945
X2.882Y0.41
X2.912Y3.56
X2.922Y0.6755
X2.9239Y5.9339
X2.942Y0.22
X2.9435Y1.59
X2.947Y2.93
X2.957Y4.815
X2.957Y3.975
X2.9649Y3.175
X3.007Y3.9
X3.0245Y1.2975
X3.052Y2.39
X3.052Y1.205
X3.062Y4.375
X3.062Y3.7745
X3.062Y2.89
X3.117Y3.595
X3.1311Y1.34
X3.1413Y5.4207
X3.16Y4.9789
X3.16Y4.82
X3.162Y3.215
X3.182Y3.596
X3.187Y3.935
X3.187Y3.775
X3.197Y1.22
X3.1977Y5.3144
X3.2205Y5.15
X3.222Y2.8445
X3.222Y2.675
X3.237Y0.675
X3.2499Y3.775
X3.2499Y3.4546
X3.252Y2.605
X3.257Y5.045
X3.257Y4.575
X3.287Y3.675
X3.292Y4.875
X3.292Y2.675
X3.292Y2.505
X3.3Y5.245
X3.35Y1.735
X3.36Y2.495
X3.372Y2.8884
X3.387Y3.915
X3.4Y5.2849
X3.412Y1.37
X3.502Y2.275
X3.502Y1.93
X3.5028Y3.1035
X3.5048Y3.0616
X3.512Y2.565
X3.5151Y0.865
X3.5159Y2.8172
X3.52Y2.5212
X3.522Y1.495
X3.5229Y3.275
X3.532Y3.515
X3.542Y2.375
X3.55Y5.245
X3.552Y4.9
X3.552Y1.965
X3.552Y1.8875
X3.555Y5.59
X3.5658Y0.4288
X3.592Y1.8475
X3.612Y2.825
X3.63Y5.1459
X3.6595Y1.52
X3.7Y5.6795
X3.702Y1.1108
X3.707Y0.47
X3.727Y4.75
X3.727Y4.64
X3.732Y0.895
X3.7415Y2.54
X3.742Y2.19
X3.747Y0.505
X3.762Y4.13
X3.762Y3.945
X3.762Y0.74
X3.7731Y2.0986
X3.78Y5.1455
X3.7815Y2.6828
X3.8Y5.48
X3.802Y1.295
X3.8265Y2.3894
X3.867Y3.275
X3.8856Y2.8627
X3.902Y1.79
X3.902Y1.355
X3.905Y5.315
X3.917Y3.375
X3.93Y5.175
X3.932Y0.455
X3.945Y3.165
X3.95Y3.31
X3.972Y4.015
X3.99Y5.795
X4.002Y1.5505
X4.007Y4.0642
X4.023Y1.21
X4.0406Y3.68
X4.0536Y1.32
X4.057Y2.685
X4.057Y2.2332
X4.072Y3.78
X4.0823Y2.3459
X4.103Y4.215
X4.127Y2.79
X4.1325Y3.185
X4.1325Y3.0059
X4.152Y1.58
X4.157Y2.825
X4.2Y5.595
X4.202Y2.325
X4.217Y0.79
X4.22Y3.325
X4.242Y5.0405
X4.247Y1.12
X4.277Y1.33
X4.2781Y1.2887
X4.302Y0.265
X4.307Y4.06
X4.312Y4.64
X4.327Y2.675
X4.355Y4.3332
X4.387Y2.7955
X4.401Y5.124
X4.405Y5.71
X4.4061Y5.0231
X4.452Y5.36
X4.5065Y1.245
X4.507Y0.2555
X4.512Y2.025
X4.517Y4.8035
X4.5365Y2.79
X4.55Y5.325
X4.582Y4.1763
X4.5906Y1.8869
X4.597Y5.1555
X4.602Y0.3
X4.617Y3.72
X4.617Y1.645
X4.622Y3.33
X4.622Y1.435
X4.632Y0.4
X4.637Y4.7719
X4.637Y4.445
X4.65Y5.335
X4.6575Y2.195
X4.667Y0.43
X4.692Y3.975
X4.697Y0.705
X4.7Y5.3753
X4.702Y1.46
X4.7104Y4.9453
X4.737Y4.13
X4.737Y3.475
X4.7415Y1.6951
X4.747Y0.37
X4.7473Y5.9414
X4.755Y5.355
X4.7669Y1.48
X4.772Y2.675
X4.777Y2.025
X4.792Y3.595
X4.7984Y2.0879
X4.8039Y4.7533
X4.807Y4.075
X4.827Y1.025
X4.832Y0.8362
X4.837Y4.675
X4.877Y4.555
X4.877Y0.5
X4.8804Y4.718
X4.917Y3.0
X4.917Y2.725
X4.9225Y4.78
X4.9225Y4.3264
X4.927Y2.325
X4.94Y2.575
X4.947Y1.975
X4.952Y2.89
X4.952Y5.4055
X4.9801Y5.2775
X4.992Y2.81
X5.027Y0.865
X5.0375Y1.6951
X5.0452Y4.1763
X5.0475Y3.33
X5.05Y5.245
X5.067Y3.675
X5.067Y3.475
X5.102Y3.83
X5.1036Y3.555
X5.1092Y4.21
X5.112Y3.77
X5.1205Y4.83
X5.1205Y4.655
X5.13Y5.4648
X5.1719Y5.4214
X5.1925Y2.175
X5.1974Y5.1605
X5.222Y4.175
X5.2225Y4.375
X5.2256Y3.8978
X5.243Y1.83
X5.272Y4.7
X5.272Y4.9609
X5.28Y5.395
X5.3065Y2.0455
X5.352Y1.5209
X5.3985Y4.9235
X5.4104Y3.5066
X5.425Y3.74
X5.43Y6.075
X5.432Y2.13
X5.4608Y5.095
X5.4711Y2.2959
X5.4925Y4.6117
X5.4974Y2.6779
X5.512Y2.425
X5.527Y1.315
X5.527Y1.12
X5.552Y4.9
X5.61Y5.445
X5.6249Y4.1038
X5.6355Y2.795
X5.657Y2.075
X5.665Y5.19
X5.68Y2.715
X5.692Y2.275
X5.697Y0.925
X5.705Y5.5643
X5.717Y0.825
X5.72Y2.68
X5.737Y3.175
X5.7415Y3.875
X5.777Y3.035
X5.7775Y3.98
X5.792Y4.67
X5.797Y4.24
X5.807Y1.99
X5.83Y5.71
X5.8365Y3.3718
X5.862Y4.435
X5.877Y0.725
X5.8858Y4.1988
X5.9082Y5.3247
X5.932Y1.66
X5.955Y4.36
X6.022Y1.65
X6.0428Y5.39
X6.077Y2.075
X6.0845Y3.425
X6.1173Y2.825
X6.137Y1.035
X6.1771Y3.625
X6.2132Y3.225
X6.2275Y2.57
X6.2334Y5.6156
X6.267Y4.495
X6.285Y5.24
X6.287Y1.305
X6.3067Y1.93
X6.3362Y4.2419
X6.3747Y4.275
X6.417Y3.025
X6.422Y2.4545
X6.452Y1.37
X6.452Y0.82
X6.5015Y2.435
X6.507Y2.075
X6.5325Y2.7561
X6.557Y1.61
X6.557Y0.4564
X6.572Y3.14
X6.5815Y1.47
X6.582Y0.775
X6.5996Y4.1327
X6.602Y3.625
X6.602Y2.325
X6.622Y4.48
X6.6299Y3.2672
X6.632Y1.425
X6.6423Y3.5961
X6.6452Y3.8959
X6.6487Y3.1918
X6.6616Y0.5074
X6.6802Y5.4784
X6.737Y3.37
X6.7383Y4.8815
X6.747Y1.7868
X6.747Y1.54
X6.752Y5.07
X6.752Y0.455
X6.757Y3.71
X6.757Y3.58
X6.7875Y1.985
X6.8065Y4.72
X6.827Y2.135
X6.827Y1.845
X6.8343Y3.125
X6.835Y5.92
X6.852Y0.4845
X6.867Y0.73
X6.87Y5.8218
X6.87Y3.975
X6.885Y3.935
X6.91Y4.01
X6.927Y2.925
X6.927Y2.03
X6.927Y1.54
X6.945Y3.625
X6.947Y1.07
X6.95Y5.805
X6.975Y3.325
X6.975Y5.68
X6.9915Y0.25
X6.9992Y5.89
X7.017Y1.715
X7.0182Y3.0
X7.065Y5.7365
X7.0657Y3.525
X7.067Y0.4575
X7.072Y1.755
X7.1017Y0.9526
X7.105Y5.585
X7.112Y0.215
X7.1216Y2.6029
X7.142Y1.85
X7.145Y5.615
X7.167Y2.575
X7.172Y0.51
X7.18Y5.665
X7.195Y5.955
X7.212Y4.085
X7.212Y0.9837
X7.212Y0.215
X7.235Y5.83
X7.24Y5.74
X7.2489Y3.47
X7.2489Y2.425
X7.2489Y1.6
X7.2559Y0.2122
X7.272Y0.565
X7.2784Y4.28
X7.2952Y6.0232
X7.3063Y4.32
X7.337Y1.175
X7.3434Y5.9901
X7.37Y5.3395
X7.3745Y4.1575
X7.407Y1.275
X7.415Y5.31
X7.452Y4.13
X7.4587Y5.9187
X7.512Y1.325
X7.532Y3.2685
X7.542Y2.03
X7.542Y1.78
X7.542Y1.475
X7.565Y5.395
X7.6605Y5.9619
X7.672Y1.37
X7.6851Y3.205
X7.722Y2.373
X7.727Y3.45
X7.817Y0.695
X7.852Y3.675
X7.8711Y1.415
X7.892Y4.33
X7.892Y3.785
X7.892Y3.625
X7.892Y1.71
X7.8959Y3.86
X7.8987Y1.525
X7.9211Y4.3006
X7.9256Y3.2971
X7.942Y4.025
X7.9543Y3.74
X7.9839Y2.125
X7.9875Y0.824
X8.017Y0.775
X8.027Y4.9045
X8.027Y3.42
X8.027Y2.375
X8.097Y1.59
X8.102Y3.71
X8.152Y0.565
X8.207Y2.975
X8.207Y2.07
X8.2295Y1.9225
X8.252Y0.51
X8.257Y4.305
X8.302Y0.335
X8.352Y0.495
X8.3565Y2.4769
X8.447Y1.565
X8.5201Y1.035
X8.5217Y0.9907
T2
X-0.528Y0.26
X0.1Y0.25
X1.2945Y0.4875
X1.602Y0.265
X2.2Y0.4043
X2.297Y0.26
X2.402Y0.345
X2.922Y0.345
X3.06Y5.525
X3.207Y0.31
X3.832Y0.505
X4.087Y0.505
X4.0987Y5.525
X5.527Y0.775
X5.747Y4.725
X5.802Y0.215
X6.0767Y0.775
X6.102Y4.425
X6.185Y5.455
X6.457Y4.39
X6.787Y0.9
X7.397Y0.9
X7.622Y0.9
X8.097Y0.905
X8.572Y0.575
T3
X-0.6433Y1.325
X-0.1Y6.125
X4.1Y6.1342
X6.075Y6.1342
T4
X-0.9983Y0.35
X-0.9Y6.0
X-0.8983Y0.35
X-0.8Y6.0
X-0.7221Y0.35
X-0.7Y6.0
X-0.6433Y0.35
X-0.6Y6.0
X-0.5089Y3.575
X-0.5089Y3.475
X-0.5089Y3.375
X-0.5089Y3.275
X-0.5089Y3.175
X-0.5089Y3.075
X-0.5089Y2.975
X-0.5089Y2.875
X-0.5089Y2.775
X-0.5089Y2.675
X-0.5089Y2.575
X-0.5089Y2.475
X-0.5089Y2.375
X-0.5089Y2.275
X-0.5089Y2.175
X-0.5089Y2.075
X-0.5Y6.0
X-0.4983Y1.15
X-0.4983Y0.55
X-0.4133Y0.35
X-0.4Y6.0
X-0.3983Y1.15
X-0.3983Y0.55
X-0.3346Y0.35
X-0.3Y6.0
X-0.2983Y1.15
X-0.2983Y0.55
X-0.2089Y5.525
X-0.2089Y5.425
X-0.2089Y5.325
X-0.2089Y5.225
X-0.2089Y5.125
X-0.2089Y5.025
X-0.2089Y4.925
X-0.2089Y4.825
X-0.2089Y4.725
X-0.2089Y4.625
X-0.2089Y4.525
X-0.2089Y4.425
X-0.2089Y4.325
X-0.2089Y4.225
X-0.2089Y4.125
X-0.2089Y4.025
X-0.2Y6.0
X-0.1983Y1.15
X-0.1983Y0.55
X-0.1Y6.0
X-0.0983Y1.15
X-0.0983Y0.55
X0.0Y6.0
X0.0017Y1.15
X0.0017Y0.55
X0.1Y6.0
X0.1017Y1.15
X0.1017Y0.55
X0.2Y6.0
X0.2017Y1.15
X0.2017Y0.55
X0.3Y6.0
X0.3017Y1.15
X0.3017Y0.55
X0.3911Y5.525
X0.3911Y5.425
X0.3911Y5.325
X0.3911Y5.225
X0.3911Y5.125
X0.3911Y5.025
X0.3911Y4.925
X0.3911Y4.825
X0.3911Y4.725
X0.3911Y4.625
X0.3911Y4.525
X0.3911Y4.425
X0.3911Y4.325
X0.3911Y4.225
X0.3911Y4.125
X0.3911Y4.025
X0.3911Y3.575
X0.3911Y3.475
X0.3911Y3.375
X0.3911Y3.275
X0.3911Y3.175
X0.3911Y3.075
X0.3911Y2.975
X0.3911Y2.875
X0.3911Y2.775
X0.3911Y2.675
X0.3911Y2.575
X0.3911Y2.475
X0.3911Y2.375
X0.3911Y2.275
X0.3911Y2.175
X0.3911Y2.075
X0.4Y6.0
X0.4017Y1.15
X0.4017Y0.55
X0.5Y6.0
X0.5017Y1.15
X0.5017Y0.55
X0.6Y6.0
X0.6017Y1.15
X0.6017Y0.55
X0.6411Y5.175
X0.6411Y5.075
X0.6411Y4.975
X0.6411Y4.875
X0.6411Y4.775
X0.6411Y4.675
X0.6411Y4.575
X0.6411Y4.475
X0.6411Y4.375
X0.6411Y4.275
X0.6411Y4.175
X0.6411Y4.075
X0.6411Y3.975
X0.6411Y3.875
X0.6411Y3.775
X0.6411Y3.675
X0.6411Y3.575
X0.6411Y3.475
X0.6411Y3.375
X0.6411Y3.275
X0.6411Y3.175
X0.6411Y3.075
X0.6411Y2.975
X0.6411Y2.875
X0.6411Y2.775
X0.6411Y2.675
X0.6411Y2.575
X0.6411Y2.475
X0.6411Y2.375
X0.6411Y2.275
X0.6411Y2.175
X0.6411Y2.075
X0.7Y6.0
X0.7017Y1.15
X0.7017Y0.55
X0.8Y6.0
X0.8017Y1.15
X0.8017Y0.55
X0.9Y6.0
X0.9017Y1.15
X0.9017Y0.55
X1.0Y6.0
X1.0017Y1.15
X1.0017Y0.55
X1.1Y6.0
X1.1017Y1.15
X1.1017Y0.55
X1.2Y6.0
X1.2017Y1.15
X1.2017Y0.55
X1.3Y6.0
X1.3017Y1.15
X1.3017Y0.55
X1.4Y6.0
X1.4017Y1.15
X1.4017Y0.55
X1.5Y6.0
X1.5411Y5.175
X1.5411Y5.075
X1.5411Y4.975
X1.5411Y4.875
X1.5411Y4.775
X1.5411Y4.675
X1.5411Y4.575
X1.5411Y4.475
X1.5411Y4.375
X1.5411Y4.275
X1.5411Y4.175
X1.5411Y4.075
X1.5411Y3.975
X1.5411Y3.875
X1.5411Y3.775
X1.5411Y3.675
X1.5411Y3.575
X1.5411Y3.475
X1.5411Y3.375
X1.5411Y3.275
X1.5411Y3.175
X1.5411Y3.075
X1.5411Y2.975
X1.5411Y2.875
X1.5411Y2.775
X1.5411Y2.675
X1.5411Y2.575
X1.5411Y2.475
X1.5411Y2.375
X1.5411Y2.275
X1.5411Y2.175
X1.5411Y2.075
X1.6Y6.0
X1.7Y6.0
X1.7017Y1.15
X1.7017Y0.55
X1.7411Y5.525
X1.7411Y5.425
X1.7411Y5.325
X1.7411Y5.225
X1.7411Y5.125
X1.7411Y5.025
X1.7411Y4.925
X1.7411Y4.825
X1.7411Y4.725
X1.7411Y4.625
X1.7411Y4.525
X1.7411Y4.425
X1.7411Y4.325
X1.7411Y4.225
X1.7411Y4.125
X1.7411Y4.025
X1.7411Y3.925
X1.7411Y3.825
X1.7411Y3.725
X1.7411Y3.625
X1.7411Y3.325
X1.7411Y3.225
X1.7411Y3.125
X1.7411Y3.025
X1.7411Y2.925
X1.7411Y2.825
X1.7411Y2.725
X1.7411Y2.625
X1.7411Y2.525
X1.7411Y2.425
X1.7411Y2.325
X1.7411Y2.225
X1.7411Y2.125
X1.7411Y2.025
X1.7411Y1.925
X1.7411Y1.825
X1.7411Y1.725
X1.7411Y1.625
X1.7411Y1.525
X1.7411Y1.425
X1.8Y6.0
X1.8017Y1.15
X1.8017Y0.55
X1.9Y6.0
X1.9017Y1.15
X1.9017Y0.55
X2.0Y6.0
X2.0017Y1.15
X2.0017Y0.55
X2.1Y6.0
X2.1017Y1.15
X2.1017Y0.55
X2.2Y6.0
X2.2017Y1.15
X2.2017Y0.55
X2.3Y6.0
X2.3017Y1.15
X2.3017Y0.55
X2.3411Y5.525
X2.3411Y5.425
X2.3411Y5.325
X2.3411Y5.225
X2.3411Y5.125
X2.3411Y5.025
X2.3411Y4.925
X2.3411Y4.825
X2.3411Y4.725
X2.3411Y4.625
X2.3411Y4.525
X2.3411Y4.425
X2.3411Y4.325
X2.3411Y4.225
X2.3411Y4.125
X2.3411Y4.025
X2.3411Y3.925
X2.3411Y3.825
X2.3411Y3.725
X2.3411Y3.625
X2.3411Y3.325
X2.3411Y3.225
X2.3411Y3.125
X2.3411Y3.025
X2.3411Y2.925
X2.3411Y2.825
X2.3411Y2.725
X2.3411Y2.625
X2.3411Y2.525
X2.3411Y2.425
X2.3411Y2.325
X2.3411Y2.225
X2.3411Y2.125
X2.3411Y2.025
X2.3411Y1.925
X2.3411Y1.825
X2.3411Y1.725
X2.3411Y1.625
X2.3411Y1.525
X2.3411Y1.425
X2.4Y6.0
X2.4017Y1.15
X2.4017Y0.55
X2.5Y6.0
X2.5017Y1.15
X2.5017Y0.55
X2.552Y5.175
X2.552Y5.075
X2.552Y4.975
X2.552Y4.875
X2.552Y4.775
X2.552Y4.675
X2.552Y4.575
X2.552Y4.475
X2.552Y4.375
X2.552Y4.275
X2.552Y4.175
X2.552Y4.075
X2.552Y3.975
X2.552Y3.875
X2.552Y3.775
X2.552Y3.675
X2.552Y3.575
X2.552Y3.475
X2.552Y3.375
X2.552Y3.275
X2.552Y3.175
X2.552Y3.075
X2.552Y2.975
X2.552Y2.875
X2.552Y2.775
X2.552Y2.675
X2.552Y2.575
X2.552Y2.475
X2.6Y6.0
X2.6017Y1.15
X2.6017Y0.55
X2.7Y6.0
X2.7017Y1.15
X2.7017Y0.55
X2.702Y2.025
X2.702Y1.425
X2.8Y6.0
X2.8017Y1.15
X2.8017Y0.55
X2.802Y2.025
X2.802Y1.425
X2.9Y6.0
X2.9017Y1.15
X2.9017Y0.55
X2.902Y2.025
X2.902Y1.425
X3.0Y6.0
X3.0017Y1.15
X3.0017Y0.55
X3.002Y2.025
X3.002Y1.425
X3.1Y6.0
X3.1017Y1.15
X3.1017Y0.55
X3.102Y2.025
X3.102Y1.425
X3.2Y6.0
X3.2017Y1.15
X3.2017Y0.55
X3.202Y2.025
X3.202Y1.425
X3.3Y6.0
X3.3017Y1.15
X3.3017Y0.55
X3.302Y2.025
X3.302Y1.425
X3.4Y6.0
X3.4017Y1.15
X3.4017Y0.55
X3.402Y2.025
X3.402Y1.425
X3.452Y5.175
X3.452Y5.075
X3.452Y4.975
X3.452Y4.875
X3.452Y4.775
X3.452Y4.675
X3.452Y4.575
X3.452Y4.475
X3.452Y4.375
X3.452Y4.275
X3.452Y4.175
X3.452Y4.075
X3.452Y3.975
X3.452Y3.875
X3.452Y3.775
X3.452Y3.675
X3.452Y3.575
X3.452Y3.475
X3.452Y3.375
X3.452Y3.275
X3.452Y3.175
X3.452Y3.075
X3.452Y2.975
X3.452Y2.875
X3.452Y2.775
X3.452Y2.675
X3.452Y2.575
X3.452Y2.475
X3.5Y6.0
X3.5017Y1.15
X3.5017Y0.55
X3.502Y2.025
X3.502Y1.425
X3.6Y6.0
X3.6017Y1.15
X3.6017Y0.55
X3.602Y2.025
X3.602Y1.425
X3.652Y4.975
X3.652Y4.875
X3.652Y4.775
X3.652Y4.675
X3.652Y4.575
X3.652Y4.475
X3.652Y4.375
X3.652Y4.275
X3.652Y4.175
X3.652Y4.075
X3.652Y3.975
X3.652Y3.875
X3.652Y3.775
X3.652Y3.675
X3.652Y3.575
X3.652Y3.475
X3.652Y3.375
X3.652Y3.275
X3.652Y3.175
X3.652Y3.075
X3.652Y2.975
X3.652Y2.875
X3.652Y2.775
X3.652Y2.675
X3.652Y2.575
X3.652Y2.475
X3.652Y2.375
X3.652Y2.275
X3.7Y6.0
X3.702Y2.025
X3.702Y1.425
X3.8Y6.0
X3.802Y2.025
X3.802Y1.425
X3.8767Y1.175
X3.8767Y0.575
X3.9Y6.0
X3.902Y2.025
X3.902Y1.425
X3.9767Y1.175
X3.9767Y0.575
X4.002Y2.025
X4.002Y1.425
X4.0767Y1.175
X4.0767Y0.575
X4.1Y6.0
X4.1Y5.9
X4.102Y2.025
X4.102Y1.425
X4.1767Y1.175
X4.1767Y0.575
X4.2Y6.0
X4.2Y5.9
X4.2Y5.8
X4.202Y2.025
X4.202Y1.425
X4.252Y4.975
X4.252Y4.875
X4.252Y4.775
X4.252Y4.675
X4.252Y4.575
X4.252Y4.475
X4.252Y4.375
X4.252Y4.275
X4.252Y4.175
X4.252Y4.075
X4.252Y3.975
X4.252Y3.875
X4.252Y3.775
X4.252Y3.675
X4.252Y3.575
X4.252Y3.475
X4.252Y3.375
X4.252Y3.275
X4.252Y3.175
X4.252Y3.075
X4.252Y2.975
X4.252Y2.875
X4.252Y2.775
X4.252Y2.675
X4.252Y2.575
X4.252Y2.475
X4.252Y2.375
X4.252Y2.275
X4.2767Y1.175
X4.2767Y0.575
X4.3Y6.0
X4.3Y5.9
X4.3Y5.8
X4.3767Y1.175
X4.3767Y0.575
X4.4Y5.8
X4.4Y6.0
X4.4Y5.9
X4.452Y4.875
X4.452Y4.775
X4.452Y4.675
X4.452Y4.575
X4.452Y4.475
X4.452Y4.375
X4.452Y4.275
X4.452Y4.175
X4.452Y4.075
X4.452Y3.975
X4.452Y3.875
X4.452Y3.775
X4.452Y3.675
X4.452Y3.575
X4.452Y3.475
X4.452Y3.375
X4.452Y3.275
X4.452Y3.175
X4.452Y3.075
X4.452Y2.975
X4.452Y2.875
X4.452Y2.775
X4.452Y2.675
X4.452Y2.575
X4.452Y2.475
X4.452Y2.375
X4.452Y2.275
X4.452Y2.175
X4.452Y2.075
X4.452Y1.975
X4.452Y1.875
X4.452Y1.775
X4.4767Y1.175
X4.4767Y0.575
X4.5Y6.0
X4.5Y5.9
X4.5Y5.8
X4.5767Y1.175
X4.5767Y0.575
X4.6Y6.0
X4.6Y5.9
X4.6Y5.8
X4.6767Y1.175
X4.6767Y0.575
X4.7Y6.0
X4.7Y5.9
X4.7Y5.8
X4.7767Y1.175
X4.7767Y0.575
X4.8Y6.0
X4.8Y5.9
X4.8Y5.8
X4.8767Y1.175
X4.8767Y0.575
X4.9Y6.0
X4.9Y5.9
X4.9Y5.8
X4.9767Y1.175
X4.9767Y0.575
X5.0767Y1.175
X5.0767Y0.575
X5.1767Y1.175
X5.1767Y0.575
X5.2767Y1.175
X5.2767Y0.575
X5.352Y4.875
X5.352Y4.775
X5.352Y4.675
X5.352Y4.575
X5.352Y4.475
X5.352Y4.375
X5.352Y4.275
X5.352Y4.175
X5.352Y4.075
X5.352Y3.975
X5.352Y3.875
X5.352Y3.775
X5.352Y3.675
X5.352Y3.575
X5.352Y3.475
X5.352Y3.375
X5.352Y3.275
X5.352Y3.175
X5.352Y3.075
X5.352Y2.975
X5.352Y2.875
X5.352Y2.775
X5.352Y2.675
X5.352Y2.575
X5.352Y2.475
X5.352Y2.375
X5.352Y2.275
X5.352Y2.175
X5.352Y2.075
X5.352Y1.975
X5.352Y1.875
X5.352Y1.775
X5.3767Y1.175
X5.3767Y0.575
X5.4767Y1.175
X5.4767Y0.575
X5.552Y4.275
X5.552Y4.175
X5.552Y4.075
X5.552Y3.975
X5.552Y3.875
X5.552Y3.775
X5.552Y3.675
X5.552Y3.575
X5.552Y3.475
X5.552Y3.375
X5.552Y3.275
X5.552Y3.175
X5.552Y3.075
X5.552Y2.975
X5.552Y2.875
X5.552Y2.775
X5.552Y2.225
X5.552Y2.125
X5.552Y2.025
X5.552Y1.925
X5.552Y1.825
X5.552Y1.725
X5.5767Y1.175
X5.5767Y0.575
X5.6767Y1.175
X5.6767Y0.575
X5.752Y0.375
X5.7767Y1.175
X5.7767Y0.575
X5.852Y0.375
X5.8767Y1.175
X5.8767Y0.575
X5.952Y0.375
X5.9767Y1.175
X5.9767Y0.575
X6.052Y0.375
X6.0767Y1.175
X6.0767Y0.575
X6.102Y4.91
X6.102Y4.8313
X6.152Y0.375
X6.1767Y1.175
X6.1767Y0.575
X6.252Y0.375
X6.2767Y1.175
X6.2767Y0.575
X6.352Y0.375
X6.3767Y1.175
X6.3767Y0.575
X6.452Y4.275
X6.452Y4.175
X6.452Y4.075
X6.452Y3.975
X6.452Y3.875
X6.452Y3.775
X6.452Y3.675
X6.452Y3.575
X6.452Y3.475
X6.452Y3.375
X6.452Y3.275
X6.452Y3.175
X6.452Y3.075
X6.452Y2.975
X6.452Y2.875
X6.452Y2.775
X6.452Y2.225
X6.452Y2.125
X6.452Y2.025
X6.452Y1.925
X6.452Y1.825
X6.452Y1.725
X6.452Y0.375
X6.4767Y1.175
X6.4767Y0.575
X6.552Y0.375
X6.5767Y1.175
X6.5767Y0.575
X6.6767Y1.175
X6.6767Y0.575
X6.702Y5.125
X6.702Y5.025
X6.702Y4.925
X6.702Y4.825
X6.702Y4.725
X6.702Y4.625
X6.702Y4.525
X6.702Y4.425
X6.702Y4.325
X6.702Y4.225
X6.702Y4.125
X6.702Y4.025
X6.702Y3.925
X6.702Y3.825
X6.702Y3.725
X6.702Y3.625
X6.702Y3.525
X6.702Y3.425
X6.702Y3.325
X6.702Y3.225
X6.702Y3.125
X6.702Y3.025
X6.702Y2.925
X6.702Y2.825
X6.702Y2.725
X6.702Y2.625
X6.702Y2.525
X6.702Y2.425
X6.702Y2.325
X6.702Y2.225
X6.702Y2.125
X6.702Y2.025
X6.702Y0.375
X6.7767Y1.175
X6.7767Y0.575
X6.802Y0.375
X6.8767Y1.175
X6.8767Y0.575
X6.902Y0.375
X6.9767Y1.175
X6.9767Y0.575
X7.002Y0.375
X7.102Y0.375
X7.202Y0.375
X7.302Y0.375
X7.402Y0.375
X7.502Y0.375
X7.602Y5.125
X7.602Y5.025
X7.602Y4.925
X7.602Y4.825
X7.602Y4.725
X7.602Y4.625
X7.602Y4.525
X7.602Y4.425
X7.602Y4.325
X7.602Y4.225
X7.602Y4.125
X7.602Y4.025
X7.602Y3.925
X7.602Y3.825
X7.602Y3.725
X7.602Y3.625
X7.602Y3.525
X7.602Y3.425
X7.602Y3.325
X7.602Y3.225
X7.602Y3.125
X7.602Y3.025
X7.602Y2.925
X7.602Y2.825
X7.602Y2.725
X7.602Y2.625
X7.602Y2.525
X7.602Y2.425
X7.602Y2.325
X7.602Y2.225
X7.602Y2.125
X7.602Y2.025
X7.652Y0.375
X7.752Y0.375
X7.802Y5.125
X7.802Y5.025
X7.802Y4.925
X7.802Y4.825
X7.802Y4.725
X7.802Y4.625
X7.802Y4.525
X7.802Y4.425
X7.802Y4.325
X7.802Y4.225
X7.802Y4.125
X7.802Y4.025
X7.802Y3.925
X7.802Y3.825
X7.802Y3.725
X7.802Y3.625
X7.802Y3.525
X7.802Y3.425
X7.802Y3.325
X7.802Y3.225
X7.802Y2.925
X7.802Y2.825
X7.802Y2.725
X7.802Y2.625
X7.802Y2.525
X7.802Y2.425
X7.802Y2.325
X7.802Y2.225
X7.802Y2.125
X7.802Y2.025
X7.802Y1.925
X7.802Y1.825
X7.802Y1.725
X7.802Y1.625
X7.802Y1.525
X7.802Y1.425
X7.802Y1.325
X7.802Y1.225
X7.802Y1.125
X7.802Y1.025
X7.852Y0.375
X7.952Y0.375
X8.052Y0.375
X8.152Y0.375
X8.252Y0.375
X8.352Y0.375
X8.402Y5.125
X8.402Y5.025
X8.402Y4.925
X8.402Y4.825
X8.402Y4.725
X8.402Y4.625
X8.402Y4.525
X8.402Y4.425
X8.402Y4.325
X8.402Y4.225
X8.402Y4.125
X8.402Y4.025
X8.402Y3.925
X8.402Y3.825
X8.402Y3.725
X8.402Y3.625
X8.402Y3.525
X8.402Y3.425
X8.402Y3.325
X8.402Y3.225
X8.402Y2.925
X8.402Y2.825
X8.402Y2.725
X8.402Y2.625
X8.402Y2.525
X8.402Y2.425
X8.402Y2.325
X8.402Y2.225
X8.402Y2.125
X8.402Y2.025
X8.402Y1.925
X8.402Y1.825
X8.402Y1.725
X8.402Y1.625
X8.402Y1.525
X8.402Y1.425
X8.402Y1.325
X8.402Y1.225
X8.402Y1.125
X8.402Y1.025
X8.452Y0.375
T5
X-0.948Y5.475
X-0.948Y2.75
X-0.948Y0.025
M30
