%TF.GenerationSoftware,KiCad,Pcbnew,9.0.7-9.0.7~ubuntu24.04.1*%
%TF.CreationDate,2026-01-12T10:13:16+02:00*%
%TF.ProjectId,HCP65 32 Pin Tester,48435036-3520-4333-9220-50696e205465,V1*%
%TF.SameCoordinates,Original*%
%TF.FileFunction,Soldermask,Top*%
%TF.FilePolarity,Negative*%
%FSLAX46Y46*%
G04 Gerber Fmt 4.6, Leading zero omitted, Abs format (unit mm)*
G04 Created by KiCad (PCBNEW 9.0.7-9.0.7~ubuntu24.04.1) date 2026-01-12 10:13:16*
%MOMM*%
%LPD*%
G01*
G04 APERTURE LIST*
G04 Aperture macros list*
%AMRoundRect*
0 Rectangle with rounded corners*
0 $1 Rounding radius*
0 $2 $3 $4 $5 $6 $7 $8 $9 X,Y pos of 4 corners*
0 Add a 4 corners polygon primitive as box body*
4,1,4,$2,$3,$4,$5,$6,$7,$8,$9,$2,$3,0*
0 Add four circle primitives for the rounded corners*
1,1,$1+$1,$2,$3*
1,1,$1+$1,$4,$5*
1,1,$1+$1,$6,$7*
1,1,$1+$1,$8,$9*
0 Add four rect primitives between the rounded corners*
20,1,$1+$1,$2,$3,$4,$5,0*
20,1,$1+$1,$4,$5,$6,$7,0*
20,1,$1+$1,$6,$7,$8,$9,0*
20,1,$1+$1,$8,$9,$2,$3,0*%
G04 Aperture macros list end*
%ADD10R,0.900000X0.450000*%
%ADD11R,0.800000X1.000000*%
%ADD12RoundRect,0.250000X-0.262500X-0.450000X0.262500X-0.450000X0.262500X0.450000X-0.262500X0.450000X0*%
%ADD13R,1.800000X0.450000*%
%ADD14R,1.000000X0.550000*%
%ADD15R,1.500000X1.500000*%
%ADD16C,1.500000*%
%ADD17RoundRect,0.250000X-0.250000X-0.475000X0.250000X-0.475000X0.250000X0.475000X-0.250000X0.475000X0*%
%ADD18RoundRect,0.250000X0.250000X0.475000X-0.250000X0.475000X-0.250000X-0.475000X0.250000X-0.475000X0*%
%ADD19C,3.330000*%
%ADD20R,1.650000X1.650000*%
%ADD21C,1.650000*%
%ADD22C,2.475000*%
%ADD23C,6.400000*%
%ADD24R,1.700000X1.700000*%
%ADD25C,1.700000*%
%ADD26C,4.000000*%
%ADD27C,1.470000*%
%ADD28C,2.500000*%
G04 APERTURE END LIST*
D10*
%TO.C,RN9*%
X68961000Y6007000D03*
X68961000Y5207000D03*
X68961000Y4407000D03*
X68961000Y3607000D03*
X67261000Y3607000D03*
X67261000Y4407000D03*
X67261000Y5207000D03*
X67261000Y6007000D03*
%TD*%
%TO.C,RN10*%
X68961000Y10579000D03*
X68961000Y9779000D03*
X68961000Y8979000D03*
X68961000Y8179000D03*
X67261000Y8179000D03*
X67261000Y8979000D03*
X67261000Y9779000D03*
X67261000Y10579000D03*
%TD*%
D11*
%TO.C,LED36*%
X66802000Y-34290000D03*
X64801999Y-34290000D03*
%TD*%
%TO.C,LED4*%
X71752500Y-34290000D03*
X69752499Y-34290000D03*
%TD*%
%TO.C,LED39*%
X66802000Y-26670000D03*
X64801999Y-26670000D03*
%TD*%
%TO.C,LED25*%
X66802000Y-21590000D03*
X64801999Y-21590000D03*
%TD*%
%TO.C,LED29*%
X66802000Y-11430000D03*
X64801999Y-11430000D03*
%TD*%
%TO.C,LED19*%
X29734000Y-36830000D03*
X31734001Y-36830000D03*
%TD*%
D12*
%TO.C,R1*%
X24868500Y-8880000D03*
X26693500Y-8880000D03*
%TD*%
D11*
%TO.C,LED12*%
X29734000Y-13970000D03*
X31734001Y-13970000D03*
%TD*%
D12*
%TO.C,R11*%
X69826500Y-46980000D03*
X71651500Y-46980000D03*
%TD*%
D11*
%TO.C,LED14*%
X29734000Y-8890000D03*
X31734001Y-8890000D03*
%TD*%
%TO.C,LED5*%
X24767500Y-44450000D03*
X26767501Y-44450000D03*
%TD*%
%TO.C,LED20*%
X29734000Y-34290000D03*
X31734001Y-34290000D03*
%TD*%
%TO.C,LED1*%
X24767500Y-6350000D03*
X26767501Y-6350000D03*
%TD*%
D13*
%TO.C,IC4*%
X61081000Y-60710000D03*
X61081000Y-60060000D03*
X61081001Y-59410000D03*
X61081000Y-58760000D03*
X61081000Y-58110000D03*
X61081000Y-57460000D03*
X61081000Y-56810000D03*
X61081001Y-56160000D03*
X61081000Y-55510000D03*
X61081000Y-54860000D03*
X53981000Y-54860000D03*
X53981000Y-55510000D03*
X53980999Y-56160000D03*
X53981000Y-56810000D03*
X53981000Y-57460000D03*
X53981000Y-58110000D03*
X53981000Y-58760000D03*
X53980999Y-59410000D03*
X53981000Y-60060000D03*
X53981000Y-60710000D03*
%TD*%
D11*
%TO.C,LED30*%
X66802000Y-8890000D03*
X64801999Y-8890000D03*
%TD*%
D10*
%TO.C,RN1*%
X11166000Y-18896200D03*
X11166000Y-18096200D03*
X11166000Y-17296200D03*
X11166000Y-16496200D03*
X9466000Y-16496200D03*
X9466000Y-17296200D03*
X9466000Y-18096200D03*
X9466000Y-18896200D03*
%TD*%
D11*
%TO.C,LED27*%
X66802000Y-16510000D03*
X64801999Y-16510000D03*
%TD*%
D14*
%TO.C,D5*%
X40833000Y-42530000D03*
X40833000Y-43830000D03*
X42732999Y-43180000D03*
%TD*%
D11*
%TO.C,LED22*%
X29734000Y-29210000D03*
X31734001Y-29210000D03*
%TD*%
%TO.C,LED9*%
X29734000Y-21590000D03*
X31734001Y-21590000D03*
%TD*%
D12*
%TO.C,R7*%
X24884500Y-36820000D03*
X26709500Y-36820000D03*
%TD*%
D11*
%TO.C,LED8*%
X24783500Y-34290000D03*
X26783501Y-34290000D03*
%TD*%
%TO.C,LED34*%
X66802000Y-39370000D03*
X64801999Y-39370000D03*
%TD*%
D10*
%TO.C,RN3*%
X64907000Y-53918000D03*
X64907000Y-54718000D03*
X64907000Y-55518000D03*
X64907000Y-56318000D03*
X66607000Y-56318000D03*
X66607000Y-55518000D03*
X66607000Y-54718000D03*
X66607000Y-53918000D03*
%TD*%
D11*
%TO.C,LED26*%
X66802000Y-19050000D03*
X64801999Y-19050000D03*
%TD*%
%TO.C,LED13*%
X29734000Y-11430000D03*
X31734001Y-11430000D03*
%TD*%
D15*
%TO.C,C10*%
X2413000Y10541000D03*
D16*
X4413000Y10541000D03*
%TD*%
D11*
%TO.C,LED21*%
X29734000Y-31750000D03*
X31734001Y-31750000D03*
%TD*%
%TO.C,LED15*%
X29734000Y-6350000D03*
X31734001Y-6350000D03*
%TD*%
D17*
%TO.C,C4*%
X56591000Y-62906000D03*
X58491000Y-62906000D03*
%TD*%
D11*
%TO.C,LED16*%
X29734000Y-44450000D03*
X31734001Y-44450000D03*
%TD*%
%TO.C,LED49*%
X29495999Y11049000D03*
X31496000Y11049000D03*
%TD*%
%TO.C,LED3*%
X71707000Y-16510000D03*
X69706999Y-16510000D03*
%TD*%
D17*
%TO.C,C2*%
X59435000Y1973000D03*
X61335000Y1973000D03*
%TD*%
D14*
%TO.C,D1*%
X40833000Y-7732000D03*
X40833000Y-9032000D03*
X42732999Y-8382000D03*
%TD*%
D10*
%TO.C,RN6*%
X11801000Y-31299000D03*
X11801000Y-30499000D03*
X11801000Y-29699000D03*
X11801000Y-28899000D03*
X10101000Y-28899000D03*
X10101000Y-29699000D03*
X10101000Y-30499000D03*
X10101000Y-31299000D03*
%TD*%
D13*
%TO.C,IC1*%
X14046000Y-12457000D03*
X14046000Y-13107000D03*
X14045999Y-13757000D03*
X14046000Y-14407000D03*
X14046000Y-15057000D03*
X14046000Y-15707000D03*
X14046000Y-16357000D03*
X14045999Y-17007000D03*
X14046000Y-17657000D03*
X14046000Y-18307000D03*
X21146000Y-18307000D03*
X21146000Y-17657000D03*
X21146001Y-17007000D03*
X21146000Y-16357000D03*
X21146000Y-15707000D03*
X21146000Y-15057000D03*
X21146000Y-14407000D03*
X21146001Y-13757000D03*
X21146000Y-13107000D03*
X21146000Y-12457000D03*
%TD*%
%TO.C,IC3*%
X63615000Y4128000D03*
X63615000Y4778000D03*
X63615000Y5428000D03*
X63615000Y6078000D03*
X63615000Y6728000D03*
X63615000Y7378000D03*
X63615000Y8028000D03*
X63615000Y8678000D03*
X63615000Y9328000D03*
X63615000Y9978000D03*
X56515000Y9978000D03*
X56515000Y9328000D03*
X56515000Y8678000D03*
X56515000Y8028000D03*
X56515000Y7378000D03*
X56515000Y6728000D03*
X56515000Y6078000D03*
X56515000Y5428000D03*
X56515000Y4778000D03*
X56515000Y4128000D03*
%TD*%
D11*
%TO.C,LED6*%
X71736500Y-6350000D03*
X69736499Y-6350000D03*
%TD*%
%TO.C,LED17*%
X29734000Y-41910000D03*
X31734001Y-41910000D03*
%TD*%
%TO.C,LED18*%
X29734000Y-39370000D03*
X31734001Y-39370000D03*
%TD*%
D18*
%TO.C,C1*%
X18669000Y-10287000D03*
X16769000Y-10287000D03*
%TD*%
D19*
%TO.C,J1*%
X-6350000Y1270000D03*
X-6350000Y-52070000D03*
D20*
X0Y-41910000D03*
D21*
X2540000Y-43180000D03*
X0Y-44450000D03*
X2540000Y-45720000D03*
X0Y-46989999D03*
X2540000Y-48260000D03*
X0Y-49530000D03*
X2540000Y-50800000D03*
X0Y-27940000D03*
X2540000Y-29210000D03*
X0Y-30479999D03*
X2540000Y-31750000D03*
X0Y-33020000D03*
X2540000Y-34290000D03*
X0Y-35560000D03*
X2540000Y-36830000D03*
X0Y-13970001D03*
X2540000Y-15240000D03*
X0Y-16510000D03*
X2540000Y-17780000D03*
X0Y-19050000D03*
X2540000Y-20320000D03*
X0Y-21590000D03*
X2540000Y-22860000D03*
X0Y0D03*
X2540000Y-1270000D03*
X0Y-2540000D03*
X2540000Y-3810000D03*
X0Y-5080000D03*
X2540000Y-6350000D03*
X0Y-7619999D03*
X2540000Y-8890000D03*
D22*
X-10920000Y4060000D03*
X4060000Y-11430000D03*
X4060000Y-25400001D03*
X4060000Y-39370000D03*
X-10920000Y-54860000D03*
%TD*%
D11*
%TO.C,LED37*%
X66802000Y-31750000D03*
X64801999Y-31750000D03*
%TD*%
D23*
%TO.C,H6*%
X26035000Y-61595000D03*
%TD*%
D11*
%TO.C,LED31*%
X66802000Y-6350000D03*
X64801999Y-6350000D03*
%TD*%
D10*
%TO.C,RN2*%
X11166000Y-14408000D03*
X11166000Y-13608000D03*
X11166000Y-12808000D03*
X11166000Y-12008000D03*
X9466000Y-12008000D03*
X9466000Y-12808000D03*
X9466000Y-13608000D03*
X9466000Y-14408000D03*
%TD*%
D14*
%TO.C,D8*%
X42733000Y-34940000D03*
X42733000Y-33640000D03*
X40833001Y-34290000D03*
%TD*%
D23*
%TO.C,H4*%
X3175000Y-61595000D03*
%TD*%
%TO.C,H3*%
X-4445000Y-61595000D03*
%TD*%
D12*
%TO.C,R4*%
X24995500Y-46980000D03*
X26820500Y-46980000D03*
%TD*%
D18*
%TO.C,C3*%
X19095000Y-27432000D03*
X17195000Y-27432000D03*
%TD*%
D24*
%TO.C,J8*%
X36830000Y-6350000D03*
D25*
X36830000Y-8890000D03*
X36830000Y-11430000D03*
X36830000Y-13970000D03*
X36830000Y-16510000D03*
X36830000Y-19050000D03*
X36830000Y-21590000D03*
X36830000Y-24130000D03*
X36830000Y-26670000D03*
X36830000Y-29210000D03*
X36830000Y-31750000D03*
X36830000Y-34290000D03*
X36830000Y-36830000D03*
X36830000Y-39370000D03*
X36830000Y-41910000D03*
X36830000Y-44450000D03*
%TD*%
D14*
%TO.C,D7*%
X42860000Y-17160000D03*
X42860000Y-15860000D03*
X40960001Y-16510000D03*
%TD*%
D11*
%TO.C,LED7*%
X24767500Y-16510000D03*
X26767501Y-16510000D03*
%TD*%
%TO.C,LED23*%
X29734000Y-26670000D03*
X31734001Y-26670000D03*
%TD*%
%TO.C,LED24*%
X66802000Y-24130000D03*
X64801999Y-24130000D03*
%TD*%
D23*
%TO.C,H1*%
X41275000Y-61595000D03*
%TD*%
D14*
%TO.C,D6*%
X45913000Y-7732000D03*
X45913000Y-9032000D03*
X47812999Y-8382000D03*
%TD*%
D11*
%TO.C,LED35*%
X66802000Y-36830000D03*
X64801999Y-36830000D03*
%TD*%
%TO.C,LED10*%
X29734000Y-19050000D03*
X31734001Y-19050000D03*
%TD*%
D10*
%TO.C,RN4*%
X64907000Y-58998000D03*
X64907000Y-59798000D03*
X64907000Y-60598000D03*
X64907000Y-61398000D03*
X66607000Y-61398000D03*
X66607000Y-60598000D03*
X66607000Y-59798000D03*
X66607000Y-58998000D03*
%TD*%
D24*
%TO.C,J3*%
X52070000Y-6350000D03*
D25*
X52070000Y-8890000D03*
X52070000Y-11430000D03*
X52070000Y-13970000D03*
X52070000Y-16510000D03*
X52070000Y-19050000D03*
X52070000Y-21590000D03*
X52070000Y-24130000D03*
X52070000Y-26670000D03*
X52070000Y-29210000D03*
X52070000Y-31750000D03*
X52070000Y-34290000D03*
X52070000Y-36830000D03*
X52070000Y-39370000D03*
X52070000Y-41910000D03*
X52070000Y-44450000D03*
%TD*%
D12*
%TO.C,R12*%
X29671000Y13345000D03*
X31496000Y13345000D03*
%TD*%
D11*
%TO.C,LED33*%
X66802000Y-41910000D03*
X64801999Y-41910000D03*
%TD*%
D10*
%TO.C,RN5*%
X11801000Y-36125000D03*
X11801000Y-35325000D03*
X11801000Y-34525000D03*
X11801000Y-33725000D03*
X10101000Y-33725000D03*
X10101000Y-34525000D03*
X10101000Y-35325000D03*
X10101000Y-36125000D03*
%TD*%
D11*
%TO.C,LED32*%
X66802000Y-44450000D03*
X64801999Y-44450000D03*
%TD*%
D14*
%TO.C,D4*%
X46040000Y-33640000D03*
X46040000Y-34940000D03*
X47939999Y-34290000D03*
%TD*%
%TO.C,D3*%
X46167000Y-15860000D03*
X46167000Y-17160000D03*
X48066999Y-16510000D03*
%TD*%
D24*
%TO.C,J9*%
X59690000Y-6350000D03*
D25*
X59690000Y-8890000D03*
X59690000Y-11430000D03*
X59690000Y-13970000D03*
X59690000Y-16510000D03*
X59690000Y-19050000D03*
X59690000Y-21590000D03*
X59690000Y-24130000D03*
X59690000Y-26670000D03*
X59690000Y-29210000D03*
X59690000Y-31750000D03*
X59690000Y-34290000D03*
X59690000Y-36830000D03*
X59690000Y-39370000D03*
X59690000Y-41910000D03*
X59690000Y-44450000D03*
%TD*%
D11*
%TO.C,LED28*%
X66802000Y-13970000D03*
X64801999Y-13970000D03*
%TD*%
%TO.C,LED11*%
X29734000Y-16510000D03*
X31734001Y-16510000D03*
%TD*%
D26*
%TO.C,J2*%
X24380000Y10162000D03*
X11680000Y10162000D03*
D27*
X14450000Y7622000D03*
X15470000Y5842000D03*
X16490000Y7622000D03*
X17510000Y5842000D03*
X18530000Y7622000D03*
X19550000Y5842000D03*
X20570000Y7622000D03*
X21590000Y5842000D03*
D28*
X9900000Y6732000D03*
X26160000Y6732000D03*
%TD*%
D11*
%TO.C,LED2*%
X71752500Y-44450000D03*
X69752499Y-44450000D03*
%TD*%
D12*
%TO.C,R3*%
X69826500Y-36820000D03*
X71651500Y-36820000D03*
%TD*%
D13*
%TO.C,IC2*%
X14611000Y-29587000D03*
X14611000Y-30237000D03*
X14610999Y-30887000D03*
X14611000Y-31537000D03*
X14611000Y-32187000D03*
X14611000Y-32837000D03*
X14611000Y-33487000D03*
X14610999Y-34137000D03*
X14611000Y-34787000D03*
X14611000Y-35437000D03*
X21711000Y-35437000D03*
X21711000Y-34787000D03*
X21711001Y-34137000D03*
X21711000Y-33487000D03*
X21711000Y-32837000D03*
X21711000Y-32187000D03*
X21711000Y-31537000D03*
X21711001Y-30887000D03*
X21711000Y-30237000D03*
X21711000Y-29587000D03*
%TD*%
D11*
%TO.C,LED38*%
X66802000Y-29210000D03*
X64801999Y-29210000D03*
%TD*%
D12*
%TO.C,R5*%
X69937500Y-8880000D03*
X71762500Y-8880000D03*
%TD*%
D23*
%TO.C,H5*%
X10795000Y-61595000D03*
%TD*%
%TO.C,H2*%
X-12065000Y-61595000D03*
%TD*%
D12*
%TO.C,R2*%
X69937500Y-19040000D03*
X71762500Y-19040000D03*
%TD*%
%TO.C,R6*%
X24868500Y-19040000D03*
X26693500Y-19040000D03*
%TD*%
D11*
%TO.C,LED48*%
X29734000Y-24130000D03*
X31734001Y-24130000D03*
%TD*%
D23*
%TO.C,H7*%
X18415000Y-61595000D03*
%TD*%
%TO.C,H8*%
X33655000Y-61595000D03*
%TD*%
D14*
%TO.C,D2*%
X47940000Y-43830000D03*
X47940000Y-42530000D03*
X46040001Y-43180000D03*
%TD*%
M02*
