M48
; DRILL file {KiCad 7.0.5} date Sun Dec 17 09:10:26 2023
; FORMAT={-:-/ absolute / inch / decimal}
; #@! TF.CreationDate,2023-12-17T09:10:26+02:00
; #@! TF.GenerationSoftware,Kicad,Pcbnew,7.0.5
; #@! TF.FileFunction,Plated,1,2,PTH
FMAT,2
INCH
; #@! TA.AperFunction,Plated,PTH,ViaDrill
T1C0.0157
; #@! TA.AperFunction,Plated,PTH,ComponentDrill
T2C0.0394
; #@! TA.AperFunction,Plated,PTH,ComponentDrill
T3C0.0551
%
G90
G05
T1
X3.465Y-3.735
X3.545Y-3.86
X3.59Y-3.46
X3.6541Y-3.7991
X3.675Y-3.763
X3.7173Y-3.8139
X3.7366Y-3.66
X3.7415Y-3.6036
X3.7428Y-3.7638
X3.7696Y-3.464
X3.8047Y-3.932
X3.8506Y-3.919
X3.8583Y-3.7632
X3.8587Y-3.7061
X3.8598Y-3.5982
X3.8676Y-4.0156
X3.9667Y-3.8902
X4.0126Y-3.5767
X4.0291Y-3.9167
X4.0527Y-3.5567
X4.0535Y-3.8477
X4.0535Y-3.7124
X4.0618Y-3.7727
X4.127Y-3.4698
T2
X3.4Y-2.8
X3.4Y-2.9
X3.4Y-3.0
X3.4Y-3.1
X3.4Y-3.2
X3.4Y-3.3
X3.4Y-3.4
X3.4Y-3.5
X3.4Y-3.6
X3.4Y-3.7
X3.4Y-3.8
X3.4Y-3.9
X4.3Y-2.8
X4.3Y-2.9
X4.3Y-3.0
X4.3Y-3.1
X4.3Y-3.2
X4.3Y-3.3
X4.3Y-3.4
X4.3Y-3.5
X4.3Y-3.6
X4.3Y-3.7
X4.3Y-3.8
X4.3Y-3.9
T3
X3.5547Y-3.05
X3.6531Y-2.6563
X3.6531Y-3.1484
X3.85Y-3.05
X4.0469Y-2.6563
X4.0469Y-3.1484
X4.1453Y-3.05
T0
M30
