%TF.GenerationSoftware,KiCad,Pcbnew,9.0.2*%
%TF.CreationDate,2025-06-16T19:37:52+02:00*%
%TF.ProjectId,Coprocessor Support,436f7072-6f63-4657-9373-6f7220537570,V0*%
%TF.SameCoordinates,Original*%
%TF.FileFunction,Copper,L1,Top*%
%TF.FilePolarity,Positive*%
%FSLAX46Y46*%
G04 Gerber Fmt 4.6, Leading zero omitted, Abs format (unit mm)*
G04 Created by KiCad (PCBNEW 9.0.2) date 2025-06-16 19:37:52*
%MOMM*%
%LPD*%
G01*
G04 APERTURE LIST*
G04 Aperture macros list*
%AMRoundRect*
0 Rectangle with rounded corners*
0 $1 Rounding radius*
0 $2 $3 $4 $5 $6 $7 $8 $9 X,Y pos of 4 corners*
0 Add a 4 corners polygon primitive as box body*
4,1,4,$2,$3,$4,$5,$6,$7,$8,$9,$2,$3,0*
0 Add four circle primitives for the rounded corners*
1,1,$1+$1,$2,$3*
1,1,$1+$1,$4,$5*
1,1,$1+$1,$6,$7*
1,1,$1+$1,$8,$9*
0 Add four rect primitives between the rounded corners*
20,1,$1+$1,$2,$3,$4,$5,0*
20,1,$1+$1,$4,$5,$6,$7,0*
20,1,$1+$1,$6,$7,$8,$9,0*
20,1,$1+$1,$8,$9,$2,$3,0*%
G04 Aperture macros list end*
%TA.AperFunction,SMDPad,CuDef*%
%ADD10RoundRect,0.250000X-0.475000X0.250000X-0.475000X-0.250000X0.475000X-0.250000X0.475000X0.250000X0*%
%TD*%
%TA.AperFunction,ComponentPad*%
%ADD11RoundRect,0.400000X-0.400000X-0.400000X0.400000X-0.400000X0.400000X0.400000X-0.400000X0.400000X0*%
%TD*%
%TA.AperFunction,ComponentPad*%
%ADD12O,1.600000X1.600000*%
%TD*%
%TA.AperFunction,ComponentPad*%
%ADD13R,1.600000X1.600000*%
%TD*%
%TA.AperFunction,SMDPad,CuDef*%
%ADD14R,1.475000X0.450000*%
%TD*%
%TA.AperFunction,SMDPad,CuDef*%
%ADD15R,1.550000X0.650000*%
%TD*%
%TA.AperFunction,SMDPad,CuDef*%
%ADD16RoundRect,0.250000X0.475000X-0.250000X0.475000X0.250000X-0.475000X0.250000X-0.475000X-0.250000X0*%
%TD*%
%TA.AperFunction,SMDPad,CuDef*%
%ADD17RoundRect,0.250000X0.250000X0.475000X-0.250000X0.475000X-0.250000X-0.475000X0.250000X-0.475000X0*%
%TD*%
%TA.AperFunction,SMDPad,CuDef*%
%ADD18R,0.875000X0.450000*%
%TD*%
%TA.AperFunction,SMDPad,CuDef*%
%ADD19R,1.150000X0.600000*%
%TD*%
%TA.AperFunction,ViaPad*%
%ADD20C,0.800000*%
%TD*%
%TA.AperFunction,Conductor*%
%ADD21C,0.380000*%
%TD*%
%TA.AperFunction,Conductor*%
%ADD22C,0.350000*%
%TD*%
%TA.AperFunction,Conductor*%
%ADD23C,0.200000*%
%TD*%
G04 APERTURE END LIST*
D10*
%TO.P,C42,1*%
%TO.N,/3.3V*%
X11557000Y807000D03*
%TO.P,C42,2*%
%TO.N,GND*%
X11557000Y-1093000D03*
%TD*%
%TO.P,C41,1*%
%TO.N,5V*%
X4318000Y807000D03*
%TO.P,C41,2*%
%TO.N,GND*%
X4318000Y-1093000D03*
%TD*%
D11*
%TO.P,J7,1,Pin_1*%
%TO.N,5V*%
X0Y0D03*
D12*
%TO.P,J7,2,Pin_2*%
%TO.N,CA19*%
X0Y-2540000D03*
%TO.P,J7,3,Pin_3*%
%TO.N,CA18*%
X0Y-5080000D03*
%TO.P,J7,4,Pin_4*%
%TO.N,CA17*%
X0Y-7620000D03*
D13*
%TO.P,J7,5,Pin_5*%
%TO.N,GND*%
X0Y-10160000D03*
D12*
%TO.P,J7,6,Pin_6*%
%TO.N,CA16*%
X0Y-12700000D03*
%TO.P,J7,7,Pin_7*%
%TO.N,CA15*%
X0Y-15240000D03*
%TO.P,J7,8,Pin_8*%
%TO.N,CA14*%
X0Y-17780000D03*
%TO.P,J7,9,Pin_9*%
%TO.N,CA13*%
X0Y-20320000D03*
%TO.P,J7,10,Pin_10*%
%TO.N,CA12*%
X0Y-22860000D03*
%TO.P,J7,11,Pin_11*%
%TO.N,CA11*%
X0Y-25400000D03*
D13*
%TO.P,J7,12,Pin_12*%
%TO.N,GND*%
X0Y-27940000D03*
D12*
%TO.P,J7,13,Pin_13*%
%TO.N,CA10*%
X0Y-30480000D03*
%TO.P,J7,14,Pin_14*%
%TO.N,CA9*%
X0Y-33020000D03*
%TO.P,J7,15,Pin_15*%
%TO.N,CA8*%
X0Y-35560000D03*
%TO.P,J7,16,Pin_16*%
%TO.N,CA7*%
X0Y-38100000D03*
D11*
%TO.P,J7,17,Pin_17*%
%TO.N,5V*%
X15240000Y-38100000D03*
D12*
%TO.P,J7,18,Pin_18*%
%TO.N,CA6*%
X15240000Y-35560000D03*
%TO.P,J7,19,Pin_19*%
%TO.N,CA5*%
X15240000Y-33020000D03*
%TO.P,J7,20,Pin_20*%
%TO.N,CA4*%
X15240000Y-30480000D03*
D13*
%TO.P,J7,21,Pin_21*%
%TO.N,GND*%
X15240000Y-27940000D03*
D12*
%TO.P,J7,22,Pin_22*%
%TO.N,CA3*%
X15240000Y-25400000D03*
%TO.P,J7,23,Pin_23*%
%TO.N,CA2*%
X15240000Y-22860000D03*
%TO.P,J7,24,Pin_24*%
%TO.N,CA1*%
X15240000Y-20320000D03*
%TO.P,J7,25,Pin_25*%
%TO.N,CA0*%
X15240000Y-17780000D03*
%TO.P,J7,26,Pin_26*%
%TO.N,unconnected-(J7-Pin_26-Pad26)*%
X15240000Y-15240000D03*
%TO.P,J7,27,Pin_27*%
%TO.N,~{CATOP}*%
X15240000Y-12700000D03*
D13*
%TO.P,J7,28,Pin_28*%
%TO.N,GND*%
X15240000Y-10160000D03*
D12*
%TO.P,J7,29,Pin_29*%
%TO.N,unconnected-(J7-Pin_29-Pad29)*%
X15240000Y-7620000D03*
%TO.P,J7,30,Pin_30*%
%TO.N,CAMemory1*%
X15240000Y-5080000D03*
%TO.P,J7,31,Pin_31*%
%TO.N,CAMemory0*%
X15240000Y-2540000D03*
%TO.P,J7,32,Pin_32*%
%TO.N,unconnected-(J7-Pin_32-Pad32)*%
X15240000Y0D03*
%TD*%
D14*
%TO.P,IC1,1,1A*%
%TO.N,/~{CAAA}*%
X3031000Y-6305000D03*
%TO.P,IC1,2,1B*%
%TO.N,/~{CAAB}*%
X3031000Y-6955000D03*
%TO.P,IC1,3,1Y*%
%TO.N,/~{AB}*%
X3031000Y-7605000D03*
%TO.P,IC1,4,2A*%
%TO.N,/~{CAAC}*%
X3031000Y-8255000D03*
%TO.P,IC1,5,2B*%
%TO.N,/~{CAAD}*%
X3031000Y-8905000D03*
%TO.P,IC1,6,2Y*%
%TO.N,/~{CD}*%
X3031000Y-9555000D03*
%TO.P,IC1,7,GND*%
%TO.N,GND*%
X3031000Y-10205000D03*
%TO.P,IC1,8,3Y*%
%TO.N,~{CATOP}*%
X8907000Y-10205000D03*
%TO.P,IC1,9,3A*%
%TO.N,/~{AB}*%
X8907000Y-9555000D03*
%TO.P,IC1,10,3B*%
%TO.N,/~{CD}*%
X8907000Y-8905000D03*
%TO.P,IC1,11,4Y*%
%TO.N,unconnected-(IC1-4Y-Pad11)*%
X8907000Y-8255000D03*
%TO.P,IC1,12,4A*%
%TO.N,GND*%
X8907000Y-7605000D03*
%TO.P,IC1,13,4B*%
X8907000Y-6955000D03*
%TO.P,IC1,14,3V*%
%TO.N,/3.3V*%
X8907000Y-6305000D03*
%TD*%
D10*
%TO.P,C1,2*%
%TO.N,GND*%
X11430000Y-33351000D03*
%TO.P,C1,1*%
%TO.N,5V*%
X11430000Y-31451000D03*
%TD*%
D15*
%TO.P,IC6,14,5V*%
%TO.N,5V*%
X9329000Y-21336000D03*
%TO.P,IC6,13,N.C.*%
%TO.N,unconnected-(IC6-N.C.-Pad13)*%
X9329000Y-22606000D03*
%TO.P,IC6,12,H*%
%TO.N,CA9*%
X9329000Y-23876000D03*
%TO.P,IC6,11,G*%
%TO.N,CA8*%
X9329000Y-25146000D03*
%TO.P,IC6,10,N.C.*%
%TO.N,unconnected-(IC6-N.C.-Pad10)*%
X9329000Y-26416000D03*
%TO.P,IC6,9,N.C.*%
%TO.N,unconnected-(IC6-N.C.-Pad9)*%
X9329000Y-27686000D03*
%TO.P,IC6,8,Y*%
%TO.N,/~{CAAB}*%
X9329000Y-28956000D03*
%TO.P,IC6,7,GND*%
%TO.N,GND*%
X3879000Y-28956000D03*
%TO.P,IC6,6,F*%
%TO.N,CA10*%
X3879000Y-27686000D03*
%TO.P,IC6,5,E*%
%TO.N,CA11*%
X3879000Y-26416000D03*
%TO.P,IC6,4,D*%
%TO.N,CA12*%
X3879000Y-25146000D03*
%TO.P,IC6,3,C*%
%TO.N,CA13*%
X3879000Y-23876000D03*
%TO.P,IC6,2,B*%
%TO.N,CA14*%
X3879000Y-22606000D03*
%TO.P,IC6,1,A*%
%TO.N,CA15*%
X3879000Y-21336000D03*
%TD*%
D16*
%TO.P,C14,2*%
%TO.N,GND*%
X11684000Y-21386000D03*
%TO.P,C14,1*%
%TO.N,5V*%
X11684000Y-23286000D03*
%TD*%
D17*
%TO.P,C15,1*%
%TO.N,/3.3V*%
X10205000Y-12954000D03*
%TO.P,C15,2*%
%TO.N,GND*%
X8305000Y-12954000D03*
%TD*%
%TO.P,C13,1*%
%TO.N,/3.3V*%
X7538000Y-4445000D03*
%TO.P,C13,2*%
%TO.N,GND*%
X5638000Y-4445000D03*
%TD*%
%TO.P,C12,1*%
%TO.N,/3.3V*%
X12237000Y-4953000D03*
%TO.P,C12,2*%
%TO.N,GND*%
X10337000Y-4953000D03*
%TD*%
D14*
%TO.P,IC7,1,1A*%
%TO.N,CA17*%
X4936000Y-14814000D03*
%TO.P,IC7,2,1B*%
%TO.N,CA16*%
X4936000Y-15464000D03*
%TO.P,IC7,3,1Y*%
%TO.N,/~{CAAC}*%
X4936000Y-16114000D03*
%TO.P,IC7,4,2A*%
%TO.N,CA18*%
X4936000Y-16764000D03*
%TO.P,IC7,5,2B*%
%TO.N,CA19*%
X4936000Y-17414000D03*
%TO.P,IC7,6,2Y*%
%TO.N,/~{CAAD}*%
X4936000Y-18064000D03*
%TO.P,IC7,7,GND*%
%TO.N,GND*%
X4936000Y-18714000D03*
%TO.P,IC7,8,3Y*%
%TO.N,unconnected-(IC7-3Y-Pad8)*%
X10812000Y-18714000D03*
%TO.P,IC7,9,3A*%
%TO.N,GND*%
X10812000Y-18064000D03*
%TO.P,IC7,10,3B*%
X10812000Y-17414000D03*
%TO.P,IC7,11,4Y*%
%TO.N,unconnected-(IC7-4Y-Pad11)*%
X10812000Y-16764000D03*
%TO.P,IC7,12,4A*%
%TO.N,GND*%
X10812000Y-16114000D03*
%TO.P,IC7,13,4B*%
X10812000Y-15464000D03*
%TO.P,IC7,14,3V*%
%TO.N,/3.3V*%
X10812000Y-14814000D03*
%TD*%
D15*
%TO.P,IC5,1,A*%
%TO.N,CA7*%
X3821000Y-31496000D03*
%TO.P,IC5,2,B*%
%TO.N,CA6*%
X3821000Y-32766000D03*
%TO.P,IC5,3,C*%
%TO.N,CA5*%
X3821000Y-34036000D03*
%TO.P,IC5,4,D*%
%TO.N,CA4*%
X3821000Y-35306000D03*
%TO.P,IC5,5,E*%
%TO.N,CA3*%
X3821000Y-36576000D03*
%TO.P,IC5,6,F*%
%TO.N,CA2*%
X3821000Y-37846000D03*
%TO.P,IC5,7,GND*%
%TO.N,GND*%
X3821000Y-39116000D03*
%TO.P,IC5,8,Y*%
%TO.N,/~{CAAA}*%
X9271000Y-39116000D03*
%TO.P,IC5,9,N.C.*%
%TO.N,unconnected-(IC5-N.C.-Pad9)*%
X9271000Y-37846000D03*
%TO.P,IC5,10,N.C.*%
%TO.N,unconnected-(IC5-N.C.-Pad10)*%
X9271000Y-36576000D03*
%TO.P,IC5,11,G*%
%TO.N,CA0*%
X9271000Y-35306000D03*
%TO.P,IC5,12,H*%
%TO.N,CA1*%
X9271000Y-34036000D03*
%TO.P,IC5,13,N.C.*%
%TO.N,unconnected-(IC5-N.C.-Pad13)*%
X9271000Y-32766000D03*
%TO.P,IC5,14,5V*%
%TO.N,5V*%
X9271000Y-31496000D03*
%TD*%
D18*
%TO.P,IC4,1,n.c.*%
%TO.N,unconnected-(IC4-n.c.-Pad1)*%
X11130000Y-6716000D03*
%TO.P,IC4,2,GND*%
%TO.N,GND*%
X11130000Y-7366000D03*
%TO.P,IC4,3,X1*%
%TO.N,CA19*%
X11130000Y-8016000D03*
%TO.P,IC4,4,~{Y}*%
%TO.N,CAMemory1*%
X13254000Y-8016000D03*
%TO.P,IC4,5,3V*%
%TO.N,/3.3V*%
X13254000Y-7366000D03*
%TO.P,IC4,6,Y*%
%TO.N,CAMemory0*%
X13254000Y-6716000D03*
%TD*%
D19*
%TO.P,IC36,1,6VIn*%
%TO.N,5V*%
X6701000Y696000D03*
%TO.P,IC36,2,GND*%
%TO.N,GND*%
X6701000Y-254000D03*
%TO.P,IC36,3,EN*%
%TO.N,5V*%
X6701000Y-1204000D03*
%TO.P,IC36,4,ADJ*%
%TO.N,unconnected-(IC36-ADJ-Pad4)*%
X9301000Y-1204000D03*
%TO.P,IC36,5,3.3VOut*%
%TO.N,/3.3V*%
X9301000Y696000D03*
%TD*%
D20*
%TO.N,GND*%
X12065000Y-12319000D03*
X12065000Y-9652000D03*
%TO.N,/3.3V*%
X10160000Y-12065000D03*
%TO.N,CA19*%
X9429347Y-16891000D03*
%TO.N,/3.3V*%
X12192000Y-5842000D03*
X8780000Y-4970000D03*
X11557000Y7000D03*
%TO.N,GND*%
X3175000Y-1016000D03*
%TO.N,5V*%
X13208000Y1651000D03*
X13208000Y-18542000D03*
%TO.N,GND*%
X6985000Y-18669000D03*
X6985000Y-12954000D03*
%TO.N,CA17*%
X1693498Y-7439096D03*
X3302000Y-13462000D03*
%TO.N,CA18*%
X1143000Y-13970000D03*
%TO.N,CA19*%
X11176000Y-8636000D03*
X11049000Y-3175000D03*
%TO.N,GND*%
X2921000Y-28956000D03*
X5588000Y-21209000D03*
%TO.N,5V*%
X13208000Y-23241000D03*
%TO.N,GND*%
X3429000Y-11049000D03*
X3556000Y-4445000D03*
%TO.N,/~{CAAD}*%
X3302000Y-17907000D03*
X1851000Y-8899304D03*
%TO.N,/~{CAAC}*%
X6142942Y-16089416D03*
X4699000Y-8255000D03*
%TO.N,/~{AB}*%
X5715000Y-8128000D03*
X6858000Y-9652000D03*
%TO.N,/~{CAAB}*%
X7239000Y-7239000D03*
X8128000Y-28829000D03*
%TO.N,5V*%
X13843000Y-31369000D03*
%TO.N,GND*%
X11557000Y-27940000D03*
%TO.N,CA0*%
X10414000Y-35179000D03*
%TO.N,GND*%
X11515831Y-39665169D03*
X11515831Y-32724831D03*
%TO.N,CA1*%
X12827000Y-33782000D03*
%TO.N,/~{CAAA}*%
X7874000Y-39116000D03*
X6477000Y-6350000D03*
%TO.N,CA2*%
X7124000Y-24511000D03*
X6731000Y-37719000D03*
%TO.N,CA3*%
X14048000Y-29543086D03*
X4953000Y-30353000D03*
X2540000Y-36576000D03*
%TO.N,CA4*%
X5461000Y-31369000D03*
X5231000Y-35306000D03*
%TO.N,CA6*%
X6108000Y-36322000D03*
X6108000Y-33141491D03*
%TO.N,CA8*%
X5981368Y-25249493D03*
%TO.N,CA9*%
X5969000Y-23876000D03*
%TO.N,CA10*%
X2667000Y-27813000D03*
%TD*%
D21*
%TO.N,/3.3V*%
X10182500Y-12087500D02*
G75*
G02*
X10204992Y-12141819I-54300J-54300D01*
G01*
X12192000Y-6692546D02*
G75*
G03*
X12389264Y-7168736I673500J46D01*
G01*
X10283488Y807000D02*
G75*
G03*
X10149503Y751497I12J-189500D01*
G01*
X10508500Y-13257500D02*
G75*
G02*
X10811994Y-13990213I-732700J-732700D01*
G01*
X12389250Y-7168750D02*
G75*
G03*
X12865453Y-7366019I476250J476250D01*
G01*
X8508497Y-4698497D02*
G75*
G03*
X7896500Y-4445001I-611997J-612003D01*
G01*
X10149500Y751500D02*
G75*
G02*
X10015511Y695995I-134000J134000D01*
G01*
X8780000Y-6088197D02*
G75*
G03*
X8843499Y-6241501I216800J-3D01*
G01*
X12237000Y-5765180D02*
G75*
G02*
X12214506Y-5819506I-76800J-20D01*
G01*
%TO.N,5V*%
X13185500Y-23263500D02*
G75*
G02*
X13131180Y-23285992I-54300J54300D01*
G01*
X5344500Y751500D02*
G75*
G03*
X5210511Y807005I-134000J-134000D01*
G01*
X7828500Y-1031500D02*
G75*
G02*
X7412048Y-1204020I-416500J416500D01*
G01*
X7659875Y646625D02*
G75*
G03*
X7540673Y695974I-119175J-119225D01*
G01*
X2562500Y403499D02*
G75*
G02*
X1588364Y1I-974130J974131D01*
G01*
X7855125Y451375D02*
G75*
G02*
X8000986Y99201I-352225J-352175D01*
G01*
X8001000Y-615048D02*
G75*
G02*
X7828498Y-1031498I-588960J8D01*
G01*
X13081000Y1778000D02*
G75*
G03*
X12774394Y1904998I-306600J-306600D01*
G01*
X7758625Y646625D02*
G75*
G03*
X7758675Y547925I49375J-49325D01*
G01*
X7659875Y646625D02*
G75*
G03*
X7758625Y646625I49375J49374D01*
G01*
X5344500Y751500D02*
G75*
G03*
X5478488Y695995I134000J134000D01*
G01*
X3536635Y807000D02*
G75*
G03*
X2562503Y403496I5J-1377630D01*
G01*
X9941718Y1905000D02*
G75*
G03*
X8363109Y1251141I-18J-2232500D01*
G01*
X7758625Y547875D02*
X7659875Y646625D01*
%TO.N,GND*%
X11394915Y-39786084D02*
G75*
G02*
X11102999Y-39907008I-291915J291884D01*
G01*
X11557000Y-28449711D02*
G75*
G02*
X11198997Y-29313997I-1222300J11D01*
G01*
X11557000Y-1889592D02*
G75*
G03*
X11747498Y-2349502I650400J-8D01*
G01*
X10770000Y-1626000D02*
G75*
G02*
X9483224Y-2159010I-1286800J1286800D01*
G01*
X3031000Y-10428000D02*
G75*
G03*
X3188678Y-10808690I538400J0D01*
G01*
X739500Y-10160000D02*
G75*
G03*
X-522905Y-10682905I-3J-1785303D01*
G01*
X11747500Y-2349500D02*
G75*
G02*
X11937997Y-2809407I-459900J-459900D01*
G01*
X10548250Y-9405250D02*
G75*
G03*
X11143957Y-9652018I595750J595750D01*
G01*
X3213500Y-1054500D02*
G75*
G03*
X3306447Y-1092980I92900J92900D01*
G01*
X12049250Y-16256750D02*
G75*
G02*
X12192009Y-16601378I-344650J-344650D01*
G01*
X13462000Y-9906000D02*
G75*
G03*
X14075210Y-10159996I613200J613200D01*
G01*
D22*
X-1202000Y-25888057D02*
G75*
G03*
X-600999Y-27339000I2051960J7D01*
G01*
D21*
X12192000Y-16965884D02*
G75*
G02*
X12060755Y-17282755I-448100J-16D01*
G01*
X8305000Y-12357500D02*
G75*
G02*
X7708500Y-12954000I-596500J0D01*
G01*
X508000Y-28448000D02*
G75*
G03*
X1734420Y-28956000I1226420J1226420D01*
G01*
X11301000Y-21003000D02*
G75*
G03*
X10376356Y-20620018I-924600J-924600D01*
G01*
X10308750Y-7373250D02*
G75*
G03*
X10301451Y-7390753I17450J-17550D01*
G01*
X11551256Y-4000304D02*
G75*
G02*
X11328000Y-4092795I-223256J223204D01*
G01*
X5953592Y-12684592D02*
G75*
G03*
X6604000Y-12954005I650408J650392D01*
G01*
X10907914Y-11542914D02*
G75*
G03*
X9715500Y-11048992I-1192414J-1192386D01*
G01*
X1501500Y-10182500D02*
G75*
G03*
X1555819Y-10204992I54300J54300D01*
G01*
X10301500Y-8809542D02*
G75*
G03*
X10548251Y-9405249I842460J2D01*
G01*
D22*
X15841000Y-27339000D02*
G75*
G02*
X14390057Y-27939982I-1450900J1450900D01*
G01*
D21*
X11328000Y-4092781D02*
G75*
G03*
X11104745Y-4185260I0J-315719D01*
G01*
X4632308Y-11363308D02*
G75*
G03*
X3873500Y-11048995I-758808J-758792D01*
G01*
X11199000Y-29314000D02*
G75*
G02*
X10334711Y-29672005I-864300J864300D01*
G01*
X1501500Y-10182500D02*
G75*
G03*
X1447180Y-10160008I-54300J-54300D01*
G01*
X9541799Y-18064000D02*
G75*
G03*
X8811500Y-18366500I1J-1032800D01*
G01*
X7425060Y-29314000D02*
G75*
G03*
X8289348Y-29672001I864290J864290D01*
G01*
X9520460Y-11049000D02*
G75*
G03*
X8661012Y-11405012I40J-1215500D01*
G01*
D22*
X15778815Y-10698815D02*
G75*
G03*
X14478000Y-10159991I-1300815J-1300785D01*
G01*
D21*
X7425060Y-29314000D02*
G75*
G03*
X6560771Y-28956024I-864260J-864300D01*
G01*
D22*
X15840999Y-10760999D02*
G75*
G02*
X16441982Y-12211940I-1450899J-1450901D01*
G01*
D21*
X12060750Y-17282750D02*
G75*
G02*
X11743884Y-17413994I-316850J316850D01*
G01*
X11472915Y-32767746D02*
G75*
G03*
X11429960Y-32871353I103585J-103654D01*
G01*
X8661000Y-11405000D02*
G75*
G03*
X8304983Y-12264460I859500J-859500D01*
G01*
X13462000Y-9906000D02*
G75*
G03*
X12848789Y-9652004I-613200J-613200D01*
G01*
X12049250Y-16256750D02*
G75*
G03*
X11704621Y-16113991I-344650J-344650D01*
G01*
X6081500Y-39511500D02*
G75*
G03*
X7036321Y-39906991I954800J954800D01*
G01*
X5750262Y-254000D02*
G75*
G03*
X4737499Y-673499I-2J-1432260D01*
G01*
X11938000Y-3274702D02*
G75*
G02*
X11698394Y-3853175I-818100J2D01*
G01*
D22*
X-600999Y-10761000D02*
G75*
G03*
X-1202002Y-12211942I1450949J-1450950D01*
G01*
D21*
X6593485Y-20620000D02*
G75*
G03*
X5882504Y-20914504I15J-1005500D01*
G01*
X6081500Y-39511500D02*
G75*
G03*
X5126678Y-39116009I-954800J-954800D01*
G01*
X6962500Y-18691500D02*
G75*
G02*
X6908180Y-18713992I-54300J54300D01*
G01*
X9857500Y-6906500D02*
G75*
G02*
X9740410Y-6955004I-117100J117100D01*
G01*
X9974589Y-6858000D02*
G75*
G03*
X9857503Y-6906503I11J-165600D01*
G01*
D22*
X16441999Y-25888057D02*
G75*
G02*
X15840997Y-27338997I-2051949J7D01*
G01*
D21*
X10301500Y-7341246D02*
G75*
G03*
X10308764Y-7358736I24800J46D01*
G01*
X4851000Y-1626000D02*
G75*
G03*
X6137775Y-2159010I1286800J1286800D01*
G01*
X10308750Y-7373250D02*
G75*
G03*
X10308750Y-7358750I-7250J7250D01*
G01*
X10326253Y-7366000D02*
G75*
G03*
X10308785Y-7373284I47J-24700D01*
G01*
X10308750Y-7358750D02*
G75*
G03*
X10326253Y-7366019I17550J17550D01*
G01*
X8811500Y-18366500D02*
G75*
G02*
X8081200Y-18669000I-730300J730300D01*
G01*
X11549296Y-12184296D02*
G75*
G03*
X11874500Y-12319002I325204J325196D01*
G01*
X10103750Y-6858000D02*
G75*
G03*
X10301500Y-6660250I-50J197800D01*
G01*
X10301500Y-7055750D02*
G75*
G03*
X10103750Y-6858000I-197700J50D01*
G01*
X10301500Y-6660250D02*
X10301500Y-7055750D01*
D23*
%TO.N,/~{AB}*%
X7023589Y-9555000D02*
G75*
G03*
X6906503Y-9603503I11J-165600D01*
G01*
X4459049Y-7505000D02*
G75*
G03*
X4338316Y-7554977I-49J-170700D01*
G01*
X5340781Y-7753781D02*
G75*
G03*
X4740169Y-7505023I-600581J-600619D01*
G01*
X4338339Y-7555000D02*
G75*
G02*
X4217628Y-7605023I-120739J120700D01*
G01*
%TO.N,/~{CD}*%
X6667619Y-8905000D02*
G75*
G03*
X5882994Y-9229994I-19J-1109600D01*
G01*
X5883000Y-9230000D02*
G75*
G02*
X5098380Y-9554992I-784600J784600D01*
G01*
%TO.N,/~{CAAD}*%
X3380500Y-17985500D02*
G75*
G03*
X3570015Y-18063993I189500J189500D01*
G01*
X1853848Y-8902152D02*
G75*
G03*
X1860723Y-8904990I6852J6852D01*
G01*
%TO.N,~{CATOP}*%
X11755771Y-10949110D02*
G75*
G03*
X9959330Y-10204999I-1796441J-1796440D01*
G01*
X12893833Y-12087172D02*
G75*
G03*
X14373330Y-12699986I1479467J1479472D01*
G01*
%TO.N,/~{CAAC}*%
X6130650Y-16101708D02*
G75*
G02*
X6100974Y-16113972I-29650J29708D01*
G01*
%TO.N,CA18*%
X2208589Y-16051589D02*
G75*
G03*
X3928500Y-16763997I1719911J1719919D01*
G01*
X1143000Y-14478000D02*
G75*
G03*
X1502214Y-15345206I1226400J0D01*
G01*
%TO.N,CA9*%
X8009500Y-23613500D02*
G75*
G03*
X7375768Y-23351013I-633700J-633700D01*
G01*
X8009500Y-23613500D02*
G75*
G03*
X8643231Y-23875987I633700J633700D01*
G01*
X6865231Y-23351000D02*
G75*
G03*
X6231491Y-23613491I-31J-896200D01*
G01*
%TO.N,CA16*%
X2540000Y-14214397D02*
G75*
G03*
X2905999Y-15098001I1249600J-3D01*
G01*
X2135888Y-13184888D02*
G75*
G02*
X2539998Y-14160500I-975618J-975612D01*
G01*
X2906000Y-15098000D02*
G75*
G03*
X3789602Y-15463999I883600J883600D01*
G01*
X2095500Y-13144500D02*
G75*
G03*
X1022382Y-12700003I-1073110J-1073110D01*
G01*
%TO.N,CA17*%
X3597000Y-14519000D02*
G75*
G03*
X4309193Y-14814003I712200J712200D01*
G01*
X3302000Y-13843000D02*
G75*
G03*
X3571410Y-14493404I919800J0D01*
G01*
%TO.N,CA11*%
X508000Y-25908000D02*
G75*
G03*
X1734420Y-26416000I1226420J1226420D01*
G01*
%TO.N,CA13*%
X738888Y-21058888D02*
G75*
G02*
X1143000Y-22034500I-975616J-975614D01*
G01*
X1894690Y-23357690D02*
G75*
G03*
X3146000Y-23875997I1251310J1251320D01*
G01*
X1143000Y-22034500D02*
G75*
G03*
X1547112Y-23010110I1379720J0D01*
G01*
%TO.N,CA15*%
X1245566Y-16485566D02*
G75*
G02*
X2413000Y-19304000I-2818439J-2818437D01*
G01*
X2603500Y-21145500D02*
G75*
G03*
X3063407Y-21335997I459900J459900D01*
G01*
X2413000Y-20685592D02*
G75*
G03*
X2603498Y-21145502I650400J-8D01*
G01*
%TO.N,CA14*%
X1059579Y-18839579D02*
G75*
G02*
X1778000Y-20574000I-1734425J-1734423D01*
G01*
X1778000Y-20871579D02*
G75*
G03*
X2286002Y-22097998I1734410J-1D01*
G01*
X2410394Y-22222394D02*
G75*
G03*
X3336500Y-22606003I926106J926094D01*
G01*
%TO.N,CA12*%
X1722789Y-24582789D02*
G75*
G03*
X3082500Y-25146000I1359711J1359709D01*
G01*
%TO.N,/~{CAAB}*%
X8191500Y-28892500D02*
G75*
G03*
X8344802Y-28955999I153300J153300D01*
G01*
X5573000Y-7097000D02*
G75*
G03*
X5230181Y-6955008I-342800J-342800D01*
G01*
X5573000Y-7097000D02*
G75*
G03*
X5915818Y-7238992I342800J342800D01*
G01*
%TO.N,CA6*%
X14478000Y-35560000D02*
G75*
G03*
X13177191Y-36098822I0J-1839600D01*
G01*
X6771000Y-36762000D02*
G75*
G03*
X7833253Y-37202002I1062260J1062260D01*
G01*
X5920254Y-32953745D02*
G75*
G03*
X5466996Y-32766001I-453254J-453255D01*
G01*
X6409842Y-36400842D02*
G75*
G03*
X6219500Y-36322004I-190342J-190358D01*
G01*
X12895000Y-36381000D02*
G75*
G02*
X10912930Y-37202000I-1982070J1982070D01*
G01*
%TO.N,CA4*%
X10721840Y-30648000D02*
G75*
G02*
X10514217Y-30734019I-207640J207600D01*
G01*
X13478685Y-30521000D02*
G75*
G02*
X13379703Y-30561997I-98985J99000D01*
G01*
X13577667Y-30480000D02*
G75*
G03*
X13478698Y-30521013I33J-140000D01*
G01*
X10929462Y-30562000D02*
G75*
G03*
X10721863Y-30648023I38J-293600D01*
G01*
X6545012Y-30734000D02*
G75*
G03*
X5778496Y-31051496I-12J-1084000D01*
G01*
%TO.N,CA5*%
X6713567Y-34988500D02*
G75*
G03*
X9013105Y-35941003I2299543J2299540D01*
G01*
X13779500Y-34480500D02*
G75*
G02*
X10253541Y-35941000I-3525960J3525960D01*
G01*
X6446984Y-34721917D02*
G75*
G03*
X4791033Y-34035998I-1655954J-1655953D01*
G01*
%TO.N,CA8*%
X6247121Y-25515246D02*
G75*
G03*
X6888707Y-25781006I641579J641546D01*
G01*
X8704012Y-25146000D02*
G75*
G03*
X7937496Y-25463496I-12J-1084000D01*
G01*
X7937500Y-25463500D02*
G75*
G02*
X7170987Y-25780995I-766500J766500D01*
G01*
%TO.N,CA7*%
X1651000Y-35281566D02*
G75*
G02*
X825500Y-37274500I-2818441J3D01*
G01*
X2285999Y-32130999D02*
G75*
G03*
X1651001Y-33664025I1533021J-1533021D01*
G01*
X3371000Y-31496000D02*
G75*
G03*
X2602801Y-31814198I0J-1086400D01*
G01*
%TO.N,/~{CAAA}*%
X6454500Y-6327500D02*
G75*
G03*
X6400180Y-6305008I-54300J-54300D01*
G01*
%TO.N,CA0*%
X10350500Y-35242500D02*
G75*
G02*
X10197197Y-35305999I-153300J153300D01*
G01*
%TO.N,CA1*%
X10372000Y-34205000D02*
G75*
G03*
X9963997Y-34036001I-408000J-408000D01*
G01*
X10372000Y-34205000D02*
G75*
G03*
X10780002Y-34373999I408000J408000D01*
G01*
X12531000Y-34078000D02*
G75*
G02*
X11816392Y-34373997I-714600J714600D01*
G01*
%TO.N,CA3*%
X5279057Y-30162000D02*
G75*
G03*
X5048533Y-30257533I43J-326000D01*
G01*
X13969457Y-29543086D02*
G75*
G03*
X13835398Y-29598647I43J-189614D01*
G01*
X13581457Y-29852543D02*
G75*
G02*
X12834361Y-30161959I-747057J747143D01*
G01*
%TO.N,CA2*%
X6667500Y-37782500D02*
G75*
G02*
X6514197Y-37845999I-153300J153300D01*
G01*
X14414500Y-23685500D02*
G75*
G02*
X12421566Y-24511003I-1992940J1992940D01*
G01*
%TO.N,CAMemory1*%
X14097000Y-7556788D02*
G75*
G02*
X13962503Y-7881503I-459200J-12D01*
G01*
X14366407Y-6715592D02*
G75*
G03*
X14096995Y-7366000I650393J-650408D01*
G01*
X15240000Y-5461000D02*
G75*
G02*
X14970589Y-6111404I-919800J0D01*
G01*
X13962500Y-7881500D02*
G75*
G02*
X13637788Y-8015995I-324700J324700D01*
G01*
%TO.N,CAMemory0*%
X13595080Y-5979000D02*
G75*
G03*
X13567644Y-5990385I20J-38800D01*
G01*
X13622530Y-5967629D02*
G75*
G02*
X13595080Y-5978991I-27430J27429D01*
G01*
X14689500Y-3090500D02*
G75*
G03*
X14139010Y-4419524I1329000J-1329000D01*
G01*
X13399663Y-6158336D02*
G75*
G03*
X13253991Y-6510000I351637J-351664D01*
G01*
X14139000Y-5077920D02*
G75*
G02*
X13875074Y-5715074I-901100J20D01*
G01*
%TO.N,CA19*%
X2095500Y-2730500D02*
G75*
G03*
X1635592Y-2540003I-459900J-459900D01*
G01*
X11130000Y-8557473D02*
G75*
G03*
X11152992Y-8613008I78500J-27D01*
G01*
X9167847Y-17152500D02*
G75*
G02*
X8536530Y-17414026I-631347J631300D01*
G01*
X2095500Y-2730500D02*
G75*
G03*
X2555407Y-2920997I459900J459900D01*
G01*
X10922000Y-3048000D02*
G75*
G03*
X10615394Y-2921002I-306600J-306600D01*
G01*
D21*
%TO.N,GND*%
X11551256Y-4000304D02*
X11698390Y-3853171D01*
X11557000Y-1889592D02*
X11557000Y-1093000D01*
X11104742Y-4185257D02*
X10337000Y-4953000D01*
X11938000Y-2809407D02*
X11938000Y-3274702D01*
%TO.N,/3.3V*%
X12192000Y-6692546D02*
X12192000Y-5842000D01*
X12192000Y-5842000D02*
X12214500Y-5819500D01*
X12237000Y-5765180D02*
X12237000Y-4953000D01*
X12865453Y-7366000D02*
X13254000Y-7366000D01*
%TO.N,GND*%
X10301500Y-6660250D02*
X10301500Y-5242500D01*
D23*
%TO.N,CA8*%
X6888707Y-25781000D02*
X7170987Y-25781000D01*
X6247121Y-25515246D02*
X5981368Y-25249493D01*
%TO.N,CA2*%
X7124000Y-24511000D02*
X12421566Y-24511000D01*
X14414500Y-23685500D02*
X15240000Y-22860000D01*
%TO.N,CA9*%
X5969000Y-23876000D02*
X6231500Y-23613500D01*
X7375768Y-23351000D02*
X6865231Y-23351000D01*
X8643231Y-23876000D02*
X9329000Y-23876000D01*
D22*
%TO.N,GND*%
X16441999Y-12211940D02*
X16441999Y-25888057D01*
X-1202000Y-25888057D02*
X-1202000Y-12211942D01*
D23*
%TO.N,CA19*%
X9167847Y-17152500D02*
X9429347Y-16891000D01*
X8536530Y-17414000D02*
X4936000Y-17414000D01*
D21*
%TO.N,GND*%
X10812000Y-18064000D02*
X9541799Y-18064000D01*
X6985000Y-18669000D02*
X8081200Y-18669000D01*
X10812000Y-18064000D02*
X10812000Y-17414000D01*
X10812000Y-17414000D02*
X11743884Y-17414000D01*
X12192000Y-16601378D02*
X12192000Y-16965884D01*
X11704621Y-16114000D02*
X10812000Y-16114000D01*
X10812000Y-16114000D02*
X10812000Y-15464000D01*
D23*
%TO.N,~{CATOP}*%
X14373330Y-12700000D02*
X15240000Y-12700000D01*
X11755771Y-10949110D02*
X12893833Y-12087172D01*
X9959330Y-10205000D02*
X8907000Y-10205000D01*
D21*
%TO.N,GND*%
X12065000Y-12319000D02*
X11874500Y-12319000D01*
X10907914Y-11542914D02*
X11549296Y-12184296D01*
X8305000Y-12357500D02*
X8305000Y-12264460D01*
X9715500Y-11049000D02*
X9520460Y-11049000D01*
X12065000Y-9652000D02*
X12848789Y-9652000D01*
X6604000Y-12954000D02*
X6985000Y-12954000D01*
X3429000Y-11049000D02*
X3873500Y-11049000D01*
X5953592Y-12684592D02*
X4632308Y-11363308D01*
X3188684Y-10808684D02*
X3429000Y-11049000D01*
X3031000Y-10428000D02*
X3031000Y-10205000D01*
X14075210Y-10160000D02*
X14478000Y-10160000D01*
X11143957Y-9652000D02*
X12065000Y-9652000D01*
X10301500Y-7390753D02*
X10301500Y-8809542D01*
X10301500Y-7341246D02*
X10301500Y-7055750D01*
X10326253Y-7366000D02*
X11130000Y-7366000D01*
%TO.N,/3.3V*%
X10205000Y-12141819D02*
X10205000Y-12954000D01*
X10182500Y-12087500D02*
X10160000Y-12065000D01*
X11557000Y7000D02*
X11557000Y807000D01*
%TO.N,GND*%
X3213500Y-1054500D02*
X3175000Y-1016000D01*
X3306447Y-1093000D02*
X4318000Y-1093000D01*
%TO.N,5V*%
X7758625Y646625D02*
X8363125Y1251125D01*
X12774394Y1905000D02*
X9941718Y1905000D01*
X13081000Y1778000D02*
X13208000Y1651000D01*
%TO.N,/3.3V*%
X10015511Y696000D02*
X9301000Y696000D01*
X10283488Y807000D02*
X11557000Y807000D01*
%TO.N,GND*%
X4737500Y-673500D02*
X4318000Y-1093000D01*
X5750262Y-254000D02*
X6701000Y-254000D01*
%TO.N,5V*%
X4318000Y807000D02*
X5210511Y807000D01*
X6701000Y696000D02*
X5478488Y696000D01*
%TO.N,GND*%
X10770000Y-1626000D02*
X11303000Y-1093000D01*
X9483224Y-2159000D02*
X6137775Y-2159000D01*
X4851000Y-1626000D02*
X4318000Y-1093000D01*
%TO.N,5V*%
X13208000Y-18542000D02*
X13208000Y-23241000D01*
%TO.N,GND*%
X6908180Y-18714000D02*
X4936000Y-18714000D01*
X6985000Y-18669000D02*
X6962500Y-18691500D01*
X7708500Y-12954000D02*
X6985000Y-12954000D01*
%TO.N,/3.3V*%
X10812000Y-13990213D02*
X10812000Y-14814000D01*
D23*
%TO.N,CA19*%
X11153000Y-8613000D02*
X11176000Y-8636000D01*
X11130000Y-8557473D02*
X11130000Y-8016000D01*
%TO.N,CAMemory0*%
X14139000Y-4419524D02*
X14139000Y-5077920D01*
X13567629Y-5990370D02*
X13399663Y-6158336D01*
X13622530Y-5967629D02*
X13875080Y-5715080D01*
X13254000Y-6510000D02*
X13254000Y-6716000D01*
X14689500Y-3090500D02*
X15240000Y-2540000D01*
%TO.N,CAMemory1*%
X14366407Y-6715592D02*
X14970592Y-6111407D01*
X14097000Y-7556788D02*
X14097000Y-7366000D01*
X13637788Y-8016000D02*
X13254000Y-8016000D01*
%TO.N,CA17*%
X1693498Y-7439096D02*
X180904Y-7439096D01*
X3302000Y-13462000D02*
X3302000Y-13843000D01*
X3597000Y-14519000D02*
X3571407Y-14493407D01*
%TO.N,CA16*%
X1022382Y-12700000D02*
X0Y-12700000D01*
X2135888Y-13184888D02*
X2095500Y-13144500D01*
X2540000Y-14214397D02*
X2540000Y-14160500D01*
X3789602Y-15464000D02*
X4936000Y-15464000D01*
%TO.N,/~{CAAC}*%
X6142942Y-16089416D02*
X6130650Y-16101708D01*
X6100974Y-16114000D02*
X4936000Y-16114000D01*
%TO.N,CA18*%
X3928500Y-16764000D02*
X4936000Y-16764000D01*
X2208589Y-16051589D02*
X1502210Y-15345210D01*
X1143000Y-14478000D02*
X1143000Y-13970000D01*
%TO.N,/~{CAAD}*%
X1860723Y-8905000D02*
X3031000Y-8905000D01*
X1851000Y-8899304D02*
X1853848Y-8902152D01*
D21*
%TO.N,/3.3V*%
X7896500Y-4445000D02*
X7538000Y-4445000D01*
X8780000Y-4970000D02*
X8508497Y-4698497D01*
X8780000Y-4970000D02*
X8780000Y-6088197D01*
X8843500Y-6241500D02*
X8907000Y-6305000D01*
%TO.N,GND*%
X8907000Y-6955000D02*
X9740410Y-6955000D01*
D23*
%TO.N,/~{AB}*%
X6858000Y-9652000D02*
X6906500Y-9603500D01*
D21*
%TO.N,GND*%
X739500Y-10160000D02*
X1447180Y-10160000D01*
X1555819Y-10205000D02*
X3031000Y-10205000D01*
D23*
%TO.N,/~{AB}*%
X7023589Y-9555000D02*
X8907000Y-9555000D01*
%TO.N,/~{CAAC}*%
X4699000Y-8255000D02*
X3031000Y-8255000D01*
%TO.N,/~{AB}*%
X4217628Y-7605000D02*
X3031000Y-7605000D01*
X4459049Y-7505000D02*
X4740169Y-7505000D01*
X5715000Y-8128000D02*
X5340781Y-7753781D01*
%TO.N,/~{CAAB}*%
X5915818Y-7239000D02*
X7239000Y-7239000D01*
%TO.N,/~{CAAA}*%
X6400180Y-6305000D02*
X3031000Y-6305000D01*
X6454500Y-6327500D02*
X6477000Y-6350000D01*
%TO.N,/~{CAAB}*%
X5230181Y-6955000D02*
X3031000Y-6955000D01*
D21*
%TO.N,GND*%
X9974589Y-6858000D02*
X10103750Y-6858000D01*
D23*
%TO.N,CA19*%
X1635592Y-2540000D02*
X0Y-2540000D01*
X2555407Y-2921000D02*
X10615394Y-2921000D01*
X11049000Y-3175000D02*
X10922000Y-3048000D01*
D21*
%TO.N,5V*%
X7412048Y-1204000D02*
X6701000Y-1204000D01*
X7855125Y451375D02*
X7758625Y547875D01*
X8001000Y99201D02*
X8001000Y-615048D01*
X6701000Y696000D02*
X7540673Y696000D01*
X4318000Y807000D02*
X3536635Y807000D01*
X1588364Y0D02*
X0Y0D01*
%TO.N,GND*%
X3879000Y-28956000D02*
X2921000Y-28956000D01*
X10376356Y-20620000D02*
X6593485Y-20620000D01*
X5588000Y-21209000D02*
X5882500Y-20914500D01*
X11301000Y-21003000D02*
X11684000Y-21386000D01*
%TO.N,5V*%
X11684000Y-23286000D02*
X9734000Y-21336000D01*
X13131180Y-23286000D02*
X11684000Y-23286000D01*
X13185500Y-23263500D02*
X13208000Y-23241000D01*
D23*
%TO.N,CA3*%
X14048000Y-29543086D02*
X13969457Y-29543086D01*
X4953000Y-30353000D02*
X5048500Y-30257500D01*
X13835375Y-29598624D02*
X13581457Y-29852543D01*
X5279057Y-30162000D02*
X12834361Y-30162000D01*
D21*
%TO.N,GND*%
X8907000Y-6955000D02*
X8907000Y-7605000D01*
X3556000Y-4445000D02*
X5638000Y-4445000D01*
D23*
%TO.N,/~{CAAD}*%
X3570015Y-18064000D02*
X4936000Y-18064000D01*
X3380500Y-17985500D02*
X3302000Y-17907000D01*
%TO.N,/~{CD}*%
X5098380Y-9555000D02*
X3031000Y-9555000D01*
X6667619Y-8905000D02*
X8907000Y-8905000D01*
%TO.N,/~{CAAB}*%
X8191500Y-28892500D02*
X8128000Y-28829000D01*
D21*
%TO.N,GND*%
X11557000Y-28449711D02*
X11557000Y-27940000D01*
X10334711Y-29672000D02*
X8289348Y-29672000D01*
X3879000Y-28956000D02*
X6560771Y-28956000D01*
D23*
%TO.N,/~{CAAB}*%
X8344802Y-28956000D02*
X9329000Y-28956000D01*
%TO.N,CA4*%
X13577667Y-30480000D02*
X15240000Y-30480000D01*
X13379703Y-30562000D02*
X10929462Y-30562000D01*
X10514217Y-30734000D02*
X6545012Y-30734000D01*
X5461000Y-31369000D02*
X5778500Y-31051500D01*
D21*
%TO.N,5V*%
X13843000Y-31369000D02*
X11475000Y-31369000D01*
%TO.N,GND*%
X11472915Y-32767746D02*
X11515831Y-32724831D01*
X11430000Y-32871353D02*
X11430000Y-33351000D01*
%TO.N,5V*%
X9271000Y-31496000D02*
X11385000Y-31496000D01*
%TO.N,GND*%
X5126678Y-39116000D02*
X3821000Y-39116000D01*
X11394915Y-39786084D02*
X11515831Y-39665169D01*
X11102999Y-39907000D02*
X7036321Y-39907000D01*
X14390057Y-27940000D02*
X11557000Y-27940000D01*
D23*
%TO.N,CA6*%
X6219500Y-36322000D02*
X6108000Y-36322000D01*
X13177184Y-36098815D02*
X12895000Y-36381000D01*
X6771000Y-36762000D02*
X6409842Y-36400842D01*
X14478000Y-35560000D02*
X15240000Y-35560000D01*
X7833253Y-37202000D02*
X10912930Y-37202000D01*
%TO.N,CA0*%
X10197197Y-35306000D02*
X9271000Y-35306000D01*
X10350500Y-35242500D02*
X10414000Y-35179000D01*
%TO.N,CA1*%
X9963997Y-34036000D02*
X9271000Y-34036000D01*
X12827000Y-33782000D02*
X12531000Y-34078000D01*
X10780002Y-34374000D02*
X11816392Y-34374000D01*
%TO.N,/~{CAAA}*%
X7874000Y-39116000D02*
X9271000Y-39116000D01*
%TO.N,CA4*%
X5231000Y-35306000D02*
X3821000Y-35306000D01*
%TO.N,CA6*%
X5466996Y-32766000D02*
X3821000Y-32766000D01*
X5920254Y-32953745D02*
X6108000Y-33141491D01*
%TO.N,CA2*%
X6667500Y-37782500D02*
X6731000Y-37719000D01*
X6514197Y-37846000D02*
X3821000Y-37846000D01*
%TO.N,CA3*%
X2540000Y-36576000D02*
X3821000Y-36576000D01*
%TO.N,CA5*%
X4791033Y-34036000D02*
X3821000Y-34036000D01*
X6713567Y-34988500D02*
X6446984Y-34721917D01*
X9013105Y-35941000D02*
X10253541Y-35941000D01*
X13779500Y-34480500D02*
X15240000Y-33020000D01*
%TO.N,CA7*%
X2285999Y-32130999D02*
X2602801Y-31814198D01*
X1651000Y-35281566D02*
X1651000Y-33664025D01*
X825500Y-37274500D02*
X0Y-38100000D01*
%TO.N,CA15*%
X2413000Y-19304000D02*
X2413000Y-20685592D01*
X1245566Y-16485566D02*
X0Y-15240000D01*
%TO.N,CA14*%
X2286000Y-22098000D02*
X2410394Y-22222394D01*
X1059579Y-18839579D02*
X0Y-17780000D01*
%TO.N,CA13*%
X3146000Y-23876000D02*
X3879000Y-23876000D01*
X1894690Y-23357690D02*
X1547111Y-23010111D01*
X738888Y-21058888D02*
X0Y-20320000D01*
%TO.N,CA15*%
X3063407Y-21336000D02*
X3879000Y-21336000D01*
%TO.N,CA12*%
X1722789Y-24582789D02*
X0Y-22860000D01*
%TO.N,CA11*%
X1734420Y-26416000D02*
X3879000Y-26416000D01*
X508000Y-25908000D02*
X0Y-25400000D01*
%TO.N,CA10*%
X2667000Y-27813000D02*
X3752000Y-27813000D01*
D21*
%TO.N,GND*%
X1734420Y-28956000D02*
X2921000Y-28956000D01*
D23*
%TO.N,CA14*%
X1778000Y-20574000D02*
X1778000Y-20871579D01*
%TO.N,CA12*%
X3082500Y-25146000D02*
X3879000Y-25146000D01*
%TD*%
%TA.AperFunction,Conductor*%
%TO.N,/3.3V*%
G36*
X10700289Y-12821261D02*
G01*
X10705775Y-12828339D01*
X10706149Y-12830468D01*
X10720635Y-13007513D01*
X10766548Y-13219069D01*
X10841062Y-13459531D01*
X10900383Y-13650963D01*
X10925350Y-13731279D01*
X10997166Y-13962311D01*
X10996349Y-13971228D01*
X10989466Y-13976957D01*
X10986205Y-13977482D01*
X10630242Y-13983935D01*
X10621908Y-13980659D01*
X10619020Y-13976196D01*
X10600945Y-13925925D01*
X10600944Y-13925922D01*
X10529422Y-13817094D01*
X10529419Y-13817091D01*
X10431036Y-13731283D01*
X10431029Y-13731279D01*
X10316984Y-13677765D01*
X10191097Y-13659192D01*
X10124045Y-13663909D01*
X10124034Y-13663911D01*
X10070591Y-13675268D01*
X10061786Y-13673636D01*
X10056715Y-13666256D01*
X10056707Y-13661427D01*
X10149293Y-13219069D01*
X10203516Y-12960002D01*
X10208564Y-12952609D01*
X10211879Y-12951116D01*
X10691406Y-12820135D01*
X10700289Y-12821261D01*
G37*
%TD.AperFunction*%
%TD*%
%TA.AperFunction,Conductor*%
%TO.N,/3.3V*%
G36*
X12707777Y-7144026D02*
G01*
X12722326Y-7147905D01*
X12722345Y-7147910D01*
X12722372Y-7147917D01*
X12833536Y-7176083D01*
X12833542Y-7176083D01*
X12833543Y-7176084D01*
X12833547Y-7176085D01*
X12878529Y-7182174D01*
X12990444Y-7197326D01*
X13130416Y-7186243D01*
X13244184Y-7146560D01*
X13253124Y-7147071D01*
X13259084Y-7153754D01*
X13259734Y-7157877D01*
X13255096Y-7358865D01*
X13251479Y-7367057D01*
X13248014Y-7369347D01*
X12829565Y-7548947D01*
X12820611Y-7549060D01*
X12814198Y-7542810D01*
X12813512Y-7540658D01*
X12811863Y-7532986D01*
X12798887Y-7516855D01*
X12798888Y-7516855D01*
X12781584Y-7509581D01*
X12753539Y-7497793D01*
X12753537Y-7497792D01*
X12753536Y-7497792D01*
X12651076Y-7492129D01*
X12624574Y-7490665D01*
X12624552Y-7490663D01*
X12543389Y-7486480D01*
X12535303Y-7482632D01*
X12532307Y-7474194D01*
X12533180Y-7470324D01*
X12668350Y-7144024D01*
X12674681Y-7137694D01*
X12682170Y-7137199D01*
X12707777Y-7144026D01*
G37*
%TD.AperFunction*%
%TD*%
%TA.AperFunction,Conductor*%
%TO.N,/3.3V*%
G36*
X8040025Y-4065188D02*
G01*
X8042203Y-4069717D01*
X8055891Y-4127707D01*
X8055892Y-4127709D01*
X8055893Y-4127711D01*
X8104514Y-4201973D01*
X8104515Y-4201974D01*
X8104516Y-4201975D01*
X8176271Y-4273330D01*
X8176278Y-4273336D01*
X8263590Y-4340429D01*
X8263593Y-4340431D01*
X8423288Y-4437396D01*
X8454529Y-4456365D01*
X8602558Y-4531705D01*
X8608377Y-4538511D01*
X8607678Y-4547439D01*
X8605681Y-4550246D01*
X8358634Y-4806923D01*
X8350428Y-4810507D01*
X8345758Y-4809631D01*
X8329616Y-4802999D01*
X8265366Y-4793323D01*
X8233242Y-4788485D01*
X8233241Y-4788485D01*
X8142674Y-4806750D01*
X8142669Y-4806752D01*
X8068530Y-4856048D01*
X8038511Y-4893039D01*
X8013628Y-4939901D01*
X7994938Y-4998096D01*
X7988371Y-5039878D01*
X7983701Y-5047518D01*
X7974996Y-5049619D01*
X7967356Y-5044949D01*
X7967300Y-5044872D01*
X7892138Y-4939901D01*
X7543801Y-4453415D01*
X7541772Y-4444695D01*
X7546097Y-4437397D01*
X8023600Y-4063195D01*
X8032225Y-4060790D01*
X8040025Y-4065188D01*
G37*
%TD.AperFunction*%
%TD*%
%TA.AperFunction,Conductor*%
%TO.N,/3.3V*%
G36*
X8247164Y-4314656D02*
G01*
X8417634Y-4379192D01*
X8417646Y-4379196D01*
X8552548Y-4421824D01*
X8576366Y-4429013D01*
X8576955Y-4429209D01*
X8753979Y-4493670D01*
X8755371Y-4494282D01*
X8863512Y-4550531D01*
X8864301Y-4550983D01*
X8992044Y-4631030D01*
X8997234Y-4638327D01*
X8995745Y-4647157D01*
X8995575Y-4647420D01*
X8782227Y-4968419D01*
X8778963Y-4971685D01*
X8458138Y-5185092D01*
X8449352Y-5186820D01*
X8441916Y-5181830D01*
X8441339Y-5180864D01*
X8373505Y-5053929D01*
X8372749Y-5052187D01*
X8333414Y-4936497D01*
X8286432Y-4812888D01*
X8259136Y-4773253D01*
X8240293Y-4754561D01*
X8221604Y-4736022D01*
X8165934Y-4697946D01*
X8165928Y-4697942D01*
X8128267Y-4679718D01*
X8100721Y-4666388D01*
X8094767Y-4659700D01*
X8095008Y-4651382D01*
X8231863Y-4320986D01*
X8238194Y-4314656D01*
X8246812Y-4314523D01*
X8247164Y-4314656D01*
G37*
%TD.AperFunction*%
%TD*%
%TA.AperFunction,Conductor*%
%TO.N,5V*%
G36*
X12892035Y2098234D02*
G01*
X13052567Y2084210D01*
X13053570Y2084078D01*
X13274275Y2045376D01*
X13281832Y2040572D01*
X13283778Y2031831D01*
X13283735Y2031598D01*
X13209453Y1653310D01*
X13207687Y1649044D01*
X12992778Y1328851D01*
X12985322Y1323891D01*
X12976543Y1325656D01*
X12975878Y1326137D01*
X12915396Y1373363D01*
X12914135Y1374507D01*
X12861603Y1429799D01*
X12860453Y1431218D01*
X12785798Y1539774D01*
X12785537Y1540171D01*
X12764672Y1573628D01*
X12703106Y1650352D01*
X12667889Y1676389D01*
X12624347Y1696393D01*
X12565681Y1710174D01*
X12502654Y1714286D01*
X12494623Y1718244D01*
X12491717Y1725961D01*
X12491717Y2083434D01*
X12495144Y2091707D01*
X12503282Y2095133D01*
X12715391Y2097580D01*
X12715480Y2097581D01*
X12890971Y2098278D01*
X12892035Y2098234D01*
G37*
%TD.AperFunction*%
%TD*%
%TA.AperFunction,Conductor*%
%TO.N,GND*%
G36*
X11300108Y-39342407D02*
G01*
X11300908Y-39343464D01*
X11515518Y-39663213D01*
X11517284Y-39667479D01*
X11591571Y-40045792D01*
X11589802Y-40054570D01*
X11582344Y-40059527D01*
X11582136Y-40059566D01*
X11417238Y-40088852D01*
X11416495Y-40088959D01*
X11287320Y-40103438D01*
X11285990Y-40103511D01*
X11062266Y-40102989D01*
X11062032Y-40102986D01*
X10804664Y-40097254D01*
X10796470Y-40093644D01*
X10793225Y-40085557D01*
X10793225Y-39727467D01*
X10796652Y-39719194D01*
X10803627Y-39715839D01*
X10910255Y-39703941D01*
X10989645Y-39667953D01*
X11045822Y-39613822D01*
X11093140Y-39546443D01*
X11093295Y-39546230D01*
X11182235Y-39427621D01*
X11184012Y-39425733D01*
X11283617Y-39341068D01*
X11292139Y-39338322D01*
X11300108Y-39342407D01*
G37*
%TD.AperFunction*%
%TD*%
%TA.AperFunction,Conductor*%
%TO.N,GND*%
G36*
X3039181Y-10211979D02*
G01*
X3039215Y-10212009D01*
X3262851Y-10414108D01*
X3266691Y-10422198D01*
X3263687Y-10430634D01*
X3257127Y-10434295D01*
X3228385Y-10439592D01*
X3228382Y-10439594D01*
X3211137Y-10463689D01*
X3211137Y-10463690D01*
X3216011Y-10495272D01*
X3216012Y-10495274D01*
X3230279Y-10527220D01*
X3230370Y-10527429D01*
X3237728Y-10544805D01*
X3237798Y-10553759D01*
X3232804Y-10559500D01*
X2928934Y-10734927D01*
X2920055Y-10736095D01*
X2912951Y-10730644D01*
X2911410Y-10725577D01*
X2906397Y-10650816D01*
X2906378Y-10650418D01*
X2905315Y-10611065D01*
X2893373Y-10501548D01*
X2868678Y-10448134D01*
X2857299Y-10439594D01*
X2850868Y-10434767D01*
X2850866Y-10434766D01*
X2847854Y-10434139D01*
X2840453Y-10429098D01*
X2838785Y-10420300D01*
X2841527Y-10414875D01*
X3022659Y-10212878D01*
X3030734Y-10209007D01*
X3039181Y-10211979D01*
G37*
%TD.AperFunction*%
%TD*%
%TA.AperFunction,Conductor*%
%TO.N,GND*%
G36*
X3219142Y-10395091D02*
G01*
X3222448Y-10401690D01*
X3235985Y-10495360D01*
X3253857Y-10530983D01*
X3277882Y-10558262D01*
X3342102Y-10595204D01*
X3342104Y-10595205D01*
X3342109Y-10595207D01*
X3389145Y-10610023D01*
X3424042Y-10621016D01*
X3424053Y-10621026D01*
X3424055Y-10621021D01*
X3528464Y-10654051D01*
X3530233Y-10654776D01*
X3639511Y-10710443D01*
X3645327Y-10717252D01*
X3644625Y-10726179D01*
X3643937Y-10727355D01*
X3431701Y-11045944D01*
X3424262Y-11050929D01*
X3424218Y-11050938D01*
X3047381Y-11124935D01*
X3038603Y-11123166D01*
X3033834Y-11116515D01*
X2984338Y-10933894D01*
X2928922Y-10801653D01*
X2903701Y-10745250D01*
X2903228Y-10744005D01*
X2897592Y-10726179D01*
X2859122Y-10604508D01*
X2858694Y-10602612D01*
X2857654Y-10595205D01*
X2845811Y-10510814D01*
X2845706Y-10509654D01*
X2841485Y-10403830D01*
X2844580Y-10395427D01*
X2852710Y-10391673D01*
X2853176Y-10391664D01*
X3210869Y-10391664D01*
X3219142Y-10395091D01*
G37*
%TD.AperFunction*%
%TD*%
%TA.AperFunction,Conductor*%
%TO.N,GND*%
G36*
X-958604Y-26384431D02*
G01*
X-954483Y-26388444D01*
X-890429Y-26492917D01*
X-821112Y-26578695D01*
X-738479Y-26663466D01*
X-642294Y-26747049D01*
X-535194Y-26826551D01*
X-302198Y-26963122D01*
X-60106Y-27062351D01*
X176907Y-27120977D01*
X383964Y-27138541D01*
X391916Y-27142654D01*
X394631Y-27151187D01*
X393436Y-27155435D01*
X2432Y-27936621D01*
X-4336Y-27942485D01*
X-4355Y-27942491D01*
X-784545Y-28200728D01*
X-793475Y-28200075D01*
X-799328Y-28193297D01*
X-799921Y-28189564D01*
X-799734Y-28151052D01*
X-809020Y-27997536D01*
X-831344Y-27835183D01*
X-831349Y-27835151D01*
X-874068Y-27626912D01*
X-874069Y-27626907D01*
X-930269Y-27414850D01*
X-1012617Y-27156933D01*
X-1012620Y-27156924D01*
X-1103458Y-26911391D01*
X-1203229Y-26672350D01*
X-1291205Y-26484234D01*
X-1291606Y-26475289D01*
X-1285563Y-26468680D01*
X-1283635Y-26467977D01*
X-1250234Y-26459027D01*
X-967480Y-26383263D01*
X-958604Y-26384431D01*
G37*
%TD.AperFunction*%
%TD*%
%TA.AperFunction,Conductor*%
%TO.N,GND*%
G36*
X7827224Y-12471389D02*
G01*
X8297825Y-12945760D01*
X8301219Y-12954047D01*
X8297825Y-12962240D01*
X7827311Y-13436522D01*
X7819052Y-13439982D01*
X7810765Y-13436588D01*
X7807371Y-13429518D01*
X7804736Y-13404728D01*
X7804736Y-13404726D01*
X7788380Y-13355368D01*
X7762412Y-13312261D01*
X7718955Y-13266775D01*
X7665902Y-13229695D01*
X7582561Y-13191086D01*
X7494271Y-13165211D01*
X7494269Y-13165210D01*
X7494267Y-13165210D01*
X7422717Y-13153429D01*
X7390736Y-13148163D01*
X7390734Y-13148162D01*
X7390729Y-13148162D01*
X7316461Y-13144542D01*
X7308365Y-13140717D01*
X7305331Y-13132856D01*
X7305331Y-12775159D01*
X7308758Y-12766886D01*
X7316476Y-12763472D01*
X7347755Y-12761993D01*
X7457649Y-12743630D01*
X7511765Y-12734589D01*
X7511765Y-12734588D01*
X7511770Y-12734588D01*
X7645283Y-12684747D01*
X7736574Y-12620854D01*
X7790498Y-12545245D01*
X7804668Y-12502109D01*
X7807288Y-12478346D01*
X7811602Y-12470499D01*
X7820200Y-12467999D01*
X7827224Y-12471389D01*
G37*
%TD.AperFunction*%
%TD*%
%TA.AperFunction,Conductor*%
%TO.N,GND*%
G36*
X800033Y-27519107D02*
G01*
X801410Y-27523764D01*
X815203Y-27699307D01*
X815205Y-27699321D01*
X839701Y-27819991D01*
X839703Y-27819998D01*
X874406Y-27937184D01*
X874414Y-27937207D01*
X921488Y-28057593D01*
X977566Y-28172084D01*
X977573Y-28172098D01*
X977582Y-28172115D01*
X1014385Y-28234060D01*
X1043983Y-28283878D01*
X1043995Y-28283895D01*
X1117184Y-28387221D01*
X1117187Y-28387224D01*
X1117189Y-28387227D01*
X1276913Y-28563295D01*
X1436432Y-28687422D01*
X1436435Y-28687424D01*
X1506186Y-28721875D01*
X1572430Y-28754593D01*
X1578330Y-28761329D01*
X1578805Y-28766913D01*
X1522882Y-29120008D01*
X1518203Y-29127643D01*
X1509496Y-29129734D01*
X1507558Y-29129255D01*
X1226863Y-29033782D01*
X734643Y-28885814D01*
X734642Y-28885813D01*
X734633Y-28885811D01*
X429479Y-28815042D01*
X325539Y-28790937D01*
X325531Y-28790936D01*
X4774Y-28745451D01*
X4767Y-28745450D01*
X4765Y-28745450D01*
X-44354Y-28744344D01*
X-222172Y-28740344D01*
X-230366Y-28736732D01*
X-233606Y-28728384D01*
X-233129Y-28725331D01*
X-69633Y-28172117D01*
X-2362Y-27944499D01*
X3265Y-27937539D01*
X784173Y-27514393D01*
X793078Y-27513466D01*
X800033Y-27519107D01*
G37*
%TD.AperFunction*%
%TD*%
%TA.AperFunction,Conductor*%
%TO.N,GND*%
G36*
X10800833Y-20494874D02*
G01*
X10902569Y-20547329D01*
X11201924Y-20697432D01*
X11472880Y-20809796D01*
X11685880Y-20869274D01*
X11836811Y-20884530D01*
X11844696Y-20888772D01*
X11847274Y-20897348D01*
X11846735Y-20899863D01*
X11687316Y-21379194D01*
X11681453Y-21385963D01*
X11677499Y-21387131D01*
X10975111Y-21464732D01*
X10966511Y-21462235D01*
X10962197Y-21454388D01*
X10962384Y-21450660D01*
X10984976Y-21344836D01*
X10982854Y-21275251D01*
X10969633Y-21208634D01*
X10941952Y-21134332D01*
X10903912Y-21065877D01*
X10849744Y-20994088D01*
X10789750Y-20933139D01*
X10789746Y-20933136D01*
X10678262Y-20854936D01*
X10673457Y-20847380D01*
X10673853Y-20841747D01*
X10784347Y-20501659D01*
X10790162Y-20494850D01*
X10799089Y-20494148D01*
X10800833Y-20494874D01*
G37*
%TD.AperFunction*%
%TD*%
%TA.AperFunction,Conductor*%
%TO.N,GND*%
G36*
X6903525Y-12566323D02*
G01*
X6909226Y-12573229D01*
X6909510Y-12574352D01*
X6985458Y-12952071D01*
X6985458Y-12956688D01*
X6909338Y-13334527D01*
X6904344Y-13341960D01*
X6895557Y-13343686D01*
X6895246Y-13343619D01*
X6741778Y-13308335D01*
X6740849Y-13308080D01*
X6621197Y-13269964D01*
X6619754Y-13269397D01*
X6433151Y-13181320D01*
X6432685Y-13181087D01*
X6431682Y-13180558D01*
X6399452Y-13163553D01*
X6399445Y-13163549D01*
X6399438Y-13163546D01*
X6399432Y-13163543D01*
X6143425Y-13043506D01*
X6137389Y-13036891D01*
X6137583Y-13028436D01*
X6263693Y-12723986D01*
X6274666Y-12697494D01*
X6280998Y-12691163D01*
X6288881Y-12690779D01*
X6398024Y-12723986D01*
X6467199Y-12725268D01*
X6490257Y-12725696D01*
X6490257Y-12725695D01*
X6490258Y-12725696D01*
X6568095Y-12702356D01*
X6644201Y-12663503D01*
X6644207Y-12663515D01*
X6644278Y-12663464D01*
X6753150Y-12609005D01*
X6754941Y-12608288D01*
X6894613Y-12565472D01*
X6903525Y-12566323D01*
G37*
%TD.AperFunction*%
%TD*%
%TA.AperFunction,Conductor*%
%TO.N,GND*%
G36*
X14456385Y-27156365D02*
G01*
X14462930Y-27162901D01*
X15232711Y-27931722D01*
X15236143Y-27939993D01*
X15232721Y-27948268D01*
X15232711Y-27948278D01*
X14459024Y-28720999D01*
X14450749Y-28724421D01*
X14442478Y-28720989D01*
X14439063Y-28713128D01*
X14438947Y-28709782D01*
X14428584Y-28641854D01*
X14408030Y-28578037D01*
X14373845Y-28510823D01*
X14329560Y-28448939D01*
X14266852Y-28383193D01*
X14194923Y-28324888D01*
X14194922Y-28324887D01*
X14194918Y-28324884D01*
X14102528Y-28266242D01*
X14102525Y-28266240D01*
X14005010Y-28217937D01*
X13899564Y-28177811D01*
X13899557Y-28177809D01*
X13899555Y-28177808D01*
X13899548Y-28177806D01*
X13797796Y-28149745D01*
X13797781Y-28149742D01*
X13650252Y-28131282D01*
X13642469Y-28126855D01*
X13640005Y-28119673D01*
X13640005Y-27760560D01*
X13643432Y-27752287D01*
X13650508Y-27748922D01*
X13760946Y-27737589D01*
X13956532Y-27681590D01*
X14133370Y-27595358D01*
X14270434Y-27493078D01*
X14365286Y-27382340D01*
X14421133Y-27265242D01*
X14436550Y-27162900D01*
X14441171Y-27155231D01*
X14449862Y-27153075D01*
X14456385Y-27156365D01*
G37*
%TD.AperFunction*%
%TD*%
%TA.AperFunction,Conductor*%
%TO.N,GND*%
G36*
X16033475Y-9899907D02*
G01*
X16039328Y-9906684D01*
X16039921Y-9910417D01*
X16039736Y-9948668D01*
X16049013Y-10102155D01*
X16071327Y-10264478D01*
X16071333Y-10264515D01*
X16114044Y-10472740D01*
X16114045Y-10472745D01*
X16170240Y-10684794D01*
X16170247Y-10684820D01*
X16252597Y-10942752D01*
X16252609Y-10942787D01*
X16343460Y-11188366D01*
X16443283Y-11427540D01*
X16531309Y-11615779D01*
X16531710Y-11624725D01*
X16525667Y-11631333D01*
X16523739Y-11632036D01*
X16207585Y-11716746D01*
X16198707Y-11715577D01*
X16194582Y-11711560D01*
X16143610Y-11628424D01*
X16130512Y-11607060D01*
X16061195Y-11521285D01*
X15978563Y-11436519D01*
X15882378Y-11352939D01*
X15882366Y-11352930D01*
X15882361Y-11352926D01*
X15775283Y-11273444D01*
X15775270Y-11273435D01*
X15542279Y-11136877D01*
X15542277Y-11136876D01*
X15542275Y-11136875D01*
X15300175Y-11037650D01*
X15300169Y-11037647D01*
X15063139Y-10979023D01*
X15063136Y-10979022D01*
X14856056Y-10961458D01*
X14848102Y-10957344D01*
X14845387Y-10948811D01*
X14846580Y-10944568D01*
X15237568Y-10163377D01*
X15244335Y-10157514D01*
X16024544Y-9899254D01*
X16033475Y-9899907D01*
G37*
%TD.AperFunction*%
%TD*%
%TA.AperFunction,Conductor*%
%TO.N,GND*%
G36*
X8266192Y-11665036D02*
G01*
X8584097Y-11827021D01*
X8589912Y-11833831D01*
X8590220Y-11839923D01*
X8586714Y-11856104D01*
X8586713Y-11856111D01*
X8573505Y-12011228D01*
X8586845Y-12121236D01*
X8590481Y-12151214D01*
X8632770Y-12258800D01*
X8685192Y-12321172D01*
X8697094Y-12335332D01*
X8700255Y-12337463D01*
X8737857Y-12362816D01*
X8771421Y-12377126D01*
X8777686Y-12383522D01*
X8777594Y-12392477D01*
X8775780Y-12395425D01*
X8314364Y-12943234D01*
X8306413Y-12947354D01*
X8297878Y-12944646D01*
X8295822Y-12942395D01*
X7905492Y-12383329D01*
X7873468Y-12337461D01*
X7871543Y-12328718D01*
X7876364Y-12321172D01*
X7880091Y-12319448D01*
X7881126Y-12319177D01*
X7931077Y-12296337D01*
X7977362Y-12261333D01*
X8034108Y-12198236D01*
X8084436Y-12121236D01*
X8143754Y-12000584D01*
X8191455Y-11874907D01*
X8249635Y-11672231D01*
X8255211Y-11665226D01*
X8264108Y-11664215D01*
X8266192Y-11665036D01*
G37*
%TD.AperFunction*%
%TD*%
%TA.AperFunction,Conductor*%
%TO.N,GND*%
G36*
X5191260Y-176681D02*
G01*
X5192298Y-178990D01*
X5302479Y-518098D01*
X5301777Y-527025D01*
X5297824Y-531460D01*
X5262759Y-554742D01*
X5262751Y-554748D01*
X5150447Y-660873D01*
X5150446Y-660874D01*
X5067480Y-784386D01*
X5022161Y-909230D01*
X5013865Y-1031178D01*
X5039184Y-1135423D01*
X5037807Y-1144271D01*
X5030576Y-1149553D01*
X5026886Y-1149847D01*
X4324636Y-1093913D01*
X4316661Y-1089840D01*
X4314526Y-1086127D01*
X4146336Y-607261D01*
X4146828Y-598320D01*
X4153498Y-592345D01*
X4156382Y-591727D01*
X4264368Y-582601D01*
X4394556Y-552589D01*
X4528539Y-507137D01*
X4662967Y-450418D01*
X4919750Y-319871D01*
X5138094Y-194332D01*
X5175248Y-172515D01*
X5184116Y-171282D01*
X5191260Y-176681D01*
G37*
%TD.AperFunction*%
%TD*%
%TA.AperFunction,Conductor*%
%TO.N,GND*%
G36*
X-785446Y-9898972D02*
G01*
X-4355Y-10157508D01*
X2423Y-10163361D01*
X2432Y-10163378D01*
X393204Y-10944101D01*
X393842Y-10953033D01*
X387978Y-10959801D01*
X383412Y-10961019D01*
X251538Y-10968590D01*
X251530Y-10968591D01*
X124043Y-10988779D01*
X124041Y-10988780D01*
X-1647Y-11019657D01*
X-1648Y-11019657D01*
X-133367Y-11063437D01*
X-133372Y-11063439D01*
X-196987Y-11090182D01*
X-260598Y-11116924D01*
X-386867Y-11181433D01*
X-505471Y-11253460D01*
X-505474Y-11253462D01*
X-505478Y-11253465D01*
X-712511Y-11412609D01*
X-712515Y-11412612D01*
X-864781Y-11573239D01*
X-864783Y-11573242D01*
X-954422Y-11711844D01*
X-961792Y-11716930D01*
X-967274Y-11716791D01*
X-1283870Y-11631958D01*
X-1290975Y-11626507D01*
X-1292143Y-11617629D01*
X-1291525Y-11615885D01*
X-1127141Y-11247907D01*
X-1127134Y-11247889D01*
X-972075Y-10821590D01*
X-972070Y-10821575D01*
X-867374Y-10444366D01*
X-812663Y-10135703D01*
X-812663Y-10135699D01*
X-800802Y-9909467D01*
X-796947Y-9901385D01*
X-788505Y-9898396D01*
X-785446Y-9898972D01*
G37*
%TD.AperFunction*%
%TD*%
%TA.AperFunction,Conductor*%
%TO.N,GND*%
G36*
X16207269Y-26383206D02*
G01*
X16523868Y-26468040D01*
X16530972Y-26473491D01*
X16532140Y-26482369D01*
X16531522Y-26484113D01*
X16367137Y-26852095D01*
X16367130Y-26852113D01*
X16212072Y-27278411D01*
X16212067Y-27278426D01*
X16107372Y-27655634D01*
X16052664Y-27964294D01*
X16052662Y-27964305D01*
X16040802Y-28190530D01*
X16036947Y-28198612D01*
X16028505Y-28201601D01*
X16025442Y-28201024D01*
X15244355Y-27942491D01*
X15237577Y-27936638D01*
X15237568Y-27936621D01*
X14908120Y-27278420D01*
X14846793Y-27155897D01*
X14846156Y-27146966D01*
X14852020Y-27140198D01*
X14856581Y-27138981D01*
X14988456Y-27131410D01*
X15080828Y-27116782D01*
X15115953Y-27111220D01*
X15115953Y-27111219D01*
X15241640Y-27080344D01*
X15373372Y-27036560D01*
X15500595Y-26983076D01*
X15626863Y-26918567D01*
X15745467Y-26846539D01*
X15952510Y-26687387D01*
X16104779Y-26526757D01*
X16194420Y-26388152D01*
X16201788Y-26383068D01*
X16207269Y-26383206D01*
G37*
%TD.AperFunction*%
%TD*%
%TA.AperFunction,Conductor*%
%TO.N,GND*%
G36*
X11516248Y-11880777D02*
G01*
X11599219Y-11945740D01*
X11599222Y-11945742D01*
X11680459Y-11972725D01*
X11758115Y-11969284D01*
X11838507Y-11949361D01*
X11875995Y-11939070D01*
X11877101Y-11938824D01*
X12004186Y-11916968D01*
X12007010Y-11916831D01*
X12129849Y-11925730D01*
X12137852Y-11929745D01*
X12140672Y-11938244D01*
X12140483Y-11939658D01*
X12066161Y-12317397D01*
X12064393Y-12321662D01*
X11849483Y-12641596D01*
X11842025Y-12646553D01*
X11833247Y-12644784D01*
X11832974Y-12644595D01*
X11548878Y-12441830D01*
X11547610Y-12440783D01*
X11323469Y-12227498D01*
X11323260Y-12227295D01*
X11247629Y-12151362D01*
X11244219Y-12143082D01*
X11247645Y-12134833D01*
X11500763Y-11881715D01*
X11509035Y-11878289D01*
X11516248Y-11880777D01*
G37*
%TD.AperFunction*%
%TD*%
%TA.AperFunction,Conductor*%
%TO.N,CA9*%
G36*
X8568328Y-23557008D02*
G01*
X9301231Y-23864350D01*
X9307534Y-23870709D01*
X9307495Y-23879664D01*
X9301135Y-23885968D01*
X9300411Y-23886237D01*
X8566952Y-24131183D01*
X8558020Y-24130553D01*
X8552148Y-24123791D01*
X8551712Y-24122046D01*
X8547914Y-24099706D01*
X8547913Y-24099705D01*
X8547913Y-24099701D01*
X8530908Y-24065732D01*
X8484374Y-24014517D01*
X8484372Y-24014515D01*
X8421853Y-23969511D01*
X8421851Y-23969510D01*
X8305504Y-23910826D01*
X8305499Y-23910824D01*
X8305495Y-23910822D01*
X8305494Y-23910822D01*
X8236386Y-23885968D01*
X8217053Y-23879015D01*
X8210428Y-23872990D01*
X8210003Y-23864045D01*
X8210184Y-23863578D01*
X8278307Y-23699105D01*
X8284638Y-23692774D01*
X8291582Y-23692146D01*
X8311676Y-23696483D01*
X8411715Y-23696633D01*
X8488501Y-23670958D01*
X8535992Y-23624278D01*
X8549249Y-23591397D01*
X8552185Y-23566431D01*
X8556555Y-23558616D01*
X8565172Y-23556179D01*
X8568328Y-23557008D01*
G37*
%TD.AperFunction*%
%TD*%
%TA.AperFunction,Conductor*%
%TO.N,CA9*%
G36*
X6547109Y-23306206D02*
G01*
X6553173Y-23312424D01*
X6621365Y-23477060D01*
X6621365Y-23486015D01*
X6616281Y-23491740D01*
X6515005Y-23548568D01*
X6514998Y-23548574D01*
X6453057Y-23618743D01*
X6453055Y-23618747D01*
X6422903Y-23697868D01*
X6407932Y-23786628D01*
X6401249Y-23832904D01*
X6401030Y-23834027D01*
X6368400Y-23966627D01*
X6367460Y-23969149D01*
X6307556Y-24086532D01*
X6300743Y-24092344D01*
X6291817Y-24091635D01*
X6290660Y-24090959D01*
X5972138Y-23879083D01*
X5967148Y-23871647D01*
X5967137Y-23871595D01*
X5933023Y-23697869D01*
X5893228Y-23495216D01*
X5894997Y-23486439D01*
X5902455Y-23481482D01*
X5902458Y-23481481D01*
X6050908Y-23453008D01*
X6164348Y-23431069D01*
X6324606Y-23388280D01*
X6538158Y-23305984D01*
X6547109Y-23306206D01*
G37*
%TD.AperFunction*%
%TD*%
%TA.AperFunction,Conductor*%
%TO.N,CA17*%
G36*
X4211530Y-14592977D02*
G01*
X4896333Y-14801993D01*
X4903245Y-14807685D01*
X4904107Y-14816599D01*
X4898415Y-14823511D01*
X4895718Y-14824543D01*
X4210010Y-14993637D01*
X4201157Y-14992290D01*
X4195849Y-14985078D01*
X4195814Y-14984929D01*
X4191421Y-14966055D01*
X4191420Y-14966054D01*
X4191420Y-14966051D01*
X4172074Y-14939993D01*
X4107946Y-14899470D01*
X4028855Y-14871905D01*
X4028850Y-14871903D01*
X4028843Y-14871901D01*
X4012428Y-14867847D01*
X3957464Y-14854275D01*
X3955253Y-14853767D01*
X3947959Y-14848573D01*
X3946474Y-14839742D01*
X3947067Y-14837888D01*
X3952595Y-14824543D01*
X4014736Y-14674519D01*
X4021067Y-14668189D01*
X4027512Y-14667465D01*
X4066117Y-14674052D01*
X4066120Y-14674051D01*
X4066121Y-14674052D01*
X4137348Y-14670577D01*
X4180953Y-14644817D01*
X4193807Y-14621298D01*
X4196540Y-14602485D01*
X4201120Y-14594791D01*
X4209800Y-14592590D01*
X4211530Y-14592977D01*
G37*
%TD.AperFunction*%
%TD*%
%TA.AperFunction,Conductor*%
%TO.N,CA17*%
G36*
X3681920Y-13537544D02*
G01*
X3689355Y-13542533D01*
X3691083Y-13551319D01*
X3690871Y-13552200D01*
X3667300Y-13635473D01*
X3666651Y-13637220D01*
X3630892Y-13714107D01*
X3629912Y-13715819D01*
X3546298Y-13836963D01*
X3546026Y-13837341D01*
X3507543Y-13888610D01*
X3461466Y-13974883D01*
X3461462Y-13974893D01*
X3451360Y-14019134D01*
X3450220Y-14068987D01*
X3460767Y-14130582D01*
X3481851Y-14192291D01*
X3481283Y-14201228D01*
X3475257Y-14206883D01*
X3311090Y-14274886D01*
X3302135Y-14274886D01*
X3295955Y-14268905D01*
X3265954Y-14202682D01*
X3174940Y-14001777D01*
X3174937Y-14001771D01*
X3039834Y-13788859D01*
X2989522Y-13714107D01*
X2975949Y-13693941D01*
X2974173Y-13685166D01*
X2979121Y-13677705D01*
X3297570Y-13463795D01*
X3306344Y-13462027D01*
X3681920Y-13537544D01*
G37*
%TD.AperFunction*%
%TD*%
%TA.AperFunction,Conductor*%
%TO.N,CA11*%
G36*
X671198Y-24965591D02*
G01*
X671492Y-24966056D01*
X721219Y-25048807D01*
X721756Y-25049809D01*
X764730Y-25140193D01*
X765315Y-25141676D01*
X820824Y-25316482D01*
X821227Y-25318181D01*
X847541Y-25483279D01*
X847655Y-25484263D01*
X859056Y-25639237D01*
X880990Y-25858182D01*
X880991Y-25858183D01*
X920156Y-25982458D01*
X988045Y-26082995D01*
X1016942Y-26109667D01*
X1037576Y-26128713D01*
X1037579Y-26128715D01*
X1037579Y-26128716D01*
X1099299Y-26170998D01*
X1099308Y-26171004D01*
X1180517Y-26212347D01*
X1268678Y-26245588D01*
X1275210Y-26251714D01*
X1275677Y-26260152D01*
X1220857Y-26428868D01*
X1215042Y-26435677D01*
X1206374Y-26436460D01*
X957733Y-26362022D01*
X757986Y-26315359D01*
X691797Y-26304761D01*
X591942Y-26288773D01*
X591932Y-26288771D01*
X591914Y-26288769D01*
X433430Y-26271278D01*
X265374Y-26252996D01*
X264765Y-26252914D01*
X-144120Y-26186567D01*
X-151737Y-26181859D01*
X-153795Y-26173144D01*
X-153724Y-26172750D01*
X-48291Y-25639237D01*
X-1893Y-25404460D01*
X3072Y-25397009D01*
X3079Y-25397003D01*
X654973Y-24962346D01*
X663757Y-24960609D01*
X671198Y-24965591D01*
G37*
%TD.AperFunction*%
%TD*%
%TA.AperFunction,Conductor*%
%TO.N,CA13*%
G36*
X3118293Y-23556989D02*
G01*
X3853108Y-23864893D01*
X3859414Y-23871251D01*
X3859377Y-23880206D01*
X3853019Y-23886512D01*
X3852781Y-23886606D01*
X3117828Y-24168918D01*
X3108877Y-24168686D01*
X3102711Y-24162191D01*
X3102037Y-24159552D01*
X3099102Y-24137596D01*
X3079634Y-24094657D01*
X3048135Y-24056992D01*
X3017576Y-24034229D01*
X2987020Y-24011467D01*
X2987013Y-24011463D01*
X2948684Y-23992693D01*
X2916074Y-23976723D01*
X2916071Y-23976722D01*
X2916065Y-23976719D01*
X2834490Y-23949840D01*
X2834487Y-23949839D01*
X2777265Y-23938696D01*
X2769800Y-23933751D01*
X2767946Y-23925384D01*
X2795840Y-23749270D01*
X2800519Y-23741635D01*
X2807856Y-23739410D01*
X2836644Y-23740544D01*
X2949712Y-23722273D01*
X3035005Y-23681313D01*
X3085856Y-23625037D01*
X3099232Y-23590755D01*
X3102154Y-23566385D01*
X3106542Y-23558581D01*
X3115164Y-23556163D01*
X3118293Y-23556989D01*
G37*
%TD.AperFunction*%
%TD*%
%TA.AperFunction,Conductor*%
%TO.N,CA14*%
G36*
X3118218Y-22286964D02*
G01*
X3850324Y-22594051D01*
X3856627Y-22600411D01*
X3856587Y-22609366D01*
X3850227Y-22615669D01*
X3849285Y-22616008D01*
X3116636Y-22844747D01*
X3107717Y-22843942D01*
X3101981Y-22837066D01*
X3101637Y-22835667D01*
X3096947Y-22809808D01*
X3077350Y-22772790D01*
X3077349Y-22772788D01*
X3027123Y-22719296D01*
X3027120Y-22719294D01*
X3027118Y-22719292D01*
X2960858Y-22672102D01*
X2960855Y-22672100D01*
X2846557Y-22613571D01*
X2846556Y-22613570D01*
X2846555Y-22613570D01*
X2811343Y-22600411D01*
X2761118Y-22581641D01*
X2754568Y-22575534D01*
X2754254Y-22566585D01*
X2754783Y-22565380D01*
X2835399Y-22407164D01*
X2842208Y-22401351D01*
X2848683Y-22401133D01*
X2861475Y-22404358D01*
X2901699Y-22406711D01*
X2962031Y-22410242D01*
X2962033Y-22410241D01*
X2962037Y-22410242D01*
X3039017Y-22390226D01*
X3086028Y-22349136D01*
X3099253Y-22318891D01*
X3102083Y-22296298D01*
X3106511Y-22288516D01*
X3115146Y-22286144D01*
X3118218Y-22286964D01*
G37*
%TD.AperFunction*%
%TD*%
%TA.AperFunction,Conductor*%
%TO.N,CA6*%
G36*
X14802054Y-34904549D02*
G01*
X14802228Y-34904801D01*
X15238184Y-35555507D01*
X15239942Y-35564287D01*
X15239937Y-35564313D01*
X15086337Y-36332575D01*
X15081355Y-36340016D01*
X15072570Y-36341754D01*
X15072008Y-36341627D01*
X14976137Y-36317493D01*
X14974996Y-36317143D01*
X14878960Y-36282231D01*
X14877433Y-36281549D01*
X14712155Y-36193030D01*
X14710619Y-36192046D01*
X14573876Y-36088578D01*
X14573085Y-36087923D01*
X14454556Y-35980650D01*
X14454438Y-35980541D01*
X14413781Y-35942718D01*
X14278632Y-35830609D01*
X14278631Y-35830608D01*
X14164963Y-35770011D01*
X14164961Y-35770010D01*
X14164958Y-35770009D01*
X14047006Y-35746455D01*
X14046998Y-35746455D01*
X13980108Y-35748908D01*
X13907071Y-35762397D01*
X13907061Y-35762399D01*
X13907059Y-35762400D01*
X13907056Y-35762400D01*
X13907052Y-35762402D01*
X13820995Y-35790284D01*
X13820977Y-35790291D01*
X13735826Y-35828777D01*
X13726875Y-35829061D01*
X13720583Y-35823428D01*
X13640070Y-35665416D01*
X13639369Y-35656490D01*
X13644999Y-35649778D01*
X13885610Y-35521773D01*
X14067719Y-35413106D01*
X14348424Y-35213728D01*
X14396556Y-35177538D01*
X14396711Y-35177426D01*
X14785746Y-34901766D01*
X14794475Y-34899780D01*
X14802054Y-34904549D01*
G37*
%TD.AperFunction*%
%TD*%
%TA.AperFunction,Conductor*%
%TO.N,CA6*%
G36*
X5449091Y-32666367D02*
G01*
X5783077Y-32676573D01*
X5784695Y-32676736D01*
X6078771Y-32727643D01*
X6079057Y-32727697D01*
X6174614Y-32746883D01*
X6182050Y-32751871D01*
X6183791Y-32760608D01*
X6109938Y-33136709D01*
X6104981Y-33144167D01*
X6104944Y-33144192D01*
X5785879Y-33356745D01*
X5777094Y-33358480D01*
X5769655Y-33353495D01*
X5769212Y-33352776D01*
X5735622Y-33293492D01*
X5734943Y-33292079D01*
X5707643Y-33224004D01*
X5707178Y-33222593D01*
X5673621Y-33093501D01*
X5673593Y-33093390D01*
X5651242Y-33003822D01*
X5651240Y-33003816D01*
X5614586Y-32930263D01*
X5614586Y-32930262D01*
X5601101Y-32917091D01*
X5588260Y-32904548D01*
X5588253Y-32904543D01*
X5553636Y-32884918D01*
X5553634Y-32884917D01*
X5512509Y-32873539D01*
X5502841Y-32870865D01*
X5502837Y-32870864D01*
X5502834Y-32870864D01*
X5447897Y-32866801D01*
X5439899Y-32862773D01*
X5437060Y-32855133D01*
X5437060Y-32678063D01*
X5440487Y-32669790D01*
X5448760Y-32666363D01*
X5449091Y-32666367D01*
G37*
%TD.AperFunction*%
%TD*%
%TA.AperFunction,Conductor*%
%TO.N,CA8*%
G36*
X6319661Y-25037522D02*
G01*
X6320127Y-25038285D01*
X6362220Y-25113449D01*
X6362991Y-25115122D01*
X6392181Y-25194365D01*
X6392700Y-25196245D01*
X6419786Y-25340154D01*
X6419863Y-25340612D01*
X6429039Y-25402886D01*
X6457794Y-25496685D01*
X6482047Y-25535165D01*
X6482048Y-25535166D01*
X6516595Y-25571260D01*
X6516603Y-25571267D01*
X6559352Y-25601483D01*
X6567749Y-25607418D01*
X6567752Y-25607419D01*
X6567753Y-25607420D01*
X6626478Y-25636224D01*
X6632397Y-25642943D01*
X6632135Y-25651206D01*
X6564125Y-25815392D01*
X6557793Y-25821723D01*
X6549215Y-25821872D01*
X6548816Y-25821723D01*
X6495831Y-25801891D01*
X6280959Y-25721467D01*
X6280957Y-25721466D01*
X6280956Y-25721466D01*
X6047541Y-25669730D01*
X5914849Y-25644037D01*
X5907378Y-25639100D01*
X5905586Y-25630327D01*
X5979505Y-25253896D01*
X5984462Y-25246439D01*
X5984464Y-25246437D01*
X6303440Y-25034259D01*
X6312225Y-25032532D01*
X6319661Y-25037522D01*
G37*
%TD.AperFunction*%
%TD*%
%TA.AperFunction,Conductor*%
%TO.N,CA8*%
G36*
X8565463Y-24897117D02*
G01*
X8949897Y-25022084D01*
X9299969Y-25135881D01*
X9306777Y-25141698D01*
X9307479Y-25150625D01*
X9301662Y-25157433D01*
X9300877Y-25157798D01*
X8567841Y-25465195D01*
X8558886Y-25465234D01*
X8552526Y-25458930D01*
X8551748Y-25456160D01*
X8546846Y-25423854D01*
X8528717Y-25389761D01*
X8528716Y-25389760D01*
X8501937Y-25364530D01*
X8501934Y-25364528D01*
X8451587Y-25341230D01*
X8395060Y-25331479D01*
X8395056Y-25331479D01*
X8395050Y-25331478D01*
X8332032Y-25332589D01*
X8332022Y-25332590D01*
X8291736Y-25340163D01*
X8282973Y-25338323D01*
X8278766Y-25333141D01*
X8278077Y-25331478D01*
X8210387Y-25168058D01*
X8210387Y-25159106D01*
X8216719Y-25152774D01*
X8216779Y-25152748D01*
X8365837Y-25092720D01*
X8476827Y-25022084D01*
X8535732Y-24956053D01*
X8550623Y-24904972D01*
X8556228Y-24897989D01*
X8565129Y-24897015D01*
X8565463Y-24897117D01*
G37*
%TD.AperFunction*%
%TD*%
%TA.AperFunction,Conductor*%
%TO.N,CA7*%
G36*
X3787340Y-31487027D02*
G01*
X3794564Y-31492317D01*
X3795931Y-31501167D01*
X3790641Y-31508392D01*
X3789092Y-31509182D01*
X3060394Y-31814959D01*
X3051439Y-31815000D01*
X3045078Y-31808697D01*
X3044367Y-31806326D01*
X3039839Y-31782172D01*
X3026130Y-31759322D01*
X2995065Y-31739984D01*
X2988573Y-31739071D01*
X2955399Y-31734405D01*
X2955398Y-31734405D01*
X2874393Y-31748061D01*
X2874388Y-31748062D01*
X2821227Y-31768716D01*
X2812274Y-31768518D01*
X2807262Y-31764310D01*
X2803929Y-31759322D01*
X2708434Y-31616405D01*
X2706688Y-31607623D01*
X2711663Y-31600178D01*
X2712494Y-31599671D01*
X2841595Y-31528325D01*
X2964995Y-31438601D01*
X3027746Y-31365672D01*
X3042765Y-31316666D01*
X3048465Y-31309761D01*
X3056724Y-31308729D01*
X3787340Y-31487027D01*
G37*
%TD.AperFunction*%
%TD*%
%TA.AperFunction,Conductor*%
%TO.N,CA1*%
G36*
X10042786Y-33812827D02*
G01*
X10048398Y-33819805D01*
X10048615Y-33820667D01*
X10053535Y-33843901D01*
X10074426Y-33879741D01*
X10144211Y-33948401D01*
X10236062Y-34011286D01*
X10394986Y-34094626D01*
X10400721Y-34101503D01*
X10399914Y-34110422D01*
X10398017Y-34113064D01*
X10276136Y-34240815D01*
X10267946Y-34244436D01*
X10263329Y-34243603D01*
X10258119Y-34241520D01*
X10258118Y-34241519D01*
X10258116Y-34241519D01*
X10258114Y-34241518D01*
X10175367Y-34228789D01*
X10175366Y-34228790D01*
X10107897Y-34244029D01*
X10107895Y-34244030D01*
X10063794Y-34284959D01*
X10063794Y-34284960D01*
X10050724Y-34318100D01*
X10049289Y-34331127D01*
X10047714Y-34345428D01*
X10043401Y-34353276D01*
X10034803Y-34355777D01*
X10031555Y-34354935D01*
X9455470Y-34113064D01*
X9300667Y-34048069D01*
X9294366Y-34041707D01*
X9294409Y-34032753D01*
X9300772Y-34026451D01*
X9301907Y-34026054D01*
X10033884Y-33811862D01*
X10042786Y-33812827D01*
G37*
%TD.AperFunction*%
%TD*%
%TA.AperFunction,Conductor*%
%TO.N,CAMemory1*%
G36*
X15241808Y-5082567D02*
G01*
X15245051Y-5085812D01*
X15347357Y-5239330D01*
X15655121Y-5701157D01*
X15677954Y-5735419D01*
X15679690Y-5744204D01*
X15674706Y-5751643D01*
X15674686Y-5751657D01*
X15489357Y-5874600D01*
X15196118Y-6074359D01*
X14982068Y-6250768D01*
X14698236Y-6525449D01*
X14689908Y-6528739D01*
X14681827Y-6525314D01*
X14556319Y-6399806D01*
X14552892Y-6391533D01*
X14555820Y-6383790D01*
X14634651Y-6294483D01*
X14691434Y-6204402D01*
X14722581Y-6119653D01*
X14731773Y-6038101D01*
X14722696Y-5957611D01*
X14699034Y-5876048D01*
X14622690Y-5701157D01*
X14515710Y-5452085D01*
X14515197Y-5450629D01*
X14458759Y-5248219D01*
X14459838Y-5239330D01*
X14466887Y-5233807D01*
X14467729Y-5233605D01*
X15233025Y-5080826D01*
X15241808Y-5082567D01*
G37*
%TD.AperFunction*%
%TD*%
%TA.AperFunction,Conductor*%
%TO.N,CAMemory1*%
G36*
X13692711Y-7803533D02*
G01*
X13693882Y-7807181D01*
X13696680Y-7826191D01*
X13696682Y-7826197D01*
X13710672Y-7849221D01*
X13710673Y-7849222D01*
X13755790Y-7867064D01*
X13808245Y-7861086D01*
X13840444Y-7850738D01*
X13849368Y-7851469D01*
X13854156Y-7856027D01*
X13942463Y-8008982D01*
X13943631Y-8017860D01*
X13938180Y-8024965D01*
X13936336Y-8025825D01*
X13914152Y-8033908D01*
X13769046Y-8095326D01*
X13769045Y-8095327D01*
X13709463Y-8142195D01*
X13695782Y-8176818D01*
X13689555Y-8183253D01*
X13680646Y-8183417D01*
X13277300Y-8025934D01*
X13270839Y-8019733D01*
X13270656Y-8010780D01*
X13276201Y-8004633D01*
X13676957Y-7798480D01*
X13685879Y-7797744D01*
X13692711Y-7803533D01*
G37*
%TD.AperFunction*%
%TD*%
%TA.AperFunction,Conductor*%
%TO.N,CAMemory0*%
G36*
X14467262Y-2386278D02*
G01*
X14623252Y-2417107D01*
X15235612Y-2538134D01*
X15243064Y-2543100D01*
X15243079Y-2543122D01*
X15677655Y-3194975D01*
X15679393Y-3203759D01*
X15674410Y-3211200D01*
X15673949Y-3211492D01*
X15588057Y-3263135D01*
X15587048Y-3263676D01*
X15494239Y-3307762D01*
X15492720Y-3308358D01*
X15314696Y-3364191D01*
X15312922Y-3364599D01*
X15145997Y-3389516D01*
X15144960Y-3389624D01*
X14988495Y-3398869D01*
X14781944Y-3415414D01*
X14651080Y-3451373D01*
X14542461Y-3516912D01*
X14542455Y-3516917D01*
X14491763Y-3565401D01*
X14491759Y-3565405D01*
X14443527Y-3626363D01*
X14394996Y-3706456D01*
X14394993Y-3706461D01*
X14353988Y-3794019D01*
X14347375Y-3800058D01*
X14338915Y-3799866D01*
X14174970Y-3731960D01*
X14168638Y-3725629D01*
X14168512Y-3716991D01*
X14264818Y-3463974D01*
X14323469Y-3262054D01*
X14355377Y-3091425D01*
X14375494Y-2921663D01*
X14391067Y-2782954D01*
X14391141Y-2782416D01*
X14429716Y-2543100D01*
X14453443Y-2395893D01*
X14458143Y-2388272D01*
X14466856Y-2386205D01*
X14467262Y-2386278D01*
G37*
%TD.AperFunction*%
%TD*%
%TA.AperFunction,Conductor*%
%TO.N,CAMemory0*%
G36*
X13240139Y-6233524D02*
G01*
X13393531Y-6322089D01*
X13398982Y-6329193D01*
X13399255Y-6333933D01*
X13394214Y-6368006D01*
X13394214Y-6368012D01*
X13404653Y-6431098D01*
X13404654Y-6431100D01*
X13440469Y-6473531D01*
X13470945Y-6486316D01*
X13485113Y-6487952D01*
X13485267Y-6487970D01*
X13493093Y-6492324D01*
X13495548Y-6500935D01*
X13491632Y-6508396D01*
X13262337Y-6709129D01*
X13253855Y-6712000D01*
X13245827Y-6708033D01*
X13070030Y-6505644D01*
X13067192Y-6497151D01*
X13071191Y-6489139D01*
X13076196Y-6486580D01*
X13085393Y-6484428D01*
X13091467Y-6483008D01*
X13091467Y-6483007D01*
X13091470Y-6483007D01*
X13121481Y-6461268D01*
X13169890Y-6389983D01*
X13204199Y-6304006D01*
X13223072Y-6240328D01*
X13228708Y-6233373D01*
X13237614Y-6232438D01*
X13240139Y-6233524D01*
G37*
%TD.AperFunction*%
%TD*%
%TA.AperFunction,Conductor*%
%TO.N,CA19*%
G36*
X9106530Y-16675364D02*
G01*
X9107690Y-16676043D01*
X9426208Y-16887916D01*
X9431198Y-16895352D01*
X9431209Y-16895404D01*
X9505117Y-17271776D01*
X9503348Y-17280554D01*
X9495890Y-17285511D01*
X9495833Y-17285522D01*
X9342959Y-17314749D01*
X9342960Y-17314750D01*
X9226546Y-17337226D01*
X9069609Y-17379451D01*
X9069602Y-17379453D01*
X8859775Y-17460335D01*
X8850823Y-17460113D01*
X8844758Y-17453896D01*
X8787115Y-17314750D01*
X8776557Y-17289265D01*
X8776557Y-17280312D01*
X8781642Y-17274585D01*
X8882927Y-17217773D01*
X8944926Y-17147649D01*
X8975175Y-17068590D01*
X8990269Y-16979889D01*
X8996914Y-16934288D01*
X8997133Y-16933176D01*
X9029868Y-16800478D01*
X9030806Y-16797960D01*
X9090789Y-16680464D01*
X9097603Y-16674655D01*
X9106530Y-16675364D01*
G37*
%TD.AperFunction*%
%TD*%
%TA.AperFunction,Conductor*%
%TO.N,CA19*%
G36*
X10968496Y-2786585D02*
G01*
X10973208Y-2793825D01*
X11049036Y-3170218D01*
X11047310Y-3179005D01*
X11047281Y-3179049D01*
X10833965Y-3496870D01*
X10826509Y-3501830D01*
X10817730Y-3500065D01*
X10816810Y-3499379D01*
X10747650Y-3442391D01*
X10745991Y-3440717D01*
X10690855Y-3372507D01*
X10689527Y-3370460D01*
X10618733Y-3231392D01*
X10618516Y-3230941D01*
X10616078Y-3225598D01*
X10586365Y-3160483D01*
X10586362Y-3160480D01*
X10586362Y-3160478D01*
X10533839Y-3085860D01*
X10533837Y-3085858D01*
X10500665Y-3059706D01*
X10459078Y-3039650D01*
X10459076Y-3039649D01*
X10459075Y-3039649D01*
X10430062Y-3032515D01*
X10402875Y-3025831D01*
X10394410Y-3025250D01*
X10343327Y-3021747D01*
X10335308Y-3017762D01*
X10332428Y-3010074D01*
X10332428Y-2832874D01*
X10335855Y-2824601D01*
X10344128Y-2821174D01*
X10344272Y-2821174D01*
X10525372Y-2823848D01*
X10644033Y-2825423D01*
X10777740Y-2815784D01*
X10959764Y-2784604D01*
X10968496Y-2786585D01*
G37*
%TD.AperFunction*%
%TD*%
%TA.AperFunction,Conductor*%
%TO.N,GND*%
G36*
X11564984Y-1100118D02*
G01*
X11882419Y-1405212D01*
X12051670Y-1567883D01*
X12055260Y-1576086D01*
X12051997Y-1584426D01*
X12044720Y-1587960D01*
X12015627Y-1590855D01*
X12015624Y-1590855D01*
X12015621Y-1590856D01*
X12015616Y-1590857D01*
X11962202Y-1606779D01*
X11962197Y-1606781D01*
X11916100Y-1631658D01*
X11885419Y-1657869D01*
X11869729Y-1671275D01*
X11869727Y-1671276D01*
X11869726Y-1671278D01*
X11869724Y-1671280D01*
X11832566Y-1718936D01*
X11796643Y-1788791D01*
X11773382Y-1861823D01*
X11760259Y-1939987D01*
X11758672Y-1998729D01*
X11755023Y-2006907D01*
X11751453Y-2009222D01*
X11422011Y-2145678D01*
X11413057Y-2145678D01*
X11406725Y-2139346D01*
X11405887Y-2135983D01*
X11401162Y-2086584D01*
X11401162Y-2086583D01*
X11401162Y-2086581D01*
X11361869Y-1905584D01*
X11302615Y-1761280D01*
X11233271Y-1664815D01*
X11233270Y-1664814D01*
X11156747Y-1609623D01*
X11156744Y-1609621D01*
X11100059Y-1597203D01*
X11090333Y-1595072D01*
X11082986Y-1589955D01*
X11081409Y-1581140D01*
X11084466Y-1575471D01*
X11548509Y-1100378D01*
X11556740Y-1096855D01*
X11564984Y-1100118D01*
G37*
%TD.AperFunction*%
%TD*%
%TA.AperFunction,Conductor*%
%TO.N,GND*%
G36*
X11045132Y-4002119D02*
G01*
X11046542Y-4004068D01*
X11225089Y-4313302D01*
X11226258Y-4322180D01*
X11223631Y-4327004D01*
X11137907Y-4421696D01*
X11005964Y-4608215D01*
X10910318Y-4799483D01*
X10854508Y-4984357D01*
X10854505Y-4984367D01*
X10838560Y-5144250D01*
X10834329Y-5152142D01*
X10825757Y-5154731D01*
X10822460Y-5153907D01*
X10343580Y-4956568D01*
X10337237Y-4950247D01*
X10336342Y-4945449D01*
X10354488Y-4244963D01*
X10358128Y-4236783D01*
X10366487Y-4233572D01*
X10370627Y-4234445D01*
X10376323Y-4236783D01*
X10388067Y-4241604D01*
X10449922Y-4256300D01*
X10493838Y-4258516D01*
X10513565Y-4259513D01*
X10513567Y-4259512D01*
X10513573Y-4259513D01*
X10593585Y-4249736D01*
X10673273Y-4227314D01*
X10774843Y-4183147D01*
X10869000Y-4128131D01*
X10965236Y-4057863D01*
X11028614Y-4001194D01*
X11037063Y-3998236D01*
X11045132Y-4002119D01*
G37*
%TD.AperFunction*%
%TD*%
%TA.AperFunction,Conductor*%
%TO.N,/3.3V*%
G36*
X12571961Y-5917547D02*
G01*
X12579394Y-5922541D01*
X12581120Y-5931328D01*
X12580917Y-5932170D01*
X12531264Y-6109578D01*
X12530671Y-6111215D01*
X12473056Y-6239602D01*
X12472931Y-6239872D01*
X12444519Y-6299111D01*
X12444512Y-6299129D01*
X12399821Y-6433380D01*
X12386727Y-6522146D01*
X12382472Y-6623107D01*
X12378699Y-6631228D01*
X12370782Y-6634314D01*
X12013091Y-6634314D01*
X12004818Y-6630887D01*
X12001408Y-6623238D01*
X11994716Y-6497998D01*
X11974994Y-6395629D01*
X11946027Y-6313961D01*
X11911038Y-6239811D01*
X11910973Y-6239670D01*
X11910942Y-6239602D01*
X11855564Y-6117057D01*
X11854968Y-6115424D01*
X11803126Y-5932195D01*
X11804171Y-5923302D01*
X11811199Y-5917752D01*
X11812060Y-5917542D01*
X12189692Y-5841465D01*
X12194308Y-5841465D01*
X12571961Y-5917547D01*
G37*
%TD.AperFunction*%
%TD*%
%TA.AperFunction,Conductor*%
%TO.N,/3.3V*%
G36*
X12424015Y-5053113D02*
G01*
X12427433Y-5060936D01*
X12432445Y-5191190D01*
X12432445Y-5191195D01*
X12447432Y-5297148D01*
X12497906Y-5462329D01*
X12497913Y-5462352D01*
X12497919Y-5462369D01*
X12497925Y-5462385D01*
X12523425Y-5533894D01*
X12523716Y-5534833D01*
X12581138Y-5751955D01*
X12579940Y-5760829D01*
X12572818Y-5766257D01*
X12572138Y-5766416D01*
X12194311Y-5842534D01*
X12189689Y-5842534D01*
X11811755Y-5766395D01*
X11804322Y-5761401D01*
X11802596Y-5752614D01*
X11802720Y-5752069D01*
X11827831Y-5653646D01*
X11828239Y-5652366D01*
X11861260Y-5566616D01*
X11861968Y-5565110D01*
X11935042Y-5435008D01*
X11935122Y-5434868D01*
X11983518Y-5353188D01*
X12004327Y-5297145D01*
X12029055Y-5230543D01*
X12029058Y-5230536D01*
X12042257Y-5149680D01*
X12046471Y-5060831D01*
X12050286Y-5052730D01*
X12058158Y-5049686D01*
X12415742Y-5049686D01*
X12424015Y-5053113D01*
G37*
%TD.AperFunction*%
%TD*%
%TA.AperFunction,Conductor*%
%TO.N,GND*%
G36*
X10344532Y-4961220D02*
G01*
X10345953Y-4962641D01*
X10807425Y-5511137D01*
X10810129Y-5519673D01*
X10806004Y-5527622D01*
X10802695Y-5529580D01*
X10773505Y-5540876D01*
X10719897Y-5573620D01*
X10673049Y-5615850D01*
X10673046Y-5615853D01*
X10623651Y-5679067D01*
X10583362Y-5751166D01*
X10583359Y-5751173D01*
X10542829Y-5854669D01*
X10542827Y-5854674D01*
X10515219Y-5960717D01*
X10496965Y-6078801D01*
X10492109Y-6166944D01*
X10488232Y-6175016D01*
X10480427Y-6178000D01*
X10122434Y-6178000D01*
X10114161Y-6174573D01*
X10110761Y-6167091D01*
X10096891Y-5962362D01*
X10096890Y-5962358D01*
X10096890Y-5962355D01*
X10058487Y-5783753D01*
X10003308Y-5655096D01*
X9935956Y-5571057D01*
X9867898Y-5530707D01*
X9862530Y-5523541D01*
X9863802Y-5514677D01*
X9864909Y-5513117D01*
X10328047Y-4962640D01*
X10335996Y-4958516D01*
X10344532Y-4961220D01*
G37*
%TD.AperFunction*%
%TD*%
%TA.AperFunction,Conductor*%
%TO.N,CA2*%
G36*
X7214093Y-24121946D02*
G01*
X7316217Y-24149558D01*
X7317871Y-24150142D01*
X7404930Y-24188449D01*
X7406799Y-24189484D01*
X7474718Y-24235686D01*
X7536763Y-24277894D01*
X7634356Y-24346665D01*
X7748938Y-24392932D01*
X7824327Y-24406241D01*
X7824336Y-24406241D01*
X7824341Y-24406242D01*
X7905218Y-24410426D01*
X7913303Y-24414275D01*
X7916314Y-24422110D01*
X7916314Y-24600215D01*
X7912887Y-24608488D01*
X7905565Y-24611876D01*
X7781879Y-24621958D01*
X7682285Y-24651312D01*
X7682283Y-24651313D01*
X7604821Y-24693786D01*
X7536709Y-24744146D01*
X7486372Y-24782265D01*
X7485198Y-24783048D01*
X7365352Y-24852858D01*
X7363569Y-24853704D01*
X7291822Y-24880592D01*
X7290578Y-24880981D01*
X7233235Y-24895444D01*
X7213942Y-24900310D01*
X7205083Y-24899011D01*
X7199736Y-24891828D01*
X7199611Y-24891277D01*
X7197458Y-24880592D01*
X7123465Y-24513308D01*
X7123465Y-24508691D01*
X7199569Y-24130927D01*
X7204563Y-24123496D01*
X7213350Y-24121770D01*
X7214093Y-24121946D01*
G37*
%TD.AperFunction*%
%TD*%
%TA.AperFunction,Conductor*%
%TO.N,CA2*%
G36*
X14467838Y-22706395D02*
G01*
X15233095Y-22857855D01*
X15240544Y-22862823D01*
X15242300Y-22867062D01*
X15393717Y-23632723D01*
X15391960Y-23641504D01*
X15384509Y-23646471D01*
X15384089Y-23646546D01*
X15262671Y-23665988D01*
X15261794Y-23666094D01*
X15146920Y-23675680D01*
X15145947Y-23675721D01*
X14955012Y-23675729D01*
X14954859Y-23675728D01*
X14844039Y-23674275D01*
X14844034Y-23674276D01*
X14844033Y-23674276D01*
X14700431Y-23690742D01*
X14700429Y-23690742D01*
X14700422Y-23690744D01*
X14629776Y-23712261D01*
X14554168Y-23746196D01*
X14554159Y-23746201D01*
X14464475Y-23799711D01*
X14464460Y-23799721D01*
X14372564Y-23867337D01*
X14363869Y-23869480D01*
X14356483Y-23865208D01*
X14304252Y-23799711D01*
X14245728Y-23726324D01*
X14243250Y-23717720D01*
X14247115Y-23710274D01*
X14321399Y-23644431D01*
X14381749Y-23575031D01*
X14422938Y-23508114D01*
X14448052Y-23442353D01*
X14460174Y-23376421D01*
X14462389Y-23308993D01*
X14449435Y-23164339D01*
X14442348Y-23102863D01*
X14442285Y-23102089D01*
X14441915Y-23094465D01*
X14432796Y-22906072D01*
X14432854Y-22904215D01*
X14453951Y-22716564D01*
X14458280Y-22708728D01*
X14466884Y-22706247D01*
X14467838Y-22706395D01*
G37*
%TD.AperFunction*%
%TD*%
%TA.AperFunction,Conductor*%
%TO.N,CA19*%
G36*
X5668689Y-17194048D02*
G01*
X5674378Y-17200963D01*
X5674440Y-17201175D01*
X5683606Y-17233428D01*
X5683606Y-17233429D01*
X5683608Y-17233431D01*
X5703517Y-17259919D01*
X5748314Y-17288372D01*
X5801999Y-17304740D01*
X5887919Y-17312984D01*
X5895826Y-17317186D01*
X5898500Y-17324631D01*
X5898500Y-17503086D01*
X5895073Y-17511359D01*
X5887613Y-17514758D01*
X5826239Y-17519032D01*
X5826234Y-17519033D01*
X5740875Y-17543009D01*
X5691329Y-17581956D01*
X5678228Y-17607642D01*
X5678228Y-17607643D01*
X5675519Y-17625604D01*
X5670897Y-17633274D01*
X5662205Y-17635428D01*
X5660540Y-17635051D01*
X5176144Y-17487469D01*
X4971733Y-17425191D01*
X4964819Y-17419503D01*
X4963952Y-17410590D01*
X4969641Y-17403675D01*
X4971732Y-17402808D01*
X5659776Y-17193181D01*
X5668689Y-17194048D01*
G37*
%TD.AperFunction*%
%TD*%
%TA.AperFunction,Conductor*%
%TO.N,GND*%
G36*
X10087245Y-17842883D02*
G01*
X10776266Y-18052808D01*
X10783180Y-18058496D01*
X10784047Y-18067409D01*
X10778358Y-18074324D01*
X10776265Y-18075191D01*
X10087401Y-18285069D01*
X10078488Y-18284202D01*
X10072799Y-18277287D01*
X10072430Y-18275672D01*
X10070354Y-18262300D01*
X10070353Y-18262299D01*
X10067192Y-18257338D01*
X10058818Y-18244190D01*
X10058817Y-18244189D01*
X10058816Y-18244188D01*
X10058817Y-18244188D01*
X10018985Y-18228547D01*
X9965821Y-18231708D01*
X9910306Y-18243273D01*
X9909952Y-18243341D01*
X9863232Y-18251579D01*
X9854489Y-18249641D01*
X9849678Y-18242089D01*
X9849500Y-18240057D01*
X9849500Y-17887943D01*
X9852927Y-17879670D01*
X9861200Y-17876243D01*
X9863231Y-17876420D01*
X9910138Y-17884691D01*
X9987667Y-17896053D01*
X10013510Y-17899841D01*
X10013510Y-17899840D01*
X10013511Y-17899841D01*
X10056706Y-17885721D01*
X10069776Y-17867220D01*
X10072300Y-17852145D01*
X10077045Y-17844551D01*
X10085770Y-17842537D01*
X10087245Y-17842883D01*
G37*
%TD.AperFunction*%
%TD*%
%TA.AperFunction,Conductor*%
%TO.N,GND*%
G36*
X7075168Y-18280081D02*
G01*
X7252581Y-18329735D01*
X7254214Y-18330327D01*
X7382636Y-18387958D01*
X7382844Y-18388054D01*
X7442123Y-18416485D01*
X7486699Y-18431323D01*
X7576380Y-18461178D01*
X7576383Y-18461178D01*
X7576385Y-18461179D01*
X7665144Y-18474272D01*
X7766108Y-18478527D01*
X7774228Y-18482300D01*
X7777314Y-18490217D01*
X7777314Y-18847908D01*
X7773887Y-18856181D01*
X7766238Y-18859591D01*
X7640998Y-18866283D01*
X7569007Y-18880153D01*
X7538628Y-18886006D01*
X7538625Y-18886006D01*
X7538625Y-18886007D01*
X7456960Y-18914973D01*
X7456958Y-18914973D01*
X7382844Y-18949945D01*
X7382669Y-18950026D01*
X7260058Y-19005434D01*
X7258425Y-19006030D01*
X7075195Y-19057873D01*
X7066302Y-19056828D01*
X7060752Y-19049800D01*
X7060540Y-19048926D01*
X7051898Y-19006030D01*
X6984465Y-18671308D01*
X6984465Y-18666691D01*
X7060547Y-18289036D01*
X7065541Y-18281605D01*
X7074328Y-18279879D01*
X7075168Y-18280081D01*
G37*
%TD.AperFunction*%
%TD*%
%TA.AperFunction,Conductor*%
%TO.N,GND*%
G36*
X10820253Y-17421290D02*
G01*
X11003514Y-17605366D01*
X11020782Y-17622710D01*
X11024191Y-17630991D01*
X11020746Y-17639256D01*
X11014289Y-17642526D01*
X11010300Y-17643146D01*
X10992188Y-17654682D01*
X10976547Y-17694514D01*
X10979708Y-17747678D01*
X10991273Y-17803193D01*
X10991341Y-17803547D01*
X10999579Y-17850268D01*
X10997641Y-17859011D01*
X10990089Y-17863822D01*
X10988057Y-17864000D01*
X10635943Y-17864000D01*
X10627670Y-17860573D01*
X10624243Y-17852300D01*
X10624421Y-17850268D01*
X10632658Y-17803547D01*
X10632691Y-17803362D01*
X10647841Y-17699989D01*
X10633721Y-17656794D01*
X10630731Y-17654682D01*
X10615217Y-17643722D01*
X10609342Y-17642739D01*
X10601748Y-17637993D01*
X10599735Y-17629268D01*
X10602981Y-17622946D01*
X10803710Y-17421326D01*
X10811974Y-17417882D01*
X10820253Y-17421290D01*
G37*
%TD.AperFunction*%
%TD*%
%TA.AperFunction,Conductor*%
%TO.N,GND*%
G36*
X10996330Y-17617427D02*
G01*
X10999757Y-17625700D01*
X10999579Y-17627732D01*
X10991308Y-17674641D01*
X10976158Y-17778010D01*
X10977948Y-17783485D01*
X10990279Y-17821206D01*
X11008780Y-17834276D01*
X11014657Y-17835259D01*
X11022250Y-17840005D01*
X11024265Y-17848730D01*
X11021016Y-17855054D01*
X10820291Y-18056672D01*
X10812026Y-18060117D01*
X10803745Y-18056708D01*
X10803709Y-18056672D01*
X10603217Y-17855289D01*
X10599808Y-17847008D01*
X10603253Y-17838743D01*
X10609713Y-17835473D01*
X10613699Y-17834854D01*
X10614608Y-17834275D01*
X10631810Y-17823318D01*
X10631810Y-17823317D01*
X10631811Y-17823317D01*
X10647452Y-17783485D01*
X10644291Y-17730321D01*
X10644291Y-17730318D01*
X10632726Y-17674806D01*
X10632658Y-17674451D01*
X10624421Y-17627731D01*
X10626359Y-17618989D01*
X10633912Y-17614178D01*
X10635943Y-17614000D01*
X10988057Y-17614000D01*
X10996330Y-17617427D01*
G37*
%TD.AperFunction*%
%TD*%
%TA.AperFunction,Conductor*%
%TO.N,GND*%
G36*
X11547146Y-17193301D02*
G01*
X11552835Y-17200216D01*
X11552857Y-17200291D01*
X11562823Y-17233799D01*
X11562824Y-17233800D01*
X11596675Y-17249455D01*
X11596675Y-17249454D01*
X11596678Y-17249456D01*
X11641890Y-17246317D01*
X11689102Y-17234776D01*
X11689442Y-17234699D01*
X11727237Y-17226886D01*
X11736032Y-17228567D01*
X11741063Y-17235976D01*
X11741304Y-17238172D01*
X11746458Y-17589479D01*
X11743153Y-17597802D01*
X11734931Y-17601350D01*
X11732454Y-17601122D01*
X11693360Y-17593267D01*
X11608085Y-17577977D01*
X11608084Y-17577977D01*
X11567145Y-17590401D01*
X11554206Y-17609210D01*
X11551599Y-17625713D01*
X11546922Y-17633350D01*
X11538216Y-17635444D01*
X11536632Y-17635079D01*
X10847735Y-17425205D01*
X10840820Y-17419516D01*
X10839953Y-17410603D01*
X10845642Y-17403688D01*
X10847729Y-17402823D01*
X11538235Y-17192434D01*
X11547146Y-17193301D01*
G37*
%TD.AperFunction*%
%TD*%
%TA.AperFunction,Conductor*%
%TO.N,GND*%
G36*
X11545921Y-15894581D02*
G01*
X11551600Y-15901504D01*
X11551903Y-15902744D01*
X11554562Y-15916942D01*
X11568634Y-15935505D01*
X11568633Y-15935505D01*
X11570922Y-15936300D01*
X11617115Y-15952347D01*
X11681563Y-15950637D01*
X11748514Y-15940579D01*
X11748670Y-15940557D01*
X11800506Y-15933947D01*
X11809146Y-15936300D01*
X11813592Y-15944073D01*
X11813287Y-15948582D01*
X11722313Y-16288060D01*
X11716862Y-16295164D01*
X11708573Y-16296474D01*
X11675364Y-16289395D01*
X11665992Y-16287571D01*
X11605770Y-16275850D01*
X11605768Y-16275850D01*
X11605767Y-16275850D01*
X11566966Y-16287571D01*
X11566965Y-16287572D01*
X11554183Y-16307144D01*
X11551478Y-16325542D01*
X11546883Y-16333229D01*
X11538200Y-16335416D01*
X11536488Y-16335031D01*
X11505380Y-16325542D01*
X11386880Y-16289395D01*
X10847839Y-16124968D01*
X10840926Y-16119276D01*
X10840062Y-16110363D01*
X10845754Y-16103450D01*
X10847851Y-16102582D01*
X11537011Y-15893701D01*
X11545921Y-15894581D01*
G37*
%TD.AperFunction*%
%TD*%
%TA.AperFunction,Conductor*%
%TO.N,GND*%
G36*
X10820253Y-15471290D02*
G01*
X11003514Y-15655366D01*
X11020782Y-15672710D01*
X11024191Y-15680991D01*
X11020746Y-15689256D01*
X11014289Y-15692526D01*
X11010300Y-15693146D01*
X10992188Y-15704682D01*
X10976547Y-15744514D01*
X10979708Y-15797678D01*
X10991273Y-15853193D01*
X10991341Y-15853547D01*
X10999579Y-15900268D01*
X10997641Y-15909011D01*
X10990089Y-15913822D01*
X10988057Y-15914000D01*
X10635943Y-15914000D01*
X10627670Y-15910573D01*
X10624243Y-15902300D01*
X10624421Y-15900268D01*
X10632658Y-15853547D01*
X10632691Y-15853362D01*
X10647841Y-15749989D01*
X10633721Y-15706794D01*
X10630731Y-15704682D01*
X10615217Y-15693722D01*
X10609342Y-15692739D01*
X10601748Y-15687993D01*
X10599735Y-15679268D01*
X10602981Y-15672946D01*
X10803710Y-15471326D01*
X10811974Y-15467882D01*
X10820253Y-15471290D01*
G37*
%TD.AperFunction*%
%TD*%
%TA.AperFunction,Conductor*%
%TO.N,GND*%
G36*
X10996330Y-15667427D02*
G01*
X10999757Y-15675700D01*
X10999579Y-15677732D01*
X10991308Y-15724641D01*
X10976158Y-15828010D01*
X10977948Y-15833485D01*
X10990279Y-15871206D01*
X11008780Y-15884276D01*
X11014657Y-15885259D01*
X11022250Y-15890005D01*
X11024265Y-15898730D01*
X11021016Y-15905054D01*
X10820291Y-16106672D01*
X10812026Y-16110117D01*
X10803745Y-16106708D01*
X10803709Y-16106672D01*
X10603217Y-15905289D01*
X10599808Y-15897008D01*
X10603253Y-15888743D01*
X10609713Y-15885473D01*
X10613699Y-15884854D01*
X10614608Y-15884275D01*
X10631810Y-15873318D01*
X10631810Y-15873317D01*
X10631811Y-15873317D01*
X10647452Y-15833485D01*
X10644291Y-15780321D01*
X10644291Y-15780318D01*
X10632726Y-15724806D01*
X10632658Y-15724451D01*
X10624421Y-15677731D01*
X10626359Y-15668989D01*
X10633912Y-15664178D01*
X10635943Y-15664000D01*
X10988057Y-15664000D01*
X10996330Y-15667427D01*
G37*
%TD.AperFunction*%
%TD*%
%TA.AperFunction,Conductor*%
%TO.N,~{CATOP}*%
G36*
X14802045Y-12044583D02*
G01*
X14802485Y-12045197D01*
X15108679Y-12502761D01*
X15236566Y-12693871D01*
X15238319Y-12702653D01*
X15236562Y-12706890D01*
X14802202Y-13355237D01*
X14794751Y-13360203D01*
X14785970Y-13358445D01*
X14785756Y-13358299D01*
X14428117Y-13107047D01*
X14427985Y-13106953D01*
X14321900Y-13030211D01*
X14321883Y-13030200D01*
X14088309Y-12881859D01*
X13908469Y-12791265D01*
X13908468Y-12791264D01*
X13908463Y-12791262D01*
X13798206Y-12743183D01*
X13672246Y-12688256D01*
X13666033Y-12681808D01*
X13666114Y-12673054D01*
X13711138Y-12564353D01*
X13734027Y-12509091D01*
X13740357Y-12502761D01*
X13748681Y-12502520D01*
X13767565Y-12509093D01*
X13866812Y-12543639D01*
X13976840Y-12564353D01*
X14071980Y-12563507D01*
X14155876Y-12543576D01*
X14232172Y-12507034D01*
X14304510Y-12456357D01*
X14451892Y-12322494D01*
X14600223Y-12184870D01*
X14601055Y-12184168D01*
X14785640Y-12042428D01*
X14794288Y-12040109D01*
X14802045Y-12044583D01*
G37*
%TD.AperFunction*%
%TD*%
%TA.AperFunction,Conductor*%
%TO.N,~{CATOP}*%
G36*
X9639689Y-9985048D02*
G01*
X9645378Y-9991963D01*
X9645440Y-9992175D01*
X9654606Y-10024428D01*
X9654606Y-10024429D01*
X9654608Y-10024431D01*
X9674517Y-10050919D01*
X9719314Y-10079372D01*
X9772999Y-10095740D01*
X9858919Y-10103984D01*
X9866826Y-10108186D01*
X9869500Y-10115631D01*
X9869500Y-10294086D01*
X9866073Y-10302359D01*
X9858613Y-10305758D01*
X9797239Y-10310032D01*
X9797234Y-10310033D01*
X9711875Y-10334009D01*
X9662329Y-10372956D01*
X9649227Y-10398645D01*
X9649226Y-10398646D01*
X9646519Y-10416604D01*
X9641897Y-10424273D01*
X9633205Y-10426428D01*
X9631540Y-10426051D01*
X9147144Y-10278469D01*
X8942733Y-10216191D01*
X8935819Y-10210503D01*
X8934952Y-10201590D01*
X8940641Y-10194675D01*
X8942732Y-10193808D01*
X9630776Y-9984181D01*
X9639689Y-9985048D01*
G37*
%TD.AperFunction*%
%TD*%
%TA.AperFunction,Conductor*%
%TO.N,GND*%
G36*
X12155147Y-9263049D02*
G01*
X12238857Y-9286298D01*
X12332405Y-9312279D01*
X12334014Y-9312855D01*
X12462035Y-9369578D01*
X12462332Y-9369715D01*
X12513329Y-9394038D01*
X12649159Y-9440809D01*
X12738537Y-9455360D01*
X12840851Y-9461370D01*
X12848908Y-9465276D01*
X12851862Y-9473251D01*
X12845712Y-9830924D01*
X12842144Y-9839137D01*
X12834483Y-9842414D01*
X12711213Y-9847361D01*
X12610461Y-9866490D01*
X12530163Y-9895766D01*
X12530160Y-9895767D01*
X12457244Y-9931581D01*
X12457042Y-9931677D01*
X12332867Y-9989744D01*
X12331135Y-9990393D01*
X12155225Y-10040819D01*
X12146328Y-10039805D01*
X12140754Y-10032796D01*
X12140535Y-10031901D01*
X12064466Y-9654291D01*
X12064466Y-9649674D01*
X12140552Y-9272011D01*
X12145546Y-9264580D01*
X12154333Y-9262854D01*
X12155147Y-9263049D01*
G37*
%TD.AperFunction*%
%TD*%
%TA.AperFunction,Conductor*%
%TO.N,GND*%
G36*
X3518852Y-10659564D02*
G01*
X3817259Y-10732252D01*
X3818872Y-10732772D01*
X4038014Y-10821298D01*
X4038251Y-10821397D01*
X4248083Y-10911982D01*
X4254321Y-10918407D01*
X4254255Y-10927202D01*
X4117236Y-11257986D01*
X4110904Y-11264317D01*
X4103215Y-11264759D01*
X4001165Y-11235626D01*
X3915010Y-11239625D01*
X3915006Y-11239625D01*
X3915005Y-11239626D01*
X3915003Y-11239626D01*
X3915002Y-11239627D01*
X3843433Y-11269534D01*
X3843432Y-11269535D01*
X3775307Y-11315155D01*
X3774938Y-11315392D01*
X3643363Y-11396534D01*
X3640848Y-11397699D01*
X3519539Y-11437238D01*
X3510611Y-11436544D01*
X3504789Y-11429740D01*
X3504443Y-11428420D01*
X3498266Y-11397699D01*
X3428541Y-11050925D01*
X3428541Y-11046314D01*
X3504631Y-10668623D01*
X3509624Y-10661192D01*
X3518411Y-10659466D01*
X3518852Y-10659564D01*
G37*
%TD.AperFunction*%
%TD*%
%TA.AperFunction,Conductor*%
%TO.N,GND*%
G36*
X14456625Y-9376619D02*
G01*
X14982212Y-9902025D01*
X15232281Y-10152008D01*
X15235709Y-10160281D01*
X15232284Y-10168555D01*
X15232010Y-10168820D01*
X14457817Y-10894380D01*
X14449437Y-10897537D01*
X14441279Y-10893844D01*
X14438199Y-10887236D01*
X14432170Y-10836936D01*
X14413552Y-10774915D01*
X14379629Y-10705728D01*
X14334125Y-10639903D01*
X14266715Y-10565816D01*
X14188060Y-10497445D01*
X14084363Y-10424500D01*
X13973909Y-10361057D01*
X13973901Y-10361053D01*
X13973899Y-10361052D01*
X13853747Y-10304589D01*
X13737450Y-10260910D01*
X13575865Y-10221915D01*
X13568627Y-10216643D01*
X13567237Y-10207797D01*
X13568880Y-10204046D01*
X13767082Y-9907411D01*
X13774526Y-9902438D01*
X13777152Y-9902218D01*
X13843896Y-9904215D01*
X14002663Y-9874808D01*
X14154975Y-9809553D01*
X14278366Y-9720328D01*
X14367115Y-9614704D01*
X14421235Y-9495079D01*
X14436765Y-9383284D01*
X14441298Y-9375562D01*
X14449964Y-9373306D01*
X14456625Y-9376619D01*
G37*
%TD.AperFunction*%
%TD*%
%TA.AperFunction,Conductor*%
%TO.N,GND*%
G36*
X11983697Y-9264171D02*
G01*
X11989247Y-9271199D01*
X11989459Y-9272073D01*
X12065534Y-9649689D01*
X12065534Y-9654311D01*
X11989452Y-10031961D01*
X11984458Y-10039394D01*
X11975671Y-10041120D01*
X11974829Y-10040917D01*
X11797420Y-9991264D01*
X11795783Y-9990671D01*
X11667395Y-9933056D01*
X11667125Y-9932931D01*
X11607886Y-9904519D01*
X11607881Y-9904517D01*
X11607877Y-9904515D01*
X11607873Y-9904513D01*
X11607869Y-9904512D01*
X11473619Y-9859821D01*
X11384853Y-9846727D01*
X11283893Y-9842472D01*
X11275772Y-9838699D01*
X11272686Y-9830782D01*
X11272686Y-9473091D01*
X11276113Y-9464818D01*
X11283761Y-9461408D01*
X11409001Y-9454716D01*
X11511370Y-9434994D01*
X11593038Y-9406027D01*
X11667250Y-9371009D01*
X11789945Y-9315562D01*
X11791569Y-9314969D01*
X11974805Y-9263126D01*
X11983697Y-9264171D01*
G37*
%TD.AperFunction*%
%TD*%
%TA.AperFunction,Conductor*%
%TO.N,GND*%
G36*
X10706734Y-7148303D02*
G01*
X11091922Y-7345948D01*
X11110712Y-7355590D01*
X11116509Y-7362416D01*
X11115781Y-7371341D01*
X11110712Y-7376410D01*
X10706915Y-7583603D01*
X10697990Y-7584331D01*
X10691164Y-7578534D01*
X10690014Y-7574997D01*
X10688354Y-7564301D01*
X10676818Y-7546190D01*
X10676817Y-7546189D01*
X10676816Y-7546188D01*
X10676817Y-7546188D01*
X10636985Y-7530547D01*
X10583821Y-7533708D01*
X10528306Y-7545273D01*
X10527952Y-7545341D01*
X10481232Y-7553579D01*
X10472489Y-7551641D01*
X10467678Y-7544089D01*
X10467500Y-7542057D01*
X10467500Y-7189943D01*
X10470927Y-7181670D01*
X10479200Y-7178243D01*
X10481231Y-7178420D01*
X10528138Y-7186691D01*
X10605667Y-7198053D01*
X10631510Y-7201841D01*
X10631510Y-7201840D01*
X10631511Y-7201841D01*
X10674706Y-7187721D01*
X10687776Y-7169220D01*
X10689858Y-7156782D01*
X10694603Y-7149190D01*
X10703328Y-7147175D01*
X10706734Y-7148303D01*
G37*
%TD.AperFunction*%
%TD*%
%TA.AperFunction,Conductor*%
%TO.N,/3.3V*%
G36*
X10480664Y-12128601D02*
G01*
X10540331Y-12140622D01*
X10547764Y-12145616D01*
X10549490Y-12154403D01*
X10549377Y-12154902D01*
X10508571Y-12319803D01*
X10508284Y-12320780D01*
X10465954Y-12444527D01*
X10465875Y-12444750D01*
X10457013Y-12469041D01*
X10457010Y-12469048D01*
X10412826Y-12623155D01*
X10399728Y-12724400D01*
X10395401Y-12846030D01*
X10391682Y-12854176D01*
X10383708Y-12857314D01*
X10025933Y-12857314D01*
X10017660Y-12853887D01*
X10014260Y-12846405D01*
X10005877Y-12722752D01*
X10005877Y-12722747D01*
X9981345Y-12622165D01*
X9945661Y-12542844D01*
X9903082Y-12472061D01*
X9891326Y-12453355D01*
X9890906Y-12452629D01*
X9820306Y-12319834D01*
X9819620Y-12318281D01*
X9816303Y-12309006D01*
X9791918Y-12240804D01*
X9791586Y-12239703D01*
X9770619Y-12154899D01*
X9771960Y-12146046D01*
X9779169Y-12140734D01*
X9779645Y-12140626D01*
X10157692Y-12064465D01*
X10162308Y-12064465D01*
X10480664Y-12128601D01*
G37*
%TD.AperFunction*%
%TD*%
%TA.AperFunction,Conductor*%
%TO.N,/3.3V*%
G36*
X11565240Y799825D02*
G01*
X12038909Y329918D01*
X12042369Y321659D01*
X12038975Y313372D01*
X12031807Y309967D01*
X11986147Y305508D01*
X11960704Y298590D01*
X11930384Y290348D01*
X11879034Y265074D01*
X11879032Y265073D01*
X11837601Y232697D01*
X11798601Y185449D01*
X11771815Y133833D01*
X11771814Y133830D01*
X11771813Y133828D01*
X11752603Y67174D01*
X11752602Y67166D01*
X11747988Y17615D01*
X11743808Y9695D01*
X11736338Y7000D01*
X11377582Y7000D01*
X11369309Y10427D01*
X11365941Y17530D01*
X11365932Y17615D01*
X11360447Y72173D01*
X11325599Y168550D01*
X11264853Y243132D01*
X11225720Y265270D01*
X11177497Y292552D01*
X11177494Y292552D01*
X11177494Y292553D01*
X11121852Y306549D01*
X11121847Y306549D01*
X11121845Y306550D01*
X11107496Y307749D01*
X11082258Y309859D01*
X11074301Y313963D01*
X11071576Y322493D01*
X11074995Y329824D01*
X11548760Y799825D01*
X11557047Y803219D01*
X11565240Y799825D01*
G37*
%TD.AperFunction*%
%TD*%
%TA.AperFunction,Conductor*%
%TO.N,/3.3V*%
G36*
X11744182Y795887D02*
G01*
X11747592Y788238D01*
X11754283Y662998D01*
X11774007Y560625D01*
X11802973Y478960D01*
X11802973Y478958D01*
X11837945Y404844D01*
X11838026Y404669D01*
X11893434Y282058D01*
X11894030Y280425D01*
X11945873Y97195D01*
X11944828Y88302D01*
X11937800Y82752D01*
X11936933Y82541D01*
X11559308Y6465D01*
X11554692Y6465D01*
X11177036Y82547D01*
X11169605Y87541D01*
X11167879Y96328D01*
X11168082Y97170D01*
X11217735Y274579D01*
X11218328Y276216D01*
X11275943Y404603D01*
X11276068Y404873D01*
X11304480Y464113D01*
X11304485Y464123D01*
X11319323Y508699D01*
X11349178Y598380D01*
X11362272Y687147D01*
X11366528Y788107D01*
X11370301Y796228D01*
X11378218Y799314D01*
X11735909Y799314D01*
X11744182Y795887D01*
G37*
%TD.AperFunction*%
%TD*%
%TA.AperFunction,Conductor*%
%TO.N,GND*%
G36*
X3265057Y-626884D02*
G01*
X3276994Y-630059D01*
X3366167Y-653782D01*
X3367715Y-654314D01*
X3454442Y-691097D01*
X3456219Y-692038D01*
X3586241Y-775954D01*
X3586423Y-776074D01*
X3621976Y-799974D01*
X3679870Y-838894D01*
X3796531Y-884967D01*
X3796534Y-884967D01*
X3796535Y-884968D01*
X3814626Y-888096D01*
X3873316Y-898246D01*
X3956205Y-902438D01*
X3964294Y-906278D01*
X3967314Y-914123D01*
X3967314Y-1271617D01*
X3963887Y-1279890D01*
X3955936Y-1283313D01*
X3816710Y-1287143D01*
X3816698Y-1287144D01*
X3705381Y-1298915D01*
X3526151Y-1341421D01*
X3264880Y-1405412D01*
X3256029Y-1404052D01*
X3250733Y-1396831D01*
X3250632Y-1396382D01*
X3174465Y-1018308D01*
X3174465Y-1013691D01*
X3250579Y-635879D01*
X3255573Y-628447D01*
X3264360Y-626721D01*
X3265057Y-626884D01*
G37*
%TD.AperFunction*%
%TD*%
%TA.AperFunction,Conductor*%
%TO.N,/3.3V*%
G36*
X10995350Y1280071D02*
G01*
X10997290Y1278747D01*
X11547358Y815953D01*
X11551483Y808004D01*
X11548779Y799468D01*
X11547358Y798047D01*
X10999231Y336885D01*
X10990695Y334181D01*
X10982746Y338306D01*
X10980974Y341162D01*
X10980826Y341499D01*
X10980822Y341511D01*
X10954315Y392278D01*
X10918148Y436679D01*
X10861708Y483792D01*
X10795512Y522347D01*
X10694376Y562660D01*
X10694374Y562660D01*
X10694371Y562662D01*
X10588056Y590305D01*
X10448046Y611163D01*
X10448027Y611163D01*
X10448027Y611164D01*
X10409794Y613087D01*
X10343111Y616441D01*
X10335022Y620279D01*
X10332000Y628126D01*
X10332000Y985454D01*
X10335427Y993727D01*
X10343544Y997153D01*
X10357976Y997345D01*
X10359022Y997359D01*
X10359023Y997359D01*
X10359042Y997360D01*
X10557497Y1017796D01*
X10557503Y1017797D01*
X10729201Y1063333D01*
X10729210Y1063336D01*
X10855045Y1125691D01*
X10855051Y1125695D01*
X10938676Y1200393D01*
X10955622Y1231537D01*
X10979482Y1275386D01*
X10986445Y1281015D01*
X10995350Y1280071D01*
G37*
%TD.AperFunction*%
%TD*%
%TA.AperFunction,Conductor*%
%TO.N,GND*%
G36*
X6140754Y38315D02*
G01*
X6682076Y-243623D01*
X6687830Y-250484D01*
X6687048Y-259405D01*
X6682076Y-264377D01*
X6140272Y-546566D01*
X6131351Y-547348D01*
X6124490Y-541594D01*
X6123330Y-538134D01*
X6119003Y-512414D01*
X6099731Y-482003D01*
X6099730Y-482001D01*
X6070764Y-461121D01*
X6034676Y-448121D01*
X5951480Y-439192D01*
X5951473Y-439192D01*
X5951472Y-439192D01*
X5924562Y-440142D01*
X5870727Y-442043D01*
X5838211Y-443465D01*
X5829796Y-440403D01*
X5826011Y-432287D01*
X5826000Y-431776D01*
X5826000Y-76222D01*
X5829427Y-67949D01*
X5837700Y-64522D01*
X5838161Y-64531D01*
X5870743Y-65957D01*
X5977981Y-67914D01*
X6060575Y-51529D01*
X6107899Y-16263D01*
X6121237Y11007D01*
X6123756Y29516D01*
X6128267Y37251D01*
X6136927Y39531D01*
X6140754Y38315D01*
G37*
%TD.AperFunction*%
%TD*%
%TA.AperFunction,Conductor*%
%TO.N,5V*%
G36*
X6140754Y988315D02*
G01*
X6682076Y706377D01*
X6687830Y699516D01*
X6687048Y690595D01*
X6682076Y685623D01*
X6140271Y403432D01*
X6131351Y402651D01*
X6124490Y408405D01*
X6123330Y411863D01*
X6119003Y437586D01*
X6099731Y467997D01*
X6070764Y488879D01*
X6034679Y501878D01*
X5951472Y510808D01*
X5870743Y507957D01*
X5838210Y506534D01*
X5829796Y509596D01*
X5826011Y517712D01*
X5826000Y518223D01*
X5826000Y873777D01*
X5829427Y882050D01*
X5837700Y885477D01*
X5838206Y885466D01*
X5870743Y884043D01*
X5977981Y882086D01*
X5977984Y882086D01*
X6060574Y898470D01*
X6107898Y933736D01*
X6107899Y933737D01*
X6121237Y961007D01*
X6123756Y979516D01*
X6128267Y987251D01*
X6136927Y989531D01*
X6140754Y988315D01*
G37*
%TD.AperFunction*%
%TD*%
%TA.AperFunction,Conductor*%
%TO.N,GND*%
G36*
X10844956Y-995297D02*
G01*
X11550450Y-1091391D01*
X11558184Y-1095903D01*
X11560026Y-1099459D01*
X11710878Y-1576859D01*
X11710103Y-1585780D01*
X11703247Y-1591540D01*
X11699077Y-1592066D01*
X11575432Y-1585235D01*
X11575425Y-1585235D01*
X11575420Y-1585235D01*
X11455816Y-1590755D01*
X11455810Y-1590755D01*
X11455806Y-1590756D01*
X11341555Y-1606586D01*
X11341540Y-1606589D01*
X11225583Y-1633644D01*
X11117605Y-1669560D01*
X11014226Y-1714895D01*
X11014205Y-1714906D01*
X10921677Y-1766399D01*
X10921668Y-1766404D01*
X10784685Y-1871635D01*
X10776036Y-1873958D01*
X10768280Y-1869485D01*
X10554402Y-1590756D01*
X10550327Y-1585445D01*
X10548009Y-1576795D01*
X10551345Y-1570040D01*
X10592779Y-1528708D01*
X10710292Y-1388728D01*
X10789055Y-1251909D01*
X10828916Y-1120883D01*
X10831683Y-1006607D01*
X10835310Y-998420D01*
X10843663Y-995194D01*
X10844956Y-995297D01*
G37*
%TD.AperFunction*%
%TD*%
%TA.AperFunction,Conductor*%
%TO.N,GND*%
G36*
X5034303Y-1087411D02*
G01*
X5037828Y-1095643D01*
X5037104Y-1099837D01*
X5023583Y-1136433D01*
X5023580Y-1136445D01*
X5010740Y-1202516D01*
X5010739Y-1202527D01*
X5009348Y-1268020D01*
X5020644Y-1344766D01*
X5020646Y-1344776D01*
X5038824Y-1403096D01*
X5043622Y-1418489D01*
X5084858Y-1504619D01*
X5135222Y-1581756D01*
X5135225Y-1581760D01*
X5135233Y-1581771D01*
X5195386Y-1653722D01*
X5195393Y-1653730D01*
X5246888Y-1702298D01*
X5250555Y-1710467D01*
X5248992Y-1716659D01*
X5070320Y-2026125D01*
X5063216Y-2031576D01*
X5054338Y-2030407D01*
X5053022Y-2029524D01*
X5048635Y-2026125D01*
X4918953Y-1925641D01*
X4685374Y-1773804D01*
X4470916Y-1668934D01*
X4470914Y-1668933D01*
X4283309Y-1610589D01*
X4283307Y-1610588D01*
X4283305Y-1610588D01*
X4220823Y-1603798D01*
X4136655Y-1594651D01*
X4128800Y-1590350D01*
X4126287Y-1581755D01*
X4127020Y-1578764D01*
X4314262Y-1099844D01*
X4320466Y-1093387D01*
X4325018Y-1092406D01*
X5025992Y-1084083D01*
X5034303Y-1087411D01*
G37*
%TD.AperFunction*%
%TD*%
%TA.AperFunction,Conductor*%
%TO.N,5V*%
G36*
X13395182Y-22452113D02*
G01*
X13398592Y-22459762D01*
X13405283Y-22585001D01*
X13416481Y-22643121D01*
X13425006Y-22687371D01*
X13425007Y-22687373D01*
X13453973Y-22769038D01*
X13453973Y-22769040D01*
X13488945Y-22843153D01*
X13489026Y-22843328D01*
X13544434Y-22965941D01*
X13545030Y-22967574D01*
X13596873Y-23150804D01*
X13595828Y-23159697D01*
X13588800Y-23165247D01*
X13587926Y-23165459D01*
X13210311Y-23241534D01*
X13205689Y-23241534D01*
X12828038Y-23165452D01*
X12820605Y-23160458D01*
X12818879Y-23151671D01*
X12819082Y-23150829D01*
X12868735Y-22973419D01*
X12869325Y-22971788D01*
X12926974Y-22843328D01*
X12927041Y-22843182D01*
X12955485Y-22783876D01*
X13000179Y-22649614D01*
X13013272Y-22560856D01*
X13017528Y-22459893D01*
X13021301Y-22451772D01*
X13029218Y-22448686D01*
X13386909Y-22448686D01*
X13395182Y-22452113D01*
G37*
%TD.AperFunction*%
%TD*%
%TA.AperFunction,Conductor*%
%TO.N,5V*%
G36*
X13587961Y-18617547D02*
G01*
X13595394Y-18622541D01*
X13597120Y-18631328D01*
X13596917Y-18632170D01*
X13547264Y-18809578D01*
X13546671Y-18811215D01*
X13489056Y-18939602D01*
X13488931Y-18939872D01*
X13460519Y-18999111D01*
X13460512Y-18999129D01*
X13415821Y-19133380D01*
X13402727Y-19222146D01*
X13398472Y-19323107D01*
X13394699Y-19331228D01*
X13386782Y-19334314D01*
X13029091Y-19334314D01*
X13020818Y-19330887D01*
X13017408Y-19323238D01*
X13010716Y-19197998D01*
X12990994Y-19095629D01*
X12962027Y-19013961D01*
X12927038Y-18939811D01*
X12926973Y-18939670D01*
X12926942Y-18939602D01*
X12871564Y-18817057D01*
X12870968Y-18815424D01*
X12819126Y-18632195D01*
X12820171Y-18623302D01*
X12827199Y-18617752D01*
X12828060Y-18617542D01*
X13205692Y-18541465D01*
X13210308Y-18541465D01*
X13587961Y-18617547D01*
G37*
%TD.AperFunction*%
%TD*%
%TA.AperFunction,Conductor*%
%TO.N,GND*%
G36*
X5669511Y-18493797D02*
G01*
X5675200Y-18500712D01*
X5675569Y-18502326D01*
X5677646Y-18515699D01*
X5677646Y-18515700D01*
X5689183Y-18533811D01*
X5689182Y-18533811D01*
X5729014Y-18549452D01*
X5729014Y-18549451D01*
X5729015Y-18549452D01*
X5782182Y-18546291D01*
X5837705Y-18534723D01*
X5838022Y-18534662D01*
X5884770Y-18526420D01*
X5893511Y-18528358D01*
X5898322Y-18535910D01*
X5898500Y-18537942D01*
X5898500Y-18890056D01*
X5895073Y-18898329D01*
X5886800Y-18901756D01*
X5884769Y-18901578D01*
X5837864Y-18893308D01*
X5734489Y-18878158D01*
X5691293Y-18892279D01*
X5678222Y-18910782D01*
X5675699Y-18925855D01*
X5670953Y-18933449D01*
X5662228Y-18935462D01*
X5660750Y-18935115D01*
X5182369Y-18789366D01*
X4971733Y-18725191D01*
X4964819Y-18719503D01*
X4963952Y-18710590D01*
X4969641Y-18703675D01*
X4971732Y-18702808D01*
X5660600Y-18492930D01*
X5669511Y-18493797D01*
G37*
%TD.AperFunction*%
%TD*%
%TA.AperFunction,Conductor*%
%TO.N,GND*%
G36*
X6903953Y-18280960D02*
G01*
X6909265Y-18288169D01*
X6909377Y-18288666D01*
X6985534Y-18666689D01*
X6985534Y-18671311D01*
X6909377Y-19049331D01*
X6904383Y-19056764D01*
X6895596Y-19058490D01*
X6895097Y-19058377D01*
X6730195Y-19017571D01*
X6729218Y-19017284D01*
X6605472Y-18974954D01*
X6605249Y-18974875D01*
X6580958Y-18966013D01*
X6580951Y-18966010D01*
X6426844Y-18921826D01*
X6325597Y-18908728D01*
X6325601Y-18908728D01*
X6203970Y-18904401D01*
X6195824Y-18900682D01*
X6192686Y-18892708D01*
X6192686Y-18534933D01*
X6196113Y-18526660D01*
X6203593Y-18523260D01*
X6327253Y-18514877D01*
X6427834Y-18490345D01*
X6507155Y-18454661D01*
X6577938Y-18412082D01*
X6596667Y-18400311D01*
X6597351Y-18399915D01*
X6730167Y-18329304D01*
X6731715Y-18328621D01*
X6809199Y-18300916D01*
X6810290Y-18300588D01*
X6895100Y-18279619D01*
X6903953Y-18280960D01*
G37*
%TD.AperFunction*%
%TD*%
%TA.AperFunction,Conductor*%
%TO.N,GND*%
G36*
X7075039Y-12564885D02*
G01*
X7159889Y-12587501D01*
X7161358Y-12588000D01*
X7238526Y-12620091D01*
X7240084Y-12620882D01*
X7360111Y-12693616D01*
X7360146Y-12693637D01*
X7474346Y-12760195D01*
X7474347Y-12760195D01*
X7474350Y-12760197D01*
X7579521Y-12783673D01*
X7579523Y-12783672D01*
X7579524Y-12783673D01*
X7609433Y-12782837D01*
X7649317Y-12781723D01*
X7722384Y-12769334D01*
X7731113Y-12771329D01*
X7735746Y-12778266D01*
X7815313Y-13126872D01*
X7813813Y-13135700D01*
X7806834Y-13140803D01*
X7603408Y-13193380D01*
X7457825Y-13240528D01*
X7373286Y-13268732D01*
X7372810Y-13268879D01*
X7244962Y-13305568D01*
X7244291Y-13305739D01*
X7074699Y-13343702D01*
X7065877Y-13342166D01*
X7060726Y-13334841D01*
X7060688Y-13334663D01*
X6984490Y-12956529D01*
X6984490Y-12951916D01*
X7060580Y-12573886D01*
X7065572Y-12566453D01*
X7074359Y-12564726D01*
X7075039Y-12564885D01*
G37*
%TD.AperFunction*%
%TD*%
%TA.AperFunction,Conductor*%
%TO.N,/3.3V*%
G36*
X10996330Y-14367427D02*
G01*
X10999757Y-14375700D01*
X10999579Y-14377732D01*
X10991308Y-14424641D01*
X10976158Y-14528010D01*
X10977948Y-14533485D01*
X10990279Y-14571206D01*
X11008780Y-14584276D01*
X11014657Y-14585259D01*
X11022250Y-14590005D01*
X11024265Y-14598730D01*
X11021016Y-14605054D01*
X10820291Y-14806672D01*
X10812026Y-14810117D01*
X10803745Y-14806708D01*
X10803709Y-14806672D01*
X10603217Y-14605289D01*
X10599808Y-14597008D01*
X10603253Y-14588743D01*
X10609713Y-14585473D01*
X10613699Y-14584854D01*
X10614608Y-14584275D01*
X10631810Y-14573318D01*
X10631810Y-14573317D01*
X10631811Y-14573317D01*
X10647452Y-14533485D01*
X10644291Y-14480321D01*
X10644291Y-14480318D01*
X10632726Y-14424806D01*
X10632658Y-14424451D01*
X10624421Y-14377731D01*
X10626359Y-14368989D01*
X10633912Y-14364178D01*
X10635943Y-14364000D01*
X10988057Y-14364000D01*
X10996330Y-14367427D01*
G37*
%TD.AperFunction*%
%TD*%
%TA.AperFunction,Conductor*%
%TO.N,CA19*%
G36*
X11138253Y-8023290D02*
G01*
X11338693Y-8224621D01*
X11339028Y-8224957D01*
X11342437Y-8233238D01*
X11338992Y-8241503D01*
X11333936Y-8244466D01*
X11310570Y-8251106D01*
X11284080Y-8271017D01*
X11255626Y-8315816D01*
X11255626Y-8315817D01*
X11239260Y-8369496D01*
X11239257Y-8369511D01*
X11231014Y-8455418D01*
X11226813Y-8463326D01*
X11219368Y-8466000D01*
X11040914Y-8466000D01*
X11032641Y-8462573D01*
X11029242Y-8455113D01*
X11028673Y-8446956D01*
X11024968Y-8393740D01*
X11000990Y-8308375D01*
X10962042Y-8258828D01*
X10936356Y-8245728D01*
X10936355Y-8245727D01*
X10936354Y-8245727D01*
X10927852Y-8244445D01*
X10920183Y-8239823D01*
X10918028Y-8231131D01*
X10921305Y-8224622D01*
X11121710Y-8023326D01*
X11129974Y-8019882D01*
X11138253Y-8023290D01*
G37*
%TD.AperFunction*%
%TD*%
%TA.AperFunction,Conductor*%
%TO.N,CA19*%
G36*
X11227707Y-8019427D02*
G01*
X11231072Y-8026509D01*
X11238502Y-8099285D01*
X11239464Y-8108700D01*
X11265698Y-8172474D01*
X11265700Y-8172477D01*
X11265701Y-8172478D01*
X11305476Y-8218761D01*
X11355511Y-8258937D01*
X11355540Y-8258989D01*
X11355555Y-8258972D01*
X11421443Y-8312394D01*
X11422954Y-8313865D01*
X11500022Y-8403778D01*
X11502805Y-8412289D01*
X11498753Y-8420275D01*
X11497659Y-8421107D01*
X11182520Y-8632623D01*
X11173741Y-8634388D01*
X11169480Y-8632623D01*
X10853647Y-8420641D01*
X10848687Y-8413185D01*
X10850452Y-8404406D01*
X10850784Y-8403936D01*
X10931366Y-8296438D01*
X10931477Y-8296294D01*
X10962881Y-8256708D01*
X11010234Y-8171981D01*
X11025029Y-8106241D01*
X11029391Y-8027057D01*
X11033267Y-8018984D01*
X11041073Y-8016000D01*
X11219434Y-8016000D01*
X11227707Y-8019427D01*
G37*
%TD.AperFunction*%
%TD*%
%TA.AperFunction,Conductor*%
%TO.N,CA17*%
G36*
X168023Y-6838447D02*
G01*
X376946Y-6892207D01*
X378306Y-6892648D01*
X550630Y-6960346D01*
X551853Y-6960910D01*
X690711Y-7034875D01*
X691452Y-7035305D01*
X811307Y-7110930D01*
X946166Y-7194883D01*
X1111561Y-7271687D01*
X1111566Y-7271688D01*
X1111567Y-7271689D01*
X1123583Y-7275327D01*
X1203039Y-7299387D01*
X1307843Y-7320543D01*
X1431103Y-7334277D01*
X1431116Y-7334277D01*
X1431122Y-7334278D01*
X1480770Y-7335947D01*
X1563036Y-7338715D01*
X1571189Y-7342418D01*
X1574342Y-7350408D01*
X1574342Y-7527912D01*
X1570915Y-7536185D01*
X1563170Y-7539600D01*
X1438532Y-7545231D01*
X1430367Y-7545600D01*
X1411533Y-7548564D01*
X1310702Y-7564434D01*
X1211258Y-7594581D01*
X1127966Y-7635019D01*
X1127962Y-7635021D01*
X1056715Y-7684742D01*
X1056714Y-7684743D01*
X993453Y-7742710D01*
X993450Y-7742713D01*
X874467Y-7879394D01*
X799666Y-7968766D01*
X799087Y-7969409D01*
X639143Y-8134085D01*
X637919Y-8135179D01*
X454367Y-8277491D01*
X445729Y-8279852D01*
X437952Y-8275414D01*
X437477Y-8274755D01*
X1705Y-7624039D01*
X-51Y-7615261D01*
X153647Y-6847483D01*
X158631Y-6840045D01*
X167416Y-6838309D01*
X168023Y-6838447D01*
G37*
%TD.AperFunction*%
%TD*%
%TA.AperFunction,Conductor*%
%TO.N,CA17*%
G36*
X1612414Y-7051084D02*
G01*
X1617761Y-7058267D01*
X1617886Y-7058818D01*
X1694032Y-7436785D01*
X1694032Y-7441407D01*
X1617928Y-7819166D01*
X1612934Y-7826599D01*
X1604147Y-7828325D01*
X1603404Y-7828149D01*
X1501284Y-7800538D01*
X1499626Y-7799953D01*
X1412567Y-7761646D01*
X1410698Y-7760611D01*
X1280789Y-7672239D01*
X1280707Y-7672182D01*
X1183142Y-7603431D01*
X1183141Y-7603430D01*
X1068560Y-7557164D01*
X993165Y-7543854D01*
X993156Y-7543853D01*
X912279Y-7539669D01*
X904194Y-7535820D01*
X901184Y-7527985D01*
X901184Y-7349880D01*
X904611Y-7341607D01*
X911932Y-7338219D01*
X1035618Y-7328138D01*
X1135211Y-7298784D01*
X1212678Y-7256309D01*
X1280734Y-7205990D01*
X1331144Y-7167815D01*
X1332286Y-7167054D01*
X1452150Y-7097234D01*
X1453922Y-7096393D01*
X1525680Y-7069501D01*
X1526909Y-7069117D01*
X1603557Y-7049784D01*
X1612414Y-7051084D01*
G37*
%TD.AperFunction*%
%TD*%
%TA.AperFunction,Conductor*%
%TO.N,CA16*%
G36*
X453934Y-12041697D02*
G01*
X454277Y-12041936D01*
X654704Y-12187080D01*
X655313Y-12187553D01*
X802795Y-12310151D01*
X802796Y-12310151D01*
X802833Y-12310182D01*
X942280Y-12424165D01*
X1021660Y-12477728D01*
X1115711Y-12529468D01*
X1243593Y-12585693D01*
X1397457Y-12640454D01*
X1404102Y-12646457D01*
X1404661Y-12655092D01*
X1349775Y-12824015D01*
X1343960Y-12830825D01*
X1335723Y-12831729D01*
X1236736Y-12806174D01*
X1144301Y-12797374D01*
X1144287Y-12797374D01*
X1066000Y-12806013D01*
X1065998Y-12806013D01*
X1065993Y-12806014D01*
X1065988Y-12806015D01*
X1065987Y-12806016D01*
X998802Y-12830029D01*
X998799Y-12830031D01*
X939667Y-12867371D01*
X939664Y-12867373D01*
X885570Y-12915959D01*
X885569Y-12915960D01*
X780284Y-13038675D01*
X740752Y-13087329D01*
X740295Y-13087859D01*
X600981Y-13239780D01*
X599667Y-13241008D01*
X454403Y-13357218D01*
X445802Y-13359710D01*
X437958Y-13355391D01*
X437371Y-13354590D01*
X3406Y-12706201D01*
X1652Y-12697419D01*
X3407Y-12693185D01*
X437702Y-12044904D01*
X445153Y-12039939D01*
X453934Y-12041697D01*
G37*
%TD.AperFunction*%
%TD*%
%TA.AperFunction,Conductor*%
%TO.N,CA16*%
G36*
X4211455Y-15242947D02*
G01*
X4592262Y-15358968D01*
X4900265Y-15452808D01*
X4907180Y-15458497D01*
X4908047Y-15467410D01*
X4902358Y-15474325D01*
X4900265Y-15475192D01*
X4212223Y-15684818D01*
X4203310Y-15683951D01*
X4197621Y-15677036D01*
X4197559Y-15676824D01*
X4188393Y-15644571D01*
X4188393Y-15644570D01*
X4168482Y-15618080D01*
X4150430Y-15606614D01*
X4123686Y-15589628D01*
X4123684Y-15589627D01*
X4123682Y-15589626D01*
X4070003Y-15573260D01*
X4069988Y-15573257D01*
X3984082Y-15565014D01*
X3976174Y-15560813D01*
X3973500Y-15553368D01*
X3973500Y-15374913D01*
X3976927Y-15366640D01*
X3984384Y-15363242D01*
X4045760Y-15358968D01*
X4131125Y-15334990D01*
X4180672Y-15296042D01*
X4193772Y-15270356D01*
X4196480Y-15252394D01*
X4201102Y-15244726D01*
X4209794Y-15242571D01*
X4211455Y-15242947D01*
G37*
%TD.AperFunction*%
%TD*%
%TA.AperFunction,Conductor*%
%TO.N,/~{CAAC}*%
G36*
X5668689Y-15894048D02*
G01*
X5674378Y-15900963D01*
X5674440Y-15901175D01*
X5683606Y-15933428D01*
X5683606Y-15933429D01*
X5683608Y-15933431D01*
X5703517Y-15959919D01*
X5748314Y-15988372D01*
X5801999Y-16004740D01*
X5887919Y-16012984D01*
X5895826Y-16017186D01*
X5898500Y-16024631D01*
X5898500Y-16203086D01*
X5895073Y-16211359D01*
X5887613Y-16214758D01*
X5826239Y-16219032D01*
X5826234Y-16219033D01*
X5740875Y-16243009D01*
X5691329Y-16281956D01*
X5678228Y-16307642D01*
X5678228Y-16307643D01*
X5675519Y-16325604D01*
X5670897Y-16333274D01*
X5662205Y-16335428D01*
X5660540Y-16335051D01*
X5176144Y-16187469D01*
X4971733Y-16125191D01*
X4964819Y-16119503D01*
X4963952Y-16110590D01*
X4969641Y-16103675D01*
X4971732Y-16102808D01*
X5659776Y-15893181D01*
X5668689Y-15894048D01*
G37*
%TD.AperFunction*%
%TD*%
%TA.AperFunction,Conductor*%
%TO.N,/~{CAAC}*%
G36*
X5927231Y-15766557D02*
G01*
X5927516Y-15766963D01*
X6141223Y-16085366D01*
X6142988Y-16094145D01*
X6142978Y-16094197D01*
X6067353Y-16469580D01*
X6062359Y-16477013D01*
X6053572Y-16478739D01*
X6052916Y-16478587D01*
X5952764Y-16452335D01*
X5951293Y-16451843D01*
X5886178Y-16425147D01*
X5864886Y-16416418D01*
X5863203Y-16415562D01*
X5802909Y-16378497D01*
X5733102Y-16335583D01*
X5732898Y-16335455D01*
X5643427Y-16277890D01*
X5524763Y-16232002D01*
X5524747Y-16231998D01*
X5446607Y-16218749D01*
X5361750Y-16214550D01*
X5353656Y-16210718D01*
X5350628Y-16202864D01*
X5350628Y-16025023D01*
X5354055Y-16016750D01*
X5361630Y-16013344D01*
X5495654Y-16005361D01*
X5597782Y-15979271D01*
X5679074Y-15935469D01*
X5761593Y-15873693D01*
X5797888Y-15847035D01*
X5798208Y-15846811D01*
X5818052Y-15833552D01*
X5818646Y-15832662D01*
X5821444Y-15829735D01*
X5910877Y-15764052D01*
X5919572Y-15761918D01*
X5927231Y-15766557D01*
G37*
%TD.AperFunction*%
%TD*%
%TA.AperFunction,Conductor*%
%TO.N,CA18*%
G36*
X4211455Y-16542947D02*
G01*
X4592262Y-16658968D01*
X4900265Y-16752808D01*
X4907180Y-16758497D01*
X4908047Y-16767410D01*
X4902358Y-16774325D01*
X4900265Y-16775192D01*
X4212223Y-16984818D01*
X4203310Y-16983951D01*
X4197621Y-16977036D01*
X4197559Y-16976824D01*
X4188393Y-16944571D01*
X4188393Y-16944570D01*
X4168482Y-16918080D01*
X4150430Y-16906614D01*
X4123686Y-16889628D01*
X4123684Y-16889627D01*
X4123682Y-16889626D01*
X4070003Y-16873260D01*
X4069988Y-16873257D01*
X3984082Y-16865014D01*
X3976174Y-16860813D01*
X3973500Y-16853368D01*
X3973500Y-16674913D01*
X3976927Y-16666640D01*
X3984384Y-16663242D01*
X4045760Y-16658968D01*
X4131125Y-16634990D01*
X4180672Y-16596042D01*
X4193772Y-16570356D01*
X4196480Y-16552394D01*
X4201102Y-16544726D01*
X4209794Y-16542571D01*
X4211455Y-16542947D01*
G37*
%TD.AperFunction*%
%TD*%
%TA.AperFunction,Conductor*%
%TO.N,CA18*%
G36*
X1149364Y-13973387D02*
G01*
X1465249Y-14185292D01*
X1470210Y-14192746D01*
X1468447Y-14201526D01*
X1468024Y-14202116D01*
X1411572Y-14275926D01*
X1410827Y-14276807D01*
X1352670Y-14339031D01*
X1286380Y-14414650D01*
X1252510Y-14494604D01*
X1252510Y-14494605D01*
X1247618Y-14554196D01*
X1247618Y-14554203D01*
X1253678Y-14619161D01*
X1251035Y-14627717D01*
X1243859Y-14631804D01*
X1068187Y-14659629D01*
X1059480Y-14657539D01*
X1054900Y-14650443D01*
X1033139Y-14545219D01*
X1014732Y-14494607D01*
X1003564Y-14463898D01*
X1003563Y-14463897D01*
X1003562Y-14463894D01*
X966001Y-14400410D01*
X918027Y-14337773D01*
X817690Y-14202071D01*
X815527Y-14193381D01*
X820142Y-14185707D01*
X820535Y-14185430D01*
X1136325Y-13973389D01*
X1145103Y-13971623D01*
X1149364Y-13973387D01*
G37*
%TD.AperFunction*%
%TD*%
%TA.AperFunction,Conductor*%
%TO.N,/~{CAAD}*%
G36*
X2306455Y-8683947D02*
G01*
X2687262Y-8799968D01*
X2995265Y-8893808D01*
X3002180Y-8899497D01*
X3003047Y-8908410D01*
X2997358Y-8915325D01*
X2995265Y-8916192D01*
X2307223Y-9125818D01*
X2298310Y-9124951D01*
X2292621Y-9118036D01*
X2292559Y-9117824D01*
X2283393Y-9085571D01*
X2283393Y-9085570D01*
X2263482Y-9059080D01*
X2245430Y-9047614D01*
X2218686Y-9030628D01*
X2218684Y-9030627D01*
X2218682Y-9030626D01*
X2165003Y-9014260D01*
X2164988Y-9014257D01*
X2079082Y-9006014D01*
X2071174Y-9001813D01*
X2068500Y-8994368D01*
X2068500Y-8815913D01*
X2071927Y-8807640D01*
X2079384Y-8804242D01*
X2140760Y-8799968D01*
X2226125Y-8775990D01*
X2275672Y-8737042D01*
X2288772Y-8711356D01*
X2291480Y-8693394D01*
X2296102Y-8685726D01*
X2304794Y-8683571D01*
X2306455Y-8683947D01*
G37*
%TD.AperFunction*%
%TD*%
%TA.AperFunction,Conductor*%
%TO.N,/~{CAAD}*%
G36*
X2082772Y-8573488D02*
G01*
X2083001Y-8573646D01*
X2113052Y-8594955D01*
X2141923Y-8615427D01*
X2144883Y-8618470D01*
X2148928Y-8624523D01*
X2148948Y-8624552D01*
X2215269Y-8668867D01*
X2215818Y-8668976D01*
X2220237Y-8670860D01*
X2311655Y-8734708D01*
X2311670Y-8734716D01*
X2423976Y-8783786D01*
X2423978Y-8783786D01*
X2423980Y-8783787D01*
X2517401Y-8799848D01*
X2632093Y-8804540D01*
X2640218Y-8808302D01*
X2643314Y-8816230D01*
X2643314Y-8994196D01*
X2639887Y-9002469D01*
X2632545Y-9005859D01*
X2508922Y-9015726D01*
X2409239Y-9044468D01*
X2331546Y-9086085D01*
X2272524Y-9128664D01*
X2267962Y-9130650D01*
X2215269Y-9141133D01*
X2215268Y-9141133D01*
X2148949Y-9185447D01*
X2124724Y-9221699D01*
X2120842Y-9225333D01*
X2093807Y-9240927D01*
X2092048Y-9241755D01*
X2019675Y-9268735D01*
X2018443Y-9269118D01*
X1940937Y-9288622D01*
X1932078Y-9287318D01*
X1926736Y-9280131D01*
X1926612Y-9279587D01*
X1918990Y-9241755D01*
X1850963Y-8904084D01*
X1852689Y-8895298D01*
X1852718Y-8895254D01*
X2066539Y-8576681D01*
X2073993Y-8571723D01*
X2082772Y-8573488D01*
G37*
%TD.AperFunction*%
%TD*%
%TA.AperFunction,Conductor*%
%TO.N,/3.3V*%
G36*
X8965840Y-5858427D02*
G01*
X8969267Y-5866700D01*
X8969245Y-5867410D01*
X8967812Y-5890985D01*
X8964684Y-5947723D01*
X8971556Y-5993968D01*
X8975242Y-6018770D01*
X9008333Y-6062182D01*
X9037603Y-6075273D01*
X9056929Y-6077585D01*
X9064736Y-6081970D01*
X9067156Y-6090592D01*
X9064887Y-6096238D01*
X8914068Y-6296609D01*
X8906355Y-6301158D01*
X8897685Y-6298921D01*
X8767097Y-6199682D01*
X8625207Y-6091854D01*
X8620693Y-6084120D01*
X8622971Y-6075460D01*
X8627439Y-6071890D01*
X8637778Y-6067189D01*
X8642366Y-6033994D01*
X8613815Y-5937887D01*
X8594290Y-5869931D01*
X8595299Y-5861033D01*
X8602304Y-5855455D01*
X8605535Y-5855000D01*
X8957567Y-5855000D01*
X8965840Y-5858427D01*
G37*
%TD.AperFunction*%
%TD*%
%TA.AperFunction,Conductor*%
%TO.N,/3.3V*%
G36*
X9159961Y-5045547D02*
G01*
X9167394Y-5050541D01*
X9169120Y-5059328D01*
X9168917Y-5060170D01*
X9119264Y-5237578D01*
X9118671Y-5239215D01*
X9061056Y-5367602D01*
X9060931Y-5367872D01*
X9032519Y-5427111D01*
X9032512Y-5427129D01*
X8987821Y-5561380D01*
X8974727Y-5650146D01*
X8970472Y-5751107D01*
X8966699Y-5759228D01*
X8958782Y-5762314D01*
X8601091Y-5762314D01*
X8592818Y-5758887D01*
X8589408Y-5751238D01*
X8582716Y-5625998D01*
X8562994Y-5523629D01*
X8534027Y-5441961D01*
X8499038Y-5367811D01*
X8498973Y-5367670D01*
X8498942Y-5367602D01*
X8443564Y-5245057D01*
X8442968Y-5243424D01*
X8391126Y-5060195D01*
X8392171Y-5051302D01*
X8399199Y-5045752D01*
X8400060Y-5045542D01*
X8777692Y-4969465D01*
X8782308Y-4969465D01*
X9159961Y-5045547D01*
G37*
%TD.AperFunction*%
%TD*%
%TA.AperFunction,Conductor*%
%TO.N,GND*%
G36*
X2306248Y-9983884D02*
G01*
X2995265Y-10193808D01*
X3002180Y-10199497D01*
X3003047Y-10208410D01*
X2997358Y-10215325D01*
X2995265Y-10216192D01*
X2306401Y-10426069D01*
X2297488Y-10425202D01*
X2291799Y-10418287D01*
X2291430Y-10416672D01*
X2289354Y-10403300D01*
X2283962Y-10394836D01*
X2277818Y-10385190D01*
X2277817Y-10385189D01*
X2277816Y-10385188D01*
X2277817Y-10385188D01*
X2237985Y-10369547D01*
X2184821Y-10372708D01*
X2129306Y-10384273D01*
X2128952Y-10384341D01*
X2082232Y-10392579D01*
X2073489Y-10390641D01*
X2068678Y-10383089D01*
X2068500Y-10381057D01*
X2068500Y-10028943D01*
X2071927Y-10020670D01*
X2080200Y-10017243D01*
X2082231Y-10017420D01*
X2129138Y-10025691D01*
X2206667Y-10037053D01*
X2232510Y-10040841D01*
X2232510Y-10040840D01*
X2232511Y-10040841D01*
X2275706Y-10026721D01*
X2288776Y-10008220D01*
X2291300Y-9993141D01*
X2296043Y-9985551D01*
X2304769Y-9983536D01*
X2306248Y-9983884D01*
G37*
%TD.AperFunction*%
%TD*%
%TA.AperFunction,Conductor*%
%TO.N,/~{AB}*%
G36*
X8182455Y-9333947D02*
G01*
X8563262Y-9449968D01*
X8871265Y-9543808D01*
X8878180Y-9549497D01*
X8879047Y-9558410D01*
X8873358Y-9565325D01*
X8871265Y-9566192D01*
X8183223Y-9775818D01*
X8174310Y-9774951D01*
X8168621Y-9768036D01*
X8168559Y-9767824D01*
X8159393Y-9735571D01*
X8159393Y-9735570D01*
X8139482Y-9709080D01*
X8121430Y-9697614D01*
X8094686Y-9680628D01*
X8094684Y-9680627D01*
X8094682Y-9680626D01*
X8041003Y-9664260D01*
X8040988Y-9664257D01*
X7955082Y-9656014D01*
X7947174Y-9651813D01*
X7944500Y-9644368D01*
X7944500Y-9465913D01*
X7947927Y-9457640D01*
X7955384Y-9454242D01*
X8016760Y-9449968D01*
X8102125Y-9425990D01*
X8151672Y-9387042D01*
X8164772Y-9361356D01*
X8167480Y-9343394D01*
X8172102Y-9335726D01*
X8180794Y-9333571D01*
X8182455Y-9333947D01*
G37*
%TD.AperFunction*%
%TD*%
%TA.AperFunction,Conductor*%
%TO.N,/~{AB}*%
G36*
X6948143Y-9263032D02*
G01*
X7122488Y-9311219D01*
X7124044Y-9311771D01*
X7250745Y-9367138D01*
X7251011Y-9367258D01*
X7305256Y-9392645D01*
X7440141Y-9437201D01*
X7440144Y-9437201D01*
X7440146Y-9437202D01*
X7475111Y-9442329D01*
X7529299Y-9450275D01*
X7631248Y-9454531D01*
X7639370Y-9458300D01*
X7642459Y-9466221D01*
X7642459Y-9644243D01*
X7639032Y-9652516D01*
X7631741Y-9655902D01*
X7509750Y-9666180D01*
X7416746Y-9697750D01*
X7416743Y-9697751D01*
X7346508Y-9746761D01*
X7346507Y-9746762D01*
X7282084Y-9810280D01*
X7220282Y-9872457D01*
X7219293Y-9873345D01*
X7090162Y-9976641D01*
X7081560Y-9979133D01*
X7073717Y-9974814D01*
X7073138Y-9974025D01*
X6859718Y-9656049D01*
X6857953Y-9647270D01*
X6857963Y-9647218D01*
X6933555Y-9271996D01*
X6938549Y-9264565D01*
X6947336Y-9262839D01*
X6948143Y-9263032D01*
G37*
%TD.AperFunction*%
%TD*%
%TA.AperFunction,Conductor*%
%TO.N,/~{CAAC}*%
G36*
X3763689Y-8035048D02*
G01*
X3769378Y-8041963D01*
X3769440Y-8042175D01*
X3778606Y-8074428D01*
X3778606Y-8074429D01*
X3778608Y-8074431D01*
X3798517Y-8100919D01*
X3843314Y-8129372D01*
X3896999Y-8145740D01*
X3982919Y-8153984D01*
X3990826Y-8158186D01*
X3993500Y-8165631D01*
X3993500Y-8344086D01*
X3990073Y-8352359D01*
X3982613Y-8355758D01*
X3921239Y-8360032D01*
X3921234Y-8360033D01*
X3835875Y-8384009D01*
X3786329Y-8422956D01*
X3773228Y-8448642D01*
X3773228Y-8448643D01*
X3770519Y-8466604D01*
X3765897Y-8474274D01*
X3757205Y-8476428D01*
X3755540Y-8476051D01*
X3271144Y-8328469D01*
X3066733Y-8266191D01*
X3059819Y-8260503D01*
X3058952Y-8251590D01*
X3064641Y-8244675D01*
X3066732Y-8243808D01*
X3754776Y-8034181D01*
X3763689Y-8035048D01*
G37*
%TD.AperFunction*%
%TD*%
%TA.AperFunction,Conductor*%
%TO.N,/~{CAAC}*%
G36*
X4617916Y-7866988D02*
G01*
X4623263Y-7874171D01*
X4623388Y-7874722D01*
X4699534Y-8252689D01*
X4699534Y-8257311D01*
X4623430Y-8635070D01*
X4618436Y-8642503D01*
X4609649Y-8644229D01*
X4608906Y-8644053D01*
X4506786Y-8616442D01*
X4505128Y-8615857D01*
X4418069Y-8577550D01*
X4416200Y-8576515D01*
X4286291Y-8488143D01*
X4286209Y-8488086D01*
X4188644Y-8419335D01*
X4188643Y-8419334D01*
X4074062Y-8373068D01*
X3998667Y-8359758D01*
X3998658Y-8359757D01*
X3917781Y-8355573D01*
X3909696Y-8351724D01*
X3906686Y-8343889D01*
X3906686Y-8165784D01*
X3910113Y-8157511D01*
X3917434Y-8154123D01*
X4041120Y-8144042D01*
X4140713Y-8114688D01*
X4218180Y-8072213D01*
X4286236Y-8021894D01*
X4336646Y-7983719D01*
X4337788Y-7982958D01*
X4457652Y-7913138D01*
X4459424Y-7912297D01*
X4531182Y-7885405D01*
X4532411Y-7885021D01*
X4609059Y-7865688D01*
X4617916Y-7866988D01*
G37*
%TD.AperFunction*%
%TD*%
%TA.AperFunction,Conductor*%
%TO.N,/~{AB}*%
G36*
X3763689Y-7385048D02*
G01*
X3769378Y-7391963D01*
X3769440Y-7392175D01*
X3778606Y-7424428D01*
X3778606Y-7424429D01*
X3778608Y-7424431D01*
X3798517Y-7450919D01*
X3843314Y-7479372D01*
X3896999Y-7495740D01*
X3982919Y-7503984D01*
X3990826Y-7508186D01*
X3993500Y-7515631D01*
X3993500Y-7694086D01*
X3990073Y-7702359D01*
X3982613Y-7705758D01*
X3921239Y-7710032D01*
X3921234Y-7710033D01*
X3835875Y-7734009D01*
X3786329Y-7772956D01*
X3773228Y-7798642D01*
X3773228Y-7798643D01*
X3770519Y-7816604D01*
X3765897Y-7824274D01*
X3757205Y-7826428D01*
X3755540Y-7826051D01*
X3271144Y-7678469D01*
X3066733Y-7616191D01*
X3059819Y-7610503D01*
X3058952Y-7601590D01*
X3064641Y-7594675D01*
X3066732Y-7593808D01*
X3754776Y-7384181D01*
X3763689Y-7385048D01*
G37*
%TD.AperFunction*%
%TD*%
%TA.AperFunction,Conductor*%
%TO.N,/~{AB}*%
G36*
X5190974Y-7515679D02*
G01*
X5391973Y-7605756D01*
X5391975Y-7605757D01*
X5515050Y-7660839D01*
X5515057Y-7660841D01*
X5515067Y-7660846D01*
X5628073Y-7697880D01*
X5628079Y-7697881D01*
X5628081Y-7697882D01*
X5718356Y-7718571D01*
X5781984Y-7733153D01*
X5789282Y-7738341D01*
X5790851Y-7746811D01*
X5716862Y-8123595D01*
X5711905Y-8131053D01*
X5711861Y-8131083D01*
X5393152Y-8343083D01*
X5384366Y-8344811D01*
X5376930Y-8339821D01*
X5376353Y-8338854D01*
X5332982Y-8257435D01*
X5332096Y-8255275D01*
X5306392Y-8168773D01*
X5306000Y-8166911D01*
X5301472Y-8131053D01*
X5295687Y-8085240D01*
X5295602Y-8084163D01*
X5293068Y-8006997D01*
X5293068Y-8006996D01*
X5289669Y-7923666D01*
X5289668Y-7923660D01*
X5268432Y-7834210D01*
X5247007Y-7796947D01*
X5215387Y-7762096D01*
X5215386Y-7762095D01*
X5215385Y-7762094D01*
X5167747Y-7727392D01*
X5167743Y-7727389D01*
X5113256Y-7700389D01*
X5107365Y-7693646D01*
X5107640Y-7685431D01*
X5175380Y-7521877D01*
X5181711Y-7515547D01*
X5190666Y-7515546D01*
X5190974Y-7515679D01*
G37*
%TD.AperFunction*%
%TD*%
%TA.AperFunction,Conductor*%
%TO.N,/~{CAAB}*%
G36*
X7157916Y-6850988D02*
G01*
X7163263Y-6858171D01*
X7163388Y-6858722D01*
X7239534Y-7236689D01*
X7239534Y-7241311D01*
X7163430Y-7619070D01*
X7158436Y-7626503D01*
X7149649Y-7628229D01*
X7148906Y-7628053D01*
X7046786Y-7600442D01*
X7045128Y-7599857D01*
X6958069Y-7561550D01*
X6956200Y-7560515D01*
X6826291Y-7472143D01*
X6826209Y-7472086D01*
X6728644Y-7403335D01*
X6728643Y-7403334D01*
X6614062Y-7357068D01*
X6538667Y-7343758D01*
X6538658Y-7343757D01*
X6457781Y-7339573D01*
X6449696Y-7335724D01*
X6446686Y-7327889D01*
X6446686Y-7149784D01*
X6450113Y-7141511D01*
X6457434Y-7138123D01*
X6581120Y-7128042D01*
X6680713Y-7098688D01*
X6758180Y-7056213D01*
X6826236Y-7005894D01*
X6876646Y-6967719D01*
X6877788Y-6966958D01*
X6997652Y-6897138D01*
X6999424Y-6896297D01*
X7071182Y-6869405D01*
X7072411Y-6869021D01*
X7149059Y-6849688D01*
X7157916Y-6850988D01*
G37*
%TD.AperFunction*%
%TD*%
%TA.AperFunction,Conductor*%
%TO.N,/~{CAAA}*%
G36*
X3763689Y-6085048D02*
G01*
X3769378Y-6091963D01*
X3769440Y-6092175D01*
X3778606Y-6124428D01*
X3778606Y-6124429D01*
X3778608Y-6124431D01*
X3798517Y-6150919D01*
X3843314Y-6179372D01*
X3896999Y-6195740D01*
X3982919Y-6203984D01*
X3990826Y-6208186D01*
X3993500Y-6215631D01*
X3993500Y-6394086D01*
X3990073Y-6402359D01*
X3982613Y-6405758D01*
X3921239Y-6410032D01*
X3921234Y-6410033D01*
X3835875Y-6434009D01*
X3786329Y-6472956D01*
X3773228Y-6498642D01*
X3773228Y-6498643D01*
X3770519Y-6516604D01*
X3765897Y-6524274D01*
X3757205Y-6526428D01*
X3755540Y-6526051D01*
X3066734Y-6316191D01*
X3059819Y-6310502D01*
X3058952Y-6301589D01*
X3064641Y-6294674D01*
X3066723Y-6293811D01*
X3754776Y-6084181D01*
X3763689Y-6085048D01*
G37*
%TD.AperFunction*%
%TD*%
%TA.AperFunction,Conductor*%
%TO.N,/~{CAAA}*%
G36*
X6395953Y-5961960D02*
G01*
X6401265Y-5969169D01*
X6401377Y-5969666D01*
X6477036Y-6345218D01*
X6475310Y-6354005D01*
X6475281Y-6354049D01*
X6261711Y-6672248D01*
X6254255Y-6677208D01*
X6245476Y-6675443D01*
X6244884Y-6675019D01*
X6078713Y-6547822D01*
X6078654Y-6547776D01*
X6049220Y-6524945D01*
X5980373Y-6471543D01*
X5931137Y-6444678D01*
X5931134Y-6444677D01*
X5931132Y-6444676D01*
X5874055Y-6424549D01*
X5874048Y-6424547D01*
X5791719Y-6409944D01*
X5695846Y-6405515D01*
X5687740Y-6401709D01*
X5684686Y-6393827D01*
X5684686Y-6215933D01*
X5688113Y-6207660D01*
X5695593Y-6204260D01*
X5819253Y-6195877D01*
X5919834Y-6171345D01*
X5999155Y-6135661D01*
X6069938Y-6093082D01*
X6088667Y-6081311D01*
X6089351Y-6080915D01*
X6222167Y-6010304D01*
X6223715Y-6009621D01*
X6301199Y-5981916D01*
X6302290Y-5981588D01*
X6387100Y-5960619D01*
X6395953Y-5961960D01*
G37*
%TD.AperFunction*%
%TD*%
%TA.AperFunction,Conductor*%
%TO.N,/~{CAAB}*%
G36*
X3763689Y-6735048D02*
G01*
X3769378Y-6741963D01*
X3769440Y-6742175D01*
X3778606Y-6774428D01*
X3778606Y-6774429D01*
X3778608Y-6774431D01*
X3798517Y-6800919D01*
X3843314Y-6829372D01*
X3896999Y-6845740D01*
X3982919Y-6853984D01*
X3990826Y-6858186D01*
X3993500Y-6865631D01*
X3993500Y-7044086D01*
X3990073Y-7052359D01*
X3982613Y-7055758D01*
X3921239Y-7060032D01*
X3921234Y-7060033D01*
X3835875Y-7084009D01*
X3786329Y-7122956D01*
X3773228Y-7148642D01*
X3773228Y-7148643D01*
X3770519Y-7166604D01*
X3765897Y-7174274D01*
X3757205Y-7176428D01*
X3755540Y-7176051D01*
X3271144Y-7028469D01*
X3066733Y-6966191D01*
X3059819Y-6960503D01*
X3058952Y-6951590D01*
X3064641Y-6944675D01*
X3066732Y-6943808D01*
X3754776Y-6734181D01*
X3763689Y-6735048D01*
G37*
%TD.AperFunction*%
%TD*%
%TA.AperFunction,Conductor*%
%TO.N,CA19*%
G36*
X453912Y-1881729D02*
G01*
X454294Y-1881995D01*
X648713Y-2023705D01*
X649307Y-2024169D01*
X803434Y-2152494D01*
X910179Y-2237897D01*
X981186Y-2294707D01*
X1122405Y-2371462D01*
X1205493Y-2399522D01*
X1205495Y-2399523D01*
X1301550Y-2420386D01*
X1301561Y-2420388D01*
X1301564Y-2420388D01*
X1301572Y-2420390D01*
X1430024Y-2435049D01*
X1573302Y-2439637D01*
X1581462Y-2443327D01*
X1584628Y-2451331D01*
X1584628Y-2628663D01*
X1581201Y-2636936D01*
X1573297Y-2640357D01*
X1431915Y-2644819D01*
X1304714Y-2659092D01*
X1212350Y-2679412D01*
X1198146Y-2682538D01*
X1198145Y-2682538D01*
X1198142Y-2682539D01*
X1198134Y-2682541D01*
X1107316Y-2714871D01*
X1027327Y-2755813D01*
X953268Y-2805094D01*
X830588Y-2905321D01*
X803450Y-2927493D01*
X750061Y-2972485D01*
X691691Y-3021675D01*
X691123Y-3022124D01*
X454316Y-3197858D01*
X445631Y-3200036D01*
X437948Y-3195434D01*
X437623Y-3194972D01*
X258486Y-2927477D01*
X3358Y-2546508D01*
X1602Y-2537729D01*
X3357Y-2533492D01*
X437681Y-1884939D01*
X445131Y-1879972D01*
X453912Y-1881729D01*
G37*
%TD.AperFunction*%
%TD*%
%TA.AperFunction,Conductor*%
%TO.N,5V*%
G36*
X7277839Y-916235D02*
G01*
X7278955Y-919445D01*
X7290013Y-977221D01*
X7290014Y-977224D01*
X7325007Y-1012354D01*
X7370403Y-1022405D01*
X7370405Y-1022404D01*
X7370406Y-1022405D01*
X7391263Y-1021477D01*
X7415627Y-1020395D01*
X7430594Y-1019413D01*
X7439073Y-1022291D01*
X7442660Y-1028059D01*
X7534468Y-1370614D01*
X7533300Y-1379492D01*
X7526196Y-1384944D01*
X7522801Y-1385337D01*
X7502521Y-1384702D01*
X7426441Y-1384123D01*
X7417666Y-1384057D01*
X7417665Y-1384057D01*
X7417663Y-1384057D01*
X7339955Y-1400376D01*
X7339954Y-1400377D01*
X7293977Y-1436741D01*
X7293976Y-1436741D01*
X7293975Y-1436743D01*
X7280746Y-1465533D01*
X7280746Y-1465534D01*
X7278115Y-1486213D01*
X7273672Y-1493987D01*
X7265032Y-1496342D01*
X7261124Y-1495123D01*
X6720016Y-1214616D01*
X6714249Y-1207766D01*
X6715014Y-1198844D01*
X6719992Y-1193854D01*
X7262056Y-911268D01*
X7270976Y-910483D01*
X7277839Y-916235D01*
G37*
%TD.AperFunction*%
%TD*%
%TA.AperFunction,Conductor*%
%TO.N,5V*%
G36*
X7278191Y983952D02*
G01*
X7279246Y981032D01*
X7285486Y952257D01*
X7311492Y919857D01*
X7350331Y897145D01*
X7350341Y897141D01*
X7398324Y882467D01*
X7398331Y882465D01*
X7398334Y882464D01*
X7398337Y882464D01*
X7507037Y870601D01*
X7507048Y870600D01*
X7507050Y870600D01*
X7507051Y870600D01*
X7608202Y871036D01*
X7629069Y871413D01*
X7637403Y868136D01*
X7640978Y859926D01*
X7640090Y855240D01*
X7504646Y528074D01*
X7498315Y521740D01*
X7493521Y520853D01*
X7476044Y521326D01*
X7410159Y521421D01*
X7410158Y521420D01*
X7410158Y521421D01*
X7410153Y521420D01*
X7338212Y505406D01*
X7338211Y505405D01*
X7338210Y505405D01*
X7293830Y467621D01*
X7293829Y467619D01*
X7280729Y436743D01*
X7277969Y413117D01*
X7273605Y405298D01*
X7264990Y402854D01*
X7260944Y404098D01*
X6720003Y685997D01*
X6714251Y692860D01*
X6715035Y701780D01*
X6720011Y706752D01*
X7262412Y988931D01*
X7271333Y989710D01*
X7278191Y983952D01*
G37*
%TD.AperFunction*%
%TD*%
%TA.AperFunction,Conductor*%
%TO.N,5V*%
G36*
X3744694Y1272340D02*
G01*
X3746689Y1271036D01*
X4307946Y816226D01*
X4312216Y808355D01*
X4309670Y799770D01*
X4308118Y798188D01*
X3761795Y338210D01*
X3760116Y336796D01*
X3751580Y334089D01*
X3743630Y338210D01*
X3741594Y341724D01*
X3738462Y350297D01*
X3710644Y402724D01*
X3674932Y446844D01*
X3623441Y489848D01*
X3565030Y522797D01*
X3481683Y552703D01*
X3396293Y569545D01*
X3396284Y569545D01*
X3396282Y569546D01*
X3396285Y569546D01*
X3346382Y572790D01*
X3296475Y576034D01*
X3296474Y576035D01*
X3296472Y576034D01*
X3296471Y576035D01*
X3221870Y571651D01*
X3213411Y574587D01*
X3210059Y579713D01*
X3099506Y919957D01*
X3100208Y928883D01*
X3107017Y934698D01*
X3108389Y935054D01*
X3164984Y946111D01*
X3293813Y971282D01*
X3473314Y1033434D01*
X3603913Y1107860D01*
X3603918Y1107864D01*
X3688949Y1189949D01*
X3688952Y1189952D01*
X3728929Y1267317D01*
X3735771Y1273094D01*
X3744694Y1272340D01*
G37*
%TD.AperFunction*%
%TD*%
%TA.AperFunction,Conductor*%
%TO.N,5V*%
G36*
X557891Y756220D02*
G01*
X561602Y751789D01*
X611358Y648166D01*
X664251Y578376D01*
X664252Y578375D01*
X727409Y514330D01*
X727408Y514330D01*
X812328Y446484D01*
X812345Y446471D01*
X906289Y386544D01*
X906294Y386542D01*
X1022734Y327055D01*
X1022754Y327046D01*
X1143312Y278220D01*
X1143323Y278216D01*
X1143327Y278215D01*
X1218460Y254599D01*
X1271169Y238033D01*
X1271183Y238029D01*
X1393679Y209945D01*
X1575048Y191051D01*
X1582922Y186785D01*
X1585535Y179598D01*
X1591178Y-178674D01*
X1587881Y-187000D01*
X1580067Y-190543D01*
X1510938Y-194021D01*
X1399770Y-209738D01*
X1399769Y-209738D01*
X1278217Y-237273D01*
X1278216Y-237273D01*
X1048121Y-317001D01*
X1048120Y-317001D01*
X856187Y-417895D01*
X856185Y-417896D01*
X711626Y-529608D01*
X612216Y-647102D01*
X561619Y-751856D01*
X554935Y-757815D01*
X545995Y-757302D01*
X541590Y-753604D01*
X3921Y-6849D01*
X1869Y1866D01*
X3919Y6817D01*
X541560Y753561D01*
X549175Y758273D01*
X557891Y756220D01*
G37*
%TD.AperFunction*%
%TD*%
%TA.AperFunction,Conductor*%
%TO.N,GND*%
G36*
X3118157Y-28636929D02*
G01*
X3454867Y-28777948D01*
X3854232Y-28945208D01*
X3860539Y-28951565D01*
X3860504Y-28960520D01*
X3854232Y-28966792D01*
X3117535Y-29275331D01*
X3108580Y-29275366D01*
X3102223Y-29269059D01*
X3101488Y-29266541D01*
X3095770Y-29233621D01*
X3095769Y-29233620D01*
X3095769Y-29233618D01*
X3073188Y-29198495D01*
X3039422Y-29173846D01*
X2997640Y-29157887D01*
X2997635Y-29157886D01*
X2902696Y-29144902D01*
X2902682Y-29144901D01*
X2813639Y-29145269D01*
X2790947Y-29145748D01*
X2782603Y-29142497D01*
X2779003Y-29134298D01*
X2779000Y-29134051D01*
X2779000Y-28777948D01*
X2782427Y-28769675D01*
X2790700Y-28766248D01*
X2790845Y-28766249D01*
X2813668Y-28766731D01*
X2953912Y-28762782D01*
X3037455Y-28739165D01*
X3085821Y-28697753D01*
X3099228Y-28668000D01*
X3102036Y-28646224D01*
X3106493Y-28638459D01*
X3115137Y-28636118D01*
X3118157Y-28636929D01*
G37*
%TD.AperFunction*%
%TD*%
%TA.AperFunction,Conductor*%
%TO.N,GND*%
G36*
X3011168Y-28567081D02*
G01*
X3188581Y-28616735D01*
X3190214Y-28617327D01*
X3318636Y-28674958D01*
X3318844Y-28675054D01*
X3378123Y-28703485D01*
X3422699Y-28718323D01*
X3512380Y-28748178D01*
X3512383Y-28748178D01*
X3512385Y-28748179D01*
X3601144Y-28761272D01*
X3702108Y-28765527D01*
X3710228Y-28769300D01*
X3713314Y-28777217D01*
X3713314Y-29134908D01*
X3709887Y-29143181D01*
X3702238Y-29146591D01*
X3576998Y-29153283D01*
X3505007Y-29167153D01*
X3474628Y-29173006D01*
X3474625Y-29173006D01*
X3474625Y-29173007D01*
X3392960Y-29201973D01*
X3392958Y-29201973D01*
X3318844Y-29236945D01*
X3318669Y-29237026D01*
X3196058Y-29292434D01*
X3194425Y-29293030D01*
X3011195Y-29344873D01*
X3002302Y-29343828D01*
X2996752Y-29336800D01*
X2996540Y-29335926D01*
X2987898Y-29293030D01*
X2920465Y-28958308D01*
X2920465Y-28953691D01*
X2996547Y-28576036D01*
X3001541Y-28568605D01*
X3010328Y-28566879D01*
X3011168Y-28567081D01*
G37*
%TD.AperFunction*%
%TD*%
%TA.AperFunction,Conductor*%
%TO.N,GND*%
G36*
X6095836Y-20543372D02*
G01*
X6101844Y-20549564D01*
X6173198Y-20721823D01*
X6238904Y-20880448D01*
X6238904Y-20889402D01*
X6233713Y-20895188D01*
X6138933Y-20947067D01*
X6138928Y-20947071D01*
X6106621Y-20980794D01*
X6078218Y-21010441D01*
X6078217Y-21010443D01*
X6078216Y-21010443D01*
X6045621Y-21081566D01*
X6025999Y-21161633D01*
X6025923Y-21161924D01*
X5988622Y-21298816D01*
X5987731Y-21301105D01*
X5926581Y-21419611D01*
X5919742Y-21425392D01*
X5910819Y-21424643D01*
X5909704Y-21423988D01*
X5589036Y-21210685D01*
X5585772Y-21207419D01*
X5372382Y-20886358D01*
X5370657Y-20877573D01*
X5375651Y-20870140D01*
X5375799Y-20870043D01*
X5512971Y-20782923D01*
X5513647Y-20782527D01*
X5625646Y-20721821D01*
X5626893Y-20721237D01*
X5826682Y-20641837D01*
X5826769Y-20641804D01*
X6086887Y-20543103D01*
X6095836Y-20543372D01*
G37*
%TD.AperFunction*%
%TD*%
%TA.AperFunction,Conductor*%
%TO.N,5V*%
G36*
X10977190Y-22309586D02*
G01*
X11081775Y-22402699D01*
X11142583Y-22456837D01*
X11354786Y-22606381D01*
X11554627Y-22710144D01*
X11659717Y-22744327D01*
X11733422Y-22768303D01*
X11799751Y-22775747D01*
X11875676Y-22784268D01*
X11883515Y-22788596D01*
X11885998Y-22797200D01*
X11885188Y-22800354D01*
X11687775Y-23279263D01*
X11681454Y-23285606D01*
X11676658Y-23286500D01*
X10976015Y-23268542D01*
X10967833Y-23264904D01*
X10964619Y-23256546D01*
X10965502Y-23252378D01*
X10971328Y-23238287D01*
X10985745Y-23178121D01*
X10988686Y-23115908D01*
X10978446Y-23036811D01*
X10955355Y-22957549D01*
X10909031Y-22853904D01*
X10909027Y-22853897D01*
X10851218Y-22757013D01*
X10851214Y-22757006D01*
X10773017Y-22651640D01*
X10773015Y-22651638D01*
X10773013Y-22651635D01*
X10707686Y-22579196D01*
X10704691Y-22570757D01*
X10708101Y-22563088D01*
X10961138Y-22310051D01*
X10969410Y-22306625D01*
X10977190Y-22309586D01*
G37*
%TD.AperFunction*%
%TD*%
%TA.AperFunction,Conductor*%
%TO.N,5V*%
G36*
X10093535Y-21407496D02*
G01*
X10101449Y-21411685D01*
X10104134Y-21418995D01*
X10104439Y-21442950D01*
X10104440Y-21442952D01*
X10116613Y-21477712D01*
X10168098Y-21546926D01*
X10242330Y-21613760D01*
X10300020Y-21658063D01*
X10323059Y-21675756D01*
X10323277Y-21675927D01*
X10413022Y-21748286D01*
X10417311Y-21756145D01*
X10414786Y-21764737D01*
X10413951Y-21765666D01*
X10162243Y-22017374D01*
X10153970Y-22020801D01*
X10146215Y-22017861D01*
X10062951Y-21944149D01*
X10062942Y-21944143D01*
X10062941Y-21944142D01*
X9881562Y-21824989D01*
X9881559Y-21824987D01*
X9881558Y-21824987D01*
X9881554Y-21824985D01*
X9726451Y-21756459D01*
X9677709Y-21734924D01*
X9677707Y-21734923D01*
X9677706Y-21734923D01*
X9677697Y-21734920D01*
X9462736Y-21679642D01*
X9462727Y-21679641D01*
X9256183Y-21662174D01*
X9248228Y-21658063D01*
X9245511Y-21649530D01*
X9245855Y-21647535D01*
X9325760Y-21344885D01*
X9331185Y-21337762D01*
X9338171Y-21336225D01*
X10093535Y-21407496D01*
G37*
%TD.AperFunction*%
%TD*%
%TA.AperFunction,Conductor*%
%TO.N,5V*%
G36*
X12258253Y-22817306D02*
G01*
X12260017Y-22820144D01*
X12260176Y-22820507D01*
X12286684Y-22871277D01*
X12286689Y-22871284D01*
X12322847Y-22915674D01*
X12322848Y-22915675D01*
X12322850Y-22915676D01*
X12322852Y-22915679D01*
X12379293Y-22962792D01*
X12445489Y-23001347D01*
X12445499Y-23001351D01*
X12445503Y-23001353D01*
X12546623Y-23041660D01*
X12546622Y-23041660D01*
X12546627Y-23041661D01*
X12546629Y-23041662D01*
X12652945Y-23069305D01*
X12792954Y-23090163D01*
X12792970Y-23090163D01*
X12792972Y-23090164D01*
X12850715Y-23093068D01*
X12897888Y-23095441D01*
X12905978Y-23099279D01*
X12909000Y-23107126D01*
X12909000Y-23464454D01*
X12905573Y-23472727D01*
X12897456Y-23476153D01*
X12882512Y-23476351D01*
X12881979Y-23476359D01*
X12881978Y-23476359D01*
X12881958Y-23476360D01*
X12683503Y-23496796D01*
X12683497Y-23496797D01*
X12511799Y-23542333D01*
X12511798Y-23542333D01*
X12385949Y-23604695D01*
X12385948Y-23604695D01*
X12302323Y-23679393D01*
X12261518Y-23754386D01*
X12254554Y-23760015D01*
X12245649Y-23759071D01*
X12243709Y-23757747D01*
X11693641Y-23294953D01*
X11689516Y-23287004D01*
X11692220Y-23278468D01*
X11693641Y-23277047D01*
X12241769Y-22815884D01*
X12250304Y-22813181D01*
X12258253Y-22817306D01*
G37*
%TD.AperFunction*%
%TD*%
%TA.AperFunction,Conductor*%
%TO.N,5V*%
G36*
X13126953Y-22852960D02*
G01*
X13132265Y-22860169D01*
X13132377Y-22860666D01*
X13208534Y-23238689D01*
X13208534Y-23243311D01*
X13132377Y-23621331D01*
X13127383Y-23628764D01*
X13118596Y-23630490D01*
X13118097Y-23630377D01*
X12953195Y-23589571D01*
X12952218Y-23589284D01*
X12828472Y-23546954D01*
X12828249Y-23546875D01*
X12803958Y-23538013D01*
X12803951Y-23538010D01*
X12649844Y-23493826D01*
X12548597Y-23480728D01*
X12548601Y-23480728D01*
X12426970Y-23476401D01*
X12418824Y-23472682D01*
X12415686Y-23464708D01*
X12415686Y-23106933D01*
X12419113Y-23098660D01*
X12426593Y-23095260D01*
X12550253Y-23086877D01*
X12650834Y-23062345D01*
X12730155Y-23026661D01*
X12800938Y-22984082D01*
X12819667Y-22972311D01*
X12820351Y-22971915D01*
X12953167Y-22901304D01*
X12954715Y-22900621D01*
X13032199Y-22872916D01*
X13033290Y-22872588D01*
X13118100Y-22851619D01*
X13126953Y-22852960D01*
G37*
%TD.AperFunction*%
%TD*%
%TA.AperFunction,Conductor*%
%TO.N,CA3*%
G36*
X13725183Y-29327447D02*
G01*
X13726342Y-29328125D01*
X14044769Y-29539830D01*
X14049761Y-29547264D01*
X14049771Y-29547317D01*
X14123536Y-29922682D01*
X14121769Y-29931461D01*
X14114312Y-29936418D01*
X14113130Y-29936589D01*
X13980122Y-29948853D01*
X13977929Y-29948848D01*
X13868907Y-29938372D01*
X13868777Y-29938359D01*
X13791944Y-29930108D01*
X13791936Y-29930108D01*
X13692422Y-29942220D01*
X13692416Y-29942222D01*
X13632127Y-29966344D01*
X13571473Y-30001901D01*
X13562603Y-30003128D01*
X13555827Y-29998307D01*
X13456767Y-29850036D01*
X13455022Y-29841254D01*
X13459114Y-29834461D01*
X13533487Y-29773962D01*
X13533491Y-29773959D01*
X13581153Y-29709408D01*
X13605873Y-29644478D01*
X13619649Y-29576297D01*
X13619730Y-29575931D01*
X13650280Y-29449158D01*
X13651229Y-29446591D01*
X13709445Y-29332547D01*
X13716257Y-29326738D01*
X13725183Y-29327447D01*
G37*
%TD.AperFunction*%
%TD*%
%TA.AperFunction,Conductor*%
%TO.N,CA3*%
G36*
X5042699Y-29963310D02*
G01*
X5258200Y-30011803D01*
X5395768Y-30042413D01*
X5395774Y-30042413D01*
X5395780Y-30042415D01*
X5457831Y-30049732D01*
X5519895Y-30057052D01*
X5687149Y-30061684D01*
X5695322Y-30065339D01*
X5698523Y-30073380D01*
X5698523Y-30251588D01*
X5695096Y-30259861D01*
X5688182Y-30263209D01*
X5575534Y-30276386D01*
X5575532Y-30276387D01*
X5492878Y-30315924D01*
X5435311Y-30375190D01*
X5387611Y-30448740D01*
X5368889Y-30479321D01*
X5368313Y-30480176D01*
X5287056Y-30589885D01*
X5285243Y-30591826D01*
X5185217Y-30677074D01*
X5176698Y-30679832D01*
X5168723Y-30675758D01*
X5167913Y-30674689D01*
X4954718Y-30357049D01*
X4952953Y-30348270D01*
X4952963Y-30348218D01*
X4959469Y-30315924D01*
X5028672Y-29972415D01*
X5033666Y-29964984D01*
X5042453Y-29963258D01*
X5042699Y-29963310D01*
G37*
%TD.AperFunction*%
%TD*%
%TA.AperFunction,Conductor*%
%TO.N,GND*%
G36*
X9091330Y-7158427D02*
G01*
X9094757Y-7166700D01*
X9094579Y-7168732D01*
X9086308Y-7215641D01*
X9071158Y-7319010D01*
X9072948Y-7324485D01*
X9085279Y-7362206D01*
X9103780Y-7375276D01*
X9109657Y-7376259D01*
X9117250Y-7381005D01*
X9119265Y-7389730D01*
X9116016Y-7396054D01*
X8915291Y-7597672D01*
X8907026Y-7601117D01*
X8898745Y-7597708D01*
X8898709Y-7597672D01*
X8698217Y-7396289D01*
X8694808Y-7388008D01*
X8698253Y-7379743D01*
X8704713Y-7376473D01*
X8708699Y-7375854D01*
X8709608Y-7375275D01*
X8726810Y-7364318D01*
X8726810Y-7364317D01*
X8726811Y-7364317D01*
X8742452Y-7324485D01*
X8739291Y-7271321D01*
X8739291Y-7271318D01*
X8727726Y-7215806D01*
X8727658Y-7215451D01*
X8719421Y-7168731D01*
X8721359Y-7159989D01*
X8728912Y-7155178D01*
X8730943Y-7155000D01*
X9083057Y-7155000D01*
X9091330Y-7158427D01*
G37*
%TD.AperFunction*%
%TD*%
%TA.AperFunction,Conductor*%
%TO.N,GND*%
G36*
X8915253Y-6962290D02*
G01*
X9098514Y-7146366D01*
X9115782Y-7163710D01*
X9119191Y-7171991D01*
X9115746Y-7180256D01*
X9109289Y-7183526D01*
X9105300Y-7184146D01*
X9087188Y-7195682D01*
X9071547Y-7235514D01*
X9074708Y-7288678D01*
X9086273Y-7344193D01*
X9086341Y-7344547D01*
X9094579Y-7391268D01*
X9092641Y-7400011D01*
X9085089Y-7404822D01*
X9083057Y-7405000D01*
X8730943Y-7405000D01*
X8722670Y-7401573D01*
X8719243Y-7393300D01*
X8719421Y-7391268D01*
X8727658Y-7344547D01*
X8727691Y-7344362D01*
X8742841Y-7240989D01*
X8728721Y-7197794D01*
X8725731Y-7195682D01*
X8710217Y-7184722D01*
X8704342Y-7183739D01*
X8696748Y-7178993D01*
X8694735Y-7170268D01*
X8697981Y-7163946D01*
X8898710Y-6962326D01*
X8906974Y-6958882D01*
X8915253Y-6962290D01*
G37*
%TD.AperFunction*%
%TD*%
%TA.AperFunction,Conductor*%
%TO.N,GND*%
G36*
X5160259Y-3962424D02*
G01*
X5191421Y-3993836D01*
X5630825Y-4436760D01*
X5634219Y-4445047D01*
X5630825Y-4453240D01*
X5160575Y-4927256D01*
X5152316Y-4930716D01*
X5144029Y-4927322D01*
X5140621Y-4920116D01*
X5138979Y-4902736D01*
X5123966Y-4853506D01*
X5123965Y-4853505D01*
X5099243Y-4810347D01*
X5099238Y-4810340D01*
X5057174Y-4764563D01*
X5057169Y-4764559D01*
X5005281Y-4726951D01*
X5005278Y-4726949D01*
X5005275Y-4726947D01*
X5005269Y-4726944D01*
X4922541Y-4687083D01*
X4922538Y-4687082D01*
X4922536Y-4687081D01*
X4834203Y-4659815D01*
X4834199Y-4659814D01*
X4834195Y-4659813D01*
X4726662Y-4640601D01*
X4648962Y-4635692D01*
X4640922Y-4631750D01*
X4638000Y-4624015D01*
X4638000Y-4266279D01*
X4641427Y-4258006D01*
X4649271Y-4254587D01*
X4685174Y-4253274D01*
X4847295Y-4226883D01*
X4979222Y-4177630D01*
X5069762Y-4113771D01*
X5123499Y-4037555D01*
X5137668Y-3993837D01*
X5140322Y-3969401D01*
X5144623Y-3961547D01*
X5153217Y-3959033D01*
X5160259Y-3962424D01*
G37*
%TD.AperFunction*%
%TD*%
%TA.AperFunction,Conductor*%
%TO.N,GND*%
G36*
X3646168Y-4056081D02*
G01*
X3823581Y-4105735D01*
X3825214Y-4106327D01*
X3953636Y-4163958D01*
X3953844Y-4164054D01*
X4013123Y-4192485D01*
X4057699Y-4207323D01*
X4147380Y-4237178D01*
X4147383Y-4237178D01*
X4147385Y-4237179D01*
X4236144Y-4250272D01*
X4337108Y-4254527D01*
X4345228Y-4258300D01*
X4348314Y-4266217D01*
X4348314Y-4623908D01*
X4344887Y-4632181D01*
X4337238Y-4635591D01*
X4211998Y-4642283D01*
X4140007Y-4656153D01*
X4109628Y-4662006D01*
X4109625Y-4662006D01*
X4109625Y-4662007D01*
X4027960Y-4690973D01*
X4027958Y-4690973D01*
X3953844Y-4725945D01*
X3953669Y-4726026D01*
X3831058Y-4781434D01*
X3829425Y-4782030D01*
X3646195Y-4833873D01*
X3637302Y-4832828D01*
X3631752Y-4825800D01*
X3631540Y-4824926D01*
X3622898Y-4782030D01*
X3555465Y-4447308D01*
X3555465Y-4442691D01*
X3631547Y-4065036D01*
X3636541Y-4057605D01*
X3645328Y-4055879D01*
X3646168Y-4056081D01*
G37*
%TD.AperFunction*%
%TD*%
%TA.AperFunction,Conductor*%
%TO.N,/~{CAAD}*%
G36*
X4211455Y-17842947D02*
G01*
X4592262Y-17958968D01*
X4900265Y-18052808D01*
X4907180Y-18058497D01*
X4908047Y-18067410D01*
X4902358Y-18074325D01*
X4900265Y-18075192D01*
X4212223Y-18284818D01*
X4203310Y-18283951D01*
X4197621Y-18277036D01*
X4197559Y-18276824D01*
X4188393Y-18244571D01*
X4188393Y-18244570D01*
X4168482Y-18218080D01*
X4150430Y-18206614D01*
X4123686Y-18189628D01*
X4123684Y-18189627D01*
X4123682Y-18189626D01*
X4070003Y-18173260D01*
X4069988Y-18173257D01*
X3984082Y-18165014D01*
X3976174Y-18160813D01*
X3973500Y-18153368D01*
X3973500Y-17974913D01*
X3976927Y-17966640D01*
X3984384Y-17963242D01*
X4045760Y-17958968D01*
X4131125Y-17934990D01*
X4180672Y-17896042D01*
X4193772Y-17870356D01*
X4196480Y-17852394D01*
X4201102Y-17844726D01*
X4209794Y-17842571D01*
X4211455Y-17842947D01*
G37*
%TD.AperFunction*%
%TD*%
%TA.AperFunction,Conductor*%
%TO.N,/~{CAAD}*%
G36*
X3533543Y-17581526D02*
G01*
X3534108Y-17581930D01*
X3596240Y-17629206D01*
X3597324Y-17630141D01*
X3652796Y-17684240D01*
X3653820Y-17685379D01*
X3735637Y-17789304D01*
X3735903Y-17789655D01*
X3759291Y-17821781D01*
X3829805Y-17899021D01*
X3869081Y-17925239D01*
X3916980Y-17945324D01*
X3981135Y-17959165D01*
X4050608Y-17963339D01*
X4058660Y-17967256D01*
X4061606Y-17975018D01*
X4061606Y-18152681D01*
X4058179Y-18160954D01*
X4050294Y-18164375D01*
X3923249Y-18168594D01*
X3923242Y-18168594D01*
X3820124Y-18181382D01*
X3657367Y-18225564D01*
X3657315Y-18225579D01*
X3620444Y-18237475D01*
X3619766Y-18237671D01*
X3391983Y-18296241D01*
X3383117Y-18294983D01*
X3377738Y-18287824D01*
X3377604Y-18287246D01*
X3301963Y-17911780D01*
X3303689Y-17902994D01*
X3303718Y-17902950D01*
X3306355Y-17899021D01*
X3517309Y-17584720D01*
X3524764Y-17579761D01*
X3533543Y-17581526D01*
G37*
%TD.AperFunction*%
%TD*%
%TA.AperFunction,Conductor*%
%TO.N,/~{CD}*%
G36*
X3763689Y-9335048D02*
G01*
X3769378Y-9341963D01*
X3769440Y-9342175D01*
X3778606Y-9374428D01*
X3778606Y-9374429D01*
X3778608Y-9374431D01*
X3798517Y-9400919D01*
X3843314Y-9429372D01*
X3896999Y-9445740D01*
X3982919Y-9453984D01*
X3990826Y-9458186D01*
X3993500Y-9465631D01*
X3993500Y-9644086D01*
X3990073Y-9652359D01*
X3982613Y-9655758D01*
X3921239Y-9660032D01*
X3921234Y-9660033D01*
X3835875Y-9684009D01*
X3786329Y-9722956D01*
X3773228Y-9748642D01*
X3773228Y-9748643D01*
X3770519Y-9766604D01*
X3765897Y-9774274D01*
X3757205Y-9776428D01*
X3755540Y-9776051D01*
X3271144Y-9628469D01*
X3066733Y-9566191D01*
X3059819Y-9560503D01*
X3058952Y-9551590D01*
X3064641Y-9544675D01*
X3066732Y-9543808D01*
X3754776Y-9334181D01*
X3763689Y-9335048D01*
G37*
%TD.AperFunction*%
%TD*%
%TA.AperFunction,Conductor*%
%TO.N,/~{CD}*%
G36*
X8182455Y-8683947D02*
G01*
X8563262Y-8799968D01*
X8871265Y-8893808D01*
X8878180Y-8899497D01*
X8879047Y-8908410D01*
X8873358Y-8915325D01*
X8871265Y-8916192D01*
X8183223Y-9125818D01*
X8174310Y-9124951D01*
X8168621Y-9118036D01*
X8168559Y-9117824D01*
X8159393Y-9085571D01*
X8159393Y-9085570D01*
X8139482Y-9059080D01*
X8121430Y-9047614D01*
X8094686Y-9030628D01*
X8094684Y-9030627D01*
X8094682Y-9030626D01*
X8041003Y-9014260D01*
X8040988Y-9014257D01*
X7955082Y-9006014D01*
X7947174Y-9001813D01*
X7944500Y-8994368D01*
X7944500Y-8815913D01*
X7947927Y-8807640D01*
X7955384Y-8804242D01*
X8016760Y-8799968D01*
X8102125Y-8775990D01*
X8151672Y-8737042D01*
X8164772Y-8711356D01*
X8167480Y-8693394D01*
X8172102Y-8685726D01*
X8180794Y-8683571D01*
X8182455Y-8683947D01*
G37*
%TD.AperFunction*%
%TD*%
%TA.AperFunction,Conductor*%
%TO.N,GND*%
G36*
X11936929Y-28015540D02*
G01*
X11944362Y-28020533D01*
X11946087Y-28029320D01*
X11945877Y-28030192D01*
X11897466Y-28201421D01*
X11896769Y-28203271D01*
X11839609Y-28323220D01*
X11779751Y-28451482D01*
X11779746Y-28451494D01*
X11754163Y-28534881D01*
X11754159Y-28534900D01*
X11734466Y-28632779D01*
X11729475Y-28640213D01*
X11721166Y-28642026D01*
X11603288Y-28623355D01*
X11367484Y-28586006D01*
X11359848Y-28581327D01*
X11357640Y-28573676D01*
X11364114Y-28476156D01*
X11349877Y-28395418D01*
X11349875Y-28395414D01*
X11349875Y-28395412D01*
X11320191Y-28331329D01*
X11320187Y-28331323D01*
X11281140Y-28273270D01*
X11280893Y-28272885D01*
X11209972Y-28157515D01*
X11208804Y-28154977D01*
X11168704Y-28030507D01*
X11169428Y-28021581D01*
X11176252Y-28015783D01*
X11177519Y-28015451D01*
X11554851Y-27939477D01*
X11559463Y-27939477D01*
X11936929Y-28015540D01*
G37*
%TD.AperFunction*%
%TD*%
%TA.AperFunction,Conductor*%
%TO.N,GND*%
G36*
X4655776Y-28642940D02*
G01*
X4656511Y-28645458D01*
X4662229Y-28678378D01*
X4662230Y-28678379D01*
X4662231Y-28678382D01*
X4684812Y-28713505D01*
X4718578Y-28738154D01*
X4760361Y-28754113D01*
X4821123Y-28762422D01*
X4855303Y-28767097D01*
X4855306Y-28767097D01*
X4855312Y-28767098D01*
X4855316Y-28767097D01*
X4855317Y-28767098D01*
X4857344Y-28767089D01*
X4944332Y-28766731D01*
X4967055Y-28766251D01*
X4975397Y-28769502D01*
X4978997Y-28777701D01*
X4979000Y-28777948D01*
X4979000Y-29134051D01*
X4975573Y-29142324D01*
X4967300Y-29145751D01*
X4967053Y-29145748D01*
X4944350Y-29145269D01*
X4944313Y-29145269D01*
X4804093Y-29149217D01*
X4804086Y-29149218D01*
X4738236Y-29167833D01*
X4720545Y-29172835D01*
X4720544Y-29172835D01*
X4720542Y-29172836D01*
X4672179Y-29214246D01*
X4672179Y-29214247D01*
X4658773Y-29243998D01*
X4658772Y-29244002D01*
X4655963Y-29265774D01*
X4651505Y-29273541D01*
X4642862Y-29275881D01*
X4639839Y-29275069D01*
X4339343Y-29149217D01*
X3903766Y-28966791D01*
X3897460Y-28960435D01*
X3897495Y-28951480D01*
X3903766Y-28945208D01*
X4640466Y-28636667D01*
X4649419Y-28636633D01*
X4655776Y-28642940D01*
G37*
%TD.AperFunction*%
%TD*%
%TA.AperFunction,Conductor*%
%TO.N,/~{CAAB}*%
G36*
X8568690Y-28637160D02*
G01*
X9304145Y-28945572D01*
X9310449Y-28951932D01*
X9310410Y-28960887D01*
X9304130Y-28967158D01*
X8567533Y-29274913D01*
X8558579Y-29274940D01*
X8552227Y-29268627D01*
X8551495Y-29266115D01*
X8543015Y-29217184D01*
X8519170Y-29172103D01*
X8515750Y-29168300D01*
X8485223Y-29134353D01*
X8430640Y-29095667D01*
X8370834Y-29068660D01*
X8370830Y-29068659D01*
X8277587Y-29050435D01*
X8270125Y-29045485D01*
X8268348Y-29036708D01*
X8269020Y-29034480D01*
X8337738Y-28868578D01*
X8344070Y-28862247D01*
X8346066Y-28861622D01*
X8413010Y-28847150D01*
X8487183Y-28798250D01*
X8536097Y-28725816D01*
X8536098Y-28725813D01*
X8536099Y-28725811D01*
X8549261Y-28681757D01*
X8549263Y-28681747D01*
X8552519Y-28646864D01*
X8556700Y-28638945D01*
X8565255Y-28636302D01*
X8568690Y-28637160D01*
G37*
%TD.AperFunction*%
%TD*%
%TA.AperFunction,Conductor*%
%TO.N,/~{CAAB}*%
G36*
X8359307Y-28503877D02*
G01*
X8360179Y-28504523D01*
X8474243Y-28597494D01*
X8475571Y-28598763D01*
X8558509Y-28691485D01*
X8558759Y-28691774D01*
X8575847Y-28712182D01*
X8575858Y-28712193D01*
X8654512Y-28790933D01*
X8696232Y-28817185D01*
X8746633Y-28837254D01*
X8772577Y-28842566D01*
X8814515Y-28851155D01*
X8814522Y-28851155D01*
X8814528Y-28851157D01*
X8888995Y-28855374D01*
X8897061Y-28859263D01*
X8900033Y-28867055D01*
X8900033Y-29044790D01*
X8896606Y-29053063D01*
X8888833Y-29056479D01*
X8764532Y-29061799D01*
X8764523Y-29061800D01*
X8662880Y-29077657D01*
X8662875Y-29077658D01*
X8505578Y-29130310D01*
X8420782Y-29162968D01*
X8419641Y-29163342D01*
X8218101Y-29218039D01*
X8209220Y-29216898D01*
X8203745Y-29209811D01*
X8203567Y-29209058D01*
X8170473Y-29044790D01*
X8127963Y-28833780D01*
X8129689Y-28824994D01*
X8129718Y-28824950D01*
X8134930Y-28817185D01*
X8343074Y-28507070D01*
X8350528Y-28502112D01*
X8359307Y-28503877D01*
G37*
%TD.AperFunction*%
%TD*%
%TA.AperFunction,Conductor*%
%TO.N,CA4*%
G36*
X14802051Y-29824565D02*
G01*
X14802376Y-29825027D01*
X15236640Y-30473490D01*
X15238397Y-30482271D01*
X15236640Y-30486510D01*
X14802318Y-31135059D01*
X14794868Y-31140027D01*
X14786087Y-31138270D01*
X14785705Y-31138004D01*
X14591286Y-30996294D01*
X14590692Y-30995830D01*
X14436565Y-30867504D01*
X14258815Y-30725294D01*
X14258814Y-30725293D01*
X14117595Y-30648538D01*
X14117591Y-30648536D01*
X14117590Y-30648536D01*
X14034506Y-30620477D01*
X14034504Y-30620476D01*
X13938449Y-30599613D01*
X13938438Y-30599611D01*
X13809978Y-30584951D01*
X13666697Y-30580362D01*
X13658538Y-30576672D01*
X13655372Y-30568668D01*
X13655372Y-30391336D01*
X13658799Y-30383063D01*
X13666702Y-30379642D01*
X13808090Y-30375180D01*
X13935286Y-30360907D01*
X14041853Y-30337462D01*
X14132685Y-30305127D01*
X14212677Y-30264183D01*
X14286722Y-30214911D01*
X14436548Y-30092508D01*
X14548325Y-29998310D01*
X14548858Y-29997888D01*
X14785684Y-29822140D01*
X14794368Y-29819963D01*
X14802051Y-29824565D01*
G37*
%TD.AperFunction*%
%TD*%
%TA.AperFunction,Conductor*%
%TO.N,CA4*%
G36*
X5998780Y-30777725D02*
G01*
X5998840Y-30777869D01*
X6066926Y-30942244D01*
X6066926Y-30951198D01*
X6062002Y-30956833D01*
X5964915Y-31013338D01*
X5964914Y-31013339D01*
X5931963Y-31047859D01*
X5909534Y-31084814D01*
X5887768Y-31165960D01*
X5882692Y-31256659D01*
X5878593Y-31343755D01*
X5878380Y-31345495D01*
X5853813Y-31468562D01*
X5852826Y-31471459D01*
X5799483Y-31579308D01*
X5792744Y-31585204D01*
X5783809Y-31584608D01*
X5782516Y-31583863D01*
X5464138Y-31372083D01*
X5459148Y-31364647D01*
X5459137Y-31364595D01*
X5437942Y-31256659D01*
X5385121Y-30987671D01*
X5386890Y-30978895D01*
X5393844Y-30974048D01*
X5638228Y-30914804D01*
X5820297Y-30841718D01*
X5983411Y-30771596D01*
X5992364Y-30771478D01*
X5998780Y-30777725D01*
G37*
%TD.AperFunction*%
%TD*%
%TA.AperFunction,Conductor*%
%TO.N,5V*%
G36*
X12006020Y-30980819D02*
G01*
X12007204Y-30982509D01*
X12026712Y-31016358D01*
X12061443Y-31052630D01*
X12121625Y-31092428D01*
X12193573Y-31122875D01*
X12193577Y-31122876D01*
X12193576Y-31122876D01*
X12357231Y-31160702D01*
X12357234Y-31160702D01*
X12357240Y-31160704D01*
X12521398Y-31176088D01*
X12643556Y-31178750D01*
X12651751Y-31182356D01*
X12655000Y-31190447D01*
X12655000Y-31547769D01*
X12651573Y-31556042D01*
X12643778Y-31559459D01*
X12598840Y-31561298D01*
X12598823Y-31561299D01*
X12419931Y-31592097D01*
X12419929Y-31592097D01*
X12419927Y-31592098D01*
X12265080Y-31649277D01*
X12265079Y-31649277D01*
X12265078Y-31649278D01*
X12149962Y-31723511D01*
X12149961Y-31723512D01*
X12073011Y-31810706D01*
X12073011Y-31810707D01*
X12036607Y-31897855D01*
X12030256Y-31904168D01*
X12021301Y-31904141D01*
X12018697Y-31902634D01*
X11687891Y-31649278D01*
X11440567Y-31459859D01*
X11436083Y-31452109D01*
X11438393Y-31443457D01*
X11440144Y-31441623D01*
X11989537Y-30979397D01*
X11998071Y-30976694D01*
X12006020Y-30980819D01*
G37*
%TD.AperFunction*%
%TD*%
%TA.AperFunction,Conductor*%
%TO.N,5V*%
G36*
X13761697Y-30981171D02*
G01*
X13767247Y-30988199D01*
X13767459Y-30989073D01*
X13843534Y-31366689D01*
X13843534Y-31371311D01*
X13767452Y-31748961D01*
X13762458Y-31756394D01*
X13753671Y-31758120D01*
X13752829Y-31757917D01*
X13575420Y-31708264D01*
X13573783Y-31707671D01*
X13445395Y-31650056D01*
X13445125Y-31649931D01*
X13385886Y-31621519D01*
X13385881Y-31621517D01*
X13385877Y-31621515D01*
X13385873Y-31621513D01*
X13385869Y-31621512D01*
X13251619Y-31576821D01*
X13162853Y-31563727D01*
X13061893Y-31559472D01*
X13053772Y-31555699D01*
X13050686Y-31547782D01*
X13050686Y-31190091D01*
X13054113Y-31181818D01*
X13061761Y-31178408D01*
X13187001Y-31171716D01*
X13289370Y-31151994D01*
X13371038Y-31123027D01*
X13445250Y-31088009D01*
X13567945Y-31032562D01*
X13569569Y-31031969D01*
X13752805Y-30980126D01*
X13761697Y-30981171D01*
G37*
%TD.AperFunction*%
%TD*%
%TA.AperFunction,Conductor*%
%TO.N,GND*%
G36*
X11519836Y-32726520D02*
G01*
X11519880Y-32726549D01*
X11838076Y-32940117D01*
X11843036Y-32947573D01*
X11841271Y-32956352D01*
X11840844Y-32956947D01*
X11785419Y-33029306D01*
X11784620Y-33030242D01*
X11728990Y-33088899D01*
X11728991Y-33088900D01*
X11684343Y-33136158D01*
X11638784Y-33213589D01*
X11624848Y-33272615D01*
X11624848Y-33272621D01*
X11620679Y-33340022D01*
X11616748Y-33348068D01*
X11609001Y-33351000D01*
X11250814Y-33351000D01*
X11242541Y-33347573D01*
X11239150Y-33340219D01*
X11224929Y-33159742D01*
X11187363Y-33031640D01*
X11177317Y-33002827D01*
X11177068Y-33002017D01*
X11160423Y-32940117D01*
X11126755Y-32814909D01*
X11127916Y-32806032D01*
X11135016Y-32800574D01*
X11135715Y-32800409D01*
X11511049Y-32724794D01*
X11519836Y-32726520D01*
G37*
%TD.AperFunction*%
%TD*%
%TA.AperFunction,Conductor*%
%TO.N,5V*%
G36*
X10865865Y-30979769D02*
G01*
X10868221Y-30981296D01*
X11420280Y-31442053D01*
X11424436Y-31449986D01*
X11421766Y-31458533D01*
X11420315Y-31459989D01*
X10870416Y-31922641D01*
X10861880Y-31925345D01*
X10853931Y-31921220D01*
X10852548Y-31919170D01*
X10829245Y-31875179D01*
X10829242Y-31875176D01*
X10829242Y-31875175D01*
X10814705Y-31859485D01*
X10788056Y-31830720D01*
X10788052Y-31830717D01*
X10788051Y-31830716D01*
X10736466Y-31793699D01*
X10652655Y-31753715D01*
X10652652Y-31753714D01*
X10559315Y-31724843D01*
X10559302Y-31724839D01*
X10559296Y-31724838D01*
X10559290Y-31724837D01*
X10559286Y-31724836D01*
X10365599Y-31693356D01*
X10365588Y-31693355D01*
X10216165Y-31686511D01*
X10208057Y-31682709D01*
X10205000Y-31674823D01*
X10205000Y-31317357D01*
X10208427Y-31309084D01*
X10216351Y-31305662D01*
X10251701Y-31304612D01*
X10251708Y-31304611D01*
X10251709Y-31304611D01*
X10439899Y-31277266D01*
X10439904Y-31277265D01*
X10603982Y-31223531D01*
X10690202Y-31173593D01*
X10726485Y-31152579D01*
X10726486Y-31152578D01*
X10809270Y-31068832D01*
X10850215Y-30985136D01*
X10856928Y-30979212D01*
X10865865Y-30979769D01*
G37*
%TD.AperFunction*%
%TD*%
%TA.AperFunction,Conductor*%
%TO.N,5V*%
G36*
X10047776Y-31182940D02*
G01*
X10048511Y-31185458D01*
X10054229Y-31218378D01*
X10054230Y-31218379D01*
X10054231Y-31218382D01*
X10076812Y-31253505D01*
X10110578Y-31278154D01*
X10152361Y-31294113D01*
X10213123Y-31302422D01*
X10247303Y-31307097D01*
X10247306Y-31307097D01*
X10247312Y-31307098D01*
X10247316Y-31307097D01*
X10247317Y-31307098D01*
X10249344Y-31307089D01*
X10336332Y-31306731D01*
X10359055Y-31306251D01*
X10367397Y-31309502D01*
X10370997Y-31317701D01*
X10371000Y-31317948D01*
X10371000Y-31674051D01*
X10367573Y-31682324D01*
X10359300Y-31685751D01*
X10359053Y-31685748D01*
X10336350Y-31685269D01*
X10336313Y-31685269D01*
X10196093Y-31689217D01*
X10196086Y-31689218D01*
X10130236Y-31707833D01*
X10112545Y-31712835D01*
X10112544Y-31712835D01*
X10112542Y-31712836D01*
X10064179Y-31754246D01*
X10064179Y-31754247D01*
X10050773Y-31783998D01*
X10050772Y-31784002D01*
X10047963Y-31805774D01*
X10043505Y-31813541D01*
X10034862Y-31815881D01*
X10031839Y-31815069D01*
X9731343Y-31689217D01*
X9295766Y-31506791D01*
X9289460Y-31500435D01*
X9289495Y-31491480D01*
X9295766Y-31485208D01*
X10032466Y-31176667D01*
X10041419Y-31176633D01*
X10047776Y-31182940D01*
G37*
%TD.AperFunction*%
%TD*%
%TA.AperFunction,Conductor*%
%TO.N,GND*%
G36*
X4597776Y-38802940D02*
G01*
X4598511Y-38805458D01*
X4604229Y-38838378D01*
X4604230Y-38838379D01*
X4604231Y-38838382D01*
X4626812Y-38873505D01*
X4660578Y-38898154D01*
X4702361Y-38914113D01*
X4763123Y-38922422D01*
X4797303Y-38927097D01*
X4797306Y-38927097D01*
X4797312Y-38927098D01*
X4797316Y-38927097D01*
X4797317Y-38927098D01*
X4799344Y-38927089D01*
X4886332Y-38926731D01*
X4909055Y-38926251D01*
X4917397Y-38929502D01*
X4920997Y-38937701D01*
X4921000Y-38937948D01*
X4921000Y-39294051D01*
X4917573Y-39302324D01*
X4909300Y-39305751D01*
X4909053Y-39305748D01*
X4886350Y-39305269D01*
X4886313Y-39305269D01*
X4746093Y-39309217D01*
X4746086Y-39309218D01*
X4680236Y-39327833D01*
X4662545Y-39332835D01*
X4662544Y-39332835D01*
X4662542Y-39332836D01*
X4614179Y-39374246D01*
X4614179Y-39374247D01*
X4600773Y-39403998D01*
X4600772Y-39404002D01*
X4597963Y-39425774D01*
X4593505Y-39433541D01*
X4584862Y-39435881D01*
X4581839Y-39435069D01*
X4281343Y-39309217D01*
X3845766Y-39126791D01*
X3839460Y-39120435D01*
X3839495Y-39111480D01*
X3845766Y-39105208D01*
X4582466Y-38796667D01*
X4591419Y-38796633D01*
X4597776Y-38802940D01*
G37*
%TD.AperFunction*%
%TD*%
%TA.AperFunction,Conductor*%
%TO.N,GND*%
G36*
X11647168Y-27551081D02*
G01*
X11824581Y-27600735D01*
X11826214Y-27601327D01*
X11954636Y-27658958D01*
X11954844Y-27659054D01*
X12014123Y-27687485D01*
X12058699Y-27702323D01*
X12148380Y-27732178D01*
X12148383Y-27732178D01*
X12148385Y-27732179D01*
X12237144Y-27745272D01*
X12338108Y-27749527D01*
X12346228Y-27753300D01*
X12349314Y-27761217D01*
X12349314Y-28118908D01*
X12345887Y-28127181D01*
X12338238Y-28130591D01*
X12212998Y-28137283D01*
X12141007Y-28151153D01*
X12110628Y-28157006D01*
X12110625Y-28157006D01*
X12110625Y-28157007D01*
X12028960Y-28185973D01*
X12028958Y-28185973D01*
X11954844Y-28220945D01*
X11954669Y-28221026D01*
X11832058Y-28276434D01*
X11830425Y-28277030D01*
X11647195Y-28328873D01*
X11638302Y-28327828D01*
X11632752Y-28320800D01*
X11632540Y-28319926D01*
X11623898Y-28277030D01*
X11556465Y-27942308D01*
X11556465Y-27937691D01*
X11632547Y-27560036D01*
X11637541Y-27552605D01*
X11646328Y-27550879D01*
X11647168Y-27551081D01*
G37*
%TD.AperFunction*%
%TD*%
%TA.AperFunction,Conductor*%
%TO.N,CA6*%
G36*
X6446737Y-36109733D02*
G01*
X6446945Y-36110057D01*
X6527655Y-36240630D01*
X6528034Y-36241290D01*
X6584362Y-36347258D01*
X6666453Y-36490683D01*
X6666456Y-36490688D01*
X6666459Y-36490692D01*
X6666461Y-36490694D01*
X6730967Y-36573844D01*
X6819406Y-36668447D01*
X6822552Y-36676831D01*
X6819132Y-36684710D01*
X6693154Y-36810688D01*
X6684881Y-36814115D01*
X6677525Y-36811513D01*
X6587772Y-36738945D01*
X6587771Y-36738944D01*
X6501233Y-36704253D01*
X6501232Y-36704252D01*
X6418504Y-36699853D01*
X6332093Y-36711523D01*
X6331823Y-36711556D01*
X6185158Y-36727908D01*
X6182824Y-36727934D01*
X6042916Y-36715468D01*
X6034979Y-36711320D01*
X6032300Y-36702776D01*
X6032474Y-36701555D01*
X6032809Y-36699853D01*
X6106352Y-36326075D01*
X6111309Y-36318623D01*
X6430518Y-36106464D01*
X6439304Y-36104739D01*
X6446737Y-36109733D01*
G37*
%TD.AperFunction*%
%TD*%
%TA.AperFunction,Conductor*%
%TO.N,CA0*%
G36*
X10198280Y-34856205D02*
G01*
X10198945Y-34857100D01*
X10412281Y-35174950D01*
X10414046Y-35183729D01*
X10414036Y-35183781D01*
X10338399Y-35559226D01*
X10333405Y-35566659D01*
X10324618Y-35568385D01*
X10324020Y-35568248D01*
X10159749Y-35526087D01*
X10158581Y-35525721D01*
X10036512Y-35480343D01*
X10036257Y-35480244D01*
X10005207Y-35467866D01*
X9932938Y-35445813D01*
X9860671Y-35423760D01*
X9797266Y-35415066D01*
X9765565Y-35410720D01*
X9765544Y-35410718D01*
X9653221Y-35406429D01*
X9645084Y-35402689D01*
X9641967Y-35394738D01*
X9641967Y-35216639D01*
X9645394Y-35208366D01*
X9652558Y-35204992D01*
X9770315Y-35193788D01*
X9859375Y-35159739D01*
X9925076Y-35107731D01*
X9983348Y-35041643D01*
X10063435Y-34951751D01*
X10064735Y-34950503D01*
X10181816Y-34854569D01*
X10190386Y-34851977D01*
X10198280Y-34856205D01*
G37*
%TD.AperFunction*%
%TD*%
%TA.AperFunction,Conductor*%
%TO.N,CA1*%
G36*
X12504189Y-33566386D02*
G01*
X12505455Y-33567118D01*
X12680621Y-33683635D01*
X12823861Y-33778916D01*
X12828851Y-33786352D01*
X12828862Y-33786404D01*
X12902852Y-34163194D01*
X12901083Y-34171972D01*
X12893990Y-34176851D01*
X12608844Y-34242347D01*
X12608825Y-34242353D01*
X12357820Y-34338957D01*
X12296443Y-34364463D01*
X12287488Y-34364474D01*
X12281149Y-34358149D01*
X12281144Y-34358136D01*
X12213019Y-34193666D01*
X12213019Y-34184712D01*
X12217981Y-34179055D01*
X12314629Y-34123307D01*
X12370875Y-34053090D01*
X12394426Y-33973508D01*
X12401877Y-33884534D01*
X12407109Y-33809617D01*
X12407327Y-33808048D01*
X12433235Y-33683635D01*
X12434213Y-33680810D01*
X12488503Y-33571652D01*
X12495256Y-33565770D01*
X12504189Y-33566386D01*
G37*
%TD.AperFunction*%
%TD*%
%TA.AperFunction,Conductor*%
%TO.N,/~{CAAA}*%
G36*
X8508646Y-38796296D02*
G01*
X9059257Y-39026900D01*
X9246232Y-39105208D01*
X9252539Y-39111565D01*
X9252504Y-39120520D01*
X9246232Y-39126792D01*
X8509351Y-39435408D01*
X8500396Y-39435443D01*
X8494039Y-39429136D01*
X8493333Y-39426779D01*
X8484812Y-39381339D01*
X8460058Y-39338488D01*
X8424572Y-39302644D01*
X8424569Y-39302642D01*
X8363625Y-39264034D01*
X8296261Y-39237305D01*
X8296259Y-39237304D01*
X8180738Y-39217656D01*
X8173157Y-39212891D01*
X8171000Y-39206122D01*
X8171000Y-39026900D01*
X8174427Y-39018627D01*
X8181871Y-39015229D01*
X8213272Y-39013006D01*
X8213274Y-39013005D01*
X8213278Y-39013005D01*
X8213279Y-39013005D01*
X8267087Y-38998834D01*
X8334300Y-38981136D01*
X8424904Y-38929086D01*
X8477789Y-38866043D01*
X8492764Y-38804330D01*
X8498045Y-38797100D01*
X8506893Y-38795721D01*
X8508646Y-38796296D01*
G37*
%TD.AperFunction*%
%TD*%
%TA.AperFunction,Conductor*%
%TO.N,/~{CAAA}*%
G36*
X7964093Y-38726946D02*
G01*
X8066217Y-38754558D01*
X8067871Y-38755142D01*
X8154930Y-38793449D01*
X8156799Y-38794484D01*
X8224718Y-38840686D01*
X8286763Y-38882894D01*
X8384356Y-38951665D01*
X8498938Y-38997932D01*
X8574327Y-39011241D01*
X8574336Y-39011241D01*
X8574341Y-39011242D01*
X8655218Y-39015426D01*
X8663303Y-39019275D01*
X8666314Y-39027110D01*
X8666314Y-39205215D01*
X8662887Y-39213488D01*
X8655565Y-39216876D01*
X8531879Y-39226958D01*
X8432285Y-39256312D01*
X8432283Y-39256313D01*
X8354821Y-39298786D01*
X8286709Y-39349146D01*
X8236372Y-39387265D01*
X8235198Y-39388048D01*
X8115352Y-39457858D01*
X8113569Y-39458704D01*
X8041822Y-39485592D01*
X8040578Y-39485981D01*
X7983235Y-39500444D01*
X7963942Y-39505310D01*
X7955083Y-39504011D01*
X7949736Y-39496828D01*
X7949611Y-39496277D01*
X7947458Y-39485592D01*
X7873465Y-39118308D01*
X7873465Y-39113691D01*
X7949569Y-38735927D01*
X7954563Y-38728496D01*
X7963350Y-38726770D01*
X7964093Y-38726946D01*
G37*
%TD.AperFunction*%
%TD*%
%TA.AperFunction,Conductor*%
%TO.N,CA4*%
G36*
X4597960Y-34992863D02*
G01*
X4598668Y-34995227D01*
X4607187Y-35040660D01*
X4631940Y-35083510D01*
X4631942Y-35083512D01*
X4667428Y-35119356D01*
X4728376Y-35157966D01*
X4795737Y-35184694D01*
X4795738Y-35184694D01*
X4795740Y-35184695D01*
X4844848Y-35193047D01*
X4911263Y-35204343D01*
X4918843Y-35209108D01*
X4921000Y-35215877D01*
X4921000Y-35395099D01*
X4917573Y-35403372D01*
X4910127Y-35406770D01*
X4878721Y-35408994D01*
X4878720Y-35408994D01*
X4757703Y-35440863D01*
X4757696Y-35440865D01*
X4667095Y-35492913D01*
X4614211Y-35555956D01*
X4599235Y-35617667D01*
X4593954Y-35624899D01*
X4585106Y-35626278D01*
X4583345Y-35625700D01*
X3845766Y-35316791D01*
X3839460Y-35310435D01*
X3839495Y-35301480D01*
X3845766Y-35295208D01*
X4582650Y-34986590D01*
X4591603Y-34986556D01*
X4597960Y-34992863D01*
G37*
%TD.AperFunction*%
%TD*%
%TA.AperFunction,Conductor*%
%TO.N,CA4*%
G36*
X5149916Y-34917988D02*
G01*
X5155263Y-34925171D01*
X5155388Y-34925722D01*
X5231534Y-35303689D01*
X5231534Y-35308311D01*
X5155430Y-35686070D01*
X5150436Y-35693503D01*
X5141649Y-35695229D01*
X5140906Y-35695053D01*
X5038786Y-35667442D01*
X5037128Y-35666857D01*
X4950069Y-35628550D01*
X4948200Y-35627515D01*
X4818291Y-35539143D01*
X4818209Y-35539086D01*
X4720644Y-35470335D01*
X4720643Y-35470334D01*
X4606062Y-35424068D01*
X4530667Y-35410758D01*
X4530658Y-35410757D01*
X4449781Y-35406573D01*
X4441696Y-35402724D01*
X4438686Y-35394889D01*
X4438686Y-35216784D01*
X4442113Y-35208511D01*
X4449434Y-35205123D01*
X4573120Y-35195042D01*
X4672713Y-35165688D01*
X4750180Y-35123213D01*
X4818236Y-35072894D01*
X4868646Y-35034719D01*
X4869788Y-35033958D01*
X4989652Y-34964138D01*
X4991424Y-34963297D01*
X5063182Y-34936405D01*
X5064411Y-34936021D01*
X5141059Y-34916688D01*
X5149916Y-34917988D01*
G37*
%TD.AperFunction*%
%TD*%
%TA.AperFunction,Conductor*%
%TO.N,CA6*%
G36*
X4597960Y-32452863D02*
G01*
X4598668Y-32455227D01*
X4607187Y-32500660D01*
X4631940Y-32543510D01*
X4631942Y-32543512D01*
X4667428Y-32579356D01*
X4728376Y-32617966D01*
X4795737Y-32644694D01*
X4795738Y-32644694D01*
X4795740Y-32644695D01*
X4844848Y-32653047D01*
X4911263Y-32664343D01*
X4918843Y-32669108D01*
X4921000Y-32675877D01*
X4921000Y-32855099D01*
X4917573Y-32863372D01*
X4910127Y-32866770D01*
X4878721Y-32868994D01*
X4878720Y-32868994D01*
X4757703Y-32900863D01*
X4757696Y-32900865D01*
X4667095Y-32952913D01*
X4614211Y-33015956D01*
X4599235Y-33077667D01*
X4593954Y-33084899D01*
X4585106Y-33086278D01*
X4583345Y-33085700D01*
X3845766Y-32776791D01*
X3839460Y-32770435D01*
X3839495Y-32761480D01*
X3845766Y-32755208D01*
X4582650Y-32446590D01*
X4591603Y-32446556D01*
X4597960Y-32452863D01*
G37*
%TD.AperFunction*%
%TD*%
%TA.AperFunction,Conductor*%
%TO.N,CA2*%
G36*
X4597960Y-37532863D02*
G01*
X4598668Y-37535227D01*
X4607187Y-37580660D01*
X4631940Y-37623510D01*
X4631942Y-37623512D01*
X4667428Y-37659356D01*
X4728376Y-37697966D01*
X4795737Y-37724694D01*
X4795738Y-37724694D01*
X4795740Y-37724695D01*
X4844848Y-37733047D01*
X4911263Y-37744343D01*
X4918843Y-37749108D01*
X4921000Y-37755877D01*
X4921000Y-37935099D01*
X4917573Y-37943372D01*
X4910127Y-37946770D01*
X4878721Y-37948994D01*
X4878720Y-37948994D01*
X4757703Y-37980863D01*
X4757696Y-37980865D01*
X4667095Y-38032913D01*
X4614211Y-38095956D01*
X4599235Y-38157667D01*
X4593954Y-38164899D01*
X4585106Y-38166278D01*
X4583345Y-38165700D01*
X3845766Y-37856791D01*
X3839460Y-37850435D01*
X3839495Y-37841480D01*
X3845766Y-37835208D01*
X4582650Y-37526590D01*
X4591603Y-37526556D01*
X4597960Y-37532863D01*
G37*
%TD.AperFunction*%
%TD*%
%TA.AperFunction,Conductor*%
%TO.N,CA2*%
G36*
X6515280Y-37396205D02*
G01*
X6515945Y-37397100D01*
X6729281Y-37714950D01*
X6731046Y-37723729D01*
X6731036Y-37723781D01*
X6655399Y-38099226D01*
X6650405Y-38106659D01*
X6641618Y-38108385D01*
X6641020Y-38108248D01*
X6476749Y-38066087D01*
X6475581Y-38065721D01*
X6353512Y-38020343D01*
X6353257Y-38020244D01*
X6322207Y-38007866D01*
X6249938Y-37985813D01*
X6177671Y-37963760D01*
X6114266Y-37955066D01*
X6082565Y-37950720D01*
X6082544Y-37950718D01*
X5970221Y-37946429D01*
X5962084Y-37942689D01*
X5958967Y-37934738D01*
X5958967Y-37756639D01*
X5962394Y-37748366D01*
X5969558Y-37744992D01*
X6087315Y-37733788D01*
X6176375Y-37699739D01*
X6242076Y-37647731D01*
X6300348Y-37581643D01*
X6380435Y-37491751D01*
X6381735Y-37490503D01*
X6498816Y-37394569D01*
X6507386Y-37391977D01*
X6515280Y-37396205D01*
G37*
%TD.AperFunction*%
%TD*%
%TA.AperFunction,Conductor*%
%TO.N,CA3*%
G36*
X3058646Y-36256296D02*
G01*
X3609257Y-36486900D01*
X3796232Y-36565208D01*
X3802539Y-36571565D01*
X3802504Y-36580520D01*
X3796232Y-36586792D01*
X3059351Y-36895408D01*
X3050396Y-36895443D01*
X3044039Y-36889136D01*
X3043333Y-36886779D01*
X3034812Y-36841339D01*
X3010058Y-36798488D01*
X2974572Y-36762644D01*
X2974569Y-36762642D01*
X2913625Y-36724034D01*
X2846261Y-36697305D01*
X2846259Y-36697304D01*
X2730738Y-36677656D01*
X2723157Y-36672891D01*
X2721000Y-36666122D01*
X2721000Y-36486900D01*
X2724427Y-36478627D01*
X2731871Y-36475229D01*
X2763272Y-36473006D01*
X2763274Y-36473005D01*
X2763278Y-36473005D01*
X2763279Y-36473005D01*
X2817087Y-36458834D01*
X2884300Y-36441136D01*
X2974904Y-36389086D01*
X3027789Y-36326043D01*
X3042764Y-36264330D01*
X3048045Y-36257100D01*
X3056893Y-36255721D01*
X3058646Y-36256296D01*
G37*
%TD.AperFunction*%
%TD*%
%TA.AperFunction,Conductor*%
%TO.N,CA3*%
G36*
X2630093Y-36186946D02*
G01*
X2732217Y-36214558D01*
X2733871Y-36215142D01*
X2820930Y-36253449D01*
X2822799Y-36254484D01*
X2890718Y-36300686D01*
X2952763Y-36342894D01*
X3050356Y-36411665D01*
X3164938Y-36457932D01*
X3240327Y-36471241D01*
X3240336Y-36471241D01*
X3240341Y-36471242D01*
X3321218Y-36475426D01*
X3329303Y-36479275D01*
X3332314Y-36487110D01*
X3332314Y-36665215D01*
X3328887Y-36673488D01*
X3321565Y-36676876D01*
X3197879Y-36686958D01*
X3098285Y-36716312D01*
X3098283Y-36716313D01*
X3020821Y-36758786D01*
X2952709Y-36809146D01*
X2902372Y-36847265D01*
X2901198Y-36848048D01*
X2781352Y-36917858D01*
X2779569Y-36918704D01*
X2707822Y-36945592D01*
X2706578Y-36945981D01*
X2649235Y-36960444D01*
X2629942Y-36965310D01*
X2621083Y-36964011D01*
X2615736Y-36956828D01*
X2615611Y-36956277D01*
X2613458Y-36945592D01*
X2539465Y-36578308D01*
X2539465Y-36573691D01*
X2615569Y-36195927D01*
X2620563Y-36188496D01*
X2629350Y-36186770D01*
X2630093Y-36186946D01*
G37*
%TD.AperFunction*%
%TD*%
%TA.AperFunction,Conductor*%
%TO.N,CA5*%
G36*
X4596424Y-33723506D02*
G01*
X4597294Y-33727087D01*
X4599873Y-33759145D01*
X4599875Y-33759155D01*
X4614058Y-33809623D01*
X4614059Y-33809625D01*
X4636543Y-33850864D01*
X4636544Y-33850865D01*
X4670943Y-33888521D01*
X4670951Y-33888527D01*
X4710195Y-33914704D01*
X4710203Y-33914708D01*
X4752967Y-33930850D01*
X4782247Y-33934664D01*
X4790007Y-33939131D01*
X4792433Y-33946449D01*
X4789618Y-34126460D01*
X4786062Y-34134678D01*
X4780110Y-34137770D01*
X4731024Y-34147125D01*
X4731020Y-34147127D01*
X4661225Y-34191033D01*
X4661221Y-34191037D01*
X4613829Y-34262014D01*
X4613827Y-34262017D01*
X4600729Y-34307497D01*
X4597409Y-34345050D01*
X4593266Y-34352989D01*
X4584723Y-34355674D01*
X4581234Y-34354811D01*
X3845769Y-34046777D01*
X3839462Y-34040420D01*
X3839497Y-34031465D01*
X3845768Y-34025193D01*
X4581114Y-33717233D01*
X4590067Y-33717199D01*
X4596424Y-33723506D01*
G37*
%TD.AperFunction*%
%TD*%
%TA.AperFunction,Conductor*%
%TO.N,CA5*%
G36*
X14467414Y-32866310D02*
G01*
X15233020Y-33017772D01*
X15240470Y-33022740D01*
X15242227Y-33026979D01*
X15393709Y-33792684D01*
X15391952Y-33801465D01*
X15384502Y-33806433D01*
X15384044Y-33806514D01*
X15146366Y-33843784D01*
X15145617Y-33843876D01*
X14945877Y-33862123D01*
X14719651Y-33887250D01*
X14719647Y-33887250D01*
X14719645Y-33887251D01*
X14660785Y-33904658D01*
X14565509Y-33932835D01*
X14486923Y-33971743D01*
X14486918Y-33971746D01*
X14404227Y-34024927D01*
X14303031Y-34105391D01*
X14303030Y-34105392D01*
X14198474Y-34203460D01*
X14190095Y-34206620D01*
X14182197Y-34203199D01*
X14056804Y-34077806D01*
X14053377Y-34069533D01*
X14056547Y-34061525D01*
X14153368Y-33958393D01*
X14233216Y-33858360D01*
X14291992Y-33766428D01*
X14333356Y-33679335D01*
X14360967Y-33593820D01*
X14378484Y-33506622D01*
X14397876Y-33314127D01*
X14410305Y-33168480D01*
X14410384Y-33167808D01*
X14453573Y-32876074D01*
X14458175Y-32868393D01*
X14466860Y-32866215D01*
X14467414Y-32866310D01*
G37*
%TD.AperFunction*%
%TD*%
%TA.AperFunction,Conductor*%
%TO.N,CA7*%
G36*
X866361Y-37105759D02*
G01*
X1005514Y-37216728D01*
X1009845Y-37224565D01*
X1007882Y-37232471D01*
X894629Y-37398386D01*
X858538Y-37473723D01*
X834905Y-37543837D01*
X834902Y-37543852D01*
X815164Y-37676977D01*
X815729Y-37814936D01*
X815729Y-37815021D01*
X815080Y-38018256D01*
X814985Y-38019709D01*
X786222Y-38243655D01*
X781769Y-38251425D01*
X773127Y-38253770D01*
X772347Y-38253643D01*
X7062Y-38102300D01*
X-389Y-38097333D01*
X-2143Y-38093096D01*
X-153671Y-37327502D01*
X-151916Y-37318721D01*
X-144466Y-37313753D01*
X-143853Y-37313649D01*
X-21437Y-37296391D01*
X-20175Y-37296283D01*
X98799Y-37292600D01*
X100096Y-37292632D01*
X304184Y-37309422D01*
X304523Y-37309456D01*
X352189Y-37315012D01*
X433896Y-37318721D01*
X498130Y-37321637D01*
X498130Y-37321636D01*
X498133Y-37321637D01*
X612326Y-37298380D01*
X668463Y-37272151D01*
X725730Y-37233618D01*
X790024Y-37175758D01*
X850278Y-37107182D01*
X858312Y-37103230D01*
X866361Y-37105759D01*
G37*
%TD.AperFunction*%
%TD*%
%TA.AperFunction,Conductor*%
%TO.N,CA15*%
G36*
X781465Y-15088047D02*
G01*
X786433Y-15095497D01*
X786514Y-15095955D01*
X823784Y-15333633D01*
X823876Y-15334382D01*
X842123Y-15534122D01*
X867250Y-15760347D01*
X867251Y-15760354D01*
X902065Y-15878073D01*
X912835Y-15914489D01*
X951743Y-15993075D01*
X951745Y-15993078D01*
X1004927Y-16075773D01*
X1061278Y-16146642D01*
X1085391Y-16176967D01*
X1085392Y-16176968D01*
X1183460Y-16281525D01*
X1186620Y-16289904D01*
X1183199Y-16297802D01*
X1057806Y-16423195D01*
X1049533Y-16426622D01*
X1041525Y-16423452D01*
X938397Y-16326635D01*
X938393Y-16326632D01*
X892238Y-16289790D01*
X838360Y-16246783D01*
X746427Y-16188007D01*
X659334Y-16146643D01*
X659331Y-16146642D01*
X573823Y-16119032D01*
X486629Y-16101516D01*
X486615Y-16101514D01*
X294154Y-16082126D01*
X148504Y-16069695D01*
X147786Y-16069611D01*
X-143923Y-16026426D01*
X-151606Y-16021824D01*
X-153784Y-16013139D01*
X-153688Y-16012581D01*
X-2228Y-15246979D01*
X2740Y-15239529D01*
X6976Y-15237772D01*
X772686Y-15086290D01*
X781465Y-15088047D01*
G37*
%TD.AperFunction*%
%TD*%
%TA.AperFunction,Conductor*%
%TO.N,CA14*%
G36*
X781330Y-17628074D02*
G01*
X786298Y-17635524D01*
X786398Y-17636113D01*
X821345Y-17876641D01*
X821446Y-17877620D01*
X833468Y-18077267D01*
X833470Y-18077290D01*
X847338Y-18269274D01*
X847338Y-18269277D01*
X847339Y-18269279D01*
X884055Y-18417075D01*
X884056Y-18417078D01*
X913925Y-18483438D01*
X917649Y-18491711D01*
X964914Y-18570375D01*
X1036421Y-18664920D01*
X1036426Y-18664925D01*
X1123811Y-18761603D01*
X1126816Y-18770038D01*
X1123273Y-18777850D01*
X995869Y-18901321D01*
X987544Y-18904618D01*
X979628Y-18901363D01*
X888529Y-18813985D01*
X798291Y-18742028D01*
X798287Y-18742025D01*
X714514Y-18689945D01*
X634666Y-18654384D01*
X634661Y-18654382D01*
X556204Y-18631991D01*
X556201Y-18631990D01*
X476579Y-18619411D01*
X303778Y-18610297D01*
X111301Y-18601448D01*
X110240Y-18601350D01*
X-143784Y-18566322D01*
X-151512Y-18561797D01*
X-153776Y-18553134D01*
X-153664Y-18552461D01*
X-2216Y-17786968D01*
X2752Y-17779517D01*
X6988Y-17777762D01*
X772550Y-17626317D01*
X781330Y-17628074D01*
G37*
%TD.AperFunction*%
%TD*%
%TA.AperFunction,Conductor*%
%TO.N,CA13*%
G36*
X782144Y-20167911D02*
G01*
X787065Y-20175148D01*
X918847Y-20781848D01*
X918849Y-20781853D01*
X1082584Y-21313232D01*
X1131566Y-21463593D01*
X1130870Y-21472521D01*
X1124065Y-21478341D01*
X1124061Y-21478342D01*
X1124056Y-21478344D01*
X955426Y-21533134D01*
X946499Y-21532432D01*
X940935Y-21526320D01*
X893958Y-21407853D01*
X835599Y-21310984D01*
X835596Y-21310981D01*
X835595Y-21310979D01*
X769575Y-21241368D01*
X769572Y-21241366D01*
X769571Y-21241365D01*
X742464Y-21224183D01*
X695540Y-21194441D01*
X613167Y-21165657D01*
X613163Y-21165656D01*
X522128Y-21150457D01*
X522116Y-21150455D01*
X399465Y-21145845D01*
X312657Y-21142582D01*
X138669Y-21137429D01*
X85386Y-21135852D01*
X84229Y-21135760D01*
X-143664Y-21106235D01*
X-151429Y-21101774D01*
X-153764Y-21093129D01*
X-153638Y-21092356D01*
X-72031Y-20680777D01*
X-1832Y-20326730D01*
X3138Y-20319284D01*
X7374Y-20317530D01*
X773366Y-20166153D01*
X782144Y-20167911D01*
G37*
%TD.AperFunction*%
%TD*%
%TA.AperFunction,Conductor*%
%TO.N,CA15*%
G36*
X3118523Y-21017093D02*
G01*
X3852712Y-21325107D01*
X3859016Y-21331468D01*
X3858975Y-21340422D01*
X3852614Y-21346726D01*
X3852299Y-21346849D01*
X3117785Y-21622631D01*
X3108835Y-21622331D01*
X3102719Y-21615791D01*
X3102073Y-21613209D01*
X3099393Y-21592909D01*
X3099393Y-21592908D01*
X3079631Y-21548840D01*
X3047236Y-21509384D01*
X3047235Y-21509383D01*
X2984310Y-21460605D01*
X2984302Y-21460600D01*
X2911303Y-21422220D01*
X2902056Y-21418797D01*
X2830828Y-21392433D01*
X2830819Y-21392431D01*
X2778438Y-21379982D01*
X2771181Y-21374735D01*
X2769760Y-21365894D01*
X2771007Y-21362754D01*
X2859272Y-21209873D01*
X2866377Y-21204423D01*
X2870861Y-21204115D01*
X2872412Y-21204310D01*
X2962040Y-21194035D01*
X3037638Y-21155181D01*
X3086063Y-21094946D01*
X3086064Y-21094942D01*
X3086065Y-21094942D01*
X3099256Y-21056438D01*
X3099258Y-21056433D01*
X3102364Y-21026667D01*
X3106631Y-21018796D01*
X3115215Y-21016246D01*
X3118523Y-21017093D01*
G37*
%TD.AperFunction*%
%TD*%
%TA.AperFunction,Conductor*%
%TO.N,CA12*%
G36*
X781465Y-22708047D02*
G01*
X786433Y-22715497D01*
X786514Y-22715955D01*
X823784Y-22953633D01*
X823876Y-22954382D01*
X842123Y-23154122D01*
X867250Y-23380347D01*
X867251Y-23380354D01*
X902065Y-23498073D01*
X912835Y-23534489D01*
X951743Y-23613075D01*
X951745Y-23613078D01*
X1004927Y-23695773D01*
X1061278Y-23766642D01*
X1085391Y-23796967D01*
X1085392Y-23796968D01*
X1183460Y-23901525D01*
X1186620Y-23909904D01*
X1183199Y-23917802D01*
X1057806Y-24043195D01*
X1049533Y-24046622D01*
X1041525Y-24043452D01*
X938397Y-23946635D01*
X938393Y-23946632D01*
X892238Y-23909790D01*
X838360Y-23866783D01*
X746427Y-23808007D01*
X659334Y-23766643D01*
X659331Y-23766642D01*
X573823Y-23739032D01*
X486629Y-23721516D01*
X486615Y-23721514D01*
X294154Y-23702126D01*
X148504Y-23689695D01*
X147786Y-23689611D01*
X-143923Y-23646426D01*
X-151606Y-23641824D01*
X-153784Y-23633139D01*
X-153688Y-23632581D01*
X-2228Y-22866979D01*
X2740Y-22859529D01*
X6976Y-22857772D01*
X772686Y-22706290D01*
X781465Y-22708047D01*
G37*
%TD.AperFunction*%
%TD*%
%TA.AperFunction,Conductor*%
%TO.N,CA11*%
G36*
X3116646Y-26096296D02*
G01*
X3667257Y-26326900D01*
X3854232Y-26405208D01*
X3860539Y-26411565D01*
X3860504Y-26420520D01*
X3854232Y-26426792D01*
X3117351Y-26735408D01*
X3108396Y-26735443D01*
X3102039Y-26729136D01*
X3101333Y-26726779D01*
X3092812Y-26681339D01*
X3068058Y-26638488D01*
X3032572Y-26602644D01*
X3032569Y-26602642D01*
X2971625Y-26564034D01*
X2904261Y-26537305D01*
X2904259Y-26537304D01*
X2788738Y-26517656D01*
X2781157Y-26512891D01*
X2779000Y-26506122D01*
X2779000Y-26326900D01*
X2782427Y-26318627D01*
X2789871Y-26315229D01*
X2821272Y-26313006D01*
X2821274Y-26313005D01*
X2821278Y-26313005D01*
X2821279Y-26313005D01*
X2875087Y-26298834D01*
X2942300Y-26281136D01*
X3032904Y-26229086D01*
X3085789Y-26166043D01*
X3100764Y-26104330D01*
X3106045Y-26097100D01*
X3114893Y-26095721D01*
X3116646Y-26096296D01*
G37*
%TD.AperFunction*%
%TD*%
%TA.AperFunction,Conductor*%
%TO.N,CA10*%
G36*
X3116226Y-27452100D02*
G01*
X3849054Y-27676523D01*
X3855961Y-27682222D01*
X3856815Y-27691136D01*
X3851116Y-27698043D01*
X3850148Y-27698502D01*
X3115795Y-28006059D01*
X3106840Y-28006094D01*
X3100483Y-27999787D01*
X3100125Y-27998812D01*
X3093712Y-27978642D01*
X3093712Y-27978641D01*
X3065849Y-27954329D01*
X3065847Y-27954328D01*
X3065846Y-27954327D01*
X2975383Y-27925233D01*
X2948581Y-27922544D01*
X2868605Y-27914521D01*
X2790495Y-27913156D01*
X2782283Y-27909585D01*
X2779000Y-27901458D01*
X2779000Y-27723574D01*
X2782427Y-27715301D01*
X2789517Y-27711935D01*
X2830857Y-27707750D01*
X2945428Y-27669041D01*
X3033125Y-27608099D01*
X3085768Y-27534534D01*
X3101353Y-27460863D01*
X3106418Y-27453481D01*
X3115222Y-27451840D01*
X3116226Y-27452100D01*
G37*
%TD.AperFunction*%
%TD*%
%TA.AperFunction,Conductor*%
%TO.N,CA10*%
G36*
X2757093Y-27423946D02*
G01*
X2859217Y-27451558D01*
X2860871Y-27452142D01*
X2947930Y-27490449D01*
X2949799Y-27491484D01*
X3017718Y-27537686D01*
X3079763Y-27579894D01*
X3177356Y-27648665D01*
X3291938Y-27694932D01*
X3367327Y-27708241D01*
X3367336Y-27708241D01*
X3367341Y-27708242D01*
X3448218Y-27712426D01*
X3456303Y-27716275D01*
X3459314Y-27724110D01*
X3459314Y-27902215D01*
X3455887Y-27910488D01*
X3448565Y-27913876D01*
X3324879Y-27923958D01*
X3225285Y-27953312D01*
X3225283Y-27953313D01*
X3147821Y-27995786D01*
X3079709Y-28046146D01*
X3029372Y-28084265D01*
X3028198Y-28085048D01*
X2908352Y-28154858D01*
X2906569Y-28155704D01*
X2834822Y-28182592D01*
X2833578Y-28182981D01*
X2776235Y-28197444D01*
X2756942Y-28202310D01*
X2748083Y-28201011D01*
X2742736Y-28193828D01*
X2742611Y-28193277D01*
X2740458Y-28182592D01*
X2666465Y-27815308D01*
X2666465Y-27810691D01*
X2742569Y-27432927D01*
X2747563Y-27425496D01*
X2756350Y-27423770D01*
X2757093Y-27423946D01*
G37*
%TD.AperFunction*%
%TD*%
%TA.AperFunction,Conductor*%
%TO.N,GND*%
G36*
X2839697Y-28568171D02*
G01*
X2845247Y-28575199D01*
X2845459Y-28576073D01*
X2921534Y-28953689D01*
X2921534Y-28958311D01*
X2845452Y-29335961D01*
X2840458Y-29343394D01*
X2831671Y-29345120D01*
X2830829Y-29344917D01*
X2653420Y-29295264D01*
X2651783Y-29294671D01*
X2523395Y-29237056D01*
X2523125Y-29236931D01*
X2463886Y-29208519D01*
X2463881Y-29208517D01*
X2463877Y-29208515D01*
X2463873Y-29208513D01*
X2463869Y-29208512D01*
X2329619Y-29163821D01*
X2240853Y-29150727D01*
X2139893Y-29146472D01*
X2131772Y-29142699D01*
X2128686Y-29134782D01*
X2128686Y-28777091D01*
X2132113Y-28768818D01*
X2139761Y-28765408D01*
X2265001Y-28758716D01*
X2367370Y-28738994D01*
X2449038Y-28710027D01*
X2523250Y-28675009D01*
X2645945Y-28619562D01*
X2647569Y-28618969D01*
X2830805Y-28567126D01*
X2839697Y-28568171D01*
G37*
%TD.AperFunction*%
%TD*%
%TA.AperFunction,Conductor*%
%TO.N,CA12*%
G36*
X3118369Y-24827020D02*
G01*
X3853578Y-25135063D01*
X3859884Y-25141420D01*
X3859847Y-25150374D01*
X3853489Y-25156681D01*
X3853384Y-25156723D01*
X3117779Y-25449619D01*
X3108825Y-25449496D01*
X3102581Y-25443077D01*
X3101872Y-25440428D01*
X3097479Y-25410122D01*
X3076870Y-25366401D01*
X3045065Y-25328845D01*
X3045064Y-25328844D01*
X3045063Y-25328843D01*
X2987075Y-25286093D01*
X2987071Y-25286090D01*
X2921067Y-25254663D01*
X2849330Y-25232625D01*
X2800025Y-25224715D01*
X2792400Y-25220021D01*
X2790279Y-25211638D01*
X2813545Y-25034917D01*
X2818023Y-25027163D01*
X2825280Y-25024746D01*
X2840539Y-25024922D01*
X2842961Y-25024951D01*
X2842961Y-25024950D01*
X2842964Y-25024951D01*
X2951049Y-25003872D01*
X3035082Y-24959099D01*
X3085896Y-24898730D01*
X3099237Y-24862586D01*
X3102227Y-24836478D01*
X3106572Y-24828651D01*
X3115181Y-24826188D01*
X3118369Y-24827020D01*
G37*
%TD.AperFunction*%
%TD*%
M02*
