M48
; DRILL file {KiCad 9.0.2} date 2025-08-23T16:17:05+0200
; FORMAT={-:-/ absolute / inch / decimal}
; #@! TF.CreationDate,2025-08-23T16:17:05+02:00
; #@! TF.GenerationSoftware,Kicad,Pcbnew,9.0.2
; #@! TF.FileFunction,Plated,1,2,PTH
FMAT,2
INCH
; #@! TA.AperFunction,Plated,PTH,ViaDrill
T1C0.0157
; #@! TA.AperFunction,Plated,PTH,ComponentDrill
T2C0.0394
%
G90
G05
T1
X0.03Y-1.25
X0.075Y-1.85
X0.075Y-3.62
X0.08Y0.02
X0.08Y-0.0583
X0.09Y-3.225
X0.1Y-2.855
X0.1Y-3.565
X0.105Y-0.67
X0.1076Y-1.13
X0.1093Y-0.72
X0.11Y-0.335
X0.11Y-0.4476
X0.11Y-1.575
X0.1119Y-0.285
X0.1125Y-2.7625
X0.115Y0.0393
X0.1219Y-3.495
X0.1219Y-3.1214
X0.1233Y-1.3414
X0.125Y-2.66
X0.135Y-2.42
X0.14Y-0.745
X0.1407Y0.12
X0.145Y-0.37
X0.145Y-0.9
X0.145Y-0.955
X0.145Y-1.0818
X0.1465Y-1.0365
X0.1467Y-2.5077
X0.1467Y-1.455
X0.15Y-2.565
X0.155Y-3.265
X0.155Y-3.625
X0.155Y-2.915
X0.1559Y-1.7357
X0.16Y-1.955
X0.165Y-1.89
X0.1692Y-2.0189
X0.17Y-2.145
X0.17Y-2.31
X0.1875Y-3.0822
X0.1877Y-1.1595
X0.1978Y-2.3657
X0.2015Y-2.7147
X0.2024Y-0.1893
X0.2028Y-0.9662
X0.2028Y-2.0402
X0.2028Y-2.4548
X0.2029Y-2.8102
X0.2029Y-3.1609
X0.2043Y-0.1104
X0.2074Y-0.88
X0.2089Y-3.44
X0.21Y-3.32
X0.21Y-3.5251
X0.211Y-0.6144
X0.2126Y-0.515
X0.2132Y-0.2683
X0.2186Y-2.4
X0.2187Y-2.7501
X0.2187Y-3.1062
X0.23Y-0.555
X0.2385Y-0.9074
X0.24Y-3.4711
X0.2402Y-0.2092
X0.2459Y0.0422
X0.2476Y0.1274
X0.2489Y-0.1274
X0.2785Y0.0676
X0.28Y-1.5736
X0.28Y-0.0655
X0.28Y-1.51
X0.2848Y-1.6589
X0.2895Y-1.698
X0.3032Y-1.5418
X0.3076Y-1.255
X0.31Y-1.4145
X0.3106Y-3.3891
X0.3131Y0.0047
X0.3261Y0.0421
X0.3331Y-0.7799
X0.335Y-0.7106
X0.3368Y-2.8288
X0.3368Y-3.0205
X0.3378Y-0.3359
X0.3396Y-3.6226
X0.34Y-1.2862
X0.3407Y-2.8995
X0.3421Y-0.1538
X0.3428Y-3.1169
X0.345Y-0.955
X0.345Y-1.015
X0.3456Y-0.5046
X0.3483Y-1.0566
X0.3495Y-1.4055
X0.3509Y-1.3641
X0.3521Y-0.2982
X0.3529Y-0.8605
X0.354Y-0.665
X0.3548Y0.0944
X0.355Y-3.22
X0.3555Y-3.5474
X0.3586Y-2.9877
X0.36Y-1.455
X0.3643Y-1.2276
X0.365Y-0.095
X0.3658Y-3.375
X0.3671Y-0.2596
X0.37Y0.0549
X0.371Y-0.0157
X0.384Y-1.7939
X0.384Y-2.5511
X0.385Y-2.9
X0.3924Y-0.42
X0.3958Y-2.655
X0.3981Y0.1834
X0.3997Y-1.8301
X0.4Y-2.45
X0.4Y-2.51
X0.4005Y-2.8638
X0.4007Y-3.2801
X0.4028Y-3.5633
X0.405Y-0.1793
X0.405Y-0.245
X0.4056Y-0.12
X0.4089Y-0.3539
X0.4137Y-1.33
X0.4149Y-2.8153
X0.4176Y-3.1623
X0.4176Y-3.0445
X0.42Y-1.97
X0.4206Y-3.48
X0.425Y-1.8876
X0.425Y-3.6548
X0.4254Y-3.2022
X0.4258Y-0.6499
X0.428Y-0.978
X0.4287Y-2.7784
X0.43Y-3.245
X0.43Y-3.595
X0.4311Y-1.043
X0.4324Y-2.4045
X0.4324Y-2.3243
X0.4372Y-2.6472
X0.4405Y-3.3448
X0.4445Y-0.605
X0.4516Y-0.8252
X0.455Y-1.8574
X0.4567Y-2.7201
X0.4569Y-2.034
X0.4588Y-1.53
X0.46Y-0.275
X0.46Y-1.7851
X0.4612Y-2.5754
X0.4616Y-2.801
X0.465Y-0.35
X0.465Y-0.4476
X0.4684Y-2.505
X0.469Y-3.5296
X0.47Y-0.86
X0.4702Y-2.8854
X0.4704Y-3.2362
X0.4736Y0.0954
X0.4746Y-3.0745
X0.4753Y-1.7179
X0.4792Y-2.6868
X0.4795Y-3.4348
X0.48Y-1.965
X0.4833Y-3.3546
X0.49Y-1.67
X0.5Y-1.445
X0.5025Y0.1825
X0.5055Y-0.009
X0.5167Y0.0545
X0.5178Y-1.55
X0.5189Y-3.435
X0.5225Y0.1025
X0.5305Y-1.35
X0.535Y-1.505
X0.548Y-1.71
X0.5587Y-1.1531
X0.56Y-1.415
X0.5716Y-0.3255
X0.5724Y-3.1169
X0.574Y-1.11
X0.575Y-0.2326
X0.575Y-0.6893
X0.575Y-3.61
X0.5751Y-0.4751
X0.5751Y-0.6088
X0.5755Y-1.5698
X0.5826Y-2.4399
X0.5831Y-2.2818
X0.585Y-3.47
X0.595Y-2.7776
X0.595Y-2.955
X0.5981Y-1.1563
X0.5989Y-2.3296
X0.5993Y-2.9143
X0.6005Y-0.9786
X0.61Y-0.935
X0.6116Y-3.0701
X0.6116Y-3.1334
X0.6139Y-2.4044
X0.616Y-0.2445
X0.6175Y-3.2425
X0.618Y-1.9755
X0.62Y-0.605
X0.6245Y-2.5952
X0.6305Y0.0079
X0.6341Y-1.414
X0.6342Y-1.7849
X0.635Y0.074
X0.635Y-3.3917
X0.645Y-3.63
X0.647Y-3.502
X0.65Y-3.1792
X0.6509Y0.1122
X0.651Y-0.0281
X0.6576Y-2.515
X0.6576Y-2.5556
X0.66Y-0.665
X0.66Y-3.5407
X0.665Y-0.0694
X0.6696Y-3.088
X0.6711Y-2.745
X0.6711Y-3.0089
X0.675Y-2.14
X0.6826Y-3.4074
X0.6881Y-2.235
X0.6892Y-1.2216
X0.695Y-0.755
X0.7Y0.145
X0.7011Y0.0413
X0.7016Y-2.6366
X0.7038Y-2.273
X0.705Y-2.94
X0.7082Y-0.073
X0.7093Y-3.0543
X0.71Y-0.43
X0.713Y-2.8934
X0.7149Y-3.1231
X0.715Y-0.505
X0.7156Y-2.0944
X0.7226Y-0.865
X0.7245Y-1.7629
X0.74Y-1.85
X0.7418Y0.0118
X0.7443Y-1.725
X0.7476Y-0.795
X0.7499Y-2.0399
X0.7499Y-2.67
X0.7605Y-1.5045
X0.7639Y-0.33
X0.785Y-2.78
X0.785Y-3.14
X0.785Y-3.5126
X0.79Y-0.45
X0.79Y-0.665
X0.7936Y-1.0825
X0.8001Y-3.2451
X0.8043Y-1.6845
X0.815Y-0.21
X0.82Y-0.135
X0.82Y-2.96
X0.8231Y-1.165
X0.83Y-2.73
X0.84Y-0.52
X0.8469Y-0.7785
X0.85Y-0.34
X0.8551Y-0.0678
T2
X0.0Y0.0
X0.0Y-0.1
X0.0Y-0.2
X0.0Y-0.3
X0.0Y-0.4
X0.0Y-0.5
X0.0Y-0.6
X0.0Y-0.7
X0.0Y-0.8
X0.0Y-0.9
X0.0Y-1.0
X0.0Y-1.1
X0.0Y-1.2
X0.0Y-1.3
X0.0Y-1.4
X0.0Y-1.5
X0.0Y-1.6
X0.0Y-1.7
X0.0Y-1.8
X0.0Y-1.9
X0.0Y-2.0
X0.0Y-2.1
X0.0Y-2.2
X0.0Y-2.3
X0.0Y-2.4
X0.0Y-2.5
X0.0Y-2.6
X0.0Y-2.7
X0.0Y-2.8
X0.0Y-2.9
X0.0Y-3.0
X0.0Y-3.1
X0.0Y-3.2
X0.0Y-3.3
X0.0Y-3.4
X0.0Y-3.5
X0.9Y0.0
X0.9Y-0.1
X0.9Y-0.2
X0.9Y-0.3
X0.9Y-0.4
X0.9Y-0.5
X0.9Y-0.6
X0.9Y-0.7
X0.9Y-0.8
X0.9Y-0.9
X0.9Y-1.0
X0.9Y-1.1
X0.9Y-1.2
X0.9Y-1.3
X0.9Y-1.4
X0.9Y-1.5
X0.9Y-1.6
X0.9Y-1.7
X0.9Y-1.8
X0.9Y-1.9
X0.9Y-2.0
X0.9Y-2.1
X0.9Y-2.2
X0.9Y-2.3
X0.9Y-2.4
X0.9Y-2.5
X0.9Y-2.6
X0.9Y-2.7
X0.9Y-2.8
X0.9Y-2.9
X0.9Y-3.0
X0.9Y-3.1
X0.9Y-3.2
X0.9Y-3.3
X0.9Y-3.4
X0.9Y-3.5
M30
