M48
; DRILL file {KiCad 7.0.5} date Mon Jan 22 11:39:16 2024
; FORMAT={-:-/ absolute / inch / decimal}
; #@! TF.CreationDate,2024-01-22T11:39:16+02:00
; #@! TF.GenerationSoftware,Kicad,Pcbnew,7.0.5
; #@! TF.FileFunction,Plated,1,2,PTH
FMAT,2
INCH
; #@! TA.AperFunction,Plated,PTH,ViaDrill
T1C0.0157
; #@! TA.AperFunction,Plated,PTH,ComponentDrill
T2C0.0394
%
G90
G05
T1
X4.6011Y-2.8249
X4.62Y-3.15
X4.62Y-3.615
X4.62Y-3.07
X4.6361Y-2.1588
X4.6361Y-2.235
X4.6868Y-3.1
X4.7119Y-2.7919
X4.7338Y-3.542
X4.7349Y-3.4672
X4.7374Y-2.2595
X4.7374Y-2.53
X4.7374Y-2.6115
X4.7374Y-2.8719
X4.74Y-3.26
X4.74Y-3.365
X4.7426Y-3.02
X4.7474Y-3.1833
X4.7624Y-3.515
X4.765Y-2.955
X4.775Y-2.19
X4.78Y-3.56
X4.7926Y-2.7447
X4.8144Y-2.4152
X4.8276Y-2.84
X4.8276Y-3.305
X4.8276Y-3.48
X4.8383Y-2.5518
X4.84Y-2.17
X4.845Y-3.06
X4.845Y-3.15
X4.87Y-2.06
X4.87Y-2.635
X4.895Y-3.305
X4.92Y-3.06
X4.92Y-3.185
X4.925Y-2.64
X4.935Y-2.345
X4.935Y-2.48
X4.945Y-2.9
X4.955Y-2.84
X4.96Y-3.3
X4.97Y-2.275
X4.985Y-2.87
X4.9874Y-3.09
X5.0174Y-2.82
X5.02Y-3.57
X5.03Y-2.53
T2
X4.5Y-2.1
X4.5Y-2.2
X4.5Y-2.3
X4.5Y-2.4
X4.5Y-2.5
X4.5Y-2.6
X4.5Y-2.7
X4.5Y-2.8
X4.5Y-2.9
X4.5Y-3.0
X4.5Y-3.1
X4.5Y-3.2
X4.5Y-3.3
X4.5Y-3.4
X4.5Y-3.5
X4.5Y-3.6
X5.1Y-2.1
X5.1Y-2.2
X5.1Y-2.3
X5.1Y-2.4
X5.1Y-2.5
X5.1Y-2.6
X5.1Y-2.7
X5.1Y-2.8
X5.1Y-2.9
X5.1Y-3.0
X5.1Y-3.1
X5.1Y-3.2
X5.1Y-3.3
X5.1Y-3.4
X5.1Y-3.5
X5.1Y-3.6
T0
M30
