M48
; DRILL file {KiCad 7.0.5} date Tue Feb 13 10:15:44 2024
; FORMAT={-:-/ absolute / inch / decimal}
; #@! TF.CreationDate,2024-02-13T10:15:44+02:00
; #@! TF.GenerationSoftware,Kicad,Pcbnew,7.0.5
; #@! TF.FileFunction,Plated,1,2,PTH
FMAT,2
INCH
; #@! TA.AperFunction,Plated,PTH,ViaDrill
T1C0.0157
; #@! TA.AperFunction,Plated,PTH,ComponentDrill
T2C0.0394
%
G90
G05
T1
X0.2721Y-5.9933
X0.3031Y-5.8417
X0.4087Y-5.724
X0.4585Y-5.6581
X0.5363Y-3.4591
X0.6Y-1.54
X0.6Y-1.3
X0.6Y-1.76
X0.6Y-3.9
X0.75Y-4.075
X0.7548Y-5.5302
X0.7812Y-5.4
X0.8Y-2.17
X0.8Y-2.5477
X0.8Y-2.85
X0.8Y-3.3
X0.8Y-3.59
X1.0Y-2.02
X1.0Y-2.17
X1.0116Y-1.0008
X1.0199Y-4.0943
X1.18Y-1.96
X1.1886Y-0.8582
X1.1935Y-3.8108
X1.2286Y-0.8101
X1.2791Y-3.4012
X1.2921Y-2.6976
X1.3128Y-3.3288
X1.32Y-5.24
X1.35Y-0.6
X1.35Y-0.89
X1.35Y-1.09
X1.35Y-1.3
X1.35Y-3.04
X1.35Y-3.58
X1.35Y-3.79
X1.35Y-4.09
X1.35Y-4.3
X1.35Y-2.02
X1.38Y-5.3
X1.41Y-2.44
X1.48Y-5.4
X1.48Y-6.1
X1.4926Y-3.8712
X1.5968Y-3.2985
X1.6064Y-3.1898
X1.6287Y-3.7963
X1.6387Y-0.5042
X1.64Y-2.16
X1.6535Y-4.8095
X1.6815Y-4.7627
X1.7051Y-4.8531
X1.7335Y-5.0432
X1.7466Y-5.1697
X1.77Y-2.16
X1.8094Y-3.365
X1.8777Y-1.7991
X1.89Y-2.59
X1.9Y-4.6084
X1.9036Y-5.3183
X1.909Y-4.886
X1.9304Y-1.8589
X2.1074Y-1.6652
X2.14Y-4.15
X2.1464Y-1.1697
X2.1506Y-1.668
X2.1878Y-2.1681
X2.2453Y-1.8004
X2.25Y-4.15
X2.25Y-4.99
X2.25Y-5.1
X2.2877Y-0.1909
X2.2989Y-4.413
X2.364Y-4.1189
X2.38Y-2.59
X2.3863Y-2.1229
X2.3938Y-2.0003
X2.3983Y-6.2197
X2.4431Y-5.034
X2.4431Y-4.894
X2.5023Y-5.1174
X2.5425Y-4.22
X2.5952Y-4.2164
X2.6782Y-1.3554
X2.6994Y-2.0954
X2.7397Y-4.6361
X2.75Y-0.6
X2.76Y-2.49
X2.9234Y-0.859
X3.02Y-4.3
X3.0241Y-0.8503
X3.0353Y-1.4575
X3.0585Y-0.9671
X3.1477Y-1.6166
X3.1513Y-3.0243
X3.22Y-2.41
X3.22Y-2.49
X3.27Y-4.3
X3.272Y-4.4003
X3.2721Y-4.5346
X3.3521Y-5.0974
X3.6113Y-5.3641
X3.62Y-1.9
X3.6269Y-2.0989
X3.64Y-1.6
X3.655Y-2.705
X3.7Y-1.52
X3.71Y-1.78
X3.71Y-1.89
X3.7215Y-4.4865
X3.73Y-0.98
X3.73Y-1.19
X3.73Y-1.3
X3.73Y-2.05
X3.74Y-1.58
X3.77Y-2.0003
X3.9058Y-1.6828
X3.9242Y-4.8876
X4.0581Y-1.3028
X4.0915Y-5.3831
X4.0977Y-4.9146
T2
X0.0Y0.0
X0.0Y-0.1
X0.0Y-0.2
X0.0Y-0.3
X0.0Y-0.4
X0.0Y-0.5
X0.0Y-0.6
X0.0Y-0.7
X0.0Y-0.8
X0.0Y-0.9
X0.0Y-1.0
X0.0Y-1.1
X0.0Y-1.2
X0.0Y-1.3
X0.0Y-1.4
X0.0Y-1.5
X0.0Y-1.6
X0.0Y-1.7
X0.0Y-1.8
X0.0Y-1.9
X0.0Y-4.8
X0.0Y-4.9
X0.0Y-5.0
X0.0Y-5.1
X0.0Y-5.2
X0.0Y-5.3
X0.0Y-5.4
X0.0Y-5.5
X0.0Y-5.6
X0.0Y-5.7
X0.0Y-5.8
X0.0Y-5.9
X0.0Y-6.0
X0.0Y-6.1
X0.0Y-6.2
X0.0Y-6.3
X0.0Y-6.4
X0.0Y-6.5
X0.0Y-6.6
X0.0Y-6.7
X0.05Y-2.5
X0.05Y-4.2
X0.15Y-2.5
X0.15Y-4.2
X0.25Y-2.5
X0.25Y-4.2
X0.35Y-2.5
X0.35Y-4.2
X0.45Y-2.5
X0.45Y-4.2
X0.55Y-2.5
X0.55Y-4.2
X0.65Y-2.5
X0.65Y-4.2
X0.75Y-2.5
X0.75Y-4.2
X0.85Y-2.5
X0.85Y-4.2
X0.95Y-2.5
X0.95Y-4.2
X1.05Y-2.5
X1.05Y-4.2
X1.15Y-2.5
X1.15Y-4.2
X1.25Y-2.5
X1.25Y-4.2
X1.35Y-2.5
X1.35Y-4.2
X1.45Y-2.5
X1.45Y-4.2
X1.55Y-2.5
X1.55Y-4.2
X1.65Y-2.5
X1.65Y-4.2
X1.75Y-2.5
X1.75Y-4.2
X1.8Y0.0
X1.8Y-0.1
X1.8Y-0.2
X1.8Y-0.3
X1.8Y-0.4
X1.8Y-0.5
X1.8Y-0.6
X1.8Y-0.7
X1.8Y-0.8
X1.8Y-0.9
X1.8Y-1.0
X1.8Y-1.1
X1.8Y-1.2
X1.8Y-1.3
X1.8Y-1.4
X1.8Y-1.5
X1.8Y-1.6
X1.8Y-1.7
X1.8Y-1.8
X1.8Y-1.9
X1.8Y-4.8
X1.8Y-4.9
X1.8Y-5.0
X1.8Y-5.1
X1.8Y-5.2
X1.8Y-5.3
X1.8Y-5.4
X1.8Y-5.5
X1.8Y-5.6
X1.8Y-5.7
X1.8Y-5.8
X1.8Y-5.9
X1.8Y-6.0
X1.8Y-6.1
X1.8Y-6.2
X1.8Y-6.3
X1.8Y-6.4
X1.8Y-6.5
X1.8Y-6.6
X1.8Y-6.7
X1.85Y-2.5
X1.85Y-4.2
X1.95Y-2.5
X1.95Y-4.2
X2.0Y0.0
X2.0Y-0.1
X2.0Y-0.2
X2.0Y-0.3
X2.0Y-0.4
X2.0Y-0.5
X2.0Y-0.6
X2.0Y-0.7
X2.0Y-0.8
X2.0Y-0.9
X2.0Y-1.0
X2.0Y-1.1
X2.0Y-1.2
X2.0Y-1.3
X2.0Y-1.4
X2.0Y-1.5
X2.0Y-1.6
X2.0Y-1.7
X2.0Y-1.8
X2.0Y-1.9
X2.0Y-4.8
X2.0Y-4.9
X2.0Y-5.0
X2.0Y-5.1
X2.0Y-5.2
X2.0Y-5.3
X2.0Y-5.4
X2.0Y-5.5
X2.0Y-5.6
X2.0Y-5.7
X2.0Y-5.8
X2.0Y-5.9
X2.0Y-6.0
X2.0Y-6.1
X2.0Y-6.2
X2.0Y-6.3
X2.0Y-6.4
X2.0Y-6.5
X2.0Y-6.6
X2.0Y-6.7
X2.45Y-2.4
X2.45Y-2.5
X2.45Y-2.6
X2.45Y-2.7
X2.45Y-2.8
X2.45Y-2.9
X2.45Y-3.0
X2.45Y-3.1
X2.45Y-3.2
X2.45Y-3.3
X2.45Y-3.4
X2.45Y-3.5
X2.45Y-3.6
X2.45Y-3.7
X2.45Y-3.8
X2.45Y-3.9
X2.45Y-4.0
X2.45Y-4.1
X2.45Y-4.2
X2.45Y-4.3
X3.35Y-2.4
X3.35Y-2.5
X3.35Y-2.6
X3.35Y-2.7
X3.35Y-2.8
X3.35Y-2.9
X3.35Y-3.0
X3.35Y-3.1
X3.35Y-3.2
X3.35Y-3.3
X3.35Y-3.4
X3.35Y-3.5
X3.35Y-3.6
X3.35Y-3.7
X3.35Y-3.8
X3.35Y-3.9
X3.35Y-4.0
X3.35Y-4.1
X3.35Y-4.2
X3.35Y-4.3
X3.8Y0.0
X3.8Y-0.1
X3.8Y-0.2
X3.8Y-0.3
X3.8Y-0.4
X3.8Y-0.5
X3.8Y-0.6
X3.8Y-0.7
X3.8Y-0.8
X3.8Y-0.9
X3.8Y-1.0
X3.8Y-1.1
X3.8Y-1.2
X3.8Y-1.3
X3.8Y-1.4
X3.8Y-1.5
X3.8Y-1.6
X3.8Y-1.7
X3.8Y-1.8
X3.8Y-1.9
X3.8Y-3.1
X3.8Y-3.2
X3.8Y-3.3
X3.8Y-3.4
X3.8Y-3.5
X3.8Y-3.6
X3.8Y-4.8
X3.8Y-4.9
X3.8Y-5.0
X3.8Y-5.1
X3.8Y-5.2
X3.8Y-5.3
X3.8Y-5.4
X3.8Y-5.5
X3.8Y-5.6
X3.8Y-5.7
X3.8Y-5.8
X3.8Y-5.9
X3.8Y-6.0
X3.8Y-6.1
X3.8Y-6.2
X3.8Y-6.3
X3.8Y-6.4
X3.8Y-6.5
X3.8Y-6.6
X3.8Y-6.7
X4.0Y0.0
X4.0Y-0.1
X4.0Y-0.2
X4.0Y-0.3
X4.0Y-0.4
X4.0Y-0.5
X4.0Y-0.6
X4.0Y-0.7
X4.0Y-0.8
X4.0Y-0.9
X4.0Y-1.0
X4.0Y-1.1
X4.0Y-1.2
X4.0Y-1.3
X4.0Y-1.4
X4.0Y-1.5
X4.0Y-1.6
X4.0Y-1.7
X4.0Y-1.8
X4.0Y-1.9
X4.0Y-2.0
X4.0Y-2.1
X4.0Y-2.2
X4.0Y-2.3
X4.0Y-2.4
X4.0Y-2.5
X4.0Y-2.6
X4.0Y-2.7
X4.0Y-2.8
X4.0Y-2.9
X4.0Y-3.0
X4.0Y-3.1
X4.0Y-3.6
X4.0Y-3.7
X4.0Y-3.8
X4.0Y-3.9
X4.0Y-4.0
X4.0Y-4.1
X4.0Y-4.2
X4.0Y-4.3
X4.0Y-4.4
X4.0Y-4.5
X4.0Y-4.6
X4.0Y-4.7
X4.0Y-4.8
X4.0Y-4.9
X4.0Y-5.0
X4.0Y-5.1
X4.0Y-5.2
X4.0Y-5.3
X4.0Y-5.4
X4.0Y-5.5
X4.0Y-5.6
X4.0Y-5.7
X4.0Y-5.8
X4.0Y-5.9
X4.0Y-6.0
X4.0Y-6.1
X4.0Y-6.2
X4.0Y-6.3
X4.0Y-6.4
X4.0Y-6.5
X4.0Y-6.6
X4.0Y-6.7
T0
M30
