M48
; DRILL file {KiCad 8.0.4} date 2024-08-21T09:07:33+0200
; FORMAT={-:-/ absolute / inch / decimal}
; #@! TF.CreationDate,2024-08-21T09:07:33+02:00
; #@! TF.GenerationSoftware,Kicad,Pcbnew,8.0.4
; #@! TF.FileFunction,Plated,1,2,PTH
FMAT,2
INCH
; #@! TA.AperFunction,Plated,PTH,ViaDrill
T1C0.0157
; #@! TA.AperFunction,Plated,PTH,ComponentDrill
T2C0.0394
%
G90
G05
T1
X0.11Y-0.5374
X0.1288Y-1.1033
X0.14Y-0.39
X0.1405Y-0.2417
X0.165Y-0.965
X0.185Y-0.2831
X0.235Y-0.2
X0.275Y-0.305
X0.275Y-0.91
X0.295Y-0.515
X0.295Y-0.635
X0.2981Y-0.4419
X0.315Y-0.295
X0.3432Y-0.785
X0.345Y-0.565
X0.3755Y-0.43
X0.385Y-0.25
X0.385Y-0.635
X0.44Y-0.91
X0.44Y-0.21
X0.4417Y-0.9688
X0.455Y-0.35
X0.55Y-0.55
T2
X0.0Y0.0
X0.0Y-0.1
X0.0Y-0.2
X0.0Y-0.3
X0.0Y-0.4
X0.0Y-0.5
X0.0Y-0.6
X0.0Y-0.7
X0.0Y-0.8
X0.0Y-0.9
X0.0Y-1.0
X0.0Y-1.1
X0.6Y0.0
X0.6Y-0.1
X0.6Y-0.2
X0.6Y-0.3
X0.6Y-0.4
X0.6Y-0.5
X0.6Y-0.6
X0.6Y-0.7
X0.6Y-0.8
X0.6Y-0.9
X0.6Y-1.0
X0.6Y-1.1
M30
