%TF.GenerationSoftware,KiCad,Pcbnew,8.0.4*%
%TF.CreationDate,2024-08-08T21:12:42+02:00*%
%TF.ProjectId,Pico Wide GPIO Connect,5069636f-2057-4696-9465-204750494f20,rev?*%
%TF.SameCoordinates,PX1c76608PY1287e58*%
%TF.FileFunction,Soldermask,Bot*%
%TF.FilePolarity,Negative*%
%FSLAX46Y46*%
G04 Gerber Fmt 4.6, Leading zero omitted, Abs format (unit mm)*
G04 Created by KiCad (PCBNEW 8.0.4) date 2024-08-08 21:12:42*
%MOMM*%
%LPD*%
G01*
G04 APERTURE LIST*
%ADD10C,3.330000*%
%ADD11R,1.650000X1.650000*%
%ADD12C,1.650000*%
%ADD13C,2.475000*%
%ADD14C,4.000000*%
%ADD15C,1.470000*%
%ADD16C,2.500000*%
%ADD17R,1.700000X1.700000*%
%ADD18O,1.700000X1.700000*%
G04 APERTURE END LIST*
D10*
%TO.C,J3*%
X16506000Y-157480000D03*
X16506000Y-104140000D03*
D11*
X10156000Y-114300000D03*
D12*
X7616000Y-113030000D03*
X10156000Y-111760000D03*
X7616000Y-110490000D03*
X10156000Y-109220000D03*
X7616000Y-107950000D03*
X10156000Y-106680000D03*
X7616000Y-105410000D03*
X10156000Y-128270000D03*
X7616000Y-127000000D03*
X10156000Y-125730000D03*
X7616000Y-124460000D03*
X10156000Y-123190000D03*
X7616000Y-121920000D03*
X10156000Y-120650000D03*
X7616000Y-119380000D03*
X10156000Y-142240000D03*
X7616000Y-140970000D03*
X10156000Y-139700000D03*
X7616000Y-138430000D03*
X10156000Y-137160000D03*
X7616000Y-135890000D03*
X10156000Y-134620000D03*
X7616000Y-133350000D03*
X10156000Y-156210000D03*
X7616000Y-154940000D03*
X10156000Y-153670000D03*
X7616000Y-152400000D03*
X10156000Y-151130000D03*
X7616000Y-149860000D03*
X10156000Y-148590000D03*
X7616000Y-147320000D03*
D13*
X21076000Y-160270000D03*
X6096000Y-144780000D03*
X6096000Y-130810000D03*
X6096000Y-116840000D03*
X21076000Y-101350000D03*
%TD*%
D10*
%TO.C,J2*%
X16506000Y-66040000D03*
X16506000Y-12700000D03*
D11*
X10156000Y-22860000D03*
D12*
X7616000Y-21590000D03*
X10156000Y-20320000D03*
X7616000Y-19050000D03*
X10156000Y-17780000D03*
X7616000Y-16510000D03*
X10156000Y-15240000D03*
X7616000Y-13970000D03*
X10156000Y-36830000D03*
X7616000Y-35560000D03*
X10156000Y-34290000D03*
X7616000Y-33020000D03*
X10156000Y-31750000D03*
X7616000Y-30480000D03*
X10156000Y-29210000D03*
X7616000Y-27940000D03*
X10156000Y-50800000D03*
X7616000Y-49530000D03*
X10156000Y-48260000D03*
X7616000Y-46990000D03*
X10156000Y-45720000D03*
X7616000Y-44450000D03*
X10156000Y-43180000D03*
X7616000Y-41910000D03*
X10156000Y-64770000D03*
X7616000Y-63500000D03*
X10156000Y-62230000D03*
X7616000Y-60960000D03*
X10156000Y-59690000D03*
X7616000Y-58420000D03*
X10156000Y-57150000D03*
X7616000Y-55880000D03*
D13*
X21076000Y-68830000D03*
X6096000Y-53340000D03*
X6096000Y-39370000D03*
X6096000Y-25400000D03*
X21076000Y-9910000D03*
%TD*%
D14*
%TO.C,J1*%
X21774000Y-91809000D03*
X21774000Y-79109000D03*
D15*
X19234000Y-81879000D03*
X17454000Y-82899000D03*
X19234000Y-83919000D03*
X17454000Y-84939000D03*
X19234000Y-85959000D03*
X17454000Y-86979000D03*
X19234000Y-87999000D03*
X17454000Y-89019000D03*
D16*
X18344000Y-77329000D03*
X18344000Y-93589000D03*
%TD*%
D17*
%TO.C,J4*%
X0Y-170180000D03*
D18*
X0Y-167640000D03*
X0Y-165100000D03*
X0Y-162560000D03*
X0Y-160020000D03*
X0Y-157480000D03*
X0Y-154940000D03*
X0Y-152400000D03*
X0Y-149860000D03*
X0Y-147320000D03*
X0Y-144780000D03*
X0Y-142240000D03*
X0Y-139700000D03*
X0Y-137160000D03*
X0Y-134620000D03*
X0Y-132080000D03*
%TD*%
D17*
%TO.C,J7*%
X0Y-38100000D03*
D18*
X0Y-35560000D03*
X0Y-33020000D03*
X0Y-30480000D03*
X0Y-27940000D03*
X0Y-25400000D03*
X0Y-22860000D03*
X0Y-20320000D03*
X0Y-17780000D03*
X0Y-15240000D03*
X0Y-12700000D03*
X0Y-10160000D03*
X0Y-7620000D03*
X0Y-5080000D03*
X0Y-2540000D03*
X0Y0D03*
%TD*%
D17*
%TO.C,J6*%
X0Y-78740000D03*
D18*
X0Y-76200000D03*
X0Y-73660000D03*
X0Y-71120000D03*
X0Y-68580000D03*
X0Y-66040000D03*
X0Y-63500000D03*
X0Y-60960000D03*
X0Y-58420000D03*
X0Y-55880000D03*
X0Y-53340000D03*
X0Y-50800000D03*
X0Y-48260000D03*
X0Y-45720000D03*
X0Y-43180000D03*
X0Y-40640000D03*
%TD*%
D17*
%TO.C,J9*%
X-5080000Y-78740000D03*
D18*
X-5080000Y-81280000D03*
X-5080000Y-83820000D03*
X-5080000Y-86360000D03*
X-5080000Y-88900000D03*
X-5080000Y-91440000D03*
%TD*%
D17*
%TO.C,J5*%
X0Y-129540000D03*
D18*
X0Y-127000000D03*
X0Y-124460000D03*
X0Y-121920000D03*
X0Y-119380000D03*
X0Y-116840000D03*
X0Y-114300000D03*
X0Y-111760000D03*
X0Y-109220000D03*
X0Y-106680000D03*
X0Y-104140000D03*
X0Y-101600000D03*
X0Y-99060000D03*
X0Y-96520000D03*
X0Y-93980000D03*
X0Y-91440000D03*
%TD*%
M02*
