M48
; DRILL file {KiCad 9.0.2} date 2025-08-21T17:36:39+0200
; FORMAT={-:-/ absolute / inch / decimal}
; #@! TF.CreationDate,2025-08-21T17:36:39+02:00
; #@! TF.GenerationSoftware,Kicad,Pcbnew,9.0.2
; #@! TF.FileFunction,Plated,1,2,PTH
FMAT,2
INCH
; #@! TA.AperFunction,Plated,PTH,ViaDrill
T1C0.0157
; #@! TA.AperFunction,Plated,PTH,ComponentDrill
T2C0.0394
; #@! TA.AperFunction,Plated,PTH,ComponentDrill
T3C0.0433
; #@! TA.AperFunction,Plated,PTH,ComponentDrill
T4C0.0650
%
G90
G05
T1
X0.0523Y-2.05
X0.3014Y-2.21
X0.3272Y-0.9222
X0.3485Y-1.5567
X0.38Y-0.145
X0.3804Y0.1746
X0.4077Y-0.665
X0.41Y0.23
X0.4133Y-1.5567
X0.4241Y-2.16
X0.4319Y0.0518
X0.445Y-1.145
X0.4517Y0.2576
X0.4725Y-0.8184
X0.475Y-1.54
X0.4807Y-0.088
X0.4968Y-0.3722
X0.4991Y-1.7825
X0.5226Y-0.6549
X0.5267Y0.074
X0.5315Y-1.2767
X0.5524Y-1.9231
X0.5577Y-0.2823
X0.5989Y-1.007
X0.6055Y-1.1433
X0.6055Y-1.3888
X0.6489Y-0.8087
X0.65Y0.135
X0.65Y-0.49
X0.65Y-0.85
X0.6503Y-1.7328
X0.6503Y-1.8352
X0.6543Y-0.9976
X0.675Y-0.2745
X0.675Y-1.885
X0.682Y-0.912
X0.685Y0.4
X0.685Y-0.68
X0.6925Y-1.6225
X0.71Y-1.42
X0.746Y-0.7586
X0.7654Y-1.7288
X0.7662Y-1.8772
X0.7797Y-1.7803
X0.78Y-1.2423
X0.7803Y-1.4456
X0.8154Y-1.0434
X0.8217Y-1.335
X0.8332Y0.0491
X0.8483Y-0.4017
X0.855Y0.115
X0.86Y-0.34
X0.8632Y-1.0004
X0.889Y-1.105
X0.895Y-0.245
X0.911Y0.1144
X0.9201Y-1.2127
X0.9235Y-1.706
X0.9366Y-0.9433
X0.9404Y-0.0795
X0.9405Y0.2238
X0.945Y-0.55
X0.9486Y-1.3024
X0.9546Y-1.735
X0.97Y-0.135
X0.9926Y-0.4033
X1.0Y-1.55
X1.0046Y-1.6496
X1.005Y-0.7
X1.005Y-1.918
X1.015Y0.375
X1.0633Y0.5545
X1.0699Y-0.7538
X1.0782Y-0.4012
X1.083Y-1.9527
X1.0958Y0.0526
X1.1003Y-1.6003
X1.1048Y0.1513
X1.1172Y-1.6678
X1.1231Y0.2756
X1.1277Y-1.55
X1.1298Y-1.7404
X1.16Y-2.45
X1.1837Y0.15
X1.185Y0.43
X1.195Y0.35
X1.195Y0.25
X1.195Y0.05
X1.195Y-0.05
X1.195Y-0.15
X1.195Y-0.25
X1.195Y-0.35
X1.195Y-0.45
X1.195Y-0.55
X1.195Y-0.65
X1.195Y-0.75
X1.195Y-0.85
X1.195Y-0.95
X1.195Y-1.05
X1.195Y-1.15
X1.195Y-1.25
X1.195Y-1.35
X1.195Y-1.45
X1.195Y-1.55
X1.195Y-1.65
X1.195Y-1.75
X1.195Y-1.85
X1.195Y-1.95
X1.195Y-2.05
X1.195Y-2.15
X1.195Y-2.25
X1.195Y-2.35
X1.225Y0.15
X1.27Y-2.35
X1.275Y-2.25
X1.28Y0.505
X1.32Y-2.15
X1.345Y0.55
X1.3775Y-0.1184
X1.38Y-1.9
X1.382Y0.13
X1.3835Y-1.1605
X1.3842Y-0.8557
X1.4Y0.435
X1.4125Y0.5025
X1.525Y0.25
X1.5475Y-1.8525
X1.745Y0.47
X1.78Y-2.15
X1.785Y-2.26
X1.8219Y0.076
X1.865Y-2.0
X1.905Y0.4414
X1.9249Y-2.0
X2.0093Y0.5017
X2.0958Y-1.7997
X2.145Y0.5005
X2.3163Y-2.5011
X2.4391Y-0.81
X2.4419Y-0.3805
X2.4446Y-0.9982
X2.4592Y-0.0072
X2.47Y0.3331
X2.475Y-2.1134
X2.48Y-0.8
X2.4803Y-1.0472
X2.51Y-0.24
X2.5116Y-1.7634
X2.5117Y-2.3701
X2.515Y-0.11
X2.52Y-0.45
X2.5216Y-1.9466
X2.5245Y-0.3489
X2.525Y0.35
X2.525Y-1.25
X2.525Y-1.85
X2.541Y-0.5
X2.5539Y-1.5999
X2.605Y0.35
X2.605Y0.25
X2.605Y0.15
X2.605Y0.05
X2.605Y-0.05
X2.605Y-0.15
X2.605Y-0.25
X2.605Y-0.35
X2.605Y-0.45
X2.605Y-0.55
X2.605Y-0.65
X2.605Y-0.75
X2.605Y-0.85
X2.605Y-0.95
X2.605Y-1.05
X2.605Y-1.15
X2.605Y-1.25
X2.605Y-1.35
X2.605Y-1.45
X2.605Y-1.55
X2.605Y-1.65
X2.605Y-1.75
X2.605Y-1.85
X2.605Y-1.95
X2.605Y-2.05
X2.605Y-2.15
X2.605Y-2.25
X2.605Y-2.35
X2.6673Y-2.1835
X2.6726Y0.0583
X2.6729Y-1.0415
X2.685Y-1.3378
X2.7194Y-2.2018
X2.72Y0.35
X2.721Y-1.55
X2.725Y0.25
X2.7306Y-0.0197
X2.74Y-1.24
X2.7509Y-1.4469
X2.7517Y-0.915
X2.755Y-1.15
X2.763Y-1.8522
X2.7768Y-2.5361
X2.7794Y-1.1994
X2.79Y-1.27
X2.8Y-1.485
X2.803Y-2.198
X2.805Y-0.8277
X2.8108Y-2.0831
X2.825Y-0.6355
X2.85Y-0.295
X2.85Y-2.335
X2.86Y-0.865
X2.8705Y0.285
X2.8718Y-0.4518
X2.8861Y-2.0478
X2.887Y-0.7264
X2.8893Y-0.4983
X2.8978Y-1.4469
X2.9001Y0.3407
X2.9099Y-0.9549
X2.9237Y0.0355
X2.9503Y-2.405
X2.957Y-0.5621
X2.9578Y0.155
X2.9578Y-0.1259
X2.9704Y-1.3442
X3.01Y-0.805
X3.01Y-2.125
X3.017Y-1.0978
X3.0244Y-0.3039
X3.025Y-0.133
X3.025Y-1.66
X3.025Y-1.8727
X3.035Y-0.425
X3.05Y-1.07
X3.05Y-1.5234
X3.055Y-1.9573
X3.0565Y-0.3674
X3.0585Y-1.5895
X3.0594Y-0.114
X3.0705Y-0.7945
X3.085Y-0.9445
X3.085Y-1.125
X3.0882Y-0.3973
X3.0928Y-1.6124
X3.1Y-1.905
X3.1098Y-1.5392
X3.11Y-1.65
X3.11Y-1.82
X3.1148Y-0.337
X3.1184Y-0.8103
X3.1295Y-0.4916
X3.145Y-0.0162
X3.145Y-1.33
X3.145Y-1.8
X3.145Y-2.06
X3.15Y0.345
X3.15Y0.205
X3.15Y-0.31
X3.15Y-0.57
X3.15Y-1.075
X3.18Y-1.9
X3.1807Y-1.17
X3.2071Y-1.5917
X3.2095Y-1.765
X3.255Y-1.44
X3.26Y-0.7645
X3.265Y-1.0419
X3.265Y-1.735
X3.345Y-0.628
X3.365Y-0.8895
X3.3833Y-0.4062
X3.385Y0.345
X3.385Y-0.0532
X3.3885Y-1.906
X3.405Y-2.435
X3.41Y-0.9
X3.4373Y-1.155
X3.44Y-0.58
X3.46Y-0.743
X3.475Y-0.29
X3.476Y-0.1761
X3.485Y-1.91
X3.4885Y-1.19
X3.515Y-0.185
X3.515Y-0.35
X3.52Y-1.23
X3.525Y-1.11
X3.565Y-0.885
X3.565Y-1.02
X3.5775Y-1.5
X3.625Y-0.975
X3.725Y-2.31
X3.86Y-2.33
X3.895Y-2.245
T2
X1.45Y0.35
X1.45Y0.25
X1.45Y0.15
X1.45Y0.05
X1.45Y-0.05
X1.45Y-0.15
X1.45Y-0.25
X1.45Y-0.35
X1.45Y-0.45
X1.45Y-0.55
X1.45Y-0.65
X1.45Y-0.75
X1.45Y-0.85
X1.45Y-0.95
X1.45Y-1.05
X1.45Y-1.15
X1.45Y-1.25
X1.45Y-1.35
X1.45Y-1.45
X1.45Y-1.55
X1.45Y-1.65
X1.45Y-1.75
X1.45Y-1.85
X1.45Y-1.95
X1.45Y-2.05
X1.45Y-2.15
X1.45Y-2.25
X1.45Y-2.35
X2.05Y0.35
X2.05Y0.25
X2.05Y0.15
X2.05Y0.05
X2.05Y-0.05
X2.05Y-0.15
X2.05Y-0.25
X2.05Y-0.35
X2.05Y-0.45
X2.05Y-0.55
X2.05Y-0.65
X2.05Y-0.75
X2.05Y-0.85
X2.05Y-0.95
X2.05Y-1.05
X2.05Y-1.15
X2.05Y-1.25
X2.05Y-1.35
X2.05Y-1.45
X2.05Y-1.55
X2.05Y-1.65
X2.05Y-1.75
X2.05Y-1.85
X2.05Y-1.95
X2.05Y-2.05
X2.05Y-2.15
X2.05Y-2.25
X2.05Y-2.35
X2.35Y0.35
X2.35Y0.25
X2.35Y0.15
X2.35Y0.05
X2.35Y-0.05
X2.35Y-0.15
X2.35Y-0.25
X2.35Y-0.35
X2.35Y-0.45
X2.35Y-0.55
X2.35Y-0.65
X2.35Y-0.75
X2.35Y-0.85
X2.35Y-0.95
X2.35Y-1.05
X2.35Y-1.15
X2.35Y-1.25
X2.35Y-1.35
X2.35Y-1.45
X2.35Y-1.55
X2.35Y-1.65
X2.35Y-1.75
X2.35Y-1.85
X2.35Y-1.95
X2.35Y-2.05
X2.35Y-2.15
X2.35Y-2.25
X2.35Y-2.35
T3
X0.0Y0.0
X0.0Y-0.1
X0.0Y-0.2
X0.0Y-0.3
X0.0Y-0.55
X0.0Y-0.65
X0.0Y-0.75
X0.0Y-0.85
X0.0Y-1.1
X0.0Y-1.2
X0.0Y-1.3
X0.0Y-1.4
X0.0Y-1.65
X0.0Y-1.75
X0.0Y-1.85
X0.0Y-1.95
X0.1Y-0.05
X0.1Y-0.15
X0.1Y-0.25
X0.1Y-0.35
X0.1Y-0.6
X0.1Y-0.7
X0.1Y-0.8
X0.1Y-0.9
X0.1Y-1.15
X0.1Y-1.25
X0.1Y-1.35
X0.1Y-1.45
X0.1Y-1.7
X0.1Y-1.8
X0.1Y-1.9
X0.1Y-2.0
X3.7651Y0.0
X3.7651Y-0.1
X3.7651Y-0.2
X3.7651Y-0.3
X3.7651Y-0.55
X3.7651Y-0.65
X3.7651Y-0.75
X3.7651Y-0.85
X3.7651Y-1.1
X3.7651Y-1.2
X3.7651Y-1.3
X3.7651Y-1.4
X3.7651Y-1.65
X3.7651Y-1.75
X3.7651Y-1.85
X3.7651Y-1.95
X3.8651Y-0.05
X3.8651Y-0.15
X3.8651Y-0.25
X3.8651Y-0.35
X3.8651Y-0.6
X3.8651Y-0.7
X3.8651Y-0.8
X3.8651Y-0.9
X3.8651Y-1.15
X3.8651Y-1.25
X3.8651Y-1.35
X3.8651Y-1.45
X3.8651Y-1.7
X3.8651Y-1.8
X3.8651Y-1.9
X3.8651Y-2.0
T4
X-0.4299Y0.1598
X-0.4299Y-2.1598
X0.1598Y-0.45
X0.1598Y-1.0
X0.1598Y-1.55
X3.7053Y-0.45
X3.7053Y-1.0
X3.7053Y-1.55
X4.295Y0.1598
X4.295Y-2.1598
M30
