M48
; DRILL file {KiCad 7.0.5} date Sat Dec 16 12:10:54 2023
; FORMAT={-:-/ absolute / inch / decimal}
; #@! TF.CreationDate,2023-12-16T12:10:54+02:00
; #@! TF.GenerationSoftware,Kicad,Pcbnew,7.0.5
; #@! TF.FileFunction,Plated,1,2,PTH
FMAT,2
INCH
; #@! TA.AperFunction,Plated,PTH,ViaDrill
T1C0.0157
; #@! TA.AperFunction,Plated,PTH,ComponentDrill
T2C0.0236
; #@! TA.AperFunction,Plated,PTH,ComponentDrill
T3C0.0295
; #@! TA.AperFunction,Plated,PTH,ComponentDrill
T4C0.0315
; #@! TA.AperFunction,Plated,PTH,ComponentDrill
T5C0.0394
; #@! TA.AperFunction,Plated,PTH,ComponentDrill
T6C0.1260
%
G90
G05
T1
X2.045Y-2.445
X2.065Y-2.335
X2.065Y-3.185
X2.0809Y-3.4156
X2.1047Y-2.3778
X2.105Y-3.255
X2.125Y-5.635
X2.1261Y-2.4976
X2.1351Y-5.1979
X2.2053Y-4.14
X2.2103Y-5.3292
X2.2274Y-4.1
X2.25Y-5.265
X2.255Y-4.0543
X2.265Y-1.965
X2.38Y-2.205
X2.435Y-5.655
X2.6082Y-3.9893
X2.67Y-4.305
X2.67Y-4.08
X2.671Y-5.6647
X2.805Y-2.205
X2.8071Y-3.9571
X2.8446Y-1.9704
X2.865Y-5.475
X2.9036Y-5.5187
X2.9063Y-5.3669
X2.9386Y-5.405
X2.9818Y-3.0472
X3.0221Y-2.455
X3.135Y-2.4
X3.2084Y-2.46
X3.2084Y-3.0198
X3.2559Y-3.145
X3.2561Y-3.518
X3.325Y-3.4918
X3.3569Y-3.0472
X3.365Y-3.7
X3.38Y-4.4
X3.405Y-5.9
X3.48Y-5.185
X3.4936Y-4.3396
X3.515Y-5.28
X3.535Y-4.365
X3.5494Y-3.819
X3.5614Y-1.8049
X3.625Y-5.79
X3.6953Y-2.1795
X3.7167Y-1.5455
X3.7249Y-4.445
X3.7633Y-1.7081
X3.8179Y-1.7634
X3.8382Y-1.7004
X3.8538Y-1.6478
X3.8606Y-5.4432
X3.9008Y-5.5279
X3.9056Y-1.6306
X3.9669Y-5.0986
X3.9716Y-5.4804
X3.98Y-5.965
X4.2Y-2.4
X4.2695Y-4.7074
X4.3276Y-4.2357
X4.3767Y-4.0517
X4.41Y-3.955
X4.4267Y-4.6522
X4.88Y-2.885
X4.91Y-2.405
X4.97Y-4.29
X5.0113Y-2.0
X5.36Y-2.815
X5.495Y-5.727
X5.55Y-2.895
X5.555Y-2.65
X5.5709Y-1.9744
X5.634Y-1.9787
X5.6618Y-1.9505
X6.3326Y-1.8757
T2
X2.3625Y-1.7
X2.4413Y-1.7
X2.9413Y-1.7
X3.02Y-1.7
T3
X2.4Y-5.6
X2.4Y-5.7
X2.4Y-5.8
X2.4Y-5.9
X2.4Y-6.0
X2.5Y-5.5
X2.5Y-5.6
X2.5Y-5.7
X2.5Y-5.8
X2.5Y-5.9
X2.5Y-6.0
X2.5Y-6.1
X2.6Y-5.5
X2.6Y-5.6
X2.6Y-6.0
X2.6Y-6.1
X2.7Y-5.5
X2.7Y-5.6
X2.7Y-6.0
X2.7Y-6.1
X2.8Y-5.5
X2.8Y-5.6
X2.8Y-5.7
X2.8Y-5.8
X2.8Y-5.9
X2.8Y-6.0
X2.8Y-6.1
X2.9Y-5.6
X2.9Y-5.7
X2.9Y-5.8
X2.9Y-5.9
X2.9Y-6.0
T4
X2.3Y-2.1
X2.3Y-2.2
X2.3Y-2.3
X2.3Y-2.4
X2.3Y-2.5
X2.3Y-2.6
X2.3Y-2.7
X2.3Y-2.8
X2.3Y-2.9
X2.3Y-3.0
X2.3Y-3.1
X2.3Y-3.2
X2.3Y-3.3
X2.3Y-3.4
X2.3Y-3.5
X2.3Y-3.6
X2.3Y-3.7
X2.3Y-3.8
X2.3Y-3.9
X2.3Y-4.0
X2.3Y-4.1
X2.3Y-4.2
X2.3Y-4.3
X2.3Y-4.4
X2.3Y-4.5
X2.3Y-4.6
X2.3Y-4.7
X2.3Y-4.8
X2.3Y-4.9
X2.3Y-5.0
X2.3Y-5.1
X2.3Y-5.2
X2.9Y-2.1
X2.9Y-2.2
X2.9Y-2.3
X2.9Y-2.4
X2.9Y-2.5
X2.9Y-2.6
X2.9Y-2.7
X2.9Y-2.8
X2.9Y-2.9
X2.9Y-3.0
X2.9Y-3.1
X2.9Y-3.2
X2.9Y-3.3
X2.9Y-3.4
X2.9Y-3.5
X2.9Y-3.6
X2.9Y-3.7
X2.9Y-3.8
X2.9Y-3.9
X2.9Y-4.0
X2.9Y-4.1
X2.9Y-4.2
X2.9Y-4.3
X2.9Y-4.4
X2.9Y-4.5
X2.9Y-4.6
X2.9Y-4.7
X2.9Y-4.8
X2.9Y-4.9
X2.9Y-5.0
X2.9Y-5.1
X2.9Y-5.2
X3.2Y-3.3
X3.2Y-3.4
X3.2Y-3.5
X3.2Y-3.6
X3.2Y-3.7
X3.2Y-3.8
X3.2Y-3.9
X3.2Y-4.0
X3.2Y-4.1
X3.2Y-4.2
X3.2Y-4.3
X3.2Y-4.4
X3.2Y-4.5
X3.2Y-4.6
X3.2Y-4.7
X3.2Y-4.8
X3.2Y-5.1
X3.2Y-5.2
X3.2Y-5.3
X3.2Y-5.4
X3.2Y-5.5
X3.2Y-5.6
X3.2Y-5.7
X3.2Y-5.8
X3.2Y-5.9
X3.2Y-6.0
X3.2Y-6.1
X3.2Y-6.2
X3.3Y-2.1
X3.3Y-3.0
X3.4Y-2.1
X3.4Y-3.0
X3.5Y-2.1
X3.5Y-3.0
X3.6Y-2.1
X3.6Y-3.0
X3.7Y-2.1
X3.7Y-3.0
X3.8Y-2.1
X3.8Y-3.0
X3.8Y-3.3
X3.8Y-3.4
X3.8Y-3.5
X3.8Y-3.6
X3.8Y-3.7
X3.8Y-3.8
X3.8Y-3.9
X3.8Y-4.0
X3.8Y-4.1
X3.8Y-4.2
X3.8Y-4.3
X3.8Y-4.4
X3.8Y-4.5
X3.8Y-4.6
X3.8Y-4.7
X3.8Y-4.8
X3.8Y-5.1
X3.8Y-5.2
X3.8Y-5.3
X3.8Y-5.4
X3.8Y-5.5
X3.8Y-5.6
X3.8Y-5.7
X3.8Y-5.8
X3.8Y-5.9
X3.8Y-6.0
X3.8Y-6.1
X3.8Y-6.2
X3.9Y-2.1
X3.9Y-3.0
X4.0Y-2.1
X4.0Y-3.0
X4.1Y-2.1
X4.1Y-3.0
X4.2Y-2.1
X4.2Y-3.0
X4.3Y-2.1
X4.3Y-3.0
X4.4Y-2.1
X4.4Y-3.0
X4.5Y-2.1
X4.5Y-3.0
X4.6Y-2.1
X4.6Y-3.0
X4.7Y-2.1
X4.7Y-3.0
X4.8Y-2.1
X4.8Y-3.0
X4.9Y-2.1
X4.9Y-3.0
X5.0Y-2.1
X5.0Y-3.0
X5.1Y-2.1
X5.1Y-3.0
X5.2Y-2.1
X5.2Y-3.0
X5.3Y-2.1
X5.3Y-3.0
X5.4Y-2.1
X5.4Y-3.0
X5.5Y-2.1
X5.5Y-3.0
X5.6Y-2.1
X5.6Y-3.0
X5.7Y-2.1
X5.7Y-3.0
X5.8Y-2.1
X5.8Y-3.0
X5.9Y-2.1
X5.9Y-3.0
X6.0Y-2.1
X6.0Y-3.0
X6.1Y-2.1
X6.1Y-3.0
X6.2Y-2.1
X6.2Y-3.0
X6.3Y-2.1
X6.3Y-3.0
X6.4Y-2.1
X6.4Y-3.0
T5
X2.0Y-1.9
X2.0Y-2.0
X2.0Y-2.1
X2.0Y-2.2
X2.0Y-2.3
X2.0Y-2.4
X2.0Y-2.5
X2.0Y-2.6
X2.0Y-2.7
X2.0Y-2.8
X2.0Y-2.9
X2.0Y-3.0
X2.0Y-3.1
X2.0Y-3.2
X2.0Y-3.3
X2.0Y-3.4
X2.0Y-3.5
X2.0Y-3.6
X2.0Y-3.7
X2.0Y-3.8
X2.0Y-3.9
X2.0Y-4.0
X2.0Y-4.1
X2.0Y-4.2
X2.0Y-4.3
X2.0Y-4.4
X2.0Y-4.5
X2.0Y-4.6
X2.0Y-4.7
X2.0Y-4.8
X2.0Y-4.9
X2.0Y-5.0
X2.0Y-5.1
X2.0Y-5.2
X2.0Y-5.3
X2.0Y-5.4
X2.0Y-5.5
X2.0Y-5.6
X2.0Y-5.7
X2.0Y-5.8
X2.6Y-1.4
X2.7Y-1.4
X2.8Y-1.4
X2.9Y-1.4
X3.0Y-1.4
X3.1Y-1.4
X3.2Y-1.4
X3.3Y-1.4
X3.4Y-1.4
X3.5Y-1.4
X3.6Y-1.4
X3.7Y-1.4
X3.8Y-1.4
X3.9Y-1.4
X4.0Y-1.4
X4.1Y-1.4
X4.2Y-1.4
X4.3Y-1.4
X4.4Y-1.4
X4.5Y-1.4
X4.6Y-1.4
X4.7Y-1.4
X4.8Y-1.4
X4.9Y-1.4
X5.0Y-1.4
X5.1Y-1.4
X5.2Y-1.4
X5.3Y-1.4
X5.4Y-1.4
X5.5Y-1.4
X5.6Y-1.4
X5.7Y-1.4
X5.8Y-1.4
X5.9Y-1.4
X6.0Y-1.4
X6.1Y-1.4
X6.2Y-1.4
X6.3Y-1.4
X6.4Y-1.4
X6.5Y-1.4
T6
X2.2Y-1.5
X2.2Y-6.2
X6.9Y-1.5
X6.9Y-6.2
T0
M30
