M48
; DRILL file {KiCad 9.0.2} date 2025-06-27T13:20:59+0200
; FORMAT={-:-/ absolute / inch / decimal}
; #@! TF.CreationDate,2025-06-27T13:20:59+02:00
; #@! TF.GenerationSoftware,Kicad,Pcbnew,9.0.2
; #@! TF.FileFunction,Plated,1,2,PTH
FMAT,2
INCH
; #@! TA.AperFunction,Plated,PTH,ViaDrill
T1C0.0157
; #@! TA.AperFunction,Plated,PTH,ComponentDrill
T2C0.0315
%
G90
G05
T1
X0.1606Y-0.6238
X0.1821Y-0.685
X0.2018Y-0.7276
X0.2215Y-0.7652
X0.2411Y-0.805
X0.2805Y-0.8791
X0.3Y-0.55
X0.3002Y-0.9175
X0.3199Y-0.585
X0.3413Y-0.623
X0.3593Y-0.66
X0.3828Y-0.6993
X0.4Y-0.74
X0.4066Y-0.7934
X0.418Y-0.8465
T2
X0.0Y0.0
X0.0Y-0.1
X0.0Y-0.2
X0.0Y-0.3
X0.0Y-0.4
X0.0Y-0.5
X0.0Y-0.6
X0.0Y-0.7
X0.0Y-0.8
X0.0Y-0.9
X0.0Y-1.0
X0.0Y-1.1
X0.0Y-1.2
X0.0Y-1.3
X0.0Y-1.4
X0.0Y-1.5
X0.6Y0.0
X0.6Y-0.1
X0.6Y-0.2
X0.6Y-0.3
X0.6Y-0.4
X0.6Y-0.5
X0.6Y-0.6
X0.6Y-0.7
X0.6Y-0.8
X0.6Y-0.9
X0.6Y-1.0
X0.6Y-1.1
X0.6Y-1.2
X0.6Y-1.3
X0.6Y-1.4
X0.6Y-1.5
M30
