%TF.GenerationSoftware,KiCad,Pcbnew,8.0.7*%
%TF.CreationDate,2025-01-04T13:16:02+02:00*%
%TF.ProjectId,GPIO 16bit,4750494f-2031-4366-9269-742e6b696361,V0*%
%TF.SameCoordinates,Original*%
%TF.FileFunction,Copper,L2,Bot*%
%TF.FilePolarity,Positive*%
%FSLAX46Y46*%
G04 Gerber Fmt 4.6, Leading zero omitted, Abs format (unit mm)*
G04 Created by KiCad (PCBNEW 8.0.7) date 2025-01-04 13:16:02*
%MOMM*%
%LPD*%
G01*
G04 APERTURE LIST*
G04 Aperture macros list*
%AMRoundRect*
0 Rectangle with rounded corners*
0 $1 Rounding radius*
0 $2 $3 $4 $5 $6 $7 $8 $9 X,Y pos of 4 corners*
0 Add a 4 corners polygon primitive as box body*
4,1,4,$2,$3,$4,$5,$6,$7,$8,$9,$2,$3,0*
0 Add four circle primitives for the rounded corners*
1,1,$1+$1,$2,$3*
1,1,$1+$1,$4,$5*
1,1,$1+$1,$6,$7*
1,1,$1+$1,$8,$9*
0 Add four rect primitives between the rounded corners*
20,1,$1+$1,$2,$3,$4,$5,0*
20,1,$1+$1,$4,$5,$6,$7,0*
20,1,$1+$1,$6,$7,$8,$9,0*
20,1,$1+$1,$8,$9,$2,$3,0*%
G04 Aperture macros list end*
%TA.AperFunction,ComponentPad*%
%ADD10C,1.600000*%
%TD*%
%TA.AperFunction,ComponentPad*%
%ADD11O,1.600000X1.600000*%
%TD*%
%TA.AperFunction,ComponentPad*%
%ADD12RoundRect,0.400000X0.400000X0.400000X-0.400000X0.400000X-0.400000X-0.400000X0.400000X-0.400000X0*%
%TD*%
%TA.AperFunction,ComponentPad*%
%ADD13R,1.600000X1.600000*%
%TD*%
%TA.AperFunction,ComponentPad*%
%ADD14RoundRect,0.400000X-0.400000X-0.400000X0.400000X-0.400000X0.400000X0.400000X-0.400000X0.400000X0*%
%TD*%
%TA.AperFunction,ViaPad*%
%ADD15C,0.800000*%
%TD*%
%TA.AperFunction,Conductor*%
%ADD16C,0.200000*%
%TD*%
%TA.AperFunction,Conductor*%
%ADD17C,0.380000*%
%TD*%
G04 APERTURE END LIST*
D10*
%TO.P,J2,1,Pin_1*%
%TO.N,Read GD _{0..7}*%
X0Y0D03*
D11*
%TO.P,J2,2,Pin_2*%
%TO.N,Read GD _{8..15}*%
X0Y-2540000D03*
D12*
%TO.P,J2,3,Pin_3*%
%TO.N,5V*%
X0Y-5080000D03*
D11*
%TO.P,J2,4,Pin_4*%
%TO.N,Read*%
X0Y-7620000D03*
%TO.P,J2,5,Pin_5*%
%TO.N,Write*%
X0Y-10160000D03*
%TO.P,J2,6,Pin_6*%
%TO.N,Enable*%
X0Y-12700000D03*
D13*
%TO.P,J2,7,Pin_7*%
%TO.N,GND*%
X0Y-15240000D03*
D11*
%TO.P,J2,8,Pin_8*%
%TO.N,D7*%
X0Y-17780000D03*
%TO.P,J2,9,Pin_9*%
%TO.N,D6*%
X0Y-20320000D03*
%TO.P,J2,10,Pin_10*%
%TO.N,D5*%
X0Y-22860000D03*
%TO.P,J2,11,Pin_11*%
%TO.N,D4*%
X0Y-25400000D03*
%TO.P,J2,12,Pin_12*%
%TO.N,D3*%
X0Y-27940000D03*
%TO.P,J2,13,Pin_13*%
%TO.N,D2*%
X0Y-30480000D03*
D13*
%TO.P,J2,14,Pin_14*%
%TO.N,GND*%
X0Y-33020000D03*
D11*
%TO.P,J2,15,Pin_15*%
%TO.N,D1*%
X0Y-35560000D03*
%TO.P,J2,16,Pin_16*%
%TO.N,D0*%
X0Y-38100000D03*
%TO.P,J2,17,Pin_17*%
%TO.N,Write GD _{0..7}*%
X0Y-40640000D03*
%TO.P,J2,18,Pin_18*%
%TO.N,Write GD _{8..15}*%
X0Y-43180000D03*
%TO.P,J2,19,Pin_19*%
%TO.N,Write OE _{0..7}*%
X0Y-45720000D03*
%TO.P,J2,20,Pin_20*%
%TO.N,Write OE _{8..15}*%
X0Y-48260000D03*
%TD*%
D10*
%TO.P,J1,1,Pin_1*%
%TO.N,unconnected-(J1-Pin_1-Pad1)*%
X45720000Y-48260000D03*
D11*
%TO.P,J1,2,Pin_2*%
%TO.N,GPIO0*%
X45720000Y-45720000D03*
D14*
%TO.P,J1,3,Pin_3*%
%TO.N,5V*%
X45720000Y-43180000D03*
D11*
%TO.P,J1,4,Pin_4*%
%TO.N,GPIO1*%
X45720000Y-40640000D03*
%TO.P,J1,5,Pin_5*%
%TO.N,GPIO2*%
X45720000Y-38100000D03*
%TO.P,J1,6,Pin_6*%
%TO.N,GPIO3*%
X45720000Y-35560000D03*
D13*
%TO.P,J1,7,Pin_7*%
%TO.N,GND*%
X45720000Y-33020000D03*
D11*
%TO.P,J1,8,Pin_8*%
%TO.N,GPIO4*%
X45720000Y-30480000D03*
%TO.P,J1,9,Pin_9*%
%TO.N,GPIO5*%
X45720000Y-27940000D03*
%TO.P,J1,10,Pin_10*%
%TO.N,GPIO6*%
X45720000Y-25400000D03*
%TO.P,J1,11,Pin_11*%
%TO.N,GPIO7*%
X45720000Y-22860000D03*
%TO.P,J1,12,Pin_12*%
%TO.N,GPIO8*%
X45720000Y-20320000D03*
%TO.P,J1,13,Pin_13*%
%TO.N,GPIO9*%
X45720000Y-17780000D03*
D13*
%TO.P,J1,14,Pin_14*%
%TO.N,GND*%
X45720000Y-15240000D03*
D11*
%TO.P,J1,15,Pin_15*%
%TO.N,GPIO10*%
X45720000Y-12700000D03*
%TO.P,J1,16,Pin_16*%
%TO.N,GPIO11*%
X45720000Y-10160000D03*
%TO.P,J1,17,Pin_17*%
%TO.N,GPIO12*%
X45720000Y-7620000D03*
%TO.P,J1,18,Pin_18*%
%TO.N,GPIO13*%
X45720000Y-5080000D03*
%TO.P,J1,19,Pin_19*%
%TO.N,GPIO14*%
X45720000Y-2540000D03*
%TO.P,J1,20,Pin_20*%
%TO.N,GPIO15*%
X45720000Y0D03*
%TD*%
D15*
%TO.N,/OE3*%
X38354000Y-48007986D03*
X37211000Y-36711010D03*
%TO.N,/OE2*%
X38227000Y-50038000D03*
X36957000Y-37719000D03*
%TO.N,/OE1*%
X36749767Y-38751785D03*
X35623500Y-50357000D03*
%TO.N,/OE0*%
X36010606Y-39425318D03*
X36082845Y-48198000D03*
%TO.N,/GD3*%
X23120301Y-46163000D03*
X23953941Y-48946701D03*
%TO.N,/GD2*%
X25273000Y-46925000D03*
X25551997Y-50287493D03*
%TO.N,/GD1*%
X18763006Y-48345092D03*
X18857996Y-50328810D03*
%TO.N,/GD4*%
X20451254Y-41118000D03*
X18796000Y-46532734D03*
%TO.N,/GD5*%
X19640495Y-45793174D03*
X20393000Y-43038576D03*
%TO.N,/OE4*%
X35197839Y-36975839D03*
X35408198Y-40941105D03*
%TO.N,/OE5*%
X32596584Y-42828864D03*
X34036000Y-36932999D03*
%TO.N,/OE6*%
X38528831Y-43572327D03*
X38416000Y-36875745D03*
%TO.N,/OE7*%
X38565531Y-41409728D03*
X38989000Y-37719001D03*
%TO.N,Net-(IC3-1Y)*%
X31072000Y-46207148D03*
X22606000Y-39893998D03*
X24384000Y-46101000D03*
X35369889Y-42004669D03*
%TO.N,Net-(IC3-2Y)*%
X32443167Y-43817028D03*
X32191314Y-39612524D03*
%TO.N,Net-(IC3-4Y)*%
X35559992Y-43660000D03*
X32117038Y-46087038D03*
X26289000Y-45339000D03*
X25400000Y-42418000D03*
%TO.N,/GD8*%
X20053472Y-20759221D03*
X20193000Y-24048807D03*
%TO.N,/GD10*%
X20070476Y-22648807D03*
X27005049Y-26878049D03*
X20552007Y-25911568D03*
X27178000Y-23413000D03*
%TO.N,/GD11*%
X25753000Y-21550212D03*
X20389527Y-21701066D03*
X25273000Y-26523832D03*
X21587443Y-25957052D03*
%TO.N,/GD12*%
X17502125Y-15212799D03*
X17152194Y-21016114D03*
%TO.N,/GD13*%
X20193000Y-19769000D03*
X20542211Y-15676899D03*
%TO.N,/GD14*%
X23975000Y-16637000D03*
X23495000Y-19369002D03*
%TO.N,/GD15*%
X25753000Y-18731000D03*
X25753000Y-15779002D03*
%TO.N,/OE8*%
X29458186Y-9395000D03*
X33028544Y-15996000D03*
%TO.N,Net-(IC12-1Y)*%
X30035500Y-7195000D03*
X28853975Y-10819000D03*
%TO.N,/OE9*%
X20065934Y-17734663D03*
X21422839Y-10958000D03*
%TO.N,Net-(IC12-2Y)*%
X34940424Y-9666420D03*
X34152038Y-12799000D03*
%TO.N,Net-(IC12-3Y)*%
X40356322Y-14597916D03*
X40197000Y-10894000D03*
%TO.N,/OE10*%
X37146000Y-18459194D03*
X37635000Y-12369000D03*
%TO.N,Net-(IC12-4Y)*%
X37575374Y-8719162D03*
X38735000Y-14097000D03*
%TO.N,/OE11*%
X38227000Y-16002000D03*
X38027520Y-11437551D03*
%TO.N,/OE12*%
X19558000Y-9906000D03*
X21336000Y-8443992D03*
%TO.N,/OE14*%
X37550647Y-7319162D03*
X38298958Y-9409402D03*
%TO.N,Net-(IC21-1Y)*%
X35300610Y-48827774D03*
X35038248Y-45947177D03*
%TO.N,Net-(IC21-3Y)*%
X29817000Y-50781681D03*
X38085578Y-51027952D03*
X33312052Y-52669500D03*
X37300271Y-52488729D03*
%TO.N,Net-(IC21-4Y)*%
X32264490Y-48768000D03*
X37209755Y-50013195D03*
%TO.N,Net-(IC14-1~{OE})*%
X31783773Y-16817000D03*
X30507260Y-19423808D03*
%TO.N,Net-(IC14-2~{OE})*%
X33020000Y-18796024D03*
X24572995Y-22380862D03*
X24638000Y-28194000D03*
X29337000Y-26692000D03*
%TO.N,Net-(IC14-3~{OE})*%
X38552273Y-19513746D03*
X37641789Y-21698155D03*
%TO.N,Net-(IC14-4~{OE})*%
X36843263Y-20039194D03*
X38100000Y-17653000D03*
%TO.N,Net-(IC4-1Y)*%
X37465000Y-27559000D03*
X31640475Y-51514013D03*
X19558004Y-49530000D03*
X19939000Y-52270008D03*
%TO.N,Net-(IC4-2Y)*%
X37606422Y-28548952D03*
X32271197Y-50738000D03*
%TO.N,Net-(IC4-3Y)*%
X38038588Y-29628041D03*
X26289000Y-51184000D03*
X36073318Y-34951318D03*
X29194786Y-34949000D03*
%TO.N,Net-(IC4-4Y)*%
X28053976Y-34863000D03*
X38217000Y-30612000D03*
X37211000Y-34412000D03*
X26416000Y-49784000D03*
%TO.N,Net-(IC9-1Y)*%
X34006075Y-32129367D03*
X24192000Y-41562320D03*
%TO.N,Net-(IC9-2Y)*%
X32788933Y-31927534D03*
X23749000Y-43180000D03*
%TO.N,Net-(IC9-3Y)*%
X27002584Y-44545000D03*
X33267230Y-32811797D03*
%TO.N,Net-(IC9-4Y)*%
X34223119Y-33105532D03*
X27146220Y-42702220D03*
%TO.N,Net-(IC14-1Y)*%
X23654762Y-25994898D03*
X34625115Y-23999766D03*
X34928106Y3513000D03*
X23495000Y-21336000D03*
%TO.N,Net-(IC14-2Y)*%
X35483789Y-23454299D03*
X23873000Y-23273000D03*
X36215447Y3201885D03*
X23873000Y-25019000D03*
%TO.N,Net-(IC14-3Y)*%
X35667626Y2132058D03*
X37957885Y-22646885D03*
%TO.N,Net-(IC14-4Y)*%
X36450886Y-21616504D03*
X36092921Y1227000D03*
%TO.N,Net-(IC18-1Y)*%
X33112608Y-1457163D03*
X30253975Y-10795000D03*
%TO.N,Net-(IC18-2Y)*%
X30907322Y-12121553D03*
X34544000Y-2667000D03*
%TO.N,Net-(IC18-3Y)*%
X32639000Y-17396000D03*
X35306000Y-3429000D03*
%TO.N,Net-(IC18-4Y)*%
X32413000Y-6350000D03*
X33233907Y-3491000D03*
X27453975Y-15239998D03*
X27408549Y-6795000D03*
%TO.N,Net-(IC17A-1Y)*%
X27588585Y2917185D03*
X26469495Y-32692495D03*
%TO.N,Net-(IC13-~{OE})*%
X27178004Y-3814000D03*
X26162006Y1651003D03*
%TO.N,/3.3V*%
X24130000Y-3429000D03*
X18999525Y2551100D03*
X24003000Y-33782000D03*
%TO.N,5V*%
X42037000Y-46482000D03*
X24789183Y-15512429D03*
X8890000Y-42291000D03*
X42263000Y-16481294D03*
X22225000Y-4953000D03*
X40894007Y-6542000D03*
X10287000Y-32004000D03*
X25654000Y-20447000D03*
X9906000Y-5842000D03*
X10287000Y-16637000D03*
X41953000Y-40132000D03*
X42053301Y-13867604D03*
%TO.N,GND*%
X12573000Y-41254000D03*
X16891000Y-6731000D03*
X13790000Y-42471000D03*
X42037000Y3556000D03*
X24130000Y-51689000D03*
X40005000Y-45644391D03*
X38165531Y-44504002D03*
X19811999Y-3811000D03*
X16956000Y-33401000D03*
X29591000Y2794002D03*
X24130000Y-29464000D03*
X12065000Y4430000D03*
X46355000Y-1270000D03*
X9779000Y2159000D03*
X31009349Y-14790000D03*
X44196000Y-24765000D03*
X11938000Y-15621000D03*
X20192990Y-32512000D03*
X43763182Y-34650818D03*
X3068930Y-24204468D03*
X14791391Y1905000D03*
X35769704Y-24593704D03*
X14224000Y-16636998D03*
X30382603Y-39239736D03*
X11303000Y-31115000D03*
X40005006Y-38735000D03*
X13589000Y-32385000D03*
X21844000Y-6193834D03*
X43306990Y-13461996D03*
X23574318Y-11128318D03*
X12700000Y-3811006D03*
X44196000Y-20701000D03*
X13716000Y-7493000D03*
X29823675Y-49609846D03*
X19180697Y-16640000D03*
X3937000Y-17145000D03*
X19811999Y-6223000D03*
X40132000Y-20701000D03*
X22352000Y-34925000D03*
X1220013Y4014013D03*
X19177000Y-24996432D03*
X30479992Y-17715000D03*
X20701000Y-39370000D03*
X32422498Y-9739841D03*
X19049997Y-14605003D03*
X40005006Y-36068000D03*
X41656000Y-7912500D03*
X33908997Y-51815997D03*
%TO.N,GPIO13*%
X37987005Y-2286000D03*
X38227014Y-6034000D03*
%TO.N,GPIO15*%
X44582273Y-3683000D03*
%TO.N,GPIO12*%
X42672000Y-5698409D03*
X37846000Y-1270000D03*
%TO.N,GPIO8*%
X37846000Y3633938D03*
%TO.N,GPIO9*%
X43869994Y-18034000D03*
X37835520Y2605671D03*
%TO.N,GPIO10*%
X43434004Y-11684000D03*
X37719000Y1524000D03*
%TO.N,GPIO11*%
X37877751Y254000D03*
X43120000Y-9144000D03*
%TO.N,GPIO7*%
X39510935Y-34075706D03*
X40513000Y-21893984D03*
%TO.N,GPIO6*%
X40392623Y-34547544D03*
X40757520Y-26859000D03*
%TO.N,GPIO5*%
X40411540Y-30505685D03*
X40386000Y-29083000D03*
%TO.N,GPIO1*%
X43489465Y-23803320D03*
%TO.N,GPIO3*%
X36758604Y-26824978D03*
X35560000Y-30480000D03*
X44608000Y-28909784D03*
%TO.N,GPIO0*%
X42925234Y-22593994D03*
%TO.N,GPIO2*%
X44208005Y-27050996D03*
X35244333Y-29469357D03*
X35852930Y-26400998D03*
%TO.N,D4*%
X7005958Y-20804632D03*
X6833237Y-10278737D03*
X6985004Y-3429000D03*
X7132981Y-36225256D03*
X5898993Y-28103938D03*
X6626187Y-46951054D03*
%TO.N,D5*%
X7209936Y-46139117D03*
X7380178Y-35256288D03*
X7406419Y-19888316D03*
X8128000Y-3429000D03*
X7094790Y-9313546D03*
X5748000Y-29337000D03*
%TO.N,D6*%
X7641549Y-34291048D03*
X6797975Y-29276975D03*
X7162653Y-8315849D03*
X7211000Y-45139115D03*
X9398000Y-3429000D03*
X7695760Y-18931087D03*
X18669000Y-29464000D03*
X24130000Y-31369000D03*
%TO.N,D1*%
X4445004Y-2032000D03*
X4457081Y-26227000D03*
X5715004Y-12573010D03*
X5280279Y-49573615D03*
X5565758Y-23454082D03*
X5555731Y-38638014D03*
%TO.N,D7*%
X8128000Y-7747000D03*
X19571019Y-30339981D03*
X24229000Y-32647909D03*
X7211000Y-44139112D03*
X7879801Y-33319842D03*
X6858000Y-30353000D03*
X8036659Y-17990985D03*
X10667992Y-3429000D03*
%TO.N,D3*%
X6477376Y-36980364D03*
X6422366Y-47930064D03*
X6985012Y-2032000D03*
X6580572Y-21709647D03*
X5855343Y-10487851D03*
X4948000Y-27794715D03*
%TO.N,D0*%
X2667000Y-26289000D03*
X2873245Y-12556000D03*
X2540000Y-23241000D03*
X3302003Y-2031997D03*
X1651000Y-49022000D03*
X2920994Y-38834000D03*
%TO.N,Write GD _{0..7}*%
X8128000Y-50038000D03*
X10668000Y-40464000D03*
%TO.N,D2*%
X5338583Y-26699185D03*
X6293896Y-37963390D03*
X5769909Y-48687892D03*
X5715000Y-2032000D03*
X6030820Y-22544978D03*
X6095014Y-11648007D03*
%TO.N,Read*%
X2730500Y-825500D03*
X20574000Y2086008D03*
X21600433Y-27489000D03*
%TO.N,Enable*%
X40858758Y-12944528D03*
X40957493Y-9943723D03*
X41148000Y-50673000D03*
X41628000Y-18991193D03*
X41148000Y-43800000D03*
%TO.N,Write OE _{0..7}*%
X1459000Y-40513000D03*
%TO.N,Write*%
X15748000Y-50038000D03*
X13970000Y-4764008D03*
X17144996Y-39496996D03*
X16002000Y-13081000D03*
X2552003Y-4445000D03*
X17348915Y-24206432D03*
%TO.N,Write GD _{8..15}*%
X3830331Y-42857362D03*
X2732000Y-25146000D03*
%TO.N,Write OE _{8..15}*%
X1540874Y-13698395D03*
%TD*%
D16*
%TO.N,/OE3*%
X37889000Y-40435341D02*
X37889000Y-37337931D01*
X37262079Y-36711010D02*
X37211000Y-36711010D01*
X38354000Y-48007986D02*
X37465531Y-47119517D01*
X37465533Y-42759727D02*
X37465533Y-40858808D01*
X37465531Y-42759729D02*
X37465533Y-42759727D01*
X37465531Y-47119517D02*
X37465531Y-42759729D01*
X37465533Y-40858808D02*
X37889000Y-40435341D01*
X37889000Y-37337931D02*
X37262079Y-36711010D01*
%TO.N,/OE2*%
X37489001Y-49300001D02*
X37489001Y-47708673D01*
X38227000Y-50038000D02*
X37489001Y-49300001D01*
X37065531Y-47285201D02*
X37065531Y-40693125D01*
X37454526Y-40304130D02*
X37454526Y-38216526D01*
X37454526Y-38216526D02*
X36957000Y-37719000D01*
X37065531Y-40693125D02*
X37454526Y-40304130D01*
X37489001Y-47708673D02*
X37065531Y-47285201D01*
%TO.N,/OE1*%
X36749767Y-40443204D02*
X36749767Y-38751785D01*
X36792000Y-49188500D02*
X36792000Y-47577356D01*
X35623500Y-50357000D02*
X36792000Y-49188500D01*
X36665531Y-40527440D02*
X36749767Y-40443204D01*
X36792000Y-47577356D02*
X36665531Y-47450887D01*
X36665531Y-47450887D02*
X36665531Y-40527440D01*
%TO.N,/OE0*%
X36265531Y-48015314D02*
X36265531Y-39680243D01*
X36265531Y-39680243D02*
X36010606Y-39425318D01*
X36082845Y-48198000D02*
X36265531Y-48015314D01*
%TO.N,/GD3*%
X23111800Y-48104560D02*
X23111800Y-46171501D01*
X23111800Y-46171501D02*
X23120301Y-46163000D01*
X23953941Y-48946701D02*
X23111800Y-48104560D01*
%TO.N,/GD2*%
X25551997Y-50287493D02*
X25551997Y-47203997D01*
X25551997Y-47203997D02*
X25273000Y-46925000D01*
%TO.N,/GD1*%
X18857996Y-48440082D02*
X18857996Y-50328810D01*
X18763006Y-48345092D02*
X18857996Y-48440082D01*
%TO.N,/GD4*%
X21562400Y-44861219D02*
X21562400Y-42229146D01*
X18796000Y-46532734D02*
X19890885Y-46532734D01*
X21562400Y-42229146D02*
X20451254Y-41118000D01*
X19890885Y-46532734D02*
X21562400Y-44861219D01*
%TO.N,/GD5*%
X19640495Y-45793174D02*
X20393000Y-45040669D01*
X20393000Y-45040669D02*
X20393000Y-43038576D01*
%TO.N,/OE4*%
X35197839Y-40730746D02*
X35408198Y-40941105D01*
X35197839Y-36975839D02*
X35197839Y-40730746D01*
%TO.N,/OE5*%
X34036000Y-41389448D02*
X34036000Y-36932999D01*
X32596584Y-42828864D02*
X34036000Y-41389448D01*
%TO.N,/OE6*%
X37865533Y-41024496D02*
X38289000Y-40601029D01*
X38289000Y-40601029D02*
X38289000Y-37002745D01*
X38528831Y-43572327D02*
X37865533Y-42909029D01*
X38289000Y-37002745D02*
X38416000Y-36875745D01*
X37865533Y-42909029D02*
X37865533Y-41024496D01*
%TO.N,/OE7*%
X38735000Y-41240259D02*
X38735000Y-37973001D01*
X38565531Y-41409728D02*
X38735000Y-41240259D01*
X38735000Y-37973001D02*
X38989000Y-37719001D01*
%TO.N,Net-(IC3-1Y)*%
X31072000Y-46207148D02*
X31072000Y-45969817D01*
X32551556Y-44823002D02*
X35369889Y-42004669D01*
X31072000Y-45969817D02*
X32218815Y-44823002D01*
X32218815Y-44823002D02*
X32551556Y-44823002D01*
X24384000Y-46101000D02*
X22606000Y-44323000D01*
X22606000Y-44323000D02*
X22606000Y-39893998D01*
%TO.N,Net-(IC3-2Y)*%
X31788000Y-43161861D02*
X31788000Y-40015838D01*
X31788000Y-40015838D02*
X32191314Y-39612524D01*
X32443167Y-43817028D02*
X31788000Y-43161861D01*
%TO.N,Net-(IC3-4Y)*%
X35559992Y-43660000D02*
X34328010Y-43660000D01*
X32117038Y-45870972D02*
X32117038Y-46087038D01*
X34328010Y-43660000D02*
X32117038Y-45870972D01*
X25400000Y-42418000D02*
X25400000Y-44450000D01*
X25400000Y-44450000D02*
X26289000Y-45339000D01*
%TO.N,/GD8*%
X19304000Y-21508693D02*
X19304000Y-23159807D01*
X20053472Y-20759221D02*
X19304000Y-21508693D01*
X19304000Y-23159807D02*
X20193000Y-24048807D01*
%TO.N,/GD10*%
X20552007Y-25899601D02*
X20552007Y-25911568D01*
X20070476Y-22648807D02*
X21020000Y-23598331D01*
X27230323Y-23465323D02*
X27178000Y-23413000D01*
X27005049Y-26878049D02*
X27230323Y-26652775D01*
X21020000Y-23598331D02*
X21020000Y-25431608D01*
X27230323Y-26652775D02*
X27230323Y-23465323D01*
X21020000Y-25431608D02*
X20552007Y-25899601D01*
%TO.N,/GD11*%
X20389527Y-21701066D02*
X21717000Y-23028539D01*
X25584063Y-26212769D02*
X25584063Y-21719149D01*
X21717000Y-25827495D02*
X21587443Y-25957052D01*
X25584063Y-21719149D02*
X25753000Y-21550212D01*
X25273000Y-26523832D02*
X25584063Y-26212769D01*
X21717000Y-23028539D02*
X21717000Y-25827495D01*
%TO.N,/GD12*%
X17152194Y-15562730D02*
X17502125Y-15212799D01*
X17152194Y-21016114D02*
X17152194Y-15562730D01*
%TO.N,/GD13*%
X19326638Y-18902638D02*
X19326638Y-17484009D01*
X20542211Y-16268436D02*
X20542211Y-15676899D01*
X20193000Y-19769000D02*
X19326638Y-18902638D01*
X19326638Y-17484009D02*
X20542211Y-16268436D01*
%TO.N,/GD14*%
X23495000Y-19369002D02*
X23495000Y-17117000D01*
X23495000Y-17117000D02*
X23975000Y-16637000D01*
%TO.N,/GD15*%
X25753000Y-18731000D02*
X25753000Y-15779002D01*
%TO.N,/OE8*%
X29553975Y-9490789D02*
X29458186Y-9395000D01*
X29553975Y-11982952D02*
X29553975Y-9490789D01*
X33028544Y-15457521D02*
X29553975Y-11982952D01*
X33028544Y-15996000D02*
X33028544Y-15457521D01*
%TO.N,Net-(IC12-1Y)*%
X28758186Y-10723211D02*
X28853975Y-10819000D01*
X28758186Y-8472314D02*
X28758186Y-10723211D01*
X30035500Y-7195000D02*
X28758186Y-8472314D01*
%TO.N,/OE9*%
X21422839Y-16377758D02*
X21422839Y-10958000D01*
X20065934Y-17734663D02*
X21422839Y-16377758D01*
%TO.N,Net-(IC12-2Y)*%
X34940424Y-12010614D02*
X34152038Y-12799000D01*
X34940424Y-9666420D02*
X34940424Y-12010614D01*
%TO.N,Net-(IC12-3Y)*%
X40005000Y-11086000D02*
X40005000Y-14246594D01*
X40005000Y-14246594D02*
X40356322Y-14597916D01*
X40197000Y-10894000D02*
X40005000Y-11086000D01*
%TO.N,/OE10*%
X37635000Y-12369000D02*
X37146000Y-12858000D01*
X37146000Y-12858000D02*
X37146000Y-18459194D01*
%TO.N,Net-(IC12-4Y)*%
X38735000Y-14097000D02*
X38735000Y-11155081D01*
X37575374Y-9995455D02*
X37575374Y-8719162D01*
X38735000Y-11155081D02*
X37575374Y-9995455D01*
%TO.N,/OE11*%
X37908413Y-13244430D02*
X38335000Y-12817843D01*
X38335000Y-12817843D02*
X38335000Y-11745031D01*
X38227000Y-16002000D02*
X37908413Y-15683413D01*
X38335000Y-11745031D02*
X38027520Y-11437551D01*
X37908413Y-15683413D02*
X37908413Y-13244430D01*
%TO.N,/OE12*%
X21020008Y-8443992D02*
X21336000Y-8443992D01*
X19558000Y-9906000D02*
X21020008Y-8443992D01*
%TO.N,/OE14*%
X38298958Y-8067473D02*
X38298958Y-9409402D01*
X37550647Y-7319162D02*
X38298958Y-8067473D01*
%TO.N,Net-(IC21-1Y)*%
X35300610Y-46209539D02*
X35300610Y-48827774D01*
X35038248Y-45947177D02*
X35300610Y-46209539D01*
%TO.N,Net-(IC21-3Y)*%
X30716000Y-52814000D02*
X33167552Y-52814000D01*
X38085578Y-51703422D02*
X38085578Y-51027952D01*
X37300271Y-52488729D02*
X38085578Y-51703422D01*
X29817000Y-51915000D02*
X30716000Y-52814000D01*
X33167552Y-52814000D02*
X33312052Y-52669500D01*
X29817000Y-50781681D02*
X29817000Y-51915000D01*
%TO.N,Net-(IC21-4Y)*%
X36165950Y-51057000D02*
X37209755Y-50013195D01*
X34553490Y-51057000D02*
X36165950Y-51057000D01*
X32264490Y-48768000D02*
X34553490Y-51057000D01*
%TO.N,Net-(IC14-1~{OE})*%
X30868192Y-19423808D02*
X30507260Y-19423808D01*
X31783773Y-18508227D02*
X30868192Y-19423808D01*
X31783773Y-16817000D02*
X31783773Y-18508227D01*
%TO.N,Net-(IC14-2~{OE})*%
X24572996Y-28128996D02*
X24572995Y-22380862D01*
X29415950Y-26692000D02*
X33020000Y-23087950D01*
X33020000Y-23087950D02*
X33020000Y-18796024D01*
X29337000Y-26692000D02*
X29415950Y-26692000D01*
X24638000Y-28194000D02*
X24572996Y-28128996D01*
%TO.N,Net-(IC14-3~{OE})*%
X37641789Y-21698155D02*
X38552273Y-20787671D01*
X38552273Y-20787671D02*
X38552273Y-19513746D01*
%TO.N,Net-(IC14-4~{OE})*%
X38100000Y-18782457D02*
X38100000Y-17653000D01*
X36843263Y-20039194D02*
X38100000Y-18782457D01*
%TO.N,Net-(IC4-1Y)*%
X19558004Y-49530000D02*
X19558004Y-51889012D01*
X29972000Y-40647060D02*
X31091314Y-39527746D01*
X29972000Y-48740453D02*
X29972000Y-40647060D01*
X31640475Y-51514013D02*
X31571197Y-51444735D01*
X31091314Y-38054650D02*
X36595000Y-32550964D01*
X36595000Y-32550964D02*
X36595000Y-28429000D01*
X19558004Y-51889012D02*
X19939000Y-52270008D01*
X31091314Y-39527746D02*
X31091314Y-38054650D01*
X36595000Y-28429000D02*
X37465000Y-27559000D01*
X31571197Y-51444735D02*
X31571197Y-50339650D01*
X31571197Y-50339650D02*
X29972000Y-48740453D01*
%TO.N,Net-(IC4-2Y)*%
X32271197Y-49993511D02*
X32271197Y-50738000D01*
X31491314Y-38220336D02*
X31491314Y-39693431D01*
X37117000Y-29038374D02*
X37117000Y-32594650D01*
X37606422Y-28548952D02*
X37117000Y-29038374D01*
X31491314Y-39693431D02*
X30372000Y-40812745D01*
X30372000Y-48094314D02*
X32271197Y-49993511D01*
X30372000Y-40812745D02*
X30372000Y-48094314D01*
X37117000Y-32594650D02*
X31491314Y-38220336D01*
%TO.N,Net-(IC4-3Y)*%
X36073318Y-34951318D02*
X36073318Y-34310732D01*
X37517000Y-30901950D02*
X37517000Y-30322050D01*
X29194786Y-34949000D02*
X28956000Y-35187786D01*
X37984525Y-29912000D02*
X38038588Y-29857937D01*
X37984525Y-31369475D02*
X37517000Y-30901950D01*
X28956000Y-48517000D02*
X26289000Y-51184000D01*
X37927050Y-29912000D02*
X37984525Y-29912000D01*
X36073318Y-34310732D02*
X37984525Y-32399525D01*
X37984525Y-32399525D02*
X37984525Y-31369475D01*
X37517000Y-30322050D02*
X37927050Y-29912000D01*
X38038588Y-29857937D02*
X38038588Y-29628041D01*
X28956000Y-35187786D02*
X28956000Y-48517000D01*
%TO.N,Net-(IC4-4Y)*%
X38499000Y-33124000D02*
X38499000Y-30894000D01*
X28263462Y-35072486D02*
X28263462Y-47936538D01*
X28263462Y-47936538D02*
X26416000Y-49784000D01*
X38499000Y-30894000D02*
X38217000Y-30612000D01*
X37211000Y-34412000D02*
X38499000Y-33124000D01*
X28053976Y-34863000D02*
X28263462Y-35072486D01*
%TO.N,Net-(IC9-1Y)*%
X34006075Y-32129367D02*
X33098732Y-31222024D01*
X28929921Y-31222024D02*
X25019000Y-35132945D01*
X25019000Y-35132945D02*
X25019000Y-40735320D01*
X25019000Y-40735320D02*
X24192000Y-41562320D01*
X33098732Y-31222024D02*
X28929921Y-31222024D01*
%TO.N,Net-(IC9-2Y)*%
X25419000Y-35298630D02*
X25419000Y-41383000D01*
X32788933Y-31927534D02*
X28790096Y-31927534D01*
X25419000Y-41383000D02*
X23749000Y-43053000D01*
X23749000Y-43053000D02*
X23749000Y-43180000D01*
X28790096Y-31927534D02*
X25419000Y-35298630D01*
%TO.N,Net-(IC9-3Y)*%
X27520315Y-33763000D02*
X32316027Y-33763000D01*
X26746220Y-34537094D02*
X27520315Y-33763000D01*
X26746220Y-42112269D02*
X26746220Y-34537094D01*
X27002584Y-44545000D02*
X26416000Y-43958416D01*
X26416000Y-42442489D02*
X26746220Y-42112269D01*
X26416000Y-43958416D02*
X26416000Y-42442489D01*
X32316027Y-33763000D02*
X33267230Y-32811797D01*
%TO.N,Net-(IC9-4Y)*%
X27146220Y-42702220D02*
X27146220Y-34702780D01*
X33165651Y-34163000D02*
X34223119Y-33105532D01*
X27686000Y-34163000D02*
X33165651Y-34163000D01*
X27146220Y-34702780D02*
X27686000Y-34163000D01*
%TO.N,Net-(IC14-1Y)*%
X34436000Y-547006D02*
X36050647Y-2161654D01*
X36050647Y-2161654D02*
X36050647Y-12256296D01*
X35249000Y-13057945D02*
X35249000Y-15932000D01*
X34928106Y3513000D02*
X34436000Y3020894D01*
X23173000Y-25513136D02*
X23173000Y-21658000D01*
X36050647Y-12256296D02*
X35249000Y-13057945D01*
X23173000Y-21658000D02*
X23495000Y-21336000D01*
X23654762Y-25994898D02*
X23173000Y-25513136D01*
X34625115Y-16555885D02*
X34625115Y-23999766D01*
X35249000Y-15932000D02*
X34625115Y-16555885D01*
X34436000Y3020894D02*
X34436000Y-547006D01*
%TO.N,Net-(IC14-2Y)*%
X34877165Y-422486D02*
X36450647Y-1995968D01*
X35641970Y3201885D02*
X34877165Y2437080D01*
X36215447Y3201885D02*
X35641970Y3201885D01*
X35649000Y-13223630D02*
X35649000Y-23289088D01*
X35649000Y-23289088D02*
X35483789Y-23454299D01*
X36450647Y-12421982D02*
X35649000Y-13223630D01*
X23873000Y-23273000D02*
X23873000Y-25019000D01*
X36450647Y-1995968D02*
X36450647Y-12421982D01*
X34877165Y2437080D02*
X34877165Y-422486D01*
%TO.N,Net-(IC14-3Y)*%
X39255106Y-20884930D02*
X38880000Y-21260036D01*
X38880000Y-21724770D02*
X37957885Y-22646885D01*
X36177813Y2132058D02*
X36792921Y1516950D01*
X39497000Y-8161350D02*
X39497000Y-14697574D01*
X37286999Y-6083935D02*
X37937064Y-6734000D01*
X37937064Y-6734000D02*
X38069650Y-6734000D01*
X36792921Y1516950D02*
X36792921Y-1206872D01*
X38880000Y-21260036D02*
X38880000Y-21724770D01*
X36792921Y-1206872D02*
X37286999Y-1700950D01*
X38069650Y-6734000D02*
X39497000Y-8161350D01*
X35667626Y2132058D02*
X36177813Y2132058D01*
X39497000Y-14697574D02*
X39255106Y-14939468D01*
X37286999Y-1700950D02*
X37286999Y-6083935D01*
X39255106Y-14939468D02*
X39255106Y-20884930D01*
%TO.N,Net-(IC14-4Y)*%
X36850647Y-1830283D02*
X36850647Y-12587668D01*
X36092921Y-1072556D02*
X36850647Y-1830283D01*
X36049000Y-21214618D02*
X36450886Y-21616504D01*
X36049000Y-13389315D02*
X36049000Y-21214618D01*
X36092921Y1227000D02*
X36092921Y-1072556D01*
X36850647Y-12587668D02*
X36049000Y-13389315D01*
%TO.N,Net-(IC18-1Y)*%
X33112608Y-1457163D02*
X31051498Y-3518273D01*
X31051498Y-9997477D02*
X30253975Y-10795000D01*
X31051498Y-3518273D02*
X31051498Y-9997477D01*
%TO.N,Net-(IC18-2Y)*%
X34544000Y-8958437D02*
X31380884Y-12121553D01*
X34544000Y-2667000D02*
X34544000Y-8958437D01*
X31380884Y-12121553D02*
X30907322Y-12121553D01*
%TO.N,Net-(IC18-3Y)*%
X34849000Y-12892257D02*
X34849000Y-15186000D01*
X34849000Y-15186000D02*
X32639000Y-17396000D01*
X35650640Y-3773640D02*
X35650640Y-12090617D01*
X35650640Y-12090617D02*
X34849000Y-12892257D01*
X35306000Y-3429000D02*
X35650640Y-3773640D01*
%TO.N,Net-(IC18-4Y)*%
X27408549Y-6795000D02*
X27686010Y-7072461D01*
X33233907Y-5529093D02*
X33233907Y-3491000D01*
X27686010Y-15007963D02*
X27453975Y-15239998D01*
X32413000Y-6350000D02*
X33233907Y-5529093D01*
X27686010Y-7072461D02*
X27686010Y-15007963D01*
%TO.N,Net-(IC17A-1Y)*%
X26469495Y-32692495D02*
X28153975Y-31008015D01*
X28153975Y2351795D02*
X27588585Y2917185D01*
X28153975Y-31008015D02*
X28153975Y2351795D01*
%TO.N,Net-(IC13-~{OE})*%
X27178004Y635005D02*
X26162006Y1651003D01*
X27178004Y-3814000D02*
X27178004Y635005D01*
D17*
%TO.N,/3.3V*%
X24003000Y-33782000D02*
X24384000Y-33782000D01*
X26162000Y-28829000D02*
X26162000Y-22860000D01*
X26543000Y-22479000D02*
X26543000Y-6731000D01*
X24130000Y-3429000D02*
X24130000Y444500D01*
X25019000Y-33147000D02*
X25019000Y-29972000D01*
X26162000Y-22860000D02*
X26543000Y-22479000D01*
X26543000Y-6731000D02*
X24130000Y-4318000D01*
X19369425Y2921000D02*
X18999525Y2551100D01*
X21653500Y2921000D02*
X19369425Y2921000D01*
X24130000Y444500D02*
X21653500Y2921000D01*
X25019000Y-29972000D02*
X26162000Y-28829000D01*
X24130000Y-4318000D02*
X24130000Y-3429000D01*
X24384000Y-33782000D02*
X25019000Y-33147000D01*
%TO.N,5V*%
X8890000Y-42291000D02*
X8890000Y-41021000D01*
X22225000Y-4953000D02*
X24802973Y-7530973D01*
X42037000Y-46482000D02*
X42037000Y-40216000D01*
X24789183Y-19582183D02*
X24789183Y-15512429D01*
X24802973Y-7530973D02*
X24802973Y-15498639D01*
X42038000Y-40047000D02*
X41953000Y-40132000D01*
X40640000Y-6796007D02*
X40640000Y-8509000D01*
X24802973Y-15498639D02*
X24789183Y-15512429D01*
X10287000Y-32004000D02*
X10287000Y-16637000D01*
X9906000Y-12192000D02*
X9906000Y-5842000D01*
X42263000Y-16481294D02*
X42053301Y-16271595D01*
X10287000Y-16637000D02*
X10287000Y-12573000D01*
X41750000Y-13564303D02*
X42053301Y-13867604D01*
X25654000Y-20447000D02*
X24789183Y-19582183D01*
X42418000Y-16636294D02*
X42418000Y-20828000D01*
X42053301Y-16271595D02*
X42053301Y-13867604D01*
X10287000Y-39624000D02*
X10287000Y-32004000D01*
X42038000Y-21208000D02*
X42038000Y-40047000D01*
X41750000Y-9619000D02*
X41750000Y-13564303D01*
X42263000Y-16481294D02*
X42418000Y-16636294D01*
X40894007Y-6542000D02*
X40640000Y-6796007D01*
X8890000Y-41021000D02*
X10287000Y-39624000D01*
X42418000Y-20828000D02*
X42038000Y-21208000D01*
X40640000Y-8509000D02*
X41750000Y-9619000D01*
X42037000Y-40216000D02*
X41953000Y-40132000D01*
X10287000Y-12573000D02*
X9906000Y-12192000D01*
%TO.N,GND*%
X44450000Y-20955000D02*
X44450000Y-24511000D01*
X39370000Y4572000D02*
X33921998Y4572000D01*
X47058000Y-567000D02*
X47058000Y948000D01*
X-1270000Y-13970000D02*
X-1270000Y1524000D01*
X33020003Y-51815997D02*
X33908997Y-51815997D01*
X19049997Y-14605003D02*
X18592707Y-14147713D01*
X45720000Y-15240000D02*
X47058000Y-13902000D01*
X31333233Y-52324000D02*
X32512000Y-52324000D01*
X42037000Y3556000D02*
X40386000Y3556000D01*
X38703302Y-33766110D02*
X39007000Y-33462412D01*
X19811999Y-6223000D02*
X19811999Y-3811000D01*
X43763182Y-34650818D02*
X43418005Y-34305641D01*
X34256375Y-31208375D02*
X34256375Y-26107033D01*
X12065000Y4430000D02*
X9794000Y2159000D01*
X3937000Y-23336398D02*
X3068930Y-24204468D01*
X18542000Y-17278697D02*
X19180697Y-16640000D01*
X44450000Y3556000D02*
X42037000Y3556000D01*
X39007000Y-33462412D02*
X39007000Y-26472408D01*
X41656000Y-7912500D02*
X42330000Y-8586500D01*
X44196000Y-25531209D02*
X44196000Y-24765000D01*
X26983271Y-52451000D02*
X29823675Y-49610596D01*
X31946999Y2597001D02*
X33946000Y598000D01*
X43417998Y-26309211D02*
X44196000Y-25531209D01*
X30382603Y-38070397D02*
X35023999Y-33429001D01*
X43418005Y-34305641D02*
X43418005Y-27046507D01*
X23622000Y-7971834D02*
X21844000Y-6193834D01*
X17399000Y-6223000D02*
X16891000Y-6731000D01*
X19177000Y-24996432D02*
X18542000Y-24361432D01*
X16956000Y-33401000D02*
X16956000Y-27217432D01*
X35023999Y-33429001D02*
X35023999Y-31975999D01*
X13589000Y-40238000D02*
X12573000Y-41254000D01*
X42330000Y-8586500D02*
X42330000Y-12485006D01*
X24130000Y-29464000D02*
X21336000Y-29464000D01*
X43053000Y-13715986D02*
X43306990Y-13461996D01*
X33946000Y598000D02*
X33946000Y-1741000D01*
X16956000Y-27217432D02*
X19177000Y-24996432D01*
X33946000Y-1741000D02*
X32986000Y-2701000D01*
X40005006Y-38735000D02*
X40005006Y-36068000D01*
X47058000Y-1973000D02*
X46355000Y-1270000D01*
X39007000Y-26472408D02*
X37128296Y-24593704D01*
X18592707Y-14147713D02*
X18592707Y-8458293D01*
X40005006Y-36068000D02*
X38703302Y-34766296D01*
X22352000Y-37719000D02*
X22352000Y-34925000D01*
X32906678Y-2701000D02*
X31623000Y-3984678D01*
X11938000Y-15621000D02*
X13208002Y-15621000D01*
X32512000Y-52324000D02*
X33020003Y-51815997D01*
X44196000Y-20701000D02*
X44450000Y-20955000D01*
X32986000Y-2701000D02*
X32906678Y-2701000D01*
X33921998Y4572000D02*
X31946999Y2597001D01*
X30850475Y-50636646D02*
X30850475Y-51841242D01*
X35023999Y-31975999D02*
X34256375Y-31208375D01*
X19811999Y-7239001D02*
X19811999Y-6223000D01*
X13716000Y-15113002D02*
X13208002Y-15621000D01*
X40005000Y-38735006D02*
X40005006Y-38735000D01*
X24892000Y-52451000D02*
X26983271Y-52451000D01*
X31623000Y-8940343D02*
X32422498Y-9739841D01*
X44196000Y-20701000D02*
X43053000Y-19558000D01*
X38735000Y-22979020D02*
X38735000Y-22987000D01*
X40386000Y3556000D02*
X39370000Y4572000D01*
X43053000Y-19558000D02*
X43053000Y-13715986D01*
X-1270000Y1524000D02*
X1220013Y4014013D01*
X24130000Y-51689000D02*
X24892000Y-52451000D01*
X18542000Y-24361432D02*
X18542000Y-17278697D01*
X13589000Y-32385000D02*
X12573000Y-32385000D01*
X31009349Y-14790000D02*
X30861000Y-14938349D01*
X43418005Y-27046507D02*
X43418002Y-27046504D01*
X34256375Y-26107033D02*
X35769704Y-24593704D01*
X21336000Y-29464000D02*
X19177000Y-27305000D01*
X19180697Y-16640000D02*
X19180697Y-14735703D01*
X22352000Y-34925000D02*
X20192990Y-32765990D01*
X44450000Y-24511000D02*
X44196000Y-24765000D01*
X29823675Y-49610596D02*
X29823675Y-49609846D01*
X19811999Y-6223000D02*
X17399000Y-6223000D01*
X38703302Y-34766296D02*
X38703302Y-33766110D01*
X23622000Y-11080636D02*
X23622000Y-7971834D01*
X13208002Y-15621000D02*
X14224000Y-16636998D01*
X12700000Y-3811006D02*
X12700000Y-186391D01*
X39370000Y-22344020D02*
X38735000Y-22979020D01*
X30382603Y-39239736D02*
X30382603Y-38070397D01*
X16956000Y-33401000D02*
X19303990Y-33401000D01*
X31946999Y2597001D02*
X29788001Y2597001D01*
X13716000Y-7493000D02*
X13716000Y-15113002D01*
X47058000Y-13902000D02*
X47058000Y-1973000D01*
X9794000Y2159000D02*
X9779000Y2159000D01*
X18592707Y-8458293D02*
X19811999Y-7239001D01*
X19303990Y-33401000D02*
X20192990Y-32512000D01*
X47058000Y948000D02*
X44450000Y3556000D01*
X46355000Y-1270000D02*
X47058000Y-567000D01*
X12700000Y-3811006D02*
X12700000Y-6477000D01*
X12573000Y-41254000D02*
X13790000Y-42471000D01*
X29823675Y-49609846D02*
X30850475Y-50636646D01*
X20192990Y-32765990D02*
X20192990Y-32512000D01*
X42330000Y-12485006D02*
X43306990Y-13461996D01*
X12573000Y-32385000D02*
X11303000Y-31115000D01*
X30861000Y-14938349D02*
X30861000Y-17333992D01*
X19177000Y-27305000D02*
X19177000Y-24996432D01*
X12700000Y-6477000D02*
X13716000Y-7493000D01*
X39305920Y-45644391D02*
X38165531Y-44504002D01*
X20701000Y-39370000D02*
X22352000Y-37719000D01*
X0Y-15240000D02*
X-1270000Y-13970000D01*
X40005000Y-45644391D02*
X40005000Y-38735006D01*
X43418002Y-27046504D02*
X43417998Y-26309211D01*
X23574318Y-11128318D02*
X23622000Y-11080636D01*
X19180697Y-14735703D02*
X19049997Y-14605003D01*
X31623000Y-3984678D02*
X31623000Y-8940343D01*
X3937000Y-17145000D02*
X3937000Y-23336398D01*
X29788001Y2597001D02*
X29591000Y2794002D01*
X13589000Y-32385000D02*
X13589000Y-40238000D01*
X38735000Y-22987000D02*
X37128296Y-24593704D01*
X37128296Y-24593704D02*
X35769704Y-24593704D01*
X12700000Y-186391D02*
X14791391Y1905000D01*
X40005000Y-45644391D02*
X39305920Y-45644391D01*
X30850475Y-51841242D02*
X31333233Y-52324000D01*
X39370000Y-21463000D02*
X39370000Y-22344020D01*
X40132000Y-20701000D02*
X39370000Y-21463000D01*
X30861000Y-17333992D02*
X30479992Y-17715000D01*
D16*
%TO.N,GPIO13*%
X37987005Y-2286000D02*
X37987005Y-5793991D01*
X37987005Y-5793991D02*
X38227014Y-6034000D01*
%TO.N,GPIO15*%
X44582273Y-1137727D02*
X44582273Y-3683000D01*
X45720000Y0D02*
X44582273Y-1137727D01*
%TO.N,GPIO12*%
X38243591Y-1270000D02*
X42672000Y-5698409D01*
X37846000Y-1270000D02*
X38243591Y-1270000D01*
%TO.N,GPIO8*%
X43815000Y-4154403D02*
X43815000Y-2286000D01*
X44620000Y-19220000D02*
X44620000Y-4959403D01*
X44620000Y-4959403D02*
X43815000Y-4154403D01*
X37895062Y3633938D02*
X37846000Y3633938D01*
X43815000Y-2286000D02*
X37895062Y3633938D01*
X45720000Y-20320000D02*
X44620000Y-19220000D01*
%TO.N,GPIO9*%
X43227541Y-2714541D02*
X37907329Y2605671D01*
X44220000Y-5125089D02*
X43227541Y-4132630D01*
X44220000Y-17683994D02*
X44220000Y-5125089D01*
X43869994Y-18034000D02*
X44220000Y-17683994D01*
X43227541Y-4132630D02*
X43227541Y-2714541D01*
X37907329Y2605671D02*
X37835520Y2605671D01*
%TO.N,GPIO10*%
X43820000Y-5290773D02*
X39574921Y-1045694D01*
X39574921Y-331921D02*
X37719000Y1524000D01*
X43434004Y-11684000D02*
X43820000Y-11298004D01*
X39574921Y-1045694D02*
X39574921Y-331921D01*
X43820000Y-11298004D02*
X43820000Y-5290773D01*
%TO.N,GPIO11*%
X37877751Y85790D02*
X37877751Y254000D01*
X43120000Y-9144000D02*
X43372000Y-8892000D01*
X43372000Y-8892000D02*
X43372000Y-5408459D01*
X43372000Y-5408459D02*
X37877751Y85790D01*
%TO.N,GPIO7*%
X39497000Y-22909984D02*
X39497000Y-34061771D01*
X39497000Y-34061771D02*
X39510935Y-34075706D01*
X40513000Y-21893984D02*
X39497000Y-22909984D01*
%TO.N,GPIO6*%
X41148000Y-27249480D02*
X40757520Y-26859000D01*
X40392623Y-34547544D02*
X41148000Y-33792167D01*
X41148000Y-33792167D02*
X41148000Y-27249480D01*
%TO.N,GPIO5*%
X40411540Y-30505685D02*
X40411540Y-29108540D01*
X40411540Y-29108540D02*
X40386000Y-29083000D01*
%TO.N,GPIO1*%
X45720000Y-40640000D02*
X42927999Y-37847999D01*
X42928000Y-24364785D02*
X43489465Y-23803320D01*
X42927999Y-37847999D02*
X42928000Y-24364785D01*
%TO.N,GPIO3*%
X36195000Y-29845000D02*
X36195000Y-27388582D01*
X44517520Y-33849520D02*
X44517520Y-29000264D01*
X45720000Y-35052000D02*
X44517520Y-33849520D01*
X36195000Y-27388582D02*
X36758604Y-26824978D01*
X35560000Y-30480000D02*
X36195000Y-29845000D01*
X44517520Y-29000264D02*
X44608000Y-28909784D01*
%TO.N,GPIO0*%
X42527999Y-38013684D02*
X42528000Y-22991228D01*
X45720000Y-45720000D02*
X42653000Y-42653000D01*
X42528000Y-22991228D02*
X42925234Y-22593994D01*
X42653000Y-42653000D02*
X42653000Y-38138686D01*
X42653000Y-38138686D02*
X42527999Y-38013684D01*
%TO.N,GPIO2*%
X43908005Y-27350996D02*
X44208005Y-27050996D01*
X44570000Y-36950000D02*
X44570000Y-34467686D01*
X44570000Y-34467686D02*
X43908005Y-33805691D01*
X43908005Y-33805691D02*
X43908005Y-27350996D01*
X35244333Y-27009595D02*
X35244333Y-29469357D01*
X35852930Y-26400998D02*
X35244333Y-27009595D01*
X45720000Y-38100000D02*
X44570000Y-36950000D01*
%TO.N,D4*%
X7005958Y-20804632D02*
X6312000Y-20110674D01*
X7436000Y-39761949D02*
X6011000Y-41186949D01*
X5965000Y-46289867D02*
X6626187Y-46951054D01*
X6011000Y-41186949D02*
X6011000Y-43217791D01*
X6833237Y-10278737D02*
X5876989Y-9322489D01*
X7132981Y-36225256D02*
X5048000Y-34140275D01*
X7132981Y-36225256D02*
X7436000Y-36528275D01*
X7005958Y-20804632D02*
X7450000Y-21248674D01*
X5876989Y-4537015D02*
X6985004Y-3429000D01*
X5048000Y-34140275D02*
X5048000Y-28954931D01*
X5048000Y-28954931D02*
X5898993Y-28103938D01*
X5965000Y-45014434D02*
X5965000Y-46289867D01*
X6312000Y-20110674D02*
X6312000Y-14351321D01*
X7436000Y-36528275D02*
X7436000Y-39761949D01*
X6011000Y-43217791D02*
X5711000Y-43517792D01*
X5711000Y-44760434D02*
X5965000Y-45014434D01*
X7450000Y-26552931D02*
X5898993Y-28103938D01*
X5876989Y-9322489D02*
X5876989Y-4537015D01*
X7341999Y-10787499D02*
X6833237Y-10278737D01*
X7341999Y-13321322D02*
X7341999Y-10787499D01*
X7450000Y-21248674D02*
X7450000Y-26552931D01*
X5711000Y-43517792D02*
X5711000Y-44760434D01*
X6312000Y-14351321D02*
X7341999Y-13321322D01*
%TO.N,D5*%
X7380178Y-35256288D02*
X7836000Y-35712110D01*
X7836000Y-35712110D02*
X7836000Y-39927632D01*
X6712000Y-14517006D02*
X7812000Y-13417006D01*
X6365000Y-44848748D02*
X6365000Y-45294181D01*
X7850001Y-20331898D02*
X7850001Y-27234999D01*
X6411000Y-43383476D02*
X6111000Y-43683477D01*
X7812000Y-10030756D02*
X7094790Y-9313546D01*
X7812000Y-13417006D02*
X7812000Y-10030756D01*
X7380178Y-35256288D02*
X5758000Y-33634110D01*
X6462371Y-5094629D02*
X8128000Y-3429000D01*
X6111000Y-43683477D02*
X6111000Y-44594748D01*
X7094790Y-9313546D02*
X6462371Y-8681127D01*
X7406419Y-19888316D02*
X7850001Y-20331898D01*
X6111000Y-44594748D02*
X6365000Y-44848748D01*
X7406419Y-19888316D02*
X6712000Y-19193897D01*
X6712000Y-19193897D02*
X6712000Y-14517006D01*
X7836000Y-39927632D02*
X6411000Y-41352632D01*
X5758000Y-29347000D02*
X5748000Y-29337000D01*
X7850001Y-27234999D02*
X5748000Y-29337000D01*
X6462371Y-8681127D02*
X6462371Y-5094629D01*
X6411000Y-41352632D02*
X6411000Y-43383476D01*
X6365000Y-45294181D02*
X7209936Y-46139117D01*
X5758000Y-33634110D02*
X5758000Y-29347000D01*
%TO.N,D6*%
X20320000Y-29464000D02*
X22225000Y-31369000D01*
X8250001Y-27824949D02*
X6797975Y-29276975D01*
X7695760Y-18931087D02*
X7174000Y-18409327D01*
X8250001Y-19485328D02*
X8250001Y-27824949D01*
X8212000Y-9365196D02*
X7162653Y-8315849D01*
X22225000Y-31369000D02*
X24130000Y-31369000D01*
X7211000Y-45129062D02*
X7211000Y-45139115D01*
X8212000Y-16628762D02*
X8212000Y-9365196D01*
X6511000Y-43849162D02*
X6511000Y-44429062D01*
X8236000Y-40093315D02*
X6811000Y-41518315D01*
X7162653Y-8315849D02*
X7162653Y-5437897D01*
X7174000Y-18409327D02*
X7174000Y-17666762D01*
X7641549Y-34291048D02*
X8236000Y-34885499D01*
X6811000Y-43549162D02*
X6511000Y-43849162D01*
X7174000Y-17666762D02*
X8212000Y-16628762D01*
X8236000Y-34885499D02*
X8236000Y-40093315D01*
X9171550Y-3429000D02*
X9398000Y-3429000D01*
X6511000Y-44429062D02*
X7211000Y-45129062D01*
X6158000Y-29916950D02*
X6797975Y-29276975D01*
X18669000Y-29464000D02*
X20320000Y-29464000D01*
X7641549Y-34291048D02*
X6158000Y-32807499D01*
X7162653Y-5437897D02*
X9171550Y-3429000D01*
X6811000Y-41518315D02*
X6811000Y-43549162D01*
X7695760Y-18931087D02*
X8250001Y-19485328D01*
X6158000Y-32807499D02*
X6158000Y-29916950D01*
%TO.N,D1*%
X4511000Y-45257492D02*
X4765000Y-45511492D01*
X3848000Y-26836081D02*
X4457081Y-26227000D01*
X5565758Y-23454082D02*
X5565758Y-25118323D01*
X4511000Y-43020737D02*
X4511000Y-45257492D01*
X4811000Y-39382745D02*
X4811000Y-42720736D01*
X4811000Y-42720736D02*
X4511000Y-43020737D01*
X4780942Y-22669266D02*
X4780942Y-13507072D01*
X3848000Y-36930283D02*
X3848000Y-26836081D01*
X5565758Y-25118323D02*
X4457081Y-26227000D01*
X5555731Y-38638014D02*
X3848000Y-36930283D01*
X5555731Y-38638014D02*
X4811000Y-39382745D01*
X4765000Y-49058336D02*
X5280279Y-49573615D01*
X4126126Y-10984132D02*
X4126126Y-2350878D01*
X4126126Y-2350878D02*
X4445004Y-2032000D01*
X4765000Y-45511492D02*
X4765000Y-49058336D01*
X4780942Y-13507072D02*
X5715004Y-12573010D01*
X5565758Y-23454082D02*
X4780942Y-22669266D01*
X5715004Y-12573010D02*
X4126126Y-10984132D01*
%TO.N,D7*%
X8128000Y-7747000D02*
X8128000Y-5968992D01*
X7879801Y-33319842D02*
X7747000Y-33187041D01*
X6858000Y-30353000D02*
X8650000Y-28561000D01*
X8128000Y-5968992D02*
X10667992Y-3429000D01*
X8036659Y-17990985D02*
X8611999Y-17415645D01*
X8611999Y-17415645D02*
X8611999Y-8230999D01*
X7747000Y-31242000D02*
X6858000Y-30353000D01*
X7879801Y-33319842D02*
X8636000Y-34076041D01*
X8636000Y-34076041D02*
X8636000Y-40259000D01*
X8636000Y-40259000D02*
X7211000Y-41684000D01*
X21878947Y-32647909D02*
X24229000Y-32647909D01*
X7211000Y-41684000D02*
X7211000Y-44139112D01*
X8650000Y-28561000D02*
X8650000Y-18604326D01*
X8611999Y-8230999D02*
X8128000Y-7747000D01*
X19571019Y-30339981D02*
X21878947Y-32647909D01*
X8650000Y-18604326D02*
X8036659Y-17990985D01*
X7747000Y-33187041D02*
X7747000Y-31242000D01*
%TO.N,D3*%
X5311000Y-44926120D02*
X5565000Y-45180120D01*
X5565000Y-47072698D02*
X6422366Y-47930064D01*
X5855343Y-10487851D02*
X5141189Y-9773697D01*
X5174561Y-27794715D02*
X4948000Y-27794715D01*
X7050000Y-22179075D02*
X7050000Y-25977718D01*
X5570091Y-27399185D02*
X5174561Y-27794715D01*
X5141189Y-3875823D02*
X6985012Y-2032000D01*
X7036000Y-37538988D02*
X7036000Y-39596266D01*
X6942000Y-11505043D02*
X5924808Y-10487851D01*
X6942000Y-13155635D02*
X6942000Y-11505043D01*
X6477376Y-36980364D02*
X7036000Y-37538988D01*
X5912000Y-21041075D02*
X5912000Y-14185636D01*
X5311000Y-43352107D02*
X5311000Y-44926120D01*
X4648000Y-28094715D02*
X4948000Y-27794715D01*
X6580572Y-21709647D02*
X7050000Y-22179075D01*
X5628533Y-27399185D02*
X5570091Y-27399185D01*
X7050000Y-25977718D02*
X5628533Y-27399185D01*
X7036000Y-39596266D02*
X5611000Y-41021266D01*
X6580572Y-21709647D02*
X5912000Y-21041075D01*
X5565000Y-45180120D02*
X5565000Y-47072698D01*
X6477376Y-36980364D02*
X4648000Y-35150988D01*
X5611000Y-43052106D02*
X5311000Y-43352107D01*
X4648000Y-35150988D02*
X4648000Y-28094715D01*
X5141189Y-9773697D02*
X5141189Y-3875823D01*
X5611000Y-41021266D02*
X5611000Y-43052106D01*
X5924808Y-10487851D02*
X5855343Y-10487851D01*
X5912000Y-14185636D02*
X6942000Y-13155635D01*
%TO.N,D0*%
X2540000Y-23241000D02*
X2032000Y-23749000D01*
X2921000Y-38834006D02*
X2921000Y-47752000D01*
X2032000Y-25654000D02*
X2667000Y-26289000D01*
X2540000Y-12889245D02*
X2873245Y-12556000D01*
X3048000Y-26670000D02*
X3048000Y-38706994D01*
X3302003Y-12127242D02*
X3302003Y-2031997D01*
X3048000Y-38706994D02*
X2920994Y-38834000D01*
X2667000Y-26289000D02*
X3048000Y-26670000D01*
X2873245Y-12556000D02*
X3302003Y-12127242D01*
X2921000Y-47752000D02*
X1651000Y-49022000D01*
X2920994Y-38834000D02*
X2921000Y-38834006D01*
X2540000Y-23241000D02*
X2540000Y-12889245D01*
X2032000Y-23749000D02*
X2032000Y-25654000D01*
%TO.N,Write GD _{0..7}*%
X10668000Y-47498000D02*
X8128000Y-50038000D01*
X10668000Y-40464000D02*
X10668000Y-47498000D01*
%TO.N,D2*%
X6542000Y-12989950D02*
X6542000Y-12094993D01*
X4911000Y-45091806D02*
X5165000Y-45345806D01*
X4741189Y-3005811D02*
X5715000Y-2032000D01*
X6030820Y-22544978D02*
X5512000Y-22026158D01*
X4248000Y-35917494D02*
X4248000Y-27471153D01*
X5019968Y-26699185D02*
X5338583Y-26699185D01*
X6293896Y-39772687D02*
X5211000Y-40855583D01*
X6542000Y-12094993D02*
X6095014Y-11648007D01*
X6293896Y-37963390D02*
X4248000Y-35917494D01*
X6477000Y-22991158D02*
X6477000Y-25560768D01*
X6477000Y-25560768D02*
X5338583Y-26699185D01*
X5165000Y-48082983D02*
X5769909Y-48687892D01*
X4741189Y-10363647D02*
X4741189Y-3005811D01*
X4911000Y-43186422D02*
X4911000Y-45091806D01*
X5211000Y-40855583D02*
X5211000Y-42886421D01*
X6025549Y-11648007D02*
X4741189Y-10363647D01*
X5165000Y-45345806D02*
X5165000Y-48082983D01*
X6030820Y-22544978D02*
X6477000Y-22991158D01*
X5512000Y-14019950D02*
X6542000Y-12989950D01*
X4248000Y-27471153D02*
X5019968Y-26699185D01*
X5512000Y-22026158D02*
X5512000Y-14019950D01*
X6095014Y-11648007D02*
X6025549Y-11648007D01*
X6293896Y-37963390D02*
X6293896Y-39772687D01*
X5211000Y-42886421D02*
X4911000Y-43186422D01*
%TO.N,Read*%
X1840000Y-5780000D02*
X1840000Y-1716000D01*
X21600433Y-27489000D02*
X22639949Y-26449484D01*
X22639949Y-26449484D02*
X22639949Y-7996099D01*
X20574000Y-5930150D02*
X20574000Y2086008D01*
X22639949Y-7996099D02*
X20574000Y-5930150D01*
X0Y-7620000D02*
X1840000Y-5780000D01*
X1840000Y-1716000D02*
X2730500Y-825500D01*
%TO.N,Enable*%
X41148000Y-50673000D02*
X41148000Y-43800000D01*
X41148000Y-39864975D02*
X41148000Y-43800000D01*
X40957493Y-9943723D02*
X40957493Y-12845793D01*
X40957493Y-12845793D02*
X40858758Y-12944528D01*
X41120000Y-13205770D02*
X41120000Y-18483193D01*
X41120000Y-18483193D02*
X41628000Y-18991193D01*
X41548001Y-19071192D02*
X41548000Y-39464975D01*
X41628000Y-18991193D02*
X41548001Y-19071192D01*
X40858758Y-12944528D02*
X41120000Y-13205770D01*
X41548000Y-39464975D02*
X41148000Y-39864975D01*
%TO.N,Write OE _{0..7}*%
X1459000Y-44261000D02*
X1459000Y-40513000D01*
X0Y-45720000D02*
X1459000Y-44261000D01*
%TO.N,Write*%
X0Y-10160000D02*
X2552003Y-7607997D01*
X17145000Y-39497000D02*
X17145000Y-48641000D01*
X16002000Y-22859517D02*
X16002000Y-13081000D01*
X16002000Y-13081000D02*
X16002000Y-6796008D01*
X16002000Y-6796008D02*
X13970000Y-4764008D01*
X17145000Y-48641000D02*
X15748000Y-50038000D01*
X17348915Y-24206432D02*
X16256000Y-25299347D01*
X2552003Y-7607997D02*
X2552003Y-4445000D01*
X16256000Y-25299347D02*
X16256000Y-38608000D01*
X17144996Y-39496996D02*
X17145000Y-39497000D01*
X16256000Y-38608000D02*
X17144996Y-39496996D01*
X17348915Y-24206432D02*
X16002000Y-22859517D01*
%TO.N,Write GD _{8..15}*%
X3400362Y-26456676D02*
X3448000Y-26504314D01*
X2732000Y-25146000D02*
X3400362Y-25814362D01*
X3830331Y-37478300D02*
X3830331Y-42857362D01*
X3448000Y-37095969D02*
X3830331Y-37478300D01*
X3448000Y-26504314D02*
X3448000Y-37095969D01*
X3400362Y-25814362D02*
X3400362Y-26456676D01*
%TO.N,Write OE _{8..15}*%
X0Y-48260000D02*
X2382000Y-45878000D01*
X2382000Y-45878000D02*
X2382000Y-39811050D01*
X1505004Y-38934054D02*
X1505004Y-13734265D01*
X1505004Y-13734265D02*
X1540874Y-13698395D01*
X2382000Y-39811050D02*
X1505004Y-38934054D01*
%TD*%
M02*
