M48
; DRILL file {KiCad 8.0.7} date 2025-04-24T19:06:40+0200
; FORMAT={-:-/ absolute / inch / decimal}
; #@! TF.CreationDate,2025-04-24T19:06:40+02:00
; #@! TF.GenerationSoftware,Kicad,Pcbnew,8.0.7
; #@! TF.FileFunction,Plated,1,2,PTH
FMAT,2
INCH
; #@! TA.AperFunction,Plated,PTH,ViaDrill
T1C0.0157
; #@! TA.AperFunction,Plated,PTH,ComponentDrill
T2C0.0394
%
G90
G05
T1
X0.005Y0.115
X0.0642Y-0.5358
X0.065Y-1.93
X0.07Y-1.595
X0.08Y-0.915
X0.08Y-1.035
X0.095Y-1.5232
X0.1Y-0.475
X0.1005Y-0.175
X0.1075Y-0.0325
X0.1188Y-1.0012
X0.1208Y-0.9529
X0.13Y-0.08
X0.1508Y-1.6873
X0.1637Y-0.6837
X0.1665Y-1.0415
X0.175Y-0.08
X0.182Y-1.9298
X0.2093Y-1.055
X0.21Y-1.105
X0.2187Y-1.5212
X0.22Y-0.5
X0.224Y-0.9157
X0.2245Y-1.917
X0.225Y-0.08
X0.2272Y-1.8778
X0.231Y-0.877
X0.2322Y-0.4113
X0.238Y-1.168
X0.2422Y-0.463
X0.245Y-1.84
X0.2478Y-1.4946
X0.248Y-1.1163
X0.255Y-1.4559
X0.2657Y-0.8584
X0.2729Y-0.404
X0.275Y-0.135
X0.275Y-0.08
X0.2758Y-0.8191
X0.278Y-1.777
X0.2781Y-1.178
X0.2799Y-0.3633
X0.2808Y-1.4262
X0.2823Y-0.322
X0.283Y-1.8237
X0.2839Y-1.7378
X0.2906Y-1.388
X0.2916Y-0.783
X0.2951Y-0.7438
X0.3008Y-1.35
X0.31Y-0.7068
X0.3102Y-1.3118
X0.3194Y-1.1807
X0.32Y-0.135
X0.32Y-0.305
X0.32Y-1.97
X0.35Y-1.665
X0.37Y-0.135
X0.39Y-0.23
X0.405Y-0.655
X0.405Y-1.26
X0.42Y-0.135
X0.42Y-1.5931
X0.445Y-1.225
X0.47Y-0.615
X0.495Y-1.6242
X0.535Y-1.275
X0.54Y-0.295
X0.5429Y-1.6721
X0.5454Y-0.1922
X0.56Y-0.655
X0.5823Y0.075
X0.62Y-1.97
X0.63Y-0.515
X0.64Y-0.275
X0.6676Y-1.315
X0.675Y-1.555
X0.6753Y-0.8274
X0.683Y-0.953
X0.6905Y-0.5973
X0.725Y-1.17
X0.725Y-1.21
X0.7395Y-1.8295
X0.7424Y-1.9814
X0.745Y-1.91
X0.7496Y-1.69
X0.75Y-0.575
X0.7519Y0.0947
X0.7519Y-0.1519
X0.754Y-1.7918
X0.755Y-0.9841
X0.7551Y-0.6551
X0.7627Y-0.247
X0.7734Y-0.3834
X0.787Y-0.812
X0.7875Y-0.8857
X0.795Y-1.28
X0.795Y-0.7
X0.795Y-0.9468
X0.8047Y-0.8494
X0.8051Y-1.6181
X0.8068Y-0.7771
X0.8087Y-1.7407
X0.8105Y0.073
X0.8117Y-0.6201
X0.818Y-0.247
X0.8228Y-0.3347
X0.835Y-1.03
X0.8434Y-0.4314
X0.865Y-1.8222
X0.87Y-1.01
X0.87Y-1.5395
X0.87Y-1.3693
X0.876Y-0.1926
X0.895Y-1.07
X0.905Y-1.8195
X0.9139Y-1.5904
X0.9199Y-0.4642
X0.92Y-1.9937
X0.9207Y-1.9316
X0.9247Y-1.705
X0.925Y-0.835
X0.9254Y-0.5392
X0.9282Y-0.6618
X0.9295Y-0.7597
X0.9298Y-1.6286
X0.93Y-0.925
X0.9437Y-1.3351
X0.9441Y-1.2957
X0.947Y-1.2564
X0.9479Y0.035
X0.9485Y-0.038
X0.95Y-2.035
X0.9524Y-1.1433
X0.96Y-0.14
X0.9666Y-0.8016
X0.9674Y-0.9
X0.9674Y-1.068
X0.97Y-0.6
X0.9821Y-1.9046
X0.9823Y0.0759
X0.9829Y-0.5382
X0.9855Y-0.09
X0.995Y-1.01
X1.006Y-1.9798
X1.0069Y0.005
X1.0113Y-1.794
X1.0129Y-1.853
X1.0139Y-0.865
X1.025Y-1.2
X1.026Y-0.7361
X1.0271Y-0.63
X1.03Y-0.975
X1.03Y-1.695
X1.0338Y-1.25
X1.045Y-1.77
X1.045Y-2.02
X1.0462Y0.1142
X1.0465Y-1.1632
X1.0474Y-1.6251
X1.05Y-1.96
X1.0648Y-1.3687
X1.0682Y-1.1217
X1.07Y-0.9218
X1.0721Y-1.0374
X1.0772Y-0.1246
X1.0889Y-1.7456
X1.0902Y-0.597
X1.0927Y-1.67
X1.105Y-1.37
X1.1257Y0.0993
X1.1295Y-0.1826
X1.1378Y-1.3482
X1.14Y-0.465
X1.165Y-0.305
X1.1742Y-1.9531
X1.1889Y-1.2111
X1.19Y-2.01
X1.1974Y-1.8142
X1.1986Y-1.0536
X1.2003Y-0.8652
X1.202Y-0.6623
X1.21Y-0.0222
X1.2142Y-1.1792
X1.2245Y-1.52
X1.2245Y-1.6465
X1.225Y-0.44
X1.2356Y-1.0965
X1.245Y-0.099
X1.245Y-1.81
X1.25Y-0.7449
X1.2532Y-0.6734
X1.2576Y-1.5518
X1.2595Y-0.1826
X1.26Y-0.5826
X1.2601Y-0.365
X1.2605Y-1.92
X1.2773Y-1.7251
X1.2833Y-1.6862
X1.2847Y-1.3637
X1.2928Y-0.6748
X1.3Y-0.74
X1.3022Y-0.6345
X1.305Y0.0073
X1.3227Y-1.3744
X1.335Y-2.04
X1.36Y-0.5039
X1.3611Y-1.4641
X1.3645Y-0.8945
X1.376Y-0.3806
X1.3795Y-1.8089
X1.3836Y-1.4294
X1.3898Y-1.9224
X1.3926Y-1.6192
X1.3953Y-1.7168
X1.3982Y-1.6594
X1.4025Y-1.9826
X1.4078Y-1.3727
X1.4204Y-1.4106
X1.4206Y-1.8976
X1.429Y-0.476
X1.4309Y-0.7869
X1.435Y-0.27
X1.447Y-1.987
X1.4548Y-1.3615
X1.455Y-0.72
X1.4558Y-0.0652
X1.46Y-0.37
X1.48Y-0.48
X1.4863Y-0.8586
X1.4941Y-1.359
X1.4982Y-1.8947
X1.4986Y-0.6905
X1.4999Y-0.3387
X1.5006Y-0.9256
X1.5006Y-1.3194
X1.5013Y-2.0161
X1.5026Y-1.7521
X1.505Y-0.63
X1.5134Y-1.9784
X1.5135Y-0.18
X1.5166Y-0.1349
X1.5169Y-1.7154
X1.5179Y-0.7492
X1.525Y-0.555
X1.5562Y-0.0337
X1.559Y-1.11
X1.5651Y-1.3274
X1.57Y-1.2283
X1.5736Y-1.2874
X1.5797Y-1.802
X1.58Y-0.815
X1.5892Y-0.465
X1.5898Y-0.0041
X1.59Y-0.575
X1.61Y-0.2576
X1.6125Y-0.3915
X1.6131Y0.03
X1.6187Y-0.4995
X1.62Y-1.7244
X1.62Y-1.995
X1.625Y-0.96
X1.625Y-1.6295
X1.6264Y-0.7362
X1.6535Y0.0389
X1.655Y-1.83
X1.6556Y-0.546
X1.6639Y-0.6489
X1.665Y-0.27
X1.675Y-1.01
X1.68Y-1.0831
X1.6908Y-1.123
X1.695Y-1.7
X1.6976Y-0.4
X1.6991Y0.035
X1.71Y-0.46
X1.7272Y-0.72
X1.735Y-0.1
X1.7452Y-1.1094
X1.7463Y-1.1507
T2
X0.0Y0.0
X0.0Y-0.1
X0.0Y-0.2
X0.0Y-0.3
X0.0Y-0.4
X0.0Y-0.5
X0.0Y-0.6
X0.0Y-0.7
X0.0Y-0.8
X0.0Y-0.9
X0.0Y-1.0
X0.0Y-1.1
X0.0Y-1.2
X0.0Y-1.3
X0.0Y-1.4
X0.0Y-1.5
X0.0Y-1.6
X0.0Y-1.7
X0.0Y-1.8
X0.0Y-1.9
X1.8Y0.0
X1.8Y-0.1
X1.8Y-0.2
X1.8Y-0.3
X1.8Y-0.4
X1.8Y-0.5
X1.8Y-0.6
X1.8Y-0.7
X1.8Y-0.8
X1.8Y-0.9
X1.8Y-1.0
X1.8Y-1.1
X1.8Y-1.2
X1.8Y-1.3
X1.8Y-1.4
X1.8Y-1.5
X1.8Y-1.6
X1.8Y-1.7
X1.8Y-1.8
X1.8Y-1.9
M30
