%TF.GenerationSoftware,KiCad,Pcbnew,8.0.7*%
%TF.CreationDate,2025-01-05T20:15:04+02:00*%
%TF.ProjectId,RS232,52533233-322e-46b6-9963-61645f706362,V0*%
%TF.SameCoordinates,Original*%
%TF.FileFunction,Copper,L1,Top*%
%TF.FilePolarity,Positive*%
%FSLAX46Y46*%
G04 Gerber Fmt 4.6, Leading zero omitted, Abs format (unit mm)*
G04 Created by KiCad (PCBNEW 8.0.7) date 2025-01-05 20:15:04*
%MOMM*%
%LPD*%
G01*
G04 APERTURE LIST*
G04 Aperture macros list*
%AMRoundRect*
0 Rectangle with rounded corners*
0 $1 Rounding radius*
0 $2 $3 $4 $5 $6 $7 $8 $9 X,Y pos of 4 corners*
0 Add a 4 corners polygon primitive as box body*
4,1,4,$2,$3,$4,$5,$6,$7,$8,$9,$2,$3,0*
0 Add four circle primitives for the rounded corners*
1,1,$1+$1,$2,$3*
1,1,$1+$1,$4,$5*
1,1,$1+$1,$6,$7*
1,1,$1+$1,$8,$9*
0 Add four rect primitives between the rounded corners*
20,1,$1+$1,$2,$3,$4,$5,0*
20,1,$1+$1,$4,$5,$6,$7,0*
20,1,$1+$1,$6,$7,$8,$9,0*
20,1,$1+$1,$8,$9,$2,$3,0*%
%AMRotRect*
0 Rectangle, with rotation*
0 The origin of the aperture is its center*
0 $1 length*
0 $2 width*
0 $3 Rotation angle, in degrees counterclockwise*
0 Add horizontal line*
21,1,$1,$2,0,0,$3*%
G04 Aperture macros list end*
%TA.AperFunction,ComponentPad*%
%ADD10R,1.500000X1.500000*%
%TD*%
%TA.AperFunction,ComponentPad*%
%ADD11C,1.500000*%
%TD*%
%TA.AperFunction,ComponentPad*%
%ADD12C,4.800000*%
%TD*%
%TA.AperFunction,SMDPad,CuDef*%
%ADD13RoundRect,0.250000X0.250000X0.475000X-0.250000X0.475000X-0.250000X-0.475000X0.250000X-0.475000X0*%
%TD*%
%TA.AperFunction,SMDPad,CuDef*%
%ADD14RoundRect,0.250000X0.475000X-0.250000X0.475000X0.250000X-0.475000X0.250000X-0.475000X-0.250000X0*%
%TD*%
%TA.AperFunction,SMDPad,CuDef*%
%ADD15R,1.550000X0.650000*%
%TD*%
%TA.AperFunction,ComponentPad*%
%ADD16RoundRect,0.400000X-0.400000X-0.400000X0.400000X-0.400000X0.400000X0.400000X-0.400000X0.400000X0*%
%TD*%
%TA.AperFunction,ComponentPad*%
%ADD17O,1.600000X1.600000*%
%TD*%
%TA.AperFunction,ComponentPad*%
%ADD18R,1.600000X1.600000*%
%TD*%
%TA.AperFunction,SMDPad,CuDef*%
%ADD19RoundRect,0.250000X-0.475000X0.250000X-0.475000X-0.250000X0.475000X-0.250000X0.475000X0.250000X0*%
%TD*%
%TA.AperFunction,SMDPad,CuDef*%
%ADD20RoundRect,0.250000X-0.250000X-0.475000X0.250000X-0.475000X0.250000X0.475000X-0.250000X0.475000X0*%
%TD*%
%TA.AperFunction,SMDPad,CuDef*%
%ADD21RoundRect,0.250000X-0.512652X-0.159099X-0.159099X-0.512652X0.512652X0.159099X0.159099X0.512652X0*%
%TD*%
%TA.AperFunction,SMDPad,CuDef*%
%ADD22R,1.475000X0.450000*%
%TD*%
%TA.AperFunction,SMDPad,CuDef*%
%ADD23RotRect,0.279400X1.473200X45.000000*%
%TD*%
%TA.AperFunction,SMDPad,CuDef*%
%ADD24RotRect,0.279400X1.473200X315.000000*%
%TD*%
%TA.AperFunction,SMDPad,CuDef*%
%ADD25R,1.800000X2.000000*%
%TD*%
%TA.AperFunction,SMDPad,CuDef*%
%ADD26R,1.150000X0.600000*%
%TD*%
%TA.AperFunction,ViaPad*%
%ADD27C,0.800000*%
%TD*%
%TA.AperFunction,Conductor*%
%ADD28C,0.200000*%
%TD*%
%TA.AperFunction,Conductor*%
%ADD29C,0.300000*%
%TD*%
%TA.AperFunction,Conductor*%
%ADD30C,0.350000*%
%TD*%
%TA.AperFunction,Conductor*%
%ADD31C,0.250000*%
%TD*%
%TA.AperFunction,Conductor*%
%ADD32C,0.380000*%
%TD*%
%TA.AperFunction,Conductor*%
%ADD33C,0.270000*%
%TD*%
G04 APERTURE END LIST*
D10*
%TO.P,C3,1,1*%
%TO.N,/CD_{232}*%
X5934000Y4803000D03*
D11*
%TO.P,C3,2,2*%
%TO.N,/RX_{232}*%
X8706000Y4803000D03*
%TO.P,C3,3,3*%
%TO.N,/TX_{232}*%
X11479000Y4803000D03*
%TO.P,C3,4,4*%
%TO.N,/DTR_{232}*%
X14251000Y4803000D03*
%TO.P,C3,5,5*%
%TO.N,/GND*%
X17024000Y4803000D03*
%TO.P,C3,6,6*%
%TO.N,/DSR_{232}*%
X7320000Y7643000D03*
%TO.P,C3,7,7*%
%TO.N,/RTS_{232}*%
X10093000Y7643000D03*
%TO.P,C3,8,8*%
%TO.N,/CTS_{232}*%
X12865000Y7643000D03*
%TO.P,C3,9,9*%
%TO.N,unconnected-(C3-Pad9)*%
X15638000Y7643000D03*
D12*
%TO.P,C3,MH1,MH1*%
%TO.N,/GND*%
X-1016000Y6223000D03*
%TO.P,C3,MH2,MH2*%
X23974000Y6223000D03*
%TD*%
D13*
%TO.P,C10,1*%
%TO.N,/GND*%
X17238000Y-13208000D03*
%TO.P,C10,2*%
%TO.N,Net-(IC1-VS-)*%
X15338000Y-13208000D03*
%TD*%
D14*
%TO.P,C18,1*%
%TO.N,/3.3V*%
X9241000Y-41894000D03*
%TO.P,C18,2*%
%TO.N,/GND*%
X9241000Y-39994000D03*
%TD*%
D15*
%TO.P,IC1,1,C1+*%
%TO.N,Net-(IC1-C1+)*%
X15055000Y-1524000D03*
%TO.P,IC1,2,VS+*%
%TO.N,Net-(IC1-VS+)*%
X15055000Y-2794000D03*
%TO.P,IC1,3,C1-*%
%TO.N,Net-(IC1-C1-)*%
X15055000Y-4064000D03*
%TO.P,IC1,4,C2+*%
%TO.N,Net-(IC1-C2+)*%
X15055000Y-5334000D03*
%TO.P,IC1,5,C2-*%
%TO.N,Net-(IC1-C2-)*%
X15055000Y-6604000D03*
%TO.P,IC1,6,VS-*%
%TO.N,Net-(IC1-VS-)*%
X15055000Y-7874000D03*
%TO.P,IC1,7,TOUT2*%
%TO.N,/RTS_{232}*%
X15055000Y-9144000D03*
%TO.P,IC1,8,RIN2*%
%TO.N,/CTS_{232}*%
X15055000Y-10414000D03*
%TO.P,IC1,9,ROUT2*%
%TO.N,/~{CTS}*%
X20505000Y-10414000D03*
%TO.P,IC1,10,TIN2*%
%TO.N,/~{RTS}*%
X20505000Y-9144000D03*
%TO.P,IC1,11,TIN1*%
%TO.N,/SOUT*%
X20505000Y-7874000D03*
%TO.P,IC1,12,ROUT1*%
%TO.N,/SIN*%
X20505000Y-6604000D03*
%TO.P,IC1,13,RIN1*%
%TO.N,/RX_{232}*%
X20505000Y-5334000D03*
%TO.P,IC1,14,TOUT1*%
%TO.N,/TX_{232}*%
X20505000Y-4064000D03*
%TO.P,IC1,15,GND*%
%TO.N,/GND*%
X20505000Y-2794000D03*
%TO.P,IC1,16,5V*%
%TO.N,/5V*%
X20505000Y-1524000D03*
%TD*%
D14*
%TO.P,C14,1*%
%TO.N,Net-(IC3-C2-)*%
X2286000Y-8808000D03*
%TO.P,C14,2*%
%TO.N,Net-(IC3-C2+)*%
X2286000Y-6908000D03*
%TD*%
D16*
%TO.P,J1,1,Pin_1*%
%TO.N,/5V*%
X0Y0D03*
D17*
%TO.P,J1,2,Pin_2*%
%TO.N,unconnected-(J1-Pin_2-Pad2)*%
X0Y-2540000D03*
%TO.P,J1,3,Pin_3*%
%TO.N,/~{ADS}*%
X0Y-5080000D03*
%TO.P,J1,4,Pin_4*%
%TO.N,/~{CS}*%
X0Y-7620000D03*
D18*
%TO.P,J1,5,Pin_5*%
%TO.N,/GND*%
X0Y-10160000D03*
D17*
%TO.P,J1,6,Pin_6*%
%TO.N,/~{RD}*%
X0Y-12700000D03*
%TO.P,J1,7,Pin_7*%
%TO.N,/~{WD}*%
X0Y-15240000D03*
%TO.P,J1,8,Pin_8*%
%TO.N,/D7*%
X0Y-17780000D03*
%TO.P,J1,9,Pin_9*%
%TO.N,/D6*%
X0Y-20320000D03*
%TO.P,J1,10,Pin_10*%
%TO.N,/D5*%
X0Y-22860000D03*
%TO.P,J1,11,Pin_11*%
%TO.N,/D4*%
X0Y-25400000D03*
D18*
%TO.P,J1,12,Pin_12*%
%TO.N,/GND*%
X0Y-27940000D03*
D17*
%TO.P,J1,13,Pin_13*%
%TO.N,/D3*%
X0Y-30480000D03*
%TO.P,J1,14,Pin_14*%
%TO.N,/D2*%
X0Y-33020000D03*
%TO.P,J1,15,Pin_15*%
%TO.N,/D1*%
X0Y-35560000D03*
%TO.P,J1,16,Pin_16*%
%TO.N,/D0*%
X0Y-38100000D03*
D16*
%TO.P,J1,17,Pin_17*%
%TO.N,/5V*%
X22860000Y-38100000D03*
D17*
%TO.P,J1,18,Pin_18*%
%TO.N,/1.8432MHz*%
X22860000Y-35560000D03*
%TO.P,J1,19,Pin_19*%
%TO.N,/A0*%
X22860000Y-33020000D03*
%TO.P,J1,20,Pin_20*%
%TO.N,/A1*%
X22860000Y-30480000D03*
D18*
%TO.P,J1,21,Pin_21*%
%TO.N,/GND*%
X22860000Y-27940000D03*
D17*
%TO.P,J1,22,Pin_22*%
%TO.N,/A2*%
X22860000Y-25400000D03*
%TO.P,J1,23,Pin_23*%
%TO.N,/RX Ready*%
X22860000Y-22860000D03*
%TO.P,J1,24,Pin_24*%
%TO.N,/TX Ready*%
X22860000Y-20320000D03*
%TO.P,J1,25,Pin_25*%
%TO.N,/~{OUT2}*%
X22860000Y-17780000D03*
%TO.P,J1,26,Pin_26*%
%TO.N,/~{OUT1}*%
X22860000Y-15240000D03*
%TO.P,J1,27,Pin_27*%
%TO.N,/~{INT}*%
X22860000Y-12700000D03*
D18*
%TO.P,J1,28,Pin_28*%
%TO.N,/GND*%
X22860000Y-10160000D03*
D17*
%TO.P,J1,29,Pin_29*%
%TO.N,/~{Reset}*%
X22860000Y-7620000D03*
%TO.P,J1,30,Pin_30*%
%TO.N,unconnected-(J1-Pin_30-Pad30)*%
X22860000Y-5080000D03*
%TO.P,J1,31,Pin_31*%
%TO.N,unconnected-(J1-Pin_31-Pad31)*%
X22860000Y-2540000D03*
%TO.P,J1,32,Pin_32*%
%TO.N,unconnected-(J1-Pin_32-Pad32)*%
X22860000Y0D03*
%TD*%
D14*
%TO.P,C13,1*%
%TO.N,Net-(IC3-C1-)*%
X2286000Y-3601000D03*
%TO.P,C13,2*%
%TO.N,Net-(IC3-C1+)*%
X2286000Y-1701000D03*
%TD*%
D13*
%TO.P,C1,1*%
%TO.N,/3.3V*%
X17253000Y-15348000D03*
%TO.P,C1,2*%
%TO.N,/GND*%
X15353000Y-15348000D03*
%TD*%
D19*
%TO.P,C16,1*%
%TO.N,/3.3V*%
X21209000Y-40214000D03*
%TO.P,C16,2*%
%TO.N,/GND*%
X21209000Y-42114000D03*
%TD*%
D20*
%TO.P,C8,1*%
%TO.N,Net-(IC1-VS+)*%
X15243000Y526000D03*
%TO.P,C8,2*%
%TO.N,/5V*%
X17143000Y526000D03*
%TD*%
D14*
%TO.P,C4,1*%
%TO.N,Net-(IC1-C2-)*%
X12700000Y-7030000D03*
%TO.P,C4,2*%
%TO.N,Net-(IC1-C2+)*%
X12700000Y-5130000D03*
%TD*%
D21*
%TO.P,C15,1*%
%TO.N,/3.3V*%
X15793164Y-25674727D03*
%TO.P,C15,2*%
%TO.N,/GND*%
X17136667Y-27018230D03*
%TD*%
D13*
%TO.P,C11,1*%
%TO.N,/GND*%
X6776000Y-13081000D03*
%TO.P,C11,2*%
%TO.N,Net-(IC3-VS-)*%
X4876000Y-13081000D03*
%TD*%
D15*
%TO.P,IC3,1,C1+*%
%TO.N,Net-(IC3-C1+)*%
X4699000Y-1397000D03*
%TO.P,IC3,2,VS+*%
%TO.N,Net-(IC3-VS+)*%
X4699000Y-2667000D03*
%TO.P,IC3,3,C1-*%
%TO.N,Net-(IC3-C1-)*%
X4699000Y-3937000D03*
%TO.P,IC3,4,C2+*%
%TO.N,Net-(IC3-C2+)*%
X4699000Y-5207000D03*
%TO.P,IC3,5,C2-*%
%TO.N,Net-(IC3-C2-)*%
X4699000Y-6477000D03*
%TO.P,IC3,6,VS-*%
%TO.N,Net-(IC3-VS-)*%
X4699000Y-7747000D03*
%TO.P,IC3,7,TOUT2*%
%TO.N,unconnected-(IC3-TOUT2-Pad7)*%
X4699000Y-9017000D03*
%TO.P,IC3,8,RIN2*%
%TO.N,/CD_{232}*%
X4699000Y-10287000D03*
%TO.P,IC3,9,ROUT2*%
%TO.N,/DCD*%
X10149000Y-10287000D03*
%TO.P,IC3,10,TIN2*%
%TO.N,/GND*%
X10149000Y-9017000D03*
%TO.P,IC3,11,TIN1*%
%TO.N,/~{DTR}*%
X10149000Y-7747000D03*
%TO.P,IC3,12,ROUT1*%
%TO.N,/~{DSR}*%
X10149000Y-6477000D03*
%TO.P,IC3,13,RIN1*%
%TO.N,/DSR_{232}*%
X10149000Y-5207000D03*
%TO.P,IC3,14,TOUT1*%
%TO.N,/DTR_{232}*%
X10149000Y-3937000D03*
%TO.P,IC3,15,GND*%
%TO.N,/GND*%
X10149000Y-2667000D03*
%TO.P,IC3,16,5V*%
%TO.N,/5V*%
X10149000Y-1397000D03*
%TD*%
D22*
%TO.P,IC5,1,1A*%
%TO.N,/INT*%
X11394000Y-17208000D03*
%TO.P,IC5,2,1Y*%
%TO.N,/~{INT}*%
X11394000Y-17858000D03*
%TO.P,IC5,3,2A*%
%TO.N,/GND*%
X11394000Y-18508000D03*
%TO.P,IC5,4,2Y*%
%TO.N,unconnected-(IC5-2Y-Pad4)*%
X11394000Y-19158000D03*
%TO.P,IC5,5,3A*%
%TO.N,/GND*%
X11394000Y-19808000D03*
%TO.P,IC5,6,3Y*%
%TO.N,unconnected-(IC5-3Y-Pad6)*%
X11394000Y-20458000D03*
%TO.P,IC5,7,GND*%
%TO.N,/GND*%
X11394000Y-21108000D03*
%TO.P,IC5,8,4Y*%
%TO.N,/TX Ready*%
X17270000Y-21108000D03*
%TO.P,IC5,9,4A*%
%TO.N,/~{TXRDY}*%
X17270000Y-20458000D03*
%TO.P,IC5,10,5Y*%
%TO.N,/RX Ready*%
X17270000Y-19808000D03*
%TO.P,IC5,11,5A*%
%TO.N,/~{RXRDY}*%
X17270000Y-19158000D03*
%TO.P,IC5,12,6Y*%
%TO.N,/Reset*%
X17270000Y-18508000D03*
%TO.P,IC5,13,6A*%
%TO.N,/~{Reset}*%
X17270000Y-17858000D03*
%TO.P,IC5,14,3V*%
%TO.N,/3.3V*%
X17270000Y-17208000D03*
%TD*%
D23*
%TO.P,IC2,1,N.C.*%
%TO.N,unconnected-(IC2-N.C.-Pad1)*%
X9118290Y-25304820D03*
%TO.P,IC2,2,D5*%
%TO.N,/D5*%
X8777041Y-25646069D03*
%TO.P,IC2,3,D6*%
%TO.N,/D6*%
X8417830Y-26005280D03*
%TO.P,IC2,4,D7*%
%TO.N,/D7*%
X8058620Y-26364490D03*
%TO.P,IC2,5,RCLK*%
%TO.N,Net-(IC2-RCLK)*%
X7717370Y-26705740D03*
%TO.P,IC2,6,N.C.*%
%TO.N,unconnected-(IC2-N.C.-Pad6)*%
X7358160Y-27064950D03*
%TO.P,IC2,7,SIN*%
%TO.N,/SIN*%
X6998950Y-27424160D03*
%TO.P,IC2,8,SOUT*%
%TO.N,/SOUT*%
X6639740Y-27783370D03*
%TO.P,IC2,9,CS0*%
%TO.N,/3.3V*%
X6298490Y-28124620D03*
%TO.P,IC2,10,CS1*%
X5939280Y-28483830D03*
%TO.P,IC2,11,~{CS2}*%
%TO.N,/~{CS}*%
X5580069Y-28843041D03*
%TO.P,IC2,12,~{BAUDOUT}*%
%TO.N,Net-(IC2-RCLK)*%
X5238820Y-29184290D03*
D24*
%TO.P,IC2,13,N.C.*%
%TO.N,unconnected-(IC2-N.C.-Pad13)*%
X5238820Y-31267710D03*
%TO.P,IC2,14,XIN*%
%TO.N,/1.8432MHz*%
X5580069Y-31608959D03*
%TO.P,IC2,15,XOUT*%
%TO.N,unconnected-(IC2-XOUT-Pad15)*%
X5939280Y-31968170D03*
%TO.P,IC2,16,~{WR1}*%
%TO.N,/~{WD}*%
X6298490Y-32327380D03*
%TO.P,IC2,17,WR2*%
%TO.N,/GND*%
X6639740Y-32668630D03*
%TO.P,IC2,18,GND*%
X6998950Y-33027840D03*
%TO.P,IC2,19,~{RD1}*%
%TO.N,/~{RD}*%
X7358160Y-33387050D03*
%TO.P,IC2,20,RD2*%
%TO.N,/GND*%
X7717370Y-33746260D03*
%TO.P,IC2,21,N.C.*%
%TO.N,unconnected-(IC2-N.C.-Pad21)*%
X8058620Y-34087510D03*
%TO.P,IC2,22,DDIS*%
%TO.N,unconnected-(IC2-DDIS-Pad22)*%
X8417830Y-34446720D03*
%TO.P,IC2,23,~{TXRDY}*%
%TO.N,/~{TXRDY}*%
X8777041Y-34805931D03*
%TO.P,IC2,24,~{ADS}*%
%TO.N,/~{ADS}*%
X9118290Y-35147180D03*
D23*
%TO.P,IC2,25,N.C.*%
%TO.N,unconnected-(IC2-N.C.-Pad25)*%
X11201710Y-35147180D03*
%TO.P,IC2,26,A2*%
%TO.N,/A2*%
X11542959Y-34805931D03*
%TO.P,IC2,27,A1*%
%TO.N,/A1*%
X11902170Y-34446720D03*
%TO.P,IC2,28,A0*%
%TO.N,/A0*%
X12261380Y-34087510D03*
%TO.P,IC2,29,~{RXRDY}*%
%TO.N,/~{RXRDY}*%
X12602630Y-33746260D03*
%TO.P,IC2,30,INTRPT*%
%TO.N,/INT*%
X12961840Y-33387050D03*
%TO.P,IC2,31,~{OUT2}*%
%TO.N,/~{OUT2}*%
X13321050Y-33027840D03*
%TO.P,IC2,32,~{RTS}*%
%TO.N,/~{RTS}*%
X13680260Y-32668630D03*
%TO.P,IC2,33,~{DTR}*%
%TO.N,/~{DTR}*%
X14021510Y-32327380D03*
%TO.P,IC2,34,~{OUT1}*%
%TO.N,/~{OUT1}*%
X14380720Y-31968170D03*
%TO.P,IC2,35,MR*%
%TO.N,/Reset*%
X14739931Y-31608959D03*
%TO.P,IC2,36,N.C.*%
%TO.N,unconnected-(IC2-N.C.-Pad36)*%
X15081180Y-31267710D03*
D24*
%TO.P,IC2,37,N.C.*%
%TO.N,unconnected-(IC2-N.C.-Pad37)*%
X15081180Y-29184290D03*
%TO.P,IC2,38,~{CTS}*%
%TO.N,/~{CTS}*%
X14739931Y-28843041D03*
%TO.P,IC2,39,~{DSR}*%
%TO.N,/~{DSR}*%
X14380720Y-28483830D03*
%TO.P,IC2,40,~{DCD}*%
%TO.N,/DCD*%
X14021510Y-28124620D03*
%TO.P,IC2,41,~{RI}*%
%TO.N,/GND*%
X13680260Y-27783370D03*
%TO.P,IC2,42,5V*%
%TO.N,/3.3V*%
X13321050Y-27424160D03*
%TO.P,IC2,43,D0*%
%TO.N,/D0*%
X12961840Y-27064950D03*
%TO.P,IC2,44,D1*%
%TO.N,/D1*%
X12602630Y-26705740D03*
%TO.P,IC2,45,D2*%
%TO.N,/D2*%
X12261380Y-26364490D03*
%TO.P,IC2,46,D3*%
%TO.N,/D3*%
X11902170Y-26005280D03*
%TO.P,IC2,47,D4*%
%TO.N,/D4*%
X11542959Y-25646069D03*
%TO.P,IC2,48,N.C.*%
%TO.N,unconnected-(IC2-N.C.-Pad48)*%
X11201710Y-25304820D03*
%TD*%
D25*
%TO.P,Y1,1,EN*%
%TO.N,/~{Reset}*%
X13462000Y-41851000D03*
%TO.P,Y1,2,GND*%
%TO.N,/GND*%
X18542000Y-41851000D03*
%TO.P,Y1,3,OUTPUT*%
%TO.N,/1.8432MHz*%
X18542000Y-37651000D03*
%TO.P,Y1,4,3V*%
%TO.N,/3.3V*%
X13462000Y-37651000D03*
%TD*%
D26*
%TO.P,IC4,1,6VIn*%
%TO.N,/5V*%
X4385000Y-40010000D03*
%TO.P,IC4,2,GND*%
%TO.N,/GND*%
X4385000Y-40960000D03*
%TO.P,IC4,3,EN*%
%TO.N,/5V*%
X4385000Y-41910000D03*
%TO.P,IC4,4,ADJ*%
%TO.N,unconnected-(IC4-ADJ-Pad4)*%
X6985000Y-41910000D03*
%TO.P,IC4,5,3.3VOut*%
%TO.N,/3.3V*%
X6985000Y-40010000D03*
%TD*%
D14*
%TO.P,C17,1*%
%TO.N,/5V*%
X2129000Y-41894000D03*
%TO.P,C17,2*%
%TO.N,/GND*%
X2129000Y-39994000D03*
%TD*%
%TO.P,C5,1*%
%TO.N,Net-(IC1-C1-)*%
X12700000Y-2077000D03*
%TO.P,C5,2*%
%TO.N,Net-(IC1-C1+)*%
X12700000Y-177000D03*
%TD*%
D20*
%TO.P,C12,1*%
%TO.N,Net-(IC3-VS+)*%
X4908000Y635000D03*
%TO.P,C12,2*%
%TO.N,/5V*%
X6808000Y635000D03*
%TD*%
D27*
%TO.N,/GND*%
X12294569Y-23871043D03*
X7239000Y-6985000D03*
X13704000Y-12953999D03*
X13704000Y-15367000D03*
X11896592Y-28490592D03*
X4764468Y-14478002D03*
X18922994Y-2765163D03*
X17272000Y-10287004D03*
X16129000Y-16383000D03*
X9245600Y-38912800D03*
X4064000Y-25019000D03*
X19939000Y-41910000D03*
X12649200Y-21082000D03*
X5461000Y-34417000D03*
X7747000Y-10795000D03*
X2000976Y-34417000D03*
X16510000Y-13081000D03*
X9652002Y-22733000D03*
X9124950Y-28687850D03*
%TO.N,/CD_{232}*%
X5842002Y-10287000D03*
%TO.N,/RX_{232}*%
X16560224Y-5279000D03*
%TO.N,/D0*%
X9791000Y-33832800D03*
%TO.N,/D1*%
X9154954Y-32997365D03*
%TO.N,/D2*%
X9702800Y-32054798D03*
%TO.N,/D3*%
X9296400Y-31089600D03*
%TO.N,/D5*%
X8163800Y-24333248D03*
X8114707Y-22291320D03*
%TO.N,/D6*%
X7169675Y-24441503D03*
X4416676Y-21435300D03*
%TO.N,/D7*%
X3666676Y-18652676D03*
X6036014Y-24850880D03*
%TO.N,/TX_{232}*%
X17172000Y-3514002D03*
%TO.N,/DTR_{232}*%
X8763000Y381000D03*
X8802118Y-3976112D03*
%TO.N,/DSR_{232}*%
X8255000Y-5207000D03*
%TO.N,/RTS_{232}*%
X16284773Y-8912768D03*
%TO.N,/CTS_{232}*%
X17367563Y-8947207D03*
%TO.N,/~{ADS}*%
X10109200Y-35509200D03*
%TO.N,/~{CTS}*%
X18668990Y-11049000D03*
X17538624Y-29322594D03*
%TO.N,/~{RTS}*%
X20160659Y-31066668D03*
X19313466Y-9657142D03*
%TO.N,/SOUT*%
X6350006Y-23396405D03*
X7366000Y-8392000D03*
%TO.N,/SIN*%
X11684000Y-6096000D03*
X6336950Y-25823162D03*
%TO.N,/~{CS}*%
X4572000Y-27813000D03*
%TO.N,/~{WD}*%
X6731000Y-30607000D03*
%TO.N,/~{RD}*%
X8253983Y-30904798D03*
%TO.N,/A2*%
X21922000Y-29337000D03*
%TO.N,/A1*%
X20701000Y-33286000D03*
%TO.N,/A0*%
X19474604Y-34128604D03*
%TO.N,/~{DTR}*%
X12695163Y-31353863D03*
X11730369Y-8018588D03*
%TO.N,/Reset*%
X18604001Y-18434878D03*
X18602000Y-29413522D03*
%TO.N,/~{DSR}*%
X17427204Y-28328818D03*
X8636000Y-6604000D03*
X17152483Y-24270000D03*
X9233126Y-21033859D03*
%TO.N,/DCD*%
X12954000Y-10160000D03*
X13692827Y-29728868D03*
%TO.N,/RX Ready*%
X21944213Y-19167036D03*
%TO.N,/3.3V*%
X19304000Y-16002006D03*
X11176000Y-37592000D03*
X3556002Y-38100000D03*
X11175996Y-41528996D03*
X16891000Y-37592000D03*
X20192998Y-40259000D03*
X19558000Y-25146000D03*
%TO.N,/~{TXRDY}*%
X16086000Y-20447000D03*
X15117845Y-36566392D03*
%TO.N,/~{RXRDY}*%
X15386836Y-34055832D03*
X15802663Y-19276816D03*
%TO.N,/INT*%
X14390849Y-33966260D03*
X13727258Y-16698269D03*
%TO.N,/~{OUT2}*%
X12865046Y-22417483D03*
X21032006Y-23494999D03*
X12003837Y-32251360D03*
%TO.N,/~{OUT1}*%
X14859000Y-21844000D03*
X13457671Y-30706880D03*
X20524000Y-21717000D03*
%TO.N,/~{INT}*%
X9779000Y-17653000D03*
X9652000Y-14351000D03*
%TO.N,/~{Reset}*%
X21020000Y-15875000D03*
X18796000Y-17269504D03*
X15910197Y-40784000D03*
%TD*%
D28*
%TO.N,/SOUT*%
X5268830Y-24477581D02*
X6350006Y-23396405D01*
X5268830Y-26412460D02*
X5268830Y-24477581D01*
X6639740Y-27783370D02*
X5268830Y-26412460D01*
D29*
%TO.N,/GND*%
X6572103Y-34169497D02*
X6324600Y-34417000D01*
D28*
%TO.N,/D6*%
X3301376Y-20320000D02*
X4416676Y-21435300D01*
X0Y-20320000D02*
X3301376Y-20320000D01*
D30*
%TO.N,/GND*%
X1180000Y-27940000D02*
X4064000Y-25056000D01*
X4064000Y-25056000D02*
X4064000Y-25019000D01*
%TO.N,/5V*%
X21717000Y-1524000D02*
X21971000Y-1270000D01*
X20505000Y-1524000D02*
X21717000Y-1524000D01*
X21971000Y-1270000D02*
X23495000Y-1270000D01*
X24130000Y-1905000D02*
X24130000Y-36830000D01*
X23495000Y-1270000D02*
X24130000Y-1905000D01*
X24130000Y-36830000D02*
X22860000Y-38100000D01*
%TO.N,/GND*%
X20505000Y-2794000D02*
X18951831Y-2794000D01*
X18951831Y-2794000D02*
X18922994Y-2765163D01*
D28*
%TO.N,/~{RTS}*%
X19826608Y-9144000D02*
X20505000Y-9144000D01*
X19313466Y-9657142D02*
X19826608Y-9144000D01*
D31*
%TO.N,/~{OUT2}*%
X21032002Y-23495003D02*
X21032006Y-23494999D01*
X13942566Y-23495003D02*
X21032002Y-23495003D01*
X12865046Y-22417483D02*
X13942566Y-23495003D01*
D30*
%TO.N,/GND*%
X13723000Y-15348000D02*
X13704000Y-15367000D01*
X13576999Y-13081000D02*
X13704000Y-12953999D01*
X6776000Y-13081000D02*
X13576999Y-13081000D01*
X15353000Y-15348000D02*
X13723000Y-15348000D01*
D28*
%TO.N,/D4*%
X1143000Y-24257000D02*
X0Y-25400000D01*
X5674595Y-22646405D02*
X4064000Y-24257000D01*
X8386838Y-23623500D02*
X7409743Y-22646405D01*
X9341535Y-23623500D02*
X8386838Y-23623500D01*
X7409743Y-22646405D02*
X5674595Y-22646405D01*
X11748046Y-24385182D02*
X10103217Y-24385182D01*
X12139732Y-24776868D02*
X11748046Y-24385182D01*
X12139732Y-25064287D02*
X12139732Y-24776868D01*
X4064000Y-24257000D02*
X1143000Y-24257000D01*
X11565728Y-25638291D02*
X12139732Y-25064287D01*
X10103217Y-24385182D02*
X9341535Y-23623500D01*
D30*
%TO.N,/GND*%
X-1270000Y-8890000D02*
X-1270000Y5480220D01*
X0Y-10160000D02*
X-1270000Y-8890000D01*
X-1270000Y-11430000D02*
X0Y-10160000D01*
X-1270000Y-26670000D02*
X-1270000Y-11430000D01*
X0Y-27940000D02*
X-1270000Y-26670000D01*
X2000976Y-38787976D02*
X2456000Y-39243000D01*
X2000976Y-34417000D02*
X2000976Y-38787976D01*
%TO.N,/5V*%
X12563000Y1641000D02*
X16028000Y1641000D01*
X19193000Y-1524000D02*
X20505000Y-1524000D01*
X4385000Y-40010000D02*
X3430000Y-40010000D01*
X3542000Y-43307000D02*
X21717000Y-43307000D01*
X10149000Y-1397000D02*
X10149000Y-773000D01*
X3302000Y-41782000D02*
X3430000Y-41910000D01*
X3937000Y1750000D02*
X5693000Y1750000D01*
X21717000Y-43307000D02*
X22860000Y-42164000D01*
X16028000Y1641000D02*
X17143000Y526000D01*
X6808000Y635000D02*
X8840000Y-1397000D01*
X17143000Y526000D02*
X19193000Y-1524000D01*
X8840000Y-1397000D02*
X10149000Y-1397000D01*
X22860000Y-42164000D02*
X22860000Y-38100000D01*
X10149000Y-773000D02*
X12563000Y1641000D01*
X5693000Y1750000D02*
X6808000Y635000D01*
X0Y0D02*
X1016000Y1016000D01*
X3430000Y-41910000D02*
X4385000Y-41910000D01*
X3430000Y-40010000D02*
X3302000Y-40138000D01*
X1016000Y1016000D02*
X3203000Y1016000D01*
X3302000Y-40894000D02*
X3302000Y-41782000D01*
X2129000Y-41894000D02*
X3542000Y-43307000D01*
X3129000Y-40894000D02*
X2129000Y-41894000D01*
X3302000Y-40894000D02*
X3129000Y-40894000D01*
X3302000Y-40138000D02*
X3302000Y-40894000D01*
X3203000Y1016000D02*
X3937000Y1750000D01*
%TO.N,/GND*%
X10301500Y-19808000D02*
X10266500Y-19773000D01*
X4318002Y-14478002D02*
X4764468Y-14478002D01*
D29*
X7069609Y-34377052D02*
X6779657Y-34377052D01*
D30*
X9241000Y-39994000D02*
X9241000Y-38917400D01*
X6324600Y-34417000D02*
X5461000Y-34417000D01*
X10266500Y-19773000D02*
X10266500Y-18518000D01*
X6097000Y-39243000D02*
X2456000Y-39243000D01*
X19880000Y-41851000D02*
X19939000Y-41910000D01*
D29*
X6572103Y-34169497D02*
X6362501Y-33959896D01*
X6632951Y-32692388D02*
X7493000Y-31832339D01*
X12956069Y-28490592D02*
X11896592Y-28490592D01*
D30*
X8994000Y-2667000D02*
X10149000Y-2667000D01*
X10276500Y-18508000D02*
X11394000Y-18508000D01*
X17238000Y-13208000D02*
X16637000Y-13208000D01*
X16637000Y-13208000D02*
X16510000Y-13081000D01*
X12294569Y-23871043D02*
X10790045Y-23871043D01*
X2456000Y-39243000D02*
X2129000Y-39570000D01*
X12675200Y-21108000D02*
X12649200Y-21082000D01*
X4385000Y-40960000D02*
X5340000Y-40960000D01*
D29*
X7493000Y-31832339D02*
X7493000Y-30417421D01*
X13687049Y-27759612D02*
X14311051Y-27135608D01*
D30*
X17238000Y-13208000D02*
X17238000Y-10321004D01*
X0Y-10160000D02*
X4318002Y-14478002D01*
X10790045Y-23871043D02*
X9652002Y-22733000D01*
X16129000Y-16124000D02*
X15353000Y-15348000D01*
X8498000Y-39994000D02*
X9241000Y-39994000D01*
X17238000Y-10321004D02*
X17272000Y-10287004D01*
X16129000Y-16383000D02*
X16129000Y-16124000D01*
X11394000Y-21108000D02*
X10276500Y-21108000D01*
X10266500Y-21098000D02*
X10266500Y-19843000D01*
X21938230Y-27018230D02*
X17136667Y-27018230D01*
X10301500Y-19808000D02*
X11394000Y-19808000D01*
X7754000Y-10802000D02*
X6776000Y-11780000D01*
X19998000Y-41851000D02*
X20946000Y-41851000D01*
D29*
X7693612Y-33753049D02*
X7069609Y-34377052D01*
X6362501Y-33669944D02*
X6986505Y-33045942D01*
D30*
X10149000Y-9017000D02*
X9539000Y-9017000D01*
X10266500Y-19843000D02*
X10301500Y-19808000D01*
D29*
X6779657Y-34377052D02*
X6572103Y-34169497D01*
D30*
X22860000Y-27940000D02*
X21938230Y-27018230D01*
X15231138Y-18731417D02*
X12854555Y-21108000D01*
X2000976Y-28760976D02*
X2000976Y-34417000D01*
X1180000Y-27940000D02*
X2000976Y-28760976D01*
X6020000Y-39320000D02*
X6097000Y-39243000D01*
X6776000Y-11780000D02*
X6776000Y-13081000D01*
X9539000Y-9017000D02*
X7754000Y-10802000D01*
X9241000Y-39994000D02*
X16685000Y-39994000D01*
X12854555Y-21108000D02*
X12675200Y-21108000D01*
X10276500Y-21108000D02*
X10266500Y-21098000D01*
X19812000Y-13208000D02*
X17238000Y-13208000D01*
D29*
X6362501Y-33959896D02*
X6362501Y-33669944D01*
D30*
X7239000Y-6985000D02*
X7239000Y-4422000D01*
X12623200Y-21108000D02*
X11394000Y-21108000D01*
X6020000Y-40280000D02*
X6020000Y-39320000D01*
X19939000Y-41910000D02*
X19998000Y-41851000D01*
X6097000Y-39243000D02*
X7747000Y-39243000D01*
X2129000Y-39570000D02*
X2129000Y-39994000D01*
D29*
X6986505Y-33045942D02*
X6632951Y-32692388D01*
X13687049Y-27759612D02*
X12956069Y-28490592D01*
D30*
X7754000Y-10802000D02*
X7747000Y-10795000D01*
X9241000Y-38917400D02*
X9245600Y-38912800D01*
D29*
X9124950Y-28785471D02*
X9124950Y-28687850D01*
X7493000Y-30417421D02*
X9124950Y-28785471D01*
D30*
X5340000Y-40960000D02*
X6020000Y-40280000D01*
X18542000Y-41851000D02*
X19880000Y-41851000D01*
X0Y-27940000D02*
X1180000Y-27940000D01*
X16685000Y-39994000D02*
X18542000Y-41851000D01*
X15231138Y-15469862D02*
X15231138Y-18731417D01*
X22860000Y-10160000D02*
X19812000Y-13208000D01*
X7747000Y-39243000D02*
X8498000Y-39994000D01*
D29*
X14311051Y-27135608D02*
X17019289Y-27135608D01*
D30*
X12649200Y-21082000D02*
X12623200Y-21108000D01*
X10266500Y-18518000D02*
X10276500Y-18508000D01*
X7239000Y-4422000D02*
X8994000Y-2667000D01*
X6776000Y-13081000D02*
X5378998Y-14478002D01*
X5378998Y-14478002D02*
X4764468Y-14478002D01*
D32*
%TO.N,/CD_{232}*%
X5149000Y-10287000D02*
X5842002Y-10287000D01*
%TO.N,/RX_{232}*%
X20505000Y-5334000D02*
X16615224Y-5334000D01*
X16615224Y-5334000D02*
X16560224Y-5279000D01*
D28*
%TO.N,/D0*%
X11156800Y-28207614D02*
X11156800Y-32467000D01*
X11156800Y-32467000D02*
X9791000Y-33832800D01*
X12258263Y-27774184D02*
X11590230Y-27774184D01*
X11590230Y-27774184D02*
X11156800Y-28207614D01*
X12979942Y-27052505D02*
X12258263Y-27774184D01*
%TO.N,/D1*%
X12626388Y-26698951D02*
X11951156Y-27374183D01*
X9776235Y-32997365D02*
X9154954Y-32997365D01*
X10756800Y-28041928D02*
X10756800Y-32016800D01*
X11424544Y-27374184D02*
X10756800Y-28041928D01*
X11951156Y-27374183D02*
X11424544Y-27374184D01*
X10756800Y-32016800D02*
X9776235Y-32997365D01*
%TO.N,/D2*%
X10356800Y-27876242D02*
X10356800Y-31400798D01*
X11258858Y-26974184D02*
X10356800Y-27876242D01*
X12272835Y-26345398D02*
X11644050Y-26974183D01*
X11644050Y-26974183D02*
X11258858Y-26974184D01*
X10356800Y-31400798D02*
X9702800Y-32054798D01*
%TO.N,/D3*%
X11919282Y-25991845D02*
X11336944Y-26574183D01*
X11336944Y-26574183D02*
X11093172Y-26574184D01*
X9956800Y-27710556D02*
X9956800Y-30429200D01*
X11093172Y-26574184D02*
X9956800Y-27710556D01*
X9956800Y-30429200D02*
X9296400Y-31089600D01*
%TO.N,/D5*%
X8069792Y-22246405D02*
X8114707Y-22291320D01*
X8163800Y-25047819D02*
X8163800Y-24333248D01*
X0Y-22860000D02*
X1672405Y-22860000D01*
X2286000Y-22246405D02*
X8069792Y-22246405D01*
X8754272Y-25638291D02*
X8163800Y-25047819D01*
X1672405Y-22860000D02*
X2286000Y-22246405D01*
%TO.N,/D6*%
X7169675Y-24760802D02*
X7169675Y-24441503D01*
X8400718Y-25991845D02*
X7169675Y-24760802D01*
%TO.N,/D7*%
X6552647Y-24850880D02*
X6036014Y-24850880D01*
X2794000Y-17780000D02*
X3666676Y-18652676D01*
X0Y-17780000D02*
X2794000Y-17780000D01*
X8047165Y-26345398D02*
X6552647Y-24850880D01*
D32*
%TO.N,/TX_{232}*%
X20505000Y-4064000D02*
X17721998Y-4064000D01*
X17721998Y-4064000D02*
X17172000Y-3514002D01*
%TO.N,/DTR_{232}*%
X9808000Y381000D02*
X8763000Y381000D01*
X8841230Y-3937000D02*
X8802118Y-3976112D01*
X14202000Y4775000D02*
X9808000Y381000D01*
X10149000Y-3937000D02*
X8841230Y-3937000D01*
%TO.N,/DSR_{232}*%
X8255000Y-5207000D02*
X10149000Y-5207000D01*
%TO.N,/RTS_{232}*%
X15055000Y-9144000D02*
X16053541Y-9144000D01*
X16053541Y-9144000D02*
X16284773Y-8912768D01*
%TO.N,/CTS_{232}*%
X15055000Y-10414000D02*
X15900770Y-10414000D01*
X15900770Y-10414000D02*
X17367563Y-8947207D01*
D28*
%TO.N,/~{ADS}*%
X9449763Y-35509200D02*
X10109200Y-35509200D01*
X9107825Y-35167262D02*
X9449763Y-35509200D01*
D32*
%TO.N,Net-(IC1-C2-)*%
X13163000Y-7157000D02*
X13716000Y-6604000D01*
X13716000Y-6604000D02*
X15055000Y-6604000D01*
%TO.N,Net-(IC1-C2+)*%
X12571000Y-5334000D02*
X15055000Y-5334000D01*
%TO.N,Net-(IC1-C1-)*%
X12700000Y-2159000D02*
X14605000Y-4064000D01*
%TO.N,Net-(IC1-C1+)*%
X13131000Y-177000D02*
X14478000Y-1524000D01*
%TO.N,Net-(IC1-VS+)*%
X16220000Y-2079000D02*
X15505000Y-2794000D01*
X16220000Y-451000D02*
X16220000Y-2079000D01*
X15243000Y526000D02*
X16220000Y-451000D01*
%TO.N,Net-(IC1-VS-)*%
X14605000Y-7874000D02*
X13890000Y-8589000D01*
X13890000Y-8589000D02*
X13890000Y-11760000D01*
X13890000Y-11760000D02*
X15338000Y-13208000D01*
%TO.N,Net-(IC3-VS-)*%
X3534000Y-8462000D02*
X3534000Y-11739000D01*
X4249000Y-7747000D02*
X3534000Y-8462000D01*
X3534000Y-11739000D02*
X4876000Y-13081000D01*
%TO.N,Net-(IC3-VS+)*%
X5864000Y-1952000D02*
X5149000Y-2667000D01*
X4908000Y635000D02*
X5864000Y-321000D01*
X5864000Y-321000D02*
X5864000Y-1952000D01*
%TO.N,Net-(IC3-C1-)*%
X2667000Y-3937000D02*
X4699000Y-3937000D01*
X2331000Y-3601000D02*
X2667000Y-3937000D01*
%TO.N,Net-(IC3-C1+)*%
X4699000Y-1397000D02*
X2590000Y-1397000D01*
%TO.N,Net-(IC3-C2-)*%
X3534000Y-7032000D02*
X4089000Y-6477000D01*
X3534000Y-7560000D02*
X3534000Y-7032000D01*
X4089000Y-6477000D02*
X4699000Y-6477000D01*
X2286000Y-8808000D02*
X3534000Y-7560000D01*
%TO.N,Net-(IC3-C2+)*%
X4699000Y-5207000D02*
X3987000Y-5207000D01*
X3987000Y-5207000D02*
X2286000Y-6908000D01*
D28*
%TO.N,/~{CTS}*%
X15500981Y-28067000D02*
X14747709Y-28820272D01*
X20378000Y-10541000D02*
X19176990Y-10541000D01*
X17130594Y-29322594D02*
X15875000Y-28067000D01*
X15875000Y-28067000D02*
X15500981Y-28067000D01*
X17538624Y-29322594D02*
X17130594Y-29322594D01*
X19176990Y-10541000D02*
X18668990Y-11049000D01*
%TO.N,/~{RTS}*%
X17960935Y-33266392D02*
X20160659Y-31066668D01*
X14261053Y-33266392D02*
X17960935Y-33266392D01*
X13687049Y-32692388D02*
X14261053Y-33266392D01*
D31*
%TO.N,/SOUT*%
X20505000Y-7874000D02*
X19177000Y-7874000D01*
D28*
X14087000Y-7249000D02*
X12454000Y-8882000D01*
X18552000Y-7249000D02*
X14087000Y-7249000D01*
X12454000Y-8882000D02*
X11603890Y-8882000D01*
X19050000Y-7747000D02*
X18552000Y-7249000D01*
X11603890Y-8882000D02*
X11113890Y-8392000D01*
D31*
X19177000Y-7874000D02*
X19050000Y-7747000D01*
D28*
X11113890Y-8392000D02*
X7366000Y-8392000D01*
%TO.N,/SIN*%
X19294000Y-6604000D02*
X18669000Y-5979000D01*
X20505000Y-6604000D02*
X19294000Y-6604000D01*
X13980000Y-5979000D02*
X13863000Y-6096000D01*
X13863000Y-6096000D02*
X11684000Y-6096000D01*
X6336950Y-26756503D02*
X6336950Y-25823162D01*
X18669000Y-5979000D02*
X13980000Y-5979000D01*
X6986505Y-27406058D02*
X6336950Y-26756503D01*
%TO.N,Net-(IC2-RCLK)*%
X6350000Y-29845000D02*
X8382000Y-27813000D01*
X8382000Y-27387339D02*
X7693612Y-26698951D01*
X5218738Y-29173825D02*
X5889913Y-29845000D01*
X8382000Y-27813000D02*
X8382000Y-27387339D01*
X5889913Y-29845000D02*
X6350000Y-29845000D01*
%TO.N,/~{CS}*%
X4572000Y-27819981D02*
X4572000Y-27813000D01*
X5572291Y-28820272D02*
X4572000Y-27819981D01*
%TO.N,/~{WD}*%
X7043000Y-31575233D02*
X6279398Y-32338835D01*
X7043000Y-30919000D02*
X7043000Y-31575233D01*
X6731000Y-30607000D02*
X7043000Y-30919000D01*
%TO.N,/~{RD}*%
X7340058Y-33399495D02*
X8253983Y-32485570D01*
X8253983Y-32485570D02*
X8253983Y-30904798D01*
%TO.N,/A2*%
X19505607Y-35866393D02*
X21653500Y-33718500D01*
X11565728Y-34813709D02*
X12618412Y-35866393D01*
X12618412Y-35866393D02*
X19505607Y-35866393D01*
D31*
X21590000Y-32512000D02*
X21590000Y-29669000D01*
D28*
X21653500Y-33718500D02*
X21653500Y-32575500D01*
D31*
X21653500Y-32575500D02*
X21590000Y-32512000D01*
X21590000Y-29669000D02*
X21922000Y-29337000D01*
D28*
%TO.N,/A1*%
X20701000Y-33962869D02*
X20701000Y-33286000D01*
X11919282Y-34460155D02*
X12925520Y-35466393D01*
X12925520Y-35466393D02*
X19197476Y-35466393D01*
X19197476Y-35466393D02*
X20701000Y-33962869D01*
%TO.N,/A0*%
X13232625Y-35066392D02*
X18536816Y-35066392D01*
X18536816Y-35066392D02*
X19474604Y-34128604D01*
X12272835Y-34106602D02*
X13232625Y-35066392D01*
%TO.N,/~{DTR}*%
X11458781Y-7747000D02*
X11730369Y-8018588D01*
X13055630Y-31353863D02*
X14040602Y-32338835D01*
X12695163Y-31353863D02*
X13055630Y-31353863D01*
X10149000Y-7747000D02*
X11458781Y-7747000D01*
%TO.N,/Reset*%
X18604001Y-18434878D02*
X18530879Y-18508000D01*
X15321713Y-32205732D02*
X15974790Y-32205732D01*
X18530879Y-18508000D02*
X17270000Y-18508000D01*
X15974790Y-32205732D02*
X18602000Y-29578522D01*
X18602000Y-29578522D02*
X18602000Y-29413522D01*
X14747709Y-31631728D02*
X15321713Y-32205732D01*
%TO.N,/~{DSR}*%
X16702504Y-28328818D02*
X17427204Y-28328818D01*
X16040686Y-27667000D02*
X16702504Y-28328818D01*
X10149000Y-6477000D02*
X8763000Y-6477000D01*
X14394155Y-28466718D02*
X15193873Y-27667000D01*
X8763000Y-6477000D02*
X8636000Y-6604000D01*
X12605230Y-23121043D02*
X11320310Y-23121043D01*
X13754187Y-24270000D02*
X12605230Y-23121043D01*
X11320310Y-23121043D02*
X9233126Y-21033859D01*
X15193873Y-27667000D02*
X16040686Y-27667000D01*
X17152483Y-24270000D02*
X13754187Y-24270000D01*
%TO.N,/DCD*%
X13461082Y-29497123D02*
X13692827Y-29728868D01*
X10149000Y-10287000D02*
X12827000Y-10287000D01*
X14040602Y-28113165D02*
X13461082Y-28692685D01*
X12827000Y-10287000D02*
X12954000Y-10160000D01*
X13461082Y-28692685D02*
X13461082Y-29497123D01*
%TO.N,/RX Ready*%
X21944213Y-19167036D02*
X21303249Y-19808000D01*
X21303249Y-19808000D02*
X17270000Y-19808000D01*
D30*
%TO.N,/3.3V*%
X16832000Y-37651000D02*
X16891000Y-37592000D01*
X17272000Y-15367000D02*
X18668994Y-15367000D01*
X20192998Y-40259000D02*
X21164000Y-40259000D01*
D33*
X5925845Y-28466718D02*
X6279398Y-28113165D01*
D30*
X19558000Y-25146000D02*
X16321891Y-25146000D01*
X13462000Y-37651000D02*
X16832000Y-37651000D01*
D29*
X13333495Y-27406058D02*
X14323552Y-26416000D01*
X15793164Y-25674727D02*
X15051891Y-26416000D01*
D30*
X18668994Y-15367000D02*
X19304000Y-16002006D01*
X11235000Y-37651000D02*
X11176000Y-37592000D01*
D32*
X17253000Y-15348000D02*
X17253000Y-17191000D01*
D30*
X11048992Y-41656000D02*
X11175996Y-41528996D01*
D29*
X15051891Y-26416000D02*
X14323552Y-26416000D01*
D32*
X7357000Y-40010000D02*
X9241000Y-41894000D01*
D33*
X6298490Y-28124620D02*
X5097870Y-26924000D01*
D30*
X13462000Y-37651000D02*
X11235000Y-37651000D01*
X16321891Y-25146000D02*
X15793164Y-25674727D01*
D29*
X3556002Y-27431998D02*
X3556002Y-38100000D01*
X4064000Y-26924000D02*
X3556002Y-27431998D01*
D30*
X9479000Y-41656000D02*
X11048992Y-41656000D01*
D29*
X5097870Y-26924000D02*
X4064000Y-26924000D01*
D28*
%TO.N,/1.8432MHz*%
X21844000Y-35560000D02*
X22860000Y-35560000D01*
X10195950Y-38060400D02*
X11251550Y-39116000D01*
X11251550Y-39116000D02*
X17077000Y-39116000D01*
X19753000Y-37651000D02*
X21844000Y-35560000D01*
X5572291Y-31631728D02*
X4403409Y-32800609D01*
X7936000Y-38060400D02*
X10195950Y-38060400D01*
X18542000Y-37651000D02*
X19753000Y-37651000D01*
X4403409Y-34527809D02*
X7936000Y-38060400D01*
X4403409Y-32800609D02*
X4403409Y-34527809D01*
X17077000Y-39116000D02*
X18542000Y-37651000D01*
%TO.N,/~{TXRDY}*%
X17270000Y-20458000D02*
X16097000Y-20458000D01*
X8180268Y-35387713D02*
X8180268Y-35706951D01*
X8754272Y-34813709D02*
X8180268Y-35387713D01*
X8180268Y-35706951D02*
X8795317Y-36322000D01*
X8795317Y-36322000D02*
X14873453Y-36322000D01*
X14873453Y-36322000D02*
X15117845Y-36566392D01*
X16097000Y-20458000D02*
X16086000Y-20447000D01*
%TO.N,/~{RXRDY}*%
X15921479Y-19158000D02*
X15802663Y-19276816D01*
X17270000Y-19158000D02*
X15921479Y-19158000D01*
X13539731Y-34666392D02*
X14776276Y-34666392D01*
X12626388Y-33753049D02*
X13539731Y-34666392D01*
X14776276Y-34666392D02*
X15386836Y-34055832D01*
%TO.N,/INT*%
X12979942Y-33399495D02*
X13553946Y-33973499D01*
X14383610Y-33973499D02*
X14390849Y-33966260D01*
X13217527Y-17208000D02*
X13727258Y-16698269D01*
X11394000Y-17208000D02*
X13217527Y-17208000D01*
X13553946Y-33973499D02*
X14383610Y-33973499D01*
D31*
%TO.N,/~{OUT2}*%
X12544570Y-32251360D02*
X12003837Y-32251360D01*
X13321050Y-33027840D02*
X12544570Y-32251360D01*
%TO.N,/~{OUT1}*%
X14986000Y-21717000D02*
X14859000Y-21844000D01*
X13457671Y-31045121D02*
X13457671Y-30706880D01*
X14380720Y-31968170D02*
X13457671Y-31045121D01*
X20524000Y-21717000D02*
X14986000Y-21717000D01*
D28*
%TO.N,/~{INT}*%
X22860000Y-12700000D02*
X21237000Y-14323000D01*
X9680000Y-14323000D02*
X9652000Y-14351000D01*
X9779000Y-17653000D02*
X9984000Y-17858000D01*
X9984000Y-17858000D02*
X11394000Y-17858000D01*
X21237000Y-14323000D02*
X9680000Y-14323000D01*
%TO.N,/TX Ready*%
X20574000Y-20320000D02*
X22860000Y-20320000D01*
X19786000Y-21108000D02*
X20574000Y-20320000D01*
X17270000Y-21108000D02*
X19786000Y-21108000D01*
%TO.N,/~{Reset}*%
X13462000Y-41851000D02*
X14843197Y-41851000D01*
X19625496Y-17269504D02*
X18796000Y-17269504D01*
X18207504Y-17858000D02*
X18796000Y-17269504D01*
X21020000Y-15875000D02*
X19625496Y-17269504D01*
X17270000Y-17858000D02*
X18207504Y-17858000D01*
X14843197Y-41851000D02*
X15910197Y-40784000D01*
%TD*%
M02*
