%TF.GenerationSoftware,KiCad,Pcbnew,7.0.5*%
%TF.CreationDate,2024-01-27T16:11:28+02:00*%
%TF.ProjectId,Comparator 16bit,436f6d70-6172-4617-946f-722031366269,rev?*%
%TF.SameCoordinates,Original*%
%TF.FileFunction,Legend,Top*%
%TF.FilePolarity,Positive*%
%FSLAX46Y46*%
G04 Gerber Fmt 4.6, Leading zero omitted, Abs format (unit mm)*
G04 Created by KiCad (PCBNEW 7.0.5) date 2024-01-27 16:11:28*
%MOMM*%
%LPD*%
G01*
G04 APERTURE LIST*
%ADD10C,0.150000*%
%ADD11C,0.200000*%
%ADD12C,0.120000*%
G04 APERTURE END LIST*
D10*
X102426601Y-96745486D02*
X102396363Y-96775725D01*
X102396363Y-96775725D02*
X102305649Y-96805963D01*
X102305649Y-96805963D02*
X102245173Y-96805963D01*
X102245173Y-96805963D02*
X102154458Y-96775725D01*
X102154458Y-96775725D02*
X102093982Y-96715248D01*
X102093982Y-96715248D02*
X102063744Y-96654772D01*
X102063744Y-96654772D02*
X102033506Y-96533820D01*
X102033506Y-96533820D02*
X102033506Y-96443105D01*
X102033506Y-96443105D02*
X102063744Y-96322153D01*
X102063744Y-96322153D02*
X102093982Y-96261677D01*
X102093982Y-96261677D02*
X102154458Y-96201201D01*
X102154458Y-96201201D02*
X102245173Y-96170963D01*
X102245173Y-96170963D02*
X102305649Y-96170963D01*
X102305649Y-96170963D02*
X102396363Y-96201201D01*
X102396363Y-96201201D02*
X102426601Y-96231439D01*
X102638268Y-96170963D02*
X103031363Y-96170963D01*
X103031363Y-96170963D02*
X102819696Y-96412867D01*
X102819696Y-96412867D02*
X102910411Y-96412867D01*
X102910411Y-96412867D02*
X102970887Y-96443105D01*
X102970887Y-96443105D02*
X103001125Y-96473344D01*
X103001125Y-96473344D02*
X103031363Y-96533820D01*
X103031363Y-96533820D02*
X103031363Y-96685010D01*
X103031363Y-96685010D02*
X103001125Y-96745486D01*
X103001125Y-96745486D02*
X102970887Y-96775725D01*
X102970887Y-96775725D02*
X102910411Y-96805963D01*
X102910411Y-96805963D02*
X102728982Y-96805963D01*
X102728982Y-96805963D02*
X102668506Y-96775725D01*
X102668506Y-96775725D02*
X102638268Y-96745486D01*
X102456839Y-101377963D02*
X102154458Y-101377963D01*
X102154458Y-101377963D02*
X102124220Y-101680344D01*
X102124220Y-101680344D02*
X102154458Y-101650105D01*
X102154458Y-101650105D02*
X102214934Y-101619867D01*
X102214934Y-101619867D02*
X102366125Y-101619867D01*
X102366125Y-101619867D02*
X102426601Y-101650105D01*
X102426601Y-101650105D02*
X102456839Y-101680344D01*
X102456839Y-101680344D02*
X102487077Y-101740820D01*
X102487077Y-101740820D02*
X102487077Y-101892010D01*
X102487077Y-101892010D02*
X102456839Y-101952486D01*
X102456839Y-101952486D02*
X102426601Y-101982725D01*
X102426601Y-101982725D02*
X102366125Y-102012963D01*
X102366125Y-102012963D02*
X102214934Y-102012963D01*
X102214934Y-102012963D02*
X102154458Y-101982725D01*
X102154458Y-101982725D02*
X102124220Y-101952486D01*
X102668506Y-101377963D02*
X102880172Y-102012963D01*
X102880172Y-102012963D02*
X103091839Y-101377963D01*
X102426601Y-104492486D02*
X102396363Y-104522725D01*
X102396363Y-104522725D02*
X102305649Y-104552963D01*
X102305649Y-104552963D02*
X102245173Y-104552963D01*
X102245173Y-104552963D02*
X102154458Y-104522725D01*
X102154458Y-104522725D02*
X102093982Y-104462248D01*
X102093982Y-104462248D02*
X102063744Y-104401772D01*
X102063744Y-104401772D02*
X102033506Y-104280820D01*
X102033506Y-104280820D02*
X102033506Y-104190105D01*
X102033506Y-104190105D02*
X102063744Y-104069153D01*
X102063744Y-104069153D02*
X102093982Y-104008677D01*
X102093982Y-104008677D02*
X102154458Y-103948201D01*
X102154458Y-103948201D02*
X102245173Y-103917963D01*
X102245173Y-103917963D02*
X102305649Y-103917963D01*
X102305649Y-103917963D02*
X102396363Y-103948201D01*
X102396363Y-103948201D02*
X102426601Y-103978439D01*
X103031363Y-104552963D02*
X102668506Y-104552963D01*
X102849934Y-104552963D02*
X102849934Y-103917963D01*
X102849934Y-103917963D02*
X102789458Y-104008677D01*
X102789458Y-104008677D02*
X102728982Y-104069153D01*
X102728982Y-104069153D02*
X102668506Y-104099391D01*
X90311017Y-78390963D02*
X90190064Y-78390963D01*
X90190064Y-78390963D02*
X90129588Y-78421201D01*
X90129588Y-78421201D02*
X90099350Y-78451439D01*
X90099350Y-78451439D02*
X90038874Y-78542153D01*
X90038874Y-78542153D02*
X90008636Y-78663105D01*
X90008636Y-78663105D02*
X90008636Y-78905010D01*
X90008636Y-78905010D02*
X90038874Y-78965486D01*
X90038874Y-78965486D02*
X90069112Y-78995725D01*
X90069112Y-78995725D02*
X90129588Y-79025963D01*
X90129588Y-79025963D02*
X90250541Y-79025963D01*
X90250541Y-79025963D02*
X90311017Y-78995725D01*
X90311017Y-78995725D02*
X90341255Y-78965486D01*
X90341255Y-78965486D02*
X90371493Y-78905010D01*
X90371493Y-78905010D02*
X90371493Y-78753820D01*
X90371493Y-78753820D02*
X90341255Y-78693344D01*
X90341255Y-78693344D02*
X90311017Y-78663105D01*
X90311017Y-78663105D02*
X90250541Y-78632867D01*
X90250541Y-78632867D02*
X90129588Y-78632867D01*
X90129588Y-78632867D02*
X90069112Y-78663105D01*
X90069112Y-78663105D02*
X90038874Y-78693344D01*
X90038874Y-78693344D02*
X90008636Y-78753820D01*
X102426601Y-84045486D02*
X102396363Y-84075725D01*
X102396363Y-84075725D02*
X102305649Y-84105963D01*
X102305649Y-84105963D02*
X102245173Y-84105963D01*
X102245173Y-84105963D02*
X102154458Y-84075725D01*
X102154458Y-84075725D02*
X102093982Y-84015248D01*
X102093982Y-84015248D02*
X102063744Y-83954772D01*
X102063744Y-83954772D02*
X102033506Y-83833820D01*
X102033506Y-83833820D02*
X102033506Y-83743105D01*
X102033506Y-83743105D02*
X102063744Y-83622153D01*
X102063744Y-83622153D02*
X102093982Y-83561677D01*
X102093982Y-83561677D02*
X102154458Y-83501201D01*
X102154458Y-83501201D02*
X102245173Y-83470963D01*
X102245173Y-83470963D02*
X102305649Y-83470963D01*
X102305649Y-83470963D02*
X102396363Y-83501201D01*
X102396363Y-83501201D02*
X102426601Y-83531439D01*
X102638268Y-83470963D02*
X103061601Y-83470963D01*
X103061601Y-83470963D02*
X102789458Y-84105963D01*
X101700887Y-73341201D02*
X101640411Y-73310963D01*
X101640411Y-73310963D02*
X101549697Y-73310963D01*
X101549697Y-73310963D02*
X101458982Y-73341201D01*
X101458982Y-73341201D02*
X101398506Y-73401677D01*
X101398506Y-73401677D02*
X101368268Y-73462153D01*
X101368268Y-73462153D02*
X101338030Y-73583105D01*
X101338030Y-73583105D02*
X101338030Y-73673820D01*
X101338030Y-73673820D02*
X101368268Y-73794772D01*
X101368268Y-73794772D02*
X101398506Y-73855248D01*
X101398506Y-73855248D02*
X101458982Y-73915725D01*
X101458982Y-73915725D02*
X101549697Y-73945963D01*
X101549697Y-73945963D02*
X101610173Y-73945963D01*
X101610173Y-73945963D02*
X101700887Y-73915725D01*
X101700887Y-73915725D02*
X101731125Y-73885486D01*
X101731125Y-73885486D02*
X101731125Y-73673820D01*
X101731125Y-73673820D02*
X101610173Y-73673820D01*
X102003268Y-73945963D02*
X102003268Y-73310963D01*
X102003268Y-73310963D02*
X102366125Y-73945963D01*
X102366125Y-73945963D02*
X102366125Y-73310963D01*
X102668506Y-73945963D02*
X102668506Y-73310963D01*
X102668506Y-73310963D02*
X102819696Y-73310963D01*
X102819696Y-73310963D02*
X102910411Y-73341201D01*
X102910411Y-73341201D02*
X102970887Y-73401677D01*
X102970887Y-73401677D02*
X103001125Y-73462153D01*
X103001125Y-73462153D02*
X103031363Y-73583105D01*
X103031363Y-73583105D02*
X103031363Y-73673820D01*
X103031363Y-73673820D02*
X103001125Y-73794772D01*
X103001125Y-73794772D02*
X102970887Y-73855248D01*
X102970887Y-73855248D02*
X102910411Y-73915725D01*
X102910411Y-73915725D02*
X102819696Y-73945963D01*
X102819696Y-73945963D02*
X102668506Y-73945963D01*
X90625493Y-91121201D02*
X90565017Y-91090963D01*
X90565017Y-91090963D02*
X90474303Y-91090963D01*
X90474303Y-91090963D02*
X90383588Y-91121201D01*
X90383588Y-91121201D02*
X90323112Y-91181677D01*
X90323112Y-91181677D02*
X90292874Y-91242153D01*
X90292874Y-91242153D02*
X90262636Y-91363105D01*
X90262636Y-91363105D02*
X90262636Y-91453820D01*
X90262636Y-91453820D02*
X90292874Y-91574772D01*
X90292874Y-91574772D02*
X90323112Y-91635248D01*
X90323112Y-91635248D02*
X90383588Y-91695725D01*
X90383588Y-91695725D02*
X90474303Y-91725963D01*
X90474303Y-91725963D02*
X90534779Y-91725963D01*
X90534779Y-91725963D02*
X90625493Y-91695725D01*
X90625493Y-91695725D02*
X90655731Y-91665486D01*
X90655731Y-91665486D02*
X90655731Y-91453820D01*
X90655731Y-91453820D02*
X90534779Y-91453820D01*
X90292874Y-96805963D02*
X90292874Y-96170963D01*
X90292874Y-96170963D02*
X90444064Y-96170963D01*
X90444064Y-96170963D02*
X90534779Y-96201201D01*
X90534779Y-96201201D02*
X90595255Y-96261677D01*
X90595255Y-96261677D02*
X90625493Y-96322153D01*
X90625493Y-96322153D02*
X90655731Y-96443105D01*
X90655731Y-96443105D02*
X90655731Y-96533820D01*
X90655731Y-96533820D02*
X90625493Y-96654772D01*
X90625493Y-96654772D02*
X90595255Y-96715248D01*
X90595255Y-96715248D02*
X90534779Y-96775725D01*
X90534779Y-96775725D02*
X90444064Y-96805963D01*
X90444064Y-96805963D02*
X90292874Y-96805963D01*
X91048826Y-96170963D02*
X91109303Y-96170963D01*
X91109303Y-96170963D02*
X91169779Y-96201201D01*
X91169779Y-96201201D02*
X91200017Y-96231439D01*
X91200017Y-96231439D02*
X91230255Y-96291915D01*
X91230255Y-96291915D02*
X91260493Y-96412867D01*
X91260493Y-96412867D02*
X91260493Y-96564058D01*
X91260493Y-96564058D02*
X91230255Y-96685010D01*
X91230255Y-96685010D02*
X91200017Y-96745486D01*
X91200017Y-96745486D02*
X91169779Y-96775725D01*
X91169779Y-96775725D02*
X91109303Y-96805963D01*
X91109303Y-96805963D02*
X91048826Y-96805963D01*
X91048826Y-96805963D02*
X90988350Y-96775725D01*
X90988350Y-96775725D02*
X90958112Y-96745486D01*
X90958112Y-96745486D02*
X90927874Y-96685010D01*
X90927874Y-96685010D02*
X90897636Y-96564058D01*
X90897636Y-96564058D02*
X90897636Y-96412867D01*
X90897636Y-96412867D02*
X90927874Y-96291915D01*
X90927874Y-96291915D02*
X90958112Y-96231439D01*
X90958112Y-96231439D02*
X90988350Y-96201201D01*
X90988350Y-96201201D02*
X91048826Y-96170963D01*
X101821839Y-66265486D02*
X101791601Y-66295725D01*
X101791601Y-66295725D02*
X101700887Y-66325963D01*
X101700887Y-66325963D02*
X101640411Y-66325963D01*
X101640411Y-66325963D02*
X101549696Y-66295725D01*
X101549696Y-66295725D02*
X101489220Y-66235248D01*
X101489220Y-66235248D02*
X101458982Y-66174772D01*
X101458982Y-66174772D02*
X101428744Y-66053820D01*
X101428744Y-66053820D02*
X101428744Y-65963105D01*
X101428744Y-65963105D02*
X101458982Y-65842153D01*
X101458982Y-65842153D02*
X101489220Y-65781677D01*
X101489220Y-65781677D02*
X101549696Y-65721201D01*
X101549696Y-65721201D02*
X101640411Y-65690963D01*
X101640411Y-65690963D02*
X101700887Y-65690963D01*
X101700887Y-65690963D02*
X101791601Y-65721201D01*
X101791601Y-65721201D02*
X101821839Y-65751439D01*
X102426601Y-66325963D02*
X102063744Y-66325963D01*
X102245172Y-66325963D02*
X102245172Y-65690963D01*
X102245172Y-65690963D02*
X102184696Y-65781677D01*
X102184696Y-65781677D02*
X102124220Y-65842153D01*
X102124220Y-65842153D02*
X102063744Y-65872391D01*
X102638268Y-65690963D02*
X103031363Y-65690963D01*
X103031363Y-65690963D02*
X102819696Y-65932867D01*
X102819696Y-65932867D02*
X102910411Y-65932867D01*
X102910411Y-65932867D02*
X102970887Y-65963105D01*
X102970887Y-65963105D02*
X103001125Y-65993344D01*
X103001125Y-65993344D02*
X103031363Y-66053820D01*
X103031363Y-66053820D02*
X103031363Y-66205010D01*
X103031363Y-66205010D02*
X103001125Y-66265486D01*
X103001125Y-66265486D02*
X102970887Y-66295725D01*
X102970887Y-66295725D02*
X102910411Y-66325963D01*
X102910411Y-66325963D02*
X102728982Y-66325963D01*
X102728982Y-66325963D02*
X102668506Y-66295725D01*
X102668506Y-66295725D02*
X102638268Y-66265486D01*
X90292874Y-94265963D02*
X90292874Y-93630963D01*
X90292874Y-93630963D02*
X90444064Y-93630963D01*
X90444064Y-93630963D02*
X90534779Y-93661201D01*
X90534779Y-93661201D02*
X90595255Y-93721677D01*
X90595255Y-93721677D02*
X90625493Y-93782153D01*
X90625493Y-93782153D02*
X90655731Y-93903105D01*
X90655731Y-93903105D02*
X90655731Y-93993820D01*
X90655731Y-93993820D02*
X90625493Y-94114772D01*
X90625493Y-94114772D02*
X90595255Y-94175248D01*
X90595255Y-94175248D02*
X90534779Y-94235725D01*
X90534779Y-94235725D02*
X90444064Y-94265963D01*
X90444064Y-94265963D02*
X90292874Y-94265963D01*
X91260493Y-94265963D02*
X90897636Y-94265963D01*
X91079064Y-94265963D02*
X91079064Y-93630963D01*
X91079064Y-93630963D02*
X91018588Y-93721677D01*
X91018588Y-93721677D02*
X90958112Y-93782153D01*
X90958112Y-93782153D02*
X90897636Y-93812391D01*
X90341255Y-80930963D02*
X90038874Y-80930963D01*
X90038874Y-80930963D02*
X90008636Y-81233344D01*
X90008636Y-81233344D02*
X90038874Y-81203105D01*
X90038874Y-81203105D02*
X90099350Y-81172867D01*
X90099350Y-81172867D02*
X90250541Y-81172867D01*
X90250541Y-81172867D02*
X90311017Y-81203105D01*
X90311017Y-81203105D02*
X90341255Y-81233344D01*
X90341255Y-81233344D02*
X90371493Y-81293820D01*
X90371493Y-81293820D02*
X90371493Y-81445010D01*
X90371493Y-81445010D02*
X90341255Y-81505486D01*
X90341255Y-81505486D02*
X90311017Y-81535725D01*
X90311017Y-81535725D02*
X90250541Y-81565963D01*
X90250541Y-81565963D02*
X90099350Y-81565963D01*
X90099350Y-81565963D02*
X90038874Y-81535725D01*
X90038874Y-81535725D02*
X90008636Y-81505486D01*
X89978398Y-75850963D02*
X90401731Y-75850963D01*
X90401731Y-75850963D02*
X90129588Y-76485963D01*
X90165874Y-71073344D02*
X90377541Y-71073344D01*
X90468255Y-71405963D02*
X90165874Y-71405963D01*
X90165874Y-71405963D02*
X90165874Y-70770963D01*
X90165874Y-70770963D02*
X90468255Y-70770963D01*
X90078184Y-70594675D02*
X90525708Y-70594675D01*
X101821839Y-63725486D02*
X101791601Y-63755725D01*
X101791601Y-63755725D02*
X101700887Y-63785963D01*
X101700887Y-63785963D02*
X101640411Y-63785963D01*
X101640411Y-63785963D02*
X101549696Y-63755725D01*
X101549696Y-63755725D02*
X101489220Y-63695248D01*
X101489220Y-63695248D02*
X101458982Y-63634772D01*
X101458982Y-63634772D02*
X101428744Y-63513820D01*
X101428744Y-63513820D02*
X101428744Y-63423105D01*
X101428744Y-63423105D02*
X101458982Y-63302153D01*
X101458982Y-63302153D02*
X101489220Y-63241677D01*
X101489220Y-63241677D02*
X101549696Y-63181201D01*
X101549696Y-63181201D02*
X101640411Y-63150963D01*
X101640411Y-63150963D02*
X101700887Y-63150963D01*
X101700887Y-63150963D02*
X101791601Y-63181201D01*
X101791601Y-63181201D02*
X101821839Y-63211439D01*
X102426601Y-63785963D02*
X102063744Y-63785963D01*
X102245172Y-63785963D02*
X102245172Y-63150963D01*
X102245172Y-63150963D02*
X102184696Y-63241677D01*
X102184696Y-63241677D02*
X102124220Y-63302153D01*
X102124220Y-63302153D02*
X102063744Y-63332391D01*
X102970887Y-63362629D02*
X102970887Y-63785963D01*
X102819696Y-63120725D02*
X102668506Y-63574296D01*
X102668506Y-63574296D02*
X103061601Y-63574296D01*
X102426601Y-86585486D02*
X102396363Y-86615725D01*
X102396363Y-86615725D02*
X102305649Y-86645963D01*
X102305649Y-86645963D02*
X102245173Y-86645963D01*
X102245173Y-86645963D02*
X102154458Y-86615725D01*
X102154458Y-86615725D02*
X102093982Y-86555248D01*
X102093982Y-86555248D02*
X102063744Y-86494772D01*
X102063744Y-86494772D02*
X102033506Y-86373820D01*
X102033506Y-86373820D02*
X102033506Y-86283105D01*
X102033506Y-86283105D02*
X102063744Y-86162153D01*
X102063744Y-86162153D02*
X102093982Y-86101677D01*
X102093982Y-86101677D02*
X102154458Y-86041201D01*
X102154458Y-86041201D02*
X102245173Y-86010963D01*
X102245173Y-86010963D02*
X102305649Y-86010963D01*
X102305649Y-86010963D02*
X102396363Y-86041201D01*
X102396363Y-86041201D02*
X102426601Y-86071439D01*
X102970887Y-86010963D02*
X102849934Y-86010963D01*
X102849934Y-86010963D02*
X102789458Y-86041201D01*
X102789458Y-86041201D02*
X102759220Y-86071439D01*
X102759220Y-86071439D02*
X102698744Y-86162153D01*
X102698744Y-86162153D02*
X102668506Y-86283105D01*
X102668506Y-86283105D02*
X102668506Y-86525010D01*
X102668506Y-86525010D02*
X102698744Y-86585486D01*
X102698744Y-86585486D02*
X102728982Y-86615725D01*
X102728982Y-86615725D02*
X102789458Y-86645963D01*
X102789458Y-86645963D02*
X102910411Y-86645963D01*
X102910411Y-86645963D02*
X102970887Y-86615725D01*
X102970887Y-86615725D02*
X103001125Y-86585486D01*
X103001125Y-86585486D02*
X103031363Y-86525010D01*
X103031363Y-86525010D02*
X103031363Y-86373820D01*
X103031363Y-86373820D02*
X103001125Y-86313344D01*
X103001125Y-86313344D02*
X102970887Y-86283105D01*
X102970887Y-86283105D02*
X102910411Y-86252867D01*
X102910411Y-86252867D02*
X102789458Y-86252867D01*
X102789458Y-86252867D02*
X102728982Y-86283105D01*
X102728982Y-86283105D02*
X102698744Y-86313344D01*
X102698744Y-86313344D02*
X102668506Y-86373820D01*
X90135636Y-88611439D02*
X90165874Y-88581201D01*
X90165874Y-88581201D02*
X90226350Y-88550963D01*
X90226350Y-88550963D02*
X90377541Y-88550963D01*
X90377541Y-88550963D02*
X90438017Y-88581201D01*
X90438017Y-88581201D02*
X90468255Y-88611439D01*
X90468255Y-88611439D02*
X90498493Y-88671915D01*
X90498493Y-88671915D02*
X90498493Y-88732391D01*
X90498493Y-88732391D02*
X90468255Y-88823105D01*
X90468255Y-88823105D02*
X90105398Y-89185963D01*
X90105398Y-89185963D02*
X90498493Y-89185963D01*
X102517316Y-58373344D02*
X103001126Y-58373344D01*
X103001126Y-58554772D02*
X102517316Y-58554772D01*
X102429626Y-57894675D02*
X103088816Y-57894675D01*
X101821839Y-68805486D02*
X101791601Y-68835725D01*
X101791601Y-68835725D02*
X101700887Y-68865963D01*
X101700887Y-68865963D02*
X101640411Y-68865963D01*
X101640411Y-68865963D02*
X101549696Y-68835725D01*
X101549696Y-68835725D02*
X101489220Y-68775248D01*
X101489220Y-68775248D02*
X101458982Y-68714772D01*
X101458982Y-68714772D02*
X101428744Y-68593820D01*
X101428744Y-68593820D02*
X101428744Y-68503105D01*
X101428744Y-68503105D02*
X101458982Y-68382153D01*
X101458982Y-68382153D02*
X101489220Y-68321677D01*
X101489220Y-68321677D02*
X101549696Y-68261201D01*
X101549696Y-68261201D02*
X101640411Y-68230963D01*
X101640411Y-68230963D02*
X101700887Y-68230963D01*
X101700887Y-68230963D02*
X101791601Y-68261201D01*
X101791601Y-68261201D02*
X101821839Y-68291439D01*
X102426601Y-68865963D02*
X102063744Y-68865963D01*
X102245172Y-68865963D02*
X102245172Y-68230963D01*
X102245172Y-68230963D02*
X102184696Y-68321677D01*
X102184696Y-68321677D02*
X102124220Y-68382153D01*
X102124220Y-68382153D02*
X102063744Y-68412391D01*
X102668506Y-68291439D02*
X102698744Y-68261201D01*
X102698744Y-68261201D02*
X102759220Y-68230963D01*
X102759220Y-68230963D02*
X102910411Y-68230963D01*
X102910411Y-68230963D02*
X102970887Y-68261201D01*
X102970887Y-68261201D02*
X103001125Y-68291439D01*
X103001125Y-68291439D02*
X103031363Y-68351915D01*
X103031363Y-68351915D02*
X103031363Y-68412391D01*
X103031363Y-68412391D02*
X103001125Y-68503105D01*
X103001125Y-68503105D02*
X102638268Y-68865963D01*
X102638268Y-68865963D02*
X103031363Y-68865963D01*
X102426601Y-61245963D02*
X102063744Y-61245963D01*
X102245172Y-61245963D02*
X102245172Y-60610963D01*
X102245172Y-60610963D02*
X102184696Y-60701677D01*
X102184696Y-60701677D02*
X102124220Y-60762153D01*
X102124220Y-60762153D02*
X102063744Y-60792391D01*
X103001125Y-60610963D02*
X102698744Y-60610963D01*
X102698744Y-60610963D02*
X102668506Y-60913344D01*
X102668506Y-60913344D02*
X102698744Y-60883105D01*
X102698744Y-60883105D02*
X102759220Y-60852867D01*
X102759220Y-60852867D02*
X102910411Y-60852867D01*
X102910411Y-60852867D02*
X102970887Y-60883105D01*
X102970887Y-60883105D02*
X103001125Y-60913344D01*
X103001125Y-60913344D02*
X103031363Y-60973820D01*
X103031363Y-60973820D02*
X103031363Y-61125010D01*
X103031363Y-61125010D02*
X103001125Y-61185486D01*
X103001125Y-61185486D02*
X102970887Y-61215725D01*
X102970887Y-61215725D02*
X102910411Y-61245963D01*
X102910411Y-61245963D02*
X102759220Y-61245963D01*
X102759220Y-61245963D02*
X102698744Y-61215725D01*
X102698744Y-61215725D02*
X102668506Y-61185486D01*
X102426601Y-107032486D02*
X102396363Y-107062725D01*
X102396363Y-107062725D02*
X102305649Y-107092963D01*
X102305649Y-107092963D02*
X102245173Y-107092963D01*
X102245173Y-107092963D02*
X102154458Y-107062725D01*
X102154458Y-107062725D02*
X102093982Y-107002248D01*
X102093982Y-107002248D02*
X102063744Y-106941772D01*
X102063744Y-106941772D02*
X102033506Y-106820820D01*
X102033506Y-106820820D02*
X102033506Y-106730105D01*
X102033506Y-106730105D02*
X102063744Y-106609153D01*
X102063744Y-106609153D02*
X102093982Y-106548677D01*
X102093982Y-106548677D02*
X102154458Y-106488201D01*
X102154458Y-106488201D02*
X102245173Y-106457963D01*
X102245173Y-106457963D02*
X102305649Y-106457963D01*
X102305649Y-106457963D02*
X102396363Y-106488201D01*
X102396363Y-106488201D02*
X102426601Y-106518439D01*
X102819696Y-106457963D02*
X102880173Y-106457963D01*
X102880173Y-106457963D02*
X102940649Y-106488201D01*
X102940649Y-106488201D02*
X102970887Y-106518439D01*
X102970887Y-106518439D02*
X103001125Y-106578915D01*
X103001125Y-106578915D02*
X103031363Y-106699867D01*
X103031363Y-106699867D02*
X103031363Y-106851058D01*
X103031363Y-106851058D02*
X103001125Y-106972010D01*
X103001125Y-106972010D02*
X102970887Y-107032486D01*
X102970887Y-107032486D02*
X102940649Y-107062725D01*
X102940649Y-107062725D02*
X102880173Y-107092963D01*
X102880173Y-107092963D02*
X102819696Y-107092963D01*
X102819696Y-107092963D02*
X102759220Y-107062725D01*
X102759220Y-107062725D02*
X102728982Y-107032486D01*
X102728982Y-107032486D02*
X102698744Y-106972010D01*
X102698744Y-106972010D02*
X102668506Y-106851058D01*
X102668506Y-106851058D02*
X102668506Y-106699867D01*
X102668506Y-106699867D02*
X102698744Y-106578915D01*
X102698744Y-106578915D02*
X102728982Y-106518439D01*
X102728982Y-106518439D02*
X102759220Y-106488201D01*
X102759220Y-106488201D02*
X102819696Y-106457963D01*
X89978398Y-103790963D02*
X90129588Y-104425963D01*
X90129588Y-104425963D02*
X90250541Y-103972391D01*
X90250541Y-103972391D02*
X90371493Y-104425963D01*
X90371493Y-104425963D02*
X90522684Y-103790963D01*
X91127445Y-104365486D02*
X91097207Y-104395725D01*
X91097207Y-104395725D02*
X91006493Y-104425963D01*
X91006493Y-104425963D02*
X90946017Y-104425963D01*
X90946017Y-104425963D02*
X90855302Y-104395725D01*
X90855302Y-104395725D02*
X90794826Y-104335248D01*
X90794826Y-104335248D02*
X90764588Y-104274772D01*
X90764588Y-104274772D02*
X90734350Y-104153820D01*
X90734350Y-104153820D02*
X90734350Y-104063105D01*
X90734350Y-104063105D02*
X90764588Y-103942153D01*
X90764588Y-103942153D02*
X90794826Y-103881677D01*
X90794826Y-103881677D02*
X90855302Y-103821201D01*
X90855302Y-103821201D02*
X90946017Y-103790963D01*
X90946017Y-103790963D02*
X91006493Y-103790963D01*
X91006493Y-103790963D02*
X91097207Y-103821201D01*
X91097207Y-103821201D02*
X91127445Y-103851439D01*
X91399588Y-104425963D02*
X91399588Y-103790963D01*
X91399588Y-104093344D02*
X91762445Y-104093344D01*
X91762445Y-104425963D02*
X91762445Y-103790963D01*
X102426601Y-89125486D02*
X102396363Y-89155725D01*
X102396363Y-89155725D02*
X102305649Y-89185963D01*
X102305649Y-89185963D02*
X102245173Y-89185963D01*
X102245173Y-89185963D02*
X102154458Y-89155725D01*
X102154458Y-89155725D02*
X102093982Y-89095248D01*
X102093982Y-89095248D02*
X102063744Y-89034772D01*
X102063744Y-89034772D02*
X102033506Y-88913820D01*
X102033506Y-88913820D02*
X102033506Y-88823105D01*
X102033506Y-88823105D02*
X102063744Y-88702153D01*
X102063744Y-88702153D02*
X102093982Y-88641677D01*
X102093982Y-88641677D02*
X102154458Y-88581201D01*
X102154458Y-88581201D02*
X102245173Y-88550963D01*
X102245173Y-88550963D02*
X102305649Y-88550963D01*
X102305649Y-88550963D02*
X102396363Y-88581201D01*
X102396363Y-88581201D02*
X102426601Y-88611439D01*
X103001125Y-88550963D02*
X102698744Y-88550963D01*
X102698744Y-88550963D02*
X102668506Y-88853344D01*
X102668506Y-88853344D02*
X102698744Y-88823105D01*
X102698744Y-88823105D02*
X102759220Y-88792867D01*
X102759220Y-88792867D02*
X102910411Y-88792867D01*
X102910411Y-88792867D02*
X102970887Y-88823105D01*
X102970887Y-88823105D02*
X103001125Y-88853344D01*
X103001125Y-88853344D02*
X103031363Y-88913820D01*
X103031363Y-88913820D02*
X103031363Y-89065010D01*
X103031363Y-89065010D02*
X103001125Y-89125486D01*
X103001125Y-89125486D02*
X102970887Y-89155725D01*
X102970887Y-89155725D02*
X102910411Y-89185963D01*
X102910411Y-89185963D02*
X102759220Y-89185963D01*
X102759220Y-89185963D02*
X102698744Y-89155725D01*
X102698744Y-89155725D02*
X102668506Y-89125486D01*
X102426601Y-81505486D02*
X102396363Y-81535725D01*
X102396363Y-81535725D02*
X102305649Y-81565963D01*
X102305649Y-81565963D02*
X102245173Y-81565963D01*
X102245173Y-81565963D02*
X102154458Y-81535725D01*
X102154458Y-81535725D02*
X102093982Y-81475248D01*
X102093982Y-81475248D02*
X102063744Y-81414772D01*
X102063744Y-81414772D02*
X102033506Y-81293820D01*
X102033506Y-81293820D02*
X102033506Y-81203105D01*
X102033506Y-81203105D02*
X102063744Y-81082153D01*
X102063744Y-81082153D02*
X102093982Y-81021677D01*
X102093982Y-81021677D02*
X102154458Y-80961201D01*
X102154458Y-80961201D02*
X102245173Y-80930963D01*
X102245173Y-80930963D02*
X102305649Y-80930963D01*
X102305649Y-80930963D02*
X102396363Y-80961201D01*
X102396363Y-80961201D02*
X102426601Y-80991439D01*
X102789458Y-81203105D02*
X102728982Y-81172867D01*
X102728982Y-81172867D02*
X102698744Y-81142629D01*
X102698744Y-81142629D02*
X102668506Y-81082153D01*
X102668506Y-81082153D02*
X102668506Y-81051915D01*
X102668506Y-81051915D02*
X102698744Y-80991439D01*
X102698744Y-80991439D02*
X102728982Y-80961201D01*
X102728982Y-80961201D02*
X102789458Y-80930963D01*
X102789458Y-80930963D02*
X102910411Y-80930963D01*
X102910411Y-80930963D02*
X102970887Y-80961201D01*
X102970887Y-80961201D02*
X103001125Y-80991439D01*
X103001125Y-80991439D02*
X103031363Y-81051915D01*
X103031363Y-81051915D02*
X103031363Y-81082153D01*
X103031363Y-81082153D02*
X103001125Y-81142629D01*
X103001125Y-81142629D02*
X102970887Y-81172867D01*
X102970887Y-81172867D02*
X102910411Y-81203105D01*
X102910411Y-81203105D02*
X102789458Y-81203105D01*
X102789458Y-81203105D02*
X102728982Y-81233344D01*
X102728982Y-81233344D02*
X102698744Y-81263582D01*
X102698744Y-81263582D02*
X102668506Y-81324058D01*
X102668506Y-81324058D02*
X102668506Y-81445010D01*
X102668506Y-81445010D02*
X102698744Y-81505486D01*
X102698744Y-81505486D02*
X102728982Y-81535725D01*
X102728982Y-81535725D02*
X102789458Y-81565963D01*
X102789458Y-81565963D02*
X102910411Y-81565963D01*
X102910411Y-81565963D02*
X102970887Y-81535725D01*
X102970887Y-81535725D02*
X103001125Y-81505486D01*
X103001125Y-81505486D02*
X103031363Y-81445010D01*
X103031363Y-81445010D02*
X103031363Y-81324058D01*
X103031363Y-81324058D02*
X103001125Y-81263582D01*
X103001125Y-81263582D02*
X102970887Y-81233344D01*
X102970887Y-81233344D02*
X102910411Y-81203105D01*
X102426601Y-94205486D02*
X102396363Y-94235725D01*
X102396363Y-94235725D02*
X102305649Y-94265963D01*
X102305649Y-94265963D02*
X102245173Y-94265963D01*
X102245173Y-94265963D02*
X102154458Y-94235725D01*
X102154458Y-94235725D02*
X102093982Y-94175248D01*
X102093982Y-94175248D02*
X102063744Y-94114772D01*
X102063744Y-94114772D02*
X102033506Y-93993820D01*
X102033506Y-93993820D02*
X102033506Y-93903105D01*
X102033506Y-93903105D02*
X102063744Y-93782153D01*
X102063744Y-93782153D02*
X102093982Y-93721677D01*
X102093982Y-93721677D02*
X102154458Y-93661201D01*
X102154458Y-93661201D02*
X102245173Y-93630963D01*
X102245173Y-93630963D02*
X102305649Y-93630963D01*
X102305649Y-93630963D02*
X102396363Y-93661201D01*
X102396363Y-93661201D02*
X102426601Y-93691439D01*
X102970887Y-93842629D02*
X102970887Y-94265963D01*
X102819696Y-93600725D02*
X102668506Y-94054296D01*
X102668506Y-94054296D02*
X103061601Y-94054296D01*
X90311017Y-83682629D02*
X90311017Y-84105963D01*
X90159826Y-83440725D02*
X90008636Y-83894296D01*
X90008636Y-83894296D02*
X90401731Y-83894296D01*
X101948839Y-71472486D02*
X101918601Y-71502725D01*
X101918601Y-71502725D02*
X101827887Y-71532963D01*
X101827887Y-71532963D02*
X101767411Y-71532963D01*
X101767411Y-71532963D02*
X101676696Y-71502725D01*
X101676696Y-71502725D02*
X101616220Y-71442248D01*
X101616220Y-71442248D02*
X101585982Y-71381772D01*
X101585982Y-71381772D02*
X101555744Y-71260820D01*
X101555744Y-71260820D02*
X101555744Y-71170105D01*
X101555744Y-71170105D02*
X101585982Y-71049153D01*
X101585982Y-71049153D02*
X101616220Y-70988677D01*
X101616220Y-70988677D02*
X101676696Y-70928201D01*
X101676696Y-70928201D02*
X101767411Y-70897963D01*
X101767411Y-70897963D02*
X101827887Y-70897963D01*
X101827887Y-70897963D02*
X101918601Y-70928201D01*
X101918601Y-70928201D02*
X101948839Y-70958439D01*
X102553601Y-71532963D02*
X102190744Y-71532963D01*
X102372172Y-71532963D02*
X102372172Y-70897963D01*
X102372172Y-70897963D02*
X102311696Y-70988677D01*
X102311696Y-70988677D02*
X102251220Y-71049153D01*
X102251220Y-71049153D02*
X102190744Y-71079391D01*
X103158363Y-71532963D02*
X102795506Y-71532963D01*
X102976934Y-71532963D02*
X102976934Y-70897963D01*
X102976934Y-70897963D02*
X102916458Y-70988677D01*
X102916458Y-70988677D02*
X102855982Y-71049153D01*
X102855982Y-71049153D02*
X102795506Y-71079391D01*
X102426601Y-76485963D02*
X102063744Y-76485963D01*
X102245172Y-76485963D02*
X102245172Y-75850963D01*
X102245172Y-75850963D02*
X102184696Y-75941677D01*
X102184696Y-75941677D02*
X102124220Y-76002153D01*
X102124220Y-76002153D02*
X102063744Y-76032391D01*
X102819696Y-75850963D02*
X102880173Y-75850963D01*
X102880173Y-75850963D02*
X102940649Y-75881201D01*
X102940649Y-75881201D02*
X102970887Y-75911439D01*
X102970887Y-75911439D02*
X103001125Y-75971915D01*
X103001125Y-75971915D02*
X103031363Y-76092867D01*
X103031363Y-76092867D02*
X103031363Y-76244058D01*
X103031363Y-76244058D02*
X103001125Y-76365010D01*
X103001125Y-76365010D02*
X102970887Y-76425486D01*
X102970887Y-76425486D02*
X102940649Y-76455725D01*
X102940649Y-76455725D02*
X102880173Y-76485963D01*
X102880173Y-76485963D02*
X102819696Y-76485963D01*
X102819696Y-76485963D02*
X102759220Y-76455725D01*
X102759220Y-76455725D02*
X102728982Y-76425486D01*
X102728982Y-76425486D02*
X102698744Y-76365010D01*
X102698744Y-76365010D02*
X102668506Y-76244058D01*
X102668506Y-76244058D02*
X102668506Y-76092867D01*
X102668506Y-76092867D02*
X102698744Y-75971915D01*
X102698744Y-75971915D02*
X102728982Y-75911439D01*
X102728982Y-75911439D02*
X102759220Y-75881201D01*
X102759220Y-75881201D02*
X102819696Y-75850963D01*
D11*
G36*
X91968287Y-57289975D02*
G01*
X91992957Y-57314645D01*
X92022761Y-57374252D01*
X92022761Y-57565135D01*
X91992957Y-57624743D01*
X91968286Y-57649414D01*
X91908679Y-57679219D01*
X91765415Y-57679219D01*
X91705808Y-57649415D01*
X91681137Y-57624743D01*
X91651333Y-57565135D01*
X91651333Y-57374253D01*
X91681137Y-57314644D01*
X91705807Y-57289974D01*
X91765415Y-57260171D01*
X91908679Y-57260171D01*
X91968287Y-57289975D01*
G37*
G36*
X92873049Y-57242356D02*
G01*
X92897719Y-57267026D01*
X92927523Y-57326634D01*
X92927523Y-57565135D01*
X92897719Y-57624743D01*
X92873048Y-57649414D01*
X92813441Y-57679219D01*
X92670177Y-57679219D01*
X92651333Y-57669797D01*
X92651333Y-57221974D01*
X92670177Y-57212552D01*
X92813441Y-57212552D01*
X92873049Y-57242356D01*
G37*
G36*
X96620381Y-58354857D02*
G01*
X89815619Y-58354857D01*
X89815619Y-57068606D01*
X90494795Y-57068606D01*
X90513315Y-57124334D01*
X90559024Y-57161204D01*
X90617410Y-57167507D01*
X90727695Y-57112364D01*
X90744138Y-57108787D01*
X90763617Y-57089307D01*
X90783798Y-57070536D01*
X90784282Y-57068642D01*
X90784666Y-57068259D01*
X90784666Y-57679219D01*
X90584573Y-57679219D01*
X90542605Y-57691542D01*
X90504148Y-57735924D01*
X90495791Y-57794051D01*
X90520186Y-57847470D01*
X90569589Y-57879219D01*
X90877512Y-57879219D01*
X90899498Y-57882380D01*
X90906420Y-57879219D01*
X91184759Y-57879219D01*
X91226727Y-57866896D01*
X91265184Y-57822514D01*
X91273541Y-57764387D01*
X91249146Y-57710968D01*
X91199743Y-57679219D01*
X90984666Y-57679219D01*
X90984666Y-57361835D01*
X91447713Y-57361835D01*
X91451333Y-57370563D01*
X91451333Y-57583356D01*
X91448759Y-57607200D01*
X91457897Y-57625476D01*
X91463656Y-57645089D01*
X91470797Y-57651277D01*
X91503901Y-57717484D01*
X91507478Y-57733927D01*
X91526961Y-57753410D01*
X91545730Y-57773588D01*
X91547622Y-57774071D01*
X91566994Y-57793444D01*
X91575587Y-57807911D01*
X91600225Y-57820230D01*
X91624416Y-57833440D01*
X91626365Y-57833300D01*
X91692270Y-57866253D01*
X91712446Y-57879219D01*
X91732881Y-57879219D01*
X91752997Y-57882839D01*
X91761725Y-57879219D01*
X91926900Y-57879219D01*
X91950743Y-57881793D01*
X91969019Y-57872654D01*
X91988632Y-57866896D01*
X91994820Y-57859754D01*
X92061028Y-57826650D01*
X92077472Y-57823073D01*
X92096957Y-57803587D01*
X92117131Y-57784822D01*
X92117615Y-57782928D01*
X92136988Y-57763555D01*
X92151453Y-57754964D01*
X92163770Y-57730329D01*
X92176982Y-57706133D01*
X92176842Y-57704185D01*
X92209795Y-57638280D01*
X92222761Y-57618105D01*
X92222761Y-57597669D01*
X92226381Y-57577554D01*
X92222761Y-57568825D01*
X92222761Y-57356031D01*
X92225335Y-57332188D01*
X92216196Y-57313910D01*
X92210438Y-57294300D01*
X92203296Y-57288112D01*
X92170191Y-57221901D01*
X92166615Y-57205461D01*
X92147140Y-57185986D01*
X92128364Y-57165800D01*
X92126469Y-57165315D01*
X92124998Y-57163844D01*
X92447176Y-57163844D01*
X92451333Y-57176352D01*
X92451333Y-57729833D01*
X92450360Y-57757420D01*
X92451333Y-57759058D01*
X92451333Y-57793598D01*
X92463656Y-57835566D01*
X92508038Y-57874023D01*
X92566165Y-57882380D01*
X92598879Y-57867440D01*
X92617208Y-57879219D01*
X92637643Y-57879219D01*
X92657759Y-57882839D01*
X92666487Y-57879219D01*
X92831662Y-57879219D01*
X92855505Y-57881793D01*
X92873781Y-57872654D01*
X92893394Y-57866896D01*
X92899582Y-57859754D01*
X92965790Y-57826650D01*
X92982234Y-57823073D01*
X93001719Y-57803587D01*
X93012458Y-57793598D01*
X93356095Y-57793598D01*
X93368418Y-57835566D01*
X93412800Y-57874023D01*
X93470927Y-57882380D01*
X93524346Y-57857985D01*
X93556095Y-57808582D01*
X93556095Y-57127384D01*
X93686267Y-57127384D01*
X93710662Y-57180803D01*
X93760065Y-57212552D01*
X93832285Y-57212552D01*
X93832285Y-57630975D01*
X93829711Y-57654819D01*
X93838849Y-57673096D01*
X93844608Y-57692708D01*
X93851748Y-57698895D01*
X93879068Y-57753535D01*
X93878931Y-57757420D01*
X93892075Y-57779550D01*
X93896891Y-57789182D01*
X93899394Y-57791873D01*
X93908920Y-57807911D01*
X93919002Y-57812952D01*
X93926682Y-57821208D01*
X93944758Y-57825830D01*
X94025603Y-57866253D01*
X94045779Y-57879219D01*
X94066214Y-57879219D01*
X94086330Y-57882839D01*
X94095058Y-57879219D01*
X94184759Y-57879219D01*
X94226727Y-57866896D01*
X94265184Y-57822514D01*
X94273541Y-57764387D01*
X94249146Y-57710968D01*
X94199743Y-57679219D01*
X94098748Y-57679219D01*
X94054439Y-57657064D01*
X94032285Y-57612755D01*
X94032285Y-57346414D01*
X95113864Y-57346414D01*
X95118000Y-57362957D01*
X95118000Y-57365026D01*
X95121479Y-57376876D01*
X95164284Y-57548096D01*
X95163045Y-57559581D01*
X95171266Y-57576024D01*
X95172092Y-57579326D01*
X95177677Y-57588846D01*
X95218187Y-57669865D01*
X95221764Y-57686308D01*
X95241246Y-57705790D01*
X95260016Y-57725969D01*
X95261908Y-57726452D01*
X95333953Y-57798498D01*
X95348997Y-57817183D01*
X95368382Y-57823644D01*
X95386322Y-57833441D01*
X95395748Y-57832766D01*
X95507814Y-57870121D01*
X95521970Y-57879219D01*
X95549525Y-57879219D01*
X95577062Y-57880215D01*
X95578742Y-57879219D01*
X95634031Y-57879219D01*
X95650338Y-57883373D01*
X95676477Y-57874659D01*
X95702918Y-57866896D01*
X95704197Y-57865419D01*
X95815936Y-57828172D01*
X95839377Y-57823073D01*
X95853829Y-57808620D01*
X95870609Y-57796959D01*
X95874220Y-57788228D01*
X95917926Y-57744522D01*
X95938887Y-57706133D01*
X95934697Y-57647557D01*
X95899504Y-57600546D01*
X95844481Y-57580023D01*
X95787098Y-57592507D01*
X95735409Y-57644196D01*
X95630344Y-57679219D01*
X95567560Y-57679219D01*
X95462494Y-57644197D01*
X95395423Y-57577124D01*
X95359971Y-57506221D01*
X95318000Y-57338335D01*
X95318000Y-57220102D01*
X95359971Y-57052214D01*
X95395423Y-56981311D01*
X95462493Y-56914241D01*
X95567559Y-56879219D01*
X95630343Y-56879219D01*
X95735410Y-56914241D01*
X95776504Y-56955335D01*
X95814893Y-56976297D01*
X95873469Y-56972107D01*
X95920480Y-56936915D01*
X95941003Y-56881892D01*
X95928520Y-56824509D01*
X95863944Y-56759933D01*
X95848906Y-56741255D01*
X95829520Y-56734793D01*
X95811582Y-56724998D01*
X95802157Y-56725672D01*
X95690089Y-56688316D01*
X95675934Y-56679219D01*
X95648379Y-56679219D01*
X95620841Y-56678223D01*
X95619161Y-56679219D01*
X95563871Y-56679219D01*
X95547566Y-56675065D01*
X95521425Y-56683778D01*
X95494986Y-56691542D01*
X95493706Y-56693018D01*
X95381968Y-56730264D01*
X95358528Y-56735364D01*
X95344075Y-56749816D01*
X95327295Y-56761479D01*
X95323683Y-56770208D01*
X95251392Y-56842500D01*
X95236927Y-56851092D01*
X95224609Y-56875726D01*
X95211398Y-56899922D01*
X95211537Y-56901871D01*
X95184143Y-56956659D01*
X95175726Y-56964574D01*
X95171266Y-56982413D01*
X95169746Y-56985454D01*
X95167793Y-56996305D01*
X95124976Y-57167570D01*
X95118000Y-57178427D01*
X95118000Y-57195478D01*
X95117498Y-57197486D01*
X95118000Y-57209832D01*
X95118000Y-57334188D01*
X95113864Y-57346414D01*
X94032285Y-57346414D01*
X94032285Y-57212552D01*
X94184759Y-57212552D01*
X94226727Y-57200229D01*
X94265184Y-57155847D01*
X94273541Y-57097720D01*
X94249146Y-57044301D01*
X94199743Y-57012552D01*
X94032285Y-57012552D01*
X94032285Y-56764840D01*
X94019962Y-56722872D01*
X93975580Y-56684415D01*
X93917453Y-56676058D01*
X93864034Y-56700453D01*
X93832285Y-56749856D01*
X93832285Y-57012552D01*
X93775049Y-57012552D01*
X93733081Y-57024875D01*
X93694624Y-57069257D01*
X93686267Y-57127384D01*
X93556095Y-57127384D01*
X93556095Y-57098173D01*
X93543772Y-57056205D01*
X93499390Y-57017748D01*
X93441263Y-57009391D01*
X93387844Y-57033786D01*
X93356095Y-57083189D01*
X93356095Y-57793598D01*
X93012458Y-57793598D01*
X93021893Y-57784822D01*
X93022377Y-57782928D01*
X93041750Y-57763555D01*
X93056215Y-57754964D01*
X93068532Y-57730329D01*
X93081744Y-57706133D01*
X93081604Y-57704185D01*
X93114557Y-57638280D01*
X93127523Y-57618105D01*
X93127523Y-57597669D01*
X93131143Y-57577554D01*
X93127523Y-57568825D01*
X93127523Y-57308412D01*
X93130097Y-57284569D01*
X93120958Y-57266291D01*
X93115200Y-57246681D01*
X93108058Y-57240493D01*
X93074953Y-57174282D01*
X93071377Y-57157842D01*
X93051902Y-57138367D01*
X93033126Y-57118181D01*
X93031231Y-57117696D01*
X93011861Y-57098326D01*
X93003269Y-57083860D01*
X92978634Y-57071542D01*
X92954439Y-57058331D01*
X92952489Y-57058470D01*
X92886588Y-57025519D01*
X92866410Y-57012552D01*
X92845974Y-57012552D01*
X92825859Y-57008932D01*
X92817131Y-57012552D01*
X92651955Y-57012552D01*
X92651333Y-57012484D01*
X92651333Y-56819403D01*
X93304519Y-56819403D01*
X93309240Y-56841106D01*
X93310825Y-56863260D01*
X93315385Y-56869352D01*
X93317003Y-56876786D01*
X93332704Y-56892487D01*
X93346018Y-56910272D01*
X93353148Y-56912931D01*
X93367335Y-56927118D01*
X93368418Y-56930804D01*
X93382483Y-56942991D01*
X93393637Y-56957891D01*
X93404244Y-56961847D01*
X93412800Y-56969261D01*
X93424006Y-56970872D01*
X93433941Y-56976297D01*
X93441529Y-56975754D01*
X93448660Y-56978414D01*
X93459722Y-56976007D01*
X93470927Y-56977618D01*
X93481226Y-56972914D01*
X93492517Y-56972107D01*
X93498607Y-56967547D01*
X93506043Y-56965930D01*
X93514046Y-56957926D01*
X93524346Y-56953223D01*
X93530467Y-56943697D01*
X93539528Y-56936915D01*
X93542187Y-56929785D01*
X93569367Y-56902605D01*
X93587147Y-56889296D01*
X93594907Y-56868489D01*
X93605554Y-56848992D01*
X93605011Y-56841401D01*
X93607670Y-56834273D01*
X93602948Y-56812569D01*
X93601364Y-56790416D01*
X93596804Y-56784325D01*
X93595187Y-56776890D01*
X93579481Y-56761184D01*
X93566172Y-56743405D01*
X93559042Y-56740745D01*
X93544854Y-56726557D01*
X93543772Y-56722872D01*
X93529704Y-56710682D01*
X93518553Y-56695786D01*
X93507947Y-56691830D01*
X93499390Y-56684415D01*
X93488183Y-56682803D01*
X93478249Y-56677379D01*
X93470658Y-56677921D01*
X93463530Y-56675263D01*
X93452469Y-56677669D01*
X93441263Y-56676058D01*
X93430965Y-56680760D01*
X93419673Y-56681568D01*
X93413580Y-56686128D01*
X93406147Y-56687746D01*
X93398143Y-56695749D01*
X93387844Y-56700453D01*
X93381723Y-56709976D01*
X93372661Y-56716761D01*
X93370001Y-56723891D01*
X93342826Y-56751066D01*
X93325042Y-56764380D01*
X93317279Y-56785192D01*
X93306636Y-56804684D01*
X93307178Y-56812272D01*
X93304519Y-56819403D01*
X92651333Y-56819403D01*
X92651333Y-56764840D01*
X92639010Y-56722872D01*
X92594628Y-56684415D01*
X92536501Y-56676058D01*
X92483082Y-56700453D01*
X92451333Y-56749856D01*
X92451333Y-57147586D01*
X92447176Y-57163844D01*
X92124998Y-57163844D01*
X92107099Y-57145945D01*
X92098507Y-57131479D01*
X92073872Y-57119161D01*
X92049677Y-57105950D01*
X92047727Y-57106089D01*
X91981826Y-57073138D01*
X91961648Y-57060171D01*
X91941212Y-57060171D01*
X91921097Y-57056551D01*
X91912369Y-57060171D01*
X91747193Y-57060171D01*
X91723350Y-57057597D01*
X91705072Y-57066735D01*
X91688454Y-57071615D01*
X91691765Y-57058370D01*
X91771902Y-56938165D01*
X91801045Y-56909022D01*
X91860653Y-56879219D01*
X92041902Y-56879219D01*
X92083870Y-56866896D01*
X92122327Y-56822514D01*
X92130684Y-56764387D01*
X92106289Y-56710968D01*
X92056886Y-56679219D01*
X91842431Y-56679219D01*
X91818588Y-56676645D01*
X91800310Y-56685783D01*
X91780700Y-56691542D01*
X91774512Y-56698683D01*
X91708301Y-56731788D01*
X91691861Y-56735365D01*
X91672386Y-56754839D01*
X91652200Y-56773616D01*
X91651715Y-56775510D01*
X91636852Y-56790373D01*
X91627273Y-56794555D01*
X91616476Y-56810749D01*
X91613312Y-56813914D01*
X91608536Y-56822660D01*
X91522104Y-56952308D01*
X91509059Y-56964574D01*
X91502633Y-56990277D01*
X91494745Y-57015563D01*
X91495566Y-57018544D01*
X91458309Y-57167570D01*
X91451333Y-57178427D01*
X91451333Y-57195478D01*
X91450831Y-57197486D01*
X91451333Y-57209832D01*
X91451333Y-57341719D01*
X91447713Y-57361835D01*
X90984666Y-57361835D01*
X90984666Y-56794457D01*
X90988874Y-56780970D01*
X90984666Y-56765694D01*
X90984666Y-56764840D01*
X90980862Y-56751888D01*
X90973278Y-56724353D01*
X90972599Y-56723744D01*
X90972343Y-56722872D01*
X90950813Y-56704216D01*
X90929549Y-56685156D01*
X90928648Y-56685011D01*
X90927961Y-56684415D01*
X90899737Y-56680357D01*
X90871569Y-56675823D01*
X90870734Y-56676187D01*
X90869834Y-56676058D01*
X90843901Y-56687900D01*
X90817749Y-56699317D01*
X90817244Y-56700074D01*
X90816415Y-56700453D01*
X90800982Y-56724467D01*
X90711716Y-56858365D01*
X90634954Y-56935128D01*
X90541370Y-56981921D01*
X90509343Y-57011711D01*
X90494795Y-57068606D01*
X89815619Y-57068606D01*
X89815619Y-55969143D01*
X96620381Y-55969143D01*
X96620381Y-58354857D01*
G37*
D10*
X102426601Y-99285486D02*
X102396363Y-99315725D01*
X102396363Y-99315725D02*
X102305649Y-99345963D01*
X102305649Y-99345963D02*
X102245173Y-99345963D01*
X102245173Y-99345963D02*
X102154458Y-99315725D01*
X102154458Y-99315725D02*
X102093982Y-99255248D01*
X102093982Y-99255248D02*
X102063744Y-99194772D01*
X102063744Y-99194772D02*
X102033506Y-99073820D01*
X102033506Y-99073820D02*
X102033506Y-98983105D01*
X102033506Y-98983105D02*
X102063744Y-98862153D01*
X102063744Y-98862153D02*
X102093982Y-98801677D01*
X102093982Y-98801677D02*
X102154458Y-98741201D01*
X102154458Y-98741201D02*
X102245173Y-98710963D01*
X102245173Y-98710963D02*
X102305649Y-98710963D01*
X102305649Y-98710963D02*
X102396363Y-98741201D01*
X102396363Y-98741201D02*
X102426601Y-98771439D01*
X102668506Y-98771439D02*
X102698744Y-98741201D01*
X102698744Y-98741201D02*
X102759220Y-98710963D01*
X102759220Y-98710963D02*
X102910411Y-98710963D01*
X102910411Y-98710963D02*
X102970887Y-98741201D01*
X102970887Y-98741201D02*
X103001125Y-98771439D01*
X103001125Y-98771439D02*
X103031363Y-98831915D01*
X103031363Y-98831915D02*
X103031363Y-98892391D01*
X103031363Y-98892391D02*
X103001125Y-98983105D01*
X103001125Y-98983105D02*
X102638268Y-99345963D01*
X102638268Y-99345963D02*
X103031363Y-99345963D01*
X89978398Y-106330963D02*
X90129588Y-106965963D01*
X90129588Y-106965963D02*
X90250541Y-106512391D01*
X90250541Y-106512391D02*
X90371493Y-106965963D01*
X90371493Y-106965963D02*
X90522684Y-106330963D01*
X91127445Y-106905486D02*
X91097207Y-106935725D01*
X91097207Y-106935725D02*
X91006493Y-106965963D01*
X91006493Y-106965963D02*
X90946017Y-106965963D01*
X90946017Y-106965963D02*
X90855302Y-106935725D01*
X90855302Y-106935725D02*
X90794826Y-106875248D01*
X90794826Y-106875248D02*
X90764588Y-106814772D01*
X90764588Y-106814772D02*
X90734350Y-106693820D01*
X90734350Y-106693820D02*
X90734350Y-106603105D01*
X90734350Y-106603105D02*
X90764588Y-106482153D01*
X90764588Y-106482153D02*
X90794826Y-106421677D01*
X90794826Y-106421677D02*
X90855302Y-106361201D01*
X90855302Y-106361201D02*
X90946017Y-106330963D01*
X90946017Y-106330963D02*
X91006493Y-106330963D01*
X91006493Y-106330963D02*
X91097207Y-106361201D01*
X91097207Y-106361201D02*
X91127445Y-106391439D01*
X91701969Y-106965963D02*
X91399588Y-106965963D01*
X91399588Y-106965963D02*
X91399588Y-106330963D01*
X102335887Y-91121201D02*
X102275411Y-91090963D01*
X102275411Y-91090963D02*
X102184697Y-91090963D01*
X102184697Y-91090963D02*
X102093982Y-91121201D01*
X102093982Y-91121201D02*
X102033506Y-91181677D01*
X102033506Y-91181677D02*
X102003268Y-91242153D01*
X102003268Y-91242153D02*
X101973030Y-91363105D01*
X101973030Y-91363105D02*
X101973030Y-91453820D01*
X101973030Y-91453820D02*
X102003268Y-91574772D01*
X102003268Y-91574772D02*
X102033506Y-91635248D01*
X102033506Y-91635248D02*
X102093982Y-91695725D01*
X102093982Y-91695725D02*
X102184697Y-91725963D01*
X102184697Y-91725963D02*
X102245173Y-91725963D01*
X102245173Y-91725963D02*
X102335887Y-91695725D01*
X102335887Y-91695725D02*
X102366125Y-91665486D01*
X102366125Y-91665486D02*
X102366125Y-91453820D01*
X102366125Y-91453820D02*
X102245173Y-91453820D01*
X102638268Y-91725963D02*
X102638268Y-91090963D01*
X102638268Y-91090963D02*
X103001125Y-91725963D01*
X103001125Y-91725963D02*
X103001125Y-91090963D01*
X102426601Y-78965486D02*
X102396363Y-78995725D01*
X102396363Y-78995725D02*
X102305649Y-79025963D01*
X102305649Y-79025963D02*
X102245173Y-79025963D01*
X102245173Y-79025963D02*
X102154458Y-78995725D01*
X102154458Y-78995725D02*
X102093982Y-78935248D01*
X102093982Y-78935248D02*
X102063744Y-78874772D01*
X102063744Y-78874772D02*
X102033506Y-78753820D01*
X102033506Y-78753820D02*
X102033506Y-78663105D01*
X102033506Y-78663105D02*
X102063744Y-78542153D01*
X102063744Y-78542153D02*
X102093982Y-78481677D01*
X102093982Y-78481677D02*
X102154458Y-78421201D01*
X102154458Y-78421201D02*
X102245173Y-78390963D01*
X102245173Y-78390963D02*
X102305649Y-78390963D01*
X102305649Y-78390963D02*
X102396363Y-78421201D01*
X102396363Y-78421201D02*
X102426601Y-78451439D01*
X102728982Y-79025963D02*
X102849934Y-79025963D01*
X102849934Y-79025963D02*
X102910411Y-78995725D01*
X102910411Y-78995725D02*
X102940649Y-78965486D01*
X102940649Y-78965486D02*
X103001125Y-78874772D01*
X103001125Y-78874772D02*
X103031363Y-78753820D01*
X103031363Y-78753820D02*
X103031363Y-78511915D01*
X103031363Y-78511915D02*
X103001125Y-78451439D01*
X103001125Y-78451439D02*
X102970887Y-78421201D01*
X102970887Y-78421201D02*
X102910411Y-78390963D01*
X102910411Y-78390963D02*
X102789458Y-78390963D01*
X102789458Y-78390963D02*
X102728982Y-78421201D01*
X102728982Y-78421201D02*
X102698744Y-78451439D01*
X102698744Y-78451439D02*
X102668506Y-78511915D01*
X102668506Y-78511915D02*
X102668506Y-78663105D01*
X102668506Y-78663105D02*
X102698744Y-78723582D01*
X102698744Y-78723582D02*
X102728982Y-78753820D01*
X102728982Y-78753820D02*
X102789458Y-78784058D01*
X102789458Y-78784058D02*
X102910411Y-78784058D01*
X102910411Y-78784058D02*
X102970887Y-78753820D01*
X102970887Y-78753820D02*
X103001125Y-78723582D01*
X103001125Y-78723582D02*
X103031363Y-78663105D01*
X89978398Y-86010963D02*
X90371493Y-86010963D01*
X90371493Y-86010963D02*
X90159826Y-86252867D01*
X90159826Y-86252867D02*
X90250541Y-86252867D01*
X90250541Y-86252867D02*
X90311017Y-86283105D01*
X90311017Y-86283105D02*
X90341255Y-86313344D01*
X90341255Y-86313344D02*
X90371493Y-86373820D01*
X90371493Y-86373820D02*
X90371493Y-86525010D01*
X90371493Y-86525010D02*
X90341255Y-86585486D01*
X90341255Y-86585486D02*
X90311017Y-86615725D01*
X90311017Y-86615725D02*
X90250541Y-86645963D01*
X90250541Y-86645963D02*
X90069112Y-86645963D01*
X90069112Y-86645963D02*
X90008636Y-86615725D01*
X90008636Y-86615725D02*
X89978398Y-86585486D01*
X90625493Y-73341201D02*
X90565017Y-73310963D01*
X90565017Y-73310963D02*
X90474303Y-73310963D01*
X90474303Y-73310963D02*
X90383588Y-73341201D01*
X90383588Y-73341201D02*
X90323112Y-73401677D01*
X90323112Y-73401677D02*
X90292874Y-73462153D01*
X90292874Y-73462153D02*
X90262636Y-73583105D01*
X90262636Y-73583105D02*
X90262636Y-73673820D01*
X90262636Y-73673820D02*
X90292874Y-73794772D01*
X90292874Y-73794772D02*
X90323112Y-73855248D01*
X90323112Y-73855248D02*
X90383588Y-73915725D01*
X90383588Y-73915725D02*
X90474303Y-73945963D01*
X90474303Y-73945963D02*
X90534779Y-73945963D01*
X90534779Y-73945963D02*
X90625493Y-73915725D01*
X90625493Y-73915725D02*
X90655731Y-73885486D01*
X90655731Y-73885486D02*
X90655731Y-73673820D01*
X90655731Y-73673820D02*
X90534779Y-73673820D01*
X90927874Y-73945963D02*
X90927874Y-73310963D01*
X90927874Y-73310963D02*
X91290731Y-73945963D01*
X91290731Y-73945963D02*
X91290731Y-73310963D01*
X91593112Y-73945963D02*
X91593112Y-73310963D01*
X91593112Y-73310963D02*
X91744302Y-73310963D01*
X91744302Y-73310963D02*
X91835017Y-73341201D01*
X91835017Y-73341201D02*
X91895493Y-73401677D01*
X91895493Y-73401677D02*
X91925731Y-73462153D01*
X91925731Y-73462153D02*
X91955969Y-73583105D01*
X91955969Y-73583105D02*
X91955969Y-73673820D01*
X91955969Y-73673820D02*
X91925731Y-73794772D01*
X91925731Y-73794772D02*
X91895493Y-73855248D01*
X91895493Y-73855248D02*
X91835017Y-73915725D01*
X91835017Y-73915725D02*
X91744302Y-73945963D01*
X91744302Y-73945963D02*
X91593112Y-73945963D01*
X89960255Y-64293963D02*
X89657874Y-64293963D01*
X89657874Y-64293963D02*
X89627636Y-64596344D01*
X89627636Y-64596344D02*
X89657874Y-64566105D01*
X89657874Y-64566105D02*
X89718350Y-64535867D01*
X89718350Y-64535867D02*
X89869541Y-64535867D01*
X89869541Y-64535867D02*
X89930017Y-64566105D01*
X89930017Y-64566105D02*
X89960255Y-64596344D01*
X89960255Y-64596344D02*
X89990493Y-64656820D01*
X89990493Y-64656820D02*
X89990493Y-64808010D01*
X89990493Y-64808010D02*
X89960255Y-64868486D01*
X89960255Y-64868486D02*
X89930017Y-64898725D01*
X89930017Y-64898725D02*
X89869541Y-64928963D01*
X89869541Y-64928963D02*
X89718350Y-64928963D01*
X89718350Y-64928963D02*
X89657874Y-64898725D01*
X89657874Y-64898725D02*
X89627636Y-64868486D01*
X90171922Y-64293963D02*
X90383588Y-64928963D01*
X90383588Y-64928963D02*
X90595255Y-64293963D01*
%TO.C,IC5*%
X94630119Y-107092963D02*
X94630119Y-106457963D01*
X95295357Y-107032486D02*
X95265119Y-107062725D01*
X95265119Y-107062725D02*
X95174405Y-107092963D01*
X95174405Y-107092963D02*
X95113929Y-107092963D01*
X95113929Y-107092963D02*
X95023214Y-107062725D01*
X95023214Y-107062725D02*
X94962738Y-107002248D01*
X94962738Y-107002248D02*
X94932500Y-106941772D01*
X94932500Y-106941772D02*
X94902262Y-106820820D01*
X94902262Y-106820820D02*
X94902262Y-106730105D01*
X94902262Y-106730105D02*
X94932500Y-106609153D01*
X94932500Y-106609153D02*
X94962738Y-106548677D01*
X94962738Y-106548677D02*
X95023214Y-106488201D01*
X95023214Y-106488201D02*
X95113929Y-106457963D01*
X95113929Y-106457963D02*
X95174405Y-106457963D01*
X95174405Y-106457963D02*
X95265119Y-106488201D01*
X95265119Y-106488201D02*
X95295357Y-106518439D01*
X95869881Y-106457963D02*
X95567500Y-106457963D01*
X95567500Y-106457963D02*
X95537262Y-106760344D01*
X95537262Y-106760344D02*
X95567500Y-106730105D01*
X95567500Y-106730105D02*
X95627976Y-106699867D01*
X95627976Y-106699867D02*
X95779167Y-106699867D01*
X95779167Y-106699867D02*
X95839643Y-106730105D01*
X95839643Y-106730105D02*
X95869881Y-106760344D01*
X95869881Y-106760344D02*
X95900119Y-106820820D01*
X95900119Y-106820820D02*
X95900119Y-106972010D01*
X95900119Y-106972010D02*
X95869881Y-107032486D01*
X95869881Y-107032486D02*
X95839643Y-107062725D01*
X95839643Y-107062725D02*
X95779167Y-107092963D01*
X95779167Y-107092963D02*
X95627976Y-107092963D01*
X95627976Y-107092963D02*
X95567500Y-107062725D01*
X95567500Y-107062725D02*
X95537262Y-107032486D01*
X95095785Y-104879534D02*
X95398166Y-104879534D01*
X95035309Y-105060963D02*
X95246975Y-104425963D01*
X95246975Y-104425963D02*
X95458642Y-105060963D01*
X95670309Y-105060963D02*
X95670309Y-104425963D01*
X95670309Y-104425963D02*
X95912214Y-104425963D01*
X95912214Y-104425963D02*
X95972690Y-104456201D01*
X95972690Y-104456201D02*
X96002928Y-104486439D01*
X96002928Y-104486439D02*
X96033166Y-104546915D01*
X96033166Y-104546915D02*
X96033166Y-104637629D01*
X96033166Y-104637629D02*
X96002928Y-104698105D01*
X96002928Y-104698105D02*
X95972690Y-104728344D01*
X95972690Y-104728344D02*
X95912214Y-104758582D01*
X95912214Y-104758582D02*
X95670309Y-104758582D01*
X96244833Y-104425963D02*
X96668166Y-104425963D01*
X96668166Y-104425963D02*
X96396023Y-105060963D01*
X96849595Y-104425963D02*
X97242690Y-104425963D01*
X97242690Y-104425963D02*
X97031023Y-104667867D01*
X97031023Y-104667867D02*
X97121738Y-104667867D01*
X97121738Y-104667867D02*
X97182214Y-104698105D01*
X97182214Y-104698105D02*
X97212452Y-104728344D01*
X97212452Y-104728344D02*
X97242690Y-104788820D01*
X97242690Y-104788820D02*
X97242690Y-104940010D01*
X97242690Y-104940010D02*
X97212452Y-105000486D01*
X97212452Y-105000486D02*
X97182214Y-105030725D01*
X97182214Y-105030725D02*
X97121738Y-105060963D01*
X97121738Y-105060963D02*
X96940309Y-105060963D01*
X96940309Y-105060963D02*
X96879833Y-105030725D01*
X96879833Y-105030725D02*
X96849595Y-105000486D01*
X97786976Y-104425963D02*
X97666023Y-104425963D01*
X97666023Y-104425963D02*
X97605547Y-104456201D01*
X97605547Y-104456201D02*
X97575309Y-104486439D01*
X97575309Y-104486439D02*
X97514833Y-104577153D01*
X97514833Y-104577153D02*
X97484595Y-104698105D01*
X97484595Y-104698105D02*
X97484595Y-104940010D01*
X97484595Y-104940010D02*
X97514833Y-105000486D01*
X97514833Y-105000486D02*
X97545071Y-105030725D01*
X97545071Y-105030725D02*
X97605547Y-105060963D01*
X97605547Y-105060963D02*
X97726500Y-105060963D01*
X97726500Y-105060963D02*
X97786976Y-105030725D01*
X97786976Y-105030725D02*
X97817214Y-105000486D01*
X97817214Y-105000486D02*
X97847452Y-104940010D01*
X97847452Y-104940010D02*
X97847452Y-104788820D01*
X97847452Y-104788820D02*
X97817214Y-104728344D01*
X97817214Y-104728344D02*
X97786976Y-104698105D01*
X97786976Y-104698105D02*
X97726500Y-104667867D01*
X97726500Y-104667867D02*
X97605547Y-104667867D01*
X97605547Y-104667867D02*
X97545071Y-104698105D01*
X97545071Y-104698105D02*
X97514833Y-104728344D01*
X97514833Y-104728344D02*
X97484595Y-104788820D01*
X98421976Y-104425963D02*
X98119595Y-104425963D01*
X98119595Y-104425963D02*
X98089357Y-104728344D01*
X98089357Y-104728344D02*
X98119595Y-104698105D01*
X98119595Y-104698105D02*
X98180071Y-104667867D01*
X98180071Y-104667867D02*
X98331262Y-104667867D01*
X98331262Y-104667867D02*
X98391738Y-104698105D01*
X98391738Y-104698105D02*
X98421976Y-104728344D01*
X98421976Y-104728344D02*
X98452214Y-104788820D01*
X98452214Y-104788820D02*
X98452214Y-104940010D01*
X98452214Y-104940010D02*
X98421976Y-105000486D01*
X98421976Y-105000486D02*
X98391738Y-105030725D01*
X98391738Y-105030725D02*
X98331262Y-105060963D01*
X98331262Y-105060963D02*
X98180071Y-105060963D01*
X98180071Y-105060963D02*
X98119595Y-105030725D01*
X98119595Y-105030725D02*
X98089357Y-105000486D01*
%TO.C,IC4*%
X95392119Y-59213963D02*
X95392119Y-58578963D01*
X96057357Y-59153486D02*
X96027119Y-59183725D01*
X96027119Y-59183725D02*
X95936405Y-59213963D01*
X95936405Y-59213963D02*
X95875929Y-59213963D01*
X95875929Y-59213963D02*
X95785214Y-59183725D01*
X95785214Y-59183725D02*
X95724738Y-59123248D01*
X95724738Y-59123248D02*
X95694500Y-59062772D01*
X95694500Y-59062772D02*
X95664262Y-58941820D01*
X95664262Y-58941820D02*
X95664262Y-58851105D01*
X95664262Y-58851105D02*
X95694500Y-58730153D01*
X95694500Y-58730153D02*
X95724738Y-58669677D01*
X95724738Y-58669677D02*
X95785214Y-58609201D01*
X95785214Y-58609201D02*
X95875929Y-58578963D01*
X95875929Y-58578963D02*
X95936405Y-58578963D01*
X95936405Y-58578963D02*
X96027119Y-58609201D01*
X96027119Y-58609201D02*
X96057357Y-58639439D01*
X96601643Y-58790629D02*
X96601643Y-59213963D01*
X96450452Y-58548725D02*
X96299262Y-59002296D01*
X96299262Y-59002296D02*
X96692357Y-59002296D01*
X97436214Y-59594963D02*
X97375738Y-59715915D01*
X98040976Y-60229963D02*
X97678119Y-60229963D01*
X97859547Y-60229963D02*
X97859547Y-59594963D01*
X97859547Y-59594963D02*
X97799071Y-59685677D01*
X97799071Y-59685677D02*
X97738595Y-59746153D01*
X97738595Y-59746153D02*
X97678119Y-59776391D01*
X98645738Y-59625201D02*
X98585262Y-59594963D01*
X98585262Y-59594963D02*
X98494548Y-59594963D01*
X98494548Y-59594963D02*
X98403833Y-59625201D01*
X98403833Y-59625201D02*
X98343357Y-59685677D01*
X98343357Y-59685677D02*
X98313119Y-59746153D01*
X98313119Y-59746153D02*
X98282881Y-59867105D01*
X98282881Y-59867105D02*
X98282881Y-59957820D01*
X98282881Y-59957820D02*
X98313119Y-60078772D01*
X98313119Y-60078772D02*
X98343357Y-60139248D01*
X98343357Y-60139248D02*
X98403833Y-60199725D01*
X98403833Y-60199725D02*
X98494548Y-60229963D01*
X98494548Y-60229963D02*
X98555024Y-60229963D01*
X98555024Y-60229963D02*
X98645738Y-60199725D01*
X98645738Y-60199725D02*
X98675976Y-60169486D01*
X98675976Y-60169486D02*
X98675976Y-59957820D01*
X98675976Y-59957820D02*
X98555024Y-59957820D01*
X98887643Y-59594963D02*
X99280738Y-59594963D01*
X99280738Y-59594963D02*
X99069071Y-59836867D01*
X99069071Y-59836867D02*
X99159786Y-59836867D01*
X99159786Y-59836867D02*
X99220262Y-59867105D01*
X99220262Y-59867105D02*
X99250500Y-59897344D01*
X99250500Y-59897344D02*
X99280738Y-59957820D01*
X99280738Y-59957820D02*
X99280738Y-60109010D01*
X99280738Y-60109010D02*
X99250500Y-60169486D01*
X99250500Y-60169486D02*
X99220262Y-60199725D01*
X99220262Y-60199725D02*
X99159786Y-60229963D01*
X99159786Y-60229963D02*
X98978357Y-60229963D01*
X98978357Y-60229963D02*
X98917881Y-60199725D01*
X98917881Y-60199725D02*
X98887643Y-60169486D01*
X99492405Y-59594963D02*
X99885500Y-59594963D01*
X99885500Y-59594963D02*
X99673833Y-59836867D01*
X99673833Y-59836867D02*
X99764548Y-59836867D01*
X99764548Y-59836867D02*
X99825024Y-59867105D01*
X99825024Y-59867105D02*
X99855262Y-59897344D01*
X99855262Y-59897344D02*
X99885500Y-59957820D01*
X99885500Y-59957820D02*
X99885500Y-60109010D01*
X99885500Y-60109010D02*
X99855262Y-60169486D01*
X99855262Y-60169486D02*
X99825024Y-60199725D01*
X99825024Y-60199725D02*
X99764548Y-60229963D01*
X99764548Y-60229963D02*
X99583119Y-60229963D01*
X99583119Y-60229963D02*
X99522643Y-60199725D01*
X99522643Y-60199725D02*
X99492405Y-60169486D01*
X100127405Y-59655439D02*
X100157643Y-59625201D01*
X100157643Y-59625201D02*
X100218119Y-59594963D01*
X100218119Y-59594963D02*
X100369310Y-59594963D01*
X100369310Y-59594963D02*
X100429786Y-59625201D01*
X100429786Y-59625201D02*
X100460024Y-59655439D01*
X100460024Y-59655439D02*
X100490262Y-59715915D01*
X100490262Y-59715915D02*
X100490262Y-59776391D01*
X100490262Y-59776391D02*
X100460024Y-59867105D01*
X100460024Y-59867105D02*
X100097167Y-60229963D01*
X100097167Y-60229963D02*
X100490262Y-60229963D01*
%TO.C,IC3*%
X94497119Y-60610963D02*
X94497119Y-59975963D01*
X95162357Y-60550486D02*
X95132119Y-60580725D01*
X95132119Y-60580725D02*
X95041405Y-60610963D01*
X95041405Y-60610963D02*
X94980929Y-60610963D01*
X94980929Y-60610963D02*
X94890214Y-60580725D01*
X94890214Y-60580725D02*
X94829738Y-60520248D01*
X94829738Y-60520248D02*
X94799500Y-60459772D01*
X94799500Y-60459772D02*
X94769262Y-60338820D01*
X94769262Y-60338820D02*
X94769262Y-60248105D01*
X94769262Y-60248105D02*
X94799500Y-60127153D01*
X94799500Y-60127153D02*
X94829738Y-60066677D01*
X94829738Y-60066677D02*
X94890214Y-60006201D01*
X94890214Y-60006201D02*
X94980929Y-59975963D01*
X94980929Y-59975963D02*
X95041405Y-59975963D01*
X95041405Y-59975963D02*
X95132119Y-60006201D01*
X95132119Y-60006201D02*
X95162357Y-60036439D01*
X95374024Y-59975963D02*
X95767119Y-59975963D01*
X95767119Y-59975963D02*
X95555452Y-60217867D01*
X95555452Y-60217867D02*
X95646167Y-60217867D01*
X95646167Y-60217867D02*
X95706643Y-60248105D01*
X95706643Y-60248105D02*
X95736881Y-60278344D01*
X95736881Y-60278344D02*
X95767119Y-60338820D01*
X95767119Y-60338820D02*
X95767119Y-60490010D01*
X95767119Y-60490010D02*
X95736881Y-60550486D01*
X95736881Y-60550486D02*
X95706643Y-60580725D01*
X95706643Y-60580725D02*
X95646167Y-60610963D01*
X95646167Y-60610963D02*
X95464738Y-60610963D01*
X95464738Y-60610963D02*
X95404262Y-60580725D01*
X95404262Y-60580725D02*
X95374024Y-60550486D01*
X93423666Y-71278963D02*
X93846999Y-71278963D01*
X93846999Y-71278963D02*
X93574856Y-71913963D01*
X94361047Y-71490629D02*
X94361047Y-71913963D01*
X94209856Y-71248725D02*
X94058666Y-71702296D01*
X94058666Y-71702296D02*
X94451761Y-71702296D01*
X94905333Y-71581344D02*
X94693666Y-71581344D01*
X94693666Y-71913963D02*
X94693666Y-71278963D01*
X94693666Y-71278963D02*
X94996047Y-71278963D01*
X95540333Y-71278963D02*
X95237952Y-71278963D01*
X95237952Y-71278963D02*
X95207714Y-71581344D01*
X95207714Y-71581344D02*
X95237952Y-71551105D01*
X95237952Y-71551105D02*
X95298428Y-71520867D01*
X95298428Y-71520867D02*
X95449619Y-71520867D01*
X95449619Y-71520867D02*
X95510095Y-71551105D01*
X95510095Y-71551105D02*
X95540333Y-71581344D01*
X95540333Y-71581344D02*
X95570571Y-71641820D01*
X95570571Y-71641820D02*
X95570571Y-71793010D01*
X95570571Y-71793010D02*
X95540333Y-71853486D01*
X95540333Y-71853486D02*
X95510095Y-71883725D01*
X95510095Y-71883725D02*
X95449619Y-71913963D01*
X95449619Y-71913963D02*
X95298428Y-71913963D01*
X95298428Y-71913963D02*
X95237952Y-71883725D01*
X95237952Y-71883725D02*
X95207714Y-71853486D01*
X95812476Y-71339439D02*
X95842714Y-71309201D01*
X95842714Y-71309201D02*
X95903190Y-71278963D01*
X95903190Y-71278963D02*
X96054381Y-71278963D01*
X96054381Y-71278963D02*
X96114857Y-71309201D01*
X96114857Y-71309201D02*
X96145095Y-71339439D01*
X96145095Y-71339439D02*
X96175333Y-71399915D01*
X96175333Y-71399915D02*
X96175333Y-71460391D01*
X96175333Y-71460391D02*
X96145095Y-71551105D01*
X96145095Y-71551105D02*
X95782238Y-71913963D01*
X95782238Y-71913963D02*
X96175333Y-71913963D01*
X96780095Y-71913963D02*
X96417238Y-71913963D01*
X96598666Y-71913963D02*
X96598666Y-71278963D01*
X96598666Y-71278963D02*
X96538190Y-71369677D01*
X96538190Y-71369677D02*
X96477714Y-71430153D01*
X96477714Y-71430153D02*
X96417238Y-71460391D01*
%TO.C,IC2*%
X95646119Y-89439963D02*
X95646119Y-88804963D01*
X96311357Y-89379486D02*
X96281119Y-89409725D01*
X96281119Y-89409725D02*
X96190405Y-89439963D01*
X96190405Y-89439963D02*
X96129929Y-89439963D01*
X96129929Y-89439963D02*
X96039214Y-89409725D01*
X96039214Y-89409725D02*
X95978738Y-89349248D01*
X95978738Y-89349248D02*
X95948500Y-89288772D01*
X95948500Y-89288772D02*
X95918262Y-89167820D01*
X95918262Y-89167820D02*
X95918262Y-89077105D01*
X95918262Y-89077105D02*
X95948500Y-88956153D01*
X95948500Y-88956153D02*
X95978738Y-88895677D01*
X95978738Y-88895677D02*
X96039214Y-88835201D01*
X96039214Y-88835201D02*
X96129929Y-88804963D01*
X96129929Y-88804963D02*
X96190405Y-88804963D01*
X96190405Y-88804963D02*
X96281119Y-88835201D01*
X96281119Y-88835201D02*
X96311357Y-88865439D01*
X96553262Y-88865439D02*
X96583500Y-88835201D01*
X96583500Y-88835201D02*
X96643976Y-88804963D01*
X96643976Y-88804963D02*
X96795167Y-88804963D01*
X96795167Y-88804963D02*
X96855643Y-88835201D01*
X96855643Y-88835201D02*
X96885881Y-88865439D01*
X96885881Y-88865439D02*
X96916119Y-88925915D01*
X96916119Y-88925915D02*
X96916119Y-88986391D01*
X96916119Y-88986391D02*
X96885881Y-89077105D01*
X96885881Y-89077105D02*
X96523024Y-89439963D01*
X96523024Y-89439963D02*
X96916119Y-89439963D01*
X93393380Y-74326963D02*
X93816713Y-74326963D01*
X93816713Y-74326963D02*
X93544570Y-74961963D01*
X94330761Y-74538629D02*
X94330761Y-74961963D01*
X94179570Y-74296725D02*
X94028380Y-74750296D01*
X94028380Y-74750296D02*
X94421475Y-74750296D01*
X94965761Y-74961963D02*
X94663380Y-74961963D01*
X94663380Y-74961963D02*
X94663380Y-74326963D01*
X95086714Y-74326963D02*
X95298380Y-74961963D01*
X95298380Y-74961963D02*
X95510047Y-74326963D01*
X96084571Y-74901486D02*
X96054333Y-74931725D01*
X96054333Y-74931725D02*
X95963619Y-74961963D01*
X95963619Y-74961963D02*
X95903143Y-74961963D01*
X95903143Y-74961963D02*
X95812428Y-74931725D01*
X95812428Y-74931725D02*
X95751952Y-74871248D01*
X95751952Y-74871248D02*
X95721714Y-74810772D01*
X95721714Y-74810772D02*
X95691476Y-74689820D01*
X95691476Y-74689820D02*
X95691476Y-74599105D01*
X95691476Y-74599105D02*
X95721714Y-74478153D01*
X95721714Y-74478153D02*
X95751952Y-74417677D01*
X95751952Y-74417677D02*
X95812428Y-74357201D01*
X95812428Y-74357201D02*
X95903143Y-74326963D01*
X95903143Y-74326963D02*
X95963619Y-74326963D01*
X95963619Y-74326963D02*
X96054333Y-74357201D01*
X96054333Y-74357201D02*
X96084571Y-74387439D01*
X96689333Y-74961963D02*
X96326476Y-74961963D01*
X96507904Y-74961963D02*
X96507904Y-74326963D01*
X96507904Y-74326963D02*
X96447428Y-74417677D01*
X96447428Y-74417677D02*
X96386952Y-74478153D01*
X96386952Y-74478153D02*
X96326476Y-74508391D01*
X97233619Y-74326963D02*
X97112666Y-74326963D01*
X97112666Y-74326963D02*
X97052190Y-74357201D01*
X97052190Y-74357201D02*
X97021952Y-74387439D01*
X97021952Y-74387439D02*
X96961476Y-74478153D01*
X96961476Y-74478153D02*
X96931238Y-74599105D01*
X96931238Y-74599105D02*
X96931238Y-74841010D01*
X96931238Y-74841010D02*
X96961476Y-74901486D01*
X96961476Y-74901486D02*
X96991714Y-74931725D01*
X96991714Y-74931725D02*
X97052190Y-74961963D01*
X97052190Y-74961963D02*
X97173143Y-74961963D01*
X97173143Y-74961963D02*
X97233619Y-74931725D01*
X97233619Y-74931725D02*
X97263857Y-74901486D01*
X97263857Y-74901486D02*
X97294095Y-74841010D01*
X97294095Y-74841010D02*
X97294095Y-74689820D01*
X97294095Y-74689820D02*
X97263857Y-74629344D01*
X97263857Y-74629344D02*
X97233619Y-74599105D01*
X97233619Y-74599105D02*
X97173143Y-74568867D01*
X97173143Y-74568867D02*
X97052190Y-74568867D01*
X97052190Y-74568867D02*
X96991714Y-74599105D01*
X96991714Y-74599105D02*
X96961476Y-74629344D01*
X96961476Y-74629344D02*
X96931238Y-74689820D01*
X97505762Y-74326963D02*
X97898857Y-74326963D01*
X97898857Y-74326963D02*
X97687190Y-74568867D01*
X97687190Y-74568867D02*
X97777905Y-74568867D01*
X97777905Y-74568867D02*
X97838381Y-74599105D01*
X97838381Y-74599105D02*
X97868619Y-74629344D01*
X97868619Y-74629344D02*
X97898857Y-74689820D01*
X97898857Y-74689820D02*
X97898857Y-74841010D01*
X97898857Y-74841010D02*
X97868619Y-74901486D01*
X97868619Y-74901486D02*
X97838381Y-74931725D01*
X97838381Y-74931725D02*
X97777905Y-74961963D01*
X97777905Y-74961963D02*
X97596476Y-74961963D01*
X97596476Y-74961963D02*
X97536000Y-74931725D01*
X97536000Y-74931725D02*
X97505762Y-74901486D01*
X98110524Y-74326963D02*
X98533857Y-74326963D01*
X98533857Y-74326963D02*
X98261714Y-74961963D01*
X98715286Y-74326963D02*
X99108381Y-74326963D01*
X99108381Y-74326963D02*
X98896714Y-74568867D01*
X98896714Y-74568867D02*
X98987429Y-74568867D01*
X98987429Y-74568867D02*
X99047905Y-74599105D01*
X99047905Y-74599105D02*
X99078143Y-74629344D01*
X99078143Y-74629344D02*
X99108381Y-74689820D01*
X99108381Y-74689820D02*
X99108381Y-74841010D01*
X99108381Y-74841010D02*
X99078143Y-74901486D01*
X99078143Y-74901486D02*
X99047905Y-74931725D01*
X99047905Y-74931725D02*
X98987429Y-74961963D01*
X98987429Y-74961963D02*
X98806000Y-74961963D01*
X98806000Y-74961963D02*
X98745524Y-74931725D01*
X98745524Y-74931725D02*
X98715286Y-74901486D01*
%TO.C,IC1*%
X96916119Y-91471963D02*
X96916119Y-90836963D01*
X97581357Y-91411486D02*
X97551119Y-91441725D01*
X97551119Y-91441725D02*
X97460405Y-91471963D01*
X97460405Y-91471963D02*
X97399929Y-91471963D01*
X97399929Y-91471963D02*
X97309214Y-91441725D01*
X97309214Y-91441725D02*
X97248738Y-91381248D01*
X97248738Y-91381248D02*
X97218500Y-91320772D01*
X97218500Y-91320772D02*
X97188262Y-91199820D01*
X97188262Y-91199820D02*
X97188262Y-91109105D01*
X97188262Y-91109105D02*
X97218500Y-90988153D01*
X97218500Y-90988153D02*
X97248738Y-90927677D01*
X97248738Y-90927677D02*
X97309214Y-90867201D01*
X97309214Y-90867201D02*
X97399929Y-90836963D01*
X97399929Y-90836963D02*
X97460405Y-90836963D01*
X97460405Y-90836963D02*
X97551119Y-90867201D01*
X97551119Y-90867201D02*
X97581357Y-90897439D01*
X98186119Y-91471963D02*
X97823262Y-91471963D01*
X98004690Y-91471963D02*
X98004690Y-90836963D01*
X98004690Y-90836963D02*
X97944214Y-90927677D01*
X97944214Y-90927677D02*
X97883738Y-90988153D01*
X97883738Y-90988153D02*
X97823262Y-91018391D01*
X95842666Y-103409963D02*
X96265999Y-103409963D01*
X96265999Y-103409963D02*
X95993856Y-104044963D01*
X96780047Y-103621629D02*
X96780047Y-104044963D01*
X96628856Y-103379725D02*
X96477666Y-103833296D01*
X96477666Y-103833296D02*
X96870761Y-103833296D01*
X97324333Y-103712344D02*
X97112666Y-103712344D01*
X97112666Y-104044963D02*
X97112666Y-103409963D01*
X97112666Y-103409963D02*
X97415047Y-103409963D01*
X97959333Y-103409963D02*
X97656952Y-103409963D01*
X97656952Y-103409963D02*
X97626714Y-103712344D01*
X97626714Y-103712344D02*
X97656952Y-103682105D01*
X97656952Y-103682105D02*
X97717428Y-103651867D01*
X97717428Y-103651867D02*
X97868619Y-103651867D01*
X97868619Y-103651867D02*
X97929095Y-103682105D01*
X97929095Y-103682105D02*
X97959333Y-103712344D01*
X97959333Y-103712344D02*
X97989571Y-103772820D01*
X97989571Y-103772820D02*
X97989571Y-103924010D01*
X97989571Y-103924010D02*
X97959333Y-103984486D01*
X97959333Y-103984486D02*
X97929095Y-104014725D01*
X97929095Y-104014725D02*
X97868619Y-104044963D01*
X97868619Y-104044963D02*
X97717428Y-104044963D01*
X97717428Y-104044963D02*
X97656952Y-104014725D01*
X97656952Y-104014725D02*
X97626714Y-103984486D01*
X98231476Y-103470439D02*
X98261714Y-103440201D01*
X98261714Y-103440201D02*
X98322190Y-103409963D01*
X98322190Y-103409963D02*
X98473381Y-103409963D01*
X98473381Y-103409963D02*
X98533857Y-103440201D01*
X98533857Y-103440201D02*
X98564095Y-103470439D01*
X98564095Y-103470439D02*
X98594333Y-103530915D01*
X98594333Y-103530915D02*
X98594333Y-103591391D01*
X98594333Y-103591391D02*
X98564095Y-103682105D01*
X98564095Y-103682105D02*
X98201238Y-104044963D01*
X98201238Y-104044963D02*
X98594333Y-104044963D01*
X99199095Y-104044963D02*
X98836238Y-104044963D01*
X99017666Y-104044963D02*
X99017666Y-103409963D01*
X99017666Y-103409963D02*
X98957190Y-103500677D01*
X98957190Y-103500677D02*
X98896714Y-103561153D01*
X98896714Y-103561153D02*
X98836238Y-103591391D01*
%TO.C,C2*%
X91397666Y-90455963D02*
X91034809Y-90455963D01*
X91216237Y-90455963D02*
X91216237Y-89820963D01*
X91216237Y-89820963D02*
X91155761Y-89911677D01*
X91155761Y-89911677D02*
X91095285Y-89972153D01*
X91095285Y-89972153D02*
X91034809Y-90002391D01*
X91669809Y-90032629D02*
X91669809Y-90667629D01*
X91972190Y-90365248D02*
X92002428Y-90425725D01*
X92002428Y-90425725D02*
X92062904Y-90455963D01*
X91669809Y-90365248D02*
X91700047Y-90425725D01*
X91700047Y-90425725D02*
X91760523Y-90455963D01*
X91760523Y-90455963D02*
X91881476Y-90455963D01*
X91881476Y-90455963D02*
X91941952Y-90425725D01*
X91941952Y-90425725D02*
X91972190Y-90365248D01*
X91972190Y-90365248D02*
X91972190Y-90032629D01*
X92546714Y-90123344D02*
X92335047Y-90123344D01*
X92335047Y-90455963D02*
X92335047Y-89820963D01*
X92335047Y-89820963D02*
X92637428Y-89820963D01*
%TO.C,C1*%
X100922666Y-70135963D02*
X100559809Y-70135963D01*
X100741237Y-70135963D02*
X100741237Y-69500963D01*
X100741237Y-69500963D02*
X100680761Y-69591677D01*
X100680761Y-69591677D02*
X100620285Y-69652153D01*
X100620285Y-69652153D02*
X100559809Y-69682391D01*
X101194809Y-69712629D02*
X101194809Y-70347629D01*
X101497190Y-70045248D02*
X101527428Y-70105725D01*
X101527428Y-70105725D02*
X101587904Y-70135963D01*
X101194809Y-70045248D02*
X101225047Y-70105725D01*
X101225047Y-70105725D02*
X101285523Y-70135963D01*
X101285523Y-70135963D02*
X101406476Y-70135963D01*
X101406476Y-70135963D02*
X101466952Y-70105725D01*
X101466952Y-70105725D02*
X101497190Y-70045248D01*
X101497190Y-70045248D02*
X101497190Y-69712629D01*
X102071714Y-69803344D02*
X101860047Y-69803344D01*
X101860047Y-70135963D02*
X101860047Y-69500963D01*
X101860047Y-69500963D02*
X102162428Y-69500963D01*
%TO.C,C4*%
X100578166Y-64072486D02*
X100547928Y-64102725D01*
X100547928Y-64102725D02*
X100457214Y-64132963D01*
X100457214Y-64132963D02*
X100396738Y-64132963D01*
X100396738Y-64132963D02*
X100306023Y-64102725D01*
X100306023Y-64102725D02*
X100245547Y-64042248D01*
X100245547Y-64042248D02*
X100215309Y-63981772D01*
X100215309Y-63981772D02*
X100185071Y-63860820D01*
X100185071Y-63860820D02*
X100185071Y-63770105D01*
X100185071Y-63770105D02*
X100215309Y-63649153D01*
X100215309Y-63649153D02*
X100245547Y-63588677D01*
X100245547Y-63588677D02*
X100306023Y-63528201D01*
X100306023Y-63528201D02*
X100396738Y-63497963D01*
X100396738Y-63497963D02*
X100457214Y-63497963D01*
X100457214Y-63497963D02*
X100547928Y-63528201D01*
X100547928Y-63528201D02*
X100578166Y-63558439D01*
X101122452Y-63709629D02*
X101122452Y-64132963D01*
X100971261Y-63467725D02*
X100820071Y-63921296D01*
X100820071Y-63921296D02*
X101213166Y-63921296D01*
X101303666Y-60229963D02*
X100940809Y-60229963D01*
X101122237Y-60229963D02*
X101122237Y-59594963D01*
X101122237Y-59594963D02*
X101061761Y-59685677D01*
X101061761Y-59685677D02*
X101001285Y-59746153D01*
X101001285Y-59746153D02*
X100940809Y-59776391D01*
X101575809Y-59806629D02*
X101575809Y-60441629D01*
X101878190Y-60139248D02*
X101908428Y-60199725D01*
X101908428Y-60199725D02*
X101968904Y-60229963D01*
X101575809Y-60139248D02*
X101606047Y-60199725D01*
X101606047Y-60199725D02*
X101666523Y-60229963D01*
X101666523Y-60229963D02*
X101787476Y-60229963D01*
X101787476Y-60229963D02*
X101847952Y-60199725D01*
X101847952Y-60199725D02*
X101878190Y-60139248D01*
X101878190Y-60139248D02*
X101878190Y-59806629D01*
X102452714Y-59897344D02*
X102241047Y-59897344D01*
X102241047Y-60229963D02*
X102241047Y-59594963D01*
X102241047Y-59594963D02*
X102543428Y-59594963D01*
%TO.C,C8*%
X100403566Y-104982886D02*
X100373328Y-105013125D01*
X100373328Y-105013125D02*
X100282614Y-105043363D01*
X100282614Y-105043363D02*
X100222138Y-105043363D01*
X100222138Y-105043363D02*
X100131423Y-105013125D01*
X100131423Y-105013125D02*
X100070947Y-104952648D01*
X100070947Y-104952648D02*
X100040709Y-104892172D01*
X100040709Y-104892172D02*
X100010471Y-104771220D01*
X100010471Y-104771220D02*
X100010471Y-104680505D01*
X100010471Y-104680505D02*
X100040709Y-104559553D01*
X100040709Y-104559553D02*
X100070947Y-104499077D01*
X100070947Y-104499077D02*
X100131423Y-104438601D01*
X100131423Y-104438601D02*
X100222138Y-104408363D01*
X100222138Y-104408363D02*
X100282614Y-104408363D01*
X100282614Y-104408363D02*
X100373328Y-104438601D01*
X100373328Y-104438601D02*
X100403566Y-104468839D01*
X100766423Y-104680505D02*
X100705947Y-104650267D01*
X100705947Y-104650267D02*
X100675709Y-104620029D01*
X100675709Y-104620029D02*
X100645471Y-104559553D01*
X100645471Y-104559553D02*
X100645471Y-104529315D01*
X100645471Y-104529315D02*
X100675709Y-104468839D01*
X100675709Y-104468839D02*
X100705947Y-104438601D01*
X100705947Y-104438601D02*
X100766423Y-104408363D01*
X100766423Y-104408363D02*
X100887376Y-104408363D01*
X100887376Y-104408363D02*
X100947852Y-104438601D01*
X100947852Y-104438601D02*
X100978090Y-104468839D01*
X100978090Y-104468839D02*
X101008328Y-104529315D01*
X101008328Y-104529315D02*
X101008328Y-104559553D01*
X101008328Y-104559553D02*
X100978090Y-104620029D01*
X100978090Y-104620029D02*
X100947852Y-104650267D01*
X100947852Y-104650267D02*
X100887376Y-104680505D01*
X100887376Y-104680505D02*
X100766423Y-104680505D01*
X100766423Y-104680505D02*
X100705947Y-104710744D01*
X100705947Y-104710744D02*
X100675709Y-104740982D01*
X100675709Y-104740982D02*
X100645471Y-104801458D01*
X100645471Y-104801458D02*
X100645471Y-104922410D01*
X100645471Y-104922410D02*
X100675709Y-104982886D01*
X100675709Y-104982886D02*
X100705947Y-105013125D01*
X100705947Y-105013125D02*
X100766423Y-105043363D01*
X100766423Y-105043363D02*
X100887376Y-105043363D01*
X100887376Y-105043363D02*
X100947852Y-105013125D01*
X100947852Y-105013125D02*
X100978090Y-104982886D01*
X100978090Y-104982886D02*
X101008328Y-104922410D01*
X101008328Y-104922410D02*
X101008328Y-104801458D01*
X101008328Y-104801458D02*
X100978090Y-104740982D01*
X100978090Y-104740982D02*
X100947852Y-104710744D01*
X100947852Y-104710744D02*
X100887376Y-104680505D01*
X101890285Y-108616963D02*
X101527428Y-108616963D01*
X101708856Y-108616963D02*
X101708856Y-107981963D01*
X101708856Y-107981963D02*
X101648380Y-108072677D01*
X101648380Y-108072677D02*
X101587904Y-108133153D01*
X101587904Y-108133153D02*
X101527428Y-108163391D01*
X102283380Y-107981963D02*
X102343857Y-107981963D01*
X102343857Y-107981963D02*
X102404333Y-108012201D01*
X102404333Y-108012201D02*
X102434571Y-108042439D01*
X102434571Y-108042439D02*
X102464809Y-108102915D01*
X102464809Y-108102915D02*
X102495047Y-108223867D01*
X102495047Y-108223867D02*
X102495047Y-108375058D01*
X102495047Y-108375058D02*
X102464809Y-108496010D01*
X102464809Y-108496010D02*
X102434571Y-108556486D01*
X102434571Y-108556486D02*
X102404333Y-108586725D01*
X102404333Y-108586725D02*
X102343857Y-108616963D01*
X102343857Y-108616963D02*
X102283380Y-108616963D01*
X102283380Y-108616963D02*
X102222904Y-108586725D01*
X102222904Y-108586725D02*
X102192666Y-108556486D01*
X102192666Y-108556486D02*
X102162428Y-108496010D01*
X102162428Y-108496010D02*
X102132190Y-108375058D01*
X102132190Y-108375058D02*
X102132190Y-108223867D01*
X102132190Y-108223867D02*
X102162428Y-108102915D01*
X102162428Y-108102915D02*
X102192666Y-108042439D01*
X102192666Y-108042439D02*
X102222904Y-108012201D01*
X102222904Y-108012201D02*
X102283380Y-107981963D01*
X102767190Y-108193629D02*
X102767190Y-108828629D01*
X103069571Y-108526248D02*
X103099809Y-108586725D01*
X103099809Y-108586725D02*
X103160285Y-108616963D01*
X102767190Y-108526248D02*
X102797428Y-108586725D01*
X102797428Y-108586725D02*
X102857904Y-108616963D01*
X102857904Y-108616963D02*
X102978857Y-108616963D01*
X102978857Y-108616963D02*
X103039333Y-108586725D01*
X103039333Y-108586725D02*
X103069571Y-108526248D01*
X103069571Y-108526248D02*
X103069571Y-108193629D01*
X103644095Y-108284344D02*
X103432428Y-108284344D01*
X103432428Y-108616963D02*
X103432428Y-107981963D01*
X103432428Y-107981963D02*
X103734809Y-107981963D01*
%TO.C,C3*%
X91688167Y-103315486D02*
X91657929Y-103345725D01*
X91657929Y-103345725D02*
X91567215Y-103375963D01*
X91567215Y-103375963D02*
X91506739Y-103375963D01*
X91506739Y-103375963D02*
X91416024Y-103345725D01*
X91416024Y-103345725D02*
X91355548Y-103285248D01*
X91355548Y-103285248D02*
X91325310Y-103224772D01*
X91325310Y-103224772D02*
X91295072Y-103103820D01*
X91295072Y-103103820D02*
X91295072Y-103013105D01*
X91295072Y-103013105D02*
X91325310Y-102892153D01*
X91325310Y-102892153D02*
X91355548Y-102831677D01*
X91355548Y-102831677D02*
X91416024Y-102771201D01*
X91416024Y-102771201D02*
X91506739Y-102740963D01*
X91506739Y-102740963D02*
X91567215Y-102740963D01*
X91567215Y-102740963D02*
X91657929Y-102771201D01*
X91657929Y-102771201D02*
X91688167Y-102801439D01*
X91899834Y-102740963D02*
X92292929Y-102740963D01*
X92292929Y-102740963D02*
X92081262Y-102982867D01*
X92081262Y-102982867D02*
X92171977Y-102982867D01*
X92171977Y-102982867D02*
X92232453Y-103013105D01*
X92232453Y-103013105D02*
X92262691Y-103043344D01*
X92262691Y-103043344D02*
X92292929Y-103103820D01*
X92292929Y-103103820D02*
X92292929Y-103255010D01*
X92292929Y-103255010D02*
X92262691Y-103315486D01*
X92262691Y-103315486D02*
X92232453Y-103345725D01*
X92232453Y-103345725D02*
X92171977Y-103375963D01*
X92171977Y-103375963D02*
X91990548Y-103375963D01*
X91990548Y-103375963D02*
X91930072Y-103345725D01*
X91930072Y-103345725D02*
X91899834Y-103315486D01*
X91143666Y-99091963D02*
X90780809Y-99091963D01*
X90962237Y-99091963D02*
X90962237Y-98456963D01*
X90962237Y-98456963D02*
X90901761Y-98547677D01*
X90901761Y-98547677D02*
X90841285Y-98608153D01*
X90841285Y-98608153D02*
X90780809Y-98638391D01*
X91415809Y-98668629D02*
X91415809Y-99303629D01*
X91718190Y-99001248D02*
X91748428Y-99061725D01*
X91748428Y-99061725D02*
X91808904Y-99091963D01*
X91415809Y-99001248D02*
X91446047Y-99061725D01*
X91446047Y-99061725D02*
X91506523Y-99091963D01*
X91506523Y-99091963D02*
X91627476Y-99091963D01*
X91627476Y-99091963D02*
X91687952Y-99061725D01*
X91687952Y-99061725D02*
X91718190Y-99001248D01*
X91718190Y-99001248D02*
X91718190Y-98668629D01*
X92292714Y-98759344D02*
X92081047Y-98759344D01*
X92081047Y-99091963D02*
X92081047Y-98456963D01*
X92081047Y-98456963D02*
X92383428Y-98456963D01*
%TO.C,C9*%
X92985166Y-104873486D02*
X92954928Y-104903725D01*
X92954928Y-104903725D02*
X92864214Y-104933963D01*
X92864214Y-104933963D02*
X92803738Y-104933963D01*
X92803738Y-104933963D02*
X92713023Y-104903725D01*
X92713023Y-104903725D02*
X92652547Y-104843248D01*
X92652547Y-104843248D02*
X92622309Y-104782772D01*
X92622309Y-104782772D02*
X92592071Y-104661820D01*
X92592071Y-104661820D02*
X92592071Y-104571105D01*
X92592071Y-104571105D02*
X92622309Y-104450153D01*
X92622309Y-104450153D02*
X92652547Y-104389677D01*
X92652547Y-104389677D02*
X92713023Y-104329201D01*
X92713023Y-104329201D02*
X92803738Y-104298963D01*
X92803738Y-104298963D02*
X92864214Y-104298963D01*
X92864214Y-104298963D02*
X92954928Y-104329201D01*
X92954928Y-104329201D02*
X92985166Y-104359439D01*
X93287547Y-104933963D02*
X93408499Y-104933963D01*
X93408499Y-104933963D02*
X93468976Y-104903725D01*
X93468976Y-104903725D02*
X93499214Y-104873486D01*
X93499214Y-104873486D02*
X93559690Y-104782772D01*
X93559690Y-104782772D02*
X93589928Y-104661820D01*
X93589928Y-104661820D02*
X93589928Y-104419915D01*
X93589928Y-104419915D02*
X93559690Y-104359439D01*
X93559690Y-104359439D02*
X93529452Y-104329201D01*
X93529452Y-104329201D02*
X93468976Y-104298963D01*
X93468976Y-104298963D02*
X93348023Y-104298963D01*
X93348023Y-104298963D02*
X93287547Y-104329201D01*
X93287547Y-104329201D02*
X93257309Y-104359439D01*
X93257309Y-104359439D02*
X93227071Y-104419915D01*
X93227071Y-104419915D02*
X93227071Y-104571105D01*
X93227071Y-104571105D02*
X93257309Y-104631582D01*
X93257309Y-104631582D02*
X93287547Y-104661820D01*
X93287547Y-104661820D02*
X93348023Y-104692058D01*
X93348023Y-104692058D02*
X93468976Y-104692058D01*
X93468976Y-104692058D02*
X93529452Y-104661820D01*
X93529452Y-104661820D02*
X93559690Y-104631582D01*
X93559690Y-104631582D02*
X93589928Y-104571105D01*
X90333285Y-108489963D02*
X89970428Y-108489963D01*
X90151856Y-108489963D02*
X90151856Y-107854963D01*
X90151856Y-107854963D02*
X90091380Y-107945677D01*
X90091380Y-107945677D02*
X90030904Y-108006153D01*
X90030904Y-108006153D02*
X89970428Y-108036391D01*
X90726380Y-107854963D02*
X90786857Y-107854963D01*
X90786857Y-107854963D02*
X90847333Y-107885201D01*
X90847333Y-107885201D02*
X90877571Y-107915439D01*
X90877571Y-107915439D02*
X90907809Y-107975915D01*
X90907809Y-107975915D02*
X90938047Y-108096867D01*
X90938047Y-108096867D02*
X90938047Y-108248058D01*
X90938047Y-108248058D02*
X90907809Y-108369010D01*
X90907809Y-108369010D02*
X90877571Y-108429486D01*
X90877571Y-108429486D02*
X90847333Y-108459725D01*
X90847333Y-108459725D02*
X90786857Y-108489963D01*
X90786857Y-108489963D02*
X90726380Y-108489963D01*
X90726380Y-108489963D02*
X90665904Y-108459725D01*
X90665904Y-108459725D02*
X90635666Y-108429486D01*
X90635666Y-108429486D02*
X90605428Y-108369010D01*
X90605428Y-108369010D02*
X90575190Y-108248058D01*
X90575190Y-108248058D02*
X90575190Y-108096867D01*
X90575190Y-108096867D02*
X90605428Y-107975915D01*
X90605428Y-107975915D02*
X90635666Y-107915439D01*
X90635666Y-107915439D02*
X90665904Y-107885201D01*
X90665904Y-107885201D02*
X90726380Y-107854963D01*
X91210190Y-108066629D02*
X91210190Y-108701629D01*
X91512571Y-108399248D02*
X91542809Y-108459725D01*
X91542809Y-108459725D02*
X91603285Y-108489963D01*
X91210190Y-108399248D02*
X91240428Y-108459725D01*
X91240428Y-108459725D02*
X91300904Y-108489963D01*
X91300904Y-108489963D02*
X91421857Y-108489963D01*
X91421857Y-108489963D02*
X91482333Y-108459725D01*
X91482333Y-108459725D02*
X91512571Y-108399248D01*
X91512571Y-108399248D02*
X91512571Y-108066629D01*
X92087095Y-108157344D02*
X91875428Y-108157344D01*
X91875428Y-108489963D02*
X91875428Y-107854963D01*
X91875428Y-107854963D02*
X92177809Y-107854963D01*
%TO.C,C5*%
X102446666Y-57435963D02*
X102083809Y-57435963D01*
X102265237Y-57435963D02*
X102265237Y-56800963D01*
X102265237Y-56800963D02*
X102204761Y-56891677D01*
X102204761Y-56891677D02*
X102144285Y-56952153D01*
X102144285Y-56952153D02*
X102083809Y-56982391D01*
X102718809Y-57012629D02*
X102718809Y-57647629D01*
X103021190Y-57345248D02*
X103051428Y-57405725D01*
X103051428Y-57405725D02*
X103111904Y-57435963D01*
X102718809Y-57345248D02*
X102749047Y-57405725D01*
X102749047Y-57405725D02*
X102809523Y-57435963D01*
X102809523Y-57435963D02*
X102930476Y-57435963D01*
X102930476Y-57435963D02*
X102990952Y-57405725D01*
X102990952Y-57405725D02*
X103021190Y-57345248D01*
X103021190Y-57345248D02*
X103021190Y-57012629D01*
X103595714Y-57103344D02*
X103384047Y-57103344D01*
X103384047Y-57435963D02*
X103384047Y-56800963D01*
X103384047Y-56800963D02*
X103686428Y-56800963D01*
D11*
%TO.C,IC5*%
X98649000Y-108307000D02*
X97499000Y-108307000D01*
X97149000Y-108307000D02*
X96399000Y-108307000D01*
X97149000Y-105307000D02*
X97149000Y-108307000D01*
X96399000Y-108307000D02*
X96399000Y-105307000D01*
X96399000Y-105307000D02*
X97149000Y-105307000D01*
%TO.C,IC4*%
X96798000Y-56585000D02*
X97798000Y-56585000D01*
X98002000Y-56801000D02*
X98552000Y-56801000D01*
X98002000Y-58801000D02*
X98002000Y-56801000D01*
X98552000Y-56801000D02*
X98552000Y-58801000D01*
X98552000Y-58801000D02*
X98002000Y-58801000D01*
%TO.C,IC3*%
X90642000Y-59498000D02*
X92467000Y-59498000D01*
X92817000Y-59613000D02*
X97417000Y-59613000D01*
X92817000Y-72213000D02*
X92817000Y-59613000D01*
X97417000Y-59613000D02*
X97417000Y-72213000D01*
X97417000Y-72213000D02*
X92817000Y-72213000D01*
%TO.C,IC2*%
X101866000Y-89785000D02*
X100066000Y-89785000D01*
X99716000Y-89853000D02*
X92816000Y-89853000D01*
X99716000Y-73977000D02*
X99716000Y-89853000D01*
X92816000Y-89853000D02*
X92816000Y-73977000D01*
X92816000Y-73977000D02*
X99716000Y-73977000D01*
%TO.C,IC1*%
X93061000Y-90359000D02*
X94886000Y-90359000D01*
X95236000Y-90474000D02*
X99836000Y-90474000D01*
X95236000Y-103074000D02*
X95236000Y-90474000D01*
X99836000Y-90474000D02*
X99836000Y-103074000D01*
X99836000Y-103074000D02*
X95236000Y-103074000D01*
D12*
%TO.C,C2*%
X92556000Y-91956748D02*
X92556000Y-92479252D01*
X91086000Y-91956748D02*
X91086000Y-92479252D01*
%TO.C,C1*%
X99976000Y-72127252D02*
X99976000Y-71604748D01*
X101446000Y-72127252D02*
X101446000Y-71604748D01*
%TO.C,C4*%
X101446000Y-61526748D02*
X101446000Y-62049252D01*
X99976000Y-61526748D02*
X99976000Y-62049252D01*
%TO.C,C8*%
X99747400Y-107077652D02*
X99747400Y-106555148D01*
X101217400Y-107077652D02*
X101217400Y-106555148D01*
%TO.C,C3*%
X92556000Y-100769748D02*
X92556000Y-101292252D01*
X91086000Y-100769748D02*
X91086000Y-101292252D01*
%TO.C,C9*%
X93953000Y-106434748D02*
X93953000Y-106957252D01*
X92483000Y-106434748D02*
X92483000Y-106957252D01*
%TO.C,C5*%
X101827000Y-57793748D02*
X101827000Y-58316252D01*
X100357000Y-57793748D02*
X100357000Y-58316252D01*
%TD*%
M02*
