M48
; DRILL file {KiCad 9.0.7-9.0.7~ubuntu24.04.1} date 2026-02-19T16:49:38+0200
; FORMAT={-:-/ absolute / metric / decimal}
; #@! TF.CreationDate,2026-02-19T16:49:38+02:00
; #@! TF.GenerationSoftware,Kicad,Pcbnew,9.0.7-9.0.7~ubuntu24.04.1
; #@! TF.FileFunction,Plated,1,2,PTH
FMAT,2
METRIC
; #@! TA.AperFunction,Plated,PTH,ViaDrill
T1C0.400
; #@! TA.AperFunction,Plated,PTH,ComponentDrill
T2C0.800
; #@! TA.AperFunction,Plated,PTH,ViaDrill
T3C1.000
; #@! TA.AperFunction,Plated,PTH,ComponentDrill
T4C1.000
; #@! TA.AperFunction,Plated,PTH,ComponentDrill
T5C1.200
; #@! TA.AperFunction,Plated,PTH,ComponentDrill
T6C2.600
; #@! TA.AperFunction,Plated,PTH,ComponentDrill
T7C3.000
; #@! TA.AperFunction,Plated,PTH,ComponentDrill
T8C3.200
%
G90
G05
T1
X-6.35Y-235.839
X-6.35Y-321.183
X-5.588Y-226.695
X-5.588Y-305.562
X-3.937Y-121.158
X-3.937Y-276.352
X0.27Y-152.571
X3.731Y-58.547
X4.028Y-151.523
X5.08Y-61.722
X5.334Y-229.997
X6.223Y-321.31
X6.35Y-173.99
X6.397Y-126.285
X7.62Y-108.585
X7.62Y-266.954
X9.049Y-35.179
X10.16Y-123.698
X10.16Y-267.716
X10.16Y-293.243
X11.938Y-261.62
X12.7Y-55.118
X12.72Y-123.699
X13.208Y-287.909
X13.436Y-60.836
X14.351Y-261.62
X14.497Y-121.467
X15.24Y-55.118
X15.24Y-123.699
X15.24Y-268.478
X16.002Y-275.717
X16.002Y-281.686
X16.383Y-145.175
X16.51Y-185.42
X16.51Y-239.903
X16.669Y-32.139
X17.018Y-275.717
X17.018Y-281.686
X17.78Y-55.118
X17.78Y-123.698
X17.78Y-240.665
X17.78Y-269.24
X18.288Y-306.832
X18.53Y-289.687
X18.542Y-261.62
X19.05Y-323.088
X20.32Y-36.449
X20.32Y-85.344
X20.32Y-139.058
X20.32Y-169.037
X20.32Y-237.617
X20.32Y-308.356
X20.32Y-322.338
X20.415Y-109.707
X21.082Y-272.161
X21.336Y-290.957
X21.718Y-58.547
X21.771Y-254.708
X21.988Y-261.874
X23.622Y-282.829
X23.915Y-277.407
X24.257Y-88.646
X24.384Y-258.826
X24.384Y-315.595
X24.638Y-282.829
X25.019Y-277.241
X25.4Y-57.277
X25.4Y-185.42
X26.035Y-264.541
X29.21Y-99.441
X29.21Y-271.526
X29.53Y-162.957
X30.025Y-277.719
X30.353Y-306.832
X30.48Y-31.877
X30.734Y-271.526
X31.242Y-284.353
X31.583Y-221.615
X31.623Y-277.749
X31.75Y-273.177
X31.75Y-317.5
X33.02Y-265.303
X33.782Y-270.51
X34.29Y-190.119
X34.387Y-294.924
X34.387Y-300.736
X34.417Y-317.5
X34.509Y-289.687
X34.671Y-270.002
X35.56Y-305.562
X36.703Y-248.158
X36.83Y-277.622
X36.83Y-306.832
X37.18Y-207.118
X38.1Y-240.665
X38.481Y-203.073
X39.37Y-246.126
X41.91Y-265.303
X42.164Y-282.702
X43.18Y-133.477
X44.45Y-169.858
X44.45Y-276.479
X44.488Y-281.1
X45.72Y-82.677
X45.72Y-129.159
X45.72Y-192.532
X45.72Y-216.789
X46.736Y-55.626
X46.973Y-114.972
X46.99Y-312.42
X47.209Y-284.572
X47.555Y-132.602
X47.596Y-47.157
X48.26Y-41.402
X48.26Y-138.557
X49.348Y-270.002
X49.403Y-246.634
X49.403Y-254.0
X49.53Y-306.832
X49.53Y-315.595
X49.72Y-135.954
X50.165Y-258.953
X50.8Y-106.553
X50.8Y-238.379
X50.8Y-242.951
X50.8Y-321.564
X51.562Y-276.479
X51.816Y-116.84
X52.121Y-281.1
X52.28Y-64.782
X52.324Y-54.356
X52.451Y-120.523
X52.578Y-276.479
X52.597Y-128.27
X53.34Y-111.125
X53.34Y-191.897
X53.34Y-207.589
X53.34Y-261.874
X53.659Y-217.539
X54.4Y-99.448
X54.429Y-266.827
X54.451Y-10.795
X54.61Y-316.357
X55.372Y-253.365
X55.499Y-275.822
X55.823Y-100.06
X56.388Y-271.526
X57.15Y-162.179
X57.277Y-261.112
X58.42Y-83.566
X58.42Y-276.352
X58.674Y-241.495
X59.69Y-277.368
X59.69Y-281.051
X60.96Y-81.661
X60.96Y-128.27
X60.96Y-240.665
X62.037Y-234.713
X62.047Y-122.435
X63.5Y-133.35
X64.77Y-25.654
X66.04Y-77.839
X66.04Y-214.376
X67.31Y-135.89
X67.31Y-254.889
X67.31Y-258.826
X68.58Y-128.27
X69.631Y-242.245
X69.85Y-103.759
X69.85Y-202.692
X69.977Y-76.327
X71.12Y-260.722
X72.39Y-134.493
X73.66Y-102.997
X73.66Y-154.813
X73.66Y-175.895
X73.66Y-191.135
X73.66Y-266.065
X73.914Y-79.248
X75.149Y-90.043
X76.2Y-265.303
X77.343Y-135.89
X77.597Y-116.459
X78.232Y-321.564
X78.437Y-91.44
X78.437Y-104.472
X79.121Y-238.367
X79.121Y-247.523
X79.121Y-322.326
X79.133Y-153.62
X79.133Y-206.883
X79.756Y-149.225
X80.01Y-292.1
X80.137Y-40.513
X81.153Y-85.344
X83.312Y-73.66
X83.444Y-274.008
X83.573Y-252.06
X83.833Y-210.82
X84.455Y-232.283
X84.455Y-259.141
X87.134Y-72.437
X87.416Y-186.309
X89.535Y-72.378
X89.744Y-145.911
X92.178Y-117.494
X92.527Y-249.174
X92.996Y-207.58
X94.722Y-90.082
X97.79Y-267.577
X98.909Y-161.803
X99.105Y-180.286
X99.441Y-267.577
X100.203Y-207.645
X102.366Y-145.895
X104.14Y-259.141
X104.795Y-147.442
X105.628Y-110.871
X105.965Y-135.504
X106.045Y-196.596
X106.299Y-162.179
X106.921Y-249.913
X107.95Y-196.596
X108.331Y-123.547
X109.347Y-203.962
X109.982Y-207.645
X110.649Y-124.46
X111.049Y-67.183
X111.76Y-40.64
X112.014Y-107.442
X112.395Y-38.989
X118.11Y-47.498
X118.618Y-148.971
X119.38Y-111.76
X119.38Y-124.079
X120.65Y-15.24
X120.65Y-157.48
X121.92Y-13.97
X124.46Y-244.487
X125.787Y-243.697
X125.948Y-145.911
X125.948Y-179.844
X128.73Y-90.073
X128.905Y-243.84
X129.54Y-149.86
X131.318Y-243.84
X131.572Y-250.063
X131.572Y-273.05
X132.588Y-315.595
X133.35Y-112.141
X133.985Y-278.499
X134.112Y-207.137
X134.112Y-229.997
X134.239Y-95.123
X134.239Y-124.079
X135.128Y-255.39
X135.255Y-238.252
X135.307Y-124.079
X136.144Y-60.452
X136.271Y-135.763
X136.271Y-217.551
X137.287Y-294.894
X138.049Y-196.088
X138.176Y-131.064
X138.176Y-247.523
X139.192Y-131.064
X139.319Y-69.85
X139.319Y-72.009
X139.954Y-235.446
X140.262Y-128.27
X140.697Y-184.763
X141.478Y-114.808
X141.478Y-217.043
X142.113Y-80.391
X142.113Y-112.903
X143.63Y-274.084
X143.891Y-155.702
X143.903Y-115.697
X144.78Y-110.617
X144.78Y-147.193
X145.669Y-138.539
X146.05Y-274.32
X146.809Y-213.299
X147.32Y-115.062
X147.32Y-266.827
X147.673Y-207.638
X149.606Y-119.126
X149.86Y-139.7
X149.969Y-273.05
X149.987Y-192.659
X150.368Y-111.379
X151.343Y-276.479
X152.4Y-131.064
X153.465Y-196.899
X153.67Y-87.503
X155.194Y-176.657
X156.21Y-182.372
X156.21Y-198.755
X156.464Y-177.419
X158.115Y-287.909
X158.75Y-62.865
X158.75Y-210.947
X160.02Y-130.048
X160.02Y-259.969
X160.037Y-169.072
X160.655Y-276.345
X161.29Y-66.167
X161.29Y-96.774
X161.29Y-312.42
X162.544Y-138.937
X162.56Y-261.472
X162.689Y-132.602
X163.103Y-47.66
X163.103Y-116.332
X163.83Y-218.186
X163.83Y-244.983
X163.83Y-301.498
X164.465Y-41.402
X164.465Y-283.464
X165.1Y-98.425
X165.1Y-102.031
X166.37Y-10.033
X166.37Y-182.372
X166.37Y-317.119
X167.64Y-208.407
X168.2Y-296.926
X168.91Y-185.801
X169.129Y-129.032
X169.545Y-282.702
X169.799Y-184.023
X170.129Y-249.435
X170.176Y-209.677
X170.18Y-99.326
X171.069Y-318.135
X171.45Y-82.689
X171.654Y-196.899
X172.085Y-56.527
X172.085Y-293.931
X172.72Y-99.187
X172.72Y-100.203
X172.72Y-213.233
X173.99Y-9.271
X173.99Y-186.817
X173.99Y-300.863
X174.184Y-83.499
X175.26Y-265.303
X175.387Y-290.957
X176.53Y-191.135
X176.728Y-308.333
X177.165Y-55.626
X177.165Y-111.379
X177.292Y-244.983
X177.747Y-185.801
X177.8Y-266.065
X178.943Y-214.376
X179.07Y-99.187
X179.07Y-243.967
X179.705Y-183.896
X179.959Y-169.926
X180.34Y-131.826
X180.34Y-260.731
X181.391Y-243.713
X181.61Y-81.661
X182.143Y-145.761
X182.499Y-143.383
X182.88Y-87.759
X182.88Y-152.769
X183.388Y-132.207
X184.136Y-146.988
X184.328Y-97.524
X185.42Y-124.263
X185.721Y-145.632
X186.34Y-91.704
X186.436Y-94.742
X186.69Y-77.839
X187.071Y-68.803
X187.238Y-152.959
X187.338Y-141.653
X187.579Y-38.1
X187.803Y-39.243
X187.96Y-103.747
X187.96Y-191.897
X189.115Y-135.763
X189.23Y-316.357
X190.5Y-76.327
X190.5Y-88.392
X190.5Y-102.997
X190.5Y-234.696
X190.63Y-175.145
X191.77Y-255.27
X192.405Y-54.356
X193.04Y-89.4
X193.802Y-14.351
X194.31Y-77.089
X194.31Y-182.499
X194.31Y-302.387
X194.818Y-140.494
X195.326Y-100.711
X195.58Y-78.74
X195.58Y-175.895
X195.58Y-233.934
X196.342Y-154.813
X196.43Y-99.822
X196.85Y-175.006
X197.104Y-156.565
X198.629Y-97.155
X198.789Y-48.52
X199.517Y-244.983
X200.854Y-41.596
X201.549Y-134.493
X203.2Y-25.654
X204.47Y-57.912
X204.47Y-143.637
X207.01Y-282.829
X210.82Y-316.103
X214.884Y-61.722
X215.9Y-222.758
X215.9Y-317.373
X216.012Y-147.21
X217.17Y-192.51
X217.297Y-121.551
X217.424Y-213.868
X220.258Y-192.51
X222.254Y-104.645
X223.52Y-26.543
X223.52Y-153.924
X224.79Y-245.872
X225.869Y-109.029
X226.06Y-153.162
X227.33Y-44.323
X229.87Y-48.514
X229.87Y-67.31
X229.87Y-239.903
X231.14Y-55.669
X231.14Y-292.1
X232.41Y-102.108
X232.41Y-119.253
X232.537Y-46.228
X233.68Y-129.921
X236.22Y-67.945
X237.49Y-151.638
X237.655Y-244.835
X237.744Y-104.648
X238.76Y-61.341
X238.76Y-131.064
X238.76Y-173.981
X240.248Y-93.98
X240.661Y-321.111
X242.316Y-55.669
X242.57Y-264.541
X243.712Y-190.5
X243.84Y-139.7
X245.294Y-239.014
X245.357Y-321.685
X245.999Y-132.08
X246.38Y-287.295
X246.416Y-293.181
X247.904Y-239.794
X248.412Y-139.7
X248.918Y-240.665
X248.92Y-112.268
X248.92Y-152.4
X249.301Y-315.214
X252.857Y-240.665
X253.492Y-315.273
X254.0Y-251.46
X255.143Y-56.515
X255.27Y-323.85
X256.54Y-68.707
X257.651Y-227.457
X257.81Y-136.596
X258.572Y-61.341
X260.223Y-189.23
X260.304Y-169.799
X261.633Y-316.321
X262.509Y-325.755
X262.89Y-67.945
X262.89Y-109.982
X263.055Y-207.174
X270.51Y-324.739
X270.644Y-104.645
T2
X-24.852Y-125.73
X-24.779Y-219.71
X-24.725Y-36.83
X-24.725Y-59.69
X-24.725Y-105.41
X-24.725Y-288.29
X-24.725Y-311.15
X-22.352Y-125.73
X-22.279Y-219.71
X-22.225Y-36.83
X-22.225Y-59.69
X-22.225Y-105.41
X-22.225Y-288.29
X-22.225Y-311.15
X-15.875Y-18.328
X-15.875Y-20.828
X-15.875Y-142.24
X-15.875Y-144.74
X-15.875Y-269.915
X-15.875Y-272.415
T3
X-19.05Y-54.356
X-16.131Y-132.967
X-16.002Y-123.19
X-15.875Y-32.383
X-15.748Y-50.8
X-13.081Y-256.54
X-12.121Y-292.358
X-8.128Y-263.525
X-5.08Y-109.601
X2.54Y-288.29
X6.397Y-101.854
X81.153Y-140.589
X81.407Y-29.845
X81.407Y-52.705
X81.407Y-75.184
X81.788Y-120.269
X82.169Y-257.991
X82.169Y-281.432
X82.169Y-304.165
X82.169Y-327.152
X82.423Y-96.52
X82.423Y-166.878
X82.423Y-189.738
X82.423Y-212.852
X82.423Y-235.331
X131.318Y-214.449
X132.207Y-73.66
X132.207Y-85.598
X133.858Y-281.432
X133.858Y-297.942
X133.858Y-304.165
X139.192Y-126.97
X139.573Y-246.38
X139.573Y-263.144
X141.224Y-304.292
X143.383Y-101.854
X144.78Y-311.15
X145.669Y-11.945
X147.32Y-58.674
X147.32Y-127.889
X149.86Y-80.391
X149.86Y-101.854
X151.051Y-237.363
X154.178Y-279.4
X154.432Y-52.705
X154.813Y-119.253
X154.94Y-256.54
X157.48Y-27.94
X157.48Y-162.56
X157.48Y-304.292
X160.02Y-98.044
X165.1Y-187.96
X172.72Y-187.96
X172.72Y-248.285
X172.72Y-256.54
X173.355Y-276.479
X179.07Y-73.66
X179.07Y-84.709
X183.642Y-40.386
X189.23Y-80.391
X198.12Y-29.337
X199.009Y-159.258
X200.025Y-88.773
X200.533Y-299.974
X201.93Y-120.65
X204.47Y-219.71
X205.232Y-115.189
X205.232Y-311.15
X205.486Y-254.0
X208.28Y-2.54
X209.423Y-237.363
X212.852Y-80.518
X213.233Y-115.189
X220.98Y-120.62
X226.06Y-52.578
X227.816Y-75.438
X228.6Y-123.571
X231.14Y-225.933
X231.14Y-257.048
X234.569Y-162.687
X234.569Y-197.739
X241.3Y-229.235
X241.3Y-274.193
X243.84Y-318.389
X246.38Y-2.54
X250.728Y-176.535
X254.0Y-20.32
X257.764Y-194.056
X259.08Y-229.235
X259.08Y-274.193
X263.271Y-184.785
X266.954Y-257.048
X269.24Y-233.934
X276.733Y-206.629
X276.733Y-299.72
T4
X-17.78Y-189.1
X-17.78Y-203.2
X-15.875Y-110.395
X-15.875Y-112.395
X-15.875Y-225.06
X-15.875Y-227.06
X-15.875Y-315.722
X-15.875Y-317.722
X-15.748Y-64.675
X-15.748Y-66.675
X0.0Y0.0
X0.0Y-5.08
X0.0Y-22.86
X0.0Y-27.94
X0.0Y-45.72
X0.0Y-50.8
X0.0Y-68.58
X0.0Y-73.66
X0.0Y-91.44
X0.0Y-96.52
X0.0Y-114.3
X0.0Y-119.38
X0.0Y-137.16
X0.0Y-142.24
X0.0Y-160.02
X0.0Y-165.1
X0.0Y-182.88
X0.0Y-187.96
X0.0Y-205.74
X0.0Y-210.82
X0.0Y-228.6
X0.0Y-233.68
X0.0Y-251.46
X0.0Y-256.54
X0.0Y-274.32
X0.0Y-279.4
X0.0Y-297.18
X0.0Y-302.26
X0.0Y-320.04
X0.0Y-325.12
X2.54Y0.0
X2.54Y-5.08
X2.54Y-22.86
X2.54Y-27.94
X2.54Y-45.72
X2.54Y-50.8
X2.54Y-68.58
X2.54Y-73.66
X2.54Y-91.44
X2.54Y-96.52
X2.54Y-114.3
X2.54Y-119.38
X2.54Y-137.16
X2.54Y-142.24
X2.54Y-160.02
X2.54Y-165.1
X2.54Y-182.88
X2.54Y-187.96
X2.54Y-205.74
X2.54Y-210.82
X2.54Y-228.6
X2.54Y-233.68
X2.54Y-251.46
X2.54Y-256.54
X2.54Y-274.32
X2.54Y-279.4
X2.54Y-297.18
X2.54Y-302.26
X2.54Y-320.04
X2.54Y-325.12
X5.08Y-210.82
X5.08Y0.0
X5.08Y-5.08
X5.08Y-22.86
X5.08Y-27.94
X5.08Y-45.72
X5.08Y-50.8
X5.08Y-68.58
X5.08Y-73.66
X5.08Y-91.44
X5.08Y-96.52
X5.08Y-114.3
X5.08Y-119.38
X5.08Y-137.16
X5.08Y-142.24
X5.08Y-160.02
X5.08Y-165.1
X5.08Y-182.88
X5.08Y-187.96
X5.08Y-205.74
X5.08Y-228.6
X5.08Y-233.68
X5.08Y-251.46
X5.08Y-256.54
X5.08Y-274.32
X5.08Y-279.4
X5.08Y-297.18
X5.08Y-302.26
X5.08Y-320.04
X5.08Y-325.12
X7.62Y0.0
X7.62Y-5.08
X7.62Y-22.86
X7.62Y-27.94
X7.62Y-45.72
X7.62Y-50.8
X7.62Y-68.58
X7.62Y-73.66
X7.62Y-91.44
X7.62Y-96.52
X7.62Y-114.3
X7.62Y-119.38
X7.62Y-137.16
X7.62Y-142.24
X7.62Y-160.02
X7.62Y-165.1
X7.62Y-182.88
X7.62Y-187.96
X7.62Y-205.74
X7.62Y-210.82
X7.62Y-228.6
X7.62Y-233.68
X7.62Y-251.46
X7.62Y-256.54
X7.62Y-274.32
X7.62Y-279.4
X7.62Y-297.18
X7.62Y-302.26
X7.62Y-320.04
X7.62Y-325.12
X10.16Y-205.74
X10.16Y0.0
X10.16Y-5.08
X10.16Y-22.86
X10.16Y-27.94
X10.16Y-45.72
X10.16Y-50.8
X10.16Y-68.58
X10.16Y-73.66
X10.16Y-91.44
X10.16Y-96.52
X10.16Y-114.3
X10.16Y-119.38
X10.16Y-137.16
X10.16Y-142.24
X10.16Y-160.02
X10.16Y-165.1
X10.16Y-182.88
X10.16Y-187.96
X10.16Y-210.82
X10.16Y-228.6
X10.16Y-233.68
X10.16Y-251.46
X10.16Y-256.54
X10.16Y-274.32
X10.16Y-279.4
X10.16Y-297.18
X10.16Y-302.26
X10.16Y-320.04
X10.16Y-325.12
X12.7Y0.0
X12.7Y-5.08
X12.7Y-22.86
X12.7Y-27.94
X12.7Y-45.72
X12.7Y-50.8
X12.7Y-68.58
X12.7Y-73.66
X12.7Y-91.44
X12.7Y-96.52
X12.7Y-114.3
X12.7Y-119.38
X12.7Y-137.16
X12.7Y-142.24
X12.7Y-160.02
X12.7Y-165.1
X12.7Y-182.88
X12.7Y-187.96
X12.7Y-210.82
X12.7Y-228.6
X12.7Y-233.68
X12.7Y-251.46
X12.7Y-256.54
X12.7Y-274.32
X12.7Y-279.4
X12.7Y-297.18
X12.7Y-302.26
X12.7Y-320.04
X12.7Y-325.12
X12.7Y-205.74
X15.24Y0.0
X15.24Y-5.08
X15.24Y-22.86
X15.24Y-27.94
X15.24Y-45.72
X15.24Y-50.8
X15.24Y-68.58
X15.24Y-73.66
X15.24Y-91.44
X15.24Y-96.52
X15.24Y-114.3
X15.24Y-119.38
X15.24Y-137.16
X15.24Y-142.24
X15.24Y-160.02
X15.24Y-165.1
X15.24Y-182.88
X15.24Y-187.96
X15.24Y-205.74
X15.24Y-210.82
X15.24Y-228.6
X15.24Y-233.68
X15.24Y-251.46
X15.24Y-256.54
X15.24Y-274.32
X15.24Y-279.4
X15.24Y-297.18
X15.24Y-302.26
X15.24Y-320.04
X15.24Y-325.12
X17.78Y0.0
X17.78Y-5.08
X17.78Y-22.86
X17.78Y-27.94
X17.78Y-45.72
X17.78Y-50.8
X17.78Y-68.58
X17.78Y-73.66
X17.78Y-91.44
X17.78Y-96.52
X17.78Y-114.3
X17.78Y-119.38
X17.78Y-137.16
X17.78Y-142.24
X17.78Y-160.02
X17.78Y-165.1
X17.78Y-182.88
X17.78Y-187.96
X17.78Y-205.74
X17.78Y-228.6
X17.78Y-233.68
X17.78Y-251.46
X17.78Y-256.54
X17.78Y-274.32
X17.78Y-279.4
X17.78Y-297.18
X17.78Y-302.26
X17.78Y-320.04
X17.78Y-325.12
X17.78Y-210.82
X20.32Y0.0
X20.32Y-5.08
X20.32Y-22.86
X20.32Y-27.94
X20.32Y-45.72
X20.32Y-50.8
X20.32Y-68.58
X20.32Y-73.66
X20.32Y-91.44
X20.32Y-96.52
X20.32Y-114.3
X20.32Y-119.38
X20.32Y-137.16
X20.32Y-142.24
X20.32Y-160.02
X20.32Y-165.1
X20.32Y-182.88
X20.32Y-187.96
X20.32Y-205.74
X20.32Y-210.82
X20.32Y-228.6
X20.32Y-233.68
X20.32Y-251.46
X20.32Y-256.54
X20.32Y-274.32
X20.32Y-279.4
X20.32Y-297.18
X20.32Y-302.26
X20.32Y-320.04
X20.32Y-325.12
X22.86Y0.0
X22.86Y-5.08
X22.86Y-22.86
X22.86Y-27.94
X22.86Y-45.72
X22.86Y-50.8
X22.86Y-68.58
X22.86Y-73.66
X22.86Y-91.44
X22.86Y-96.52
X22.86Y-114.3
X22.86Y-119.38
X22.86Y-137.16
X22.86Y-142.24
X22.86Y-160.02
X22.86Y-165.1
X22.86Y-182.88
X22.86Y-187.96
X22.86Y-205.74
X22.86Y-210.82
X22.86Y-228.6
X22.86Y-233.68
X22.86Y-251.46
X22.86Y-256.54
X22.86Y-274.32
X22.86Y-279.4
X22.86Y-297.18
X22.86Y-302.26
X22.86Y-320.04
X22.86Y-325.12
X25.4Y0.0
X25.4Y-5.08
X25.4Y-22.86
X25.4Y-27.94
X25.4Y-45.72
X25.4Y-50.8
X25.4Y-68.58
X25.4Y-73.66
X25.4Y-91.44
X25.4Y-96.52
X25.4Y-114.3
X25.4Y-119.38
X25.4Y-137.16
X25.4Y-142.24
X25.4Y-160.02
X25.4Y-165.1
X25.4Y-182.88
X25.4Y-187.96
X25.4Y-205.74
X25.4Y-210.82
X25.4Y-228.6
X25.4Y-233.68
X25.4Y-251.46
X25.4Y-256.54
X25.4Y-274.32
X25.4Y-279.4
X25.4Y-297.18
X25.4Y-302.26
X25.4Y-320.04
X25.4Y-325.12
X27.94Y-210.82
X27.94Y0.0
X27.94Y-5.08
X27.94Y-22.86
X27.94Y-27.94
X27.94Y-45.72
X27.94Y-50.8
X27.94Y-68.58
X27.94Y-73.66
X27.94Y-91.44
X27.94Y-96.52
X27.94Y-114.3
X27.94Y-119.38
X27.94Y-137.16
X27.94Y-142.24
X27.94Y-160.02
X27.94Y-165.1
X27.94Y-182.88
X27.94Y-187.96
X27.94Y-205.74
X27.94Y-228.6
X27.94Y-233.68
X27.94Y-251.46
X27.94Y-256.54
X27.94Y-274.32
X27.94Y-279.4
X27.94Y-297.18
X27.94Y-302.26
X27.94Y-320.04
X27.94Y-325.12
X30.48Y0.0
X30.48Y-5.08
X30.48Y-22.86
X30.48Y-27.94
X30.48Y-45.72
X30.48Y-50.8
X30.48Y-68.58
X30.48Y-73.66
X30.48Y-91.44
X30.48Y-96.52
X30.48Y-114.3
X30.48Y-119.38
X30.48Y-137.16
X30.48Y-142.24
X30.48Y-160.02
X30.48Y-165.1
X30.48Y-182.88
X30.48Y-187.96
X30.48Y-205.74
X30.48Y-210.82
X30.48Y-228.6
X30.48Y-233.68
X30.48Y-251.46
X30.48Y-256.54
X30.48Y-274.32
X30.48Y-279.4
X30.48Y-297.18
X30.48Y-302.26
X30.48Y-320.04
X30.48Y-325.12
X33.02Y-205.74
X33.02Y0.0
X33.02Y-5.08
X33.02Y-22.86
X33.02Y-27.94
X33.02Y-45.72
X33.02Y-50.8
X33.02Y-68.58
X33.02Y-73.66
X33.02Y-91.44
X33.02Y-96.52
X33.02Y-114.3
X33.02Y-119.38
X33.02Y-137.16
X33.02Y-142.24
X33.02Y-160.02
X33.02Y-165.1
X33.02Y-182.88
X33.02Y-187.96
X33.02Y-210.82
X33.02Y-228.6
X33.02Y-233.68
X33.02Y-251.46
X33.02Y-256.54
X33.02Y-274.32
X33.02Y-279.4
X33.02Y-297.18
X33.02Y-302.26
X33.02Y-320.04
X33.02Y-325.12
X35.56Y0.0
X35.56Y-5.08
X35.56Y-22.86
X35.56Y-27.94
X35.56Y-45.72
X35.56Y-50.8
X35.56Y-68.58
X35.56Y-73.66
X35.56Y-91.44
X35.56Y-96.52
X35.56Y-114.3
X35.56Y-119.38
X35.56Y-137.16
X35.56Y-142.24
X35.56Y-160.02
X35.56Y-165.1
X35.56Y-182.88
X35.56Y-187.96
X35.56Y-210.82
X35.56Y-228.6
X35.56Y-233.68
X35.56Y-251.46
X35.56Y-256.54
X35.56Y-274.32
X35.56Y-279.4
X35.56Y-297.18
X35.56Y-302.26
X35.56Y-320.04
X35.56Y-325.12
X35.56Y-205.74
X38.1Y-210.82
X38.1Y0.0
X38.1Y-5.08
X38.1Y-22.86
X38.1Y-27.94
X38.1Y-45.72
X38.1Y-50.8
X38.1Y-68.58
X38.1Y-73.66
X38.1Y-91.44
X38.1Y-96.52
X38.1Y-114.3
X38.1Y-119.38
X38.1Y-137.16
X38.1Y-142.24
X38.1Y-160.02
X38.1Y-165.1
X38.1Y-182.88
X38.1Y-187.96
X38.1Y-205.74
X38.1Y-228.6
X38.1Y-233.68
X38.1Y-251.46
X38.1Y-256.54
X38.1Y-274.32
X38.1Y-279.4
X38.1Y-297.18
X38.1Y-302.26
X38.1Y-320.04
X38.1Y-325.12
X40.64Y0.0
X40.64Y-5.08
X40.64Y-22.86
X40.64Y-27.94
X40.64Y-45.72
X40.64Y-50.8
X40.64Y-68.58
X40.64Y-73.66
X40.64Y-91.44
X40.64Y-96.52
X40.64Y-114.3
X40.64Y-119.38
X40.64Y-137.16
X40.64Y-142.24
X40.64Y-160.02
X40.64Y-165.1
X40.64Y-182.88
X40.64Y-187.96
X40.64Y-205.74
X40.64Y-228.6
X40.64Y-233.68
X40.64Y-251.46
X40.64Y-256.54
X40.64Y-274.32
X40.64Y-279.4
X40.64Y-297.18
X40.64Y-302.26
X40.64Y-320.04
X40.64Y-325.12
X40.64Y-210.82
X43.18Y0.0
X43.18Y-5.08
X43.18Y-22.86
X43.18Y-27.94
X43.18Y-45.72
X43.18Y-50.8
X43.18Y-68.58
X43.18Y-73.66
X43.18Y-91.44
X43.18Y-96.52
X43.18Y-114.3
X43.18Y-119.38
X43.18Y-137.16
X43.18Y-142.24
X43.18Y-160.02
X43.18Y-165.1
X43.18Y-182.88
X43.18Y-187.96
X43.18Y-205.74
X43.18Y-210.82
X43.18Y-228.6
X43.18Y-233.68
X43.18Y-251.46
X43.18Y-256.54
X43.18Y-274.32
X43.18Y-279.4
X43.18Y-297.18
X43.18Y-302.26
X43.18Y-320.04
X43.18Y-325.12
X45.72Y0.0
X45.72Y-5.08
X45.72Y-22.86
X45.72Y-27.94
X45.72Y-45.72
X45.72Y-50.8
X45.72Y-68.58
X45.72Y-73.66
X45.72Y-91.44
X45.72Y-96.52
X45.72Y-114.3
X45.72Y-119.38
X45.72Y-137.16
X45.72Y-142.24
X45.72Y-160.02
X45.72Y-165.1
X45.72Y-182.88
X45.72Y-187.96
X45.72Y-205.74
X45.72Y-210.82
X45.72Y-228.6
X45.72Y-233.68
X45.72Y-251.46
X45.72Y-256.54
X45.72Y-274.32
X45.72Y-279.4
X45.72Y-297.18
X45.72Y-302.26
X45.72Y-320.04
X45.72Y-325.12
X48.26Y0.0
X48.26Y-5.08
X48.26Y-22.86
X48.26Y-27.94
X48.26Y-45.72
X48.26Y-50.8
X48.26Y-68.58
X48.26Y-73.66
X48.26Y-91.44
X48.26Y-96.52
X48.26Y-114.3
X48.26Y-119.38
X48.26Y-137.16
X48.26Y-142.24
X48.26Y-160.02
X48.26Y-165.1
X48.26Y-182.88
X48.26Y-187.96
X48.26Y-205.74
X48.26Y-210.82
X48.26Y-228.6
X48.26Y-233.68
X48.26Y-251.46
X48.26Y-256.54
X48.26Y-274.32
X48.26Y-279.4
X48.26Y-297.18
X48.26Y-302.26
X48.26Y-320.04
X48.26Y-325.12
X50.8Y-210.82
X50.8Y0.0
X50.8Y-5.08
X50.8Y-22.86
X50.8Y-27.94
X50.8Y-45.72
X50.8Y-50.8
X50.8Y-68.58
X50.8Y-73.66
X50.8Y-91.44
X50.8Y-96.52
X50.8Y-114.3
X50.8Y-119.38
X50.8Y-137.16
X50.8Y-142.24
X50.8Y-160.02
X50.8Y-165.1
X50.8Y-182.88
X50.8Y-187.96
X50.8Y-205.74
X50.8Y-228.6
X50.8Y-233.68
X50.8Y-251.46
X50.8Y-256.54
X50.8Y-274.32
X50.8Y-279.4
X50.8Y-297.18
X50.8Y-302.26
X50.8Y-320.04
X50.8Y-325.12
X53.34Y0.0
X53.34Y-5.08
X53.34Y-22.86
X53.34Y-27.94
X53.34Y-45.72
X53.34Y-50.8
X53.34Y-68.58
X53.34Y-73.66
X53.34Y-91.44
X53.34Y-96.52
X53.34Y-114.3
X53.34Y-119.38
X53.34Y-137.16
X53.34Y-142.24
X53.34Y-160.02
X53.34Y-165.1
X53.34Y-182.88
X53.34Y-187.96
X53.34Y-205.74
X53.34Y-210.82
X53.34Y-228.6
X53.34Y-233.68
X53.34Y-251.46
X53.34Y-256.54
X53.34Y-274.32
X53.34Y-279.4
X53.34Y-297.18
X53.34Y-302.26
X53.34Y-320.04
X53.34Y-325.12
X55.88Y-205.74
X55.88Y0.0
X55.88Y-5.08
X55.88Y-22.86
X55.88Y-27.94
X55.88Y-45.72
X55.88Y-50.8
X55.88Y-68.58
X55.88Y-73.66
X55.88Y-91.44
X55.88Y-96.52
X55.88Y-114.3
X55.88Y-119.38
X55.88Y-137.16
X55.88Y-142.24
X55.88Y-160.02
X55.88Y-165.1
X55.88Y-182.88
X55.88Y-187.96
X55.88Y-210.82
X55.88Y-228.6
X55.88Y-233.68
X55.88Y-251.46
X55.88Y-256.54
X55.88Y-274.32
X55.88Y-279.4
X55.88Y-297.18
X55.88Y-302.26
X55.88Y-320.04
X55.88Y-325.12
X58.42Y0.0
X58.42Y-5.08
X58.42Y-22.86
X58.42Y-27.94
X58.42Y-45.72
X58.42Y-50.8
X58.42Y-68.58
X58.42Y-73.66
X58.42Y-91.44
X58.42Y-96.52
X58.42Y-114.3
X58.42Y-119.38
X58.42Y-137.16
X58.42Y-142.24
X58.42Y-160.02
X58.42Y-165.1
X58.42Y-182.88
X58.42Y-187.96
X58.42Y-205.74
X58.42Y-210.82
X58.42Y-228.6
X58.42Y-233.68
X58.42Y-251.46
X58.42Y-256.54
X58.42Y-274.32
X58.42Y-279.4
X58.42Y-297.18
X58.42Y-302.26
X58.42Y-320.04
X58.42Y-325.12
X60.96Y-210.82
X60.96Y0.0
X60.96Y-5.08
X60.96Y-22.86
X60.96Y-27.94
X60.96Y-45.72
X60.96Y-50.8
X60.96Y-68.58
X60.96Y-73.66
X60.96Y-91.44
X60.96Y-96.52
X60.96Y-114.3
X60.96Y-119.38
X60.96Y-137.16
X60.96Y-142.24
X60.96Y-160.02
X60.96Y-165.1
X60.96Y-182.88
X60.96Y-187.96
X60.96Y-205.74
X60.96Y-228.6
X60.96Y-233.68
X60.96Y-251.46
X60.96Y-256.54
X60.96Y-274.32
X60.96Y-279.4
X60.96Y-297.18
X60.96Y-302.26
X60.96Y-320.04
X60.96Y-325.12
X63.5Y0.0
X63.5Y-5.08
X63.5Y-22.86
X63.5Y-27.94
X63.5Y-45.72
X63.5Y-50.8
X63.5Y-68.58
X63.5Y-73.66
X63.5Y-91.44
X63.5Y-96.52
X63.5Y-114.3
X63.5Y-119.38
X63.5Y-137.16
X63.5Y-142.24
X63.5Y-160.02
X63.5Y-165.1
X63.5Y-182.88
X63.5Y-187.96
X63.5Y-205.74
X63.5Y-228.6
X63.5Y-233.68
X63.5Y-251.46
X63.5Y-256.54
X63.5Y-274.32
X63.5Y-279.4
X63.5Y-297.18
X63.5Y-302.26
X63.5Y-320.04
X63.5Y-325.12
X63.5Y-210.82
X66.04Y0.0
X66.04Y-5.08
X66.04Y-22.86
X66.04Y-27.94
X66.04Y-45.72
X66.04Y-50.8
X66.04Y-68.58
X66.04Y-73.66
X66.04Y-91.44
X66.04Y-96.52
X66.04Y-114.3
X66.04Y-119.38
X66.04Y-137.16
X66.04Y-142.24
X66.04Y-160.02
X66.04Y-165.1
X66.04Y-182.88
X66.04Y-187.96
X66.04Y-205.74
X66.04Y-210.82
X66.04Y-228.6
X66.04Y-233.68
X66.04Y-251.46
X66.04Y-256.54
X66.04Y-274.32
X66.04Y-279.4
X66.04Y-297.18
X66.04Y-302.26
X66.04Y-320.04
X66.04Y-325.12
X68.58Y0.0
X68.58Y-5.08
X68.58Y-22.86
X68.58Y-27.94
X68.58Y-45.72
X68.58Y-50.8
X68.58Y-68.58
X68.58Y-73.66
X68.58Y-91.44
X68.58Y-96.52
X68.58Y-114.3
X68.58Y-119.38
X68.58Y-137.16
X68.58Y-142.24
X68.58Y-160.02
X68.58Y-165.1
X68.58Y-182.88
X68.58Y-187.96
X68.58Y-210.82
X68.58Y-228.6
X68.58Y-233.68
X68.58Y-251.46
X68.58Y-256.54
X68.58Y-274.32
X68.58Y-279.4
X68.58Y-297.18
X68.58Y-302.26
X68.58Y-320.04
X68.58Y-325.12
X68.58Y-205.74
X71.12Y0.0
X71.12Y-5.08
X71.12Y-22.86
X71.12Y-27.94
X71.12Y-45.72
X71.12Y-50.8
X71.12Y-68.58
X71.12Y-73.66
X71.12Y-91.44
X71.12Y-96.52
X71.12Y-114.3
X71.12Y-119.38
X71.12Y-137.16
X71.12Y-142.24
X71.12Y-160.02
X71.12Y-165.1
X71.12Y-182.88
X71.12Y-187.96
X71.12Y-205.74
X71.12Y-210.82
X71.12Y-228.6
X71.12Y-233.68
X71.12Y-251.46
X71.12Y-256.54
X71.12Y-274.32
X71.12Y-279.4
X71.12Y-297.18
X71.12Y-302.26
X71.12Y-320.04
X71.12Y-325.12
X73.66Y0.0
X73.66Y-5.08
X73.66Y-22.86
X73.66Y-27.94
X73.66Y-45.72
X73.66Y-50.8
X73.66Y-68.58
X73.66Y-73.66
X73.66Y-91.44
X73.66Y-96.52
X73.66Y-114.3
X73.66Y-119.38
X73.66Y-137.16
X73.66Y-142.24
X73.66Y-160.02
X73.66Y-165.1
X73.66Y-182.88
X73.66Y-187.96
X73.66Y-205.74
X73.66Y-228.6
X73.66Y-233.68
X73.66Y-251.46
X73.66Y-256.54
X73.66Y-274.32
X73.66Y-279.4
X73.66Y-297.18
X73.66Y-302.26
X73.66Y-320.04
X73.66Y-325.12
X73.66Y-210.82
X76.2Y0.0
X76.2Y-5.08
X76.2Y-22.86
X76.2Y-27.94
X76.2Y-45.72
X76.2Y-50.8
X76.2Y-68.58
X76.2Y-73.66
X76.2Y-91.44
X76.2Y-96.52
X76.2Y-114.3
X76.2Y-119.38
X76.2Y-137.16
X76.2Y-142.24
X76.2Y-160.02
X76.2Y-165.1
X76.2Y-182.88
X76.2Y-187.96
X76.2Y-205.74
X76.2Y-210.82
X76.2Y-228.6
X76.2Y-233.68
X76.2Y-251.46
X76.2Y-256.54
X76.2Y-274.32
X76.2Y-279.4
X76.2Y-297.18
X76.2Y-302.26
X76.2Y-320.04
X76.2Y-325.12
X81.788Y-124.746
X81.788Y-126.746
X82.55Y-109.22
X82.55Y-147.32
X85.09Y-109.22
X85.09Y-147.32
X86.36Y0.0
X86.36Y-5.08
X86.36Y-22.86
X86.36Y-27.94
X86.36Y-45.72
X86.36Y-50.8
X86.36Y-68.58
X86.36Y-73.66
X86.36Y-91.44
X86.36Y-96.52
X86.36Y-114.3
X86.36Y-119.38
X86.36Y-137.16
X86.36Y-142.24
X86.36Y-160.02
X86.36Y-165.1
X86.36Y-182.88
X86.36Y-187.96
X86.36Y-205.74
X86.36Y-228.6
X86.36Y-233.68
X86.36Y-251.46
X86.36Y-256.54
X86.36Y-274.32
X86.36Y-279.4
X86.36Y-297.18
X86.36Y-302.26
X86.36Y-320.04
X86.36Y-325.12
X86.36Y-210.82
X87.63Y-109.22
X87.63Y-147.32
X88.9Y0.0
X88.9Y-5.08
X88.9Y-22.86
X88.9Y-27.94
X88.9Y-45.72
X88.9Y-50.8
X88.9Y-68.58
X88.9Y-73.66
X88.9Y-91.44
X88.9Y-96.52
X88.9Y-114.3
X88.9Y-119.38
X88.9Y-137.16
X88.9Y-142.24
X88.9Y-160.02
X88.9Y-165.1
X88.9Y-182.88
X88.9Y-187.96
X88.9Y-205.74
X88.9Y-210.82
X88.9Y-228.6
X88.9Y-233.68
X88.9Y-251.46
X88.9Y-256.54
X88.9Y-274.32
X88.9Y-279.4
X88.9Y-297.18
X88.9Y-302.26
X88.9Y-320.04
X88.9Y-325.12
X90.17Y-109.22
X90.17Y-147.32
X91.44Y0.0
X91.44Y-5.08
X91.44Y-22.86
X91.44Y-27.94
X91.44Y-45.72
X91.44Y-50.8
X91.44Y-68.58
X91.44Y-73.66
X91.44Y-91.44
X91.44Y-96.52
X91.44Y-114.3
X91.44Y-119.38
X91.44Y-137.16
X91.44Y-142.24
X91.44Y-160.02
X91.44Y-165.1
X91.44Y-182.88
X91.44Y-187.96
X91.44Y-210.82
X91.44Y-228.6
X91.44Y-233.68
X91.44Y-251.46
X91.44Y-256.54
X91.44Y-274.32
X91.44Y-279.4
X91.44Y-297.18
X91.44Y-302.26
X91.44Y-320.04
X91.44Y-325.12
X91.44Y-205.74
X92.71Y-109.22
X92.71Y-147.32
X93.98Y0.0
X93.98Y-5.08
X93.98Y-22.86
X93.98Y-27.94
X93.98Y-45.72
X93.98Y-50.8
X93.98Y-68.58
X93.98Y-73.66
X93.98Y-91.44
X93.98Y-96.52
X93.98Y-114.3
X93.98Y-119.38
X93.98Y-137.16
X93.98Y-142.24
X93.98Y-160.02
X93.98Y-165.1
X93.98Y-182.88
X93.98Y-187.96
X93.98Y-205.74
X93.98Y-210.82
X93.98Y-228.6
X93.98Y-233.68
X93.98Y-251.46
X93.98Y-256.54
X93.98Y-274.32
X93.98Y-279.4
X93.98Y-297.18
X93.98Y-302.26
X93.98Y-320.04
X93.98Y-325.12
X95.25Y-109.22
X95.25Y-147.32
X96.52Y0.0
X96.52Y-5.08
X96.52Y-22.86
X96.52Y-27.94
X96.52Y-45.72
X96.52Y-50.8
X96.52Y-68.58
X96.52Y-73.66
X96.52Y-91.44
X96.52Y-96.52
X96.52Y-114.3
X96.52Y-119.38
X96.52Y-137.16
X96.52Y-142.24
X96.52Y-160.02
X96.52Y-165.1
X96.52Y-182.88
X96.52Y-187.96
X96.52Y-205.74
X96.52Y-228.6
X96.52Y-233.68
X96.52Y-251.46
X96.52Y-256.54
X96.52Y-274.32
X96.52Y-279.4
X96.52Y-297.18
X96.52Y-302.26
X96.52Y-320.04
X96.52Y-325.12
X96.52Y-210.82
X97.79Y-109.22
X97.79Y-147.32
X99.06Y0.0
X99.06Y-5.08
X99.06Y-22.86
X99.06Y-27.94
X99.06Y-45.72
X99.06Y-50.8
X99.06Y-68.58
X99.06Y-73.66
X99.06Y-91.44
X99.06Y-96.52
X99.06Y-114.3
X99.06Y-119.38
X99.06Y-137.16
X99.06Y-142.24
X99.06Y-160.02
X99.06Y-165.1
X99.06Y-182.88
X99.06Y-187.96
X99.06Y-205.74
X99.06Y-210.82
X99.06Y-228.6
X99.06Y-233.68
X99.06Y-251.46
X99.06Y-256.54
X99.06Y-274.32
X99.06Y-279.4
X99.06Y-297.18
X99.06Y-302.26
X99.06Y-320.04
X99.06Y-325.12
X100.33Y-109.22
X100.33Y-147.32
X101.6Y0.0
X101.6Y-5.08
X101.6Y-22.86
X101.6Y-27.94
X101.6Y-45.72
X101.6Y-50.8
X101.6Y-68.58
X101.6Y-73.66
X101.6Y-91.44
X101.6Y-96.52
X101.6Y-114.3
X101.6Y-119.38
X101.6Y-137.16
X101.6Y-142.24
X101.6Y-160.02
X101.6Y-165.1
X101.6Y-182.88
X101.6Y-187.96
X101.6Y-205.74
X101.6Y-210.82
X101.6Y-228.6
X101.6Y-233.68
X101.6Y-251.46
X101.6Y-256.54
X101.6Y-274.32
X101.6Y-279.4
X101.6Y-297.18
X101.6Y-302.26
X101.6Y-320.04
X101.6Y-325.12
X102.87Y-109.22
X102.87Y-147.32
X104.14Y0.0
X104.14Y-5.08
X104.14Y-22.86
X104.14Y-27.94
X104.14Y-45.72
X104.14Y-50.8
X104.14Y-68.58
X104.14Y-73.66
X104.14Y-91.44
X104.14Y-96.52
X104.14Y-114.3
X104.14Y-119.38
X104.14Y-137.16
X104.14Y-142.24
X104.14Y-160.02
X104.14Y-165.1
X104.14Y-182.88
X104.14Y-187.96
X104.14Y-205.74
X104.14Y-210.82
X104.14Y-228.6
X104.14Y-233.68
X104.14Y-251.46
X104.14Y-256.54
X104.14Y-274.32
X104.14Y-279.4
X104.14Y-297.18
X104.14Y-302.26
X104.14Y-320.04
X104.14Y-325.12
X106.68Y-210.82
X106.68Y0.0
X106.68Y-5.08
X106.68Y-22.86
X106.68Y-27.94
X106.68Y-45.72
X106.68Y-50.8
X106.68Y-68.58
X106.68Y-73.66
X106.68Y-91.44
X106.68Y-96.52
X106.68Y-109.22
X106.68Y-114.3
X106.68Y-119.38
X106.68Y-137.16
X106.68Y-142.24
X106.68Y-147.32
X106.68Y-160.02
X106.68Y-165.1
X106.68Y-182.88
X106.68Y-187.96
X106.68Y-205.74
X106.68Y-228.6
X106.68Y-233.68
X106.68Y-251.46
X106.68Y-256.54
X106.68Y-274.32
X106.68Y-279.4
X106.68Y-297.18
X106.68Y-302.26
X106.68Y-320.04
X106.68Y-325.12
X109.22Y0.0
X109.22Y-5.08
X109.22Y-22.86
X109.22Y-27.94
X109.22Y-45.72
X109.22Y-50.8
X109.22Y-68.58
X109.22Y-73.66
X109.22Y-91.44
X109.22Y-96.52
X109.22Y-109.22
X109.22Y-114.3
X109.22Y-119.38
X109.22Y-137.16
X109.22Y-142.24
X109.22Y-147.32
X109.22Y-160.02
X109.22Y-165.1
X109.22Y-182.88
X109.22Y-187.96
X109.22Y-205.74
X109.22Y-228.6
X109.22Y-233.68
X109.22Y-251.46
X109.22Y-256.54
X109.22Y-274.32
X109.22Y-279.4
X109.22Y-297.18
X109.22Y-302.26
X109.22Y-320.04
X109.22Y-325.12
X109.22Y-210.82
X111.76Y-205.74
X111.76Y0.0
X111.76Y-5.08
X111.76Y-22.86
X111.76Y-27.94
X111.76Y-45.72
X111.76Y-50.8
X111.76Y-68.58
X111.76Y-73.66
X111.76Y-91.44
X111.76Y-96.52
X111.76Y-109.22
X111.76Y-114.3
X111.76Y-119.38
X111.76Y-137.16
X111.76Y-142.24
X111.76Y-147.32
X111.76Y-160.02
X111.76Y-165.1
X111.76Y-182.88
X111.76Y-187.96
X111.76Y-210.82
X111.76Y-228.6
X111.76Y-233.68
X111.76Y-251.46
X111.76Y-256.54
X111.76Y-274.32
X111.76Y-279.4
X111.76Y-297.18
X111.76Y-302.26
X111.76Y-320.04
X111.76Y-325.12
X114.3Y0.0
X114.3Y-5.08
X114.3Y-22.86
X114.3Y-27.94
X114.3Y-45.72
X114.3Y-50.8
X114.3Y-68.58
X114.3Y-73.66
X114.3Y-91.44
X114.3Y-96.52
X114.3Y-109.22
X114.3Y-114.3
X114.3Y-119.38
X114.3Y-137.16
X114.3Y-142.24
X114.3Y-147.32
X114.3Y-160.02
X114.3Y-165.1
X114.3Y-182.88
X114.3Y-187.96
X114.3Y-210.82
X114.3Y-228.6
X114.3Y-233.68
X114.3Y-251.46
X114.3Y-256.54
X114.3Y-274.32
X114.3Y-279.4
X114.3Y-297.18
X114.3Y-302.26
X114.3Y-320.04
X114.3Y-325.12
X114.3Y-205.74
X116.84Y0.0
X116.84Y-5.08
X116.84Y-22.86
X116.84Y-27.94
X116.84Y-45.72
X116.84Y-50.8
X116.84Y-68.58
X116.84Y-73.66
X116.84Y-91.44
X116.84Y-96.52
X116.84Y-109.22
X116.84Y-114.3
X116.84Y-119.38
X116.84Y-137.16
X116.84Y-142.24
X116.84Y-147.32
X116.84Y-160.02
X116.84Y-165.1
X116.84Y-182.88
X116.84Y-187.96
X116.84Y-205.74
X116.84Y-210.82
X116.84Y-228.6
X116.84Y-233.68
X116.84Y-251.46
X116.84Y-256.54
X116.84Y-274.32
X116.84Y-279.4
X116.84Y-297.18
X116.84Y-302.26
X116.84Y-320.04
X116.84Y-325.12
X119.38Y0.0
X119.38Y-5.08
X119.38Y-22.86
X119.38Y-27.94
X119.38Y-45.72
X119.38Y-50.8
X119.38Y-68.58
X119.38Y-73.66
X119.38Y-91.44
X119.38Y-96.52
X119.38Y-109.22
X119.38Y-114.3
X119.38Y-119.38
X119.38Y-137.16
X119.38Y-142.24
X119.38Y-147.32
X119.38Y-160.02
X119.38Y-165.1
X119.38Y-182.88
X119.38Y-187.96
X119.38Y-205.74
X119.38Y-228.6
X119.38Y-233.68
X119.38Y-251.46
X119.38Y-256.54
X119.38Y-274.32
X119.38Y-279.4
X119.38Y-297.18
X119.38Y-302.26
X119.38Y-320.04
X119.38Y-325.12
X119.38Y-210.82
X121.92Y0.0
X121.92Y-5.08
X121.92Y-22.86
X121.92Y-27.94
X121.92Y-45.72
X121.92Y-50.8
X121.92Y-68.58
X121.92Y-73.66
X121.92Y-91.44
X121.92Y-96.52
X121.92Y-109.22
X121.92Y-114.3
X121.92Y-119.38
X121.92Y-137.16
X121.92Y-142.24
X121.92Y-147.32
X121.92Y-160.02
X121.92Y-165.1
X121.92Y-182.88
X121.92Y-187.96
X121.92Y-205.74
X121.92Y-210.82
X121.92Y-228.6
X121.92Y-233.68
X121.92Y-251.46
X121.92Y-256.54
X121.92Y-274.32
X121.92Y-279.4
X121.92Y-297.18
X121.92Y-302.26
X121.92Y-320.04
X121.92Y-325.12
X124.46Y0.0
X124.46Y-5.08
X124.46Y-22.86
X124.46Y-27.94
X124.46Y-45.72
X124.46Y-50.8
X124.46Y-68.58
X124.46Y-73.66
X124.46Y-91.44
X124.46Y-96.52
X124.46Y-109.22
X124.46Y-114.3
X124.46Y-119.38
X124.46Y-137.16
X124.46Y-142.24
X124.46Y-147.32
X124.46Y-160.02
X124.46Y-165.1
X124.46Y-182.88
X124.46Y-187.96
X124.46Y-205.74
X124.46Y-210.82
X124.46Y-228.6
X124.46Y-233.68
X124.46Y-251.46
X124.46Y-256.54
X124.46Y-274.32
X124.46Y-279.4
X124.46Y-297.18
X124.46Y-302.26
X124.46Y-320.04
X124.46Y-325.12
X127.0Y0.0
X127.0Y-5.08
X127.0Y-22.86
X127.0Y-27.94
X127.0Y-45.72
X127.0Y-50.8
X127.0Y-68.58
X127.0Y-73.66
X127.0Y-91.44
X127.0Y-96.52
X127.0Y-109.22
X127.0Y-114.3
X127.0Y-119.38
X127.0Y-137.16
X127.0Y-142.24
X127.0Y-147.32
X127.0Y-160.02
X127.0Y-165.1
X127.0Y-182.88
X127.0Y-187.96
X127.0Y-205.74
X127.0Y-210.82
X127.0Y-228.6
X127.0Y-233.68
X127.0Y-251.46
X127.0Y-256.54
X127.0Y-274.32
X127.0Y-279.4
X127.0Y-297.18
X127.0Y-302.26
X127.0Y-320.04
X127.0Y-325.12
X129.54Y-210.82
X129.54Y0.0
X129.54Y-5.08
X129.54Y-22.86
X129.54Y-27.94
X129.54Y-45.72
X129.54Y-50.8
X129.54Y-68.58
X129.54Y-73.66
X129.54Y-91.44
X129.54Y-96.52
X129.54Y-114.3
X129.54Y-119.38
X129.54Y-137.16
X129.54Y-142.24
X129.54Y-160.02
X129.54Y-165.1
X129.54Y-182.88
X129.54Y-187.96
X129.54Y-205.74
X129.54Y-228.6
X129.54Y-233.68
X129.54Y-251.46
X129.54Y-256.54
X129.54Y-274.32
X129.54Y-279.4
X129.54Y-297.18
X129.54Y-302.26
X129.54Y-320.04
X129.54Y-325.12
X144.78Y-71.12
X144.78Y-86.36
X144.78Y-92.71
X144.78Y-107.95
X144.78Y-200.66
X144.78Y-215.9
X144.78Y-231.14
X144.78Y-246.38
X144.78Y-254.0
X144.78Y-269.24
X147.32Y-15.24
X147.32Y-38.1
X147.32Y-71.12
X147.32Y-86.36
X147.32Y-92.71
X147.32Y-107.95
X147.32Y-125.73
X147.32Y-148.59
X147.32Y-200.66
X147.32Y-215.9
X147.32Y-231.14
X147.32Y-246.38
X147.32Y-254.0
X147.32Y-269.24
X149.86Y-15.24
X149.86Y-38.1
X149.86Y-71.12
X149.86Y-86.36
X149.86Y-92.71
X149.86Y-107.95
X149.86Y-125.73
X149.86Y-148.59
X149.86Y-200.66
X149.86Y-215.9
X149.86Y-231.14
X149.86Y-246.38
X149.86Y-254.0
X149.86Y-269.24
X152.4Y-15.24
X152.4Y-38.1
X152.4Y-71.12
X152.4Y-86.36
X152.4Y-92.71
X152.4Y-107.95
X152.4Y-125.73
X152.4Y-148.59
X152.4Y-165.61
X152.4Y-180.85
X152.4Y-200.66
X152.4Y-215.9
X152.4Y-231.14
X152.4Y-246.38
X152.4Y-254.0
X152.4Y-269.24
X154.94Y-15.24
X154.94Y-38.1
X154.94Y-71.12
X154.94Y-86.36
X154.94Y-92.71
X154.94Y-107.95
X154.94Y-125.73
X154.94Y-148.59
X154.94Y-165.61
X154.94Y-180.85
X154.94Y-200.66
X154.94Y-215.9
X154.94Y-231.14
X154.94Y-246.38
X154.94Y-254.0
X154.94Y-269.24
X156.845Y-45.593
X156.845Y-50.673
X156.845Y-114.173
X156.845Y-119.253
X156.845Y-274.193
X156.845Y-279.273
X157.48Y-15.24
X157.48Y-38.1
X157.48Y-71.12
X157.48Y-86.36
X157.48Y-92.71
X157.48Y-107.95
X157.48Y-125.73
X157.48Y-148.59
X157.48Y-165.61
X157.48Y-180.85
X157.48Y-200.66
X157.48Y-215.9
X157.48Y-231.14
X157.48Y-246.38
X157.48Y-254.0
X157.48Y-269.24
X157.48Y-299.72
X157.48Y-322.58
X159.385Y-45.593
X159.385Y-50.673
X159.385Y-114.173
X159.385Y-119.253
X159.385Y-274.193
X159.385Y-279.273
X160.02Y-15.24
X160.02Y-38.1
X160.02Y-71.12
X160.02Y-86.36
X160.02Y-92.71
X160.02Y-107.95
X160.02Y-125.73
X160.02Y-148.59
X160.02Y-165.61
X160.02Y-180.85
X160.02Y-200.66
X160.02Y-215.9
X160.02Y-231.14
X160.02Y-246.38
X160.02Y-254.0
X160.02Y-269.24
X160.02Y-299.72
X160.02Y-322.58
X161.925Y-45.593
X161.925Y-50.673
X161.925Y-114.173
X161.925Y-119.253
X161.925Y-274.193
X161.925Y-279.273
X162.56Y-15.24
X162.56Y-38.1
X162.56Y-71.12
X162.56Y-86.36
X162.56Y-92.71
X162.56Y-107.95
X162.56Y-125.73
X162.56Y-148.59
X162.56Y-165.61
X162.56Y-180.85
X162.56Y-200.66
X162.56Y-215.9
X162.56Y-231.14
X162.56Y-246.38
X162.56Y-254.0
X162.56Y-269.24
X162.56Y-299.72
X162.56Y-322.58
X164.465Y-45.593
X164.465Y-50.673
X164.465Y-114.173
X164.465Y-119.253
X164.465Y-274.193
X164.465Y-279.273
X165.1Y-15.24
X165.1Y-38.1
X165.1Y-71.12
X165.1Y-86.36
X165.1Y-92.71
X165.1Y-107.95
X165.1Y-125.73
X165.1Y-148.59
X165.1Y-165.61
X165.1Y-180.85
X165.1Y-200.66
X165.1Y-215.9
X165.1Y-231.14
X165.1Y-246.38
X165.1Y-254.0
X165.1Y-269.24
X165.1Y-299.72
X165.1Y-322.58
X167.005Y-45.593
X167.005Y-50.673
X167.005Y-114.173
X167.005Y-119.253
X167.005Y-274.193
X167.005Y-279.273
X167.64Y-15.24
X167.64Y-38.1
X167.64Y-71.12
X167.64Y-86.36
X167.64Y-92.71
X167.64Y-107.95
X167.64Y-125.73
X167.64Y-148.59
X167.64Y-165.61
X167.64Y-180.85
X167.64Y-200.66
X167.64Y-215.9
X167.64Y-231.14
X167.64Y-246.38
X167.64Y-254.0
X167.64Y-269.24
X167.64Y-299.72
X167.64Y-322.58
X169.545Y-45.593
X169.545Y-50.673
X169.545Y-114.173
X169.545Y-119.253
X169.545Y-274.193
X169.545Y-279.273
X170.18Y-15.24
X170.18Y-38.1
X170.18Y-71.12
X170.18Y-86.36
X170.18Y-92.71
X170.18Y-107.95
X170.18Y-125.73
X170.18Y-148.59
X170.18Y-165.61
X170.18Y-180.85
X170.18Y-200.66
X170.18Y-215.9
X170.18Y-231.14
X170.18Y-246.38
X170.18Y-254.0
X170.18Y-269.24
X170.18Y-299.72
X170.18Y-322.58
X172.085Y-45.593
X172.085Y-50.673
X172.085Y-114.173
X172.085Y-119.253
X172.085Y-274.193
X172.085Y-279.273
X172.72Y-15.24
X172.72Y-38.1
X172.72Y-71.12
X172.72Y-86.36
X172.72Y-92.71
X172.72Y-107.95
X172.72Y-125.73
X172.72Y-148.59
X172.72Y-165.61
X172.72Y-180.85
X172.72Y-200.66
X172.72Y-215.9
X172.72Y-231.14
X172.72Y-246.38
X172.72Y-254.0
X172.72Y-269.24
X172.72Y-299.72
X172.72Y-322.58
X174.625Y-45.593
X174.625Y-50.673
X174.625Y-114.173
X174.625Y-119.253
X174.625Y-274.193
X174.625Y-279.273
X175.26Y-15.24
X175.26Y-38.1
X175.26Y-71.12
X175.26Y-86.36
X175.26Y-92.71
X175.26Y-107.95
X175.26Y-125.73
X175.26Y-148.59
X175.26Y-165.61
X175.26Y-180.85
X175.26Y-200.66
X175.26Y-215.9
X175.26Y-231.14
X175.26Y-246.38
X175.26Y-254.0
X175.26Y-269.24
X175.26Y-299.72
X175.26Y-322.58
X177.165Y-45.593
X177.165Y-50.673
X177.165Y-114.173
X177.165Y-119.253
X177.165Y-274.193
X177.165Y-279.273
X177.8Y-15.24
X177.8Y-38.1
X177.8Y-71.12
X177.8Y-86.36
X177.8Y-92.71
X177.8Y-107.95
X177.8Y-125.73
X177.8Y-148.59
X177.8Y-165.61
X177.8Y-180.85
X177.8Y-200.66
X177.8Y-215.9
X177.8Y-231.14
X177.8Y-246.38
X177.8Y-254.0
X177.8Y-269.24
X177.8Y-299.72
X177.8Y-322.58
X179.705Y-45.593
X179.705Y-50.673
X179.705Y-114.173
X179.705Y-119.253
X179.705Y-274.193
X179.705Y-279.273
X180.34Y-15.24
X180.34Y-38.1
X180.34Y-71.12
X180.34Y-86.36
X180.34Y-92.71
X180.34Y-107.95
X180.34Y-125.73
X180.34Y-148.59
X180.34Y-165.61
X180.34Y-180.85
X180.34Y-200.66
X180.34Y-215.9
X180.34Y-231.14
X180.34Y-246.38
X180.34Y-254.0
X180.34Y-269.24
X180.34Y-299.72
X180.34Y-322.58
X182.245Y-45.593
X182.245Y-50.673
X182.245Y-114.173
X182.245Y-119.253
X182.245Y-274.193
X182.245Y-279.273
X182.88Y-15.24
X182.88Y-38.1
X182.88Y-71.12
X182.88Y-86.36
X182.88Y-92.71
X182.88Y-107.95
X182.88Y-125.73
X182.88Y-148.59
X182.88Y-165.61
X182.88Y-180.85
X182.88Y-200.66
X182.88Y-215.9
X182.88Y-231.14
X182.88Y-246.38
X182.88Y-254.0
X182.88Y-269.24
X182.88Y-299.72
X182.88Y-322.58
X184.785Y-45.593
X184.785Y-50.673
X184.785Y-114.173
X184.785Y-119.253
X184.785Y-274.193
X184.785Y-279.273
X185.42Y-15.24
X185.42Y-38.1
X185.42Y-71.12
X185.42Y-86.36
X185.42Y-92.71
X185.42Y-107.95
X185.42Y-125.73
X185.42Y-148.59
X185.42Y-165.61
X185.42Y-180.85
X185.42Y-200.66
X185.42Y-215.9
X185.42Y-231.14
X185.42Y-246.38
X185.42Y-299.72
X185.42Y-322.58
X187.325Y-45.593
X187.325Y-50.673
X187.325Y-114.173
X187.325Y-119.253
X187.325Y-274.193
X187.325Y-279.273
X187.96Y-71.12
X187.96Y-86.36
X187.96Y-92.71
X187.96Y-107.95
X187.96Y-165.61
X187.96Y-180.85
X187.96Y-200.66
X187.96Y-215.9
X187.96Y-231.14
X187.96Y-246.38
X187.96Y-299.72
X187.96Y-322.58
X189.865Y-45.593
X189.865Y-50.673
X189.865Y-114.173
X189.865Y-119.253
X189.865Y-274.193
X189.865Y-279.273
X190.5Y-71.12
X190.5Y-86.36
X190.5Y-92.71
X190.5Y-107.95
X190.5Y-165.61
X190.5Y-180.85
X190.5Y-200.66
X190.5Y-215.9
X190.5Y-231.14
X190.5Y-246.38
X190.5Y-299.72
X190.5Y-322.58
X192.405Y-45.593
X192.405Y-50.673
X192.405Y-114.173
X192.405Y-119.253
X192.405Y-274.193
X192.405Y-279.273
X193.04Y-71.12
X193.04Y-86.36
X193.04Y-92.71
X193.04Y-107.95
X193.04Y-165.61
X193.04Y-180.85
X193.04Y-200.66
X193.04Y-215.9
X193.04Y-231.14
X193.04Y-246.38
X193.04Y-299.72
X193.04Y-322.58
X194.945Y-45.593
X194.945Y-50.673
X194.945Y-114.173
X194.945Y-119.253
X194.945Y-274.193
X194.945Y-279.273
X195.58Y-71.12
X195.58Y-86.36
X195.58Y-165.61
X195.58Y-180.85
X195.58Y-200.66
X195.58Y-215.9
X195.58Y-231.14
X195.58Y-246.38
X195.58Y-299.72
X195.58Y-322.58
X197.485Y-45.593
X197.485Y-50.673
X197.485Y-114.173
X197.485Y-119.253
X197.485Y-274.193
X197.485Y-279.273
X198.12Y-20.32
X198.12Y-35.56
X198.12Y-71.12
X198.12Y-86.36
X198.12Y-165.61
X198.12Y-180.85
X198.12Y-200.66
X198.12Y-215.9
X198.12Y-231.14
X198.12Y-246.38
X200.025Y-45.593
X200.025Y-50.673
X200.025Y-114.173
X200.025Y-119.253
X200.025Y-274.193
X200.025Y-279.273
X200.66Y-20.32
X200.66Y-35.56
X200.66Y-71.12
X200.66Y-86.36
X200.66Y-125.73
X200.66Y-148.59
X200.66Y-165.61
X200.66Y-180.85
X200.66Y-200.66
X200.66Y-215.9
X200.66Y-231.14
X200.66Y-246.38
X203.2Y-20.32
X203.2Y-35.56
X203.2Y-71.12
X203.2Y-86.36
X203.2Y-125.73
X203.2Y-148.59
X203.2Y-165.61
X203.2Y-180.85
X203.2Y-200.66
X203.2Y-215.9
X203.2Y-231.14
X203.2Y-246.38
X205.74Y-20.32
X205.74Y-35.56
X205.74Y-71.12
X205.74Y-86.36
X205.74Y-125.73
X205.74Y-148.59
X205.74Y-165.61
X205.74Y-180.85
X205.74Y-200.66
X205.74Y-215.9
X205.74Y-231.14
X205.74Y-246.38
X208.28Y-20.32
X208.28Y-35.56
X208.28Y-71.12
X208.28Y-86.36
X208.28Y-125.73
X208.28Y-148.59
X208.28Y-165.61
X208.28Y-180.85
X208.28Y-200.66
X208.28Y-215.9
X208.28Y-231.14
X208.28Y-246.38
X210.82Y-20.32
X210.82Y-35.56
X210.82Y-71.12
X210.82Y-86.36
X210.82Y-125.73
X210.82Y-148.59
X210.82Y-165.61
X210.82Y-180.85
X210.82Y-200.66
X210.82Y-215.9
X210.82Y-231.14
X210.82Y-246.38
X210.82Y-299.72
X210.82Y-322.58
X213.36Y-20.32
X213.36Y-35.56
X213.36Y-71.12
X213.36Y-86.36
X213.36Y-125.73
X213.36Y-148.59
X213.36Y-165.61
X213.36Y-180.85
X213.36Y-200.66
X213.36Y-215.9
X213.36Y-231.14
X213.36Y-246.38
X213.36Y-299.72
X213.36Y-322.58
X215.9Y-20.32
X215.9Y-35.56
X215.9Y-125.73
X215.9Y-148.59
X215.9Y-165.61
X215.9Y-180.85
X215.9Y-299.72
X215.9Y-322.58
X218.44Y-20.32
X218.44Y-35.56
X218.44Y-125.73
X218.44Y-148.59
X218.44Y-165.61
X218.44Y-180.85
X218.44Y-299.72
X218.44Y-322.58
X220.98Y-20.32
X220.98Y-35.56
X220.98Y-125.73
X220.98Y-148.59
X220.98Y-165.61
X220.98Y-180.85
X220.98Y-299.72
X220.98Y-322.58
X223.52Y-20.32
X223.52Y-35.56
X223.52Y-125.73
X223.52Y-148.59
X223.52Y-299.72
X223.52Y-322.58
X226.06Y-20.32
X226.06Y-35.56
X226.06Y-42.545
X226.06Y-65.405
X226.06Y-72.39
X226.06Y-118.11
X226.06Y-125.73
X226.06Y-148.59
X226.06Y-208.28
X226.06Y-236.22
X226.06Y-243.84
X226.06Y-289.56
X226.06Y-299.72
X226.06Y-322.58
X228.6Y-20.32
X228.6Y-35.56
X228.6Y-42.545
X228.6Y-65.405
X228.6Y-72.39
X228.6Y-118.11
X228.6Y-125.73
X228.6Y-148.59
X228.6Y-208.28
X228.6Y-236.22
X228.6Y-243.84
X228.6Y-289.56
X228.6Y-299.72
X228.6Y-322.58
X231.14Y-20.32
X231.14Y-35.56
X231.14Y-42.545
X231.14Y-65.405
X231.14Y-72.39
X231.14Y-118.11
X231.14Y-125.73
X231.14Y-148.59
X231.14Y-208.28
X231.14Y-236.22
X231.14Y-243.84
X231.14Y-289.56
X231.14Y-299.72
X231.14Y-322.58
X233.68Y-20.32
X233.68Y-35.56
X233.68Y-42.545
X233.68Y-65.405
X233.68Y-72.39
X233.68Y-118.11
X233.68Y-125.73
X233.68Y-148.59
X233.68Y-208.28
X233.68Y-236.22
X233.68Y-243.84
X233.68Y-289.56
X233.68Y-299.72
X233.68Y-322.58
X236.22Y-20.32
X236.22Y-35.56
X236.22Y-42.545
X236.22Y-65.405
X236.22Y-72.39
X236.22Y-118.11
X236.22Y-125.73
X236.22Y-148.59
X236.22Y-208.28
X236.22Y-236.22
X236.22Y-243.84
X236.22Y-289.56
X236.22Y-299.72
X236.22Y-322.58
X238.76Y-42.545
X238.76Y-65.405
X238.76Y-72.39
X238.76Y-118.11
X238.76Y-125.73
X238.76Y-148.59
X238.76Y-208.28
X238.76Y-236.22
X238.76Y-243.84
X238.76Y-289.56
X238.76Y-299.72
X238.76Y-322.58
X241.3Y-42.545
X241.3Y-65.405
X241.3Y-72.39
X241.3Y-118.11
X241.3Y-125.73
X241.3Y-148.59
X241.3Y-208.28
X241.3Y-236.22
X241.3Y-243.84
X241.3Y-289.56
X241.3Y-299.72
X241.3Y-322.58
X243.84Y-42.545
X243.84Y-65.405
X243.84Y-72.39
X243.84Y-118.11
X243.84Y-125.73
X243.84Y-148.59
X243.84Y-208.28
X243.84Y-236.22
X243.84Y-243.84
X243.84Y-289.56
X243.84Y-299.72
X243.84Y-322.58
X246.38Y-42.545
X246.38Y-65.405
X246.38Y-72.39
X246.38Y-118.11
X246.38Y-125.73
X246.38Y-148.59
X246.38Y-208.28
X246.38Y-236.22
X246.38Y-243.84
X246.38Y-289.56
X246.38Y-299.72
X246.38Y-322.58
X248.92Y-42.545
X248.92Y-65.405
X248.92Y-72.39
X248.92Y-118.11
X248.92Y-125.73
X248.92Y-148.59
X248.92Y-186.69
X248.92Y-189.23
X248.92Y-191.77
X248.92Y-208.28
X248.92Y-236.22
X248.92Y-243.84
X248.92Y-289.56
X248.92Y-299.72
X248.92Y-322.58
X251.46Y-42.545
X251.46Y-65.405
X251.46Y-72.39
X251.46Y-118.11
X251.46Y-125.73
X251.46Y-148.59
X251.46Y-186.69
X251.46Y-189.23
X251.46Y-191.77
X251.46Y-208.28
X251.46Y-236.22
X251.46Y-243.84
X251.46Y-289.56
X251.46Y-299.72
X251.46Y-322.58
X254.0Y-42.545
X254.0Y-65.405
X254.0Y-72.39
X254.0Y-118.11
X254.0Y-125.73
X254.0Y-148.59
X254.0Y-208.28
X254.0Y-236.22
X254.0Y-243.84
X254.0Y-289.56
X254.0Y-299.72
X254.0Y-322.58
X256.54Y-72.39
X256.54Y-118.11
X256.54Y-125.73
X256.54Y-148.59
X256.54Y-208.28
X256.54Y-236.22
X256.54Y-243.84
X256.54Y-289.56
X256.54Y-299.72
X256.54Y-322.58
X257.764Y-175.26
X259.08Y-72.39
X259.08Y-118.11
X259.08Y-125.73
X259.08Y-148.59
X259.08Y-208.28
X259.08Y-236.22
X259.08Y-243.84
X259.08Y-289.56
X259.08Y-299.72
X259.08Y-322.58
X260.304Y-175.26
X261.62Y-72.39
X261.62Y-118.11
X261.62Y-125.73
X261.62Y-148.59
X261.62Y-208.28
X261.62Y-236.22
X261.62Y-243.84
X261.62Y-289.56
X264.16Y-72.39
X264.16Y-118.11
X264.16Y-125.73
X264.16Y-148.59
X264.16Y-208.28
X264.16Y-236.22
X264.16Y-243.84
X264.16Y-289.56
X266.7Y-125.73
X266.7Y-148.59
X266.7Y-208.28
X266.7Y-236.22
X266.7Y-243.84
X266.7Y-289.56
X269.24Y-125.73
X269.24Y-148.59
X269.24Y-208.28
X269.24Y-236.22
X269.24Y-243.84
X269.24Y-289.56
X271.78Y-208.28
X271.78Y-236.22
X271.78Y-243.84
X271.78Y-289.56
X273.004Y-185.42
X273.004Y-191.92
X273.004Y-196.7
X273.004Y-203.2
X274.32Y-208.28
X274.32Y-236.22
X274.32Y-243.84
X274.32Y-289.56
X277.504Y-185.42
X277.504Y-196.7
X277.504Y-203.2
X277.504Y-191.92
T5
X265.384Y-172.61
X265.384Y-177.91
T6
X-23.98Y-172.72
X-20.98Y-177.42
T7
X-17.78Y-172.72
T8
X-24.765Y-2.54
X-24.765Y-25.4
X-24.765Y-48.26
X-24.765Y-71.12
X-24.765Y-93.98
X-24.765Y-116.205
X-24.765Y-139.7
X-24.765Y-162.56
X-24.765Y-185.42
X-24.765Y-208.28
X-24.765Y-231.14
X-24.765Y-254.0
X-24.765Y-276.86
X-24.765Y-299.72
X-24.765Y-322.58
X-12.7Y-2.54
X-12.7Y-162.56
X-12.7Y-322.58
X144.78Y-2.54
X144.78Y-162.56
X144.78Y-322.997
X279.4Y-2.54
X279.4Y-162.56
X279.4Y-322.58
M30
