%TF.GenerationSoftware,KiCad,Pcbnew,8.0.3*%
%TF.CreationDate,2024-07-03T10:05:51+02:00*%
%TF.ProjectId,SD Card Read Signals,53442043-6172-4642-9052-656164205369,V1*%
%TF.SameCoordinates,PX525bfc0PY43d3480*%
%TF.FileFunction,Soldermask,Top*%
%TF.FilePolarity,Negative*%
%FSLAX46Y46*%
G04 Gerber Fmt 4.6, Leading zero omitted, Abs format (unit mm)*
G04 Created by KiCad (PCBNEW 8.0.3) date 2024-07-03 10:05:51*
%MOMM*%
%LPD*%
G01*
G04 APERTURE LIST*
G04 Aperture macros list*
%AMRoundRect*
0 Rectangle with rounded corners*
0 $1 Rounding radius*
0 $2 $3 $4 $5 $6 $7 $8 $9 X,Y pos of 4 corners*
0 Add a 4 corners polygon primitive as box body*
4,1,4,$2,$3,$4,$5,$6,$7,$8,$9,$2,$3,0*
0 Add four circle primitives for the rounded corners*
1,1,$1+$1,$2,$3*
1,1,$1+$1,$4,$5*
1,1,$1+$1,$6,$7*
1,1,$1+$1,$8,$9*
0 Add four rect primitives between the rounded corners*
20,1,$1+$1,$2,$3,$4,$5,0*
20,1,$1+$1,$4,$5,$6,$7,0*
20,1,$1+$1,$6,$7,$8,$9,0*
20,1,$1+$1,$8,$9,$2,$3,0*%
G04 Aperture macros list end*
%ADD10RoundRect,0.250000X-0.250000X-0.475000X0.250000X-0.475000X0.250000X0.475000X-0.250000X0.475000X0*%
%ADD11R,1.150000X0.600000*%
%ADD12R,1.450000X0.450000*%
%ADD13RoundRect,0.250000X0.250000X0.475000X-0.250000X0.475000X-0.250000X-0.475000X0.250000X-0.475000X0*%
%ADD14RoundRect,0.250000X0.475000X-0.250000X0.475000X0.250000X-0.475000X0.250000X-0.475000X-0.250000X0*%
%ADD15R,1.475000X0.450000*%
%ADD16RoundRect,0.400000X-0.400000X-0.400000X0.400000X-0.400000X0.400000X0.400000X-0.400000X0.400000X0*%
%ADD17O,1.600000X1.600000*%
%ADD18R,1.600000X1.600000*%
%ADD19RoundRect,0.250000X-0.475000X0.250000X-0.475000X-0.250000X0.475000X-0.250000X0.475000X0.250000X0*%
G04 APERTURE END LIST*
D10*
%TO.C,C4*%
X5416000Y-30099000D03*
X7316000Y-30099000D03*
%TD*%
D11*
%TO.C,IC45*%
X15464000Y-39690000D03*
X15464000Y-40640000D03*
X15464000Y-41590000D03*
X18064000Y-41590000D03*
X18064000Y-39690000D03*
%TD*%
D12*
%TO.C,IC4*%
X12442000Y-6996000D03*
X12442000Y-7646000D03*
X12442000Y-8296000D03*
X12442000Y-8946000D03*
X12442000Y-9596000D03*
X12442000Y-10246000D03*
X12442000Y-10896000D03*
X12442000Y-11546000D03*
X18292000Y-11546000D03*
X18292000Y-10896000D03*
X18292000Y-10246000D03*
X18292000Y-9596000D03*
X18292000Y-8946000D03*
X18292000Y-8296000D03*
X18292000Y-7646000D03*
X18292000Y-6996000D03*
%TD*%
D10*
%TO.C,C5*%
X6432000Y-20701000D03*
X8332000Y-20701000D03*
%TD*%
D13*
%TO.C,C11*%
X17952000Y-5461000D03*
X16052000Y-5461000D03*
%TD*%
D14*
%TO.C,C3*%
X13081000Y-41574000D03*
X13081000Y-39674000D03*
%TD*%
D15*
%TO.C,IC5*%
X4682000Y-37420000D03*
X4682000Y-38070000D03*
X4682000Y-38720000D03*
X4682000Y-39370000D03*
X4682000Y-40020000D03*
X4682000Y-40670000D03*
X4682000Y-41320000D03*
X10558000Y-41320000D03*
X10558000Y-40670000D03*
X10558000Y-40020000D03*
X10558000Y-39370000D03*
X10558000Y-38720000D03*
X10558000Y-38070000D03*
X10558000Y-37420000D03*
%TD*%
D16*
%TO.C,J8*%
X0Y0D03*
D17*
X0Y-2540000D03*
X0Y-5080000D03*
X0Y-7620000D03*
D18*
X0Y-10160000D03*
D17*
X0Y-12700000D03*
X0Y-15240000D03*
X0Y-17780000D03*
X0Y-20320000D03*
X0Y-22860000D03*
X0Y-25400000D03*
D18*
X0Y-27940000D03*
D17*
X0Y-30480000D03*
X0Y-33020000D03*
X0Y-35560000D03*
X0Y-38100000D03*
D16*
X22860000Y-38100000D03*
D17*
X22860000Y-35560000D03*
X22860000Y-33020000D03*
X22860000Y-30480000D03*
D18*
X22860000Y-27940000D03*
D17*
X22860000Y-25400000D03*
X22860000Y-22860000D03*
X22860000Y-20320000D03*
X22860000Y-17780000D03*
X22860000Y-15240000D03*
X22860000Y-12700000D03*
D18*
X22860000Y-10160000D03*
D17*
X22860000Y-7620000D03*
X22860000Y-5080000D03*
X22860000Y-2540000D03*
X22860000Y0D03*
%TD*%
D15*
%TO.C,IC1*%
X9127000Y2966000D03*
X9127000Y2316000D03*
X9127000Y1666000D03*
X9127000Y1016000D03*
X9127000Y366000D03*
X9127000Y-284000D03*
X9127000Y-934000D03*
X15003000Y-934000D03*
X15003000Y-284000D03*
X15003000Y366000D03*
X15003000Y1016000D03*
X15003000Y1666000D03*
X15003000Y2316000D03*
X15003000Y2966000D03*
%TD*%
D14*
%TO.C,C2*%
X20447000Y-41574000D03*
X20447000Y-39674000D03*
%TD*%
D15*
%TO.C,IC8*%
X11066000Y-28239000D03*
X11066000Y-27589000D03*
X11066000Y-26939000D03*
X11066000Y-26289000D03*
X11066000Y-25639000D03*
X11066000Y-24989000D03*
X11066000Y-24339000D03*
X5190000Y-24339000D03*
X5190000Y-24989000D03*
X5190000Y-25639000D03*
X5190000Y-26289000D03*
X5190000Y-26939000D03*
X5190000Y-27589000D03*
X5190000Y-28239000D03*
%TD*%
D19*
%TO.C,C10*%
X17018000Y3093000D03*
X17018000Y1193000D03*
%TD*%
D15*
%TO.C,IC2*%
X12937000Y-31451000D03*
X12937000Y-32101000D03*
X12937000Y-32751000D03*
X12937000Y-33401000D03*
X12937000Y-34051000D03*
X12937000Y-34701000D03*
X12937000Y-35351000D03*
X18813000Y-35351000D03*
X18813000Y-34701000D03*
X18813000Y-34051000D03*
X18813000Y-33401000D03*
X18813000Y-32751000D03*
X18813000Y-32101000D03*
X18813000Y-31451000D03*
%TD*%
D13*
%TO.C,C9*%
X9697000Y-4191000D03*
X7797000Y-4191000D03*
%TD*%
D12*
%TO.C,IC6*%
X4202000Y-5722000D03*
X4202000Y-6372000D03*
X4202000Y-7022000D03*
X4202000Y-7672000D03*
X4202000Y-8322000D03*
X4202000Y-8972000D03*
X4202000Y-9622000D03*
X4202000Y-10272000D03*
X10052000Y-10272000D03*
X10052000Y-9622000D03*
X10052000Y-8972000D03*
X10052000Y-8322000D03*
X10052000Y-7672000D03*
X10052000Y-7022000D03*
X10052000Y-6372000D03*
X10052000Y-5722000D03*
%TD*%
D13*
%TO.C,C6*%
X18587000Y-29591000D03*
X16687000Y-29591000D03*
%TD*%
D15*
%TO.C,IC3*%
X12082000Y-18841000D03*
X12082000Y-18191000D03*
X12082000Y-17541000D03*
X12082000Y-16891000D03*
X12082000Y-16241000D03*
X12082000Y-15591000D03*
X12082000Y-14941000D03*
X6206000Y-14941000D03*
X6206000Y-15591000D03*
X6206000Y-16241000D03*
X6206000Y-16891000D03*
X6206000Y-17541000D03*
X6206000Y-18191000D03*
X6206000Y-18841000D03*
%TD*%
D13*
%TO.C,C1*%
X10459000Y-35560000D03*
X8559000Y-35560000D03*
%TD*%
M02*
