M48
; DRILL file {KiCad 9.0.2} date 2025-06-20T12:07:45+0200
; FORMAT={-:-/ absolute / inch / decimal}
; #@! TF.CreationDate,2025-06-20T12:07:45+02:00
; #@! TF.GenerationSoftware,Kicad,Pcbnew,9.0.2
; #@! TF.FileFunction,Plated,1,2,PTH
FMAT,2
INCH
; #@! TA.AperFunction,Plated,PTH,ViaDrill
T1C0.0157
; #@! TA.AperFunction,Plated,PTH,ComponentDrill
T2C0.0295
; #@! TA.AperFunction,Plated,PTH,ViaDrill
T3C0.0394
; #@! TA.AperFunction,Plated,PTH,ComponentDrill
T4C0.0394
; #@! TA.AperFunction,Plated,PTH,ComponentDrill
T5C0.1260
%
G90
G05
T1
X-0.85Y3.295
X-0.82Y0.3881
X-0.8092Y3.165
X-0.7766Y2.5115
X-0.744Y3.258
X-0.7258Y4.2
X-0.55Y2.145
X-0.51Y3.045
X-0.5Y1.5
X-0.4771Y3.0984
X-0.4272Y2.4
X-0.3976Y3.14
X-0.3681Y3.55
X-0.3386Y3.7
X-0.3386Y2.7
X-0.31Y4.05
X-0.3091Y2.6463
X-0.28Y3.85
X-0.2786Y2.2124
X-0.2491Y2.855
X-0.22Y4.3086
X-0.2195Y2.74
X-0.19Y4.4
X-0.16Y2.82
X-0.15Y3.2
X-0.025Y1.8
X0.015Y5.0
X0.1Y1.1716
X0.145Y4.5065
X0.1676Y2.775
X0.175Y4.735
X0.195Y1.7
X0.195Y1.46
X0.2Y0.24
X0.2111Y3.4016
X0.235Y1.495
X0.245Y3.95
X0.2741Y3.8006
X0.3Y0.3636
X0.3036Y2.9
X0.32Y4.0014
X0.335Y3.23
X0.36Y5.065
X0.365Y1.3023
X0.37Y3.1
X0.4Y0.365
X0.405Y4.15
X0.405Y2.3
X0.4131Y4.7
X0.4327Y1.1203
X0.4343Y2.2
X0.445Y4.0
X0.4729Y2.6939
X0.49Y5.065
X0.4917Y3.0732
X0.495Y1.005
X0.5Y0.365
X0.525Y3.95
X0.54Y4.7085
X0.55Y1.625
X0.555Y2.95
X0.565Y3.85
X0.5905Y2.0
X0.5905Y1.445
X0.6Y4.25
X0.6Y0.855
X0.61Y5.065
X0.665Y5.065
X0.7Y5.1079
X0.7Y1.31
X0.7Y0.365
X0.7658Y3.5603
X0.775Y4.25
X0.78Y1.85
X0.785Y1.74
X0.8Y0.825
X0.8099Y3.4894
X0.825Y3.8
X0.84Y4.85
X0.845Y3.35
X0.85Y3.2
X0.8765Y3.7631
X0.895Y5.7
X0.9Y0.365
X0.9254Y2.925
X0.93Y2.75
X0.9303Y3.4883
X0.9602Y4.2
X0.9668Y4.1247
X0.9733Y4.435
X1.0Y0.795
X1.0Y0.365
X1.05Y4.0
X1.055Y1.28
X1.1Y3.9555
X1.1Y1.085
X1.1Y0.76
X1.13Y0.26
X1.1405Y4.55
X1.15Y3.8917
X1.16Y2.55
X1.16Y2.2836
X1.16Y1.8
X1.16Y1.485
X1.185Y4.25
X1.185Y3.75
X1.2Y1.25
X1.202Y0.4961
X1.25Y4.35
X1.2779Y0.515
X1.2923Y2.8073
X1.3Y0.24
X1.315Y4.75
X1.33Y2.645
X1.33Y1.695
X1.35Y5.05
X1.35Y4.85
X1.35Y1.485
X1.3833Y2.1844
X1.4Y0.73
X1.42Y4.0155
X1.43Y1.51
X1.4413Y2.0831
X1.445Y4.9
X1.455Y3.7071
X1.495Y0.7
X1.5306Y4.5016
X1.5334Y2.9177
X1.57Y2.84
X1.6485Y2.1265
X1.665Y1.78
X1.6693Y0.2377
X1.695Y3.67
X1.7Y0.3562
X1.74Y3.85
X1.765Y2.155
X1.785Y2.9472
X1.8Y2.45
X1.8Y0.195
X1.8169Y4.35
X1.85Y4.95
X1.855Y2.41
X1.895Y2.34
X1.895Y0.26
X1.9Y5.7295
X1.915Y6.05
X1.9218Y5.855
X1.94Y2.3
X1.95Y2.19
X1.9715Y3.05
X2.0155Y6.0846
X2.02Y1.3
X2.0355Y4.47
X2.0593Y1.4332
X2.065Y5.0
X2.0778Y0.245
X2.1Y5.655
X2.1Y4.625
X2.1Y3.1
X2.145Y4.25
X2.15Y3.0
X2.165Y1.485
X2.18Y5.895
X2.18Y4.1
X2.18Y1.8
X2.2Y0.5345
X2.2205Y1.9
X2.225Y4.3
X2.255Y3.3
X2.285Y3.8
X2.3Y0.505
X2.315Y4.4
X2.315Y3.9
X2.32Y4.595
X2.34Y4.94
X2.355Y4.83
X2.355Y4.5425
X2.4Y0.475
X2.415Y4.7047
X2.4747Y4.799
X2.4994Y4.9032
X2.5Y0.445
X2.5056Y4.0773
X2.5063Y4.4
X2.535Y5.08
X2.535Y3.4
X2.565Y3.68
X2.575Y0.665
X2.6Y4.045
X2.6Y0.415
X2.625Y3.0
X2.63Y3.755
X2.655Y0.385
X2.6562Y3.9
X2.658Y4.9653
X2.68Y2.35
X2.68Y1.25
X2.6857Y4.115
X2.7Y5.21
X2.73Y4.905
X2.75Y3.25
X2.8Y5.41
X2.8Y2.0534
X2.8367Y0.2164
X2.84Y2.25
X2.84Y1.54
X2.87Y2.575
X2.875Y1.25
X2.88Y3.695
X2.8875Y1.9139
X2.8919Y0.2365
X2.8924Y1.0012
X2.8995Y3.37
X2.9Y5.7833
X2.905Y3.77
X2.9155Y1.85
X2.94Y4.72
X2.94Y2.675
X2.9805Y2.705
X3.0Y5.7
X3.025Y0.33
X3.08Y5.215
X3.0805Y3.0807
X3.1Y5.73
X3.1Y4.4
X3.115Y0.38
X3.12Y4.7
X3.155Y4.61
X3.155Y4.5
X3.16Y0.3048
X3.2Y0.93
X3.25Y5.3227
X3.25Y4.575
X3.275Y2.7692
X3.28Y4.6516
X3.31Y4.82
X3.31Y3.2
X3.3338Y4.5
X3.34Y3.25
X3.35Y0.5449
X3.3525Y0.2319
X3.3716Y1.1816
X3.375Y4.9
X3.375Y4.25
X3.375Y4.15
X3.378Y2.1637
X3.4Y0.2045
X3.4234Y4.4232
X3.44Y4.3716
X3.45Y0.975
X3.45Y0.5449
X3.47Y3.1
X3.49Y3.6
X3.5Y1.2
X3.5Y0.205
X3.51Y3.0
X3.535Y2.815
X3.55Y2.74
X3.55Y1.15
X3.55Y0.5449
X3.59Y2.835
X3.6Y0.205
X3.615Y1.655
X3.65Y3.25
X3.65Y1.395
X3.655Y1.525
X3.675Y4.34
X3.6795Y2.1544
X3.6925Y3.593
X3.695Y1.4575
X3.7Y5.9
X3.71Y1.885
X3.75Y1.515
X3.7567Y3.7483
X3.8Y1.17
X3.83Y0.675
X3.84Y2.705
X3.84Y1.945
X3.84Y1.1495
X3.848Y3.3459
X3.8503Y0.1961
X3.86Y4.4415
X3.89Y0.9421
X3.9Y5.3227
X3.9Y0.305
X3.9072Y4.8977
X3.9248Y1.605
X3.9581Y0.23
X3.9787Y1.477
X3.99Y3.6414
X3.99Y1.3586
X4.0158Y0.3472
X4.02Y0.91
X4.03Y4.2
X4.03Y3.47
X4.0593Y0.2237
X4.09Y1.12
X4.11Y0.225
X4.1195Y1.036
X4.1516Y1.8534
X4.1755Y1.485
X4.19Y3.34
X4.19Y1.01
X4.1927Y1.751
X4.2051Y2.0506
X4.2205Y0.6559
X4.23Y4.6
X4.2347Y2.25
X4.235Y3.51
X4.2351Y2.6081
X4.2571Y0.5121
X4.2706Y0.7976
X4.2818Y3.3
X4.285Y0.24
X4.3075Y0.6855
X4.35Y4.455
X4.35Y4.6996
X4.375Y3.8
X4.395Y4.385
X4.395Y1.3
X4.395Y0.7119
X4.405Y3.4369
X4.415Y3.755
X4.4183Y0.2642
X4.4205Y0.609
X4.4281Y1.2189
X4.4345Y1.55
X4.435Y1.0999
X4.4427Y0.4838
X4.47Y0.92
X4.48Y3.86
X4.48Y3.7
X4.4861Y0.208
X4.5023Y0.5588
X4.51Y3.9
X4.515Y0.96
X4.5295Y0.2347
X4.55Y1.6571
X4.555Y1.1577
X4.58Y4.5443
X4.585Y1.5
X4.5875Y0.725
X4.5956Y0.2973
X4.6095Y4.35
X4.615Y4.04
X4.635Y2.35
X4.6391Y4.1517
X4.645Y3.995
X4.655Y0.48
X4.675Y2.51
X4.7Y0.825
X4.7018Y0.2165
X4.71Y2.47
X4.745Y0.985
X4.745Y0.8545
X4.7571Y3.3692
X4.7589Y0.3157
X4.7705Y0.21
X4.7841Y1.0585
X4.83Y0.445
X4.84Y0.885
X4.8409Y0.2227
X4.8445Y1.1234
X4.85Y5.0114
X4.8716Y0.3473
X4.9Y5.65
X4.9Y0.225
X4.915Y0.46
X4.9556Y0.79
X4.965Y1.255
X5.0Y3.7992
X5.0008Y0.5607
X5.0276Y0.2121
X5.03Y4.3
X5.0365Y1.7884
X5.065Y0.685
X5.1Y6.135
X5.1Y4.985
X5.115Y3.92
X5.1292Y4.1087
X5.1605Y2.6749
X5.195Y5.78
X5.1984Y1.1077
X5.225Y3.0849
X5.225Y1.405
X5.2441Y2.0145
X5.2851Y3.7
X5.2851Y1.7421
X5.325Y4.6
X5.325Y3.1
X5.39Y1.655
X5.39Y0.9
X5.44Y3.475
X5.44Y1.9
X5.55Y3.05
X5.5967Y0.9795
X5.6Y5.035
X5.63Y3.3
X5.6817Y3.2705
X5.72Y3.52
X5.725Y1.755
X5.795Y4.9434
X5.8572Y1.495
X5.895Y1.59
X5.9145Y4.01
X5.92Y3.9
X5.92Y3.5709
X5.9227Y2.0285
X5.9331Y1.627
X5.95Y0.575
X5.96Y3.65
X5.9895Y3.0
X6.015Y4.25
X6.0426Y1.2528
X6.046Y2.3995
X6.075Y2.8412
X6.0818Y1.75
X6.095Y0.6
X6.1044Y3.57
X6.11Y2.8108
X6.18Y2.465
X6.21Y2.51
X6.22Y0.27
X6.27Y5.77
X6.27Y3.45
X6.35Y3.24
X6.385Y3.155
X6.415Y4.975
X6.4417Y0.3409
X6.445Y4.5
X6.485Y3.6
X6.495Y2.805
X6.4958Y2.8715
X6.515Y4.3
X6.5301Y0.3139
X6.55Y4.9
X6.55Y4.25
X6.55Y3.55
X6.5889Y3.4
X6.59Y4.035
X6.6Y5.9
X6.605Y4.945
X6.6095Y2.3
X6.6095Y1.855
X6.615Y2.5
X6.615Y0.49
X6.6196Y2.9875
X6.62Y4.2
X6.64Y4.1
X6.665Y0.8442
X6.675Y3.72
X6.695Y0.645
X6.7295Y2.6302
X6.7321Y3.8007
X6.74Y3.9
X6.795Y0.47
X6.8405Y1.6
X6.8405Y1.4586
X6.865Y0.545
X6.87Y2.15
X6.875Y2.95
X6.9032Y2.25
X7.0Y5.235
X7.055Y4.45
X7.095Y4.25
X7.1093Y3.2989
X7.1205Y4.045
X7.155Y4.3
X7.2095Y4.0773
X7.245Y3.3415
X7.3Y4.3887
X7.465Y4.0
X7.465Y1.5
X7.51Y4.6
X7.51Y3.1
X7.56Y1.7
X7.64Y2.15
X7.645Y3.9421
X7.65Y0.65
X7.68Y2.355
X7.775Y3.85
X7.845Y2.559
X7.945Y2.045
T2
X0.95Y3.4
X0.95Y3.3
X0.95Y3.2
X0.95Y3.1
X0.95Y3.0
X1.05Y3.5
X1.05Y3.4
X1.05Y3.3
X1.05Y3.2
X1.05Y3.1
X1.05Y3.0
X1.05Y2.9
X1.15Y3.5
X1.15Y3.4
X1.15Y3.0
X1.15Y2.9
X1.25Y3.5
X1.25Y3.4
X1.25Y3.0
X1.25Y2.9
X1.35Y3.5
X1.35Y3.4
X1.35Y3.3
X1.35Y3.2
X1.35Y3.1
X1.35Y3.0
X1.35Y2.9
X1.45Y3.4
X1.45Y3.3
X1.45Y3.2
X1.45Y3.1
X1.45Y3.0
T3
X-1.03Y3.0
X-0.948Y3.75
X-0.5103Y-0.0367
X-0.51Y0.12
X0.05Y0.29
X0.595Y5.64
X0.84Y5.64
X1.35Y0.315
X2.73Y2.5
X2.73Y2.005
X2.73Y1.55
X2.73Y0.315
X3.245Y0.25
X3.3Y2.51
X4.1139Y2.51
X5.13Y0.22
X5.3Y1.2
T4
X-0.998Y0.3
X-0.898Y0.3
X-0.85Y1.2
X-0.85Y0.6
X-0.75Y1.2
X-0.75Y0.6
X-0.7Y4.85
X-0.7Y4.75
X-0.7Y4.65
X-0.7Y4.55
X-0.7Y4.45
X-0.7Y4.35
X-0.7Y4.25
X-0.7Y4.15
X-0.7Y4.05
X-0.7Y3.95
X-0.7Y3.85
X-0.7Y3.75
X-0.7Y3.65
X-0.7Y3.55
X-0.7Y3.45
X-0.7Y3.35
X-0.7Y3.0
X-0.7Y2.9
X-0.7Y2.8
X-0.7Y2.7
X-0.7Y2.6
X-0.7Y2.5
X-0.7Y2.4
X-0.7Y2.3
X-0.7Y2.2
X-0.7Y2.1
X-0.7Y2.0
X-0.7Y1.9
X-0.7Y1.8
X-0.7Y1.7
X-0.7Y1.6
X-0.7Y1.5
X-0.6767Y0.35
X-0.65Y1.2
X-0.65Y0.6
X-0.598Y0.35
X-0.55Y1.2
X-0.55Y0.6
X-0.45Y1.2
X-0.45Y0.6
X-0.448Y0.35
X-0.3693Y0.35
X-0.35Y1.2
X-0.35Y0.6
X-0.25Y1.2
X-0.25Y0.6
X-0.15Y1.2
X-0.15Y0.6
X-0.1Y4.85
X-0.1Y4.75
X-0.1Y4.65
X-0.1Y4.55
X-0.1Y4.45
X-0.1Y4.35
X-0.1Y4.25
X-0.1Y4.15
X-0.1Y4.05
X-0.1Y3.95
X-0.1Y3.85
X-0.1Y3.75
X-0.1Y3.65
X-0.1Y3.55
X-0.1Y3.45
X-0.1Y3.35
X-0.1Y3.0
X-0.1Y2.9
X-0.1Y2.8
X-0.1Y2.7
X-0.1Y2.6
X-0.1Y2.5
X-0.1Y2.4
X-0.1Y2.3
X-0.1Y2.2
X-0.1Y2.1
X-0.1Y2.0
X-0.1Y1.9
X-0.1Y1.8
X-0.1Y1.7
X-0.1Y1.6
X-0.1Y1.5
X-0.05Y1.2
X-0.05Y0.6
X0.05Y1.2
X0.05Y0.6
X0.1Y4.85
X0.1Y4.75
X0.1Y4.65
X0.1Y4.55
X0.1Y4.45
X0.1Y4.35
X0.1Y4.25
X0.1Y4.15
X0.1Y4.05
X0.1Y3.95
X0.1Y3.85
X0.1Y3.75
X0.1Y3.65
X0.1Y3.55
X0.1Y3.45
X0.1Y3.35
X0.1Y3.0
X0.1Y2.9
X0.1Y2.8
X0.1Y2.7
X0.1Y2.6
X0.1Y2.5
X0.1Y2.4
X0.1Y2.3
X0.1Y2.2
X0.1Y2.1
X0.1Y2.0
X0.1Y1.9
X0.1Y1.8
X0.1Y1.7
X0.1Y1.6
X0.1Y1.5
X0.15Y1.2
X0.15Y0.6
X0.25Y1.2
X0.25Y0.6
X0.35Y1.2
X0.35Y0.6
X0.45Y1.2
X0.45Y0.6
X0.55Y1.2
X0.55Y0.6
X0.65Y1.2
X0.65Y0.6
X0.7Y4.85
X0.7Y4.75
X0.7Y4.65
X0.7Y4.55
X0.7Y4.45
X0.7Y4.35
X0.7Y4.25
X0.7Y4.15
X0.7Y4.05
X0.7Y3.95
X0.7Y3.85
X0.7Y3.75
X0.7Y3.65
X0.7Y3.55
X0.7Y3.45
X0.7Y3.35
X0.7Y3.0
X0.7Y2.9
X0.7Y2.8
X0.7Y2.7
X0.7Y2.6
X0.7Y2.5
X0.7Y2.4
X0.7Y2.3
X0.7Y2.2
X0.7Y2.1
X0.7Y2.0
X0.7Y1.9
X0.7Y1.8
X0.7Y1.7
X0.7Y1.6
X0.7Y1.5
X0.75Y1.2
X0.75Y0.6
X0.85Y1.2
X0.85Y0.6
X0.9Y5.35
X0.9Y5.25
X0.9Y5.15
X0.9Y5.05
X0.9Y4.95
X0.9Y4.85
X0.9Y4.75
X0.9Y4.65
X0.9Y4.55
X0.9Y4.45
X0.9Y4.35
X0.9Y4.25
X0.9Y4.15
X0.9Y4.05
X0.9Y3.95
X0.9Y3.85
X0.9Y2.6
X0.9Y2.5
X0.9Y2.4
X0.9Y2.3
X0.9Y2.2
X0.9Y2.1
X0.9Y2.0
X0.9Y1.9
X0.9Y1.8
X0.9Y1.7
X0.9Y1.6
X0.9Y1.5
X0.95Y1.2
X0.95Y0.6
X1.05Y1.2
X1.05Y0.6
X1.15Y1.2
X1.15Y0.6
X1.25Y1.2
X1.25Y0.6
X1.35Y1.2
X1.35Y0.6
X1.45Y1.2
X1.45Y0.6
X1.5Y5.35
X1.5Y5.25
X1.5Y5.15
X1.5Y5.05
X1.5Y4.95
X1.5Y4.85
X1.5Y4.75
X1.5Y4.65
X1.5Y4.55
X1.5Y4.45
X1.5Y4.35
X1.5Y4.25
X1.5Y4.15
X1.5Y4.05
X1.5Y3.95
X1.5Y3.85
X1.5Y2.6
X1.5Y2.5
X1.5Y2.4
X1.5Y2.3
X1.5Y2.2
X1.5Y2.1
X1.5Y2.0
X1.5Y1.9
X1.5Y1.8
X1.5Y1.7
X1.5Y1.6
X1.5Y1.5
X1.55Y1.2
X1.55Y0.6
X1.65Y1.2
X1.65Y0.6
X1.7Y5.05
X1.7Y4.95
X1.7Y4.85
X1.7Y4.75
X1.7Y4.65
X1.7Y4.55
X1.7Y4.45
X1.7Y4.35
X1.7Y2.5
X1.7Y2.4
X1.7Y2.3
X1.7Y2.2
X1.7Y2.1
X1.7Y2.0
X1.75Y1.2
X1.75Y0.6
X1.85Y1.2
X1.85Y0.6
X1.9Y4.8
X1.9Y4.7
X1.9Y4.6
X1.9Y4.5
X1.9Y4.4
X1.9Y4.3
X1.9Y4.2
X1.9Y4.1
X1.9Y4.0
X1.9Y3.9
X1.9Y3.8
X1.9Y3.7
X1.9Y3.6
X1.9Y3.5
X1.9Y3.4
X1.9Y3.3
X1.9Y3.2
X1.9Y3.1
X1.9Y3.0
X1.9Y2.9
X1.95Y1.2
X1.95Y0.6
X2.05Y1.2
X2.05Y0.6
X2.15Y1.2
X2.15Y0.6
X2.25Y1.2
X2.25Y0.6
X2.3Y2.5
X2.3Y2.4
X2.3Y2.3
X2.3Y2.2
X2.3Y2.1
X2.3Y2.0
X2.4Y6.05
X2.4Y5.15
X2.5Y6.05
X2.5Y5.15
X2.5Y2.5
X2.5Y2.4
X2.5Y2.3
X2.5Y2.2
X2.5Y2.1
X2.5Y2.0
X2.5Y1.9
X2.5Y1.8
X2.5Y1.7
X2.5Y1.6
X2.5Y1.5
X2.5Y1.4
X2.5Y1.3
X2.5Y1.2
X2.5Y1.1
X2.5Y1.0
X2.5Y0.9
X2.5Y0.8
X2.5Y0.7
X2.5Y0.6
X2.6Y6.05
X2.6Y5.15
X2.7Y6.05
X2.7Y5.15
X2.8Y6.05
X2.8Y5.15
X2.8Y4.8
X2.8Y4.7
X2.8Y4.6
X2.8Y4.5
X2.8Y4.4
X2.8Y4.3
X2.8Y4.2
X2.8Y4.1
X2.8Y4.0
X2.8Y3.9
X2.8Y3.8
X2.8Y3.7
X2.8Y3.6
X2.8Y3.5
X2.8Y3.4
X2.8Y3.3
X2.8Y3.2
X2.8Y3.1
X2.8Y3.0
X2.8Y2.9
X2.9Y6.05
X2.9Y5.15
X3.0Y6.05
X3.0Y5.15
X3.0Y4.9
X3.0Y4.8
X3.0Y4.7
X3.0Y4.6
X3.0Y4.5
X3.0Y4.4
X3.0Y4.3
X3.0Y4.2
X3.0Y4.1
X3.0Y4.0
X3.0Y3.9
X3.0Y3.8
X3.0Y3.7
X3.0Y3.6
X3.0Y3.5
X3.0Y3.4
X3.0Y3.3
X3.0Y3.2
X3.0Y3.1
X3.0Y3.0
X3.1Y6.05
X3.1Y5.15
X3.1Y2.5
X3.1Y2.4
X3.1Y2.3
X3.1Y2.2
X3.1Y2.1
X3.1Y2.0
X3.1Y1.9
X3.1Y1.8
X3.1Y1.7
X3.1Y1.6
X3.1Y1.5
X3.1Y1.4
X3.1Y1.3
X3.1Y1.2
X3.1Y1.1
X3.1Y1.0
X3.1Y0.9
X3.1Y0.8
X3.1Y0.7
X3.1Y0.6
X3.2Y6.05
X3.2Y5.15
X3.2Y0.4
X3.25Y0.6
X3.3Y6.05
X3.3Y5.15
X3.3Y2.2
X3.3Y2.1
X3.3Y2.0
X3.3Y1.9
X3.3Y1.8
X3.3Y1.7
X3.3Y1.6
X3.3Y1.5
X3.3Y1.4
X3.3Y1.3
X3.3Y1.2
X3.3Y1.1
X3.3Y0.4
X3.35Y0.6
X3.4Y6.05
X3.4Y5.15
X3.4Y0.4
X3.45Y0.6
X3.5Y6.05
X3.5Y5.15
X3.5Y2.4
X3.5Y2.3
X3.5Y2.2
X3.5Y2.1
X3.5Y2.0
X3.5Y1.9
X3.5Y1.8
X3.5Y1.7
X3.5Y1.6
X3.5Y1.5
X3.5Y1.4
X3.5Y1.3
X3.5Y0.4
X3.55Y0.6
X3.6Y6.05
X3.6Y5.15
X3.6Y4.9
X3.6Y4.8
X3.6Y4.7
X3.6Y4.6
X3.6Y4.5
X3.6Y4.4
X3.6Y4.3
X3.6Y4.2
X3.6Y4.1
X3.6Y4.0
X3.6Y3.9
X3.6Y3.8
X3.6Y3.7
X3.6Y3.6
X3.6Y3.5
X3.6Y3.4
X3.6Y3.3
X3.6Y3.2
X3.6Y3.1
X3.6Y3.0
X3.6Y0.4
X3.65Y0.6
X3.7Y6.05
X3.7Y5.15
X3.7Y0.4
X3.75Y0.6
X3.8Y6.05
X3.8Y5.15
X3.8Y4.8
X3.8Y4.7
X3.8Y4.6
X3.8Y4.5
X3.8Y4.4
X3.8Y4.3
X3.8Y4.2
X3.8Y4.1
X3.8Y4.0
X3.8Y3.9
X3.8Y3.8
X3.8Y3.7
X3.8Y3.6
X3.8Y3.5
X3.8Y3.4
X3.8Y3.3
X3.8Y3.2
X3.8Y3.1
X3.8Y3.0
X3.8Y2.9
X3.8Y0.4
X3.85Y0.6
X3.9Y6.05
X3.9Y5.15
X3.9Y0.4
X3.95Y0.6
X4.0Y0.4
X4.05Y0.6
X4.1Y2.4
X4.1Y2.3
X4.1Y2.2
X4.1Y2.1
X4.1Y2.0
X4.1Y1.9
X4.1Y1.8
X4.1Y1.7
X4.1Y1.6
X4.1Y1.5
X4.1Y1.4
X4.1Y1.3
X4.1Y0.4
X4.15Y0.6
X4.2Y0.4
X4.25Y0.6
X4.3Y2.4
X4.3Y2.3
X4.3Y2.2
X4.3Y2.1
X4.3Y2.0
X4.3Y1.9
X4.3Y1.8
X4.3Y1.7
X4.3Y1.6
X4.3Y1.5
X4.3Y1.4
X4.3Y1.3
X4.3Y1.2
X4.3Y1.1
X4.3Y1.0
X4.3Y0.9
X4.3Y0.4
X4.35Y0.6
X4.4Y0.4
X4.5Y6.05
X4.5Y5.45
X4.5Y0.4
X4.6Y6.05
X4.6Y5.45
X4.6Y0.4
X4.7Y6.05
X4.7Y5.45
X4.7Y4.8
X4.7Y4.7
X4.7Y4.6
X4.7Y4.5
X4.7Y4.4
X4.7Y4.3
X4.7Y4.2
X4.7Y4.1
X4.7Y4.0
X4.7Y3.9
X4.7Y3.8
X4.7Y3.7
X4.7Y3.6
X4.7Y3.5
X4.7Y3.4
X4.7Y3.3
X4.7Y3.2
X4.7Y3.1
X4.7Y3.0
X4.7Y2.9
X4.7Y0.4
X4.8Y6.05
X4.8Y5.45
X4.8Y0.4
X4.9Y6.05
X4.9Y5.45
X4.9Y4.8
X4.9Y4.7
X4.9Y4.6
X4.9Y4.5
X4.9Y4.4
X4.9Y4.3
X4.9Y4.2
X4.9Y4.1
X4.9Y4.0
X4.9Y3.9
X4.9Y3.8
X4.9Y3.7
X4.9Y3.6
X4.9Y3.5
X4.9Y3.4
X4.9Y3.3
X4.9Y3.2
X4.9Y3.1
X4.9Y3.0
X4.9Y2.9
X4.9Y2.4
X4.9Y2.3
X4.9Y2.2
X4.9Y2.1
X4.9Y2.0
X4.9Y1.9
X4.9Y1.8
X4.9Y1.7
X4.9Y1.6
X4.9Y1.5
X4.9Y1.4
X4.9Y1.3
X4.9Y1.2
X4.9Y1.1
X4.9Y1.0
X4.9Y0.9
X4.9Y0.4
X5.0Y6.05
X5.0Y5.45
X5.0Y0.4
X5.1Y2.3
X5.1Y2.2
X5.1Y2.1
X5.1Y2.0
X5.1Y1.9
X5.1Y1.8
X5.1Y1.7
X5.1Y1.6
X5.1Y1.5
X5.1Y1.4
X5.1Y1.3
X5.1Y1.2
X5.1Y1.1
X5.1Y1.0
X5.1Y0.9
X5.1Y0.8
X5.1Y0.4
X5.55Y6.05
X5.55Y5.15
X5.65Y6.05
X5.65Y5.15
X5.75Y6.05
X5.75Y5.15
X5.8Y4.8
X5.8Y4.7
X5.8Y4.6
X5.8Y4.5
X5.8Y4.4
X5.8Y4.3
X5.8Y4.2
X5.8Y4.1
X5.8Y4.0
X5.8Y3.9
X5.8Y3.8
X5.8Y3.7
X5.8Y3.6
X5.8Y3.5
X5.8Y3.4
X5.8Y3.3
X5.8Y3.2
X5.8Y3.1
X5.8Y3.0
X5.8Y2.9
X5.85Y6.05
X5.85Y5.15
X5.95Y6.05
X5.95Y5.15
X6.0Y4.9
X6.0Y4.8
X6.0Y4.7
X6.0Y4.6
X6.0Y2.3
X6.0Y2.2
X6.0Y2.1
X6.0Y2.0
X6.0Y1.9
X6.0Y1.8
X6.0Y1.7
X6.0Y1.6
X6.0Y1.5
X6.0Y1.4
X6.0Y1.3
X6.0Y1.2
X6.0Y1.1
X6.0Y1.0
X6.0Y0.9
X6.0Y0.8
X6.05Y6.05
X6.05Y5.15
X6.15Y6.05
X6.15Y5.15
X6.2Y4.9
X6.2Y4.8
X6.2Y4.7
X6.2Y4.6
X6.2Y4.5
X6.2Y4.4
X6.2Y4.3
X6.2Y4.2
X6.2Y4.1
X6.2Y4.0
X6.2Y3.9
X6.2Y3.8
X6.2Y3.7
X6.2Y3.6
X6.2Y3.5
X6.2Y3.4
X6.2Y3.3
X6.2Y3.2
X6.2Y3.1
X6.2Y3.0
X6.2Y1.9
X6.2Y1.8
X6.2Y1.7
X6.2Y1.6
X6.2Y1.5
X6.2Y1.4
X6.2Y1.3
X6.2Y1.2
X6.25Y6.05
X6.25Y5.15
X6.35Y6.05
X6.35Y5.15
X6.4Y2.5
X6.4Y2.4
X6.4Y2.3
X6.4Y2.2
X6.4Y2.1
X6.4Y2.0
X6.4Y1.9
X6.4Y1.8
X6.4Y1.7
X6.4Y1.6
X6.4Y1.5
X6.4Y1.4
X6.4Y1.3
X6.4Y1.2
X6.4Y1.1
X6.4Y1.0
X6.4Y0.9
X6.4Y0.8
X6.4Y0.7
X6.4Y0.6
X6.45Y6.05
X6.45Y5.15
X6.55Y6.05
X6.55Y5.15
X6.65Y6.05
X6.65Y5.15
X6.75Y6.05
X6.75Y5.15
X6.8Y4.9
X6.8Y4.8
X6.8Y4.7
X6.8Y4.6
X6.8Y4.5
X6.8Y4.4
X6.8Y4.3
X6.8Y4.2
X6.8Y4.1
X6.8Y4.0
X6.8Y3.9
X6.8Y3.8
X6.8Y3.7
X6.8Y3.6
X6.8Y3.5
X6.8Y3.4
X6.8Y3.3
X6.8Y3.2
X6.8Y3.1
X6.8Y3.0
X6.85Y6.05
X6.85Y5.15
X6.95Y6.05
X6.95Y5.15
X7.0Y4.8
X7.0Y4.7
X7.0Y4.6
X7.0Y4.5
X7.0Y4.4
X7.0Y4.3
X7.0Y4.2
X7.0Y4.1
X7.0Y4.0
X7.0Y3.9
X7.0Y3.8
X7.0Y3.7
X7.0Y3.6
X7.0Y3.5
X7.0Y3.4
X7.0Y3.3
X7.0Y3.2
X7.0Y3.1
X7.0Y3.0
X7.0Y2.9
X7.0Y2.5
X7.0Y2.4
X7.0Y2.3
X7.0Y2.2
X7.0Y2.1
X7.0Y2.0
X7.0Y1.9
X7.0Y1.8
X7.0Y1.7
X7.0Y1.6
X7.0Y1.5
X7.0Y1.4
X7.0Y1.3
X7.0Y1.2
X7.0Y1.1
X7.0Y1.0
X7.0Y0.9
X7.0Y0.8
X7.0Y0.7
X7.0Y0.6
X7.05Y6.05
X7.05Y5.15
X7.3Y2.4
X7.3Y2.3
X7.3Y2.2
X7.3Y2.1
X7.3Y2.0
X7.3Y1.9
X7.9Y4.8
X7.9Y4.7
X7.9Y4.6
X7.9Y4.5
X7.9Y4.4
X7.9Y4.3
X7.9Y4.2
X7.9Y4.1
X7.9Y4.0
X7.9Y3.9
X7.9Y3.8
X7.9Y3.7
X7.9Y3.6
X7.9Y3.5
X7.9Y3.4
X7.9Y3.3
X7.9Y3.2
X7.9Y3.1
X7.9Y3.0
X7.9Y2.9
X7.9Y2.4
X7.9Y2.3
X7.9Y2.2
X7.9Y2.1
X7.9Y2.0
X7.9Y1.9
T5
X-0.948Y5.475
X-0.948Y2.75
X-0.948Y0.025
M30
