%TF.GenerationSoftware,KiCad,Pcbnew,7.0.5*%
%TF.CreationDate,2024-02-19T15:26:47+02:00*%
%TF.ProjectId,GPIO 4bit,4750494f-2034-4626-9974-2e6b69636164,V0*%
%TF.SameCoordinates,PX6d01460PY32de760*%
%TF.FileFunction,Legend,Top*%
%TF.FilePolarity,Positive*%
%FSLAX46Y46*%
G04 Gerber Fmt 4.6, Leading zero omitted, Abs format (unit mm)*
G04 Created by KiCad (PCBNEW 7.0.5) date 2024-02-19 15:26:47*
%MOMM*%
%LPD*%
G01*
G04 APERTURE LIST*
%ADD10C,0.150000*%
%ADD11C,0.200000*%
%ADD12C,0.120000*%
%ADD13C,0.100000*%
G04 APERTURE END LIST*
D10*
X1598493Y-9841201D02*
X1538017Y-9810963D01*
X1538017Y-9810963D02*
X1447303Y-9810963D01*
X1447303Y-9810963D02*
X1356588Y-9841201D01*
X1356588Y-9841201D02*
X1296112Y-9901677D01*
X1296112Y-9901677D02*
X1265874Y-9962153D01*
X1265874Y-9962153D02*
X1235636Y-10083105D01*
X1235636Y-10083105D02*
X1235636Y-10173820D01*
X1235636Y-10173820D02*
X1265874Y-10294772D01*
X1265874Y-10294772D02*
X1296112Y-10355248D01*
X1296112Y-10355248D02*
X1356588Y-10415725D01*
X1356588Y-10415725D02*
X1447303Y-10445963D01*
X1447303Y-10445963D02*
X1507779Y-10445963D01*
X1507779Y-10445963D02*
X1598493Y-10415725D01*
X1598493Y-10415725D02*
X1628731Y-10385486D01*
X1628731Y-10385486D02*
X1628731Y-10173820D01*
X1628731Y-10173820D02*
X1507779Y-10173820D01*
X1900874Y-10445963D02*
X1900874Y-9810963D01*
X1900874Y-9810963D02*
X2052064Y-9810963D01*
X2052064Y-9810963D02*
X2142779Y-9841201D01*
X2142779Y-9841201D02*
X2203255Y-9901677D01*
X2203255Y-9901677D02*
X2233493Y-9962153D01*
X2233493Y-9962153D02*
X2263731Y-10083105D01*
X2263731Y-10083105D02*
X2263731Y-10173820D01*
X2263731Y-10173820D02*
X2233493Y-10294772D01*
X2233493Y-10294772D02*
X2203255Y-10355248D01*
X2203255Y-10355248D02*
X2142779Y-10415725D01*
X2142779Y-10415725D02*
X2052064Y-10445963D01*
X2052064Y-10445963D02*
X1900874Y-10445963D01*
X1265874Y-12985963D02*
X1265874Y-12350963D01*
X1265874Y-12350963D02*
X1417064Y-12350963D01*
X1417064Y-12350963D02*
X1507779Y-12381201D01*
X1507779Y-12381201D02*
X1568255Y-12441677D01*
X1568255Y-12441677D02*
X1598493Y-12502153D01*
X1598493Y-12502153D02*
X1628731Y-12623105D01*
X1628731Y-12623105D02*
X1628731Y-12713820D01*
X1628731Y-12713820D02*
X1598493Y-12834772D01*
X1598493Y-12834772D02*
X1568255Y-12895248D01*
X1568255Y-12895248D02*
X1507779Y-12955725D01*
X1507779Y-12955725D02*
X1417064Y-12985963D01*
X1417064Y-12985963D02*
X1265874Y-12985963D01*
X1840398Y-12350963D02*
X2263731Y-12350963D01*
X2263731Y-12350963D02*
X1991588Y-12985963D01*
X1265874Y-18065963D02*
X1265874Y-17430963D01*
X1265874Y-17430963D02*
X1417064Y-17430963D01*
X1417064Y-17430963D02*
X1507779Y-17461201D01*
X1507779Y-17461201D02*
X1568255Y-17521677D01*
X1568255Y-17521677D02*
X1598493Y-17582153D01*
X1598493Y-17582153D02*
X1628731Y-17703105D01*
X1628731Y-17703105D02*
X1628731Y-17793820D01*
X1628731Y-17793820D02*
X1598493Y-17914772D01*
X1598493Y-17914772D02*
X1568255Y-17975248D01*
X1568255Y-17975248D02*
X1507779Y-18035725D01*
X1507779Y-18035725D02*
X1417064Y-18065963D01*
X1417064Y-18065963D02*
X1265874Y-18065963D01*
X2203255Y-17430963D02*
X1900874Y-17430963D01*
X1900874Y-17430963D02*
X1870636Y-17733344D01*
X1870636Y-17733344D02*
X1900874Y-17703105D01*
X1900874Y-17703105D02*
X1961350Y-17672867D01*
X1961350Y-17672867D02*
X2112541Y-17672867D01*
X2112541Y-17672867D02*
X2173017Y-17703105D01*
X2173017Y-17703105D02*
X2203255Y-17733344D01*
X2203255Y-17733344D02*
X2233493Y-17793820D01*
X2233493Y-17793820D02*
X2233493Y-17945010D01*
X2233493Y-17945010D02*
X2203255Y-18005486D01*
X2203255Y-18005486D02*
X2173017Y-18035725D01*
X2173017Y-18035725D02*
X2112541Y-18065963D01*
X2112541Y-18065963D02*
X1961350Y-18065963D01*
X1961350Y-18065963D02*
X1900874Y-18035725D01*
X1900874Y-18035725D02*
X1870636Y-18005486D01*
X1265874Y-25685963D02*
X1265874Y-25050963D01*
X1265874Y-25050963D02*
X1417064Y-25050963D01*
X1417064Y-25050963D02*
X1507779Y-25081201D01*
X1507779Y-25081201D02*
X1568255Y-25141677D01*
X1568255Y-25141677D02*
X1598493Y-25202153D01*
X1598493Y-25202153D02*
X1628731Y-25323105D01*
X1628731Y-25323105D02*
X1628731Y-25413820D01*
X1628731Y-25413820D02*
X1598493Y-25534772D01*
X1598493Y-25534772D02*
X1568255Y-25595248D01*
X1568255Y-25595248D02*
X1507779Y-25655725D01*
X1507779Y-25655725D02*
X1417064Y-25685963D01*
X1417064Y-25685963D02*
X1265874Y-25685963D01*
X1870636Y-25111439D02*
X1900874Y-25081201D01*
X1900874Y-25081201D02*
X1961350Y-25050963D01*
X1961350Y-25050963D02*
X2112541Y-25050963D01*
X2112541Y-25050963D02*
X2173017Y-25081201D01*
X2173017Y-25081201D02*
X2203255Y-25111439D01*
X2203255Y-25111439D02*
X2233493Y-25171915D01*
X2233493Y-25171915D02*
X2233493Y-25232391D01*
X2233493Y-25232391D02*
X2203255Y-25323105D01*
X2203255Y-25323105D02*
X1840398Y-25685963D01*
X1840398Y-25685963D02*
X2233493Y-25685963D01*
X1205398Y-4730963D02*
X1356588Y-5365963D01*
X1356588Y-5365963D02*
X1477541Y-4912391D01*
X1477541Y-4912391D02*
X1598493Y-5365963D01*
X1598493Y-5365963D02*
X1749684Y-4730963D01*
X1991588Y-5365963D02*
X1991588Y-4942629D01*
X1991588Y-5063582D02*
X2021826Y-5003105D01*
X2021826Y-5003105D02*
X2052064Y-4972867D01*
X2052064Y-4972867D02*
X2112540Y-4942629D01*
X2112540Y-4942629D02*
X2173017Y-4942629D01*
X2384683Y-5365963D02*
X2384683Y-4942629D01*
X2384683Y-4730963D02*
X2354445Y-4761201D01*
X2354445Y-4761201D02*
X2384683Y-4791439D01*
X2384683Y-4791439D02*
X2414921Y-4761201D01*
X2414921Y-4761201D02*
X2384683Y-4730963D01*
X2384683Y-4730963D02*
X2384683Y-4791439D01*
X2596350Y-4942629D02*
X2838254Y-4942629D01*
X2687064Y-4730963D02*
X2687064Y-5275248D01*
X2687064Y-5275248D02*
X2717302Y-5335725D01*
X2717302Y-5335725D02*
X2777778Y-5365963D01*
X2777778Y-5365963D02*
X2838254Y-5365963D01*
X3291826Y-5335725D02*
X3231350Y-5365963D01*
X3231350Y-5365963D02*
X3110397Y-5365963D01*
X3110397Y-5365963D02*
X3049921Y-5335725D01*
X3049921Y-5335725D02*
X3019683Y-5275248D01*
X3019683Y-5275248D02*
X3019683Y-5033344D01*
X3019683Y-5033344D02*
X3049921Y-4972867D01*
X3049921Y-4972867D02*
X3110397Y-4942629D01*
X3110397Y-4942629D02*
X3231350Y-4942629D01*
X3231350Y-4942629D02*
X3291826Y-4972867D01*
X3291826Y-4972867D02*
X3322064Y-5033344D01*
X3322064Y-5033344D02*
X3322064Y-5093820D01*
X3322064Y-5093820D02*
X3019683Y-5154296D01*
X1265874Y-33305963D02*
X1265874Y-32670963D01*
X1265874Y-32670963D02*
X1417064Y-32670963D01*
X1417064Y-32670963D02*
X1507779Y-32701201D01*
X1507779Y-32701201D02*
X1568255Y-32761677D01*
X1568255Y-32761677D02*
X1598493Y-32822153D01*
X1598493Y-32822153D02*
X1628731Y-32943105D01*
X1628731Y-32943105D02*
X1628731Y-33033820D01*
X1628731Y-33033820D02*
X1598493Y-33154772D01*
X1598493Y-33154772D02*
X1568255Y-33215248D01*
X1568255Y-33215248D02*
X1507779Y-33275725D01*
X1507779Y-33275725D02*
X1417064Y-33305963D01*
X1417064Y-33305963D02*
X1265874Y-33305963D01*
X2021826Y-32670963D02*
X2082303Y-32670963D01*
X2082303Y-32670963D02*
X2142779Y-32701201D01*
X2142779Y-32701201D02*
X2173017Y-32731439D01*
X2173017Y-32731439D02*
X2203255Y-32791915D01*
X2203255Y-32791915D02*
X2233493Y-32912867D01*
X2233493Y-32912867D02*
X2233493Y-33064058D01*
X2233493Y-33064058D02*
X2203255Y-33185010D01*
X2203255Y-33185010D02*
X2173017Y-33245486D01*
X2173017Y-33245486D02*
X2142779Y-33275725D01*
X2142779Y-33275725D02*
X2082303Y-33305963D01*
X2082303Y-33305963D02*
X2021826Y-33305963D01*
X2021826Y-33305963D02*
X1961350Y-33275725D01*
X1961350Y-33275725D02*
X1931112Y-33245486D01*
X1931112Y-33245486D02*
X1900874Y-33185010D01*
X1900874Y-33185010D02*
X1870636Y-33064058D01*
X1870636Y-33064058D02*
X1870636Y-32912867D01*
X1870636Y-32912867D02*
X1900874Y-32791915D01*
X1900874Y-32791915D02*
X1931112Y-32731439D01*
X1931112Y-32731439D02*
X1961350Y-32701201D01*
X1961350Y-32701201D02*
X2021826Y-32670963D01*
X14149506Y-26000439D02*
X14179744Y-25970201D01*
X14179744Y-25970201D02*
X14240220Y-25939963D01*
X14240220Y-25939963D02*
X14391411Y-25939963D01*
X14391411Y-25939963D02*
X14451887Y-25970201D01*
X14451887Y-25970201D02*
X14482125Y-26000439D01*
X14482125Y-26000439D02*
X14512363Y-26060915D01*
X14512363Y-26060915D02*
X14512363Y-26121391D01*
X14512363Y-26121391D02*
X14482125Y-26212105D01*
X14482125Y-26212105D02*
X14119268Y-26574963D01*
X14119268Y-26574963D02*
X14512363Y-26574963D01*
D11*
G36*
X6378287Y621977D02*
G01*
X6442464Y557800D01*
X6480380Y406138D01*
X6480380Y97428D01*
X6442463Y-54237D01*
X6378287Y-118414D01*
X6318679Y-148219D01*
X6175415Y-148219D01*
X6115808Y-118415D01*
X6051629Y-54235D01*
X6013714Y97427D01*
X6013714Y406137D01*
X6051630Y557801D01*
X6115807Y621977D01*
X6175415Y651781D01*
X6318679Y651781D01*
X6378287Y621977D01*
G37*
G36*
X9044954Y288644D02*
G01*
X9069624Y263975D01*
X9099427Y204367D01*
X9099427Y-34136D01*
X9069624Y-93743D01*
X9044953Y-118414D01*
X8985346Y-148219D01*
X8842082Y-148219D01*
X8823238Y-138797D01*
X8823238Y309027D01*
X8842082Y318448D01*
X8985346Y318448D01*
X9044954Y288644D01*
G37*
G36*
X12616383Y621977D02*
G01*
X12641053Y597307D01*
X12676504Y526404D01*
X12718476Y358518D01*
X12718476Y145046D01*
X12676504Y-22841D01*
X12641053Y-93743D01*
X12616382Y-118414D01*
X12556775Y-148219D01*
X12508749Y-148219D01*
X12449142Y-118415D01*
X12424471Y-93743D01*
X12389019Y-22840D01*
X12347048Y145046D01*
X12347048Y358517D01*
X12389019Y526405D01*
X12424471Y597308D01*
X12449141Y621978D01*
X12508749Y651781D01*
X12556775Y651781D01*
X12616383Y621977D01*
G37*
G36*
X4902097Y621977D02*
G01*
X4926767Y597308D01*
X4956571Y537699D01*
X4956571Y442054D01*
X4926767Y382447D01*
X4902097Y357777D01*
X4842489Y327972D01*
X4585143Y327972D01*
X4585143Y651781D01*
X4842489Y651781D01*
X4902097Y621977D01*
G37*
G36*
X13601810Y-823857D02*
G01*
X2654191Y-823857D01*
X2654191Y184586D01*
X3333388Y184586D01*
X3337523Y168043D01*
X3337524Y165974D01*
X3341003Y154124D01*
X3383808Y-17096D01*
X3382569Y-28581D01*
X3390790Y-45024D01*
X3391616Y-48326D01*
X3397201Y-57846D01*
X3437711Y-138865D01*
X3441288Y-155308D01*
X3460770Y-174790D01*
X3479540Y-194969D01*
X3481432Y-195452D01*
X3553477Y-267498D01*
X3568521Y-286183D01*
X3587906Y-292644D01*
X3605846Y-302441D01*
X3615272Y-301766D01*
X3727338Y-339121D01*
X3741494Y-348219D01*
X3769049Y-348219D01*
X3796586Y-349215D01*
X3798266Y-348219D01*
X3853555Y-348219D01*
X3869862Y-352373D01*
X3896001Y-343659D01*
X3922442Y-335896D01*
X3923721Y-334419D01*
X4035460Y-297172D01*
X4058901Y-292073D01*
X4073353Y-277620D01*
X4090133Y-265959D01*
X4093744Y-257228D01*
X4114523Y-236449D01*
X4124822Y-231746D01*
X4134885Y-216086D01*
X4137450Y-213522D01*
X4142627Y-204040D01*
X4156571Y-182343D01*
X4156571Y-178502D01*
X4158411Y-175133D01*
X4156571Y-149409D01*
X4156571Y173199D01*
X4159732Y195185D01*
X4151532Y213140D01*
X4381982Y213140D01*
X4385143Y206219D01*
X4385143Y-262598D01*
X4397466Y-304566D01*
X4441848Y-343023D01*
X4499975Y-351380D01*
X4553394Y-326985D01*
X4585143Y-277582D01*
X4585143Y-262598D01*
X5385143Y-262598D01*
X5397466Y-304566D01*
X5441848Y-343023D01*
X5499975Y-351380D01*
X5553394Y-326985D01*
X5585143Y-277582D01*
X5585143Y89348D01*
X5809578Y89348D01*
X5813714Y72804D01*
X5813714Y70736D01*
X5817193Y58886D01*
X5863941Y-128106D01*
X5869859Y-155308D01*
X5881563Y-167012D01*
X5889940Y-181290D01*
X5901902Y-187351D01*
X5976994Y-262444D01*
X5985587Y-276911D01*
X6010215Y-289225D01*
X6034417Y-302441D01*
X6036367Y-302301D01*
X6102270Y-335253D01*
X6122446Y-348219D01*
X6142881Y-348219D01*
X6162997Y-351839D01*
X6171725Y-348219D01*
X6336900Y-348219D01*
X6360743Y-350793D01*
X6379019Y-341654D01*
X6398632Y-335896D01*
X6404820Y-328754D01*
X6471028Y-295650D01*
X6487471Y-292073D01*
X6506947Y-272596D01*
X6527131Y-253822D01*
X6527615Y-251928D01*
X6602360Y-177182D01*
X6622654Y-158101D01*
X6626668Y-142043D01*
X6634602Y-127514D01*
X6633645Y-114136D01*
X6673403Y44896D01*
X6680380Y55752D01*
X6680380Y70283D01*
X7620077Y70283D01*
X7622448Y65091D01*
X7622242Y59385D01*
X7634492Y38717D01*
X7644472Y16864D01*
X7649274Y13778D01*
X7652185Y8867D01*
X7673664Y-1896D01*
X7693875Y-14885D01*
X7699583Y-14885D01*
X7704686Y-17442D01*
X7728576Y-14885D01*
X8099428Y-14885D01*
X8099428Y-262598D01*
X8111751Y-304566D01*
X8156133Y-343023D01*
X8214260Y-351380D01*
X8267679Y-326985D01*
X8299428Y-277582D01*
X8299428Y-14885D01*
X8356664Y-14885D01*
X8398632Y-2562D01*
X8437089Y41820D01*
X8445446Y99947D01*
X8421051Y153366D01*
X8371648Y185115D01*
X8299428Y185115D01*
X8299428Y367156D01*
X8619081Y367156D01*
X8623238Y354648D01*
X8623238Y-198833D01*
X8622265Y-226420D01*
X8623238Y-228058D01*
X8623238Y-262598D01*
X8635561Y-304566D01*
X8679943Y-343023D01*
X8738070Y-351380D01*
X8770784Y-336440D01*
X8789113Y-348219D01*
X8809548Y-348219D01*
X8829664Y-351839D01*
X8838392Y-348219D01*
X9003567Y-348219D01*
X9027410Y-350793D01*
X9045686Y-341654D01*
X9065299Y-335896D01*
X9071487Y-328754D01*
X9137695Y-295650D01*
X9154139Y-292073D01*
X9173624Y-272587D01*
X9184363Y-262598D01*
X9528000Y-262598D01*
X9540323Y-304566D01*
X9584705Y-343023D01*
X9642832Y-351380D01*
X9696251Y-326985D01*
X9728000Y-277582D01*
X9728000Y403616D01*
X9858172Y403616D01*
X9882567Y350197D01*
X9931970Y318448D01*
X10004190Y318448D01*
X10004190Y-99975D01*
X10001616Y-123819D01*
X10010754Y-142096D01*
X10016513Y-161708D01*
X10023653Y-167895D01*
X10050973Y-222535D01*
X10050836Y-226420D01*
X10063980Y-248550D01*
X10068796Y-258182D01*
X10071299Y-260873D01*
X10080825Y-276911D01*
X10090907Y-281952D01*
X10098587Y-290208D01*
X10116663Y-294830D01*
X10197508Y-335253D01*
X10217684Y-348219D01*
X10238119Y-348219D01*
X10258235Y-351839D01*
X10266963Y-348219D01*
X10356664Y-348219D01*
X10398632Y-335896D01*
X10437089Y-291514D01*
X10445446Y-233387D01*
X10421051Y-179968D01*
X10371648Y-148219D01*
X10270653Y-148219D01*
X10226344Y-126064D01*
X10204190Y-81755D01*
X10204190Y318448D01*
X10356664Y318448D01*
X10398632Y330771D01*
X10437089Y375153D01*
X10445446Y433280D01*
X10421051Y486699D01*
X10371648Y518448D01*
X10204190Y518448D01*
X10204190Y748014D01*
X11190513Y748014D01*
X11527411Y-262679D01*
X11527004Y-273949D01*
X11536519Y-290002D01*
X11537679Y-293482D01*
X11543813Y-302309D01*
X11556947Y-324467D01*
X11560423Y-326209D01*
X11562641Y-329400D01*
X11586432Y-339242D01*
X11609449Y-350776D01*
X11613312Y-350362D01*
X11616906Y-351849D01*
X11642236Y-347266D01*
X11667841Y-344526D01*
X11670871Y-342086D01*
X11674693Y-341395D01*
X11693519Y-323851D01*
X11713583Y-307698D01*
X11714812Y-304009D01*
X11717656Y-301360D01*
X11724012Y-276409D01*
X11861804Y136967D01*
X12142912Y136967D01*
X12147048Y120423D01*
X12147048Y118355D01*
X12150527Y106505D01*
X12193332Y-64715D01*
X12192093Y-76200D01*
X12200314Y-92642D01*
X12201140Y-95945D01*
X12206725Y-105465D01*
X12247235Y-186484D01*
X12250812Y-202927D01*
X12270295Y-222410D01*
X12289064Y-242588D01*
X12290956Y-243071D01*
X12310328Y-262444D01*
X12318921Y-276911D01*
X12343559Y-289230D01*
X12367750Y-302440D01*
X12369699Y-302300D01*
X12435604Y-335253D01*
X12455780Y-348219D01*
X12476215Y-348219D01*
X12496331Y-351839D01*
X12505059Y-348219D01*
X12574996Y-348219D01*
X12598839Y-350793D01*
X12617115Y-341654D01*
X12636728Y-335896D01*
X12642916Y-328754D01*
X12709124Y-295650D01*
X12725568Y-292073D01*
X12745053Y-272587D01*
X12765227Y-253822D01*
X12765711Y-251928D01*
X12785084Y-232555D01*
X12799549Y-223964D01*
X12811866Y-199329D01*
X12825078Y-175133D01*
X12824938Y-173185D01*
X12852333Y-118395D01*
X12860750Y-110482D01*
X12865209Y-92643D01*
X12866730Y-89603D01*
X12868683Y-78748D01*
X12911499Y92515D01*
X12918476Y103371D01*
X12918476Y120423D01*
X12918978Y122430D01*
X12918476Y134777D01*
X12918475Y354371D01*
X12922612Y366596D01*
X12918476Y383141D01*
X12918476Y385208D01*
X12914996Y397059D01*
X12872191Y568280D01*
X12873431Y579764D01*
X12865209Y596208D01*
X12864384Y599508D01*
X12858800Y609025D01*
X12818287Y690051D01*
X12814711Y706491D01*
X12795236Y725966D01*
X12776460Y746152D01*
X12774565Y746637D01*
X12755195Y766007D01*
X12746603Y780473D01*
X12721968Y792791D01*
X12697773Y806002D01*
X12695823Y805863D01*
X12629922Y838814D01*
X12609744Y851781D01*
X12589308Y851781D01*
X12569193Y855401D01*
X12560465Y851781D01*
X12490527Y851781D01*
X12466684Y854355D01*
X12448406Y845217D01*
X12428796Y839458D01*
X12422608Y832317D01*
X12356397Y799212D01*
X12339957Y795635D01*
X12320482Y776161D01*
X12300296Y757384D01*
X12299811Y755490D01*
X12280441Y736120D01*
X12265975Y727527D01*
X12253657Y702893D01*
X12240446Y678697D01*
X12240585Y676748D01*
X12213191Y621960D01*
X12204774Y614045D01*
X12200314Y596206D01*
X12198794Y593165D01*
X12196841Y582314D01*
X12154024Y411049D01*
X12147048Y400192D01*
X12147048Y383141D01*
X12146546Y381133D01*
X12147048Y368787D01*
X12147048Y149193D01*
X12142912Y136967D01*
X11861804Y136967D01*
X12060748Y733799D01*
X12062329Y777510D01*
X12032386Y828028D01*
X11979884Y854338D01*
X11921492Y848087D01*
X11875750Y811260D01*
X11628000Y68010D01*
X11384988Y797045D01*
X11360026Y832962D01*
X11305761Y855411D01*
X11247974Y844958D01*
X11205010Y804922D01*
X11190513Y748014D01*
X10204190Y748014D01*
X10204190Y766160D01*
X10191867Y808128D01*
X10147485Y846585D01*
X10089358Y854942D01*
X10035939Y830547D01*
X10004190Y781144D01*
X10004190Y518448D01*
X9946954Y518448D01*
X9904986Y506125D01*
X9866529Y461743D01*
X9858172Y403616D01*
X9728000Y403616D01*
X9728000Y432827D01*
X9715677Y474795D01*
X9671295Y513252D01*
X9613168Y521609D01*
X9559749Y497214D01*
X9528000Y447811D01*
X9528000Y-262598D01*
X9184363Y-262598D01*
X9193798Y-253822D01*
X9194282Y-251928D01*
X9213655Y-232555D01*
X9228120Y-223964D01*
X9240437Y-199329D01*
X9253649Y-175133D01*
X9253509Y-173185D01*
X9286462Y-107280D01*
X9299428Y-87105D01*
X9299428Y-66669D01*
X9303048Y-46554D01*
X9299428Y-37825D01*
X9299428Y222588D01*
X9302002Y246431D01*
X9292863Y264709D01*
X9287105Y284319D01*
X9279963Y290507D01*
X9246858Y356718D01*
X9243282Y373158D01*
X9223807Y392633D01*
X9205031Y412819D01*
X9203136Y413304D01*
X9183766Y432674D01*
X9175174Y447140D01*
X9150539Y459458D01*
X9126344Y472669D01*
X9124394Y472530D01*
X9058493Y505481D01*
X9038315Y518448D01*
X9017879Y518448D01*
X8997764Y522068D01*
X8989036Y518448D01*
X8823860Y518448D01*
X8823238Y518516D01*
X8823238Y711597D01*
X9476424Y711597D01*
X9481145Y689894D01*
X9482730Y667740D01*
X9487290Y661648D01*
X9488908Y654214D01*
X9504609Y638513D01*
X9517923Y620728D01*
X9525053Y618069D01*
X9539240Y603882D01*
X9540323Y600196D01*
X9554388Y588009D01*
X9565542Y573109D01*
X9576149Y569153D01*
X9584705Y561739D01*
X9595911Y560128D01*
X9605846Y554703D01*
X9613434Y555246D01*
X9620565Y552586D01*
X9631627Y554993D01*
X9642832Y553382D01*
X9653131Y558086D01*
X9664422Y558893D01*
X9670512Y563453D01*
X9677948Y565070D01*
X9685951Y573074D01*
X9696251Y577777D01*
X9702372Y587303D01*
X9711433Y594085D01*
X9714092Y601215D01*
X9741272Y628395D01*
X9759052Y641704D01*
X9766812Y662511D01*
X9777459Y682008D01*
X9776916Y689599D01*
X9779575Y696727D01*
X9774853Y718431D01*
X9773269Y740584D01*
X9768709Y746675D01*
X9767092Y754110D01*
X9751386Y769816D01*
X9738077Y787595D01*
X9730947Y790255D01*
X9716759Y804443D01*
X9715677Y808128D01*
X9701609Y820318D01*
X9690458Y835214D01*
X9679852Y839170D01*
X9671295Y846585D01*
X9660088Y848197D01*
X9650154Y853621D01*
X9642563Y853079D01*
X9635435Y855737D01*
X9624374Y853331D01*
X9613168Y854942D01*
X9602870Y850240D01*
X9591578Y849432D01*
X9585485Y844872D01*
X9578052Y843254D01*
X9570048Y835251D01*
X9559749Y830547D01*
X9553628Y821024D01*
X9544566Y814239D01*
X9541906Y807109D01*
X9514731Y779934D01*
X9496947Y766620D01*
X9489184Y745808D01*
X9478541Y726316D01*
X9479083Y718728D01*
X9476424Y711597D01*
X8823238Y711597D01*
X8823238Y766160D01*
X8810915Y808128D01*
X8766533Y846585D01*
X8708406Y854942D01*
X8654987Y830547D01*
X8623238Y781144D01*
X8623238Y383414D01*
X8619081Y367156D01*
X8299428Y367156D01*
X8299428Y432827D01*
X8287105Y474795D01*
X8242723Y513252D01*
X8184596Y521609D01*
X8131177Y497214D01*
X8099428Y447811D01*
X8099428Y185115D01*
X7861981Y185115D01*
X8060748Y781418D01*
X8062329Y825129D01*
X8032386Y875647D01*
X7979884Y901957D01*
X7921492Y895706D01*
X7875750Y858878D01*
X7634653Y135588D01*
X7628434Y128410D01*
X7625531Y108224D01*
X7623823Y103097D01*
X7623496Y94067D01*
X7620077Y70283D01*
X6680380Y70283D01*
X6680380Y72804D01*
X6680882Y74811D01*
X6680380Y87158D01*
X6680379Y401990D01*
X6684516Y414215D01*
X6680380Y430759D01*
X6680380Y432827D01*
X6676900Y444678D01*
X6630153Y631664D01*
X6624235Y658872D01*
X6612529Y670578D01*
X6604154Y684853D01*
X6592192Y690915D01*
X6517098Y766008D01*
X6508507Y780473D01*
X6483872Y792791D01*
X6459677Y806002D01*
X6457727Y805863D01*
X6391826Y838814D01*
X6371648Y851781D01*
X6351212Y851781D01*
X6331097Y855401D01*
X6322369Y851781D01*
X6157193Y851781D01*
X6133350Y854355D01*
X6115072Y845217D01*
X6095462Y839458D01*
X6089274Y832317D01*
X6023067Y799214D01*
X6006623Y795636D01*
X5987136Y776150D01*
X5966962Y757384D01*
X5966477Y755491D01*
X5891725Y680738D01*
X5871440Y661664D01*
X5867425Y645605D01*
X5859493Y631078D01*
X5860449Y617703D01*
X5820690Y458668D01*
X5813714Y447811D01*
X5813714Y430761D01*
X5813212Y428752D01*
X5813713Y416406D01*
X5813714Y101574D01*
X5809578Y89348D01*
X5585143Y89348D01*
X5585143Y766160D01*
X5572820Y808128D01*
X5528438Y846585D01*
X5470311Y854942D01*
X5416892Y830547D01*
X5385143Y781144D01*
X5385143Y-262598D01*
X4585143Y-262598D01*
X4585143Y127972D01*
X4860710Y127972D01*
X4884553Y125398D01*
X4902829Y134537D01*
X4922442Y140295D01*
X4928630Y147437D01*
X4994838Y180541D01*
X5011281Y184118D01*
X5030760Y203598D01*
X5050941Y222369D01*
X5051425Y224263D01*
X5070796Y243634D01*
X5085263Y252226D01*
X5097581Y276863D01*
X5110792Y301056D01*
X5110652Y303005D01*
X5143605Y368910D01*
X5156571Y389085D01*
X5156571Y409521D01*
X5160191Y429636D01*
X5156571Y438365D01*
X5156571Y555921D01*
X5159145Y579764D01*
X5150006Y598042D01*
X5144248Y617652D01*
X5137106Y623840D01*
X5104001Y690051D01*
X5100425Y706491D01*
X5080950Y725966D01*
X5062174Y746152D01*
X5060279Y746637D01*
X5040909Y766007D01*
X5032317Y780473D01*
X5007682Y792791D01*
X4983487Y806002D01*
X4981537Y805863D01*
X4915636Y838814D01*
X4895458Y851781D01*
X4875022Y851781D01*
X4854907Y855401D01*
X4846179Y851781D01*
X4492297Y851781D01*
X4470311Y854942D01*
X4450107Y845716D01*
X4428796Y839458D01*
X4423813Y833708D01*
X4416892Y830547D01*
X4404883Y811862D01*
X4390339Y795076D01*
X4389256Y787545D01*
X4385143Y781144D01*
X4385143Y758936D01*
X4381982Y736949D01*
X4385143Y730028D01*
X4385143Y235127D01*
X4381982Y213140D01*
X4151532Y213140D01*
X4150505Y215389D01*
X4144248Y236700D01*
X4138497Y241683D01*
X4135337Y248604D01*
X4116651Y260613D01*
X4099866Y275157D01*
X4092334Y276240D01*
X4085934Y280353D01*
X4063725Y280353D01*
X4041739Y283514D01*
X4034817Y280353D01*
X3851716Y280353D01*
X3809748Y268030D01*
X3771291Y223648D01*
X3762934Y165521D01*
X3787329Y112102D01*
X3836732Y80353D01*
X3956571Y80353D01*
X3956571Y-111559D01*
X3954933Y-113196D01*
X3849868Y-148219D01*
X3787084Y-148219D01*
X3682018Y-113197D01*
X3614947Y-46124D01*
X3579495Y24779D01*
X3537523Y192665D01*
X3537523Y310898D01*
X3579495Y478786D01*
X3614947Y549689D01*
X3682017Y616759D01*
X3787083Y651781D01*
X3890108Y651781D01*
X3977091Y608289D01*
X4020140Y600542D01*
X4074385Y623040D01*
X4107855Y671293D01*
X4109925Y729982D01*
X4079936Y780473D01*
X3963255Y838814D01*
X3943077Y851781D01*
X3922641Y851781D01*
X3902526Y855401D01*
X3893798Y851781D01*
X3783395Y851781D01*
X3767090Y855935D01*
X3740949Y847222D01*
X3714510Y839458D01*
X3713230Y837982D01*
X3601492Y800736D01*
X3578052Y795636D01*
X3563599Y781184D01*
X3546819Y769521D01*
X3543207Y760792D01*
X3470916Y688500D01*
X3456451Y679908D01*
X3444133Y655274D01*
X3430922Y631078D01*
X3431061Y629129D01*
X3403667Y574341D01*
X3395250Y566426D01*
X3390789Y548586D01*
X3389270Y545546D01*
X3387317Y534695D01*
X3344500Y363430D01*
X3337524Y352573D01*
X3337523Y335522D01*
X3337022Y333514D01*
X3337524Y321168D01*
X3337524Y196812D01*
X3333388Y184586D01*
X2654191Y184586D01*
X2654191Y1561857D01*
X13601810Y1561857D01*
X13601810Y-823857D01*
G37*
D10*
X13466125Y-11842963D02*
X13466125Y-11207963D01*
X13889458Y-11207963D02*
X14010411Y-11207963D01*
X14010411Y-11207963D02*
X14070887Y-11238201D01*
X14070887Y-11238201D02*
X14131363Y-11298677D01*
X14131363Y-11298677D02*
X14161601Y-11419629D01*
X14161601Y-11419629D02*
X14161601Y-11631296D01*
X14161601Y-11631296D02*
X14131363Y-11752248D01*
X14131363Y-11752248D02*
X14070887Y-11812725D01*
X14070887Y-11812725D02*
X14010411Y-11842963D01*
X14010411Y-11842963D02*
X13889458Y-11842963D01*
X13889458Y-11842963D02*
X13828982Y-11812725D01*
X13828982Y-11812725D02*
X13768506Y-11752248D01*
X13768506Y-11752248D02*
X13738268Y-11631296D01*
X13738268Y-11631296D02*
X13738268Y-11419629D01*
X13738268Y-11419629D02*
X13768506Y-11298677D01*
X13768506Y-11298677D02*
X13828982Y-11238201D01*
X13828982Y-11238201D02*
X13889458Y-11207963D01*
X14766363Y-11842963D02*
X14403506Y-11842963D01*
X14584934Y-11842963D02*
X14584934Y-11207963D01*
X14584934Y-11207963D02*
X14524458Y-11298677D01*
X14524458Y-11298677D02*
X14463982Y-11359153D01*
X14463982Y-11359153D02*
X14403506Y-11389391D01*
X1568255Y349037D02*
X1265874Y349037D01*
X1265874Y349037D02*
X1235636Y46656D01*
X1235636Y46656D02*
X1265874Y76895D01*
X1265874Y76895D02*
X1326350Y107133D01*
X1326350Y107133D02*
X1477541Y107133D01*
X1477541Y107133D02*
X1538017Y76895D01*
X1538017Y76895D02*
X1568255Y46656D01*
X1568255Y46656D02*
X1598493Y-13820D01*
X1598493Y-13820D02*
X1598493Y-165010D01*
X1598493Y-165010D02*
X1568255Y-225486D01*
X1568255Y-225486D02*
X1538017Y-255725D01*
X1538017Y-255725D02*
X1477541Y-285963D01*
X1477541Y-285963D02*
X1326350Y-285963D01*
X1326350Y-285963D02*
X1265874Y-255725D01*
X1265874Y-255725D02*
X1235636Y-225486D01*
X1779922Y349037D02*
X1991588Y-285963D01*
X1991588Y-285963D02*
X2203255Y349037D01*
X1265874Y-30765963D02*
X1265874Y-30130963D01*
X1265874Y-30130963D02*
X1417064Y-30130963D01*
X1417064Y-30130963D02*
X1507779Y-30161201D01*
X1507779Y-30161201D02*
X1568255Y-30221677D01*
X1568255Y-30221677D02*
X1598493Y-30282153D01*
X1598493Y-30282153D02*
X1628731Y-30403105D01*
X1628731Y-30403105D02*
X1628731Y-30493820D01*
X1628731Y-30493820D02*
X1598493Y-30614772D01*
X1598493Y-30614772D02*
X1568255Y-30675248D01*
X1568255Y-30675248D02*
X1507779Y-30735725D01*
X1507779Y-30735725D02*
X1417064Y-30765963D01*
X1417064Y-30765963D02*
X1265874Y-30765963D01*
X2233493Y-30765963D02*
X1870636Y-30765963D01*
X2052064Y-30765963D02*
X2052064Y-30130963D01*
X2052064Y-30130963D02*
X1991588Y-30221677D01*
X1991588Y-30221677D02*
X1931112Y-30282153D01*
X1931112Y-30282153D02*
X1870636Y-30312391D01*
X12419887Y-9841201D02*
X12359411Y-9810963D01*
X12359411Y-9810963D02*
X12268697Y-9810963D01*
X12268697Y-9810963D02*
X12177982Y-9841201D01*
X12177982Y-9841201D02*
X12117506Y-9901677D01*
X12117506Y-9901677D02*
X12087268Y-9962153D01*
X12087268Y-9962153D02*
X12057030Y-10083105D01*
X12057030Y-10083105D02*
X12057030Y-10173820D01*
X12057030Y-10173820D02*
X12087268Y-10294772D01*
X12087268Y-10294772D02*
X12117506Y-10355248D01*
X12117506Y-10355248D02*
X12177982Y-10415725D01*
X12177982Y-10415725D02*
X12268697Y-10445963D01*
X12268697Y-10445963D02*
X12329173Y-10445963D01*
X12329173Y-10445963D02*
X12419887Y-10415725D01*
X12419887Y-10415725D02*
X12450125Y-10385486D01*
X12450125Y-10385486D02*
X12450125Y-10173820D01*
X12450125Y-10173820D02*
X12329173Y-10173820D01*
X12722268Y-10445963D02*
X12722268Y-9810963D01*
X12722268Y-9810963D02*
X13085125Y-10445963D01*
X13085125Y-10445963D02*
X13085125Y-9810963D01*
X13387506Y-10445963D02*
X13387506Y-9810963D01*
X13387506Y-9810963D02*
X13538696Y-9810963D01*
X13538696Y-9810963D02*
X13629411Y-9841201D01*
X13629411Y-9841201D02*
X13689887Y-9901677D01*
X13689887Y-9901677D02*
X13720125Y-9962153D01*
X13720125Y-9962153D02*
X13750363Y-10083105D01*
X13750363Y-10083105D02*
X13750363Y-10173820D01*
X13750363Y-10173820D02*
X13720125Y-10294772D01*
X13720125Y-10294772D02*
X13689887Y-10355248D01*
X13689887Y-10355248D02*
X13629411Y-10415725D01*
X13629411Y-10415725D02*
X13538696Y-10445963D01*
X13538696Y-10445963D02*
X13387506Y-10445963D01*
X1265874Y-15525963D02*
X1265874Y-14890963D01*
X1265874Y-14890963D02*
X1417064Y-14890963D01*
X1417064Y-14890963D02*
X1507779Y-14921201D01*
X1507779Y-14921201D02*
X1568255Y-14981677D01*
X1568255Y-14981677D02*
X1598493Y-15042153D01*
X1598493Y-15042153D02*
X1628731Y-15163105D01*
X1628731Y-15163105D02*
X1628731Y-15253820D01*
X1628731Y-15253820D02*
X1598493Y-15374772D01*
X1598493Y-15374772D02*
X1568255Y-15435248D01*
X1568255Y-15435248D02*
X1507779Y-15495725D01*
X1507779Y-15495725D02*
X1417064Y-15525963D01*
X1417064Y-15525963D02*
X1265874Y-15525963D01*
X2173017Y-14890963D02*
X2052064Y-14890963D01*
X2052064Y-14890963D02*
X1991588Y-14921201D01*
X1991588Y-14921201D02*
X1961350Y-14951439D01*
X1961350Y-14951439D02*
X1900874Y-15042153D01*
X1900874Y-15042153D02*
X1870636Y-15163105D01*
X1870636Y-15163105D02*
X1870636Y-15405010D01*
X1870636Y-15405010D02*
X1900874Y-15465486D01*
X1900874Y-15465486D02*
X1931112Y-15495725D01*
X1931112Y-15495725D02*
X1991588Y-15525963D01*
X1991588Y-15525963D02*
X2112541Y-15525963D01*
X2112541Y-15525963D02*
X2173017Y-15495725D01*
X2173017Y-15495725D02*
X2203255Y-15465486D01*
X2203255Y-15465486D02*
X2233493Y-15405010D01*
X2233493Y-15405010D02*
X2233493Y-15253820D01*
X2233493Y-15253820D02*
X2203255Y-15193344D01*
X2203255Y-15193344D02*
X2173017Y-15163105D01*
X2173017Y-15163105D02*
X2112541Y-15132867D01*
X2112541Y-15132867D02*
X1991588Y-15132867D01*
X1991588Y-15132867D02*
X1931112Y-15163105D01*
X1931112Y-15163105D02*
X1900874Y-15193344D01*
X1900874Y-15193344D02*
X1870636Y-15253820D01*
X1265874Y-20605963D02*
X1265874Y-19970963D01*
X1265874Y-19970963D02*
X1417064Y-19970963D01*
X1417064Y-19970963D02*
X1507779Y-20001201D01*
X1507779Y-20001201D02*
X1568255Y-20061677D01*
X1568255Y-20061677D02*
X1598493Y-20122153D01*
X1598493Y-20122153D02*
X1628731Y-20243105D01*
X1628731Y-20243105D02*
X1628731Y-20333820D01*
X1628731Y-20333820D02*
X1598493Y-20454772D01*
X1598493Y-20454772D02*
X1568255Y-20515248D01*
X1568255Y-20515248D02*
X1507779Y-20575725D01*
X1507779Y-20575725D02*
X1417064Y-20605963D01*
X1417064Y-20605963D02*
X1265874Y-20605963D01*
X2173017Y-20182629D02*
X2173017Y-20605963D01*
X2021826Y-19940725D02*
X1870636Y-20394296D01*
X1870636Y-20394296D02*
X2263731Y-20394296D01*
X1265874Y-23145963D02*
X1265874Y-22510963D01*
X1265874Y-22510963D02*
X1417064Y-22510963D01*
X1417064Y-22510963D02*
X1507779Y-22541201D01*
X1507779Y-22541201D02*
X1568255Y-22601677D01*
X1568255Y-22601677D02*
X1598493Y-22662153D01*
X1598493Y-22662153D02*
X1628731Y-22783105D01*
X1628731Y-22783105D02*
X1628731Y-22873820D01*
X1628731Y-22873820D02*
X1598493Y-22994772D01*
X1598493Y-22994772D02*
X1568255Y-23055248D01*
X1568255Y-23055248D02*
X1507779Y-23115725D01*
X1507779Y-23115725D02*
X1417064Y-23145963D01*
X1417064Y-23145963D02*
X1265874Y-23145963D01*
X1840398Y-22510963D02*
X2233493Y-22510963D01*
X2233493Y-22510963D02*
X2021826Y-22752867D01*
X2021826Y-22752867D02*
X2112541Y-22752867D01*
X2112541Y-22752867D02*
X2173017Y-22783105D01*
X2173017Y-22783105D02*
X2203255Y-22813344D01*
X2203255Y-22813344D02*
X2233493Y-22873820D01*
X2233493Y-22873820D02*
X2233493Y-23025010D01*
X2233493Y-23025010D02*
X2203255Y-23085486D01*
X2203255Y-23085486D02*
X2173017Y-23115725D01*
X2173017Y-23115725D02*
X2112541Y-23145963D01*
X2112541Y-23145963D02*
X1931112Y-23145963D01*
X1931112Y-23145963D02*
X1870636Y-23115725D01*
X1870636Y-23115725D02*
X1840398Y-23085486D01*
X1628731Y-2825963D02*
X1417064Y-2523582D01*
X1265874Y-2825963D02*
X1265874Y-2190963D01*
X1265874Y-2190963D02*
X1507779Y-2190963D01*
X1507779Y-2190963D02*
X1568255Y-2221201D01*
X1568255Y-2221201D02*
X1598493Y-2251439D01*
X1598493Y-2251439D02*
X1628731Y-2311915D01*
X1628731Y-2311915D02*
X1628731Y-2402629D01*
X1628731Y-2402629D02*
X1598493Y-2463105D01*
X1598493Y-2463105D02*
X1568255Y-2493344D01*
X1568255Y-2493344D02*
X1507779Y-2523582D01*
X1507779Y-2523582D02*
X1265874Y-2523582D01*
X2142779Y-2795725D02*
X2082303Y-2825963D01*
X2082303Y-2825963D02*
X1961350Y-2825963D01*
X1961350Y-2825963D02*
X1900874Y-2795725D01*
X1900874Y-2795725D02*
X1870636Y-2735248D01*
X1870636Y-2735248D02*
X1870636Y-2493344D01*
X1870636Y-2493344D02*
X1900874Y-2432867D01*
X1900874Y-2432867D02*
X1961350Y-2402629D01*
X1961350Y-2402629D02*
X2082303Y-2402629D01*
X2082303Y-2402629D02*
X2142779Y-2432867D01*
X2142779Y-2432867D02*
X2173017Y-2493344D01*
X2173017Y-2493344D02*
X2173017Y-2553820D01*
X2173017Y-2553820D02*
X1870636Y-2614296D01*
X2717303Y-2825963D02*
X2717303Y-2493344D01*
X2717303Y-2493344D02*
X2687065Y-2432867D01*
X2687065Y-2432867D02*
X2626589Y-2402629D01*
X2626589Y-2402629D02*
X2505636Y-2402629D01*
X2505636Y-2402629D02*
X2445160Y-2432867D01*
X2717303Y-2795725D02*
X2656827Y-2825963D01*
X2656827Y-2825963D02*
X2505636Y-2825963D01*
X2505636Y-2825963D02*
X2445160Y-2795725D01*
X2445160Y-2795725D02*
X2414922Y-2735248D01*
X2414922Y-2735248D02*
X2414922Y-2674772D01*
X2414922Y-2674772D02*
X2445160Y-2614296D01*
X2445160Y-2614296D02*
X2505636Y-2584058D01*
X2505636Y-2584058D02*
X2656827Y-2584058D01*
X2656827Y-2584058D02*
X2717303Y-2553820D01*
X3291827Y-2825963D02*
X3291827Y-2190963D01*
X3291827Y-2795725D02*
X3231351Y-2825963D01*
X3231351Y-2825963D02*
X3110398Y-2825963D01*
X3110398Y-2825963D02*
X3049922Y-2795725D01*
X3049922Y-2795725D02*
X3019684Y-2765486D01*
X3019684Y-2765486D02*
X2989446Y-2705010D01*
X2989446Y-2705010D02*
X2989446Y-2523582D01*
X2989446Y-2523582D02*
X3019684Y-2463105D01*
X3019684Y-2463105D02*
X3049922Y-2432867D01*
X3049922Y-2432867D02*
X3110398Y-2402629D01*
X3110398Y-2402629D02*
X3231351Y-2402629D01*
X3231351Y-2402629D02*
X3291827Y-2432867D01*
X1265874Y-7573344D02*
X1477541Y-7573344D01*
X1568255Y-7905963D02*
X1265874Y-7905963D01*
X1265874Y-7905963D02*
X1265874Y-7270963D01*
X1265874Y-7270963D02*
X1568255Y-7270963D01*
X1840398Y-7905963D02*
X1840398Y-7270963D01*
X1840398Y-7270963D02*
X2203255Y-7905963D01*
X2203255Y-7905963D02*
X2203255Y-7270963D01*
X12704125Y-7905963D02*
X12704125Y-7270963D01*
X13127458Y-7270963D02*
X13248411Y-7270963D01*
X13248411Y-7270963D02*
X13308887Y-7301201D01*
X13308887Y-7301201D02*
X13369363Y-7361677D01*
X13369363Y-7361677D02*
X13399601Y-7482629D01*
X13399601Y-7482629D02*
X13399601Y-7694296D01*
X13399601Y-7694296D02*
X13369363Y-7815248D01*
X13369363Y-7815248D02*
X13308887Y-7875725D01*
X13308887Y-7875725D02*
X13248411Y-7905963D01*
X13248411Y-7905963D02*
X13127458Y-7905963D01*
X13127458Y-7905963D02*
X13066982Y-7875725D01*
X13066982Y-7875725D02*
X13006506Y-7815248D01*
X13006506Y-7815248D02*
X12976268Y-7694296D01*
X12976268Y-7694296D02*
X12976268Y-7482629D01*
X12976268Y-7482629D02*
X13006506Y-7361677D01*
X13006506Y-7361677D02*
X13066982Y-7301201D01*
X13066982Y-7301201D02*
X13127458Y-7270963D01*
X13792696Y-7270963D02*
X13853173Y-7270963D01*
X13853173Y-7270963D02*
X13913649Y-7301201D01*
X13913649Y-7301201D02*
X13943887Y-7331439D01*
X13943887Y-7331439D02*
X13974125Y-7391915D01*
X13974125Y-7391915D02*
X14004363Y-7512867D01*
X14004363Y-7512867D02*
X14004363Y-7664058D01*
X14004363Y-7664058D02*
X13974125Y-7785010D01*
X13974125Y-7785010D02*
X13943887Y-7845486D01*
X13943887Y-7845486D02*
X13913649Y-7875725D01*
X13913649Y-7875725D02*
X13853173Y-7905963D01*
X13853173Y-7905963D02*
X13792696Y-7905963D01*
X13792696Y-7905963D02*
X13732220Y-7875725D01*
X13732220Y-7875725D02*
X13701982Y-7845486D01*
X13701982Y-7845486D02*
X13671744Y-7785010D01*
X13671744Y-7785010D02*
X13641506Y-7664058D01*
X13641506Y-7664058D02*
X13641506Y-7512867D01*
X13641506Y-7512867D02*
X13671744Y-7391915D01*
X13671744Y-7391915D02*
X13701982Y-7331439D01*
X13701982Y-7331439D02*
X13732220Y-7301201D01*
X13732220Y-7301201D02*
X13792696Y-7270963D01*
X12450125Y-30765963D02*
X12450125Y-30130963D01*
X12873458Y-30130963D02*
X12994411Y-30130963D01*
X12994411Y-30130963D02*
X13054887Y-30161201D01*
X13054887Y-30161201D02*
X13115363Y-30221677D01*
X13115363Y-30221677D02*
X13145601Y-30342629D01*
X13145601Y-30342629D02*
X13145601Y-30554296D01*
X13145601Y-30554296D02*
X13115363Y-30675248D01*
X13115363Y-30675248D02*
X13054887Y-30735725D01*
X13054887Y-30735725D02*
X12994411Y-30765963D01*
X12994411Y-30765963D02*
X12873458Y-30765963D01*
X12873458Y-30765963D02*
X12812982Y-30735725D01*
X12812982Y-30735725D02*
X12752506Y-30675248D01*
X12752506Y-30675248D02*
X12722268Y-30554296D01*
X12722268Y-30554296D02*
X12722268Y-30342629D01*
X12722268Y-30342629D02*
X12752506Y-30221677D01*
X12752506Y-30221677D02*
X12812982Y-30161201D01*
X12812982Y-30161201D02*
X12873458Y-30130963D01*
X13357268Y-30130963D02*
X13750363Y-30130963D01*
X13750363Y-30130963D02*
X13538696Y-30372867D01*
X13538696Y-30372867D02*
X13629411Y-30372867D01*
X13629411Y-30372867D02*
X13689887Y-30403105D01*
X13689887Y-30403105D02*
X13720125Y-30433344D01*
X13720125Y-30433344D02*
X13750363Y-30493820D01*
X13750363Y-30493820D02*
X13750363Y-30645010D01*
X13750363Y-30645010D02*
X13720125Y-30705486D01*
X13720125Y-30705486D02*
X13689887Y-30735725D01*
X13689887Y-30735725D02*
X13629411Y-30765963D01*
X13629411Y-30765963D02*
X13447982Y-30765963D01*
X13447982Y-30765963D02*
X13387506Y-30735725D01*
X13387506Y-30735725D02*
X13357268Y-30705486D01*
X1598493Y-27621201D02*
X1538017Y-27590963D01*
X1538017Y-27590963D02*
X1447303Y-27590963D01*
X1447303Y-27590963D02*
X1356588Y-27621201D01*
X1356588Y-27621201D02*
X1296112Y-27681677D01*
X1296112Y-27681677D02*
X1265874Y-27742153D01*
X1265874Y-27742153D02*
X1235636Y-27863105D01*
X1235636Y-27863105D02*
X1235636Y-27953820D01*
X1235636Y-27953820D02*
X1265874Y-28074772D01*
X1265874Y-28074772D02*
X1296112Y-28135248D01*
X1296112Y-28135248D02*
X1356588Y-28195725D01*
X1356588Y-28195725D02*
X1447303Y-28225963D01*
X1447303Y-28225963D02*
X1507779Y-28225963D01*
X1507779Y-28225963D02*
X1598493Y-28195725D01*
X1598493Y-28195725D02*
X1628731Y-28165486D01*
X1628731Y-28165486D02*
X1628731Y-27953820D01*
X1628731Y-27953820D02*
X1507779Y-27953820D01*
X1900874Y-28225963D02*
X1900874Y-27590963D01*
X1900874Y-27590963D02*
X2263731Y-28225963D01*
X2263731Y-28225963D02*
X2263731Y-27590963D01*
X2566112Y-28225963D02*
X2566112Y-27590963D01*
X2566112Y-27590963D02*
X2717302Y-27590963D01*
X2717302Y-27590963D02*
X2808017Y-27621201D01*
X2808017Y-27621201D02*
X2868493Y-27681677D01*
X2868493Y-27681677D02*
X2898731Y-27742153D01*
X2898731Y-27742153D02*
X2928969Y-27863105D01*
X2928969Y-27863105D02*
X2928969Y-27953820D01*
X2928969Y-27953820D02*
X2898731Y-28074772D01*
X2898731Y-28074772D02*
X2868493Y-28135248D01*
X2868493Y-28135248D02*
X2808017Y-28195725D01*
X2808017Y-28195725D02*
X2717302Y-28225963D01*
X2717302Y-28225963D02*
X2566112Y-28225963D01*
X12419887Y-27621201D02*
X12359411Y-27590963D01*
X12359411Y-27590963D02*
X12268697Y-27590963D01*
X12268697Y-27590963D02*
X12177982Y-27621201D01*
X12177982Y-27621201D02*
X12117506Y-27681677D01*
X12117506Y-27681677D02*
X12087268Y-27742153D01*
X12087268Y-27742153D02*
X12057030Y-27863105D01*
X12057030Y-27863105D02*
X12057030Y-27953820D01*
X12057030Y-27953820D02*
X12087268Y-28074772D01*
X12087268Y-28074772D02*
X12117506Y-28135248D01*
X12117506Y-28135248D02*
X12177982Y-28195725D01*
X12177982Y-28195725D02*
X12268697Y-28225963D01*
X12268697Y-28225963D02*
X12329173Y-28225963D01*
X12329173Y-28225963D02*
X12419887Y-28195725D01*
X12419887Y-28195725D02*
X12450125Y-28165486D01*
X12450125Y-28165486D02*
X12450125Y-27953820D01*
X12450125Y-27953820D02*
X12329173Y-27953820D01*
X12722268Y-28225963D02*
X12722268Y-27590963D01*
X12722268Y-27590963D02*
X13085125Y-28225963D01*
X13085125Y-28225963D02*
X13085125Y-27590963D01*
X13387506Y-28225963D02*
X13387506Y-27590963D01*
X13387506Y-27590963D02*
X13538696Y-27590963D01*
X13538696Y-27590963D02*
X13629411Y-27621201D01*
X13629411Y-27621201D02*
X13689887Y-27681677D01*
X13689887Y-27681677D02*
X13720125Y-27742153D01*
X13720125Y-27742153D02*
X13750363Y-27863105D01*
X13750363Y-27863105D02*
X13750363Y-27953820D01*
X13750363Y-27953820D02*
X13720125Y-28074772D01*
X13720125Y-28074772D02*
X13689887Y-28135248D01*
X13689887Y-28135248D02*
X13629411Y-28195725D01*
X13629411Y-28195725D02*
X13538696Y-28225963D01*
X13538696Y-28225963D02*
X13387506Y-28225963D01*
X13175839Y-37750963D02*
X12873458Y-37750963D01*
X12873458Y-37750963D02*
X12843220Y-38053344D01*
X12843220Y-38053344D02*
X12873458Y-38023105D01*
X12873458Y-38023105D02*
X12933934Y-37992867D01*
X12933934Y-37992867D02*
X13085125Y-37992867D01*
X13085125Y-37992867D02*
X13145601Y-38023105D01*
X13145601Y-38023105D02*
X13175839Y-38053344D01*
X13175839Y-38053344D02*
X13206077Y-38113820D01*
X13206077Y-38113820D02*
X13206077Y-38265010D01*
X13206077Y-38265010D02*
X13175839Y-38325486D01*
X13175839Y-38325486D02*
X13145601Y-38355725D01*
X13145601Y-38355725D02*
X13085125Y-38385963D01*
X13085125Y-38385963D02*
X12933934Y-38385963D01*
X12933934Y-38385963D02*
X12873458Y-38355725D01*
X12873458Y-38355725D02*
X12843220Y-38325486D01*
X13387506Y-37750963D02*
X13599172Y-38385963D01*
X13599172Y-38385963D02*
X13810839Y-37750963D01*
%TO.C,IC6*%
X7254119Y-17938963D02*
X7254119Y-17303963D01*
X7919357Y-17878486D02*
X7889119Y-17908725D01*
X7889119Y-17908725D02*
X7798405Y-17938963D01*
X7798405Y-17938963D02*
X7737929Y-17938963D01*
X7737929Y-17938963D02*
X7647214Y-17908725D01*
X7647214Y-17908725D02*
X7586738Y-17848248D01*
X7586738Y-17848248D02*
X7556500Y-17787772D01*
X7556500Y-17787772D02*
X7526262Y-17666820D01*
X7526262Y-17666820D02*
X7526262Y-17576105D01*
X7526262Y-17576105D02*
X7556500Y-17455153D01*
X7556500Y-17455153D02*
X7586738Y-17394677D01*
X7586738Y-17394677D02*
X7647214Y-17334201D01*
X7647214Y-17334201D02*
X7737929Y-17303963D01*
X7737929Y-17303963D02*
X7798405Y-17303963D01*
X7798405Y-17303963D02*
X7889119Y-17334201D01*
X7889119Y-17334201D02*
X7919357Y-17364439D01*
X8463643Y-17303963D02*
X8342690Y-17303963D01*
X8342690Y-17303963D02*
X8282214Y-17334201D01*
X8282214Y-17334201D02*
X8251976Y-17364439D01*
X8251976Y-17364439D02*
X8191500Y-17455153D01*
X8191500Y-17455153D02*
X8161262Y-17576105D01*
X8161262Y-17576105D02*
X8161262Y-17818010D01*
X8161262Y-17818010D02*
X8191500Y-17878486D01*
X8191500Y-17878486D02*
X8221738Y-17908725D01*
X8221738Y-17908725D02*
X8282214Y-17938963D01*
X8282214Y-17938963D02*
X8403167Y-17938963D01*
X8403167Y-17938963D02*
X8463643Y-17908725D01*
X8463643Y-17908725D02*
X8493881Y-17878486D01*
X8493881Y-17878486D02*
X8524119Y-17818010D01*
X8524119Y-17818010D02*
X8524119Y-17666820D01*
X8524119Y-17666820D02*
X8493881Y-17606344D01*
X8493881Y-17606344D02*
X8463643Y-17576105D01*
X8463643Y-17576105D02*
X8403167Y-17545867D01*
X8403167Y-17545867D02*
X8282214Y-17545867D01*
X8282214Y-17545867D02*
X8221738Y-17576105D01*
X8221738Y-17576105D02*
X8191500Y-17606344D01*
X8191500Y-17606344D02*
X8161262Y-17666820D01*
X5288642Y-22383963D02*
X5711975Y-22383963D01*
X5711975Y-22383963D02*
X5439832Y-23018963D01*
X6226023Y-22595629D02*
X6226023Y-23018963D01*
X6074832Y-22353725D02*
X5923642Y-22807296D01*
X5923642Y-22807296D02*
X6316737Y-22807296D01*
X6528404Y-22837534D02*
X6830785Y-22837534D01*
X6467928Y-23018963D02*
X6679594Y-22383963D01*
X6679594Y-22383963D02*
X6891261Y-23018963D01*
X7102928Y-23018963D02*
X7102928Y-22383963D01*
X7102928Y-22686344D02*
X7465785Y-22686344D01*
X7465785Y-23018963D02*
X7465785Y-22383963D01*
X8131023Y-22958486D02*
X8100785Y-22988725D01*
X8100785Y-22988725D02*
X8010071Y-23018963D01*
X8010071Y-23018963D02*
X7949595Y-23018963D01*
X7949595Y-23018963D02*
X7858880Y-22988725D01*
X7858880Y-22988725D02*
X7798404Y-22928248D01*
X7798404Y-22928248D02*
X7768166Y-22867772D01*
X7768166Y-22867772D02*
X7737928Y-22746820D01*
X7737928Y-22746820D02*
X7737928Y-22656105D01*
X7737928Y-22656105D02*
X7768166Y-22535153D01*
X7768166Y-22535153D02*
X7798404Y-22474677D01*
X7798404Y-22474677D02*
X7858880Y-22414201D01*
X7858880Y-22414201D02*
X7949595Y-22383963D01*
X7949595Y-22383963D02*
X8010071Y-22383963D01*
X8010071Y-22383963D02*
X8100785Y-22414201D01*
X8100785Y-22414201D02*
X8131023Y-22444439D01*
X8312452Y-22383963D02*
X8675309Y-22383963D01*
X8493880Y-23018963D02*
X8493880Y-22383963D01*
X9219595Y-23018963D02*
X8856738Y-23018963D01*
X9038166Y-23018963D02*
X9038166Y-22383963D01*
X9038166Y-22383963D02*
X8977690Y-22474677D01*
X8977690Y-22474677D02*
X8917214Y-22535153D01*
X8917214Y-22535153D02*
X8856738Y-22565391D01*
X9431262Y-22383963D02*
X9824357Y-22383963D01*
X9824357Y-22383963D02*
X9612690Y-22625867D01*
X9612690Y-22625867D02*
X9703405Y-22625867D01*
X9703405Y-22625867D02*
X9763881Y-22656105D01*
X9763881Y-22656105D02*
X9794119Y-22686344D01*
X9794119Y-22686344D02*
X9824357Y-22746820D01*
X9824357Y-22746820D02*
X9824357Y-22898010D01*
X9824357Y-22898010D02*
X9794119Y-22958486D01*
X9794119Y-22958486D02*
X9763881Y-22988725D01*
X9763881Y-22988725D02*
X9703405Y-23018963D01*
X9703405Y-23018963D02*
X9521976Y-23018963D01*
X9521976Y-23018963D02*
X9461500Y-22988725D01*
X9461500Y-22988725D02*
X9431262Y-22958486D01*
X10066262Y-22444439D02*
X10096500Y-22414201D01*
X10096500Y-22414201D02*
X10156976Y-22383963D01*
X10156976Y-22383963D02*
X10308167Y-22383963D01*
X10308167Y-22383963D02*
X10368643Y-22414201D01*
X10368643Y-22414201D02*
X10398881Y-22444439D01*
X10398881Y-22444439D02*
X10429119Y-22504915D01*
X10429119Y-22504915D02*
X10429119Y-22565391D01*
X10429119Y-22565391D02*
X10398881Y-22656105D01*
X10398881Y-22656105D02*
X10036024Y-23018963D01*
X10036024Y-23018963D02*
X10429119Y-23018963D01*
%TO.C,IC4*%
X5730119Y-6762963D02*
X5730119Y-6127963D01*
X6395357Y-6702486D02*
X6365119Y-6732725D01*
X6365119Y-6732725D02*
X6274405Y-6762963D01*
X6274405Y-6762963D02*
X6213929Y-6762963D01*
X6213929Y-6762963D02*
X6123214Y-6732725D01*
X6123214Y-6732725D02*
X6062738Y-6672248D01*
X6062738Y-6672248D02*
X6032500Y-6611772D01*
X6032500Y-6611772D02*
X6002262Y-6490820D01*
X6002262Y-6490820D02*
X6002262Y-6400105D01*
X6002262Y-6400105D02*
X6032500Y-6279153D01*
X6032500Y-6279153D02*
X6062738Y-6218677D01*
X6062738Y-6218677D02*
X6123214Y-6158201D01*
X6123214Y-6158201D02*
X6213929Y-6127963D01*
X6213929Y-6127963D02*
X6274405Y-6127963D01*
X6274405Y-6127963D02*
X6365119Y-6158201D01*
X6365119Y-6158201D02*
X6395357Y-6188439D01*
X6939643Y-6339629D02*
X6939643Y-6762963D01*
X6788452Y-6097725D02*
X6637262Y-6551296D01*
X6637262Y-6551296D02*
X7030357Y-6551296D01*
X4006547Y-14890963D02*
X4429880Y-14890963D01*
X4429880Y-14890963D02*
X4157737Y-15525963D01*
X4943928Y-15102629D02*
X4943928Y-15525963D01*
X4792737Y-14860725D02*
X4641547Y-15314296D01*
X4641547Y-15314296D02*
X5034642Y-15314296D01*
X5246309Y-15344534D02*
X5548690Y-15344534D01*
X5185833Y-15525963D02*
X5397499Y-14890963D01*
X5397499Y-14890963D02*
X5609166Y-15525963D01*
X5820833Y-15525963D02*
X5820833Y-14890963D01*
X5820833Y-15193344D02*
X6183690Y-15193344D01*
X6183690Y-15525963D02*
X6183690Y-14890963D01*
X6848928Y-15465486D02*
X6818690Y-15495725D01*
X6818690Y-15495725D02*
X6727976Y-15525963D01*
X6727976Y-15525963D02*
X6667500Y-15525963D01*
X6667500Y-15525963D02*
X6576785Y-15495725D01*
X6576785Y-15495725D02*
X6516309Y-15435248D01*
X6516309Y-15435248D02*
X6486071Y-15374772D01*
X6486071Y-15374772D02*
X6455833Y-15253820D01*
X6455833Y-15253820D02*
X6455833Y-15163105D01*
X6455833Y-15163105D02*
X6486071Y-15042153D01*
X6486071Y-15042153D02*
X6516309Y-14981677D01*
X6516309Y-14981677D02*
X6576785Y-14921201D01*
X6576785Y-14921201D02*
X6667500Y-14890963D01*
X6667500Y-14890963D02*
X6727976Y-14890963D01*
X6727976Y-14890963D02*
X6818690Y-14921201D01*
X6818690Y-14921201D02*
X6848928Y-14951439D01*
X7453690Y-15525963D02*
X7090833Y-15525963D01*
X7272261Y-15525963D02*
X7272261Y-14890963D01*
X7272261Y-14890963D02*
X7211785Y-14981677D01*
X7211785Y-14981677D02*
X7151309Y-15042153D01*
X7151309Y-15042153D02*
X7090833Y-15072391D01*
X7695595Y-14951439D02*
X7725833Y-14921201D01*
X7725833Y-14921201D02*
X7786309Y-14890963D01*
X7786309Y-14890963D02*
X7937500Y-14890963D01*
X7937500Y-14890963D02*
X7997976Y-14921201D01*
X7997976Y-14921201D02*
X8028214Y-14951439D01*
X8028214Y-14951439D02*
X8058452Y-15011915D01*
X8058452Y-15011915D02*
X8058452Y-15072391D01*
X8058452Y-15072391D02*
X8028214Y-15163105D01*
X8028214Y-15163105D02*
X7665357Y-15525963D01*
X7665357Y-15525963D02*
X8058452Y-15525963D01*
X8632976Y-14890963D02*
X8330595Y-14890963D01*
X8330595Y-14890963D02*
X8300357Y-15193344D01*
X8300357Y-15193344D02*
X8330595Y-15163105D01*
X8330595Y-15163105D02*
X8391071Y-15132867D01*
X8391071Y-15132867D02*
X8542262Y-15132867D01*
X8542262Y-15132867D02*
X8602738Y-15163105D01*
X8602738Y-15163105D02*
X8632976Y-15193344D01*
X8632976Y-15193344D02*
X8663214Y-15253820D01*
X8663214Y-15253820D02*
X8663214Y-15405010D01*
X8663214Y-15405010D02*
X8632976Y-15465486D01*
X8632976Y-15465486D02*
X8602738Y-15495725D01*
X8602738Y-15495725D02*
X8542262Y-15525963D01*
X8542262Y-15525963D02*
X8391071Y-15525963D01*
X8391071Y-15525963D02*
X8330595Y-15495725D01*
X8330595Y-15495725D02*
X8300357Y-15465486D01*
%TO.C,IC3*%
X6619119Y-3079963D02*
X6619119Y-2444963D01*
X7284357Y-3019486D02*
X7254119Y-3049725D01*
X7254119Y-3049725D02*
X7163405Y-3079963D01*
X7163405Y-3079963D02*
X7102929Y-3079963D01*
X7102929Y-3079963D02*
X7012214Y-3049725D01*
X7012214Y-3049725D02*
X6951738Y-2989248D01*
X6951738Y-2989248D02*
X6921500Y-2928772D01*
X6921500Y-2928772D02*
X6891262Y-2807820D01*
X6891262Y-2807820D02*
X6891262Y-2717105D01*
X6891262Y-2717105D02*
X6921500Y-2596153D01*
X6921500Y-2596153D02*
X6951738Y-2535677D01*
X6951738Y-2535677D02*
X7012214Y-2475201D01*
X7012214Y-2475201D02*
X7102929Y-2444963D01*
X7102929Y-2444963D02*
X7163405Y-2444963D01*
X7163405Y-2444963D02*
X7254119Y-2475201D01*
X7254119Y-2475201D02*
X7284357Y-2505439D01*
X7496024Y-2444963D02*
X7889119Y-2444963D01*
X7889119Y-2444963D02*
X7677452Y-2686867D01*
X7677452Y-2686867D02*
X7768167Y-2686867D01*
X7768167Y-2686867D02*
X7828643Y-2717105D01*
X7828643Y-2717105D02*
X7858881Y-2747344D01*
X7858881Y-2747344D02*
X7889119Y-2807820D01*
X7889119Y-2807820D02*
X7889119Y-2959010D01*
X7889119Y-2959010D02*
X7858881Y-3019486D01*
X7858881Y-3019486D02*
X7828643Y-3049725D01*
X7828643Y-3049725D02*
X7768167Y-3079963D01*
X7768167Y-3079963D02*
X7586738Y-3079963D01*
X7586738Y-3079963D02*
X7526262Y-3049725D01*
X7526262Y-3049725D02*
X7496024Y-3019486D01*
X4647595Y-4603963D02*
X4587119Y-4724915D01*
X5252357Y-5238963D02*
X4889500Y-5238963D01*
X5070928Y-5238963D02*
X5070928Y-4603963D01*
X5070928Y-4603963D02*
X5010452Y-4694677D01*
X5010452Y-4694677D02*
X4949976Y-4755153D01*
X4949976Y-4755153D02*
X4889500Y-4785391D01*
X5857119Y-4634201D02*
X5796643Y-4603963D01*
X5796643Y-4603963D02*
X5705929Y-4603963D01*
X5705929Y-4603963D02*
X5615214Y-4634201D01*
X5615214Y-4634201D02*
X5554738Y-4694677D01*
X5554738Y-4694677D02*
X5524500Y-4755153D01*
X5524500Y-4755153D02*
X5494262Y-4876105D01*
X5494262Y-4876105D02*
X5494262Y-4966820D01*
X5494262Y-4966820D02*
X5524500Y-5087772D01*
X5524500Y-5087772D02*
X5554738Y-5148248D01*
X5554738Y-5148248D02*
X5615214Y-5208725D01*
X5615214Y-5208725D02*
X5705929Y-5238963D01*
X5705929Y-5238963D02*
X5766405Y-5238963D01*
X5766405Y-5238963D02*
X5857119Y-5208725D01*
X5857119Y-5208725D02*
X5887357Y-5178486D01*
X5887357Y-5178486D02*
X5887357Y-4966820D01*
X5887357Y-4966820D02*
X5766405Y-4966820D01*
X6280452Y-4603963D02*
X6340929Y-4603963D01*
X6340929Y-4603963D02*
X6401405Y-4634201D01*
X6401405Y-4634201D02*
X6431643Y-4664439D01*
X6431643Y-4664439D02*
X6461881Y-4724915D01*
X6461881Y-4724915D02*
X6492119Y-4845867D01*
X6492119Y-4845867D02*
X6492119Y-4997058D01*
X6492119Y-4997058D02*
X6461881Y-5118010D01*
X6461881Y-5118010D02*
X6431643Y-5178486D01*
X6431643Y-5178486D02*
X6401405Y-5208725D01*
X6401405Y-5208725D02*
X6340929Y-5238963D01*
X6340929Y-5238963D02*
X6280452Y-5238963D01*
X6280452Y-5238963D02*
X6219976Y-5208725D01*
X6219976Y-5208725D02*
X6189738Y-5178486D01*
X6189738Y-5178486D02*
X6159500Y-5118010D01*
X6159500Y-5118010D02*
X6129262Y-4997058D01*
X6129262Y-4997058D02*
X6129262Y-4845867D01*
X6129262Y-4845867D02*
X6159500Y-4724915D01*
X6159500Y-4724915D02*
X6189738Y-4664439D01*
X6189738Y-4664439D02*
X6219976Y-4634201D01*
X6219976Y-4634201D02*
X6280452Y-4603963D01*
X7036405Y-4815629D02*
X7036405Y-5238963D01*
X6885214Y-4573725D02*
X6734024Y-5027296D01*
X6734024Y-5027296D02*
X7127119Y-5027296D01*
%TO.C,IC2*%
X7635119Y-33686963D02*
X7635119Y-33051963D01*
X8300357Y-33626486D02*
X8270119Y-33656725D01*
X8270119Y-33656725D02*
X8179405Y-33686963D01*
X8179405Y-33686963D02*
X8118929Y-33686963D01*
X8118929Y-33686963D02*
X8028214Y-33656725D01*
X8028214Y-33656725D02*
X7967738Y-33596248D01*
X7967738Y-33596248D02*
X7937500Y-33535772D01*
X7937500Y-33535772D02*
X7907262Y-33414820D01*
X7907262Y-33414820D02*
X7907262Y-33324105D01*
X7907262Y-33324105D02*
X7937500Y-33203153D01*
X7937500Y-33203153D02*
X7967738Y-33142677D01*
X7967738Y-33142677D02*
X8028214Y-33082201D01*
X8028214Y-33082201D02*
X8118929Y-33051963D01*
X8118929Y-33051963D02*
X8179405Y-33051963D01*
X8179405Y-33051963D02*
X8270119Y-33082201D01*
X8270119Y-33082201D02*
X8300357Y-33112439D01*
X8542262Y-33112439D02*
X8572500Y-33082201D01*
X8572500Y-33082201D02*
X8632976Y-33051963D01*
X8632976Y-33051963D02*
X8784167Y-33051963D01*
X8784167Y-33051963D02*
X8844643Y-33082201D01*
X8844643Y-33082201D02*
X8874881Y-33112439D01*
X8874881Y-33112439D02*
X8905119Y-33172915D01*
X8905119Y-33172915D02*
X8905119Y-33233391D01*
X8905119Y-33233391D02*
X8874881Y-33324105D01*
X8874881Y-33324105D02*
X8512024Y-33686963D01*
X8512024Y-33686963D02*
X8905119Y-33686963D01*
X5125356Y-39782963D02*
X5548689Y-39782963D01*
X5548689Y-39782963D02*
X5276546Y-40417963D01*
X6062737Y-39994629D02*
X6062737Y-40417963D01*
X5911546Y-39752725D02*
X5760356Y-40206296D01*
X5760356Y-40206296D02*
X6153451Y-40206296D01*
X6304642Y-39782963D02*
X6516308Y-40417963D01*
X6516308Y-40417963D02*
X6727975Y-39782963D01*
X6939642Y-40417963D02*
X6939642Y-39782963D01*
X6939642Y-40085344D02*
X7302499Y-40085344D01*
X7302499Y-40417963D02*
X7302499Y-39782963D01*
X7967737Y-40357486D02*
X7937499Y-40387725D01*
X7937499Y-40387725D02*
X7846785Y-40417963D01*
X7846785Y-40417963D02*
X7786309Y-40417963D01*
X7786309Y-40417963D02*
X7695594Y-40387725D01*
X7695594Y-40387725D02*
X7635118Y-40327248D01*
X7635118Y-40327248D02*
X7604880Y-40266772D01*
X7604880Y-40266772D02*
X7574642Y-40145820D01*
X7574642Y-40145820D02*
X7574642Y-40055105D01*
X7574642Y-40055105D02*
X7604880Y-39934153D01*
X7604880Y-39934153D02*
X7635118Y-39873677D01*
X7635118Y-39873677D02*
X7695594Y-39813201D01*
X7695594Y-39813201D02*
X7786309Y-39782963D01*
X7786309Y-39782963D02*
X7846785Y-39782963D01*
X7846785Y-39782963D02*
X7937499Y-39813201D01*
X7937499Y-39813201D02*
X7967737Y-39843439D01*
X8149166Y-39782963D02*
X8512023Y-39782963D01*
X8330594Y-40417963D02*
X8330594Y-39782963D01*
X9026071Y-39782963D02*
X8723690Y-39782963D01*
X8723690Y-39782963D02*
X8693452Y-40085344D01*
X8693452Y-40085344D02*
X8723690Y-40055105D01*
X8723690Y-40055105D02*
X8784166Y-40024867D01*
X8784166Y-40024867D02*
X8935357Y-40024867D01*
X8935357Y-40024867D02*
X8995833Y-40055105D01*
X8995833Y-40055105D02*
X9026071Y-40085344D01*
X9026071Y-40085344D02*
X9056309Y-40145820D01*
X9056309Y-40145820D02*
X9056309Y-40297010D01*
X9056309Y-40297010D02*
X9026071Y-40357486D01*
X9026071Y-40357486D02*
X8995833Y-40387725D01*
X8995833Y-40387725D02*
X8935357Y-40417963D01*
X8935357Y-40417963D02*
X8784166Y-40417963D01*
X8784166Y-40417963D02*
X8723690Y-40387725D01*
X8723690Y-40387725D02*
X8693452Y-40357486D01*
X9267976Y-39782963D02*
X9691309Y-39782963D01*
X9691309Y-39782963D02*
X9419166Y-40417963D01*
X9872738Y-39782963D02*
X10265833Y-39782963D01*
X10265833Y-39782963D02*
X10054166Y-40024867D01*
X10054166Y-40024867D02*
X10144881Y-40024867D01*
X10144881Y-40024867D02*
X10205357Y-40055105D01*
X10205357Y-40055105D02*
X10235595Y-40085344D01*
X10235595Y-40085344D02*
X10265833Y-40145820D01*
X10265833Y-40145820D02*
X10265833Y-40297010D01*
X10265833Y-40297010D02*
X10235595Y-40357486D01*
X10235595Y-40357486D02*
X10205357Y-40387725D01*
X10205357Y-40387725D02*
X10144881Y-40417963D01*
X10144881Y-40417963D02*
X9963452Y-40417963D01*
X9963452Y-40417963D02*
X9902976Y-40387725D01*
X9902976Y-40387725D02*
X9872738Y-40357486D01*
X10507738Y-40236534D02*
X10810119Y-40236534D01*
X10447262Y-40417963D02*
X10658928Y-39782963D01*
X10658928Y-39782963D02*
X10870595Y-40417963D01*
X11293929Y-40085344D02*
X11082262Y-40085344D01*
X11082262Y-40417963D02*
X11082262Y-39782963D01*
X11082262Y-39782963D02*
X11384643Y-39782963D01*
%TO.C,IC1*%
X7635119Y-24923963D02*
X7635119Y-24288963D01*
X8300357Y-24863486D02*
X8270119Y-24893725D01*
X8270119Y-24893725D02*
X8179405Y-24923963D01*
X8179405Y-24923963D02*
X8118929Y-24923963D01*
X8118929Y-24923963D02*
X8028214Y-24893725D01*
X8028214Y-24893725D02*
X7967738Y-24833248D01*
X7967738Y-24833248D02*
X7937500Y-24772772D01*
X7937500Y-24772772D02*
X7907262Y-24651820D01*
X7907262Y-24651820D02*
X7907262Y-24561105D01*
X7907262Y-24561105D02*
X7937500Y-24440153D01*
X7937500Y-24440153D02*
X7967738Y-24379677D01*
X7967738Y-24379677D02*
X8028214Y-24319201D01*
X8028214Y-24319201D02*
X8118929Y-24288963D01*
X8118929Y-24288963D02*
X8179405Y-24288963D01*
X8179405Y-24288963D02*
X8270119Y-24319201D01*
X8270119Y-24319201D02*
X8300357Y-24349439D01*
X8905119Y-24923963D02*
X8542262Y-24923963D01*
X8723690Y-24923963D02*
X8723690Y-24288963D01*
X8723690Y-24288963D02*
X8663214Y-24379677D01*
X8663214Y-24379677D02*
X8602738Y-24440153D01*
X8602738Y-24440153D02*
X8542262Y-24470391D01*
X5125356Y-31019963D02*
X5548689Y-31019963D01*
X5548689Y-31019963D02*
X5276546Y-31654963D01*
X6062737Y-31231629D02*
X6062737Y-31654963D01*
X5911546Y-30989725D02*
X5760356Y-31443296D01*
X5760356Y-31443296D02*
X6153451Y-31443296D01*
X6304642Y-31019963D02*
X6516308Y-31654963D01*
X6516308Y-31654963D02*
X6727975Y-31019963D01*
X6939642Y-31654963D02*
X6939642Y-31019963D01*
X6939642Y-31322344D02*
X7302499Y-31322344D01*
X7302499Y-31654963D02*
X7302499Y-31019963D01*
X7967737Y-31594486D02*
X7937499Y-31624725D01*
X7937499Y-31624725D02*
X7846785Y-31654963D01*
X7846785Y-31654963D02*
X7786309Y-31654963D01*
X7786309Y-31654963D02*
X7695594Y-31624725D01*
X7695594Y-31624725D02*
X7635118Y-31564248D01*
X7635118Y-31564248D02*
X7604880Y-31503772D01*
X7604880Y-31503772D02*
X7574642Y-31382820D01*
X7574642Y-31382820D02*
X7574642Y-31292105D01*
X7574642Y-31292105D02*
X7604880Y-31171153D01*
X7604880Y-31171153D02*
X7635118Y-31110677D01*
X7635118Y-31110677D02*
X7695594Y-31050201D01*
X7695594Y-31050201D02*
X7786309Y-31019963D01*
X7786309Y-31019963D02*
X7846785Y-31019963D01*
X7846785Y-31019963D02*
X7937499Y-31050201D01*
X7937499Y-31050201D02*
X7967737Y-31080439D01*
X8149166Y-31019963D02*
X8512023Y-31019963D01*
X8330594Y-31654963D02*
X8330594Y-31019963D01*
X9026071Y-31019963D02*
X8723690Y-31019963D01*
X8723690Y-31019963D02*
X8693452Y-31322344D01*
X8693452Y-31322344D02*
X8723690Y-31292105D01*
X8723690Y-31292105D02*
X8784166Y-31261867D01*
X8784166Y-31261867D02*
X8935357Y-31261867D01*
X8935357Y-31261867D02*
X8995833Y-31292105D01*
X8995833Y-31292105D02*
X9026071Y-31322344D01*
X9026071Y-31322344D02*
X9056309Y-31382820D01*
X9056309Y-31382820D02*
X9056309Y-31534010D01*
X9056309Y-31534010D02*
X9026071Y-31594486D01*
X9026071Y-31594486D02*
X8995833Y-31624725D01*
X8995833Y-31624725D02*
X8935357Y-31654963D01*
X8935357Y-31654963D02*
X8784166Y-31654963D01*
X8784166Y-31654963D02*
X8723690Y-31624725D01*
X8723690Y-31624725D02*
X8693452Y-31594486D01*
X9267976Y-31019963D02*
X9691309Y-31019963D01*
X9691309Y-31019963D02*
X9419166Y-31654963D01*
X9872738Y-31019963D02*
X10265833Y-31019963D01*
X10265833Y-31019963D02*
X10054166Y-31261867D01*
X10054166Y-31261867D02*
X10144881Y-31261867D01*
X10144881Y-31261867D02*
X10205357Y-31292105D01*
X10205357Y-31292105D02*
X10235595Y-31322344D01*
X10235595Y-31322344D02*
X10265833Y-31382820D01*
X10265833Y-31382820D02*
X10265833Y-31534010D01*
X10265833Y-31534010D02*
X10235595Y-31594486D01*
X10235595Y-31594486D02*
X10205357Y-31624725D01*
X10205357Y-31624725D02*
X10144881Y-31654963D01*
X10144881Y-31654963D02*
X9963452Y-31654963D01*
X9963452Y-31654963D02*
X9902976Y-31624725D01*
X9902976Y-31624725D02*
X9872738Y-31594486D01*
X10507738Y-31473534D02*
X10810119Y-31473534D01*
X10447262Y-31654963D02*
X10658928Y-31019963D01*
X10658928Y-31019963D02*
X10870595Y-31654963D01*
X11293929Y-31322344D02*
X11082262Y-31322344D01*
X11082262Y-31654963D02*
X11082262Y-31019963D01*
X11082262Y-31019963D02*
X11384643Y-31019963D01*
%TO.C,C6*%
X12657666Y-23653963D02*
X12294809Y-23653963D01*
X12476237Y-23653963D02*
X12476237Y-23018963D01*
X12476237Y-23018963D02*
X12415761Y-23109677D01*
X12415761Y-23109677D02*
X12355285Y-23170153D01*
X12355285Y-23170153D02*
X12294809Y-23200391D01*
X12929809Y-23230629D02*
X12929809Y-23865629D01*
X13232190Y-23563248D02*
X13262428Y-23623725D01*
X13262428Y-23623725D02*
X13322904Y-23653963D01*
X12929809Y-23563248D02*
X12960047Y-23623725D01*
X12960047Y-23623725D02*
X13020523Y-23653963D01*
X13020523Y-23653963D02*
X13141476Y-23653963D01*
X13141476Y-23653963D02*
X13201952Y-23623725D01*
X13201952Y-23623725D02*
X13232190Y-23563248D01*
X13232190Y-23563248D02*
X13232190Y-23230629D01*
X13806714Y-23321344D02*
X13595047Y-23321344D01*
X13595047Y-23653963D02*
X13595047Y-23018963D01*
X13595047Y-23018963D02*
X13897428Y-23018963D01*
%TO.C,C1*%
X11043166Y-9412486D02*
X11012928Y-9442725D01*
X11012928Y-9442725D02*
X10922214Y-9472963D01*
X10922214Y-9472963D02*
X10861738Y-9472963D01*
X10861738Y-9472963D02*
X10771023Y-9442725D01*
X10771023Y-9442725D02*
X10710547Y-9382248D01*
X10710547Y-9382248D02*
X10680309Y-9321772D01*
X10680309Y-9321772D02*
X10650071Y-9200820D01*
X10650071Y-9200820D02*
X10650071Y-9110105D01*
X10650071Y-9110105D02*
X10680309Y-8989153D01*
X10680309Y-8989153D02*
X10710547Y-8928677D01*
X10710547Y-8928677D02*
X10771023Y-8868201D01*
X10771023Y-8868201D02*
X10861738Y-8837963D01*
X10861738Y-8837963D02*
X10922214Y-8837963D01*
X10922214Y-8837963D02*
X11012928Y-8868201D01*
X11012928Y-8868201D02*
X11043166Y-8898439D01*
X11647928Y-9472963D02*
X11285071Y-9472963D01*
X11466499Y-9472963D02*
X11466499Y-8837963D01*
X11466499Y-8837963D02*
X11406023Y-8928677D01*
X11406023Y-8928677D02*
X11345547Y-8989153D01*
X11345547Y-8989153D02*
X11285071Y-9019391D01*
X10752666Y-5365963D02*
X10389809Y-5365963D01*
X10571237Y-5365963D02*
X10571237Y-4730963D01*
X10571237Y-4730963D02*
X10510761Y-4821677D01*
X10510761Y-4821677D02*
X10450285Y-4882153D01*
X10450285Y-4882153D02*
X10389809Y-4912391D01*
X11024809Y-4942629D02*
X11024809Y-5577629D01*
X11327190Y-5275248D02*
X11357428Y-5335725D01*
X11357428Y-5335725D02*
X11417904Y-5365963D01*
X11024809Y-5275248D02*
X11055047Y-5335725D01*
X11055047Y-5335725D02*
X11115523Y-5365963D01*
X11115523Y-5365963D02*
X11236476Y-5365963D01*
X11236476Y-5365963D02*
X11296952Y-5335725D01*
X11296952Y-5335725D02*
X11327190Y-5275248D01*
X11327190Y-5275248D02*
X11327190Y-4942629D01*
X11901714Y-5033344D02*
X11690047Y-5033344D01*
X11690047Y-5365963D02*
X11690047Y-4730963D01*
X11690047Y-4730963D02*
X11992428Y-4730963D01*
%TO.C,RN1*%
X11249809Y-14763963D02*
X10886952Y-14763963D01*
X11068380Y-14763963D02*
X11068380Y-14128963D01*
X11068380Y-14128963D02*
X11007904Y-14219677D01*
X11007904Y-14219677D02*
X10947428Y-14280153D01*
X10947428Y-14280153D02*
X10886952Y-14310391D01*
X11824333Y-14128963D02*
X11521952Y-14128963D01*
X11521952Y-14128963D02*
X11491714Y-14431344D01*
X11491714Y-14431344D02*
X11521952Y-14401105D01*
X11521952Y-14401105D02*
X11582428Y-14370867D01*
X11582428Y-14370867D02*
X11733619Y-14370867D01*
X11733619Y-14370867D02*
X11794095Y-14401105D01*
X11794095Y-14401105D02*
X11824333Y-14431344D01*
X11824333Y-14431344D02*
X11854571Y-14491820D01*
X11854571Y-14491820D02*
X11854571Y-14643010D01*
X11854571Y-14643010D02*
X11824333Y-14703486D01*
X11824333Y-14703486D02*
X11794095Y-14733725D01*
X11794095Y-14733725D02*
X11733619Y-14763963D01*
X11733619Y-14763963D02*
X11582428Y-14763963D01*
X11582428Y-14763963D02*
X11521952Y-14733725D01*
X11521952Y-14733725D02*
X11491714Y-14703486D01*
X12247666Y-14128963D02*
X12308143Y-14128963D01*
X12308143Y-14128963D02*
X12368619Y-14159201D01*
X12368619Y-14159201D02*
X12398857Y-14189439D01*
X12398857Y-14189439D02*
X12429095Y-14249915D01*
X12429095Y-14249915D02*
X12459333Y-14370867D01*
X12459333Y-14370867D02*
X12459333Y-14522058D01*
X12459333Y-14522058D02*
X12429095Y-14643010D01*
X12429095Y-14643010D02*
X12398857Y-14703486D01*
X12398857Y-14703486D02*
X12368619Y-14733725D01*
X12368619Y-14733725D02*
X12308143Y-14763963D01*
X12308143Y-14763963D02*
X12247666Y-14763963D01*
X12247666Y-14763963D02*
X12187190Y-14733725D01*
X12187190Y-14733725D02*
X12156952Y-14703486D01*
X12156952Y-14703486D02*
X12126714Y-14643010D01*
X12126714Y-14643010D02*
X12096476Y-14522058D01*
X12096476Y-14522058D02*
X12096476Y-14370867D01*
X12096476Y-14370867D02*
X12126714Y-14249915D01*
X12126714Y-14249915D02*
X12156952Y-14189439D01*
X12156952Y-14189439D02*
X12187190Y-14159201D01*
X12187190Y-14159201D02*
X12247666Y-14128963D01*
X12701238Y-14763963D02*
X12852428Y-14763963D01*
X12852428Y-14763963D02*
X12852428Y-14643010D01*
X12852428Y-14643010D02*
X12791952Y-14612772D01*
X12791952Y-14612772D02*
X12731476Y-14552296D01*
X12731476Y-14552296D02*
X12701238Y-14461582D01*
X12701238Y-14461582D02*
X12701238Y-14310391D01*
X12701238Y-14310391D02*
X12731476Y-14219677D01*
X12731476Y-14219677D02*
X12791952Y-14159201D01*
X12791952Y-14159201D02*
X12882666Y-14128963D01*
X12882666Y-14128963D02*
X13003619Y-14128963D01*
X13003619Y-14128963D02*
X13094333Y-14159201D01*
X13094333Y-14159201D02*
X13154809Y-14219677D01*
X13154809Y-14219677D02*
X13185047Y-14310391D01*
X13185047Y-14310391D02*
X13185047Y-14461582D01*
X13185047Y-14461582D02*
X13154809Y-14552296D01*
X13154809Y-14552296D02*
X13094333Y-14612772D01*
X13094333Y-14612772D02*
X13033857Y-14643010D01*
X13033857Y-14643010D02*
X13033857Y-14763963D01*
X13033857Y-14763963D02*
X13185047Y-14763963D01*
%TO.C,C2*%
X10435166Y-2130486D02*
X10404928Y-2160725D01*
X10404928Y-2160725D02*
X10314214Y-2190963D01*
X10314214Y-2190963D02*
X10253738Y-2190963D01*
X10253738Y-2190963D02*
X10163023Y-2160725D01*
X10163023Y-2160725D02*
X10102547Y-2100248D01*
X10102547Y-2100248D02*
X10072309Y-2039772D01*
X10072309Y-2039772D02*
X10042071Y-1918820D01*
X10042071Y-1918820D02*
X10042071Y-1828105D01*
X10042071Y-1828105D02*
X10072309Y-1707153D01*
X10072309Y-1707153D02*
X10102547Y-1646677D01*
X10102547Y-1646677D02*
X10163023Y-1586201D01*
X10163023Y-1586201D02*
X10253738Y-1555963D01*
X10253738Y-1555963D02*
X10314214Y-1555963D01*
X10314214Y-1555963D02*
X10404928Y-1586201D01*
X10404928Y-1586201D02*
X10435166Y-1616439D01*
X10677071Y-1616439D02*
X10707309Y-1586201D01*
X10707309Y-1586201D02*
X10767785Y-1555963D01*
X10767785Y-1555963D02*
X10918976Y-1555963D01*
X10918976Y-1555963D02*
X10979452Y-1586201D01*
X10979452Y-1586201D02*
X11009690Y-1616439D01*
X11009690Y-1616439D02*
X11039928Y-1676915D01*
X11039928Y-1676915D02*
X11039928Y-1737391D01*
X11039928Y-1737391D02*
X11009690Y-1828105D01*
X11009690Y-1828105D02*
X10646833Y-2190963D01*
X10646833Y-2190963D02*
X11039928Y-2190963D01*
X8720666Y-5111963D02*
X8357809Y-5111963D01*
X8539237Y-5111963D02*
X8539237Y-4476963D01*
X8539237Y-4476963D02*
X8478761Y-4567677D01*
X8478761Y-4567677D02*
X8418285Y-4628153D01*
X8418285Y-4628153D02*
X8357809Y-4658391D01*
X8992809Y-4688629D02*
X8992809Y-5323629D01*
X9295190Y-5021248D02*
X9325428Y-5081725D01*
X9325428Y-5081725D02*
X9385904Y-5111963D01*
X8992809Y-5021248D02*
X9023047Y-5081725D01*
X9023047Y-5081725D02*
X9083523Y-5111963D01*
X9083523Y-5111963D02*
X9204476Y-5111963D01*
X9204476Y-5111963D02*
X9264952Y-5081725D01*
X9264952Y-5081725D02*
X9295190Y-5021248D01*
X9295190Y-5021248D02*
X9295190Y-4688629D01*
X9869714Y-4779344D02*
X9658047Y-4779344D01*
X9658047Y-5111963D02*
X9658047Y-4476963D01*
X9658047Y-4476963D02*
X9960428Y-4476963D01*
%TO.C,C7*%
X12403666Y-16922963D02*
X12040809Y-16922963D01*
X12222237Y-16922963D02*
X12222237Y-16287963D01*
X12222237Y-16287963D02*
X12161761Y-16378677D01*
X12161761Y-16378677D02*
X12101285Y-16439153D01*
X12101285Y-16439153D02*
X12040809Y-16469391D01*
X12675809Y-16499629D02*
X12675809Y-17134629D01*
X12978190Y-16832248D02*
X13008428Y-16892725D01*
X13008428Y-16892725D02*
X13068904Y-16922963D01*
X12675809Y-16832248D02*
X12706047Y-16892725D01*
X12706047Y-16892725D02*
X12766523Y-16922963D01*
X12766523Y-16922963D02*
X12887476Y-16922963D01*
X12887476Y-16922963D02*
X12947952Y-16892725D01*
X12947952Y-16892725D02*
X12978190Y-16832248D01*
X12978190Y-16832248D02*
X12978190Y-16499629D01*
X13552714Y-16590344D02*
X13341047Y-16590344D01*
X13341047Y-16922963D02*
X13341047Y-16287963D01*
X13341047Y-16287963D02*
X13643428Y-16287963D01*
%TO.C,C9*%
X12784666Y-32416963D02*
X12421809Y-32416963D01*
X12603237Y-32416963D02*
X12603237Y-31781963D01*
X12603237Y-31781963D02*
X12542761Y-31872677D01*
X12542761Y-31872677D02*
X12482285Y-31933153D01*
X12482285Y-31933153D02*
X12421809Y-31963391D01*
X13056809Y-31993629D02*
X13056809Y-32628629D01*
X13359190Y-32326248D02*
X13389428Y-32386725D01*
X13389428Y-32386725D02*
X13449904Y-32416963D01*
X13056809Y-32326248D02*
X13087047Y-32386725D01*
X13087047Y-32386725D02*
X13147523Y-32416963D01*
X13147523Y-32416963D02*
X13268476Y-32416963D01*
X13268476Y-32416963D02*
X13328952Y-32386725D01*
X13328952Y-32386725D02*
X13359190Y-32326248D01*
X13359190Y-32326248D02*
X13359190Y-31993629D01*
X13933714Y-32084344D02*
X13722047Y-32084344D01*
X13722047Y-32416963D02*
X13722047Y-31781963D01*
X13722047Y-31781963D02*
X14024428Y-31781963D01*
D11*
%TO.C,IC6*%
X4199000Y-17033000D02*
X5674000Y-17033000D01*
X6024000Y-17058000D02*
X9724000Y-17058000D01*
X6024000Y-22058000D02*
X6024000Y-17058000D01*
X9724000Y-17058000D02*
X9724000Y-22058000D01*
X9724000Y-22058000D02*
X6024000Y-22058000D01*
%TO.C,IC4*%
X2875000Y-5650000D02*
X4402000Y-5650000D01*
X4752000Y-5842000D02*
X7948000Y-5842000D01*
X4752000Y-14478000D02*
X4752000Y-5842000D01*
X7948000Y-5842000D02*
X7948000Y-14478000D01*
X7948000Y-14478000D02*
X4752000Y-14478000D01*
%TO.C,IC3*%
X3967000Y-1294000D02*
X5217000Y-1294000D01*
X5567000Y-1294000D02*
X6117000Y-1294000D01*
X5567000Y-4294000D02*
X5567000Y-1294000D01*
X6117000Y-1294000D02*
X6117000Y-4294000D01*
X6117000Y-4294000D02*
X5567000Y-4294000D01*
%TO.C,IC2*%
X4580000Y-32568000D02*
X6055000Y-32568000D01*
X6405000Y-32818000D02*
X10105000Y-32818000D01*
X6405000Y-39318000D02*
X6405000Y-32818000D01*
X10105000Y-32818000D02*
X10105000Y-39318000D01*
X10105000Y-39318000D02*
X6405000Y-39318000D01*
%TO.C,IC1*%
X4580000Y-23805000D02*
X6055000Y-23805000D01*
X6405000Y-24055000D02*
X10105000Y-24055000D01*
X6405000Y-30555000D02*
X6405000Y-24055000D01*
X10105000Y-24055000D02*
X10105000Y-30555000D01*
X10105000Y-30555000D02*
X6405000Y-30555000D01*
D12*
%TO.C,C6*%
X13943000Y-25255748D02*
X13943000Y-25778252D01*
X12473000Y-25255748D02*
X12473000Y-25778252D01*
%TO.C,C1*%
X11911000Y-6866748D02*
X11911000Y-7389252D01*
X10441000Y-6866748D02*
X10441000Y-7389252D01*
D13*
%TO.C,RN1*%
X12336000Y-13919000D02*
X11736000Y-13919000D01*
X12336000Y-10719000D02*
X11736000Y-10719000D01*
D12*
%TO.C,C2*%
X9752000Y-2548748D02*
X9752000Y-3071252D01*
X8282000Y-2548748D02*
X8282000Y-3071252D01*
%TO.C,C7*%
X13562000Y-18423748D02*
X13562000Y-18946252D01*
X12092000Y-18423748D02*
X12092000Y-18946252D01*
%TO.C,C9*%
X13943000Y-33917748D02*
X13943000Y-34440252D01*
X12473000Y-33917748D02*
X12473000Y-34440252D01*
%TD*%
M02*
