%TF.GenerationSoftware,KiCad,Pcbnew,7.0.5*%
%TF.CreationDate,2024-03-03T07:39:23+02:00*%
%TF.ProjectId,Video Address Counter,56696465-6f20-4416-9464-726573732043,rev?*%
%TF.SameCoordinates,PX4756f08PY2e063a0*%
%TF.FileFunction,Paste,Top*%
%TF.FilePolarity,Positive*%
%FSLAX46Y46*%
G04 Gerber Fmt 4.6, Leading zero omitted, Abs format (unit mm)*
G04 Created by KiCad (PCBNEW 7.0.5) date 2024-03-03 07:39:23*
%MOMM*%
%LPD*%
G01*
G04 APERTURE LIST*
G04 Aperture macros list*
%AMRoundRect*
0 Rectangle with rounded corners*
0 $1 Rounding radius*
0 $2 $3 $4 $5 $6 $7 $8 $9 X,Y pos of 4 corners*
0 Add a 4 corners polygon primitive as box body*
4,1,4,$2,$3,$4,$5,$6,$7,$8,$9,$2,$3,0*
0 Add four circle primitives for the rounded corners*
1,1,$1+$1,$2,$3*
1,1,$1+$1,$4,$5*
1,1,$1+$1,$6,$7*
1,1,$1+$1,$8,$9*
0 Add four rect primitives between the rounded corners*
20,1,$1+$1,$2,$3,$4,$5,0*
20,1,$1+$1,$4,$5,$6,$7,0*
20,1,$1+$1,$6,$7,$8,$9,0*
20,1,$1+$1,$8,$9,$2,$3,0*%
G04 Aperture macros list end*
%ADD10RoundRect,0.250000X0.475000X-0.250000X0.475000X0.250000X-0.475000X0.250000X-0.475000X-0.250000X0*%
%ADD11R,1.450000X0.450000*%
%ADD12R,1.150000X0.600000*%
%ADD13RoundRect,0.250000X0.250000X0.475000X-0.250000X0.475000X-0.250000X-0.475000X0.250000X-0.475000X0*%
G04 APERTURE END LIST*
D10*
%TO.C,C10*%
X5588000Y-68752000D03*
X5588000Y-66852000D03*
%TD*%
D11*
%TO.C,IC7*%
X4695000Y-25004600D03*
X4695000Y-25654600D03*
X4695000Y-26304600D03*
X4695000Y-26954600D03*
X4695000Y-27604600D03*
X4695000Y-28254600D03*
X4695000Y-28904600D03*
X4695000Y-29554600D03*
X10545000Y-29554600D03*
X10545000Y-28904600D03*
X10545000Y-28254600D03*
X10545000Y-27604600D03*
X10545000Y-26954600D03*
X10545000Y-26304600D03*
X10545000Y-25654600D03*
X10545000Y-25004600D03*
%TD*%
D12*
%TO.C,IC1*%
X7590000Y-66614000D03*
X7590000Y-67564000D03*
X7590000Y-68514000D03*
X10190000Y-68514000D03*
X10190000Y-66614000D03*
%TD*%
D13*
%TO.C,C1*%
X10586000Y-12573000D03*
X8686000Y-12573000D03*
%TD*%
%TO.C,C2*%
X10713000Y-34036000D03*
X8813000Y-34036000D03*
%TD*%
%TO.C,C7*%
X10586000Y-23368000D03*
X8686000Y-23368000D03*
%TD*%
D11*
%TO.C,IC6*%
X4695000Y-35723400D03*
X4695000Y-36373400D03*
X4695000Y-37023400D03*
X4695000Y-37673400D03*
X4695000Y-38323400D03*
X4695000Y-38973400D03*
X4695000Y-39623400D03*
X4695000Y-40273400D03*
X10545000Y-40273400D03*
X10545000Y-39623400D03*
X10545000Y-38973400D03*
X10545000Y-38323400D03*
X10545000Y-37673400D03*
X10545000Y-37023400D03*
X10545000Y-36373400D03*
X10545000Y-35723400D03*
%TD*%
%TO.C,IC9*%
X4695000Y-14285800D03*
X4695000Y-14935800D03*
X4695000Y-15585800D03*
X4695000Y-16235800D03*
X4695000Y-16885800D03*
X4695000Y-17535800D03*
X4695000Y-18185800D03*
X4695000Y-18835800D03*
X10545000Y-18835800D03*
X10545000Y-18185800D03*
X10545000Y-17535800D03*
X10545000Y-16885800D03*
X10545000Y-16235800D03*
X10545000Y-15585800D03*
X10545000Y-14935800D03*
X10545000Y-14285800D03*
%TD*%
D13*
%TO.C,C12*%
X10586000Y-9652000D03*
X8686000Y-9652000D03*
%TD*%
D11*
%TO.C,IC4*%
X4695000Y-46442200D03*
X4695000Y-47092200D03*
X4695000Y-47742200D03*
X4695000Y-48392200D03*
X4695000Y-49042200D03*
X4695000Y-49692200D03*
X4695000Y-50342200D03*
X4695000Y-50992200D03*
X10545000Y-50992200D03*
X10545000Y-50342200D03*
X10545000Y-49692200D03*
X10545000Y-49042200D03*
X10545000Y-48392200D03*
X10545000Y-47742200D03*
X10545000Y-47092200D03*
X10545000Y-46442200D03*
%TD*%
%TO.C,IC3*%
X4695000Y-57161000D03*
X4695000Y-57811000D03*
X4695000Y-58461000D03*
X4695000Y-59111000D03*
X4695000Y-59761000D03*
X4695000Y-60411000D03*
X4695000Y-61061000D03*
X4695000Y-61711000D03*
X10545000Y-61711000D03*
X10545000Y-61061000D03*
X10545000Y-60411000D03*
X10545000Y-59761000D03*
X10545000Y-59111000D03*
X10545000Y-58461000D03*
X10545000Y-57811000D03*
X10545000Y-57161000D03*
%TD*%
%TO.C,IC10*%
X4695000Y-3567000D03*
X4695000Y-4217000D03*
X4695000Y-4867000D03*
X4695000Y-5517000D03*
X4695000Y-6167000D03*
X4695000Y-6817000D03*
X4695000Y-7467000D03*
X4695000Y-8117000D03*
X10545000Y-8117000D03*
X10545000Y-7467000D03*
X10545000Y-6817000D03*
X10545000Y-6167000D03*
X10545000Y-5517000D03*
X10545000Y-4867000D03*
X10545000Y-4217000D03*
X10545000Y-3567000D03*
%TD*%
D10*
%TO.C,C11*%
X12319000Y-68752000D03*
X12319000Y-66852000D03*
%TD*%
D13*
%TO.C,C14*%
X10713000Y-44704000D03*
X8813000Y-44704000D03*
%TD*%
%TO.C,C9*%
X10713000Y-55499000D03*
X8813000Y-55499000D03*
%TD*%
M02*
