%TF.GenerationSoftware,KiCad,Pcbnew,8.0.4*%
%TF.CreationDate,2024-08-15T18:12:32+02:00*%
%TF.ProjectId,Counter 16bit,436f756e-7465-4722-9031-366269742e6b,V0*%
%TF.SameCoordinates,PX6d01460PY32de760*%
%TF.FileFunction,Legend,Top*%
%TF.FilePolarity,Positive*%
%FSLAX46Y46*%
G04 Gerber Fmt 4.6, Leading zero omitted, Abs format (unit mm)*
G04 Created by KiCad (PCBNEW 8.0.4) date 2024-08-15 18:12:32*
%MOMM*%
%LPD*%
G01*
G04 APERTURE LIST*
%ADD10C,0.150000*%
%ADD11C,0.200000*%
%ADD12C,0.120000*%
G04 APERTURE END LIST*
D10*
X13399601Y-33245486D02*
X13369363Y-33275725D01*
X13369363Y-33275725D02*
X13278649Y-33305963D01*
X13278649Y-33305963D02*
X13218173Y-33305963D01*
X13218173Y-33305963D02*
X13127458Y-33275725D01*
X13127458Y-33275725D02*
X13066982Y-33215248D01*
X13066982Y-33215248D02*
X13036744Y-33154772D01*
X13036744Y-33154772D02*
X13006506Y-33033820D01*
X13006506Y-33033820D02*
X13006506Y-32943105D01*
X13006506Y-32943105D02*
X13036744Y-32822153D01*
X13036744Y-32822153D02*
X13066982Y-32761677D01*
X13066982Y-32761677D02*
X13127458Y-32701201D01*
X13127458Y-32701201D02*
X13218173Y-32670963D01*
X13218173Y-32670963D02*
X13278649Y-32670963D01*
X13278649Y-32670963D02*
X13369363Y-32701201D01*
X13369363Y-32701201D02*
X13399601Y-32731439D01*
X13974125Y-32670963D02*
X13671744Y-32670963D01*
X13671744Y-32670963D02*
X13641506Y-32973344D01*
X13641506Y-32973344D02*
X13671744Y-32943105D01*
X13671744Y-32943105D02*
X13732220Y-32912867D01*
X13732220Y-32912867D02*
X13883411Y-32912867D01*
X13883411Y-32912867D02*
X13943887Y-32943105D01*
X13943887Y-32943105D02*
X13974125Y-32973344D01*
X13974125Y-32973344D02*
X14004363Y-33033820D01*
X14004363Y-33033820D02*
X14004363Y-33185010D01*
X14004363Y-33185010D02*
X13974125Y-33245486D01*
X13974125Y-33245486D02*
X13943887Y-33275725D01*
X13943887Y-33275725D02*
X13883411Y-33305963D01*
X13883411Y-33305963D02*
X13732220Y-33305963D01*
X13732220Y-33305963D02*
X13671744Y-33275725D01*
X13671744Y-33275725D02*
X13641506Y-33245486D01*
X13399601Y-23085486D02*
X13369363Y-23115725D01*
X13369363Y-23115725D02*
X13278649Y-23145963D01*
X13278649Y-23145963D02*
X13218173Y-23145963D01*
X13218173Y-23145963D02*
X13127458Y-23115725D01*
X13127458Y-23115725D02*
X13066982Y-23055248D01*
X13066982Y-23055248D02*
X13036744Y-22994772D01*
X13036744Y-22994772D02*
X13006506Y-22873820D01*
X13006506Y-22873820D02*
X13006506Y-22783105D01*
X13006506Y-22783105D02*
X13036744Y-22662153D01*
X13036744Y-22662153D02*
X13066982Y-22601677D01*
X13066982Y-22601677D02*
X13127458Y-22541201D01*
X13127458Y-22541201D02*
X13218173Y-22510963D01*
X13218173Y-22510963D02*
X13278649Y-22510963D01*
X13278649Y-22510963D02*
X13369363Y-22541201D01*
X13369363Y-22541201D02*
X13399601Y-22571439D01*
X13701982Y-23145963D02*
X13822934Y-23145963D01*
X13822934Y-23145963D02*
X13883411Y-23115725D01*
X13883411Y-23115725D02*
X13913649Y-23085486D01*
X13913649Y-23085486D02*
X13974125Y-22994772D01*
X13974125Y-22994772D02*
X14004363Y-22873820D01*
X14004363Y-22873820D02*
X14004363Y-22631915D01*
X14004363Y-22631915D02*
X13974125Y-22571439D01*
X13974125Y-22571439D02*
X13943887Y-22541201D01*
X13943887Y-22541201D02*
X13883411Y-22510963D01*
X13883411Y-22510963D02*
X13762458Y-22510963D01*
X13762458Y-22510963D02*
X13701982Y-22541201D01*
X13701982Y-22541201D02*
X13671744Y-22571439D01*
X13671744Y-22571439D02*
X13641506Y-22631915D01*
X13641506Y-22631915D02*
X13641506Y-22783105D01*
X13641506Y-22783105D02*
X13671744Y-22843582D01*
X13671744Y-22843582D02*
X13701982Y-22873820D01*
X13701982Y-22873820D02*
X13762458Y-22904058D01*
X13762458Y-22904058D02*
X13883411Y-22904058D01*
X13883411Y-22904058D02*
X13943887Y-22873820D01*
X13943887Y-22873820D02*
X13974125Y-22843582D01*
X13974125Y-22843582D02*
X14004363Y-22783105D01*
X13399601Y-43405486D02*
X13369363Y-43435725D01*
X13369363Y-43435725D02*
X13278649Y-43465963D01*
X13278649Y-43465963D02*
X13218173Y-43465963D01*
X13218173Y-43465963D02*
X13127458Y-43435725D01*
X13127458Y-43435725D02*
X13066982Y-43375248D01*
X13066982Y-43375248D02*
X13036744Y-43314772D01*
X13036744Y-43314772D02*
X13006506Y-43193820D01*
X13006506Y-43193820D02*
X13006506Y-43103105D01*
X13006506Y-43103105D02*
X13036744Y-42982153D01*
X13036744Y-42982153D02*
X13066982Y-42921677D01*
X13066982Y-42921677D02*
X13127458Y-42861201D01*
X13127458Y-42861201D02*
X13218173Y-42830963D01*
X13218173Y-42830963D02*
X13278649Y-42830963D01*
X13278649Y-42830963D02*
X13369363Y-42861201D01*
X13369363Y-42861201D02*
X13399601Y-42891439D01*
X14004363Y-43465963D02*
X13641506Y-43465963D01*
X13822934Y-43465963D02*
X13822934Y-42830963D01*
X13822934Y-42830963D02*
X13762458Y-42921677D01*
X13762458Y-42921677D02*
X13701982Y-42982153D01*
X13701982Y-42982153D02*
X13641506Y-43012391D01*
X13399601Y-28165486D02*
X13369363Y-28195725D01*
X13369363Y-28195725D02*
X13278649Y-28225963D01*
X13278649Y-28225963D02*
X13218173Y-28225963D01*
X13218173Y-28225963D02*
X13127458Y-28195725D01*
X13127458Y-28195725D02*
X13066982Y-28135248D01*
X13066982Y-28135248D02*
X13036744Y-28074772D01*
X13036744Y-28074772D02*
X13006506Y-27953820D01*
X13006506Y-27953820D02*
X13006506Y-27863105D01*
X13006506Y-27863105D02*
X13036744Y-27742153D01*
X13036744Y-27742153D02*
X13066982Y-27681677D01*
X13066982Y-27681677D02*
X13127458Y-27621201D01*
X13127458Y-27621201D02*
X13218173Y-27590963D01*
X13218173Y-27590963D02*
X13278649Y-27590963D01*
X13278649Y-27590963D02*
X13369363Y-27621201D01*
X13369363Y-27621201D02*
X13399601Y-27651439D01*
X13611268Y-27590963D02*
X14034601Y-27590963D01*
X14034601Y-27590963D02*
X13762458Y-28225963D01*
X12099362Y-4730963D02*
X12462219Y-4730963D01*
X12280790Y-5365963D02*
X12280790Y-4730963D01*
X13036743Y-5305486D02*
X13006505Y-5335725D01*
X13006505Y-5335725D02*
X12915791Y-5365963D01*
X12915791Y-5365963D02*
X12855315Y-5365963D01*
X12855315Y-5365963D02*
X12764600Y-5335725D01*
X12764600Y-5335725D02*
X12704124Y-5275248D01*
X12704124Y-5275248D02*
X12673886Y-5214772D01*
X12673886Y-5214772D02*
X12643648Y-5093820D01*
X12643648Y-5093820D02*
X12643648Y-5003105D01*
X12643648Y-5003105D02*
X12673886Y-4882153D01*
X12673886Y-4882153D02*
X12704124Y-4821677D01*
X12704124Y-4821677D02*
X12764600Y-4761201D01*
X12764600Y-4761201D02*
X12855315Y-4730963D01*
X12855315Y-4730963D02*
X12915791Y-4730963D01*
X12915791Y-4730963D02*
X13006505Y-4761201D01*
X13006505Y-4761201D02*
X13036743Y-4791439D01*
X13544743Y-5436115D02*
X13254457Y-5436115D01*
X13399600Y-5436115D02*
X13399600Y-4928115D01*
X13399600Y-4928115D02*
X13351219Y-5000686D01*
X13351219Y-5000686D02*
X13302838Y-5049067D01*
X13302838Y-5049067D02*
X13254457Y-5073258D01*
X14004363Y-4928115D02*
X13762458Y-4928115D01*
X13762458Y-4928115D02*
X13738267Y-5170020D01*
X13738267Y-5170020D02*
X13762458Y-5145829D01*
X13762458Y-5145829D02*
X13810839Y-5121639D01*
X13810839Y-5121639D02*
X13931791Y-5121639D01*
X13931791Y-5121639D02*
X13980172Y-5145829D01*
X13980172Y-5145829D02*
X14004363Y-5170020D01*
X14004363Y-5170020D02*
X14028553Y-5218401D01*
X14028553Y-5218401D02*
X14028553Y-5339353D01*
X14028553Y-5339353D02*
X14004363Y-5387734D01*
X14004363Y-5387734D02*
X13980172Y-5411925D01*
X13980172Y-5411925D02*
X13931791Y-5436115D01*
X13931791Y-5436115D02*
X13810839Y-5436115D01*
X13810839Y-5436115D02*
X13762458Y-5411925D01*
X13762458Y-5411925D02*
X13738267Y-5387734D01*
X12794839Y-18005486D02*
X12764601Y-18035725D01*
X12764601Y-18035725D02*
X12673887Y-18065963D01*
X12673887Y-18065963D02*
X12613411Y-18065963D01*
X12613411Y-18065963D02*
X12522696Y-18035725D01*
X12522696Y-18035725D02*
X12462220Y-17975248D01*
X12462220Y-17975248D02*
X12431982Y-17914772D01*
X12431982Y-17914772D02*
X12401744Y-17793820D01*
X12401744Y-17793820D02*
X12401744Y-17703105D01*
X12401744Y-17703105D02*
X12431982Y-17582153D01*
X12431982Y-17582153D02*
X12462220Y-17521677D01*
X12462220Y-17521677D02*
X12522696Y-17461201D01*
X12522696Y-17461201D02*
X12613411Y-17430963D01*
X12613411Y-17430963D02*
X12673887Y-17430963D01*
X12673887Y-17430963D02*
X12764601Y-17461201D01*
X12764601Y-17461201D02*
X12794839Y-17491439D01*
X13399601Y-18065963D02*
X13036744Y-18065963D01*
X13218172Y-18065963D02*
X13218172Y-17430963D01*
X13218172Y-17430963D02*
X13157696Y-17521677D01*
X13157696Y-17521677D02*
X13097220Y-17582153D01*
X13097220Y-17582153D02*
X13036744Y-17612391D01*
X14004363Y-18065963D02*
X13641506Y-18065963D01*
X13822934Y-18065963D02*
X13822934Y-17430963D01*
X13822934Y-17430963D02*
X13762458Y-17521677D01*
X13762458Y-17521677D02*
X13701982Y-17582153D01*
X13701982Y-17582153D02*
X13641506Y-17612391D01*
X12794839Y-15465486D02*
X12764601Y-15495725D01*
X12764601Y-15495725D02*
X12673887Y-15525963D01*
X12673887Y-15525963D02*
X12613411Y-15525963D01*
X12613411Y-15525963D02*
X12522696Y-15495725D01*
X12522696Y-15495725D02*
X12462220Y-15435248D01*
X12462220Y-15435248D02*
X12431982Y-15374772D01*
X12431982Y-15374772D02*
X12401744Y-15253820D01*
X12401744Y-15253820D02*
X12401744Y-15163105D01*
X12401744Y-15163105D02*
X12431982Y-15042153D01*
X12431982Y-15042153D02*
X12462220Y-14981677D01*
X12462220Y-14981677D02*
X12522696Y-14921201D01*
X12522696Y-14921201D02*
X12613411Y-14890963D01*
X12613411Y-14890963D02*
X12673887Y-14890963D01*
X12673887Y-14890963D02*
X12764601Y-14921201D01*
X12764601Y-14921201D02*
X12794839Y-14951439D01*
X13399601Y-15525963D02*
X13036744Y-15525963D01*
X13218172Y-15525963D02*
X13218172Y-14890963D01*
X13218172Y-14890963D02*
X13157696Y-14981677D01*
X13157696Y-14981677D02*
X13097220Y-15042153D01*
X13097220Y-15042153D02*
X13036744Y-15072391D01*
X13641506Y-14951439D02*
X13671744Y-14921201D01*
X13671744Y-14921201D02*
X13732220Y-14890963D01*
X13732220Y-14890963D02*
X13883411Y-14890963D01*
X13883411Y-14890963D02*
X13943887Y-14921201D01*
X13943887Y-14921201D02*
X13974125Y-14951439D01*
X13974125Y-14951439D02*
X14004363Y-15011915D01*
X14004363Y-15011915D02*
X14004363Y-15072391D01*
X14004363Y-15072391D02*
X13974125Y-15163105D01*
X13974125Y-15163105D02*
X13611268Y-15525963D01*
X13611268Y-15525963D02*
X14004363Y-15525963D01*
X1568255Y-12985963D02*
X1265874Y-12985963D01*
X1265874Y-12985963D02*
X1265874Y-12350963D01*
X2112541Y-12985963D02*
X1749684Y-12985963D01*
X1931112Y-12985963D02*
X1931112Y-12350963D01*
X1931112Y-12350963D02*
X1870636Y-12441677D01*
X1870636Y-12441677D02*
X1810160Y-12502153D01*
X1810160Y-12502153D02*
X1749684Y-12532391D01*
X2324208Y-12350963D02*
X2717303Y-12350963D01*
X2717303Y-12350963D02*
X2505636Y-12592867D01*
X2505636Y-12592867D02*
X2596351Y-12592867D01*
X2596351Y-12592867D02*
X2656827Y-12623105D01*
X2656827Y-12623105D02*
X2687065Y-12653344D01*
X2687065Y-12653344D02*
X2717303Y-12713820D01*
X2717303Y-12713820D02*
X2717303Y-12865010D01*
X2717303Y-12865010D02*
X2687065Y-12925486D01*
X2687065Y-12925486D02*
X2656827Y-12955725D01*
X2656827Y-12955725D02*
X2596351Y-12985963D01*
X2596351Y-12985963D02*
X2414922Y-12985963D01*
X2414922Y-12985963D02*
X2354446Y-12955725D01*
X2354446Y-12955725D02*
X2324208Y-12925486D01*
X1568255Y-18065963D02*
X1265874Y-18065963D01*
X1265874Y-18065963D02*
X1265874Y-17430963D01*
X2112541Y-18065963D02*
X1749684Y-18065963D01*
X1931112Y-18065963D02*
X1931112Y-17430963D01*
X1931112Y-17430963D02*
X1870636Y-17521677D01*
X1870636Y-17521677D02*
X1810160Y-17582153D01*
X1810160Y-17582153D02*
X1749684Y-17612391D01*
X2717303Y-18065963D02*
X2354446Y-18065963D01*
X2535874Y-18065963D02*
X2535874Y-17430963D01*
X2535874Y-17430963D02*
X2475398Y-17521677D01*
X2475398Y-17521677D02*
X2414922Y-17582153D01*
X2414922Y-17582153D02*
X2354446Y-17612391D01*
X1568255Y-25685963D02*
X1265874Y-25685963D01*
X1265874Y-25685963D02*
X1265874Y-25050963D01*
X1870636Y-25323105D02*
X1810160Y-25292867D01*
X1810160Y-25292867D02*
X1779922Y-25262629D01*
X1779922Y-25262629D02*
X1749684Y-25202153D01*
X1749684Y-25202153D02*
X1749684Y-25171915D01*
X1749684Y-25171915D02*
X1779922Y-25111439D01*
X1779922Y-25111439D02*
X1810160Y-25081201D01*
X1810160Y-25081201D02*
X1870636Y-25050963D01*
X1870636Y-25050963D02*
X1991589Y-25050963D01*
X1991589Y-25050963D02*
X2052065Y-25081201D01*
X2052065Y-25081201D02*
X2082303Y-25111439D01*
X2082303Y-25111439D02*
X2112541Y-25171915D01*
X2112541Y-25171915D02*
X2112541Y-25202153D01*
X2112541Y-25202153D02*
X2082303Y-25262629D01*
X2082303Y-25262629D02*
X2052065Y-25292867D01*
X2052065Y-25292867D02*
X1991589Y-25323105D01*
X1991589Y-25323105D02*
X1870636Y-25323105D01*
X1870636Y-25323105D02*
X1810160Y-25353344D01*
X1810160Y-25353344D02*
X1779922Y-25383582D01*
X1779922Y-25383582D02*
X1749684Y-25444058D01*
X1749684Y-25444058D02*
X1749684Y-25565010D01*
X1749684Y-25565010D02*
X1779922Y-25625486D01*
X1779922Y-25625486D02*
X1810160Y-25655725D01*
X1810160Y-25655725D02*
X1870636Y-25685963D01*
X1870636Y-25685963D02*
X1991589Y-25685963D01*
X1991589Y-25685963D02*
X2052065Y-25655725D01*
X2052065Y-25655725D02*
X2082303Y-25625486D01*
X2082303Y-25625486D02*
X2112541Y-25565010D01*
X2112541Y-25565010D02*
X2112541Y-25444058D01*
X2112541Y-25444058D02*
X2082303Y-25383582D01*
X2082303Y-25383582D02*
X2052065Y-25353344D01*
X2052065Y-25353344D02*
X1991589Y-25323105D01*
X1568255Y-7905963D02*
X1265874Y-7905963D01*
X1265874Y-7905963D02*
X1265874Y-7270963D01*
X2112541Y-7905963D02*
X1749684Y-7905963D01*
X1931112Y-7905963D02*
X1931112Y-7270963D01*
X1931112Y-7270963D02*
X1870636Y-7361677D01*
X1870636Y-7361677D02*
X1810160Y-7422153D01*
X1810160Y-7422153D02*
X1749684Y-7452391D01*
X2687065Y-7270963D02*
X2384684Y-7270963D01*
X2384684Y-7270963D02*
X2354446Y-7573344D01*
X2354446Y-7573344D02*
X2384684Y-7543105D01*
X2384684Y-7543105D02*
X2445160Y-7512867D01*
X2445160Y-7512867D02*
X2596351Y-7512867D01*
X2596351Y-7512867D02*
X2656827Y-7543105D01*
X2656827Y-7543105D02*
X2687065Y-7573344D01*
X2687065Y-7573344D02*
X2717303Y-7633820D01*
X2717303Y-7633820D02*
X2717303Y-7785010D01*
X2717303Y-7785010D02*
X2687065Y-7845486D01*
X2687065Y-7845486D02*
X2656827Y-7875725D01*
X2656827Y-7875725D02*
X2596351Y-7905963D01*
X2596351Y-7905963D02*
X2445160Y-7905963D01*
X2445160Y-7905963D02*
X2384684Y-7875725D01*
X2384684Y-7875725D02*
X2354446Y-7845486D01*
X1568255Y-30765963D02*
X1265874Y-30765963D01*
X1265874Y-30765963D02*
X1265874Y-30130963D01*
X2052065Y-30130963D02*
X1931112Y-30130963D01*
X1931112Y-30130963D02*
X1870636Y-30161201D01*
X1870636Y-30161201D02*
X1840398Y-30191439D01*
X1840398Y-30191439D02*
X1779922Y-30282153D01*
X1779922Y-30282153D02*
X1749684Y-30403105D01*
X1749684Y-30403105D02*
X1749684Y-30645010D01*
X1749684Y-30645010D02*
X1779922Y-30705486D01*
X1779922Y-30705486D02*
X1810160Y-30735725D01*
X1810160Y-30735725D02*
X1870636Y-30765963D01*
X1870636Y-30765963D02*
X1991589Y-30765963D01*
X1991589Y-30765963D02*
X2052065Y-30735725D01*
X2052065Y-30735725D02*
X2082303Y-30705486D01*
X2082303Y-30705486D02*
X2112541Y-30645010D01*
X2112541Y-30645010D02*
X2112541Y-30493820D01*
X2112541Y-30493820D02*
X2082303Y-30433344D01*
X2082303Y-30433344D02*
X2052065Y-30403105D01*
X2052065Y-30403105D02*
X1991589Y-30372867D01*
X1991589Y-30372867D02*
X1870636Y-30372867D01*
X1870636Y-30372867D02*
X1810160Y-30403105D01*
X1810160Y-30403105D02*
X1779922Y-30433344D01*
X1779922Y-30433344D02*
X1749684Y-30493820D01*
D11*
G36*
X8259192Y-2426024D02*
G01*
X8283861Y-2450692D01*
X8319314Y-2521599D01*
X8361285Y-2689480D01*
X8361285Y-2902956D01*
X8319314Y-3070837D01*
X8283861Y-3141743D01*
X8259192Y-3166413D01*
X8199583Y-3196219D01*
X8151559Y-3196219D01*
X8091949Y-3166414D01*
X8067282Y-3141746D01*
X8031827Y-3070837D01*
X7989857Y-2902956D01*
X7989857Y-2689481D01*
X8031827Y-2521599D01*
X8067281Y-2450692D01*
X8091949Y-2426023D01*
X8151559Y-2396219D01*
X8199583Y-2396219D01*
X8259192Y-2426024D01*
G37*
G36*
X6354430Y-1149413D02*
G01*
X6379099Y-1174081D01*
X6408904Y-1233691D01*
X6408904Y-1472191D01*
X6379099Y-1531799D01*
X6354430Y-1556469D01*
X6294821Y-1586275D01*
X6199178Y-1586275D01*
X6139568Y-1556470D01*
X6114901Y-1531802D01*
X6085095Y-1472190D01*
X6085095Y-1233691D01*
X6114900Y-1174081D01*
X6139568Y-1149412D01*
X6199178Y-1119608D01*
X6294821Y-1119608D01*
X6354430Y-1149413D01*
G37*
G36*
X9624845Y-1141763D02*
G01*
X9642295Y-1176663D01*
X9370810Y-1230960D01*
X9370810Y-1186072D01*
X9392965Y-1141762D01*
X9437274Y-1119608D01*
X9580536Y-1119608D01*
X9624845Y-1141763D01*
G37*
G36*
X7378240Y412912D02*
G01*
X7402909Y388244D01*
X7432714Y328634D01*
X7432714Y137753D01*
X7402909Y78145D01*
X7378240Y53475D01*
X7318631Y23669D01*
X7175369Y23669D01*
X7115759Y53474D01*
X7091092Y78142D01*
X7061286Y137754D01*
X7061286Y328634D01*
X7091091Y388244D01*
X7115759Y412913D01*
X7175369Y442717D01*
X7318631Y442717D01*
X7378240Y412912D01*
G37*
G36*
X8283002Y460531D02*
G01*
X8307671Y435863D01*
X8337476Y376253D01*
X8337476Y137753D01*
X8307671Y78145D01*
X8283002Y53475D01*
X8223393Y23669D01*
X8080131Y23669D01*
X8061286Y33092D01*
X8061286Y480914D01*
X8080131Y490336D01*
X8223393Y490336D01*
X8283002Y460531D01*
G37*
G36*
X10670476Y-3507330D02*
G01*
X4916841Y-3507330D01*
X4916841Y-2308726D01*
X6838261Y-2308726D01*
X6842608Y-2327842D01*
X7175941Y-3327841D01*
X7183932Y-3345742D01*
X7188615Y-3351141D01*
X7191810Y-3357531D01*
X7201281Y-3365746D01*
X7209497Y-3375218D01*
X7215885Y-3378412D01*
X7221286Y-3383096D01*
X7233187Y-3387063D01*
X7244396Y-3392667D01*
X7251520Y-3393173D01*
X7258302Y-3395434D01*
X7270811Y-3394544D01*
X7283316Y-3395434D01*
X7290094Y-3393174D01*
X7297222Y-3392668D01*
X7308438Y-3387059D01*
X7320332Y-3383095D01*
X7325729Y-3378414D01*
X7332121Y-3375218D01*
X7340339Y-3365742D01*
X7349808Y-3357530D01*
X7353001Y-3351143D01*
X7357686Y-3345742D01*
X7365677Y-3327842D01*
X7582567Y-2677171D01*
X7789857Y-2677171D01*
X7789857Y-2915266D01*
X7790192Y-2918668D01*
X7789975Y-2920127D01*
X7791054Y-2927424D01*
X7791778Y-2934775D01*
X7792342Y-2936138D01*
X7792843Y-2939520D01*
X7840462Y-3129995D01*
X7840975Y-3131432D01*
X7841027Y-3132155D01*
X7844135Y-3140279D01*
X7847057Y-3148456D01*
X7847487Y-3149036D01*
X7848033Y-3150463D01*
X7895652Y-3245701D01*
X7900935Y-3254093D01*
X7901947Y-3256537D01*
X7904203Y-3259286D01*
X7906095Y-3262291D01*
X7908089Y-3264020D01*
X7914384Y-3271690D01*
X7962002Y-3319310D01*
X7969670Y-3325603D01*
X7971402Y-3327600D01*
X7974410Y-3329493D01*
X7977156Y-3331747D01*
X7979596Y-3332757D01*
X7987993Y-3338043D01*
X8083230Y-3385662D01*
X8101539Y-3392668D01*
X8105122Y-3392922D01*
X8108443Y-3394298D01*
X8127952Y-3396219D01*
X8223190Y-3396219D01*
X8242699Y-3394298D01*
X8246019Y-3392922D01*
X8249603Y-3392668D01*
X8267911Y-3385662D01*
X8363149Y-3338043D01*
X8371544Y-3332758D01*
X8373986Y-3331747D01*
X8376733Y-3329491D01*
X8379739Y-3327600D01*
X8381469Y-3325605D01*
X8389139Y-3319310D01*
X8436758Y-3271690D01*
X8443050Y-3264023D01*
X8445047Y-3262292D01*
X8446940Y-3259284D01*
X8449195Y-3256537D01*
X8450206Y-3254095D01*
X8455490Y-3245701D01*
X8503109Y-3150464D01*
X8503655Y-3149035D01*
X8504085Y-3148456D01*
X8507006Y-3140279D01*
X8510115Y-3132155D01*
X8510166Y-3131434D01*
X8510680Y-3129996D01*
X8558299Y-2939520D01*
X8558799Y-2936138D01*
X8559364Y-2934775D01*
X8560087Y-2927424D01*
X8561167Y-2920127D01*
X8560949Y-2918668D01*
X8561285Y-2915266D01*
X8561285Y-2677171D01*
X8560949Y-2673768D01*
X8561167Y-2672310D01*
X8560087Y-2665012D01*
X8559364Y-2657662D01*
X8558799Y-2656298D01*
X8558299Y-2652917D01*
X8510680Y-2462441D01*
X8510166Y-2461002D01*
X8510115Y-2460282D01*
X8507006Y-2452157D01*
X8504085Y-2443981D01*
X8503655Y-2443401D01*
X8503109Y-2441973D01*
X8455490Y-2346736D01*
X8450204Y-2338339D01*
X8449194Y-2335899D01*
X8446940Y-2333153D01*
X8445047Y-2330145D01*
X8443049Y-2328412D01*
X8436757Y-2320746D01*
X8389139Y-2273127D01*
X8381468Y-2266832D01*
X8379739Y-2264838D01*
X8376731Y-2262944D01*
X8373985Y-2260691D01*
X8371545Y-2259680D01*
X8363149Y-2254395D01*
X8267911Y-2206776D01*
X8249603Y-2199770D01*
X8246019Y-2199515D01*
X8242699Y-2198140D01*
X8223190Y-2196219D01*
X8127952Y-2196219D01*
X8108443Y-2198140D01*
X8105122Y-2199515D01*
X8101539Y-2199770D01*
X8083230Y-2206776D01*
X7987993Y-2254395D01*
X7979596Y-2259680D01*
X7977156Y-2260691D01*
X7974410Y-2262944D01*
X7971402Y-2264838D01*
X7969669Y-2266835D01*
X7962003Y-2273128D01*
X7914384Y-2320746D01*
X7908089Y-2328416D01*
X7906095Y-2330146D01*
X7904201Y-2333153D01*
X7901948Y-2335900D01*
X7900937Y-2338339D01*
X7895652Y-2346736D01*
X7848033Y-2441974D01*
X7847487Y-2443400D01*
X7847057Y-2443981D01*
X7844135Y-2452157D01*
X7841027Y-2460282D01*
X7840975Y-2461004D01*
X7840462Y-2462442D01*
X7792843Y-2652917D01*
X7792342Y-2656298D01*
X7791778Y-2657662D01*
X7791054Y-2665012D01*
X7789975Y-2672310D01*
X7790192Y-2673768D01*
X7789857Y-2677171D01*
X7582567Y-2677171D01*
X7699010Y-2327842D01*
X7703357Y-2308727D01*
X7700591Y-2269807D01*
X7683141Y-2234908D01*
X7653665Y-2209343D01*
X7616649Y-2197004D01*
X7577729Y-2199771D01*
X7542830Y-2217220D01*
X7517265Y-2246696D01*
X7509274Y-2264597D01*
X7270809Y-2979991D01*
X7032344Y-2264596D01*
X7024353Y-2246696D01*
X6998788Y-2217220D01*
X6963889Y-2199770D01*
X6924969Y-2197004D01*
X6887953Y-2209342D01*
X6858477Y-2234907D01*
X6841027Y-2269806D01*
X6838261Y-2308726D01*
X4916841Y-2308726D01*
X4916841Y-1210084D01*
X5027952Y-1210084D01*
X5027952Y-1495798D01*
X5029873Y-1515307D01*
X5031248Y-1518627D01*
X5031503Y-1522211D01*
X5038509Y-1540519D01*
X5086128Y-1635757D01*
X5091411Y-1644149D01*
X5092423Y-1646593D01*
X5094679Y-1649342D01*
X5096571Y-1652347D01*
X5098565Y-1654076D01*
X5104860Y-1661746D01*
X5152478Y-1709366D01*
X5160146Y-1715659D01*
X5161878Y-1717656D01*
X5164886Y-1719549D01*
X5167632Y-1721803D01*
X5170072Y-1722813D01*
X5178469Y-1728099D01*
X5273706Y-1775718D01*
X5292015Y-1782724D01*
X5295598Y-1782978D01*
X5298919Y-1784354D01*
X5318428Y-1786275D01*
X5508904Y-1786275D01*
X5528413Y-1784354D01*
X5531733Y-1782978D01*
X5535317Y-1782724D01*
X5553625Y-1775718D01*
X5648863Y-1728099D01*
X5665453Y-1717656D01*
X5691018Y-1688179D01*
X5703356Y-1651163D01*
X5700591Y-1612243D01*
X5683142Y-1577345D01*
X5653665Y-1551780D01*
X5616649Y-1539441D01*
X5577729Y-1542207D01*
X5559420Y-1549213D01*
X5485297Y-1586275D01*
X5342035Y-1586275D01*
X5282425Y-1556470D01*
X5257758Y-1531802D01*
X5227952Y-1472190D01*
X5227952Y-1233691D01*
X5239756Y-1210084D01*
X5885095Y-1210084D01*
X5885095Y-1495798D01*
X5887016Y-1515307D01*
X5888391Y-1518627D01*
X5888646Y-1522211D01*
X5895652Y-1540519D01*
X5943271Y-1635757D01*
X5948554Y-1644149D01*
X5949566Y-1646593D01*
X5951822Y-1649342D01*
X5953714Y-1652347D01*
X5955708Y-1654076D01*
X5962003Y-1661746D01*
X6009621Y-1709366D01*
X6017289Y-1715659D01*
X6019021Y-1717656D01*
X6022029Y-1719549D01*
X6024775Y-1721803D01*
X6027215Y-1722813D01*
X6035612Y-1728099D01*
X6130849Y-1775718D01*
X6149158Y-1782724D01*
X6152741Y-1782978D01*
X6156062Y-1784354D01*
X6175571Y-1786275D01*
X6318428Y-1786275D01*
X6337937Y-1784354D01*
X6341257Y-1782978D01*
X6344841Y-1782724D01*
X6363149Y-1775718D01*
X6458387Y-1728099D01*
X6466782Y-1722814D01*
X6469224Y-1721803D01*
X6471971Y-1719547D01*
X6474977Y-1717656D01*
X6476707Y-1715661D01*
X6484377Y-1709366D01*
X6531996Y-1661746D01*
X6538288Y-1654079D01*
X6540285Y-1652348D01*
X6542178Y-1649340D01*
X6544433Y-1646593D01*
X6545444Y-1644151D01*
X6550728Y-1635757D01*
X6598347Y-1540520D01*
X6605353Y-1522211D01*
X6605607Y-1518627D01*
X6606983Y-1515307D01*
X6608904Y-1495798D01*
X6608904Y-1210084D01*
X6606983Y-1190575D01*
X6605607Y-1187254D01*
X6605353Y-1183671D01*
X6598347Y-1165362D01*
X6550728Y-1070125D01*
X6545442Y-1061728D01*
X6544432Y-1059288D01*
X6542178Y-1056542D01*
X6540285Y-1053534D01*
X6538287Y-1051801D01*
X6531995Y-1044135D01*
X6507469Y-1019608D01*
X6837476Y-1019608D01*
X6837476Y-1543417D01*
X6839397Y-1562926D01*
X6840772Y-1566246D01*
X6841027Y-1569829D01*
X6848033Y-1588138D01*
X6895652Y-1683377D01*
X6897705Y-1686640D01*
X6898219Y-1688179D01*
X6899881Y-1690095D01*
X6906095Y-1699967D01*
X6915566Y-1708181D01*
X6923783Y-1717656D01*
X6933653Y-1723868D01*
X6935571Y-1725532D01*
X6937111Y-1726045D01*
X6940374Y-1728099D01*
X7035611Y-1775718D01*
X7053920Y-1782724D01*
X7057503Y-1782978D01*
X7060824Y-1784354D01*
X7080333Y-1786275D01*
X7223190Y-1786275D01*
X7242699Y-1784354D01*
X7246019Y-1782978D01*
X7249603Y-1782724D01*
X7267911Y-1775718D01*
X7300494Y-1759426D01*
X7310490Y-1769422D01*
X7346538Y-1784354D01*
X7385556Y-1784354D01*
X7421604Y-1769422D01*
X7449194Y-1741832D01*
X7464126Y-1705784D01*
X7466047Y-1686275D01*
X7466047Y-1019608D01*
X7742238Y-1019608D01*
X7742238Y-1686275D01*
X7744159Y-1705784D01*
X7759091Y-1741832D01*
X7786681Y-1769422D01*
X7822729Y-1784354D01*
X7861747Y-1784354D01*
X7897795Y-1769422D01*
X7925385Y-1741832D01*
X7940317Y-1705784D01*
X7942238Y-1686275D01*
X7942238Y-1156267D01*
X7949092Y-1149412D01*
X8008702Y-1119608D01*
X8104345Y-1119608D01*
X8148654Y-1141763D01*
X8170809Y-1186072D01*
X8170809Y-1686275D01*
X8172730Y-1705784D01*
X8187662Y-1741832D01*
X8215252Y-1769422D01*
X8251300Y-1784354D01*
X8290318Y-1784354D01*
X8326366Y-1769422D01*
X8353956Y-1741832D01*
X8368888Y-1705784D01*
X8370809Y-1686275D01*
X8370809Y-1162465D01*
X8368888Y-1142956D01*
X8367512Y-1139635D01*
X8367258Y-1136052D01*
X8360252Y-1117743D01*
X8312633Y-1022506D01*
X8310578Y-1019242D01*
X8310066Y-1017704D01*
X8308404Y-1015788D01*
X8302190Y-1005915D01*
X8295484Y-1000099D01*
X8506064Y-1000099D01*
X8506064Y-1039117D01*
X8520996Y-1075165D01*
X8548586Y-1102755D01*
X8584634Y-1117687D01*
X8604143Y-1119608D01*
X8647000Y-1119608D01*
X8647000Y-1543417D01*
X8648921Y-1562926D01*
X8650296Y-1566246D01*
X8650551Y-1569829D01*
X8657557Y-1588138D01*
X8705176Y-1683377D01*
X8707229Y-1686640D01*
X8707743Y-1688179D01*
X8709405Y-1690095D01*
X8715619Y-1699967D01*
X8725090Y-1708181D01*
X8733307Y-1717656D01*
X8743177Y-1723868D01*
X8745095Y-1725532D01*
X8746635Y-1726045D01*
X8749898Y-1728099D01*
X8845135Y-1775718D01*
X8863444Y-1782724D01*
X8867027Y-1782978D01*
X8870348Y-1784354D01*
X8889857Y-1786275D01*
X8985095Y-1786275D01*
X9004604Y-1784354D01*
X9040652Y-1769422D01*
X9068242Y-1741832D01*
X9083174Y-1705784D01*
X9083174Y-1666766D01*
X9068242Y-1630718D01*
X9040652Y-1603128D01*
X9004604Y-1588196D01*
X8985095Y-1586275D01*
X8913464Y-1586275D01*
X8869154Y-1564120D01*
X8847000Y-1519810D01*
X8847000Y-1162465D01*
X9170810Y-1162465D01*
X9170810Y-1543417D01*
X9172731Y-1562926D01*
X9174106Y-1566246D01*
X9174361Y-1569829D01*
X9181367Y-1588138D01*
X9228986Y-1683377D01*
X9231039Y-1686640D01*
X9231553Y-1688179D01*
X9233215Y-1690095D01*
X9239429Y-1699967D01*
X9248900Y-1708181D01*
X9257117Y-1717656D01*
X9266987Y-1723868D01*
X9268905Y-1725532D01*
X9270445Y-1726045D01*
X9273708Y-1728099D01*
X9368945Y-1775718D01*
X9387254Y-1782724D01*
X9390837Y-1782978D01*
X9394158Y-1784354D01*
X9413667Y-1786275D01*
X9604143Y-1786275D01*
X9623652Y-1784354D01*
X9626972Y-1782978D01*
X9630556Y-1782724D01*
X9648864Y-1775718D01*
X9744102Y-1728099D01*
X9760692Y-1717656D01*
X9786257Y-1688179D01*
X9798595Y-1651163D01*
X9795830Y-1612243D01*
X9778381Y-1577345D01*
X9748904Y-1551780D01*
X9711888Y-1539441D01*
X9672968Y-1542207D01*
X9654659Y-1549213D01*
X9580536Y-1586275D01*
X9437274Y-1586275D01*
X9392964Y-1564120D01*
X9370810Y-1519810D01*
X9370810Y-1434921D01*
X9766506Y-1355782D01*
X9766509Y-1355782D01*
X9766511Y-1355780D01*
X9766611Y-1355761D01*
X9785365Y-1350051D01*
X9793505Y-1344599D01*
X9802557Y-1340850D01*
X9809558Y-1333848D01*
X9817784Y-1328340D01*
X9823218Y-1320188D01*
X9830147Y-1313260D01*
X9833936Y-1304112D01*
X9839428Y-1295875D01*
X9841329Y-1286264D01*
X9845079Y-1277212D01*
X9847000Y-1257703D01*
X9847000Y-1162465D01*
X9845079Y-1142956D01*
X9843703Y-1139635D01*
X9843449Y-1136052D01*
X9836443Y-1117743D01*
X9788824Y-1022506D01*
X9786999Y-1019608D01*
X10075572Y-1019608D01*
X10075572Y-1686275D01*
X10077493Y-1705784D01*
X10092425Y-1741832D01*
X10120015Y-1769422D01*
X10156063Y-1784354D01*
X10195081Y-1784354D01*
X10231129Y-1769422D01*
X10258719Y-1741832D01*
X10273651Y-1705784D01*
X10275572Y-1686275D01*
X10275572Y-1233691D01*
X10305377Y-1174081D01*
X10330045Y-1149412D01*
X10389655Y-1119608D01*
X10461286Y-1119608D01*
X10480795Y-1117687D01*
X10516843Y-1102755D01*
X10544433Y-1075165D01*
X10559365Y-1039117D01*
X10559365Y-1000099D01*
X10544433Y-964051D01*
X10516843Y-936461D01*
X10480795Y-921529D01*
X10461286Y-919608D01*
X10366048Y-919608D01*
X10346539Y-921529D01*
X10343218Y-922904D01*
X10339635Y-923159D01*
X10321326Y-930165D01*
X10256997Y-962329D01*
X10231129Y-936461D01*
X10195081Y-921529D01*
X10156063Y-921529D01*
X10120015Y-936461D01*
X10092425Y-964051D01*
X10077493Y-1000099D01*
X10075572Y-1019608D01*
X9786999Y-1019608D01*
X9786769Y-1019242D01*
X9786257Y-1017704D01*
X9784595Y-1015788D01*
X9778381Y-1005915D01*
X9768905Y-997697D01*
X9760692Y-988227D01*
X9750820Y-982013D01*
X9748904Y-980351D01*
X9747365Y-979837D01*
X9744102Y-977784D01*
X9648864Y-930165D01*
X9630556Y-923159D01*
X9626972Y-922904D01*
X9623652Y-921529D01*
X9604143Y-919608D01*
X9413667Y-919608D01*
X9394158Y-921529D01*
X9390837Y-922904D01*
X9387254Y-923159D01*
X9368945Y-930165D01*
X9273708Y-977784D01*
X9270444Y-979838D01*
X9268906Y-980351D01*
X9266990Y-982012D01*
X9257117Y-988227D01*
X9248899Y-997702D01*
X9239429Y-1005916D01*
X9233215Y-1015787D01*
X9231553Y-1017704D01*
X9231039Y-1019242D01*
X9228986Y-1022506D01*
X9181367Y-1117744D01*
X9174361Y-1136052D01*
X9174106Y-1139635D01*
X9172731Y-1142956D01*
X9170810Y-1162465D01*
X8847000Y-1162465D01*
X8847000Y-1119608D01*
X8985095Y-1119608D01*
X9004604Y-1117687D01*
X9040652Y-1102755D01*
X9068242Y-1075165D01*
X9083174Y-1039117D01*
X9083174Y-1000099D01*
X9068242Y-964051D01*
X9040652Y-936461D01*
X9004604Y-921529D01*
X8985095Y-919608D01*
X8847000Y-919608D01*
X8847000Y-686275D01*
X8845079Y-666766D01*
X8830147Y-630718D01*
X8802557Y-603128D01*
X8766509Y-588196D01*
X8727491Y-588196D01*
X8691443Y-603128D01*
X8663853Y-630718D01*
X8648921Y-666766D01*
X8647000Y-686275D01*
X8647000Y-919608D01*
X8604143Y-919608D01*
X8584634Y-921529D01*
X8548586Y-936461D01*
X8520996Y-964051D01*
X8506064Y-1000099D01*
X8295484Y-1000099D01*
X8292714Y-997697D01*
X8284501Y-988227D01*
X8274629Y-982013D01*
X8272713Y-980351D01*
X8271174Y-979837D01*
X8267911Y-977784D01*
X8172673Y-930165D01*
X8154365Y-923159D01*
X8150781Y-922904D01*
X8147461Y-921529D01*
X8127952Y-919608D01*
X7985095Y-919608D01*
X7965586Y-921529D01*
X7962265Y-922904D01*
X7958682Y-923159D01*
X7940373Y-930165D01*
X7907790Y-946456D01*
X7897795Y-936461D01*
X7861747Y-921529D01*
X7822729Y-921529D01*
X7786681Y-936461D01*
X7759091Y-964051D01*
X7744159Y-1000099D01*
X7742238Y-1019608D01*
X7466047Y-1019608D01*
X7464126Y-1000099D01*
X7449194Y-964051D01*
X7421604Y-936461D01*
X7385556Y-921529D01*
X7346538Y-921529D01*
X7310490Y-936461D01*
X7282900Y-964051D01*
X7267968Y-1000099D01*
X7266047Y-1019608D01*
X7266047Y-1549615D01*
X7259192Y-1556469D01*
X7199583Y-1586275D01*
X7103940Y-1586275D01*
X7059630Y-1564120D01*
X7037476Y-1519810D01*
X7037476Y-1019608D01*
X7035555Y-1000099D01*
X7020623Y-964051D01*
X6993033Y-936461D01*
X6956985Y-921529D01*
X6917967Y-921529D01*
X6881919Y-936461D01*
X6854329Y-964051D01*
X6839397Y-1000099D01*
X6837476Y-1019608D01*
X6507469Y-1019608D01*
X6484377Y-996516D01*
X6476706Y-990221D01*
X6474977Y-988227D01*
X6471969Y-986333D01*
X6469223Y-984080D01*
X6466783Y-983069D01*
X6458387Y-977784D01*
X6363149Y-930165D01*
X6344841Y-923159D01*
X6341257Y-922904D01*
X6337937Y-921529D01*
X6318428Y-919608D01*
X6175571Y-919608D01*
X6156062Y-921529D01*
X6152741Y-922904D01*
X6149158Y-923159D01*
X6130849Y-930165D01*
X6035612Y-977784D01*
X6027215Y-983069D01*
X6024775Y-984080D01*
X6022029Y-986333D01*
X6019021Y-988227D01*
X6017288Y-990224D01*
X6009622Y-996517D01*
X5962003Y-1044135D01*
X5955708Y-1051805D01*
X5953714Y-1053535D01*
X5951820Y-1056542D01*
X5949567Y-1059289D01*
X5948556Y-1061728D01*
X5943271Y-1070125D01*
X5895652Y-1165363D01*
X5888646Y-1183671D01*
X5888391Y-1187254D01*
X5887016Y-1190575D01*
X5885095Y-1210084D01*
X5239756Y-1210084D01*
X5257757Y-1174081D01*
X5282425Y-1149412D01*
X5342035Y-1119608D01*
X5485297Y-1119608D01*
X5559420Y-1156670D01*
X5577729Y-1163676D01*
X5616649Y-1166442D01*
X5653665Y-1154103D01*
X5683142Y-1128538D01*
X5700591Y-1093640D01*
X5703356Y-1054720D01*
X5691018Y-1017704D01*
X5665453Y-988227D01*
X5648863Y-977784D01*
X5553625Y-930165D01*
X5535317Y-923159D01*
X5531733Y-922904D01*
X5528413Y-921529D01*
X5508904Y-919608D01*
X5318428Y-919608D01*
X5298919Y-921529D01*
X5295598Y-922904D01*
X5292015Y-923159D01*
X5273706Y-930165D01*
X5178469Y-977784D01*
X5170072Y-983069D01*
X5167632Y-984080D01*
X5164886Y-986333D01*
X5161878Y-988227D01*
X5160145Y-990224D01*
X5152479Y-996517D01*
X5104860Y-1044135D01*
X5098565Y-1051805D01*
X5096571Y-1053535D01*
X5094677Y-1056542D01*
X5092424Y-1059289D01*
X5091413Y-1061728D01*
X5086128Y-1070125D01*
X5038509Y-1165363D01*
X5031503Y-1183671D01*
X5031248Y-1187254D01*
X5029873Y-1190575D01*
X5027952Y-1210084D01*
X4916841Y-1210084D01*
X4916841Y650462D01*
X5909690Y650462D01*
X5912456Y611542D01*
X5929905Y576643D01*
X5959382Y551079D01*
X5996398Y538740D01*
X6035318Y541506D01*
X6053626Y548512D01*
X6148864Y596131D01*
X6157260Y601417D01*
X6159700Y602427D01*
X6162446Y604681D01*
X6165454Y606574D01*
X6167183Y608569D01*
X6174854Y614863D01*
X6194619Y634628D01*
X6194619Y23669D01*
X6008905Y23669D01*
X5989396Y21748D01*
X5953348Y6816D01*
X5925758Y-20774D01*
X5910826Y-56822D01*
X5910826Y-95840D01*
X5925758Y-131888D01*
X5953348Y-159478D01*
X5989396Y-174410D01*
X6008905Y-176331D01*
X6580333Y-176331D01*
X6599842Y-174410D01*
X6635890Y-159478D01*
X6663480Y-131888D01*
X6678412Y-95840D01*
X6678412Y-56822D01*
X6663480Y-20774D01*
X6635890Y6816D01*
X6599842Y21748D01*
X6580333Y23669D01*
X6394619Y23669D01*
X6394619Y495098D01*
X6861286Y495098D01*
X6861286Y114146D01*
X6863207Y94637D01*
X6864582Y91317D01*
X6864837Y87733D01*
X6871843Y69425D01*
X6919462Y-25813D01*
X6924745Y-34205D01*
X6925757Y-36649D01*
X6928013Y-39398D01*
X6929905Y-42403D01*
X6931899Y-44132D01*
X6938194Y-51802D01*
X6985812Y-99422D01*
X6993480Y-105715D01*
X6995212Y-107712D01*
X6998220Y-109605D01*
X7000966Y-111859D01*
X7003406Y-112869D01*
X7011803Y-118155D01*
X7107040Y-165774D01*
X7125349Y-172780D01*
X7128932Y-173034D01*
X7132253Y-174410D01*
X7151762Y-176331D01*
X7342238Y-176331D01*
X7361747Y-174410D01*
X7365067Y-173034D01*
X7368651Y-172780D01*
X7386959Y-165774D01*
X7482197Y-118155D01*
X7490592Y-112870D01*
X7493034Y-111859D01*
X7495781Y-109603D01*
X7498787Y-107712D01*
X7500517Y-105717D01*
X7508187Y-99422D01*
X7555806Y-51802D01*
X7562098Y-44135D01*
X7564095Y-42404D01*
X7565988Y-39396D01*
X7568243Y-36649D01*
X7569254Y-34207D01*
X7574538Y-25813D01*
X7622157Y69424D01*
X7629163Y87733D01*
X7629417Y91317D01*
X7630793Y94637D01*
X7632714Y114146D01*
X7632714Y352241D01*
X7630793Y371750D01*
X7629417Y375071D01*
X7629163Y378654D01*
X7622157Y396963D01*
X7574538Y492200D01*
X7569252Y500597D01*
X7568242Y503037D01*
X7565988Y505783D01*
X7564095Y508791D01*
X7562097Y510524D01*
X7555805Y518190D01*
X7508187Y565809D01*
X7500516Y572104D01*
X7498787Y574098D01*
X7495779Y575992D01*
X7493033Y578245D01*
X7490593Y579256D01*
X7482197Y584541D01*
X7386959Y632160D01*
X7368651Y639166D01*
X7365067Y639421D01*
X7361747Y640796D01*
X7342238Y642717D01*
X7151762Y642717D01*
X7132253Y640796D01*
X7128932Y639421D01*
X7125349Y639166D01*
X7107040Y632160D01*
X7097427Y627354D01*
X7101718Y644516D01*
X7181854Y764721D01*
X7210997Y793865D01*
X7270607Y823669D01*
X7437476Y823669D01*
X7456985Y825590D01*
X7493033Y840522D01*
X7520623Y868112D01*
X7535555Y904160D01*
X7535555Y923669D01*
X7861286Y923669D01*
X7861286Y-76331D01*
X7863207Y-95840D01*
X7878139Y-131888D01*
X7905729Y-159478D01*
X7941777Y-174410D01*
X7980795Y-174410D01*
X8007199Y-163472D01*
X8011802Y-165774D01*
X8030111Y-172780D01*
X8033694Y-173034D01*
X8037015Y-174410D01*
X8056524Y-176331D01*
X8247000Y-176331D01*
X8266509Y-174410D01*
X8269829Y-173034D01*
X8273413Y-172780D01*
X8291721Y-165774D01*
X8386959Y-118155D01*
X8395354Y-112870D01*
X8397796Y-111859D01*
X8400543Y-109603D01*
X8403549Y-107712D01*
X8405279Y-105717D01*
X8412949Y-99422D01*
X8460568Y-51802D01*
X8466860Y-44135D01*
X8468857Y-42404D01*
X8470750Y-39396D01*
X8473005Y-36649D01*
X8474016Y-34207D01*
X8479300Y-25813D01*
X8526919Y69424D01*
X8533925Y87733D01*
X8534179Y91317D01*
X8535555Y94637D01*
X8537476Y114146D01*
X8537476Y399860D01*
X8535555Y419369D01*
X8534179Y422690D01*
X8533925Y426273D01*
X8526919Y444582D01*
X8479300Y539819D01*
X8474014Y548216D01*
X8473004Y550656D01*
X8470750Y553402D01*
X8468857Y556410D01*
X8466859Y558143D01*
X8460567Y565809D01*
X8436041Y590336D01*
X8766048Y590336D01*
X8766048Y-76331D01*
X8767969Y-95840D01*
X8782901Y-131888D01*
X8810491Y-159478D01*
X8846539Y-174410D01*
X8885557Y-174410D01*
X8921605Y-159478D01*
X8949195Y-131888D01*
X8964127Y-95840D01*
X8966048Y-76331D01*
X8966048Y590336D01*
X8964127Y609845D01*
X9101302Y609845D01*
X9101302Y570827D01*
X9116234Y534779D01*
X9143824Y507189D01*
X9179872Y492257D01*
X9199381Y490336D01*
X9242238Y490336D01*
X9242238Y66527D01*
X9244159Y47018D01*
X9245534Y43698D01*
X9245789Y40115D01*
X9252795Y21806D01*
X9300414Y-73433D01*
X9302467Y-76696D01*
X9302981Y-78235D01*
X9304643Y-80151D01*
X9310857Y-90023D01*
X9320328Y-98237D01*
X9328545Y-107712D01*
X9338415Y-113924D01*
X9340333Y-115588D01*
X9341873Y-116101D01*
X9345136Y-118155D01*
X9440373Y-165774D01*
X9458682Y-172780D01*
X9462265Y-173034D01*
X9465586Y-174410D01*
X9485095Y-176331D01*
X9580333Y-176331D01*
X9599842Y-174410D01*
X9635890Y-159478D01*
X9663480Y-131888D01*
X9678412Y-95840D01*
X9678412Y-56822D01*
X9663480Y-20774D01*
X9635890Y6816D01*
X9599842Y21748D01*
X9580333Y23669D01*
X9508702Y23669D01*
X9464392Y45824D01*
X9442238Y90134D01*
X9442238Y490336D01*
X9580333Y490336D01*
X9599842Y492257D01*
X9635890Y507189D01*
X9663480Y534779D01*
X9678412Y570827D01*
X9678412Y609845D01*
X9663480Y645893D01*
X9635890Y673483D01*
X9599842Y688415D01*
X9580333Y690336D01*
X9442238Y690336D01*
X9442238Y923669D01*
X9440317Y943178D01*
X9425385Y979226D01*
X9397795Y1006816D01*
X9361747Y1021748D01*
X9322729Y1021748D01*
X9286681Y1006816D01*
X9259091Y979226D01*
X9244159Y943178D01*
X9242238Y923669D01*
X9242238Y690336D01*
X9199381Y690336D01*
X9179872Y688415D01*
X9143824Y673483D01*
X9116234Y645893D01*
X9101302Y609845D01*
X8964127Y609845D01*
X8949195Y645893D01*
X8921605Y673483D01*
X8885557Y688415D01*
X8846539Y688415D01*
X8810491Y673483D01*
X8782901Y645893D01*
X8767969Y609845D01*
X8766048Y590336D01*
X8436041Y590336D01*
X8412949Y613428D01*
X8405278Y619723D01*
X8403549Y621717D01*
X8400541Y623611D01*
X8397795Y625864D01*
X8395355Y626875D01*
X8386959Y632160D01*
X8291721Y679779D01*
X8273413Y686785D01*
X8269829Y687040D01*
X8266509Y688415D01*
X8247000Y690336D01*
X8061286Y690336D01*
X8061286Y895559D01*
X8720350Y895559D01*
X8720350Y856541D01*
X8735282Y820493D01*
X8747718Y805339D01*
X8795337Y757721D01*
X8810490Y745284D01*
X8817340Y742447D01*
X8846539Y730352D01*
X8885557Y730352D01*
X8921605Y745284D01*
X8936759Y757720D01*
X8984377Y805339D01*
X8996814Y820492D01*
X9011745Y856541D01*
X9011745Y895559D01*
X9010230Y899216D01*
X8996814Y931608D01*
X8984377Y946761D01*
X8936759Y994380D01*
X8921605Y1006816D01*
X8885557Y1021748D01*
X8846539Y1021748D01*
X8821048Y1011190D01*
X8810490Y1006816D01*
X8795337Y994379D01*
X8747718Y946761D01*
X8735283Y931608D01*
X8735282Y931607D01*
X8720350Y895559D01*
X8061286Y895559D01*
X8061286Y923669D01*
X8059365Y943178D01*
X8044433Y979226D01*
X8016843Y1006816D01*
X7980795Y1021748D01*
X7941777Y1021748D01*
X7905729Y1006816D01*
X7878139Y979226D01*
X7863207Y943178D01*
X7861286Y923669D01*
X7535555Y923669D01*
X7535555Y943178D01*
X7520623Y979226D01*
X7493033Y1006816D01*
X7456985Y1021748D01*
X7437476Y1023669D01*
X7247000Y1023669D01*
X7227491Y1021748D01*
X7224170Y1020373D01*
X7220587Y1020118D01*
X7202278Y1013112D01*
X7107041Y965493D01*
X7098644Y960208D01*
X7096204Y959197D01*
X7093458Y956944D01*
X7090450Y955050D01*
X7088717Y953053D01*
X7081051Y946760D01*
X7033432Y899142D01*
X7033387Y899088D01*
X7033358Y899068D01*
X7027176Y891520D01*
X7020996Y883988D01*
X7020982Y883956D01*
X7020938Y883901D01*
X6925700Y741044D01*
X6919957Y730275D01*
X6918486Y728288D01*
X6917648Y725943D01*
X6916477Y723746D01*
X6915997Y721323D01*
X6911891Y709827D01*
X6864272Y519352D01*
X6863771Y515971D01*
X6863207Y514607D01*
X6862483Y507257D01*
X6861404Y499959D01*
X6861621Y498501D01*
X6861286Y495098D01*
X6394619Y495098D01*
X6394619Y923669D01*
X6394612Y923740D01*
X6394619Y923774D01*
X6394598Y923876D01*
X6392698Y943178D01*
X6388908Y952327D01*
X6386967Y962034D01*
X6381515Y970175D01*
X6377766Y979226D01*
X6370766Y986226D01*
X6365256Y994454D01*
X6357101Y999891D01*
X6350176Y1006816D01*
X6341032Y1010604D01*
X6332791Y1016098D01*
X6323177Y1018000D01*
X6314128Y1021748D01*
X6304227Y1021748D01*
X6294515Y1023669D01*
X6284910Y1021748D01*
X6275110Y1021748D01*
X6265961Y1017959D01*
X6256254Y1016017D01*
X6248113Y1010566D01*
X6239062Y1006816D01*
X6232062Y999817D01*
X6223834Y994306D01*
X6211545Y979300D01*
X6211472Y979226D01*
X6211458Y979194D01*
X6211414Y979139D01*
X6121670Y844523D01*
X6044906Y767760D01*
X5964184Y727398D01*
X5947593Y716955D01*
X5922029Y687478D01*
X5909690Y650462D01*
X4916841Y650462D01*
X4916841Y1134780D01*
X10670476Y1134780D01*
X10670476Y-3507330D01*
G37*
D10*
X12794839Y-7845486D02*
X12764601Y-7875725D01*
X12764601Y-7875725D02*
X12673887Y-7905963D01*
X12673887Y-7905963D02*
X12613411Y-7905963D01*
X12613411Y-7905963D02*
X12522696Y-7875725D01*
X12522696Y-7875725D02*
X12462220Y-7815248D01*
X12462220Y-7815248D02*
X12431982Y-7754772D01*
X12431982Y-7754772D02*
X12401744Y-7633820D01*
X12401744Y-7633820D02*
X12401744Y-7543105D01*
X12401744Y-7543105D02*
X12431982Y-7422153D01*
X12431982Y-7422153D02*
X12462220Y-7361677D01*
X12462220Y-7361677D02*
X12522696Y-7301201D01*
X12522696Y-7301201D02*
X12613411Y-7270963D01*
X12613411Y-7270963D02*
X12673887Y-7270963D01*
X12673887Y-7270963D02*
X12764601Y-7301201D01*
X12764601Y-7301201D02*
X12794839Y-7331439D01*
X13399601Y-7905963D02*
X13036744Y-7905963D01*
X13218172Y-7905963D02*
X13218172Y-7270963D01*
X13218172Y-7270963D02*
X13157696Y-7361677D01*
X13157696Y-7361677D02*
X13097220Y-7422153D01*
X13097220Y-7422153D02*
X13036744Y-7452391D01*
X13974125Y-7270963D02*
X13671744Y-7270963D01*
X13671744Y-7270963D02*
X13641506Y-7573344D01*
X13641506Y-7573344D02*
X13671744Y-7543105D01*
X13671744Y-7543105D02*
X13732220Y-7512867D01*
X13732220Y-7512867D02*
X13883411Y-7512867D01*
X13883411Y-7512867D02*
X13943887Y-7543105D01*
X13943887Y-7543105D02*
X13974125Y-7573344D01*
X13974125Y-7573344D02*
X14004363Y-7633820D01*
X14004363Y-7633820D02*
X14004363Y-7785010D01*
X14004363Y-7785010D02*
X13974125Y-7845486D01*
X13974125Y-7845486D02*
X13943887Y-7875725D01*
X13943887Y-7875725D02*
X13883411Y-7905963D01*
X13883411Y-7905963D02*
X13732220Y-7905963D01*
X13732220Y-7905963D02*
X13671744Y-7875725D01*
X13671744Y-7875725D02*
X13641506Y-7845486D01*
X13399601Y-30705486D02*
X13369363Y-30735725D01*
X13369363Y-30735725D02*
X13278649Y-30765963D01*
X13278649Y-30765963D02*
X13218173Y-30765963D01*
X13218173Y-30765963D02*
X13127458Y-30735725D01*
X13127458Y-30735725D02*
X13066982Y-30675248D01*
X13066982Y-30675248D02*
X13036744Y-30614772D01*
X13036744Y-30614772D02*
X13006506Y-30493820D01*
X13006506Y-30493820D02*
X13006506Y-30403105D01*
X13006506Y-30403105D02*
X13036744Y-30282153D01*
X13036744Y-30282153D02*
X13066982Y-30221677D01*
X13066982Y-30221677D02*
X13127458Y-30161201D01*
X13127458Y-30161201D02*
X13218173Y-30130963D01*
X13218173Y-30130963D02*
X13278649Y-30130963D01*
X13278649Y-30130963D02*
X13369363Y-30161201D01*
X13369363Y-30161201D02*
X13399601Y-30191439D01*
X13943887Y-30130963D02*
X13822934Y-30130963D01*
X13822934Y-30130963D02*
X13762458Y-30161201D01*
X13762458Y-30161201D02*
X13732220Y-30191439D01*
X13732220Y-30191439D02*
X13671744Y-30282153D01*
X13671744Y-30282153D02*
X13641506Y-30403105D01*
X13641506Y-30403105D02*
X13641506Y-30645010D01*
X13641506Y-30645010D02*
X13671744Y-30705486D01*
X13671744Y-30705486D02*
X13701982Y-30735725D01*
X13701982Y-30735725D02*
X13762458Y-30765963D01*
X13762458Y-30765963D02*
X13883411Y-30765963D01*
X13883411Y-30765963D02*
X13943887Y-30735725D01*
X13943887Y-30735725D02*
X13974125Y-30705486D01*
X13974125Y-30705486D02*
X14004363Y-30645010D01*
X14004363Y-30645010D02*
X14004363Y-30493820D01*
X14004363Y-30493820D02*
X13974125Y-30433344D01*
X13974125Y-30433344D02*
X13943887Y-30403105D01*
X13943887Y-30403105D02*
X13883411Y-30372867D01*
X13883411Y-30372867D02*
X13762458Y-30372867D01*
X13762458Y-30372867D02*
X13701982Y-30403105D01*
X13701982Y-30403105D02*
X13671744Y-30433344D01*
X13671744Y-30433344D02*
X13641506Y-30493820D01*
X1568255Y-38385963D02*
X1265874Y-38385963D01*
X1265874Y-38385963D02*
X1265874Y-37750963D01*
X1719446Y-37750963D02*
X2112541Y-37750963D01*
X2112541Y-37750963D02*
X1900874Y-37992867D01*
X1900874Y-37992867D02*
X1991589Y-37992867D01*
X1991589Y-37992867D02*
X2052065Y-38023105D01*
X2052065Y-38023105D02*
X2082303Y-38053344D01*
X2082303Y-38053344D02*
X2112541Y-38113820D01*
X2112541Y-38113820D02*
X2112541Y-38265010D01*
X2112541Y-38265010D02*
X2082303Y-38325486D01*
X2082303Y-38325486D02*
X2052065Y-38355725D01*
X2052065Y-38355725D02*
X1991589Y-38385963D01*
X1991589Y-38385963D02*
X1810160Y-38385963D01*
X1810160Y-38385963D02*
X1749684Y-38355725D01*
X1749684Y-38355725D02*
X1719446Y-38325486D01*
X1568255Y-46005963D02*
X1265874Y-46005963D01*
X1265874Y-46005963D02*
X1265874Y-45370963D01*
X1900874Y-45370963D02*
X1961351Y-45370963D01*
X1961351Y-45370963D02*
X2021827Y-45401201D01*
X2021827Y-45401201D02*
X2052065Y-45431439D01*
X2052065Y-45431439D02*
X2082303Y-45491915D01*
X2082303Y-45491915D02*
X2112541Y-45612867D01*
X2112541Y-45612867D02*
X2112541Y-45764058D01*
X2112541Y-45764058D02*
X2082303Y-45885010D01*
X2082303Y-45885010D02*
X2052065Y-45945486D01*
X2052065Y-45945486D02*
X2021827Y-45975725D01*
X2021827Y-45975725D02*
X1961351Y-46005963D01*
X1961351Y-46005963D02*
X1900874Y-46005963D01*
X1900874Y-46005963D02*
X1840398Y-45975725D01*
X1840398Y-45975725D02*
X1810160Y-45945486D01*
X1810160Y-45945486D02*
X1779922Y-45885010D01*
X1779922Y-45885010D02*
X1749684Y-45764058D01*
X1749684Y-45764058D02*
X1749684Y-45612867D01*
X1749684Y-45612867D02*
X1779922Y-45491915D01*
X1779922Y-45491915D02*
X1810160Y-45431439D01*
X1810160Y-45431439D02*
X1840398Y-45401201D01*
X1840398Y-45401201D02*
X1900874Y-45370963D01*
X13399601Y-25625486D02*
X13369363Y-25655725D01*
X13369363Y-25655725D02*
X13278649Y-25685963D01*
X13278649Y-25685963D02*
X13218173Y-25685963D01*
X13218173Y-25685963D02*
X13127458Y-25655725D01*
X13127458Y-25655725D02*
X13066982Y-25595248D01*
X13066982Y-25595248D02*
X13036744Y-25534772D01*
X13036744Y-25534772D02*
X13006506Y-25413820D01*
X13006506Y-25413820D02*
X13006506Y-25323105D01*
X13006506Y-25323105D02*
X13036744Y-25202153D01*
X13036744Y-25202153D02*
X13066982Y-25141677D01*
X13066982Y-25141677D02*
X13127458Y-25081201D01*
X13127458Y-25081201D02*
X13218173Y-25050963D01*
X13218173Y-25050963D02*
X13278649Y-25050963D01*
X13278649Y-25050963D02*
X13369363Y-25081201D01*
X13369363Y-25081201D02*
X13399601Y-25111439D01*
X13762458Y-25323105D02*
X13701982Y-25292867D01*
X13701982Y-25292867D02*
X13671744Y-25262629D01*
X13671744Y-25262629D02*
X13641506Y-25202153D01*
X13641506Y-25202153D02*
X13641506Y-25171915D01*
X13641506Y-25171915D02*
X13671744Y-25111439D01*
X13671744Y-25111439D02*
X13701982Y-25081201D01*
X13701982Y-25081201D02*
X13762458Y-25050963D01*
X13762458Y-25050963D02*
X13883411Y-25050963D01*
X13883411Y-25050963D02*
X13943887Y-25081201D01*
X13943887Y-25081201D02*
X13974125Y-25111439D01*
X13974125Y-25111439D02*
X14004363Y-25171915D01*
X14004363Y-25171915D02*
X14004363Y-25202153D01*
X14004363Y-25202153D02*
X13974125Y-25262629D01*
X13974125Y-25262629D02*
X13943887Y-25292867D01*
X13943887Y-25292867D02*
X13883411Y-25323105D01*
X13883411Y-25323105D02*
X13762458Y-25323105D01*
X13762458Y-25323105D02*
X13701982Y-25353344D01*
X13701982Y-25353344D02*
X13671744Y-25383582D01*
X13671744Y-25383582D02*
X13641506Y-25444058D01*
X13641506Y-25444058D02*
X13641506Y-25565010D01*
X13641506Y-25565010D02*
X13671744Y-25625486D01*
X13671744Y-25625486D02*
X13701982Y-25655725D01*
X13701982Y-25655725D02*
X13762458Y-25685963D01*
X13762458Y-25685963D02*
X13883411Y-25685963D01*
X13883411Y-25685963D02*
X13943887Y-25655725D01*
X13943887Y-25655725D02*
X13974125Y-25625486D01*
X13974125Y-25625486D02*
X14004363Y-25565010D01*
X14004363Y-25565010D02*
X14004363Y-25444058D01*
X14004363Y-25444058D02*
X13974125Y-25383582D01*
X13974125Y-25383582D02*
X13943887Y-25353344D01*
X13943887Y-25353344D02*
X13883411Y-25323105D01*
X12794839Y-20545486D02*
X12764601Y-20575725D01*
X12764601Y-20575725D02*
X12673887Y-20605963D01*
X12673887Y-20605963D02*
X12613411Y-20605963D01*
X12613411Y-20605963D02*
X12522696Y-20575725D01*
X12522696Y-20575725D02*
X12462220Y-20515248D01*
X12462220Y-20515248D02*
X12431982Y-20454772D01*
X12431982Y-20454772D02*
X12401744Y-20333820D01*
X12401744Y-20333820D02*
X12401744Y-20243105D01*
X12401744Y-20243105D02*
X12431982Y-20122153D01*
X12431982Y-20122153D02*
X12462220Y-20061677D01*
X12462220Y-20061677D02*
X12522696Y-20001201D01*
X12522696Y-20001201D02*
X12613411Y-19970963D01*
X12613411Y-19970963D02*
X12673887Y-19970963D01*
X12673887Y-19970963D02*
X12764601Y-20001201D01*
X12764601Y-20001201D02*
X12794839Y-20031439D01*
X13399601Y-20605963D02*
X13036744Y-20605963D01*
X13218172Y-20605963D02*
X13218172Y-19970963D01*
X13218172Y-19970963D02*
X13157696Y-20061677D01*
X13157696Y-20061677D02*
X13097220Y-20122153D01*
X13097220Y-20122153D02*
X13036744Y-20152391D01*
X13792696Y-19970963D02*
X13853173Y-19970963D01*
X13853173Y-19970963D02*
X13913649Y-20001201D01*
X13913649Y-20001201D02*
X13943887Y-20031439D01*
X13943887Y-20031439D02*
X13974125Y-20091915D01*
X13974125Y-20091915D02*
X14004363Y-20212867D01*
X14004363Y-20212867D02*
X14004363Y-20364058D01*
X14004363Y-20364058D02*
X13974125Y-20485010D01*
X13974125Y-20485010D02*
X13943887Y-20545486D01*
X13943887Y-20545486D02*
X13913649Y-20575725D01*
X13913649Y-20575725D02*
X13853173Y-20605963D01*
X13853173Y-20605963D02*
X13792696Y-20605963D01*
X13792696Y-20605963D02*
X13732220Y-20575725D01*
X13732220Y-20575725D02*
X13701982Y-20545486D01*
X13701982Y-20545486D02*
X13671744Y-20485010D01*
X13671744Y-20485010D02*
X13641506Y-20364058D01*
X13641506Y-20364058D02*
X13641506Y-20212867D01*
X13641506Y-20212867D02*
X13671744Y-20091915D01*
X13671744Y-20091915D02*
X13701982Y-20031439D01*
X13701982Y-20031439D02*
X13732220Y-20001201D01*
X13732220Y-20001201D02*
X13792696Y-19970963D01*
X13399601Y-40865486D02*
X13369363Y-40895725D01*
X13369363Y-40895725D02*
X13278649Y-40925963D01*
X13278649Y-40925963D02*
X13218173Y-40925963D01*
X13218173Y-40925963D02*
X13127458Y-40895725D01*
X13127458Y-40895725D02*
X13066982Y-40835248D01*
X13066982Y-40835248D02*
X13036744Y-40774772D01*
X13036744Y-40774772D02*
X13006506Y-40653820D01*
X13006506Y-40653820D02*
X13006506Y-40563105D01*
X13006506Y-40563105D02*
X13036744Y-40442153D01*
X13036744Y-40442153D02*
X13066982Y-40381677D01*
X13066982Y-40381677D02*
X13127458Y-40321201D01*
X13127458Y-40321201D02*
X13218173Y-40290963D01*
X13218173Y-40290963D02*
X13278649Y-40290963D01*
X13278649Y-40290963D02*
X13369363Y-40321201D01*
X13369363Y-40321201D02*
X13399601Y-40351439D01*
X13641506Y-40351439D02*
X13671744Y-40321201D01*
X13671744Y-40321201D02*
X13732220Y-40290963D01*
X13732220Y-40290963D02*
X13883411Y-40290963D01*
X13883411Y-40290963D02*
X13943887Y-40321201D01*
X13943887Y-40321201D02*
X13974125Y-40351439D01*
X13974125Y-40351439D02*
X14004363Y-40411915D01*
X14004363Y-40411915D02*
X14004363Y-40472391D01*
X14004363Y-40472391D02*
X13974125Y-40563105D01*
X13974125Y-40563105D02*
X13611268Y-40925963D01*
X13611268Y-40925963D02*
X14004363Y-40925963D01*
X1265874Y-5365963D02*
X1265874Y-4730963D01*
X1265874Y-4730963D02*
X1477541Y-5184534D01*
X1477541Y-5184534D02*
X1689207Y-4730963D01*
X1689207Y-4730963D02*
X1689207Y-5365963D01*
X2354445Y-5365963D02*
X2142778Y-5063582D01*
X1991588Y-5365963D02*
X1991588Y-4730963D01*
X1991588Y-4730963D02*
X2233493Y-4730963D01*
X2233493Y-4730963D02*
X2293969Y-4761201D01*
X2293969Y-4761201D02*
X2324207Y-4791439D01*
X2324207Y-4791439D02*
X2354445Y-4851915D01*
X2354445Y-4851915D02*
X2354445Y-4942629D01*
X2354445Y-4942629D02*
X2324207Y-5003105D01*
X2324207Y-5003105D02*
X2293969Y-5033344D01*
X2293969Y-5033344D02*
X2233493Y-5063582D01*
X2233493Y-5063582D02*
X1991588Y-5063582D01*
X1178184Y-4554675D02*
X2411898Y-4554675D01*
X1568255Y-28225963D02*
X1265874Y-28225963D01*
X1265874Y-28225963D02*
X1265874Y-27590963D01*
X1719446Y-27590963D02*
X2142779Y-27590963D01*
X2142779Y-27590963D02*
X1870636Y-28225963D01*
X12673887Y318799D02*
X12613411Y349037D01*
X12613411Y349037D02*
X12522697Y349037D01*
X12522697Y349037D02*
X12431982Y318799D01*
X12431982Y318799D02*
X12371506Y258323D01*
X12371506Y258323D02*
X12341268Y197847D01*
X12341268Y197847D02*
X12311030Y76895D01*
X12311030Y76895D02*
X12311030Y-13820D01*
X12311030Y-13820D02*
X12341268Y-134772D01*
X12341268Y-134772D02*
X12371506Y-195248D01*
X12371506Y-195248D02*
X12431982Y-255725D01*
X12431982Y-255725D02*
X12522697Y-285963D01*
X12522697Y-285963D02*
X12583173Y-285963D01*
X12583173Y-285963D02*
X12673887Y-255725D01*
X12673887Y-255725D02*
X12704125Y-225486D01*
X12704125Y-225486D02*
X12704125Y-13820D01*
X12704125Y-13820D02*
X12583173Y-13820D01*
X12976268Y-285963D02*
X12976268Y349037D01*
X12976268Y349037D02*
X13339125Y-285963D01*
X13339125Y-285963D02*
X13339125Y349037D01*
X13641506Y-285963D02*
X13641506Y349037D01*
X13641506Y349037D02*
X13792696Y349037D01*
X13792696Y349037D02*
X13883411Y318799D01*
X13883411Y318799D02*
X13943887Y258323D01*
X13943887Y258323D02*
X13974125Y197847D01*
X13974125Y197847D02*
X14004363Y76895D01*
X14004363Y76895D02*
X14004363Y-13820D01*
X14004363Y-13820D02*
X13974125Y-134772D01*
X13974125Y-134772D02*
X13943887Y-195248D01*
X13943887Y-195248D02*
X13883411Y-255725D01*
X13883411Y-255725D02*
X13792696Y-285963D01*
X13792696Y-285963D02*
X13641506Y-285963D01*
X1568255Y-15525963D02*
X1265874Y-15525963D01*
X1265874Y-15525963D02*
X1265874Y-14890963D01*
X2112541Y-15525963D02*
X1749684Y-15525963D01*
X1931112Y-15525963D02*
X1931112Y-14890963D01*
X1931112Y-14890963D02*
X1870636Y-14981677D01*
X1870636Y-14981677D02*
X1810160Y-15042153D01*
X1810160Y-15042153D02*
X1749684Y-15072391D01*
X2354446Y-14951439D02*
X2384684Y-14921201D01*
X2384684Y-14921201D02*
X2445160Y-14890963D01*
X2445160Y-14890963D02*
X2596351Y-14890963D01*
X2596351Y-14890963D02*
X2656827Y-14921201D01*
X2656827Y-14921201D02*
X2687065Y-14951439D01*
X2687065Y-14951439D02*
X2717303Y-15011915D01*
X2717303Y-15011915D02*
X2717303Y-15072391D01*
X2717303Y-15072391D02*
X2687065Y-15163105D01*
X2687065Y-15163105D02*
X2324208Y-15525963D01*
X2324208Y-15525963D02*
X2717303Y-15525963D01*
X1568255Y-20605963D02*
X1265874Y-20605963D01*
X1265874Y-20605963D02*
X1265874Y-19970963D01*
X2112541Y-20605963D02*
X1749684Y-20605963D01*
X1931112Y-20605963D02*
X1931112Y-19970963D01*
X1931112Y-19970963D02*
X1870636Y-20061677D01*
X1870636Y-20061677D02*
X1810160Y-20122153D01*
X1810160Y-20122153D02*
X1749684Y-20152391D01*
X2505636Y-19970963D02*
X2566113Y-19970963D01*
X2566113Y-19970963D02*
X2626589Y-20001201D01*
X2626589Y-20001201D02*
X2656827Y-20031439D01*
X2656827Y-20031439D02*
X2687065Y-20091915D01*
X2687065Y-20091915D02*
X2717303Y-20212867D01*
X2717303Y-20212867D02*
X2717303Y-20364058D01*
X2717303Y-20364058D02*
X2687065Y-20485010D01*
X2687065Y-20485010D02*
X2656827Y-20545486D01*
X2656827Y-20545486D02*
X2626589Y-20575725D01*
X2626589Y-20575725D02*
X2566113Y-20605963D01*
X2566113Y-20605963D02*
X2505636Y-20605963D01*
X2505636Y-20605963D02*
X2445160Y-20575725D01*
X2445160Y-20575725D02*
X2414922Y-20545486D01*
X2414922Y-20545486D02*
X2384684Y-20485010D01*
X2384684Y-20485010D02*
X2354446Y-20364058D01*
X2354446Y-20364058D02*
X2354446Y-20212867D01*
X2354446Y-20212867D02*
X2384684Y-20091915D01*
X2384684Y-20091915D02*
X2414922Y-20031439D01*
X2414922Y-20031439D02*
X2445160Y-20001201D01*
X2445160Y-20001201D02*
X2505636Y-19970963D01*
X1568255Y-23145963D02*
X1265874Y-23145963D01*
X1265874Y-23145963D02*
X1265874Y-22510963D01*
X1810160Y-23145963D02*
X1931112Y-23145963D01*
X1931112Y-23145963D02*
X1991589Y-23115725D01*
X1991589Y-23115725D02*
X2021827Y-23085486D01*
X2021827Y-23085486D02*
X2082303Y-22994772D01*
X2082303Y-22994772D02*
X2112541Y-22873820D01*
X2112541Y-22873820D02*
X2112541Y-22631915D01*
X2112541Y-22631915D02*
X2082303Y-22571439D01*
X2082303Y-22571439D02*
X2052065Y-22541201D01*
X2052065Y-22541201D02*
X1991589Y-22510963D01*
X1991589Y-22510963D02*
X1870636Y-22510963D01*
X1870636Y-22510963D02*
X1810160Y-22541201D01*
X1810160Y-22541201D02*
X1779922Y-22571439D01*
X1779922Y-22571439D02*
X1749684Y-22631915D01*
X1749684Y-22631915D02*
X1749684Y-22783105D01*
X1749684Y-22783105D02*
X1779922Y-22843582D01*
X1779922Y-22843582D02*
X1810160Y-22873820D01*
X1810160Y-22873820D02*
X1870636Y-22904058D01*
X1870636Y-22904058D02*
X1991589Y-22904058D01*
X1991589Y-22904058D02*
X2052065Y-22873820D01*
X2052065Y-22873820D02*
X2082303Y-22843582D01*
X2082303Y-22843582D02*
X2112541Y-22783105D01*
X1568255Y-43465963D02*
X1265874Y-43465963D01*
X1265874Y-43465963D02*
X1265874Y-42830963D01*
X2112541Y-43465963D02*
X1749684Y-43465963D01*
X1931112Y-43465963D02*
X1931112Y-42830963D01*
X1931112Y-42830963D02*
X1870636Y-42921677D01*
X1870636Y-42921677D02*
X1810160Y-42982153D01*
X1810160Y-42982153D02*
X1749684Y-43012391D01*
X1265874Y-285963D02*
X1265874Y349037D01*
X1265874Y349037D02*
X1507779Y349037D01*
X1507779Y349037D02*
X1568255Y318799D01*
X1568255Y318799D02*
X1598493Y288561D01*
X1598493Y288561D02*
X1628731Y228085D01*
X1628731Y228085D02*
X1628731Y137371D01*
X1628731Y137371D02*
X1598493Y76895D01*
X1598493Y76895D02*
X1568255Y46656D01*
X1568255Y46656D02*
X1507779Y16418D01*
X1507779Y16418D02*
X1265874Y16418D01*
X1900874Y46656D02*
X2112541Y46656D01*
X2203255Y-285963D02*
X1900874Y-285963D01*
X1900874Y-285963D02*
X1900874Y349037D01*
X1900874Y349037D02*
X2203255Y349037D01*
X1178184Y525325D02*
X2260708Y525325D01*
X13399601Y-38325486D02*
X13369363Y-38355725D01*
X13369363Y-38355725D02*
X13278649Y-38385963D01*
X13278649Y-38385963D02*
X13218173Y-38385963D01*
X13218173Y-38385963D02*
X13127458Y-38355725D01*
X13127458Y-38355725D02*
X13066982Y-38295248D01*
X13066982Y-38295248D02*
X13036744Y-38234772D01*
X13036744Y-38234772D02*
X13006506Y-38113820D01*
X13006506Y-38113820D02*
X13006506Y-38023105D01*
X13006506Y-38023105D02*
X13036744Y-37902153D01*
X13036744Y-37902153D02*
X13066982Y-37841677D01*
X13066982Y-37841677D02*
X13127458Y-37781201D01*
X13127458Y-37781201D02*
X13218173Y-37750963D01*
X13218173Y-37750963D02*
X13278649Y-37750963D01*
X13278649Y-37750963D02*
X13369363Y-37781201D01*
X13369363Y-37781201D02*
X13399601Y-37811439D01*
X13611268Y-37750963D02*
X14004363Y-37750963D01*
X14004363Y-37750963D02*
X13792696Y-37992867D01*
X13792696Y-37992867D02*
X13883411Y-37992867D01*
X13883411Y-37992867D02*
X13943887Y-38023105D01*
X13943887Y-38023105D02*
X13974125Y-38053344D01*
X13974125Y-38053344D02*
X14004363Y-38113820D01*
X14004363Y-38113820D02*
X14004363Y-38265010D01*
X14004363Y-38265010D02*
X13974125Y-38325486D01*
X13974125Y-38325486D02*
X13943887Y-38355725D01*
X13943887Y-38355725D02*
X13883411Y-38385963D01*
X13883411Y-38385963D02*
X13701982Y-38385963D01*
X13701982Y-38385963D02*
X13641506Y-38355725D01*
X13641506Y-38355725D02*
X13611268Y-38325486D01*
X13399601Y-45945486D02*
X13369363Y-45975725D01*
X13369363Y-45975725D02*
X13278649Y-46005963D01*
X13278649Y-46005963D02*
X13218173Y-46005963D01*
X13218173Y-46005963D02*
X13127458Y-45975725D01*
X13127458Y-45975725D02*
X13066982Y-45915248D01*
X13066982Y-45915248D02*
X13036744Y-45854772D01*
X13036744Y-45854772D02*
X13006506Y-45733820D01*
X13006506Y-45733820D02*
X13006506Y-45643105D01*
X13006506Y-45643105D02*
X13036744Y-45522153D01*
X13036744Y-45522153D02*
X13066982Y-45461677D01*
X13066982Y-45461677D02*
X13127458Y-45401201D01*
X13127458Y-45401201D02*
X13218173Y-45370963D01*
X13218173Y-45370963D02*
X13278649Y-45370963D01*
X13278649Y-45370963D02*
X13369363Y-45401201D01*
X13369363Y-45401201D02*
X13399601Y-45431439D01*
X13792696Y-45370963D02*
X13853173Y-45370963D01*
X13853173Y-45370963D02*
X13913649Y-45401201D01*
X13913649Y-45401201D02*
X13943887Y-45431439D01*
X13943887Y-45431439D02*
X13974125Y-45491915D01*
X13974125Y-45491915D02*
X14004363Y-45612867D01*
X14004363Y-45612867D02*
X14004363Y-45764058D01*
X14004363Y-45764058D02*
X13974125Y-45885010D01*
X13974125Y-45885010D02*
X13943887Y-45945486D01*
X13943887Y-45945486D02*
X13913649Y-45975725D01*
X13913649Y-45975725D02*
X13853173Y-46005963D01*
X13853173Y-46005963D02*
X13792696Y-46005963D01*
X13792696Y-46005963D02*
X13732220Y-45975725D01*
X13732220Y-45975725D02*
X13701982Y-45945486D01*
X13701982Y-45945486D02*
X13671744Y-45885010D01*
X13671744Y-45885010D02*
X13641506Y-45764058D01*
X13641506Y-45764058D02*
X13641506Y-45612867D01*
X13641506Y-45612867D02*
X13671744Y-45491915D01*
X13671744Y-45491915D02*
X13701982Y-45431439D01*
X13701982Y-45431439D02*
X13732220Y-45401201D01*
X13732220Y-45401201D02*
X13792696Y-45370963D01*
X1568255Y-10445963D02*
X1265874Y-10445963D01*
X1265874Y-10445963D02*
X1265874Y-9810963D01*
X2112541Y-10445963D02*
X1749684Y-10445963D01*
X1931112Y-10445963D02*
X1931112Y-9810963D01*
X1931112Y-9810963D02*
X1870636Y-9901677D01*
X1870636Y-9901677D02*
X1810160Y-9962153D01*
X1810160Y-9962153D02*
X1749684Y-9992391D01*
X2656827Y-10022629D02*
X2656827Y-10445963D01*
X2505636Y-9780725D02*
X2354446Y-10234296D01*
X2354446Y-10234296D02*
X2747541Y-10234296D01*
X12794839Y-12925486D02*
X12764601Y-12955725D01*
X12764601Y-12955725D02*
X12673887Y-12985963D01*
X12673887Y-12985963D02*
X12613411Y-12985963D01*
X12613411Y-12985963D02*
X12522696Y-12955725D01*
X12522696Y-12955725D02*
X12462220Y-12895248D01*
X12462220Y-12895248D02*
X12431982Y-12834772D01*
X12431982Y-12834772D02*
X12401744Y-12713820D01*
X12401744Y-12713820D02*
X12401744Y-12623105D01*
X12401744Y-12623105D02*
X12431982Y-12502153D01*
X12431982Y-12502153D02*
X12462220Y-12441677D01*
X12462220Y-12441677D02*
X12522696Y-12381201D01*
X12522696Y-12381201D02*
X12613411Y-12350963D01*
X12613411Y-12350963D02*
X12673887Y-12350963D01*
X12673887Y-12350963D02*
X12764601Y-12381201D01*
X12764601Y-12381201D02*
X12794839Y-12411439D01*
X13399601Y-12985963D02*
X13036744Y-12985963D01*
X13218172Y-12985963D02*
X13218172Y-12350963D01*
X13218172Y-12350963D02*
X13157696Y-12441677D01*
X13157696Y-12441677D02*
X13097220Y-12502153D01*
X13097220Y-12502153D02*
X13036744Y-12532391D01*
X13611268Y-12350963D02*
X14004363Y-12350963D01*
X14004363Y-12350963D02*
X13792696Y-12592867D01*
X13792696Y-12592867D02*
X13883411Y-12592867D01*
X13883411Y-12592867D02*
X13943887Y-12623105D01*
X13943887Y-12623105D02*
X13974125Y-12653344D01*
X13974125Y-12653344D02*
X14004363Y-12713820D01*
X14004363Y-12713820D02*
X14004363Y-12865010D01*
X14004363Y-12865010D02*
X13974125Y-12925486D01*
X13974125Y-12925486D02*
X13943887Y-12955725D01*
X13943887Y-12955725D02*
X13883411Y-12985963D01*
X13883411Y-12985963D02*
X13701982Y-12985963D01*
X13701982Y-12985963D02*
X13641506Y-12955725D01*
X13641506Y-12955725D02*
X13611268Y-12925486D01*
X1568255Y-33305963D02*
X1265874Y-33305963D01*
X1265874Y-33305963D02*
X1265874Y-32670963D01*
X2082303Y-32670963D02*
X1779922Y-32670963D01*
X1779922Y-32670963D02*
X1749684Y-32973344D01*
X1749684Y-32973344D02*
X1779922Y-32943105D01*
X1779922Y-32943105D02*
X1840398Y-32912867D01*
X1840398Y-32912867D02*
X1991589Y-32912867D01*
X1991589Y-32912867D02*
X2052065Y-32943105D01*
X2052065Y-32943105D02*
X2082303Y-32973344D01*
X2082303Y-32973344D02*
X2112541Y-33033820D01*
X2112541Y-33033820D02*
X2112541Y-33185010D01*
X2112541Y-33185010D02*
X2082303Y-33245486D01*
X2082303Y-33245486D02*
X2052065Y-33275725D01*
X2052065Y-33275725D02*
X1991589Y-33305963D01*
X1991589Y-33305963D02*
X1840398Y-33305963D01*
X1840398Y-33305963D02*
X1779922Y-33275725D01*
X1779922Y-33275725D02*
X1749684Y-33245486D01*
X12794839Y-10385486D02*
X12764601Y-10415725D01*
X12764601Y-10415725D02*
X12673887Y-10445963D01*
X12673887Y-10445963D02*
X12613411Y-10445963D01*
X12613411Y-10445963D02*
X12522696Y-10415725D01*
X12522696Y-10415725D02*
X12462220Y-10355248D01*
X12462220Y-10355248D02*
X12431982Y-10294772D01*
X12431982Y-10294772D02*
X12401744Y-10173820D01*
X12401744Y-10173820D02*
X12401744Y-10083105D01*
X12401744Y-10083105D02*
X12431982Y-9962153D01*
X12431982Y-9962153D02*
X12462220Y-9901677D01*
X12462220Y-9901677D02*
X12522696Y-9841201D01*
X12522696Y-9841201D02*
X12613411Y-9810963D01*
X12613411Y-9810963D02*
X12673887Y-9810963D01*
X12673887Y-9810963D02*
X12764601Y-9841201D01*
X12764601Y-9841201D02*
X12794839Y-9871439D01*
X13399601Y-10445963D02*
X13036744Y-10445963D01*
X13218172Y-10445963D02*
X13218172Y-9810963D01*
X13218172Y-9810963D02*
X13157696Y-9901677D01*
X13157696Y-9901677D02*
X13097220Y-9962153D01*
X13097220Y-9962153D02*
X13036744Y-9992391D01*
X13943887Y-10022629D02*
X13943887Y-10445963D01*
X13792696Y-9780725D02*
X13641506Y-10234296D01*
X13641506Y-10234296D02*
X14034601Y-10234296D01*
X1568255Y-35845963D02*
X1265874Y-35845963D01*
X1265874Y-35845963D02*
X1265874Y-35210963D01*
X2052065Y-35422629D02*
X2052065Y-35845963D01*
X1900874Y-35180725D02*
X1749684Y-35634296D01*
X1749684Y-35634296D02*
X2142779Y-35634296D01*
X1568255Y-40925963D02*
X1265874Y-40925963D01*
X1265874Y-40925963D02*
X1265874Y-40290963D01*
X1749684Y-40351439D02*
X1779922Y-40321201D01*
X1779922Y-40321201D02*
X1840398Y-40290963D01*
X1840398Y-40290963D02*
X1991589Y-40290963D01*
X1991589Y-40290963D02*
X2052065Y-40321201D01*
X2052065Y-40321201D02*
X2082303Y-40351439D01*
X2082303Y-40351439D02*
X2112541Y-40411915D01*
X2112541Y-40411915D02*
X2112541Y-40472391D01*
X2112541Y-40472391D02*
X2082303Y-40563105D01*
X2082303Y-40563105D02*
X1719446Y-40925963D01*
X1719446Y-40925963D02*
X2112541Y-40925963D01*
X12583172Y-2190963D02*
X12946029Y-2190963D01*
X12764600Y-2825963D02*
X12764600Y-2190963D01*
X13520553Y-2765486D02*
X13490315Y-2795725D01*
X13490315Y-2795725D02*
X13399601Y-2825963D01*
X13399601Y-2825963D02*
X13339125Y-2825963D01*
X13339125Y-2825963D02*
X13248410Y-2795725D01*
X13248410Y-2795725D02*
X13187934Y-2735248D01*
X13187934Y-2735248D02*
X13157696Y-2674772D01*
X13157696Y-2674772D02*
X13127458Y-2553820D01*
X13127458Y-2553820D02*
X13127458Y-2463105D01*
X13127458Y-2463105D02*
X13157696Y-2342153D01*
X13157696Y-2342153D02*
X13187934Y-2281677D01*
X13187934Y-2281677D02*
X13248410Y-2221201D01*
X13248410Y-2221201D02*
X13339125Y-2190963D01*
X13339125Y-2190963D02*
X13399601Y-2190963D01*
X13399601Y-2190963D02*
X13490315Y-2221201D01*
X13490315Y-2221201D02*
X13520553Y-2251439D01*
X13714077Y-2388115D02*
X14028553Y-2388115D01*
X14028553Y-2388115D02*
X13859220Y-2581639D01*
X13859220Y-2581639D02*
X13931791Y-2581639D01*
X13931791Y-2581639D02*
X13980172Y-2605829D01*
X13980172Y-2605829D02*
X14004363Y-2630020D01*
X14004363Y-2630020D02*
X14028553Y-2678401D01*
X14028553Y-2678401D02*
X14028553Y-2799353D01*
X14028553Y-2799353D02*
X14004363Y-2847734D01*
X14004363Y-2847734D02*
X13980172Y-2871925D01*
X13980172Y-2871925D02*
X13931791Y-2896115D01*
X13931791Y-2896115D02*
X13786648Y-2896115D01*
X13786648Y-2896115D02*
X13738267Y-2871925D01*
X13738267Y-2871925D02*
X13714077Y-2847734D01*
X13399601Y-35785486D02*
X13369363Y-35815725D01*
X13369363Y-35815725D02*
X13278649Y-35845963D01*
X13278649Y-35845963D02*
X13218173Y-35845963D01*
X13218173Y-35845963D02*
X13127458Y-35815725D01*
X13127458Y-35815725D02*
X13066982Y-35755248D01*
X13066982Y-35755248D02*
X13036744Y-35694772D01*
X13036744Y-35694772D02*
X13006506Y-35573820D01*
X13006506Y-35573820D02*
X13006506Y-35483105D01*
X13006506Y-35483105D02*
X13036744Y-35362153D01*
X13036744Y-35362153D02*
X13066982Y-35301677D01*
X13066982Y-35301677D02*
X13127458Y-35241201D01*
X13127458Y-35241201D02*
X13218173Y-35210963D01*
X13218173Y-35210963D02*
X13278649Y-35210963D01*
X13278649Y-35210963D02*
X13369363Y-35241201D01*
X13369363Y-35241201D02*
X13399601Y-35271439D01*
X13943887Y-35422629D02*
X13943887Y-35845963D01*
X13792696Y-35180725D02*
X13641506Y-35634296D01*
X13641506Y-35634296D02*
X14034601Y-35634296D01*
X13429839Y-48485486D02*
X13399601Y-48515725D01*
X13399601Y-48515725D02*
X13308887Y-48545963D01*
X13308887Y-48545963D02*
X13248411Y-48545963D01*
X13248411Y-48545963D02*
X13157696Y-48515725D01*
X13157696Y-48515725D02*
X13097220Y-48455248D01*
X13097220Y-48455248D02*
X13066982Y-48394772D01*
X13066982Y-48394772D02*
X13036744Y-48273820D01*
X13036744Y-48273820D02*
X13036744Y-48183105D01*
X13036744Y-48183105D02*
X13066982Y-48062153D01*
X13066982Y-48062153D02*
X13097220Y-48001677D01*
X13097220Y-48001677D02*
X13157696Y-47941201D01*
X13157696Y-47941201D02*
X13248411Y-47910963D01*
X13248411Y-47910963D02*
X13308887Y-47910963D01*
X13308887Y-47910963D02*
X13399601Y-47941201D01*
X13399601Y-47941201D02*
X13429839Y-47971439D01*
X13701982Y-48213344D02*
X13913649Y-48213344D01*
X14004363Y-48545963D02*
X13701982Y-48545963D01*
X13701982Y-48545963D02*
X13701982Y-47910963D01*
X13701982Y-47910963D02*
X14004363Y-47910963D01*
X1568255Y-47910963D02*
X1265874Y-47910963D01*
X1265874Y-47910963D02*
X1235636Y-48213344D01*
X1235636Y-48213344D02*
X1265874Y-48183105D01*
X1265874Y-48183105D02*
X1326350Y-48152867D01*
X1326350Y-48152867D02*
X1477541Y-48152867D01*
X1477541Y-48152867D02*
X1538017Y-48183105D01*
X1538017Y-48183105D02*
X1568255Y-48213344D01*
X1568255Y-48213344D02*
X1598493Y-48273820D01*
X1598493Y-48273820D02*
X1598493Y-48425010D01*
X1598493Y-48425010D02*
X1568255Y-48485486D01*
X1568255Y-48485486D02*
X1538017Y-48515725D01*
X1538017Y-48515725D02*
X1477541Y-48545963D01*
X1477541Y-48545963D02*
X1326350Y-48545963D01*
X1326350Y-48545963D02*
X1265874Y-48515725D01*
X1265874Y-48515725D02*
X1235636Y-48485486D01*
X1779922Y-47910963D02*
X1991588Y-48545963D01*
X1991588Y-48545963D02*
X2203255Y-47910963D01*
X1628731Y-2765486D02*
X1598493Y-2795725D01*
X1598493Y-2795725D02*
X1507779Y-2825963D01*
X1507779Y-2825963D02*
X1447303Y-2825963D01*
X1447303Y-2825963D02*
X1356588Y-2795725D01*
X1356588Y-2795725D02*
X1296112Y-2735248D01*
X1296112Y-2735248D02*
X1265874Y-2674772D01*
X1265874Y-2674772D02*
X1235636Y-2553820D01*
X1235636Y-2553820D02*
X1235636Y-2463105D01*
X1235636Y-2463105D02*
X1265874Y-2342153D01*
X1265874Y-2342153D02*
X1296112Y-2281677D01*
X1296112Y-2281677D02*
X1356588Y-2221201D01*
X1356588Y-2221201D02*
X1447303Y-2190963D01*
X1447303Y-2190963D02*
X1507779Y-2190963D01*
X1507779Y-2190963D02*
X1598493Y-2221201D01*
X1598493Y-2221201D02*
X1628731Y-2251439D01*
X1900874Y-2825963D02*
X1900874Y-2190963D01*
X1900874Y-2190963D02*
X2142779Y-2190963D01*
X2142779Y-2190963D02*
X2203255Y-2221201D01*
X2203255Y-2221201D02*
X2233493Y-2251439D01*
X2233493Y-2251439D02*
X2263731Y-2311915D01*
X2263731Y-2311915D02*
X2263731Y-2402629D01*
X2263731Y-2402629D02*
X2233493Y-2463105D01*
X2233493Y-2463105D02*
X2203255Y-2493344D01*
X2203255Y-2493344D02*
X2142779Y-2523582D01*
X2142779Y-2523582D02*
X1900874Y-2523582D01*
X11249566Y-44276886D02*
X11219328Y-44307125D01*
X11219328Y-44307125D02*
X11128614Y-44337363D01*
X11128614Y-44337363D02*
X11068138Y-44337363D01*
X11068138Y-44337363D02*
X10977423Y-44307125D01*
X10977423Y-44307125D02*
X10916947Y-44246648D01*
X10916947Y-44246648D02*
X10886709Y-44186172D01*
X10886709Y-44186172D02*
X10856471Y-44065220D01*
X10856471Y-44065220D02*
X10856471Y-43974505D01*
X10856471Y-43974505D02*
X10886709Y-43853553D01*
X10886709Y-43853553D02*
X10916947Y-43793077D01*
X10916947Y-43793077D02*
X10977423Y-43732601D01*
X10977423Y-43732601D02*
X11068138Y-43702363D01*
X11068138Y-43702363D02*
X11128614Y-43702363D01*
X11128614Y-43702363D02*
X11219328Y-43732601D01*
X11219328Y-43732601D02*
X11249566Y-43762839D01*
X11612423Y-43974505D02*
X11551947Y-43944267D01*
X11551947Y-43944267D02*
X11521709Y-43914029D01*
X11521709Y-43914029D02*
X11491471Y-43853553D01*
X11491471Y-43853553D02*
X11491471Y-43823315D01*
X11491471Y-43823315D02*
X11521709Y-43762839D01*
X11521709Y-43762839D02*
X11551947Y-43732601D01*
X11551947Y-43732601D02*
X11612423Y-43702363D01*
X11612423Y-43702363D02*
X11733376Y-43702363D01*
X11733376Y-43702363D02*
X11793852Y-43732601D01*
X11793852Y-43732601D02*
X11824090Y-43762839D01*
X11824090Y-43762839D02*
X11854328Y-43823315D01*
X11854328Y-43823315D02*
X11854328Y-43853553D01*
X11854328Y-43853553D02*
X11824090Y-43914029D01*
X11824090Y-43914029D02*
X11793852Y-43944267D01*
X11793852Y-43944267D02*
X11733376Y-43974505D01*
X11733376Y-43974505D02*
X11612423Y-43974505D01*
X11612423Y-43974505D02*
X11551947Y-44004744D01*
X11551947Y-44004744D02*
X11521709Y-44034982D01*
X11521709Y-44034982D02*
X11491471Y-44095458D01*
X11491471Y-44095458D02*
X11491471Y-44216410D01*
X11491471Y-44216410D02*
X11521709Y-44276886D01*
X11521709Y-44276886D02*
X11551947Y-44307125D01*
X11551947Y-44307125D02*
X11612423Y-44337363D01*
X11612423Y-44337363D02*
X11733376Y-44337363D01*
X11733376Y-44337363D02*
X11793852Y-44307125D01*
X11793852Y-44307125D02*
X11824090Y-44276886D01*
X11824090Y-44276886D02*
X11854328Y-44216410D01*
X11854328Y-44216410D02*
X11854328Y-44095458D01*
X11854328Y-44095458D02*
X11824090Y-44034982D01*
X11824090Y-44034982D02*
X11793852Y-44004744D01*
X11793852Y-44004744D02*
X11733376Y-43974505D01*
X10602685Y-48444363D02*
X10239828Y-48444363D01*
X10421256Y-48444363D02*
X10421256Y-47809363D01*
X10421256Y-47809363D02*
X10360780Y-47900077D01*
X10360780Y-47900077D02*
X10300304Y-47960553D01*
X10300304Y-47960553D02*
X10239828Y-47990791D01*
X10995780Y-47809363D02*
X11056257Y-47809363D01*
X11056257Y-47809363D02*
X11116733Y-47839601D01*
X11116733Y-47839601D02*
X11146971Y-47869839D01*
X11146971Y-47869839D02*
X11177209Y-47930315D01*
X11177209Y-47930315D02*
X11207447Y-48051267D01*
X11207447Y-48051267D02*
X11207447Y-48202458D01*
X11207447Y-48202458D02*
X11177209Y-48323410D01*
X11177209Y-48323410D02*
X11146971Y-48383886D01*
X11146971Y-48383886D02*
X11116733Y-48414125D01*
X11116733Y-48414125D02*
X11056257Y-48444363D01*
X11056257Y-48444363D02*
X10995780Y-48444363D01*
X10995780Y-48444363D02*
X10935304Y-48414125D01*
X10935304Y-48414125D02*
X10905066Y-48383886D01*
X10905066Y-48383886D02*
X10874828Y-48323410D01*
X10874828Y-48323410D02*
X10844590Y-48202458D01*
X10844590Y-48202458D02*
X10844590Y-48051267D01*
X10844590Y-48051267D02*
X10874828Y-47930315D01*
X10874828Y-47930315D02*
X10905066Y-47869839D01*
X10905066Y-47869839D02*
X10935304Y-47839601D01*
X10935304Y-47839601D02*
X10995780Y-47809363D01*
X11479590Y-48021029D02*
X11479590Y-48656029D01*
X11781971Y-48353648D02*
X11812209Y-48414125D01*
X11812209Y-48414125D02*
X11872685Y-48444363D01*
X11479590Y-48353648D02*
X11509828Y-48414125D01*
X11509828Y-48414125D02*
X11570304Y-48444363D01*
X11570304Y-48444363D02*
X11691257Y-48444363D01*
X11691257Y-48444363D02*
X11751733Y-48414125D01*
X11751733Y-48414125D02*
X11781971Y-48353648D01*
X11781971Y-48353648D02*
X11781971Y-48021029D01*
X12356495Y-48111744D02*
X12144828Y-48111744D01*
X12144828Y-48444363D02*
X12144828Y-47809363D01*
X12144828Y-47809363D02*
X12447209Y-47809363D01*
X7203319Y-35972963D02*
X7203319Y-35337963D01*
X7868557Y-35912486D02*
X7838319Y-35942725D01*
X7838319Y-35942725D02*
X7747605Y-35972963D01*
X7747605Y-35972963D02*
X7687129Y-35972963D01*
X7687129Y-35972963D02*
X7596414Y-35942725D01*
X7596414Y-35942725D02*
X7535938Y-35882248D01*
X7535938Y-35882248D02*
X7505700Y-35821772D01*
X7505700Y-35821772D02*
X7475462Y-35700820D01*
X7475462Y-35700820D02*
X7475462Y-35610105D01*
X7475462Y-35610105D02*
X7505700Y-35489153D01*
X7505700Y-35489153D02*
X7535938Y-35428677D01*
X7535938Y-35428677D02*
X7596414Y-35368201D01*
X7596414Y-35368201D02*
X7687129Y-35337963D01*
X7687129Y-35337963D02*
X7747605Y-35337963D01*
X7747605Y-35337963D02*
X7838319Y-35368201D01*
X7838319Y-35368201D02*
X7868557Y-35398439D01*
X8473319Y-35972963D02*
X8110462Y-35972963D01*
X8291890Y-35972963D02*
X8291890Y-35337963D01*
X8291890Y-35337963D02*
X8231414Y-35428677D01*
X8231414Y-35428677D02*
X8170938Y-35489153D01*
X8170938Y-35489153D02*
X8110462Y-35519391D01*
X5555342Y-40544963D02*
X5978675Y-40544963D01*
X5978675Y-40544963D02*
X5706532Y-41179963D01*
X6492723Y-40756629D02*
X6492723Y-41179963D01*
X6341532Y-40514725D02*
X6190342Y-40968296D01*
X6190342Y-40968296D02*
X6583437Y-40968296D01*
X7127723Y-41179963D02*
X6825342Y-41179963D01*
X6825342Y-41179963D02*
X6825342Y-40544963D01*
X7248676Y-40544963D02*
X7460342Y-41179963D01*
X7460342Y-41179963D02*
X7672009Y-40544963D01*
X8246533Y-41119486D02*
X8216295Y-41149725D01*
X8216295Y-41149725D02*
X8125581Y-41179963D01*
X8125581Y-41179963D02*
X8065105Y-41179963D01*
X8065105Y-41179963D02*
X7974390Y-41149725D01*
X7974390Y-41149725D02*
X7913914Y-41089248D01*
X7913914Y-41089248D02*
X7883676Y-41028772D01*
X7883676Y-41028772D02*
X7853438Y-40907820D01*
X7853438Y-40907820D02*
X7853438Y-40817105D01*
X7853438Y-40817105D02*
X7883676Y-40696153D01*
X7883676Y-40696153D02*
X7913914Y-40635677D01*
X7913914Y-40635677D02*
X7974390Y-40575201D01*
X7974390Y-40575201D02*
X8065105Y-40544963D01*
X8065105Y-40544963D02*
X8125581Y-40544963D01*
X8125581Y-40544963D02*
X8216295Y-40575201D01*
X8216295Y-40575201D02*
X8246533Y-40605439D01*
X8851295Y-41179963D02*
X8488438Y-41179963D01*
X8669866Y-41179963D02*
X8669866Y-40544963D01*
X8669866Y-40544963D02*
X8609390Y-40635677D01*
X8609390Y-40635677D02*
X8548914Y-40696153D01*
X8548914Y-40696153D02*
X8488438Y-40726391D01*
X9395581Y-40544963D02*
X9274628Y-40544963D01*
X9274628Y-40544963D02*
X9214152Y-40575201D01*
X9214152Y-40575201D02*
X9183914Y-40605439D01*
X9183914Y-40605439D02*
X9123438Y-40696153D01*
X9123438Y-40696153D02*
X9093200Y-40817105D01*
X9093200Y-40817105D02*
X9093200Y-41059010D01*
X9093200Y-41059010D02*
X9123438Y-41119486D01*
X9123438Y-41119486D02*
X9153676Y-41149725D01*
X9153676Y-41149725D02*
X9214152Y-41179963D01*
X9214152Y-41179963D02*
X9335105Y-41179963D01*
X9335105Y-41179963D02*
X9395581Y-41149725D01*
X9395581Y-41149725D02*
X9425819Y-41119486D01*
X9425819Y-41119486D02*
X9456057Y-41059010D01*
X9456057Y-41059010D02*
X9456057Y-40907820D01*
X9456057Y-40907820D02*
X9425819Y-40847344D01*
X9425819Y-40847344D02*
X9395581Y-40817105D01*
X9395581Y-40817105D02*
X9335105Y-40786867D01*
X9335105Y-40786867D02*
X9214152Y-40786867D01*
X9214152Y-40786867D02*
X9153676Y-40817105D01*
X9153676Y-40817105D02*
X9123438Y-40847344D01*
X9123438Y-40847344D02*
X9093200Y-40907820D01*
X10060819Y-41179963D02*
X9697962Y-41179963D01*
X9879390Y-41179963D02*
X9879390Y-40544963D01*
X9879390Y-40544963D02*
X9818914Y-40635677D01*
X9818914Y-40635677D02*
X9758438Y-40696153D01*
X9758438Y-40696153D02*
X9697962Y-40726391D01*
X6138486Y-14506033D02*
X6168725Y-14536271D01*
X6168725Y-14536271D02*
X6198963Y-14626985D01*
X6198963Y-14626985D02*
X6198963Y-14687461D01*
X6198963Y-14687461D02*
X6168725Y-14778176D01*
X6168725Y-14778176D02*
X6108248Y-14838652D01*
X6108248Y-14838652D02*
X6047772Y-14868890D01*
X6047772Y-14868890D02*
X5926820Y-14899128D01*
X5926820Y-14899128D02*
X5836105Y-14899128D01*
X5836105Y-14899128D02*
X5715153Y-14868890D01*
X5715153Y-14868890D02*
X5654677Y-14838652D01*
X5654677Y-14838652D02*
X5594201Y-14778176D01*
X5594201Y-14778176D02*
X5563963Y-14687461D01*
X5563963Y-14687461D02*
X5563963Y-14626985D01*
X5563963Y-14626985D02*
X5594201Y-14536271D01*
X5594201Y-14536271D02*
X5624439Y-14506033D01*
X5563963Y-14294366D02*
X5563963Y-13901271D01*
X5563963Y-13901271D02*
X5805867Y-14112938D01*
X5805867Y-14112938D02*
X5805867Y-14022223D01*
X5805867Y-14022223D02*
X5836105Y-13961747D01*
X5836105Y-13961747D02*
X5866344Y-13931509D01*
X5866344Y-13931509D02*
X5926820Y-13901271D01*
X5926820Y-13901271D02*
X6078010Y-13901271D01*
X6078010Y-13901271D02*
X6138486Y-13931509D01*
X6138486Y-13931509D02*
X6168725Y-13961747D01*
X6168725Y-13961747D02*
X6198963Y-14022223D01*
X6198963Y-14022223D02*
X6198963Y-14203652D01*
X6198963Y-14203652D02*
X6168725Y-14264128D01*
X6168725Y-14264128D02*
X6138486Y-14294366D01*
X10305963Y-14850533D02*
X10305963Y-15213390D01*
X10305963Y-15031962D02*
X9670963Y-15031962D01*
X9670963Y-15031962D02*
X9761677Y-15092438D01*
X9761677Y-15092438D02*
X9822153Y-15152914D01*
X9822153Y-15152914D02*
X9852391Y-15213390D01*
X9882629Y-14578390D02*
X10517629Y-14578390D01*
X10215248Y-14276009D02*
X10275725Y-14245771D01*
X10275725Y-14245771D02*
X10305963Y-14185295D01*
X10215248Y-14578390D02*
X10275725Y-14548152D01*
X10275725Y-14548152D02*
X10305963Y-14487676D01*
X10305963Y-14487676D02*
X10305963Y-14366723D01*
X10305963Y-14366723D02*
X10275725Y-14306247D01*
X10275725Y-14306247D02*
X10215248Y-14276009D01*
X10215248Y-14276009D02*
X9882629Y-14276009D01*
X9973344Y-13701485D02*
X9973344Y-13913152D01*
X10305963Y-13913152D02*
X9670963Y-13913152D01*
X9670963Y-13913152D02*
X9670963Y-13610771D01*
X3883566Y-44226086D02*
X3853328Y-44256325D01*
X3853328Y-44256325D02*
X3762614Y-44286563D01*
X3762614Y-44286563D02*
X3702138Y-44286563D01*
X3702138Y-44286563D02*
X3611423Y-44256325D01*
X3611423Y-44256325D02*
X3550947Y-44195848D01*
X3550947Y-44195848D02*
X3520709Y-44135372D01*
X3520709Y-44135372D02*
X3490471Y-44014420D01*
X3490471Y-44014420D02*
X3490471Y-43923705D01*
X3490471Y-43923705D02*
X3520709Y-43802753D01*
X3520709Y-43802753D02*
X3550947Y-43742277D01*
X3550947Y-43742277D02*
X3611423Y-43681801D01*
X3611423Y-43681801D02*
X3702138Y-43651563D01*
X3702138Y-43651563D02*
X3762614Y-43651563D01*
X3762614Y-43651563D02*
X3853328Y-43681801D01*
X3853328Y-43681801D02*
X3883566Y-43712039D01*
X4427852Y-43863229D02*
X4427852Y-44286563D01*
X4276661Y-43621325D02*
X4125471Y-44074896D01*
X4125471Y-44074896D02*
X4518566Y-44074896D01*
X3158066Y-48393563D02*
X2795209Y-48393563D01*
X2976637Y-48393563D02*
X2976637Y-47758563D01*
X2976637Y-47758563D02*
X2916161Y-47849277D01*
X2916161Y-47849277D02*
X2855685Y-47909753D01*
X2855685Y-47909753D02*
X2795209Y-47939991D01*
X3430209Y-47970229D02*
X3430209Y-48605229D01*
X3732590Y-48302848D02*
X3762828Y-48363325D01*
X3762828Y-48363325D02*
X3823304Y-48393563D01*
X3430209Y-48302848D02*
X3460447Y-48363325D01*
X3460447Y-48363325D02*
X3520923Y-48393563D01*
X3520923Y-48393563D02*
X3641876Y-48393563D01*
X3641876Y-48393563D02*
X3702352Y-48363325D01*
X3702352Y-48363325D02*
X3732590Y-48302848D01*
X3732590Y-48302848D02*
X3732590Y-47970229D01*
X4307114Y-48060944D02*
X4095447Y-48060944D01*
X4095447Y-48393563D02*
X4095447Y-47758563D01*
X4095447Y-47758563D02*
X4397828Y-47758563D01*
X5973686Y-33860831D02*
X6003925Y-33891069D01*
X6003925Y-33891069D02*
X6034163Y-33981783D01*
X6034163Y-33981783D02*
X6034163Y-34042259D01*
X6034163Y-34042259D02*
X6003925Y-34132974D01*
X6003925Y-34132974D02*
X5943448Y-34193450D01*
X5943448Y-34193450D02*
X5882972Y-34223688D01*
X5882972Y-34223688D02*
X5762020Y-34253926D01*
X5762020Y-34253926D02*
X5671305Y-34253926D01*
X5671305Y-34253926D02*
X5550353Y-34223688D01*
X5550353Y-34223688D02*
X5489877Y-34193450D01*
X5489877Y-34193450D02*
X5429401Y-34132974D01*
X5429401Y-34132974D02*
X5399163Y-34042259D01*
X5399163Y-34042259D02*
X5399163Y-33981783D01*
X5399163Y-33981783D02*
X5429401Y-33891069D01*
X5429401Y-33891069D02*
X5459639Y-33860831D01*
X6034163Y-33256069D02*
X6034163Y-33618926D01*
X6034163Y-33437498D02*
X5399163Y-33437498D01*
X5399163Y-33437498D02*
X5489877Y-33497974D01*
X5489877Y-33497974D02*
X5550353Y-33558450D01*
X5550353Y-33558450D02*
X5580591Y-33618926D01*
X10141163Y-34205331D02*
X10141163Y-34568188D01*
X10141163Y-34386760D02*
X9506163Y-34386760D01*
X9506163Y-34386760D02*
X9596877Y-34447236D01*
X9596877Y-34447236D02*
X9657353Y-34507712D01*
X9657353Y-34507712D02*
X9687591Y-34568188D01*
X9717829Y-33933188D02*
X10352829Y-33933188D01*
X10050448Y-33630807D02*
X10110925Y-33600569D01*
X10110925Y-33600569D02*
X10141163Y-33540093D01*
X10050448Y-33933188D02*
X10110925Y-33902950D01*
X10110925Y-33902950D02*
X10141163Y-33842474D01*
X10141163Y-33842474D02*
X10141163Y-33721521D01*
X10141163Y-33721521D02*
X10110925Y-33661045D01*
X10110925Y-33661045D02*
X10050448Y-33630807D01*
X10050448Y-33630807D02*
X9717829Y-33630807D01*
X9808544Y-33056283D02*
X9808544Y-33267950D01*
X10141163Y-33267950D02*
X9506163Y-33267950D01*
X9506163Y-33267950D02*
X9506163Y-32965569D01*
X6055686Y-4955633D02*
X6085925Y-4985871D01*
X6085925Y-4985871D02*
X6116163Y-5076585D01*
X6116163Y-5076585D02*
X6116163Y-5137061D01*
X6116163Y-5137061D02*
X6085925Y-5227776D01*
X6085925Y-5227776D02*
X6025448Y-5288252D01*
X6025448Y-5288252D02*
X5964972Y-5318490D01*
X5964972Y-5318490D02*
X5844020Y-5348728D01*
X5844020Y-5348728D02*
X5753305Y-5348728D01*
X5753305Y-5348728D02*
X5632353Y-5318490D01*
X5632353Y-5318490D02*
X5571877Y-5288252D01*
X5571877Y-5288252D02*
X5511401Y-5227776D01*
X5511401Y-5227776D02*
X5481163Y-5137061D01*
X5481163Y-5137061D02*
X5481163Y-5076585D01*
X5481163Y-5076585D02*
X5511401Y-4985871D01*
X5511401Y-4985871D02*
X5541639Y-4955633D01*
X6116163Y-4653252D02*
X6116163Y-4532300D01*
X6116163Y-4532300D02*
X6085925Y-4471823D01*
X6085925Y-4471823D02*
X6055686Y-4441585D01*
X6055686Y-4441585D02*
X5964972Y-4381109D01*
X5964972Y-4381109D02*
X5844020Y-4350871D01*
X5844020Y-4350871D02*
X5602115Y-4350871D01*
X5602115Y-4350871D02*
X5541639Y-4381109D01*
X5541639Y-4381109D02*
X5511401Y-4411347D01*
X5511401Y-4411347D02*
X5481163Y-4471823D01*
X5481163Y-4471823D02*
X5481163Y-4592776D01*
X5481163Y-4592776D02*
X5511401Y-4653252D01*
X5511401Y-4653252D02*
X5541639Y-4683490D01*
X5541639Y-4683490D02*
X5602115Y-4713728D01*
X5602115Y-4713728D02*
X5753305Y-4713728D01*
X5753305Y-4713728D02*
X5813782Y-4683490D01*
X5813782Y-4683490D02*
X5844020Y-4653252D01*
X5844020Y-4653252D02*
X5874258Y-4592776D01*
X5874258Y-4592776D02*
X5874258Y-4471823D01*
X5874258Y-4471823D02*
X5844020Y-4411347D01*
X5844020Y-4411347D02*
X5813782Y-4381109D01*
X5813782Y-4381109D02*
X5753305Y-4350871D01*
X10223163Y-5602514D02*
X10223163Y-5965371D01*
X10223163Y-5783943D02*
X9588163Y-5783943D01*
X9588163Y-5783943D02*
X9678877Y-5844419D01*
X9678877Y-5844419D02*
X9739353Y-5904895D01*
X9739353Y-5904895D02*
X9769591Y-5965371D01*
X9588163Y-5209419D02*
X9588163Y-5148942D01*
X9588163Y-5148942D02*
X9618401Y-5088466D01*
X9618401Y-5088466D02*
X9648639Y-5058228D01*
X9648639Y-5058228D02*
X9709115Y-5027990D01*
X9709115Y-5027990D02*
X9830067Y-4997752D01*
X9830067Y-4997752D02*
X9981258Y-4997752D01*
X9981258Y-4997752D02*
X10102210Y-5027990D01*
X10102210Y-5027990D02*
X10162686Y-5058228D01*
X10162686Y-5058228D02*
X10192925Y-5088466D01*
X10192925Y-5088466D02*
X10223163Y-5148942D01*
X10223163Y-5148942D02*
X10223163Y-5209419D01*
X10223163Y-5209419D02*
X10192925Y-5269895D01*
X10192925Y-5269895D02*
X10162686Y-5300133D01*
X10162686Y-5300133D02*
X10102210Y-5330371D01*
X10102210Y-5330371D02*
X9981258Y-5360609D01*
X9981258Y-5360609D02*
X9830067Y-5360609D01*
X9830067Y-5360609D02*
X9709115Y-5330371D01*
X9709115Y-5330371D02*
X9648639Y-5300133D01*
X9648639Y-5300133D02*
X9618401Y-5269895D01*
X9618401Y-5269895D02*
X9588163Y-5209419D01*
X9799829Y-4725609D02*
X10434829Y-4725609D01*
X10132448Y-4423228D02*
X10192925Y-4392990D01*
X10192925Y-4392990D02*
X10223163Y-4332514D01*
X10132448Y-4725609D02*
X10192925Y-4695371D01*
X10192925Y-4695371D02*
X10223163Y-4634895D01*
X10223163Y-4634895D02*
X10223163Y-4513942D01*
X10223163Y-4513942D02*
X10192925Y-4453466D01*
X10192925Y-4453466D02*
X10132448Y-4423228D01*
X10132448Y-4423228D02*
X9799829Y-4423228D01*
X9890544Y-3848704D02*
X9890544Y-4060371D01*
X10223163Y-4060371D02*
X9588163Y-4060371D01*
X9588163Y-4060371D02*
X9588163Y-3757990D01*
X5973686Y-24158033D02*
X6003925Y-24188271D01*
X6003925Y-24188271D02*
X6034163Y-24278985D01*
X6034163Y-24278985D02*
X6034163Y-24339461D01*
X6034163Y-24339461D02*
X6003925Y-24430176D01*
X6003925Y-24430176D02*
X5943448Y-24490652D01*
X5943448Y-24490652D02*
X5882972Y-24520890D01*
X5882972Y-24520890D02*
X5762020Y-24551128D01*
X5762020Y-24551128D02*
X5671305Y-24551128D01*
X5671305Y-24551128D02*
X5550353Y-24520890D01*
X5550353Y-24520890D02*
X5489877Y-24490652D01*
X5489877Y-24490652D02*
X5429401Y-24430176D01*
X5429401Y-24430176D02*
X5399163Y-24339461D01*
X5399163Y-24339461D02*
X5399163Y-24278985D01*
X5399163Y-24278985D02*
X5429401Y-24188271D01*
X5429401Y-24188271D02*
X5459639Y-24158033D01*
X5459639Y-23916128D02*
X5429401Y-23885890D01*
X5429401Y-23885890D02*
X5399163Y-23825414D01*
X5399163Y-23825414D02*
X5399163Y-23674223D01*
X5399163Y-23674223D02*
X5429401Y-23613747D01*
X5429401Y-23613747D02*
X5459639Y-23583509D01*
X5459639Y-23583509D02*
X5520115Y-23553271D01*
X5520115Y-23553271D02*
X5580591Y-23553271D01*
X5580591Y-23553271D02*
X5671305Y-23583509D01*
X5671305Y-23583509D02*
X6034163Y-23946366D01*
X6034163Y-23946366D02*
X6034163Y-23553271D01*
X10141163Y-24502533D02*
X10141163Y-24865390D01*
X10141163Y-24683962D02*
X9506163Y-24683962D01*
X9506163Y-24683962D02*
X9596877Y-24744438D01*
X9596877Y-24744438D02*
X9657353Y-24804914D01*
X9657353Y-24804914D02*
X9687591Y-24865390D01*
X9717829Y-24230390D02*
X10352829Y-24230390D01*
X10050448Y-23928009D02*
X10110925Y-23897771D01*
X10110925Y-23897771D02*
X10141163Y-23837295D01*
X10050448Y-24230390D02*
X10110925Y-24200152D01*
X10110925Y-24200152D02*
X10141163Y-24139676D01*
X10141163Y-24139676D02*
X10141163Y-24018723D01*
X10141163Y-24018723D02*
X10110925Y-23958247D01*
X10110925Y-23958247D02*
X10050448Y-23928009D01*
X10050448Y-23928009D02*
X9717829Y-23928009D01*
X9808544Y-23353485D02*
X9808544Y-23565152D01*
X10141163Y-23565152D02*
X9506163Y-23565152D01*
X9506163Y-23565152D02*
X9506163Y-23262771D01*
X5476119Y-46386963D02*
X5476119Y-45751963D01*
X6141357Y-46326486D02*
X6111119Y-46356725D01*
X6111119Y-46356725D02*
X6020405Y-46386963D01*
X6020405Y-46386963D02*
X5959929Y-46386963D01*
X5959929Y-46386963D02*
X5869214Y-46356725D01*
X5869214Y-46356725D02*
X5808738Y-46296248D01*
X5808738Y-46296248D02*
X5778500Y-46235772D01*
X5778500Y-46235772D02*
X5748262Y-46114820D01*
X5748262Y-46114820D02*
X5748262Y-46024105D01*
X5748262Y-46024105D02*
X5778500Y-45903153D01*
X5778500Y-45903153D02*
X5808738Y-45842677D01*
X5808738Y-45842677D02*
X5869214Y-45782201D01*
X5869214Y-45782201D02*
X5959929Y-45751963D01*
X5959929Y-45751963D02*
X6020405Y-45751963D01*
X6020405Y-45751963D02*
X6111119Y-45782201D01*
X6111119Y-45782201D02*
X6141357Y-45812439D01*
X6715881Y-45751963D02*
X6413500Y-45751963D01*
X6413500Y-45751963D02*
X6383262Y-46054344D01*
X6383262Y-46054344D02*
X6413500Y-46024105D01*
X6413500Y-46024105D02*
X6473976Y-45993867D01*
X6473976Y-45993867D02*
X6625167Y-45993867D01*
X6625167Y-45993867D02*
X6685643Y-46024105D01*
X6685643Y-46024105D02*
X6715881Y-46054344D01*
X6715881Y-46054344D02*
X6746119Y-46114820D01*
X6746119Y-46114820D02*
X6746119Y-46266010D01*
X6746119Y-46266010D02*
X6715881Y-46326486D01*
X6715881Y-46326486D02*
X6685643Y-46356725D01*
X6685643Y-46356725D02*
X6625167Y-46386963D01*
X6625167Y-46386963D02*
X6473976Y-46386963D01*
X6473976Y-46386963D02*
X6413500Y-46356725D01*
X6413500Y-46356725D02*
X6383262Y-46326486D01*
X5941785Y-44173534D02*
X6244166Y-44173534D01*
X5881309Y-44354963D02*
X6092975Y-43719963D01*
X6092975Y-43719963D02*
X6304642Y-44354963D01*
X6516309Y-44354963D02*
X6516309Y-43719963D01*
X6516309Y-43719963D02*
X6758214Y-43719963D01*
X6758214Y-43719963D02*
X6818690Y-43750201D01*
X6818690Y-43750201D02*
X6848928Y-43780439D01*
X6848928Y-43780439D02*
X6879166Y-43840915D01*
X6879166Y-43840915D02*
X6879166Y-43931629D01*
X6879166Y-43931629D02*
X6848928Y-43992105D01*
X6848928Y-43992105D02*
X6818690Y-44022344D01*
X6818690Y-44022344D02*
X6758214Y-44052582D01*
X6758214Y-44052582D02*
X6516309Y-44052582D01*
X7090833Y-43719963D02*
X7514166Y-43719963D01*
X7514166Y-43719963D02*
X7242023Y-44354963D01*
X7695595Y-43719963D02*
X8088690Y-43719963D01*
X8088690Y-43719963D02*
X7877023Y-43961867D01*
X7877023Y-43961867D02*
X7967738Y-43961867D01*
X7967738Y-43961867D02*
X8028214Y-43992105D01*
X8028214Y-43992105D02*
X8058452Y-44022344D01*
X8058452Y-44022344D02*
X8088690Y-44082820D01*
X8088690Y-44082820D02*
X8088690Y-44234010D01*
X8088690Y-44234010D02*
X8058452Y-44294486D01*
X8058452Y-44294486D02*
X8028214Y-44324725D01*
X8028214Y-44324725D02*
X7967738Y-44354963D01*
X7967738Y-44354963D02*
X7786309Y-44354963D01*
X7786309Y-44354963D02*
X7725833Y-44324725D01*
X7725833Y-44324725D02*
X7695595Y-44294486D01*
X8632976Y-43719963D02*
X8512023Y-43719963D01*
X8512023Y-43719963D02*
X8451547Y-43750201D01*
X8451547Y-43750201D02*
X8421309Y-43780439D01*
X8421309Y-43780439D02*
X8360833Y-43871153D01*
X8360833Y-43871153D02*
X8330595Y-43992105D01*
X8330595Y-43992105D02*
X8330595Y-44234010D01*
X8330595Y-44234010D02*
X8360833Y-44294486D01*
X8360833Y-44294486D02*
X8391071Y-44324725D01*
X8391071Y-44324725D02*
X8451547Y-44354963D01*
X8451547Y-44354963D02*
X8572500Y-44354963D01*
X8572500Y-44354963D02*
X8632976Y-44324725D01*
X8632976Y-44324725D02*
X8663214Y-44294486D01*
X8663214Y-44294486D02*
X8693452Y-44234010D01*
X8693452Y-44234010D02*
X8693452Y-44082820D01*
X8693452Y-44082820D02*
X8663214Y-44022344D01*
X8663214Y-44022344D02*
X8632976Y-43992105D01*
X8632976Y-43992105D02*
X8572500Y-43961867D01*
X8572500Y-43961867D02*
X8451547Y-43961867D01*
X8451547Y-43961867D02*
X8391071Y-43992105D01*
X8391071Y-43992105D02*
X8360833Y-44022344D01*
X8360833Y-44022344D02*
X8330595Y-44082820D01*
X9267976Y-43719963D02*
X8965595Y-43719963D01*
X8965595Y-43719963D02*
X8935357Y-44022344D01*
X8935357Y-44022344D02*
X8965595Y-43992105D01*
X8965595Y-43992105D02*
X9026071Y-43961867D01*
X9026071Y-43961867D02*
X9177262Y-43961867D01*
X9177262Y-43961867D02*
X9237738Y-43992105D01*
X9237738Y-43992105D02*
X9267976Y-44022344D01*
X9267976Y-44022344D02*
X9298214Y-44082820D01*
X9298214Y-44082820D02*
X9298214Y-44234010D01*
X9298214Y-44234010D02*
X9267976Y-44294486D01*
X9267976Y-44294486D02*
X9237738Y-44324725D01*
X9237738Y-44324725D02*
X9177262Y-44354963D01*
X9177262Y-44354963D02*
X9026071Y-44354963D01*
X9026071Y-44354963D02*
X8965595Y-44324725D01*
X8965595Y-44324725D02*
X8935357Y-44294486D01*
X7304919Y-16618163D02*
X7304919Y-15983163D01*
X7970157Y-16557686D02*
X7939919Y-16587925D01*
X7939919Y-16587925D02*
X7849205Y-16618163D01*
X7849205Y-16618163D02*
X7788729Y-16618163D01*
X7788729Y-16618163D02*
X7698014Y-16587925D01*
X7698014Y-16587925D02*
X7637538Y-16527448D01*
X7637538Y-16527448D02*
X7607300Y-16466972D01*
X7607300Y-16466972D02*
X7577062Y-16346020D01*
X7577062Y-16346020D02*
X7577062Y-16255305D01*
X7577062Y-16255305D02*
X7607300Y-16134353D01*
X7607300Y-16134353D02*
X7637538Y-16073877D01*
X7637538Y-16073877D02*
X7698014Y-16013401D01*
X7698014Y-16013401D02*
X7788729Y-15983163D01*
X7788729Y-15983163D02*
X7849205Y-15983163D01*
X7849205Y-15983163D02*
X7939919Y-16013401D01*
X7939919Y-16013401D02*
X7970157Y-16043639D01*
X8181824Y-15983163D02*
X8574919Y-15983163D01*
X8574919Y-15983163D02*
X8363252Y-16225067D01*
X8363252Y-16225067D02*
X8453967Y-16225067D01*
X8453967Y-16225067D02*
X8514443Y-16255305D01*
X8514443Y-16255305D02*
X8544681Y-16285544D01*
X8544681Y-16285544D02*
X8574919Y-16346020D01*
X8574919Y-16346020D02*
X8574919Y-16497210D01*
X8574919Y-16497210D02*
X8544681Y-16557686D01*
X8544681Y-16557686D02*
X8514443Y-16587925D01*
X8514443Y-16587925D02*
X8453967Y-16618163D01*
X8453967Y-16618163D02*
X8272538Y-16618163D01*
X8272538Y-16618163D02*
X8212062Y-16587925D01*
X8212062Y-16587925D02*
X8181824Y-16557686D01*
X5656942Y-21190163D02*
X6080275Y-21190163D01*
X6080275Y-21190163D02*
X5808132Y-21825163D01*
X6594323Y-21401829D02*
X6594323Y-21825163D01*
X6443132Y-21159925D02*
X6291942Y-21613496D01*
X6291942Y-21613496D02*
X6685037Y-21613496D01*
X7229323Y-21825163D02*
X6926942Y-21825163D01*
X6926942Y-21825163D02*
X6926942Y-21190163D01*
X7350276Y-21190163D02*
X7561942Y-21825163D01*
X7561942Y-21825163D02*
X7773609Y-21190163D01*
X8348133Y-21764686D02*
X8317895Y-21794925D01*
X8317895Y-21794925D02*
X8227181Y-21825163D01*
X8227181Y-21825163D02*
X8166705Y-21825163D01*
X8166705Y-21825163D02*
X8075990Y-21794925D01*
X8075990Y-21794925D02*
X8015514Y-21734448D01*
X8015514Y-21734448D02*
X7985276Y-21673972D01*
X7985276Y-21673972D02*
X7955038Y-21553020D01*
X7955038Y-21553020D02*
X7955038Y-21462305D01*
X7955038Y-21462305D02*
X7985276Y-21341353D01*
X7985276Y-21341353D02*
X8015514Y-21280877D01*
X8015514Y-21280877D02*
X8075990Y-21220401D01*
X8075990Y-21220401D02*
X8166705Y-21190163D01*
X8166705Y-21190163D02*
X8227181Y-21190163D01*
X8227181Y-21190163D02*
X8317895Y-21220401D01*
X8317895Y-21220401D02*
X8348133Y-21250639D01*
X8952895Y-21825163D02*
X8590038Y-21825163D01*
X8771466Y-21825163D02*
X8771466Y-21190163D01*
X8771466Y-21190163D02*
X8710990Y-21280877D01*
X8710990Y-21280877D02*
X8650514Y-21341353D01*
X8650514Y-21341353D02*
X8590038Y-21371591D01*
X9497181Y-21190163D02*
X9376228Y-21190163D01*
X9376228Y-21190163D02*
X9315752Y-21220401D01*
X9315752Y-21220401D02*
X9285514Y-21250639D01*
X9285514Y-21250639D02*
X9225038Y-21341353D01*
X9225038Y-21341353D02*
X9194800Y-21462305D01*
X9194800Y-21462305D02*
X9194800Y-21704210D01*
X9194800Y-21704210D02*
X9225038Y-21764686D01*
X9225038Y-21764686D02*
X9255276Y-21794925D01*
X9255276Y-21794925D02*
X9315752Y-21825163D01*
X9315752Y-21825163D02*
X9436705Y-21825163D01*
X9436705Y-21825163D02*
X9497181Y-21794925D01*
X9497181Y-21794925D02*
X9527419Y-21764686D01*
X9527419Y-21764686D02*
X9557657Y-21704210D01*
X9557657Y-21704210D02*
X9557657Y-21553020D01*
X9557657Y-21553020D02*
X9527419Y-21492544D01*
X9527419Y-21492544D02*
X9497181Y-21462305D01*
X9497181Y-21462305D02*
X9436705Y-21432067D01*
X9436705Y-21432067D02*
X9315752Y-21432067D01*
X9315752Y-21432067D02*
X9255276Y-21462305D01*
X9255276Y-21462305D02*
X9225038Y-21492544D01*
X9225038Y-21492544D02*
X9194800Y-21553020D01*
X10162419Y-21825163D02*
X9799562Y-21825163D01*
X9980990Y-21825163D02*
X9980990Y-21190163D01*
X9980990Y-21190163D02*
X9920514Y-21280877D01*
X9920514Y-21280877D02*
X9860038Y-21341353D01*
X9860038Y-21341353D02*
X9799562Y-21371591D01*
X7304919Y-7067763D02*
X7304919Y-6432763D01*
X7970157Y-7007286D02*
X7939919Y-7037525D01*
X7939919Y-7037525D02*
X7849205Y-7067763D01*
X7849205Y-7067763D02*
X7788729Y-7067763D01*
X7788729Y-7067763D02*
X7698014Y-7037525D01*
X7698014Y-7037525D02*
X7637538Y-6977048D01*
X7637538Y-6977048D02*
X7607300Y-6916572D01*
X7607300Y-6916572D02*
X7577062Y-6795620D01*
X7577062Y-6795620D02*
X7577062Y-6704905D01*
X7577062Y-6704905D02*
X7607300Y-6583953D01*
X7607300Y-6583953D02*
X7637538Y-6523477D01*
X7637538Y-6523477D02*
X7698014Y-6463001D01*
X7698014Y-6463001D02*
X7788729Y-6432763D01*
X7788729Y-6432763D02*
X7849205Y-6432763D01*
X7849205Y-6432763D02*
X7939919Y-6463001D01*
X7939919Y-6463001D02*
X7970157Y-6493239D01*
X8514443Y-6644429D02*
X8514443Y-7067763D01*
X8363252Y-6402525D02*
X8212062Y-6856096D01*
X8212062Y-6856096D02*
X8605157Y-6856096D01*
X5656942Y-11639763D02*
X6080275Y-11639763D01*
X6080275Y-11639763D02*
X5808132Y-12274763D01*
X6594323Y-11851429D02*
X6594323Y-12274763D01*
X6443132Y-11609525D02*
X6291942Y-12063096D01*
X6291942Y-12063096D02*
X6685037Y-12063096D01*
X7229323Y-12274763D02*
X6926942Y-12274763D01*
X6926942Y-12274763D02*
X6926942Y-11639763D01*
X7350276Y-11639763D02*
X7561942Y-12274763D01*
X7561942Y-12274763D02*
X7773609Y-11639763D01*
X8348133Y-12214286D02*
X8317895Y-12244525D01*
X8317895Y-12244525D02*
X8227181Y-12274763D01*
X8227181Y-12274763D02*
X8166705Y-12274763D01*
X8166705Y-12274763D02*
X8075990Y-12244525D01*
X8075990Y-12244525D02*
X8015514Y-12184048D01*
X8015514Y-12184048D02*
X7985276Y-12123572D01*
X7985276Y-12123572D02*
X7955038Y-12002620D01*
X7955038Y-12002620D02*
X7955038Y-11911905D01*
X7955038Y-11911905D02*
X7985276Y-11790953D01*
X7985276Y-11790953D02*
X8015514Y-11730477D01*
X8015514Y-11730477D02*
X8075990Y-11670001D01*
X8075990Y-11670001D02*
X8166705Y-11639763D01*
X8166705Y-11639763D02*
X8227181Y-11639763D01*
X8227181Y-11639763D02*
X8317895Y-11670001D01*
X8317895Y-11670001D02*
X8348133Y-11700239D01*
X8952895Y-12274763D02*
X8590038Y-12274763D01*
X8771466Y-12274763D02*
X8771466Y-11639763D01*
X8771466Y-11639763D02*
X8710990Y-11730477D01*
X8710990Y-11730477D02*
X8650514Y-11790953D01*
X8650514Y-11790953D02*
X8590038Y-11821191D01*
X9497181Y-11639763D02*
X9376228Y-11639763D01*
X9376228Y-11639763D02*
X9315752Y-11670001D01*
X9315752Y-11670001D02*
X9285514Y-11700239D01*
X9285514Y-11700239D02*
X9225038Y-11790953D01*
X9225038Y-11790953D02*
X9194800Y-11911905D01*
X9194800Y-11911905D02*
X9194800Y-12153810D01*
X9194800Y-12153810D02*
X9225038Y-12214286D01*
X9225038Y-12214286D02*
X9255276Y-12244525D01*
X9255276Y-12244525D02*
X9315752Y-12274763D01*
X9315752Y-12274763D02*
X9436705Y-12274763D01*
X9436705Y-12274763D02*
X9497181Y-12244525D01*
X9497181Y-12244525D02*
X9527419Y-12214286D01*
X9527419Y-12214286D02*
X9557657Y-12153810D01*
X9557657Y-12153810D02*
X9557657Y-12002620D01*
X9557657Y-12002620D02*
X9527419Y-11942144D01*
X9527419Y-11942144D02*
X9497181Y-11911905D01*
X9497181Y-11911905D02*
X9436705Y-11881667D01*
X9436705Y-11881667D02*
X9315752Y-11881667D01*
X9315752Y-11881667D02*
X9255276Y-11911905D01*
X9255276Y-11911905D02*
X9225038Y-11942144D01*
X9225038Y-11942144D02*
X9194800Y-12002620D01*
X10162419Y-12274763D02*
X9799562Y-12274763D01*
X9980990Y-12274763D02*
X9980990Y-11639763D01*
X9980990Y-11639763D02*
X9920514Y-11730477D01*
X9920514Y-11730477D02*
X9860038Y-11790953D01*
X9860038Y-11790953D02*
X9799562Y-11821191D01*
X7203319Y-26270163D02*
X7203319Y-25635163D01*
X7868557Y-26209686D02*
X7838319Y-26239925D01*
X7838319Y-26239925D02*
X7747605Y-26270163D01*
X7747605Y-26270163D02*
X7687129Y-26270163D01*
X7687129Y-26270163D02*
X7596414Y-26239925D01*
X7596414Y-26239925D02*
X7535938Y-26179448D01*
X7535938Y-26179448D02*
X7505700Y-26118972D01*
X7505700Y-26118972D02*
X7475462Y-25998020D01*
X7475462Y-25998020D02*
X7475462Y-25907305D01*
X7475462Y-25907305D02*
X7505700Y-25786353D01*
X7505700Y-25786353D02*
X7535938Y-25725877D01*
X7535938Y-25725877D02*
X7596414Y-25665401D01*
X7596414Y-25665401D02*
X7687129Y-25635163D01*
X7687129Y-25635163D02*
X7747605Y-25635163D01*
X7747605Y-25635163D02*
X7838319Y-25665401D01*
X7838319Y-25665401D02*
X7868557Y-25695639D01*
X8110462Y-25695639D02*
X8140700Y-25665401D01*
X8140700Y-25665401D02*
X8201176Y-25635163D01*
X8201176Y-25635163D02*
X8352367Y-25635163D01*
X8352367Y-25635163D02*
X8412843Y-25665401D01*
X8412843Y-25665401D02*
X8443081Y-25695639D01*
X8443081Y-25695639D02*
X8473319Y-25756115D01*
X8473319Y-25756115D02*
X8473319Y-25816591D01*
X8473319Y-25816591D02*
X8443081Y-25907305D01*
X8443081Y-25907305D02*
X8080224Y-26270163D01*
X8080224Y-26270163D02*
X8473319Y-26270163D01*
X5555342Y-30842163D02*
X5978675Y-30842163D01*
X5978675Y-30842163D02*
X5706532Y-31477163D01*
X6492723Y-31053829D02*
X6492723Y-31477163D01*
X6341532Y-30811925D02*
X6190342Y-31265496D01*
X6190342Y-31265496D02*
X6583437Y-31265496D01*
X7127723Y-31477163D02*
X6825342Y-31477163D01*
X6825342Y-31477163D02*
X6825342Y-30842163D01*
X7248676Y-30842163D02*
X7460342Y-31477163D01*
X7460342Y-31477163D02*
X7672009Y-30842163D01*
X8246533Y-31416686D02*
X8216295Y-31446925D01*
X8216295Y-31446925D02*
X8125581Y-31477163D01*
X8125581Y-31477163D02*
X8065105Y-31477163D01*
X8065105Y-31477163D02*
X7974390Y-31446925D01*
X7974390Y-31446925D02*
X7913914Y-31386448D01*
X7913914Y-31386448D02*
X7883676Y-31325972D01*
X7883676Y-31325972D02*
X7853438Y-31205020D01*
X7853438Y-31205020D02*
X7853438Y-31114305D01*
X7853438Y-31114305D02*
X7883676Y-30993353D01*
X7883676Y-30993353D02*
X7913914Y-30932877D01*
X7913914Y-30932877D02*
X7974390Y-30872401D01*
X7974390Y-30872401D02*
X8065105Y-30842163D01*
X8065105Y-30842163D02*
X8125581Y-30842163D01*
X8125581Y-30842163D02*
X8216295Y-30872401D01*
X8216295Y-30872401D02*
X8246533Y-30902639D01*
X8851295Y-31477163D02*
X8488438Y-31477163D01*
X8669866Y-31477163D02*
X8669866Y-30842163D01*
X8669866Y-30842163D02*
X8609390Y-30932877D01*
X8609390Y-30932877D02*
X8548914Y-30993353D01*
X8548914Y-30993353D02*
X8488438Y-31023591D01*
X9395581Y-30842163D02*
X9274628Y-30842163D01*
X9274628Y-30842163D02*
X9214152Y-30872401D01*
X9214152Y-30872401D02*
X9183914Y-30902639D01*
X9183914Y-30902639D02*
X9123438Y-30993353D01*
X9123438Y-30993353D02*
X9093200Y-31114305D01*
X9093200Y-31114305D02*
X9093200Y-31356210D01*
X9093200Y-31356210D02*
X9123438Y-31416686D01*
X9123438Y-31416686D02*
X9153676Y-31446925D01*
X9153676Y-31446925D02*
X9214152Y-31477163D01*
X9214152Y-31477163D02*
X9335105Y-31477163D01*
X9335105Y-31477163D02*
X9395581Y-31446925D01*
X9395581Y-31446925D02*
X9425819Y-31416686D01*
X9425819Y-31416686D02*
X9456057Y-31356210D01*
X9456057Y-31356210D02*
X9456057Y-31205020D01*
X9456057Y-31205020D02*
X9425819Y-31144544D01*
X9425819Y-31144544D02*
X9395581Y-31114305D01*
X9395581Y-31114305D02*
X9335105Y-31084067D01*
X9335105Y-31084067D02*
X9214152Y-31084067D01*
X9214152Y-31084067D02*
X9153676Y-31114305D01*
X9153676Y-31114305D02*
X9123438Y-31144544D01*
X9123438Y-31144544D02*
X9093200Y-31205020D01*
X10060819Y-31477163D02*
X9697962Y-31477163D01*
X9879390Y-31477163D02*
X9879390Y-30842163D01*
X9879390Y-30842163D02*
X9818914Y-30932877D01*
X9818914Y-30932877D02*
X9758438Y-30993353D01*
X9758438Y-30993353D02*
X9697962Y-31023591D01*
D12*
%TO.C,C8*%
X10593400Y-46371652D02*
X10593400Y-45849148D01*
X12063400Y-46371652D02*
X12063400Y-45849148D01*
D11*
%TO.C,IC1*%
X4173200Y-34742000D02*
X5623200Y-34742000D01*
X5973200Y-35092000D02*
X9673200Y-35092000D01*
X5973200Y-40092000D02*
X5973200Y-35092000D01*
X9673200Y-35092000D02*
X9673200Y-40092000D01*
X9673200Y-40092000D02*
X5973200Y-40092000D01*
D12*
%TO.C,C3*%
X8233252Y-15162200D02*
X7710748Y-15162200D01*
X8233252Y-13692200D02*
X7710748Y-13692200D01*
%TO.C,C4*%
X3227400Y-46320852D02*
X3227400Y-45798348D01*
X4697400Y-46320852D02*
X4697400Y-45798348D01*
%TO.C,C1*%
X8068452Y-34516998D02*
X7545948Y-34516998D01*
X8068452Y-33046998D02*
X7545948Y-33046998D01*
%TO.C,C9*%
X8150452Y-5611800D02*
X7627948Y-5611800D01*
X8150452Y-4141800D02*
X7627948Y-4141800D01*
%TO.C,C2*%
X8068452Y-24814200D02*
X7545948Y-24814200D01*
X8068452Y-23344200D02*
X7545948Y-23344200D01*
D11*
%TO.C,IC5*%
X9495000Y-47601000D02*
X8345000Y-47601000D01*
X7995000Y-47601000D02*
X7245000Y-47601000D01*
X7995000Y-44601000D02*
X7995000Y-47601000D01*
X7245000Y-47601000D02*
X7245000Y-44601000D01*
X7245000Y-44601000D02*
X7995000Y-44601000D01*
%TO.C,IC3*%
X4274800Y-15387200D02*
X5724800Y-15387200D01*
X6074800Y-15737200D02*
X9774800Y-15737200D01*
X6074800Y-20737200D02*
X6074800Y-15737200D01*
X9774800Y-15737200D02*
X9774800Y-20737200D01*
X9774800Y-20737200D02*
X6074800Y-20737200D01*
%TO.C,IC4*%
X4274800Y-5836800D02*
X5724800Y-5836800D01*
X6074800Y-6186800D02*
X9774800Y-6186800D01*
X6074800Y-11186800D02*
X6074800Y-6186800D01*
X9774800Y-6186800D02*
X9774800Y-11186800D01*
X9774800Y-11186800D02*
X6074800Y-11186800D01*
%TO.C,IC2*%
X4173200Y-25039200D02*
X5623200Y-25039200D01*
X5973200Y-25389200D02*
X9673200Y-25389200D01*
X5973200Y-30389200D02*
X5973200Y-25389200D01*
X9673200Y-25389200D02*
X9673200Y-30389200D01*
X9673200Y-30389200D02*
X5973200Y-30389200D01*
%TD*%
M02*
