%TF.GenerationSoftware,KiCad,Pcbnew,8.0.4*%
%TF.CreationDate,2024-08-15T18:12:32+02:00*%
%TF.ProjectId,Counter 16bit,436f756e-7465-4722-9031-366269742e6b,V0*%
%TF.SameCoordinates,PX6d01460PY32de760*%
%TF.FileFunction,Soldermask,Top*%
%TF.FilePolarity,Negative*%
%FSLAX46Y46*%
G04 Gerber Fmt 4.6, Leading zero omitted, Abs format (unit mm)*
G04 Created by KiCad (PCBNEW 8.0.4) date 2024-08-15 18:12:32*
%MOMM*%
%LPD*%
G01*
G04 APERTURE LIST*
G04 Aperture macros list*
%AMRoundRect*
0 Rectangle with rounded corners*
0 $1 Rounding radius*
0 $2 $3 $4 $5 $6 $7 $8 $9 X,Y pos of 4 corners*
0 Add a 4 corners polygon primitive as box body*
4,1,4,$2,$3,$4,$5,$6,$7,$8,$9,$2,$3,0*
0 Add four circle primitives for the rounded corners*
1,1,$1+$1,$2,$3*
1,1,$1+$1,$4,$5*
1,1,$1+$1,$6,$7*
1,1,$1+$1,$8,$9*
0 Add four rect primitives between the rounded corners*
20,1,$1+$1,$2,$3,$4,$5,0*
20,1,$1+$1,$4,$5,$6,$7,0*
20,1,$1+$1,$6,$7,$8,$9,0*
20,1,$1+$1,$8,$9,$2,$3,0*%
G04 Aperture macros list end*
%ADD10RoundRect,0.250000X0.475000X-0.250000X0.475000X0.250000X-0.475000X0.250000X-0.475000X-0.250000X0*%
%ADD11R,1.450000X0.450000*%
%ADD12RoundRect,0.250000X0.250000X0.475000X-0.250000X0.475000X-0.250000X-0.475000X0.250000X-0.475000X0*%
%ADD13C,1.600000*%
%ADD14O,1.600000X1.600000*%
%ADD15RoundRect,0.400000X-0.400000X-0.400000X0.400000X-0.400000X0.400000X0.400000X-0.400000X0.400000X0*%
%ADD16R,1.600000X1.600000*%
%ADD17R,1.150000X0.600000*%
G04 APERTURE END LIST*
D10*
%TO.C,C8*%
X11328400Y-47060400D03*
X11328400Y-45160400D03*
%TD*%
D11*
%TO.C,IC1*%
X4898200Y-35317000D03*
X4898200Y-35967000D03*
X4898200Y-36617000D03*
X4898200Y-37267000D03*
X4898200Y-37917000D03*
X4898200Y-38567000D03*
X4898200Y-39217000D03*
X4898200Y-39867000D03*
X10748200Y-39867000D03*
X10748200Y-39217000D03*
X10748200Y-38567000D03*
X10748200Y-37917000D03*
X10748200Y-37267000D03*
X10748200Y-36617000D03*
X10748200Y-35967000D03*
X10748200Y-35317000D03*
%TD*%
D12*
%TO.C,C3*%
X8922000Y-14427200D03*
X7022000Y-14427200D03*
%TD*%
D10*
%TO.C,C4*%
X3962400Y-47009600D03*
X3962400Y-45109600D03*
%TD*%
D13*
%TO.C,J1*%
X0Y0D03*
D14*
X0Y-2540000D03*
D13*
X0Y-5080000D03*
X0Y-7620000D03*
X0Y-10160000D03*
X0Y-12700000D03*
X0Y-15240000D03*
X0Y-17780000D03*
X0Y-20320000D03*
X0Y-22860000D03*
X0Y-25400000D03*
X0Y-27940000D03*
X0Y-30480000D03*
X0Y-33020000D03*
X0Y-35560000D03*
X0Y-38100000D03*
X0Y-40640000D03*
X0Y-43180000D03*
D14*
X0Y-45720000D03*
D15*
X0Y-48260000D03*
D14*
X15240000Y-48260000D03*
X15240000Y-45720000D03*
D13*
X15240000Y-43180000D03*
X15240000Y-40640000D03*
X15240000Y-38100000D03*
X15240000Y-35560000D03*
X15240000Y-33020000D03*
X15240000Y-30480000D03*
X15240000Y-27940000D03*
X15240000Y-25400000D03*
X15240000Y-22860000D03*
X15240000Y-20320000D03*
X15240000Y-17780000D03*
X15240000Y-15240000D03*
X15240000Y-12700000D03*
X15240000Y-10160000D03*
X15240000Y-7620000D03*
X15240000Y-5080000D03*
D14*
X15240000Y-2540000D03*
D16*
X15240000Y0D03*
%TD*%
D12*
%TO.C,C1*%
X8757200Y-33781998D03*
X6857200Y-33781998D03*
%TD*%
%TO.C,C9*%
X8839200Y-4876800D03*
X6939200Y-4876800D03*
%TD*%
%TO.C,C2*%
X8757200Y-24079200D03*
X6857200Y-24079200D03*
%TD*%
D17*
%TO.C,IC5*%
X8920000Y-47051000D03*
X8920000Y-46101000D03*
X8920000Y-45151000D03*
X6320000Y-45151000D03*
X6320000Y-47051000D03*
%TD*%
D11*
%TO.C,IC3*%
X4999800Y-15962200D03*
X4999800Y-16612200D03*
X4999800Y-17262200D03*
X4999800Y-17912200D03*
X4999800Y-18562200D03*
X4999800Y-19212200D03*
X4999800Y-19862200D03*
X4999800Y-20512200D03*
X10849800Y-20512200D03*
X10849800Y-19862200D03*
X10849800Y-19212200D03*
X10849800Y-18562200D03*
X10849800Y-17912200D03*
X10849800Y-17262200D03*
X10849800Y-16612200D03*
X10849800Y-15962200D03*
%TD*%
%TO.C,IC4*%
X4999800Y-6411800D03*
X4999800Y-7061800D03*
X4999800Y-7711800D03*
X4999800Y-8361800D03*
X4999800Y-9011800D03*
X4999800Y-9661800D03*
X4999800Y-10311800D03*
X4999800Y-10961800D03*
X10849800Y-10961800D03*
X10849800Y-10311800D03*
X10849800Y-9661800D03*
X10849800Y-9011800D03*
X10849800Y-8361800D03*
X10849800Y-7711800D03*
X10849800Y-7061800D03*
X10849800Y-6411800D03*
%TD*%
%TO.C,IC2*%
X4898200Y-25614200D03*
X4898200Y-26264200D03*
X4898200Y-26914200D03*
X4898200Y-27564200D03*
X4898200Y-28214200D03*
X4898200Y-28864200D03*
X4898200Y-29514200D03*
X4898200Y-30164200D03*
X10748200Y-30164200D03*
X10748200Y-29514200D03*
X10748200Y-28864200D03*
X10748200Y-28214200D03*
X10748200Y-27564200D03*
X10748200Y-26914200D03*
X10748200Y-26264200D03*
X10748200Y-25614200D03*
%TD*%
M02*
