M48
; DRILL file {KiCad 8.0.7} date 2025-05-21T11:44:42+0200
; FORMAT={-:-/ absolute / inch / decimal}
; #@! TF.CreationDate,2025-05-21T11:44:42+02:00
; #@! TF.GenerationSoftware,Kicad,Pcbnew,8.0.7
; #@! TF.FileFunction,Plated,1,2,PTH
FMAT,2
INCH
; #@! TA.AperFunction,Plated,PTH,ViaDrill
T1C0.0157
; #@! TA.AperFunction,Plated,PTH,ComponentDrill
T2C0.0276
; #@! TA.AperFunction,Plated,PTH,ViaDrill
T3C0.0394
; #@! TA.AperFunction,Plated,PTH,ComponentDrill
T4C0.0394
; #@! TA.AperFunction,Plated,PTH,ComponentDrill
T5C0.0433
; #@! TA.AperFunction,Plated,PTH,ComponentDrill
T6C0.0650
; #@! TA.AperFunction,Plated,PTH,ComponentDrill
T7C0.0748
%
G90
G05
T1
X0.18Y0.04
X0.26Y0.55
X1.39Y1.4475
X1.395Y-0.115
X1.576Y-0.3066
X1.59Y0.3585
X1.59Y-0.11
X1.635Y-0.26
X1.86Y0.55
X1.9073Y-0.3025
X2.0453Y1.9837
X2.0979Y-0.306
X2.1645Y0.0
X2.195Y0.5795
X2.195Y-0.17
X2.235Y-0.215
X2.307Y-0.215
X2.335Y0.3584
X2.435Y0.1575
X2.4628Y-0.215
X2.5112Y-0.215
X2.5388Y0.05
X2.635Y-0.0572
X2.6627Y-0.215
X3.715Y-0.17
X6.5Y0.75
X6.5Y0.2
X6.56Y0.9
X6.58Y1.3
T2
X0.06Y-0.315
X0.26Y-0.315
T3
X0.52Y-0.49
X0.715Y-0.585
X0.97Y-0.245
X1.25Y-0.18
X2.035Y-0.17
X2.735Y-0.17
T4
X-0.025Y-0.5
X0.0Y1.9
X0.0Y1.8
X0.0Y1.7
X0.0Y1.6
X0.0Y1.5
X0.0Y1.4
X0.0Y1.3
X0.0Y1.2
X0.0Y1.1
X0.0Y1.0
X0.0Y0.9
X0.0Y0.8
X0.0Y0.7
X0.0Y0.6
X0.0Y0.5
X0.0Y0.4
X0.0Y0.3
X0.0Y0.2
X0.0Y0.1
X0.0Y0.0
X0.075Y-0.5
X0.205Y-0.535
X0.2837Y-0.535
X0.3656Y-0.415
X0.4444Y-0.415
X1.8Y1.9
X1.8Y1.8
X1.8Y1.7
X1.8Y1.6
X1.8Y1.5
X1.8Y1.4
X1.8Y1.3
X1.8Y1.2
X1.8Y1.1
X1.8Y1.0
X1.8Y0.9
X1.8Y0.8
X1.8Y0.7
X1.8Y0.6
X1.8Y0.5
X1.8Y0.4
X1.8Y0.3
X1.8Y0.2
X1.8Y0.1
X1.8Y0.0
X2.0Y1.9
X2.0Y1.8
X2.0Y1.7
X2.0Y1.6
X2.0Y1.5
X2.0Y1.4
X2.0Y1.3
X2.0Y1.2
X2.0Y1.1
X2.0Y1.0
X2.0Y0.9
X2.0Y0.8
X2.0Y0.7
X2.0Y0.6
X2.0Y0.5
X2.0Y0.4
X2.0Y0.3
X2.0Y0.2
X2.0Y0.1
X2.0Y0.0
X3.8Y1.9
X3.8Y1.8
X3.8Y1.7
X3.8Y1.6
X3.8Y1.5
X3.8Y1.4
X3.8Y1.3
X3.8Y1.2
X3.8Y1.1
X3.8Y1.0
X3.8Y0.9
X3.8Y0.8
X3.8Y0.7
X3.8Y0.6
X3.8Y0.5
X3.8Y0.4
X3.8Y0.3
X3.8Y0.2
X3.8Y0.1
X3.8Y0.0
X4.0Y1.9
X4.0Y1.8
X4.0Y1.7
X4.0Y1.6
X4.0Y1.5
X4.0Y1.4
X4.0Y1.3
X4.0Y1.2
X4.0Y1.1
X4.0Y1.0
X4.0Y0.9
X4.0Y0.8
X4.0Y0.7
X4.0Y0.6
X4.0Y0.5
X4.0Y0.4
X4.0Y0.3
X4.0Y0.2
X4.0Y0.1
X4.0Y0.0
X4.9Y1.9
X4.9Y1.8
X4.9Y1.7
X4.9Y1.6
X4.9Y1.5
X4.9Y1.4
X4.9Y1.3
X4.9Y1.2
X4.9Y1.1
X4.9Y1.0
X4.9Y0.9
X4.9Y0.8
X4.9Y0.7
X4.9Y0.6
X4.9Y0.5
X4.9Y0.4
X4.9Y0.3
X4.9Y0.2
X4.9Y0.1
X4.9Y0.0
X5.1Y1.9
X5.1Y1.8
X5.1Y1.7
X5.1Y1.6
X5.1Y1.5
X5.1Y1.4
X5.1Y1.3
X5.1Y1.2
X5.1Y1.1
X5.1Y1.0
X5.1Y0.9
X5.1Y0.8
X5.1Y0.7
X5.1Y0.6
X5.1Y0.5
X5.1Y0.4
X5.1Y0.3
X5.1Y0.2
X5.1Y0.1
X5.1Y0.0
X6.0Y1.9
X6.0Y1.8
X6.0Y1.7
X6.0Y1.6
X6.0Y1.5
X6.0Y1.4
X6.0Y1.3
X6.0Y1.2
X6.0Y1.1
X6.0Y1.0
X6.0Y0.9
X6.0Y0.8
X6.0Y0.7
X6.0Y0.6
X6.0Y0.5
X6.0Y0.4
X6.0Y0.3
X6.0Y0.2
X6.0Y0.1
X6.0Y0.0
T5
X6.35Y1.75
X6.35Y1.65
X6.35Y1.55
X6.35Y1.45
X6.35Y1.2
X6.35Y1.1
X6.35Y1.0
X6.35Y0.9
X6.35Y0.65
X6.35Y0.55
X6.35Y0.45
X6.35Y0.35
X6.35Y0.1
X6.35Y0.0
X6.35Y-0.1
X6.35Y-0.2
X6.45Y1.7
X6.45Y1.6
X6.45Y1.5
X6.45Y1.4
X6.45Y1.15
X6.45Y1.05
X6.45Y0.95
X6.45Y0.85
X6.45Y0.6
X6.45Y0.5
X6.45Y0.4
X6.45Y0.3
X6.45Y0.05
X6.45Y-0.05
X6.45Y-0.15
X6.45Y-0.25
T6
X6.2902Y1.3
X6.2902Y0.75
X6.2902Y0.2
X6.8799Y1.9098
X6.8799Y-0.4098
T7
X5.75Y-0.4181
X5.75Y-0.615
X6.0453Y-0.4181
X6.0453Y-0.615
M30
