%TF.GenerationSoftware,KiCad,Pcbnew,7.0.5*%
%TF.CreationDate,2024-02-16T15:09:02+02:00*%
%TF.ProjectId,Clock Hold Standard,436c6f63-6b20-4486-9f6c-64205374616e,V0*%
%TF.SameCoordinates,PX54c81a0PY37b6b20*%
%TF.FileFunction,Copper,L1,Top*%
%TF.FilePolarity,Positive*%
%FSLAX46Y46*%
G04 Gerber Fmt 4.6, Leading zero omitted, Abs format (unit mm)*
G04 Created by KiCad (PCBNEW 7.0.5) date 2024-02-16 15:09:02*
%MOMM*%
%LPD*%
G01*
G04 APERTURE LIST*
G04 Aperture macros list*
%AMRoundRect*
0 Rectangle with rounded corners*
0 $1 Rounding radius*
0 $2 $3 $4 $5 $6 $7 $8 $9 X,Y pos of 4 corners*
0 Add a 4 corners polygon primitive as box body*
4,1,4,$2,$3,$4,$5,$6,$7,$8,$9,$2,$3,0*
0 Add four circle primitives for the rounded corners*
1,1,$1+$1,$2,$3*
1,1,$1+$1,$4,$5*
1,1,$1+$1,$6,$7*
1,1,$1+$1,$8,$9*
0 Add four rect primitives between the rounded corners*
20,1,$1+$1,$2,$3,$4,$5,0*
20,1,$1+$1,$4,$5,$6,$7,0*
20,1,$1+$1,$6,$7,$8,$9,0*
20,1,$1+$1,$8,$9,$2,$3,0*%
G04 Aperture macros list end*
%TA.AperFunction,SMDPad,CuDef*%
%ADD10R,1.475000X0.450000*%
%TD*%
%TA.AperFunction,SMDPad,CuDef*%
%ADD11R,0.950000X0.450000*%
%TD*%
%TA.AperFunction,SMDPad,CuDef*%
%ADD12R,1.150000X0.600000*%
%TD*%
%TA.AperFunction,SMDPad,CuDef*%
%ADD13RoundRect,0.250000X-0.475000X0.250000X-0.475000X-0.250000X0.475000X-0.250000X0.475000X0.250000X0*%
%TD*%
%TA.AperFunction,SMDPad,CuDef*%
%ADD14RoundRect,0.250000X0.475000X-0.250000X0.475000X0.250000X-0.475000X0.250000X-0.475000X-0.250000X0*%
%TD*%
%TA.AperFunction,ComponentPad*%
%ADD15RoundRect,0.400000X-0.400000X-0.400000X0.400000X-0.400000X0.400000X0.400000X-0.400000X0.400000X0*%
%TD*%
%TA.AperFunction,ComponentPad*%
%ADD16O,1.600000X1.600000*%
%TD*%
%TA.AperFunction,ComponentPad*%
%ADD17R,1.600000X1.600000*%
%TD*%
%TA.AperFunction,SMDPad,CuDef*%
%ADD18RoundRect,0.250000X0.250000X0.475000X-0.250000X0.475000X-0.250000X-0.475000X0.250000X-0.475000X0*%
%TD*%
%TA.AperFunction,ViaPad*%
%ADD19C,0.800000*%
%TD*%
%TA.AperFunction,Conductor*%
%ADD20C,0.380000*%
%TD*%
%TA.AperFunction,Conductor*%
%ADD21C,0.250000*%
%TD*%
%TA.AperFunction,Conductor*%
%ADD22C,0.200000*%
%TD*%
G04 APERTURE END LIST*
D10*
%TO.P,IC5,1,~{1OE}*%
%TO.N,/~{Device Registers}*%
X4411000Y-22000D03*
%TO.P,IC5,2,1A0*%
%TO.N,/GND*%
X4411000Y-672000D03*
%TO.P,IC5,3,2Y0*%
%TO.N,/H2*%
X4411000Y-1322000D03*
%TO.P,IC5,4,1A1*%
%TO.N,/GND*%
X4411000Y-1972000D03*
%TO.P,IC5,5,2Y1*%
%TO.N,/H1*%
X4411000Y-2622000D03*
%TO.P,IC5,6,1A2*%
%TO.N,/3.3V*%
X4411000Y-3272000D03*
%TO.P,IC5,7,2Y2*%
%TO.N,/H0*%
X4411000Y-3922000D03*
%TO.P,IC5,8,1A3*%
%TO.N,/GND*%
X4411000Y-4572000D03*
%TO.P,IC5,9,2Y3*%
%TO.N,unconnected-(IC5-2Y3-Pad9)*%
X4411000Y-5222000D03*
%TO.P,IC5,10,GND*%
%TO.N,/GND*%
X4411000Y-5872000D03*
%TO.P,IC5,11,2A3*%
X10287000Y-5872000D03*
%TO.P,IC5,12,1Y3*%
%TO.N,unconnected-(IC5-1Y3-Pad12)*%
X10287000Y-5222000D03*
%TO.P,IC5,13,2A2*%
%TO.N,/3.3V*%
X10287000Y-4572000D03*
%TO.P,IC5,14,1Y2*%
%TO.N,/H0*%
X10287000Y-3922000D03*
%TO.P,IC5,15,2A1*%
%TO.N,/3.3V*%
X10287000Y-3272000D03*
%TO.P,IC5,16,1Y1*%
%TO.N,/H1*%
X10287000Y-2622000D03*
%TO.P,IC5,17,2A0*%
%TO.N,/GND*%
X10287000Y-1972000D03*
%TO.P,IC5,18,1Y0*%
%TO.N,/H2*%
X10287000Y-1322000D03*
%TO.P,IC5,19,~{2OE}*%
%TO.N,/~{Device ROM}*%
X10287000Y-672000D03*
%TO.P,IC5,20,3V*%
%TO.N,/3.3V*%
X10287000Y-22000D03*
%TD*%
D11*
%TO.P,IC3,1,1A*%
%TO.N,/~{Device RAM}*%
X5772000Y-18265500D03*
%TO.P,IC3,2,1B*%
%TO.N,/~{RD}*%
X5772000Y-18915500D03*
%TO.P,IC3,3,2Y*%
%TO.N,/~{RAM}+~{WD}*%
X5772000Y-19565500D03*
%TO.P,IC3,4,GND*%
%TO.N,/GND*%
X5772000Y-20215500D03*
%TO.P,IC3,5,2A*%
%TO.N,/~{Device RAM}*%
X9722000Y-20215500D03*
%TO.P,IC3,6,2B*%
%TO.N,/~{WD}*%
X9722000Y-19565500D03*
%TO.P,IC3,7,1Y*%
%TO.N,/~{RAM}+~{RD}*%
X9722000Y-18915500D03*
%TO.P,IC3,8,3V*%
%TO.N,/3.3V*%
X9722000Y-18265500D03*
%TD*%
D10*
%TO.P,IC2,1,~{1OE}*%
%TO.N,/~{RAM}+~{RD}*%
X4428000Y-9902000D03*
%TO.P,IC2,2,1A0*%
%TO.N,/GND*%
X4428000Y-10552000D03*
%TO.P,IC2,3,2Y0*%
%TO.N,/H2*%
X4428000Y-11202000D03*
%TO.P,IC2,4,1A1*%
%TO.N,/GND*%
X4428000Y-11852000D03*
%TO.P,IC2,5,2Y1*%
%TO.N,/H1*%
X4428000Y-12502000D03*
%TO.P,IC2,6,1A2*%
%TO.N,/3.3V*%
X4428000Y-13152000D03*
%TO.P,IC2,7,2Y2*%
%TO.N,/H0*%
X4428000Y-13802000D03*
%TO.P,IC2,8,1A3*%
%TO.N,/GND*%
X4428000Y-14452000D03*
%TO.P,IC2,9,2Y3*%
%TO.N,unconnected-(IC2-2Y3-Pad9)*%
X4428000Y-15102000D03*
%TO.P,IC2,10,GND*%
%TO.N,/GND*%
X4428000Y-15752000D03*
%TO.P,IC2,11,2A3*%
X10304000Y-15752000D03*
%TO.P,IC2,12,1Y3*%
%TO.N,unconnected-(IC2-1Y3-Pad12)*%
X10304000Y-15102000D03*
%TO.P,IC2,13,2A2*%
%TO.N,/GND*%
X10304000Y-14452000D03*
%TO.P,IC2,14,1Y2*%
%TO.N,/H0*%
X10304000Y-13802000D03*
%TO.P,IC2,15,2A1*%
%TO.N,/GND*%
X10304000Y-13152000D03*
%TO.P,IC2,16,1Y1*%
%TO.N,/H1*%
X10304000Y-12502000D03*
%TO.P,IC2,17,2A0*%
%TO.N,/GND*%
X10304000Y-11852000D03*
%TO.P,IC2,18,1Y0*%
%TO.N,/H2*%
X10304000Y-11202000D03*
%TO.P,IC2,19,~{2OE}*%
%TO.N,/~{RAM}+~{WD}*%
X10304000Y-10552000D03*
%TO.P,IC2,20,3V*%
%TO.N,/3.3V*%
X10304000Y-9902000D03*
%TD*%
D12*
%TO.P,IC1,1,VIN*%
%TO.N,/5V*%
X6574000Y-26736000D03*
%TO.P,IC1,2,GND*%
%TO.N,/GND*%
X6574000Y-27686000D03*
%TO.P,IC1,3,EN*%
%TO.N,/5V*%
X6574000Y-28636000D03*
%TO.P,IC1,4,ADJ*%
%TO.N,unconnected-(IC1-ADJ-Pad4)*%
X9174000Y-28636000D03*
%TO.P,IC1,5,VOUT*%
%TO.N,/3.3V*%
X9174000Y-26736000D03*
%TD*%
D13*
%TO.P,C4,1*%
%TO.N,/3.3V*%
X11430000Y-18179500D03*
%TO.P,C4,2*%
%TO.N,/GND*%
X11430000Y-20079500D03*
%TD*%
D14*
%TO.P,C10,1*%
%TO.N,/5V*%
X4064000Y-28747000D03*
%TO.P,C10,2*%
%TO.N,/GND*%
X4064000Y-26847000D03*
%TD*%
D15*
%TO.P,J1,1,Pin_1*%
%TO.N,/5V*%
X0Y0D03*
D16*
%TO.P,J1,2,Pin_2*%
%TO.N,/~{Device RAM}*%
X0Y-2540000D03*
%TO.P,J1,3,Pin_3*%
%TO.N,/~{Device Registers}*%
X0Y-5080000D03*
D17*
%TO.P,J1,4,Pin_4*%
%TO.N,/GND*%
X0Y-7620000D03*
D16*
%TO.P,J1,5,Pin_5*%
%TO.N,/~{Device ROM}*%
X0Y-10160000D03*
%TO.P,J1,6,Pin_6*%
%TO.N,unconnected-(J1-Pin_6-Pad6)*%
X0Y-12700000D03*
%TO.P,J1,7,Pin_7*%
%TO.N,unconnected-(J1-Pin_7-Pad7)*%
X0Y-15240000D03*
%TO.P,J1,8,Pin_8*%
%TO.N,/~{WD}*%
X0Y-17780000D03*
D17*
%TO.P,J1,9,Pin_9*%
%TO.N,/GND*%
X0Y-20320000D03*
D16*
%TO.P,J1,10,Pin_10*%
%TO.N,unconnected-(J1-Pin_10-Pad10)*%
X0Y-22860000D03*
%TO.P,J1,11,Pin_11*%
%TO.N,/~{RD}*%
X0Y-25400000D03*
%TO.P,J1,12,Pin_12*%
%TO.N,unconnected-(J1-Pin_12-Pad12)*%
X0Y-27940000D03*
D15*
%TO.P,J1,13,Pin_13*%
%TO.N,/5V*%
X15240000Y-27940000D03*
D16*
%TO.P,J1,14,Pin_14*%
%TO.N,unconnected-(J1-Pin_14-Pad14)*%
X15240000Y-25400000D03*
%TO.P,J1,15,Pin_15*%
%TO.N,unconnected-(J1-Pin_15-Pad15)*%
X15240000Y-22860000D03*
D17*
%TO.P,J1,16,Pin_16*%
%TO.N,/GND*%
X15240000Y-20320000D03*
D16*
%TO.P,J1,17,Pin_17*%
%TO.N,/H0*%
X15240000Y-17780000D03*
%TO.P,J1,18,Pin_18*%
%TO.N,/H1*%
X15240000Y-15240000D03*
%TO.P,J1,19,Pin_19*%
%TO.N,/H2*%
X15240000Y-12700000D03*
%TO.P,J1,20,Pin_20*%
%TO.N,unconnected-(J1-Pin_20-Pad20)*%
X15240000Y-10160000D03*
D17*
%TO.P,J1,21,Pin_21*%
%TO.N,/GND*%
X15240000Y-7620000D03*
D16*
%TO.P,J1,22,Pin_22*%
%TO.N,unconnected-(J1-Pin_22-Pad22)*%
X15240000Y-5080000D03*
%TO.P,J1,23,Pin_23*%
%TO.N,unconnected-(J1-Pin_23-Pad23)*%
X15240000Y-2540000D03*
%TO.P,J1,24,Pin_24*%
%TO.N,unconnected-(J1-Pin_24-Pad24)*%
X15240000Y0D03*
%TD*%
D13*
%TO.P,C2,1*%
%TO.N,/3.3V*%
X12302000Y-108000D03*
%TO.P,C2,2*%
%TO.N,/GND*%
X12302000Y-2008000D03*
%TD*%
D14*
%TO.P,C11,1*%
%TO.N,/3.3V*%
X11557000Y-28681000D03*
%TO.P,C11,2*%
%TO.N,/GND*%
X11557000Y-26781000D03*
%TD*%
D18*
%TO.P,C1,1*%
%TO.N,/3.3V*%
X10205000Y-8255000D03*
%TO.P,C1,2*%
%TO.N,/GND*%
X8305000Y-8255000D03*
%TD*%
D19*
%TO.N,/GND*%
X11656000Y-13335000D03*
X11401992Y-20955000D03*
X3048000Y-8763000D03*
X5588000Y-8636000D03*
X8382000Y-20320000D03*
X5769024Y-15681786D03*
X8128000Y-15621000D03*
%TO.N,/3.3V*%
X2921000Y-13208000D03*
X13083006Y-889006D03*
X12037000Y-3939875D03*
X12827000Y-27432000D03*
X2921000Y-17145000D03*
X12065000Y-8509000D03*
X12192000Y-18669000D03*
%TO.N,/~{RAM}+~{RD}*%
X8420059Y-18523038D03*
X6668831Y-9645743D03*
%TO.N,/H0*%
X7874000Y-13843000D03*
X7672917Y-4088519D03*
%TO.N,/H1*%
X8300727Y-2482000D03*
X8421000Y-12642000D03*
%TO.N,/H2*%
X8890000Y-1335000D03*
X8862299Y-10894000D03*
%TO.N,/~{RAM}+~{WD}*%
X6449496Y-10621395D03*
X6909238Y-19167867D03*
%TO.N,/~{Device Registers}*%
X2286000Y-127000D03*
%TO.N,/~{RD}*%
X4445000Y-19197817D03*
%TO.N,/~{WD}*%
X7747000Y-22034500D03*
X7874000Y-19431000D03*
X3302000Y-21844000D03*
%TO.N,/~{Device RAM}*%
X4459422Y-18123548D03*
X2493500Y-3683000D03*
X5461000Y-21110000D03*
%TO.N,/~{Device ROM}*%
X5969000Y-7620000D03*
X7112000Y-507998D03*
%TD*%
D20*
%TO.N,/5V*%
X7432000Y-28636000D02*
X6574000Y-28636000D01*
X7539000Y-28529000D02*
X7432000Y-28636000D01*
X6574000Y-26736000D02*
X7279000Y-26736000D01*
X15240000Y-27940000D02*
X13609000Y-29571000D01*
X6574000Y-28636000D02*
X4175000Y-28636000D01*
X7539000Y-26996000D02*
X7539000Y-28529000D01*
X13609000Y-29571000D02*
X4888000Y-29571000D01*
X4888000Y-29571000D02*
X4064000Y-28747000D01*
X7279000Y-26736000D02*
X7539000Y-26996000D01*
%TO.N,/GND*%
X5698810Y-15752000D02*
X5769024Y-15681786D01*
X3283500Y-1982000D02*
X3293500Y-1972000D01*
X-1190000Y-8810000D02*
X-1190000Y-19130000D01*
X3300500Y-10562000D02*
X3310500Y-10552000D01*
X7747000Y-8255000D02*
X7493000Y-8509000D01*
X3293500Y-1972000D02*
X4411000Y-1972000D01*
X12827000Y-3302000D02*
X12302000Y-2777000D01*
X15240000Y-7620000D02*
X16430000Y-8810000D01*
X1748000Y-5872000D02*
X4411000Y-5872000D01*
X10304000Y-13152000D02*
X11473000Y-13152000D01*
X11557000Y-26781000D02*
X10822000Y-26046000D01*
X4411000Y-672000D02*
X3293500Y-672000D01*
D21*
X10304000Y-15752000D02*
X8259000Y-15752000D01*
D20*
X3283500Y-4562000D02*
X3283500Y-1982000D01*
X3300500Y-11817000D02*
X3300500Y-10562000D01*
X3283500Y-682000D02*
X3283500Y-1962000D01*
X3283500Y-1962000D02*
X3293500Y-1972000D01*
X3293500Y-4572000D02*
X3283500Y-4562000D01*
X5588000Y-8636000D02*
X3175000Y-8636000D01*
X7493000Y-8509000D02*
X5715000Y-8509000D01*
X4903000Y-27686000D02*
X4064000Y-26847000D01*
X0Y-20320000D02*
X4064000Y-24384000D01*
X5876500Y-20320000D02*
X8382000Y-20320000D01*
X3310500Y-10552000D02*
X4428000Y-10552000D01*
X4865000Y-26046000D02*
X4064000Y-26847000D01*
X-1190000Y-19130000D02*
X0Y-20320000D01*
X8128000Y-15621000D02*
X5829810Y-15621000D01*
X11670500Y-20320000D02*
X15240000Y-20320000D01*
X4411000Y-4572000D02*
X3293500Y-4572000D01*
X8305000Y-8255000D02*
X7747000Y-8255000D01*
X3175000Y-8636000D02*
X3048000Y-8763000D01*
X11430000Y-20079500D02*
X11430000Y-20926992D01*
X4411000Y-5872000D02*
X12029500Y-5872000D01*
X10822000Y-26046000D02*
X4865000Y-26046000D01*
X12302000Y-2777000D02*
X12302000Y-2008000D01*
X12029500Y-5872000D02*
X12827000Y-5074500D01*
X11430000Y-20926992D02*
X11401992Y-20955000D01*
X0Y-7620000D02*
X-1190000Y-8810000D01*
X5715000Y-8509000D02*
X5588000Y-8636000D01*
X16430000Y-8810000D02*
X16430000Y-19130000D01*
X16430000Y-19130000D02*
X15240000Y-20320000D01*
X3370500Y-11887000D02*
X3300500Y-11817000D01*
X0Y-7620000D02*
X1748000Y-5872000D01*
X104500Y-20215500D02*
X5772000Y-20215500D01*
X10304000Y-14452000D02*
X9297000Y-14452000D01*
X4393000Y-11887000D02*
X3370500Y-11887000D01*
X4064000Y-24384000D02*
X4064000Y-26847000D01*
X12827000Y-5074500D02*
X12827000Y-3302000D01*
X4428000Y-11852000D02*
X10304000Y-11852000D01*
D21*
X8259000Y-15752000D02*
X8128000Y-15621000D01*
D20*
X3293500Y-672000D02*
X3283500Y-682000D01*
X9420000Y-7140000D02*
X8305000Y-8255000D01*
X5772000Y-20215500D02*
X5876500Y-20320000D01*
X11557000Y-24003000D02*
X11557000Y-26781000D01*
X9297000Y-14452000D02*
X8128000Y-15621000D01*
X15240000Y-20320000D02*
X11557000Y-24003000D01*
X6574000Y-27686000D02*
X4903000Y-27686000D01*
X5829810Y-15621000D02*
X5769024Y-15681786D01*
X14760000Y-7140000D02*
X9420000Y-7140000D01*
X11473000Y-13152000D02*
X11656000Y-13335000D01*
X4428000Y-15752000D02*
X5698810Y-15752000D01*
%TO.N,/3.3V*%
X10205000Y-9803000D02*
X10304000Y-9902000D01*
X4428000Y-13152000D02*
X2977000Y-13152000D01*
X12302000Y-108000D02*
X13083006Y-889006D01*
X2977000Y-13152000D02*
X2921000Y-13208000D01*
X11919500Y-18669000D02*
X12192000Y-18669000D01*
X11119000Y-28681000D02*
X9174000Y-26736000D01*
X11379500Y-4572000D02*
X10287000Y-4572000D01*
X12065000Y-8509000D02*
X10459000Y-8509000D01*
X2921000Y-17145000D02*
X10922000Y-17145000D01*
X4411000Y-3272000D02*
X10287000Y-3272000D01*
X9722000Y-18265500D02*
X11344000Y-18265500D01*
X10922000Y-17145000D02*
X11430000Y-17653000D01*
X12034125Y-3937000D02*
X12037000Y-3939875D01*
X11414500Y-3937000D02*
X11414500Y-4537000D01*
X10287000Y-3272000D02*
X11404500Y-3272000D01*
X11430000Y-17653000D02*
X11430000Y-18179500D01*
X11414500Y-3937000D02*
X12034125Y-3937000D01*
X10205000Y-8255000D02*
X10205000Y-9803000D01*
X11430000Y-18179500D02*
X11919500Y-18669000D01*
X11578000Y-28681000D02*
X12827000Y-27432000D01*
X11414500Y-4537000D02*
X11379500Y-4572000D01*
X11414500Y-3282000D02*
X11414500Y-3937000D01*
X11404500Y-3272000D02*
X11414500Y-3282000D01*
X12216000Y-22000D02*
X10287000Y-22000D01*
D22*
%TO.N,/~{RAM}+~{RD}*%
X6412574Y-9902000D02*
X6668831Y-9645743D01*
X8812521Y-18915500D02*
X8420059Y-18523038D01*
X4428000Y-9902000D02*
X6412574Y-9902000D01*
X9722000Y-18915500D02*
X8812521Y-18915500D01*
%TO.N,/H0*%
X7839436Y-3922000D02*
X7672917Y-4088519D01*
X7915000Y-13802000D02*
X10304000Y-13802000D01*
X4428000Y-13802000D02*
X7833000Y-13802000D01*
X10287000Y-3922000D02*
X7839436Y-3922000D01*
X4411000Y-3922000D02*
X7506398Y-3922000D01*
X7874000Y-13843000D02*
X7915000Y-13802000D01*
X11133050Y-13802000D02*
X15111050Y-17780000D01*
X7833000Y-13802000D02*
X7874000Y-13843000D01*
X10304000Y-13802000D02*
X11133050Y-13802000D01*
X7506398Y-3922000D02*
X7672917Y-4088519D01*
%TO.N,/H1*%
X8561000Y-12502000D02*
X8421000Y-12642000D01*
X10304000Y-12502000D02*
X12502000Y-12502000D01*
X10304000Y-12502000D02*
X8561000Y-12502000D01*
X8281000Y-12502000D02*
X8421000Y-12642000D01*
X4428000Y-12502000D02*
X8281000Y-12502000D01*
X12502000Y-12502000D02*
X15240000Y-15240000D01*
X8440727Y-2622000D02*
X8300727Y-2482000D01*
X8160727Y-2622000D02*
X8300727Y-2482000D01*
X10287000Y-2622000D02*
X8440727Y-2622000D01*
X4411000Y-2622000D02*
X8160727Y-2622000D01*
%TO.N,/H2*%
X4547000Y-11321000D02*
X7671035Y-11321000D01*
X9058500Y-10894000D02*
X8862299Y-10894000D01*
X8903000Y-1322000D02*
X8890000Y-1335000D01*
X13742000Y-11202000D02*
X15240000Y-12700000D01*
X10304000Y-11202000D02*
X13742000Y-11202000D01*
X7671035Y-11321000D02*
X7798036Y-11194000D01*
X9366500Y-11202000D02*
X9058500Y-10894000D01*
X10287000Y-1322000D02*
X8903000Y-1322000D01*
X7798036Y-11194000D02*
X8562299Y-11194000D01*
X10304000Y-11202000D02*
X9366500Y-11202000D01*
X8562299Y-11194000D02*
X8862299Y-10894000D01*
X4424000Y-1335000D02*
X8890000Y-1335000D01*
%TO.N,/~{RAM}+~{WD}*%
X9510249Y-10552000D02*
X9152249Y-10194000D01*
X10304000Y-10552000D02*
X9510249Y-10552000D01*
X8572349Y-10194000D02*
X8144954Y-10621395D01*
X6511605Y-19565500D02*
X6909238Y-19167867D01*
X8144954Y-10621395D02*
X6449496Y-10621395D01*
X5772000Y-19565500D02*
X6511605Y-19565500D01*
X9152249Y-10194000D02*
X8572349Y-10194000D01*
%TO.N,/~{Device Registers}*%
X2391000Y-22000D02*
X4411000Y-22000D01*
X2286000Y-127000D02*
X2391000Y-22000D01*
%TO.N,/~{RD}*%
X5772000Y-18915500D02*
X4727317Y-18915500D01*
X4727317Y-18915500D02*
X4445000Y-19197817D01*
%TO.N,/~{WD}*%
X7747000Y-22034500D02*
X3492500Y-22034500D01*
X9722000Y-19565500D02*
X8008500Y-19565500D01*
X8008500Y-19565500D02*
X7874000Y-19431000D01*
X3492500Y-22034500D02*
X3302000Y-21844000D01*
%TO.N,/~{Device RAM}*%
X4601374Y-18265500D02*
X4459422Y-18123548D01*
X5772000Y-18265500D02*
X4601374Y-18265500D01*
X9722000Y-20215500D02*
X8827500Y-21110000D01*
X1350500Y-2540000D02*
X2493500Y-3683000D01*
X0Y-2540000D02*
X1350500Y-2540000D01*
X8827500Y-21110000D02*
X5461000Y-21110000D01*
%TO.N,/~{Device ROM}*%
X9185498Y-507998D02*
X7112000Y-507998D01*
X2540000Y-7620000D02*
X5969000Y-7620000D01*
X0Y-10160000D02*
X2540000Y-7620000D01*
X9349500Y-672000D02*
X9185498Y-507998D01*
X10287000Y-672000D02*
X9349500Y-672000D01*
%TD*%
%TA.AperFunction,Conductor*%
%TO.N,/GND*%
G36*
X13716000Y-10851500D02*
G01*
X11416000Y-10851500D01*
X11348961Y-10831815D01*
X11303206Y-10779011D01*
X11292000Y-10727500D01*
X11292000Y-10302325D01*
X11285184Y-10268061D01*
X11281828Y-10251188D01*
X11281828Y-10202811D01*
X11292000Y-10151674D01*
X11292000Y-9652326D01*
X11292000Y-9652323D01*
X11291999Y-9652321D01*
X11277467Y-9579264D01*
X11277466Y-9579260D01*
X11277465Y-9579260D01*
X11222101Y-9496399D01*
X11139240Y-9441034D01*
X11139239Y-9441033D01*
X11139235Y-9441032D01*
X11066177Y-9426500D01*
X11066174Y-9426500D01*
X10769500Y-9426500D01*
X10702461Y-9406815D01*
X10656706Y-9354011D01*
X10645500Y-9302500D01*
X10645500Y-9274666D01*
X10665185Y-9207627D01*
X10695189Y-9175399D01*
X10697329Y-9173796D01*
X10697331Y-9173796D01*
X10812546Y-9087546D01*
X10853345Y-9033046D01*
X10878691Y-8999189D01*
X10934625Y-8957318D01*
X10977957Y-8949500D01*
X11534229Y-8949500D01*
X11601268Y-8969185D01*
X11616454Y-8980682D01*
X11692760Y-9048283D01*
X11692762Y-9048284D01*
X11832634Y-9121696D01*
X11986014Y-9159500D01*
X11986015Y-9159500D01*
X12143985Y-9159500D01*
X12297365Y-9121696D01*
X12326398Y-9106458D01*
X12437240Y-9048283D01*
X12555483Y-8943530D01*
X12645220Y-8813523D01*
X12701237Y-8665818D01*
X12720278Y-8509000D01*
X12701237Y-8352182D01*
X12645220Y-8204477D01*
X12555483Y-8074470D01*
X12437240Y-7969717D01*
X12437238Y-7969716D01*
X12437237Y-7969715D01*
X12297365Y-7896303D01*
X12143986Y-7858500D01*
X12143985Y-7858500D01*
X11986015Y-7858500D01*
X11986014Y-7858500D01*
X11832634Y-7896303D01*
X11692762Y-7969715D01*
X11616456Y-8037316D01*
X11553222Y-8067037D01*
X11534229Y-8068500D01*
X11079499Y-8068500D01*
X11012460Y-8048815D01*
X10966705Y-7996011D01*
X10955499Y-7944500D01*
X10955499Y-7732129D01*
X10955498Y-7732123D01*
X10955271Y-7730013D01*
X10949091Y-7672517D01*
X10929503Y-7620000D01*
X10898797Y-7537671D01*
X10898793Y-7537664D01*
X10812547Y-7422455D01*
X10812544Y-7422452D01*
X10697335Y-7336206D01*
X10697328Y-7336202D01*
X10562486Y-7285910D01*
X10562485Y-7285909D01*
X10562483Y-7285909D01*
X10502873Y-7279500D01*
X10502863Y-7279500D01*
X9907129Y-7279500D01*
X9907123Y-7279501D01*
X9847516Y-7285908D01*
X9712671Y-7336202D01*
X9712664Y-7336206D01*
X9597455Y-7422452D01*
X9597452Y-7422455D01*
X9511206Y-7537664D01*
X9511201Y-7537674D01*
X9503817Y-7557471D01*
X9461945Y-7613404D01*
X9396480Y-7637820D01*
X9328207Y-7622967D01*
X9278803Y-7573561D01*
X9269930Y-7553140D01*
X9239358Y-7460880D01*
X9239356Y-7460875D01*
X9147315Y-7311654D01*
X9023345Y-7187684D01*
X8874124Y-7095643D01*
X8874119Y-7095641D01*
X8707697Y-7040494D01*
X8707690Y-7040493D01*
X8604986Y-7030000D01*
X8555000Y-7030000D01*
X8555000Y-9479999D01*
X8604972Y-9479999D01*
X8604986Y-9479998D01*
X8707697Y-9469505D01*
X8874119Y-9414358D01*
X8874124Y-9414356D01*
X9023345Y-9322315D01*
X9147315Y-9198345D01*
X9239356Y-9049124D01*
X9239359Y-9049117D01*
X9269930Y-8956860D01*
X9309702Y-8899415D01*
X9374218Y-8872591D01*
X9442994Y-8884906D01*
X9494194Y-8932448D01*
X9503818Y-8952529D01*
X9511203Y-8972329D01*
X9511206Y-8972335D01*
X9568691Y-9049124D01*
X9597454Y-9087546D01*
X9712669Y-9173796D01*
X9712670Y-9173796D01*
X9714811Y-9175399D01*
X9756682Y-9231333D01*
X9764500Y-9274666D01*
X9764500Y-9302500D01*
X9744815Y-9369539D01*
X9692011Y-9415294D01*
X9640500Y-9426500D01*
X9541823Y-9426500D01*
X9468764Y-9441032D01*
X9468760Y-9441033D01*
X9385899Y-9496399D01*
X9330533Y-9579260D01*
X9330532Y-9579264D01*
X9316000Y-9652321D01*
X9316000Y-9717450D01*
X9296315Y-9784489D01*
X9243511Y-9830244D01*
X9197126Y-9841344D01*
X9149991Y-9843294D01*
X9146297Y-9843447D01*
X9143738Y-9843500D01*
X8621560Y-9843500D01*
X8596114Y-9840861D01*
X8587034Y-9838957D01*
X8587033Y-9838957D01*
X8587031Y-9838957D01*
X8554410Y-9843023D01*
X8546734Y-9843500D01*
X8543309Y-9843500D01*
X8538103Y-9844368D01*
X8523049Y-9846879D01*
X8520520Y-9847247D01*
X8470957Y-9853426D01*
X8463919Y-9855521D01*
X8456966Y-9857908D01*
X8413036Y-9881682D01*
X8410760Y-9882853D01*
X8365862Y-9904803D01*
X8359915Y-9909048D01*
X8354088Y-9913584D01*
X8320262Y-9950329D01*
X8318488Y-9952177D01*
X8266732Y-10003934D01*
X8036089Y-10234577D01*
X7974769Y-10268061D01*
X7948410Y-10270895D01*
X7263999Y-10270895D01*
X7196960Y-10251210D01*
X7151205Y-10198406D01*
X7141261Y-10129248D01*
X7161949Y-10076455D01*
X7249051Y-9950266D01*
X7305068Y-9802561D01*
X7324109Y-9645743D01*
X7305068Y-9488925D01*
X7301682Y-9479998D01*
X7281393Y-9426500D01*
X7249051Y-9341220D01*
X7159314Y-9211213D01*
X7041071Y-9106460D01*
X7041069Y-9106459D01*
X7041068Y-9106458D01*
X6901196Y-9033046D01*
X6747817Y-8995243D01*
X6747816Y-8995243D01*
X6589846Y-8995243D01*
X6589845Y-8995243D01*
X6436465Y-9033046D01*
X6296593Y-9106458D01*
X6178347Y-9211214D01*
X6088612Y-9341218D01*
X6088611Y-9341219D01*
X6039213Y-9471471D01*
X5997035Y-9527174D01*
X5931437Y-9551231D01*
X5923271Y-9551500D01*
X5449197Y-9551500D01*
X5382158Y-9531815D01*
X5354813Y-9504953D01*
X5354734Y-9505033D01*
X5346103Y-9496402D01*
X5346101Y-9496399D01*
X5263240Y-9441034D01*
X5263238Y-9441033D01*
X5263235Y-9441032D01*
X5190177Y-9426500D01*
X5190174Y-9426500D01*
X3665826Y-9426500D01*
X3665823Y-9426500D01*
X3592764Y-9441032D01*
X3592760Y-9441033D01*
X3509899Y-9496399D01*
X3454533Y-9579260D01*
X3454532Y-9579264D01*
X3440000Y-9652321D01*
X3440000Y-9827873D01*
X3420315Y-9894912D01*
X3390312Y-9927139D01*
X3333314Y-9969807D01*
X3333308Y-9969814D01*
X3247149Y-10084906D01*
X3247145Y-10084913D01*
X3196903Y-10219620D01*
X3196901Y-10219627D01*
X3190500Y-10279155D01*
X3190500Y-10327000D01*
X3501317Y-10327000D01*
X3568356Y-10346685D01*
X3570206Y-10347897D01*
X3592759Y-10362966D01*
X3665823Y-10377500D01*
X4529000Y-10377500D01*
X4596039Y-10397185D01*
X4641794Y-10449989D01*
X4653000Y-10501500D01*
X4653000Y-10602500D01*
X4633315Y-10669539D01*
X4580511Y-10715294D01*
X4529000Y-10726500D01*
X3665824Y-10726500D01*
X3592759Y-10741033D01*
X3570206Y-10756103D01*
X3503528Y-10776980D01*
X3501317Y-10777000D01*
X3190500Y-10777000D01*
X3190500Y-10824844D01*
X3196901Y-10884372D01*
X3196903Y-10884379D01*
X3247145Y-11019086D01*
X3247147Y-11019088D01*
X3328445Y-11127689D01*
X3352862Y-11193153D01*
X3338011Y-11261426D01*
X3328445Y-11276311D01*
X3247147Y-11384911D01*
X3247145Y-11384913D01*
X3196903Y-11519620D01*
X3196901Y-11519627D01*
X3190500Y-11579155D01*
X3190500Y-11627000D01*
X3501317Y-11627000D01*
X3568356Y-11646685D01*
X3570206Y-11647897D01*
X3592759Y-11662966D01*
X3665823Y-11677500D01*
X3665826Y-11677500D01*
X5190174Y-11677500D01*
X5208358Y-11673882D01*
X5232550Y-11671500D01*
X7621826Y-11671500D01*
X7647271Y-11674139D01*
X7650471Y-11674809D01*
X7656348Y-11676042D01*
X7673088Y-11673955D01*
X7688965Y-11671977D01*
X7696641Y-11671500D01*
X7700073Y-11671500D01*
X7700075Y-11671500D01*
X7720380Y-11668111D01*
X7722833Y-11667754D01*
X7772426Y-11661573D01*
X7772430Y-11661570D01*
X7779486Y-11659470D01*
X7786408Y-11657093D01*
X7786416Y-11657092D01*
X7830375Y-11633301D01*
X7832597Y-11632157D01*
X7877518Y-11610199D01*
X7883485Y-11605938D01*
X7889294Y-11601417D01*
X7904852Y-11584517D01*
X7964739Y-11548526D01*
X7996081Y-11544500D01*
X8513088Y-11544500D01*
X8538533Y-11547138D01*
X8547614Y-11549043D01*
X8563304Y-11547087D01*
X8580238Y-11544977D01*
X8587914Y-11544500D01*
X8591334Y-11544500D01*
X8591339Y-11544500D01*
X8600602Y-11542954D01*
X8611577Y-11541123D01*
X8614110Y-11540753D01*
X8663692Y-11534573D01*
X8663698Y-11534569D01*
X8667295Y-11533499D01*
X8673489Y-11533350D01*
X8673890Y-11533301D01*
X8673895Y-11533341D01*
X8732368Y-11531943D01*
X8783311Y-11544499D01*
X8783312Y-11544500D01*
X8942500Y-11544500D01*
X9009539Y-11564185D01*
X9047537Y-11608037D01*
X9066500Y-11627000D01*
X9377317Y-11627000D01*
X9444356Y-11646685D01*
X9446206Y-11647897D01*
X9468759Y-11662966D01*
X9541823Y-11677500D01*
X9541826Y-11677500D01*
X11066176Y-11677500D01*
X11139240Y-11662966D01*
X11161794Y-11647897D01*
X11228472Y-11627020D01*
X11230683Y-11627000D01*
X11541500Y-11627000D01*
X11577819Y-11590681D01*
X11580158Y-11593020D01*
X11613989Y-11563706D01*
X11665500Y-11552500D01*
X13545456Y-11552500D01*
X13612495Y-11572185D01*
X13633137Y-11588819D01*
X13716000Y-11671681D01*
X13716000Y-13220318D01*
X12784637Y-12288955D01*
X12768511Y-12269098D01*
X12763437Y-12261331D01*
X12737487Y-12241133D01*
X12731741Y-12236059D01*
X12729307Y-12233625D01*
X12712609Y-12221703D01*
X12710555Y-12220171D01*
X12685275Y-12200496D01*
X12671126Y-12189483D01*
X12671124Y-12189482D01*
X12664648Y-12185977D01*
X12658066Y-12182759D01*
X12610182Y-12168503D01*
X12607743Y-12167722D01*
X12560484Y-12151498D01*
X12553269Y-12150294D01*
X12545953Y-12149382D01*
X12497139Y-12151401D01*
X12496049Y-12151447D01*
X12493489Y-12151500D01*
X11665500Y-12151500D01*
X11598461Y-12131815D01*
X11580291Y-12110846D01*
X11577819Y-12113319D01*
X11541500Y-12077000D01*
X11230683Y-12077000D01*
X11163644Y-12057315D01*
X11161794Y-12056103D01*
X11139240Y-12041033D01*
X11066176Y-12026500D01*
X11066174Y-12026500D01*
X9541826Y-12026500D01*
X9541824Y-12026500D01*
X9468759Y-12041033D01*
X9446206Y-12056103D01*
X9379528Y-12076980D01*
X9377317Y-12077000D01*
X9066500Y-12077000D01*
X9030181Y-12113319D01*
X9027841Y-12110979D01*
X8994011Y-12140294D01*
X8942500Y-12151500D01*
X8895332Y-12151500D01*
X8828293Y-12131815D01*
X8813106Y-12120316D01*
X8793240Y-12102717D01*
X8793238Y-12102715D01*
X8653365Y-12029303D01*
X8499986Y-11991500D01*
X8499985Y-11991500D01*
X8342015Y-11991500D01*
X8342014Y-11991500D01*
X8188634Y-12029303D01*
X8048761Y-12102715D01*
X8048759Y-12102717D01*
X8028894Y-12120316D01*
X7965661Y-12150037D01*
X7946668Y-12151500D01*
X5789500Y-12151500D01*
X5722461Y-12131815D01*
X5704291Y-12110846D01*
X5701819Y-12113319D01*
X5665500Y-12077000D01*
X5354683Y-12077000D01*
X5287644Y-12057315D01*
X5285794Y-12056103D01*
X5263240Y-12041033D01*
X5190176Y-12026500D01*
X5190174Y-12026500D01*
X3665826Y-12026500D01*
X3665824Y-12026500D01*
X3592759Y-12041033D01*
X3570206Y-12056103D01*
X3503528Y-12076980D01*
X3501317Y-12077000D01*
X3190500Y-12077000D01*
X3190500Y-12124844D01*
X3196901Y-12184372D01*
X3196903Y-12184379D01*
X3247145Y-12319086D01*
X3247147Y-12319088D01*
X3319878Y-12416245D01*
X3344295Y-12481709D01*
X3329444Y-12549982D01*
X3280039Y-12599388D01*
X3211766Y-12614240D01*
X3162988Y-12600354D01*
X3153363Y-12595303D01*
X3153365Y-12595303D01*
X2999986Y-12557500D01*
X2999985Y-12557500D01*
X2842015Y-12557500D01*
X2842014Y-12557500D01*
X2688634Y-12595303D01*
X2548762Y-12668715D01*
X2430516Y-12773471D01*
X2340781Y-12903475D01*
X2340780Y-12903476D01*
X2284762Y-13051181D01*
X2265722Y-13207999D01*
X2265722Y-13208000D01*
X2284762Y-13364818D01*
X2329492Y-13482760D01*
X2340780Y-13512523D01*
X2430517Y-13642530D01*
X2548760Y-13747283D01*
X2548762Y-13747284D01*
X2688634Y-13820696D01*
X2842014Y-13858500D01*
X2842015Y-13858500D01*
X2999985Y-13858500D01*
X3096218Y-13834781D01*
X3166018Y-13837850D01*
X3223080Y-13878170D01*
X3249286Y-13942939D01*
X3242073Y-13998510D01*
X3196903Y-14119616D01*
X3196901Y-14119627D01*
X3190500Y-14179155D01*
X3190500Y-14227000D01*
X3501317Y-14227000D01*
X3568356Y-14246685D01*
X3570206Y-14247897D01*
X3592759Y-14262966D01*
X3665823Y-14277500D01*
X3665826Y-14277500D01*
X5190176Y-14277500D01*
X5263240Y-14262966D01*
X5285794Y-14247897D01*
X5352472Y-14227020D01*
X5354683Y-14227000D01*
X5665500Y-14227000D01*
X5701819Y-14190681D01*
X5704158Y-14193020D01*
X5737989Y-14163706D01*
X5789500Y-14152500D01*
X7232135Y-14152500D01*
X7299174Y-14172185D01*
X7334184Y-14206059D01*
X7383517Y-14277530D01*
X7501760Y-14382283D01*
X7501762Y-14382284D01*
X7641634Y-14455696D01*
X7795014Y-14493500D01*
X7795015Y-14493500D01*
X7952985Y-14493500D01*
X8106365Y-14455696D01*
X8106365Y-14455695D01*
X8246240Y-14382283D01*
X8364483Y-14277530D01*
X8413815Y-14206059D01*
X8468098Y-14162070D01*
X8515865Y-14152500D01*
X8942500Y-14152500D01*
X9009539Y-14172185D01*
X9027708Y-14193153D01*
X9030181Y-14190681D01*
X9066500Y-14227000D01*
X9377317Y-14227000D01*
X9444356Y-14246685D01*
X9446206Y-14247897D01*
X9468759Y-14262966D01*
X9541823Y-14277500D01*
X10405000Y-14277500D01*
X10472039Y-14297185D01*
X10517794Y-14349989D01*
X10529000Y-14401500D01*
X10529000Y-14502500D01*
X10509315Y-14569539D01*
X10456511Y-14615294D01*
X10405000Y-14626500D01*
X9541824Y-14626500D01*
X9468759Y-14641033D01*
X9446206Y-14656103D01*
X9379528Y-14676980D01*
X9377317Y-14677000D01*
X9066500Y-14677000D01*
X9066500Y-14724844D01*
X9072901Y-14784372D01*
X9072903Y-14784379D01*
X9123145Y-14919086D01*
X9123147Y-14919088D01*
X9204445Y-15027689D01*
X9228862Y-15093153D01*
X9214011Y-15161426D01*
X9204445Y-15176311D01*
X9123147Y-15284911D01*
X9123145Y-15284913D01*
X9072903Y-15419620D01*
X9072901Y-15419627D01*
X9066500Y-15479155D01*
X9066500Y-15527000D01*
X9377317Y-15527000D01*
X9444356Y-15546685D01*
X9446206Y-15547897D01*
X9468759Y-15562966D01*
X9541823Y-15577500D01*
X9541826Y-15577500D01*
X11066176Y-15577500D01*
X11139240Y-15562966D01*
X11161794Y-15547897D01*
X11228472Y-15527020D01*
X11230683Y-15527000D01*
X11541499Y-15527000D01*
X11541500Y-15479172D01*
X11541499Y-15479155D01*
X11535098Y-15419627D01*
X11535096Y-15419620D01*
X11484854Y-15284913D01*
X11484852Y-15284910D01*
X11403555Y-15176312D01*
X11379137Y-15110847D01*
X11393988Y-15042574D01*
X11403555Y-15027688D01*
X11484852Y-14919089D01*
X11490662Y-14903512D01*
X11532531Y-14847576D01*
X11597994Y-14823156D01*
X11666268Y-14838005D01*
X11694527Y-14859159D01*
X13716000Y-16880632D01*
X13716000Y-28841038D01*
X13462858Y-29094181D01*
X13401535Y-29127666D01*
X13375177Y-29130500D01*
X12654244Y-29130500D01*
X12587205Y-29110815D01*
X12541450Y-29058011D01*
X12530954Y-28993248D01*
X12532500Y-28978873D01*
X12532499Y-28400822D01*
X12552183Y-28333784D01*
X12568818Y-28313142D01*
X12763142Y-28118819D01*
X12824465Y-28085334D01*
X12850823Y-28082500D01*
X12905985Y-28082500D01*
X13059365Y-28044696D01*
X13080072Y-28033828D01*
X13199240Y-27971283D01*
X13317483Y-27866530D01*
X13407220Y-27736523D01*
X13463237Y-27588818D01*
X13482278Y-27432000D01*
X13467002Y-27306185D01*
X13463237Y-27275181D01*
X13421756Y-27165806D01*
X13407220Y-27127477D01*
X13317483Y-26997470D01*
X13199240Y-26892717D01*
X13199238Y-26892716D01*
X13199237Y-26892715D01*
X13059365Y-26819303D01*
X12905985Y-26781499D01*
X12898540Y-26780596D01*
X12898690Y-26779353D01*
X12838961Y-26761815D01*
X12793206Y-26709011D01*
X12782000Y-26657501D01*
X12781999Y-26481029D01*
X12781998Y-26481012D01*
X12771505Y-26378302D01*
X12716358Y-26211880D01*
X12716356Y-26211875D01*
X12624315Y-26062654D01*
X12500345Y-25938684D01*
X12351124Y-25846643D01*
X12351119Y-25846641D01*
X12184697Y-25791494D01*
X12184690Y-25791493D01*
X12081986Y-25781000D01*
X11807000Y-25781000D01*
X11807000Y-26907000D01*
X11787315Y-26974039D01*
X11734511Y-27019794D01*
X11683000Y-27031000D01*
X10332001Y-27031000D01*
X10299662Y-27063339D01*
X10238339Y-27096824D01*
X10168647Y-27091840D01*
X10124300Y-27063339D01*
X10035819Y-26974858D01*
X10002334Y-26913535D01*
X9999500Y-26887177D01*
X9999500Y-26531000D01*
X10332000Y-26531000D01*
X11307000Y-26531000D01*
X11307000Y-25781000D01*
X11032029Y-25781000D01*
X11032012Y-25781001D01*
X10929302Y-25791494D01*
X10762880Y-25846641D01*
X10762875Y-25846643D01*
X10613654Y-25938684D01*
X10489684Y-26062654D01*
X10397643Y-26211875D01*
X10397641Y-26211880D01*
X10342494Y-26378302D01*
X10342493Y-26378309D01*
X10332000Y-26481013D01*
X10332000Y-26531000D01*
X9999500Y-26531000D01*
X9999500Y-26411323D01*
X9999499Y-26411321D01*
X9984967Y-26338264D01*
X9984966Y-26338260D01*
X9971094Y-26317499D01*
X9929601Y-26255399D01*
X9846740Y-26200034D01*
X9846739Y-26200033D01*
X9846735Y-26200032D01*
X9773677Y-26185500D01*
X9773674Y-26185500D01*
X8574326Y-26185500D01*
X8574323Y-26185500D01*
X8501264Y-26200032D01*
X8501260Y-26200033D01*
X8418399Y-26255399D01*
X8363033Y-26338260D01*
X8363032Y-26338264D01*
X8348500Y-26411321D01*
X8348500Y-27060678D01*
X8363032Y-27133735D01*
X8363033Y-27133739D01*
X8381405Y-27161235D01*
X8418399Y-27216601D01*
X8501260Y-27271966D01*
X8501264Y-27271967D01*
X8574321Y-27286499D01*
X8574324Y-27286500D01*
X8574326Y-27286500D01*
X9050177Y-27286500D01*
X9117216Y-27306185D01*
X9137858Y-27322819D01*
X9688858Y-27873819D01*
X9722343Y-27935142D01*
X9717359Y-28004834D01*
X9675487Y-28060767D01*
X9610023Y-28085184D01*
X9601177Y-28085500D01*
X8574323Y-28085500D01*
X8501264Y-28100032D01*
X8501260Y-28100033D01*
X8418399Y-28155399D01*
X8363033Y-28238260D01*
X8363032Y-28238264D01*
X8348500Y-28311321D01*
X8348500Y-28311325D01*
X8348500Y-28311326D01*
X8348500Y-28960674D01*
X8348500Y-28960676D01*
X8348499Y-28960676D01*
X8352803Y-28982308D01*
X8346576Y-29051899D01*
X8303714Y-29107077D01*
X8237824Y-29130322D01*
X8231186Y-29130500D01*
X7862633Y-29130500D01*
X7795594Y-29110815D01*
X7749839Y-29058011D01*
X7739895Y-28988853D01*
X7768920Y-28925297D01*
X7778289Y-28915604D01*
X7778450Y-28915454D01*
X7780287Y-28913750D01*
X7780292Y-28913740D01*
X7786082Y-28906482D01*
X7786758Y-28907021D01*
X7796031Y-28894928D01*
X7830528Y-28860431D01*
X7835696Y-28855812D01*
X7865557Y-28832001D01*
X7897694Y-28784862D01*
X7898982Y-28783046D01*
X7932852Y-28737157D01*
X7932853Y-28737155D01*
X7936743Y-28729794D01*
X7940359Y-28722287D01*
X7957155Y-28667833D01*
X7957881Y-28665628D01*
X7976711Y-28611820D01*
X7978249Y-28603685D01*
X7979500Y-28595392D01*
X7979500Y-28538414D01*
X7979542Y-28536133D01*
X7981675Y-28479123D01*
X7981674Y-28479122D01*
X7980635Y-28469893D01*
X7981488Y-28469796D01*
X7979500Y-28454681D01*
X7979500Y-27024228D01*
X7979889Y-27017289D01*
X7984165Y-26979344D01*
X7973556Y-26923279D01*
X7973177Y-26921040D01*
X7971061Y-26907000D01*
X7964685Y-26864694D01*
X7964684Y-26864691D01*
X7962231Y-26856738D01*
X7959479Y-26848875D01*
X7959478Y-26848869D01*
X7932841Y-26798470D01*
X7931808Y-26796423D01*
X7907068Y-26745050D01*
X7902403Y-26738207D01*
X7897428Y-26731467D01*
X7857121Y-26691160D01*
X7855539Y-26689517D01*
X7816750Y-26647713D01*
X7809482Y-26641917D01*
X7810017Y-26641245D01*
X7797926Y-26631965D01*
X7610443Y-26444482D01*
X7605806Y-26439294D01*
X7582001Y-26409443D01*
X7582000Y-26409442D01*
X7581999Y-26409441D01*
X7534893Y-26377324D01*
X7533003Y-26375983D01*
X7504605Y-26355025D01*
X7487157Y-26342148D01*
X7487155Y-26342147D01*
X7479794Y-26338256D01*
X7472284Y-26334639D01*
X7417819Y-26317839D01*
X7415618Y-26317115D01*
X7396296Y-26310354D01*
X7339519Y-26269633D01*
X7334147Y-26262203D01*
X7329601Y-26255399D01*
X7246739Y-26200033D01*
X7246735Y-26200032D01*
X7173677Y-26185500D01*
X7173674Y-26185500D01*
X5974326Y-26185500D01*
X5974323Y-26185500D01*
X5901264Y-26200032D01*
X5901260Y-26200033D01*
X5818399Y-26255399D01*
X5763033Y-26338260D01*
X5763032Y-26338264D01*
X5748500Y-26411321D01*
X5748500Y-26886873D01*
X5728815Y-26953912D01*
X5698812Y-26986139D01*
X5641814Y-27028807D01*
X5641808Y-27028814D01*
X5555649Y-27143906D01*
X5555646Y-27143912D01*
X5526616Y-27221745D01*
X5484744Y-27277678D01*
X5473543Y-27281855D01*
X5481558Y-27289298D01*
X5499000Y-27352712D01*
X5499000Y-27436000D01*
X6700000Y-27436000D01*
X6767039Y-27455685D01*
X6812794Y-27508489D01*
X6824000Y-27560000D01*
X6824000Y-27812000D01*
X6804315Y-27879039D01*
X6751511Y-27924794D01*
X6700000Y-27936000D01*
X5499000Y-27936000D01*
X5499000Y-28033828D01*
X5501625Y-28058245D01*
X5489219Y-28127005D01*
X5441608Y-28178142D01*
X5378335Y-28195500D01*
X5000571Y-28195500D01*
X4933532Y-28175815D01*
X4901304Y-28145810D01*
X4896546Y-28139454D01*
X4896545Y-28139453D01*
X4896544Y-28139452D01*
X4781335Y-28053206D01*
X4781329Y-28053203D01*
X4761529Y-28045818D01*
X4705596Y-28003946D01*
X4681179Y-27938482D01*
X4696031Y-27870209D01*
X4745437Y-27820804D01*
X4765860Y-27811930D01*
X4858117Y-27781359D01*
X4858124Y-27781356D01*
X5007345Y-27689315D01*
X5131315Y-27565345D01*
X5223356Y-27416124D01*
X5223358Y-27416119D01*
X5257294Y-27313708D01*
X5297066Y-27256263D01*
X5313284Y-27249520D01*
X5301602Y-27237838D01*
X5286750Y-27169565D01*
X5287076Y-27165806D01*
X5288999Y-27146981D01*
X5289000Y-27146973D01*
X5289000Y-27097000D01*
X2839001Y-27097000D01*
X2839001Y-27146986D01*
X2849494Y-27249697D01*
X2904641Y-27416119D01*
X2904643Y-27416124D01*
X2996684Y-27565345D01*
X3120654Y-27689315D01*
X3269875Y-27781356D01*
X3269880Y-27781358D01*
X3362140Y-27811930D01*
X3419585Y-27851702D01*
X3446408Y-27916218D01*
X3434093Y-27984994D01*
X3386550Y-28036194D01*
X3366471Y-28045817D01*
X3346674Y-28053201D01*
X3346664Y-28053206D01*
X3231455Y-28139452D01*
X3231452Y-28139455D01*
X3145206Y-28254664D01*
X3145202Y-28254671D01*
X3094910Y-28389513D01*
X3094909Y-28389517D01*
X3088500Y-28449127D01*
X3088500Y-28449134D01*
X3088500Y-28449135D01*
X3088500Y-29044870D01*
X3088501Y-29044876D01*
X3094908Y-29104483D01*
X3145202Y-29239328D01*
X3145206Y-29239335D01*
X3231452Y-29354544D01*
X3231455Y-29354547D01*
X3346664Y-29440793D01*
X3346671Y-29440797D01*
X3391618Y-29457560D01*
X3481517Y-29491091D01*
X3541127Y-29497500D01*
X4140176Y-29497499D01*
X4207215Y-29517183D01*
X4227857Y-29533818D01*
X4556555Y-29862516D01*
X4561191Y-29867704D01*
X4577633Y-29888320D01*
X4584999Y-29897557D01*
X4632121Y-29929684D01*
X4633970Y-29930996D01*
X4637164Y-29933353D01*
X4679841Y-29964851D01*
X4687216Y-29968748D01*
X4694713Y-29972359D01*
X4694715Y-29972360D01*
X4749206Y-29989167D01*
X4751368Y-29989879D01*
X4805181Y-30008710D01*
X4805186Y-30008710D01*
X4813356Y-30010256D01*
X4821604Y-30011499D01*
X4821605Y-30011500D01*
X4878596Y-30011500D01*
X4880877Y-30011542D01*
X4937877Y-30013675D01*
X4947110Y-30012635D01*
X4947206Y-30013489D01*
X4962320Y-30011500D01*
X13580772Y-30011500D01*
X13587712Y-30011889D01*
X13617651Y-30015263D01*
X13625656Y-30016165D01*
X13625656Y-30016164D01*
X13625657Y-30016165D01*
X13681704Y-30005559D01*
X13683971Y-30005175D01*
X13716000Y-30000348D01*
X13716000Y-30303232D01*
X1524000Y-30303232D01*
X1524000Y-26597000D01*
X2839000Y-26597000D01*
X3814000Y-26597000D01*
X3814000Y-25847000D01*
X4314000Y-25847000D01*
X4314000Y-26597000D01*
X5288999Y-26597000D01*
X5288999Y-26547028D01*
X5288998Y-26547013D01*
X5278505Y-26444302D01*
X5223358Y-26277880D01*
X5223356Y-26277875D01*
X5131315Y-26128654D01*
X5007345Y-26004684D01*
X4858124Y-25912643D01*
X4858119Y-25912641D01*
X4691697Y-25857494D01*
X4691690Y-25857493D01*
X4588986Y-25847000D01*
X4314000Y-25847000D01*
X3814000Y-25847000D01*
X3539029Y-25847000D01*
X3539012Y-25847001D01*
X3436302Y-25857494D01*
X3269880Y-25912641D01*
X3269875Y-25912643D01*
X3120654Y-26004684D01*
X2996684Y-26128654D01*
X2904643Y-26277875D01*
X2904641Y-26277880D01*
X2849494Y-26444302D01*
X2849493Y-26444309D01*
X2839000Y-26547013D01*
X2839000Y-26597000D01*
X1524000Y-26597000D01*
X1524000Y-17145000D01*
X2265722Y-17145000D01*
X2284762Y-17301818D01*
X2320441Y-17395893D01*
X2340780Y-17449523D01*
X2430517Y-17579530D01*
X2548760Y-17684283D01*
X2548762Y-17684284D01*
X2688634Y-17757696D01*
X2842014Y-17795500D01*
X2842015Y-17795500D01*
X2999985Y-17795500D01*
X3153365Y-17757696D01*
X3153364Y-17757695D01*
X3293240Y-17684283D01*
X3369544Y-17616683D01*
X3432778Y-17586963D01*
X3451771Y-17585500D01*
X3804130Y-17585500D01*
X3871169Y-17605185D01*
X3916924Y-17657989D01*
X3926868Y-17727147D01*
X3906180Y-17779940D01*
X3879203Y-17819023D01*
X3879202Y-17819024D01*
X3823184Y-17966729D01*
X3804144Y-18123547D01*
X3804144Y-18123548D01*
X3823184Y-18280366D01*
X3855745Y-18366220D01*
X3879202Y-18428071D01*
X3939325Y-18515174D01*
X3968939Y-18558078D01*
X3972779Y-18561480D01*
X4009904Y-18620670D01*
X4009136Y-18690535D01*
X3972778Y-18747108D01*
X3954518Y-18763284D01*
X3864781Y-18893292D01*
X3864780Y-18893293D01*
X3808762Y-19040998D01*
X3789722Y-19197816D01*
X3789722Y-19197817D01*
X3808762Y-19354635D01*
X3820403Y-19385328D01*
X3864780Y-19502340D01*
X3954517Y-19632347D01*
X4072760Y-19737100D01*
X4072762Y-19737101D01*
X4212634Y-19810513D01*
X4366014Y-19848317D01*
X4366015Y-19848317D01*
X4523985Y-19848317D01*
X4643328Y-19818902D01*
X4713129Y-19821971D01*
X4770191Y-19862291D01*
X4796397Y-19927060D01*
X4796768Y-19939351D01*
X4797000Y-19939351D01*
X4797000Y-19990500D01*
X5107817Y-19990500D01*
X5174856Y-20010185D01*
X5176706Y-20011397D01*
X5199259Y-20026466D01*
X5272323Y-20041000D01*
X5272326Y-20041000D01*
X6271676Y-20041000D01*
X6344740Y-20026466D01*
X6367294Y-20011397D01*
X6433972Y-19990520D01*
X6436183Y-19990500D01*
X6747000Y-19990500D01*
X6747000Y-19942367D01*
X6766685Y-19875328D01*
X6819489Y-19829573D01*
X6871000Y-19818367D01*
X6988223Y-19818367D01*
X7141603Y-19780563D01*
X7178861Y-19761008D01*
X7247365Y-19747282D01*
X7312419Y-19772773D01*
X7338536Y-19800364D01*
X7358647Y-19829500D01*
X7383517Y-19865530D01*
X7501760Y-19970283D01*
X7501762Y-19970284D01*
X7641634Y-20043696D01*
X7795014Y-20081500D01*
X7795015Y-20081500D01*
X7952985Y-20081500D01*
X8106365Y-20043696D01*
X8113407Y-20040000D01*
X8246240Y-19970283D01*
X8272314Y-19947183D01*
X8335546Y-19917463D01*
X8354540Y-19916000D01*
X8872500Y-19916000D01*
X8939539Y-19935685D01*
X8985294Y-19988489D01*
X8996500Y-20040000D01*
X8996500Y-20393955D01*
X8976815Y-20460994D01*
X8960181Y-20481636D01*
X8718637Y-20723181D01*
X8657314Y-20756666D01*
X8630956Y-20759500D01*
X6840260Y-20759500D01*
X6773221Y-20739815D01*
X6727466Y-20687011D01*
X6717522Y-20617853D01*
X6724079Y-20592165D01*
X6740596Y-20547880D01*
X6740598Y-20547872D01*
X6746999Y-20488344D01*
X6747000Y-20488327D01*
X6747000Y-20440500D01*
X4797000Y-20440500D01*
X4797000Y-20488344D01*
X4803401Y-20547872D01*
X4803403Y-20547879D01*
X4853645Y-20682586D01*
X4853647Y-20682589D01*
X4861747Y-20693409D01*
X4886165Y-20758873D01*
X4878423Y-20811692D01*
X4824763Y-20953181D01*
X4805722Y-21109999D01*
X4805722Y-21110000D01*
X4824762Y-21266818D01*
X4871638Y-21390418D01*
X4880780Y-21414523D01*
X4909929Y-21456753D01*
X4932574Y-21489560D01*
X4954457Y-21555915D01*
X4936991Y-21623566D01*
X4885724Y-21671036D01*
X4830524Y-21684000D01*
X4022621Y-21684000D01*
X3955582Y-21664315D01*
X3909827Y-21611511D01*
X3906679Y-21603971D01*
X3884136Y-21544530D01*
X3882220Y-21539477D01*
X3792483Y-21409470D01*
X3674240Y-21304717D01*
X3674238Y-21304716D01*
X3674237Y-21304715D01*
X3534365Y-21231303D01*
X3380986Y-21193500D01*
X3380985Y-21193500D01*
X3223015Y-21193500D01*
X3223014Y-21193500D01*
X3069634Y-21231303D01*
X2929762Y-21304715D01*
X2850931Y-21374552D01*
X2833023Y-21390418D01*
X2811516Y-21409471D01*
X2721781Y-21539475D01*
X2721780Y-21539476D01*
X2665762Y-21687181D01*
X2646722Y-21843999D01*
X2646722Y-21844000D01*
X2665762Y-22000818D01*
X2721780Y-22148522D01*
X2721780Y-22148523D01*
X2811517Y-22278530D01*
X2929760Y-22383283D01*
X2929762Y-22383284D01*
X3069634Y-22456696D01*
X3223014Y-22494500D01*
X3223015Y-22494500D01*
X3380985Y-22494500D01*
X3534365Y-22456696D01*
X3643905Y-22399204D01*
X3701532Y-22385000D01*
X7133436Y-22385000D01*
X7200475Y-22404685D01*
X7235487Y-22438562D01*
X7256515Y-22469028D01*
X7256516Y-22469029D01*
X7256517Y-22469030D01*
X7374760Y-22573783D01*
X7374762Y-22573784D01*
X7514634Y-22647196D01*
X7668014Y-22685000D01*
X7668015Y-22685000D01*
X7825985Y-22685000D01*
X7979365Y-22647196D01*
X7979365Y-22647195D01*
X8119240Y-22573783D01*
X8237483Y-22469030D01*
X8327220Y-22339023D01*
X8383237Y-22191318D01*
X8402278Y-22034500D01*
X8383237Y-21877682D01*
X8327220Y-21729977D01*
X8275426Y-21654940D01*
X8253543Y-21588585D01*
X8271009Y-21520934D01*
X8322276Y-21473464D01*
X8377476Y-21460500D01*
X8778289Y-21460500D01*
X8803734Y-21463138D01*
X8812815Y-21465043D01*
X8828505Y-21463087D01*
X8845439Y-21460977D01*
X8853115Y-21460500D01*
X8856535Y-21460500D01*
X8856540Y-21460500D01*
X8865803Y-21458954D01*
X8876778Y-21457123D01*
X8879311Y-21456753D01*
X8928893Y-21450573D01*
X8928899Y-21450569D01*
X8935951Y-21448470D01*
X8942877Y-21446092D01*
X8942881Y-21446092D01*
X8971766Y-21430459D01*
X8986829Y-21422308D01*
X8989090Y-21421143D01*
X9033984Y-21399198D01*
X9033987Y-21399194D01*
X9039953Y-21394935D01*
X9045754Y-21390419D01*
X9045758Y-21390418D01*
X9079601Y-21353653D01*
X9081326Y-21351854D01*
X9705862Y-20727319D01*
X9767186Y-20693834D01*
X9793544Y-20691000D01*
X10227574Y-20691000D01*
X10294613Y-20710685D01*
X10333112Y-20749903D01*
X10362680Y-20797840D01*
X10362683Y-20797844D01*
X10486654Y-20921815D01*
X10635875Y-21013856D01*
X10635880Y-21013858D01*
X10802302Y-21069005D01*
X10802309Y-21069006D01*
X10905019Y-21079499D01*
X11179999Y-21079499D01*
X11180000Y-21079498D01*
X11180000Y-20329500D01*
X11680000Y-20329500D01*
X11680000Y-21079499D01*
X11954972Y-21079499D01*
X11954986Y-21079498D01*
X12057697Y-21069005D01*
X12224119Y-21013858D01*
X12224124Y-21013856D01*
X12373345Y-20921815D01*
X12497315Y-20797845D01*
X12589356Y-20648624D01*
X12589358Y-20648619D01*
X12644505Y-20482197D01*
X12644506Y-20482190D01*
X12654999Y-20379486D01*
X12655000Y-20379473D01*
X12655000Y-20329500D01*
X11680000Y-20329500D01*
X11180000Y-20329500D01*
X11180000Y-19953500D01*
X11199685Y-19886461D01*
X11252489Y-19840706D01*
X11304000Y-19829500D01*
X12654999Y-19829500D01*
X12654999Y-19779528D01*
X12654998Y-19779513D01*
X12644505Y-19676802D01*
X12589358Y-19510380D01*
X12589356Y-19510375D01*
X12512226Y-19385328D01*
X12493786Y-19317935D01*
X12514709Y-19251272D01*
X12560144Y-19210432D01*
X12564240Y-19208283D01*
X12682483Y-19103530D01*
X12772220Y-18973523D01*
X12828237Y-18825818D01*
X12847278Y-18669000D01*
X12842371Y-18628582D01*
X12828237Y-18512181D01*
X12796338Y-18428071D01*
X12772220Y-18364477D01*
X12682483Y-18234470D01*
X12564240Y-18129717D01*
X12552484Y-18123547D01*
X12471872Y-18081237D01*
X12421660Y-18032652D01*
X12405499Y-17971441D01*
X12405499Y-17881629D01*
X12405498Y-17881623D01*
X12404521Y-17872538D01*
X12399091Y-17822017D01*
X12397974Y-17819023D01*
X12348797Y-17687171D01*
X12348793Y-17687164D01*
X12262547Y-17571955D01*
X12262544Y-17571952D01*
X12147335Y-17485706D01*
X12147328Y-17485702D01*
X12012482Y-17435408D01*
X12012483Y-17435408D01*
X11952883Y-17429001D01*
X11952881Y-17429000D01*
X11952873Y-17429000D01*
X11952865Y-17429000D01*
X11880324Y-17429000D01*
X11813285Y-17409315D01*
X11792643Y-17392681D01*
X11788429Y-17388467D01*
X11748109Y-17348147D01*
X11746527Y-17346504D01*
X11707748Y-17304711D01*
X11700484Y-17298918D01*
X11701020Y-17298245D01*
X11688930Y-17288968D01*
X11253443Y-16853482D01*
X11248806Y-16848294D01*
X11242572Y-16840477D01*
X11225001Y-16818443D01*
X11225000Y-16818442D01*
X11224999Y-16818441D01*
X11177893Y-16786324D01*
X11176003Y-16784983D01*
X11147605Y-16764025D01*
X11130157Y-16751148D01*
X11130155Y-16751147D01*
X11122794Y-16747256D01*
X11115284Y-16743639D01*
X11060818Y-16726839D01*
X11058642Y-16726123D01*
X11035543Y-16718041D01*
X10978769Y-16677320D01*
X10953021Y-16612368D01*
X10966477Y-16543806D01*
X11014864Y-16493403D01*
X11076499Y-16477000D01*
X11089328Y-16477000D01*
X11089344Y-16476999D01*
X11148872Y-16470598D01*
X11148879Y-16470596D01*
X11283586Y-16420354D01*
X11283593Y-16420350D01*
X11398687Y-16334190D01*
X11398690Y-16334187D01*
X11484850Y-16219093D01*
X11484854Y-16219086D01*
X11535096Y-16084379D01*
X11535098Y-16084372D01*
X11541499Y-16024844D01*
X11541500Y-16024827D01*
X11541500Y-15977000D01*
X9066500Y-15977000D01*
X9066500Y-16024844D01*
X9072901Y-16084372D01*
X9072903Y-16084379D01*
X9123145Y-16219086D01*
X9123149Y-16219093D01*
X9209309Y-16334187D01*
X9209312Y-16334190D01*
X9324406Y-16420350D01*
X9324413Y-16420354D01*
X9442286Y-16464318D01*
X9498220Y-16506189D01*
X9522637Y-16571653D01*
X9507785Y-16639926D01*
X9458380Y-16689332D01*
X9398953Y-16704500D01*
X5333047Y-16704500D01*
X5266008Y-16684815D01*
X5220253Y-16632011D01*
X5210309Y-16562853D01*
X5239334Y-16499297D01*
X5289714Y-16464318D01*
X5407586Y-16420354D01*
X5407593Y-16420350D01*
X5522687Y-16334190D01*
X5522690Y-16334187D01*
X5608850Y-16219093D01*
X5608854Y-16219086D01*
X5659096Y-16084379D01*
X5659098Y-16084372D01*
X5665499Y-16024844D01*
X5665500Y-16024827D01*
X5665500Y-15977000D01*
X3190500Y-15977000D01*
X3190500Y-16024844D01*
X3196901Y-16084372D01*
X3196903Y-16084379D01*
X3247145Y-16219086D01*
X3247149Y-16219093D01*
X3333309Y-16334187D01*
X3333312Y-16334190D01*
X3396993Y-16381862D01*
X3438864Y-16437796D01*
X3443848Y-16507487D01*
X3410362Y-16568810D01*
X3349039Y-16602294D01*
X3279347Y-16597309D01*
X3265056Y-16590924D01*
X3153365Y-16532303D01*
X2999986Y-16494500D01*
X2999985Y-16494500D01*
X2842015Y-16494500D01*
X2842014Y-16494500D01*
X2688634Y-16532303D01*
X2548762Y-16605715D01*
X2430516Y-16710471D01*
X2340781Y-16840475D01*
X2340780Y-16840476D01*
X2284762Y-16988181D01*
X2265722Y-17144999D01*
X2265722Y-17145000D01*
X1524000Y-17145000D01*
X1524000Y-15527000D01*
X3190500Y-15527000D01*
X3501317Y-15527000D01*
X3568356Y-15546685D01*
X3570206Y-15547897D01*
X3592759Y-15562966D01*
X3665823Y-15577500D01*
X3665826Y-15577500D01*
X5190176Y-15577500D01*
X5263240Y-15562966D01*
X5285794Y-15547897D01*
X5352472Y-15527020D01*
X5354683Y-15527000D01*
X5665500Y-15527000D01*
X5665500Y-15479172D01*
X5665499Y-15479155D01*
X5659098Y-15419627D01*
X5659096Y-15419620D01*
X5608854Y-15284913D01*
X5608852Y-15284910D01*
X5527555Y-15176312D01*
X5503137Y-15110847D01*
X5517988Y-15042574D01*
X5527555Y-15027688D01*
X5608852Y-14919089D01*
X5608854Y-14919086D01*
X5659096Y-14784379D01*
X5659098Y-14784372D01*
X5665499Y-14724844D01*
X5665500Y-14724827D01*
X5665500Y-14677000D01*
X5354683Y-14677000D01*
X5287644Y-14657315D01*
X5285794Y-14656103D01*
X5263240Y-14641033D01*
X5190176Y-14626500D01*
X5190174Y-14626500D01*
X3665826Y-14626500D01*
X3665824Y-14626500D01*
X3592759Y-14641033D01*
X3570206Y-14656103D01*
X3503528Y-14676980D01*
X3501317Y-14677000D01*
X3190500Y-14677000D01*
X3190500Y-14724844D01*
X3196901Y-14784372D01*
X3196903Y-14784379D01*
X3247145Y-14919086D01*
X3247147Y-14919088D01*
X3328445Y-15027689D01*
X3352862Y-15093153D01*
X3338011Y-15161426D01*
X3328445Y-15176311D01*
X3247147Y-15284911D01*
X3247145Y-15284913D01*
X3196903Y-15419620D01*
X3196901Y-15419627D01*
X3190500Y-15479155D01*
X3190500Y-15527000D01*
X1524000Y-15527000D01*
X1524000Y-9131682D01*
X2150681Y-8505000D01*
X7305001Y-8505000D01*
X7305001Y-8779986D01*
X7315494Y-8882697D01*
X7370641Y-9049119D01*
X7370643Y-9049124D01*
X7462684Y-9198345D01*
X7586654Y-9322315D01*
X7735875Y-9414356D01*
X7735880Y-9414358D01*
X7902302Y-9469505D01*
X7902309Y-9469506D01*
X8005019Y-9479999D01*
X8054999Y-9479998D01*
X8055000Y-9479998D01*
X8055000Y-8505000D01*
X7305001Y-8505000D01*
X2150681Y-8505000D01*
X2648863Y-8006818D01*
X2710186Y-7973334D01*
X2736544Y-7970500D01*
X5355436Y-7970500D01*
X5422475Y-7990185D01*
X5457487Y-8024062D01*
X5478515Y-8054528D01*
X5478516Y-8054529D01*
X5478517Y-8054530D01*
X5596760Y-8159283D01*
X5596762Y-8159284D01*
X5736634Y-8232696D01*
X5890014Y-8270500D01*
X5890015Y-8270500D01*
X6047985Y-8270500D01*
X6201365Y-8232696D01*
X6255135Y-8204475D01*
X6341240Y-8159283D01*
X6459483Y-8054530D01*
X6493671Y-8005000D01*
X7305000Y-8005000D01*
X8055000Y-8005000D01*
X8055000Y-7030000D01*
X8054999Y-7029999D01*
X8005029Y-7030000D01*
X8005011Y-7030001D01*
X7902302Y-7040494D01*
X7735880Y-7095641D01*
X7735875Y-7095643D01*
X7586654Y-7187684D01*
X7462684Y-7311654D01*
X7370643Y-7460875D01*
X7370641Y-7460880D01*
X7315494Y-7627302D01*
X7315493Y-7627309D01*
X7305000Y-7730013D01*
X7305000Y-8005000D01*
X6493671Y-8005000D01*
X6549220Y-7924523D01*
X6605237Y-7776818D01*
X6624278Y-7620000D01*
X6605237Y-7463182D01*
X6549220Y-7315477D01*
X6459483Y-7185470D01*
X6341240Y-7080717D01*
X6341238Y-7080716D01*
X6341237Y-7080715D01*
X6201365Y-7007303D01*
X6047986Y-6969500D01*
X6047985Y-6969500D01*
X5890015Y-6969500D01*
X5890014Y-6969500D01*
X5736634Y-7007303D01*
X5596762Y-7080715D01*
X5478515Y-7185471D01*
X5457487Y-7215938D01*
X5403205Y-7259930D01*
X5355436Y-7269500D01*
X2589206Y-7269500D01*
X2563761Y-7266861D01*
X2554685Y-7264958D01*
X2554682Y-7264958D01*
X2522068Y-7269023D01*
X2514392Y-7269500D01*
X2510960Y-7269500D01*
X2490716Y-7272877D01*
X2488193Y-7273245D01*
X2438606Y-7279426D01*
X2431575Y-7281519D01*
X2424618Y-7283907D01*
X2380687Y-7307682D01*
X2378411Y-7308853D01*
X2333513Y-7330803D01*
X2327566Y-7335048D01*
X2321739Y-7339584D01*
X2287913Y-7376329D01*
X2286139Y-7378177D01*
X1524000Y-8140316D01*
X1524000Y-6097000D01*
X3173500Y-6097000D01*
X3173500Y-6144844D01*
X3179901Y-6204372D01*
X3179903Y-6204379D01*
X3230145Y-6339086D01*
X3230149Y-6339093D01*
X3316309Y-6454187D01*
X3316312Y-6454190D01*
X3431406Y-6540350D01*
X3431413Y-6540354D01*
X3566120Y-6590596D01*
X3566127Y-6590598D01*
X3625655Y-6596999D01*
X3625672Y-6597000D01*
X4186000Y-6597000D01*
X4186000Y-6097000D01*
X4636000Y-6097000D01*
X4636000Y-6597000D01*
X5196328Y-6597000D01*
X5196344Y-6596999D01*
X5255872Y-6590598D01*
X5255879Y-6590596D01*
X5390586Y-6540354D01*
X5390593Y-6540350D01*
X5505687Y-6454190D01*
X5505690Y-6454187D01*
X5591850Y-6339093D01*
X5591854Y-6339086D01*
X5642096Y-6204379D01*
X5642098Y-6204372D01*
X5648499Y-6144844D01*
X5648500Y-6144827D01*
X5648500Y-6097000D01*
X9049500Y-6097000D01*
X9049500Y-6144844D01*
X9055901Y-6204372D01*
X9055903Y-6204379D01*
X9106145Y-6339086D01*
X9106149Y-6339093D01*
X9192309Y-6454187D01*
X9192312Y-6454190D01*
X9307406Y-6540350D01*
X9307413Y-6540354D01*
X9442120Y-6590596D01*
X9442127Y-6590598D01*
X9501655Y-6596999D01*
X9501672Y-6597000D01*
X10062000Y-6597000D01*
X10062000Y-6097000D01*
X10512000Y-6097000D01*
X10512000Y-6597000D01*
X11072328Y-6597000D01*
X11072344Y-6596999D01*
X11131872Y-6590598D01*
X11131879Y-6590596D01*
X11266586Y-6540354D01*
X11266593Y-6540350D01*
X11381687Y-6454190D01*
X11381690Y-6454187D01*
X11467850Y-6339093D01*
X11467854Y-6339086D01*
X11518096Y-6204379D01*
X11518098Y-6204372D01*
X11524499Y-6144844D01*
X11524500Y-6144827D01*
X11524500Y-6097000D01*
X10512000Y-6097000D01*
X10062000Y-6097000D01*
X9049500Y-6097000D01*
X5648500Y-6097000D01*
X4636000Y-6097000D01*
X4186000Y-6097000D01*
X3173500Y-6097000D01*
X1524000Y-6097000D01*
X1524000Y-5646999D01*
X3173499Y-5646999D01*
X3173500Y-5647000D01*
X3484317Y-5647000D01*
X3551356Y-5666685D01*
X3553206Y-5667897D01*
X3575759Y-5682966D01*
X3648823Y-5697500D01*
X3648826Y-5697500D01*
X5173176Y-5697500D01*
X5246240Y-5682966D01*
X5268794Y-5667897D01*
X5335472Y-5647020D01*
X5337683Y-5647000D01*
X5648500Y-5647000D01*
X5648500Y-5599172D01*
X5648499Y-5599155D01*
X5642098Y-5539627D01*
X5642096Y-5539620D01*
X5591854Y-5404913D01*
X5591853Y-5404911D01*
X5510554Y-5296310D01*
X5486137Y-5230846D01*
X5500988Y-5162573D01*
X5510555Y-5147687D01*
X5591852Y-5039089D01*
X5591854Y-5039086D01*
X5642096Y-4904379D01*
X5642098Y-4904372D01*
X5648499Y-4844844D01*
X5648500Y-4844827D01*
X5648500Y-4797000D01*
X5337683Y-4797000D01*
X5270644Y-4777315D01*
X5268794Y-4776103D01*
X5246240Y-4761033D01*
X5173176Y-4746500D01*
X5173174Y-4746500D01*
X3648826Y-4746500D01*
X3648824Y-4746500D01*
X3575759Y-4761033D01*
X3553206Y-4776103D01*
X3486528Y-4796980D01*
X3484317Y-4797000D01*
X3173500Y-4797000D01*
X3173500Y-4844844D01*
X3179901Y-4904372D01*
X3179903Y-4904379D01*
X3230145Y-5039086D01*
X3230147Y-5039088D01*
X3311445Y-5147689D01*
X3335862Y-5213153D01*
X3321011Y-5281426D01*
X3311445Y-5296311D01*
X3230147Y-5404911D01*
X3230145Y-5404913D01*
X3179903Y-5539620D01*
X3179901Y-5539627D01*
X3173500Y-5599155D01*
X3173500Y-5599172D01*
X3173499Y-5646999D01*
X1524000Y-5646999D01*
X1524000Y-3209182D01*
X1812809Y-3497991D01*
X1846294Y-3559314D01*
X1848224Y-3600617D01*
X1838222Y-3682999D01*
X1838222Y-3683000D01*
X1857262Y-3839818D01*
X1897965Y-3947140D01*
X1913280Y-3987523D01*
X2003017Y-4117530D01*
X2121260Y-4222283D01*
X2121262Y-4222284D01*
X2261134Y-4295696D01*
X2414514Y-4333500D01*
X2414515Y-4333500D01*
X2572485Y-4333500D01*
X2725865Y-4295696D01*
X2865737Y-4222285D01*
X2865738Y-4222283D01*
X2865740Y-4222283D01*
X2975379Y-4125151D01*
X3038610Y-4095432D01*
X3107874Y-4104616D01*
X3161177Y-4149788D01*
X3181597Y-4216607D01*
X3179913Y-4231825D01*
X3180731Y-4231913D01*
X3173500Y-4299155D01*
X3173500Y-4299172D01*
X3173499Y-4346999D01*
X3173500Y-4347000D01*
X3484317Y-4347000D01*
X3551356Y-4366685D01*
X3553206Y-4367897D01*
X3575759Y-4382966D01*
X3648823Y-4397500D01*
X3648826Y-4397500D01*
X5173176Y-4397500D01*
X5246240Y-4382966D01*
X5268794Y-4367897D01*
X5335472Y-4347020D01*
X5337683Y-4347000D01*
X5648500Y-4347000D01*
X5684819Y-4310681D01*
X5687158Y-4313020D01*
X5720989Y-4283706D01*
X5772500Y-4272500D01*
X6961391Y-4272500D01*
X7028430Y-4292185D01*
X7074185Y-4344989D01*
X7077333Y-4352529D01*
X7092697Y-4393043D01*
X7150544Y-4476849D01*
X7182434Y-4523049D01*
X7300677Y-4627802D01*
X7300679Y-4627803D01*
X7440551Y-4701215D01*
X7593931Y-4739019D01*
X7593932Y-4739019D01*
X7751902Y-4739019D01*
X7905282Y-4701215D01*
X7905281Y-4701214D01*
X8045157Y-4627802D01*
X8163400Y-4523049D01*
X8253137Y-4393042D01*
X8268501Y-4352528D01*
X8310678Y-4296827D01*
X8376276Y-4272769D01*
X8384443Y-4272500D01*
X9175000Y-4272500D01*
X9242039Y-4292185D01*
X9287794Y-4344989D01*
X9299000Y-4396500D01*
X9299000Y-4821673D01*
X9309171Y-4872810D01*
X9309171Y-4921190D01*
X9299000Y-4972326D01*
X9299000Y-5147873D01*
X9279315Y-5214912D01*
X9249312Y-5247139D01*
X9192314Y-5289807D01*
X9192308Y-5289814D01*
X9106149Y-5404906D01*
X9106145Y-5404913D01*
X9055903Y-5539620D01*
X9055901Y-5539627D01*
X9049500Y-5599155D01*
X9049500Y-5647000D01*
X9360317Y-5647000D01*
X9427356Y-5666685D01*
X9429206Y-5667897D01*
X9451759Y-5682966D01*
X9524823Y-5697500D01*
X9524826Y-5697500D01*
X11049176Y-5697500D01*
X11122240Y-5682966D01*
X11144794Y-5667897D01*
X11211472Y-5647020D01*
X11213683Y-5647000D01*
X11524500Y-5647000D01*
X11524500Y-5599172D01*
X11524499Y-5599155D01*
X11518098Y-5539627D01*
X11518096Y-5539620D01*
X11467854Y-5404913D01*
X11467850Y-5404906D01*
X11381691Y-5289814D01*
X11381685Y-5289807D01*
X11324688Y-5247139D01*
X11282818Y-5191205D01*
X11275000Y-5147873D01*
X11275000Y-5141145D01*
X11294685Y-5074106D01*
X11347489Y-5028351D01*
X11387039Y-5018969D01*
X11387025Y-5018893D01*
X11388697Y-5018576D01*
X11394370Y-5017231D01*
X11396151Y-5017164D01*
X11396157Y-5017165D01*
X11452204Y-5006559D01*
X11454471Y-5006175D01*
X11510806Y-4997685D01*
X11518777Y-4995226D01*
X11526627Y-4992479D01*
X11526627Y-4992478D01*
X11526631Y-4992478D01*
X11577029Y-4965840D01*
X11579075Y-4964808D01*
X11630446Y-4940070D01*
X11630448Y-4940067D01*
X11637304Y-4935393D01*
X11644028Y-4930430D01*
X11644032Y-4930429D01*
X11684364Y-4890095D01*
X11685961Y-4888558D01*
X11719704Y-4857248D01*
X11723204Y-4854237D01*
X11741057Y-4840001D01*
X11773185Y-4792876D01*
X11774468Y-4791066D01*
X11808352Y-4745158D01*
X11808353Y-4745156D01*
X11812233Y-4737814D01*
X11815859Y-4730286D01*
X11815858Y-4730286D01*
X11815860Y-4730285D01*
X11832041Y-4677825D01*
X11870610Y-4619568D01*
X11934554Y-4591409D01*
X11950532Y-4590375D01*
X12115985Y-4590375D01*
X12269365Y-4552571D01*
X12269364Y-4552571D01*
X12409240Y-4479158D01*
X12527483Y-4374405D01*
X12617220Y-4244398D01*
X12673237Y-4096693D01*
X12692278Y-3939875D01*
X12680807Y-3845397D01*
X12673237Y-3783056D01*
X12631242Y-3672325D01*
X12617220Y-3635352D01*
X12527483Y-3505345D01*
X12409240Y-3400592D01*
X12409238Y-3400591D01*
X12409237Y-3400590D01*
X12269365Y-3327178D01*
X12115986Y-3289375D01*
X12115985Y-3289375D01*
X11967798Y-3289375D01*
X11900759Y-3269690D01*
X11855004Y-3216886D01*
X11845183Y-3183858D01*
X11840185Y-3150694D01*
X11840183Y-3150690D01*
X11840152Y-3150482D01*
X11849624Y-3081257D01*
X11895019Y-3028143D01*
X11961922Y-3008002D01*
X11962767Y-3007999D01*
X12051999Y-3007999D01*
X12052000Y-3007998D01*
X12052000Y-2258000D01*
X12552000Y-2258000D01*
X12552000Y-3007999D01*
X12826972Y-3007999D01*
X12826986Y-3007998D01*
X12929697Y-2997505D01*
X13096119Y-2942358D01*
X13096124Y-2942356D01*
X13245345Y-2850315D01*
X13369315Y-2726345D01*
X13461356Y-2577124D01*
X13461358Y-2577119D01*
X13516505Y-2410697D01*
X13516506Y-2410690D01*
X13526999Y-2307986D01*
X13527000Y-2307973D01*
X13527000Y-2258000D01*
X12552000Y-2258000D01*
X12052000Y-2258000D01*
X11298065Y-2258000D01*
X11231026Y-2238315D01*
X11210387Y-2221684D01*
X11205105Y-2216402D01*
X11186406Y-2203908D01*
X11122240Y-2161034D01*
X11122239Y-2161033D01*
X11122235Y-2161032D01*
X11049177Y-2146500D01*
X11049174Y-2146500D01*
X10186000Y-2146500D01*
X10118961Y-2126815D01*
X10073206Y-2074011D01*
X10062000Y-2022500D01*
X10062000Y-1921500D01*
X10081685Y-1854461D01*
X10134489Y-1808706D01*
X10186000Y-1797500D01*
X11049176Y-1797500D01*
X11122240Y-1782966D01*
X11144794Y-1767897D01*
X11211472Y-1747020D01*
X11213683Y-1747000D01*
X11502138Y-1747000D01*
X11539599Y-1758000D01*
X13526999Y-1758000D01*
X13526999Y-1708028D01*
X13526998Y-1708013D01*
X13516505Y-1605302D01*
X13482974Y-1504112D01*
X13480572Y-1434284D01*
X13516304Y-1374242D01*
X13518454Y-1372292D01*
X13573488Y-1323537D01*
X13573489Y-1323536D01*
X13663226Y-1193529D01*
X13716000Y-1054374D01*
X13716000Y-10851500D01*
G37*
%TD.AperFunction*%
%TA.AperFunction,Conductor*%
G36*
X12372495Y-12872185D02*
G01*
X12393137Y-12888819D01*
X13683473Y-14179155D01*
X13716000Y-14211681D01*
X13716000Y-15889267D01*
X11530598Y-13703866D01*
X11497113Y-13642543D01*
X11502097Y-13572851D01*
X11502098Y-13572850D01*
X11535096Y-13484380D01*
X11535098Y-13484372D01*
X11541499Y-13424844D01*
X11541500Y-13424827D01*
X11541500Y-13377000D01*
X11230683Y-13377000D01*
X11163644Y-13357315D01*
X11161794Y-13356103D01*
X11139240Y-13341033D01*
X11066176Y-13326500D01*
X11066174Y-13326500D01*
X9541826Y-13326500D01*
X9541824Y-13326500D01*
X9468759Y-13341033D01*
X9446206Y-13356103D01*
X9379528Y-13376980D01*
X9377317Y-13377000D01*
X9066500Y-13377000D01*
X9030181Y-13413319D01*
X9027841Y-13410979D01*
X8994011Y-13440294D01*
X8942500Y-13451500D01*
X8781473Y-13451500D01*
X8714434Y-13431815D01*
X8668679Y-13379011D01*
X8658735Y-13309853D01*
X8687760Y-13246297D01*
X8723847Y-13217704D01*
X8746544Y-13205790D01*
X8793240Y-13181283D01*
X8911483Y-13076530D01*
X8977726Y-12980559D01*
X9032009Y-12936570D01*
X9079776Y-12927000D01*
X9377317Y-12927000D01*
X9444356Y-12946685D01*
X9446206Y-12947897D01*
X9468759Y-12962966D01*
X9541823Y-12977500D01*
X9541826Y-12977500D01*
X11066176Y-12977500D01*
X11139240Y-12962966D01*
X11161794Y-12947897D01*
X11228472Y-12927020D01*
X11230683Y-12927000D01*
X11541500Y-12927000D01*
X11577819Y-12890681D01*
X11580158Y-12893020D01*
X11613989Y-12863706D01*
X11665500Y-12852500D01*
X12305456Y-12852500D01*
X12372495Y-12872185D01*
G37*
%TD.AperFunction*%
%TA.AperFunction,Conductor*%
G36*
X13716000Y-723636D02*
G01*
X13714026Y-718433D01*
X13669236Y-600331D01*
X13663226Y-584483D01*
X13573489Y-454476D01*
X13455246Y-349723D01*
X13435997Y-339620D01*
X13343872Y-291268D01*
X13293660Y-242683D01*
X13277499Y-181472D01*
X13277499Y189871D01*
X13277498Y189877D01*
X13271091Y249484D01*
X13220797Y384329D01*
X13220793Y384336D01*
X13134547Y499545D01*
X13134544Y499548D01*
X13019335Y585794D01*
X13019328Y585798D01*
X12884482Y636092D01*
X12884483Y636092D01*
X12824883Y642499D01*
X12824881Y642500D01*
X12824873Y642500D01*
X12824864Y642500D01*
X11779129Y642500D01*
X11779123Y642499D01*
X11719516Y636092D01*
X11584671Y585798D01*
X11584664Y585794D01*
X11469456Y499549D01*
X11469453Y499546D01*
X11469454Y499546D01*
X11445979Y468188D01*
X11390047Y426318D01*
X11346714Y418500D01*
X11190485Y418500D01*
X11133868Y435125D01*
X11133524Y434293D01*
X11125788Y437498D01*
X11123446Y438185D01*
X11122272Y438954D01*
X11122240Y438967D01*
X11049177Y453500D01*
X11049174Y453500D01*
X9524826Y453500D01*
X9524823Y453500D01*
X9451764Y438968D01*
X9451760Y438967D01*
X9368899Y383601D01*
X9313533Y300740D01*
X9313532Y300736D01*
X9299000Y227679D01*
X9298999Y227677D01*
X9298999Y-33498D01*
X9279314Y-100538D01*
X9226510Y-146293D01*
X9174999Y-157498D01*
X7725564Y-157498D01*
X7658525Y-137813D01*
X7623513Y-103936D01*
X7602484Y-73469D01*
X7572763Y-47139D01*
X7484240Y31285D01*
X7484238Y31286D01*
X7484237Y31287D01*
X7344365Y104699D01*
X7190986Y142502D01*
X7190985Y142502D01*
X7033015Y142502D01*
X7033014Y142502D01*
X6879634Y104699D01*
X6739762Y31287D01*
X6621516Y-73469D01*
X6531781Y-203473D01*
X6531780Y-203474D01*
X6475762Y-351179D01*
X6456722Y-507997D01*
X6456722Y-507998D01*
X6475763Y-664816D01*
X6533300Y-816529D01*
X6538667Y-886192D01*
X6505520Y-947698D01*
X6444381Y-981520D01*
X6417358Y-984500D01*
X5772500Y-984500D01*
X5705461Y-964815D01*
X5659706Y-912011D01*
X5658648Y-907148D01*
X5648500Y-897000D01*
X5337683Y-897000D01*
X5270644Y-877315D01*
X5268794Y-876103D01*
X5246240Y-861033D01*
X5173176Y-846500D01*
X5173174Y-846500D01*
X3648826Y-846500D01*
X3648824Y-846500D01*
X3575759Y-861033D01*
X3553206Y-876103D01*
X3486528Y-896980D01*
X3484317Y-897000D01*
X3173500Y-897000D01*
X3173500Y-944844D01*
X3179901Y-1004372D01*
X3179903Y-1004379D01*
X3230145Y-1139086D01*
X3230147Y-1139088D01*
X3311445Y-1247689D01*
X3335862Y-1313153D01*
X3321011Y-1381426D01*
X3311445Y-1396311D01*
X3230147Y-1504911D01*
X3230145Y-1504913D01*
X3179903Y-1639620D01*
X3179901Y-1639627D01*
X3173500Y-1699155D01*
X3173500Y-1699172D01*
X3173499Y-1746999D01*
X3173500Y-1747000D01*
X3484317Y-1747000D01*
X3551356Y-1766685D01*
X3553206Y-1767897D01*
X3575759Y-1782966D01*
X3648823Y-1797500D01*
X3648826Y-1797500D01*
X5173176Y-1797500D01*
X5246240Y-1782966D01*
X5268794Y-1767897D01*
X5335472Y-1747020D01*
X5337683Y-1747000D01*
X5648500Y-1747000D01*
X5673681Y-1721819D01*
X5735004Y-1688334D01*
X5761362Y-1685500D01*
X7915484Y-1685500D01*
X7982523Y-1705185D01*
X8028278Y-1757989D01*
X8038222Y-1827147D01*
X8009197Y-1890703D01*
X7973111Y-1919296D01*
X7928488Y-1942716D01*
X7810243Y-2047471D01*
X7720508Y-2177475D01*
X7720507Y-2177476D01*
X7715200Y-2191471D01*
X7673022Y-2247174D01*
X7607424Y-2271231D01*
X7599258Y-2271500D01*
X5772500Y-2271500D01*
X5705461Y-2251815D01*
X5687291Y-2230846D01*
X5684819Y-2233319D01*
X5648500Y-2197000D01*
X5337683Y-2197000D01*
X5270644Y-2177315D01*
X5268794Y-2176103D01*
X5246240Y-2161033D01*
X5173176Y-2146500D01*
X5173174Y-2146500D01*
X3648826Y-2146500D01*
X3648824Y-2146500D01*
X3575759Y-2161033D01*
X3553206Y-2176103D01*
X3486528Y-2196980D01*
X3484317Y-2197000D01*
X3173500Y-2197000D01*
X3173500Y-2244844D01*
X3179901Y-2304372D01*
X3179903Y-2304379D01*
X3230145Y-2439086D01*
X3230147Y-2439088D01*
X3316309Y-2554186D01*
X3316310Y-2554187D01*
X3373311Y-2596858D01*
X3415182Y-2652792D01*
X3423000Y-2696125D01*
X3423000Y-2871673D01*
X3433171Y-2922810D01*
X3433171Y-2971190D01*
X3423000Y-3022326D01*
X3423000Y-3521673D01*
X3433171Y-3572809D01*
X3433171Y-3621188D01*
X3423000Y-3672325D01*
X3423000Y-3847873D01*
X3403315Y-3914912D01*
X3373311Y-3947140D01*
X3317871Y-3988642D01*
X3252406Y-4013059D01*
X3184133Y-3998207D01*
X3134728Y-3948802D01*
X3119876Y-3880529D01*
X3127621Y-3845397D01*
X3129737Y-3839818D01*
X3148778Y-3683000D01*
X3148778Y-3682999D01*
X3129737Y-3526181D01*
X3082106Y-3400590D01*
X3073720Y-3378477D01*
X2983983Y-3248470D01*
X2865740Y-3143717D01*
X2865738Y-3143716D01*
X2865737Y-3143715D01*
X2725865Y-3070303D01*
X2572486Y-3032500D01*
X2572485Y-3032500D01*
X2414515Y-3032500D01*
X2414513Y-3032500D01*
X2407072Y-3033404D01*
X2406684Y-3030209D01*
X2351162Y-3027476D01*
X2304224Y-2998042D01*
X1633137Y-2326955D01*
X1617011Y-2307098D01*
X1611937Y-2299331D01*
X1585987Y-2279133D01*
X1580241Y-2274059D01*
X1577807Y-2271625D01*
X1561109Y-2259703D01*
X1559055Y-2258171D01*
X1524000Y-2230887D01*
X1524000Y-127000D01*
X1630722Y-127000D01*
X1649762Y-283818D01*
X1687025Y-382070D01*
X1705780Y-431523D01*
X1795517Y-561530D01*
X1913760Y-666283D01*
X1913762Y-666284D01*
X2053634Y-739696D01*
X2207014Y-777500D01*
X2207015Y-777500D01*
X2364985Y-777500D01*
X2518365Y-739696D01*
X2548964Y-723636D01*
X2658240Y-666283D01*
X2776483Y-561530D01*
X2866220Y-431523D01*
X2866219Y-431523D01*
X2869991Y-426060D01*
X2924274Y-382070D01*
X2972041Y-372500D01*
X3049500Y-372500D01*
X3116539Y-392185D01*
X3134708Y-413153D01*
X3137181Y-410681D01*
X3173500Y-447000D01*
X3484317Y-447000D01*
X3551356Y-466685D01*
X3553206Y-467897D01*
X3575759Y-482966D01*
X3648823Y-497500D01*
X3648826Y-497500D01*
X5173176Y-497500D01*
X5246240Y-482966D01*
X5268794Y-467897D01*
X5335472Y-447020D01*
X5337683Y-447000D01*
X5648500Y-447000D01*
X5648500Y-399172D01*
X5648499Y-399155D01*
X5642098Y-339627D01*
X5642096Y-339620D01*
X5591854Y-204913D01*
X5591850Y-204906D01*
X5505691Y-89814D01*
X5505685Y-89807D01*
X5448688Y-47139D01*
X5406818Y8795D01*
X5399000Y52127D01*
X5399000Y227677D01*
X5398999Y227679D01*
X5384467Y300736D01*
X5384466Y300740D01*
X5379929Y307530D01*
X5329101Y383601D01*
X5273734Y420595D01*
X5246239Y438967D01*
X5246235Y438968D01*
X5173177Y453500D01*
X5173174Y453500D01*
X3648826Y453500D01*
X3648823Y453500D01*
X3575764Y438968D01*
X3575760Y438966D01*
X3492901Y383603D01*
X3484266Y374967D01*
X3483490Y375743D01*
X3439296Y338805D01*
X3389803Y328500D01*
X2799839Y328500D01*
X2732800Y348185D01*
X2717618Y359679D01*
X2658240Y412283D01*
X2658237Y412285D01*
X2658235Y412286D01*
X2518365Y485697D01*
X2364986Y523500D01*
X2364985Y523500D01*
X2207015Y523500D01*
X2207014Y523500D01*
X2053634Y485697D01*
X1913762Y412285D01*
X1834931Y342448D01*
X1819188Y328500D01*
X1795516Y307529D01*
X1705781Y177525D01*
X1705780Y177524D01*
X1649762Y29819D01*
X1630722Y-126999D01*
X1630722Y-127000D01*
X1524000Y-127000D01*
X1524000Y2363233D01*
X13716000Y2363233D01*
X13716000Y-723636D01*
G37*
%TD.AperFunction*%
%TD*%
%TA.AperFunction,Conductor*%
%TO.N,/GND*%
G36*
X14406138Y2363120D02*
G01*
X14424192Y2362029D01*
X14685390Y2346233D01*
X14692824Y2345329D01*
X14966153Y2295243D01*
X14973415Y2293452D01*
X15238710Y2210785D01*
X15245716Y2208128D01*
X15499109Y2094089D01*
X15505740Y2090609D01*
X15743553Y1946848D01*
X15749700Y1942605D01*
X15968452Y1771227D01*
X15974049Y1766267D01*
X16170543Y1569776D01*
X16175513Y1564167D01*
X16346879Y1345436D01*
X16351136Y1339269D01*
X16494893Y1101468D01*
X16498375Y1094833D01*
X16612419Y841443D01*
X16615072Y834449D01*
X16692351Y586453D01*
X16697742Y569153D01*
X16699535Y561877D01*
X16749624Y288552D01*
X16750527Y281113D01*
X16767386Y2432D01*
X16767499Y-1313D01*
X16767499Y-27938138D01*
X16767386Y-27941883D01*
X16750494Y-28221108D01*
X16749591Y-28228547D01*
X16699504Y-28501864D01*
X16697711Y-28509140D01*
X16615044Y-28774428D01*
X16612386Y-28781435D01*
X16498348Y-29034815D01*
X16494865Y-29041451D01*
X16351111Y-29279246D01*
X16346854Y-29285413D01*
X16175489Y-29504143D01*
X16170519Y-29509752D01*
X15974032Y-29706237D01*
X15968423Y-29711206D01*
X15749687Y-29882573D01*
X15743520Y-29886830D01*
X15505730Y-30030576D01*
X15499095Y-30034058D01*
X15245708Y-30148095D01*
X15238702Y-30150752D01*
X14973405Y-30233419D01*
X14966129Y-30235213D01*
X14692820Y-30285295D01*
X14685381Y-30286199D01*
X14405610Y-30303119D01*
X14401867Y-30303232D01*
X13716000Y-30303232D01*
X13716000Y-30000348D01*
X13740306Y-29996685D01*
X13748277Y-29994226D01*
X13756127Y-29991479D01*
X13756127Y-29991478D01*
X13756131Y-29991478D01*
X13806529Y-29964840D01*
X13808575Y-29963808D01*
X13859946Y-29939070D01*
X13859948Y-29939067D01*
X13866804Y-29934393D01*
X13873532Y-29929429D01*
X13913837Y-29889122D01*
X13915460Y-29887558D01*
X13957287Y-29848750D01*
X13957289Y-29848746D01*
X13963082Y-29841482D01*
X13963758Y-29842021D01*
X13973031Y-29829928D01*
X14776141Y-29026819D01*
X14837465Y-28993334D01*
X14863823Y-28990500D01*
X15705686Y-28990500D01*
X15705694Y-28990500D01*
X15742569Y-28987598D01*
X15742571Y-28987597D01*
X15742573Y-28987597D01*
X15784191Y-28975505D01*
X15900398Y-28941744D01*
X16041865Y-28858081D01*
X16158081Y-28741865D01*
X16241744Y-28600398D01*
X16287598Y-28442569D01*
X16290500Y-28405694D01*
X16290500Y-27474306D01*
X16287598Y-27437431D01*
X16286020Y-27432000D01*
X16241745Y-27279606D01*
X16241744Y-27279603D01*
X16241744Y-27279602D01*
X16158081Y-27138135D01*
X16158079Y-27138133D01*
X16158076Y-27138129D01*
X16041870Y-27021923D01*
X16041862Y-27021917D01*
X15900396Y-26938255D01*
X15900393Y-26938254D01*
X15742573Y-26892402D01*
X15742567Y-26892401D01*
X15705701Y-26889500D01*
X15705694Y-26889500D01*
X14774306Y-26889500D01*
X14774298Y-26889500D01*
X14737432Y-26892401D01*
X14737426Y-26892402D01*
X14579606Y-26938254D01*
X14579603Y-26938255D01*
X14438137Y-27021917D01*
X14438129Y-27021923D01*
X14321923Y-27138129D01*
X14321917Y-27138137D01*
X14238255Y-27279603D01*
X14238254Y-27279606D01*
X14192402Y-27437426D01*
X14192401Y-27437432D01*
X14189500Y-27474298D01*
X14189500Y-28316175D01*
X14169815Y-28383214D01*
X14153181Y-28403856D01*
X13716000Y-28841037D01*
X13716000Y-25400000D01*
X14184417Y-25400000D01*
X14204699Y-25605932D01*
X14204700Y-25605934D01*
X14264768Y-25803954D01*
X14362315Y-25986450D01*
X14362317Y-25986452D01*
X14493589Y-26146410D01*
X14590209Y-26225702D01*
X14653550Y-26277685D01*
X14836046Y-26375232D01*
X15034066Y-26435300D01*
X15034065Y-26435300D01*
X15052529Y-26437118D01*
X15240000Y-26455583D01*
X15445934Y-26435300D01*
X15643954Y-26375232D01*
X15826450Y-26277685D01*
X15986410Y-26146410D01*
X16117685Y-25986450D01*
X16215232Y-25803954D01*
X16275300Y-25605934D01*
X16295583Y-25400000D01*
X16275300Y-25194066D01*
X16215232Y-24996046D01*
X16117685Y-24813550D01*
X16065702Y-24750209D01*
X15986410Y-24653589D01*
X15826452Y-24522317D01*
X15826453Y-24522317D01*
X15826450Y-24522315D01*
X15643954Y-24424768D01*
X15445934Y-24364700D01*
X15445932Y-24364699D01*
X15445934Y-24364699D01*
X15240000Y-24344417D01*
X15034067Y-24364699D01*
X14836043Y-24424769D01*
X14725898Y-24483643D01*
X14653550Y-24522315D01*
X14653548Y-24522316D01*
X14653547Y-24522317D01*
X14493589Y-24653589D01*
X14362317Y-24813547D01*
X14264769Y-24996043D01*
X14204699Y-25194067D01*
X14184417Y-25400000D01*
X13716000Y-25400000D01*
X13716000Y-22860000D01*
X14184417Y-22860000D01*
X14204699Y-23065932D01*
X14204700Y-23065934D01*
X14264768Y-23263954D01*
X14362315Y-23446450D01*
X14362317Y-23446452D01*
X14493589Y-23606410D01*
X14590209Y-23685702D01*
X14653550Y-23737685D01*
X14836046Y-23835232D01*
X15034066Y-23895300D01*
X15034065Y-23895300D01*
X15052529Y-23897118D01*
X15240000Y-23915583D01*
X15445934Y-23895300D01*
X15643954Y-23835232D01*
X15826450Y-23737685D01*
X15986410Y-23606410D01*
X16117685Y-23446450D01*
X16215232Y-23263954D01*
X16275300Y-23065934D01*
X16295583Y-22860000D01*
X16275300Y-22654066D01*
X16215232Y-22456046D01*
X16117685Y-22273550D01*
X16065702Y-22210209D01*
X15986410Y-22113589D01*
X15826452Y-21982317D01*
X15826453Y-21982317D01*
X15826450Y-21982315D01*
X15643954Y-21884768D01*
X15445934Y-21824700D01*
X15445932Y-21824699D01*
X15445934Y-21824699D01*
X15240000Y-21804417D01*
X15034067Y-21824699D01*
X14836043Y-21884769D01*
X14725898Y-21943643D01*
X14653550Y-21982315D01*
X14653548Y-21982316D01*
X14653547Y-21982317D01*
X14493589Y-22113589D01*
X14362317Y-22273547D01*
X14264769Y-22456043D01*
X14204699Y-22654067D01*
X14184417Y-22860000D01*
X13716000Y-22860000D01*
X13716000Y-16880632D01*
X14199795Y-17364427D01*
X14233280Y-17425750D01*
X14230775Y-17488101D01*
X14204700Y-17574063D01*
X14204699Y-17574066D01*
X14184417Y-17780000D01*
X14204699Y-17985932D01*
X14204700Y-17985934D01*
X14264768Y-18183954D01*
X14362315Y-18366450D01*
X14362317Y-18366452D01*
X14493589Y-18526410D01*
X14590209Y-18605702D01*
X14653550Y-18657685D01*
X14836046Y-18755232D01*
X15034066Y-18815300D01*
X15034065Y-18815300D01*
X15052529Y-18817118D01*
X15240000Y-18835583D01*
X15445934Y-18815300D01*
X15643954Y-18755232D01*
X15826450Y-18657685D01*
X15986410Y-18526410D01*
X16117685Y-18366450D01*
X16215232Y-18183954D01*
X16275300Y-17985934D01*
X16295583Y-17780000D01*
X16275300Y-17574066D01*
X16215232Y-17376046D01*
X16117685Y-17193550D01*
X16065702Y-17130209D01*
X15986410Y-17033589D01*
X15826452Y-16902317D01*
X15826453Y-16902317D01*
X15826450Y-16902315D01*
X15643954Y-16804768D01*
X15445934Y-16744700D01*
X15445932Y-16744699D01*
X15445934Y-16744699D01*
X15240000Y-16724417D01*
X15034067Y-16744699D01*
X14917149Y-16780165D01*
X14836046Y-16804768D01*
X14836043Y-16804769D01*
X14836041Y-16804770D01*
X14783852Y-16832665D01*
X14715449Y-16846906D01*
X14650205Y-16821905D01*
X14637719Y-16810987D01*
X13716000Y-15889268D01*
X13716000Y-14211681D01*
X14229808Y-14725489D01*
X14263293Y-14786812D01*
X14260788Y-14849165D01*
X14204699Y-15034067D01*
X14184417Y-15240000D01*
X14204699Y-15445932D01*
X14204700Y-15445934D01*
X14264768Y-15643954D01*
X14362315Y-15826450D01*
X14362317Y-15826452D01*
X14493589Y-15986410D01*
X14590209Y-16065702D01*
X14653550Y-16117685D01*
X14836046Y-16215232D01*
X15034066Y-16275300D01*
X15034065Y-16275300D01*
X15052529Y-16277118D01*
X15240000Y-16295583D01*
X15445934Y-16275300D01*
X15643954Y-16215232D01*
X15826450Y-16117685D01*
X15986410Y-15986410D01*
X16117685Y-15826450D01*
X16215232Y-15643954D01*
X16275300Y-15445934D01*
X16295583Y-15240000D01*
X16275300Y-15034066D01*
X16215232Y-14836046D01*
X16117685Y-14653550D01*
X16065702Y-14590209D01*
X15986410Y-14493589D01*
X15826452Y-14362317D01*
X15826453Y-14362317D01*
X15826450Y-14362315D01*
X15643954Y-14264768D01*
X15445934Y-14204700D01*
X15445932Y-14204699D01*
X15445934Y-14204699D01*
X15240000Y-14184417D01*
X15034067Y-14204699D01*
X14849165Y-14260788D01*
X14779298Y-14261411D01*
X14725489Y-14229808D01*
X13716000Y-13220318D01*
X13716000Y-11671681D01*
X13997908Y-11953589D01*
X14229808Y-12185489D01*
X14263293Y-12246812D01*
X14260788Y-12309165D01*
X14204699Y-12494067D01*
X14184417Y-12700000D01*
X14204699Y-12905932D01*
X14204700Y-12905934D01*
X14264768Y-13103954D01*
X14362315Y-13286450D01*
X14362317Y-13286452D01*
X14493589Y-13446410D01*
X14554915Y-13496738D01*
X14653550Y-13577685D01*
X14836046Y-13675232D01*
X15034066Y-13735300D01*
X15034065Y-13735300D01*
X15052529Y-13737118D01*
X15240000Y-13755583D01*
X15445934Y-13735300D01*
X15643954Y-13675232D01*
X15826450Y-13577685D01*
X15986410Y-13446410D01*
X16117685Y-13286450D01*
X16215232Y-13103954D01*
X16275300Y-12905934D01*
X16295583Y-12700000D01*
X16275300Y-12494066D01*
X16215232Y-12296046D01*
X16117685Y-12113550D01*
X16065702Y-12050209D01*
X15986410Y-11953589D01*
X15826452Y-11822317D01*
X15826453Y-11822317D01*
X15826450Y-11822315D01*
X15643954Y-11724768D01*
X15445934Y-11664700D01*
X15445932Y-11664699D01*
X15445934Y-11664699D01*
X15240000Y-11644417D01*
X15034067Y-11664699D01*
X14849166Y-11720788D01*
X14779299Y-11721411D01*
X14725490Y-11689808D01*
X14024637Y-10988955D01*
X14008511Y-10969098D01*
X14003437Y-10961331D01*
X13977487Y-10941133D01*
X13971741Y-10936059D01*
X13969307Y-10933625D01*
X13952609Y-10921703D01*
X13950555Y-10920171D01*
X13925275Y-10900496D01*
X13911126Y-10889483D01*
X13911124Y-10889482D01*
X13904648Y-10885977D01*
X13898066Y-10882759D01*
X13850182Y-10868503D01*
X13847743Y-10867722D01*
X13800484Y-10851498D01*
X13793269Y-10850294D01*
X13785953Y-10849382D01*
X13737139Y-10851401D01*
X13736049Y-10851447D01*
X13733489Y-10851500D01*
X13716000Y-10851500D01*
X13716000Y-10159999D01*
X14184417Y-10159999D01*
X14204699Y-10365932D01*
X14204700Y-10365934D01*
X14264768Y-10563954D01*
X14362315Y-10746450D01*
X14362317Y-10746452D01*
X14493589Y-10906410D01*
X14560512Y-10961331D01*
X14653550Y-11037685D01*
X14836046Y-11135232D01*
X15034066Y-11195300D01*
X15034065Y-11195300D01*
X15052529Y-11197118D01*
X15240000Y-11215583D01*
X15445934Y-11195300D01*
X15643954Y-11135232D01*
X15826450Y-11037685D01*
X15986410Y-10906410D01*
X16117685Y-10746450D01*
X16215232Y-10563954D01*
X16275300Y-10365934D01*
X16295583Y-10160000D01*
X16275300Y-9954066D01*
X16215232Y-9756046D01*
X16117685Y-9573550D01*
X16065702Y-9510209D01*
X15986410Y-9413589D01*
X15826452Y-9282317D01*
X15826453Y-9282317D01*
X15826450Y-9282315D01*
X15643954Y-9184768D01*
X15445934Y-9124700D01*
X15445932Y-9124699D01*
X15445934Y-9124699D01*
X15240000Y-9104417D01*
X15034067Y-9124699D01*
X14836043Y-9184769D01*
X14725898Y-9243643D01*
X14653550Y-9282315D01*
X14653548Y-9282316D01*
X14653547Y-9282317D01*
X14493589Y-9413589D01*
X14362317Y-9573547D01*
X14264769Y-9756043D01*
X14204699Y-9954067D01*
X14184417Y-10159999D01*
X13716000Y-10159999D01*
X13716000Y-5079999D01*
X14184417Y-5079999D01*
X14204699Y-5285932D01*
X14204700Y-5285934D01*
X14264768Y-5483954D01*
X14362315Y-5666450D01*
X14362317Y-5666452D01*
X14493589Y-5826410D01*
X14590209Y-5905702D01*
X14653550Y-5957685D01*
X14836046Y-6055232D01*
X15034066Y-6115300D01*
X15034065Y-6115300D01*
X15052529Y-6117118D01*
X15240000Y-6135583D01*
X15445934Y-6115300D01*
X15643954Y-6055232D01*
X15826450Y-5957685D01*
X15986410Y-5826410D01*
X16117685Y-5666450D01*
X16215232Y-5483954D01*
X16275300Y-5285934D01*
X16295583Y-5080000D01*
X16275300Y-4874066D01*
X16215232Y-4676046D01*
X16117685Y-4493550D01*
X16065702Y-4430209D01*
X15986410Y-4333589D01*
X15826452Y-4202317D01*
X15826453Y-4202317D01*
X15826450Y-4202315D01*
X15643954Y-4104768D01*
X15445934Y-4044700D01*
X15445932Y-4044699D01*
X15445934Y-4044699D01*
X15240000Y-4024417D01*
X15034067Y-4044699D01*
X14836043Y-4104769D01*
X14725898Y-4163643D01*
X14653550Y-4202315D01*
X14653548Y-4202316D01*
X14653547Y-4202317D01*
X14493589Y-4333589D01*
X14362317Y-4493547D01*
X14264769Y-4676043D01*
X14204699Y-4874067D01*
X14184417Y-5079999D01*
X13716000Y-5079999D01*
X13716000Y-2540000D01*
X14184417Y-2540000D01*
X14204699Y-2745932D01*
X14204700Y-2745934D01*
X14264768Y-2943954D01*
X14362315Y-3126450D01*
X14362317Y-3126452D01*
X14493589Y-3286410D01*
X14590209Y-3365702D01*
X14653550Y-3417685D01*
X14836046Y-3515232D01*
X15034066Y-3575300D01*
X15034065Y-3575300D01*
X15052529Y-3577118D01*
X15240000Y-3595583D01*
X15445934Y-3575300D01*
X15643954Y-3515232D01*
X15826450Y-3417685D01*
X15986410Y-3286410D01*
X16117685Y-3126450D01*
X16215232Y-2943954D01*
X16275300Y-2745934D01*
X16295583Y-2540000D01*
X16275300Y-2334066D01*
X16215232Y-2136046D01*
X16117685Y-1953550D01*
X16065702Y-1890209D01*
X15986410Y-1793589D01*
X15826452Y-1662317D01*
X15826453Y-1662317D01*
X15826450Y-1662315D01*
X15643954Y-1564768D01*
X15445934Y-1504700D01*
X15445932Y-1504699D01*
X15445934Y-1504699D01*
X15240000Y-1484417D01*
X15034067Y-1504699D01*
X14836043Y-1564769D01*
X14725898Y-1623643D01*
X14653550Y-1662315D01*
X14653548Y-1662316D01*
X14653547Y-1662317D01*
X14493589Y-1793589D01*
X14362317Y-1953547D01*
X14264769Y-2136043D01*
X14204699Y-2334067D01*
X14184417Y-2540000D01*
X13716000Y-2540000D01*
X13716000Y-1054374D01*
X13719243Y-1045824D01*
X13738284Y-889006D01*
X13738284Y-889005D01*
X13719243Y-732187D01*
X13716000Y-723636D01*
X13716000Y0D01*
X14184417Y0D01*
X14204699Y-205932D01*
X14226048Y-276310D01*
X14264768Y-403954D01*
X14362315Y-586450D01*
X14362317Y-586452D01*
X14493589Y-746410D01*
X14590209Y-825702D01*
X14653550Y-877685D01*
X14836046Y-975232D01*
X15034066Y-1035300D01*
X15034065Y-1035300D01*
X15052529Y-1037118D01*
X15240000Y-1055583D01*
X15445934Y-1035300D01*
X15643954Y-975232D01*
X15826450Y-877685D01*
X15986410Y-746410D01*
X16117685Y-586450D01*
X16215232Y-403954D01*
X16275300Y-205934D01*
X16295583Y0D01*
X16275300Y205934D01*
X16215232Y403954D01*
X16117685Y586450D01*
X16065702Y649791D01*
X15986410Y746411D01*
X15826452Y877683D01*
X15826453Y877683D01*
X15826450Y877685D01*
X15643954Y975232D01*
X15445934Y1035300D01*
X15445932Y1035301D01*
X15445934Y1035301D01*
X15240000Y1055583D01*
X15034067Y1035301D01*
X14836043Y975231D01*
X14725898Y916357D01*
X14653550Y877685D01*
X14653548Y877684D01*
X14653547Y877683D01*
X14493589Y746411D01*
X14362317Y586453D01*
X14362315Y586450D01*
X14323643Y514102D01*
X14264769Y403957D01*
X14204699Y205933D01*
X14184417Y0D01*
X13716000Y0D01*
X13716000Y2363233D01*
X14402395Y2363233D01*
X14406138Y2363120D01*
G37*
%TD.AperFunction*%
%TD*%
%TA.AperFunction,Conductor*%
%TO.N,/GND*%
G36*
X1524000Y-2230887D02*
G01*
X1519626Y-2227483D01*
X1519622Y-2227481D01*
X1513148Y-2223977D01*
X1506566Y-2220759D01*
X1458682Y-2206503D01*
X1456243Y-2205722D01*
X1408984Y-2189498D01*
X1401769Y-2188294D01*
X1394453Y-2187382D01*
X1345639Y-2189401D01*
X1344549Y-2189447D01*
X1341989Y-2189500D01*
X1078127Y-2189500D01*
X1011088Y-2169815D01*
X968769Y-2123954D01*
X949879Y-2088615D01*
X877685Y-1953550D01*
X825702Y-1890209D01*
X746410Y-1793589D01*
X586452Y-1662317D01*
X586453Y-1662317D01*
X586450Y-1662315D01*
X403954Y-1564768D01*
X205934Y-1504700D01*
X205932Y-1504699D01*
X205934Y-1504699D01*
X18463Y-1486235D01*
X0Y-1484417D01*
X-1Y-1484417D01*
X-205933Y-1504699D01*
X-403957Y-1564769D01*
X-514102Y-1623643D01*
X-586450Y-1662315D01*
X-586452Y-1662316D01*
X-586453Y-1662317D01*
X-746411Y-1793589D01*
X-877683Y-1953547D01*
X-975231Y-2136043D01*
X-1035301Y-2334067D01*
X-1055583Y-2540000D01*
X-1035301Y-2745932D01*
X-1035300Y-2745934D01*
X-975232Y-2943954D01*
X-877685Y-3126450D01*
X-877683Y-3126452D01*
X-746411Y-3286410D01*
X-649791Y-3365702D01*
X-586450Y-3417685D01*
X-403954Y-3515232D01*
X-205934Y-3575300D01*
X-205935Y-3575300D01*
X-185653Y-3577297D01*
X0Y-3595583D01*
X205934Y-3575300D01*
X403954Y-3515232D01*
X586450Y-3417685D01*
X746410Y-3286410D01*
X877685Y-3126450D01*
X968768Y-2956046D01*
X1017732Y-2906202D01*
X1078127Y-2890500D01*
X1153956Y-2890500D01*
X1220995Y-2910185D01*
X1241637Y-2926819D01*
X1524000Y-3209182D01*
X1524000Y-8140316D01*
X514508Y-9149808D01*
X453185Y-9183293D01*
X390833Y-9180788D01*
X205934Y-9124700D01*
X205932Y-9124699D01*
X205934Y-9124699D01*
X18463Y-9106235D01*
X0Y-9104417D01*
X-1Y-9104417D01*
X-205933Y-9124699D01*
X-381308Y-9177898D01*
X-399091Y-9183293D01*
X-403957Y-9184769D01*
X-514102Y-9243643D01*
X-586450Y-9282315D01*
X-586452Y-9282316D01*
X-586453Y-9282317D01*
X-746411Y-9413589D01*
X-877683Y-9573547D01*
X-975231Y-9756043D01*
X-1035301Y-9954067D01*
X-1055583Y-10159999D01*
X-1035301Y-10365932D01*
X-1035300Y-10365934D01*
X-975232Y-10563954D01*
X-877685Y-10746450D01*
X-877683Y-10746452D01*
X-746411Y-10906410D01*
X-649791Y-10985702D01*
X-586450Y-11037685D01*
X-403954Y-11135232D01*
X-205934Y-11195300D01*
X-205935Y-11195300D01*
X-187471Y-11197118D01*
X0Y-11215583D01*
X205934Y-11195300D01*
X403954Y-11135232D01*
X586450Y-11037685D01*
X746410Y-10906410D01*
X877685Y-10746450D01*
X975232Y-10563954D01*
X1035300Y-10365934D01*
X1055583Y-10160000D01*
X1035300Y-9954066D01*
X979210Y-9769163D01*
X978588Y-9699298D01*
X1010189Y-9645491D01*
X1524000Y-9131681D01*
X1524000Y-30303232D01*
X837604Y-30303232D01*
X833861Y-30303119D01*
X554615Y-30286232D01*
X547175Y-30285328D01*
X273860Y-30235245D01*
X266584Y-30233451D01*
X1288Y-30150784D01*
X-5718Y-30148127D01*
X-259110Y-30034087D01*
X-265745Y-30030605D01*
X-503543Y-29886854D01*
X-509705Y-29882601D01*
X-728451Y-29711227D01*
X-734050Y-29706266D01*
X-930544Y-29509775D01*
X-935510Y-29504171D01*
X-1106880Y-29285435D01*
X-1111137Y-29279268D01*
X-1134367Y-29240842D01*
X-1254902Y-29041454D01*
X-1258368Y-29034851D01*
X-1372423Y-28781432D01*
X-1375070Y-28774455D01*
X-1457746Y-28509142D01*
X-1459537Y-28501873D01*
X-1509625Y-28228551D01*
X-1510529Y-28221112D01*
X-1527387Y-27942411D01*
X-1527460Y-27940000D01*
X-1055583Y-27940000D01*
X-1053368Y-27962497D01*
X-1035301Y-28145932D01*
X-1035300Y-28145934D01*
X-975232Y-28343954D01*
X-877685Y-28526450D01*
X-877683Y-28526452D01*
X-746411Y-28686410D01*
X-649791Y-28765702D01*
X-586450Y-28817685D01*
X-403954Y-28915232D01*
X-205934Y-28975300D01*
X-205935Y-28975300D01*
X-187471Y-28977118D01*
X0Y-28995583D01*
X205934Y-28975300D01*
X403954Y-28915232D01*
X586450Y-28817685D01*
X746410Y-28686410D01*
X877685Y-28526450D01*
X975232Y-28343954D01*
X1035300Y-28145934D01*
X1055583Y-27940000D01*
X1035300Y-27734066D01*
X975232Y-27536046D01*
X877685Y-27353550D01*
X825702Y-27290209D01*
X746410Y-27193589D01*
X586452Y-27062317D01*
X586453Y-27062317D01*
X586450Y-27062315D01*
X403954Y-26964768D01*
X205934Y-26904700D01*
X205932Y-26904699D01*
X205934Y-26904699D01*
X18463Y-26886235D01*
X0Y-26884417D01*
X-1Y-26884417D01*
X-205933Y-26904699D01*
X-403957Y-26964769D01*
X-514102Y-27023643D01*
X-586450Y-27062315D01*
X-586452Y-27062316D01*
X-586453Y-27062317D01*
X-746411Y-27193589D01*
X-877683Y-27353547D01*
X-975231Y-27536043D01*
X-1035301Y-27734067D01*
X-1051233Y-27895830D01*
X-1055583Y-27940000D01*
X-1527460Y-27940000D01*
X-1527500Y-27938667D01*
X-1527500Y-25400000D01*
X-1055583Y-25400000D01*
X-1035301Y-25605932D01*
X-1035300Y-25605934D01*
X-975232Y-25803954D01*
X-877685Y-25986450D01*
X-877683Y-25986452D01*
X-746411Y-26146410D01*
X-649791Y-26225702D01*
X-586450Y-26277685D01*
X-403954Y-26375232D01*
X-205934Y-26435300D01*
X-205935Y-26435300D01*
X-185653Y-26437297D01*
X0Y-26455583D01*
X205934Y-26435300D01*
X403954Y-26375232D01*
X586450Y-26277685D01*
X746410Y-26146410D01*
X877685Y-25986450D01*
X975232Y-25803954D01*
X1035300Y-25605934D01*
X1055583Y-25400000D01*
X1035300Y-25194066D01*
X975232Y-24996046D01*
X877685Y-24813550D01*
X825702Y-24750209D01*
X746410Y-24653589D01*
X586452Y-24522317D01*
X586453Y-24522317D01*
X586450Y-24522315D01*
X403954Y-24424768D01*
X205934Y-24364700D01*
X205932Y-24364699D01*
X205934Y-24364699D01*
X18463Y-24346235D01*
X0Y-24344417D01*
X-1Y-24344417D01*
X-205933Y-24364699D01*
X-403957Y-24424769D01*
X-514102Y-24483643D01*
X-586450Y-24522315D01*
X-586452Y-24522316D01*
X-586453Y-24522317D01*
X-746411Y-24653589D01*
X-877683Y-24813547D01*
X-975231Y-24996043D01*
X-1035301Y-25194067D01*
X-1055583Y-25400000D01*
X-1527500Y-25400000D01*
X-1527500Y-22860000D01*
X-1055583Y-22860000D01*
X-1035301Y-23065932D01*
X-1035300Y-23065934D01*
X-975232Y-23263954D01*
X-877685Y-23446450D01*
X-877683Y-23446452D01*
X-746411Y-23606410D01*
X-649791Y-23685702D01*
X-586450Y-23737685D01*
X-403954Y-23835232D01*
X-205934Y-23895300D01*
X-205935Y-23895300D01*
X-185653Y-23897297D01*
X0Y-23915583D01*
X205934Y-23895300D01*
X403954Y-23835232D01*
X586450Y-23737685D01*
X746410Y-23606410D01*
X877685Y-23446450D01*
X975232Y-23263954D01*
X1035300Y-23065934D01*
X1055583Y-22860000D01*
X1035300Y-22654066D01*
X975232Y-22456046D01*
X877685Y-22273550D01*
X825702Y-22210209D01*
X746410Y-22113589D01*
X586452Y-21982317D01*
X586453Y-21982317D01*
X586450Y-21982315D01*
X403954Y-21884768D01*
X205934Y-21824700D01*
X205932Y-21824699D01*
X205934Y-21824699D01*
X18463Y-21806235D01*
X0Y-21804417D01*
X-1Y-21804417D01*
X-205933Y-21824699D01*
X-403957Y-21884769D01*
X-514102Y-21943643D01*
X-586450Y-21982315D01*
X-586452Y-21982316D01*
X-586453Y-21982317D01*
X-746411Y-22113589D01*
X-877683Y-22273547D01*
X-975231Y-22456043D01*
X-1035301Y-22654067D01*
X-1055583Y-22860000D01*
X-1527500Y-22860000D01*
X-1527500Y-17780000D01*
X-1055583Y-17780000D01*
X-1035301Y-17985932D01*
X-1035300Y-17985934D01*
X-975232Y-18183954D01*
X-877685Y-18366450D01*
X-877683Y-18366452D01*
X-746411Y-18526410D01*
X-649791Y-18605702D01*
X-586450Y-18657685D01*
X-403954Y-18755232D01*
X-205934Y-18815300D01*
X-205935Y-18815300D01*
X-185652Y-18817297D01*
X0Y-18835583D01*
X205934Y-18815300D01*
X403954Y-18755232D01*
X586450Y-18657685D01*
X746410Y-18526410D01*
X877685Y-18366450D01*
X975232Y-18183954D01*
X1035300Y-17985934D01*
X1055583Y-17780000D01*
X1035300Y-17574066D01*
X975232Y-17376046D01*
X877685Y-17193550D01*
X825702Y-17130209D01*
X746410Y-17033589D01*
X586452Y-16902317D01*
X586453Y-16902317D01*
X586450Y-16902315D01*
X403954Y-16804768D01*
X205934Y-16744700D01*
X205932Y-16744699D01*
X205934Y-16744699D01*
X0Y-16724417D01*
X-205933Y-16744699D01*
X-403957Y-16804769D01*
X-514102Y-16863643D01*
X-586450Y-16902315D01*
X-586452Y-16902316D01*
X-586453Y-16902317D01*
X-746411Y-17033589D01*
X-877683Y-17193547D01*
X-975231Y-17376043D01*
X-1035301Y-17574067D01*
X-1055583Y-17780000D01*
X-1527500Y-17780000D01*
X-1527500Y-15239999D01*
X-1055583Y-15239999D01*
X-1035301Y-15445932D01*
X-1035300Y-15445934D01*
X-975232Y-15643954D01*
X-877685Y-15826450D01*
X-877683Y-15826452D01*
X-746411Y-15986410D01*
X-649791Y-16065702D01*
X-586450Y-16117685D01*
X-403954Y-16215232D01*
X-205934Y-16275300D01*
X-205935Y-16275300D01*
X-187471Y-16277118D01*
X0Y-16295583D01*
X205934Y-16275300D01*
X403954Y-16215232D01*
X586450Y-16117685D01*
X746410Y-15986410D01*
X877685Y-15826450D01*
X975232Y-15643954D01*
X1035300Y-15445934D01*
X1055583Y-15240000D01*
X1035300Y-15034066D01*
X975232Y-14836046D01*
X877685Y-14653550D01*
X825702Y-14590209D01*
X746410Y-14493589D01*
X586452Y-14362317D01*
X586453Y-14362317D01*
X586450Y-14362315D01*
X403954Y-14264768D01*
X205934Y-14204700D01*
X205932Y-14204699D01*
X205934Y-14204699D01*
X18463Y-14186235D01*
X0Y-14184417D01*
X-1Y-14184417D01*
X-205933Y-14204699D01*
X-403957Y-14264769D01*
X-514102Y-14323643D01*
X-586450Y-14362315D01*
X-586452Y-14362316D01*
X-586453Y-14362317D01*
X-746411Y-14493589D01*
X-877683Y-14653547D01*
X-975231Y-14836043D01*
X-1035301Y-15034067D01*
X-1055583Y-15239999D01*
X-1527500Y-15239999D01*
X-1527500Y-12700000D01*
X-1055583Y-12700000D01*
X-1035301Y-12905932D01*
X-1035300Y-12905934D01*
X-975232Y-13103954D01*
X-877685Y-13286450D01*
X-877683Y-13286452D01*
X-746411Y-13446410D01*
X-649791Y-13525702D01*
X-586450Y-13577685D01*
X-403954Y-13675232D01*
X-205934Y-13735300D01*
X-205935Y-13735300D01*
X-185653Y-13737297D01*
X0Y-13755583D01*
X205934Y-13735300D01*
X403954Y-13675232D01*
X586450Y-13577685D01*
X746410Y-13446410D01*
X877685Y-13286450D01*
X975232Y-13103954D01*
X1035300Y-12905934D01*
X1055583Y-12700000D01*
X1035300Y-12494066D01*
X975232Y-12296046D01*
X877685Y-12113550D01*
X825702Y-12050209D01*
X746410Y-11953589D01*
X586452Y-11822317D01*
X586453Y-11822317D01*
X586450Y-11822315D01*
X403954Y-11724768D01*
X205934Y-11664700D01*
X205932Y-11664699D01*
X205934Y-11664699D01*
X0Y-11644417D01*
X-205933Y-11664699D01*
X-403957Y-11724769D01*
X-514102Y-11783643D01*
X-586450Y-11822315D01*
X-586452Y-11822316D01*
X-586453Y-11822317D01*
X-746411Y-11953589D01*
X-877683Y-12113547D01*
X-975231Y-12296043D01*
X-1035301Y-12494067D01*
X-1055583Y-12700000D01*
X-1527500Y-12700000D01*
X-1527500Y-5079999D01*
X-1055583Y-5079999D01*
X-1035301Y-5285932D01*
X-1035300Y-5285934D01*
X-975232Y-5483954D01*
X-877685Y-5666450D01*
X-877683Y-5666452D01*
X-746411Y-5826410D01*
X-649791Y-5905702D01*
X-586450Y-5957685D01*
X-403954Y-6055232D01*
X-205934Y-6115300D01*
X-205935Y-6115300D01*
X-187471Y-6117118D01*
X0Y-6135583D01*
X205934Y-6115300D01*
X403954Y-6055232D01*
X586450Y-5957685D01*
X746410Y-5826410D01*
X877685Y-5666450D01*
X975232Y-5483954D01*
X1035300Y-5285934D01*
X1055583Y-5080000D01*
X1035300Y-4874066D01*
X975232Y-4676046D01*
X877685Y-4493550D01*
X825702Y-4430209D01*
X746410Y-4333589D01*
X586452Y-4202317D01*
X586453Y-4202317D01*
X586450Y-4202315D01*
X403954Y-4104768D01*
X205934Y-4044700D01*
X205932Y-4044699D01*
X205934Y-4044699D01*
X18463Y-4026235D01*
X0Y-4024417D01*
X-1Y-4024417D01*
X-205933Y-4044699D01*
X-403957Y-4104769D01*
X-514102Y-4163643D01*
X-586450Y-4202315D01*
X-586452Y-4202316D01*
X-586453Y-4202317D01*
X-746411Y-4333589D01*
X-877683Y-4493547D01*
X-975231Y-4676043D01*
X-1035301Y-4874067D01*
X-1055583Y-5079999D01*
X-1527500Y-5079999D01*
X-1527500Y-465701D01*
X-1050500Y-465701D01*
X-1047599Y-502567D01*
X-1047598Y-502573D01*
X-1001746Y-660393D01*
X-1001745Y-660396D01*
X-1001744Y-660398D01*
X-964319Y-723681D01*
X-918083Y-801862D01*
X-918077Y-801870D01*
X-801871Y-918076D01*
X-801867Y-918079D01*
X-801865Y-918081D01*
X-660398Y-1001744D01*
X-618776Y-1013836D01*
X-502574Y-1047597D01*
X-502571Y-1047597D01*
X-502569Y-1047598D01*
X-465694Y-1050500D01*
X-465686Y-1050500D01*
X465686Y-1050500D01*
X465694Y-1050500D01*
X502569Y-1047598D01*
X502571Y-1047597D01*
X502573Y-1047597D01*
X544191Y-1035505D01*
X660398Y-1001744D01*
X801865Y-918081D01*
X918081Y-801865D01*
X1001744Y-660398D01*
X1047598Y-502569D01*
X1050500Y-465694D01*
X1050500Y465694D01*
X1047598Y502569D01*
X1001744Y660398D01*
X918081Y801865D01*
X918079Y801867D01*
X918076Y801871D01*
X801870Y918077D01*
X801862Y918083D01*
X660396Y1001745D01*
X660393Y1001746D01*
X502573Y1047598D01*
X502567Y1047599D01*
X465701Y1050500D01*
X465694Y1050500D01*
X-465694Y1050500D01*
X-465702Y1050500D01*
X-502568Y1047599D01*
X-502574Y1047598D01*
X-660394Y1001746D01*
X-660397Y1001745D01*
X-801863Y918083D01*
X-801871Y918077D01*
X-918077Y801871D01*
X-918083Y801863D01*
X-1001745Y660397D01*
X-1001746Y660394D01*
X-1047598Y502574D01*
X-1047599Y502568D01*
X-1050500Y465702D01*
X-1050500Y-465701D01*
X-1527500Y-465701D01*
X-1527500Y-1877D01*
X-1527387Y1867D01*
X-1510496Y281109D01*
X-1509592Y288548D01*
X-1459505Y561865D01*
X-1457712Y569141D01*
X-1429276Y660394D01*
X-1375038Y834450D01*
X-1372395Y841417D01*
X-1258342Y1094831D01*
X-1254870Y1101446D01*
X-1111107Y1339255D01*
X-1106855Y1345414D01*
X-1073756Y1387661D01*
X-935479Y1564157D01*
X-930520Y1569753D01*
X-734033Y1766238D01*
X-728424Y1771207D01*
X-549263Y1911569D01*
X-509681Y1942580D01*
X-503539Y1946819D01*
X-265713Y2090587D01*
X-259108Y2094054D01*
X-5699Y2208101D01*
X1297Y2210753D01*
X266594Y2293420D01*
X273861Y2295212D01*
X547180Y2345297D01*
X554610Y2346199D01*
X834389Y2363119D01*
X838133Y2363232D01*
X931253Y2363232D01*
X931262Y2363233D01*
X1524000Y2363233D01*
X1524000Y-2230887D01*
G37*
%TD.AperFunction*%
%TD*%
M02*
