%TF.GenerationSoftware,KiCad,Pcbnew,8.0.7*%
%TF.CreationDate,2025-01-03T11:22:39+02:00*%
%TF.ProjectId,Clock Hold Standard,436c6f63-6b20-4486-9f6c-64205374616e,V0*%
%TF.SameCoordinates,Original*%
%TF.FileFunction,Copper,L1,Top*%
%TF.FilePolarity,Positive*%
%FSLAX46Y46*%
G04 Gerber Fmt 4.6, Leading zero omitted, Abs format (unit mm)*
G04 Created by KiCad (PCBNEW 8.0.7) date 2025-01-03 11:22:39*
%MOMM*%
%LPD*%
G01*
G04 APERTURE LIST*
G04 Aperture macros list*
%AMRoundRect*
0 Rectangle with rounded corners*
0 $1 Rounding radius*
0 $2 $3 $4 $5 $6 $7 $8 $9 X,Y pos of 4 corners*
0 Add a 4 corners polygon primitive as box body*
4,1,4,$2,$3,$4,$5,$6,$7,$8,$9,$2,$3,0*
0 Add four circle primitives for the rounded corners*
1,1,$1+$1,$2,$3*
1,1,$1+$1,$4,$5*
1,1,$1+$1,$6,$7*
1,1,$1+$1,$8,$9*
0 Add four rect primitives between the rounded corners*
20,1,$1+$1,$2,$3,$4,$5,0*
20,1,$1+$1,$4,$5,$6,$7,0*
20,1,$1+$1,$6,$7,$8,$9,0*
20,1,$1+$1,$8,$9,$2,$3,0*%
G04 Aperture macros list end*
%TA.AperFunction,SMDPad,CuDef*%
%ADD10RoundRect,0.250000X-0.475000X0.250000X-0.475000X-0.250000X0.475000X-0.250000X0.475000X0.250000X0*%
%TD*%
%TA.AperFunction,SMDPad,CuDef*%
%ADD11RoundRect,0.250000X-0.250000X-0.475000X0.250000X-0.475000X0.250000X0.475000X-0.250000X0.475000X0*%
%TD*%
%TA.AperFunction,SMDPad,CuDef*%
%ADD12R,1.150000X0.600000*%
%TD*%
%TA.AperFunction,ComponentPad*%
%ADD13RoundRect,0.400000X-0.400000X-0.400000X0.400000X-0.400000X0.400000X0.400000X-0.400000X0.400000X0*%
%TD*%
%TA.AperFunction,ComponentPad*%
%ADD14O,1.600000X1.600000*%
%TD*%
%TA.AperFunction,ComponentPad*%
%ADD15R,1.600000X1.600000*%
%TD*%
%TA.AperFunction,SMDPad,CuDef*%
%ADD16R,0.950000X0.450000*%
%TD*%
%TA.AperFunction,SMDPad,CuDef*%
%ADD17R,1.475000X0.450000*%
%TD*%
%TA.AperFunction,SMDPad,CuDef*%
%ADD18RoundRect,0.250000X0.250000X0.475000X-0.250000X0.475000X-0.250000X-0.475000X0.250000X-0.475000X0*%
%TD*%
%TA.AperFunction,SMDPad,CuDef*%
%ADD19RoundRect,0.250000X0.475000X-0.250000X0.475000X0.250000X-0.475000X0.250000X-0.475000X-0.250000X0*%
%TD*%
%TA.AperFunction,SMDPad,CuDef*%
%ADD20R,0.900000X0.450000*%
%TD*%
%TA.AperFunction,SMDPad,CuDef*%
%ADD21R,1.800000X0.450000*%
%TD*%
%TA.AperFunction,ViaPad*%
%ADD22C,0.800000*%
%TD*%
%TA.AperFunction,Conductor*%
%ADD23C,0.380000*%
%TD*%
%TA.AperFunction,Conductor*%
%ADD24C,0.250000*%
%TD*%
%TA.AperFunction,Conductor*%
%ADD25C,0.200000*%
%TD*%
G04 APERTURE END LIST*
D10*
%TO.P,C4,1*%
%TO.N,5V*%
X13081000Y-23323000D03*
%TO.P,C4,2*%
%TO.N,GND*%
X13081000Y-25223000D03*
%TD*%
D11*
%TO.P,C10,1*%
%TO.N,5V*%
X11004000Y-2794000D03*
%TO.P,C10,2*%
%TO.N,GND*%
X12904000Y-2794000D03*
%TD*%
D12*
%TO.P,IC1,1,6VIn*%
%TO.N,5V*%
X10384000Y1585000D03*
%TO.P,IC1,2,GND*%
%TO.N,GND*%
X10384000Y635000D03*
%TO.P,IC1,3,EN*%
%TO.N,5V*%
X10384000Y-315000D03*
%TO.P,IC1,4,ADJ*%
%TO.N,unconnected-(IC1-ADJ-Pad4)*%
X12984000Y-315000D03*
%TO.P,IC1,5,3.3VOut*%
%TO.N,3.3V*%
X12984000Y1585000D03*
%TD*%
D13*
%TO.P,J1,1,Pin_1*%
%TO.N,5V*%
X0Y0D03*
D14*
%TO.P,J1,2,Pin_2*%
%TO.N,~{Device RAM}*%
X0Y-2540000D03*
%TO.P,J1,3,Pin_3*%
%TO.N,~{Device Registers}*%
X0Y-5080000D03*
D15*
%TO.P,J1,4,Pin_4*%
%TO.N,GND*%
X0Y-7620000D03*
D14*
%TO.P,J1,5,Pin_5*%
%TO.N,~{Device ROM}*%
X0Y-10160000D03*
%TO.P,J1,6,Pin_6*%
%TO.N,H2_{REG}*%
X0Y-12700000D03*
%TO.P,J1,7,Pin_7*%
%TO.N,H1_{REG}*%
X0Y-15240000D03*
%TO.P,J1,8,Pin_8*%
%TO.N,H0_{REG}*%
X0Y-17780000D03*
D15*
%TO.P,J1,9,Pin_9*%
%TO.N,GND*%
X0Y-20320000D03*
D14*
%TO.P,J1,10,Pin_10*%
%TO.N,~{RD}*%
X0Y-22860000D03*
%TO.P,J1,11,Pin_11*%
%TO.N,~{Device Select}*%
X0Y-25400000D03*
%TO.P,J1,12,Pin_12*%
%TO.N,~{WD}*%
X0Y-27940000D03*
D13*
%TO.P,J1,13,Pin_13*%
%TO.N,5V*%
X15240000Y-27940000D03*
D14*
%TO.P,J1,14,Pin_14*%
%TO.N,unconnected-(J1-Pin_14-Pad14)*%
X15240000Y-25400000D03*
%TO.P,J1,15,Pin_15*%
%TO.N,unconnected-(J1-Pin_15-Pad15)*%
X15240000Y-22860000D03*
D15*
%TO.P,J1,16,Pin_16*%
%TO.N,GND*%
X15240000Y-20320000D03*
D14*
%TO.P,J1,17,Pin_17*%
%TO.N,H0_{OUT}*%
X15240000Y-17780000D03*
%TO.P,J1,18,Pin_18*%
%TO.N,H1_{OUT}*%
X15240000Y-15240000D03*
%TO.P,J1,19,Pin_19*%
%TO.N,H2_{OUT}*%
X15240000Y-12700000D03*
%TO.P,J1,20,Pin_20*%
%TO.N,unconnected-(J1-Pin_20-Pad20)*%
X15240000Y-10160000D03*
D15*
%TO.P,J1,21,Pin_21*%
%TO.N,GND*%
X15240000Y-7620000D03*
D14*
%TO.P,J1,22,Pin_22*%
%TO.N,unconnected-(J1-Pin_22-Pad22)*%
X15240000Y-5080000D03*
%TO.P,J1,23,Pin_23*%
%TO.N,unconnected-(J1-Pin_23-Pad23)*%
X15240000Y-2540000D03*
%TO.P,J1,24,Pin_24*%
%TO.N,3.3V*%
X15240000Y0D03*
%TD*%
D16*
%TO.P,IC3,1,1A*%
%TO.N,~{Device RAM}*%
X2343000Y1610000D03*
%TO.P,IC3,2,1B*%
%TO.N,~{RD}*%
X2343000Y960000D03*
%TO.P,IC3,3,2Y*%
%TO.N,/~{RAM}+~{WD}*%
X2343000Y310000D03*
%TO.P,IC3,4,GND*%
%TO.N,GND*%
X2343000Y-340000D03*
%TO.P,IC3,5,2A*%
%TO.N,~{Device RAM}*%
X6293000Y-340000D03*
%TO.P,IC3,6,2B*%
%TO.N,~{WD}*%
X6293000Y310000D03*
%TO.P,IC3,7,1Y*%
%TO.N,/~{RAM}+~{RD}*%
X6293000Y960000D03*
%TO.P,IC3,8,3V*%
%TO.N,3.3V*%
X6293000Y1610000D03*
%TD*%
D17*
%TO.P,IC2,1,~{1OE}*%
%TO.N,/~{RAM}+~{RD}*%
X3793000Y-12442000D03*
%TO.P,IC2,2,1A0*%
%TO.N,GND*%
X3793000Y-13092000D03*
%TO.P,IC2,3,2Y0*%
%TO.N,/H2*%
X3793000Y-13742000D03*
%TO.P,IC2,4,1A1*%
%TO.N,GND*%
X3793000Y-14392000D03*
%TO.P,IC2,5,2Y1*%
%TO.N,/H1*%
X3793000Y-15042000D03*
%TO.P,IC2,6,1A2*%
%TO.N,3.3V*%
X3793000Y-15692000D03*
%TO.P,IC2,7,2Y2*%
%TO.N,/H0*%
X3793000Y-16342000D03*
%TO.P,IC2,8,1A3*%
%TO.N,GND*%
X3793000Y-16992000D03*
%TO.P,IC2,9,2Y3*%
%TO.N,unconnected-(IC2-2Y3-Pad9)*%
X3793000Y-17642000D03*
%TO.P,IC2,10,GND*%
%TO.N,GND*%
X3793000Y-18292000D03*
%TO.P,IC2,11,2A3*%
X9669000Y-18292000D03*
%TO.P,IC2,12,1Y3*%
%TO.N,unconnected-(IC2-1Y3-Pad12)*%
X9669000Y-17642000D03*
%TO.P,IC2,13,2A2*%
%TO.N,GND*%
X9669000Y-16992000D03*
%TO.P,IC2,14,1Y2*%
%TO.N,/H0*%
X9669000Y-16342000D03*
%TO.P,IC2,15,2A1*%
%TO.N,GND*%
X9669000Y-15692000D03*
%TO.P,IC2,16,1Y1*%
%TO.N,/H1*%
X9669000Y-15042000D03*
%TO.P,IC2,17,2A0*%
%TO.N,GND*%
X9669000Y-14392000D03*
%TO.P,IC2,18,1Y0*%
%TO.N,/H2*%
X9669000Y-13742000D03*
%TO.P,IC2,19,~{2OE}*%
%TO.N,/~{RAM}+~{WD}*%
X9669000Y-13092000D03*
%TO.P,IC2,20,3V*%
%TO.N,3.3V*%
X9669000Y-12442000D03*
%TD*%
D18*
%TO.P,C2,1*%
%TO.N,3.3V*%
X6268000Y-2921000D03*
%TO.P,C2,2*%
%TO.N,GND*%
X4368000Y-2921000D03*
%TD*%
D19*
%TO.P,C11,1*%
%TO.N,3.3V*%
X8128000Y-934000D03*
%TO.P,C11,2*%
%TO.N,GND*%
X8128000Y966000D03*
%TD*%
D17*
%TO.P,IC5,1,~{1OE}*%
%TO.N,~{Device Registers}*%
X4301000Y-4568000D03*
%TO.P,IC5,2,1A0*%
%TO.N,H2_{REG}*%
X4301000Y-5218000D03*
%TO.P,IC5,3,2Y0*%
%TO.N,/H2*%
X4301000Y-5868000D03*
%TO.P,IC5,4,1A1*%
%TO.N,H1_{REG}*%
X4301000Y-6518000D03*
%TO.P,IC5,5,2Y1*%
%TO.N,/H1*%
X4301000Y-7168000D03*
%TO.P,IC5,6,1A2*%
%TO.N,H0_{REG}*%
X4301000Y-7818000D03*
%TO.P,IC5,7,2Y2*%
%TO.N,/H0*%
X4301000Y-8468000D03*
%TO.P,IC5,8,1A3*%
%TO.N,GND*%
X4301000Y-9118000D03*
%TO.P,IC5,9,2Y3*%
%TO.N,unconnected-(IC5-2Y3-Pad9)*%
X4301000Y-9768000D03*
%TO.P,IC5,10,GND*%
%TO.N,GND*%
X4301000Y-10418000D03*
%TO.P,IC5,11,2A3*%
X10177000Y-10418000D03*
%TO.P,IC5,12,1Y3*%
%TO.N,unconnected-(IC5-1Y3-Pad12)*%
X10177000Y-9768000D03*
%TO.P,IC5,13,2A2*%
%TO.N,3.3V*%
X10177000Y-9118000D03*
%TO.P,IC5,14,1Y2*%
%TO.N,/H0*%
X10177000Y-8468000D03*
%TO.P,IC5,15,2A1*%
%TO.N,3.3V*%
X10177000Y-7818000D03*
%TO.P,IC5,16,1Y1*%
%TO.N,/H1*%
X10177000Y-7168000D03*
%TO.P,IC5,17,2A0*%
%TO.N,GND*%
X10177000Y-6518000D03*
%TO.P,IC5,18,1Y0*%
%TO.N,/H2*%
X10177000Y-5868000D03*
%TO.P,IC5,19,~{2OE}*%
%TO.N,~{Device ROM}*%
X10177000Y-5218000D03*
%TO.P,IC5,20,3V*%
%TO.N,3.3V*%
X10177000Y-4568000D03*
%TD*%
D20*
%TO.P,RN1,1,R1*%
%TO.N,/H0*%
X11596000Y-18846800D03*
%TO.P,RN1,2,R2*%
%TO.N,/H1*%
X11596000Y-19646800D03*
%TO.P,RN1,3,R3*%
%TO.N,/H2*%
X11596000Y-20446800D03*
%TO.P,RN1,4,R4*%
%TO.N,unconnected-(RN1-R4-Pad4)*%
X11596000Y-21246800D03*
%TO.P,RN1,5,R4*%
%TO.N,unconnected-(RN1-R4-Pad5)*%
X13296000Y-21246800D03*
%TO.P,RN1,6,R3*%
%TO.N,3.3V*%
X13296000Y-20446800D03*
%TO.P,RN1,7,R2*%
X13296000Y-19646800D03*
%TO.P,RN1,8,R1*%
X13296000Y-18846800D03*
%TD*%
D10*
%TO.P,C1,1*%
%TO.N,3.3V*%
X11684000Y-12401000D03*
%TO.P,C1,2*%
%TO.N,GND*%
X11684000Y-14301000D03*
%TD*%
D21*
%TO.P,IC4,1,DIR*%
%TO.N,GND*%
X3816000Y-23237000D03*
%TO.P,IC4,2,A0*%
%TO.N,H0_{OUT}*%
X3816000Y-23887000D03*
%TO.P,IC4,3,A1*%
%TO.N,H1_{OUT}*%
X3816000Y-24537000D03*
%TO.P,IC4,4,A2*%
%TO.N,H2_{OUT}*%
X3816000Y-25187000D03*
%TO.P,IC4,5,A3*%
%TO.N,unconnected-(IC4-A3-Pad5)*%
X3816000Y-25837000D03*
%TO.P,IC4,6,A4*%
%TO.N,unconnected-(IC4-A4-Pad6)*%
X3816000Y-26487000D03*
%TO.P,IC4,7,A5*%
%TO.N,unconnected-(IC4-A5-Pad7)*%
X3816000Y-27137000D03*
%TO.P,IC4,8,A6*%
%TO.N,unconnected-(IC4-A6-Pad8)*%
X3816000Y-27787000D03*
%TO.P,IC4,9,A7*%
%TO.N,unconnected-(IC4-A7-Pad9)*%
X3816000Y-28437000D03*
%TO.P,IC4,10,GND*%
%TO.N,GND*%
X3816000Y-29087000D03*
%TO.P,IC4,11,B7*%
X10916000Y-29087000D03*
%TO.P,IC4,12,B6*%
X10916000Y-28437000D03*
%TO.P,IC4,13,B5*%
X10916000Y-27787000D03*
%TO.P,IC4,14,B4*%
X10916000Y-27137000D03*
%TO.P,IC4,15,B3*%
X10916000Y-26487000D03*
%TO.P,IC4,16,B2*%
%TO.N,/H2*%
X10916000Y-25837000D03*
%TO.P,IC4,17,B1*%
%TO.N,/H1*%
X10916000Y-25187000D03*
%TO.P,IC4,18,B0*%
%TO.N,/H0*%
X10916000Y-24537000D03*
%TO.P,IC4,19,~{OE}*%
%TO.N,~{Device Select}*%
X10916000Y-23887000D03*
%TO.P,IC4,20,5V*%
%TO.N,5V*%
X10916000Y-23237000D03*
%TD*%
D22*
%TO.N,3.3V*%
X6223081Y1965987D03*
X11433536Y-11208000D03*
X12646002Y-19685000D03*
X5334000Y-21853024D03*
X9017000Y-1143005D03*
X11430000Y-4572000D03*
X1778000Y-19050000D03*
X11557000Y-9017000D03*
%TO.N,GND*%
X11176000Y-13589000D03*
X9398000Y-28437000D03*
X11188750Y731270D03*
X6889402Y-4405139D03*
X3125995Y-10417995D03*
X2354139Y-1023909D03*
X3175000Y-19558000D03*
X2921000Y-3175000D03*
X12898500Y-24785240D03*
X10160000Y-10922000D03*
X5008224Y-23137970D03*
X7826096Y-6468000D03*
X12446004Y-10414000D03*
X12202701Y-2968843D03*
X8128004Y165500D03*
%TO.N,5V*%
X3345000Y-889000D03*
X11557000Y1778000D03*
X11817439Y-2046033D03*
X13969982Y-24130004D03*
%TO.N,/~{RAM}+~{RD}*%
X4953000Y1000003D03*
X5399000Y-12319000D03*
%TO.N,/H0*%
X8698244Y-25309804D03*
X7747000Y-16129000D03*
X7747000Y-19685000D03*
X8066004Y-8509002D03*
%TO.N,/H1*%
X8075226Y-26092015D03*
X6894561Y-20326448D03*
X7360815Y-7613776D03*
X7065016Y-15182000D03*
%TO.N,/H2*%
X7366000Y-26797000D03*
X6218202Y-21063024D03*
X6539000Y-13555750D03*
X6604000Y-6223000D03*
%TO.N,/~{RAM}+~{WD}*%
X8465016Y-13098934D03*
X8242115Y-3441885D03*
%TO.N,~{WD}*%
X5433831Y-19268346D03*
X4952213Y-784D03*
%TO.N,~{RD}*%
X4318000Y-19558000D03*
X3491000Y381000D03*
%TO.N,~{Device Select}*%
X5334000Y-26162000D03*
%TO.N,H0_{OUT}*%
X10075933Y-22380000D03*
X12615199Y-17304701D03*
%TO.N,H1_{OUT}*%
X9276684Y-23034000D03*
X12806551Y-16299653D03*
%TO.N,H2_{OUT}*%
X11684005Y-16128990D03*
X8294561Y-23733586D03*
%TO.N,~{Device ROM}*%
X1651000Y-4064000D03*
%TD*%
D23*
%TO.N,3.3V*%
X6223081Y1679919D02*
X6293000Y1610000D01*
X13296000Y-18846800D02*
X13296000Y-19646800D01*
X12984000Y1585000D02*
X12984000Y919000D01*
X12446000Y-21704800D02*
X12446000Y-20847800D01*
X6223081Y1965987D02*
X6223081Y1679919D01*
X5334000Y-21853024D02*
X6545431Y-21853024D01*
X11672995Y-1143005D02*
X9017000Y-1143005D01*
X2675500Y-15692000D02*
X1778000Y-16589500D01*
X8251000Y-4568000D02*
X10177000Y-4568000D01*
X12984000Y919000D02*
X12440000Y375000D01*
X12847000Y-20446800D02*
X13296000Y-20446800D01*
X8807995Y-934000D02*
X9017000Y-1143005D01*
X10541000Y-21590000D02*
X10909800Y-21958800D01*
X13296000Y-19646800D02*
X13296000Y-20446800D01*
X12192000Y-21958800D02*
X12446000Y-21704800D01*
X11294500Y-7818000D02*
X11304500Y-7828000D01*
X9669000Y-12442000D02*
X11643000Y-12442000D01*
X12440000Y375000D02*
X12019000Y375000D01*
X3793000Y-15692000D02*
X2675500Y-15692000D01*
X12019000Y375000D02*
X11672995Y28995D01*
X11294500Y-9118000D02*
X10177000Y-9118000D01*
X6604000Y-2921000D02*
X8251000Y-4568000D01*
X12646002Y-19685000D02*
X13257800Y-19685000D01*
X6808455Y-21590000D02*
X10541000Y-21590000D01*
X6545431Y-21853024D02*
X6808455Y-21590000D01*
X11433536Y-12150536D02*
X11433536Y-11208000D01*
X12446000Y-20847800D02*
X12847000Y-20446800D01*
X6268000Y-2921000D02*
X6604000Y-2921000D01*
X10177000Y-7818000D02*
X11294500Y-7818000D01*
X11304500Y-7828000D02*
X11304500Y-9108000D01*
X8128000Y-934000D02*
X8807995Y-934000D01*
X11672995Y28995D02*
X11672995Y-1143005D01*
X11430000Y-4572000D02*
X10181000Y-4572000D01*
X11304500Y-9108000D02*
X11294500Y-9118000D01*
X10909800Y-21958800D02*
X12192000Y-21958800D01*
X12984000Y919000D02*
X14321000Y919000D01*
X1778000Y-16589500D02*
X1778000Y-19050000D01*
X14321000Y919000D02*
X15240000Y0D01*
%TO.N,GND*%
X8128000Y966000D02*
X8128000Y165504D01*
X2413000Y-23385000D02*
X2413000Y-28939000D01*
X3793000Y-16992000D02*
X2675500Y-16992000D01*
X3793000Y-14392000D02*
X9669000Y-14392000D01*
X13081000Y-25223000D02*
X13081000Y-27940000D01*
X2665500Y-17002000D02*
X2665500Y-18282000D01*
X11684000Y-14301000D02*
X11176000Y-13793000D01*
X11684000Y-14986000D02*
X11684000Y-14301000D01*
X2413000Y-28939000D02*
X2561000Y-29087000D01*
X7366000Y-11611521D02*
X7366000Y-10418000D01*
X5428500Y-9153000D02*
X5393500Y-9118000D01*
X10916000Y-28437000D02*
X9398000Y-28437000D01*
X11934000Y-29087000D02*
X10916000Y-29087000D01*
X11593000Y-14392000D02*
X9669000Y-14392000D01*
X15240000Y-20320000D02*
X15240000Y-19558000D01*
X5853806Y-13123715D02*
X7366000Y-11611521D01*
X5428500Y-10408000D02*
X5428500Y-9153000D01*
X10916000Y-28437000D02*
X10916000Y-27787000D01*
X5393500Y-9118000D02*
X4301000Y-9118000D01*
D24*
X4699000Y-2921000D02*
X6183139Y-4405139D01*
D23*
X2343000Y-1012770D02*
X2354139Y-1023909D01*
X2675500Y-14392000D02*
X2665500Y-14382000D01*
X13081000Y-27940000D02*
X11934000Y-29087000D01*
X15240000Y-7620004D02*
X12446004Y-10414000D01*
X7876096Y-6518000D02*
X7826096Y-6468000D01*
X2413000Y-20320000D02*
X3175000Y-19558000D01*
X2675500Y-16992000D02*
X2665500Y-17002000D01*
X10916000Y-26487000D02*
X10916000Y-27137000D01*
X10160000Y-10435000D02*
X10160000Y-10922000D01*
X13081000Y-11048996D02*
X12446004Y-10414000D01*
X9669000Y-16992000D02*
X10786500Y-16992000D01*
X12442004Y-10418000D02*
X12446004Y-10414000D01*
X0Y-20320000D02*
X2413000Y-20320000D01*
X10916000Y-27787000D02*
X10916000Y-27137000D01*
X10384000Y635000D02*
X11092480Y635000D01*
X2561000Y-29087000D02*
X3816000Y-29087000D01*
X4909194Y-23237000D02*
X3816000Y-23237000D01*
X13843000Y-18161000D02*
X10917500Y-18161000D01*
X4301000Y-10418000D02*
X3126000Y-10418000D01*
X10796500Y-16982000D02*
X10796500Y-18282000D01*
X10796500Y-18282000D02*
X10786500Y-18292000D01*
X11684000Y-14301000D02*
X13081000Y-12904000D01*
X3816000Y-29087000D02*
X10916000Y-29087000D01*
X11092480Y635000D02*
X11188750Y731270D01*
X5008224Y-23137970D02*
X4909194Y-23237000D01*
X12904000Y-5284000D02*
X12904000Y-2794000D01*
X13081000Y-24967740D02*
X12898500Y-24785240D01*
X12377544Y-2794000D02*
X12202701Y-2968843D01*
X5418500Y-10418000D02*
X5428500Y-10408000D01*
X10917500Y-18161000D02*
X10796500Y-18282000D01*
X10177000Y-6518000D02*
X7876096Y-6518000D01*
X3175000Y-2921000D02*
X2921000Y-3175000D01*
X8128000Y165504D02*
X8128004Y165500D01*
X2675500Y-18292000D02*
X3793000Y-18292000D01*
X2700500Y-13092000D02*
X3793000Y-13092000D01*
X10796500Y-16982000D02*
X10796500Y-15873500D01*
X9669000Y-18292000D02*
X3793000Y-18292000D01*
X2665500Y-18282000D02*
X2675500Y-18292000D01*
X10177000Y-10418000D02*
X12442004Y-10418000D01*
X2665500Y-13127000D02*
X2700500Y-13092000D01*
X3793000Y-18292000D02*
X3793000Y-18940000D01*
X10786500Y-18292000D02*
X9669000Y-18292000D01*
X2665500Y-14382000D02*
X2665500Y-13127000D01*
X10796500Y-15873500D02*
X10978000Y-15692000D01*
X7366000Y-10418000D02*
X10177000Y-10418000D01*
X3824715Y-13123715D02*
X5853806Y-13123715D01*
X12904000Y-2794000D02*
X12377544Y-2794000D01*
X4301000Y-10418000D02*
X5418500Y-10418000D01*
X13081000Y-12904000D02*
X13081000Y-11048996D01*
D24*
X6183139Y-4405139D02*
X6889402Y-4405139D01*
D23*
X3793000Y-14392000D02*
X2675500Y-14392000D01*
X3793000Y-18940000D02*
X3175000Y-19558000D01*
X10786500Y-16992000D02*
X10796500Y-16982000D01*
X2561000Y-23237000D02*
X2413000Y-23385000D01*
X4368000Y-2921000D02*
X3175000Y-2921000D01*
X15240000Y-19558000D02*
X13843000Y-18161000D01*
X9669000Y-15692000D02*
X10978000Y-15692000D01*
X10978000Y-15692000D02*
X11684000Y-14986000D01*
X10916000Y-29087000D02*
X10916000Y-28437000D01*
X5418500Y-10418000D02*
X7366000Y-10418000D01*
X15240000Y-7620000D02*
X12904000Y-5284000D01*
X3816000Y-23237000D02*
X2561000Y-23237000D01*
X3126000Y-10418000D02*
X3125995Y-10417995D01*
X3793000Y-16992000D02*
X9669000Y-16992000D01*
X11176000Y-13793000D02*
X11176000Y-13589000D01*
X2343000Y-340000D02*
X2343000Y-1012770D01*
%TO.N,5V*%
X10384000Y1585000D02*
X9679000Y1585000D01*
X11364000Y1585000D02*
X11557000Y1778000D01*
X11004000Y-2794000D02*
X11751967Y-2046033D01*
X16430000Y-26750000D02*
X16430000Y-1825000D01*
X8215788Y-2651885D02*
X6833903Y-1270000D01*
X13888004Y-24130004D02*
X13969982Y-24130004D01*
X9419000Y1325000D02*
X9419000Y-305000D01*
X9429000Y-315000D02*
X10384000Y-315000D01*
X12513472Y-1350000D02*
X11817439Y-2046033D01*
X15955000Y-1350000D02*
X12513472Y-1350000D01*
X6833903Y-1270000D02*
X3726000Y-1270000D01*
X10920000Y-23241000D02*
X12192000Y-23241000D01*
X3726000Y-1270000D02*
X3345000Y-889000D01*
X11751967Y-2046033D02*
X11817439Y-2046033D01*
X9679000Y1585000D02*
X9419000Y1325000D01*
X13208000Y-23450000D02*
X13888004Y-24130004D01*
X12274000Y-23323000D02*
X12192000Y-23241000D01*
X15240000Y-27940000D02*
X16430000Y-26750000D01*
X13081000Y-23323000D02*
X12274000Y-23323000D01*
X10384000Y1585000D02*
X11364000Y1585000D01*
X10861885Y-2651885D02*
X8215788Y-2651885D01*
X9419000Y-305000D02*
X9429000Y-315000D01*
X16430000Y-1825000D02*
X15955000Y-1350000D01*
D25*
%TO.N,~{Device RAM}*%
X3343000Y1610000D02*
X2343000Y1610000D01*
X1668000Y1610000D02*
X2343000Y1610000D01*
X6293000Y-340000D02*
X5871000Y-762000D01*
X1168000Y-1372000D02*
X1168000Y1110000D01*
X4191000Y-351791D02*
X4191000Y762000D01*
X5871000Y-762000D02*
X4601209Y-762000D01*
X4191000Y762000D02*
X3343000Y1610000D01*
X1168000Y1110000D02*
X1668000Y1610000D01*
X0Y-2540000D02*
X1168000Y-1372000D01*
X4601209Y-762000D02*
X4191000Y-351791D01*
%TO.N,/~{RAM}+~{RD}*%
X3793000Y-12442000D02*
X5276000Y-12442000D01*
X4993003Y960000D02*
X4953000Y1000003D01*
X5276000Y-12442000D02*
X5399000Y-12319000D01*
X6293000Y960000D02*
X4993003Y960000D01*
%TO.N,/H0*%
X3793000Y-16342000D02*
X7534000Y-16342000D01*
X10916000Y-24537000D02*
X9471048Y-24537000D01*
X9347200Y-18846800D02*
X8509000Y-19685000D01*
X9669000Y-16342000D02*
X7960000Y-16342000D01*
X8509000Y-19685000D02*
X7747000Y-19685000D01*
X7534000Y-16342000D02*
X7747000Y-16129000D01*
X10177000Y-8468000D02*
X8107006Y-8468000D01*
X7960000Y-16342000D02*
X7747000Y-16129000D01*
X8025002Y-8468000D02*
X8066004Y-8509002D01*
X8107006Y-8468000D02*
X8066004Y-8509002D01*
X4301000Y-8468000D02*
X8025002Y-8468000D01*
X9471048Y-24537000D02*
X8698244Y-25309804D01*
X11596000Y-18846800D02*
X9347200Y-18846800D01*
%TO.N,/H1*%
X7806591Y-7168000D02*
X7360815Y-7613776D01*
X9283150Y-19646800D02*
X8483950Y-20446000D01*
X6915039Y-7168000D02*
X7360815Y-7613776D01*
X10916000Y-25187000D02*
X9816000Y-25187000D01*
X7014113Y-20446000D02*
X6894561Y-20326448D01*
X6925016Y-15042000D02*
X7065016Y-15182000D01*
X11596000Y-19646800D02*
X9283150Y-19646800D01*
X10177000Y-7168000D02*
X7806591Y-7168000D01*
X8483950Y-20446000D02*
X7014113Y-20446000D01*
X4301000Y-7168000D02*
X6915039Y-7168000D01*
X3793000Y-15042000D02*
X6925016Y-15042000D01*
X7205016Y-15042000D02*
X7065016Y-15182000D01*
X8910985Y-26092015D02*
X8075226Y-26092015D01*
X9816000Y-25187000D02*
X8910985Y-26092015D01*
X9669000Y-15042000D02*
X7205016Y-15042000D01*
%TO.N,/H2*%
X6295816Y-13798934D02*
X6539000Y-13555750D01*
X9816000Y-25837000D02*
X8856000Y-26797000D01*
X9328886Y-20446800D02*
X8712662Y-21063024D01*
X10916000Y-25837000D02*
X9816000Y-25837000D01*
X7059000Y-5768000D02*
X6604000Y-6223000D01*
X11596000Y-20446800D02*
X9328886Y-20446800D01*
X6249000Y-5868000D02*
X6604000Y-6223000D01*
X3865934Y-13798934D02*
X6295816Y-13798934D01*
X8856000Y-26797000D02*
X7366000Y-26797000D01*
X9612066Y-13798934D02*
X6782184Y-13798934D01*
X10077000Y-5768000D02*
X7059000Y-5768000D01*
X4301000Y-5868000D02*
X6249000Y-5868000D01*
X6782184Y-13798934D02*
X6539000Y-13555750D01*
X8712662Y-21063024D02*
X6218202Y-21063024D01*
%TO.N,/~{RAM}+~{WD}*%
X8471950Y-13092000D02*
X8465016Y-13098934D01*
X6648939Y-1778000D02*
X8242115Y-3371176D01*
X9669000Y-13092000D02*
X8471950Y-13092000D01*
X1568000Y-1314000D02*
X2032000Y-1778000D01*
X1668000Y310000D02*
X1568000Y210000D01*
X8242115Y-3371176D02*
X8242115Y-3441885D01*
X2343000Y310000D02*
X1668000Y310000D01*
X2032000Y-1778000D02*
X6648939Y-1778000D01*
X1568000Y210000D02*
X1568000Y-1314000D01*
%TO.N,~{WD}*%
X5433831Y-19458169D02*
X5433831Y-19268346D01*
X1524000Y-26416000D02*
X1524000Y-23368000D01*
X1524000Y-23368000D02*
X5433831Y-19458169D01*
X5262997Y310000D02*
X4952213Y-784D01*
X6293000Y310000D02*
X5262997Y310000D01*
X0Y-27940000D02*
X1524000Y-26416000D01*
%TO.N,~{RD}*%
X4318000Y-19748500D02*
X4318000Y-19558000D01*
X0Y-22860000D02*
X1206500Y-22860000D01*
X2912000Y960000D02*
X3491000Y381000D01*
X1206500Y-22860000D02*
X4318000Y-19748500D01*
X2343000Y960000D02*
X2912000Y960000D01*
%TO.N,~{Device Select}*%
X6856098Y-26162000D02*
X5334000Y-26162000D01*
X9131098Y-23887000D02*
X6856098Y-26162000D01*
X10916000Y-23887000D02*
X9131098Y-23887000D01*
%TO.N,H0_{OUT}*%
X10029933Y-22334000D02*
X10075933Y-22380000D01*
X6269964Y-23887000D02*
X7822964Y-22334000D01*
X14764701Y-17304701D02*
X12615199Y-17304701D01*
X7822964Y-22334000D02*
X10029933Y-22334000D01*
X3816000Y-23887000D02*
X6269964Y-23887000D01*
%TO.N,H1_{OUT}*%
X15240000Y-15240000D02*
X13866204Y-15240000D01*
X6223050Y-24537000D02*
X7726050Y-23034000D01*
X7726050Y-23034000D02*
X9276684Y-23034000D01*
X13866204Y-15240000D02*
X12806551Y-16299653D01*
X3816000Y-24537000D02*
X6223050Y-24537000D01*
%TO.N,H2_{OUT}*%
X11811010Y-16128990D02*
X11684005Y-16128990D01*
X3816000Y-25187000D02*
X6841147Y-25187000D01*
X6841147Y-25187000D02*
X8294561Y-23733586D01*
X15240000Y-12700000D02*
X11811010Y-16128990D01*
%TO.N,~{Device ROM}*%
X5219960Y-4043000D02*
X1672000Y-4043000D01*
X10177000Y-5218000D02*
X6394960Y-5218000D01*
X1672000Y-4043000D02*
X1651000Y-4064000D01*
X6394960Y-5218000D02*
X5219960Y-4043000D01*
%TO.N,H0_{REG}*%
X1778000Y-13321536D02*
X1778000Y-15684500D01*
X2245000Y-8677000D02*
X2245000Y-12854536D01*
X2245000Y-12854536D02*
X1778000Y-13321536D01*
X1778000Y-15684500D02*
X0Y-17462500D01*
X3104000Y-7818000D02*
X2245000Y-8677000D01*
X4301000Y-7818000D02*
X3104000Y-7818000D01*
%TO.N,H1_{REG}*%
X1845000Y-7807000D02*
X1845000Y-12688850D01*
X0Y-14533850D02*
X0Y-15240000D01*
X4301000Y-6518000D02*
X3134000Y-6518000D01*
X1845000Y-12688850D02*
X0Y-14533850D01*
X3134000Y-6518000D02*
X1845000Y-7807000D01*
%TO.N,~{Device Registers}*%
X2032000Y-5080000D02*
X2544000Y-4568000D01*
X0Y-5080000D02*
X2032000Y-5080000D01*
X2544000Y-4568000D02*
X4301000Y-4568000D01*
%TO.N,H2_{REG}*%
X3164000Y-5218000D02*
X4301000Y-5218000D01*
X0Y-12700000D02*
X1445000Y-11255000D01*
X1445000Y-11255000D02*
X1445000Y-6937000D01*
X1445000Y-6937000D02*
X3164000Y-5218000D01*
%TD*%
M02*
