%TF.GenerationSoftware,KiCad,Pcbnew,7.0.5*%
%TF.CreationDate,2024-01-10T18:14:25+02:00*%
%TF.ProjectId,W65C816 Breakout,57363543-3831-4362-9042-7265616b6f75,rev?*%
%TF.SameCoordinates,Original*%
%TF.FileFunction,Soldermask,Top*%
%TF.FilePolarity,Negative*%
%FSLAX46Y46*%
G04 Gerber Fmt 4.6, Leading zero omitted, Abs format (unit mm)*
G04 Created by KiCad (PCBNEW 7.0.5) date 2024-01-10 18:14:25*
%MOMM*%
%LPD*%
G01*
G04 APERTURE LIST*
G04 Aperture macros list*
%AMRoundRect*
0 Rectangle with rounded corners*
0 $1 Rounding radius*
0 $2 $3 $4 $5 $6 $7 $8 $9 X,Y pos of 4 corners*
0 Add a 4 corners polygon primitive as box body*
4,1,4,$2,$3,$4,$5,$6,$7,$8,$9,$2,$3,0*
0 Add four circle primitives for the rounded corners*
1,1,$1+$1,$2,$3*
1,1,$1+$1,$4,$5*
1,1,$1+$1,$6,$7*
1,1,$1+$1,$8,$9*
0 Add four rect primitives between the rounded corners*
20,1,$1+$1,$2,$3,$4,$5,0*
20,1,$1+$1,$4,$5,$6,$7,0*
20,1,$1+$1,$6,$7,$8,$9,0*
20,1,$1+$1,$8,$9,$2,$3,0*%
G04 Aperture macros list end*
%ADD10R,0.900000X0.450000*%
%ADD11R,1.150000X0.600000*%
%ADD12R,1.475000X0.450000*%
%ADD13R,0.950000X0.450000*%
%ADD14R,1.000000X0.450000*%
%ADD15R,1.250000X0.600000*%
%ADD16R,0.850000X0.300000*%
%ADD17R,1.425000X0.300000*%
%ADD18O,1.600000X1.600000*%
%ADD19RoundRect,0.400000X-0.400000X-0.400000X0.400000X-0.400000X0.400000X0.400000X-0.400000X0.400000X0*%
%ADD20R,1.600000X1.600000*%
%ADD21RoundRect,0.250000X0.475000X-0.250000X0.475000X0.250000X-0.475000X0.250000X-0.475000X-0.250000X0*%
%ADD22RoundRect,0.137500X-0.548008X0.742462X-0.742462X0.548008X0.548008X-0.742462X0.742462X-0.548008X0*%
%ADD23RoundRect,0.137500X0.548008X0.742462X-0.742462X-0.548008X-0.548008X-0.742462X0.742462X0.548008X0*%
%ADD24R,1.450000X0.450000*%
G04 APERTURE END LIST*
D10*
%TO.C,RN2*%
X99915002Y-133801000D03*
X99915002Y-134601000D03*
X99915002Y-135401000D03*
X99915002Y-136201000D03*
X101615002Y-136201000D03*
X101615002Y-135401000D03*
X101615002Y-134601000D03*
X101615002Y-133801000D03*
%TD*%
%TO.C,RN1*%
X99915002Y-138373000D03*
X99915002Y-139173000D03*
X99915002Y-139973000D03*
X99915002Y-140773000D03*
X101615002Y-140773000D03*
X101615002Y-139973000D03*
X101615002Y-139173000D03*
X101615002Y-138373000D03*
%TD*%
D11*
%TO.C,IC36*%
X98649000Y-67884000D03*
X98649000Y-68834000D03*
X98649000Y-69784000D03*
X101249000Y-69784000D03*
X101249000Y-67884000D03*
%TD*%
D12*
%TO.C,IC20*%
X91731002Y-144395000D03*
X91731002Y-145045000D03*
X91731002Y-145695000D03*
X91731002Y-146345000D03*
X91731002Y-146995000D03*
X91731002Y-147645000D03*
X91731002Y-148295000D03*
X91731002Y-148945000D03*
X91731002Y-149595000D03*
X91731002Y-150245000D03*
X97607002Y-150245000D03*
X97607002Y-149595000D03*
X97607002Y-148945000D03*
X97607002Y-148295000D03*
X97607002Y-147645000D03*
X97607002Y-146995000D03*
X97607002Y-146345000D03*
X97607002Y-145695000D03*
X97607002Y-145045000D03*
X97607002Y-144395000D03*
%TD*%
%TO.C,IC19*%
X90534000Y-76790000D03*
X90534000Y-77440000D03*
X90534000Y-78090000D03*
X90534000Y-78740000D03*
X90534000Y-79390000D03*
X90534000Y-80040000D03*
X90534000Y-80690000D03*
X96410000Y-80690000D03*
X96410000Y-80040000D03*
X96410000Y-79390000D03*
X96410000Y-78740000D03*
X96410000Y-78090000D03*
X96410000Y-77440000D03*
X96410000Y-76790000D03*
%TD*%
D13*
%TO.C,IC18*%
X103308000Y-68113000D03*
X103308000Y-68763000D03*
X103308000Y-69413000D03*
X103308000Y-70063000D03*
X107258000Y-70063000D03*
X107258000Y-69413000D03*
X107258000Y-68763000D03*
X107258000Y-68113000D03*
%TD*%
%TO.C,IC17*%
X101530000Y-77130000D03*
X101530000Y-77780000D03*
X101530000Y-78430000D03*
X101530000Y-79080000D03*
X105480000Y-79080000D03*
X105480000Y-78430000D03*
X105480000Y-77780000D03*
X105480000Y-77130000D03*
%TD*%
%TO.C,IC15*%
X92132000Y-94910000D03*
X92132000Y-95560000D03*
X92132000Y-96210000D03*
X92132000Y-96860000D03*
X96082000Y-96860000D03*
X96082000Y-96210000D03*
X96082000Y-95560000D03*
X96082000Y-94910000D03*
%TD*%
D14*
%TO.C,IC14*%
X104537000Y-152512000D03*
X104537000Y-153162000D03*
X104537000Y-153812000D03*
X106537000Y-153812000D03*
X106537000Y-153162000D03*
X106537000Y-152512000D03*
%TD*%
%TO.C,IC13*%
X98568000Y-152639000D03*
X98568000Y-153289000D03*
X98568000Y-153939000D03*
X100568000Y-153939000D03*
X100568000Y-153289000D03*
X100568000Y-152639000D03*
%TD*%
%TO.C,IC12*%
X89805000Y-152639000D03*
X89805000Y-153289000D03*
X89805000Y-153939000D03*
X91805000Y-153939000D03*
X91805000Y-153289000D03*
X91805000Y-152639000D03*
%TD*%
%TO.C,IC10*%
X102505000Y-145781000D03*
X102505000Y-146431000D03*
X102505000Y-147081000D03*
X104505000Y-147081000D03*
X104505000Y-146431000D03*
X104505000Y-145781000D03*
%TD*%
D12*
%TO.C,IC9*%
X99805000Y-93681000D03*
X99805000Y-94331000D03*
X99805000Y-94981000D03*
X99805000Y-95631000D03*
X99805000Y-96281000D03*
X99805000Y-96931000D03*
X99805000Y-97581000D03*
X105681000Y-97581000D03*
X105681000Y-96931000D03*
X105681000Y-96281000D03*
X105681000Y-95631000D03*
X105681000Y-94981000D03*
X105681000Y-94331000D03*
X105681000Y-93681000D03*
%TD*%
D15*
%TO.C,IC8*%
X102890000Y-82616000D03*
X102890000Y-83566000D03*
X102890000Y-84516000D03*
X105390000Y-84516000D03*
X105390000Y-82616000D03*
%TD*%
D12*
%TO.C,IC6*%
X89010000Y-67519000D03*
X89010000Y-68169000D03*
X89010000Y-68819000D03*
X89010000Y-69469000D03*
X89010000Y-70119000D03*
X89010000Y-70769000D03*
X89010000Y-71419000D03*
X94886000Y-71419000D03*
X94886000Y-70769000D03*
X94886000Y-70119000D03*
X94886000Y-69469000D03*
X94886000Y-68819000D03*
X94886000Y-68169000D03*
X94886000Y-67519000D03*
%TD*%
%TO.C,IC5*%
X91731002Y-134235000D03*
X91731002Y-134885000D03*
X91731002Y-135535000D03*
X91731002Y-136185000D03*
X91731002Y-136835000D03*
X91731002Y-137485000D03*
X91731002Y-138135000D03*
X91731002Y-138785000D03*
X91731002Y-139435000D03*
X91731002Y-140085000D03*
X97607002Y-140085000D03*
X97607002Y-139435000D03*
X97607002Y-138785000D03*
X97607002Y-138135000D03*
X97607002Y-137485000D03*
X97607002Y-136835000D03*
X97607002Y-136185000D03*
X97607002Y-135535000D03*
X97607002Y-134885000D03*
X97607002Y-134235000D03*
%TD*%
D16*
%TO.C,IC4*%
X90246000Y-129679000D03*
X90246000Y-130179000D03*
X90246000Y-130679000D03*
X90246000Y-131179000D03*
X93396000Y-131179000D03*
X93396000Y-130679000D03*
X93396000Y-130179000D03*
X93396000Y-129679000D03*
%TD*%
D17*
%TO.C,IC1*%
X96389000Y-118635000D03*
X96389000Y-119135000D03*
X96389000Y-119635000D03*
X96389000Y-120135000D03*
X96389000Y-120635000D03*
X96389000Y-121135000D03*
X96389000Y-121635000D03*
X96389000Y-122135000D03*
X96389000Y-122635000D03*
X96389000Y-123135000D03*
X96389000Y-123635000D03*
X96389000Y-124135000D03*
X96389000Y-124635000D03*
X96389000Y-125135000D03*
X96389000Y-125635000D03*
X96389000Y-126135000D03*
X96389000Y-126635000D03*
X96389000Y-127135000D03*
X96389000Y-127635000D03*
X96389000Y-128135000D03*
X96389000Y-128635000D03*
X96389000Y-129135000D03*
X96389000Y-129635000D03*
X96389000Y-130135000D03*
X104013000Y-130135000D03*
X104013000Y-129635000D03*
X104013000Y-129135000D03*
X104013000Y-128635000D03*
X104013000Y-128135000D03*
X104013000Y-127635000D03*
X104013000Y-127135000D03*
X104013000Y-126635000D03*
X104013000Y-126135000D03*
X104013000Y-125635000D03*
X104013000Y-125135000D03*
X104013000Y-124635000D03*
X104013000Y-124135000D03*
X104013000Y-123635000D03*
X104013000Y-123135000D03*
X104013000Y-122635000D03*
X104013000Y-122135000D03*
X104013000Y-121635000D03*
X104013000Y-121135000D03*
X104013000Y-120635000D03*
X104013000Y-120135000D03*
X104013000Y-119635000D03*
X104013000Y-119135000D03*
X104013000Y-118635000D03*
%TD*%
D18*
%TO.C,J7*%
X86360000Y-71120000D03*
X86360000Y-73660000D03*
D19*
X86360000Y-76200000D03*
D18*
X86360000Y-78740000D03*
X86360000Y-81280000D03*
X86360000Y-83820000D03*
X86360000Y-86360000D03*
X86360000Y-88900000D03*
X86360000Y-91440000D03*
D20*
X86360000Y-93980000D03*
D18*
X86360000Y-96520000D03*
X86360000Y-99060000D03*
X86360000Y-101600000D03*
X86360000Y-104140000D03*
X86360000Y-106680000D03*
X86360000Y-109220000D03*
X86360000Y-111760000D03*
X86360000Y-114300000D03*
X86360000Y-116840000D03*
X86360000Y-119380000D03*
X86360000Y-121920000D03*
X86360000Y-124460000D03*
D20*
X86360000Y-127000000D03*
D18*
X86360000Y-129540000D03*
X86360000Y-132080000D03*
X86360000Y-134620000D03*
X86360000Y-137160000D03*
X86360000Y-139700000D03*
X86360000Y-142240000D03*
X86360000Y-144780000D03*
X86360000Y-147320000D03*
X86360000Y-149860000D03*
X109220000Y-149860000D03*
X109220000Y-147320000D03*
D19*
X109220000Y-144780000D03*
D18*
X109220000Y-142240000D03*
X109220000Y-139700000D03*
X109220000Y-137160000D03*
X109220000Y-134620000D03*
X109220000Y-132080000D03*
X109220000Y-129540000D03*
D20*
X109220000Y-127000000D03*
D18*
X109220000Y-124460000D03*
X109220000Y-121920000D03*
X109220000Y-119380000D03*
X109220000Y-116840000D03*
X109220000Y-114300000D03*
X109220000Y-111760000D03*
X109220000Y-109220000D03*
X109220000Y-106680000D03*
X109220000Y-104140000D03*
X109220000Y-101600000D03*
X109220000Y-99060000D03*
X109220000Y-96520000D03*
D20*
X109220000Y-93980000D03*
D18*
X109220000Y-91440000D03*
X109220000Y-88900000D03*
X109220000Y-86360000D03*
X109220000Y-83820000D03*
X109220000Y-81280000D03*
X109220000Y-78740000D03*
X109220000Y-76200000D03*
X109220000Y-73660000D03*
X109220000Y-71120000D03*
%TD*%
D21*
%TO.C,C8*%
X93675200Y-127121200D03*
X93675200Y-125221200D03*
%TD*%
D22*
%TO.C,IC2*%
X102174062Y-112969062D03*
X102739747Y-112403377D03*
X103305433Y-111837691D03*
X103871118Y-111272006D03*
X104436804Y-110706320D03*
X105002489Y-110140635D03*
D23*
X105002489Y-107029365D03*
X104436804Y-106463680D03*
X103871118Y-105897994D03*
X103305433Y-105332309D03*
X102739747Y-104766623D03*
X102174062Y-104200938D03*
X101608377Y-103635253D03*
X101042691Y-103069567D03*
X100477006Y-102503882D03*
X99911320Y-101938196D03*
X99345635Y-101372511D03*
D22*
X96234365Y-101372511D03*
X95668680Y-101938196D03*
X95102994Y-102503882D03*
X94537309Y-103069567D03*
X93971623Y-103635253D03*
X93405938Y-104200938D03*
X92840253Y-104766623D03*
X92274567Y-105332309D03*
X91708882Y-105897994D03*
X91143196Y-106463680D03*
X90577511Y-107029365D03*
D23*
X90577511Y-110140635D03*
X91143196Y-110706320D03*
X91708882Y-111272006D03*
X92274567Y-111837691D03*
X92840253Y-112403377D03*
X93405938Y-112969062D03*
X93971623Y-113534747D03*
X94537309Y-114100433D03*
X95102994Y-114666118D03*
X95668680Y-115231804D03*
X96234365Y-115797489D03*
D22*
X99345635Y-115797489D03*
X99911320Y-115231804D03*
X100477006Y-114666118D03*
X101042691Y-114100433D03*
X101608377Y-113534747D03*
%TD*%
D24*
%TO.C,IC3*%
X90420000Y-84720000D03*
X90420000Y-85370000D03*
X90420000Y-86020000D03*
X90420000Y-86670000D03*
X90420000Y-87320000D03*
X90420000Y-87970000D03*
X90420000Y-88620000D03*
X90420000Y-89270000D03*
X96270000Y-89270000D03*
X96270000Y-88620000D03*
X96270000Y-87970000D03*
X96270000Y-87320000D03*
X96270000Y-86670000D03*
X96270000Y-86020000D03*
X96270000Y-85370000D03*
X96270000Y-84720000D03*
%TD*%
M02*
