%TF.GenerationSoftware,KiCad,Pcbnew,8.0.7*%
%TF.CreationDate,2025-01-30T08:13:30+02:00*%
%TF.ProjectId,Memory 4MB,4d656d6f-7279-4203-944d-422e6b696361,V0*%
%TF.SameCoordinates,Original*%
%TF.FileFunction,Copper,L2,Bot*%
%TF.FilePolarity,Positive*%
%FSLAX46Y46*%
G04 Gerber Fmt 4.6, Leading zero omitted, Abs format (unit mm)*
G04 Created by KiCad (PCBNEW 8.0.7) date 2025-01-30 08:13:30*
%MOMM*%
%LPD*%
G01*
G04 APERTURE LIST*
G04 Aperture macros list*
%AMRoundRect*
0 Rectangle with rounded corners*
0 $1 Rounding radius*
0 $2 $3 $4 $5 $6 $7 $8 $9 X,Y pos of 4 corners*
0 Add a 4 corners polygon primitive as box body*
4,1,4,$2,$3,$4,$5,$6,$7,$8,$9,$2,$3,0*
0 Add four circle primitives for the rounded corners*
1,1,$1+$1,$2,$3*
1,1,$1+$1,$4,$5*
1,1,$1+$1,$6,$7*
1,1,$1+$1,$8,$9*
0 Add four rect primitives between the rounded corners*
20,1,$1+$1,$2,$3,$4,$5,0*
20,1,$1+$1,$4,$5,$6,$7,0*
20,1,$1+$1,$6,$7,$8,$9,0*
20,1,$1+$1,$8,$9,$2,$3,0*%
G04 Aperture macros list end*
%TA.AperFunction,ComponentPad*%
%ADD10O,1.600000X1.600000*%
%TD*%
%TA.AperFunction,ComponentPad*%
%ADD11R,1.600000X1.600000*%
%TD*%
%TA.AperFunction,ComponentPad*%
%ADD12RoundRect,0.400000X-0.400000X-0.400000X0.400000X-0.400000X0.400000X0.400000X-0.400000X0.400000X0*%
%TD*%
%TA.AperFunction,ViaPad*%
%ADD13C,0.800000*%
%TD*%
%TA.AperFunction,Conductor*%
%ADD14C,0.380000*%
%TD*%
%TA.AperFunction,Conductor*%
%ADD15C,0.200000*%
%TD*%
G04 APERTURE END LIST*
D10*
%TO.P,J7,40,Pin_40*%
%TO.N,unconnected-(J7-Pin_40-Pad40)*%
X22860000Y0D03*
%TO.P,J7,39,Pin_39*%
%TO.N,/A20*%
X22860000Y-2540000D03*
%TO.P,J7,38,Pin_38*%
%TO.N,/A19*%
X22860000Y-5080000D03*
%TO.P,J7,37,Pin_37*%
%TO.N,/A18*%
X22860000Y-7620000D03*
%TO.P,J7,36,Pin_36*%
%TO.N,/A17*%
X22860000Y-10160000D03*
%TO.P,J7,35,Pin_35*%
%TO.N,/A16*%
X22860000Y-12700000D03*
D11*
%TO.P,J7,34,Pin_34*%
%TO.N,/GND*%
X22860000Y-15240000D03*
D10*
%TO.P,J7,33,Pin_33*%
%TO.N,/A15*%
X22860000Y-17780000D03*
%TO.P,J7,32,Pin_32*%
%TO.N,/~{RD}*%
X22860000Y-20320000D03*
%TO.P,J7,31,Pin_31*%
%TO.N,/D7*%
X22860000Y-22860000D03*
%TO.P,J7,30,Pin_30*%
%TO.N,/D6*%
X22860000Y-25400000D03*
%TO.P,J7,29,Pin_29*%
%TO.N,/D5*%
X22860000Y-27940000D03*
%TO.P,J7,28,Pin_28*%
%TO.N,/D4*%
X22860000Y-30480000D03*
D11*
%TO.P,J7,27,Pin_27*%
%TO.N,/GND*%
X22860000Y-33020000D03*
D10*
%TO.P,J7,26,Pin_26*%
%TO.N,/A14*%
X22860000Y-35560000D03*
%TO.P,J7,25,Pin_25*%
%TO.N,/A13*%
X22860000Y-38100000D03*
%TO.P,J7,24,Pin_24*%
%TO.N,/A12*%
X22860000Y-40640000D03*
D12*
%TO.P,J7,23,Pin_23*%
%TO.N,/5V*%
X22860000Y-43180000D03*
D10*
%TO.P,J7,22,Pin_22*%
%TO.N,/A11*%
X22860000Y-45720000D03*
%TO.P,J7,21,Pin_21*%
%TO.N,/A10*%
X22860000Y-48260000D03*
%TO.P,J7,20,Pin_20*%
%TO.N,/A9*%
X0Y-48260000D03*
%TO.P,J7,19,Pin_19*%
%TO.N,/A8*%
X0Y-45720000D03*
%TO.P,J7,18,Pin_18*%
%TO.N,/A7*%
X0Y-43180000D03*
%TO.P,J7,17,Pin_17*%
%TO.N,/A6*%
X0Y-40640000D03*
%TO.P,J7,16,Pin_16*%
%TO.N,/A5*%
X0Y-38100000D03*
%TO.P,J7,15,Pin_15*%
%TO.N,/~{WD}*%
X0Y-35560000D03*
D11*
%TO.P,J7,14,Pin_14*%
%TO.N,/GND*%
X0Y-33020000D03*
D10*
%TO.P,J7,13,Pin_13*%
%TO.N,/~{Memory A}*%
X0Y-30480000D03*
%TO.P,J7,12,Pin_12*%
%TO.N,/D3*%
X0Y-27940000D03*
%TO.P,J7,11,Pin_11*%
%TO.N,/D2*%
X0Y-25400000D03*
%TO.P,J7,10,Pin_10*%
%TO.N,/D1*%
X0Y-22860000D03*
%TO.P,J7,9,Pin_9*%
%TO.N,/D0*%
X0Y-20320000D03*
%TO.P,J7,8,Pin_8*%
%TO.N,/~{Memory B}*%
X0Y-17780000D03*
D11*
%TO.P,J7,7,Pin_7*%
%TO.N,/GND*%
X0Y-15240000D03*
D10*
%TO.P,J7,6,Pin_6*%
%TO.N,/A4*%
X0Y-12700000D03*
%TO.P,J7,5,Pin_5*%
%TO.N,/A3*%
X0Y-10160000D03*
%TO.P,J7,4,Pin_4*%
%TO.N,/A2*%
X0Y-7620000D03*
D12*
%TO.P,J7,3,Pin_3*%
%TO.N,/5V*%
X0Y-5080000D03*
D10*
%TO.P,J7,2,Pin_2*%
%TO.N,/A1*%
X0Y-2540000D03*
%TO.P,J7,1,Pin_1*%
%TO.N,/A0*%
X0Y0D03*
%TD*%
D13*
%TO.N,/5V*%
X750426Y-24130000D03*
%TO.N,/3.3V*%
X19673000Y-40018749D03*
X10922000Y-12065000D03*
X4687000Y-22192103D03*
X12827000Y-37084000D03*
X3683000Y-8890000D03*
X19558000Y-12319000D03*
X12896404Y-39439404D03*
X19431009Y-23580584D03*
X10921999Y-10166564D03*
X3683000Y-36703000D03*
%TO.N,/~{RD}*%
X20478372Y-9747628D03*
X21355000Y-34036000D03*
%TO.N,/D3*%
X8763000Y-39751000D03*
X8382000Y-12954008D03*
X8140000Y-27940000D03*
%TO.N,/A19*%
X18034000Y-45085000D03*
X18676000Y-17468000D03*
%TO.N,/A17*%
X13843000Y-6096000D03*
X13037207Y-32930450D03*
%TO.N,/A18*%
X12946502Y-31817416D03*
X13160979Y-5314934D03*
%TO.N,/A6*%
X4294000Y-15621000D03*
X1651000Y-41275000D03*
%TO.N,/A14*%
X20701000Y-13462000D03*
%TO.N,/A10*%
X13970000Y-43053000D03*
X15800000Y-17018000D03*
%TO.N,/A20*%
X12573000Y-4445000D03*
X12941997Y-30607000D03*
%TO.N,/~{WD}*%
X1143000Y-16636996D03*
%TO.N,/A7*%
X9633000Y-42291000D03*
X10287000Y-15494000D03*
%TO.N,/A8*%
X10922000Y-16383000D03*
X10454915Y-43093915D03*
%TO.N,/A13*%
X20398000Y-14471603D03*
%TO.N,/A9*%
X10922000Y-44196000D03*
X11430000Y-17399000D03*
%TO.N,/A3*%
X2655000Y-30988000D03*
%TO.N,/A1*%
X9525000Y-31877000D03*
X8979805Y-5251634D03*
%TO.N,/A4*%
X1905000Y-29337000D03*
%TO.N,/A2*%
X8468458Y-6168711D03*
X9017000Y-32893000D03*
%TO.N,/D0*%
X5629000Y-20418014D03*
X6554164Y-36278001D03*
X7493000Y-8382000D03*
%TO.N,/A0*%
X9652000Y-4445000D03*
X9779000Y-30734000D03*
%TO.N,/D5*%
X17531500Y-27807500D03*
X15875000Y-11938000D03*
X15494000Y-39497000D03*
%TO.N,/D1*%
X7747000Y-9455762D03*
X8054164Y-37083997D03*
X7366000Y-21336000D03*
%TO.N,/D6*%
X14576855Y-9439855D03*
X14732000Y-22400037D03*
X13734310Y-35988346D03*
%TO.N,/A12*%
X18034000Y-42672000D03*
X18034000Y-15068000D03*
%TO.N,/A16*%
X13058258Y-33980242D03*
X14508267Y-6908357D03*
%TO.N,/D4*%
X12191997Y-29210006D03*
X12954000Y-40767000D03*
X10922000Y-13208000D03*
%TO.N,/D7*%
X15494000Y-8668000D03*
X15050000Y-21082000D03*
X14743997Y-35700187D03*
%TO.N,/A5*%
X3937000Y-14351000D03*
%TO.N,/A15*%
X15621000Y-34671000D03*
X15748002Y-7112000D03*
X15659386Y-19727831D03*
%TO.N,/D2*%
X7238998Y-39509000D03*
X6379000Y-25526405D03*
X6554164Y-11868000D03*
%TO.N,/A11*%
X15813768Y-15556168D03*
X14732000Y-42037000D03*
%TO.N,/~{Memory B}*%
X8128000Y-7493002D03*
X7738790Y-20066000D03*
%TD*%
D14*
%TO.N,/3.3V*%
X4910500Y-16287806D02*
G75*
G03*
X4686995Y-16827382I539600J-539594D01*
G01*
X4687000Y-29136909D02*
G75*
G03*
X4820003Y-29457997I454100J9D01*
G01*
X4820000Y-29458000D02*
G75*
G02*
X4953004Y-29779090I-321100J-321100D01*
G01*
X5134000Y-15748229D02*
G75*
G02*
X4910501Y-16287807I-763080J-1D01*
G01*
X19494504Y-23644079D02*
G75*
G02*
X19558017Y-23797371I-153304J-153321D01*
G01*
X4408500Y-9615500D02*
G75*
G02*
X5133995Y-11367011I-1751500J-1751500D01*
G01*
X4953000Y-32883974D02*
G75*
G02*
X4317999Y-34416999I-2168030J4D01*
G01*
X19516000Y-23435495D02*
G75*
G02*
X19473509Y-23538093I-145100J-5D01*
G01*
X12861702Y-37118702D02*
G75*
G02*
X12896411Y-37202480I-83802J-83798D01*
G01*
X4266716Y-34468283D02*
G75*
G03*
X3682990Y-35877500I1409184J-1409217D01*
G01*
X19537000Y-12340000D02*
G75*
G03*
X19515999Y-12390698I50700J-50700D01*
G01*
X19558000Y-39822431D02*
G75*
G03*
X19615519Y-39961230I196300J31D01*
G01*
%TO.N,/5V*%
X-657499Y-5737500D02*
G75*
G03*
X-1315004Y-7324845I1587339J-1587350D01*
G01*
X-952500Y-24447500D02*
G75*
G03*
X-1270000Y-25214012I766513J-766513D01*
G01*
X-1270000Y-45526864D02*
G75*
G03*
X-841456Y-46561456I1463140J4D01*
G01*
X-1315000Y-22969167D02*
G75*
G03*
X-975000Y-23790000I1160846J5D01*
G01*
X-952500Y-24447500D02*
G75*
G03*
X-952500Y-23812500I-317499J317500D01*
G01*
X-185987Y-24130000D02*
G75*
G03*
X-952500Y-24447500I-1J-1084011D01*
G01*
X-952500Y-23812500D02*
G75*
G03*
X-185987Y-24130000I766517J766522D01*
G01*
X-841457Y-46561457D02*
G75*
G03*
X193135Y-46990000I1034594J1034593D01*
G01*
X20643792Y-45396207D02*
G75*
G02*
X16796036Y-46990001I-3847762J3847767D01*
G01*
D15*
%TO.N,/~{Memory B}*%
X7552395Y-19287895D02*
G75*
G02*
X7738796Y-19737892I-449995J-450005D01*
G01*
X8636000Y-10658974D02*
G75*
G02*
X8001001Y-12192001I-2168040J4D01*
G01*
X8382000Y-7747002D02*
G75*
G02*
X8635994Y-8360212I-613200J-613198D01*
G01*
X8001000Y-12192000D02*
G75*
G03*
X7366011Y-13725025I1533000J-1533000D01*
G01*
X7366000Y-18837897D02*
G75*
G03*
X7552392Y-19287898I636400J-3D01*
G01*
%TO.N,/A11*%
X16776000Y-34991673D02*
G75*
G02*
X15754001Y-37459001I-3489340J3D01*
G01*
X16294884Y-16037284D02*
G75*
G02*
X16776009Y-17198800I-1161484J-1161516D01*
G01*
X15754000Y-37459000D02*
G75*
G03*
X14732011Y-39926326I2467300J-2467300D01*
G01*
%TO.N,/D2*%
X6325082Y-12097082D02*
G75*
G03*
X6096014Y-12650134I553018J-553018D01*
G01*
X6379000Y-33283810D02*
G75*
G03*
X6841578Y-34400586I1579400J10D01*
G01*
X6237500Y-19572500D02*
G75*
G02*
X6378995Y-19914111I-341600J-341600D01*
G01*
X7304164Y-39397754D02*
G75*
G02*
X7271558Y-39476394I-111264J54D01*
G01*
X6096000Y-19230888D02*
G75*
G03*
X6237497Y-19572503I483100J-12D01*
G01*
X6841582Y-34400582D02*
G75*
G02*
X7304165Y-35517353I-1116782J-1116778D01*
G01*
%TO.N,/A15*%
X15817693Y-19886138D02*
G75*
G02*
X15975981Y-20268324I-382193J-382162D01*
G01*
X15976000Y-34064977D02*
G75*
G02*
X15798507Y-34493507I-606000J-23D01*
G01*
X15741500Y-10801500D02*
G75*
G03*
X15100007Y-12350218I1548700J-1548700D01*
G01*
X16383000Y-9252781D02*
G75*
G02*
X15741501Y-10801501I-2190230J1D01*
G01*
X15100000Y-18772899D02*
G75*
G03*
X15379699Y-19448132I954900J-1D01*
G01*
X16065501Y-7429499D02*
G75*
G02*
X16382996Y-8196009I-766501J-766501D01*
G01*
%TO.N,/A5*%
X3544000Y-31235500D02*
G75*
G02*
X2821690Y-32979309I-2466128J5D01*
G01*
X3619500Y-14668500D02*
G75*
G03*
X3302005Y-15435012I766500J-766500D01*
G01*
X1841500Y-35109000D02*
G75*
G02*
X1028680Y-37071319I-2775149J5D01*
G01*
X2654319Y-33146680D02*
G75*
G03*
X1841497Y-35109000I1962311J-1962320D01*
G01*
X3423000Y-30093000D02*
G75*
G02*
X3543992Y-30385119I-292100J-292100D01*
G01*
X3302000Y-29800880D02*
G75*
G03*
X3422994Y-30093006I413100J-20D01*
G01*
%TO.N,/D7*%
X15494000Y-9598557D02*
G75*
G02*
X15097003Y-10557003I-1355450J-3D01*
G01*
X14700000Y-20484512D02*
G75*
G03*
X14875004Y-20906996I597500J12D01*
G01*
X15112998Y-34036001D02*
G75*
G03*
X14744018Y-34926849I890802J-890799D01*
G01*
X15097000Y-10557000D02*
G75*
G03*
X14700018Y-11515442I958400J-958400D01*
G01*
X15266000Y-21298000D02*
G75*
G02*
X15482012Y-21819470I-521500J-521500D01*
G01*
X15482000Y-33145153D02*
G75*
G02*
X15112999Y-34036002I-1259860J3D01*
G01*
%TO.N,/D4*%
X11566500Y-15503500D02*
G75*
G02*
X12211016Y-17059460I-1556000J-1556000D01*
G01*
X12090677Y-39293215D02*
G75*
G03*
X12522338Y-40335338I1473823J15D01*
G01*
X12211000Y-29177565D02*
G75*
G02*
X12201507Y-29200513I-32400J-35D01*
G01*
X10922000Y-14033500D02*
G75*
G03*
X11505723Y-15442709I1992900J0D01*
G01*
X12141337Y-29260666D02*
G75*
G03*
X12090644Y-29382970I122263J-122334D01*
G01*
%TO.N,/A16*%
X13589000Y-13312089D02*
G75*
G03*
X13744497Y-13687503I530900J-11D01*
G01*
X13744500Y-13687500D02*
G75*
G02*
X13899996Y-14062910I-375400J-375400D01*
G01*
X14048633Y-7367990D02*
G75*
G03*
X13589034Y-8477643I1109667J-1109610D01*
G01*
X14256000Y-24797000D02*
G75*
G02*
X14612017Y-25656460I-859500J-859500D01*
G01*
X14612000Y-31327838D02*
G75*
G02*
X13835126Y-33203368I-2652410J8D01*
G01*
X13900000Y-23937539D02*
G75*
G03*
X14256000Y-24797000I1215460J-1D01*
G01*
%TO.N,/A12*%
X18224000Y-38417000D02*
G75*
G03*
X18034000Y-38875700I458700J-458700D01*
G01*
X17982750Y-15119250D02*
G75*
G03*
X17931491Y-15242978I123750J-123750D01*
G01*
X17931500Y-25845320D02*
G75*
G03*
X18172756Y-26427744I823700J20D01*
G01*
X18172750Y-26427750D02*
G75*
G02*
X18414009Y-27010179I-582450J-582450D01*
G01*
X18414000Y-37958299D02*
G75*
G02*
X18224000Y-38417000I-648700J-1D01*
G01*
%TO.N,/D6*%
X14438427Y-9578282D02*
G75*
G03*
X14299976Y-9912476I334173J-334218D01*
G01*
X15012000Y-32250568D02*
G75*
G02*
X14373157Y-33792879I-2181160J-2D01*
G01*
X14284659Y-33881372D02*
G75*
G03*
X13734327Y-35210034I1328641J-1328628D01*
G01*
X14300000Y-21662566D02*
G75*
G03*
X14515977Y-22184060I737500J-34D01*
G01*
X14872000Y-22540037D02*
G75*
G02*
X15011978Y-22878026I-338000J-337963D01*
G01*
%TO.N,/D1*%
X7747000Y-10990232D02*
G75*
G02*
X7238999Y-12216652I-1734420J2D01*
G01*
X7366000Y-33549394D02*
G75*
G03*
X7710073Y-34380091I1174800J-6D01*
G01*
X6731000Y-18959359D02*
G75*
G03*
X6884893Y-19330897I525440J-1D01*
G01*
X7710082Y-34380082D02*
G75*
G02*
X8054187Y-35210769I-830682J-830718D01*
G01*
X7239000Y-12216653D02*
G75*
G03*
X6730975Y-13443073I1226400J-1226447D01*
G01*
X6884895Y-19330895D02*
G75*
G02*
X7038780Y-19702430I-371495J-371505D01*
G01*
X7038790Y-20777417D02*
G75*
G03*
X7202398Y-21172392I558610J17D01*
G01*
%TO.N,/D5*%
X16703250Y-15052250D02*
G75*
G02*
X17531491Y-17051822I-1999550J-1999550D01*
G01*
X17531500Y-36018769D02*
G75*
G02*
X16512752Y-38478252I-3478240J-1D01*
G01*
X15875000Y-13081000D02*
G75*
G03*
X16683233Y-15032213I2759400J0D01*
G01*
%TO.N,/A0*%
X10151417Y-13408639D02*
G75*
G02*
X9838205Y-14164788I-1069367J9D01*
G01*
X9779000Y-18707000D02*
G75*
G02*
X10032996Y-19320210I-613200J-613200D01*
G01*
X9525000Y-18093789D02*
G75*
G03*
X9778997Y-18707003I867200J-11D01*
G01*
X10033000Y-30300394D02*
G75*
G02*
X9906002Y-30607002I-433600J-6D01*
G01*
X9901708Y-4694708D02*
G75*
G02*
X10151459Y-5297558I-602808J-602892D01*
G01*
X9838208Y-14164791D02*
G75*
G03*
X9525042Y-14920943I756192J-756109D01*
G01*
%TO.N,/D0*%
X6147988Y-34722988D02*
G75*
G02*
X6554178Y-35703582I-980588J-980612D01*
G01*
X5629000Y-33549810D02*
G75*
G03*
X6091578Y-34666586I1579400J10D01*
G01*
X6561000Y-9314000D02*
G75*
G03*
X5629003Y-11564047I2250040J-2250040D01*
G01*
%TO.N,/A2*%
X8823000Y-28317661D02*
G75*
G03*
X8628996Y-28786018I468300J-468339D01*
G01*
X9099000Y-12962806D02*
G75*
G02*
X8803998Y-13674998I-1007200J6D01*
G01*
X8783729Y-6483982D02*
G75*
G02*
X9098991Y-7245113I-761129J-761118D01*
G01*
X8509000Y-18367475D02*
G75*
G03*
X8762990Y-18980696I867200J-25D01*
G01*
X8804000Y-13675000D02*
G75*
G03*
X8508997Y-14387193I712200J-712200D01*
G01*
X9017000Y-27849303D02*
G75*
G02*
X8823007Y-28317668I-662400J3D01*
G01*
X8629000Y-32230642D02*
G75*
G03*
X8822998Y-32699002I662350J-8D01*
G01*
X8763000Y-18980686D02*
G75*
G02*
X9017006Y-19593896I-613200J-613214D01*
G01*
%TO.N,/A4*%
X952500Y-13652500D02*
G75*
G02*
X1905000Y-15952038I-2299541J-2299540D01*
G01*
%TO.N,/A1*%
X9334500Y-13906500D02*
G75*
G03*
X9017005Y-14673012I766500J-766500D01*
G01*
X9277000Y-28429347D02*
G75*
G03*
X9028973Y-29028071I598700J-598753D01*
G01*
X9652000Y-13139987D02*
G75*
G02*
X9334504Y-13906504I-1084000J-13D01*
G01*
X9315902Y-5587731D02*
G75*
G02*
X9651972Y-6399142I-811402J-811369D01*
G01*
X9525000Y-27830622D02*
G75*
G02*
X9276984Y-28429331I-846700J22D01*
G01*
X9029000Y-31030275D02*
G75*
G03*
X9276993Y-31629007I846700J-25D01*
G01*
X9271000Y-18923000D02*
G75*
G02*
X9524996Y-19536210I-613200J-613200D01*
G01*
X9017000Y-18309789D02*
G75*
G03*
X9270997Y-18923003I867200J-11D01*
G01*
%TO.N,/A3*%
X1327500Y-11487500D02*
G75*
G02*
X2655000Y-14692368I-3204879J-3204873D01*
G01*
%TO.N,/A9*%
X11684000Y-28014394D02*
G75*
G02*
X11557002Y-28321002I-433600J-6D01*
G01*
X11557000Y-28321000D02*
G75*
G03*
X11430002Y-28627605I306600J-306600D01*
G01*
X11557000Y-17526000D02*
G75*
G02*
X11683998Y-17832605I-306600J-306600D01*
G01*
X11430000Y-43328789D02*
G75*
G02*
X11176003Y-43942003I-867200J-11D01*
G01*
%TO.N,/A13*%
X20797184Y-37561184D02*
G75*
G03*
X22098000Y-38100009I1300816J1300784D01*
G01*
X20205000Y-36169262D02*
G75*
G03*
X20770503Y-37534497I1930730J2D01*
G01*
X20301500Y-14568103D02*
G75*
G03*
X20204990Y-14801074I233000J-232997D01*
G01*
%TO.N,/A8*%
X10731500Y-16573500D02*
G75*
G03*
X10541003Y-17033407I459900J-459900D01*
G01*
X10541000Y-17682253D02*
G75*
G03*
X10731501Y-18142160I650410J3D01*
G01*
X10731500Y-18142161D02*
G75*
G02*
X10922024Y-18602068I-459900J-459939D01*
G01*
X10922000Y-42296551D02*
G75*
G02*
X10688458Y-42860373I-797370J1D01*
G01*
%TO.N,/A7*%
X10160000Y-15621000D02*
G75*
G03*
X10033002Y-15927605I306600J-306600D01*
G01*
X10033000Y-17866398D02*
G75*
G03*
X10277494Y-18456680I834800J-2D01*
G01*
X10522000Y-40773382D02*
G75*
G02*
X10077499Y-41846499I-1517620J2D01*
G01*
X10277500Y-18456674D02*
G75*
G02*
X10522029Y-19046949I-590300J-590326D01*
G01*
%TO.N,/~{WD}*%
X1505000Y-24180091D02*
G75*
G02*
X1324001Y-24617065I-617980J1D01*
G01*
X1324000Y-16817996D02*
G75*
G02*
X1504999Y-17254968I-436980J-436974D01*
G01*
X1143000Y-33608776D02*
G75*
G02*
X571500Y-34988500I-1951237J5D01*
G01*
X1324000Y-24617064D02*
G75*
G03*
X1143004Y-25054036I436970J-436966D01*
G01*
%TO.N,/A20*%
X12192000Y-15176500D02*
G75*
G02*
X12699992Y-16402920I-1226400J-1226400D01*
G01*
X12820998Y-27876312D02*
G75*
G02*
X12941982Y-28168428I-292098J-292088D01*
G01*
X11684000Y-13950079D02*
G75*
G03*
X12191994Y-15176506I1734400J-21D01*
G01*
X12700000Y-27584196D02*
G75*
G03*
X12820999Y-27876311I413100J-4D01*
G01*
X12128500Y-4889500D02*
G75*
G03*
X11684007Y-5962617I1073100J-1073100D01*
G01*
%TO.N,/A10*%
X16376000Y-34246701D02*
G75*
G02*
X15173000Y-37151000I-4107300J1D01*
G01*
X16088000Y-17306000D02*
G75*
G02*
X16376003Y-18001293I-695300J-695300D01*
G01*
X15173000Y-37151000D02*
G75*
G03*
X13970000Y-40055298I2904300J-2904300D01*
G01*
%TO.N,/A14*%
X20924500Y-13685500D02*
G75*
G02*
X21148010Y-14225076I-539600J-539600D01*
G01*
X21148000Y-14777441D02*
G75*
G02*
X20900915Y-15373915I-843600J41D01*
G01*
X20900927Y-15373927D02*
G75*
G03*
X20653860Y-15970413I596473J-596473D01*
G01*
X20994927Y-35218927D02*
G75*
G03*
X21818349Y-35559963I823373J823427D01*
G01*
X20653855Y-34395505D02*
G75*
G03*
X20994940Y-35218914I1164445J5D01*
G01*
%TO.N,/A6*%
X3432000Y-33912000D02*
G75*
G03*
X2667001Y-35758873I1846870J-1846870D01*
G01*
X4197000Y-32065126D02*
G75*
G02*
X3432000Y-33912000I-2611890J6D01*
G01*
X3944000Y-29488415D02*
G75*
G03*
X4070508Y-29793806I431900J15D01*
G01*
X4119000Y-15796000D02*
G75*
G03*
X3943995Y-16218487I422500J-422500D01*
G01*
X2159000Y-38481000D02*
G75*
G03*
X1650997Y-39707420I1226410J-1226420D01*
G01*
X4070500Y-29793814D02*
G75*
G02*
X4196991Y-30099212I-305400J-305386D01*
G01*
X2667000Y-37254579D02*
G75*
G02*
X2159000Y-38481000I-1734420J-1D01*
G01*
%TO.N,/A18*%
X12709500Y-14741500D02*
G75*
G02*
X13100021Y-15684250I-942800J-942800D01*
G01*
X13395998Y-26730998D02*
G75*
G02*
X13691997Y-27445602I-714598J-714602D01*
G01*
X12739989Y-5735923D02*
G75*
G03*
X12318973Y-6752282I1016311J-1016377D01*
G01*
X13691997Y-30544776D02*
G75*
G02*
X13319248Y-31444667I-1272647J6D01*
G01*
X13100000Y-26016394D02*
G75*
G03*
X13395996Y-26731000I1010600J-6D01*
G01*
X12319000Y-13798749D02*
G75*
G03*
X12709500Y-14741500I1333250J-1D01*
G01*
%TO.N,/A17*%
X13227000Y-14243000D02*
G75*
G02*
X13500008Y-14902080I-659100J-659100D01*
G01*
X13398500Y-6540500D02*
G75*
G03*
X12954007Y-7613617I1073100J-1073100D01*
G01*
X13500000Y-24934539D02*
G75*
G03*
X13856000Y-25794000I1215460J-1D01*
G01*
X13856000Y-25794000D02*
G75*
G02*
X14212017Y-26653460I-859500J-859500D01*
G01*
X14212000Y-30924952D02*
G75*
G02*
X13624603Y-32343053I-2005500J2D01*
G01*
X12954000Y-13583919D02*
G75*
G03*
X13227006Y-14242994I932100J19D01*
G01*
%TO.N,/A19*%
X18784000Y-17283632D02*
G75*
G02*
X18729990Y-17413990I-184400J32D01*
G01*
X18923000Y-43567382D02*
G75*
G02*
X18478505Y-44640505I-1517600J-18D01*
G01*
X18799500Y-26488814D02*
G75*
G02*
X18923009Y-26786969I-298200J-298186D01*
G01*
X18676000Y-26190658D02*
G75*
G03*
X18799470Y-26488844I421700J-42D01*
G01*
X20377792Y-7562207D02*
G75*
G03*
X18784002Y-11409963I3847758J-3847753D01*
G01*
%TO.N,/D3*%
X8490000Y-27342512D02*
G75*
G02*
X8314996Y-27764996I-597500J12D01*
G01*
X8140000Y-33433965D02*
G75*
G03*
X8451502Y-34185991I1063530J5D01*
G01*
X8223000Y-19272000D02*
G75*
G02*
X8490002Y-19916595I-644600J-644600D01*
G01*
X7956000Y-18627404D02*
G75*
G03*
X8223001Y-19271999I911600J4D01*
G01*
X8169000Y-13167008D02*
G75*
G03*
X7956017Y-13681235I514200J-514192D01*
G01*
X8451500Y-34185993D02*
G75*
G02*
X8762994Y-34938020I-752000J-752007D01*
G01*
%TO.N,/~{RD}*%
X21760000Y-18442182D02*
G75*
G03*
X22309995Y-19770005I1877800J-18D01*
G01*
X22107500Y-21072500D02*
G75*
G03*
X21354998Y-22889195I1816700J-1816700D01*
G01*
X20478372Y-10646500D02*
G75*
G03*
X21113978Y-12180962I2170028J0D01*
G01*
X21119186Y-12186186D02*
G75*
G02*
X21759959Y-13733247I-1547086J-1547014D01*
G01*
%TO.N,/A2*%
X9099000Y-12962806D02*
X9099000Y-7245113D01*
X9017000Y-27849303D02*
X9017000Y-19593896D01*
X9017000Y-32893000D02*
X8823000Y-32699000D01*
X8783729Y-6483982D02*
X8468458Y-6168711D01*
%TO.N,/A1*%
X9315902Y-5587731D02*
X8979805Y-5251634D01*
X9652000Y-13139987D02*
X9652000Y-6399142D01*
X9017000Y-14673012D02*
X9017000Y-18309789D01*
X9525000Y-27830622D02*
X9525000Y-19536210D01*
X9525000Y-31877000D02*
X9277000Y-31629000D01*
%TO.N,/A2*%
X8629000Y-28786018D02*
X8629000Y-32230642D01*
%TO.N,/A0*%
X9525000Y-18093789D02*
X9525000Y-14920943D01*
X9652000Y-4445000D02*
X9901708Y-4694708D01*
X10033000Y-19320210D02*
X10033000Y-30300394D01*
%TO.N,/A1*%
X9029000Y-29028071D02*
X9029000Y-31030275D01*
%TO.N,/A0*%
X9779000Y-30734000D02*
X9906000Y-30607000D01*
%TO.N,/A2*%
X8509000Y-18367475D02*
X8509000Y-14387193D01*
%TO.N,/A0*%
X10151417Y-13408639D02*
X10151417Y-5297558D01*
%TO.N,/~{Memory B}*%
X8636000Y-10658974D02*
X8636000Y-8360212D01*
X7366000Y-13725025D02*
X7366000Y-18837897D01*
X7738790Y-19737892D02*
X7738790Y-20066000D01*
X8128000Y-7493002D02*
X8382000Y-7747002D01*
%TO.N,/D1*%
X6731000Y-18959359D02*
X6731000Y-13443073D01*
X7038790Y-19702430D02*
X7038790Y-20777417D01*
X7366000Y-21336000D02*
X7202395Y-21172395D01*
X7747000Y-10990232D02*
X7747000Y-9455762D01*
%TO.N,/D2*%
X6096000Y-12650134D02*
X6096000Y-19230888D01*
X6379000Y-19914111D02*
X6379000Y-25526405D01*
X6325082Y-12097082D02*
X6554164Y-11868000D01*
%TO.N,/A7*%
X10160000Y-15621000D02*
X10287000Y-15494000D01*
X10033000Y-15927605D02*
X10033000Y-17866398D01*
X10077500Y-41846500D02*
X9633000Y-42291000D01*
X10522000Y-40773382D02*
X10522000Y-19046949D01*
%TO.N,/A8*%
X10922000Y-18602068D02*
X10922000Y-42296551D01*
X10541000Y-17033407D02*
X10541000Y-17682253D01*
X10454915Y-43093915D02*
X10688457Y-42860372D01*
X10731500Y-16573500D02*
X10922000Y-16383000D01*
%TO.N,/A9*%
X11684000Y-28014394D02*
X11684000Y-17832605D01*
X11430000Y-28627605D02*
X11430000Y-43328789D01*
X11430000Y-17399000D02*
X11557000Y-17526000D01*
X10922000Y-44196000D02*
X11176000Y-43942000D01*
%TO.N,/D3*%
X8382000Y-12954008D02*
X8169000Y-13167008D01*
X8490000Y-27342512D02*
X8490000Y-19916595D01*
X8315000Y-27765000D02*
X8140000Y-27940000D01*
X7956000Y-18627404D02*
X7956000Y-13681235D01*
%TO.N,/D0*%
X7493000Y-8382000D02*
X6561000Y-9314000D01*
X5629000Y-20418014D02*
X5629000Y-11564047D01*
%TO.N,/~{RD}*%
X21113970Y-12180970D02*
X21119186Y-12186186D01*
X20478372Y-10646500D02*
X20478372Y-9747628D01*
X21760000Y-18442182D02*
X21760000Y-13733247D01*
X22310000Y-19770000D02*
X22860000Y-20320000D01*
%TO.N,/A10*%
X13970000Y-40055298D02*
X13970000Y-43053000D01*
X16376000Y-34246701D02*
X16376000Y-18001293D01*
X16088000Y-17306000D02*
X15800000Y-17018000D01*
%TO.N,/A11*%
X16776000Y-34991673D02*
X16776000Y-17198800D01*
X14732000Y-42037000D02*
X14732000Y-39926326D01*
X16294884Y-16037284D02*
X15813768Y-15556168D01*
%TO.N,/A15*%
X15817693Y-19886138D02*
X15659386Y-19727831D01*
X15798500Y-34493500D02*
X15621000Y-34671000D01*
X15976000Y-20268324D02*
X15976000Y-34064977D01*
%TO.N,/D7*%
X14743997Y-34926849D02*
X14743997Y-35700187D01*
X15266000Y-21298000D02*
X15050000Y-21082000D01*
X15482000Y-21819470D02*
X15482000Y-33145153D01*
%TO.N,/A14*%
X20924500Y-13685500D02*
X20701000Y-13462000D01*
X21148000Y-14225076D02*
X21148000Y-14777441D01*
X21818349Y-35560000D02*
X22860000Y-35560000D01*
X20653855Y-15970413D02*
X20653855Y-34395505D01*
%TO.N,/A13*%
X22098000Y-38100000D02*
X22860000Y-38100000D01*
X20797184Y-37561184D02*
X20770500Y-37534500D01*
X20398000Y-14471603D02*
X20301500Y-14568103D01*
X20205000Y-36169262D02*
X20205000Y-14801074D01*
%TO.N,/D5*%
X16512750Y-38478250D02*
X15494000Y-39497000D01*
X17531500Y-36018769D02*
X17531500Y-27807500D01*
%TO.N,/A16*%
X13058258Y-33980242D02*
X13835129Y-33203371D01*
X13900000Y-14062910D02*
X13900000Y-23937539D01*
X13589000Y-13312089D02*
X13589000Y-8477643D01*
X14508267Y-6908357D02*
X14048633Y-7367990D01*
%TO.N,/A17*%
X13037207Y-32930450D02*
X13624603Y-32343053D01*
%TO.N,/A16*%
X14612000Y-25656460D02*
X14612000Y-31327838D01*
%TO.N,/A17*%
X13500000Y-14902080D02*
X13500000Y-24934539D01*
X12954000Y-7613617D02*
X12954000Y-13583919D01*
X13843000Y-6096000D02*
X13398500Y-6540500D01*
X14212000Y-26653460D02*
X14212000Y-30924952D01*
%TO.N,/A18*%
X12946502Y-31817416D02*
X13319249Y-31444668D01*
X13100000Y-15684250D02*
X13100000Y-26016394D01*
X13160979Y-5314934D02*
X12739989Y-5735923D01*
X13691997Y-27445602D02*
X13691997Y-30544776D01*
X12319000Y-6752282D02*
X12319000Y-13798749D01*
%TO.N,/D6*%
X13734310Y-35210034D02*
X13734310Y-35988346D01*
X14373154Y-33792876D02*
X14284659Y-33881372D01*
X14732000Y-22400037D02*
X14872000Y-22540037D01*
X15012000Y-32250568D02*
X15012000Y-22878026D01*
%TO.N,/A20*%
X12941997Y-30607000D02*
X12941997Y-28168428D01*
X11684000Y-13950079D02*
X11684000Y-5962617D01*
X12573000Y-4445000D02*
X12128500Y-4889500D01*
X12700000Y-16402920D02*
X12700000Y-27584196D01*
%TO.N,/D7*%
X14700000Y-20484512D02*
X14700000Y-11515442D01*
X15494000Y-9598557D02*
X15494000Y-8668000D01*
X14875000Y-20907000D02*
X15050000Y-21082000D01*
%TO.N,/A15*%
X16383000Y-9252781D02*
X16383000Y-8196009D01*
X15100000Y-12350218D02*
X15100000Y-18772899D01*
X15748002Y-7112000D02*
X16065501Y-7429499D01*
X15659386Y-19727831D02*
X15379693Y-19448138D01*
%TO.N,/D6*%
X14516000Y-22184037D02*
X14732000Y-22400037D01*
X14438427Y-9578282D02*
X14576855Y-9439855D01*
X14300000Y-9912476D02*
X14300000Y-21662566D01*
D14*
%TO.N,/3.3V*%
X12896404Y-39439404D02*
X12896404Y-37202480D01*
X12827000Y-37084000D02*
X12861702Y-37118702D01*
D15*
%TO.N,/D4*%
X12522338Y-40335338D02*
X12954000Y-40767000D01*
X12090677Y-39293215D02*
X12090677Y-29382970D01*
X12191997Y-29210006D02*
X12141337Y-29260666D01*
X10922000Y-13208000D02*
X10922000Y-14033500D01*
X12211000Y-17059460D02*
X12211000Y-29177565D01*
X11566500Y-15503500D02*
X11505716Y-15442716D01*
X12191997Y-29210006D02*
X12201498Y-29200504D01*
D14*
%TO.N,/3.3V*%
X10922000Y-10166565D02*
X10921999Y-10166564D01*
X10922000Y-10166565D02*
X10922000Y-12065000D01*
X4317999Y-34416999D02*
X4266716Y-34468283D01*
X4953000Y-29779090D02*
X4953000Y-32883974D01*
X3683000Y-36703000D02*
X3683000Y-35877500D01*
X4687000Y-29136909D02*
X4687000Y-22192103D01*
D15*
%TO.N,/A5*%
X3302000Y-15435012D02*
X3302000Y-29800880D01*
X3619500Y-14668500D02*
X3937000Y-14351000D01*
X3544000Y-31235500D02*
X3544000Y-30385119D01*
X2821690Y-32979309D02*
X2654319Y-33146680D01*
X1028680Y-37071319D02*
X0Y-38100000D01*
%TO.N,/A6*%
X4119000Y-15796000D02*
X4294000Y-15621000D01*
X2667000Y-35758873D02*
X2667000Y-37254579D01*
X4197000Y-32065126D02*
X4197000Y-30099212D01*
X3944000Y-29488415D02*
X3944000Y-16218487D01*
X1651000Y-41275000D02*
X1651000Y-39707420D01*
%TO.N,/D2*%
X7271581Y-39476417D02*
X7238998Y-39509000D01*
X6379000Y-33283810D02*
X6379000Y-25526405D01*
X7304164Y-39397754D02*
X7304164Y-35517353D01*
%TO.N,/D1*%
X8054164Y-37083997D02*
X8054164Y-35210769D01*
X7366000Y-33549394D02*
X7366000Y-21336000D01*
%TO.N,/A3*%
X1327500Y-11487500D02*
X0Y-10160000D01*
X2655000Y-30988000D02*
X2655000Y-14692368D01*
%TO.N,/A4*%
X1905000Y-29337000D02*
X1905000Y-15952038D01*
%TO.N,/~{WD}*%
X1143000Y-16636996D02*
X1324000Y-16817996D01*
%TO.N,/A4*%
X952500Y-13652500D02*
X0Y-12700000D01*
%TO.N,/~{WD}*%
X1505000Y-24180091D02*
X1505000Y-17254968D01*
X1143000Y-33608776D02*
X1143000Y-25054036D01*
X571500Y-34988500D02*
X0Y-35560000D01*
%TO.N,/D0*%
X5629000Y-20418014D02*
X5629000Y-33549810D01*
X6147988Y-34722988D02*
X6091582Y-34666582D01*
X6554164Y-36278001D02*
X6554164Y-35703582D01*
D14*
%TO.N,/5V*%
X750426Y-24130000D02*
X-185987Y-24130000D01*
X20643792Y-45396207D02*
X22860000Y-43180000D01*
X-657499Y-5737500D02*
X0Y-5080000D01*
X193135Y-46990000D02*
X16796036Y-46990000D01*
X-1315000Y-7324845D02*
X-1315000Y-22969167D01*
X-975000Y-23790000D02*
X-952500Y-23812500D01*
X-1270000Y-25214012D02*
X-1270000Y-45526864D01*
%TO.N,/3.3V*%
X3683000Y-8890000D02*
X4408500Y-9615500D01*
X5134000Y-15748229D02*
X5134000Y-11367011D01*
X19558000Y-12319000D02*
X19537000Y-12340000D01*
X4687000Y-16827382D02*
X4687000Y-22192103D01*
X19558000Y-23797371D02*
X19558000Y-39822431D01*
X19473504Y-23538088D02*
X19431009Y-23580584D01*
X19494504Y-23644079D02*
X19431009Y-23580584D01*
X19673000Y-40018749D02*
X19615500Y-39961249D01*
X19516000Y-23435495D02*
X19516000Y-12390698D01*
D15*
%TO.N,/~{RD}*%
X21355000Y-22889195D02*
X21355000Y-34036000D01*
X22107500Y-21072500D02*
X22860000Y-20320000D01*
%TO.N,/D3*%
X8140000Y-33433965D02*
X8140000Y-27940000D01*
X8763000Y-39751000D02*
X8763000Y-34938020D01*
%TO.N,/A19*%
X18676000Y-17468000D02*
X18676000Y-26190658D01*
X20377792Y-7562207D02*
X22860000Y-5080000D01*
X18478500Y-44640500D02*
X18034000Y-45085000D01*
X18730000Y-17414000D02*
X18676000Y-17468000D01*
X18784000Y-17283632D02*
X18784000Y-11409963D01*
X18923000Y-43567382D02*
X18923000Y-26786969D01*
%TO.N,/D5*%
X15875000Y-11938000D02*
X15875000Y-13081000D01*
X16703250Y-15052250D02*
X16683223Y-15032223D01*
X17531500Y-17051822D02*
X17531500Y-27807500D01*
%TO.N,/A12*%
X18414000Y-27010179D02*
X18414000Y-37958299D01*
X18034000Y-15068000D02*
X17982750Y-15119250D01*
X17931500Y-15242978D02*
X17931500Y-25845320D01*
X18034000Y-38875700D02*
X18034000Y-42672000D01*
%TD*%
%TA.AperFunction,Conductor*%
%TO.N,/5V*%
G36*
X-787926Y-4793640D02*
G01*
X-4185Y-5077423D01*
X2424Y-5083459D01*
X45253Y-5175359D01*
X367293Y-5866387D01*
X367681Y-5875333D01*
X361630Y-5881934D01*
X358886Y-5882821D01*
X108905Y-5930627D01*
X108896Y-5930630D01*
X-155828Y-6017857D01*
X-155829Y-6017857D01*
X-420559Y-6141684D01*
X-685295Y-6302115D01*
X-685299Y-6302118D01*
X-944702Y-6495179D01*
X-953384Y-6497369D01*
X-956164Y-6496602D01*
X-1290256Y-6358215D01*
X-1296588Y-6351883D01*
X-1296588Y-6342929D01*
X-1296573Y-6342893D01*
X-1200893Y-6114064D01*
X-1200884Y-6114040D01*
X-1100654Y-5837724D01*
X-1000445Y-5524868D01*
X-900221Y-5175364D01*
X-803227Y-4801704D01*
X-797831Y-4794558D01*
X-788962Y-4793319D01*
X-787926Y-4793640D01*
G37*
%TD.AperFunction*%
%TD*%
%TA.AperFunction,Conductor*%
%TO.N,/~{Memory B}*%
G36*
X7650196Y-19246963D02*
G01*
X7650726Y-19247563D01*
X7746664Y-19363947D01*
X7747720Y-19365457D01*
X7806859Y-19465988D01*
X7807283Y-19466774D01*
X7852582Y-19559268D01*
X7913989Y-19659449D01*
X7913995Y-19659458D01*
X8014485Y-19774942D01*
X8017331Y-19783432D01*
X8013953Y-19790874D01*
X7745012Y-20061162D01*
X7736747Y-20064610D01*
X7732230Y-20063715D01*
X7381160Y-19917879D01*
X7374834Y-19911540D01*
X7374843Y-19902586D01*
X7375326Y-19901566D01*
X7441125Y-19778798D01*
X7441763Y-19777748D01*
X7514766Y-19671221D01*
X7564854Y-19577765D01*
X7567242Y-19483833D01*
X7502741Y-19383525D01*
X7501149Y-19374713D01*
X7504539Y-19368700D01*
X7633657Y-19246506D01*
X7642020Y-19243309D01*
X7650196Y-19246963D01*
G37*
%TD.AperFunction*%
%TD*%
%TA.AperFunction,Conductor*%
%TO.N,/~{Memory B}*%
G36*
X8495527Y-7344467D02*
G01*
X8501843Y-7350814D01*
X8501907Y-7350972D01*
X8569546Y-7522477D01*
X8569786Y-7523145D01*
X8612793Y-7655126D01*
X8613059Y-7656074D01*
X8640592Y-7773235D01*
X8640709Y-7773794D01*
X8657711Y-7866181D01*
X8666092Y-7911723D01*
X8666096Y-7911745D01*
X8666095Y-7911745D01*
X8700395Y-8094042D01*
X8698557Y-8102806D01*
X8691179Y-8107680D01*
X8516010Y-8142521D01*
X8507228Y-8140774D01*
X8502824Y-8135285D01*
X8455254Y-8012886D01*
X8373992Y-7950919D01*
X8373991Y-7950918D01*
X8373990Y-7950918D01*
X8265140Y-7926536D01*
X8132104Y-7907865D01*
X8130481Y-7907519D01*
X7987475Y-7866181D01*
X7980479Y-7860591D01*
X7979484Y-7851692D01*
X7979902Y-7850495D01*
X8125947Y-7496524D01*
X8132269Y-7490185D01*
X8486573Y-7344445D01*
X8495527Y-7344467D01*
G37*
%TD.AperFunction*%
%TD*%
%TA.AperFunction,Conductor*%
%TO.N,/D2*%
G36*
X6195778Y-11719520D02*
G01*
X6549852Y-11865166D01*
X6556199Y-11871482D01*
X6556217Y-11871524D01*
X6702341Y-12225686D01*
X6702328Y-12234640D01*
X6695987Y-12240964D01*
X6694969Y-12241330D01*
X6558332Y-12283412D01*
X6557073Y-12283724D01*
X6431780Y-12307538D01*
X6431771Y-12307540D01*
X6330616Y-12337996D01*
X6255448Y-12403603D01*
X6210945Y-12523636D01*
X6204856Y-12530202D01*
X6197693Y-12531044D01*
X6193459Y-12530202D01*
X6185175Y-12528554D01*
X6022477Y-12496196D01*
X6015031Y-12491221D01*
X6013224Y-12482763D01*
X6026659Y-12403603D01*
X6044572Y-12298058D01*
X6061952Y-12156950D01*
X6061975Y-12156780D01*
X6079970Y-12036301D01*
X6080215Y-12035102D01*
X6115274Y-11900512D01*
X6115624Y-11899403D01*
X6180379Y-11726244D01*
X6186486Y-11719697D01*
X6195435Y-11719385D01*
X6195778Y-11719520D01*
G37*
%TD.AperFunction*%
%TD*%
%TA.AperFunction,Conductor*%
%TO.N,/A15*%
G36*
X16047832Y-19727802D02*
G01*
X16056097Y-19731250D01*
X16059502Y-19739384D01*
X16061112Y-19899488D01*
X16065233Y-20021279D01*
X16070147Y-20126377D01*
X16070153Y-20126527D01*
X16074267Y-20248105D01*
X16074273Y-20248383D01*
X16075499Y-20370113D01*
X16075500Y-20370231D01*
X16075500Y-20408203D01*
X16072073Y-20416476D01*
X16063800Y-20419903D01*
X15885521Y-20419903D01*
X15877248Y-20416476D01*
X15874065Y-20410582D01*
X15845972Y-20275285D01*
X15845972Y-20275284D01*
X15765938Y-20202130D01*
X15651033Y-20160384D01*
X15650927Y-20160345D01*
X15517580Y-20110437D01*
X15514903Y-20109016D01*
X15387807Y-20018680D01*
X15383049Y-20011093D01*
X15385048Y-20002365D01*
X15386288Y-20000893D01*
X15655945Y-19730283D01*
X15664210Y-19726843D01*
X16047832Y-19727802D01*
G37*
%TD.AperFunction*%
%TD*%
%TA.AperFunction,Conductor*%
%TO.N,/A15*%
G36*
X16072073Y-33992907D02*
G01*
X16075500Y-34001180D01*
X16075500Y-34004094D01*
X16075493Y-34004489D01*
X16070295Y-34158343D01*
X16070227Y-34159272D01*
X16056667Y-34278363D01*
X16056599Y-34278861D01*
X16040361Y-34381864D01*
X16026721Y-34501657D01*
X16026719Y-34501675D01*
X16021380Y-34659723D01*
X16017676Y-34667876D01*
X16009716Y-34671028D01*
X15625875Y-34671987D01*
X15617594Y-34668581D01*
X15617558Y-34668546D01*
X15616890Y-34667876D01*
X15348101Y-34398136D01*
X15344689Y-34389856D01*
X15348130Y-34381589D01*
X15349789Y-34380217D01*
X15483568Y-34288902D01*
X15486618Y-34287417D01*
X15629608Y-34242012D01*
X15629822Y-34241947D01*
X15754849Y-34206253D01*
X15842787Y-34136761D01*
X15873942Y-33998605D01*
X15879104Y-33991290D01*
X15885355Y-33989480D01*
X16063800Y-33989480D01*
X16072073Y-33992907D01*
G37*
%TD.AperFunction*%
%TD*%
%TA.AperFunction,Conductor*%
%TO.N,/A15*%
G36*
X15260540Y-19080495D02*
G01*
X15331563Y-19201146D01*
X15419908Y-19263083D01*
X15419911Y-19263085D01*
X15525874Y-19288972D01*
X15654140Y-19310103D01*
X15655642Y-19310454D01*
X15800153Y-19354526D01*
X15807066Y-19360216D01*
X15807930Y-19369129D01*
X15807556Y-19370174D01*
X15661626Y-19724245D01*
X15655305Y-19730588D01*
X15655259Y-19730608D01*
X15301098Y-19876271D01*
X15292144Y-19876248D01*
X15285827Y-19869900D01*
X15285666Y-19869485D01*
X15225089Y-19703512D01*
X15224745Y-19702394D01*
X15191665Y-19572426D01*
X15191540Y-19571872D01*
X15168844Y-19457023D01*
X15135547Y-19326203D01*
X15135548Y-19326203D01*
X15089904Y-19201146D01*
X15074447Y-19158796D01*
X15074830Y-19149851D01*
X15080959Y-19143977D01*
X15245981Y-19075621D01*
X15254934Y-19075621D01*
X15260540Y-19080495D01*
G37*
%TD.AperFunction*%
%TD*%
%TA.AperFunction,Conductor*%
%TO.N,/D7*%
G36*
X14798897Y-20402420D02*
G01*
X14802042Y-20408142D01*
X14813525Y-20459589D01*
X14832797Y-20545934D01*
X14832798Y-20545935D01*
X14919708Y-20615934D01*
X15043376Y-20652440D01*
X15043614Y-20652514D01*
X15185351Y-20698533D01*
X15188348Y-20700009D01*
X15321255Y-20791206D01*
X15326137Y-20798711D01*
X15324282Y-20807472D01*
X15322923Y-20809111D01*
X15053441Y-21079546D01*
X15045174Y-21082987D01*
X15045124Y-21082987D01*
X14661319Y-21082028D01*
X14653054Y-21078580D01*
X14649653Y-21070686D01*
X14644800Y-20912351D01*
X14632400Y-20792273D01*
X14617631Y-20688942D01*
X14617577Y-20688498D01*
X14613862Y-20652523D01*
X14605243Y-20569063D01*
X14605187Y-20568225D01*
X14600505Y-20415468D01*
X14600500Y-20415110D01*
X14600500Y-20410693D01*
X14603927Y-20402420D01*
X14612200Y-20398993D01*
X14790624Y-20398993D01*
X14798897Y-20402420D01*
G37*
%TD.AperFunction*%
%TD*%
%TA.AperFunction,Conductor*%
%TO.N,/D7*%
G36*
X15417226Y-20933589D02*
G01*
X15423542Y-20939936D01*
X15423718Y-20940391D01*
X15486995Y-21114522D01*
X15487409Y-21115927D01*
X15518278Y-21251874D01*
X15518503Y-21253234D01*
X15531413Y-21375278D01*
X15531429Y-21375438D01*
X15544553Y-21518168D01*
X15544554Y-21518174D01*
X15574371Y-21704289D01*
X15572296Y-21713000D01*
X15565101Y-21717615D01*
X15389872Y-21752476D01*
X15381089Y-21750729D01*
X15376583Y-21744971D01*
X15333683Y-21626044D01*
X15261781Y-21558453D01*
X15261777Y-21558451D01*
X15164732Y-21524771D01*
X15043494Y-21498218D01*
X15042444Y-21497936D01*
X14909037Y-21455412D01*
X14902195Y-21449635D01*
X14901443Y-21440712D01*
X14901770Y-21439813D01*
X15047947Y-21085522D01*
X15054269Y-21079183D01*
X15408271Y-20933567D01*
X15417226Y-20933589D01*
G37*
%TD.AperFunction*%
%TD*%
%TA.AperFunction,Conductor*%
%TO.N,/D6*%
G36*
X14580260Y-9442273D02*
G01*
X14580296Y-9442308D01*
X14850153Y-9713120D01*
X14853565Y-9721400D01*
X14850124Y-9729667D01*
X14848847Y-9730767D01*
X14728312Y-9820407D01*
X14726066Y-9821718D01*
X14602647Y-9876347D01*
X14498340Y-9924335D01*
X14426651Y-10001390D01*
X14401788Y-10134155D01*
X14396897Y-10141656D01*
X14390288Y-10143701D01*
X14211540Y-10143701D01*
X14203267Y-10140274D01*
X14199841Y-10132162D01*
X14198037Y-10001390D01*
X14197592Y-9969092D01*
X14191852Y-9845242D01*
X14185006Y-9738376D01*
X14184996Y-9738188D01*
X14183834Y-9713120D01*
X14179269Y-9614630D01*
X14179260Y-9614322D01*
X14177018Y-9451685D01*
X14180331Y-9443367D01*
X14188556Y-9439826D01*
X14188605Y-9439825D01*
X14571979Y-9438867D01*
X14580260Y-9442273D01*
G37*
%TD.AperFunction*%
%TD*%
%TA.AperFunction,Conductor*%
%TO.N,/D6*%
G36*
X14400948Y-21731303D02*
G01*
X14405453Y-21737062D01*
X14448339Y-21855985D01*
X14520232Y-21923577D01*
X14520233Y-21923577D01*
X14520234Y-21923578D01*
X14617280Y-21957262D01*
X14738512Y-21983817D01*
X14739558Y-21984098D01*
X14872962Y-22026624D01*
X14879804Y-22032401D01*
X14880556Y-22041324D01*
X14880225Y-22042233D01*
X14734053Y-22396512D01*
X14727729Y-22402853D01*
X14727688Y-22402870D01*
X14373728Y-22548469D01*
X14364773Y-22548447D01*
X14358457Y-22542100D01*
X14358292Y-22541673D01*
X14294998Y-22367500D01*
X14294589Y-22366111D01*
X14263718Y-22230139D01*
X14263498Y-22228809D01*
X14250584Y-22106654D01*
X14237463Y-21963849D01*
X14207662Y-21777725D01*
X14209738Y-21769016D01*
X14216932Y-21764402D01*
X14392166Y-21729556D01*
X14400948Y-21731303D01*
G37*
%TD.AperFunction*%
%TD*%
%TA.AperFunction,Conductor*%
%TO.N,/D6*%
G36*
X15120190Y-22400007D02*
G01*
X15128454Y-22403455D01*
X15131860Y-22411736D01*
X15131859Y-22411847D01*
X15129922Y-22574166D01*
X15129914Y-22574495D01*
X15124962Y-22697948D01*
X15124953Y-22698127D01*
X15119041Y-22804751D01*
X15114079Y-22928458D01*
X15112138Y-23091193D01*
X15108613Y-23099424D01*
X15100439Y-23102753D01*
X14921695Y-23102753D01*
X14913422Y-23099326D01*
X14910199Y-23093226D01*
X14885075Y-22960315D01*
X14885074Y-22960313D01*
X14885074Y-22960312D01*
X14812709Y-22883607D01*
X14812708Y-22883606D01*
X14812707Y-22883605D01*
X14707549Y-22836144D01*
X14583349Y-22781921D01*
X14581065Y-22780599D01*
X14460042Y-22690943D01*
X14455435Y-22683265D01*
X14457606Y-22674577D01*
X14458711Y-22673291D01*
X14728559Y-22402489D01*
X14736824Y-22399049D01*
X15120190Y-22400007D01*
G37*
%TD.AperFunction*%
%TD*%
%TA.AperFunction,Conductor*%
%TO.N,/D1*%
G36*
X7137589Y-20650130D02*
G01*
X7140760Y-20655969D01*
X7169698Y-20792058D01*
X7169699Y-20792059D01*
X7251919Y-20864239D01*
X7369691Y-20904387D01*
X7505764Y-20953113D01*
X7508543Y-20954553D01*
X7637475Y-21045167D01*
X7642273Y-21052727D01*
X7640319Y-21061467D01*
X7639035Y-21062998D01*
X7369441Y-21333546D01*
X7361174Y-21336987D01*
X7361124Y-21336987D01*
X6977479Y-21336028D01*
X6969214Y-21332580D01*
X6965810Y-21324522D01*
X6963170Y-21164987D01*
X6963170Y-21164976D01*
X6956422Y-21043699D01*
X6948367Y-20939003D01*
X6941630Y-20817940D01*
X6941615Y-20817484D01*
X6938987Y-20658596D01*
X6942276Y-20650268D01*
X6950492Y-20646705D01*
X6950685Y-20646703D01*
X7129316Y-20646703D01*
X7137589Y-20650130D01*
G37*
%TD.AperFunction*%
%TD*%
%TA.AperFunction,Conductor*%
%TO.N,/A0*%
G36*
X10129885Y-30024642D02*
G01*
X10133308Y-30032599D01*
X10137783Y-30198192D01*
X10137784Y-30198206D01*
X10149192Y-30323553D01*
X10162781Y-30431459D01*
X10162825Y-30431860D01*
X10174182Y-30556640D01*
X10174226Y-30557385D01*
X10178676Y-30722013D01*
X10175474Y-30730376D01*
X10167296Y-30734025D01*
X10167009Y-30734029D01*
X9783875Y-30734987D01*
X9775594Y-30731581D01*
X9775558Y-30731546D01*
X9505566Y-30460599D01*
X9502154Y-30452319D01*
X9505595Y-30444052D01*
X9506727Y-30443062D01*
X9623886Y-30353349D01*
X9625838Y-30352141D01*
X9743540Y-30294463D01*
X9841641Y-30242536D01*
X9908371Y-30162807D01*
X9931314Y-30030910D01*
X9936108Y-30023346D01*
X9942841Y-30021215D01*
X10121612Y-30021215D01*
X10129885Y-30024642D01*
G37*
%TD.AperFunction*%
%TD*%
%TA.AperFunction,Conductor*%
%TO.N,/A0*%
G36*
X10019493Y-4296479D02*
G01*
X10025809Y-4302826D01*
X10025886Y-4303018D01*
X10093020Y-4474789D01*
X10093284Y-4475539D01*
X10134923Y-4607973D01*
X10135189Y-4608968D01*
X10161088Y-4726704D01*
X10161189Y-4727219D01*
X10185193Y-4865622D01*
X10219011Y-5048400D01*
X10217146Y-5057159D01*
X10209789Y-5062004D01*
X10034614Y-5096858D01*
X10025831Y-5095112D01*
X10021415Y-5089594D01*
X10005525Y-5048400D01*
X9974363Y-4967611D01*
X9974362Y-4967610D01*
X9974361Y-4967608D01*
X9894139Y-4905015D01*
X9894137Y-4905014D01*
X9786605Y-4879579D01*
X9786603Y-4879578D01*
X9786596Y-4879577D01*
X9786600Y-4879577D01*
X9654884Y-4860011D01*
X9653321Y-4859668D01*
X9511428Y-4818205D01*
X9504448Y-4812596D01*
X9503480Y-4803693D01*
X9503894Y-4802513D01*
X9649947Y-4448522D01*
X9656269Y-4442183D01*
X10010539Y-4296457D01*
X10019493Y-4296479D01*
G37*
%TD.AperFunction*%
%TD*%
%TA.AperFunction,Conductor*%
%TO.N,/A2*%
G36*
X8728048Y-32224264D02*
G01*
X8731152Y-32229808D01*
X8764914Y-32370538D01*
X8764914Y-32370539D01*
X8859579Y-32436768D01*
X8859578Y-32436768D01*
X8859580Y-32436769D01*
X8959284Y-32459357D01*
X8993123Y-32467024D01*
X8993626Y-32467150D01*
X9072885Y-32488837D01*
X9144866Y-32508532D01*
X9148223Y-32510053D01*
X9287899Y-32602271D01*
X9292915Y-32609689D01*
X9291217Y-32618481D01*
X9289741Y-32620294D01*
X9020441Y-32890546D01*
X9012174Y-32893987D01*
X9012124Y-32893987D01*
X8628051Y-32893027D01*
X8619786Y-32889579D01*
X8616397Y-32881965D01*
X8607848Y-32725477D01*
X8586024Y-32607589D01*
X8560074Y-32506629D01*
X8559903Y-32505853D01*
X8552715Y-32467024D01*
X8538286Y-32389085D01*
X8538111Y-32387619D01*
X8529674Y-32233174D01*
X8532645Y-32224727D01*
X8540719Y-32220854D01*
X8541357Y-32220837D01*
X8719775Y-32220837D01*
X8728048Y-32224264D01*
G37*
%TD.AperFunction*%
%TD*%
%TA.AperFunction,Conductor*%
%TO.N,/A1*%
G36*
X9153361Y-31225943D02*
G01*
X9157782Y-31231473D01*
X9204612Y-31353289D01*
X9284415Y-31416140D01*
X9391418Y-31442001D01*
X9522610Y-31461928D01*
X9524134Y-31462266D01*
X9665590Y-31503784D01*
X9672563Y-31509402D01*
X9673521Y-31518305D01*
X9673111Y-31519472D01*
X9527053Y-31873475D01*
X9520729Y-31879816D01*
X9520688Y-31879833D01*
X9166474Y-32025537D01*
X9157519Y-32025515D01*
X9151203Y-32019168D01*
X9151121Y-32018963D01*
X9096940Y-31879833D01*
X9084184Y-31847075D01*
X9083914Y-31846303D01*
X9042818Y-31713665D01*
X9042553Y-31712650D01*
X9017315Y-31594696D01*
X9017220Y-31594199D01*
X8993775Y-31455589D01*
X8993771Y-31455568D01*
X8993761Y-31455508D01*
X8960171Y-31272625D01*
X8962047Y-31263870D01*
X8969394Y-31259039D01*
X9144580Y-31224196D01*
X9153361Y-31225943D01*
G37*
%TD.AperFunction*%
%TD*%
%TA.AperFunction,Conductor*%
%TO.N,/A9*%
G36*
X11818009Y-17398970D02*
G01*
X11826274Y-17402418D01*
X11829680Y-17410699D01*
X11829676Y-17410986D01*
X11825226Y-17575613D01*
X11825182Y-17576358D01*
X11813825Y-17701138D01*
X11813781Y-17701539D01*
X11800192Y-17809446D01*
X11788784Y-17934792D01*
X11788783Y-17934806D01*
X11784308Y-18100402D01*
X11780659Y-18108580D01*
X11772612Y-18111786D01*
X11593841Y-18111786D01*
X11585568Y-18108359D01*
X11582314Y-18102091D01*
X11574184Y-18055355D01*
X11559371Y-17970192D01*
X11559370Y-17970191D01*
X11559370Y-17970190D01*
X11492642Y-17890464D01*
X11492641Y-17890463D01*
X11394541Y-17838536D01*
X11394532Y-17838531D01*
X11394512Y-17838521D01*
X11276845Y-17780861D01*
X11274880Y-17779644D01*
X11157740Y-17689947D01*
X11153256Y-17682198D01*
X11155565Y-17673546D01*
X11156560Y-17672405D01*
X11426559Y-17401452D01*
X11434824Y-17398012D01*
X11818009Y-17398970D01*
G37*
%TD.AperFunction*%
%TD*%
%TA.AperFunction,Conductor*%
%TO.N,/A9*%
G36*
X11346396Y-43553717D02*
G01*
X11485180Y-43581321D01*
X11492626Y-43586296D01*
X11494396Y-43594959D01*
X11460096Y-43777254D01*
X11460097Y-43777255D01*
X11434710Y-43915206D01*
X11434593Y-43915765D01*
X11407060Y-44032925D01*
X11406794Y-44033873D01*
X11363786Y-44165854D01*
X11363546Y-44166521D01*
X11295907Y-44338028D01*
X11289684Y-44344467D01*
X11280731Y-44344620D01*
X11280572Y-44344556D01*
X10926311Y-44198833D01*
X10919964Y-44192517D01*
X10919946Y-44192475D01*
X10909104Y-44166197D01*
X10773908Y-43838520D01*
X10773921Y-43829568D01*
X10780262Y-43823244D01*
X10781464Y-43822823D01*
X10924491Y-43781477D01*
X10926093Y-43781136D01*
X11001679Y-43770527D01*
X11059139Y-43762463D01*
X11059141Y-43762463D01*
X11074956Y-43758920D01*
X11167993Y-43738081D01*
X11249255Y-43676115D01*
X11296825Y-43553715D01*
X11303015Y-43547247D01*
X11310010Y-43546480D01*
X11346396Y-43553717D01*
G37*
%TD.AperFunction*%
%TD*%
%TA.AperFunction,Conductor*%
%TO.N,/A13*%
G36*
X22558295Y-37371828D02*
G01*
X22558929Y-37373123D01*
X22859027Y-38095964D01*
X22859034Y-38104919D01*
X22859025Y-38104941D01*
X22558610Y-38827657D01*
X22552270Y-38833981D01*
X22543315Y-38833970D01*
X22542699Y-38833692D01*
X22208317Y-38671449D01*
X22206821Y-38670582D01*
X21981307Y-38516421D01*
X21980389Y-38515724D01*
X21796053Y-38361030D01*
X21796054Y-38361030D01*
X21681785Y-38273828D01*
X21575515Y-38192729D01*
X21251048Y-38003586D01*
X21245626Y-37996459D01*
X21246514Y-37988168D01*
X21327830Y-37828579D01*
X21334639Y-37822766D01*
X21341695Y-37822711D01*
X21441694Y-37853484D01*
X21624704Y-37909805D01*
X21839818Y-37858150D01*
X22030884Y-37715609D01*
X22250360Y-37533590D01*
X22252036Y-37532433D01*
X22542344Y-37367436D01*
X22551228Y-37366328D01*
X22558295Y-37371828D01*
G37*
%TD.AperFunction*%
%TD*%
%TA.AperFunction,Conductor*%
%TO.N,/A8*%
G36*
X10925405Y-16385418D02*
G01*
X10925435Y-16385447D01*
X10934043Y-16394086D01*
X11194774Y-16655738D01*
X11198186Y-16664018D01*
X11194745Y-16672285D01*
X11192963Y-16673740D01*
X11054553Y-16765757D01*
X11051258Y-16767273D01*
X10901778Y-16809515D01*
X10901311Y-16809637D01*
X10830069Y-16826629D01*
X10769588Y-16841055D01*
X10769587Y-16841055D01*
X10769585Y-16841056D01*
X10676343Y-16907984D01*
X10643133Y-17048160D01*
X10637891Y-17055421D01*
X10631748Y-17057163D01*
X10453301Y-17057163D01*
X10445028Y-17053736D01*
X10441601Y-17045463D01*
X10441616Y-17044877D01*
X10449389Y-16889966D01*
X10449539Y-16888593D01*
X10462967Y-16809515D01*
X10469452Y-16771319D01*
X10469598Y-16770602D01*
X10470740Y-16765757D01*
X10493488Y-16669193D01*
X10513576Y-16550890D01*
X10521443Y-16394084D01*
X10525280Y-16385995D01*
X10533098Y-16382972D01*
X10917124Y-16382012D01*
X10925405Y-16385418D01*
G37*
%TD.AperFunction*%
%TD*%
%TA.AperFunction,Conductor*%
%TO.N,/A8*%
G36*
X10992137Y-42468049D02*
G01*
X10999583Y-42473024D01*
X11001383Y-42481518D01*
X10969504Y-42665794D01*
X10950717Y-42806314D01*
X10950666Y-42806657D01*
X10931008Y-42926501D01*
X10930753Y-42927674D01*
X10894310Y-43061812D01*
X10893965Y-43062877D01*
X10828721Y-43235716D01*
X10822593Y-43242246D01*
X10813643Y-43242530D01*
X10813324Y-43242404D01*
X10459226Y-43096748D01*
X10452879Y-43090432D01*
X10452861Y-43090390D01*
X10306752Y-42736263D01*
X10306765Y-42727311D01*
X10313106Y-42720987D01*
X10314154Y-42720612D01*
X10451911Y-42678651D01*
X10453200Y-42678339D01*
X10579882Y-42655403D01*
X10682392Y-42625990D01*
X10758638Y-42561009D01*
X10803689Y-42440563D01*
X10809797Y-42434017D01*
X10816929Y-42433189D01*
X10992137Y-42468049D01*
G37*
%TD.AperFunction*%
%TD*%
%TA.AperFunction,Conductor*%
%TO.N,/A7*%
G36*
X10290405Y-15496418D02*
G01*
X10290435Y-15496447D01*
X10560433Y-15767400D01*
X10563845Y-15775679D01*
X10560404Y-15783946D01*
X10559258Y-15784947D01*
X10442117Y-15874644D01*
X10440153Y-15875861D01*
X10322473Y-15933528D01*
X10224355Y-15985464D01*
X10157628Y-16065190D01*
X10134686Y-16197091D01*
X10129892Y-16204655D01*
X10123159Y-16206786D01*
X9944388Y-16206786D01*
X9936115Y-16203359D01*
X9932692Y-16195402D01*
X9929172Y-16065192D01*
X9928216Y-16029801D01*
X9916808Y-15904458D01*
X9916807Y-15904446D01*
X9911050Y-15858733D01*
X9903213Y-15796496D01*
X9903178Y-15796180D01*
X9891815Y-15671325D01*
X9891774Y-15670643D01*
X9887323Y-15505983D01*
X9890525Y-15497623D01*
X9898703Y-15493974D01*
X9898987Y-15493970D01*
X10282124Y-15493012D01*
X10290405Y-15496418D01*
G37*
%TD.AperFunction*%
%TD*%
%TA.AperFunction,Conductor*%
%TO.N,/~{WD}*%
G36*
X1531768Y-16636967D02*
G01*
X1540031Y-16640415D01*
X1543428Y-16648221D01*
X1549447Y-16805943D01*
X1549449Y-16805967D01*
X1564823Y-16925366D01*
X1581482Y-17018768D01*
X1581748Y-17020260D01*
X1583126Y-17027983D01*
X1583212Y-17028543D01*
X1598485Y-17147158D01*
X1598572Y-17148206D01*
X1604491Y-17303296D01*
X1604500Y-17303742D01*
X1604500Y-17304934D01*
X1601073Y-17313207D01*
X1592800Y-17316634D01*
X1414327Y-17316634D01*
X1406054Y-17313207D01*
X1402921Y-17307541D01*
X1371213Y-17168832D01*
X1281845Y-17100004D01*
X1281843Y-17100003D01*
X1281844Y-17100003D01*
X1155085Y-17065452D01*
X1154718Y-17065346D01*
X1009998Y-17020774D01*
X1006878Y-17019277D01*
X871858Y-16927769D01*
X866932Y-16920291D01*
X868737Y-16911520D01*
X870125Y-16909834D01*
X1139559Y-16639448D01*
X1147824Y-16636008D01*
X1531768Y-16636967D01*
G37*
%TD.AperFunction*%
%TD*%
%TA.AperFunction,Conductor*%
%TO.N,/A14*%
G36*
X21068285Y-13313564D02*
G01*
X21074601Y-13319911D01*
X21074756Y-13320308D01*
X21138865Y-13493869D01*
X21139251Y-13495128D01*
X21172495Y-13630285D01*
X21172736Y-13631567D01*
X21188539Y-13752713D01*
X21188567Y-13752951D01*
X21204105Y-13894668D01*
X21204110Y-13894702D01*
X21234802Y-14080007D01*
X21232773Y-14088729D01*
X21225542Y-14093394D01*
X21050320Y-14128253D01*
X21041537Y-14126506D01*
X21037053Y-14120805D01*
X21018285Y-14069598D01*
X20993238Y-14001257D01*
X20993235Y-14001253D01*
X20919471Y-13934790D01*
X20820080Y-13902938D01*
X20725874Y-13883875D01*
X20696529Y-13877937D01*
X20695359Y-13877636D01*
X20560126Y-13835365D01*
X20553252Y-13829626D01*
X20552450Y-13820707D01*
X20552792Y-13819758D01*
X20698947Y-13465522D01*
X20705269Y-13459183D01*
X21059332Y-13313542D01*
X21068285Y-13313564D01*
G37*
%TD.AperFunction*%
%TD*%
%TA.AperFunction,Conductor*%
%TO.N,/A6*%
G36*
X4297405Y-15623418D02*
G01*
X4297435Y-15623447D01*
X4306270Y-15632313D01*
X4566923Y-15893888D01*
X4570335Y-15902168D01*
X4566894Y-15910435D01*
X4565255Y-15911794D01*
X4432353Y-16002985D01*
X4429346Y-16004466D01*
X4287643Y-16050474D01*
X4287342Y-16050567D01*
X4163708Y-16087062D01*
X4076797Y-16157062D01*
X4055971Y-16250371D01*
X4046612Y-16292305D01*
X4046043Y-16294854D01*
X4040896Y-16302182D01*
X4034624Y-16304005D01*
X3856065Y-16304005D01*
X3847792Y-16300578D01*
X3844365Y-16292305D01*
X3844370Y-16291947D01*
X3849187Y-16134771D01*
X3849244Y-16133927D01*
X3857853Y-16050567D01*
X3861578Y-16014485D01*
X3861633Y-16014046D01*
X3876399Y-15910731D01*
X3877111Y-15903843D01*
X3888800Y-15790648D01*
X3893653Y-15632312D01*
X3897332Y-15624148D01*
X3905317Y-15620971D01*
X4289124Y-15620012D01*
X4297405Y-15623418D01*
G37*
%TD.AperFunction*%
%TD*%
%TA.AperFunction,Conductor*%
%TO.N,/D3*%
G36*
X8586208Y-27260420D02*
G01*
X8589635Y-27268693D01*
X8589630Y-27269051D01*
X8584812Y-27426225D01*
X8584755Y-27427069D01*
X8572422Y-27546498D01*
X8572366Y-27546951D01*
X8557600Y-27650266D01*
X8545200Y-27770339D01*
X8540346Y-27928687D01*
X8536667Y-27936851D01*
X8528680Y-27940028D01*
X8144875Y-27940987D01*
X8136594Y-27937581D01*
X8136558Y-27937546D01*
X8135865Y-27936851D01*
X7867076Y-27667111D01*
X7863664Y-27658831D01*
X7867105Y-27650564D01*
X7868734Y-27649212D01*
X8001653Y-27558007D01*
X8004644Y-27556534D01*
X8146404Y-27510507D01*
X8146600Y-27510447D01*
X8270291Y-27473934D01*
X8357201Y-27403935D01*
X8387957Y-27266143D01*
X8393104Y-27258816D01*
X8399376Y-27256993D01*
X8577935Y-27256993D01*
X8586208Y-27260420D01*
G37*
%TD.AperFunction*%
%TD*%
%TA.AperFunction,Conductor*%
%TO.N,/D3*%
G36*
X8382452Y-12956434D02*
G01*
X8385014Y-12960261D01*
X8530133Y-13311601D01*
X8530124Y-13320556D01*
X8523786Y-13326882D01*
X8522679Y-13327275D01*
X8387340Y-13367849D01*
X8386067Y-13368154D01*
X8256878Y-13391577D01*
X8153449Y-13421943D01*
X8084303Y-13486897D01*
X8059329Y-13604740D01*
X8054261Y-13612123D01*
X8047655Y-13614012D01*
X7869964Y-13610550D01*
X7861759Y-13606962D01*
X7858494Y-13598624D01*
X7858541Y-13597778D01*
X7872730Y-13446873D01*
X7873087Y-13444910D01*
X7903920Y-13331676D01*
X7904211Y-13330766D01*
X7940002Y-13233140D01*
X7969662Y-13118464D01*
X7981190Y-12964802D01*
X7985225Y-12956811D01*
X7992824Y-12953980D01*
X8374172Y-12953028D01*
X8382452Y-12956434D01*
G37*
%TD.AperFunction*%
%TD*%
%TA.AperFunction,Conductor*%
%TO.N,/~{RD}*%
G36*
X21969021Y-19050153D02*
G01*
X22017244Y-19128530D01*
X22127222Y-19307280D01*
X22320634Y-19421818D01*
X22552568Y-19457470D01*
X22552595Y-19457472D01*
X22552605Y-19457474D01*
X22612914Y-19463734D01*
X22830560Y-19486326D01*
X22832520Y-19486701D01*
X23153490Y-19577322D01*
X23160521Y-19582868D01*
X23161571Y-19591761D01*
X23161124Y-19593050D01*
X22862238Y-20316430D01*
X22855912Y-20322767D01*
X22855889Y-20322777D01*
X22132494Y-20621359D01*
X22123539Y-20621348D01*
X22117215Y-20615008D01*
X22116930Y-20614242D01*
X22019838Y-20322767D01*
X22000441Y-20264538D01*
X21999983Y-20262651D01*
X21958026Y-19992985D01*
X21957916Y-19991988D01*
X21941961Y-19751846D01*
X21899779Y-19480728D01*
X21782463Y-19128529D01*
X21783099Y-19119597D01*
X21789084Y-19114024D01*
X21954580Y-19045475D01*
X21963533Y-19045475D01*
X21969021Y-19050153D01*
G37*
%TD.AperFunction*%
%TD*%
%TA.AperFunction,Conductor*%
%TO.N,/A2*%
G36*
X8835854Y-6020230D02*
G01*
X8842171Y-6026578D01*
X8842284Y-6026865D01*
X8901337Y-6181976D01*
X8901596Y-6182731D01*
X8938369Y-6303501D01*
X8938487Y-6303916D01*
X8966538Y-6409931D01*
X9003484Y-6531274D01*
X9003486Y-6531280D01*
X9062915Y-6687381D01*
X9062656Y-6696332D01*
X9056458Y-6702353D01*
X8891309Y-6770758D01*
X8882354Y-6770758D01*
X8876927Y-6766176D01*
X8805352Y-6652318D01*
X8805350Y-6652316D01*
X8713606Y-6602663D01*
X8603607Y-6590494D01*
X8473093Y-6580804D01*
X8470897Y-6580428D01*
X8328199Y-6541737D01*
X8321111Y-6536265D01*
X8319969Y-6527383D01*
X8320441Y-6525994D01*
X8466218Y-6172294D01*
X8472538Y-6165953D01*
X8472545Y-6165949D01*
X8826901Y-6020207D01*
X8835854Y-6020230D01*
G37*
%TD.AperFunction*%
%TD*%
%TA.AperFunction,Conductor*%
%TO.N,/A1*%
G36*
X9346726Y-5103348D02*
G01*
X9353042Y-5109695D01*
X9353319Y-5110438D01*
X9399525Y-5248947D01*
X9401202Y-5253972D01*
X9401616Y-5255589D01*
X9422781Y-5372420D01*
X9422834Y-5372741D01*
X9438458Y-5475104D01*
X9438461Y-5475120D01*
X9473504Y-5585574D01*
X9473505Y-5585576D01*
X9473506Y-5585578D01*
X9530522Y-5687066D01*
X9547726Y-5717690D01*
X9548790Y-5726582D01*
X9544025Y-5733149D01*
X9395201Y-5832586D01*
X9386418Y-5834333D01*
X9379964Y-5830639D01*
X9291070Y-5730822D01*
X9291068Y-5730820D01*
X9291066Y-5730818D01*
X9197446Y-5687067D01*
X9197444Y-5687066D01*
X9135767Y-5679950D01*
X9095660Y-5675323D01*
X9002916Y-5666520D01*
X8976570Y-5664020D01*
X8974446Y-5663617D01*
X8839299Y-5624796D01*
X8832293Y-5619218D01*
X8831284Y-5610321D01*
X8831710Y-5609096D01*
X8841395Y-5585578D01*
X8977393Y-5255311D01*
X8983711Y-5248967D01*
X9337773Y-5103326D01*
X9346726Y-5103348D01*
G37*
%TD.AperFunction*%
%TD*%
%TA.AperFunction,Conductor*%
%TO.N,/D1*%
G36*
X8031716Y-9573465D02*
G01*
X8104952Y-9603999D01*
X8111270Y-9610346D01*
X8111249Y-9619300D01*
X8110900Y-9620059D01*
X8037360Y-9766124D01*
X8036611Y-9767404D01*
X7963734Y-9875494D01*
X7903262Y-9969897D01*
X7862158Y-10085002D01*
X7847947Y-10245097D01*
X7843802Y-10253034D01*
X7836293Y-10255762D01*
X7657707Y-10255762D01*
X7649434Y-10252335D01*
X7646053Y-10245097D01*
X7631840Y-10085002D01*
X7631840Y-10085000D01*
X7590738Y-9969900D01*
X7530261Y-9875490D01*
X7457382Y-9767397D01*
X7456642Y-9766132D01*
X7383099Y-9620059D01*
X7382439Y-9611129D01*
X7388288Y-9604348D01*
X7389047Y-9603999D01*
X7742500Y-9456637D01*
X7751449Y-9456617D01*
X8031716Y-9573465D01*
G37*
%TD.AperFunction*%
%TD*%
%TA.AperFunction,Conductor*%
%TO.N,/D2*%
G36*
X6476566Y-24729832D02*
G01*
X6479947Y-24737070D01*
X6494158Y-24897163D01*
X6535262Y-25012267D01*
X6595734Y-25106671D01*
X6668611Y-25214760D01*
X6669360Y-25216040D01*
X6742900Y-25362107D01*
X6743560Y-25371037D01*
X6737711Y-25377818D01*
X6736952Y-25378167D01*
X6383502Y-25525528D01*
X6374548Y-25525549D01*
X6374498Y-25525528D01*
X6021046Y-25378167D01*
X6014728Y-25371820D01*
X6014749Y-25362866D01*
X6015083Y-25362139D01*
X6088646Y-25216025D01*
X6089378Y-25214774D01*
X6162261Y-25106676D01*
X6222738Y-25012265D01*
X6263840Y-24897166D01*
X6278053Y-24737069D01*
X6282198Y-24729133D01*
X6289707Y-24726405D01*
X6468293Y-24726405D01*
X6476566Y-24729832D01*
G37*
%TD.AperFunction*%
%TD*%
%TA.AperFunction,Conductor*%
%TO.N,/A7*%
G36*
X10087727Y-41707914D02*
G01*
X10232415Y-41813035D01*
X10237093Y-41820670D01*
X10235426Y-41828753D01*
X10153281Y-41958649D01*
X10153280Y-41958651D01*
X10109204Y-42067232D01*
X10085263Y-42168669D01*
X10085264Y-42168670D01*
X10057786Y-42285862D01*
X10057440Y-42287052D01*
X10006626Y-42432415D01*
X10000661Y-42439094D01*
X9991720Y-42439599D01*
X9991130Y-42439374D01*
X9636924Y-42293664D01*
X9630577Y-42287348D01*
X9630556Y-42287298D01*
X9581713Y-42168669D01*
X9484913Y-41933558D01*
X9484932Y-41924606D01*
X9491278Y-41918287D01*
X9492517Y-41917856D01*
X9636436Y-41876808D01*
X9638652Y-41876402D01*
X9686666Y-41872345D01*
X9764315Y-41865784D01*
X9783811Y-41863942D01*
X9872321Y-41855586D01*
X9973390Y-41812205D01*
X10072424Y-41709267D01*
X10080627Y-41705683D01*
X10087727Y-41707914D01*
G37*
%TD.AperFunction*%
%TD*%
%TA.AperFunction,Conductor*%
%TO.N,/D0*%
G36*
X7135068Y-8233709D02*
G01*
X7302405Y-8302569D01*
X7489195Y-8379436D01*
X7495542Y-8385754D01*
X7495563Y-8385804D01*
X7641290Y-8739930D01*
X7641269Y-8748884D01*
X7634922Y-8755202D01*
X7634139Y-8755492D01*
X7478852Y-8806776D01*
X7477418Y-8807151D01*
X7349447Y-8832052D01*
X7239941Y-8856043D01*
X7179778Y-8884545D01*
X7129490Y-8908368D01*
X7129488Y-8908369D01*
X7129485Y-8908371D01*
X7006235Y-9011523D01*
X6997691Y-9014205D01*
X6990453Y-9010824D01*
X6864174Y-8884545D01*
X6860747Y-8876272D01*
X6863473Y-8868766D01*
X6966630Y-8745508D01*
X7018954Y-8635058D01*
X7042949Y-8525535D01*
X7067849Y-8397569D01*
X7068218Y-8396157D01*
X7119507Y-8240858D01*
X7125355Y-8234079D01*
X7134285Y-8233419D01*
X7135068Y-8233709D01*
G37*
%TD.AperFunction*%
%TD*%
%TA.AperFunction,Conductor*%
%TO.N,/D0*%
G36*
X5726566Y-19621441D02*
G01*
X5729947Y-19628679D01*
X5744158Y-19788772D01*
X5785262Y-19903876D01*
X5845734Y-19998280D01*
X5918611Y-20106369D01*
X5919360Y-20107649D01*
X5992900Y-20253716D01*
X5993560Y-20262646D01*
X5987711Y-20269427D01*
X5986952Y-20269776D01*
X5633502Y-20417137D01*
X5624548Y-20417158D01*
X5624498Y-20417137D01*
X5271046Y-20269776D01*
X5264728Y-20263429D01*
X5264749Y-20254475D01*
X5265083Y-20253748D01*
X5338646Y-20107634D01*
X5339378Y-20106383D01*
X5412261Y-19998285D01*
X5472738Y-19903874D01*
X5513840Y-19788775D01*
X5528053Y-19628678D01*
X5532198Y-19620742D01*
X5539707Y-19618014D01*
X5718293Y-19618014D01*
X5726566Y-19621441D01*
G37*
%TD.AperFunction*%
%TD*%
%TA.AperFunction,Conductor*%
%TO.N,/~{RD}*%
G36*
X20763088Y-9865331D02*
G01*
X20836324Y-9895865D01*
X20842642Y-9902212D01*
X20842621Y-9911166D01*
X20842272Y-9911925D01*
X20768732Y-10057990D01*
X20767983Y-10059270D01*
X20695106Y-10167360D01*
X20634634Y-10261763D01*
X20593530Y-10376868D01*
X20579319Y-10536963D01*
X20575174Y-10544900D01*
X20567665Y-10547628D01*
X20389079Y-10547628D01*
X20380806Y-10544201D01*
X20377425Y-10536963D01*
X20363212Y-10376868D01*
X20363212Y-10376866D01*
X20322110Y-10261766D01*
X20261633Y-10167356D01*
X20188754Y-10059263D01*
X20188014Y-10057998D01*
X20114471Y-9911925D01*
X20113811Y-9902995D01*
X20119660Y-9896214D01*
X20120419Y-9895865D01*
X20473872Y-9748503D01*
X20482821Y-9748483D01*
X20763088Y-9865331D01*
G37*
%TD.AperFunction*%
%TD*%
%TA.AperFunction,Conductor*%
%TO.N,/A10*%
G36*
X14067566Y-42256427D02*
G01*
X14070947Y-42263665D01*
X14085158Y-42423758D01*
X14126262Y-42538862D01*
X14186734Y-42633266D01*
X14259611Y-42741355D01*
X14260360Y-42742635D01*
X14333900Y-42888702D01*
X14334560Y-42897632D01*
X14328711Y-42904413D01*
X14327952Y-42904762D01*
X13974502Y-43052123D01*
X13965548Y-43052144D01*
X13965498Y-43052123D01*
X13612046Y-42904762D01*
X13605728Y-42898415D01*
X13605749Y-42889461D01*
X13606083Y-42888734D01*
X13679646Y-42742620D01*
X13680378Y-42741369D01*
X13753261Y-42633271D01*
X13813738Y-42538860D01*
X13854840Y-42423761D01*
X13869053Y-42263664D01*
X13873198Y-42255728D01*
X13880707Y-42253000D01*
X14059293Y-42253000D01*
X14067566Y-42256427D01*
G37*
%TD.AperFunction*%
%TD*%
%TA.AperFunction,Conductor*%
%TO.N,/A10*%
G36*
X16167276Y-16869568D02*
G01*
X16173593Y-16875916D01*
X16173750Y-16876321D01*
X16234099Y-17040110D01*
X16234429Y-17041153D01*
X16268436Y-17169239D01*
X16268573Y-17169811D01*
X16292568Y-17282842D01*
X16292574Y-17282865D01*
X16326792Y-17411741D01*
X16326795Y-17411751D01*
X16387645Y-17576896D01*
X16387290Y-17585844D01*
X16381144Y-17591750D01*
X16216101Y-17660114D01*
X16207147Y-17660114D01*
X16201577Y-17655301D01*
X16200877Y-17654128D01*
X16130349Y-17535951D01*
X16130347Y-17535950D01*
X16130347Y-17535949D01*
X16041153Y-17476489D01*
X15975652Y-17462351D01*
X15934177Y-17453400D01*
X15840325Y-17439719D01*
X15805270Y-17434609D01*
X15803617Y-17434244D01*
X15659337Y-17391250D01*
X15652387Y-17385603D01*
X15651465Y-17376696D01*
X15651856Y-17375590D01*
X15797760Y-17021583D01*
X15804080Y-17015242D01*
X15804087Y-17015238D01*
X16158323Y-16869545D01*
X16167276Y-16869568D01*
G37*
%TD.AperFunction*%
%TD*%
%TA.AperFunction,Conductor*%
%TO.N,/A11*%
G36*
X14829566Y-41240427D02*
G01*
X14832947Y-41247665D01*
X14847158Y-41407758D01*
X14888262Y-41522862D01*
X14948734Y-41617266D01*
X15021611Y-41725355D01*
X15022360Y-41726635D01*
X15095900Y-41872702D01*
X15096560Y-41881632D01*
X15090711Y-41888413D01*
X15089952Y-41888762D01*
X14736502Y-42036123D01*
X14727548Y-42036144D01*
X14727498Y-42036123D01*
X14374046Y-41888762D01*
X14367728Y-41882415D01*
X14367749Y-41873461D01*
X14368083Y-41872734D01*
X14441646Y-41726620D01*
X14442378Y-41725369D01*
X14515261Y-41617271D01*
X14575738Y-41522860D01*
X14616840Y-41407761D01*
X14631053Y-41247664D01*
X14635198Y-41239728D01*
X14642707Y-41237000D01*
X14821293Y-41237000D01*
X14829566Y-41240427D01*
G37*
%TD.AperFunction*%
%TD*%
%TA.AperFunction,Conductor*%
%TO.N,/A11*%
G36*
X16180315Y-15408036D02*
G01*
X16186633Y-15414383D01*
X16187023Y-15415484D01*
X16225908Y-15545584D01*
X16226339Y-15547757D01*
X16237576Y-15658795D01*
X16237593Y-15658981D01*
X16245833Y-15755776D01*
X16245833Y-15755777D01*
X16279425Y-15853412D01*
X16360483Y-15959529D01*
X16362782Y-15968184D01*
X16359314Y-15975046D01*
X16230390Y-16099581D01*
X16222058Y-16102864D01*
X16214918Y-16100275D01*
X16111887Y-16017211D01*
X16111885Y-16017210D01*
X16111884Y-16017209D01*
X16014983Y-15983815D01*
X16014981Y-15983814D01*
X15917528Y-15977101D01*
X15917349Y-15977088D01*
X15805416Y-15967653D01*
X15803126Y-15967227D01*
X15673197Y-15929363D01*
X15666213Y-15923758D01*
X15665237Y-15914857D01*
X15665643Y-15913694D01*
X15811218Y-15559957D01*
X15817534Y-15553613D01*
X16171363Y-15408015D01*
X16180315Y-15408036D01*
G37*
%TD.AperFunction*%
%TD*%
%TA.AperFunction,Conductor*%
%TO.N,/D7*%
G36*
X14833385Y-34928364D02*
G01*
X14841599Y-34931930D01*
X14844848Y-34939106D01*
X14857426Y-35092486D01*
X14857427Y-35092488D01*
X14899213Y-35202236D01*
X14899216Y-35202240D01*
X14961238Y-35291875D01*
X15034379Y-35394066D01*
X15034891Y-35394781D01*
X15035777Y-35396231D01*
X15107736Y-35535837D01*
X15108480Y-35544760D01*
X15102696Y-35551597D01*
X15101838Y-35551996D01*
X14748483Y-35699309D01*
X14739529Y-35699329D01*
X14683852Y-35676116D01*
X14386078Y-35551964D01*
X14379760Y-35545617D01*
X14379781Y-35536663D01*
X14380134Y-35535894D01*
X14451382Y-35395412D01*
X14452177Y-35394076D01*
X14523709Y-35290508D01*
X14583996Y-35200299D01*
X14626221Y-35089908D01*
X14642865Y-34935775D01*
X14647159Y-34927919D01*
X14654693Y-34925335D01*
X14833385Y-34928364D01*
G37*
%TD.AperFunction*%
%TD*%
%TA.AperFunction,Conductor*%
%TO.N,/A14*%
G36*
X22558253Y-34831981D02*
G01*
X22559227Y-34833838D01*
X22859058Y-35555891D01*
X22859066Y-35564846D01*
X22859057Y-35564869D01*
X22558659Y-36287540D01*
X22552319Y-36293864D01*
X22543364Y-36293853D01*
X22542642Y-36293524D01*
X22264521Y-36155114D01*
X22262897Y-36154133D01*
X22075348Y-36019070D01*
X22074561Y-36018451D01*
X21920018Y-35885692D01*
X21920016Y-35885690D01*
X21860818Y-35843060D01*
X21731280Y-35749778D01*
X21731276Y-35749776D01*
X21450871Y-35610243D01*
X21444990Y-35603489D01*
X21445272Y-35595293D01*
X21514024Y-35429291D01*
X21520355Y-35422961D01*
X21526885Y-35422251D01*
X21610275Y-35437109D01*
X21784674Y-35468183D01*
X21784674Y-35468182D01*
X21784675Y-35468183D01*
X21962020Y-35374436D01*
X22109429Y-35196964D01*
X22109509Y-35196869D01*
X22285717Y-34994471D01*
X22288189Y-34992328D01*
X22542078Y-34828493D01*
X22550888Y-34826888D01*
X22558253Y-34831981D01*
G37*
%TD.AperFunction*%
%TD*%
%TA.AperFunction,Conductor*%
%TO.N,/A13*%
G36*
X20401405Y-14474021D02*
G01*
X20401435Y-14474050D01*
X20583680Y-14656939D01*
X20671824Y-14745395D01*
X20675236Y-14753675D01*
X20671795Y-14761942D01*
X20671035Y-14762635D01*
X20561643Y-14853974D01*
X20560521Y-14854803D01*
X20495097Y-14897330D01*
X20457815Y-14921565D01*
X20457814Y-14921566D01*
X20376808Y-14984720D01*
X20323925Y-15072739D01*
X20323925Y-15072741D01*
X20306356Y-15204325D01*
X20301864Y-15212072D01*
X20294759Y-15214477D01*
X20116019Y-15214477D01*
X20107746Y-15211050D01*
X20104340Y-15203478D01*
X20100522Y-15139896D01*
X20093872Y-15029140D01*
X20093871Y-15029135D01*
X20067338Y-14898953D01*
X20054832Y-14854803D01*
X20035777Y-14787534D01*
X20035579Y-14786719D01*
X20009292Y-14657744D01*
X20009078Y-14656122D01*
X19998742Y-14483971D01*
X20001667Y-14475510D01*
X20009720Y-14471593D01*
X20010391Y-14471572D01*
X20393124Y-14470615D01*
X20401405Y-14474021D01*
G37*
%TD.AperFunction*%
%TD*%
%TA.AperFunction,Conductor*%
%TO.N,/D5*%
G36*
X15996545Y-38868174D02*
G01*
X16122824Y-38994453D01*
X16126251Y-39002726D01*
X16123523Y-39010235D01*
X16020371Y-39133485D01*
X16020369Y-39133488D01*
X16020368Y-39133490D01*
X16017726Y-39139068D01*
X15968043Y-39243941D01*
X15944052Y-39353447D01*
X15919151Y-39481418D01*
X15918776Y-39482852D01*
X15867492Y-39638139D01*
X15861643Y-39644920D01*
X15852713Y-39645580D01*
X15851930Y-39645290D01*
X15497804Y-39499563D01*
X15491457Y-39493245D01*
X15491436Y-39493195D01*
X15345709Y-39139068D01*
X15345730Y-39130114D01*
X15352077Y-39123796D01*
X15352833Y-39123515D01*
X15508157Y-39072218D01*
X15509569Y-39071849D01*
X15637535Y-39046949D01*
X15747058Y-39022954D01*
X15857508Y-38970630D01*
X15980766Y-38867473D01*
X15989307Y-38864793D01*
X15996545Y-38868174D01*
G37*
%TD.AperFunction*%
%TD*%
%TA.AperFunction,Conductor*%
%TO.N,/D5*%
G36*
X17816216Y-27925203D02*
G01*
X17889452Y-27955737D01*
X17895770Y-27962084D01*
X17895749Y-27971038D01*
X17895400Y-27971797D01*
X17821860Y-28117862D01*
X17821111Y-28119142D01*
X17748234Y-28227232D01*
X17687762Y-28321635D01*
X17646658Y-28436740D01*
X17632447Y-28596835D01*
X17628302Y-28604772D01*
X17620793Y-28607500D01*
X17442207Y-28607500D01*
X17433934Y-28604073D01*
X17430553Y-28596835D01*
X17416340Y-28436740D01*
X17416340Y-28436738D01*
X17375238Y-28321638D01*
X17314761Y-28227228D01*
X17241882Y-28119135D01*
X17241142Y-28117870D01*
X17167599Y-27971797D01*
X17166939Y-27962867D01*
X17172788Y-27956086D01*
X17173547Y-27955737D01*
X17527000Y-27808375D01*
X17535949Y-27808355D01*
X17816216Y-27925203D01*
G37*
%TD.AperFunction*%
%TD*%
%TA.AperFunction,Conductor*%
%TO.N,/A16*%
G36*
X13560803Y-33351416D02*
G01*
X13687082Y-33477695D01*
X13690509Y-33485968D01*
X13687781Y-33493477D01*
X13584629Y-33616727D01*
X13584627Y-33616730D01*
X13584626Y-33616732D01*
X13581984Y-33622310D01*
X13532301Y-33727183D01*
X13508310Y-33836689D01*
X13483409Y-33964660D01*
X13483034Y-33966094D01*
X13431750Y-34121381D01*
X13425901Y-34128162D01*
X13416971Y-34128822D01*
X13416188Y-34128532D01*
X13062062Y-33982805D01*
X13055715Y-33976487D01*
X13055694Y-33976437D01*
X12909967Y-33622310D01*
X12909988Y-33613356D01*
X12916335Y-33607038D01*
X12917091Y-33606757D01*
X13072415Y-33555460D01*
X13073827Y-33555091D01*
X13201793Y-33530191D01*
X13311316Y-33506196D01*
X13421766Y-33453872D01*
X13545024Y-33350715D01*
X13553565Y-33348035D01*
X13560803Y-33351416D01*
G37*
%TD.AperFunction*%
%TD*%
%TA.AperFunction,Conductor*%
%TO.N,/A16*%
G36*
X14150040Y-6759943D02*
G01*
X14455993Y-6885802D01*
X14504342Y-6905692D01*
X14510689Y-6912008D01*
X14510710Y-6912058D01*
X14656385Y-7265876D01*
X14656366Y-7274830D01*
X14650020Y-7281149D01*
X14648849Y-7281560D01*
X14499437Y-7325238D01*
X14497368Y-7325645D01*
X14367912Y-7339148D01*
X14257169Y-7352697D01*
X14257168Y-7352698D01*
X14153379Y-7400156D01*
X14153377Y-7400158D01*
X14050895Y-7508051D01*
X14042713Y-7511689D01*
X14035536Y-7509459D01*
X13890955Y-7404421D01*
X13886277Y-7396787D01*
X13887982Y-7388644D01*
X13974105Y-7254293D01*
X14022103Y-7142856D01*
X14049729Y-7038974D01*
X14080568Y-6918496D01*
X14080872Y-6917504D01*
X14134594Y-6766840D01*
X14140599Y-6760201D01*
X14149543Y-6759752D01*
X14150040Y-6759943D01*
G37*
%TD.AperFunction*%
%TD*%
%TA.AperFunction,Conductor*%
%TO.N,/A17*%
G36*
X13539751Y-32301624D02*
G01*
X13666031Y-32427903D01*
X13669458Y-32436176D01*
X13666730Y-32443685D01*
X13563578Y-32566936D01*
X13563576Y-32566939D01*
X13563575Y-32566941D01*
X13543326Y-32609682D01*
X13511250Y-32677391D01*
X13487259Y-32786897D01*
X13462358Y-32914868D01*
X13461983Y-32916302D01*
X13410699Y-33071589D01*
X13404850Y-33078370D01*
X13395920Y-33079030D01*
X13395137Y-33078740D01*
X13041011Y-32933013D01*
X13034664Y-32926695D01*
X13034643Y-32926645D01*
X12888916Y-32572518D01*
X12888937Y-32563564D01*
X12895284Y-32557246D01*
X12896040Y-32556965D01*
X13051364Y-32505668D01*
X13052776Y-32505299D01*
X13180742Y-32480399D01*
X13290264Y-32456404D01*
X13400714Y-32404080D01*
X13523972Y-32300923D01*
X13532513Y-32298243D01*
X13539751Y-32301624D01*
G37*
%TD.AperFunction*%
%TD*%
%TA.AperFunction,Conductor*%
%TO.N,/A17*%
G36*
X13484868Y-5947625D02*
G01*
X13839075Y-6093335D01*
X13845422Y-6099651D01*
X13845443Y-6099701D01*
X13964276Y-6388323D01*
X13980754Y-6428346D01*
X13991086Y-6453439D01*
X13991067Y-6462393D01*
X13984721Y-6468712D01*
X13983476Y-6469144D01*
X13839566Y-6510188D01*
X13837342Y-6510595D01*
X13711682Y-6521213D01*
X13610707Y-6530748D01*
X13603677Y-6531412D01*
X13603675Y-6531412D01*
X13603674Y-6531413D01*
X13502608Y-6574793D01*
X13403576Y-6677730D01*
X13395371Y-6681316D01*
X13388268Y-6679083D01*
X13243585Y-6573964D01*
X13238906Y-6566329D01*
X13240572Y-6558247D01*
X13322718Y-6428347D01*
X13366792Y-6319771D01*
X13390736Y-6218321D01*
X13418213Y-6101128D01*
X13418557Y-6099946D01*
X13418643Y-6099701D01*
X13469373Y-5954582D01*
X13475337Y-5947905D01*
X13484278Y-5947400D01*
X13484868Y-5947625D01*
G37*
%TD.AperFunction*%
%TD*%
%TA.AperFunction,Conductor*%
%TO.N,/A18*%
G36*
X13342738Y-31282807D02*
G01*
X13487797Y-31388190D01*
X13492476Y-31395825D01*
X13490965Y-31403655D01*
X13420659Y-31521370D01*
X13420657Y-31521374D01*
X13389581Y-31622404D01*
X13378375Y-31717451D01*
X13378328Y-31717798D01*
X13362275Y-31826005D01*
X13361842Y-31827864D01*
X13319927Y-31958424D01*
X13314135Y-31965254D01*
X13305211Y-31965988D01*
X13304336Y-31965668D01*
X12950426Y-31820080D01*
X12944079Y-31813764D01*
X12944058Y-31813714D01*
X12798508Y-31460200D01*
X12798527Y-31451246D01*
X12804873Y-31444927D01*
X12806307Y-31444443D01*
X12933087Y-31410768D01*
X12935720Y-31410383D01*
X13049160Y-31406900D01*
X13147586Y-31405002D01*
X13239474Y-31372440D01*
X13327576Y-31284015D01*
X13335842Y-31280574D01*
X13342738Y-31282807D01*
G37*
%TD.AperFunction*%
%TD*%
%TA.AperFunction,Conductor*%
%TO.N,/A18*%
G36*
X12802969Y-5166609D02*
G01*
X13157054Y-5312270D01*
X13163401Y-5318586D01*
X13163422Y-5318636D01*
X13309008Y-5672235D01*
X13308989Y-5681189D01*
X13302643Y-5687508D01*
X13301271Y-5687976D01*
X13165884Y-5724950D01*
X13163400Y-5725348D01*
X13043566Y-5731480D01*
X13043526Y-5731482D01*
X12939940Y-5736428D01*
X12843134Y-5773468D01*
X12749439Y-5868766D01*
X12741195Y-5872263D01*
X12734219Y-5870028D01*
X12732482Y-5868766D01*
X12589357Y-5764773D01*
X12584678Y-5757138D01*
X12586279Y-5749161D01*
X12662288Y-5626135D01*
X12700261Y-5522026D01*
X12718463Y-5424393D01*
X12740714Y-5312302D01*
X12741102Y-5310851D01*
X12787433Y-5173684D01*
X12793327Y-5166943D01*
X12802262Y-5166344D01*
X12802969Y-5166609D01*
G37*
%TD.AperFunction*%
%TD*%
%TA.AperFunction,Conductor*%
%TO.N,/D6*%
G36*
X13823684Y-35211350D02*
G01*
X13831905Y-35214899D01*
X13835171Y-35222087D01*
X13847927Y-35376694D01*
X13889576Y-35487430D01*
X13951379Y-35577964D01*
X14024936Y-35681797D01*
X14025797Y-35683216D01*
X14098076Y-35824004D01*
X14098806Y-35832929D01*
X14093012Y-35839756D01*
X14092170Y-35840147D01*
X13738798Y-35987468D01*
X13729844Y-35987488D01*
X13709352Y-35978945D01*
X13376382Y-35840119D01*
X13370064Y-35833772D01*
X13370085Y-35824818D01*
X13370432Y-35824062D01*
X13442091Y-35682502D01*
X13442869Y-35681190D01*
X13514588Y-35576756D01*
X13574858Y-35485745D01*
X13616888Y-35374457D01*
X13633203Y-35219192D01*
X13637476Y-35211325D01*
X13645009Y-35208718D01*
X13823684Y-35211350D01*
G37*
%TD.AperFunction*%
%TD*%
%TA.AperFunction,Conductor*%
%TO.N,/A20*%
G36*
X13039563Y-29810427D02*
G01*
X13042944Y-29817665D01*
X13057155Y-29977758D01*
X13098259Y-30092862D01*
X13158731Y-30187266D01*
X13231608Y-30295355D01*
X13232357Y-30296635D01*
X13305897Y-30442702D01*
X13306557Y-30451632D01*
X13300708Y-30458413D01*
X13299949Y-30458762D01*
X12946499Y-30606123D01*
X12937545Y-30606144D01*
X12937495Y-30606123D01*
X12584043Y-30458762D01*
X12577725Y-30452415D01*
X12577746Y-30443461D01*
X12578080Y-30442734D01*
X12651643Y-30296620D01*
X12652375Y-30295369D01*
X12725258Y-30187271D01*
X12785735Y-30092860D01*
X12826837Y-29977761D01*
X12841050Y-29817664D01*
X12845195Y-29809728D01*
X12852704Y-29807000D01*
X13031290Y-29807000D01*
X13039563Y-29810427D01*
G37*
%TD.AperFunction*%
%TD*%
%TA.AperFunction,Conductor*%
%TO.N,/A20*%
G36*
X12214868Y-4296625D02*
G01*
X12569075Y-4442335D01*
X12575422Y-4448651D01*
X12575443Y-4448701D01*
X12694276Y-4737323D01*
X12710754Y-4777346D01*
X12721086Y-4802439D01*
X12721067Y-4811393D01*
X12714721Y-4817712D01*
X12713476Y-4818144D01*
X12569566Y-4859188D01*
X12567342Y-4859595D01*
X12441682Y-4870213D01*
X12340707Y-4879748D01*
X12333677Y-4880412D01*
X12333675Y-4880412D01*
X12333674Y-4880413D01*
X12232608Y-4923793D01*
X12133576Y-5026730D01*
X12125371Y-5030316D01*
X12118268Y-5028083D01*
X11973585Y-4922964D01*
X11968906Y-4915329D01*
X11970572Y-4907247D01*
X12052718Y-4777347D01*
X12096792Y-4668771D01*
X12120736Y-4567321D01*
X12148213Y-4450128D01*
X12148557Y-4448946D01*
X12148643Y-4448701D01*
X12199373Y-4303582D01*
X12205337Y-4296905D01*
X12214278Y-4296400D01*
X12214868Y-4296625D01*
G37*
%TD.AperFunction*%
%TD*%
%TA.AperFunction,Conductor*%
%TO.N,/D7*%
G36*
X15778716Y-8785703D02*
G01*
X15851952Y-8816237D01*
X15858270Y-8822584D01*
X15858249Y-8831538D01*
X15857900Y-8832297D01*
X15784360Y-8978362D01*
X15783611Y-8979642D01*
X15710734Y-9087732D01*
X15650262Y-9182135D01*
X15609158Y-9297240D01*
X15594947Y-9457335D01*
X15590802Y-9465272D01*
X15583293Y-9468000D01*
X15404707Y-9468000D01*
X15396434Y-9464573D01*
X15393053Y-9457335D01*
X15378840Y-9297240D01*
X15378840Y-9297238D01*
X15337738Y-9182138D01*
X15277261Y-9087728D01*
X15204382Y-8979635D01*
X15203642Y-8978370D01*
X15130099Y-8832297D01*
X15129439Y-8823367D01*
X15135288Y-8816586D01*
X15136047Y-8816237D01*
X15489500Y-8668875D01*
X15498449Y-8668855D01*
X15778716Y-8785703D01*
G37*
%TD.AperFunction*%
%TD*%
%TA.AperFunction,Conductor*%
%TO.N,/A15*%
G36*
X16115412Y-6963513D02*
G01*
X16121729Y-6969861D01*
X16121837Y-6970135D01*
X16181530Y-7126353D01*
X16181780Y-7127075D01*
X16219309Y-7248539D01*
X16219424Y-7248936D01*
X16248262Y-7355491D01*
X16285965Y-7477518D01*
X16346019Y-7634673D01*
X16345771Y-7643624D01*
X16339567Y-7649658D01*
X16174443Y-7718054D01*
X16165489Y-7718054D01*
X16160052Y-7713459D01*
X16120064Y-7649658D01*
X16087957Y-7598430D01*
X16087955Y-7598429D01*
X16087955Y-7598428D01*
X15995714Y-7547853D01*
X15995711Y-7547852D01*
X15885105Y-7534951D01*
X15753768Y-7524656D01*
X15751604Y-7524280D01*
X15607719Y-7485040D01*
X15600639Y-7479557D01*
X15599509Y-7470674D01*
X15599974Y-7469309D01*
X15745762Y-7115583D01*
X15752082Y-7109242D01*
X15752089Y-7109238D01*
X16106459Y-6963490D01*
X16115412Y-6963513D01*
G37*
%TD.AperFunction*%
%TD*%
%TA.AperFunction,Conductor*%
%TO.N,/3.3V*%
G36*
X13214430Y-37083968D02*
G01*
X13222694Y-37087416D01*
X13226100Y-37095697D01*
X13226068Y-37096535D01*
X13212453Y-37279753D01*
X13212126Y-37281762D01*
X13177642Y-37417723D01*
X13177332Y-37418747D01*
X13135892Y-37535949D01*
X13101026Y-37673418D01*
X13101024Y-37673427D01*
X13087209Y-37859362D01*
X13083178Y-37867358D01*
X13075541Y-37870195D01*
X12717199Y-37870195D01*
X12708926Y-37866768D01*
X12705537Y-37859434D01*
X12693008Y-37703898D01*
X12656263Y-37590904D01*
X12656261Y-37590900D01*
X12656260Y-37590896D01*
X12601314Y-37497728D01*
X12533667Y-37391476D01*
X12533043Y-37390367D01*
X12479486Y-37281762D01*
X12462959Y-37248250D01*
X12462374Y-37239315D01*
X12468278Y-37232583D01*
X12468951Y-37232277D01*
X12824829Y-37083904D01*
X12829350Y-37083005D01*
X13214430Y-37083968D01*
G37*
%TD.AperFunction*%
%TD*%
%TA.AperFunction,Conductor*%
%TO.N,/3.3V*%
G36*
X13083414Y-38642831D02*
G01*
X13086833Y-38650659D01*
X13092744Y-38805822D01*
X13112606Y-38922816D01*
X13147257Y-39021312D01*
X13147262Y-39021325D01*
X13197887Y-39132040D01*
X13197952Y-39132183D01*
X13261136Y-39275405D01*
X13261340Y-39284357D01*
X13255153Y-39290832D01*
X13254933Y-39290926D01*
X12900906Y-39438527D01*
X12891952Y-39438548D01*
X12891902Y-39438527D01*
X12537874Y-39290926D01*
X12531556Y-39284579D01*
X12531577Y-39275625D01*
X12531640Y-39275475D01*
X12594854Y-39132183D01*
X12645549Y-39021311D01*
X12680198Y-38922820D01*
X12700062Y-38805816D01*
X12705975Y-38650657D01*
X12709715Y-38642522D01*
X12717667Y-38639404D01*
X13075141Y-38639404D01*
X13083414Y-38642831D01*
G37*
%TD.AperFunction*%
%TD*%
%TA.AperFunction,Conductor*%
%TO.N,/D4*%
G36*
X12529903Y-40200423D02*
G01*
X12625999Y-40299178D01*
X12626000Y-40299178D01*
X12626001Y-40299179D01*
X12724723Y-40339119D01*
X12724726Y-40339120D01*
X12830297Y-40346483D01*
X12952790Y-40354680D01*
X12955142Y-40355083D01*
X13094381Y-40393908D01*
X13101428Y-40399431D01*
X13102507Y-40408321D01*
X13102056Y-40409632D01*
X12956443Y-40763298D01*
X12950124Y-40769644D01*
X12950075Y-40769664D01*
X12595933Y-40915348D01*
X12586978Y-40915326D01*
X12580662Y-40908979D01*
X12580416Y-40908326D01*
X12532059Y-40767427D01*
X12531693Y-40766115D01*
X12507091Y-40651673D01*
X12507109Y-40651668D01*
X12507077Y-40651608D01*
X12486310Y-40552281D01*
X12445591Y-40446122D01*
X12421985Y-40408321D01*
X12366812Y-40319969D01*
X12365337Y-40311137D01*
X12369857Y-40304308D01*
X12514644Y-40199117D01*
X12523349Y-40197028D01*
X12529903Y-40200423D01*
G37*
%TD.AperFunction*%
%TD*%
%TA.AperFunction,Conductor*%
%TO.N,/D4*%
G36*
X12549262Y-29357956D02*
G01*
X12555579Y-29364302D01*
X12555558Y-29373256D01*
X12554890Y-29374606D01*
X12470192Y-29521235D01*
X12468457Y-29523531D01*
X12370982Y-29623977D01*
X12370615Y-29624339D01*
X12281091Y-29708807D01*
X12281087Y-29708812D01*
X12215870Y-29817131D01*
X12192137Y-29979841D01*
X12187552Y-29987533D01*
X12180560Y-29989852D01*
X12001979Y-29989852D01*
X11993706Y-29986425D01*
X11990286Y-29978557D01*
X11985101Y-29828853D01*
X11985101Y-29828846D01*
X11967220Y-29715389D01*
X11965023Y-29708807D01*
X11936833Y-29624339D01*
X11935304Y-29619757D01*
X11887623Y-29512228D01*
X11827209Y-29373982D01*
X11827037Y-29365030D01*
X11833246Y-29358577D01*
X11833367Y-29358525D01*
X12187497Y-29210881D01*
X12196446Y-29210861D01*
X12549262Y-29357956D01*
G37*
%TD.AperFunction*%
%TD*%
%TA.AperFunction,Conductor*%
%TO.N,/D4*%
G36*
X11206716Y-13325703D02*
G01*
X11279952Y-13356237D01*
X11286270Y-13362584D01*
X11286249Y-13371538D01*
X11285900Y-13372297D01*
X11212360Y-13518362D01*
X11211611Y-13519642D01*
X11138734Y-13627732D01*
X11078262Y-13722135D01*
X11037158Y-13837240D01*
X11022947Y-13997335D01*
X11018802Y-14005272D01*
X11011293Y-14008000D01*
X10832707Y-14008000D01*
X10824434Y-14004573D01*
X10821053Y-13997335D01*
X10806840Y-13837240D01*
X10806840Y-13837238D01*
X10765738Y-13722138D01*
X10705261Y-13627728D01*
X10632382Y-13519635D01*
X10631642Y-13518370D01*
X10558099Y-13372297D01*
X10557439Y-13363367D01*
X10563288Y-13356586D01*
X10564047Y-13356237D01*
X10917500Y-13208875D01*
X10926449Y-13208855D01*
X11206716Y-13325703D01*
G37*
%TD.AperFunction*%
%TD*%
%TA.AperFunction,Conductor*%
%TO.N,/D4*%
G36*
X12308464Y-28417213D02*
G01*
X12311854Y-28424562D01*
X12324377Y-28582585D01*
X12324377Y-28582586D01*
X12361156Y-28697434D01*
X12416300Y-28792197D01*
X12484445Y-28900214D01*
X12485050Y-28901296D01*
X12556058Y-29045762D01*
X12556632Y-29054698D01*
X12550719Y-29061423D01*
X12550060Y-29061722D01*
X12196499Y-29209129D01*
X12187545Y-29209150D01*
X12187495Y-29209129D01*
X11834173Y-29061822D01*
X11827855Y-29055475D01*
X11827876Y-29046521D01*
X11828272Y-29045670D01*
X11903848Y-28899610D01*
X11904755Y-28898139D01*
X11982283Y-28791381D01*
X12048273Y-28698653D01*
X12093938Y-28584756D01*
X12109948Y-28424323D01*
X12114179Y-28416432D01*
X12121590Y-28413786D01*
X12300191Y-28413786D01*
X12308464Y-28417213D01*
G37*
%TD.AperFunction*%
%TD*%
%TA.AperFunction,Conductor*%
%TO.N,/3.3V*%
G36*
X11280528Y-10315041D02*
G01*
X11286846Y-10321388D01*
X11286825Y-10330342D01*
X11286731Y-10330563D01*
X11223585Y-10473697D01*
X11223521Y-10473839D01*
X11172852Y-10584656D01*
X11138202Y-10683149D01*
X11118340Y-10800144D01*
X11112429Y-10955309D01*
X11108689Y-10963446D01*
X11100737Y-10966564D01*
X10743263Y-10966564D01*
X10734990Y-10963137D01*
X10731571Y-10955310D01*
X10731571Y-10955309D01*
X10725658Y-10800151D01*
X10705794Y-10683146D01*
X10671145Y-10584655D01*
X10671143Y-10584651D01*
X10671139Y-10584640D01*
X10620504Y-10473902D01*
X10620439Y-10473759D01*
X10617700Y-10467551D01*
X10557265Y-10330560D01*
X10557062Y-10321610D01*
X10563249Y-10315135D01*
X10563398Y-10315070D01*
X10917499Y-10167439D01*
X10926448Y-10167419D01*
X11280528Y-10315041D01*
G37*
%TD.AperFunction*%
%TD*%
%TA.AperFunction,Conductor*%
%TO.N,/3.3V*%
G36*
X11109010Y-11268427D02*
G01*
X11112429Y-11276255D01*
X11118340Y-11431418D01*
X11138202Y-11548412D01*
X11172853Y-11646908D01*
X11172858Y-11646921D01*
X11223483Y-11757636D01*
X11223548Y-11757779D01*
X11286732Y-11901001D01*
X11286936Y-11909953D01*
X11280749Y-11916428D01*
X11280529Y-11916522D01*
X10926502Y-12064123D01*
X10917548Y-12064144D01*
X10917498Y-12064123D01*
X10563470Y-11916522D01*
X10557152Y-11910175D01*
X10557173Y-11901221D01*
X10557236Y-11901071D01*
X10620450Y-11757779D01*
X10671145Y-11646907D01*
X10705794Y-11548416D01*
X10725658Y-11431412D01*
X10731571Y-11276253D01*
X10735311Y-11268118D01*
X10743263Y-11265000D01*
X11100737Y-11265000D01*
X11109010Y-11268427D01*
G37*
%TD.AperFunction*%
%TD*%
%TA.AperFunction,Conductor*%
%TO.N,/3.3V*%
G36*
X3870010Y-35906427D02*
G01*
X3873429Y-35914255D01*
X3879340Y-36069418D01*
X3899202Y-36186412D01*
X3933853Y-36284908D01*
X3933858Y-36284921D01*
X3984483Y-36395636D01*
X3984548Y-36395779D01*
X4047732Y-36539001D01*
X4047936Y-36547953D01*
X4041749Y-36554428D01*
X4041529Y-36554522D01*
X3687502Y-36702123D01*
X3678548Y-36702144D01*
X3678498Y-36702123D01*
X3324470Y-36554522D01*
X3318152Y-36548175D01*
X3318173Y-36539221D01*
X3318236Y-36539071D01*
X3381450Y-36395779D01*
X3432145Y-36284907D01*
X3466794Y-36186416D01*
X3486658Y-36069412D01*
X3492571Y-35914253D01*
X3496311Y-35906118D01*
X3504263Y-35903000D01*
X3861737Y-35903000D01*
X3870010Y-35906427D01*
G37*
%TD.AperFunction*%
%TD*%
%TA.AperFunction,Conductor*%
%TO.N,/3.3V*%
G36*
X5045529Y-22340580D02*
G01*
X5051847Y-22346927D01*
X5051826Y-22355881D01*
X5051732Y-22356102D01*
X4988558Y-22499298D01*
X4988493Y-22499440D01*
X4937858Y-22610179D01*
X4937853Y-22610192D01*
X4903202Y-22708688D01*
X4883340Y-22825683D01*
X4877429Y-22980848D01*
X4873689Y-22988985D01*
X4865737Y-22992103D01*
X4508263Y-22992103D01*
X4499990Y-22988676D01*
X4496571Y-22980849D01*
X4496571Y-22980848D01*
X4490658Y-22825690D01*
X4470794Y-22708685D01*
X4436145Y-22610194D01*
X4436143Y-22610190D01*
X4436139Y-22610179D01*
X4385504Y-22499441D01*
X4385439Y-22499298D01*
X4322266Y-22356099D01*
X4322063Y-22347149D01*
X4328250Y-22340674D01*
X4328399Y-22340609D01*
X4682500Y-22192978D01*
X4691449Y-22192958D01*
X5045529Y-22340580D01*
G37*
%TD.AperFunction*%
%TD*%
%TA.AperFunction,Conductor*%
%TO.N,/A5*%
G36*
X3578527Y-14202484D02*
G01*
X3932873Y-14348222D01*
X3939221Y-14354539D01*
X4038117Y-14594492D01*
X4085021Y-14708294D01*
X4085005Y-14717248D01*
X4078662Y-14723569D01*
X4077282Y-14724040D01*
X3933396Y-14763280D01*
X3931232Y-14763656D01*
X3799895Y-14773950D01*
X3689285Y-14786852D01*
X3689283Y-14786853D01*
X3597041Y-14837429D01*
X3524947Y-14952458D01*
X3517650Y-14957649D01*
X3510556Y-14957054D01*
X3345432Y-14888660D01*
X3339100Y-14882329D01*
X3338980Y-14873678D01*
X3386618Y-14749007D01*
X3399026Y-14716536D01*
X3399029Y-14716529D01*
X3399031Y-14716520D01*
X3399036Y-14716509D01*
X3436735Y-14594493D01*
X3465591Y-14487877D01*
X3465671Y-14487600D01*
X3503224Y-14366059D01*
X3503462Y-14365371D01*
X3563165Y-14209133D01*
X3569318Y-14202630D01*
X3578269Y-14202382D01*
X3578527Y-14202484D01*
G37*
%TD.AperFunction*%
%TD*%
%TA.AperFunction,Conductor*%
%TO.N,/A5*%
G36*
X964327Y-37008682D02*
G01*
X1092988Y-37133912D01*
X1096526Y-37142138D01*
X1094206Y-37149290D01*
X910749Y-37395303D01*
X847472Y-37614984D01*
X842872Y-37833852D01*
X842858Y-37834234D01*
X829361Y-38085159D01*
X828938Y-38087708D01*
X742674Y-38393490D01*
X737130Y-38400522D01*
X728237Y-38401573D01*
X726949Y-38401128D01*
X3797Y-38102571D01*
X-2542Y-38096246D01*
X-2553Y-38096221D01*
X-301103Y-37373110D01*
X-301092Y-37364155D01*
X-294753Y-37357830D01*
X-293420Y-37357372D01*
X12924Y-37272559D01*
X15549Y-37272147D01*
X268473Y-37261382D01*
X268838Y-37261373D01*
X489247Y-37258958D01*
X708018Y-37195507D01*
X948979Y-37007834D01*
X957609Y-37005455D01*
X964327Y-37008682D01*
G37*
%TD.AperFunction*%
%TD*%
%TA.AperFunction,Conductor*%
%TO.N,/A6*%
G36*
X1748566Y-40478427D02*
G01*
X1751947Y-40485665D01*
X1766158Y-40645758D01*
X1807262Y-40760862D01*
X1867734Y-40855266D01*
X1940611Y-40963355D01*
X1941360Y-40964635D01*
X2014900Y-41110702D01*
X2015560Y-41119632D01*
X2009711Y-41126413D01*
X2008952Y-41126762D01*
X1655502Y-41274123D01*
X1646548Y-41274144D01*
X1646498Y-41274123D01*
X1293046Y-41126762D01*
X1286728Y-41120415D01*
X1286749Y-41111461D01*
X1287083Y-41110734D01*
X1360646Y-40964620D01*
X1361378Y-40963369D01*
X1434261Y-40855271D01*
X1494738Y-40760860D01*
X1535840Y-40645761D01*
X1550053Y-40485664D01*
X1554198Y-40477728D01*
X1561707Y-40475000D01*
X1740293Y-40475000D01*
X1748566Y-40478427D01*
G37*
%TD.AperFunction*%
%TD*%
%TA.AperFunction,Conductor*%
%TO.N,/D2*%
G36*
X6663716Y-25644108D02*
G01*
X6736952Y-25674642D01*
X6743270Y-25680989D01*
X6743249Y-25689943D01*
X6742900Y-25690702D01*
X6669360Y-25836767D01*
X6668611Y-25838047D01*
X6595734Y-25946137D01*
X6535262Y-26040540D01*
X6494158Y-26155645D01*
X6479947Y-26315740D01*
X6475802Y-26323677D01*
X6468293Y-26326405D01*
X6289707Y-26326405D01*
X6281434Y-26322978D01*
X6278053Y-26315740D01*
X6263840Y-26155645D01*
X6263840Y-26155643D01*
X6222738Y-26040543D01*
X6162261Y-25946133D01*
X6089382Y-25838040D01*
X6088642Y-25836775D01*
X6015099Y-25690702D01*
X6014439Y-25681772D01*
X6020288Y-25674991D01*
X6021047Y-25674642D01*
X6374500Y-25527280D01*
X6383449Y-25527260D01*
X6663716Y-25644108D01*
G37*
%TD.AperFunction*%
%TD*%
%TA.AperFunction,Conductor*%
%TO.N,/D2*%
G36*
X7401362Y-38725389D02*
G01*
X7404771Y-38733021D01*
X7413183Y-38886238D01*
X7413184Y-38886247D01*
X7439401Y-39000376D01*
X7439402Y-39000381D01*
X7481545Y-39095764D01*
X7538217Y-39203555D01*
X7538484Y-39204098D01*
X7603461Y-39344899D01*
X7603816Y-39353846D01*
X7597740Y-39360424D01*
X7597340Y-39360600D01*
X7243500Y-39508123D01*
X7234546Y-39508144D01*
X7234496Y-39508123D01*
X6881489Y-39360948D01*
X6875171Y-39354601D01*
X6875192Y-39345647D01*
X6875740Y-39344508D01*
X6956349Y-39198290D01*
X6957713Y-39196325D01*
X7046463Y-39093012D01*
X7046572Y-39092887D01*
X7125848Y-39004592D01*
X7182521Y-38893747D01*
X7202874Y-38732199D01*
X7207308Y-38724420D01*
X7214482Y-38721962D01*
X7393089Y-38721962D01*
X7401362Y-38725389D01*
G37*
%TD.AperFunction*%
%TD*%
%TA.AperFunction,Conductor*%
%TO.N,/D1*%
G36*
X8151730Y-36287424D02*
G01*
X8155111Y-36294662D01*
X8169322Y-36454755D01*
X8210426Y-36569859D01*
X8270898Y-36664263D01*
X8343775Y-36772352D01*
X8344524Y-36773632D01*
X8418064Y-36919699D01*
X8418724Y-36928629D01*
X8412875Y-36935410D01*
X8412116Y-36935759D01*
X8058666Y-37083120D01*
X8049712Y-37083141D01*
X8049662Y-37083120D01*
X7696210Y-36935759D01*
X7689892Y-36929412D01*
X7689913Y-36920458D01*
X7690247Y-36919731D01*
X7763810Y-36773617D01*
X7764542Y-36772366D01*
X7837425Y-36664268D01*
X7897902Y-36569857D01*
X7939004Y-36454758D01*
X7953217Y-36294661D01*
X7957362Y-36286725D01*
X7964871Y-36283997D01*
X8143457Y-36283997D01*
X8151730Y-36287424D01*
G37*
%TD.AperFunction*%
%TD*%
%TA.AperFunction,Conductor*%
%TO.N,/D1*%
G36*
X7650716Y-21453703D02*
G01*
X7723952Y-21484237D01*
X7730270Y-21490584D01*
X7730249Y-21499538D01*
X7729900Y-21500297D01*
X7656360Y-21646362D01*
X7655611Y-21647642D01*
X7582734Y-21755732D01*
X7522262Y-21850135D01*
X7481158Y-21965240D01*
X7466947Y-22125335D01*
X7462802Y-22133272D01*
X7455293Y-22136000D01*
X7276707Y-22136000D01*
X7268434Y-22132573D01*
X7265053Y-22125335D01*
X7250840Y-21965240D01*
X7250840Y-21965238D01*
X7209738Y-21850138D01*
X7149261Y-21755728D01*
X7076382Y-21647635D01*
X7075642Y-21646370D01*
X7002099Y-21500297D01*
X7001439Y-21491367D01*
X7007288Y-21484586D01*
X7008047Y-21484237D01*
X7361500Y-21336875D01*
X7370449Y-21336855D01*
X7650716Y-21453703D01*
G37*
%TD.AperFunction*%
%TD*%
%TA.AperFunction,Conductor*%
%TO.N,/A3*%
G36*
X736118Y-9858793D02*
G01*
X742443Y-9865132D01*
X742831Y-9866222D01*
X843995Y-10201979D01*
X844421Y-10204071D01*
X874416Y-10476008D01*
X874427Y-10476112D01*
X898223Y-10711112D01*
X898224Y-10711115D01*
X898224Y-10711117D01*
X898225Y-10711119D01*
X984518Y-10946586D01*
X1195595Y-11212488D01*
X1198054Y-11221098D01*
X1194704Y-11228035D01*
X1068035Y-11354704D01*
X1059762Y-11358131D01*
X1052488Y-11355595D01*
X1051366Y-11354704D01*
X786586Y-11144518D01*
X551119Y-11058225D01*
X551117Y-11058224D01*
X551115Y-11058224D01*
X551112Y-11058223D01*
X316060Y-11034421D01*
X315956Y-11034410D01*
X44071Y-11004421D01*
X41979Y-11003995D01*
X-293777Y-10902831D01*
X-300710Y-10897163D01*
X-301605Y-10888253D01*
X-301217Y-10887163D01*
X-228535Y-10711119D01*
X-2561Y-10163785D01*
X3762Y-10157448D01*
X3764Y-10157446D01*
X727165Y-9858782D01*
X736118Y-9858793D01*
G37*
%TD.AperFunction*%
%TD*%
%TA.AperFunction,Conductor*%
%TO.N,/A3*%
G36*
X2752566Y-30191427D02*
G01*
X2755947Y-30198665D01*
X2770158Y-30358758D01*
X2811262Y-30473862D01*
X2871734Y-30568266D01*
X2944611Y-30676355D01*
X2945360Y-30677635D01*
X3018900Y-30823702D01*
X3019560Y-30832632D01*
X3013711Y-30839413D01*
X3012952Y-30839762D01*
X2659502Y-30987123D01*
X2650548Y-30987144D01*
X2650498Y-30987123D01*
X2297046Y-30839762D01*
X2290728Y-30833415D01*
X2290749Y-30824461D01*
X2291083Y-30823734D01*
X2364646Y-30677620D01*
X2365378Y-30676369D01*
X2438261Y-30568271D01*
X2498738Y-30473860D01*
X2539840Y-30358761D01*
X2554053Y-30198664D01*
X2558198Y-30190728D01*
X2565707Y-30188000D01*
X2744293Y-30188000D01*
X2752566Y-30191427D01*
G37*
%TD.AperFunction*%
%TD*%
%TA.AperFunction,Conductor*%
%TO.N,/A4*%
G36*
X2002566Y-28540427D02*
G01*
X2005947Y-28547665D01*
X2020158Y-28707758D01*
X2061262Y-28822862D01*
X2121734Y-28917266D01*
X2194611Y-29025355D01*
X2195360Y-29026635D01*
X2268900Y-29172702D01*
X2269560Y-29181632D01*
X2263711Y-29188413D01*
X2262952Y-29188762D01*
X1909502Y-29336123D01*
X1900548Y-29336144D01*
X1900498Y-29336123D01*
X1547046Y-29188762D01*
X1540728Y-29182415D01*
X1540749Y-29173461D01*
X1541083Y-29172734D01*
X1614646Y-29026620D01*
X1615378Y-29025369D01*
X1688261Y-28917271D01*
X1748738Y-28822860D01*
X1789840Y-28707761D01*
X1804053Y-28547664D01*
X1808198Y-28539728D01*
X1815707Y-28537000D01*
X1994293Y-28537000D01*
X2002566Y-28540427D01*
G37*
%TD.AperFunction*%
%TD*%
%TA.AperFunction,Conductor*%
%TO.N,/A4*%
G36*
X736247Y-12398739D02*
G01*
X742572Y-12405079D01*
X742922Y-12406047D01*
X842962Y-12725522D01*
X843399Y-12727503D01*
X876613Y-12981884D01*
X876648Y-12982184D01*
X899801Y-13203936D01*
X973379Y-13435742D01*
X1152212Y-13712049D01*
X1153831Y-13720856D01*
X1149685Y-13727553D01*
X1009490Y-13839353D01*
X1000885Y-13841832D01*
X994223Y-13838769D01*
X762390Y-13622943D01*
X762389Y-13622942D01*
X539036Y-13546735D01*
X539035Y-13546734D01*
X539032Y-13546734D01*
X304582Y-13541225D01*
X304402Y-13541219D01*
X33122Y-13530664D01*
X30519Y-13530266D01*
X-293318Y-13442577D01*
X-300408Y-13437107D01*
X-301553Y-13428226D01*
X-301074Y-13426818D01*
X-2477Y-12703710D01*
X3846Y-12697374D01*
X727294Y-12398728D01*
X736247Y-12398739D01*
G37*
%TD.AperFunction*%
%TD*%
%TA.AperFunction,Conductor*%
%TO.N,/~{WD}*%
G36*
X917008Y-34301910D02*
G01*
X1082514Y-34370466D01*
X1088846Y-34376798D01*
X1089122Y-34385018D01*
X971388Y-34733684D01*
X971386Y-34733694D01*
X925950Y-35001603D01*
X925948Y-35001621D01*
X905815Y-35238695D01*
X905692Y-35239661D01*
X860491Y-35506194D01*
X860041Y-35507981D01*
X743101Y-35854307D01*
X737208Y-35861049D01*
X728273Y-35861649D01*
X727552Y-35861379D01*
X726752Y-35861049D01*
X4110Y-35562777D01*
X-2228Y-35556454D01*
X-133520Y-35238695D01*
X-301095Y-34833121D01*
X-301087Y-34824166D01*
X-294750Y-34817840D01*
X-293407Y-34817379D01*
X29260Y-34728308D01*
X31349Y-34727931D01*
X281190Y-34706160D01*
X312121Y-34703465D01*
X450138Y-34685609D01*
X547109Y-34673065D01*
X743088Y-34562667D01*
X902604Y-34306534D01*
X909885Y-34301324D01*
X917008Y-34301910D01*
G37*
%TD.AperFunction*%
%TD*%
%TA.AperFunction,Conductor*%
%TO.N,/D0*%
G36*
X5913716Y-20535717D02*
G01*
X5986952Y-20566251D01*
X5993270Y-20572598D01*
X5993249Y-20581552D01*
X5992900Y-20582311D01*
X5919360Y-20728376D01*
X5918611Y-20729656D01*
X5845734Y-20837746D01*
X5785262Y-20932149D01*
X5744158Y-21047254D01*
X5729947Y-21207349D01*
X5725802Y-21215286D01*
X5718293Y-21218014D01*
X5539707Y-21218014D01*
X5531434Y-21214587D01*
X5528053Y-21207349D01*
X5513840Y-21047254D01*
X5513840Y-21047252D01*
X5472738Y-20932152D01*
X5412261Y-20837742D01*
X5339382Y-20729649D01*
X5338642Y-20728384D01*
X5265099Y-20582311D01*
X5264439Y-20573381D01*
X5270288Y-20566600D01*
X5271047Y-20566251D01*
X5624500Y-20418889D01*
X5633449Y-20418869D01*
X5913716Y-20535717D01*
G37*
%TD.AperFunction*%
%TD*%
%TA.AperFunction,Conductor*%
%TO.N,/D0*%
G36*
X6649013Y-35582730D02*
G01*
X6653503Y-35589422D01*
X6686435Y-35724405D01*
X6686438Y-35724413D01*
X6733945Y-35820133D01*
X6733948Y-35820139D01*
X6733952Y-35820146D01*
X6782211Y-35885797D01*
X6790945Y-35897678D01*
X6791060Y-35897838D01*
X6854598Y-35988124D01*
X6855469Y-35989576D01*
X6900509Y-36078903D01*
X6918055Y-36113701D01*
X6918720Y-36122631D01*
X6912876Y-36129416D01*
X6912112Y-36129767D01*
X6558822Y-36277110D01*
X6549867Y-36277132D01*
X6549818Y-36277112D01*
X6196936Y-36130063D01*
X6190617Y-36123717D01*
X6190636Y-36114763D01*
X6191316Y-36113392D01*
X6258912Y-35997094D01*
X6260510Y-35994954D01*
X6340305Y-35910468D01*
X6410412Y-35838037D01*
X6453563Y-35748130D01*
X6453423Y-35620241D01*
X6456841Y-35611967D01*
X6463292Y-35608675D01*
X6640307Y-35580639D01*
X6649013Y-35582730D01*
G37*
%TD.AperFunction*%
%TD*%
%TA.AperFunction,Conductor*%
%TO.N,/5V*%
G36*
X601854Y-23771250D02*
G01*
X601948Y-23771470D01*
X749549Y-24125498D01*
X749570Y-24134452D01*
X749549Y-24134502D01*
X601948Y-24488529D01*
X595601Y-24494847D01*
X586647Y-24494826D01*
X586427Y-24494732D01*
X443229Y-24431558D01*
X443086Y-24431493D01*
X332347Y-24380858D01*
X332334Y-24380853D01*
X233838Y-24346202D01*
X116844Y-24326340D01*
X-38320Y-24320428D01*
X-46456Y-24316688D01*
X-49574Y-24308736D01*
X-49574Y-23951263D01*
X-46147Y-23942990D01*
X-38320Y-23939571D01*
X116838Y-23933658D01*
X116844Y-23933657D01*
X233838Y-23913795D01*
X233839Y-23913794D01*
X233842Y-23913794D01*
X332333Y-23879145D01*
X332341Y-23879141D01*
X332347Y-23879139D01*
X367341Y-23863137D01*
X443205Y-23828450D01*
X586429Y-23765266D01*
X595379Y-23765063D01*
X601854Y-23771250D01*
G37*
%TD.AperFunction*%
%TD*%
%TA.AperFunction,Conductor*%
%TO.N,/5V*%
G36*
X22071721Y-42853470D02*
G01*
X22856214Y-43177437D01*
X22862553Y-43183762D01*
X22862562Y-43183785D01*
X23185663Y-43966181D01*
X23185654Y-43975136D01*
X23179315Y-43981461D01*
X23176585Y-43982218D01*
X22902256Y-44023375D01*
X22902245Y-44023378D01*
X22613163Y-44103346D01*
X22613141Y-44103354D01*
X22324042Y-44219925D01*
X22034927Y-44373104D01*
X21753781Y-44557652D01*
X21744985Y-44559327D01*
X21739088Y-44556144D01*
X21483284Y-44300339D01*
X21479857Y-44292066D01*
X21481260Y-44286511D01*
X21593697Y-44078267D01*
X21710273Y-43825758D01*
X21826848Y-43536648D01*
X21943424Y-43210939D01*
X22056116Y-42860699D01*
X22061912Y-42853874D01*
X22070838Y-42853146D01*
X22071721Y-42853470D01*
G37*
%TD.AperFunction*%
%TD*%
%TA.AperFunction,Conductor*%
%TO.N,/3.3V*%
G36*
X4050462Y-8741492D02*
G01*
X4056780Y-8747839D01*
X4056869Y-8748061D01*
X4113448Y-8893969D01*
X4113503Y-8894115D01*
X4156015Y-9008255D01*
X4175562Y-9049020D01*
X4201157Y-9102397D01*
X4269849Y-9199181D01*
X4269849Y-9199182D01*
X4325788Y-9259552D01*
X4375381Y-9313073D01*
X4378491Y-9321470D01*
X4375072Y-9329298D01*
X4122298Y-9582072D01*
X4114025Y-9585499D01*
X4106073Y-9582381D01*
X4063279Y-9542728D01*
X3992182Y-9476849D01*
X3895397Y-9408157D01*
X3842020Y-9382562D01*
X3801255Y-9363015D01*
X3801247Y-9363012D01*
X3801245Y-9363011D01*
X3801246Y-9363011D01*
X3687115Y-9320503D01*
X3686969Y-9320448D01*
X3541061Y-9263869D01*
X3534586Y-9257682D01*
X3534382Y-9248730D01*
X3534443Y-9248577D01*
X3680437Y-8893802D01*
X3686753Y-8887457D01*
X4041509Y-8741471D01*
X4050462Y-8741492D01*
G37*
%TD.AperFunction*%
%TD*%
%TA.AperFunction,Conductor*%
%TO.N,/3.3V*%
G36*
X4874010Y-21395530D02*
G01*
X4877429Y-21403358D01*
X4883340Y-21558521D01*
X4903202Y-21675515D01*
X4937853Y-21774011D01*
X4937858Y-21774024D01*
X4988483Y-21884739D01*
X4988548Y-21884882D01*
X5051732Y-22028104D01*
X5051936Y-22037056D01*
X5045749Y-22043531D01*
X5045529Y-22043625D01*
X4691502Y-22191226D01*
X4682548Y-22191247D01*
X4682498Y-22191226D01*
X4328470Y-22043625D01*
X4322152Y-22037278D01*
X4322173Y-22028324D01*
X4322236Y-22028174D01*
X4385450Y-21884882D01*
X4436145Y-21774010D01*
X4470794Y-21675519D01*
X4490658Y-21558515D01*
X4496571Y-21403356D01*
X4500311Y-21395221D01*
X4508263Y-21392103D01*
X4865737Y-21392103D01*
X4874010Y-21395530D01*
G37*
%TD.AperFunction*%
%TD*%
%TA.AperFunction,Conductor*%
%TO.N,/3.3V*%
G36*
X19745765Y-39245051D02*
G01*
X19749124Y-39252071D01*
X19765957Y-39408417D01*
X19813653Y-39518539D01*
X19813655Y-39518541D01*
X19847741Y-39563104D01*
X19881828Y-39607670D01*
X19960619Y-39710710D01*
X19961673Y-39712358D01*
X20036575Y-39854346D01*
X20037405Y-39863262D01*
X20031686Y-39870153D01*
X20030729Y-39870604D01*
X19675175Y-40018842D01*
X19670644Y-40019743D01*
X19285282Y-40018779D01*
X19277017Y-40015331D01*
X19273611Y-40007050D01*
X19273626Y-40006483D01*
X19280813Y-39865676D01*
X19282844Y-39825881D01*
X19283000Y-39824491D01*
X19306373Y-39689211D01*
X19306524Y-39688475D01*
X19334560Y-39571541D01*
X19358120Y-39435184D01*
X19367433Y-39252727D01*
X19371277Y-39244640D01*
X19379118Y-39241624D01*
X19737492Y-39241624D01*
X19745765Y-39245051D01*
G37*
%TD.AperFunction*%
%TD*%
%TA.AperFunction,Conductor*%
%TO.N,/3.3V*%
G36*
X19818804Y-23580553D02*
G01*
X19827068Y-23584001D01*
X19830474Y-23592282D01*
X19830462Y-23592776D01*
X19822403Y-23772740D01*
X19822283Y-23773968D01*
X19801839Y-23909058D01*
X19801722Y-23909709D01*
X19777217Y-24026521D01*
X19777216Y-24026528D01*
X19756634Y-24162535D01*
X19756631Y-24162562D01*
X19748500Y-24344147D01*
X19744707Y-24352259D01*
X19736812Y-24355324D01*
X19378435Y-24355324D01*
X19370162Y-24351897D01*
X19366811Y-24344957D01*
X19366718Y-24344147D01*
X19348851Y-24188326D01*
X19298292Y-24078993D01*
X19226654Y-23990992D01*
X19144933Y-23888826D01*
X19143760Y-23887050D01*
X19083086Y-23773968D01*
X19067554Y-23745022D01*
X19066663Y-23736112D01*
X19072333Y-23729181D01*
X19073342Y-23728701D01*
X19428838Y-23580488D01*
X19433359Y-23579589D01*
X19818804Y-23580553D01*
G37*
%TD.AperFunction*%
%TD*%
%TA.AperFunction,Conductor*%
%TO.N,/3.3V*%
G36*
X19916239Y-12467356D02*
G01*
X19922557Y-12473703D01*
X19922536Y-12482657D01*
X19922315Y-12483154D01*
X19855029Y-12625551D01*
X19854643Y-12626298D01*
X19793693Y-12734402D01*
X19793688Y-12734412D01*
X19746738Y-12829793D01*
X19746736Y-12829798D01*
X19716626Y-12944425D01*
X19716624Y-12944435D01*
X19706700Y-13099692D01*
X19702753Y-13107730D01*
X19695024Y-13110646D01*
X19337536Y-13110646D01*
X19329263Y-13107219D01*
X19325837Y-13099112D01*
X19323693Y-12947789D01*
X19323693Y-12947783D01*
X19313577Y-12831675D01*
X19290860Y-12733141D01*
X19250748Y-12623000D01*
X19192896Y-12482848D01*
X19192907Y-12473894D01*
X19199208Y-12467586D01*
X19553500Y-12319875D01*
X19562449Y-12319855D01*
X19916239Y-12467356D01*
G37*
%TD.AperFunction*%
%TD*%
%TA.AperFunction,Conductor*%
%TO.N,/3.3V*%
G36*
X19703325Y-22800917D02*
G01*
X19706726Y-22808414D01*
X19718999Y-22993123D01*
X19719000Y-22993125D01*
X19750000Y-23130224D01*
X19750001Y-23130229D01*
X19786861Y-23247383D01*
X19787112Y-23248314D01*
X19817806Y-23384057D01*
X19818068Y-23385861D01*
X19830181Y-23568139D01*
X19827311Y-23576621D01*
X19819283Y-23580589D01*
X19818536Y-23580615D01*
X19433364Y-23581578D01*
X19428833Y-23580677D01*
X19266584Y-23513032D01*
X19073069Y-23432352D01*
X19066751Y-23426005D01*
X19066772Y-23417051D01*
X19067127Y-23416280D01*
X19083396Y-23384057D01*
X19138839Y-23274243D01*
X19139588Y-23272970D01*
X19211057Y-23167780D01*
X19270535Y-23075945D01*
X19311038Y-22963904D01*
X19325042Y-22808141D01*
X19329196Y-22800209D01*
X19336695Y-22797490D01*
X19695052Y-22797490D01*
X19703325Y-22800917D01*
G37*
%TD.AperFunction*%
%TD*%
%TA.AperFunction,Conductor*%
%TO.N,/~{RD}*%
G36*
X21452566Y-33239427D02*
G01*
X21455947Y-33246665D01*
X21470158Y-33406758D01*
X21511262Y-33521862D01*
X21571734Y-33616266D01*
X21644611Y-33724355D01*
X21645360Y-33725635D01*
X21718900Y-33871702D01*
X21719560Y-33880632D01*
X21713711Y-33887413D01*
X21712952Y-33887762D01*
X21359502Y-34035123D01*
X21350548Y-34035144D01*
X21350498Y-34035123D01*
X20997046Y-33887762D01*
X20990728Y-33881415D01*
X20990749Y-33872461D01*
X20991083Y-33871734D01*
X21064646Y-33725620D01*
X21065378Y-33724369D01*
X21138261Y-33616271D01*
X21198738Y-33521860D01*
X21239840Y-33406761D01*
X21254053Y-33246664D01*
X21258198Y-33238728D01*
X21265707Y-33236000D01*
X21444293Y-33236000D01*
X21452566Y-33239427D01*
G37*
%TD.AperFunction*%
%TD*%
%TA.AperFunction,Conductor*%
%TO.N,/~{RD}*%
G36*
X22132438Y-20018617D02*
G01*
X22856006Y-20317279D01*
X22862345Y-20323602D01*
X22862355Y-20323626D01*
X23161034Y-21046726D01*
X23161025Y-21055681D01*
X23154687Y-21062007D01*
X23153195Y-21062508D01*
X22822641Y-21149413D01*
X22820098Y-21149790D01*
X22535851Y-21160283D01*
X22535850Y-21160282D01*
X22293365Y-21170614D01*
X22293360Y-21170615D01*
X22077561Y-21260633D01*
X22077559Y-21260635D01*
X21878507Y-21502579D01*
X21870605Y-21506791D01*
X21863622Y-21505278D01*
X21708442Y-21415684D01*
X21702991Y-21408580D01*
X21703769Y-21400438D01*
X21856124Y-21087148D01*
X21924667Y-20839904D01*
X21956809Y-20614779D01*
X21956881Y-20614344D01*
X22004697Y-20357998D01*
X22005111Y-20356413D01*
X22116896Y-20025686D01*
X22122790Y-20018947D01*
X22131725Y-20018350D01*
X22132438Y-20018617D01*
G37*
%TD.AperFunction*%
%TD*%
%TA.AperFunction,Conductor*%
%TO.N,/D3*%
G36*
X8424716Y-28057703D02*
G01*
X8497952Y-28088237D01*
X8504270Y-28094584D01*
X8504249Y-28103538D01*
X8503900Y-28104297D01*
X8430360Y-28250362D01*
X8429611Y-28251642D01*
X8356734Y-28359732D01*
X8296262Y-28454135D01*
X8255158Y-28569240D01*
X8240947Y-28729335D01*
X8236802Y-28737272D01*
X8229293Y-28740000D01*
X8050707Y-28740000D01*
X8042434Y-28736573D01*
X8039053Y-28729335D01*
X8024840Y-28569240D01*
X8024840Y-28569238D01*
X7983738Y-28454138D01*
X7923261Y-28359728D01*
X7850382Y-28251635D01*
X7849642Y-28250370D01*
X7776099Y-28104297D01*
X7775439Y-28095367D01*
X7781288Y-28088586D01*
X7782047Y-28088237D01*
X8135500Y-27940875D01*
X8144449Y-27940855D01*
X8424716Y-28057703D01*
G37*
%TD.AperFunction*%
%TD*%
%TA.AperFunction,Conductor*%
%TO.N,/D3*%
G36*
X8860566Y-38954427D02*
G01*
X8863947Y-38961665D01*
X8878158Y-39121758D01*
X8919262Y-39236862D01*
X8979734Y-39331266D01*
X9052611Y-39439355D01*
X9053360Y-39440635D01*
X9126900Y-39586702D01*
X9127560Y-39595632D01*
X9121711Y-39602413D01*
X9120952Y-39602762D01*
X8767502Y-39750123D01*
X8758548Y-39750144D01*
X8758498Y-39750123D01*
X8405046Y-39602762D01*
X8398728Y-39596415D01*
X8398749Y-39587461D01*
X8399083Y-39586734D01*
X8472646Y-39440620D01*
X8473378Y-39439369D01*
X8546261Y-39331271D01*
X8606738Y-39236860D01*
X8647840Y-39121761D01*
X8662053Y-38961664D01*
X8666198Y-38953728D01*
X8673707Y-38951000D01*
X8852293Y-38951000D01*
X8860566Y-38954427D01*
G37*
%TD.AperFunction*%
%TD*%
%TA.AperFunction,Conductor*%
%TO.N,/A19*%
G36*
X18960716Y-17585703D02*
G01*
X19033952Y-17616237D01*
X19040270Y-17622584D01*
X19040249Y-17631538D01*
X19039900Y-17632297D01*
X18966360Y-17778362D01*
X18965611Y-17779642D01*
X18892734Y-17887732D01*
X18832262Y-17982135D01*
X18791158Y-18097240D01*
X18776947Y-18257335D01*
X18772802Y-18265272D01*
X18765293Y-18268000D01*
X18586707Y-18268000D01*
X18578434Y-18264573D01*
X18575053Y-18257335D01*
X18560840Y-18097240D01*
X18560840Y-18097238D01*
X18519738Y-17982138D01*
X18459261Y-17887728D01*
X18386382Y-17779635D01*
X18385642Y-17778370D01*
X18312099Y-17632297D01*
X18311439Y-17623367D01*
X18317288Y-17616586D01*
X18318047Y-17616237D01*
X18671500Y-17468875D01*
X18680449Y-17468855D01*
X18960716Y-17585703D01*
G37*
%TD.AperFunction*%
%TD*%
%TA.AperFunction,Conductor*%
%TO.N,/A19*%
G36*
X22132825Y-4778778D02*
G01*
X22856212Y-5077437D01*
X22862551Y-5083762D01*
X22862562Y-5083787D01*
X23161217Y-5807163D01*
X23161206Y-5816118D01*
X23154867Y-5822443D01*
X23153777Y-5822831D01*
X22818018Y-5923995D01*
X22815926Y-5924421D01*
X22544041Y-5954410D01*
X22543937Y-5954421D01*
X22308885Y-5978223D01*
X22308882Y-5978224D01*
X22073413Y-6064518D01*
X21807511Y-6275594D01*
X21798901Y-6278053D01*
X21791964Y-6274703D01*
X21665295Y-6148035D01*
X21661868Y-6139762D01*
X21664403Y-6132490D01*
X21875480Y-5866586D01*
X21961773Y-5631119D01*
X21985582Y-5396008D01*
X22015576Y-5124070D01*
X22016002Y-5121979D01*
X22029423Y-5077437D01*
X22117169Y-4786219D01*
X22122836Y-4779289D01*
X22131746Y-4778394D01*
X22132825Y-4778778D01*
G37*
%TD.AperFunction*%
%TD*%
%TA.AperFunction,Conductor*%
%TO.N,/A19*%
G36*
X18488727Y-44501914D02*
G01*
X18633415Y-44607035D01*
X18638093Y-44614670D01*
X18636426Y-44622753D01*
X18554281Y-44752649D01*
X18554280Y-44752651D01*
X18510204Y-44861232D01*
X18486263Y-44962669D01*
X18486264Y-44962670D01*
X18458786Y-45079862D01*
X18458440Y-45081052D01*
X18407626Y-45226415D01*
X18401661Y-45233094D01*
X18392720Y-45233599D01*
X18392130Y-45233374D01*
X18037924Y-45087664D01*
X18031577Y-45081348D01*
X18031556Y-45081298D01*
X17982713Y-44962669D01*
X17885913Y-44727558D01*
X17885932Y-44718606D01*
X17892278Y-44712287D01*
X17893517Y-44711856D01*
X18037436Y-44670808D01*
X18039652Y-44670402D01*
X18087666Y-44666345D01*
X18165315Y-44659784D01*
X18184811Y-44657942D01*
X18273321Y-44649586D01*
X18374390Y-44606205D01*
X18473424Y-44503267D01*
X18481627Y-44499683D01*
X18488727Y-44501914D01*
G37*
%TD.AperFunction*%
%TD*%
%TA.AperFunction,Conductor*%
%TO.N,/A19*%
G36*
X18880928Y-16692909D02*
G01*
X18884349Y-16700822D01*
X18888934Y-16849902D01*
X18888935Y-16849914D01*
X18905266Y-16963219D01*
X18905269Y-16963233D01*
X18935289Y-17058881D01*
X18981279Y-17166282D01*
X19040847Y-17304045D01*
X19040985Y-17312999D01*
X19034752Y-17319428D01*
X19034610Y-17319488D01*
X18680502Y-17467123D01*
X18671548Y-17467144D01*
X18671498Y-17467123D01*
X18318781Y-17320068D01*
X18312463Y-17313721D01*
X18312484Y-17304767D01*
X18313169Y-17303387D01*
X18398640Y-17156643D01*
X18400443Y-17154295D01*
X18499572Y-17054343D01*
X18499908Y-17054021D01*
X18591360Y-16970247D01*
X18658154Y-16862399D01*
X18682510Y-16699452D01*
X18687122Y-16691777D01*
X18694081Y-16689482D01*
X18872655Y-16689482D01*
X18880928Y-16692909D01*
G37*
%TD.AperFunction*%
%TD*%
%TA.AperFunction,Conductor*%
%TO.N,/D5*%
G36*
X16159716Y-12055703D02*
G01*
X16232952Y-12086237D01*
X16239270Y-12092584D01*
X16239249Y-12101538D01*
X16238900Y-12102297D01*
X16165360Y-12248362D01*
X16164611Y-12249642D01*
X16091734Y-12357732D01*
X16031262Y-12452135D01*
X15990158Y-12567240D01*
X15975947Y-12727335D01*
X15971802Y-12735272D01*
X15964293Y-12738000D01*
X15785707Y-12738000D01*
X15777434Y-12734573D01*
X15774053Y-12727335D01*
X15759840Y-12567240D01*
X15759840Y-12567238D01*
X15718738Y-12452138D01*
X15658261Y-12357728D01*
X15585382Y-12249635D01*
X15584642Y-12248370D01*
X15511099Y-12102297D01*
X15510439Y-12093367D01*
X15516288Y-12086586D01*
X15517047Y-12086237D01*
X15870500Y-11938875D01*
X15879449Y-11938855D01*
X16159716Y-12055703D01*
G37*
%TD.AperFunction*%
%TD*%
%TA.AperFunction,Conductor*%
%TO.N,/D5*%
G36*
X17629066Y-27010927D02*
G01*
X17632447Y-27018165D01*
X17646658Y-27178258D01*
X17687762Y-27293362D01*
X17748234Y-27387766D01*
X17821111Y-27495855D01*
X17821860Y-27497135D01*
X17895400Y-27643202D01*
X17896060Y-27652132D01*
X17890211Y-27658913D01*
X17889452Y-27659262D01*
X17536002Y-27806623D01*
X17527048Y-27806644D01*
X17526998Y-27806623D01*
X17173546Y-27659262D01*
X17167228Y-27652915D01*
X17167249Y-27643961D01*
X17167583Y-27643234D01*
X17241146Y-27497120D01*
X17241878Y-27495869D01*
X17314761Y-27387771D01*
X17375238Y-27293360D01*
X17416340Y-27178261D01*
X17430553Y-27018164D01*
X17434698Y-27010228D01*
X17442207Y-27007500D01*
X17620793Y-27007500D01*
X17629066Y-27010927D01*
G37*
%TD.AperFunction*%
%TD*%
%TA.AperFunction,Conductor*%
%TO.N,/A12*%
G36*
X18391256Y-15215946D02*
G01*
X18397574Y-15222293D01*
X18397553Y-15231247D01*
X18396881Y-15232604D01*
X18312048Y-15379249D01*
X18310302Y-15381554D01*
X18212538Y-15481911D01*
X18212164Y-15482278D01*
X18122310Y-15566613D01*
X18122305Y-15566620D01*
X18056807Y-15674859D01*
X18032966Y-15837608D01*
X18028377Y-15845297D01*
X18021390Y-15847612D01*
X17842809Y-15847612D01*
X17834536Y-15844185D01*
X17831116Y-15836309D01*
X17826037Y-15686715D01*
X17826037Y-15686709D01*
X17808429Y-15573275D01*
X17776848Y-15477639D01*
X17729464Y-15370129D01*
X17669201Y-15231972D01*
X17669035Y-15223020D01*
X17675248Y-15216571D01*
X17675325Y-15216537D01*
X18029500Y-15068875D01*
X18038449Y-15068855D01*
X18391256Y-15215946D01*
G37*
%TD.AperFunction*%
%TD*%
%TA.AperFunction,Conductor*%
%TO.N,/A12*%
G36*
X18131566Y-41875427D02*
G01*
X18134947Y-41882665D01*
X18149158Y-42042758D01*
X18190262Y-42157862D01*
X18250734Y-42252266D01*
X18323611Y-42360355D01*
X18324360Y-42361635D01*
X18397900Y-42507702D01*
X18398560Y-42516632D01*
X18392711Y-42523413D01*
X18391952Y-42523762D01*
X18038502Y-42671123D01*
X18029548Y-42671144D01*
X18029498Y-42671123D01*
X17676046Y-42523762D01*
X17669728Y-42517415D01*
X17669749Y-42508461D01*
X17670083Y-42507734D01*
X17743646Y-42361620D01*
X17744378Y-42360369D01*
X17817261Y-42252271D01*
X17877738Y-42157860D01*
X17918840Y-42042761D01*
X17933053Y-41882664D01*
X17937198Y-41874728D01*
X17944707Y-41872000D01*
X18123293Y-41872000D01*
X18131566Y-41875427D01*
G37*
%TD.AperFunction*%
%TD*%
M02*
