%TF.GenerationSoftware,KiCad,Pcbnew,8.0.7*%
%TF.CreationDate,2025-02-09T12:32:43+02:00*%
%TF.ProjectId,EPM7160S Programmer,45504d37-3136-4305-9320-50726f677261,V0*%
%TF.SameCoordinates,Original*%
%TF.FileFunction,Soldermask,Bot*%
%TF.FilePolarity,Negative*%
%FSLAX46Y46*%
G04 Gerber Fmt 4.6, Leading zero omitted, Abs format (unit mm)*
G04 Created by KiCad (PCBNEW 8.0.7) date 2025-02-09 12:32:43*
%MOMM*%
%LPD*%
G01*
G04 APERTURE LIST*
%ADD10R,1.500000X1.500000*%
%ADD11C,1.500000*%
%ADD12C,1.600000*%
%ADD13O,1.600000X1.600000*%
%ADD14C,4.700000*%
%ADD15C,4.150000*%
%ADD16R,3.000000X3.000000*%
%ADD17C,3.000000*%
%ADD18R,2.000000X1.905000*%
%ADD19O,2.000000X1.905000*%
%ADD20R,1.700000X1.700000*%
%ADD21O,1.700000X1.700000*%
%ADD22C,3.200000*%
%ADD23C,1.200000*%
G04 APERTURE END LIST*
D10*
%TO.C,C1*%
X10356000Y20320000D03*
D11*
X12356000Y20320000D03*
%TD*%
D12*
%TO.C,R4*%
X35724000Y-32749000D03*
D13*
X35724000Y-25129000D03*
%TD*%
D14*
%TO.C,J2*%
X49657000Y5207000D03*
D15*
X52857000Y9907000D03*
X55857000Y5207000D03*
%TD*%
D16*
%TO.C,S2*%
X43344000Y-33638000D03*
D17*
X43344000Y-28939000D03*
X43344000Y-24240000D03*
%TD*%
D18*
%TO.C,U1*%
X34290000Y22860000D03*
D19*
X34290000Y20320000D03*
X34290000Y17780000D03*
%TD*%
D12*
%TO.C,R1*%
X44614000Y-17509000D03*
D13*
X44614000Y-4809000D03*
%TD*%
D10*
%TO.C,C3*%
X33692000Y-12191000D03*
D11*
X33692000Y-14191000D03*
%TD*%
D20*
%TO.C,J3*%
X55028000Y-5571000D03*
D21*
X57568000Y-5571000D03*
X55028000Y-8111000D03*
X57568000Y-8111000D03*
X55028000Y-10651000D03*
X57568000Y-10651000D03*
X55028000Y-13191000D03*
X57568000Y-13191000D03*
X55028000Y-15731000D03*
X57568000Y-15731000D03*
%TD*%
D12*
%TO.C,R2*%
X39534000Y-12429000D03*
D13*
X39534000Y-4809000D03*
%TD*%
D12*
%TO.C,R3*%
X39534000Y7891000D03*
D13*
X39534000Y271000D03*
%TD*%
D22*
%TO.C,J1*%
X-1270000Y0D03*
X-1270000Y-26000000D03*
X24730000Y0D03*
X24730000Y-26000000D03*
D23*
X-1850000Y-7000000D03*
X690000Y-7500000D03*
X3230000Y-8000000D03*
X-1850000Y-8500000D03*
X690000Y-9000000D03*
X3230000Y-9500000D03*
X-1850000Y-10000000D03*
X690000Y-10500000D03*
X3230000Y-11000000D03*
X-1850000Y-11500000D03*
X690000Y-12000000D03*
X3230000Y-12500000D03*
X-1850000Y-13000000D03*
X690000Y-13500000D03*
X3230000Y-14000000D03*
X-1850000Y-14500000D03*
X690000Y-15000000D03*
X3230000Y-15500000D03*
X-1850000Y-16000000D03*
X690000Y-16500000D03*
X3230000Y-17000000D03*
X-1850000Y-17500000D03*
X690000Y-18000000D03*
X3230000Y-18500000D03*
X-1850000Y-19000000D03*
X5730000Y-26580000D03*
X6230000Y-24040000D03*
X6730000Y-21500000D03*
X7230000Y-26580000D03*
X7730000Y-24040000D03*
X8230000Y-21500000D03*
X8730000Y-26580000D03*
X9230000Y-24040000D03*
X9730000Y-21500000D03*
X10230000Y-26580000D03*
X10730000Y-24040000D03*
X11230000Y-21500000D03*
X11730000Y-26580000D03*
X12230000Y-24040000D03*
X12730000Y-21500000D03*
X13230000Y-26580000D03*
X13730000Y-24040000D03*
X14230000Y-21500000D03*
X14730000Y-26580000D03*
X15230000Y-24040000D03*
X15730000Y-21500000D03*
X16230000Y-26580000D03*
X16730000Y-24040000D03*
X17230000Y-21500000D03*
X17730000Y-26580000D03*
X25310000Y-19000000D03*
X22770000Y-18500000D03*
X20230000Y-18000000D03*
X25310000Y-17500000D03*
X22770000Y-17000000D03*
X20230000Y-16500000D03*
X25310000Y-16000000D03*
X22770000Y-15500000D03*
X20230000Y-15000000D03*
X25310000Y-14500000D03*
X22770000Y-14000000D03*
X20230000Y-13500000D03*
X25310000Y-13000000D03*
X22770000Y-12500000D03*
X20230000Y-12000000D03*
X25310000Y-11500000D03*
X22770000Y-11000000D03*
X20230000Y-10500000D03*
X25310000Y-10000000D03*
X22770000Y-9500000D03*
X20230000Y-9000000D03*
X25310000Y-8500000D03*
X22770000Y-8000000D03*
X20230000Y-7500000D03*
X25310000Y-7000000D03*
X17730000Y580000D03*
X17230000Y-1960000D03*
X16730000Y-4500000D03*
X16230000Y580000D03*
X15730000Y-1960000D03*
X15230000Y-4500000D03*
X14730000Y580000D03*
X14230000Y-1960000D03*
X13730000Y-4500000D03*
X13230000Y580000D03*
X12730000Y-1960000D03*
X12230000Y-4500000D03*
X11730000Y580000D03*
X11230000Y-1960000D03*
X10730000Y-4500000D03*
X10230000Y580000D03*
X9730000Y-1960000D03*
X9230000Y-4500000D03*
X8730000Y580000D03*
X8230000Y-1960000D03*
X7730000Y-4500000D03*
X7230000Y580000D03*
X6730000Y-1960000D03*
X6230000Y-4500000D03*
X5730000Y580000D03*
%TD*%
D16*
%TO.C,S1*%
X58584000Y-33638000D03*
D17*
X58584000Y-28939000D03*
X58584000Y-24240000D03*
%TD*%
D10*
%TO.C,C2*%
X8292000Y-38083000D03*
D11*
X10292000Y-38083000D03*
%TD*%
D10*
%TO.C,C4*%
X-9996000Y-8127000D03*
D11*
X-9996000Y-10127000D03*
%TD*%
M02*
