%TF.GenerationSoftware,KiCad,Pcbnew,7.0.5*%
%TF.CreationDate,2024-01-22T12:46:48+02:00*%
%TF.ProjectId,Pixel Doubler,50697865-6c20-4446-9f75-626c65722e6b,rev?*%
%TF.SameCoordinates,Original*%
%TF.FileFunction,Copper,L1,Top*%
%TF.FilePolarity,Positive*%
%FSLAX46Y46*%
G04 Gerber Fmt 4.6, Leading zero omitted, Abs format (unit mm)*
G04 Created by KiCad (PCBNEW 7.0.5) date 2024-01-22 12:46:48*
%MOMM*%
%LPD*%
G01*
G04 APERTURE LIST*
G04 Aperture macros list*
%AMRoundRect*
0 Rectangle with rounded corners*
0 $1 Rounding radius*
0 $2 $3 $4 $5 $6 $7 $8 $9 X,Y pos of 4 corners*
0 Add a 4 corners polygon primitive as box body*
4,1,4,$2,$3,$4,$5,$6,$7,$8,$9,$2,$3,0*
0 Add four circle primitives for the rounded corners*
1,1,$1+$1,$2,$3*
1,1,$1+$1,$4,$5*
1,1,$1+$1,$6,$7*
1,1,$1+$1,$8,$9*
0 Add four rect primitives between the rounded corners*
20,1,$1+$1,$2,$3,$4,$5,0*
20,1,$1+$1,$4,$5,$6,$7,0*
20,1,$1+$1,$6,$7,$8,$9,0*
20,1,$1+$1,$8,$9,$2,$3,0*%
G04 Aperture macros list end*
%TA.AperFunction,SMDPad,CuDef*%
%ADD10RoundRect,0.250000X0.475000X-0.250000X0.475000X0.250000X-0.475000X0.250000X-0.475000X-0.250000X0*%
%TD*%
%TA.AperFunction,ComponentPad*%
%ADD11RoundRect,0.400000X-0.400000X-0.400000X0.400000X-0.400000X0.400000X0.400000X-0.400000X0.400000X0*%
%TD*%
%TA.AperFunction,ComponentPad*%
%ADD12O,1.600000X1.600000*%
%TD*%
%TA.AperFunction,ComponentPad*%
%ADD13R,1.600000X1.600000*%
%TD*%
%TA.AperFunction,SMDPad,CuDef*%
%ADD14RoundRect,0.250000X0.250000X0.475000X-0.250000X0.475000X-0.250000X-0.475000X0.250000X-0.475000X0*%
%TD*%
%TA.AperFunction,SMDPad,CuDef*%
%ADD15R,0.950000X0.450000*%
%TD*%
%TA.AperFunction,SMDPad,CuDef*%
%ADD16R,1.450000X0.450000*%
%TD*%
%TA.AperFunction,SMDPad,CuDef*%
%ADD17R,1.525000X0.430000*%
%TD*%
%TA.AperFunction,SMDPad,CuDef*%
%ADD18RoundRect,0.250000X-0.475000X0.250000X-0.475000X-0.250000X0.475000X-0.250000X0.475000X0.250000X0*%
%TD*%
%TA.AperFunction,SMDPad,CuDef*%
%ADD19R,1.150000X0.600000*%
%TD*%
%TA.AperFunction,SMDPad,CuDef*%
%ADD20R,1.800000X0.430000*%
%TD*%
%TA.AperFunction,SMDPad,CuDef*%
%ADD21R,0.875000X0.450000*%
%TD*%
%TA.AperFunction,ViaPad*%
%ADD22C,0.800000*%
%TD*%
%TA.AperFunction,Conductor*%
%ADD23C,0.380000*%
%TD*%
%TA.AperFunction,Conductor*%
%ADD24C,0.200000*%
%TD*%
%TA.AperFunction,Conductor*%
%ADD25C,0.250000*%
%TD*%
G04 APERTURE END LIST*
D10*
%TO.P,C9,1*%
%TO.N,/3.3V*%
X106553000Y-100502000D03*
%TO.P,C9,2*%
%TO.N,/GND*%
X106553000Y-98602000D03*
%TD*%
D11*
%TO.P,J1,1,Pin_1*%
%TO.N,/5V*%
X88900000Y-58420000D03*
D12*
%TO.P,J1,2,Pin_2*%
%TO.N,/~{Reset}*%
X88900000Y-60960000D03*
%TO.P,J1,3,Pin_3*%
%TO.N,/Enable Pattern*%
X88900000Y-63500000D03*
%TO.P,J1,4,Pin_4*%
%TO.N,/CLK*%
X88900000Y-66040000D03*
D13*
%TO.P,J1,5,Pin_5*%
%TO.N,/GND*%
X88900000Y-68580000D03*
D12*
%TO.P,J1,6,Pin_6*%
%TO.N,/Write Pattern Low*%
X88900000Y-71120000D03*
%TO.P,J1,7,Pin_7*%
%TO.N,/Write Pattern High*%
X88900000Y-73660000D03*
%TO.P,J1,8,Pin_8*%
%TO.N,/D7*%
X88900000Y-76200000D03*
%TO.P,J1,9,Pin_9*%
%TO.N,/D6*%
X88900000Y-78740000D03*
%TO.P,J1,10,Pin_10*%
%TO.N,/D5*%
X88900000Y-81280000D03*
%TO.P,J1,11,Pin_11*%
%TO.N,/D4*%
X88900000Y-83820000D03*
D13*
%TO.P,J1,12,Pin_12*%
%TO.N,/GND*%
X88900000Y-86360000D03*
D12*
%TO.P,J1,13,Pin_13*%
%TO.N,/D3*%
X88900000Y-88900000D03*
%TO.P,J1,14,Pin_14*%
%TO.N,/D2*%
X88900000Y-91440000D03*
%TO.P,J1,15,Pin_15*%
%TO.N,/D1*%
X88900000Y-93980000D03*
%TO.P,J1,16,Pin_16*%
%TO.N,/D0*%
X88900000Y-96520000D03*
D11*
%TO.P,J1,17,Pin_17*%
%TO.N,/5V*%
X111760000Y-96520000D03*
D12*
%TO.P,J1,18,Pin_18*%
%TO.N,unconnected-(J1-Pin_18-Pad18)*%
X111760000Y-93980000D03*
%TO.P,J1,19,Pin_19*%
%TO.N,unconnected-(J1-Pin_19-Pad19)*%
X111760000Y-91440000D03*
%TO.P,J1,20,Pin_20*%
%TO.N,unconnected-(J1-Pin_20-Pad20)*%
X111760000Y-88900000D03*
D13*
%TO.P,J1,21,Pin_21*%
%TO.N,/GND*%
X111760000Y-86360000D03*
D12*
%TO.P,J1,22,Pin_22*%
%TO.N,unconnected-(J1-Pin_22-Pad22)*%
X111760000Y-83820000D03*
%TO.P,J1,23,Pin_23*%
%TO.N,unconnected-(J1-Pin_23-Pad23)*%
X111760000Y-81280000D03*
%TO.P,J1,24,Pin_24*%
%TO.N,unconnected-(J1-Pin_24-Pad24)*%
X111760000Y-78740000D03*
%TO.P,J1,25,Pin_25*%
%TO.N,unconnected-(J1-Pin_25-Pad25)*%
X111760000Y-76200000D03*
%TO.P,J1,26,Pin_26*%
%TO.N,unconnected-(J1-Pin_26-Pad26)*%
X111760000Y-73660000D03*
%TO.P,J1,27,Pin_27*%
%TO.N,unconnected-(J1-Pin_27-Pad27)*%
X111760000Y-71120000D03*
D13*
%TO.P,J1,28,Pin_28*%
%TO.N,/GND*%
X111760000Y-68580000D03*
D12*
%TO.P,J1,29,Pin_29*%
%TO.N,unconnected-(J1-Pin_29-Pad29)*%
X111760000Y-66040000D03*
%TO.P,J1,30,Pin_30*%
%TO.N,/TC*%
X111760000Y-63500000D03*
%TO.P,J1,31,Pin_31*%
%TO.N,/Selected Pattern*%
X111760000Y-60960000D03*
%TO.P,J1,32,Pin_32*%
%TO.N,/CEP*%
X111760000Y-58420000D03*
%TD*%
D14*
%TO.P,C3,1*%
%TO.N,/3.3V*%
X97454000Y-56134000D03*
%TO.P,C3,2*%
%TO.N,/GND*%
X95554000Y-56134000D03*
%TD*%
%TO.P,C4,1*%
%TO.N,/3.3V*%
X105988400Y-70205600D03*
%TO.P,C4,2*%
%TO.N,/GND*%
X104088400Y-70205600D03*
%TD*%
%TO.P,C6,1*%
%TO.N,/3.3V*%
X106090000Y-61214000D03*
%TO.P,C6,2*%
%TO.N,/GND*%
X104190000Y-61214000D03*
%TD*%
%TO.P,C5,1*%
%TO.N,/3.3V*%
X96057000Y-70231000D03*
%TO.P,C5,2*%
%TO.N,/GND*%
X94157000Y-70231000D03*
%TD*%
D15*
%TO.P,IC3,1,1A*%
%TO.N,/~{TC}*%
X94545000Y-57953000D03*
%TO.P,IC3,2,1B*%
%TO.N,/~{Reset}*%
X94545000Y-58603000D03*
%TO.P,IC3,3,2Y*%
%TO.N,/Selected Pattern*%
X94545000Y-59253000D03*
%TO.P,IC3,4,GND*%
%TO.N,/GND*%
X94545000Y-59903000D03*
%TO.P,IC3,5,2A*%
%TO.N,/Enable Pattern*%
X98495000Y-59903000D03*
%TO.P,IC3,6,2B*%
%TO.N,/Y*%
X98495000Y-59253000D03*
%TO.P,IC3,7,1Y*%
%TO.N,/~{PE}*%
X98495000Y-58603000D03*
%TO.P,IC3,8,3V*%
%TO.N,/3.3V*%
X98495000Y-57953000D03*
%TD*%
D16*
%TO.P,IC6,1,~{MR}*%
%TO.N,/3.3V*%
X101469000Y-62749000D03*
%TO.P,IC6,2,CP*%
%TO.N,/CLK*%
X101469000Y-63399000D03*
%TO.P,IC6,3,D0*%
%TO.N,/GND*%
X101469000Y-64049000D03*
%TO.P,IC6,4,D1*%
X101469000Y-64699000D03*
%TO.P,IC6,5,D2*%
%TO.N,/3.3V*%
X101469000Y-65349000D03*
%TO.P,IC6,6,D3*%
%TO.N,/GND*%
X101469000Y-65999000D03*
%TO.P,IC6,7,CEP*%
%TO.N,/CEP*%
X101469000Y-66649000D03*
%TO.P,IC6,8,GND*%
%TO.N,/GND*%
X101469000Y-67299000D03*
%TO.P,IC6,9,~{PE}*%
%TO.N,/~{PE}*%
X107319000Y-67299000D03*
%TO.P,IC6,10,CET*%
%TO.N,/3.3V*%
X107319000Y-66649000D03*
%TO.P,IC6,11,Q3*%
%TO.N,/Q3*%
X107319000Y-65999000D03*
%TO.P,IC6,12,Q2*%
%TO.N,/Q2*%
X107319000Y-65349000D03*
%TO.P,IC6,13,Q1*%
%TO.N,/Q1*%
X107319000Y-64699000D03*
%TO.P,IC6,14,Q0*%
%TO.N,/Q0*%
X107319000Y-64049000D03*
%TO.P,IC6,15,TC*%
%TO.N,/TC*%
X107319000Y-63399000D03*
%TO.P,IC6,16,3V*%
%TO.N,/3.3V*%
X107319000Y-62749000D03*
%TD*%
D17*
%TO.P,IC1,1,I3*%
%TO.N,/RPS8*%
X92157000Y-72200000D03*
%TO.P,IC1,2,I2*%
%TO.N,/RPS9*%
X92157000Y-72834000D03*
%TO.P,IC1,3,I1*%
%TO.N,/RPS10*%
X92157000Y-73470000D03*
%TO.P,IC1,4,I0*%
%TO.N,/RPS11*%
X92157000Y-74104000D03*
%TO.P,IC1,5,Y*%
%TO.N,/Y*%
X92157000Y-74740000D03*
%TO.P,IC1,6,NC*%
%TO.N,unconnected-(IC1-NC-Pad6)*%
X92157000Y-75374000D03*
%TO.P,IC1,7,~{OE}*%
%TO.N,/Q3*%
X92157000Y-76010000D03*
%TO.P,IC1,8,GND*%
%TO.N,/GND*%
X92157000Y-76644000D03*
%TO.P,IC1,9,S2*%
X97581000Y-76644000D03*
%TO.P,IC1,10,S1*%
%TO.N,/Q1*%
X97581000Y-76010000D03*
%TO.P,IC1,11,S0*%
%TO.N,/Q0*%
X97581000Y-75374000D03*
%TO.P,IC1,12,I7*%
%TO.N,/GND*%
X97581000Y-74740000D03*
%TO.P,IC1,13,I6*%
X97581000Y-74104000D03*
%TO.P,IC1,14,I5*%
X97581000Y-73470000D03*
%TO.P,IC1,15,I4*%
X97581000Y-72834000D03*
%TO.P,IC1,16,3V*%
%TO.N,/3.3V*%
X97581000Y-72200000D03*
%TD*%
D18*
%TO.P,C1,1*%
%TO.N,/3.3V*%
X93218000Y-91948000D03*
%TO.P,C1,2*%
%TO.N,/GND*%
X93218000Y-93848000D03*
%TD*%
D10*
%TO.P,C8,1*%
%TO.N,/5V*%
X98933000Y-100502000D03*
%TO.P,C8,2*%
%TO.N,/GND*%
X98933000Y-98602000D03*
%TD*%
D19*
%TO.P,IC7,1,VIN*%
%TO.N,/5V*%
X101443000Y-98618000D03*
%TO.P,IC7,2,GND*%
%TO.N,/GND*%
X101443000Y-99568000D03*
%TO.P,IC7,3,EN*%
%TO.N,/5V*%
X101443000Y-100518000D03*
%TO.P,IC7,4,ADJ*%
%TO.N,unconnected-(IC7-ADJ-Pad4)*%
X104043000Y-100518000D03*
%TO.P,IC7,5,VOUT*%
%TO.N,/3.3V*%
X104043000Y-98618000D03*
%TD*%
D14*
%TO.P,C2,1*%
%TO.N,/3.3V*%
X105963000Y-54229000D03*
%TO.P,C2,2*%
%TO.N,/GND*%
X104063000Y-54229000D03*
%TD*%
D18*
%TO.P,C7,1*%
%TO.N,/3.3V*%
X107188000Y-84537000D03*
%TO.P,C7,2*%
%TO.N,/GND*%
X107188000Y-86437000D03*
%TD*%
D17*
%TO.P,IC5,1,I3*%
%TO.N,/RPS4*%
X101809000Y-72200000D03*
%TO.P,IC5,2,I2*%
%TO.N,/RPS5*%
X101809000Y-72834000D03*
%TO.P,IC5,3,I1*%
%TO.N,/RPS6*%
X101809000Y-73470000D03*
%TO.P,IC5,4,I0*%
%TO.N,/RPS7*%
X101809000Y-74104000D03*
%TO.P,IC5,5,Y*%
%TO.N,/Y*%
X101809000Y-74740000D03*
%TO.P,IC5,6,NC*%
%TO.N,unconnected-(IC5-NC-Pad6)*%
X101809000Y-75374000D03*
%TO.P,IC5,7,~{OE}*%
%TO.N,/~{Q3}*%
X101809000Y-76010000D03*
%TO.P,IC5,8,GND*%
%TO.N,/GND*%
X101809000Y-76644000D03*
%TO.P,IC5,9,S2*%
%TO.N,/Q2*%
X107233000Y-76644000D03*
%TO.P,IC5,10,S1*%
%TO.N,/Q1*%
X107233000Y-76010000D03*
%TO.P,IC5,11,S0*%
%TO.N,/Q0*%
X107233000Y-75374000D03*
%TO.P,IC5,12,I7*%
%TO.N,/RPS0*%
X107233000Y-74740000D03*
%TO.P,IC5,13,I6*%
%TO.N,/RPS1*%
X107233000Y-74104000D03*
%TO.P,IC5,14,I5*%
%TO.N,/RPS2*%
X107233000Y-73470000D03*
%TO.P,IC5,15,I4*%
%TO.N,/RPS3*%
X107233000Y-72834000D03*
%TO.P,IC5,16,3V*%
%TO.N,/3.3V*%
X107233000Y-72200000D03*
%TD*%
D20*
%TO.P,IC2,1,1~{OE}*%
%TO.N,/GND*%
X105030000Y-95821000D03*
%TO.P,IC2,2,1Q0*%
%TO.N,/RPS11*%
X105030000Y-95187000D03*
%TO.P,IC2,3,1Q1*%
%TO.N,/RPS10*%
X105030000Y-94551000D03*
%TO.P,IC2,4,GND*%
%TO.N,/GND*%
X105030000Y-93917000D03*
%TO.P,IC2,5,1Q2*%
%TO.N,/RPS9*%
X105030000Y-93281000D03*
%TO.P,IC2,6,1Q3*%
%TO.N,/RPS8*%
X105030000Y-92647000D03*
%TO.P,IC2,7,3V*%
%TO.N,/3.3V*%
X105030000Y-92011000D03*
%TO.P,IC2,8,1Q4*%
%TO.N,unconnected-(IC2-1Q4-Pad8)*%
X105030000Y-91377000D03*
%TO.P,IC2,9,1Q5*%
%TO.N,unconnected-(IC2-1Q5-Pad9)*%
X105030000Y-90741000D03*
%TO.P,IC2,10,GND*%
%TO.N,/GND*%
X105030000Y-90107000D03*
%TO.P,IC2,11,1Q6*%
%TO.N,unconnected-(IC2-1Q6-Pad11)*%
X105030000Y-89471000D03*
%TO.P,IC2,12,1Q7*%
%TO.N,unconnected-(IC2-1Q7-Pad12)*%
X105030000Y-88837000D03*
%TO.P,IC2,13,2Q0*%
%TO.N,/RPS7*%
X105030000Y-88201000D03*
%TO.P,IC2,14,2Q1*%
%TO.N,/RPS6*%
X105030000Y-87567000D03*
%TO.P,IC2,15,GND*%
%TO.N,/GND*%
X105030000Y-86931000D03*
%TO.P,IC2,16,2Q2*%
%TO.N,/RPS5*%
X105030000Y-86297000D03*
%TO.P,IC2,17,2Q3*%
%TO.N,/RPS4*%
X105030000Y-85661000D03*
%TO.P,IC2,18,3V*%
%TO.N,/3.3V*%
X105030000Y-85027000D03*
%TO.P,IC2,19,2Q4*%
%TO.N,/RPS3*%
X105030000Y-84391000D03*
%TO.P,IC2,20,2Q5*%
%TO.N,/RPS2*%
X105030000Y-83757000D03*
%TO.P,IC2,21,GND*%
%TO.N,/GND*%
X105030000Y-83121000D03*
%TO.P,IC2,22,2Q6*%
%TO.N,/RPS1*%
X105030000Y-82487000D03*
%TO.P,IC2,23,2Q7*%
%TO.N,/RPS0*%
X105030000Y-81851000D03*
%TO.P,IC2,24,2~{OE}*%
%TO.N,/GND*%
X105030000Y-81217000D03*
%TO.P,IC2,25,2LE*%
%TO.N,/Write Pattern High*%
X95630000Y-81217000D03*
%TO.P,IC2,26,2D7*%
%TO.N,/D7*%
X95630000Y-81851000D03*
%TO.P,IC2,27,2D6*%
%TO.N,/D6*%
X95630000Y-82487000D03*
%TO.P,IC2,28,GND*%
%TO.N,/GND*%
X95630000Y-83121000D03*
%TO.P,IC2,29,2D5*%
%TO.N,/D5*%
X95630000Y-83757000D03*
%TO.P,IC2,30,2D4*%
%TO.N,/D4*%
X95630000Y-84391000D03*
%TO.P,IC2,31,3V*%
%TO.N,/3.3V*%
X95630000Y-85027000D03*
%TO.P,IC2,32,2D3*%
%TO.N,/D3*%
X95630000Y-85661000D03*
%TO.P,IC2,33,2D2*%
%TO.N,/D2*%
X95630000Y-86297000D03*
%TO.P,IC2,34,GND*%
%TO.N,/GND*%
X95630000Y-86931000D03*
%TO.P,IC2,35,2D1*%
%TO.N,/D1*%
X95630000Y-87567000D03*
%TO.P,IC2,36,2D0*%
%TO.N,/D0*%
X95630000Y-88201000D03*
%TO.P,IC2,37,1D7*%
%TO.N,/D7*%
X95630000Y-88837000D03*
%TO.P,IC2,38,1D6*%
%TO.N,/D6*%
X95630000Y-89471000D03*
%TO.P,IC2,39,GND*%
%TO.N,/GND*%
X95630000Y-90107000D03*
%TO.P,IC2,40,1D5*%
%TO.N,/D5*%
X95630000Y-90741000D03*
%TO.P,IC2,41,1D4*%
%TO.N,/D4*%
X95630000Y-91377000D03*
%TO.P,IC2,42,3V*%
%TO.N,/3.3V*%
X95630000Y-92011000D03*
%TO.P,IC2,43,1D3*%
%TO.N,/D3*%
X95630000Y-92647000D03*
%TO.P,IC2,44,1D2*%
%TO.N,/D2*%
X95630000Y-93281000D03*
%TO.P,IC2,45,GND*%
%TO.N,/GND*%
X95630000Y-93917000D03*
%TO.P,IC2,46,1D1*%
%TO.N,/D1*%
X95630000Y-94551000D03*
%TO.P,IC2,47,1D0*%
%TO.N,/D0*%
X95630000Y-95187000D03*
%TO.P,IC2,48,1LE*%
%TO.N,/Write Pattern Low*%
X95630000Y-95821000D03*
%TD*%
D21*
%TO.P,IC4,1,1A*%
%TO.N,/TC*%
X103967000Y-56754000D03*
%TO.P,IC4,2,GND*%
%TO.N,/GND*%
X103967000Y-57404000D03*
%TO.P,IC4,3,2A*%
%TO.N,/Q3*%
X103967000Y-58054000D03*
%TO.P,IC4,4,2Y*%
%TO.N,/~{Q3}*%
X106091000Y-58054000D03*
%TO.P,IC4,5,3V*%
%TO.N,/3.3V*%
X106091000Y-57404000D03*
%TO.P,IC4,6,1Y*%
%TO.N,/~{TC}*%
X106091000Y-56754000D03*
%TD*%
D22*
%TO.N,/5V*%
X94589600Y-97586800D03*
X97586800Y-100380800D03*
%TO.N,/GND*%
X93466516Y-90047978D03*
X102920800Y-67868800D03*
X99743191Y-76070391D03*
X99922331Y-70154800D03*
X106629200Y-87934800D03*
X100685600Y-56997600D03*
X110667615Y-100761615D03*
X107391200Y-80416400D03*
X99517200Y-65938400D03*
X96139000Y-98425000D03*
X97004466Y-93885997D03*
X89408000Y-100279200D03*
X110540800Y-80518000D03*
X102920800Y-70154800D03*
X109083390Y-56568551D03*
X93980000Y-83140402D03*
X100838000Y-54406800D03*
X92075000Y-93903800D03*
X99313998Y-62585600D03*
%TO.N,/3.3V*%
X108356400Y-84480400D03*
X106357859Y-92012074D03*
%TO.N,/Selected Pattern*%
X95843360Y-61388000D03*
X95590189Y-59113000D03*
%TO.N,/Y*%
X100414247Y-59478753D03*
X100584000Y-77597000D03*
X100533200Y-74828400D03*
X93535502Y-77660502D03*
X93595051Y-74787943D03*
%TO.N,/CEP*%
X102971600Y-66649600D03*
X102209602Y-59039000D03*
%TO.N,/TC*%
X103374000Y-63135036D03*
X103108483Y-56649000D03*
%TO.N,/RPS8*%
X100156343Y-93523438D03*
X94453835Y-71568065D03*
%TO.N,/RPS9*%
X99309131Y-94054697D03*
X93759099Y-72359638D03*
%TO.N,/RPS10*%
X98672464Y-95571573D03*
X94558606Y-73035570D03*
%TO.N,/RPS11*%
X94088968Y-73918432D03*
X97972464Y-96337448D03*
%TO.N,/Q0*%
X104745869Y-63835036D03*
X105620088Y-75859486D03*
X96418400Y-78790800D03*
X95907600Y-75265976D03*
X104902000Y-78547994D03*
%TO.N,/Q1*%
X105115863Y-64764073D03*
X96573810Y-79860610D03*
X105867200Y-76933990D03*
X105867200Y-78994000D03*
X95690718Y-76368535D03*
%TO.N,/Q2*%
X107238800Y-77470000D03*
X105889357Y-65397881D03*
%TO.N,/Q3*%
X93490718Y-75785885D03*
X93345000Y-68834000D03*
X108547084Y-68973516D03*
X108665330Y-65859000D03*
X108051600Y-58521600D03*
%TO.N,/RPS0*%
X109716800Y-74812606D03*
X109685000Y-81381264D03*
%TO.N,/RPS1*%
X109524800Y-82600800D03*
X109778800Y-73710800D03*
%TO.N,/RPS2*%
X108965141Y-72890653D03*
X108966000Y-83566000D03*
%TO.N,/RPS3*%
X105726000Y-72997483D03*
X103313620Y-83788994D03*
%TO.N,/RPS4*%
X103023813Y-85439348D03*
X104952800Y-71272400D03*
%TO.N,/RPS5*%
X104404304Y-72171054D03*
X103012707Y-86449757D03*
%TO.N,/RPS6*%
X103821000Y-73018297D03*
X102073746Y-86793788D03*
%TO.N,/RPS7*%
X103145520Y-73911643D03*
X101924492Y-87785026D03*
%TO.N,/Write Pattern Low*%
X91947994Y-71374000D03*
X97505088Y-97221509D03*
%TO.N,/D0*%
X90535413Y-87887011D03*
%TO.N,/D1*%
X91266062Y-87194863D03*
X90700000Y-94538800D03*
%TO.N,/D2*%
X91204688Y-93273393D03*
X92093224Y-86632225D03*
%TO.N,/D3*%
X97073750Y-92801000D03*
X97043968Y-85762623D03*
%TO.N,/D4*%
X91427080Y-83850147D03*
X91948000Y-91313000D03*
%TO.N,/D5*%
X92270207Y-83185000D03*
X91920752Y-90295802D03*
%TO.N,/D6*%
X92970223Y-82290814D03*
X92572608Y-89537456D03*
%TO.N,/D7*%
X93931164Y-81658000D03*
X94267213Y-88863848D03*
%TO.N,/~{TC}*%
X107061000Y-56769000D03*
X93980000Y-56261000D03*
%TO.N,/~{PE}*%
X109600998Y-67564000D03*
X109836537Y-60103715D03*
%TO.N,/~{Q3}*%
X104444800Y-76809600D03*
X105215712Y-58150161D03*
%TD*%
D23*
%TO.N,/3.3V*%
X105663000Y-101392000D02*
X106553000Y-100502000D01*
X91892400Y-101392000D02*
X105663000Y-101392000D01*
X87710000Y-90947085D02*
X87710000Y-97209600D01*
X87710000Y-97209600D02*
X91892400Y-101392000D01*
X88407085Y-90250000D02*
X87710000Y-90947085D01*
X89415611Y-90250000D02*
X88407085Y-90250000D01*
X91367611Y-92202000D02*
X89415611Y-90250000D01*
X92964000Y-92202000D02*
X91367611Y-92202000D01*
D24*
%TO.N,/D6*%
X92762076Y-89347988D02*
X92572608Y-89537456D01*
X93756455Y-89347988D02*
X92762076Y-89347988D01*
%TO.N,/D5*%
X95623000Y-90748000D02*
X92372950Y-90748000D01*
%TO.N,/D6*%
X95537152Y-89563848D02*
X93972315Y-89563848D01*
%TO.N,/D4*%
X92113000Y-91148000D02*
X91948000Y-91313000D01*
X93920817Y-91148000D02*
X92113000Y-91148000D01*
X94149817Y-91377000D02*
X93920817Y-91148000D01*
X95630000Y-91377000D02*
X94149817Y-91377000D01*
%TO.N,/D5*%
X92372950Y-90748000D02*
X91920752Y-90295802D01*
%TO.N,/D6*%
X93972315Y-89563848D02*
X93756455Y-89347988D01*
D23*
%TO.N,/GND*%
X93525538Y-90107000D02*
X93466516Y-90047978D01*
X95630000Y-90107000D02*
X93525538Y-90107000D01*
D24*
%TO.N,/D1*%
X95589026Y-87526026D02*
X91597225Y-87526026D01*
X91597225Y-87526026D02*
X91266062Y-87194863D01*
%TO.N,/D7*%
X95630000Y-88837000D02*
X94294061Y-88837000D01*
X94294061Y-88837000D02*
X94267213Y-88863848D01*
%TO.N,/D0*%
X94503461Y-88045000D02*
X90693402Y-88045000D01*
X94659461Y-88201000D02*
X94503461Y-88045000D01*
X95630000Y-88201000D02*
X94659461Y-88201000D01*
X90693402Y-88045000D02*
X90535413Y-87887011D01*
%TO.N,/D5*%
X90365207Y-81280000D02*
X92270207Y-83185000D01*
X92947912Y-83862705D02*
X92270207Y-83185000D01*
X88900000Y-81280000D02*
X90365207Y-81280000D01*
%TO.N,/D6*%
X92970223Y-82239231D02*
X92970223Y-82290814D01*
X89470992Y-78740000D02*
X92970223Y-82239231D01*
%TO.N,/D5*%
X95524295Y-83862705D02*
X92947912Y-83862705D01*
%TO.N,/D6*%
X95583402Y-82440402D02*
X93119811Y-82440402D01*
X93119811Y-82440402D02*
X92970223Y-82290814D01*
D23*
%TO.N,/GND*%
X93999402Y-83121000D02*
X93980000Y-83140402D01*
X95630000Y-83121000D02*
X93999402Y-83121000D01*
D24*
%TO.N,/D7*%
X95630000Y-81851000D02*
X94124164Y-81851000D01*
X93878845Y-81658000D02*
X93931164Y-81658000D01*
X88900000Y-76679155D02*
X93878845Y-81658000D01*
X94124164Y-81851000D02*
X93931164Y-81658000D01*
%TO.N,/D4*%
X91967933Y-84391000D02*
X91427080Y-83850147D01*
X95630000Y-84391000D02*
X91967933Y-84391000D01*
X91396933Y-83820000D02*
X91427080Y-83850147D01*
X88900000Y-83820000D02*
X91396933Y-83820000D01*
%TO.N,/D3*%
X91758000Y-85661000D02*
X88900000Y-88519000D01*
X95630000Y-85661000D02*
X91758000Y-85661000D01*
%TO.N,/D2*%
X92428449Y-86297000D02*
X92093224Y-86632225D01*
X95630000Y-86297000D02*
X92428449Y-86297000D01*
X91430081Y-93048000D02*
X91204688Y-93273393D01*
X94153817Y-93281000D02*
X93920817Y-93048000D01*
X88900000Y-91440000D02*
X90733393Y-93273393D01*
X95630000Y-93281000D02*
X94153817Y-93281000D01*
X90733393Y-93273393D02*
X91204688Y-93273393D01*
X93920817Y-93048000D02*
X91430081Y-93048000D01*
D23*
%TO.N,/5V*%
X97586800Y-100380800D02*
X95808800Y-100380800D01*
X101443000Y-98618000D02*
X100488000Y-98618000D01*
X100488000Y-100518000D02*
X101443000Y-100518000D01*
X98933000Y-100502000D02*
X97708000Y-100502000D01*
X100478000Y-99441000D02*
X99994000Y-99441000D01*
X95808800Y-100380800D02*
X94640400Y-99212400D01*
X99994000Y-99441000D02*
X98933000Y-100502000D01*
X100478000Y-99441000D02*
X100478000Y-100508000D01*
X94640400Y-97637600D02*
X94589600Y-97586800D01*
X100478000Y-98628000D02*
X100478000Y-99441000D01*
X100488000Y-98618000D02*
X100478000Y-98628000D01*
X97708000Y-100502000D02*
X97586800Y-100380800D01*
X94640400Y-99212400D02*
X94640400Y-97637600D01*
X100478000Y-100508000D02*
X100488000Y-100518000D01*
%TO.N,/GND*%
X94463599Y-77317600D02*
X93789999Y-76644000D01*
X104088400Y-70205600D02*
X102971600Y-70205600D01*
X101469000Y-67299000D02*
X100389000Y-67299000D01*
X101809000Y-77120200D02*
X102412800Y-77724000D01*
X106946200Y-81217000D02*
X107391200Y-80772000D01*
X92130800Y-93848000D02*
X92075000Y-93903800D01*
X100354000Y-64709000D02*
X100354000Y-66009000D01*
X103545383Y-82931000D02*
X97555000Y-82931000D01*
X107188000Y-93039000D02*
X106310000Y-93917000D01*
X101617727Y-90107000D02*
X105030000Y-90107000D01*
X101469000Y-64699000D02*
X100364000Y-64699000D01*
X94996000Y-75437999D02*
X94996000Y-74295000D01*
X100710500Y-90359769D02*
X101364958Y-90359769D01*
X98999693Y-94781573D02*
X97900042Y-94781573D01*
X95630000Y-93917000D02*
X96973463Y-93917000D01*
X101443000Y-99568000D02*
X102398000Y-99568000D01*
X105030000Y-83121000D02*
X104110717Y-83121000D01*
X104063000Y-54229000D02*
X102235000Y-56057000D01*
X99169582Y-76644000D02*
X99743191Y-76070391D01*
X102692612Y-94919388D02*
X99137508Y-94919388D01*
X102351000Y-67299000D02*
X102920800Y-67868800D01*
X91846400Y-67310000D02*
X90576400Y-68580000D01*
X99822000Y-62585600D02*
X99313998Y-62585600D01*
X101193600Y-61214000D02*
X99822000Y-62585600D01*
X106310000Y-93917000D02*
X105030000Y-93917000D01*
X102966000Y-67914000D02*
X102920800Y-67868800D01*
X101364958Y-90359769D02*
X101617727Y-90107000D01*
X106629200Y-89787800D02*
X106629200Y-87934800D01*
X94996000Y-74295000D02*
X95885000Y-73406000D01*
X100364000Y-65999000D02*
X101469000Y-65999000D01*
X106629200Y-87451200D02*
X106629200Y-87934800D01*
X101809000Y-76644000D02*
X100316800Y-76644000D01*
X98933000Y-98602000D02*
X96316000Y-98602000D01*
X107391200Y-79248000D02*
X107391200Y-80416400D01*
X105030000Y-90107000D02*
X106310000Y-90107000D01*
X100685600Y-54559200D02*
X100838000Y-54406800D01*
X103750000Y-81217000D02*
X105030000Y-81217000D01*
X99922331Y-71635169D02*
X98723500Y-72834000D01*
X90576400Y-68580000D02*
X88900000Y-68580000D01*
X97365000Y-83121000D02*
X95630000Y-83121000D01*
X96393000Y-56973000D02*
X95554000Y-56134000D01*
X100316800Y-76644000D02*
X99743191Y-76070391D01*
X102408000Y-98090000D02*
X102246000Y-97928000D01*
X101469000Y-67299000D02*
X102351000Y-67299000D01*
X106320000Y-95644000D02*
X106143000Y-95821000D01*
X92157000Y-76644000D02*
X93789999Y-76644000D01*
X106109000Y-86931000D02*
X106603000Y-86437000D01*
X98145600Y-67310000D02*
X91846400Y-67310000D01*
X100389000Y-67299000D02*
X100354000Y-67264000D01*
X97581000Y-76644000D02*
X96907400Y-77317600D01*
X100354000Y-67264000D02*
X100354000Y-66009000D01*
X99517200Y-65938400D02*
X98145600Y-67310000D01*
X101469000Y-64699000D02*
X101469000Y-64049000D01*
X96393000Y-59817000D02*
X96393000Y-56973000D01*
X96889000Y-86931000D02*
X96920000Y-86962000D01*
X106553000Y-98602000D02*
X105879000Y-97928000D01*
X107188000Y-90985000D02*
X107188000Y-93039000D01*
X106310000Y-90107000D02*
X107188000Y-90985000D01*
X106310000Y-93917000D02*
X106320000Y-93927000D01*
X107391200Y-80416400D02*
X110439200Y-80416400D01*
X105030000Y-93917000D02*
X103695000Y-93917000D01*
X99922331Y-70154800D02*
X99922331Y-71635169D01*
X93218000Y-93848000D02*
X92130800Y-93848000D01*
X96307000Y-59903000D02*
X96393000Y-59817000D01*
X98723500Y-72834000D02*
X97581000Y-72834000D01*
X106143000Y-95821000D02*
X105030000Y-95821000D01*
X99137508Y-94919388D02*
X98999693Y-94781573D01*
X104063000Y-54229000D02*
X101015800Y-54229000D01*
X110439200Y-80416400D02*
X110540800Y-80518000D01*
X104110717Y-83121000D02*
X103735383Y-83121000D01*
X102920800Y-70154800D02*
X99922331Y-70154800D01*
X100685600Y-56997600D02*
X100685600Y-54559200D01*
X97900042Y-94781573D02*
X97004466Y-93885997D01*
X96907400Y-77317600D02*
X94463599Y-77317600D01*
X100457731Y-90107000D02*
X100710500Y-90359769D01*
X95630000Y-90107000D02*
X100457731Y-90107000D01*
X95630000Y-93917000D02*
X93287000Y-93917000D01*
X102235000Y-56057000D02*
X102235000Y-57150000D01*
X106320000Y-93927000D02*
X106320000Y-95644000D01*
X102412800Y-77724000D02*
X105867200Y-77724000D01*
X96672400Y-90107000D02*
X95630000Y-90107000D01*
X101809000Y-76644000D02*
X101809000Y-77120200D01*
X96973463Y-93917000D02*
X97004466Y-93885997D01*
X100364000Y-64699000D02*
X100354000Y-64709000D01*
X108604800Y-67914000D02*
X102966000Y-67914000D01*
X103545383Y-81421617D02*
X103750000Y-81217000D01*
X111760000Y-68580000D02*
X109270800Y-68580000D01*
X102398000Y-99568000D02*
X102408000Y-99558000D01*
X97581000Y-73470000D02*
X97581000Y-72834000D01*
X99577800Y-65999000D02*
X101469000Y-65999000D01*
X103695000Y-93917000D02*
X102692612Y-94919388D01*
X97581000Y-74740000D02*
X97581000Y-74104000D01*
X102235000Y-57150000D02*
X102524000Y-57439000D01*
X96920000Y-86962000D02*
X96920000Y-89859400D01*
X97581000Y-76644000D02*
X99169582Y-76644000D01*
X105030000Y-81217000D02*
X106946200Y-81217000D01*
X102971600Y-70205600D02*
X102920800Y-70154800D01*
X104110717Y-83121000D02*
X104110717Y-83111771D01*
X106603000Y-86437000D02*
X107188000Y-86437000D01*
X95630000Y-86931000D02*
X96889000Y-86931000D01*
X102246000Y-97928000D02*
X99607000Y-97928000D01*
X107391200Y-80772000D02*
X107391200Y-80416400D01*
X96316000Y-98602000D02*
X96139000Y-98425000D01*
X105030000Y-86931000D02*
X106109000Y-86931000D01*
X94545000Y-59903000D02*
X96307000Y-59903000D01*
X97581000Y-74104000D02*
X97581000Y-73470000D01*
X102408000Y-99558000D02*
X102408000Y-98090000D01*
X97555000Y-82931000D02*
X97365000Y-83121000D01*
X96920000Y-89859400D02*
X96672400Y-90107000D01*
X95885000Y-73406000D02*
X95885000Y-71882000D01*
X105867200Y-77724000D02*
X107391200Y-79248000D01*
X99517200Y-65938400D02*
X99577800Y-65999000D01*
X100354000Y-66009000D02*
X100364000Y-65999000D01*
X95885000Y-71882000D02*
X94234000Y-70231000D01*
X104190000Y-61214000D02*
X101193600Y-61214000D01*
X102524000Y-57439000D02*
X103932000Y-57439000D01*
X106109000Y-86931000D02*
X106629200Y-87451200D01*
X103735383Y-83121000D02*
X103545383Y-82931000D01*
X102570000Y-97928000D02*
X102408000Y-98090000D01*
X103545383Y-82931000D02*
X103545383Y-81421617D01*
X93789999Y-76644000D02*
X94996000Y-75437999D01*
X105879000Y-97928000D02*
X102570000Y-97928000D01*
X99607000Y-97928000D02*
X98933000Y-98602000D01*
X101015800Y-54229000D02*
X100838000Y-54406800D01*
X106310000Y-90107000D02*
X106629200Y-89787800D01*
X109270800Y-68580000D02*
X108604800Y-67914000D01*
%TO.N,/3.3V*%
X104873400Y-69090600D02*
X97197400Y-69090600D01*
X98495000Y-57953000D02*
X98495000Y-57175000D01*
X101918000Y-92011000D02*
X105030000Y-92011000D01*
X99847771Y-92710000D02*
X101219000Y-92710000D01*
X108508800Y-84480400D02*
X108356400Y-84480400D01*
X101219000Y-92710000D02*
X101918000Y-92011000D01*
X102351000Y-62749000D02*
X101469000Y-62749000D01*
X110773200Y-72470000D02*
X112238800Y-72470000D01*
X105963000Y-54229000D02*
X104848000Y-53114000D01*
X112092915Y-85010000D02*
X109038400Y-85010000D01*
X102549000Y-65349000D02*
X102049000Y-65349000D01*
X112297200Y-62310000D02*
X112950000Y-61657200D01*
X107319000Y-62749000D02*
X108751800Y-62749000D01*
X97197400Y-69090600D02*
X96057000Y-70231000D01*
X106090000Y-61520000D02*
X107319000Y-62749000D01*
X105963000Y-54229000D02*
X105263500Y-54928500D01*
X105988400Y-70205600D02*
X107233000Y-71450200D01*
X112950000Y-62962800D02*
X112950000Y-67360800D01*
X101469000Y-62749000D02*
X102574000Y-62749000D01*
X105558780Y-57376000D02*
X106063000Y-57376000D01*
X103750000Y-85027000D02*
X103372347Y-84649347D01*
X97066044Y-84649347D02*
X96688391Y-85027000D01*
X105988400Y-70205600D02*
X104873400Y-69090600D01*
X104043000Y-98618000D02*
X104669000Y-98618000D01*
X107319000Y-66649000D02*
X110686085Y-66649000D01*
X109810000Y-100502000D02*
X106553000Y-100502000D01*
X108751800Y-62749000D02*
X109190800Y-62310000D01*
X103372347Y-84649347D02*
X97066044Y-84649347D01*
X99148771Y-92011000D02*
X99847771Y-92710000D01*
X111397885Y-67360800D02*
X112950000Y-67360800D01*
X105988400Y-70205600D02*
X108508800Y-70205600D01*
X102771000Y-62329000D02*
X102351000Y-62749000D01*
X106133400Y-85027000D02*
X105030000Y-85027000D01*
X106623400Y-84537000D02*
X106133400Y-85027000D01*
X112950000Y-61657200D02*
X112950000Y-57832000D01*
X112950000Y-97362000D02*
X109810000Y-100502000D01*
X109347000Y-54229000D02*
X105963000Y-54229000D01*
X105030000Y-92011000D02*
X106356785Y-92011000D01*
X106090000Y-61214000D02*
X104975000Y-62329000D01*
X109038400Y-85010000D02*
X108508800Y-84480400D01*
X112950000Y-67360800D02*
X112950000Y-71758800D01*
X112252915Y-85010000D02*
X112092915Y-85010000D01*
X112950000Y-73167085D02*
X112950000Y-84312915D01*
X107233000Y-71450200D02*
X107233000Y-72200000D01*
X110686085Y-66649000D02*
X111397885Y-67360800D01*
X112790000Y-85010000D02*
X112950000Y-85170000D01*
X105030000Y-85027000D02*
X103750000Y-85027000D01*
X107244600Y-84480400D02*
X108356400Y-84480400D01*
X112092915Y-85010000D02*
X112790000Y-85010000D01*
X95630000Y-92011000D02*
X99148771Y-92011000D01*
X109190800Y-62310000D02*
X112297200Y-62310000D01*
X108508800Y-70205600D02*
X110773200Y-72470000D01*
X100474000Y-53114000D02*
X97454000Y-56134000D01*
X102584000Y-62759000D02*
X102584000Y-65314000D01*
X112950000Y-85170000D02*
X112950000Y-97362000D01*
X112950000Y-71758800D02*
X112238800Y-72470000D01*
X98495000Y-57175000D02*
X97454000Y-56134000D01*
X104848000Y-53114000D02*
X100474000Y-53114000D01*
X104975000Y-62329000D02*
X102771000Y-62329000D01*
X93281000Y-92011000D02*
X95630000Y-92011000D01*
X112252915Y-72470000D02*
X112950000Y-73167085D01*
X105263500Y-54928500D02*
X105263500Y-57360161D01*
X102574000Y-62749000D02*
X102584000Y-62759000D01*
X112950000Y-84312915D02*
X112252915Y-85010000D01*
X104669000Y-98618000D02*
X106553000Y-100502000D01*
X107188000Y-84537000D02*
X106623400Y-84537000D01*
X112950000Y-57832000D02*
X109347000Y-54229000D01*
X105263500Y-57360161D02*
X105542941Y-57360161D01*
X96057000Y-70676000D02*
X97581000Y-72200000D01*
X112238800Y-72470000D02*
X112252915Y-72470000D01*
X106356785Y-92011000D02*
X106357859Y-92012074D01*
X96688391Y-85027000D02*
X95630000Y-85027000D01*
X112297200Y-62310000D02*
X112950000Y-62962800D01*
X102584000Y-65314000D02*
X102549000Y-65349000D01*
X105542941Y-57360161D02*
X105558780Y-57376000D01*
D24*
%TO.N,/Selected Pattern*%
X106567817Y-60189000D02*
X101228000Y-60189000D01*
X111760000Y-60960000D02*
X107338817Y-60960000D01*
X94545000Y-59253000D02*
X95450189Y-59253000D01*
X101228000Y-60189000D02*
X100029000Y-61388000D01*
X107338817Y-60960000D02*
X106567817Y-60189000D01*
X100029000Y-61388000D02*
X95843360Y-61388000D01*
X95450189Y-59253000D02*
X95590189Y-59113000D01*
%TO.N,/Enable Pattern*%
X88900000Y-63500000D02*
X92355050Y-63500000D01*
X92355050Y-63500000D02*
X95167050Y-60688000D01*
X97710000Y-60688000D02*
X98495000Y-59903000D01*
X95167050Y-60688000D02*
X97710000Y-60688000D01*
%TO.N,/Y*%
X100621600Y-74740000D02*
X100533200Y-74828400D01*
X100355400Y-77825600D02*
X93700600Y-77825600D01*
X101809000Y-74740000D02*
X100621600Y-74740000D01*
X93700600Y-77825600D02*
X93535502Y-77660502D01*
X92157000Y-74740000D02*
X93547108Y-74740000D01*
D25*
X100188494Y-59253000D02*
X100414247Y-59478753D01*
X98495000Y-59253000D02*
X100188494Y-59253000D01*
D24*
X100584000Y-77597000D02*
X100355400Y-77825600D01*
X93547108Y-74740000D02*
X93595051Y-74787943D01*
%TO.N,/CEP*%
X101469000Y-66649000D02*
X102971000Y-66649000D01*
X110852000Y-59328000D02*
X102498602Y-59328000D01*
X102498602Y-59328000D02*
X102209602Y-59039000D01*
X102971000Y-66649000D02*
X102971600Y-66649600D01*
X111760000Y-58420000D02*
X110852000Y-59328000D01*
%TO.N,/CLK*%
X98653000Y-63399000D02*
X96012000Y-66040000D01*
X96012000Y-66040000D02*
X88900000Y-66040000D01*
X101469000Y-63399000D02*
X98653000Y-63399000D01*
%TO.N,/TC*%
X103967000Y-56754000D02*
X103213483Y-56754000D01*
X105065740Y-63135036D02*
X103374000Y-63135036D01*
X107319000Y-63399000D02*
X111659000Y-63399000D01*
X105329704Y-63399000D02*
X105065740Y-63135036D01*
X107319000Y-63399000D02*
X105329704Y-63399000D01*
X103213483Y-56754000D02*
X103108483Y-56649000D01*
%TO.N,/RPS8*%
X105030000Y-92647000D02*
X101974964Y-92647000D01*
X101974964Y-92647000D02*
X101098526Y-93523438D01*
X93336435Y-71568065D02*
X94453835Y-71568065D01*
X101098526Y-93523438D02*
X100156343Y-93523438D01*
X92704500Y-72200000D02*
X93336435Y-71568065D01*
%TO.N,/RPS9*%
X100953650Y-94234000D02*
X99488434Y-94234000D01*
X92157000Y-72834000D02*
X93284737Y-72834000D01*
X105030000Y-93281000D02*
X101906650Y-93281000D01*
X101906650Y-93281000D02*
X100953650Y-94234000D01*
X99488434Y-94234000D02*
X99309131Y-94054697D01*
X93284737Y-72834000D02*
X93759099Y-72359638D01*
%TO.N,/RPS10*%
X93506650Y-73470000D02*
X93941080Y-73035570D01*
X103753964Y-94551000D02*
X102733391Y-95571573D01*
X105030000Y-94551000D02*
X103753964Y-94551000D01*
X92157000Y-73470000D02*
X93506650Y-73470000D01*
X102733391Y-95571573D02*
X98672464Y-95571573D01*
X93941080Y-73035570D02*
X94558606Y-73035570D01*
%TO.N,/RPS11*%
X105030000Y-95187000D02*
X103683650Y-95187000D01*
X102533202Y-96337448D02*
X97972464Y-96337448D01*
X103683650Y-95187000D02*
X102533202Y-96337448D01*
X92173057Y-74087943D02*
X93919457Y-74087943D01*
X93919457Y-74087943D02*
X94088968Y-73918432D01*
%TO.N,/~{Reset}*%
X91186000Y-60960000D02*
X93543000Y-58603000D01*
X93543000Y-58603000D02*
X94545000Y-58603000D01*
X88900000Y-60960000D02*
X91186000Y-60960000D01*
%TO.N,/Q0*%
X96661206Y-78547994D02*
X96418400Y-78790800D01*
X96015624Y-75374000D02*
X95907600Y-75265976D01*
X104959833Y-64049000D02*
X104745869Y-63835036D01*
X104902000Y-78547994D02*
X96661206Y-78547994D01*
X107233000Y-75374000D02*
X106105574Y-75374000D01*
X97581000Y-75374000D02*
X96015624Y-75374000D01*
X106105574Y-75374000D02*
X105620088Y-75859486D01*
X107319000Y-64049000D02*
X104959833Y-64049000D01*
%TO.N,/Q1*%
X106459507Y-76010000D02*
X105867200Y-76602307D01*
X105867200Y-78994000D02*
X105000590Y-79860610D01*
X105867200Y-76602307D02*
X105867200Y-76933990D01*
X105200336Y-64679600D02*
X105115863Y-64764073D01*
X96049253Y-76010000D02*
X95690718Y-76368535D01*
X107233000Y-76010000D02*
X106459507Y-76010000D01*
X97581000Y-76010000D02*
X96049253Y-76010000D01*
X107299600Y-64679600D02*
X105200336Y-64679600D01*
X105000590Y-79860610D02*
X96573810Y-79860610D01*
%TO.N,/Q2*%
X107319000Y-65349000D02*
X105938238Y-65349000D01*
X107233000Y-77464200D02*
X107238800Y-77470000D01*
X105938238Y-65349000D02*
X105889357Y-65397881D01*
X107233000Y-76644000D02*
X107233000Y-77464200D01*
%TO.N,/Q3*%
X93578400Y-68600600D02*
X108174168Y-68600600D01*
X107645200Y-58928000D02*
X108051600Y-58521600D01*
X104851200Y-58928000D02*
X107645200Y-58928000D01*
X92157000Y-76010000D02*
X93266603Y-76010000D01*
X93266603Y-76010000D02*
X93490718Y-75785885D01*
X108525330Y-65999000D02*
X108665330Y-65859000D01*
X107319000Y-65999000D02*
X108525330Y-65999000D01*
X93345000Y-68834000D02*
X93578400Y-68600600D01*
X103977200Y-58054000D02*
X104851200Y-58928000D01*
X108174168Y-68600600D02*
X108547084Y-68973516D01*
%TO.N,/RPS0*%
X107233000Y-74740000D02*
X109644194Y-74740000D01*
X109644194Y-74740000D02*
X109716800Y-74812606D01*
X105030000Y-81851000D02*
X109215264Y-81851000D01*
X109215264Y-81851000D02*
X109685000Y-81381264D01*
%TO.N,/RPS1*%
X109411000Y-82487000D02*
X105030000Y-82487000D01*
X107233000Y-74104000D02*
X109385600Y-74104000D01*
X109524800Y-82600800D02*
X109411000Y-82487000D01*
X109385600Y-74104000D02*
X109778800Y-73710800D01*
%TO.N,/RPS2*%
X107233000Y-73470000D02*
X108385794Y-73470000D01*
X108385794Y-73470000D02*
X108965141Y-72890653D01*
X105030000Y-83757000D02*
X106489000Y-83757000D01*
X106489000Y-83757000D02*
X106680000Y-83566000D01*
X106680000Y-83566000D02*
X108966000Y-83566000D01*
%TO.N,/RPS3*%
X105030000Y-84391000D02*
X103915626Y-84391000D01*
X105889483Y-72834000D02*
X105726000Y-72997483D01*
X103915626Y-84391000D02*
X103313620Y-83788994D01*
X107233000Y-72834000D02*
X105889483Y-72834000D01*
%TO.N,/RPS4*%
X102736600Y-71272400D02*
X104952800Y-71272400D01*
X103245465Y-85661000D02*
X103023813Y-85439348D01*
X105030000Y-85661000D02*
X103245465Y-85661000D01*
X101809000Y-72200000D02*
X102736600Y-71272400D01*
%TO.N,/RPS5*%
X103337360Y-72171054D02*
X104404304Y-72171054D01*
X103165464Y-86297000D02*
X103012707Y-86449757D01*
X102674414Y-72834000D02*
X103337360Y-72171054D01*
X105030000Y-86297000D02*
X103165464Y-86297000D01*
X101809000Y-72834000D02*
X102674414Y-72834000D01*
%TO.N,/RPS6*%
X102846958Y-87567000D02*
X102073746Y-86793788D01*
X101930000Y-73349000D02*
X102725100Y-73349000D01*
X105030000Y-87567000D02*
X102846958Y-87567000D01*
X102725100Y-73349000D02*
X103055803Y-73018297D01*
X101809000Y-73470000D02*
X101930000Y-73349000D01*
X103055803Y-73018297D02*
X103821000Y-73018297D01*
%TO.N,/RPS7*%
X101809000Y-74104000D02*
X102953163Y-74104000D01*
X102340466Y-88201000D02*
X101924492Y-87785026D01*
X102953163Y-74104000D02*
X103145520Y-73911643D01*
X105030000Y-88201000D02*
X102340466Y-88201000D01*
%TO.N,/Write Pattern Low*%
X88900000Y-71120000D02*
X91693994Y-71120000D01*
X91693994Y-71120000D02*
X91947994Y-71374000D01*
X96104579Y-95821000D02*
X97505088Y-97221509D01*
%TO.N,/D0*%
X91503000Y-95187000D02*
X90576400Y-96113600D01*
X95630000Y-95187000D02*
X91503000Y-95187000D01*
X88900000Y-96520000D02*
X90170000Y-96520000D01*
X90170000Y-96520000D02*
X90576400Y-96113600D01*
%TO.N,/D1*%
X90141200Y-93980000D02*
X90700000Y-94538800D01*
X90941199Y-94779999D02*
X90700000Y-94538800D01*
X88900000Y-93980000D02*
X90141200Y-93980000D01*
X95630000Y-94551000D02*
X94017817Y-94551000D01*
X93788818Y-94779999D02*
X90941199Y-94779999D01*
X94017817Y-94551000D02*
X93788818Y-94779999D01*
%TO.N,/D3*%
X95630000Y-85661000D02*
X96942345Y-85661000D01*
X96919750Y-92647000D02*
X97073750Y-92801000D01*
X96942345Y-85661000D02*
X97043968Y-85762623D01*
X95630000Y-92647000D02*
X96919750Y-92647000D01*
%TO.N,/Write Pattern High*%
X88900000Y-73660000D02*
X90424000Y-75184000D01*
X90424000Y-76696000D02*
X94945000Y-81217000D01*
X90424000Y-75184000D02*
X90424000Y-76696000D01*
D25*
%TO.N,/~{TC}*%
X107046000Y-56754000D02*
X107061000Y-56769000D01*
X94545000Y-57953000D02*
X94545000Y-56826000D01*
X94545000Y-56826000D02*
X93980000Y-56261000D01*
X106091000Y-56754000D02*
X107046000Y-56754000D01*
%TO.N,/~{PE}*%
X101817095Y-59764000D02*
X109496822Y-59764000D01*
X107319000Y-67299000D02*
X109335998Y-67299000D01*
X109496822Y-59764000D02*
X109836537Y-60103715D01*
X98495000Y-58603000D02*
X100656095Y-58603000D01*
X109335998Y-67299000D02*
X109600998Y-67564000D01*
X100656095Y-58603000D02*
X101817095Y-59764000D01*
D24*
%TO.N,/~{Q3}*%
X106091000Y-58054000D02*
X105311873Y-58054000D01*
X101809000Y-76010000D02*
X103645200Y-76010000D01*
X105311873Y-58054000D02*
X105215712Y-58150161D01*
X103645200Y-76010000D02*
X104444800Y-76809600D01*
%TD*%
%TA.AperFunction,Conductor*%
%TO.N,/GND*%
G36*
X100027215Y-52725185D02*
G01*
X100072970Y-52777989D01*
X100082914Y-52847147D01*
X100053889Y-52910703D01*
X100047857Y-52917181D01*
X97842856Y-55122181D01*
X97781533Y-55155666D01*
X97755175Y-55158500D01*
X97156129Y-55158500D01*
X97156123Y-55158501D01*
X97096516Y-55164908D01*
X96961671Y-55215202D01*
X96961664Y-55215206D01*
X96846455Y-55301452D01*
X96846452Y-55301455D01*
X96760206Y-55416664D01*
X96760202Y-55416671D01*
X96709908Y-55551517D01*
X96703501Y-55611116D01*
X96703500Y-55611135D01*
X96703500Y-56656870D01*
X96703501Y-56656876D01*
X96709908Y-56716483D01*
X96760202Y-56851328D01*
X96760206Y-56851335D01*
X96846452Y-56966544D01*
X96846455Y-56966547D01*
X96961664Y-57052793D01*
X96961671Y-57052797D01*
X97006618Y-57069561D01*
X97096517Y-57103091D01*
X97156127Y-57109500D01*
X97751872Y-57109499D01*
X97755176Y-57109499D01*
X97822215Y-57129183D01*
X97842852Y-57145813D01*
X97980767Y-57283727D01*
X98014251Y-57345048D01*
X98009267Y-57414740D01*
X97967396Y-57470674D01*
X97932988Y-57486019D01*
X97933544Y-57487360D01*
X97922260Y-57492033D01*
X97839399Y-57547399D01*
X97784033Y-57630260D01*
X97784032Y-57630264D01*
X97769500Y-57703321D01*
X97769500Y-58202673D01*
X97779671Y-58253810D01*
X97779671Y-58302190D01*
X97769500Y-58353326D01*
X97769500Y-58852673D01*
X97779671Y-58903810D01*
X97779671Y-58952190D01*
X97769500Y-59003326D01*
X97769500Y-59502673D01*
X97779671Y-59553809D01*
X97779671Y-59602188D01*
X97769500Y-59653325D01*
X97769500Y-60081456D01*
X97749815Y-60148495D01*
X97733181Y-60169137D01*
X97601137Y-60301181D01*
X97539814Y-60334666D01*
X97513456Y-60337500D01*
X95216262Y-60337500D01*
X95190816Y-60334861D01*
X95189886Y-60334666D01*
X95181736Y-60332957D01*
X95181735Y-60332957D01*
X95181733Y-60332957D01*
X95149112Y-60337023D01*
X95141436Y-60337500D01*
X95138010Y-60337500D01*
X95117783Y-60340875D01*
X95115250Y-60341244D01*
X95065661Y-60347425D01*
X95058597Y-60349528D01*
X95051669Y-60351907D01*
X95007729Y-60375685D01*
X95005453Y-60376856D01*
X94960566Y-60398801D01*
X94954614Y-60403049D01*
X94948789Y-60407583D01*
X94914963Y-60444329D01*
X94913189Y-60446177D01*
X92246187Y-63113181D01*
X92184864Y-63146666D01*
X92158506Y-63149500D01*
X89978127Y-63149500D01*
X89911088Y-63129815D01*
X89868769Y-63083954D01*
X89834302Y-63019472D01*
X89777685Y-62913550D01*
X89704132Y-62823925D01*
X89646410Y-62753589D01*
X89486452Y-62622317D01*
X89486453Y-62622317D01*
X89486450Y-62622315D01*
X89303954Y-62524768D01*
X89105934Y-62464700D01*
X89105932Y-62464699D01*
X89105934Y-62464699D01*
X88918463Y-62446235D01*
X88900000Y-62444417D01*
X88899999Y-62444417D01*
X88694067Y-62464699D01*
X88496043Y-62524769D01*
X88385898Y-62583643D01*
X88313550Y-62622315D01*
X88313548Y-62622316D01*
X88313547Y-62622317D01*
X88153589Y-62753589D01*
X88022317Y-62913547D01*
X88022315Y-62913550D01*
X88004893Y-62946144D01*
X87924769Y-63096043D01*
X87864699Y-63294067D01*
X87844417Y-63499999D01*
X87864699Y-63705932D01*
X87892011Y-63795967D01*
X87924768Y-63903954D01*
X88022315Y-64086450D01*
X88022317Y-64086452D01*
X88153589Y-64246410D01*
X88217273Y-64298673D01*
X88313550Y-64377685D01*
X88496046Y-64475232D01*
X88694066Y-64535300D01*
X88694065Y-64535300D01*
X88712529Y-64537118D01*
X88900000Y-64555583D01*
X89105934Y-64535300D01*
X89303954Y-64475232D01*
X89486450Y-64377685D01*
X89646410Y-64246410D01*
X89777685Y-64086450D01*
X89868768Y-63916046D01*
X89917732Y-63866202D01*
X89978127Y-63850500D01*
X92305839Y-63850500D01*
X92331284Y-63853138D01*
X92340365Y-63855043D01*
X92356055Y-63853087D01*
X92372989Y-63850977D01*
X92380665Y-63850500D01*
X92384085Y-63850500D01*
X92384090Y-63850500D01*
X92393353Y-63848954D01*
X92404328Y-63847123D01*
X92406861Y-63846753D01*
X92456443Y-63840573D01*
X92456449Y-63840569D01*
X92463501Y-63838470D01*
X92470427Y-63836092D01*
X92470431Y-63836092D01*
X92499316Y-63820459D01*
X92514379Y-63812308D01*
X92516640Y-63811143D01*
X92561534Y-63789198D01*
X92561537Y-63789194D01*
X92567503Y-63784935D01*
X92573304Y-63780419D01*
X92573308Y-63780418D01*
X92607151Y-63743653D01*
X92608876Y-63741854D01*
X94983604Y-61367126D01*
X95044925Y-61333643D01*
X95114617Y-61338627D01*
X95170550Y-61380499D01*
X95194379Y-61439862D01*
X95207123Y-61544819D01*
X95252878Y-61665464D01*
X95263140Y-61692523D01*
X95352877Y-61822530D01*
X95471120Y-61927283D01*
X95471122Y-61927284D01*
X95610994Y-62000696D01*
X95764374Y-62038500D01*
X95764375Y-62038500D01*
X95922345Y-62038500D01*
X96075725Y-62000696D01*
X96091000Y-61992679D01*
X96215600Y-61927283D01*
X96333843Y-61822530D01*
X96354873Y-61792061D01*
X96409155Y-61748070D01*
X96456924Y-61738500D01*
X99979789Y-61738500D01*
X100005234Y-61741138D01*
X100014315Y-61743043D01*
X100030005Y-61741087D01*
X100046939Y-61738977D01*
X100054615Y-61738500D01*
X100058035Y-61738500D01*
X100058040Y-61738500D01*
X100067303Y-61736954D01*
X100078278Y-61735123D01*
X100080811Y-61734753D01*
X100130393Y-61728573D01*
X100130399Y-61728569D01*
X100137451Y-61726470D01*
X100144377Y-61724092D01*
X100144381Y-61724092D01*
X100177053Y-61706410D01*
X100188329Y-61700308D01*
X100190590Y-61699143D01*
X100235484Y-61677198D01*
X100235487Y-61677194D01*
X100241453Y-61672935D01*
X100247254Y-61668419D01*
X100247258Y-61668418D01*
X100281101Y-61631653D01*
X100282826Y-61629854D01*
X101336862Y-60575819D01*
X101398186Y-60542334D01*
X101424544Y-60539500D01*
X105217756Y-60539500D01*
X105284795Y-60559185D01*
X105330550Y-60611989D01*
X105341045Y-60676752D01*
X105339500Y-60691127D01*
X105339499Y-60691133D01*
X105339500Y-60691134D01*
X105339500Y-61290176D01*
X105319815Y-61357215D01*
X105303181Y-61377857D01*
X104828858Y-61852181D01*
X104767535Y-61885666D01*
X104741177Y-61888500D01*
X102799228Y-61888500D01*
X102792289Y-61888110D01*
X102779073Y-61886621D01*
X102754344Y-61883834D01*
X102698317Y-61894434D01*
X102696034Y-61894822D01*
X102639692Y-61903315D01*
X102631714Y-61905776D01*
X102623868Y-61908522D01*
X102573493Y-61935145D01*
X102571426Y-61936188D01*
X102520053Y-61960929D01*
X102513197Y-61965603D01*
X102506464Y-61970573D01*
X102466185Y-62010852D01*
X102464517Y-62012459D01*
X102422710Y-62051251D01*
X102416919Y-62058514D01*
X102416250Y-62057980D01*
X102406968Y-62070069D01*
X102239856Y-62237182D01*
X102178536Y-62270666D01*
X102152177Y-62273500D01*
X100719323Y-62273500D01*
X100646264Y-62288032D01*
X100646260Y-62288033D01*
X100563399Y-62343399D01*
X100508033Y-62426260D01*
X100508032Y-62426264D01*
X100493500Y-62499321D01*
X100493500Y-62924500D01*
X100473815Y-62991539D01*
X100421011Y-63037294D01*
X100369500Y-63048500D01*
X98702211Y-63048500D01*
X98676765Y-63045861D01*
X98667685Y-63043957D01*
X98667684Y-63043957D01*
X98667682Y-63043957D01*
X98635061Y-63048023D01*
X98627385Y-63048500D01*
X98623960Y-63048500D01*
X98618754Y-63049368D01*
X98603700Y-63051879D01*
X98601171Y-63052247D01*
X98551608Y-63058426D01*
X98544570Y-63060521D01*
X98537617Y-63062908D01*
X98493687Y-63086682D01*
X98491411Y-63087853D01*
X98446513Y-63109803D01*
X98440566Y-63114048D01*
X98434739Y-63118584D01*
X98400913Y-63155329D01*
X98399139Y-63157177D01*
X95903137Y-65653181D01*
X95841814Y-65686666D01*
X95815456Y-65689500D01*
X89978127Y-65689500D01*
X89911088Y-65669815D01*
X89868769Y-65623954D01*
X89831752Y-65554702D01*
X89777685Y-65453550D01*
X89670878Y-65323404D01*
X89646410Y-65293589D01*
X89486452Y-65162317D01*
X89486453Y-65162317D01*
X89486450Y-65162315D01*
X89316554Y-65071502D01*
X89303956Y-65064769D01*
X89303955Y-65064768D01*
X89303954Y-65064768D01*
X89105934Y-65004700D01*
X89105932Y-65004699D01*
X89105934Y-65004699D01*
X88900000Y-64984417D01*
X88694067Y-65004699D01*
X88496043Y-65064769D01*
X88431402Y-65099321D01*
X88313550Y-65162315D01*
X88313548Y-65162316D01*
X88313547Y-65162317D01*
X88153589Y-65293589D01*
X88023814Y-65451723D01*
X88022315Y-65453550D01*
X87993594Y-65507283D01*
X87924769Y-65636043D01*
X87864699Y-65834067D01*
X87844417Y-66040000D01*
X87864699Y-66245932D01*
X87894734Y-66344943D01*
X87924768Y-66443954D01*
X88022315Y-66626450D01*
X88022317Y-66626452D01*
X88153589Y-66786410D01*
X88250209Y-66865702D01*
X88313550Y-66917685D01*
X88496046Y-67015232D01*
X88694066Y-67075300D01*
X88694065Y-67075300D01*
X88714348Y-67077297D01*
X88900000Y-67095583D01*
X89105934Y-67075300D01*
X89303954Y-67015232D01*
X89486450Y-66917685D01*
X89509610Y-66898678D01*
X100493500Y-66898678D01*
X100508032Y-66971735D01*
X100508033Y-66971739D01*
X100508034Y-66971740D01*
X100563399Y-67054601D01*
X100624734Y-67095583D01*
X100646260Y-67109966D01*
X100646264Y-67109967D01*
X100719321Y-67124499D01*
X100719324Y-67124500D01*
X100719326Y-67124500D01*
X102218676Y-67124500D01*
X102218677Y-67124499D01*
X102291740Y-67109966D01*
X102336795Y-67079861D01*
X102403470Y-67058984D01*
X102470850Y-67077468D01*
X102487904Y-67090143D01*
X102526685Y-67124499D01*
X102599362Y-67188885D01*
X102739234Y-67262296D01*
X102892614Y-67300100D01*
X102892615Y-67300100D01*
X103050585Y-67300100D01*
X103203965Y-67262296D01*
X103213158Y-67257471D01*
X103343840Y-67188883D01*
X103462083Y-67084130D01*
X103551820Y-66954123D01*
X103607837Y-66806418D01*
X103626878Y-66649600D01*
X103607837Y-66492782D01*
X103551820Y-66345077D01*
X103462083Y-66215070D01*
X103343840Y-66110317D01*
X103343838Y-66110316D01*
X103343837Y-66110315D01*
X103203965Y-66036903D01*
X103050586Y-65999100D01*
X103050585Y-65999100D01*
X102892615Y-65999100D01*
X102892614Y-65999100D01*
X102739234Y-66036903D01*
X102599361Y-66110315D01*
X102599359Y-66110317D01*
X102488682Y-66208366D01*
X102425448Y-66238087D01*
X102356185Y-66228903D01*
X102337567Y-66218653D01*
X102291742Y-66188035D01*
X102291735Y-66188032D01*
X102218677Y-66173500D01*
X102218674Y-66173500D01*
X100719326Y-66173500D01*
X100719323Y-66173500D01*
X100646264Y-66188032D01*
X100646260Y-66188033D01*
X100563399Y-66243399D01*
X100508033Y-66326260D01*
X100508032Y-66326264D01*
X100493500Y-66399321D01*
X100493500Y-66898678D01*
X89509610Y-66898678D01*
X89646410Y-66786410D01*
X89777685Y-66626450D01*
X89868768Y-66456046D01*
X89917732Y-66406202D01*
X89978127Y-66390500D01*
X95962789Y-66390500D01*
X95988234Y-66393138D01*
X95997315Y-66395043D01*
X96013005Y-66393087D01*
X96029939Y-66390977D01*
X96037615Y-66390500D01*
X96041035Y-66390500D01*
X96041040Y-66390500D01*
X96050303Y-66388954D01*
X96061278Y-66387123D01*
X96063811Y-66386753D01*
X96113393Y-66380573D01*
X96113399Y-66380569D01*
X96120451Y-66378470D01*
X96127377Y-66376092D01*
X96127381Y-66376092D01*
X96156266Y-66360459D01*
X96171329Y-66352308D01*
X96173590Y-66351143D01*
X96218484Y-66329198D01*
X96218487Y-66329194D01*
X96224453Y-66324935D01*
X96230254Y-66320419D01*
X96230258Y-66320418D01*
X96264101Y-66283653D01*
X96265826Y-66281854D01*
X98761862Y-63785819D01*
X98823186Y-63752334D01*
X98849544Y-63749500D01*
X100460303Y-63749500D01*
X100527342Y-63769185D01*
X100554686Y-63796046D01*
X100554766Y-63795967D01*
X100563396Y-63804597D01*
X100563399Y-63804601D01*
X100646260Y-63859966D01*
X100646263Y-63859966D01*
X100646264Y-63859967D01*
X100719321Y-63874499D01*
X100719324Y-63874500D01*
X100719326Y-63874500D01*
X102019500Y-63874500D01*
X102086539Y-63894185D01*
X102132294Y-63946989D01*
X102143500Y-63998500D01*
X102143500Y-64749500D01*
X102123815Y-64816539D01*
X102071011Y-64862294D01*
X102019500Y-64873500D01*
X100719323Y-64873500D01*
X100646264Y-64888032D01*
X100646260Y-64888033D01*
X100563399Y-64943399D01*
X100508033Y-65026260D01*
X100508032Y-65026264D01*
X100493500Y-65099321D01*
X100493500Y-65598678D01*
X100508032Y-65671735D01*
X100508033Y-65671739D01*
X100508034Y-65671740D01*
X100563399Y-65754601D01*
X100615630Y-65789500D01*
X100646260Y-65809966D01*
X100646264Y-65809967D01*
X100719321Y-65824499D01*
X100719324Y-65824500D01*
X100719326Y-65824500D01*
X102218676Y-65824500D01*
X102218677Y-65824499D01*
X102291740Y-65809966D01*
X102303024Y-65805293D01*
X102303526Y-65806505D01*
X102357769Y-65789520D01*
X102359985Y-65789500D01*
X102520772Y-65789500D01*
X102527712Y-65789889D01*
X102557651Y-65793263D01*
X102565656Y-65794165D01*
X102565656Y-65794164D01*
X102565657Y-65794165D01*
X102621704Y-65783559D01*
X102623971Y-65783175D01*
X102680306Y-65774685D01*
X102688277Y-65772226D01*
X102696127Y-65769479D01*
X102696127Y-65769478D01*
X102696131Y-65769478D01*
X102746529Y-65742840D01*
X102748575Y-65741808D01*
X102799946Y-65717070D01*
X102799948Y-65717067D01*
X102806804Y-65712393D01*
X102813528Y-65707430D01*
X102813532Y-65707429D01*
X102853864Y-65667095D01*
X102855461Y-65665558D01*
X102889204Y-65634248D01*
X102892704Y-65631237D01*
X102910557Y-65617001D01*
X102942685Y-65569876D01*
X102943968Y-65568066D01*
X102977852Y-65522158D01*
X102977853Y-65522156D01*
X102981733Y-65514814D01*
X102985356Y-65507289D01*
X102985360Y-65507285D01*
X103002170Y-65452784D01*
X103002877Y-65450639D01*
X103012034Y-65424471D01*
X103021710Y-65396820D01*
X103021710Y-65396817D01*
X103023253Y-65388660D01*
X103024500Y-65380394D01*
X103024500Y-65323404D01*
X103024542Y-65321122D01*
X103026675Y-65264123D01*
X103026674Y-65264121D01*
X103025635Y-65254894D01*
X103026488Y-65254797D01*
X103024500Y-65239682D01*
X103024500Y-63877135D01*
X103044185Y-63810096D01*
X103096989Y-63764341D01*
X103166147Y-63754397D01*
X103178172Y-63756737D01*
X103295015Y-63785536D01*
X103452985Y-63785536D01*
X103606365Y-63747732D01*
X103686007Y-63705932D01*
X103746240Y-63674319D01*
X103864483Y-63569566D01*
X103885513Y-63539097D01*
X103939795Y-63495106D01*
X103987564Y-63485536D01*
X104003061Y-63485536D01*
X104070100Y-63505221D01*
X104115855Y-63558025D01*
X104125799Y-63627183D01*
X104119003Y-63653506D01*
X104109632Y-63678214D01*
X104109632Y-63678216D01*
X104090591Y-63835035D01*
X104090591Y-63835036D01*
X104109631Y-63991854D01*
X104112152Y-63998500D01*
X104165649Y-64139559D01*
X104255386Y-64269566D01*
X104373629Y-64374319D01*
X104373631Y-64374320D01*
X104438434Y-64408332D01*
X104488646Y-64456916D01*
X104504621Y-64524935D01*
X104496751Y-64562097D01*
X104479625Y-64607254D01*
X104460585Y-64764072D01*
X104460585Y-64764073D01*
X104479625Y-64920891D01*
X104534191Y-65064768D01*
X104535643Y-65068596D01*
X104625380Y-65198603D01*
X104743623Y-65303356D01*
X104743625Y-65303357D01*
X104883497Y-65376769D01*
X105036877Y-65414573D01*
X105126251Y-65414573D01*
X105193290Y-65434258D01*
X105239045Y-65487062D01*
X105249347Y-65523627D01*
X105253119Y-65554696D01*
X105253120Y-65554702D01*
X105303168Y-65686666D01*
X105309137Y-65702404D01*
X105398874Y-65832411D01*
X105517117Y-65937164D01*
X105517119Y-65937165D01*
X105656991Y-66010577D01*
X105810371Y-66048381D01*
X105810372Y-66048381D01*
X105968342Y-66048381D01*
X106121722Y-66010577D01*
X106161873Y-65989503D01*
X106230380Y-65975778D01*
X106295434Y-66001270D01*
X106336379Y-66057885D01*
X106343499Y-66099299D01*
X106343499Y-66248673D01*
X106353671Y-66299810D01*
X106353671Y-66348190D01*
X106343500Y-66399326D01*
X106343500Y-66898673D01*
X106353671Y-66949809D01*
X106353671Y-66998188D01*
X106343500Y-67049325D01*
X106343500Y-67548678D01*
X106358032Y-67621735D01*
X106358033Y-67621739D01*
X106358034Y-67621740D01*
X106413399Y-67704601D01*
X106488307Y-67754652D01*
X106496260Y-67759966D01*
X106496264Y-67759967D01*
X106569321Y-67774499D01*
X106569324Y-67774500D01*
X106569326Y-67774500D01*
X108068676Y-67774500D01*
X108068677Y-67774499D01*
X108141740Y-67759966D01*
X108224601Y-67704601D01*
X108224600Y-67704601D01*
X108234756Y-67697816D01*
X108236745Y-67700793D01*
X108279707Y-67677334D01*
X108306065Y-67674500D01*
X108861604Y-67674500D01*
X108928643Y-67694185D01*
X108974398Y-67746989D01*
X108977544Y-67754525D01*
X109020778Y-67868523D01*
X109110515Y-67998530D01*
X109228758Y-68103283D01*
X109228760Y-68103284D01*
X109368632Y-68176696D01*
X109522012Y-68214500D01*
X109522013Y-68214500D01*
X109679983Y-68214500D01*
X109833363Y-68176696D01*
X109833363Y-68176695D01*
X109973238Y-68103283D01*
X110091481Y-67998530D01*
X110181218Y-67868523D01*
X110237235Y-67720818D01*
X110256276Y-67564000D01*
X110237235Y-67407182D01*
X110181218Y-67259477D01*
X110181217Y-67259476D01*
X110180457Y-67257471D01*
X110175090Y-67187808D01*
X110208237Y-67126302D01*
X110269376Y-67092480D01*
X110296399Y-67089500D01*
X110452262Y-67089500D01*
X110519301Y-67109185D01*
X110539943Y-67125819D01*
X111066440Y-67652316D01*
X111071076Y-67657504D01*
X111094884Y-67687357D01*
X111141984Y-67719469D01*
X111143867Y-67720806D01*
X111189727Y-67754652D01*
X111189731Y-67754653D01*
X111197108Y-67758552D01*
X111204598Y-67762159D01*
X111204600Y-67762160D01*
X111232564Y-67770785D01*
X111259069Y-67778961D01*
X111261255Y-67779680D01*
X111315066Y-67798510D01*
X111315071Y-67798510D01*
X111323241Y-67800056D01*
X111331489Y-67801299D01*
X111331490Y-67801300D01*
X111388481Y-67801300D01*
X111390762Y-67801342D01*
X111447762Y-67803475D01*
X111456995Y-67802435D01*
X111457091Y-67803289D01*
X111472205Y-67801300D01*
X112385500Y-67801300D01*
X112452539Y-67820985D01*
X112498294Y-67873789D01*
X112509500Y-67925300D01*
X112509500Y-70122585D01*
X112489815Y-70189624D01*
X112437011Y-70235379D01*
X112367853Y-70245323D01*
X112327047Y-70231943D01*
X112163958Y-70144769D01*
X111976097Y-70087783D01*
X111965934Y-70084700D01*
X111965932Y-70084699D01*
X111965934Y-70084699D01*
X111760000Y-70064417D01*
X111554067Y-70084699D01*
X111356043Y-70144769D01*
X111337236Y-70154822D01*
X111173550Y-70242315D01*
X111173548Y-70242316D01*
X111173547Y-70242317D01*
X111013589Y-70373589D01*
X110882317Y-70533547D01*
X110784769Y-70716043D01*
X110724699Y-70914067D01*
X110704417Y-71120000D01*
X110724699Y-71325932D01*
X110740352Y-71377532D01*
X110780070Y-71508467D01*
X110786537Y-71529784D01*
X110784059Y-71530535D01*
X110790301Y-71588829D01*
X110758998Y-71651295D01*
X110698893Y-71686920D01*
X110629069Y-71684395D01*
X110580600Y-71654439D01*
X108840243Y-69914082D01*
X108835606Y-69908894D01*
X108811799Y-69879041D01*
X108764693Y-69846924D01*
X108762802Y-69845583D01*
X108716144Y-69811147D01*
X108673893Y-69755500D01*
X108668434Y-69685844D01*
X108701501Y-69624294D01*
X108760102Y-69590980D01*
X108779449Y-69586212D01*
X108919324Y-69512799D01*
X109037567Y-69408046D01*
X109127304Y-69278039D01*
X109183321Y-69130334D01*
X109202362Y-68973516D01*
X109202031Y-68970785D01*
X109183321Y-68816697D01*
X109162076Y-68760679D01*
X109127304Y-68668993D01*
X109037567Y-68538986D01*
X108919324Y-68434233D01*
X108919322Y-68434232D01*
X108919321Y-68434231D01*
X108779449Y-68360819D01*
X108626070Y-68323016D01*
X108626069Y-68323016D01*
X108468099Y-68323016D01*
X108468095Y-68323016D01*
X108465780Y-68323587D01*
X108464029Y-68323509D01*
X108460652Y-68323920D01*
X108460583Y-68323358D01*
X108395978Y-68320517D01*
X108359946Y-68301044D01*
X108343294Y-68288083D01*
X108343292Y-68288082D01*
X108336816Y-68284577D01*
X108330234Y-68281359D01*
X108282350Y-68267103D01*
X108279911Y-68266322D01*
X108232652Y-68250098D01*
X108225437Y-68248894D01*
X108218121Y-68247982D01*
X108169307Y-68250001D01*
X108168217Y-68250047D01*
X108165657Y-68250100D01*
X93662794Y-68250100D01*
X93605167Y-68235896D01*
X93577363Y-68221303D01*
X93423986Y-68183500D01*
X93423985Y-68183500D01*
X93266015Y-68183500D01*
X93266014Y-68183500D01*
X93112634Y-68221303D01*
X92972762Y-68294715D01*
X92854516Y-68399471D01*
X92764781Y-68529475D01*
X92764780Y-68529476D01*
X92708762Y-68677181D01*
X92689722Y-68833999D01*
X92689722Y-68834000D01*
X92708762Y-68990818D01*
X92747419Y-69092747D01*
X92764780Y-69138523D01*
X92854517Y-69268530D01*
X92972760Y-69373283D01*
X92972762Y-69373284D01*
X93112634Y-69446696D01*
X93266014Y-69484500D01*
X93266015Y-69484500D01*
X93423985Y-69484500D01*
X93577365Y-69446696D01*
X93669281Y-69398454D01*
X93717240Y-69373283D01*
X93835483Y-69268530D01*
X93925220Y-69138523D01*
X93965949Y-69031128D01*
X94008127Y-68975426D01*
X94073725Y-68951369D01*
X94081891Y-68951100D01*
X96414576Y-68951100D01*
X96481615Y-68970785D01*
X96527370Y-69023589D01*
X96537314Y-69092747D01*
X96508289Y-69156303D01*
X96502257Y-69162781D01*
X96445857Y-69219181D01*
X96384534Y-69252666D01*
X96358176Y-69255500D01*
X95759129Y-69255500D01*
X95759123Y-69255501D01*
X95699516Y-69261908D01*
X95564671Y-69312202D01*
X95564664Y-69312206D01*
X95449455Y-69398452D01*
X95449452Y-69398455D01*
X95363206Y-69513664D01*
X95363202Y-69513671D01*
X95312908Y-69648517D01*
X95306501Y-69708116D01*
X95306500Y-69708135D01*
X95306500Y-70753870D01*
X95306501Y-70753876D01*
X95312908Y-70813483D01*
X95363202Y-70948328D01*
X95363206Y-70948335D01*
X95449452Y-71063544D01*
X95449455Y-71063547D01*
X95564664Y-71149793D01*
X95564671Y-71149797D01*
X95595065Y-71161133D01*
X95699517Y-71200091D01*
X95759127Y-71206500D01*
X95913175Y-71206499D01*
X95980215Y-71226183D01*
X96000857Y-71242818D01*
X96546080Y-71788041D01*
X96579565Y-71849364D01*
X96580016Y-71899913D01*
X96568000Y-71960321D01*
X96568000Y-72439678D01*
X96582532Y-72512735D01*
X96582533Y-72512739D01*
X96582534Y-72512740D01*
X96637899Y-72595601D01*
X96720760Y-72650965D01*
X96720760Y-72650966D01*
X96720764Y-72650967D01*
X96793821Y-72665499D01*
X96793824Y-72665500D01*
X96793826Y-72665500D01*
X98368176Y-72665500D01*
X98368177Y-72665499D01*
X98441240Y-72650966D01*
X98524101Y-72595601D01*
X98579466Y-72512740D01*
X98594000Y-72439674D01*
X98594000Y-71960326D01*
X98594000Y-71960323D01*
X98593999Y-71960321D01*
X98579467Y-71887264D01*
X98579466Y-71887260D01*
X98569663Y-71872589D01*
X98524101Y-71804399D01*
X98441240Y-71749034D01*
X98441239Y-71749033D01*
X98441235Y-71749032D01*
X98368177Y-71734500D01*
X98368174Y-71734500D01*
X97789824Y-71734500D01*
X97722785Y-71714815D01*
X97702143Y-71698181D01*
X96843818Y-70839857D01*
X96810333Y-70778534D01*
X96807499Y-70752185D01*
X96807499Y-70154821D01*
X96827184Y-70087783D01*
X96843813Y-70067146D01*
X97343541Y-69567419D01*
X97404865Y-69533934D01*
X97431223Y-69531100D01*
X104639577Y-69531100D01*
X104706616Y-69550785D01*
X104727258Y-69567419D01*
X105201581Y-70041742D01*
X105235066Y-70103065D01*
X105237900Y-70129423D01*
X105237900Y-70514428D01*
X105218215Y-70581467D01*
X105165411Y-70627222D01*
X105096253Y-70637166D01*
X105084226Y-70634825D01*
X105031786Y-70621900D01*
X105031785Y-70621900D01*
X104873815Y-70621900D01*
X104873814Y-70621900D01*
X104720434Y-70659703D01*
X104580562Y-70733115D01*
X104462315Y-70837871D01*
X104441287Y-70868338D01*
X104387005Y-70912330D01*
X104339236Y-70921900D01*
X102785812Y-70921900D01*
X102760366Y-70919261D01*
X102751286Y-70917357D01*
X102751285Y-70917357D01*
X102751283Y-70917357D01*
X102718662Y-70921423D01*
X102710986Y-70921900D01*
X102707560Y-70921900D01*
X102687333Y-70925275D01*
X102684800Y-70925644D01*
X102635211Y-70931825D01*
X102628147Y-70933928D01*
X102621219Y-70936307D01*
X102577279Y-70960085D01*
X102575003Y-70961256D01*
X102530116Y-70983201D01*
X102524164Y-70987449D01*
X102518339Y-70991983D01*
X102484513Y-71028729D01*
X102482739Y-71030577D01*
X101815137Y-71698181D01*
X101753814Y-71731666D01*
X101727456Y-71734500D01*
X101021823Y-71734500D01*
X100948764Y-71749032D01*
X100948760Y-71749033D01*
X100865899Y-71804399D01*
X100810533Y-71887260D01*
X100810532Y-71887264D01*
X100796000Y-71960321D01*
X100796000Y-71960325D01*
X100796000Y-71960326D01*
X100796000Y-72439674D01*
X100796001Y-72439678D01*
X100806569Y-72492810D01*
X100806569Y-72541190D01*
X100796000Y-72594326D01*
X100796000Y-73073673D01*
X100806768Y-73127810D01*
X100806768Y-73176190D01*
X100796000Y-73230326D01*
X100796000Y-73709673D01*
X100806569Y-73762810D01*
X100806569Y-73811190D01*
X100796000Y-73864326D01*
X100796000Y-74064931D01*
X100776315Y-74131970D01*
X100723511Y-74177725D01*
X100654353Y-74187669D01*
X100642328Y-74185328D01*
X100612190Y-74177900D01*
X100612185Y-74177900D01*
X100454215Y-74177900D01*
X100454214Y-74177900D01*
X100300834Y-74215703D01*
X100160962Y-74289115D01*
X100042716Y-74393871D01*
X99952981Y-74523875D01*
X99952980Y-74523876D01*
X99896962Y-74671581D01*
X99877922Y-74828399D01*
X99877922Y-74828400D01*
X99896962Y-74985218D01*
X99951996Y-75130329D01*
X99952980Y-75132923D01*
X100042717Y-75262930D01*
X100160960Y-75367683D01*
X100160962Y-75367684D01*
X100300834Y-75441096D01*
X100454214Y-75478900D01*
X100454215Y-75478900D01*
X100612185Y-75478900D01*
X100642326Y-75471471D01*
X100712127Y-75474540D01*
X100769189Y-75514860D01*
X100795395Y-75579629D01*
X100796000Y-75591868D01*
X100796000Y-75613673D01*
X100806768Y-75667810D01*
X100806768Y-75716190D01*
X100796000Y-75770326D01*
X100796000Y-76249678D01*
X100810532Y-76322735D01*
X100810533Y-76322739D01*
X100810534Y-76322740D01*
X100865899Y-76405601D01*
X100948760Y-76460965D01*
X100948760Y-76460966D01*
X100948764Y-76460967D01*
X101021821Y-76475499D01*
X101021824Y-76475500D01*
X101021826Y-76475500D01*
X102596176Y-76475500D01*
X102596177Y-76475499D01*
X102669240Y-76460966D01*
X102752101Y-76405601D01*
X102752103Y-76405597D01*
X102760737Y-76396965D01*
X102763900Y-76400128D01*
X102799266Y-76370700D01*
X102848516Y-76360500D01*
X103448656Y-76360500D01*
X103515695Y-76380185D01*
X103536337Y-76396819D01*
X103764109Y-76624591D01*
X103797594Y-76685914D01*
X103799524Y-76727217D01*
X103789522Y-76809599D01*
X103789522Y-76809600D01*
X103808562Y-76966418D01*
X103850760Y-77077682D01*
X103864580Y-77114123D01*
X103954317Y-77244130D01*
X104072560Y-77348883D01*
X104072562Y-77348884D01*
X104212434Y-77422296D01*
X104365814Y-77460100D01*
X104365815Y-77460100D01*
X104523785Y-77460100D01*
X104677165Y-77422296D01*
X104729035Y-77395072D01*
X104817040Y-77348883D01*
X104935283Y-77244130D01*
X105025020Y-77114123D01*
X105025019Y-77114123D01*
X105029281Y-77107950D01*
X105032018Y-77109839D01*
X105070149Y-77070356D01*
X105138153Y-77054317D01*
X105204033Y-77077589D01*
X105246873Y-77132784D01*
X105247406Y-77134165D01*
X105258141Y-77162470D01*
X105286980Y-77238513D01*
X105376717Y-77368520D01*
X105494960Y-77473273D01*
X105498441Y-77475100D01*
X105634834Y-77546686D01*
X105788214Y-77584490D01*
X105788215Y-77584490D01*
X105946185Y-77584490D01*
X106099565Y-77546686D01*
X106181499Y-77503683D01*
X106239440Y-77473273D01*
X106357683Y-77368520D01*
X106360894Y-77363867D01*
X106415175Y-77319877D01*
X106484624Y-77312216D01*
X106547189Y-77343318D01*
X106583008Y-77403308D01*
X106586041Y-77449251D01*
X106583522Y-77469998D01*
X106583522Y-77470000D01*
X106602562Y-77626818D01*
X106650728Y-77753818D01*
X106658580Y-77774523D01*
X106748317Y-77904530D01*
X106866560Y-78009283D01*
X106866562Y-78009284D01*
X107006434Y-78082696D01*
X107159814Y-78120500D01*
X107159815Y-78120500D01*
X107317785Y-78120500D01*
X107471165Y-78082696D01*
X107471164Y-78082695D01*
X107611040Y-78009283D01*
X107729283Y-77904530D01*
X107819020Y-77774523D01*
X107875037Y-77626818D01*
X107894078Y-77470000D01*
X107875037Y-77313182D01*
X107861494Y-77277471D01*
X107856127Y-77207808D01*
X107889275Y-77146302D01*
X107950413Y-77112480D01*
X107977436Y-77109500D01*
X108020176Y-77109500D01*
X108020177Y-77109499D01*
X108093240Y-77094966D01*
X108176101Y-77039601D01*
X108231466Y-76956740D01*
X108246000Y-76883674D01*
X108246000Y-76404326D01*
X108246000Y-76404323D01*
X108235431Y-76351192D01*
X108235431Y-76302808D01*
X108246000Y-76249676D01*
X108246000Y-75770326D01*
X108241315Y-75746775D01*
X108235230Y-75716187D01*
X108235231Y-75667810D01*
X108246000Y-75613674D01*
X108246000Y-75214499D01*
X108265685Y-75147461D01*
X108318489Y-75101706D01*
X108370000Y-75090500D01*
X109053119Y-75090500D01*
X109120158Y-75110185D01*
X109155169Y-75144060D01*
X109226317Y-75247136D01*
X109344560Y-75351889D01*
X109344562Y-75351890D01*
X109484434Y-75425302D01*
X109637814Y-75463106D01*
X109637815Y-75463106D01*
X109795785Y-75463106D01*
X109949165Y-75425302D01*
X109949824Y-75424956D01*
X110089040Y-75351889D01*
X110207283Y-75247136D01*
X110297020Y-75117129D01*
X110353037Y-74969424D01*
X110372078Y-74812606D01*
X110369084Y-74787943D01*
X110353037Y-74655787D01*
X110316259Y-74558813D01*
X110297020Y-74508083D01*
X110207283Y-74378076D01*
X110207281Y-74378073D01*
X110202309Y-74372461D01*
X110204504Y-74370516D01*
X110174571Y-74322815D01*
X110175325Y-74252950D01*
X110211689Y-74196352D01*
X110269283Y-74145330D01*
X110359020Y-74015323D01*
X110415037Y-73867618D01*
X110434078Y-73710800D01*
X110433198Y-73703548D01*
X110415037Y-73553981D01*
X110368780Y-73432013D01*
X110359020Y-73406277D01*
X110269283Y-73276270D01*
X110151040Y-73171517D01*
X110151038Y-73171516D01*
X110151037Y-73171515D01*
X110011165Y-73098103D01*
X109857786Y-73060300D01*
X109857785Y-73060300D01*
X109739787Y-73060300D01*
X109672748Y-73040615D01*
X109626993Y-72987811D01*
X109616691Y-72921353D01*
X109617325Y-72916134D01*
X109620419Y-72890653D01*
X109601378Y-72733835D01*
X109600320Y-72731046D01*
X109569950Y-72650966D01*
X109545361Y-72586130D01*
X109455624Y-72456123D01*
X109337381Y-72351370D01*
X109337379Y-72351369D01*
X109337378Y-72351368D01*
X109197506Y-72277956D01*
X109044127Y-72240153D01*
X109044126Y-72240153D01*
X108886156Y-72240153D01*
X108886155Y-72240153D01*
X108732775Y-72277956D01*
X108592903Y-72351368D01*
X108474655Y-72456125D01*
X108472048Y-72459903D01*
X108417765Y-72503892D01*
X108348316Y-72511550D01*
X108285752Y-72480446D01*
X108249936Y-72420454D01*
X108246000Y-72389461D01*
X108246000Y-71960323D01*
X108245999Y-71960321D01*
X108231467Y-71887264D01*
X108231466Y-71887260D01*
X108221663Y-71872589D01*
X108176101Y-71804399D01*
X108093240Y-71749034D01*
X108093239Y-71749033D01*
X108093235Y-71749032D01*
X108020177Y-71734500D01*
X108020174Y-71734500D01*
X107797500Y-71734500D01*
X107730461Y-71714815D01*
X107684706Y-71662011D01*
X107673500Y-71610500D01*
X107673500Y-71478428D01*
X107673890Y-71471480D01*
X107674001Y-71470500D01*
X107678165Y-71433543D01*
X107667564Y-71377521D01*
X107667177Y-71375242D01*
X107659656Y-71325340D01*
X107658685Y-71318894D01*
X107656238Y-71310963D01*
X107653477Y-71303072D01*
X107653477Y-71303069D01*
X107626848Y-71252685D01*
X107625824Y-71250657D01*
X107607700Y-71213022D01*
X107601068Y-71199249D01*
X107596408Y-71192415D01*
X107591427Y-71185665D01*
X107551147Y-71145386D01*
X107549539Y-71143716D01*
X107510751Y-71101914D01*
X107503482Y-71096117D01*
X107504017Y-71095445D01*
X107491926Y-71086165D01*
X107263542Y-70857781D01*
X107230057Y-70796458D01*
X107235041Y-70726766D01*
X107276913Y-70670833D01*
X107342377Y-70646416D01*
X107351223Y-70646100D01*
X108274977Y-70646100D01*
X108342016Y-70665785D01*
X108362658Y-70682419D01*
X110441755Y-72761516D01*
X110446391Y-72766704D01*
X110470199Y-72796557D01*
X110502820Y-72818798D01*
X110517299Y-72828669D01*
X110519182Y-72830006D01*
X110565042Y-72863852D01*
X110565046Y-72863853D01*
X110572423Y-72867752D01*
X110579913Y-72871359D01*
X110579915Y-72871360D01*
X110607879Y-72879985D01*
X110634384Y-72888161D01*
X110636570Y-72888880D01*
X110690381Y-72907710D01*
X110690386Y-72907710D01*
X110698556Y-72909256D01*
X110706804Y-72910499D01*
X110706805Y-72910500D01*
X110762586Y-72910500D01*
X110829625Y-72930185D01*
X110875380Y-72982989D01*
X110885324Y-73052147D01*
X110871945Y-73092950D01*
X110837571Y-73157260D01*
X110784769Y-73256043D01*
X110724699Y-73454067D01*
X110704417Y-73660000D01*
X110724699Y-73865932D01*
X110740625Y-73918432D01*
X110784768Y-74063954D01*
X110882315Y-74246450D01*
X110909162Y-74279163D01*
X111013589Y-74406410D01*
X111110209Y-74485702D01*
X111173550Y-74537685D01*
X111356046Y-74635232D01*
X111554066Y-74695300D01*
X111554065Y-74695300D01*
X111572529Y-74697118D01*
X111760000Y-74715583D01*
X111965934Y-74695300D01*
X112163954Y-74635232D01*
X112327048Y-74548055D01*
X112395447Y-74533814D01*
X112460691Y-74558813D01*
X112502062Y-74615118D01*
X112509499Y-74657414D01*
X112509499Y-75202585D01*
X112489814Y-75269624D01*
X112437010Y-75315379D01*
X112367852Y-75325323D01*
X112327046Y-75311943D01*
X112163954Y-75224768D01*
X111965934Y-75164700D01*
X111965932Y-75164699D01*
X111965934Y-75164699D01*
X111760000Y-75144417D01*
X111554067Y-75164699D01*
X111389895Y-75214500D01*
X111363609Y-75222474D01*
X111356043Y-75224769D01*
X111278952Y-75265976D01*
X111173550Y-75322315D01*
X111173548Y-75322316D01*
X111173547Y-75322317D01*
X111013589Y-75453589D01*
X110882317Y-75613547D01*
X110882315Y-75613550D01*
X110849083Y-75675722D01*
X110784769Y-75796043D01*
X110724699Y-75994067D01*
X110704417Y-76199999D01*
X110724699Y-76405932D01*
X110741394Y-76460967D01*
X110784768Y-76603954D01*
X110882315Y-76786450D01*
X110902775Y-76811381D01*
X111013589Y-76946410D01*
X111099362Y-77016801D01*
X111173550Y-77077685D01*
X111356046Y-77175232D01*
X111554066Y-77235300D01*
X111554065Y-77235300D01*
X111574347Y-77237297D01*
X111760000Y-77255583D01*
X111965934Y-77235300D01*
X112163954Y-77175232D01*
X112327048Y-77088055D01*
X112395447Y-77073814D01*
X112460691Y-77098813D01*
X112502062Y-77155118D01*
X112509499Y-77197414D01*
X112509499Y-77742585D01*
X112489814Y-77809624D01*
X112437010Y-77855379D01*
X112367852Y-77865323D01*
X112327046Y-77851943D01*
X112163954Y-77764768D01*
X111965934Y-77704700D01*
X111965932Y-77704699D01*
X111965934Y-77704699D01*
X111778463Y-77686235D01*
X111760000Y-77684417D01*
X111759999Y-77684417D01*
X111554067Y-77704699D01*
X111356043Y-77764769D01*
X111272127Y-77809624D01*
X111173550Y-77862315D01*
X111173548Y-77862316D01*
X111173547Y-77862317D01*
X111013589Y-77993589D01*
X110890208Y-78143932D01*
X110882315Y-78153550D01*
X110859288Y-78196631D01*
X110784769Y-78336043D01*
X110724699Y-78534067D01*
X110704417Y-78739999D01*
X110724699Y-78945932D01*
X110735799Y-78982524D01*
X110784768Y-79143954D01*
X110882315Y-79326450D01*
X110882317Y-79326452D01*
X111013589Y-79486410D01*
X111069060Y-79531933D01*
X111173550Y-79617685D01*
X111356046Y-79715232D01*
X111554066Y-79775300D01*
X111554065Y-79775300D01*
X111572529Y-79777118D01*
X111760000Y-79795583D01*
X111965934Y-79775300D01*
X112163954Y-79715232D01*
X112327048Y-79628055D01*
X112395447Y-79613814D01*
X112460691Y-79638813D01*
X112502062Y-79695118D01*
X112509499Y-79737414D01*
X112509499Y-80282585D01*
X112489814Y-80349624D01*
X112437010Y-80395379D01*
X112367852Y-80405323D01*
X112327046Y-80391943D01*
X112163954Y-80304768D01*
X111965934Y-80244700D01*
X111965932Y-80244699D01*
X111965934Y-80244699D01*
X111760000Y-80224417D01*
X111554067Y-80244699D01*
X111356043Y-80304769D01*
X111272127Y-80349624D01*
X111173550Y-80402315D01*
X111173548Y-80402316D01*
X111173547Y-80402317D01*
X111013589Y-80533589D01*
X110882317Y-80693547D01*
X110882315Y-80693550D01*
X110862424Y-80730764D01*
X110784769Y-80876043D01*
X110724699Y-81074067D01*
X110704417Y-81280000D01*
X110724699Y-81485932D01*
X110724700Y-81485934D01*
X110784768Y-81683954D01*
X110882315Y-81866450D01*
X110882317Y-81866452D01*
X111013589Y-82026410D01*
X111091901Y-82090678D01*
X111173550Y-82157685D01*
X111356046Y-82255232D01*
X111554066Y-82315300D01*
X111554065Y-82315300D01*
X111572529Y-82317118D01*
X111760000Y-82335583D01*
X111965934Y-82315300D01*
X112163954Y-82255232D01*
X112327048Y-82168055D01*
X112395447Y-82153814D01*
X112460691Y-82178813D01*
X112502062Y-82235118D01*
X112509499Y-82277414D01*
X112509499Y-82822585D01*
X112489814Y-82889624D01*
X112437010Y-82935379D01*
X112367852Y-82945323D01*
X112327046Y-82931943D01*
X112163954Y-82844768D01*
X111965934Y-82784700D01*
X111965932Y-82784699D01*
X111965934Y-82784699D01*
X111760000Y-82764417D01*
X111554067Y-82784699D01*
X111356043Y-82844769D01*
X111285268Y-82882600D01*
X111173550Y-82942315D01*
X111173548Y-82942316D01*
X111173547Y-82942317D01*
X111013589Y-83073589D01*
X110883875Y-83231649D01*
X110882315Y-83233550D01*
X110870928Y-83254853D01*
X110784769Y-83416043D01*
X110724699Y-83614067D01*
X110704417Y-83820000D01*
X110724699Y-84025932D01*
X110731942Y-84049808D01*
X110784768Y-84223954D01*
X110871944Y-84387048D01*
X110886186Y-84455449D01*
X110861186Y-84520693D01*
X110804882Y-84562064D01*
X110762586Y-84569500D01*
X109272223Y-84569500D01*
X109205184Y-84549815D01*
X109184542Y-84533181D01*
X109058348Y-84406987D01*
X109024863Y-84345664D01*
X109029847Y-84275972D01*
X109071719Y-84220039D01*
X109116353Y-84198909D01*
X109198365Y-84178696D01*
X109338240Y-84105283D01*
X109456483Y-84000530D01*
X109546220Y-83870523D01*
X109602237Y-83722818D01*
X109621278Y-83566000D01*
X109602237Y-83409182D01*
X109597245Y-83396019D01*
X109591876Y-83326356D01*
X109625023Y-83264850D01*
X109683512Y-83231649D01*
X109757165Y-83213496D01*
X109897040Y-83140083D01*
X110015283Y-83035330D01*
X110105020Y-82905323D01*
X110161037Y-82757618D01*
X110180078Y-82600800D01*
X110169814Y-82516263D01*
X110161037Y-82443981D01*
X110139792Y-82387963D01*
X110105020Y-82296277D01*
X110015283Y-82166270D01*
X110015281Y-82166268D01*
X109991181Y-82144917D01*
X109954054Y-82085728D01*
X109954822Y-82015863D01*
X109993239Y-81957503D01*
X110015779Y-81942307D01*
X110057240Y-81920547D01*
X110175483Y-81815794D01*
X110265220Y-81685787D01*
X110321237Y-81538082D01*
X110340278Y-81381264D01*
X110327983Y-81280000D01*
X110321237Y-81224445D01*
X110281139Y-81118717D01*
X110265220Y-81076741D01*
X110175483Y-80946734D01*
X110057240Y-80841981D01*
X110057238Y-80841980D01*
X110057237Y-80841979D01*
X109917365Y-80768567D01*
X109763986Y-80730764D01*
X109763985Y-80730764D01*
X109606015Y-80730764D01*
X109606014Y-80730764D01*
X109452634Y-80768567D01*
X109312762Y-80841979D01*
X109194516Y-80946735D01*
X109104781Y-81076739D01*
X109104780Y-81076740D01*
X109048763Y-81224445D01*
X109028818Y-81388710D01*
X109026229Y-81388395D01*
X109010037Y-81443539D01*
X108957233Y-81489294D01*
X108905722Y-81500500D01*
X106207016Y-81500500D01*
X106139977Y-81480815D01*
X106121029Y-81462242D01*
X106119237Y-81464035D01*
X106110603Y-81455401D01*
X106110601Y-81455400D01*
X106110601Y-81455399D01*
X106027740Y-81400034D01*
X106027739Y-81400033D01*
X106027735Y-81400032D01*
X105954677Y-81385500D01*
X105954674Y-81385500D01*
X104105326Y-81385500D01*
X104105323Y-81385500D01*
X104032264Y-81400032D01*
X104032260Y-81400033D01*
X103949399Y-81455399D01*
X103894033Y-81538260D01*
X103894032Y-81538264D01*
X103879500Y-81611321D01*
X103879500Y-82090678D01*
X103890267Y-82144808D01*
X103890268Y-82193189D01*
X103879499Y-82247326D01*
X103879500Y-82726676D01*
X103879500Y-82726678D01*
X103894032Y-82799735D01*
X103894033Y-82799739D01*
X103908965Y-82822086D01*
X103949399Y-82882601D01*
X104032260Y-82937966D01*
X104032264Y-82937967D01*
X104105321Y-82952499D01*
X104105324Y-82952500D01*
X104105326Y-82952500D01*
X105954676Y-82952500D01*
X105954677Y-82952499D01*
X106027740Y-82937966D01*
X106110601Y-82882601D01*
X106110603Y-82882597D01*
X106119237Y-82873965D01*
X106122400Y-82877128D01*
X106157766Y-82847700D01*
X106207016Y-82837500D01*
X108480380Y-82837500D01*
X108547419Y-82857185D01*
X108593174Y-82909989D01*
X108603118Y-82979147D01*
X108574093Y-83042703D01*
X108562607Y-83054316D01*
X108475515Y-83131471D01*
X108454487Y-83161938D01*
X108400205Y-83205930D01*
X108352436Y-83215500D01*
X106729211Y-83215500D01*
X106703765Y-83212861D01*
X106694685Y-83210957D01*
X106694684Y-83210957D01*
X106694682Y-83210957D01*
X106662061Y-83215023D01*
X106654385Y-83215500D01*
X106650960Y-83215500D01*
X106645754Y-83216368D01*
X106630700Y-83218879D01*
X106628171Y-83219247D01*
X106578608Y-83225426D01*
X106571570Y-83227521D01*
X106564617Y-83229908D01*
X106520687Y-83253682D01*
X106518411Y-83254853D01*
X106473513Y-83276803D01*
X106467566Y-83281048D01*
X106461741Y-83285582D01*
X106427924Y-83322316D01*
X106426151Y-83324164D01*
X106380138Y-83370179D01*
X106318816Y-83403666D01*
X106292455Y-83406500D01*
X106207016Y-83406500D01*
X106139977Y-83386815D01*
X106121029Y-83368242D01*
X106119237Y-83370035D01*
X106110603Y-83361401D01*
X106110601Y-83361400D01*
X106110601Y-83361399D01*
X106027740Y-83306034D01*
X106027739Y-83306033D01*
X106027735Y-83306032D01*
X105954677Y-83291500D01*
X105954674Y-83291500D01*
X104105326Y-83291500D01*
X104105323Y-83291500D01*
X104032264Y-83306032D01*
X104032260Y-83306034D01*
X103950560Y-83360623D01*
X103883882Y-83381500D01*
X103816502Y-83363015D01*
X103799443Y-83350336D01*
X103685860Y-83249711D01*
X103685858Y-83249710D01*
X103685857Y-83249709D01*
X103545985Y-83176297D01*
X103392606Y-83138494D01*
X103392605Y-83138494D01*
X103234635Y-83138494D01*
X103234634Y-83138494D01*
X103081254Y-83176297D01*
X102941382Y-83249709D01*
X102894209Y-83291500D01*
X102858343Y-83323275D01*
X102823136Y-83354465D01*
X102733401Y-83484469D01*
X102733400Y-83484470D01*
X102677382Y-83632175D01*
X102658342Y-83788993D01*
X102658342Y-83788994D01*
X102677382Y-83945812D01*
X102713436Y-84040876D01*
X102718803Y-84110539D01*
X102685656Y-84172045D01*
X102624517Y-84205867D01*
X102597494Y-84208847D01*
X97094271Y-84208847D01*
X97087332Y-84208457D01*
X97075020Y-84207070D01*
X97049388Y-84204181D01*
X96993376Y-84214779D01*
X96991091Y-84215167D01*
X96934735Y-84223661D01*
X96934310Y-84223793D01*
X96933821Y-84223799D01*
X96925553Y-84225046D01*
X96925382Y-84223913D01*
X96864447Y-84224736D01*
X96805165Y-84187758D01*
X96776156Y-84129489D01*
X96769930Y-84098188D01*
X96769931Y-84049808D01*
X96780500Y-83996676D01*
X96780500Y-83517323D01*
X96780499Y-83517321D01*
X96765967Y-83444264D01*
X96765966Y-83444260D01*
X96750579Y-83421231D01*
X96710601Y-83361399D01*
X96627740Y-83306034D01*
X96627739Y-83306033D01*
X96627735Y-83306032D01*
X96554677Y-83291500D01*
X96554674Y-83291500D01*
X94705326Y-83291500D01*
X94705323Y-83291500D01*
X94632264Y-83306032D01*
X94632260Y-83306033D01*
X94550560Y-83360623D01*
X94549399Y-83361399D01*
X94509925Y-83420478D01*
X94487249Y-83454415D01*
X94484149Y-83452343D01*
X94453759Y-83490059D01*
X94387465Y-83512126D01*
X94383036Y-83512205D01*
X93144455Y-83512205D01*
X93077416Y-83492520D01*
X93056774Y-83475886D01*
X92950896Y-83370008D01*
X92917411Y-83308685D01*
X92915481Y-83267384D01*
X92925485Y-83185000D01*
X92912767Y-83080259D01*
X92924227Y-83011337D01*
X92971131Y-82959551D01*
X93035863Y-82941314D01*
X93049208Y-82941314D01*
X93202588Y-82903510D01*
X93342456Y-82830101D01*
X93342457Y-82830099D01*
X93342463Y-82830097D01*
X93351506Y-82822085D01*
X93414738Y-82792365D01*
X93433732Y-82790902D01*
X94421849Y-82790902D01*
X94488888Y-82810587D01*
X94524950Y-82846010D01*
X94549399Y-82882601D01*
X94632260Y-82937966D01*
X94632264Y-82937967D01*
X94705321Y-82952499D01*
X94705324Y-82952500D01*
X94705326Y-82952500D01*
X96554676Y-82952500D01*
X96554677Y-82952499D01*
X96627740Y-82937966D01*
X96710601Y-82882601D01*
X96765966Y-82799740D01*
X96780500Y-82726674D01*
X96780500Y-82247326D01*
X96780499Y-82247326D01*
X96780500Y-82247323D01*
X96769732Y-82193191D01*
X96769732Y-82144806D01*
X96771883Y-82133996D01*
X96780500Y-82090674D01*
X96780500Y-81611326D01*
X96780499Y-81611325D01*
X96780500Y-81611323D01*
X96769931Y-81558192D01*
X96769931Y-81509808D01*
X96780500Y-81456676D01*
X96780500Y-80977323D01*
X96780499Y-80977321D01*
X96765967Y-80904264D01*
X96765966Y-80904260D01*
X96747112Y-80876043D01*
X96710601Y-80821399D01*
X96655234Y-80784405D01*
X96627739Y-80766033D01*
X96627735Y-80766032D01*
X96580955Y-80756727D01*
X96522518Y-80726159D01*
X96520450Y-80728770D01*
X96454340Y-80751380D01*
X96448893Y-80751500D01*
X95026544Y-80751500D01*
X94959505Y-80731815D01*
X94938863Y-80715181D01*
X91884184Y-77660502D01*
X92880224Y-77660502D01*
X92899264Y-77817320D01*
X92944008Y-77935298D01*
X92955282Y-77965025D01*
X93045019Y-78095032D01*
X93163262Y-78199785D01*
X93163264Y-78199786D01*
X93303136Y-78273198D01*
X93456516Y-78311002D01*
X93456517Y-78311002D01*
X93614487Y-78311002D01*
X93767867Y-78273198D01*
X93907742Y-78199785D01*
X93910258Y-78198049D01*
X93912390Y-78197345D01*
X93914383Y-78196300D01*
X93914556Y-78196631D01*
X93976612Y-78176167D01*
X93980696Y-78176100D01*
X95816017Y-78176100D01*
X95883056Y-78195785D01*
X95928811Y-78248589D01*
X95938755Y-78317747D01*
X95918067Y-78370540D01*
X95838181Y-78486275D01*
X95838180Y-78486276D01*
X95782162Y-78633981D01*
X95763122Y-78790799D01*
X95763122Y-78790800D01*
X95782162Y-78947618D01*
X95799753Y-78994000D01*
X95838180Y-79095323D01*
X95849992Y-79112436D01*
X95927917Y-79225331D01*
X95979449Y-79270983D01*
X96028114Y-79314096D01*
X96065240Y-79373283D01*
X96064474Y-79443148D01*
X96047938Y-79477349D01*
X95993590Y-79556086D01*
X95937572Y-79703791D01*
X95918532Y-79860609D01*
X95918532Y-79860610D01*
X95937572Y-80017428D01*
X95984448Y-80141028D01*
X95993590Y-80165133D01*
X96083327Y-80295140D01*
X96201570Y-80399893D01*
X96211916Y-80405323D01*
X96341444Y-80473306D01*
X96478567Y-80507103D01*
X96529766Y-80536913D01*
X96594094Y-80511604D01*
X96605146Y-80511110D01*
X96652795Y-80511110D01*
X96806175Y-80473306D01*
X96806174Y-80473306D01*
X96946050Y-80399893D01*
X97064293Y-80295140D01*
X97085323Y-80264671D01*
X97139605Y-80220680D01*
X97187374Y-80211110D01*
X104951379Y-80211110D01*
X104976824Y-80213748D01*
X104985905Y-80215653D01*
X105001595Y-80213697D01*
X105018529Y-80211587D01*
X105026205Y-80211110D01*
X105029625Y-80211110D01*
X105029630Y-80211110D01*
X105038893Y-80209564D01*
X105049868Y-80207733D01*
X105052401Y-80207363D01*
X105101983Y-80201183D01*
X105101989Y-80201179D01*
X105109041Y-80199080D01*
X105115967Y-80196702D01*
X105115971Y-80196702D01*
X105144856Y-80181069D01*
X105159919Y-80172918D01*
X105162180Y-80171753D01*
X105207074Y-80149808D01*
X105207077Y-80149804D01*
X105213043Y-80145545D01*
X105218844Y-80141029D01*
X105218848Y-80141028D01*
X105252691Y-80104263D01*
X105254416Y-80102464D01*
X105677925Y-79678955D01*
X105739246Y-79645472D01*
X105780471Y-79646039D01*
X105780768Y-79643596D01*
X105788214Y-79644500D01*
X105788215Y-79644500D01*
X105946185Y-79644500D01*
X106099565Y-79606696D01*
X106099564Y-79606696D01*
X106239440Y-79533283D01*
X106357683Y-79428530D01*
X106447420Y-79298523D01*
X106503437Y-79150818D01*
X106522478Y-78994000D01*
X106503437Y-78837182D01*
X106447420Y-78689477D01*
X106357683Y-78559470D01*
X106239440Y-78454717D01*
X106239438Y-78454716D01*
X106239437Y-78454715D01*
X106099565Y-78381303D01*
X105946186Y-78343500D01*
X105946185Y-78343500D01*
X105788215Y-78343500D01*
X105788214Y-78343500D01*
X105649731Y-78377632D01*
X105579929Y-78374563D01*
X105522867Y-78334242D01*
X105504116Y-78301208D01*
X105482220Y-78243471D01*
X105392483Y-78113464D01*
X105274240Y-78008711D01*
X105274238Y-78008710D01*
X105274237Y-78008709D01*
X105134365Y-77935297D01*
X104980986Y-77897494D01*
X104980985Y-77897494D01*
X104823015Y-77897494D01*
X104823014Y-77897494D01*
X104669634Y-77935297D01*
X104529762Y-78008709D01*
X104411515Y-78113465D01*
X104390487Y-78143932D01*
X104336205Y-78187924D01*
X104288436Y-78197494D01*
X101196188Y-78197494D01*
X101129149Y-78177809D01*
X101083394Y-78125005D01*
X101073450Y-78055847D01*
X101094138Y-78003054D01*
X101098072Y-77997355D01*
X101164220Y-77901523D01*
X101220237Y-77753818D01*
X101239278Y-77597000D01*
X101227948Y-77503684D01*
X101220237Y-77440181D01*
X101172072Y-77313182D01*
X101164220Y-77292477D01*
X101074483Y-77162470D01*
X100956240Y-77057717D01*
X100956238Y-77057716D01*
X100956237Y-77057715D01*
X100816365Y-76984303D01*
X100662986Y-76946500D01*
X100662985Y-76946500D01*
X100505015Y-76946500D01*
X100505014Y-76946500D01*
X100351634Y-76984303D01*
X100211762Y-77057715D01*
X100093516Y-77162471D01*
X100003781Y-77292474D01*
X99964871Y-77395072D01*
X99922693Y-77450774D01*
X99857095Y-77474831D01*
X99848929Y-77475100D01*
X94246490Y-77475100D01*
X94179451Y-77455415D01*
X94133696Y-77402611D01*
X94130549Y-77395073D01*
X94115722Y-77355980D01*
X94115722Y-77355979D01*
X94025985Y-77225972D01*
X93907742Y-77121219D01*
X93907740Y-77121218D01*
X93907739Y-77121217D01*
X93767867Y-77047805D01*
X93614488Y-77010002D01*
X93614487Y-77010002D01*
X93456517Y-77010002D01*
X93456516Y-77010002D01*
X93303136Y-77047805D01*
X93163264Y-77121217D01*
X93045018Y-77225973D01*
X92955283Y-77355977D01*
X92955282Y-77355978D01*
X92899264Y-77503683D01*
X92880224Y-77660501D01*
X92880224Y-77660502D01*
X91884184Y-77660502D01*
X90810819Y-76587137D01*
X90777334Y-76525814D01*
X90774500Y-76499456D01*
X90774500Y-75233206D01*
X90777139Y-75207760D01*
X90777196Y-75207490D01*
X90779042Y-75198685D01*
X90776031Y-75174528D01*
X90774977Y-75166068D01*
X90774500Y-75158391D01*
X90774500Y-75154963D01*
X90774499Y-75154957D01*
X90772680Y-75144060D01*
X90771119Y-75134706D01*
X90770753Y-75132188D01*
X90767882Y-75109157D01*
X90764573Y-75082607D01*
X90764572Y-75082604D01*
X90762481Y-75075579D01*
X90760091Y-75068616D01*
X90740713Y-75032810D01*
X90736313Y-75024681D01*
X90735157Y-75022437D01*
X90716963Y-74985218D01*
X90713200Y-74977519D01*
X90708919Y-74971524D01*
X90704420Y-74965744D01*
X90699758Y-74961452D01*
X90667642Y-74931887D01*
X90665820Y-74930138D01*
X89910191Y-74174509D01*
X89876706Y-74113186D01*
X89879210Y-74050837D01*
X89935300Y-73865934D01*
X89955583Y-73660000D01*
X89935300Y-73454066D01*
X89875232Y-73256046D01*
X89777685Y-73073550D01*
X89703364Y-72982989D01*
X89646410Y-72913589D01*
X89503804Y-72796557D01*
X89486450Y-72782315D01*
X89303954Y-72684768D01*
X89105934Y-72624700D01*
X89105932Y-72624699D01*
X89105934Y-72624699D01*
X88918463Y-72606235D01*
X88900000Y-72604417D01*
X88899999Y-72604417D01*
X88694067Y-72624699D01*
X88496043Y-72684769D01*
X88409465Y-72731047D01*
X88313550Y-72782315D01*
X88313548Y-72782316D01*
X88313547Y-72782317D01*
X88153589Y-72913589D01*
X88022317Y-73073547D01*
X88022315Y-73073550D01*
X87997754Y-73119500D01*
X87924769Y-73256043D01*
X87864699Y-73454067D01*
X87845573Y-73648266D01*
X87844417Y-73660000D01*
X87845328Y-73669247D01*
X87864699Y-73865932D01*
X87880625Y-73918432D01*
X87924768Y-74063954D01*
X88022315Y-74246450D01*
X88049162Y-74279163D01*
X88153589Y-74406410D01*
X88250209Y-74485702D01*
X88313550Y-74537685D01*
X88496046Y-74635232D01*
X88694066Y-74695300D01*
X88694065Y-74695300D01*
X88712529Y-74697118D01*
X88900000Y-74715583D01*
X89105934Y-74695300D01*
X89290836Y-74639210D01*
X89360699Y-74638588D01*
X89414509Y-74670191D01*
X90037181Y-75292862D01*
X90070666Y-75354185D01*
X90073500Y-75380543D01*
X90073500Y-75671944D01*
X90053815Y-75738983D01*
X90001011Y-75784738D01*
X89931853Y-75794682D01*
X89868297Y-75765657D01*
X89840142Y-75730398D01*
X89832550Y-75716194D01*
X89777685Y-75613550D01*
X89725702Y-75550209D01*
X89646410Y-75453589D01*
X89522486Y-75351889D01*
X89486450Y-75322315D01*
X89303954Y-75224768D01*
X89105934Y-75164700D01*
X89105932Y-75164699D01*
X89105934Y-75164699D01*
X88900000Y-75144417D01*
X88694067Y-75164699D01*
X88529895Y-75214500D01*
X88503609Y-75222474D01*
X88496043Y-75224769D01*
X88418952Y-75265976D01*
X88313550Y-75322315D01*
X88313548Y-75322316D01*
X88313547Y-75322317D01*
X88153589Y-75453589D01*
X88022317Y-75613547D01*
X88022315Y-75613550D01*
X87989083Y-75675722D01*
X87924769Y-75796043D01*
X87864699Y-75994067D01*
X87844417Y-76200000D01*
X87864699Y-76405932D01*
X87881394Y-76460967D01*
X87924768Y-76603954D01*
X88022315Y-76786450D01*
X88042775Y-76811381D01*
X88153589Y-76946410D01*
X88239362Y-77016801D01*
X88313550Y-77077685D01*
X88496046Y-77175232D01*
X88694066Y-77235300D01*
X88694065Y-77235300D01*
X88719323Y-77237787D01*
X88900000Y-77255583D01*
X88915140Y-77254091D01*
X88983783Y-77267108D01*
X89014976Y-77289813D01*
X89221249Y-77496086D01*
X89254734Y-77557409D01*
X89249750Y-77627101D01*
X89207878Y-77683034D01*
X89142414Y-77707451D01*
X89109379Y-77705385D01*
X89105934Y-77704699D01*
X88918463Y-77686235D01*
X88900000Y-77684417D01*
X88899999Y-77684417D01*
X88694067Y-77704699D01*
X88496043Y-77764769D01*
X88412127Y-77809624D01*
X88313550Y-77862315D01*
X88313548Y-77862316D01*
X88313547Y-77862317D01*
X88153589Y-77993589D01*
X88030208Y-78143932D01*
X88022315Y-78153550D01*
X87999288Y-78196631D01*
X87924769Y-78336043D01*
X87864699Y-78534067D01*
X87844417Y-78740000D01*
X87864699Y-78945932D01*
X87875799Y-78982524D01*
X87924768Y-79143954D01*
X88022315Y-79326450D01*
X88022317Y-79326452D01*
X88153589Y-79486410D01*
X88209060Y-79531933D01*
X88313550Y-79617685D01*
X88496046Y-79715232D01*
X88694066Y-79775300D01*
X88694065Y-79775300D01*
X88714347Y-79777297D01*
X88900000Y-79795583D01*
X89105934Y-79775300D01*
X89303954Y-79715232D01*
X89486450Y-79617685D01*
X89600897Y-79523760D01*
X89665207Y-79496448D01*
X89734075Y-79508239D01*
X89767243Y-79531933D01*
X92295117Y-82059807D01*
X92328602Y-82121130D01*
X92330532Y-82162434D01*
X92314945Y-82290813D01*
X92327663Y-82395553D01*
X92316203Y-82464477D01*
X92269299Y-82516263D01*
X92204567Y-82534500D01*
X92191222Y-82534500D01*
X92191220Y-82534500D01*
X92183779Y-82535404D01*
X92183391Y-82532209D01*
X92127869Y-82529476D01*
X92080931Y-82500042D01*
X90647844Y-81066955D01*
X90631718Y-81047098D01*
X90626644Y-81039331D01*
X90600694Y-81019133D01*
X90594948Y-81014059D01*
X90592514Y-81011625D01*
X90575816Y-80999703D01*
X90573762Y-80998171D01*
X90546973Y-80977321D01*
X90534333Y-80967483D01*
X90534331Y-80967482D01*
X90527855Y-80963977D01*
X90521273Y-80960759D01*
X90473389Y-80946503D01*
X90470950Y-80945722D01*
X90423691Y-80929498D01*
X90416476Y-80928294D01*
X90409160Y-80927382D01*
X90360346Y-80929401D01*
X90359256Y-80929447D01*
X90356696Y-80929500D01*
X89978127Y-80929500D01*
X89911088Y-80909815D01*
X89868769Y-80863954D01*
X89817783Y-80768568D01*
X89777685Y-80693550D01*
X89725702Y-80630209D01*
X89646410Y-80533589D01*
X89486452Y-80402317D01*
X89486453Y-80402317D01*
X89486450Y-80402315D01*
X89303954Y-80304768D01*
X89105934Y-80244700D01*
X89105932Y-80244699D01*
X89105934Y-80244699D01*
X88918463Y-80226235D01*
X88900000Y-80224417D01*
X88899999Y-80224417D01*
X88694067Y-80244699D01*
X88496043Y-80304769D01*
X88412127Y-80349624D01*
X88313550Y-80402315D01*
X88313548Y-80402316D01*
X88313547Y-80402317D01*
X88153589Y-80533589D01*
X88022317Y-80693547D01*
X88022315Y-80693550D01*
X88002424Y-80730764D01*
X87924769Y-80876043D01*
X87864699Y-81074067D01*
X87844417Y-81280000D01*
X87864699Y-81485932D01*
X87864700Y-81485934D01*
X87924768Y-81683954D01*
X88022315Y-81866450D01*
X88022317Y-81866452D01*
X88153589Y-82026410D01*
X88231901Y-82090678D01*
X88313550Y-82157685D01*
X88496046Y-82255232D01*
X88694066Y-82315300D01*
X88694065Y-82315300D01*
X88714347Y-82317297D01*
X88900000Y-82335583D01*
X89105934Y-82315300D01*
X89303954Y-82255232D01*
X89486450Y-82157685D01*
X89646410Y-82026410D01*
X89777685Y-81866450D01*
X89868768Y-81696046D01*
X89917732Y-81646202D01*
X89978127Y-81630500D01*
X90168663Y-81630500D01*
X90235702Y-81650185D01*
X90256344Y-81666819D01*
X90925108Y-82335583D01*
X91577492Y-82987966D01*
X91610977Y-83049289D01*
X91605993Y-83118981D01*
X91564121Y-83174914D01*
X91498657Y-83199331D01*
X91489811Y-83199647D01*
X91348094Y-83199647D01*
X91194714Y-83237450D01*
X91054842Y-83310862D01*
X91054839Y-83310864D01*
X91054840Y-83310864D01*
X90987887Y-83370179D01*
X90936595Y-83415619D01*
X90936373Y-83415941D01*
X90936147Y-83416123D01*
X90931623Y-83421231D01*
X90930773Y-83420478D01*
X90882090Y-83459931D01*
X90834324Y-83469500D01*
X89978127Y-83469500D01*
X89911088Y-83449815D01*
X89868769Y-83403954D01*
X89846022Y-83361399D01*
X89777685Y-83233550D01*
X89699675Y-83138494D01*
X89646410Y-83073589D01*
X89499840Y-82953304D01*
X89486450Y-82942315D01*
X89303954Y-82844768D01*
X89105934Y-82784700D01*
X89105932Y-82784699D01*
X89105934Y-82784699D01*
X88918463Y-82766235D01*
X88900000Y-82764417D01*
X88899999Y-82764417D01*
X88694067Y-82784699D01*
X88496043Y-82844769D01*
X88425268Y-82882600D01*
X88313550Y-82942315D01*
X88313548Y-82942316D01*
X88313547Y-82942317D01*
X88153589Y-83073589D01*
X88023875Y-83231649D01*
X88022315Y-83233550D01*
X88010928Y-83254853D01*
X87924769Y-83416043D01*
X87864699Y-83614067D01*
X87844417Y-83820000D01*
X87864699Y-84025932D01*
X87871942Y-84049808D01*
X87924768Y-84223954D01*
X88022315Y-84406450D01*
X88022317Y-84406452D01*
X88153589Y-84566410D01*
X88233109Y-84631669D01*
X88313550Y-84697685D01*
X88496046Y-84795232D01*
X88694066Y-84855300D01*
X88694065Y-84855300D01*
X88714347Y-84857297D01*
X88900000Y-84875583D01*
X89105934Y-84855300D01*
X89303954Y-84795232D01*
X89486450Y-84697685D01*
X89646410Y-84566410D01*
X89777685Y-84406450D01*
X89859275Y-84253808D01*
X89868769Y-84236046D01*
X89917732Y-84186202D01*
X89978127Y-84170500D01*
X90792707Y-84170500D01*
X90859746Y-84190185D01*
X90894755Y-84224058D01*
X90936597Y-84284677D01*
X91054840Y-84389430D01*
X91054842Y-84389431D01*
X91194714Y-84462843D01*
X91348094Y-84500647D01*
X91348095Y-84500647D01*
X91506066Y-84500647D01*
X91513511Y-84499743D01*
X91513917Y-84503088D01*
X91568539Y-84505368D01*
X91616355Y-84535104D01*
X91685295Y-84604044D01*
X91701422Y-84623902D01*
X91706496Y-84631669D01*
X91706498Y-84631671D01*
X91732438Y-84651860D01*
X91738201Y-84656950D01*
X91740627Y-84659376D01*
X91757332Y-84671303D01*
X91759365Y-84672818D01*
X91798807Y-84703517D01*
X91798808Y-84703517D01*
X91798809Y-84703518D01*
X91805251Y-84707004D01*
X91811869Y-84710241D01*
X91859755Y-84724497D01*
X91862175Y-84725272D01*
X91909445Y-84741500D01*
X91909450Y-84741500D01*
X91916701Y-84742710D01*
X91923979Y-84743617D01*
X91973895Y-84741552D01*
X91976454Y-84741500D01*
X94355500Y-84741500D01*
X94422539Y-84761185D01*
X94468294Y-84813989D01*
X94479500Y-84865500D01*
X94479500Y-85186500D01*
X94459815Y-85253539D01*
X94407011Y-85299294D01*
X94355500Y-85310500D01*
X91807206Y-85310500D01*
X91781761Y-85307861D01*
X91772685Y-85305958D01*
X91772682Y-85305958D01*
X91740068Y-85310023D01*
X91732392Y-85310500D01*
X91728960Y-85310500D01*
X91708716Y-85313877D01*
X91706193Y-85314245D01*
X91656606Y-85320426D01*
X91649575Y-85322519D01*
X91642618Y-85324907D01*
X91598687Y-85348682D01*
X91596411Y-85349853D01*
X91551513Y-85371803D01*
X91545566Y-85376048D01*
X91539739Y-85380584D01*
X91505913Y-85417329D01*
X91504139Y-85419177D01*
X89104330Y-87818986D01*
X89043007Y-87852471D01*
X89004496Y-87854708D01*
X88900001Y-87844417D01*
X88900000Y-87844417D01*
X88879718Y-87846414D01*
X88694067Y-87864699D01*
X88496043Y-87924769D01*
X88464099Y-87941844D01*
X88313550Y-88022315D01*
X88313548Y-88022316D01*
X88313547Y-88022317D01*
X88153589Y-88153589D01*
X88022317Y-88313547D01*
X87924769Y-88496043D01*
X87924769Y-88496044D01*
X87924768Y-88496046D01*
X87919469Y-88513516D01*
X87864699Y-88694067D01*
X87844417Y-88900000D01*
X87864699Y-89105932D01*
X87864700Y-89105934D01*
X87924768Y-89303954D01*
X88022315Y-89486450D01*
X88022317Y-89486452D01*
X88153589Y-89646410D01*
X88185186Y-89672340D01*
X88224521Y-89730085D01*
X88226392Y-89799930D01*
X88190205Y-89859699D01*
X88160330Y-89879911D01*
X88156138Y-89881929D01*
X88149291Y-89886597D01*
X88142551Y-89891572D01*
X88102270Y-89931853D01*
X88100602Y-89933459D01*
X88058795Y-89972251D01*
X88053004Y-89979514D01*
X88052334Y-89978980D01*
X88043053Y-89991069D01*
X87418481Y-90615642D01*
X87413294Y-90620277D01*
X87383443Y-90644083D01*
X87383441Y-90644085D01*
X87351331Y-90691181D01*
X87349991Y-90693069D01*
X87316148Y-90738926D01*
X87312248Y-90746306D01*
X87308640Y-90753800D01*
X87291841Y-90808257D01*
X87291117Y-90810457D01*
X87272290Y-90864263D01*
X87270745Y-90872425D01*
X87269500Y-90880690D01*
X87269500Y-90937680D01*
X87269457Y-90939964D01*
X87268634Y-90961954D01*
X87267324Y-90996962D01*
X87268365Y-91006195D01*
X87267508Y-91006291D01*
X87269500Y-91021404D01*
X87269500Y-97181371D01*
X87269110Y-97188319D01*
X87264834Y-97226256D01*
X87270728Y-97257405D01*
X87275435Y-97282277D01*
X87275821Y-97284552D01*
X87284315Y-97340905D01*
X87286781Y-97348901D01*
X87289521Y-97356730D01*
X87316145Y-97407104D01*
X87317190Y-97409174D01*
X87341930Y-97460548D01*
X87346586Y-97467378D01*
X87351569Y-97474128D01*
X87351571Y-97474132D01*
X87391876Y-97514437D01*
X87393459Y-97516081D01*
X87432250Y-97557887D01*
X87439516Y-97563681D01*
X87438978Y-97564354D01*
X87451072Y-97573633D01*
X91560955Y-101683516D01*
X91565591Y-101688704D01*
X91581409Y-101708538D01*
X91589399Y-101718557D01*
X91636521Y-101750684D01*
X91638370Y-101751996D01*
X91641564Y-101754353D01*
X91684241Y-101785851D01*
X91691616Y-101789748D01*
X91699113Y-101793359D01*
X91699115Y-101793360D01*
X91753595Y-101810164D01*
X91755737Y-101810869D01*
X91809581Y-101829711D01*
X91809583Y-101829711D01*
X91817740Y-101831254D01*
X91826002Y-101832500D01*
X91826005Y-101832500D01*
X91882985Y-101832500D01*
X91885267Y-101832542D01*
X91942277Y-101834675D01*
X91942277Y-101834674D01*
X91942278Y-101834675D01*
X91951512Y-101833635D01*
X91951608Y-101834489D01*
X91966721Y-101832500D01*
X105634772Y-101832500D01*
X105641712Y-101832889D01*
X105671651Y-101836263D01*
X105679656Y-101837165D01*
X105679656Y-101837164D01*
X105679657Y-101837165D01*
X105735704Y-101826559D01*
X105737971Y-101826175D01*
X105794306Y-101817685D01*
X105802277Y-101815226D01*
X105810127Y-101812479D01*
X105810127Y-101812478D01*
X105810131Y-101812478D01*
X105860529Y-101785840D01*
X105862575Y-101784808D01*
X105866774Y-101782786D01*
X105913946Y-101760070D01*
X105913948Y-101760067D01*
X105920804Y-101755393D01*
X105927532Y-101750429D01*
X105954782Y-101723178D01*
X105967837Y-101710122D01*
X105969460Y-101708558D01*
X106011287Y-101669750D01*
X106011289Y-101669746D01*
X106017082Y-101662482D01*
X106017758Y-101663021D01*
X106027031Y-101650928D01*
X106389142Y-101288817D01*
X106450465Y-101255333D01*
X106476823Y-101252499D01*
X107075871Y-101252499D01*
X107075872Y-101252499D01*
X107135483Y-101246091D01*
X107270331Y-101195796D01*
X107385546Y-101109546D01*
X107471796Y-100994331D01*
X107471796Y-100994329D01*
X107473399Y-100992189D01*
X107529333Y-100950318D01*
X107572666Y-100942500D01*
X109781772Y-100942500D01*
X109788712Y-100942889D01*
X109818651Y-100946263D01*
X109826656Y-100947165D01*
X109826656Y-100947164D01*
X109826657Y-100947165D01*
X109882704Y-100936559D01*
X109884971Y-100936175D01*
X109941306Y-100927685D01*
X109949277Y-100925226D01*
X109957127Y-100922479D01*
X109957127Y-100922478D01*
X109957131Y-100922478D01*
X110007529Y-100895840D01*
X110009575Y-100894808D01*
X110010134Y-100894539D01*
X110060946Y-100870070D01*
X110060948Y-100870067D01*
X110067804Y-100865393D01*
X110074532Y-100860429D01*
X110082300Y-100852661D01*
X110114837Y-100820122D01*
X110116460Y-100818558D01*
X110158287Y-100779750D01*
X110158289Y-100779746D01*
X110164082Y-100772482D01*
X110164758Y-100773021D01*
X110174031Y-100760928D01*
X113241528Y-97693431D01*
X113246696Y-97688812D01*
X113276557Y-97665001D01*
X113308694Y-97617862D01*
X113309982Y-97616046D01*
X113343852Y-97570157D01*
X113343853Y-97570155D01*
X113347743Y-97562794D01*
X113351359Y-97555287D01*
X113368155Y-97500833D01*
X113368881Y-97498628D01*
X113387711Y-97444820D01*
X113389249Y-97436685D01*
X113390500Y-97428392D01*
X113390500Y-97371414D01*
X113390542Y-97369133D01*
X113392675Y-97312123D01*
X113392674Y-97312122D01*
X113391635Y-97302893D01*
X113392488Y-97302796D01*
X113390500Y-97287681D01*
X113390500Y-85198228D01*
X113390890Y-85191280D01*
X113395165Y-85153344D01*
X113395165Y-85153343D01*
X113384564Y-85097321D01*
X113384177Y-85095042D01*
X113383556Y-85090923D01*
X113375685Y-85038694D01*
X113373238Y-85030763D01*
X113370477Y-85022872D01*
X113370477Y-85022869D01*
X113343848Y-84972485D01*
X113342824Y-84970457D01*
X113318070Y-84919054D01*
X113318068Y-84919049D01*
X113313408Y-84912215D01*
X113308427Y-84905465D01*
X113268147Y-84865186D01*
X113266539Y-84863516D01*
X113230262Y-84824420D01*
X113199092Y-84761888D01*
X113206678Y-84692431D01*
X113233475Y-84652399D01*
X113241528Y-84644346D01*
X113246696Y-84639727D01*
X113276557Y-84615916D01*
X113308694Y-84568777D01*
X113309982Y-84566961D01*
X113343852Y-84521072D01*
X113343853Y-84521070D01*
X113347743Y-84513709D01*
X113351356Y-84506204D01*
X113351360Y-84506200D01*
X113368161Y-84451726D01*
X113368885Y-84449529D01*
X113387710Y-84395734D01*
X113387710Y-84395727D01*
X113389256Y-84387557D01*
X113390497Y-84379318D01*
X113390500Y-84379310D01*
X113390499Y-84322320D01*
X113390541Y-84320035D01*
X113392675Y-84263038D01*
X113392674Y-84263037D01*
X113391635Y-84253808D01*
X113392488Y-84253711D01*
X113390500Y-84238597D01*
X113390500Y-73195313D01*
X113390890Y-73188365D01*
X113395165Y-73150429D01*
X113390885Y-73127810D01*
X113384564Y-73094406D01*
X113384177Y-73092127D01*
X113383613Y-73088386D01*
X113375685Y-73035779D01*
X113373238Y-73027848D01*
X113370477Y-73019957D01*
X113370477Y-73019954D01*
X113343848Y-72969570D01*
X113342824Y-72967542D01*
X113318070Y-72916139D01*
X113318068Y-72916134D01*
X113313408Y-72909300D01*
X113308427Y-72902550D01*
X113268147Y-72862271D01*
X113266539Y-72860601D01*
X113227751Y-72818799D01*
X113220482Y-72813002D01*
X113221017Y-72812330D01*
X113208926Y-72803050D01*
X112956499Y-72550623D01*
X112923014Y-72489300D01*
X112927998Y-72419608D01*
X112956499Y-72375261D01*
X113092483Y-72239277D01*
X113241528Y-72090231D01*
X113246696Y-72085612D01*
X113276557Y-72061801D01*
X113308694Y-72014662D01*
X113309982Y-72012846D01*
X113343852Y-71966957D01*
X113343853Y-71966955D01*
X113347743Y-71959594D01*
X113351359Y-71952087D01*
X113363785Y-71911803D01*
X113368157Y-71897624D01*
X113368881Y-71895428D01*
X113387711Y-71841620D01*
X113389249Y-71833485D01*
X113390500Y-71825192D01*
X113390500Y-71768214D01*
X113390542Y-71765933D01*
X113392675Y-71708923D01*
X113392674Y-71708922D01*
X113391635Y-71699693D01*
X113392488Y-71699596D01*
X113390500Y-71684481D01*
X113390500Y-69567419D01*
X113390500Y-67424394D01*
X113393610Y-67396805D01*
X113394230Y-67394090D01*
X113390671Y-67346613D01*
X113390499Y-67341989D01*
X113390500Y-67327780D01*
X113390500Y-62991028D01*
X113390889Y-62984089D01*
X113395165Y-62946144D01*
X113384558Y-62890085D01*
X113384176Y-62887831D01*
X113379189Y-62854743D01*
X113375685Y-62831494D01*
X113375684Y-62831491D01*
X113373231Y-62823538D01*
X113370479Y-62815675D01*
X113370478Y-62815669D01*
X113343841Y-62765270D01*
X113342808Y-62763223D01*
X113318068Y-62711850D01*
X113313403Y-62705007D01*
X113308428Y-62698267D01*
X113297590Y-62687429D01*
X113268121Y-62657960D01*
X113266539Y-62656317D01*
X113227750Y-62614513D01*
X113220482Y-62608717D01*
X113221017Y-62608045D01*
X113208926Y-62598765D01*
X113007841Y-62397680D01*
X112974356Y-62336357D01*
X112979340Y-62266665D01*
X113007837Y-62222322D01*
X113241528Y-61988631D01*
X113246696Y-61984012D01*
X113276557Y-61960201D01*
X113308694Y-61913062D01*
X113309982Y-61911246D01*
X113343852Y-61865357D01*
X113343853Y-61865355D01*
X113347743Y-61857994D01*
X113351359Y-61850487D01*
X113366928Y-61800013D01*
X113368157Y-61796024D01*
X113368881Y-61793828D01*
X113387711Y-61740020D01*
X113389249Y-61731885D01*
X113390500Y-61723592D01*
X113390500Y-61666614D01*
X113390542Y-61664333D01*
X113392675Y-61607323D01*
X113392674Y-61607322D01*
X113391635Y-61598093D01*
X113392488Y-61597996D01*
X113390500Y-61582881D01*
X113390500Y-57860220D01*
X113390889Y-57853282D01*
X113395164Y-57815343D01*
X113384559Y-57759300D01*
X113384180Y-57757060D01*
X113383597Y-57753194D01*
X113375685Y-57700694D01*
X113373231Y-57692740D01*
X113370477Y-57684869D01*
X113370477Y-57684868D01*
X113343842Y-57634473D01*
X113342818Y-57632446D01*
X113318070Y-57581054D01*
X113318068Y-57581052D01*
X113313381Y-57574176D01*
X113308428Y-57567466D01*
X113288361Y-57547399D01*
X113268108Y-57527146D01*
X113266526Y-57525503D01*
X113227748Y-57483711D01*
X113220484Y-57477918D01*
X113221020Y-57477245D01*
X113208930Y-57467968D01*
X109678443Y-53937482D01*
X109673806Y-53932294D01*
X109649999Y-53902441D01*
X109602893Y-53870324D01*
X109601003Y-53868983D01*
X109572605Y-53848025D01*
X109555157Y-53835148D01*
X109555155Y-53835147D01*
X109547794Y-53831256D01*
X109540284Y-53827639D01*
X109485818Y-53810839D01*
X109483615Y-53810114D01*
X109429819Y-53791289D01*
X109421640Y-53789741D01*
X109413399Y-53788500D01*
X109413395Y-53788500D01*
X109356404Y-53788500D01*
X109354122Y-53788457D01*
X109330061Y-53787557D01*
X109297122Y-53786324D01*
X109287890Y-53787365D01*
X109287793Y-53786510D01*
X109272680Y-53788500D01*
X106833739Y-53788500D01*
X106766700Y-53768815D01*
X106720945Y-53716011D01*
X106710449Y-53677754D01*
X106710056Y-53674102D01*
X106707091Y-53646517D01*
X106656796Y-53511669D01*
X106656795Y-53511668D01*
X106656793Y-53511664D01*
X106570547Y-53396455D01*
X106570544Y-53396452D01*
X106455335Y-53310206D01*
X106455328Y-53310202D01*
X106320486Y-53259910D01*
X106320485Y-53259909D01*
X106320483Y-53259909D01*
X106260873Y-53253500D01*
X106260864Y-53253500D01*
X105661823Y-53253500D01*
X105594784Y-53233815D01*
X105574142Y-53217181D01*
X105274142Y-52917181D01*
X105240657Y-52855858D01*
X105245641Y-52786166D01*
X105287513Y-52730233D01*
X105352977Y-52705816D01*
X105361823Y-52705500D01*
X108583720Y-52705500D01*
X108586279Y-52705552D01*
X108802547Y-52714497D01*
X109007732Y-52723456D01*
X109012654Y-52723870D01*
X109230758Y-52751057D01*
X109435849Y-52778058D01*
X109440420Y-52778837D01*
X109655328Y-52823898D01*
X109857714Y-52868766D01*
X109861969Y-52869869D01*
X110072452Y-52932533D01*
X110270378Y-52994939D01*
X110274180Y-52996277D01*
X110478346Y-53075943D01*
X110479439Y-53076383D01*
X110615777Y-53132856D01*
X110670763Y-53155632D01*
X110674246Y-53157202D01*
X110871123Y-53253450D01*
X110872341Y-53254064D01*
X111002930Y-53322045D01*
X111056061Y-53349704D01*
X111059170Y-53351437D01*
X111247329Y-53463555D01*
X111248839Y-53464485D01*
X111423516Y-53575767D01*
X111426203Y-53577580D01*
X111604433Y-53704834D01*
X111604439Y-53704838D01*
X111606155Y-53706109D01*
X111770405Y-53832142D01*
X111772733Y-53834019D01*
X111939843Y-53975554D01*
X111941648Y-53977143D01*
X112094328Y-54117049D01*
X112096255Y-54118893D01*
X112251104Y-54273742D01*
X112252942Y-54275662D01*
X112392844Y-54428338D01*
X112394444Y-54430155D01*
X112535979Y-54597265D01*
X112537856Y-54599593D01*
X112663889Y-54763843D01*
X112665160Y-54765559D01*
X112792412Y-54943786D01*
X112794233Y-54946484D01*
X112905490Y-55121123D01*
X112906443Y-55122669D01*
X113018561Y-55310828D01*
X113020294Y-55313937D01*
X113115896Y-55497583D01*
X113116582Y-55498942D01*
X113171426Y-55611127D01*
X113212786Y-55695731D01*
X113214366Y-55699235D01*
X113293596Y-55890512D01*
X113294074Y-55891701D01*
X113319350Y-55956476D01*
X113373708Y-56095785D01*
X113375072Y-56099657D01*
X113437463Y-56297540D01*
X113500124Y-56508013D01*
X113501232Y-56512286D01*
X113546103Y-56714682D01*
X113591157Y-56929559D01*
X113591947Y-56934192D01*
X113618943Y-57139252D01*
X113646126Y-57357322D01*
X113646543Y-57362288D01*
X113655518Y-57567843D01*
X113664447Y-57783718D01*
X113664500Y-57786280D01*
X113664500Y-97153719D01*
X113664447Y-97156281D01*
X113655518Y-97372156D01*
X113646543Y-97577710D01*
X113646126Y-97582676D01*
X113618943Y-97800746D01*
X113591947Y-98005806D01*
X113591157Y-98010439D01*
X113546103Y-98225316D01*
X113501232Y-98427712D01*
X113500124Y-98431985D01*
X113437463Y-98642458D01*
X113375072Y-98840341D01*
X113373700Y-98844237D01*
X113294074Y-99048297D01*
X113293596Y-99049486D01*
X113214366Y-99240763D01*
X113212786Y-99244267D01*
X113116602Y-99441016D01*
X113115896Y-99442415D01*
X113020294Y-99626061D01*
X113018561Y-99629170D01*
X112906443Y-99817329D01*
X112905472Y-99818905D01*
X112794244Y-99993497D01*
X112792412Y-99996212D01*
X112665160Y-100174439D01*
X112663889Y-100176155D01*
X112537856Y-100340405D01*
X112535979Y-100342733D01*
X112394444Y-100509843D01*
X112392844Y-100511660D01*
X112252952Y-100664325D01*
X112251082Y-100666279D01*
X112096279Y-100821082D01*
X112094325Y-100822952D01*
X111941660Y-100962844D01*
X111939843Y-100964444D01*
X111772733Y-101105979D01*
X111770405Y-101107856D01*
X111606155Y-101233889D01*
X111604439Y-101235160D01*
X111426212Y-101362412D01*
X111423497Y-101364244D01*
X111248905Y-101475472D01*
X111247329Y-101476443D01*
X111059170Y-101588561D01*
X111056061Y-101590294D01*
X110872415Y-101685896D01*
X110871016Y-101686602D01*
X110674267Y-101782786D01*
X110670763Y-101784366D01*
X110479486Y-101863596D01*
X110478297Y-101864074D01*
X110274237Y-101943700D01*
X110270341Y-101945072D01*
X110072458Y-102007463D01*
X109861985Y-102070124D01*
X109857712Y-102071232D01*
X109655316Y-102116103D01*
X109440439Y-102161157D01*
X109435806Y-102161947D01*
X109230746Y-102188943D01*
X109012676Y-102216126D01*
X109007710Y-102216543D01*
X108802266Y-102225513D01*
X108592125Y-102234205D01*
X108586280Y-102234447D01*
X108583720Y-102234500D01*
X92076280Y-102234500D01*
X92073719Y-102234447D01*
X92067264Y-102234180D01*
X91857732Y-102225513D01*
X91652288Y-102216543D01*
X91647322Y-102216126D01*
X91429252Y-102188943D01*
X91224192Y-102161947D01*
X91219559Y-102161157D01*
X91004682Y-102116103D01*
X90802286Y-102071232D01*
X90798013Y-102070124D01*
X90587540Y-102007463D01*
X90389657Y-101945072D01*
X90385785Y-101943708D01*
X90253255Y-101891995D01*
X90181701Y-101864074D01*
X90180512Y-101863596D01*
X89989235Y-101784366D01*
X89985731Y-101782786D01*
X89919543Y-101750429D01*
X89788942Y-101686582D01*
X89787583Y-101685896D01*
X89603937Y-101590294D01*
X89600828Y-101588561D01*
X89412669Y-101476443D01*
X89411123Y-101475490D01*
X89236494Y-101364239D01*
X89233786Y-101362412D01*
X89055559Y-101235160D01*
X89053843Y-101233889D01*
X88889593Y-101107856D01*
X88887265Y-101105979D01*
X88720155Y-100964444D01*
X88718338Y-100962844D01*
X88565662Y-100822942D01*
X88563742Y-100821104D01*
X88408893Y-100666255D01*
X88407059Y-100664339D01*
X88267143Y-100511648D01*
X88265554Y-100509843D01*
X88124019Y-100342733D01*
X88122142Y-100340405D01*
X87996109Y-100176155D01*
X87994838Y-100174439D01*
X87980793Y-100154768D01*
X87867580Y-99996203D01*
X87865771Y-99993522D01*
X87754485Y-99818839D01*
X87753555Y-99817329D01*
X87641437Y-99629170D01*
X87639704Y-99626061D01*
X87605672Y-99560687D01*
X87544064Y-99442341D01*
X87543450Y-99441123D01*
X87447202Y-99244246D01*
X87445632Y-99240763D01*
X87397457Y-99124459D01*
X87366388Y-99049453D01*
X87365944Y-99048348D01*
X87286277Y-98844180D01*
X87284939Y-98840378D01*
X87222529Y-98642438D01*
X87196074Y-98553578D01*
X87159869Y-98431969D01*
X87158766Y-98427712D01*
X87146856Y-98373990D01*
X87113896Y-98225316D01*
X87068837Y-98010420D01*
X87068058Y-98005849D01*
X87041055Y-97800746D01*
X87013870Y-97582654D01*
X87013456Y-97577732D01*
X87004502Y-97372672D01*
X86995552Y-97156280D01*
X86995500Y-97153719D01*
X86995500Y-71120000D01*
X87844417Y-71120000D01*
X87864699Y-71325932D01*
X87880352Y-71377532D01*
X87924768Y-71523954D01*
X88022315Y-71706450D01*
X88043009Y-71731666D01*
X88153589Y-71866410D01*
X88227886Y-71927383D01*
X88313550Y-71997685D01*
X88496046Y-72095232D01*
X88694066Y-72155300D01*
X88694065Y-72155300D01*
X88714347Y-72157297D01*
X88900000Y-72175583D01*
X89105934Y-72155300D01*
X89303954Y-72095232D01*
X89486450Y-71997685D01*
X89646410Y-71866410D01*
X89777685Y-71706450D01*
X89861027Y-71550529D01*
X89868769Y-71536046D01*
X89917732Y-71486202D01*
X89978127Y-71470500D01*
X91203290Y-71470500D01*
X91270329Y-71490185D01*
X91316084Y-71542989D01*
X91319232Y-71550529D01*
X91339763Y-71604665D01*
X91345130Y-71674328D01*
X91311982Y-71735834D01*
X91292712Y-71751738D01*
X91213899Y-71804398D01*
X91158533Y-71887260D01*
X91158532Y-71887264D01*
X91144000Y-71960321D01*
X91144000Y-71960325D01*
X91144000Y-71960326D01*
X91144000Y-72439674D01*
X91144001Y-72439678D01*
X91154569Y-72492810D01*
X91154569Y-72541190D01*
X91144000Y-72594326D01*
X91144000Y-73073673D01*
X91154768Y-73127810D01*
X91154768Y-73176190D01*
X91144000Y-73230326D01*
X91144000Y-73709673D01*
X91154569Y-73762810D01*
X91154569Y-73811190D01*
X91144000Y-73864326D01*
X91144000Y-74343673D01*
X91154768Y-74397810D01*
X91154768Y-74446190D01*
X91144000Y-74500326D01*
X91144000Y-74979673D01*
X91154569Y-75032810D01*
X91154569Y-75081190D01*
X91144000Y-75134326D01*
X91144000Y-75613673D01*
X91154768Y-75667810D01*
X91154768Y-75716190D01*
X91144000Y-75770326D01*
X91144000Y-76249678D01*
X91158532Y-76322735D01*
X91158533Y-76322739D01*
X91158534Y-76322740D01*
X91213899Y-76405601D01*
X91296760Y-76460965D01*
X91296760Y-76460966D01*
X91296764Y-76460967D01*
X91369821Y-76475499D01*
X91369824Y-76475500D01*
X91369826Y-76475500D01*
X92944176Y-76475500D01*
X92944177Y-76475499D01*
X93017240Y-76460966D01*
X93100101Y-76405601D01*
X93100101Y-76405599D01*
X93110256Y-76398815D01*
X93112073Y-76401535D01*
X93155961Y-76377563D01*
X93225653Y-76382536D01*
X93239959Y-76388927D01*
X93254996Y-76396819D01*
X93258353Y-76398581D01*
X93411732Y-76436385D01*
X93411733Y-76436385D01*
X93569703Y-76436385D01*
X93723083Y-76398581D01*
X93780330Y-76368535D01*
X95035440Y-76368535D01*
X95054480Y-76525353D01*
X95093966Y-76629467D01*
X95110498Y-76673058D01*
X95200235Y-76803065D01*
X95318478Y-76907818D01*
X95318480Y-76907819D01*
X95458352Y-76981231D01*
X95611732Y-77019035D01*
X95611733Y-77019035D01*
X95769703Y-77019035D01*
X95923083Y-76981231D01*
X95969748Y-76956739D01*
X96062958Y-76907818D01*
X96181201Y-76803065D01*
X96270938Y-76673058D01*
X96326955Y-76525353D01*
X96333730Y-76469553D01*
X96361351Y-76405376D01*
X96419285Y-76366319D01*
X96456826Y-76360500D01*
X96541484Y-76360500D01*
X96608523Y-76380185D01*
X96627470Y-76398757D01*
X96629263Y-76396965D01*
X96637896Y-76405598D01*
X96637897Y-76405599D01*
X96637899Y-76405601D01*
X96720760Y-76460966D01*
X96720764Y-76460967D01*
X96793821Y-76475499D01*
X96793824Y-76475500D01*
X96793826Y-76475500D01*
X98368176Y-76475500D01*
X98368177Y-76475499D01*
X98441240Y-76460966D01*
X98524101Y-76405601D01*
X98579466Y-76322740D01*
X98594000Y-76249674D01*
X98594000Y-75770326D01*
X98583231Y-75716187D01*
X98583231Y-75667810D01*
X98594000Y-75613674D01*
X98594000Y-75134326D01*
X98593999Y-75134325D01*
X98594000Y-75134323D01*
X98593999Y-75134321D01*
X98579467Y-75061264D01*
X98579466Y-75061260D01*
X98560868Y-75033426D01*
X98524101Y-74978399D01*
X98441240Y-74923034D01*
X98441239Y-74923033D01*
X98441235Y-74923032D01*
X98368177Y-74908500D01*
X98368174Y-74908500D01*
X96793826Y-74908500D01*
X96793823Y-74908500D01*
X96720764Y-74923032D01*
X96720760Y-74923033D01*
X96663264Y-74961451D01*
X96647077Y-74972267D01*
X96644751Y-74973821D01*
X96578073Y-74994698D01*
X96510693Y-74976213D01*
X96473811Y-74941158D01*
X96466828Y-74931042D01*
X96398083Y-74831446D01*
X96279840Y-74726693D01*
X96279838Y-74726692D01*
X96279837Y-74726691D01*
X96139965Y-74653279D01*
X95986586Y-74615476D01*
X95986585Y-74615476D01*
X95828615Y-74615476D01*
X95828614Y-74615476D01*
X95675234Y-74653279D01*
X95535362Y-74726691D01*
X95535359Y-74726693D01*
X95535360Y-74726693D01*
X95420557Y-74828399D01*
X95417116Y-74831447D01*
X95327381Y-74961451D01*
X95327380Y-74961452D01*
X95271362Y-75109157D01*
X95252322Y-75265975D01*
X95252322Y-75265976D01*
X95271362Y-75422794D01*
X95327380Y-75570499D01*
X95376610Y-75641822D01*
X95398492Y-75708176D01*
X95381026Y-75775828D01*
X95332187Y-75822056D01*
X95318481Y-75829249D01*
X95200234Y-75934006D01*
X95110499Y-76064010D01*
X95110498Y-76064011D01*
X95054480Y-76211716D01*
X95035440Y-76368534D01*
X95035440Y-76368535D01*
X93780330Y-76368535D01*
X93795639Y-76360500D01*
X93862958Y-76325168D01*
X93981201Y-76220415D01*
X94070938Y-76090408D01*
X94126955Y-75942703D01*
X94145996Y-75785885D01*
X94136561Y-75708176D01*
X94126955Y-75629066D01*
X94083642Y-75514860D01*
X94070938Y-75481362D01*
X94027991Y-75419143D01*
X94006109Y-75352790D01*
X94023574Y-75285138D01*
X94047816Y-75255888D01*
X94085533Y-75222474D01*
X94095515Y-75208013D01*
X94175271Y-75092466D01*
X94231288Y-74944761D01*
X94250329Y-74787943D01*
X94235354Y-74664614D01*
X94246814Y-74595692D01*
X94293718Y-74543906D01*
X94314479Y-74533727D01*
X94321323Y-74531130D01*
X94321333Y-74531128D01*
X94461208Y-74457715D01*
X94579451Y-74352962D01*
X94669188Y-74222955D01*
X94725205Y-74075250D01*
X94744246Y-73918432D01*
X94726523Y-73772470D01*
X94737983Y-73703548D01*
X94784887Y-73651762D01*
X94791955Y-73647749D01*
X94930846Y-73574853D01*
X95049089Y-73470100D01*
X95138826Y-73340093D01*
X95194843Y-73192388D01*
X95213884Y-73035570D01*
X95212947Y-73027848D01*
X95194843Y-72878751D01*
X95169907Y-72813002D01*
X95138826Y-72731047D01*
X95049089Y-72601040D01*
X94930846Y-72496287D01*
X94930844Y-72496286D01*
X94930843Y-72496285D01*
X94790972Y-72422874D01*
X94723245Y-72406181D01*
X94662864Y-72371025D01*
X94631076Y-72308805D01*
X94637972Y-72239277D01*
X94681363Y-72184514D01*
X94695294Y-72175988D01*
X94734711Y-72155300D01*
X94826075Y-72107348D01*
X94944318Y-72002595D01*
X95034055Y-71872588D01*
X95090072Y-71724883D01*
X95109113Y-71568065D01*
X95104591Y-71530818D01*
X95090072Y-71411246D01*
X95055047Y-71318894D01*
X95034055Y-71263542D01*
X94944318Y-71133535D01*
X94826075Y-71028782D01*
X94826073Y-71028781D01*
X94826072Y-71028780D01*
X94686200Y-70955368D01*
X94532821Y-70917565D01*
X94532820Y-70917565D01*
X94374850Y-70917565D01*
X94374849Y-70917565D01*
X94221469Y-70955368D01*
X94081597Y-71028780D01*
X93963350Y-71133536D01*
X93942322Y-71164003D01*
X93888040Y-71207995D01*
X93840271Y-71217565D01*
X93385646Y-71217565D01*
X93360200Y-71214926D01*
X93351120Y-71213022D01*
X93351119Y-71213022D01*
X93351117Y-71213022D01*
X93318496Y-71217088D01*
X93310820Y-71217565D01*
X93307395Y-71217565D01*
X93302189Y-71218433D01*
X93287135Y-71220944D01*
X93284606Y-71221312D01*
X93235043Y-71227491D01*
X93228005Y-71229586D01*
X93221052Y-71231973D01*
X93177122Y-71255747D01*
X93174846Y-71256918D01*
X93129948Y-71278868D01*
X93124001Y-71283113D01*
X93118174Y-71287649D01*
X93084348Y-71324394D01*
X93082574Y-71326242D01*
X92797721Y-71611095D01*
X92736398Y-71644580D01*
X92666706Y-71639596D01*
X92610773Y-71597724D01*
X92586356Y-71532260D01*
X92586943Y-71508476D01*
X92603272Y-71374000D01*
X92585299Y-71225975D01*
X92584231Y-71217181D01*
X92547375Y-71120000D01*
X92528214Y-71069477D01*
X92438477Y-70939470D01*
X92320234Y-70834717D01*
X92320232Y-70834716D01*
X92320231Y-70834715D01*
X92180359Y-70761303D01*
X92026980Y-70723500D01*
X92026979Y-70723500D01*
X91869009Y-70723500D01*
X91715632Y-70761303D01*
X91715264Y-70761443D01*
X91714491Y-70761584D01*
X91708347Y-70763099D01*
X91708255Y-70762727D01*
X91671294Y-70769500D01*
X89978127Y-70769500D01*
X89911088Y-70749815D01*
X89868769Y-70703954D01*
X89845116Y-70659703D01*
X89777685Y-70533550D01*
X89725702Y-70470209D01*
X89646410Y-70373589D01*
X89486452Y-70242317D01*
X89486453Y-70242317D01*
X89486450Y-70242315D01*
X89303954Y-70144768D01*
X89105934Y-70084700D01*
X89105932Y-70084699D01*
X89105934Y-70084699D01*
X88900000Y-70064417D01*
X88694067Y-70084699D01*
X88496043Y-70144769D01*
X88477236Y-70154822D01*
X88313550Y-70242315D01*
X88313548Y-70242316D01*
X88313547Y-70242317D01*
X88153589Y-70373589D01*
X88022317Y-70533547D01*
X87924769Y-70716043D01*
X87864699Y-70914067D01*
X87844417Y-71120000D01*
X86995500Y-71120000D01*
X86995500Y-60960000D01*
X87844417Y-60960000D01*
X87864699Y-61165932D01*
X87892241Y-61256725D01*
X87924768Y-61363954D01*
X88022315Y-61546450D01*
X88022317Y-61546452D01*
X88153589Y-61706410D01*
X88204353Y-61748070D01*
X88313550Y-61837685D01*
X88496046Y-61935232D01*
X88694066Y-61995300D01*
X88694065Y-61995300D01*
X88714347Y-61997297D01*
X88900000Y-62015583D01*
X89105934Y-61995300D01*
X89303954Y-61935232D01*
X89486450Y-61837685D01*
X89646410Y-61706410D01*
X89777685Y-61546450D01*
X89862379Y-61388000D01*
X89868769Y-61376046D01*
X89917732Y-61326202D01*
X89978127Y-61310500D01*
X91136789Y-61310500D01*
X91162234Y-61313138D01*
X91171315Y-61315043D01*
X91187005Y-61313087D01*
X91203939Y-61310977D01*
X91211615Y-61310500D01*
X91215035Y-61310500D01*
X91215040Y-61310500D01*
X91224303Y-61308954D01*
X91235278Y-61307123D01*
X91237811Y-61306753D01*
X91287393Y-61300573D01*
X91287399Y-61300569D01*
X91294451Y-61298470D01*
X91301377Y-61296092D01*
X91301381Y-61296092D01*
X91330266Y-61280459D01*
X91345329Y-61272308D01*
X91347590Y-61271143D01*
X91392484Y-61249198D01*
X91392487Y-61249194D01*
X91398453Y-61244935D01*
X91404254Y-61240419D01*
X91404258Y-61240418D01*
X91438101Y-61203653D01*
X91439826Y-61201854D01*
X93607821Y-59033860D01*
X93669142Y-59000377D01*
X93738834Y-59005361D01*
X93794767Y-59047233D01*
X93819184Y-59112697D01*
X93819500Y-59121543D01*
X93819500Y-59502678D01*
X93834032Y-59575735D01*
X93834033Y-59575739D01*
X93834034Y-59575740D01*
X93889399Y-59658601D01*
X93964124Y-59708530D01*
X93972260Y-59713966D01*
X93972264Y-59713967D01*
X94045321Y-59728499D01*
X94045324Y-59728500D01*
X94045326Y-59728500D01*
X95044676Y-59728500D01*
X95044677Y-59728499D01*
X95117740Y-59713966D01*
X95137162Y-59700989D01*
X95152259Y-59690902D01*
X95218936Y-59670024D01*
X95278775Y-59684208D01*
X95357823Y-59725696D01*
X95511203Y-59763500D01*
X95511204Y-59763500D01*
X95669174Y-59763500D01*
X95822554Y-59725696D01*
X95844907Y-59713964D01*
X95962429Y-59652283D01*
X96080672Y-59547530D01*
X96170409Y-59417523D01*
X96226426Y-59269818D01*
X96245467Y-59113000D01*
X96241509Y-59080398D01*
X96226426Y-58956181D01*
X96198363Y-58882185D01*
X96170409Y-58808477D01*
X96080672Y-58678470D01*
X95962429Y-58573717D01*
X95962427Y-58573716D01*
X95962426Y-58573715D01*
X95822554Y-58500303D01*
X95669175Y-58462500D01*
X95669174Y-58462500D01*
X95511204Y-58462500D01*
X95511203Y-58462500D01*
X95424174Y-58483950D01*
X95354372Y-58480880D01*
X95297310Y-58440560D01*
X95271105Y-58375791D01*
X95270500Y-58363553D01*
X95270500Y-58353325D01*
X95264385Y-58322584D01*
X95260328Y-58302188D01*
X95260328Y-58253810D01*
X95270500Y-58202674D01*
X95270500Y-57703326D01*
X95270500Y-57703325D01*
X95270500Y-57703323D01*
X95270499Y-57703321D01*
X95255967Y-57630264D01*
X95255966Y-57630260D01*
X95247860Y-57618129D01*
X95200601Y-57547399D01*
X95117740Y-57492034D01*
X95117739Y-57492033D01*
X95117735Y-57492032D01*
X95044677Y-57477500D01*
X95044674Y-57477500D01*
X95044500Y-57477500D01*
X95044410Y-57477473D01*
X95038614Y-57476903D01*
X95038722Y-57475803D01*
X94977461Y-57457815D01*
X94931706Y-57405011D01*
X94920500Y-57353500D01*
X94920500Y-56877803D01*
X94923139Y-56852358D01*
X94923355Y-56851328D01*
X94925367Y-56841732D01*
X94922971Y-56822511D01*
X94920977Y-56806507D01*
X94920500Y-56798831D01*
X94920500Y-56794889D01*
X94920499Y-56794883D01*
X94916870Y-56773138D01*
X94916500Y-56770598D01*
X94913802Y-56748958D01*
X94909866Y-56717374D01*
X94909864Y-56717370D01*
X94907622Y-56709840D01*
X94905065Y-56702395D01*
X94905065Y-56702390D01*
X94879536Y-56655217D01*
X94878404Y-56653018D01*
X94854826Y-56604789D01*
X94854824Y-56604787D01*
X94854824Y-56604786D01*
X94850276Y-56598416D01*
X94845420Y-56592176D01*
X94845419Y-56592174D01*
X94805946Y-56555836D01*
X94804148Y-56554111D01*
X94664517Y-56414480D01*
X94631032Y-56353157D01*
X94629102Y-56311857D01*
X94635278Y-56261000D01*
X94616237Y-56104182D01*
X94560220Y-55956477D01*
X94470483Y-55826470D01*
X94352240Y-55721717D01*
X94352238Y-55721716D01*
X94352237Y-55721715D01*
X94212365Y-55648303D01*
X94058986Y-55610500D01*
X94058985Y-55610500D01*
X93901015Y-55610500D01*
X93901014Y-55610500D01*
X93747634Y-55648303D01*
X93607762Y-55721715D01*
X93489516Y-55826471D01*
X93399781Y-55956475D01*
X93399780Y-55956476D01*
X93343762Y-56104181D01*
X93324722Y-56260999D01*
X93324722Y-56261000D01*
X93343762Y-56417818D01*
X93361458Y-56464477D01*
X93399780Y-56565523D01*
X93489517Y-56695530D01*
X93607760Y-56800283D01*
X93618306Y-56805818D01*
X93747634Y-56873696D01*
X93901014Y-56911500D01*
X94045500Y-56911500D01*
X94112539Y-56931185D01*
X94158294Y-56983989D01*
X94169500Y-57035500D01*
X94169500Y-57353500D01*
X94149815Y-57420539D01*
X94097011Y-57466294D01*
X94051320Y-57476233D01*
X94051386Y-57476903D01*
X94045645Y-57477468D01*
X94045500Y-57477500D01*
X94045323Y-57477500D01*
X93972264Y-57492032D01*
X93972260Y-57492033D01*
X93889399Y-57547399D01*
X93834033Y-57630260D01*
X93834032Y-57630264D01*
X93819500Y-57703321D01*
X93819500Y-58128500D01*
X93799815Y-58195539D01*
X93747011Y-58241294D01*
X93695500Y-58252500D01*
X93592206Y-58252500D01*
X93566761Y-58249861D01*
X93557685Y-58247958D01*
X93557682Y-58247958D01*
X93525068Y-58252023D01*
X93517392Y-58252500D01*
X93513960Y-58252500D01*
X93493716Y-58255877D01*
X93491193Y-58256245D01*
X93441606Y-58262426D01*
X93434575Y-58264519D01*
X93427618Y-58266907D01*
X93383687Y-58290682D01*
X93381411Y-58291853D01*
X93336513Y-58313803D01*
X93330566Y-58318048D01*
X93324739Y-58322584D01*
X93290913Y-58359329D01*
X93289139Y-58361177D01*
X91077137Y-60573181D01*
X91015814Y-60606666D01*
X90989456Y-60609500D01*
X89978127Y-60609500D01*
X89911088Y-60589815D01*
X89868769Y-60543954D01*
X89816505Y-60446177D01*
X89777685Y-60373550D01*
X89675102Y-60248551D01*
X89646410Y-60213589D01*
X89486452Y-60082317D01*
X89486453Y-60082317D01*
X89486450Y-60082315D01*
X89303954Y-59984768D01*
X89105934Y-59924700D01*
X89105932Y-59924699D01*
X89105934Y-59924699D01*
X88918463Y-59906235D01*
X88900000Y-59904417D01*
X88899999Y-59904417D01*
X88694067Y-59924699D01*
X88496043Y-59984769D01*
X88412127Y-60029624D01*
X88313550Y-60082315D01*
X88313548Y-60082316D01*
X88313547Y-60082317D01*
X88153589Y-60213589D01*
X88022317Y-60373547D01*
X88022315Y-60373550D01*
X88004124Y-60407583D01*
X87924769Y-60556043D01*
X87864699Y-60754067D01*
X87844417Y-60960000D01*
X86995500Y-60960000D01*
X86995500Y-58885701D01*
X87849500Y-58885701D01*
X87852401Y-58922567D01*
X87852402Y-58922573D01*
X87898254Y-59080393D01*
X87898255Y-59080396D01*
X87898256Y-59080398D01*
X87917536Y-59112999D01*
X87981917Y-59221862D01*
X87981923Y-59221870D01*
X88098129Y-59338076D01*
X88098133Y-59338079D01*
X88098135Y-59338081D01*
X88239602Y-59421744D01*
X88281224Y-59433836D01*
X88397426Y-59467597D01*
X88397429Y-59467597D01*
X88397431Y-59467598D01*
X88434306Y-59470500D01*
X88434314Y-59470500D01*
X89365686Y-59470500D01*
X89365694Y-59470500D01*
X89402569Y-59467598D01*
X89402571Y-59467597D01*
X89402573Y-59467597D01*
X89444899Y-59455300D01*
X89560398Y-59421744D01*
X89701865Y-59338081D01*
X89818081Y-59221865D01*
X89901744Y-59080398D01*
X89947598Y-58922569D01*
X89950500Y-58885694D01*
X89950500Y-57954306D01*
X89947598Y-57917431D01*
X89945120Y-57908903D01*
X89901745Y-57759606D01*
X89901744Y-57759603D01*
X89901744Y-57759602D01*
X89818081Y-57618135D01*
X89818079Y-57618133D01*
X89818076Y-57618129D01*
X89701870Y-57501923D01*
X89701862Y-57501917D01*
X89605229Y-57444769D01*
X89560398Y-57418256D01*
X89560397Y-57418255D01*
X89560396Y-57418255D01*
X89560393Y-57418254D01*
X89402573Y-57372402D01*
X89402567Y-57372401D01*
X89365701Y-57369500D01*
X89365694Y-57369500D01*
X88434306Y-57369500D01*
X88434298Y-57369500D01*
X88397432Y-57372401D01*
X88397426Y-57372402D01*
X88239606Y-57418254D01*
X88239603Y-57418255D01*
X88098137Y-57501917D01*
X88098129Y-57501923D01*
X87981923Y-57618129D01*
X87981917Y-57618137D01*
X87898255Y-57759603D01*
X87898254Y-57759606D01*
X87852402Y-57917426D01*
X87852401Y-57917432D01*
X87849500Y-57954298D01*
X87849500Y-58885701D01*
X86995500Y-58885701D01*
X86995500Y-57786279D01*
X86995553Y-57783716D01*
X86996608Y-57758213D01*
X87004497Y-57567467D01*
X87005374Y-57547399D01*
X87013457Y-57362263D01*
X87013869Y-57357349D01*
X87041064Y-57139185D01*
X87068059Y-56934141D01*
X87068835Y-56929588D01*
X87113906Y-56714633D01*
X87158769Y-56512271D01*
X87159865Y-56508044D01*
X87222547Y-56297500D01*
X87284946Y-56099599D01*
X87286282Y-56095809D01*
X87365962Y-55891604D01*
X87366333Y-55890683D01*
X87445648Y-55699200D01*
X87447200Y-55695757D01*
X87543448Y-55498879D01*
X87544038Y-55497711D01*
X87639754Y-55313843D01*
X87641407Y-55310878D01*
X87753586Y-55122618D01*
X87754436Y-55121238D01*
X87865772Y-54946476D01*
X87867577Y-54943800D01*
X87994870Y-54765516D01*
X87996078Y-54763884D01*
X88122186Y-54599537D01*
X88123997Y-54597291D01*
X88265566Y-54430140D01*
X88267097Y-54428402D01*
X88407106Y-54275610D01*
X88408852Y-54273785D01*
X88563785Y-54118852D01*
X88565610Y-54117106D01*
X88718402Y-53977097D01*
X88720155Y-53975554D01*
X88887291Y-53833997D01*
X88889537Y-53832186D01*
X89053884Y-53706078D01*
X89055516Y-53704870D01*
X89233800Y-53577577D01*
X89236484Y-53575767D01*
X89411238Y-53464436D01*
X89412618Y-53463586D01*
X89600878Y-53351407D01*
X89603843Y-53349754D01*
X89787711Y-53254038D01*
X89788879Y-53253448D01*
X89985757Y-53157200D01*
X89989200Y-53155648D01*
X90180683Y-53076333D01*
X90181604Y-53075962D01*
X90385809Y-52996282D01*
X90389599Y-52994946D01*
X90587500Y-52932547D01*
X90798044Y-52869865D01*
X90802271Y-52868769D01*
X91004633Y-52823906D01*
X91219588Y-52778835D01*
X91224141Y-52778059D01*
X91429185Y-52751064D01*
X91647349Y-52723869D01*
X91652263Y-52723457D01*
X91857682Y-52714488D01*
X92073720Y-52705552D01*
X92076280Y-52705500D01*
X99960176Y-52705500D01*
X100027215Y-52725185D01*
G37*
%TD.AperFunction*%
%TA.AperFunction,Conductor*%
G36*
X102348045Y-85109532D02*
G01*
X102393800Y-85162336D01*
X102403744Y-85231494D01*
X102396948Y-85257819D01*
X102387575Y-85282530D01*
X102368535Y-85439347D01*
X102368535Y-85439348D01*
X102387575Y-85596166D01*
X102443593Y-85743871D01*
X102443594Y-85743872D01*
X102528119Y-85866329D01*
X102550002Y-85932684D01*
X102532536Y-86000335D01*
X102526268Y-86008904D01*
X102526485Y-86009054D01*
X102441581Y-86132058D01*
X102387298Y-86176048D01*
X102317849Y-86183708D01*
X102309857Y-86182015D01*
X102152732Y-86143288D01*
X102152731Y-86143288D01*
X101994761Y-86143288D01*
X101994760Y-86143288D01*
X101841380Y-86181091D01*
X101701508Y-86254503D01*
X101583262Y-86359259D01*
X101493527Y-86489263D01*
X101493526Y-86489264D01*
X101437508Y-86636969D01*
X101418468Y-86793787D01*
X101418468Y-86793788D01*
X101437508Y-86950606D01*
X101493525Y-87098310D01*
X101493526Y-87098311D01*
X101495727Y-87101500D01*
X101516554Y-87131673D01*
X101538437Y-87198028D01*
X101520972Y-87265679D01*
X101496732Y-87294928D01*
X101434008Y-87350496D01*
X101344273Y-87480501D01*
X101344272Y-87480502D01*
X101288254Y-87628207D01*
X101269214Y-87785025D01*
X101269214Y-87785026D01*
X101288254Y-87941844D01*
X101344271Y-88089549D01*
X101344272Y-88089549D01*
X101434009Y-88219556D01*
X101552252Y-88324309D01*
X101552254Y-88324310D01*
X101692126Y-88397722D01*
X101845506Y-88435526D01*
X101845507Y-88435526D01*
X102003478Y-88435526D01*
X102010923Y-88434622D01*
X102011329Y-88437967D01*
X102065951Y-88440247D01*
X102108637Y-88466793D01*
X102109253Y-88466067D01*
X102113155Y-88469373D01*
X102121876Y-88475599D01*
X102129880Y-88481313D01*
X102131887Y-88482809D01*
X102171340Y-88513517D01*
X102171342Y-88513517D01*
X102177823Y-88517025D01*
X102184399Y-88520240D01*
X102232288Y-88534497D01*
X102234708Y-88535272D01*
X102281978Y-88551500D01*
X102281980Y-88551500D01*
X102289217Y-88552707D01*
X102296512Y-88553617D01*
X102346416Y-88551552D01*
X102348977Y-88551500D01*
X103755500Y-88551500D01*
X103822539Y-88571185D01*
X103868294Y-88623989D01*
X103879500Y-88675500D01*
X103879500Y-89076678D01*
X103890068Y-89129808D01*
X103890069Y-89178189D01*
X103879500Y-89231326D01*
X103879500Y-89710678D01*
X103894032Y-89783735D01*
X103894033Y-89783739D01*
X103907954Y-89804573D01*
X103949399Y-89866601D01*
X103996582Y-89898127D01*
X104032260Y-89921966D01*
X104032264Y-89921967D01*
X104105321Y-89936499D01*
X104105324Y-89936500D01*
X104105326Y-89936500D01*
X105954676Y-89936500D01*
X105954677Y-89936499D01*
X106027740Y-89921966D01*
X106110601Y-89866601D01*
X106165966Y-89783740D01*
X106180500Y-89710674D01*
X106180500Y-89231326D01*
X106180499Y-89231326D01*
X106180500Y-89231323D01*
X106169931Y-89178192D01*
X106169931Y-89129808D01*
X106180500Y-89076676D01*
X106180500Y-88597326D01*
X106175300Y-88571185D01*
X106169730Y-88543187D01*
X106169730Y-88494812D01*
X106180500Y-88440674D01*
X106180500Y-87961326D01*
X106180500Y-87961323D01*
X106169931Y-87908192D01*
X106169931Y-87859808D01*
X106180500Y-87806676D01*
X106180500Y-87327323D01*
X106180499Y-87327321D01*
X106165967Y-87254264D01*
X106165966Y-87254260D01*
X106140736Y-87216500D01*
X106110601Y-87171399D01*
X106027740Y-87116034D01*
X106027739Y-87116033D01*
X106027735Y-87116032D01*
X105954677Y-87101500D01*
X105954674Y-87101500D01*
X104105326Y-87101500D01*
X104105323Y-87101500D01*
X104032264Y-87116032D01*
X104032260Y-87116033D01*
X103949396Y-87171401D01*
X103940763Y-87180035D01*
X103937599Y-87176871D01*
X103902234Y-87206300D01*
X103852984Y-87216500D01*
X103453344Y-87216500D01*
X103386305Y-87196815D01*
X103340550Y-87144011D01*
X103330606Y-87074853D01*
X103359631Y-87011297D01*
X103382905Y-86990449D01*
X103384936Y-86989045D01*
X103384947Y-86989040D01*
X103503190Y-86884287D01*
X103592927Y-86754280D01*
X103603072Y-86727528D01*
X103645250Y-86671826D01*
X103710847Y-86647769D01*
X103719014Y-86647500D01*
X103852984Y-86647500D01*
X103920023Y-86667185D01*
X103938970Y-86685757D01*
X103940763Y-86683965D01*
X103949396Y-86692598D01*
X103949397Y-86692599D01*
X103949399Y-86692601D01*
X104032260Y-86747966D01*
X104032264Y-86747967D01*
X104105321Y-86762499D01*
X104105324Y-86762500D01*
X104105326Y-86762500D01*
X105954676Y-86762500D01*
X105954677Y-86762499D01*
X106027740Y-86747966D01*
X106110601Y-86692601D01*
X106165966Y-86609740D01*
X106180500Y-86536674D01*
X106180500Y-86057326D01*
X106169730Y-86003187D01*
X106169730Y-85954812D01*
X106180500Y-85900674D01*
X106180500Y-85570175D01*
X106200185Y-85503136D01*
X106252989Y-85457381D01*
X106267958Y-85451682D01*
X106272675Y-85450227D01*
X106280527Y-85447479D01*
X106280527Y-85447478D01*
X106280531Y-85447478D01*
X106330929Y-85420840D01*
X106332975Y-85419808D01*
X106334285Y-85419177D01*
X106384346Y-85395070D01*
X106384348Y-85395067D01*
X106391204Y-85390393D01*
X106397932Y-85385429D01*
X106407313Y-85376048D01*
X106438237Y-85345122D01*
X106439861Y-85343557D01*
X106479338Y-85306929D01*
X106541867Y-85275763D01*
X106597609Y-85280798D01*
X106597962Y-85279306D01*
X106605513Y-85281089D01*
X106605517Y-85281091D01*
X106665127Y-85287500D01*
X107710872Y-85287499D01*
X107770483Y-85281091D01*
X107905331Y-85230796D01*
X108020546Y-85144546D01*
X108020547Y-85144544D01*
X108020549Y-85144543D01*
X108026818Y-85138275D01*
X108027913Y-85139370D01*
X108075892Y-85103447D01*
X108145583Y-85098455D01*
X108148861Y-85099215D01*
X108277415Y-85130900D01*
X108435387Y-85130900D01*
X108435387Y-85130899D01*
X108442027Y-85129262D01*
X108448471Y-85127675D01*
X108518274Y-85130743D01*
X108565829Y-85160390D01*
X108706955Y-85301516D01*
X108711591Y-85306704D01*
X108724204Y-85322519D01*
X108735399Y-85336557D01*
X108782521Y-85368684D01*
X108784370Y-85369996D01*
X108798716Y-85380584D01*
X108830241Y-85403851D01*
X108837616Y-85407748D01*
X108845113Y-85411359D01*
X108845115Y-85411360D01*
X108899595Y-85428164D01*
X108901737Y-85428869D01*
X108955581Y-85447711D01*
X108955583Y-85447711D01*
X108963740Y-85449254D01*
X108972002Y-85450500D01*
X108972005Y-85450500D01*
X109028985Y-85450500D01*
X109031267Y-85450542D01*
X109088278Y-85452675D01*
X109097512Y-85451635D01*
X109097608Y-85452489D01*
X109112722Y-85450500D01*
X112026520Y-85450500D01*
X112224688Y-85450500D01*
X112231626Y-85450889D01*
X112262961Y-85454420D01*
X112269571Y-85455165D01*
X112269571Y-85455164D01*
X112269572Y-85455165D01*
X112282800Y-85452662D01*
X112305855Y-85450500D01*
X112385500Y-85450500D01*
X112452539Y-85470185D01*
X112498294Y-85522989D01*
X112509500Y-85574500D01*
X112509500Y-87902585D01*
X112489815Y-87969624D01*
X112437011Y-88015379D01*
X112367853Y-88025323D01*
X112327047Y-88011943D01*
X112163958Y-87924769D01*
X112029558Y-87884000D01*
X111965934Y-87864700D01*
X111965932Y-87864699D01*
X111965934Y-87864699D01*
X111760000Y-87844417D01*
X111554067Y-87864699D01*
X111356043Y-87924769D01*
X111324099Y-87941844D01*
X111173550Y-88022315D01*
X111173548Y-88022316D01*
X111173547Y-88022317D01*
X111013589Y-88153589D01*
X110882317Y-88313547D01*
X110784769Y-88496043D01*
X110784769Y-88496044D01*
X110784768Y-88496046D01*
X110779469Y-88513516D01*
X110724699Y-88694067D01*
X110704417Y-88899999D01*
X110724699Y-89105932D01*
X110724700Y-89105934D01*
X110784768Y-89303954D01*
X110882315Y-89486450D01*
X110882317Y-89486452D01*
X111013589Y-89646410D01*
X111077375Y-89698757D01*
X111173550Y-89777685D01*
X111356046Y-89875232D01*
X111554066Y-89935300D01*
X111554065Y-89935300D01*
X111574347Y-89937297D01*
X111760000Y-89955583D01*
X111965934Y-89935300D01*
X112163954Y-89875232D01*
X112327048Y-89788055D01*
X112395449Y-89773814D01*
X112460693Y-89798814D01*
X112502064Y-89855118D01*
X112509500Y-89897414D01*
X112509500Y-90442585D01*
X112489815Y-90509624D01*
X112437011Y-90555379D01*
X112367853Y-90565323D01*
X112327047Y-90551943D01*
X112163958Y-90464769D01*
X112043602Y-90428260D01*
X111965934Y-90404700D01*
X111965932Y-90404699D01*
X111965934Y-90404699D01*
X111760000Y-90384417D01*
X111554067Y-90404699D01*
X111356043Y-90464769D01*
X111287657Y-90501323D01*
X111173550Y-90562315D01*
X111173548Y-90562316D01*
X111173547Y-90562317D01*
X111013589Y-90693589D01*
X110882317Y-90853547D01*
X110784769Y-91036043D01*
X110724699Y-91234067D01*
X110704417Y-91439999D01*
X110724699Y-91645932D01*
X110746262Y-91717016D01*
X110784768Y-91843954D01*
X110882315Y-92026450D01*
X110882317Y-92026452D01*
X111013589Y-92186410D01*
X111110209Y-92265702D01*
X111173550Y-92317685D01*
X111356046Y-92415232D01*
X111554066Y-92475300D01*
X111554065Y-92475300D01*
X111572529Y-92477118D01*
X111760000Y-92495583D01*
X111965934Y-92475300D01*
X112163954Y-92415232D01*
X112327048Y-92328055D01*
X112395449Y-92313814D01*
X112460693Y-92338814D01*
X112502064Y-92395118D01*
X112509500Y-92437414D01*
X112509500Y-92982585D01*
X112489815Y-93049624D01*
X112437011Y-93095379D01*
X112367853Y-93105323D01*
X112327047Y-93091943D01*
X112163958Y-93004769D01*
X112029558Y-92964000D01*
X111965934Y-92944700D01*
X111965932Y-92944699D01*
X111965934Y-92944699D01*
X111778463Y-92926235D01*
X111760000Y-92924417D01*
X111759999Y-92924417D01*
X111554067Y-92944699D01*
X111356043Y-93004769D01*
X111287657Y-93041323D01*
X111173550Y-93102315D01*
X111173548Y-93102316D01*
X111173547Y-93102317D01*
X111013589Y-93233589D01*
X110882317Y-93393547D01*
X110882315Y-93393550D01*
X110843643Y-93465897D01*
X110784769Y-93576043D01*
X110784768Y-93576045D01*
X110784768Y-93576046D01*
X110782205Y-93584495D01*
X110724699Y-93774067D01*
X110704417Y-93980000D01*
X110724699Y-94185932D01*
X110740573Y-94238260D01*
X110784768Y-94383954D01*
X110882315Y-94566450D01*
X110904908Y-94593980D01*
X111013589Y-94726410D01*
X111110209Y-94805702D01*
X111173550Y-94857685D01*
X111356046Y-94955232D01*
X111554066Y-95015300D01*
X111554065Y-95015300D01*
X111572529Y-95017118D01*
X111760000Y-95035583D01*
X111965934Y-95015300D01*
X112163954Y-94955232D01*
X112327048Y-94868055D01*
X112395449Y-94853814D01*
X112460693Y-94878814D01*
X112502064Y-94935118D01*
X112509500Y-94977414D01*
X112509500Y-95378989D01*
X112489815Y-95446028D01*
X112437011Y-95491783D01*
X112367853Y-95501727D01*
X112350906Y-95498066D01*
X112262567Y-95472401D01*
X112225701Y-95469500D01*
X112225694Y-95469500D01*
X111294306Y-95469500D01*
X111294298Y-95469500D01*
X111257432Y-95472401D01*
X111257426Y-95472402D01*
X111099606Y-95518254D01*
X111099603Y-95518255D01*
X110958137Y-95601917D01*
X110958129Y-95601923D01*
X110841923Y-95718129D01*
X110841917Y-95718137D01*
X110758255Y-95859603D01*
X110758254Y-95859606D01*
X110712402Y-96017426D01*
X110712401Y-96017432D01*
X110709500Y-96054298D01*
X110709500Y-96985701D01*
X110712401Y-97022567D01*
X110712402Y-97022573D01*
X110758254Y-97180393D01*
X110758255Y-97180396D01*
X110758256Y-97180398D01*
X110782568Y-97221508D01*
X110841917Y-97321862D01*
X110841923Y-97321870D01*
X110958129Y-97438076D01*
X110958133Y-97438079D01*
X110958135Y-97438081D01*
X111099602Y-97521744D01*
X111114365Y-97526033D01*
X111257426Y-97567597D01*
X111257429Y-97567597D01*
X111257431Y-97567598D01*
X111294306Y-97570500D01*
X111819177Y-97570500D01*
X111886216Y-97590185D01*
X111931971Y-97642989D01*
X111941915Y-97712147D01*
X111912890Y-97775703D01*
X111906858Y-97782181D01*
X109663858Y-100025181D01*
X109602535Y-100058666D01*
X109576177Y-100061500D01*
X107572666Y-100061500D01*
X107505627Y-100041815D01*
X107473399Y-100011811D01*
X107471796Y-100009670D01*
X107471796Y-100009669D01*
X107385546Y-99894454D01*
X107340294Y-99860578D01*
X107270335Y-99808206D01*
X107270328Y-99808202D01*
X107135482Y-99757908D01*
X107135483Y-99757908D01*
X107075883Y-99751501D01*
X107075881Y-99751500D01*
X107075873Y-99751500D01*
X107075865Y-99751500D01*
X106476823Y-99751500D01*
X106409784Y-99731815D01*
X106389142Y-99715181D01*
X105000443Y-98326482D01*
X104995806Y-98321294D01*
X104972001Y-98291443D01*
X104972000Y-98291442D01*
X104971999Y-98291441D01*
X104924893Y-98259324D01*
X104923003Y-98257983D01*
X104888743Y-98232699D01*
X104877157Y-98224148D01*
X104877154Y-98224147D01*
X104873052Y-98221979D01*
X104827892Y-98181238D01*
X104798601Y-98137399D01*
X104715740Y-98082034D01*
X104715739Y-98082033D01*
X104715735Y-98082032D01*
X104642677Y-98067500D01*
X104642674Y-98067500D01*
X103443326Y-98067500D01*
X103443323Y-98067500D01*
X103370264Y-98082032D01*
X103370260Y-98082033D01*
X103287399Y-98137399D01*
X103232033Y-98220260D01*
X103232032Y-98220264D01*
X103217500Y-98293321D01*
X103217500Y-98942678D01*
X103232032Y-99015735D01*
X103232033Y-99015739D01*
X103232034Y-99015740D01*
X103287399Y-99098601D01*
X103370259Y-99153966D01*
X103370260Y-99153966D01*
X103370264Y-99153967D01*
X103443321Y-99168499D01*
X103443324Y-99168500D01*
X103443326Y-99168500D01*
X104545177Y-99168500D01*
X104612216Y-99188185D01*
X104632858Y-99204819D01*
X105541181Y-100113142D01*
X105574666Y-100174465D01*
X105577500Y-100200823D01*
X105577500Y-100803174D01*
X105557815Y-100870213D01*
X105541185Y-100890852D01*
X105516861Y-100915178D01*
X105455539Y-100948665D01*
X105429176Y-100951500D01*
X104992500Y-100951500D01*
X104925461Y-100931815D01*
X104879706Y-100879011D01*
X104868500Y-100827500D01*
X104868500Y-100193323D01*
X104868499Y-100193321D01*
X104853967Y-100120264D01*
X104853966Y-100120260D01*
X104814704Y-100061500D01*
X104798601Y-100037399D01*
X104715740Y-99982034D01*
X104715739Y-99982033D01*
X104715735Y-99982032D01*
X104642677Y-99967500D01*
X104642674Y-99967500D01*
X103443326Y-99967500D01*
X103443323Y-99967500D01*
X103370264Y-99982032D01*
X103370260Y-99982033D01*
X103287399Y-100037399D01*
X103232033Y-100120260D01*
X103232032Y-100120264D01*
X103217500Y-100193321D01*
X103217500Y-100827500D01*
X103197815Y-100894539D01*
X103145011Y-100940294D01*
X103093500Y-100951500D01*
X102392500Y-100951500D01*
X102325461Y-100931815D01*
X102279706Y-100879011D01*
X102268500Y-100827500D01*
X102268500Y-100193323D01*
X102268499Y-100193321D01*
X102253967Y-100120264D01*
X102253966Y-100120260D01*
X102214704Y-100061500D01*
X102198601Y-100037399D01*
X102115740Y-99982034D01*
X102115739Y-99982033D01*
X102115735Y-99982032D01*
X102042677Y-99967500D01*
X102042674Y-99967500D01*
X101042500Y-99967500D01*
X100975461Y-99947815D01*
X100929706Y-99895011D01*
X100918500Y-99843500D01*
X100918500Y-99504603D01*
X100921610Y-99477008D01*
X100922230Y-99474290D01*
X100919841Y-99442415D01*
X100918672Y-99426814D01*
X100918500Y-99422196D01*
X100918500Y-99292500D01*
X100938185Y-99225461D01*
X100990989Y-99179706D01*
X101042500Y-99168500D01*
X102042676Y-99168500D01*
X102042677Y-99168499D01*
X102115740Y-99153966D01*
X102198601Y-99098601D01*
X102253966Y-99015740D01*
X102268500Y-98942674D01*
X102268500Y-98293326D01*
X102268500Y-98293325D01*
X102268500Y-98293323D01*
X102268499Y-98293321D01*
X102253967Y-98220264D01*
X102253966Y-98220260D01*
X102248760Y-98212468D01*
X102198601Y-98137399D01*
X102115740Y-98082034D01*
X102115739Y-98082033D01*
X102115735Y-98082032D01*
X102042677Y-98067500D01*
X102042674Y-98067500D01*
X100843326Y-98067500D01*
X100843323Y-98067500D01*
X100770264Y-98082032D01*
X100770260Y-98082033D01*
X100687397Y-98137400D01*
X100683613Y-98141185D01*
X100622288Y-98174667D01*
X100595935Y-98177500D01*
X100516227Y-98177500D01*
X100509288Y-98177110D01*
X100495025Y-98175503D01*
X100471342Y-98172834D01*
X100415347Y-98183430D01*
X100413062Y-98183818D01*
X100356692Y-98192315D01*
X100348758Y-98194762D01*
X100340867Y-98197523D01*
X100290495Y-98224145D01*
X100288427Y-98225189D01*
X100237051Y-98249931D01*
X100230206Y-98254597D01*
X100223465Y-98259573D01*
X100186480Y-98296557D01*
X100181294Y-98301192D01*
X100151442Y-98324999D01*
X100151440Y-98325001D01*
X100151190Y-98325369D01*
X100144996Y-98332593D01*
X100145499Y-98332994D01*
X100139710Y-98340253D01*
X100133508Y-98350993D01*
X100131046Y-98354912D01*
X100119331Y-98372097D01*
X100117988Y-98373990D01*
X100084147Y-98419844D01*
X100080248Y-98427221D01*
X100076640Y-98434715D01*
X100059841Y-98489172D01*
X100059117Y-98491372D01*
X100040290Y-98545178D01*
X100038745Y-98553340D01*
X100037500Y-98561605D01*
X100037500Y-98618595D01*
X100037457Y-98620879D01*
X100036651Y-98642438D01*
X100035324Y-98677877D01*
X100036365Y-98687110D01*
X100035508Y-98687206D01*
X100037500Y-98702319D01*
X100037500Y-98881713D01*
X100017815Y-98948752D01*
X99965011Y-98994507D01*
X99936554Y-99003551D01*
X99921320Y-99006434D01*
X99919035Y-99006822D01*
X99862692Y-99015315D01*
X99854714Y-99017776D01*
X99846868Y-99020522D01*
X99796493Y-99047145D01*
X99794426Y-99048188D01*
X99743053Y-99072929D01*
X99736197Y-99077603D01*
X99729464Y-99082573D01*
X99689185Y-99122852D01*
X99687517Y-99124459D01*
X99645710Y-99163251D01*
X99639919Y-99170514D01*
X99639249Y-99169980D01*
X99629968Y-99182069D01*
X99096856Y-99715181D01*
X99035533Y-99748666D01*
X99009175Y-99751500D01*
X98410129Y-99751500D01*
X98410123Y-99751501D01*
X98350516Y-99757908D01*
X98215671Y-99808202D01*
X98215668Y-99808204D01*
X98137091Y-99867027D01*
X98071626Y-99891444D01*
X98003353Y-99876592D01*
X97980558Y-99860580D01*
X97959040Y-99841517D01*
X97959035Y-99841514D01*
X97959032Y-99841512D01*
X97819165Y-99768103D01*
X97665786Y-99730300D01*
X97665785Y-99730300D01*
X97507815Y-99730300D01*
X97507814Y-99730300D01*
X97354434Y-99768103D01*
X97214562Y-99841515D01*
X97138256Y-99909116D01*
X97075022Y-99938837D01*
X97056029Y-99940300D01*
X96042623Y-99940300D01*
X95975584Y-99920615D01*
X95954942Y-99903981D01*
X95117219Y-99066258D01*
X95083734Y-99004935D01*
X95080900Y-98978577D01*
X95080900Y-98058785D01*
X95100585Y-97991746D01*
X95102832Y-97988370D01*
X95169820Y-97891323D01*
X95225837Y-97743618D01*
X95244878Y-97586800D01*
X95242547Y-97567598D01*
X95225837Y-97429981D01*
X95192055Y-97340906D01*
X95169820Y-97282277D01*
X95080083Y-97152270D01*
X94961840Y-97047517D01*
X94961838Y-97047516D01*
X94961837Y-97047515D01*
X94821965Y-96974103D01*
X94668586Y-96936300D01*
X94668585Y-96936300D01*
X94510615Y-96936300D01*
X94510614Y-96936300D01*
X94357234Y-96974103D01*
X94217362Y-97047515D01*
X94099116Y-97152271D01*
X94009381Y-97282275D01*
X94009380Y-97282276D01*
X93953362Y-97429981D01*
X93934322Y-97586799D01*
X93934322Y-97586800D01*
X93953362Y-97743618D01*
X94009380Y-97891323D01*
X94009381Y-97891324D01*
X94099115Y-98021328D01*
X94099116Y-98021329D01*
X94099117Y-98021330D01*
X94158127Y-98073607D01*
X94195253Y-98132794D01*
X94199900Y-98166422D01*
X94199900Y-99184171D01*
X94199510Y-99191119D01*
X94195234Y-99229056D01*
X94201128Y-99260205D01*
X94205838Y-99285098D01*
X94206221Y-99287352D01*
X94214715Y-99343705D01*
X94217181Y-99351701D01*
X94219921Y-99359530D01*
X94246545Y-99409904D01*
X94247590Y-99411974D01*
X94272330Y-99463348D01*
X94276986Y-99470178D01*
X94281969Y-99476928D01*
X94281971Y-99476932D01*
X94322276Y-99517237D01*
X94323859Y-99518881D01*
X94362650Y-99560687D01*
X94369916Y-99566481D01*
X94369378Y-99567154D01*
X94381472Y-99576433D01*
X95477355Y-100672316D01*
X95481991Y-100677504D01*
X95498751Y-100698520D01*
X95505799Y-100707357D01*
X95516690Y-100714782D01*
X95531745Y-100725047D01*
X95576047Y-100779076D01*
X95584105Y-100848479D01*
X95553362Y-100911222D01*
X95493579Y-100947383D01*
X95461893Y-100951500D01*
X92126223Y-100951500D01*
X92059184Y-100931815D01*
X92038542Y-100915181D01*
X88902357Y-97778996D01*
X88868872Y-97717673D01*
X88873856Y-97647981D01*
X88915728Y-97592048D01*
X88977884Y-97567912D01*
X89020841Y-97563681D01*
X89105934Y-97555300D01*
X89303954Y-97495232D01*
X89486450Y-97397685D01*
X89646410Y-97266410D01*
X89777685Y-97106450D01*
X89854276Y-96963158D01*
X89868769Y-96936046D01*
X89917732Y-96886202D01*
X89978127Y-96870500D01*
X90120789Y-96870500D01*
X90146234Y-96873138D01*
X90155315Y-96875043D01*
X90171005Y-96873087D01*
X90187939Y-96870977D01*
X90195615Y-96870500D01*
X90199035Y-96870500D01*
X90199040Y-96870500D01*
X90208303Y-96868954D01*
X90219278Y-96867123D01*
X90221811Y-96866753D01*
X90271393Y-96860573D01*
X90271399Y-96860569D01*
X90278451Y-96858470D01*
X90285377Y-96856092D01*
X90285381Y-96856092D01*
X90314266Y-96840459D01*
X90329329Y-96832308D01*
X90331590Y-96831143D01*
X90376484Y-96809198D01*
X90376487Y-96809194D01*
X90382453Y-96804935D01*
X90388254Y-96800419D01*
X90388258Y-96800418D01*
X90422101Y-96763653D01*
X90423826Y-96761854D01*
X90844775Y-96340907D01*
X90844774Y-96340907D01*
X90903343Y-96282338D01*
X91611862Y-95573819D01*
X91673186Y-95540334D01*
X91699544Y-95537500D01*
X94355500Y-95537500D01*
X94422539Y-95557185D01*
X94468294Y-95609989D01*
X94479500Y-95661500D01*
X94479500Y-96060678D01*
X94494032Y-96133735D01*
X94494033Y-96133739D01*
X94494034Y-96133740D01*
X94549399Y-96216601D01*
X94619446Y-96263404D01*
X94632260Y-96271966D01*
X94632264Y-96271967D01*
X94705321Y-96286499D01*
X94705324Y-96286500D01*
X94705326Y-96286500D01*
X96023035Y-96286500D01*
X96090074Y-96306185D01*
X96110716Y-96322819D01*
X96824397Y-97036499D01*
X96857882Y-97097822D01*
X96859812Y-97139125D01*
X96849810Y-97221508D01*
X96849810Y-97221509D01*
X96868850Y-97378327D01*
X96905185Y-97474132D01*
X96924868Y-97526032D01*
X97014605Y-97656039D01*
X97132848Y-97760792D01*
X97132850Y-97760793D01*
X97272722Y-97834205D01*
X97426102Y-97872009D01*
X97426103Y-97872009D01*
X97584073Y-97872009D01*
X97737453Y-97834205D01*
X97737453Y-97834204D01*
X97877328Y-97760792D01*
X97995571Y-97656039D01*
X98085308Y-97526032D01*
X98141325Y-97378327D01*
X98160366Y-97221509D01*
X98155492Y-97181371D01*
X98142371Y-97073305D01*
X98153831Y-97004382D01*
X98200735Y-96952596D01*
X98207841Y-96948563D01*
X98254729Y-96923954D01*
X98344704Y-96876731D01*
X98462947Y-96771978D01*
X98483977Y-96741509D01*
X98538259Y-96697518D01*
X98586028Y-96687948D01*
X102483991Y-96687948D01*
X102509436Y-96690586D01*
X102518517Y-96692491D01*
X102534207Y-96690535D01*
X102551141Y-96688425D01*
X102558817Y-96687948D01*
X102562237Y-96687948D01*
X102562242Y-96687948D01*
X102571505Y-96686402D01*
X102582480Y-96684571D01*
X102585013Y-96684201D01*
X102634595Y-96678021D01*
X102634601Y-96678017D01*
X102641653Y-96675918D01*
X102648579Y-96673540D01*
X102648583Y-96673540D01*
X102677468Y-96657907D01*
X102692531Y-96649756D01*
X102694792Y-96648591D01*
X102739686Y-96626646D01*
X102739689Y-96626642D01*
X102745655Y-96622383D01*
X102751456Y-96617867D01*
X102751460Y-96617866D01*
X102785303Y-96581101D01*
X102787028Y-96579302D01*
X103778887Y-95587444D01*
X103840206Y-95553962D01*
X103909898Y-95558946D01*
X103938313Y-95577207D01*
X103939244Y-95575815D01*
X103949398Y-95582599D01*
X103949399Y-95582601D01*
X103990389Y-95609989D01*
X104032260Y-95637966D01*
X104032264Y-95637967D01*
X104105321Y-95652499D01*
X104105324Y-95652500D01*
X104105326Y-95652500D01*
X105954676Y-95652500D01*
X105954677Y-95652499D01*
X106027740Y-95637966D01*
X106110601Y-95582601D01*
X106165966Y-95499740D01*
X106180500Y-95426674D01*
X106180500Y-94947326D01*
X106180499Y-94947326D01*
X106180500Y-94947323D01*
X106169732Y-94893191D01*
X106169732Y-94844806D01*
X106170027Y-94843323D01*
X106180500Y-94790674D01*
X106180500Y-94311326D01*
X106180499Y-94311325D01*
X106180500Y-94311323D01*
X106180499Y-94311321D01*
X106165967Y-94238264D01*
X106165966Y-94238260D01*
X106149546Y-94213686D01*
X106110601Y-94155399D01*
X106027740Y-94100034D01*
X106027739Y-94100033D01*
X106027735Y-94100032D01*
X105954677Y-94085500D01*
X105954674Y-94085500D01*
X104105326Y-94085500D01*
X104105323Y-94085500D01*
X104032264Y-94100032D01*
X104032260Y-94100033D01*
X103949396Y-94155401D01*
X103940763Y-94164035D01*
X103937599Y-94160871D01*
X103902234Y-94190300D01*
X103852984Y-94200500D01*
X103803170Y-94200500D01*
X103777725Y-94197861D01*
X103768649Y-94195958D01*
X103768646Y-94195958D01*
X103736032Y-94200023D01*
X103728356Y-94200500D01*
X103724924Y-94200500D01*
X103704680Y-94203877D01*
X103702157Y-94204245D01*
X103652570Y-94210426D01*
X103645539Y-94212519D01*
X103638582Y-94214907D01*
X103594651Y-94238682D01*
X103592375Y-94239853D01*
X103547477Y-94261803D01*
X103541530Y-94266048D01*
X103535703Y-94270584D01*
X103501877Y-94307329D01*
X103500103Y-94309177D01*
X102624528Y-95184754D01*
X102563205Y-95218239D01*
X102536847Y-95221073D01*
X99286028Y-95221073D01*
X99218989Y-95201388D01*
X99183977Y-95167511D01*
X99162948Y-95137044D01*
X99096394Y-95078083D01*
X99044704Y-95032290D01*
X99044702Y-95032289D01*
X99044701Y-95032288D01*
X98904829Y-94958876D01*
X98751450Y-94921073D01*
X98751449Y-94921073D01*
X98593479Y-94921073D01*
X98593478Y-94921073D01*
X98440098Y-94958876D01*
X98300226Y-95032288D01*
X98181980Y-95137044D01*
X98092245Y-95267048D01*
X98092244Y-95267049D01*
X98036227Y-95414754D01*
X98034779Y-95426678D01*
X98018720Y-95558946D01*
X98016419Y-95577894D01*
X97988797Y-95642072D01*
X97930864Y-95681129D01*
X97900891Y-95685774D01*
X97900924Y-95686044D01*
X97893478Y-95686947D01*
X97740098Y-95724751D01*
X97600226Y-95798163D01*
X97481980Y-95902919D01*
X97392245Y-96032923D01*
X97392244Y-96032924D01*
X97336227Y-96180628D01*
X97326176Y-96263404D01*
X97298554Y-96327582D01*
X97240619Y-96366638D01*
X97170767Y-96368173D01*
X97115399Y-96336138D01*
X97065761Y-96286500D01*
X96816819Y-96037557D01*
X96783334Y-95976234D01*
X96780500Y-95949876D01*
X96780500Y-95581323D01*
X96769931Y-95528192D01*
X96769931Y-95479808D01*
X96780500Y-95426676D01*
X96780500Y-94947323D01*
X96769732Y-94893191D01*
X96769732Y-94844806D01*
X96780500Y-94790675D01*
X96780500Y-94311323D01*
X96780499Y-94311321D01*
X96765967Y-94238264D01*
X96765966Y-94238260D01*
X96749546Y-94213686D01*
X96710601Y-94155399D01*
X96627740Y-94100034D01*
X96627739Y-94100033D01*
X96627735Y-94100032D01*
X96554677Y-94085500D01*
X96554674Y-94085500D01*
X94705326Y-94085500D01*
X94705323Y-94085500D01*
X94632264Y-94100032D01*
X94632260Y-94100033D01*
X94549396Y-94155401D01*
X94540763Y-94164035D01*
X94537599Y-94160871D01*
X94502234Y-94190300D01*
X94452984Y-94200500D01*
X94067023Y-94200500D01*
X94041578Y-94197861D01*
X94032502Y-94195958D01*
X94032499Y-94195958D01*
X93999885Y-94200023D01*
X93992209Y-94200500D01*
X93988777Y-94200500D01*
X93968533Y-94203877D01*
X93966010Y-94204245D01*
X93916423Y-94210426D01*
X93909392Y-94212519D01*
X93902435Y-94214907D01*
X93858504Y-94238682D01*
X93856228Y-94239853D01*
X93811330Y-94261803D01*
X93805383Y-94266048D01*
X93799559Y-94270581D01*
X93765741Y-94307317D01*
X93763968Y-94309165D01*
X93679955Y-94393179D01*
X93618633Y-94426665D01*
X93592273Y-94429499D01*
X91439849Y-94429499D01*
X91372810Y-94409814D01*
X91327055Y-94357010D01*
X91323907Y-94349470D01*
X91293989Y-94270584D01*
X91280220Y-94234277D01*
X91199333Y-94117092D01*
X91177451Y-94050738D01*
X91194916Y-93983087D01*
X91246184Y-93935617D01*
X91276593Y-93926507D01*
X91276391Y-93925688D01*
X91437053Y-93886089D01*
X91441986Y-93883500D01*
X91576928Y-93812676D01*
X91695171Y-93707923D01*
X91784908Y-93577916D01*
X91822600Y-93478527D01*
X91864778Y-93422826D01*
X91930375Y-93398769D01*
X91938542Y-93398500D01*
X93724273Y-93398500D01*
X93791312Y-93418185D01*
X93811954Y-93434819D01*
X93871176Y-93494041D01*
X93887301Y-93513896D01*
X93887894Y-93514803D01*
X93892380Y-93521669D01*
X93918329Y-93541865D01*
X93924089Y-93546953D01*
X93926511Y-93549375D01*
X93933597Y-93554434D01*
X93943208Y-93561296D01*
X93945246Y-93562816D01*
X93984691Y-93593517D01*
X93984692Y-93593517D01*
X93984693Y-93593518D01*
X93991159Y-93597017D01*
X93997750Y-93600240D01*
X94045639Y-93614497D01*
X94048059Y-93615272D01*
X94095329Y-93631500D01*
X94095334Y-93631500D01*
X94102585Y-93632710D01*
X94109863Y-93633617D01*
X94159779Y-93631552D01*
X94162338Y-93631500D01*
X94452984Y-93631500D01*
X94520023Y-93651185D01*
X94538970Y-93669757D01*
X94540763Y-93667965D01*
X94549396Y-93676598D01*
X94549397Y-93676599D01*
X94549399Y-93676601D01*
X94609525Y-93716775D01*
X94632260Y-93731966D01*
X94632264Y-93731967D01*
X94705321Y-93746499D01*
X94705324Y-93746500D01*
X94705326Y-93746500D01*
X96554676Y-93746500D01*
X96554677Y-93746499D01*
X96627740Y-93731966D01*
X96710601Y-93676601D01*
X96765966Y-93593740D01*
X96778317Y-93531644D01*
X96810701Y-93469737D01*
X96871416Y-93435162D01*
X96929608Y-93435441D01*
X96994764Y-93451500D01*
X96994765Y-93451500D01*
X97152735Y-93451500D01*
X97306115Y-93413696D01*
X97323737Y-93404447D01*
X97445990Y-93340283D01*
X97564233Y-93235530D01*
X97653970Y-93105523D01*
X97709987Y-92957818D01*
X97729028Y-92801000D01*
X97727345Y-92787143D01*
X97723509Y-92755545D01*
X97709987Y-92644182D01*
X97709986Y-92644179D01*
X97709986Y-92644178D01*
X97700616Y-92619470D01*
X97695249Y-92549807D01*
X97728397Y-92488301D01*
X97789536Y-92454480D01*
X97816558Y-92451500D01*
X98914948Y-92451500D01*
X98981987Y-92471185D01*
X99002629Y-92487819D01*
X99516326Y-93001516D01*
X99520962Y-93006704D01*
X99544769Y-93036556D01*
X99548635Y-93039192D01*
X99592938Y-93093221D01*
X99600998Y-93162624D01*
X99580838Y-93212082D01*
X99576126Y-93218907D01*
X99576124Y-93218912D01*
X99534744Y-93328021D01*
X99492565Y-93383723D01*
X99426967Y-93407780D01*
X99395573Y-93405014D01*
X99395563Y-93405101D01*
X99392939Y-93404782D01*
X99389131Y-93404447D01*
X99388117Y-93404197D01*
X99388116Y-93404197D01*
X99230146Y-93404197D01*
X99230145Y-93404197D01*
X99076765Y-93442000D01*
X98936893Y-93515412D01*
X98898555Y-93549376D01*
X98824166Y-93615279D01*
X98818647Y-93620168D01*
X98728912Y-93750172D01*
X98728911Y-93750173D01*
X98672893Y-93897878D01*
X98653853Y-94054696D01*
X98653853Y-94054697D01*
X98672893Y-94211515D01*
X98709932Y-94309177D01*
X98728911Y-94359220D01*
X98818648Y-94489227D01*
X98936891Y-94593980D01*
X98936893Y-94593981D01*
X99076765Y-94667393D01*
X99230145Y-94705197D01*
X99230146Y-94705197D01*
X99388116Y-94705197D01*
X99541496Y-94667393D01*
X99672371Y-94598704D01*
X99729997Y-94584500D01*
X100904439Y-94584500D01*
X100929884Y-94587138D01*
X100938965Y-94589043D01*
X100954655Y-94587087D01*
X100971589Y-94584977D01*
X100979265Y-94584500D01*
X100982685Y-94584500D01*
X100982690Y-94584500D01*
X100991953Y-94582954D01*
X101002928Y-94581123D01*
X101005461Y-94580753D01*
X101055043Y-94574573D01*
X101055049Y-94574569D01*
X101062101Y-94572470D01*
X101069027Y-94570092D01*
X101069031Y-94570092D01*
X101097916Y-94554459D01*
X101112979Y-94546308D01*
X101115240Y-94545143D01*
X101160134Y-94523198D01*
X101160137Y-94523194D01*
X101166103Y-94518935D01*
X101171904Y-94514419D01*
X101171908Y-94514418D01*
X101205751Y-94477653D01*
X101207476Y-94475854D01*
X102015512Y-93667819D01*
X102076836Y-93634334D01*
X102103194Y-93631500D01*
X103852984Y-93631500D01*
X103920023Y-93651185D01*
X103938970Y-93669757D01*
X103940763Y-93667965D01*
X103949396Y-93676598D01*
X103949397Y-93676599D01*
X103949399Y-93676601D01*
X104009525Y-93716775D01*
X104032260Y-93731966D01*
X104032264Y-93731967D01*
X104105321Y-93746499D01*
X104105324Y-93746500D01*
X104105326Y-93746500D01*
X105954676Y-93746500D01*
X105954677Y-93746499D01*
X106027740Y-93731966D01*
X106110601Y-93676601D01*
X106165966Y-93593740D01*
X106180500Y-93520674D01*
X106180500Y-93041326D01*
X106180499Y-93041326D01*
X106180500Y-93041323D01*
X106169931Y-92988192D01*
X106169931Y-92939808D01*
X106180500Y-92886676D01*
X106180500Y-92786574D01*
X106200185Y-92719535D01*
X106252989Y-92673780D01*
X106304500Y-92662574D01*
X106436844Y-92662574D01*
X106590224Y-92624770D01*
X106631017Y-92603360D01*
X106730099Y-92551357D01*
X106848342Y-92446604D01*
X106938079Y-92316597D01*
X106994096Y-92168892D01*
X107013137Y-92012074D01*
X107006148Y-91954509D01*
X106994096Y-91855255D01*
X106950580Y-91740514D01*
X106938079Y-91707551D01*
X106848342Y-91577544D01*
X106730099Y-91472791D01*
X106730097Y-91472790D01*
X106730096Y-91472789D01*
X106590224Y-91399377D01*
X106436845Y-91361574D01*
X106436844Y-91361574D01*
X106304500Y-91361574D01*
X106237461Y-91341889D01*
X106191706Y-91289085D01*
X106180500Y-91237574D01*
X106180500Y-91137323D01*
X106169732Y-91083191D01*
X106169732Y-91034806D01*
X106172398Y-91021404D01*
X106180500Y-90980674D01*
X106180500Y-90501326D01*
X106180499Y-90501325D01*
X106180500Y-90501323D01*
X106180499Y-90501321D01*
X106165967Y-90428264D01*
X106165966Y-90428260D01*
X106138529Y-90387197D01*
X106110601Y-90345399D01*
X106027740Y-90290034D01*
X106027739Y-90290033D01*
X106027735Y-90290032D01*
X105954677Y-90275500D01*
X105954674Y-90275500D01*
X104105326Y-90275500D01*
X104105323Y-90275500D01*
X104032264Y-90290032D01*
X104032260Y-90290033D01*
X103949399Y-90345399D01*
X103894033Y-90428260D01*
X103894032Y-90428264D01*
X103879500Y-90501321D01*
X103879500Y-90980678D01*
X103890267Y-91034808D01*
X103890268Y-91083189D01*
X103879500Y-91137326D01*
X103879500Y-91446500D01*
X103859815Y-91513539D01*
X103807011Y-91559294D01*
X103755500Y-91570500D01*
X101946227Y-91570500D01*
X101939288Y-91570110D01*
X101923433Y-91568324D01*
X101901342Y-91565834D01*
X101845347Y-91576430D01*
X101843062Y-91576818D01*
X101786692Y-91585315D01*
X101778758Y-91587762D01*
X101770867Y-91590523D01*
X101720495Y-91617145D01*
X101718427Y-91618189D01*
X101667051Y-91642931D01*
X101660206Y-91647597D01*
X101653466Y-91652572D01*
X101613185Y-91692853D01*
X101611517Y-91694459D01*
X101569710Y-91733251D01*
X101563919Y-91740514D01*
X101563249Y-91739980D01*
X101553968Y-91752069D01*
X101072858Y-92233181D01*
X101011535Y-92266666D01*
X100985177Y-92269500D01*
X100081594Y-92269500D01*
X100014555Y-92249815D01*
X99993913Y-92233181D01*
X99480214Y-91719482D01*
X99475577Y-91714294D01*
X99459137Y-91693679D01*
X99451772Y-91684443D01*
X99451771Y-91684442D01*
X99451770Y-91684441D01*
X99404664Y-91652324D01*
X99402774Y-91650983D01*
X99374376Y-91630025D01*
X99356928Y-91617148D01*
X99356926Y-91617147D01*
X99349565Y-91613256D01*
X99342055Y-91609639D01*
X99287589Y-91592839D01*
X99285386Y-91592114D01*
X99231590Y-91573289D01*
X99223411Y-91571741D01*
X99215170Y-91570500D01*
X99215166Y-91570500D01*
X99158175Y-91570500D01*
X99155893Y-91570457D01*
X99131832Y-91569557D01*
X99098893Y-91568324D01*
X99089661Y-91569365D01*
X99089564Y-91568510D01*
X99074451Y-91570500D01*
X96904500Y-91570500D01*
X96837461Y-91550815D01*
X96791706Y-91498011D01*
X96780500Y-91446500D01*
X96780500Y-91137323D01*
X96769732Y-91083191D01*
X96769732Y-91034806D01*
X96774970Y-91008477D01*
X96780500Y-90980674D01*
X96780500Y-90501326D01*
X96780499Y-90501326D01*
X96780500Y-90501323D01*
X96780499Y-90501321D01*
X96765967Y-90428264D01*
X96765966Y-90428260D01*
X96738529Y-90387197D01*
X96710601Y-90345399D01*
X96627740Y-90290034D01*
X96627739Y-90290033D01*
X96627735Y-90290032D01*
X96554677Y-90275500D01*
X96554674Y-90275500D01*
X94705326Y-90275500D01*
X94705323Y-90275500D01*
X94632264Y-90290032D01*
X94632260Y-90290033D01*
X94549398Y-90345400D01*
X94540760Y-90354038D01*
X94539263Y-90352541D01*
X94497794Y-90387197D01*
X94448306Y-90397500D01*
X92822675Y-90397500D01*
X92755636Y-90377815D01*
X92709881Y-90325011D01*
X92699937Y-90255853D01*
X92728962Y-90192297D01*
X92787740Y-90154523D01*
X92793001Y-90153103D01*
X92804973Y-90150152D01*
X92804972Y-90150152D01*
X92944848Y-90076739D01*
X93063091Y-89971986D01*
X93152828Y-89841979D01*
X93176896Y-89778515D01*
X93219074Y-89722814D01*
X93284672Y-89698757D01*
X93292838Y-89698488D01*
X93559911Y-89698488D01*
X93626950Y-89718173D01*
X93647592Y-89734807D01*
X93689677Y-89776892D01*
X93705801Y-89796747D01*
X93710878Y-89804517D01*
X93736823Y-89824710D01*
X93742575Y-89829790D01*
X93745008Y-89832223D01*
X93761729Y-89844161D01*
X93763736Y-89845657D01*
X93803189Y-89876365D01*
X93803191Y-89876365D01*
X93809672Y-89879873D01*
X93816248Y-89883088D01*
X93864137Y-89897345D01*
X93866557Y-89898120D01*
X93913827Y-89914348D01*
X93913829Y-89914348D01*
X93921066Y-89915555D01*
X93928361Y-89916465D01*
X93978265Y-89914400D01*
X93980826Y-89914348D01*
X94589203Y-89914348D01*
X94620099Y-89920494D01*
X94620281Y-89919584D01*
X94705321Y-89936499D01*
X94705324Y-89936500D01*
X94705326Y-89936500D01*
X96554676Y-89936500D01*
X96554677Y-89936499D01*
X96627740Y-89921966D01*
X96710601Y-89866601D01*
X96765966Y-89783740D01*
X96780500Y-89710674D01*
X96780500Y-89231326D01*
X96780499Y-89231326D01*
X96780500Y-89231323D01*
X96769931Y-89178192D01*
X96769931Y-89129808D01*
X96780500Y-89076676D01*
X96780500Y-88597326D01*
X96775300Y-88571185D01*
X96769731Y-88543187D01*
X96769731Y-88494812D01*
X96780500Y-88440674D01*
X96780500Y-87961326D01*
X96780500Y-87961323D01*
X96769931Y-87908192D01*
X96769931Y-87859808D01*
X96780500Y-87806676D01*
X96780500Y-87327323D01*
X96780499Y-87327321D01*
X96765967Y-87254264D01*
X96765966Y-87254260D01*
X96740736Y-87216500D01*
X96710601Y-87171399D01*
X96627740Y-87116034D01*
X96627739Y-87116033D01*
X96627735Y-87116032D01*
X96554677Y-87101500D01*
X96554674Y-87101500D01*
X94705326Y-87101500D01*
X94705323Y-87101500D01*
X94632264Y-87116032D01*
X94632260Y-87116033D01*
X94574498Y-87154629D01*
X94507820Y-87175506D01*
X94505608Y-87175526D01*
X92744890Y-87175526D01*
X92677851Y-87155841D01*
X92632096Y-87103037D01*
X92622152Y-87033879D01*
X92642840Y-86981086D01*
X92646741Y-86975434D01*
X92673444Y-86936748D01*
X92729461Y-86789043D01*
X92733405Y-86756553D01*
X92761028Y-86692375D01*
X92818962Y-86653319D01*
X92856502Y-86647500D01*
X94452984Y-86647500D01*
X94520023Y-86667185D01*
X94538970Y-86685757D01*
X94540763Y-86683965D01*
X94549396Y-86692598D01*
X94549397Y-86692599D01*
X94549399Y-86692601D01*
X94632260Y-86747966D01*
X94632264Y-86747967D01*
X94705321Y-86762499D01*
X94705324Y-86762500D01*
X94705326Y-86762500D01*
X96554676Y-86762500D01*
X96554677Y-86762499D01*
X96627740Y-86747966D01*
X96710601Y-86692601D01*
X96765966Y-86609740D01*
X96780500Y-86536674D01*
X96780500Y-86525926D01*
X96800185Y-86458887D01*
X96852989Y-86413132D01*
X96922147Y-86403188D01*
X96934176Y-86405530D01*
X96964979Y-86413122D01*
X96964982Y-86413123D01*
X96964983Y-86413123D01*
X97122953Y-86413123D01*
X97276333Y-86375319D01*
X97307437Y-86358994D01*
X97416208Y-86301906D01*
X97534451Y-86197153D01*
X97624188Y-86067146D01*
X97680205Y-85919441D01*
X97699246Y-85762623D01*
X97680205Y-85605805D01*
X97676549Y-85596166D01*
X97627337Y-85466404D01*
X97624188Y-85458100D01*
X97534451Y-85328093D01*
X97530855Y-85324907D01*
X97510261Y-85306662D01*
X97473134Y-85247473D01*
X97473902Y-85177607D01*
X97512319Y-85119248D01*
X97576190Y-85090923D01*
X97592488Y-85089847D01*
X102281006Y-85089847D01*
X102348045Y-85109532D01*
G37*
%TD.AperFunction*%
%TA.AperFunction,Conductor*%
G36*
X104681216Y-53574185D02*
G01*
X104701858Y-53590819D01*
X105176181Y-54065142D01*
X105209666Y-54126465D01*
X105212500Y-54152823D01*
X105212500Y-54305176D01*
X105192815Y-54372215D01*
X105176181Y-54392857D01*
X104971981Y-54597057D01*
X104966794Y-54601692D01*
X104936943Y-54625498D01*
X104936941Y-54625500D01*
X104904831Y-54672596D01*
X104903491Y-54674484D01*
X104869648Y-54720341D01*
X104865748Y-54727721D01*
X104862140Y-54735215D01*
X104845341Y-54789672D01*
X104844617Y-54791872D01*
X104825790Y-54845678D01*
X104824245Y-54853840D01*
X104823000Y-54862105D01*
X104823000Y-54919095D01*
X104822957Y-54921379D01*
X104822134Y-54943369D01*
X104820824Y-54978377D01*
X104821865Y-54987610D01*
X104821008Y-54987706D01*
X104823000Y-55002819D01*
X104823000Y-56295667D01*
X104803315Y-56362706D01*
X104750511Y-56408461D01*
X104681353Y-56418405D01*
X104617797Y-56389380D01*
X104595898Y-56364558D01*
X104588280Y-56353157D01*
X104585101Y-56348399D01*
X104502240Y-56293034D01*
X104502239Y-56293033D01*
X104502235Y-56293032D01*
X104429177Y-56278500D01*
X104429174Y-56278500D01*
X103708243Y-56278500D01*
X103641204Y-56258815D01*
X103606194Y-56224942D01*
X103598966Y-56214470D01*
X103480723Y-56109717D01*
X103480721Y-56109716D01*
X103480720Y-56109715D01*
X103340848Y-56036303D01*
X103187469Y-55998500D01*
X103187468Y-55998500D01*
X103029498Y-55998500D01*
X103029497Y-55998500D01*
X102876117Y-56036303D01*
X102736245Y-56109715D01*
X102617999Y-56214471D01*
X102528264Y-56344475D01*
X102528263Y-56344476D01*
X102472245Y-56492181D01*
X102453205Y-56648999D01*
X102453205Y-56649000D01*
X102472245Y-56805818D01*
X102499546Y-56877803D01*
X102528263Y-56953523D01*
X102618000Y-57083530D01*
X102736243Y-57188283D01*
X102736245Y-57188284D01*
X102876117Y-57261696D01*
X103029497Y-57299500D01*
X103029498Y-57299500D01*
X103187468Y-57299500D01*
X103340848Y-57261696D01*
X103391579Y-57235069D01*
X103460085Y-57221343D01*
X103473387Y-57223246D01*
X103504826Y-57229500D01*
X104429176Y-57229500D01*
X104429177Y-57229499D01*
X104502240Y-57214966D01*
X104585101Y-57159601D01*
X104595897Y-57143442D01*
X104649509Y-57098637D01*
X104718834Y-57089928D01*
X104781861Y-57120082D01*
X104818581Y-57179525D01*
X104823000Y-57212332D01*
X104823000Y-57296557D01*
X104819891Y-57324150D01*
X104819270Y-57326869D01*
X104819269Y-57326872D01*
X104822825Y-57374326D01*
X104822999Y-57378957D01*
X104822999Y-57393170D01*
X104825117Y-57407223D01*
X104825636Y-57411829D01*
X104829192Y-57459287D01*
X104830215Y-57461893D01*
X104837398Y-57488701D01*
X104837814Y-57491466D01*
X104837816Y-57491469D01*
X104839146Y-57494232D01*
X104839692Y-57497553D01*
X104840554Y-57500346D01*
X104840171Y-57500463D01*
X104850493Y-57563174D01*
X104822767Y-57627307D01*
X104809649Y-57640842D01*
X104771799Y-57674374D01*
X104708566Y-57704095D01*
X104639302Y-57694911D01*
X104593992Y-57656779D01*
X104593737Y-57657035D01*
X104590760Y-57654058D01*
X104586469Y-57650447D01*
X104585101Y-57648399D01*
X104502240Y-57593034D01*
X104502239Y-57593033D01*
X104502235Y-57593032D01*
X104429177Y-57578500D01*
X104429174Y-57578500D01*
X103504826Y-57578500D01*
X103504823Y-57578500D01*
X103431764Y-57593032D01*
X103431760Y-57593033D01*
X103348899Y-57648399D01*
X103293533Y-57731260D01*
X103293532Y-57731264D01*
X103279000Y-57804321D01*
X103279000Y-58303678D01*
X103293532Y-58376735D01*
X103293533Y-58376739D01*
X103311905Y-58404235D01*
X103348899Y-58459601D01*
X103416861Y-58505011D01*
X103431760Y-58514966D01*
X103431764Y-58514967D01*
X103504821Y-58529499D01*
X103504824Y-58529500D01*
X103504826Y-58529500D01*
X103905656Y-58529500D01*
X103972695Y-58549185D01*
X103993337Y-58565819D01*
X104193337Y-58765819D01*
X104226822Y-58827142D01*
X104221838Y-58896834D01*
X104179966Y-58952767D01*
X104114502Y-58977184D01*
X104105656Y-58977500D01*
X102966481Y-58977500D01*
X102899442Y-58957815D01*
X102853687Y-58905011D01*
X102846085Y-58883177D01*
X102845840Y-58882185D01*
X102845839Y-58882182D01*
X102789822Y-58734477D01*
X102700085Y-58604470D01*
X102581842Y-58499717D01*
X102581840Y-58499716D01*
X102581839Y-58499715D01*
X102441967Y-58426303D01*
X102288588Y-58388500D01*
X102288587Y-58388500D01*
X102130617Y-58388500D01*
X102130616Y-58388500D01*
X101977236Y-58426303D01*
X101837364Y-58499715D01*
X101719118Y-58604471D01*
X101629383Y-58734475D01*
X101629380Y-58734481D01*
X101611937Y-58780473D01*
X101569759Y-58836176D01*
X101504161Y-58860232D01*
X101435971Y-58845004D01*
X101408315Y-58824182D01*
X100958244Y-58374111D01*
X100942117Y-58354252D01*
X100936181Y-58345167D01*
X100936178Y-58345163D01*
X100908169Y-58323363D01*
X100902405Y-58318272D01*
X100899610Y-58315477D01*
X100883082Y-58303678D01*
X100881638Y-58302647D01*
X100879607Y-58301133D01*
X100837284Y-58268191D01*
X100837283Y-58268190D01*
X100830369Y-58264448D01*
X100823292Y-58260988D01*
X100771911Y-58245691D01*
X100769472Y-58244910D01*
X100718756Y-58227500D01*
X100711018Y-58226208D01*
X100703180Y-58225231D01*
X100653921Y-58227269D01*
X100649618Y-58227447D01*
X100647061Y-58227500D01*
X99344500Y-58227500D01*
X99277461Y-58207815D01*
X99231706Y-58155011D01*
X99220500Y-58103500D01*
X99220500Y-57703323D01*
X99220499Y-57703321D01*
X99205967Y-57630264D01*
X99205966Y-57630260D01*
X99197860Y-57618129D01*
X99150601Y-57547399D01*
X99067740Y-57492034D01*
X99067739Y-57492033D01*
X99067736Y-57492032D01*
X99035308Y-57485582D01*
X98973397Y-57453197D01*
X98938823Y-57392481D01*
X98935500Y-57363965D01*
X98935500Y-57203228D01*
X98935890Y-57196280D01*
X98940165Y-57158344D01*
X98940165Y-57158343D01*
X98929564Y-57102321D01*
X98929177Y-57100042D01*
X98928965Y-57098637D01*
X98920685Y-57043694D01*
X98918238Y-57035763D01*
X98915477Y-57027872D01*
X98915477Y-57027869D01*
X98888848Y-56977485D01*
X98887824Y-56975457D01*
X98865721Y-56929559D01*
X98863068Y-56924049D01*
X98858408Y-56917215D01*
X98853427Y-56910465D01*
X98813147Y-56870186D01*
X98811539Y-56868516D01*
X98772751Y-56826714D01*
X98765482Y-56820917D01*
X98766017Y-56820245D01*
X98753926Y-56810965D01*
X98240818Y-56297856D01*
X98207333Y-56236533D01*
X98204499Y-56210175D01*
X98204499Y-56057823D01*
X98224184Y-55990784D01*
X98240818Y-55970142D01*
X100620142Y-53590819D01*
X100681465Y-53557334D01*
X100707823Y-53554500D01*
X104614177Y-53554500D01*
X104681216Y-53574185D01*
G37*
%TD.AperFunction*%
%TA.AperFunction,Conductor*%
G36*
X109180216Y-54689185D02*
G01*
X109200858Y-54705819D01*
X111665152Y-57170113D01*
X111698637Y-57231436D01*
X111693653Y-57301128D01*
X111651781Y-57357061D01*
X111589627Y-57381197D01*
X111554067Y-57384699D01*
X111356043Y-57444769D01*
X111273854Y-57488701D01*
X111173550Y-57542315D01*
X111173548Y-57542316D01*
X111173547Y-57542317D01*
X111013589Y-57673589D01*
X110895589Y-57817375D01*
X110882315Y-57833550D01*
X110862244Y-57871100D01*
X110784769Y-58016043D01*
X110724699Y-58214067D01*
X110704417Y-58420000D01*
X110724699Y-58625932D01*
X110724700Y-58625934D01*
X110780392Y-58809529D01*
X110780788Y-58810832D01*
X110781411Y-58880699D01*
X110749815Y-58934502D01*
X110743143Y-58941175D01*
X110681822Y-58974664D01*
X110655455Y-58977500D01*
X108754055Y-58977500D01*
X108687016Y-58957815D01*
X108641261Y-58905011D01*
X108631317Y-58835853D01*
X108638113Y-58809529D01*
X108638513Y-58808476D01*
X108687837Y-58678418D01*
X108706878Y-58521600D01*
X108706073Y-58514966D01*
X108687837Y-58364781D01*
X108651205Y-58268191D01*
X108631820Y-58217077D01*
X108542083Y-58087070D01*
X108423840Y-57982317D01*
X108423838Y-57982316D01*
X108423837Y-57982315D01*
X108283965Y-57908903D01*
X108130586Y-57871100D01*
X108130585Y-57871100D01*
X107972615Y-57871100D01*
X107972614Y-57871100D01*
X107819234Y-57908903D01*
X107679362Y-57982315D01*
X107561116Y-58087071D01*
X107471381Y-58217075D01*
X107471380Y-58217076D01*
X107415363Y-58364781D01*
X107402776Y-58468446D01*
X107375154Y-58532624D01*
X107317220Y-58571681D01*
X107279680Y-58577500D01*
X106862310Y-58577500D01*
X106795271Y-58557815D01*
X106749516Y-58505011D01*
X106739572Y-58435853D01*
X106759208Y-58384609D01*
X106764466Y-58376740D01*
X106779000Y-58303674D01*
X106779000Y-57804326D01*
X106768828Y-57753188D01*
X106768828Y-57704811D01*
X106779000Y-57653674D01*
X106779000Y-57527735D01*
X106798685Y-57460697D01*
X106851489Y-57414942D01*
X106920647Y-57404998D01*
X106932674Y-57407338D01*
X106982015Y-57419500D01*
X107139985Y-57419500D01*
X107293365Y-57381696D01*
X107347087Y-57353500D01*
X107433240Y-57308283D01*
X107551483Y-57203530D01*
X107641220Y-57073523D01*
X107697237Y-56925818D01*
X107716278Y-56769000D01*
X107712941Y-56741512D01*
X107697237Y-56612181D01*
X107669125Y-56538056D01*
X107641220Y-56464477D01*
X107551483Y-56334470D01*
X107433240Y-56229717D01*
X107433238Y-56229716D01*
X107433237Y-56229715D01*
X107293365Y-56156303D01*
X107139986Y-56118500D01*
X107139985Y-56118500D01*
X106982015Y-56118500D01*
X106982014Y-56118500D01*
X106828634Y-56156303D01*
X106688764Y-56229714D01*
X106688761Y-56229716D01*
X106664989Y-56250775D01*
X106601754Y-56280493D01*
X106558580Y-56279575D01*
X106553174Y-56278500D01*
X105828000Y-56278500D01*
X105760961Y-56258815D01*
X105715206Y-56206011D01*
X105704000Y-56154500D01*
X105704000Y-55328499D01*
X105723685Y-55261460D01*
X105776489Y-55215705D01*
X105828000Y-55204499D01*
X106260871Y-55204499D01*
X106260872Y-55204499D01*
X106320483Y-55198091D01*
X106455331Y-55147796D01*
X106570546Y-55061546D01*
X106656796Y-54946331D01*
X106707091Y-54811483D01*
X106710450Y-54780244D01*
X106737188Y-54715693D01*
X106794581Y-54675845D01*
X106833739Y-54669500D01*
X109113177Y-54669500D01*
X109180216Y-54689185D01*
G37*
%TD.AperFunction*%
%TD*%
M02*
