%TF.GenerationSoftware,KiCad,Pcbnew,9.0.7-9.0.7~ubuntu24.04.1*%
%TF.CreationDate,2026-01-16T09:06:32+02:00*%
%TF.ProjectId,Device Buffer,44657669-6365-4204-9275-666665722e6b,V1*%
%TF.SameCoordinates,Original*%
%TF.FileFunction,Copper,L2,Bot*%
%TF.FilePolarity,Positive*%
%FSLAX46Y46*%
G04 Gerber Fmt 4.6, Leading zero omitted, Abs format (unit mm)*
G04 Created by KiCad (PCBNEW 9.0.7-9.0.7~ubuntu24.04.1) date 2026-01-16 09:06:32*
%MOMM*%
%LPD*%
G01*
G04 APERTURE LIST*
G04 Aperture macros list*
%AMRoundRect*
0 Rectangle with rounded corners*
0 $1 Rounding radius*
0 $2 $3 $4 $5 $6 $7 $8 $9 X,Y pos of 4 corners*
0 Add a 4 corners polygon primitive as box body*
4,1,4,$2,$3,$4,$5,$6,$7,$8,$9,$2,$3,0*
0 Add four circle primitives for the rounded corners*
1,1,$1+$1,$2,$3*
1,1,$1+$1,$4,$5*
1,1,$1+$1,$6,$7*
1,1,$1+$1,$8,$9*
0 Add four rect primitives between the rounded corners*
20,1,$1+$1,$2,$3,$4,$5,0*
20,1,$1+$1,$4,$5,$6,$7,0*
20,1,$1+$1,$6,$7,$8,$9,0*
20,1,$1+$1,$8,$9,$2,$3,0*%
G04 Aperture macros list end*
%TA.AperFunction,ComponentPad*%
%ADD10R,1.600000X1.600000*%
%TD*%
%TA.AperFunction,ComponentPad*%
%ADD11O,1.600000X1.600000*%
%TD*%
%TA.AperFunction,ComponentPad*%
%ADD12RoundRect,0.400000X-0.400000X-0.400000X0.400000X-0.400000X0.400000X0.400000X-0.400000X0.400000X0*%
%TD*%
%TA.AperFunction,ViaPad*%
%ADD13C,0.800000*%
%TD*%
%TA.AperFunction,Conductor*%
%ADD14C,0.380000*%
%TD*%
%TA.AperFunction,Conductor*%
%ADD15C,0.200000*%
%TD*%
G04 APERTURE END LIST*
D10*
%TO.P,J2,1*%
%TO.N,A0_{IN}*%
X0Y0D03*
D11*
%TO.P,J2,2*%
%TO.N,A1_{IN}*%
X0Y-2540000D03*
D12*
%TO.P,J2,3*%
%TO.N,5V*%
X0Y-5080000D03*
D11*
%TO.P,J2,4*%
%TO.N,A2_{IN}*%
X0Y-7620000D03*
%TO.P,J2,5*%
%TO.N,A3_{IN}*%
X0Y-10160000D03*
%TO.P,J2,6*%
%TO.N,A4_{IN}*%
X0Y-12700000D03*
%TO.P,J2,7*%
%TO.N,A5_{IN}*%
X0Y-15240000D03*
%TO.P,J2,8*%
%TO.N,A6_{IN}*%
X0Y-17780000D03*
%TO.P,J2,9*%
%TO.N,A7_{IN}*%
X0Y-20320000D03*
D10*
%TO.P,J2,10*%
%TO.N,GND*%
X0Y-22860000D03*
D11*
%TO.P,J2,11*%
%TO.N,A8_{IN}*%
X0Y-25400000D03*
%TO.P,J2,12*%
%TO.N,A9_{IN}*%
X0Y-27940000D03*
%TO.P,J2,13*%
%TO.N,A10_{IN}*%
X0Y-30480000D03*
%TO.P,J2,14*%
%TO.N,A11_{IN}*%
X0Y-33020000D03*
%TO.P,J2,15*%
%TO.N,A12_{IN}*%
X0Y-35560000D03*
%TO.P,J2,16*%
%TO.N,A13_{IN}*%
X0Y-38100000D03*
%TO.P,J2,17*%
%TO.N,A14_{IN}*%
X0Y-40640000D03*
%TO.P,J2,18*%
%TO.N,A15_{IN}*%
X0Y-43180000D03*
%TO.P,J2,19*%
%TO.N,A16_{IN}*%
X0Y-45720000D03*
%TO.P,J2,20*%
%TO.N,~{RD}_{IN}*%
X0Y-48260000D03*
%TO.P,J2,21*%
%TO.N,~{WD}_{IN}*%
X0Y-50800000D03*
%TO.P,J2,22*%
%TO.N,S_{IN}*%
X0Y-53340000D03*
D10*
%TO.P,J2,23*%
%TO.N,GND*%
X0Y-55880000D03*
D11*
%TO.P,J2,24*%
%TO.N,D7_{IN{slash}OUT}*%
X0Y-58420000D03*
%TO.P,J2,25*%
%TO.N,D6_{IN{slash}OUT}*%
X0Y-60960000D03*
%TO.P,J2,26*%
%TO.N,D5_{IN{slash}OUT}*%
X0Y-63500000D03*
%TO.P,J2,27*%
%TO.N,D4_{IN{slash}OUT}*%
X0Y-66040000D03*
%TO.P,J2,28*%
%TO.N,D3_{IN{slash}OUT}*%
X0Y-68580000D03*
%TO.P,J2,29*%
%TO.N,D2_{IN{slash}OUT}*%
X0Y-71120000D03*
%TO.P,J2,30*%
%TO.N,D1_{IN{slash}OUT}*%
X0Y-73660000D03*
%TO.P,J2,31*%
%TO.N,D0_{IN{slash}OUT}*%
X0Y-76200000D03*
%TO.P,J2,32*%
%TO.N,Device ~{CS}_{IN}*%
X0Y-78740000D03*
%TO.P,J2,33*%
%TO.N,Device ~{CS}*%
X15240000Y-78740000D03*
%TO.P,J2,34*%
%TO.N,D0*%
X15240000Y-76200000D03*
D12*
%TO.P,J2,35*%
%TO.N,5V*%
X15240000Y-73660000D03*
D11*
%TO.P,J2,36*%
%TO.N,D1*%
X15240000Y-71120000D03*
%TO.P,J2,37*%
%TO.N,D2*%
X15240000Y-68580000D03*
%TO.P,J2,38*%
%TO.N,D3*%
X15240000Y-66040000D03*
%TO.P,J2,39*%
%TO.N,D4*%
X15240000Y-63500000D03*
%TO.P,J2,40*%
%TO.N,D5*%
X15240000Y-60960000D03*
%TO.P,J2,41*%
%TO.N,D6*%
X15240000Y-58420000D03*
D10*
%TO.P,J2,42*%
%TO.N,GND*%
X15240000Y-55880000D03*
D11*
%TO.P,J2,43*%
%TO.N,D7*%
X15240000Y-53340000D03*
%TO.P,J2,44*%
%TO.N,S*%
X15240000Y-50800000D03*
%TO.P,J2,45*%
%TO.N,~{WD}*%
X15240000Y-48260000D03*
%TO.P,J2,46*%
%TO.N,~{RD}*%
X15240000Y-45720000D03*
%TO.P,J2,47*%
%TO.N,A16*%
X15240000Y-43180000D03*
%TO.P,J2,48*%
%TO.N,A15*%
X15240000Y-40640000D03*
%TO.P,J2,49*%
%TO.N,A14*%
X15240000Y-38100000D03*
%TO.P,J2,50*%
%TO.N,A13*%
X15240000Y-35560000D03*
%TO.P,J2,51*%
%TO.N,A12*%
X15240000Y-33020000D03*
%TO.P,J2,52*%
%TO.N,A11*%
X15240000Y-30480000D03*
%TO.P,J2,53*%
%TO.N,A10*%
X15240000Y-27940000D03*
%TO.P,J2,54*%
%TO.N,A9*%
X15240000Y-25400000D03*
D10*
%TO.P,J2,55*%
%TO.N,GND*%
X15240000Y-22860000D03*
D11*
%TO.P,J2,56*%
%TO.N,A8*%
X15240000Y-20320000D03*
%TO.P,J2,57*%
%TO.N,A7*%
X15240000Y-17780000D03*
%TO.P,J2,58*%
%TO.N,A6*%
X15240000Y-15240000D03*
%TO.P,J2,59*%
%TO.N,A5*%
X15240000Y-12700000D03*
%TO.P,J2,60*%
%TO.N,A4*%
X15240000Y-10160000D03*
%TO.P,J2,61*%
%TO.N,A3*%
X15240000Y-7620000D03*
%TO.P,J2,62*%
%TO.N,A2*%
X15240000Y-5080000D03*
%TO.P,J2,63*%
%TO.N,A1*%
X15240000Y-2540000D03*
%TO.P,J2,64*%
%TO.N,A0*%
X15240000Y0D03*
%TD*%
D13*
%TO.N,GND*%
X7493000Y-52832000D03*
X11858499Y-22838934D03*
X7543000Y-6350000D03*
X7493000Y-29464000D03*
X6477000Y-73533000D03*
X4368800Y-13868400D03*
X7620000Y-46228000D03*
X12319000Y-73914000D03*
X7493000Y-22860000D03*
X7493000Y-58826404D03*
X12573001Y-47091600D03*
X4775992Y-76657992D03*
X9828996Y-75945990D03*
X2159000Y-76707990D03*
X2158995Y-58038995D03*
X4545000Y-36576000D03*
X12319000Y-56769000D03*
X4064000Y-66598800D03*
%TO.N,5V*%
X11049000Y-73561000D03*
X11049000Y-44831000D03*
X11049000Y-57785000D03*
X11049000Y-27940000D03*
X11049000Y-6378000D03*
X3556000Y-4318000D03*
%TO.N,/3.3V*%
X3618793Y-42722800D03*
X3556000Y-20066002D03*
X3618793Y-46419207D03*
X3619500Y-29527500D03*
X3618800Y-72263000D03*
X3555992Y-7010125D03*
%TO.N,Device ~{CS}*%
X9398000Y-30607000D03*
X9398000Y-60578988D03*
X9398000Y-51562000D03*
X9398000Y-8000998D03*
%TO.N,A16*%
X13601699Y-52057299D03*
%TO.N,Device ~{CS}_{IN}*%
X5842000Y-50858351D03*
%TO.N,A16_{IN}*%
X2235200Y-52171600D03*
%TO.N,~{RD}*%
X8382000Y-60067000D03*
X8381996Y-49657000D03*
%TO.N,D0*%
X13208000Y-72263000D03*
%TD*%
D14*
%TO.N,/3.3V*%
X3516996Y-7049121D02*
G75*
G03*
X3477964Y-7143265I94104J-94179D01*
G01*
X3618793Y-58018216D02*
G75*
G02*
X2876196Y-59811003I-2535388J2D01*
G01*
X3478000Y-19932847D02*
G75*
G03*
X3516985Y-20027017I133100J-53D01*
G01*
X2876200Y-69221000D02*
G75*
G02*
X3618802Y-71013794I-1792800J-1792800D01*
G01*
X3619146Y-29527853D02*
G75*
G03*
X3618797Y-29528706I854J-847D01*
G01*
X3556000Y-29419098D02*
G75*
G03*
X3587750Y-29495750I108400J-2D01*
G01*
X2876196Y-59811003D02*
G75*
G03*
X2133598Y-61603790I1792784J-1792787D01*
G01*
X2133600Y-67428205D02*
G75*
G03*
X2876199Y-69221001I2535390J-5D01*
G01*
D15*
%TO.N,D0*%
X13208000Y-73215500D02*
G75*
G03*
X13881527Y-74841511I2299500J0D01*
G01*
%TO.N,A16_{IN}*%
X1117600Y-46837600D02*
G75*
G02*
X2235200Y-49535725I-2698126J-2698126D01*
G01*
%TO.N,Device ~{CS}_{IN}*%
X3098800Y-66806048D02*
G75*
G03*
X3886199Y-68707001I2688350J-2D01*
G01*
X4673600Y-73580099D02*
G75*
G02*
X3162299Y-77228699I-5159905J4D01*
G01*
X4470400Y-60198000D02*
G75*
G03*
X3098802Y-63509335I3311330J-3311330D01*
G01*
X5842000Y-56886664D02*
G75*
G02*
X4470401Y-60198001I-4682950J4D01*
G01*
X3886200Y-68707000D02*
G75*
G02*
X4673599Y-70607951I-1900950J-1900950D01*
G01*
X2234716Y-78156283D02*
G75*
G02*
X825500Y-78740000I-1409221J1409225D01*
G01*
%TO.N,A16*%
X14420849Y-43999150D02*
G75*
G03*
X13601680Y-45976754I1977651J-1977650D01*
G01*
%TO.N,Device ~{CS}*%
X13708630Y-78340000D02*
G75*
G03*
X14674315Y-78739985I965670J965700D01*
G01*
X9398000Y-71775406D02*
G75*
G03*
X10991790Y-75623164I5441550J-4D01*
G01*
D14*
%TO.N,5V*%
X3175000Y-4699000D02*
G75*
G02*
X2255184Y-5080002I-919820J919820D01*
G01*
%TO.N,GND*%
X2047407Y-5969000D02*
G75*
G03*
X1587498Y-6159498I-7J-650400D01*
G01*
X16510000Y-20691974D02*
G75*
G02*
X15875001Y-22225001I-2168040J4D01*
G01*
X9144000Y-5969000D02*
G75*
G02*
X8224184Y-6349994I-919800J919800D01*
G01*
X14446085Y-5969000D02*
G75*
G03*
X13526269Y-5588017I-919785J-919800D01*
G01*
X7543000Y-7556900D02*
G75*
G02*
X6689590Y-9617205I-2913700J0D01*
G01*
X6424349Y-18768749D02*
G75*
G02*
X7493000Y-21348700I-2579949J-2579951D01*
G01*
X5051299Y-11255500D02*
G75*
G03*
X4368800Y-12903200I1647701J-1647700D01*
G01*
X10063815Y-5588000D02*
G75*
G03*
X9143995Y-5968995I-15J-1300800D01*
G01*
X5177551Y-62335648D02*
G75*
G03*
X4063998Y-65024000I2688349J-2688352D01*
G01*
X7556500Y-46291500D02*
G75*
G03*
X7493001Y-46444802I153300J-153300D01*
G01*
X14489471Y-6012386D02*
G75*
G03*
X15304542Y-6349965I815029J815086D01*
G01*
X5128150Y-34343448D02*
G75*
G03*
X4544998Y-35751300I1407850J-1407852D01*
G01*
X12414710Y-51556109D02*
G75*
G03*
X12256401Y-51938256I382190J-382191D01*
G01*
X1739897Y-58458092D02*
G75*
G03*
X1320799Y-59469883I1011783J-1011788D01*
G01*
X16119613Y-6687613D02*
G75*
G03*
X15304542Y-6349975I-815113J-815087D01*
G01*
X7493000Y-59423302D02*
G75*
G02*
X7070920Y-60442261I-1441000J2D01*
G01*
X8657267Y-75945990D02*
G75*
G03*
X7797812Y-76301998I33J-1215510D01*
G01*
X12573001Y-51173962D02*
G75*
G02*
X12414722Y-51556121I-540401J-38D01*
G01*
X7493000Y-30721300D02*
G75*
G02*
X6603956Y-32867647I-3035400J0D01*
G01*
X-1270000Y-20691974D02*
G75*
G03*
X-634998Y-22224999I2168030J4D01*
G01*
X5270498Y-68567298D02*
G75*
G02*
X6476993Y-71480041I-2912748J-2912742D01*
G01*
X-85267Y-6350000D02*
G75*
G03*
X-923000Y-6697000I-2J-1184729D01*
G01*
X12256420Y-56662169D02*
G75*
G03*
X12287684Y-56737736I106880J-31D01*
G01*
X6159500Y-6159500D02*
G75*
G03*
X5699592Y-5969003I-459900J-459900D01*
G01*
X14795500Y-56324500D02*
G75*
G02*
X13722382Y-56768993I-1073100J1073100D01*
G01*
X11869032Y-22849467D02*
G75*
G03*
X11894460Y-22860016I25468J25467D01*
G01*
X16146000Y-6714000D02*
G75*
G02*
X16510011Y-7592773I-878800J-878800D01*
G01*
X6082500Y-39508900D02*
G75*
G02*
X7620003Y-43220753I-3711860J-3711860D01*
G01*
X-923000Y-6697000D02*
G75*
G03*
X-1270000Y-7534732I837736J-837734D01*
G01*
X1320800Y-75277093D02*
G75*
G03*
X1739903Y-76288887I1430890J3D01*
G01*
X13906500Y-24193499D02*
G75*
G03*
X12573001Y-27412852I3219350J-3219351D01*
G01*
X6159500Y-6159500D02*
G75*
G03*
X6619407Y-6349997I459900J459900D01*
G01*
X4368800Y-15290800D02*
G75*
G03*
X5374590Y-17718986I3433970J0D01*
G01*
X4064000Y-66979800D02*
G75*
G03*
X4333410Y-67630204I919800J0D01*
G01*
X7782913Y-76316882D02*
G75*
G02*
X6959402Y-76658001I-823513J823482D01*
G01*
X5994598Y-76657992D02*
G75*
G03*
X6476992Y-76175590I2J482392D01*
G01*
X6477000Y-76175590D02*
G75*
G03*
X6959402Y-76658000I482400J-10D01*
G01*
X1587500Y-6159500D02*
G75*
G02*
X1127592Y-6349997I-459900J459900D01*
G01*
X4545000Y-37273700D02*
G75*
G03*
X5038347Y-38464749I1684400J0D01*
G01*
X6959402Y-76657992D02*
X5994598Y-76657992D01*
X-634999Y-22225000D02*
X0Y-22860000D01*
X7543000Y-6350000D02*
X6619407Y-6350000D01*
X6082500Y-39508900D02*
X5038348Y-38464748D01*
X8224184Y-6350000D02*
X7543000Y-6350000D01*
X12319000Y-56769000D02*
X13722382Y-56769000D01*
X6477000Y-73533000D02*
X6476996Y-73532996D01*
X12573001Y-51173962D02*
X12573001Y-47091600D01*
X15240000Y-22860000D02*
X11894460Y-22860000D01*
X4545000Y-36576000D02*
X4545000Y-37273700D01*
X5128150Y-34343448D02*
X6603954Y-32867645D01*
X-1270000Y-20691974D02*
X-1270000Y-7534732D01*
X6424349Y-18768749D02*
X5374588Y-17718988D01*
X7493000Y-52832000D02*
X7493000Y-58826404D01*
X5270498Y-68567298D02*
X4333407Y-67630207D01*
X4064000Y-65024000D02*
X4064000Y-66598800D01*
X4064000Y-66979800D02*
X4064000Y-66598800D01*
X12573001Y-27412852D02*
X12573001Y-47091600D01*
X11858499Y-22838934D02*
X11869032Y-22849467D01*
X1320800Y-59469883D02*
X1320800Y-75277093D01*
X7493000Y-30721300D02*
X7493000Y-29464000D01*
X14446085Y-5969000D02*
X14489471Y-6012386D01*
X4368800Y-13868400D02*
X4368800Y-15290800D01*
X-85267Y-6350000D02*
X1127592Y-6350000D01*
X7543000Y-7556900D02*
X7543000Y-6350000D01*
X2158995Y-58038995D02*
X1739897Y-58458092D01*
X7493000Y-59423302D02*
X7493000Y-58826404D01*
X7493000Y-46444802D02*
X7493000Y-52832000D01*
X7493000Y-21348700D02*
X7493000Y-22860000D01*
X6689592Y-9617207D02*
X5051299Y-11255500D01*
X16119613Y-6687613D02*
X16146000Y-6714000D01*
X7493000Y-22860000D02*
X7493000Y-29464000D01*
X12319000Y-56769000D02*
X12287710Y-56737710D01*
X4545000Y-35751300D02*
X4545000Y-36576000D01*
X7797804Y-76301990D02*
X7782913Y-76316882D01*
X15240000Y-22860000D02*
X13906500Y-24193499D01*
X16510000Y-20691974D02*
X16510000Y-7592773D01*
X2159000Y-76707990D02*
X1739900Y-76288890D01*
X4775992Y-76657992D02*
X5994598Y-76657992D01*
X4368800Y-12903200D02*
X4368800Y-13868400D01*
X6476996Y-73532996D02*
X6476996Y-71480041D01*
X2047407Y-5969000D02*
X5699592Y-5969000D01*
X6477000Y-73533000D02*
X6477000Y-76175590D01*
X12319000Y-56769000D02*
X12319000Y-73914000D01*
X14795500Y-56324500D02*
X15240000Y-55880000D01*
X7620000Y-43220753D02*
X7620000Y-46228000D01*
X12256420Y-51938256D02*
X12256420Y-56662169D01*
X8657267Y-75945990D02*
X9828996Y-75945990D01*
X7556500Y-46291500D02*
X7620000Y-46228000D01*
X13526269Y-5588000D02*
X10063815Y-5588000D01*
X5177551Y-62335648D02*
X7070929Y-60442270D01*
X15875000Y-22225000D02*
X15240000Y-22860000D01*
%TO.N,5V*%
X11049000Y-44831000D02*
X11049000Y-27940000D01*
X3556000Y-4318000D02*
X3175000Y-4699000D01*
X11049000Y-6378000D02*
X11049000Y-27940000D01*
X11049000Y-73561000D02*
X11049000Y-57785000D01*
X2255184Y-5080000D02*
X0Y-5080000D01*
X11049000Y-44831000D02*
X11049000Y-57785000D01*
%TO.N,/3.3V*%
X3618793Y-42722800D02*
X3618793Y-29528706D01*
X3555992Y-7010125D02*
X3516996Y-7049121D01*
X3618793Y-42722800D02*
X3618793Y-46419207D01*
X3618793Y-58018216D02*
X3618793Y-46419207D01*
X3587750Y-29495750D02*
X3619500Y-29527500D01*
X3556000Y-20066002D02*
X3556000Y-29419098D01*
X3618800Y-71013794D02*
X3618800Y-72263000D01*
X3556000Y-20066002D02*
X3517000Y-20027002D01*
X3478000Y-7143265D02*
X3478000Y-19932847D01*
X3619146Y-29527853D02*
X3619500Y-29527500D01*
X2133600Y-61603790D02*
X2133600Y-67428205D01*
D15*
%TO.N,Device ~{CS}*%
X9398000Y-60578988D02*
X9398000Y-51562000D01*
X13708630Y-78340000D02*
X10991792Y-75623162D01*
X14674315Y-78740000D02*
X15240000Y-78740000D01*
X9398000Y-30607000D02*
X9398000Y-8000998D01*
X9398000Y-30607000D02*
X9398000Y-51562000D01*
X9398000Y-60578988D02*
X9398000Y-71775406D01*
%TO.N,A16*%
X13601699Y-52057299D02*
X13601699Y-45976754D01*
X14420849Y-43999150D02*
X15240000Y-43180000D01*
%TO.N,Device ~{CS}_{IN}*%
X3162299Y-77228699D02*
X2234716Y-78156283D01*
X4673600Y-73580099D02*
X4673600Y-70607951D01*
X825500Y-78740000D02*
X0Y-78740000D01*
X3098800Y-66806048D02*
X3098800Y-63509335D01*
X5842000Y-50858351D02*
X5842000Y-56886664D01*
%TO.N,A16_{IN}*%
X1117600Y-46837600D02*
X0Y-45720000D01*
X2235200Y-49535725D02*
X2235200Y-52171600D01*
%TO.N,~{RD}*%
X8382000Y-49657004D02*
X8382000Y-60067000D01*
X8382000Y-49657004D02*
X8381996Y-49657000D01*
%TO.N,D0*%
X13208000Y-73215500D02*
X13208000Y-72263000D01*
X13881519Y-74841519D02*
X15240000Y-76200000D01*
%TD*%
%TA.AperFunction,Conductor*%
%TO.N,Device ~{CS}*%
G36*
X15080530Y-77959961D02*
G01*
X15086179Y-77966909D01*
X15086441Y-77967963D01*
X15239767Y-78735929D01*
X15238026Y-78744713D01*
X15238013Y-78744732D01*
X14802144Y-79395323D01*
X14794692Y-79400289D01*
X14785912Y-79398531D01*
X14785781Y-79398443D01*
X14503204Y-79203559D01*
X14502716Y-79203203D01*
X14301439Y-79048476D01*
X14300776Y-79047926D01*
X14139254Y-78903645D01*
X14138839Y-78903255D01*
X13965907Y-78732956D01*
X13965907Y-78732957D01*
X13965906Y-78732956D01*
X13678688Y-78450211D01*
X13675197Y-78441966D01*
X13678474Y-78433754D01*
X13801713Y-78305947D01*
X13809921Y-78302371D01*
X13817619Y-78305076D01*
X13910786Y-78382641D01*
X14003528Y-78433430D01*
X14089541Y-78454687D01*
X14089541Y-78454686D01*
X14089542Y-78454687D01*
X14170881Y-78450614D01*
X14249598Y-78425412D01*
X14327745Y-78383282D01*
X14490542Y-78265042D01*
X14534317Y-78231295D01*
X14534726Y-78230995D01*
X14721100Y-78100738D01*
X14722498Y-78099901D01*
X14897993Y-78011032D01*
X14899917Y-78010265D01*
X15071624Y-77959042D01*
X15080530Y-77959961D01*
G37*
%TD.AperFunction*%
%TD*%
%TA.AperFunction,Conductor*%
%TO.N,GND*%
G36*
X16230000Y-21311809D02*
G01*
X16574809Y-21404200D01*
X16581913Y-21409651D01*
X16583082Y-21418529D01*
X16582073Y-21421066D01*
X16572111Y-21439488D01*
X16572095Y-21439519D01*
X16380054Y-21838503D01*
X16380053Y-21838507D01*
X16220237Y-22246120D01*
X16112340Y-22605103D01*
X16054901Y-22900627D01*
X16040973Y-23119380D01*
X16037028Y-23127419D01*
X16028554Y-23130313D01*
X16025511Y-23129707D01*
X15244339Y-22862537D01*
X15237620Y-22856618D01*
X15237611Y-22856600D01*
X14856527Y-22075994D01*
X14855977Y-22067056D01*
X14861908Y-22060347D01*
X14866496Y-22059174D01*
X14969857Y-22054374D01*
X15097166Y-22036917D01*
X15191012Y-22015860D01*
X15222948Y-22008696D01*
X15222953Y-22008694D01*
X15222964Y-22008692D01*
X15355983Y-21967369D01*
X15484882Y-21916112D01*
X15614597Y-21853014D01*
X15736986Y-21782025D01*
X15850993Y-21704456D01*
X15954759Y-21622130D01*
X16118395Y-21458515D01*
X16217377Y-21316421D01*
X16224915Y-21311594D01*
X16230000Y-21311809D01*
G37*
%TD.AperFunction*%
%TD*%
%TA.AperFunction,Conductor*%
%TO.N,GND*%
G36*
X-981410Y-21313057D02*
G01*
X-977443Y-21316824D01*
X-941922Y-21371631D01*
X-920181Y-21405179D01*
X-917724Y-21408969D01*
X-845962Y-21495526D01*
X-760619Y-21581289D01*
X-662058Y-21665521D01*
X-552518Y-21745742D01*
X-316077Y-21882955D01*
X-71911Y-21982356D01*
X162726Y-22040113D01*
X166280Y-22040988D01*
X289017Y-22051358D01*
X374257Y-22058561D01*
X382211Y-22062672D01*
X384929Y-22071204D01*
X383785Y-22075352D01*
X2389Y-22856600D01*
X-4319Y-22862530D01*
X-4330Y-22862534D01*
X-4339Y-22862537D01*
X-784800Y-23129465D01*
X-793737Y-23128900D01*
X-799656Y-23122181D01*
X-800284Y-23118603D01*
X-801599Y-23044524D01*
X-801599Y-23044507D01*
X-816202Y-22890901D01*
X-816206Y-22890872D01*
X-843968Y-22729690D01*
X-893194Y-22525346D01*
X-955707Y-22318630D01*
X-1045214Y-22069131D01*
X-1045219Y-22069117D01*
X-1142651Y-21832545D01*
X-1249317Y-21601671D01*
X-1342469Y-21420939D01*
X-1343213Y-21412015D01*
X-1337429Y-21405179D01*
X-1335101Y-21404279D01*
X-990288Y-21311888D01*
X-981410Y-21313057D01*
G37*
%TD.AperFunction*%
%TD*%
%TA.AperFunction,Conductor*%
%TO.N,GND*%
G36*
X14455909Y-55422279D02*
G01*
X15236807Y-55877555D01*
X15242228Y-55884683D01*
X15242231Y-55884695D01*
X15446832Y-56664810D01*
X15445616Y-56673682D01*
X15438483Y-56679095D01*
X15435121Y-56679471D01*
X15270195Y-56673913D01*
X15070607Y-56684662D01*
X15070591Y-56684663D01*
X14858148Y-56709021D01*
X14638998Y-56743760D01*
X14205239Y-56831452D01*
X14074474Y-56862034D01*
X13818401Y-56921922D01*
X13677166Y-56955567D01*
X13668324Y-56954150D01*
X13663073Y-56946896D01*
X13662755Y-56944185D01*
X13662755Y-56587955D01*
X13666182Y-56579682D01*
X13670806Y-56576839D01*
X13744105Y-56552780D01*
X13821657Y-56515415D01*
X13903899Y-56463368D01*
X13985236Y-56399210D01*
X14064357Y-56323703D01*
X14139692Y-56237841D01*
X14268920Y-56046397D01*
X14363821Y-55839114D01*
X14421004Y-55626041D01*
X14438364Y-55431348D01*
X14442512Y-55423413D01*
X14451057Y-55420734D01*
X14455909Y-55422279D01*
G37*
%TD.AperFunction*%
%TD*%
%TA.AperFunction,Conductor*%
%TO.N,GND*%
G36*
X4443657Y-66674291D02*
G01*
X4451093Y-66679281D01*
X4452821Y-66688067D01*
X4452540Y-66689181D01*
X4410182Y-66827742D01*
X4409460Y-66829550D01*
X4354495Y-66939602D01*
X4299358Y-67060711D01*
X4290566Y-67107872D01*
X4290711Y-67160585D01*
X4303049Y-67226610D01*
X4326691Y-67294647D01*
X4326169Y-67303586D01*
X4320116Y-67309296D01*
X3989740Y-67446143D01*
X3980786Y-67446143D01*
X3974588Y-67440123D01*
X3900768Y-67275582D01*
X3836873Y-67151037D01*
X3836699Y-67150682D01*
X3746557Y-66958565D01*
X3745994Y-66957123D01*
X3708930Y-66839287D01*
X3708686Y-66838388D01*
X3674513Y-66689181D01*
X3674367Y-66688543D01*
X3675861Y-66679716D01*
X3683160Y-66674528D01*
X3683405Y-66674474D01*
X4061315Y-66598341D01*
X4065926Y-66598341D01*
X4443657Y-66674291D01*
G37*
%TD.AperFunction*%
%TD*%
%TA.AperFunction,Conductor*%
%TO.N,GND*%
G36*
X7461697Y-5962171D02*
G01*
X7467247Y-5969199D01*
X7467459Y-5970073D01*
X7543534Y-6347689D01*
X7543534Y-6352311D01*
X7467452Y-6729961D01*
X7462458Y-6737394D01*
X7453671Y-6739120D01*
X7452829Y-6738917D01*
X7275420Y-6689264D01*
X7273783Y-6688671D01*
X7145395Y-6631056D01*
X7145125Y-6630931D01*
X7085886Y-6602519D01*
X7085881Y-6602517D01*
X7085877Y-6602515D01*
X7085873Y-6602513D01*
X7085869Y-6602512D01*
X6951619Y-6557821D01*
X6862853Y-6544727D01*
X6761893Y-6540472D01*
X6753772Y-6536699D01*
X6750686Y-6528782D01*
X6750686Y-6171091D01*
X6754113Y-6162818D01*
X6761761Y-6159408D01*
X6887001Y-6152716D01*
X6989370Y-6132994D01*
X7071038Y-6104027D01*
X7145250Y-6069009D01*
X7267945Y-6013562D01*
X7269569Y-6012969D01*
X7452805Y-5961126D01*
X7461697Y-5962171D01*
G37*
%TD.AperFunction*%
%TD*%
%TA.AperFunction,Conductor*%
%TO.N,GND*%
G36*
X7632998Y-5960781D02*
G01*
X7718913Y-5983011D01*
X7720248Y-5983443D01*
X7798060Y-6013910D01*
X7799526Y-6014605D01*
X7920117Y-6082368D01*
X7920128Y-6082374D01*
X7920127Y-6082374D01*
X8021674Y-6139166D01*
X8021676Y-6139167D01*
X8132668Y-6168189D01*
X8206613Y-6170163D01*
X8285677Y-6161895D01*
X8294262Y-6164443D01*
X8298450Y-6171702D01*
X8354422Y-6525122D01*
X8352331Y-6533829D01*
X8345325Y-6538391D01*
X8126329Y-6585471D01*
X8126320Y-6585474D01*
X7974062Y-6638906D01*
X7874280Y-6675989D01*
X7873608Y-6676216D01*
X7766356Y-6708831D01*
X7765577Y-6709039D01*
X7632754Y-6739616D01*
X7623923Y-6738132D01*
X7618727Y-6730839D01*
X7618660Y-6730525D01*
X7542477Y-6352463D01*
X7542477Y-6347851D01*
X7618597Y-5969798D01*
X7623590Y-5962365D01*
X7632376Y-5960638D01*
X7632998Y-5960781D01*
G37*
%TD.AperFunction*%
%TD*%
%TA.AperFunction,Conductor*%
%TO.N,GND*%
G36*
X12409168Y-56380081D02*
G01*
X12586581Y-56429735D01*
X12588214Y-56430327D01*
X12716636Y-56487958D01*
X12716844Y-56488054D01*
X12776123Y-56516485D01*
X12820699Y-56531323D01*
X12910380Y-56561178D01*
X12910383Y-56561178D01*
X12910385Y-56561179D01*
X12999144Y-56574272D01*
X13100108Y-56578527D01*
X13108228Y-56582300D01*
X13111314Y-56590217D01*
X13111314Y-56947908D01*
X13107887Y-56956181D01*
X13100238Y-56959591D01*
X12974998Y-56966283D01*
X12903007Y-56980153D01*
X12872628Y-56986006D01*
X12872625Y-56986006D01*
X12872625Y-56986007D01*
X12790960Y-57014973D01*
X12790958Y-57014973D01*
X12716844Y-57049945D01*
X12716669Y-57050026D01*
X12594058Y-57105434D01*
X12592425Y-57106030D01*
X12409195Y-57157873D01*
X12400302Y-57156828D01*
X12394752Y-57149800D01*
X12394540Y-57148926D01*
X12385898Y-57106030D01*
X12318465Y-56771308D01*
X12318465Y-56766691D01*
X12394547Y-56389036D01*
X12399541Y-56381605D01*
X12408328Y-56379879D01*
X12409168Y-56380081D01*
G37*
%TD.AperFunction*%
%TD*%
%TA.AperFunction,Conductor*%
%TO.N,GND*%
G36*
X12952962Y-47167147D02*
G01*
X12960395Y-47172141D01*
X12962121Y-47180928D01*
X12961918Y-47181770D01*
X12912265Y-47359178D01*
X12911672Y-47360815D01*
X12854057Y-47489202D01*
X12853932Y-47489472D01*
X12825520Y-47548711D01*
X12825513Y-47548729D01*
X12780822Y-47682980D01*
X12767728Y-47771746D01*
X12763473Y-47872707D01*
X12759700Y-47880828D01*
X12751783Y-47883914D01*
X12394092Y-47883914D01*
X12385819Y-47880487D01*
X12382409Y-47872838D01*
X12375717Y-47747598D01*
X12355995Y-47645229D01*
X12327028Y-47563561D01*
X12292039Y-47489411D01*
X12291974Y-47489270D01*
X12291943Y-47489202D01*
X12236565Y-47366657D01*
X12235969Y-47365024D01*
X12184127Y-47181795D01*
X12185172Y-47172902D01*
X12192200Y-47167352D01*
X12193061Y-47167142D01*
X12570693Y-47091065D01*
X12575309Y-47091065D01*
X12952962Y-47167147D01*
G37*
%TD.AperFunction*%
%TD*%
%TA.AperFunction,Conductor*%
%TO.N,GND*%
G36*
X14456388Y-22076368D02*
G01*
X14462934Y-22082905D01*
X15232711Y-22851722D01*
X15236143Y-22859993D01*
X15232721Y-22868268D01*
X15232711Y-22868278D01*
X14459036Y-23640987D01*
X14450761Y-23644409D01*
X14442490Y-23640977D01*
X14439075Y-23633111D01*
X14438977Y-23630243D01*
X14428683Y-23562353D01*
X14408193Y-23498563D01*
X14374073Y-23431362D01*
X14329844Y-23369478D01*
X14267180Y-23303709D01*
X14195281Y-23245368D01*
X14195279Y-23245367D01*
X14195273Y-23245362D01*
X14102884Y-23186656D01*
X14102878Y-23186653D01*
X14102875Y-23186651D01*
X14005329Y-23138271D01*
X13967790Y-23123962D01*
X13899798Y-23098046D01*
X13899793Y-23098044D01*
X13899789Y-23098043D01*
X13880295Y-23092654D01*
X13797935Y-23069885D01*
X13650238Y-23051289D01*
X13642458Y-23046856D01*
X13640000Y-23039681D01*
X13640000Y-22680565D01*
X13643427Y-22672292D01*
X13650509Y-22668926D01*
X13761299Y-22657611D01*
X13956773Y-22601674D01*
X14133492Y-22515500D01*
X14270478Y-22413249D01*
X14365295Y-22302497D01*
X14421133Y-22185342D01*
X14436552Y-22082904D01*
X14441172Y-22075235D01*
X14449864Y-22073077D01*
X14456388Y-22076368D01*
G37*
%TD.AperFunction*%
%TD*%
%TA.AperFunction,Conductor*%
%TO.N,GND*%
G36*
X11948361Y-22449539D02*
G01*
X12044387Y-22473242D01*
X12045506Y-22473578D01*
X12130245Y-22503741D01*
X12131562Y-22504303D01*
X12261110Y-22569195D01*
X12261370Y-22569329D01*
X12332153Y-22607030D01*
X12460375Y-22652126D01*
X12545040Y-22665266D01*
X12545038Y-22665266D01*
X12555009Y-22665712D01*
X12639637Y-22669499D01*
X12647748Y-22673292D01*
X12650813Y-22681187D01*
X12650813Y-23038831D01*
X12647386Y-23047104D01*
X12639657Y-23050518D01*
X12512710Y-23056422D01*
X12512693Y-23056424D01*
X12409000Y-23073909D01*
X12408999Y-23073909D01*
X12325860Y-23099798D01*
X12249474Y-23131416D01*
X12249418Y-23131438D01*
X12146675Y-23173352D01*
X12145359Y-23173800D01*
X11948630Y-23227920D01*
X11939745Y-23226810D01*
X11934246Y-23219742D01*
X11934057Y-23218950D01*
X11916427Y-23131438D01*
X11857964Y-22841242D01*
X11857964Y-22836625D01*
X11934122Y-22458593D01*
X11939116Y-22451162D01*
X11947903Y-22449436D01*
X11948361Y-22449539D01*
G37*
%TD.AperFunction*%
%TD*%
%TA.AperFunction,Conductor*%
%TO.N,GND*%
G36*
X4925276Y-36651611D02*
G01*
X4932708Y-36656604D01*
X4934434Y-36665391D01*
X4934308Y-36665943D01*
X4913702Y-36747585D01*
X4913314Y-36748827D01*
X4885934Y-36821898D01*
X4885280Y-36823340D01*
X4825211Y-36934903D01*
X4825036Y-36935216D01*
X4792738Y-36991029D01*
X4749877Y-37102903D01*
X4749877Y-37102905D01*
X4738076Y-37177092D01*
X4735341Y-37259280D01*
X4731640Y-37267435D01*
X4723850Y-37270589D01*
X4366044Y-37276812D01*
X4357713Y-37273530D01*
X4354176Y-37266019D01*
X4345932Y-37159814D01*
X4345932Y-37159811D01*
X4325413Y-37071914D01*
X4296559Y-37002287D01*
X4290405Y-36991030D01*
X4262536Y-36940050D01*
X4262388Y-36939771D01*
X4203629Y-36825025D01*
X4203033Y-36823651D01*
X4202403Y-36821898D01*
X4176442Y-36749699D01*
X4176104Y-36748583D01*
X4155625Y-36665902D01*
X4156962Y-36657050D01*
X4164169Y-36651734D01*
X4164653Y-36651624D01*
X4542675Y-36575466D01*
X4547291Y-36575466D01*
X4925276Y-36651611D01*
G37*
%TD.AperFunction*%
%TD*%
%TA.AperFunction,Conductor*%
%TO.N,GND*%
G36*
X7680182Y-58037517D02*
G01*
X7683592Y-58045166D01*
X7690283Y-58170405D01*
X7701481Y-58228525D01*
X7710006Y-58272775D01*
X7710007Y-58272777D01*
X7738973Y-58354442D01*
X7738973Y-58354444D01*
X7773945Y-58428557D01*
X7774026Y-58428732D01*
X7829434Y-58551345D01*
X7830030Y-58552978D01*
X7881873Y-58736208D01*
X7880828Y-58745101D01*
X7873800Y-58750651D01*
X7872926Y-58750863D01*
X7495311Y-58826938D01*
X7490689Y-58826938D01*
X7113038Y-58750856D01*
X7105605Y-58745862D01*
X7103879Y-58737075D01*
X7104082Y-58736233D01*
X7153735Y-58558823D01*
X7154325Y-58557192D01*
X7211974Y-58428732D01*
X7212041Y-58428586D01*
X7240485Y-58369280D01*
X7285179Y-58235018D01*
X7298272Y-58146260D01*
X7302528Y-58045297D01*
X7306301Y-58037176D01*
X7314218Y-58034090D01*
X7671909Y-58034090D01*
X7680182Y-58037517D01*
G37*
%TD.AperFunction*%
%TD*%
%TA.AperFunction,Conductor*%
%TO.N,GND*%
G36*
X7872961Y-52907547D02*
G01*
X7880394Y-52912541D01*
X7882120Y-52921328D01*
X7881917Y-52922170D01*
X7832264Y-53099578D01*
X7831671Y-53101215D01*
X7774056Y-53229602D01*
X7773931Y-53229872D01*
X7745519Y-53289111D01*
X7745512Y-53289129D01*
X7700821Y-53423380D01*
X7687727Y-53512146D01*
X7683472Y-53613107D01*
X7679699Y-53621228D01*
X7671782Y-53624314D01*
X7314091Y-53624314D01*
X7305818Y-53620887D01*
X7302408Y-53613238D01*
X7295716Y-53487998D01*
X7275994Y-53385629D01*
X7247027Y-53303961D01*
X7212038Y-53229811D01*
X7211973Y-53229670D01*
X7211942Y-53229602D01*
X7156564Y-53107057D01*
X7155968Y-53105424D01*
X7104126Y-52922195D01*
X7105171Y-52913302D01*
X7112199Y-52907752D01*
X7113060Y-52907542D01*
X7490692Y-52831465D01*
X7495308Y-52831465D01*
X7872961Y-52907547D01*
G37*
%TD.AperFunction*%
%TD*%
%TA.AperFunction,Conductor*%
%TO.N,GND*%
G36*
X4251182Y-65809913D02*
G01*
X4254592Y-65817562D01*
X4261283Y-65942801D01*
X4272481Y-66000921D01*
X4281006Y-66045171D01*
X4281007Y-66045173D01*
X4309973Y-66126838D01*
X4309973Y-66126840D01*
X4344945Y-66200953D01*
X4345026Y-66201128D01*
X4400434Y-66323741D01*
X4401030Y-66325374D01*
X4452873Y-66508604D01*
X4451828Y-66517497D01*
X4444800Y-66523047D01*
X4443926Y-66523259D01*
X4066311Y-66599334D01*
X4061689Y-66599334D01*
X3684038Y-66523252D01*
X3676605Y-66518258D01*
X3674879Y-66509471D01*
X3675082Y-66508629D01*
X3724735Y-66331219D01*
X3725325Y-66329588D01*
X3782974Y-66201128D01*
X3783041Y-66200982D01*
X3811485Y-66141676D01*
X3856179Y-66007414D01*
X3869272Y-65918656D01*
X3873528Y-65817693D01*
X3877301Y-65809572D01*
X3885218Y-65806486D01*
X4242909Y-65806486D01*
X4251182Y-65809913D01*
G37*
%TD.AperFunction*%
%TD*%
%TA.AperFunction,Conductor*%
%TO.N,GND*%
G36*
X12760183Y-46302713D02*
G01*
X12763593Y-46310362D01*
X12770284Y-46435601D01*
X12781482Y-46493721D01*
X12790007Y-46537971D01*
X12790008Y-46537973D01*
X12818974Y-46619638D01*
X12818974Y-46619640D01*
X12853946Y-46693753D01*
X12854027Y-46693928D01*
X12909435Y-46816541D01*
X12910031Y-46818174D01*
X12961874Y-47001404D01*
X12960829Y-47010297D01*
X12953801Y-47015847D01*
X12952927Y-47016059D01*
X12575312Y-47092134D01*
X12570690Y-47092134D01*
X12193039Y-47016052D01*
X12185606Y-47011058D01*
X12183880Y-47002271D01*
X12184083Y-47001429D01*
X12233736Y-46824019D01*
X12234326Y-46822388D01*
X12291975Y-46693928D01*
X12292042Y-46693782D01*
X12320486Y-46634476D01*
X12365180Y-46500214D01*
X12378273Y-46411456D01*
X12382529Y-46310493D01*
X12386302Y-46302372D01*
X12394219Y-46299286D01*
X12751910Y-46299286D01*
X12760183Y-46302713D01*
G37*
%TD.AperFunction*%
%TD*%
%TA.AperFunction,Conductor*%
%TO.N,GND*%
G36*
X7872961Y-29539547D02*
G01*
X7880394Y-29544541D01*
X7882120Y-29553328D01*
X7881917Y-29554170D01*
X7832264Y-29731578D01*
X7831671Y-29733215D01*
X7774056Y-29861602D01*
X7773931Y-29861872D01*
X7745519Y-29921111D01*
X7745512Y-29921129D01*
X7700821Y-30055380D01*
X7687727Y-30144146D01*
X7683472Y-30245107D01*
X7679699Y-30253228D01*
X7671782Y-30256314D01*
X7314091Y-30256314D01*
X7305818Y-30252887D01*
X7302408Y-30245238D01*
X7295716Y-30119998D01*
X7275994Y-30017629D01*
X7247027Y-29935961D01*
X7212038Y-29861811D01*
X7211973Y-29861670D01*
X7211942Y-29861602D01*
X7156564Y-29739057D01*
X7155968Y-29737424D01*
X7104126Y-29554195D01*
X7105171Y-29545302D01*
X7112199Y-29539752D01*
X7113060Y-29539542D01*
X7490692Y-29463465D01*
X7495308Y-29463465D01*
X7872961Y-29539547D01*
G37*
%TD.AperFunction*%
%TD*%
%TA.AperFunction,Conductor*%
%TO.N,GND*%
G36*
X4748761Y-13943947D02*
G01*
X4756194Y-13948941D01*
X4757920Y-13957728D01*
X4757717Y-13958570D01*
X4708064Y-14135978D01*
X4707471Y-14137615D01*
X4649856Y-14266002D01*
X4649731Y-14266272D01*
X4621319Y-14325511D01*
X4621312Y-14325529D01*
X4576621Y-14459780D01*
X4563527Y-14548546D01*
X4559272Y-14649507D01*
X4555499Y-14657628D01*
X4547582Y-14660714D01*
X4189891Y-14660714D01*
X4181618Y-14657287D01*
X4178208Y-14649638D01*
X4171516Y-14524398D01*
X4151794Y-14422029D01*
X4122827Y-14340361D01*
X4087838Y-14266211D01*
X4087773Y-14266070D01*
X4087742Y-14266002D01*
X4032364Y-14143457D01*
X4031768Y-14141824D01*
X3979926Y-13958595D01*
X3980971Y-13949702D01*
X3987999Y-13944152D01*
X3988860Y-13943942D01*
X4366492Y-13867865D01*
X4371108Y-13867865D01*
X4748761Y-13943947D01*
G37*
%TD.AperFunction*%
%TD*%
%TA.AperFunction,Conductor*%
%TO.N,GND*%
G36*
X7922961Y-6425547D02*
G01*
X7930394Y-6430541D01*
X7932120Y-6439328D01*
X7931917Y-6440170D01*
X7882264Y-6617578D01*
X7881671Y-6619215D01*
X7824056Y-6747602D01*
X7823931Y-6747872D01*
X7795519Y-6807111D01*
X7795512Y-6807129D01*
X7750821Y-6941380D01*
X7737727Y-7030146D01*
X7733472Y-7131107D01*
X7729699Y-7139228D01*
X7721782Y-7142314D01*
X7364091Y-7142314D01*
X7355818Y-7138887D01*
X7352408Y-7131238D01*
X7345716Y-7005998D01*
X7325994Y-6903629D01*
X7297027Y-6821961D01*
X7262038Y-6747811D01*
X7261973Y-6747670D01*
X7261942Y-6747602D01*
X7206564Y-6625057D01*
X7205968Y-6623424D01*
X7154126Y-6440195D01*
X7155171Y-6431302D01*
X7162199Y-6425752D01*
X7163060Y-6425542D01*
X7540692Y-6349465D01*
X7545308Y-6349465D01*
X7922961Y-6425547D01*
G37*
%TD.AperFunction*%
%TD*%
%TA.AperFunction,Conductor*%
%TO.N,GND*%
G36*
X1836152Y-57823252D02*
G01*
X1836485Y-57823465D01*
X2157620Y-58036882D01*
X2160887Y-58040149D01*
X2374319Y-58361198D01*
X2376046Y-58369984D01*
X2371053Y-58377418D01*
X2370421Y-58377811D01*
X2301468Y-58417573D01*
X2299995Y-58418289D01*
X2229723Y-58446601D01*
X2227922Y-58447163D01*
X2104238Y-58475027D01*
X2104171Y-58475042D01*
X2006306Y-58496481D01*
X1915199Y-58544103D01*
X1866551Y-58588203D01*
X1822337Y-58642041D01*
X1814438Y-58646259D01*
X1806418Y-58644080D01*
X1516731Y-58433609D01*
X1512052Y-58425974D01*
X1513678Y-58417956D01*
X1618884Y-58249167D01*
X1674772Y-58115565D01*
X1717430Y-58008925D01*
X1717839Y-58008020D01*
X1760897Y-57923020D01*
X1761363Y-57922189D01*
X1820053Y-57827065D01*
X1827312Y-57821824D01*
X1836152Y-57823252D01*
G37*
%TD.AperFunction*%
%TD*%
%TA.AperFunction,Conductor*%
%TO.N,GND*%
G36*
X7873133Y-58901985D02*
G01*
X7880566Y-58906978D01*
X7882291Y-58915765D01*
X7882132Y-58916450D01*
X7834462Y-59096415D01*
X7833963Y-59097893D01*
X7781269Y-59225215D01*
X7729950Y-59349816D01*
X7703035Y-59442917D01*
X7681031Y-59555224D01*
X7676077Y-59562683D01*
X7667719Y-59564530D01*
X7314100Y-59508521D01*
X7306464Y-59503842D01*
X7304256Y-59496183D01*
X7311250Y-59391735D01*
X7311249Y-59391728D01*
X7296281Y-59305800D01*
X7296280Y-59305794D01*
X7264941Y-59237531D01*
X7223690Y-59175669D01*
X7223421Y-59175248D01*
X7176062Y-59097172D01*
X7147153Y-59049514D01*
X7146010Y-59046997D01*
X7104640Y-58916876D01*
X7105399Y-58907955D01*
X7112245Y-58902183D01*
X7113467Y-58901866D01*
X7490851Y-58825881D01*
X7495463Y-58825881D01*
X7873133Y-58901985D01*
G37*
%TD.AperFunction*%
%TD*%
%TA.AperFunction,Conductor*%
%TO.N,GND*%
G36*
X7680182Y-52043113D02*
G01*
X7683592Y-52050762D01*
X7690283Y-52176001D01*
X7701481Y-52234121D01*
X7710006Y-52278371D01*
X7710007Y-52278373D01*
X7738973Y-52360038D01*
X7738973Y-52360040D01*
X7773945Y-52434153D01*
X7774026Y-52434328D01*
X7829434Y-52556941D01*
X7830030Y-52558574D01*
X7881873Y-52741804D01*
X7880828Y-52750697D01*
X7873800Y-52756247D01*
X7872926Y-52756459D01*
X7495311Y-52832534D01*
X7490689Y-52832534D01*
X7113038Y-52756452D01*
X7105605Y-52751458D01*
X7103879Y-52742671D01*
X7104082Y-52741829D01*
X7153735Y-52564419D01*
X7154325Y-52562788D01*
X7211974Y-52434328D01*
X7212041Y-52434182D01*
X7240485Y-52374876D01*
X7285179Y-52240614D01*
X7298272Y-52151856D01*
X7302528Y-52050893D01*
X7306301Y-52042772D01*
X7314218Y-52039686D01*
X7671909Y-52039686D01*
X7680182Y-52043113D01*
G37*
%TD.AperFunction*%
%TD*%
%TA.AperFunction,Conductor*%
%TO.N,GND*%
G36*
X7624005Y-46229689D02*
G01*
X7624049Y-46229718D01*
X7734317Y-46303728D01*
X7942228Y-46443274D01*
X7947188Y-46450730D01*
X7945423Y-46459509D01*
X7944985Y-46460119D01*
X7821103Y-46621304D01*
X7821029Y-46621399D01*
X7749384Y-46712660D01*
X7702498Y-46815906D01*
X7687938Y-46895811D01*
X7687937Y-46895819D01*
X7683528Y-46988887D01*
X7679713Y-46996988D01*
X7671841Y-47000033D01*
X7314361Y-47000033D01*
X7306088Y-46996606D01*
X7302666Y-46988677D01*
X7293386Y-46673366D01*
X7244147Y-46388304D01*
X7244142Y-46388274D01*
X7229978Y-46317492D01*
X7231715Y-46308709D01*
X7239139Y-46303728D01*
X7615218Y-46227963D01*
X7624005Y-46229689D01*
G37*
%TD.AperFunction*%
%TD*%
%TA.AperFunction,Conductor*%
%TO.N,GND*%
G36*
X7680182Y-22071113D02*
G01*
X7683592Y-22078762D01*
X7690283Y-22204001D01*
X7701481Y-22262121D01*
X7710006Y-22306371D01*
X7710007Y-22306373D01*
X7738973Y-22388038D01*
X7738973Y-22388040D01*
X7773945Y-22462153D01*
X7774026Y-22462328D01*
X7829434Y-22584941D01*
X7830030Y-22586574D01*
X7881873Y-22769804D01*
X7880828Y-22778697D01*
X7873800Y-22784247D01*
X7872926Y-22784459D01*
X7495311Y-22860534D01*
X7490689Y-22860534D01*
X7113038Y-22784452D01*
X7105605Y-22779458D01*
X7103879Y-22770671D01*
X7104082Y-22769829D01*
X7153735Y-22592419D01*
X7154325Y-22590788D01*
X7211974Y-22462328D01*
X7212041Y-22462182D01*
X7240485Y-22402876D01*
X7285179Y-22268614D01*
X7298272Y-22179856D01*
X7302528Y-22078893D01*
X7306301Y-22070772D01*
X7314218Y-22067686D01*
X7671909Y-22067686D01*
X7680182Y-22071113D01*
G37*
%TD.AperFunction*%
%TD*%
%TA.AperFunction,Conductor*%
%TO.N,GND*%
G36*
X7680182Y-28675113D02*
G01*
X7683592Y-28682762D01*
X7690283Y-28808001D01*
X7701481Y-28866121D01*
X7710006Y-28910371D01*
X7710007Y-28910373D01*
X7738973Y-28992038D01*
X7738973Y-28992040D01*
X7773945Y-29066153D01*
X7774026Y-29066328D01*
X7829434Y-29188941D01*
X7830030Y-29190574D01*
X7881873Y-29373804D01*
X7880828Y-29382697D01*
X7873800Y-29388247D01*
X7872926Y-29388459D01*
X7495311Y-29464534D01*
X7490689Y-29464534D01*
X7113038Y-29388452D01*
X7105605Y-29383458D01*
X7103879Y-29374671D01*
X7104082Y-29373829D01*
X7153735Y-29196419D01*
X7154325Y-29194788D01*
X7211974Y-29066328D01*
X7212041Y-29066182D01*
X7240485Y-29006876D01*
X7285179Y-28872614D01*
X7298272Y-28783856D01*
X7302528Y-28682893D01*
X7306301Y-28674772D01*
X7314218Y-28671686D01*
X7671909Y-28671686D01*
X7680182Y-28675113D01*
G37*
%TD.AperFunction*%
%TD*%
%TA.AperFunction,Conductor*%
%TO.N,GND*%
G36*
X7872961Y-22935547D02*
G01*
X7880394Y-22940541D01*
X7882120Y-22949328D01*
X7881917Y-22950170D01*
X7832264Y-23127578D01*
X7831671Y-23129215D01*
X7774056Y-23257602D01*
X7773931Y-23257872D01*
X7745519Y-23317111D01*
X7745512Y-23317129D01*
X7700821Y-23451380D01*
X7687727Y-23540146D01*
X7683472Y-23641107D01*
X7679699Y-23649228D01*
X7671782Y-23652314D01*
X7314091Y-23652314D01*
X7305818Y-23648887D01*
X7302408Y-23641238D01*
X7295716Y-23515998D01*
X7275994Y-23413629D01*
X7247027Y-23331961D01*
X7212038Y-23257811D01*
X7211973Y-23257670D01*
X7211942Y-23257602D01*
X7156564Y-23135057D01*
X7155968Y-23133424D01*
X7104126Y-22950195D01*
X7105171Y-22941302D01*
X7112199Y-22935752D01*
X7113060Y-22935542D01*
X7490692Y-22859465D01*
X7495308Y-22859465D01*
X7872961Y-22935547D01*
G37*
%TD.AperFunction*%
%TD*%
%TA.AperFunction,Conductor*%
%TO.N,GND*%
G36*
X4732182Y-35787113D02*
G01*
X4735592Y-35794762D01*
X4742283Y-35920001D01*
X4753481Y-35978121D01*
X4762006Y-36022371D01*
X4762007Y-36022373D01*
X4790973Y-36104038D01*
X4790973Y-36104040D01*
X4825945Y-36178153D01*
X4826026Y-36178328D01*
X4881434Y-36300941D01*
X4882030Y-36302574D01*
X4933873Y-36485804D01*
X4932828Y-36494697D01*
X4925800Y-36500247D01*
X4924926Y-36500459D01*
X4547311Y-36576534D01*
X4542689Y-36576534D01*
X4165038Y-36500452D01*
X4157605Y-36495458D01*
X4155879Y-36486671D01*
X4156082Y-36485829D01*
X4205735Y-36308419D01*
X4206325Y-36306788D01*
X4263974Y-36178328D01*
X4264041Y-36178182D01*
X4292485Y-36118876D01*
X4337179Y-35984614D01*
X4350272Y-35895856D01*
X4354528Y-35794893D01*
X4358301Y-35786772D01*
X4366218Y-35783686D01*
X4723909Y-35783686D01*
X4732182Y-35787113D01*
G37*
%TD.AperFunction*%
%TD*%
%TA.AperFunction,Conductor*%
%TO.N,GND*%
G36*
X14454815Y-22534734D02*
G01*
X15236206Y-22857430D01*
X15242544Y-22863754D01*
X15242554Y-22863778D01*
X15565068Y-23644769D01*
X15565059Y-23653724D01*
X15558720Y-23660049D01*
X15554906Y-23660917D01*
X15417644Y-23668575D01*
X15417642Y-23668576D01*
X15275830Y-23690102D01*
X15275826Y-23690103D01*
X15133145Y-23723237D01*
X14989783Y-23767532D01*
X14974624Y-23772216D01*
X14819021Y-23831915D01*
X14657162Y-23905907D01*
X14657140Y-23905918D01*
X14503795Y-23987541D01*
X14503781Y-23987549D01*
X14361341Y-24074478D01*
X14232721Y-24164089D01*
X14232710Y-24164097D01*
X14050344Y-24319542D01*
X14041825Y-24322301D01*
X14034565Y-24318995D01*
X13778599Y-24068163D01*
X13775089Y-24059925D01*
X13777889Y-24052210D01*
X13931854Y-23871938D01*
X14108961Y-23601120D01*
X14256441Y-23307073D01*
X14361063Y-23021200D01*
X14421077Y-22759765D01*
X14438692Y-22544591D01*
X14442781Y-22536628D01*
X14451307Y-22533888D01*
X14454815Y-22534734D01*
G37*
%TD.AperFunction*%
%TD*%
%TA.AperFunction,Conductor*%
%TO.N,GND*%
G36*
X1822380Y-76104453D02*
G01*
X1890686Y-76182467D01*
X1961536Y-76232068D01*
X2031498Y-76257724D01*
X2103945Y-76271894D01*
X2104376Y-76271988D01*
X2246752Y-76306343D01*
X2249375Y-76307321D01*
X2369620Y-76369408D01*
X2375399Y-76376249D01*
X2374648Y-76385172D01*
X2373995Y-76386281D01*
X2160892Y-76706835D01*
X2157625Y-76710102D01*
X1836772Y-76923332D01*
X1827985Y-76925057D01*
X1820552Y-76920064D01*
X1820174Y-76919456D01*
X1727461Y-76759514D01*
X1726762Y-76758094D01*
X1699877Y-76692582D01*
X1674772Y-76631405D01*
X1674772Y-76631404D01*
X1623444Y-76507032D01*
X1623442Y-76507027D01*
X1577243Y-76422978D01*
X1577235Y-76422963D01*
X1514206Y-76329134D01*
X1512438Y-76320357D01*
X1517040Y-76313148D01*
X1806702Y-76102695D01*
X1815408Y-76100605D01*
X1822380Y-76104453D01*
G37*
%TD.AperFunction*%
%TD*%
%TA.AperFunction,Conductor*%
%TO.N,GND*%
G36*
X4866160Y-76269073D02*
G01*
X5043573Y-76318727D01*
X5045206Y-76319319D01*
X5173628Y-76376950D01*
X5173836Y-76377046D01*
X5233115Y-76405477D01*
X5277691Y-76420315D01*
X5367372Y-76450170D01*
X5367375Y-76450170D01*
X5367377Y-76450171D01*
X5456136Y-76463264D01*
X5557100Y-76467519D01*
X5565220Y-76471292D01*
X5568306Y-76479209D01*
X5568306Y-76836900D01*
X5564879Y-76845173D01*
X5557230Y-76848583D01*
X5431990Y-76855275D01*
X5359999Y-76869145D01*
X5329620Y-76874998D01*
X5329617Y-76874998D01*
X5329617Y-76874999D01*
X5247952Y-76903965D01*
X5247950Y-76903965D01*
X5173836Y-76938937D01*
X5173661Y-76939018D01*
X5051050Y-76994426D01*
X5049417Y-76995022D01*
X4866187Y-77046865D01*
X4857294Y-77045820D01*
X4851744Y-77038792D01*
X4851532Y-77037918D01*
X4842890Y-76995022D01*
X4775457Y-76660300D01*
X4775457Y-76655683D01*
X4851539Y-76278028D01*
X4856533Y-76270597D01*
X4865320Y-76268871D01*
X4866160Y-76269073D01*
G37*
%TD.AperFunction*%
%TD*%
%TA.AperFunction,Conductor*%
%TO.N,GND*%
G36*
X4555982Y-13079513D02*
G01*
X4559392Y-13087162D01*
X4566083Y-13212401D01*
X4577281Y-13270521D01*
X4585806Y-13314771D01*
X4585807Y-13314773D01*
X4614773Y-13396438D01*
X4614773Y-13396440D01*
X4649745Y-13470553D01*
X4649826Y-13470728D01*
X4705234Y-13593341D01*
X4705830Y-13594974D01*
X4757673Y-13778204D01*
X4756628Y-13787097D01*
X4749600Y-13792647D01*
X4748726Y-13792859D01*
X4371111Y-13868934D01*
X4366489Y-13868934D01*
X3988838Y-13792852D01*
X3981405Y-13787858D01*
X3979679Y-13779071D01*
X3979882Y-13778229D01*
X4029535Y-13600819D01*
X4030125Y-13599188D01*
X4087774Y-13470728D01*
X4087841Y-13470582D01*
X4116285Y-13411276D01*
X4160979Y-13277014D01*
X4174072Y-13188256D01*
X4178328Y-13087293D01*
X4182101Y-13079172D01*
X4190018Y-13076086D01*
X4547709Y-13076086D01*
X4555982Y-13079513D01*
G37*
%TD.AperFunction*%
%TD*%
%TA.AperFunction,Conductor*%
%TO.N,GND*%
G36*
X6664178Y-72744113D02*
G01*
X6667588Y-72751762D01*
X6674279Y-72877001D01*
X6685477Y-72935121D01*
X6694002Y-72979371D01*
X6694003Y-72979373D01*
X6722970Y-73061038D01*
X6722970Y-73061040D01*
X6757943Y-73135154D01*
X6758024Y-73135329D01*
X6813435Y-73257943D01*
X6814031Y-73259576D01*
X6865873Y-73442804D01*
X6864828Y-73451697D01*
X6857800Y-73457247D01*
X6856926Y-73457459D01*
X6479311Y-73533534D01*
X6474689Y-73533534D01*
X6097038Y-73457452D01*
X6089605Y-73452458D01*
X6087879Y-73443671D01*
X6088082Y-73442829D01*
X6137734Y-73265421D01*
X6138324Y-73263790D01*
X6195972Y-73135329D01*
X6196039Y-73135183D01*
X6224482Y-73075880D01*
X6269175Y-72941617D01*
X6282268Y-72852858D01*
X6286524Y-72751893D01*
X6290297Y-72743772D01*
X6298214Y-72740686D01*
X6655905Y-72740686D01*
X6664178Y-72744113D01*
G37*
%TD.AperFunction*%
%TD*%
%TA.AperFunction,Conductor*%
%TO.N,GND*%
G36*
X6856961Y-73608547D02*
G01*
X6864394Y-73613541D01*
X6866120Y-73622328D01*
X6865917Y-73623170D01*
X6816264Y-73800578D01*
X6815671Y-73802215D01*
X6758056Y-73930602D01*
X6757931Y-73930872D01*
X6729519Y-73990111D01*
X6729512Y-73990129D01*
X6684821Y-74124380D01*
X6671727Y-74213146D01*
X6667472Y-74314107D01*
X6663699Y-74322228D01*
X6655782Y-74325314D01*
X6298091Y-74325314D01*
X6289818Y-74321887D01*
X6286408Y-74314238D01*
X6279716Y-74188998D01*
X6259994Y-74086629D01*
X6231027Y-74004961D01*
X6196038Y-73930811D01*
X6195973Y-73930670D01*
X6195942Y-73930602D01*
X6140564Y-73808057D01*
X6139968Y-73806424D01*
X6088126Y-73623195D01*
X6089171Y-73614302D01*
X6096199Y-73608752D01*
X6097060Y-73608542D01*
X6474692Y-73532465D01*
X6479308Y-73532465D01*
X6856961Y-73608547D01*
G37*
%TD.AperFunction*%
%TD*%
%TA.AperFunction,Conductor*%
%TO.N,GND*%
G36*
X12506182Y-73125113D02*
G01*
X12509592Y-73132762D01*
X12516283Y-73258001D01*
X12527481Y-73316121D01*
X12536006Y-73360371D01*
X12536007Y-73360373D01*
X12564973Y-73442038D01*
X12564973Y-73442040D01*
X12599945Y-73516153D01*
X12600026Y-73516328D01*
X12655434Y-73638941D01*
X12656030Y-73640574D01*
X12707873Y-73823804D01*
X12706828Y-73832697D01*
X12699800Y-73838247D01*
X12698926Y-73838459D01*
X12321311Y-73914534D01*
X12316689Y-73914534D01*
X11939038Y-73838452D01*
X11931605Y-73833458D01*
X11929879Y-73824671D01*
X11930082Y-73823829D01*
X11979735Y-73646419D01*
X11980325Y-73644788D01*
X12037974Y-73516328D01*
X12038041Y-73516182D01*
X12066485Y-73456876D01*
X12111179Y-73322614D01*
X12124272Y-73233856D01*
X12128528Y-73132893D01*
X12132301Y-73124772D01*
X12140218Y-73121686D01*
X12497909Y-73121686D01*
X12506182Y-73125113D01*
G37*
%TD.AperFunction*%
%TD*%
%TA.AperFunction,Conductor*%
%TO.N,GND*%
G36*
X12698961Y-56844547D02*
G01*
X12706394Y-56849541D01*
X12708120Y-56858328D01*
X12707917Y-56859170D01*
X12658264Y-57036578D01*
X12657671Y-57038215D01*
X12600056Y-57166602D01*
X12599931Y-57166872D01*
X12571519Y-57226111D01*
X12571512Y-57226129D01*
X12526821Y-57360380D01*
X12513727Y-57449146D01*
X12509472Y-57550107D01*
X12505699Y-57558228D01*
X12497782Y-57561314D01*
X12140091Y-57561314D01*
X12131818Y-57557887D01*
X12128408Y-57550238D01*
X12121716Y-57424998D01*
X12101994Y-57322629D01*
X12073027Y-57240961D01*
X12038038Y-57166811D01*
X12037973Y-57166670D01*
X12037942Y-57166602D01*
X11982564Y-57044057D01*
X11981968Y-57042424D01*
X11930126Y-56859195D01*
X11931171Y-56850302D01*
X11938199Y-56844752D01*
X11939060Y-56844542D01*
X12316692Y-56768465D01*
X12321308Y-56768465D01*
X12698961Y-56844547D01*
G37*
%TD.AperFunction*%
%TD*%
%TA.AperFunction,Conductor*%
%TO.N,GND*%
G36*
X7807182Y-45439113D02*
G01*
X7810592Y-45446762D01*
X7817283Y-45572001D01*
X7828481Y-45630121D01*
X7837006Y-45674371D01*
X7837007Y-45674373D01*
X7865973Y-45756038D01*
X7865973Y-45756040D01*
X7900945Y-45830153D01*
X7901026Y-45830328D01*
X7956434Y-45952941D01*
X7957030Y-45954574D01*
X8008873Y-46137804D01*
X8007828Y-46146697D01*
X8000800Y-46152247D01*
X7999926Y-46152459D01*
X7622311Y-46228534D01*
X7617689Y-46228534D01*
X7240038Y-46152452D01*
X7232605Y-46147458D01*
X7230879Y-46138671D01*
X7231082Y-46137829D01*
X7280735Y-45960419D01*
X7281325Y-45958788D01*
X7338974Y-45830328D01*
X7339041Y-45830182D01*
X7367485Y-45770876D01*
X7412179Y-45636614D01*
X7425272Y-45547856D01*
X7429528Y-45446893D01*
X7433301Y-45438772D01*
X7441218Y-45435686D01*
X7798909Y-45435686D01*
X7807182Y-45439113D01*
G37*
%TD.AperFunction*%
%TD*%
%TA.AperFunction,Conductor*%
%TO.N,GND*%
G36*
X12443818Y-55980113D02*
G01*
X12447214Y-55987531D01*
X12456261Y-56111057D01*
X12456262Y-56111061D01*
X12482676Y-56211183D01*
X12482677Y-56211186D01*
X12521009Y-56289745D01*
X12566580Y-56359386D01*
X12588813Y-56392110D01*
X12589373Y-56393021D01*
X12659630Y-56520017D01*
X12660384Y-56521672D01*
X12687740Y-56596676D01*
X12688100Y-56597855D01*
X12708351Y-56679082D01*
X12707028Y-56687938D01*
X12699829Y-56693264D01*
X12699310Y-56693382D01*
X12321311Y-56769534D01*
X12316689Y-56769534D01*
X11938528Y-56693349D01*
X11931095Y-56688355D01*
X11929369Y-56679568D01*
X11929433Y-56679271D01*
X11966210Y-56522779D01*
X11966400Y-56522075D01*
X11966522Y-56521672D01*
X12002710Y-56402151D01*
X12048428Y-56231057D01*
X12061671Y-56122506D01*
X12066051Y-55988004D01*
X12069746Y-55979848D01*
X12077745Y-55976686D01*
X12435545Y-55976686D01*
X12443818Y-55980113D01*
G37*
%TD.AperFunction*%
%TD*%
%TA.AperFunction,Conductor*%
%TO.N,GND*%
G36*
X9747693Y-75558161D02*
G01*
X9753243Y-75565189D01*
X9753455Y-75566063D01*
X9829530Y-75943679D01*
X9829530Y-75948301D01*
X9753448Y-76325951D01*
X9748454Y-76333384D01*
X9739667Y-76335110D01*
X9738825Y-76334907D01*
X9561416Y-76285254D01*
X9559779Y-76284661D01*
X9431391Y-76227046D01*
X9431121Y-76226921D01*
X9371882Y-76198509D01*
X9371877Y-76198507D01*
X9371873Y-76198505D01*
X9371869Y-76198503D01*
X9371865Y-76198502D01*
X9237615Y-76153811D01*
X9148849Y-76140717D01*
X9047889Y-76136462D01*
X9039768Y-76132689D01*
X9036682Y-76124772D01*
X9036682Y-75767081D01*
X9040109Y-75758808D01*
X9047757Y-75755398D01*
X9172997Y-75748706D01*
X9275366Y-75728984D01*
X9357034Y-75700017D01*
X9431246Y-75664999D01*
X9553941Y-75609552D01*
X9555565Y-75608959D01*
X9738801Y-75557116D01*
X9747693Y-75558161D01*
G37*
%TD.AperFunction*%
%TD*%
%TA.AperFunction,Conductor*%
%TO.N,5V*%
G36*
X11428961Y-28015547D02*
G01*
X11436394Y-28020541D01*
X11438120Y-28029328D01*
X11437917Y-28030170D01*
X11388264Y-28207578D01*
X11387671Y-28209215D01*
X11330056Y-28337602D01*
X11329931Y-28337872D01*
X11301519Y-28397111D01*
X11301512Y-28397129D01*
X11256821Y-28531380D01*
X11243727Y-28620146D01*
X11239472Y-28721107D01*
X11235699Y-28729228D01*
X11227782Y-28732314D01*
X10870091Y-28732314D01*
X10861818Y-28728887D01*
X10858408Y-28721238D01*
X10851716Y-28595998D01*
X10831994Y-28493629D01*
X10803027Y-28411961D01*
X10768038Y-28337811D01*
X10767973Y-28337670D01*
X10767942Y-28337602D01*
X10712564Y-28215057D01*
X10711968Y-28213424D01*
X10660126Y-28030195D01*
X10661171Y-28021302D01*
X10668199Y-28015752D01*
X10669060Y-28015542D01*
X11046692Y-27939465D01*
X11051308Y-27939465D01*
X11428961Y-28015547D01*
G37*
%TD.AperFunction*%
%TD*%
%TA.AperFunction,Conductor*%
%TO.N,5V*%
G36*
X11236182Y-44042113D02*
G01*
X11239592Y-44049762D01*
X11246283Y-44175001D01*
X11257481Y-44233121D01*
X11266006Y-44277371D01*
X11266007Y-44277373D01*
X11294973Y-44359038D01*
X11294973Y-44359040D01*
X11329945Y-44433153D01*
X11330026Y-44433328D01*
X11385434Y-44555941D01*
X11386030Y-44557574D01*
X11437873Y-44740804D01*
X11436828Y-44749697D01*
X11429800Y-44755247D01*
X11428926Y-44755459D01*
X11051311Y-44831534D01*
X11046689Y-44831534D01*
X10669038Y-44755452D01*
X10661605Y-44750458D01*
X10659879Y-44741671D01*
X10660082Y-44740829D01*
X10709735Y-44563419D01*
X10710325Y-44561788D01*
X10767974Y-44433328D01*
X10768041Y-44433182D01*
X10796485Y-44373876D01*
X10841179Y-44239614D01*
X10854272Y-44150856D01*
X10858528Y-44049893D01*
X10862301Y-44041772D01*
X10870218Y-44038686D01*
X11227909Y-44038686D01*
X11236182Y-44042113D01*
G37*
%TD.AperFunction*%
%TD*%
%TA.AperFunction,Conductor*%
%TO.N,5V*%
G36*
X3233189Y-4102375D02*
G01*
X3234422Y-4103091D01*
X3554846Y-4316108D01*
X3558112Y-4319374D01*
X3771236Y-4640067D01*
X3772961Y-4648854D01*
X3767968Y-4656287D01*
X3767203Y-4656754D01*
X3619484Y-4739375D01*
X3617686Y-4740190D01*
X3498195Y-4782595D01*
X3374470Y-4827319D01*
X3374456Y-4827324D01*
X3374454Y-4827326D01*
X3374450Y-4827328D01*
X3374448Y-4827329D01*
X3299557Y-4866713D01*
X3218671Y-4920390D01*
X3209883Y-4922109D01*
X3202738Y-4917518D01*
X2992201Y-4627740D01*
X2990111Y-4619035D01*
X2993891Y-4612123D01*
X3062704Y-4550954D01*
X3105522Y-4486104D01*
X3125934Y-4421715D01*
X3135447Y-4354888D01*
X3137753Y-4335129D01*
X3137924Y-4334082D01*
X3141016Y-4319374D01*
X3162137Y-4218878D01*
X3163127Y-4216042D01*
X3217488Y-4107590D01*
X3224257Y-4101732D01*
X3233189Y-4102375D01*
G37*
%TD.AperFunction*%
%TD*%
%TA.AperFunction,Conductor*%
%TO.N,5V*%
G36*
X11236182Y-27151113D02*
G01*
X11239592Y-27158762D01*
X11246283Y-27284001D01*
X11257481Y-27342121D01*
X11266006Y-27386371D01*
X11266007Y-27386373D01*
X11294973Y-27468038D01*
X11294973Y-27468040D01*
X11329945Y-27542153D01*
X11330026Y-27542328D01*
X11385434Y-27664941D01*
X11386030Y-27666574D01*
X11437873Y-27849804D01*
X11436828Y-27858697D01*
X11429800Y-27864247D01*
X11428926Y-27864459D01*
X11051311Y-27940534D01*
X11046689Y-27940534D01*
X10669038Y-27864452D01*
X10661605Y-27859458D01*
X10659879Y-27850671D01*
X10660082Y-27849829D01*
X10709735Y-27672419D01*
X10710325Y-27670788D01*
X10767974Y-27542328D01*
X10768041Y-27542182D01*
X10796485Y-27482876D01*
X10841179Y-27348614D01*
X10854272Y-27259856D01*
X10858528Y-27158893D01*
X10862301Y-27150772D01*
X10870218Y-27147686D01*
X11227909Y-27147686D01*
X11236182Y-27151113D01*
G37*
%TD.AperFunction*%
%TD*%
%TA.AperFunction,Conductor*%
%TO.N,5V*%
G36*
X11428961Y-6453547D02*
G01*
X11436394Y-6458541D01*
X11438120Y-6467328D01*
X11437917Y-6468170D01*
X11388264Y-6645578D01*
X11387671Y-6647215D01*
X11330056Y-6775602D01*
X11329931Y-6775872D01*
X11301519Y-6835111D01*
X11301512Y-6835129D01*
X11256821Y-6969380D01*
X11243727Y-7058146D01*
X11239472Y-7159107D01*
X11235699Y-7167228D01*
X11227782Y-7170314D01*
X10870091Y-7170314D01*
X10861818Y-7166887D01*
X10858408Y-7159238D01*
X10851716Y-7033998D01*
X10831994Y-6931629D01*
X10803027Y-6849961D01*
X10768038Y-6775811D01*
X10767973Y-6775670D01*
X10767942Y-6775602D01*
X10712564Y-6653057D01*
X10711968Y-6651424D01*
X10660126Y-6468195D01*
X10661171Y-6459302D01*
X10668199Y-6453752D01*
X10669060Y-6453542D01*
X11046692Y-6377465D01*
X11051308Y-6377465D01*
X11428961Y-6453547D01*
G37*
%TD.AperFunction*%
%TD*%
%TA.AperFunction,Conductor*%
%TO.N,5V*%
G36*
X11236182Y-72772113D02*
G01*
X11239592Y-72779762D01*
X11246283Y-72905001D01*
X11257481Y-72963121D01*
X11266006Y-73007371D01*
X11266007Y-73007373D01*
X11294973Y-73089038D01*
X11294973Y-73089040D01*
X11329945Y-73163153D01*
X11330026Y-73163328D01*
X11385434Y-73285941D01*
X11386030Y-73287574D01*
X11437873Y-73470804D01*
X11436828Y-73479697D01*
X11429800Y-73485247D01*
X11428926Y-73485459D01*
X11051311Y-73561534D01*
X11046689Y-73561534D01*
X10669038Y-73485452D01*
X10661605Y-73480458D01*
X10659879Y-73471671D01*
X10660082Y-73470829D01*
X10709735Y-73293419D01*
X10710325Y-73291788D01*
X10767974Y-73163328D01*
X10768041Y-73163182D01*
X10796485Y-73103876D01*
X10841179Y-72969614D01*
X10854272Y-72880856D01*
X10858528Y-72779893D01*
X10862301Y-72771772D01*
X10870218Y-72768686D01*
X11227909Y-72768686D01*
X11236182Y-72772113D01*
G37*
%TD.AperFunction*%
%TD*%
%TA.AperFunction,Conductor*%
%TO.N,5V*%
G36*
X11428961Y-57860547D02*
G01*
X11436394Y-57865541D01*
X11438120Y-57874328D01*
X11437917Y-57875170D01*
X11388264Y-58052578D01*
X11387671Y-58054215D01*
X11330056Y-58182602D01*
X11329931Y-58182872D01*
X11301519Y-58242111D01*
X11301512Y-58242129D01*
X11256821Y-58376380D01*
X11243727Y-58465146D01*
X11239472Y-58566107D01*
X11235699Y-58574228D01*
X11227782Y-58577314D01*
X10870091Y-58577314D01*
X10861818Y-58573887D01*
X10858408Y-58566238D01*
X10851716Y-58440998D01*
X10831994Y-58338629D01*
X10803027Y-58256961D01*
X10768038Y-58182811D01*
X10767973Y-58182670D01*
X10767942Y-58182602D01*
X10712564Y-58060057D01*
X10711968Y-58058424D01*
X10660126Y-57875195D01*
X10661171Y-57866302D01*
X10668199Y-57860752D01*
X10669060Y-57860542D01*
X11046692Y-57784465D01*
X11051308Y-57784465D01*
X11428961Y-57860547D01*
G37*
%TD.AperFunction*%
%TD*%
%TA.AperFunction,Conductor*%
%TO.N,5V*%
G36*
X557942Y-4323708D02*
G01*
X561633Y-4328097D01*
X612488Y-4432946D01*
X665858Y-4502287D01*
X665861Y-4502290D01*
X665862Y-4502291D01*
X729625Y-4565970D01*
X815579Y-4633601D01*
X815583Y-4633604D01*
X895897Y-4684057D01*
X910711Y-4693363D01*
X1028936Y-4752840D01*
X1028942Y-4752842D01*
X1028948Y-4752845D01*
X1091827Y-4777924D01*
X1151357Y-4801669D01*
X1281336Y-4841911D01*
X1343570Y-4855970D01*
X1405795Y-4870028D01*
X1405797Y-4870028D01*
X1405805Y-4870030D01*
X1589499Y-4888920D01*
X1597376Y-4893175D01*
X1600000Y-4900558D01*
X1600000Y-5258890D01*
X1596573Y-5267163D01*
X1588905Y-5270574D01*
X1515576Y-5274371D01*
X1515574Y-5274371D01*
X1280375Y-5318346D01*
X1280369Y-5318348D01*
X1048745Y-5398462D01*
X856083Y-5499380D01*
X711323Y-5610815D01*
X611997Y-5727800D01*
X561626Y-5831878D01*
X554938Y-5837832D01*
X545998Y-5837312D01*
X541600Y-5833617D01*
X465412Y-5727799D01*
X3920Y-5086834D01*
X1868Y-5078120D01*
X3919Y-5073166D01*
X541611Y-4326366D01*
X549226Y-4321655D01*
X557942Y-4323708D01*
G37*
%TD.AperFunction*%
%TD*%
%TA.AperFunction,Conductor*%
%TO.N,5V*%
G36*
X11428961Y-44906547D02*
G01*
X11436394Y-44911541D01*
X11438120Y-44920328D01*
X11437917Y-44921170D01*
X11388264Y-45098578D01*
X11387671Y-45100215D01*
X11330056Y-45228602D01*
X11329931Y-45228872D01*
X11301519Y-45288111D01*
X11301512Y-45288129D01*
X11256821Y-45422380D01*
X11243727Y-45511146D01*
X11239472Y-45612107D01*
X11235699Y-45620228D01*
X11227782Y-45623314D01*
X10870091Y-45623314D01*
X10861818Y-45619887D01*
X10858408Y-45612238D01*
X10851716Y-45486998D01*
X10831994Y-45384629D01*
X10803027Y-45302961D01*
X10768038Y-45228811D01*
X10767973Y-45228670D01*
X10767942Y-45228602D01*
X10712564Y-45106057D01*
X10711968Y-45104424D01*
X10660126Y-44921195D01*
X10661171Y-44912302D01*
X10668199Y-44906752D01*
X10669060Y-44906542D01*
X11046692Y-44830465D01*
X11051308Y-44830465D01*
X11428961Y-44906547D01*
G37*
%TD.AperFunction*%
%TD*%
%TA.AperFunction,Conductor*%
%TO.N,5V*%
G36*
X11236182Y-56996113D02*
G01*
X11239592Y-57003762D01*
X11246283Y-57129001D01*
X11257481Y-57187121D01*
X11266006Y-57231371D01*
X11266007Y-57231373D01*
X11294973Y-57313038D01*
X11294973Y-57313040D01*
X11329945Y-57387153D01*
X11330026Y-57387328D01*
X11385434Y-57509941D01*
X11386030Y-57511574D01*
X11437873Y-57694804D01*
X11436828Y-57703697D01*
X11429800Y-57709247D01*
X11428926Y-57709459D01*
X11051311Y-57785534D01*
X11046689Y-57785534D01*
X10669038Y-57709452D01*
X10661605Y-57704458D01*
X10659879Y-57695671D01*
X10660082Y-57694829D01*
X10709735Y-57517419D01*
X10710325Y-57515788D01*
X10767974Y-57387328D01*
X10768041Y-57387182D01*
X10796485Y-57327876D01*
X10841179Y-57193614D01*
X10854272Y-57104856D01*
X10858528Y-57003893D01*
X10862301Y-56995772D01*
X10870218Y-56992686D01*
X11227909Y-56992686D01*
X11236182Y-56996113D01*
G37*
%TD.AperFunction*%
%TD*%
%TA.AperFunction,Conductor*%
%TO.N,/3.3V*%
G36*
X3999455Y-29603046D02*
G01*
X4006888Y-29608040D01*
X4008614Y-29616827D01*
X4008410Y-29617675D01*
X3958628Y-29795219D01*
X3958030Y-29796866D01*
X3900159Y-29925327D01*
X3900033Y-29925596D01*
X3871321Y-29985239D01*
X3826615Y-30119277D01*
X3813521Y-30207879D01*
X3809266Y-30308608D01*
X3805493Y-30316729D01*
X3797576Y-30319814D01*
X3439887Y-30319814D01*
X3431614Y-30316387D01*
X3428204Y-30308736D01*
X3421538Y-30183454D01*
X3421536Y-30183439D01*
X3401893Y-30081051D01*
X3401892Y-30081048D01*
X3401891Y-30081047D01*
X3401891Y-30081043D01*
X3373029Y-29999331D01*
X3338126Y-29925055D01*
X3283123Y-29802944D01*
X3282536Y-29801333D01*
X3230622Y-29617691D01*
X3231669Y-29608799D01*
X3238698Y-29603251D01*
X3239542Y-29603046D01*
X3617192Y-29526965D01*
X3621808Y-29526965D01*
X3999455Y-29603046D01*
G37*
%TD.AperFunction*%
%TD*%
%TA.AperFunction,Conductor*%
%TO.N,/3.3V*%
G36*
X3805975Y-41933913D02*
G01*
X3809385Y-41941562D01*
X3816076Y-42066801D01*
X3827274Y-42124921D01*
X3835799Y-42169171D01*
X3835800Y-42169173D01*
X3864766Y-42250838D01*
X3864766Y-42250840D01*
X3899738Y-42324953D01*
X3899819Y-42325128D01*
X3955227Y-42447741D01*
X3955823Y-42449374D01*
X4007666Y-42632604D01*
X4006621Y-42641497D01*
X3999593Y-42647047D01*
X3998719Y-42647259D01*
X3621104Y-42723334D01*
X3616482Y-42723334D01*
X3238831Y-42647252D01*
X3231398Y-42642258D01*
X3229672Y-42633471D01*
X3229875Y-42632629D01*
X3279528Y-42455219D01*
X3280118Y-42453588D01*
X3337767Y-42325128D01*
X3337834Y-42324982D01*
X3366278Y-42265676D01*
X3410972Y-42131414D01*
X3424065Y-42042656D01*
X3428321Y-41941693D01*
X3432094Y-41933572D01*
X3440011Y-41930486D01*
X3797702Y-41930486D01*
X3805975Y-41933913D01*
G37*
%TD.AperFunction*%
%TD*%
%TA.AperFunction,Conductor*%
%TO.N,/3.3V*%
G36*
X3805975Y-45630320D02*
G01*
X3809385Y-45637969D01*
X3816076Y-45763208D01*
X3827274Y-45821328D01*
X3835799Y-45865578D01*
X3835800Y-45865580D01*
X3864766Y-45947245D01*
X3864766Y-45947247D01*
X3899738Y-46021360D01*
X3899819Y-46021535D01*
X3955227Y-46144148D01*
X3955823Y-46145781D01*
X4007666Y-46329011D01*
X4006621Y-46337904D01*
X3999593Y-46343454D01*
X3998719Y-46343666D01*
X3621104Y-46419741D01*
X3616482Y-46419741D01*
X3238831Y-46343659D01*
X3231398Y-46338665D01*
X3229672Y-46329878D01*
X3229875Y-46329036D01*
X3279528Y-46151626D01*
X3280118Y-46149995D01*
X3337767Y-46021535D01*
X3337834Y-46021389D01*
X3366278Y-45962083D01*
X3410972Y-45827821D01*
X3424065Y-45739063D01*
X3428321Y-45638100D01*
X3432094Y-45629979D01*
X3440011Y-45626893D01*
X3797702Y-45626893D01*
X3805975Y-45630320D01*
G37*
%TD.AperFunction*%
%TD*%
%TA.AperFunction,Conductor*%
%TO.N,/3.3V*%
G36*
X3998754Y-42798347D02*
G01*
X4006187Y-42803341D01*
X4007913Y-42812128D01*
X4007710Y-42812970D01*
X3958057Y-42990378D01*
X3957464Y-42992015D01*
X3899849Y-43120402D01*
X3899724Y-43120672D01*
X3871312Y-43179911D01*
X3871305Y-43179929D01*
X3826614Y-43314180D01*
X3813520Y-43402946D01*
X3809265Y-43503907D01*
X3805492Y-43512028D01*
X3797575Y-43515114D01*
X3439884Y-43515114D01*
X3431611Y-43511687D01*
X3428201Y-43504038D01*
X3421509Y-43378798D01*
X3401787Y-43276429D01*
X3372820Y-43194761D01*
X3337831Y-43120611D01*
X3337766Y-43120470D01*
X3337735Y-43120402D01*
X3282357Y-42997857D01*
X3281761Y-42996224D01*
X3229919Y-42812995D01*
X3230964Y-42804102D01*
X3237992Y-42798552D01*
X3238853Y-42798342D01*
X3616485Y-42722265D01*
X3621101Y-42722265D01*
X3998754Y-42798347D01*
G37*
%TD.AperFunction*%
%TD*%
%TA.AperFunction,Conductor*%
%TO.N,/3.3V*%
G36*
X3998754Y-46494754D02*
G01*
X4006187Y-46499748D01*
X4007913Y-46508535D01*
X4007710Y-46509377D01*
X3958057Y-46686785D01*
X3957464Y-46688422D01*
X3899849Y-46816809D01*
X3899724Y-46817079D01*
X3871312Y-46876318D01*
X3871305Y-46876336D01*
X3826614Y-47010587D01*
X3813520Y-47099353D01*
X3809265Y-47200314D01*
X3805492Y-47208435D01*
X3797575Y-47211521D01*
X3439884Y-47211521D01*
X3431611Y-47208094D01*
X3428201Y-47200445D01*
X3421509Y-47075205D01*
X3401787Y-46972836D01*
X3372820Y-46891168D01*
X3337831Y-46817018D01*
X3337766Y-46816877D01*
X3337735Y-46816809D01*
X3282357Y-46694264D01*
X3281761Y-46692631D01*
X3229919Y-46509402D01*
X3230964Y-46500509D01*
X3237992Y-46494959D01*
X3238853Y-46494749D01*
X3616485Y-46418672D01*
X3621101Y-46418672D01*
X3998754Y-46494754D01*
G37*
%TD.AperFunction*%
%TD*%
%TA.AperFunction,Conductor*%
%TO.N,/3.3V*%
G36*
X3743401Y-28738613D02*
G01*
X3746797Y-28746028D01*
X3755878Y-28869553D01*
X3782393Y-28969659D01*
X3820864Y-29048181D01*
X3866612Y-29117794D01*
X3866617Y-29117801D01*
X3889372Y-29151163D01*
X3889939Y-29152084D01*
X3960177Y-29278803D01*
X3960934Y-29280463D01*
X3988269Y-29355335D01*
X3988631Y-29356516D01*
X4008850Y-29437581D01*
X4007527Y-29446437D01*
X4000329Y-29451764D01*
X3999809Y-29451882D01*
X3621811Y-29528034D01*
X3617189Y-29528034D01*
X3239021Y-29451848D01*
X3231588Y-29446854D01*
X3229862Y-29438067D01*
X3229941Y-29437708D01*
X3229971Y-29437581D01*
X3266476Y-29281816D01*
X3266646Y-29281179D01*
X3302649Y-29161478D01*
X3347993Y-28990799D01*
X3361249Y-28881805D01*
X3365633Y-28746506D01*
X3369326Y-28738349D01*
X3377327Y-28735186D01*
X3735128Y-28735186D01*
X3743401Y-28738613D01*
G37*
%TD.AperFunction*%
%TD*%
%TA.AperFunction,Conductor*%
%TO.N,/3.3V*%
G36*
X3935961Y-20141549D02*
G01*
X3943394Y-20146543D01*
X3945120Y-20155330D01*
X3944917Y-20156172D01*
X3895264Y-20333580D01*
X3894671Y-20335217D01*
X3837056Y-20463604D01*
X3836931Y-20463874D01*
X3808519Y-20523113D01*
X3808512Y-20523131D01*
X3763821Y-20657382D01*
X3750727Y-20746148D01*
X3746472Y-20847109D01*
X3742699Y-20855230D01*
X3734782Y-20858316D01*
X3377091Y-20858316D01*
X3368818Y-20854889D01*
X3365408Y-20847240D01*
X3358716Y-20722000D01*
X3338994Y-20619631D01*
X3310027Y-20537963D01*
X3275038Y-20463813D01*
X3274973Y-20463672D01*
X3274942Y-20463604D01*
X3219564Y-20341059D01*
X3218968Y-20339426D01*
X3167126Y-20156197D01*
X3168171Y-20147304D01*
X3175199Y-20141754D01*
X3176060Y-20141544D01*
X3553692Y-20065467D01*
X3558308Y-20065467D01*
X3935961Y-20141549D01*
G37*
%TD.AperFunction*%
%TD*%
%TA.AperFunction,Conductor*%
%TO.N,/3.3V*%
G36*
X3805982Y-71474113D02*
G01*
X3809392Y-71481762D01*
X3816083Y-71607001D01*
X3827281Y-71665121D01*
X3835806Y-71709371D01*
X3835807Y-71709373D01*
X3864773Y-71791038D01*
X3864773Y-71791040D01*
X3899745Y-71865153D01*
X3899826Y-71865328D01*
X3955234Y-71987941D01*
X3955830Y-71989574D01*
X4007673Y-72172804D01*
X4006628Y-72181697D01*
X3999600Y-72187247D01*
X3998726Y-72187459D01*
X3621111Y-72263534D01*
X3616489Y-72263534D01*
X3238838Y-72187452D01*
X3231405Y-72182458D01*
X3229679Y-72173671D01*
X3229882Y-72172829D01*
X3279535Y-71995419D01*
X3280125Y-71993788D01*
X3337774Y-71865328D01*
X3337841Y-71865182D01*
X3366285Y-71805876D01*
X3410979Y-71671614D01*
X3424072Y-71582856D01*
X3428328Y-71481893D01*
X3432101Y-71473772D01*
X3440018Y-71470686D01*
X3797709Y-71470686D01*
X3805982Y-71474113D01*
G37*
%TD.AperFunction*%
%TD*%
%TA.AperFunction,Conductor*%
%TO.N,/3.3V*%
G36*
X3936109Y-7085703D02*
G01*
X3943541Y-7090697D01*
X3945267Y-7099484D01*
X3945103Y-7100184D01*
X3918153Y-7201362D01*
X3917614Y-7202930D01*
X3880714Y-7289683D01*
X3879766Y-7291467D01*
X3795491Y-7421512D01*
X3795371Y-7421693D01*
X3732125Y-7515429D01*
X3686035Y-7631929D01*
X3672755Y-7708588D01*
X3672753Y-7708604D01*
X3668563Y-7791331D01*
X3664722Y-7799420D01*
X3656878Y-7802439D01*
X3299387Y-7802439D01*
X3291114Y-7799012D01*
X3287691Y-7791057D01*
X3285451Y-7708602D01*
X3283898Y-7651414D01*
X3272219Y-7539837D01*
X3229910Y-7359941D01*
X3166562Y-7099995D01*
X3167932Y-7091146D01*
X3175159Y-7085858D01*
X3175593Y-7085760D01*
X3553684Y-7009590D01*
X3558300Y-7009590D01*
X3936109Y-7085703D01*
G37*
%TD.AperFunction*%
%TD*%
%TA.AperFunction,Conductor*%
%TO.N,/3.3V*%
G36*
X3665449Y-19277115D02*
G01*
X3668841Y-19284479D01*
X3678469Y-19408048D01*
X3706538Y-19507850D01*
X3747195Y-19585779D01*
X3747196Y-19585780D01*
X3747199Y-19585785D01*
X3773931Y-19623878D01*
X3795423Y-19654504D01*
X3826675Y-19697705D01*
X3827359Y-19698767D01*
X3897354Y-19821511D01*
X3898161Y-19823242D01*
X3925242Y-19896329D01*
X3925619Y-19897546D01*
X3945328Y-19976070D01*
X3944018Y-19984928D01*
X3936828Y-19990266D01*
X3936291Y-19990388D01*
X3558311Y-20066536D01*
X3553689Y-20066536D01*
X3175625Y-19990371D01*
X3168192Y-19985377D01*
X3166466Y-19976590D01*
X3166556Y-19976185D01*
X3229913Y-19716197D01*
X3234270Y-19698217D01*
X3245212Y-19653051D01*
X3269600Y-19552398D01*
X3283200Y-19435277D01*
X3287663Y-19285041D01*
X3291334Y-19276873D01*
X3299358Y-19273688D01*
X3657176Y-19273688D01*
X3665449Y-19277115D01*
G37*
%TD.AperFunction*%
%TD*%
%TA.AperFunction,Conductor*%
%TO.N,Device ~{CS}*%
G36*
X9495488Y-59790101D02*
G01*
X9498876Y-59797423D01*
X9508958Y-59921108D01*
X9538312Y-60020702D01*
X9538313Y-60020704D01*
X9580785Y-60098166D01*
X9631113Y-60166235D01*
X9631168Y-60166307D01*
X9669272Y-60216623D01*
X9670049Y-60217789D01*
X9739858Y-60337635D01*
X9740704Y-60339418D01*
X9767592Y-60411165D01*
X9767981Y-60412409D01*
X9787311Y-60489044D01*
X9786011Y-60497904D01*
X9778828Y-60503251D01*
X9778277Y-60503376D01*
X9400311Y-60579522D01*
X9395689Y-60579522D01*
X9017929Y-60503418D01*
X9010496Y-60498424D01*
X9008770Y-60489637D01*
X9008946Y-60488894D01*
X9029797Y-60411777D01*
X9036559Y-60386766D01*
X9037139Y-60385123D01*
X9075451Y-60298050D01*
X9076480Y-60296191D01*
X9164887Y-60166235D01*
X9164917Y-60166191D01*
X9233665Y-60068632D01*
X9279932Y-59954050D01*
X9293241Y-59878661D01*
X9297426Y-59797770D01*
X9301275Y-59789685D01*
X9309110Y-59786674D01*
X9487215Y-59786674D01*
X9495488Y-59790101D01*
G37*
%TD.AperFunction*%
%TD*%
%TA.AperFunction,Conductor*%
%TO.N,Device ~{CS}*%
G36*
X9778070Y-51637569D02*
G01*
X9785503Y-51642563D01*
X9787229Y-51651350D01*
X9787053Y-51652093D01*
X9759442Y-51754213D01*
X9758857Y-51755871D01*
X9720550Y-51842930D01*
X9719515Y-51844799D01*
X9631162Y-51974679D01*
X9631052Y-51974837D01*
X9562335Y-52072353D01*
X9516068Y-52186937D01*
X9502758Y-52262332D01*
X9502757Y-52262341D01*
X9498574Y-52343218D01*
X9494725Y-52351303D01*
X9486890Y-52354314D01*
X9308785Y-52354314D01*
X9300512Y-52350887D01*
X9297124Y-52343565D01*
X9290502Y-52262332D01*
X9287042Y-52219880D01*
X9257688Y-52120287D01*
X9257686Y-52120283D01*
X9215213Y-52042821D01*
X9164886Y-51974752D01*
X9156276Y-51963383D01*
X9126724Y-51924359D01*
X9125950Y-51923197D01*
X9079195Y-51842930D01*
X9056140Y-51803350D01*
X9055295Y-51801568D01*
X9028407Y-51729822D01*
X9028018Y-51728578D01*
X9008688Y-51651939D01*
X9009988Y-51643083D01*
X9017171Y-51637736D01*
X9017713Y-51637612D01*
X9395692Y-51561465D01*
X9400308Y-51561465D01*
X9778070Y-51637569D01*
G37*
%TD.AperFunction*%
%TD*%
%TA.AperFunction,Conductor*%
%TO.N,Device ~{CS}*%
G36*
X9778070Y-8076567D02*
G01*
X9785503Y-8081561D01*
X9787229Y-8090348D01*
X9787053Y-8091091D01*
X9759442Y-8193211D01*
X9758857Y-8194869D01*
X9720550Y-8281928D01*
X9719515Y-8283797D01*
X9631162Y-8413677D01*
X9631052Y-8413835D01*
X9562335Y-8511351D01*
X9516068Y-8625935D01*
X9502758Y-8701330D01*
X9502757Y-8701339D01*
X9498574Y-8782216D01*
X9494725Y-8790301D01*
X9486890Y-8793312D01*
X9308785Y-8793312D01*
X9300512Y-8789885D01*
X9297124Y-8782563D01*
X9290502Y-8701330D01*
X9287042Y-8658878D01*
X9257688Y-8559285D01*
X9257686Y-8559281D01*
X9215213Y-8481819D01*
X9164886Y-8413750D01*
X9156276Y-8402381D01*
X9126724Y-8363357D01*
X9125950Y-8362195D01*
X9079195Y-8281928D01*
X9056140Y-8242348D01*
X9055295Y-8240566D01*
X9028407Y-8168820D01*
X9028018Y-8167576D01*
X9008688Y-8090937D01*
X9009988Y-8082081D01*
X9017171Y-8076734D01*
X9017713Y-8076610D01*
X9395692Y-8000463D01*
X9400308Y-8000463D01*
X9778070Y-8076567D01*
G37*
%TD.AperFunction*%
%TD*%
%TA.AperFunction,Conductor*%
%TO.N,Device ~{CS}*%
G36*
X9495488Y-29818113D02*
G01*
X9498876Y-29825435D01*
X9508958Y-29949120D01*
X9538312Y-30048714D01*
X9538313Y-30048716D01*
X9580785Y-30126178D01*
X9631113Y-30194247D01*
X9631168Y-30194319D01*
X9669272Y-30244635D01*
X9670049Y-30245801D01*
X9739858Y-30365647D01*
X9740704Y-30367430D01*
X9767592Y-30439177D01*
X9767981Y-30440421D01*
X9787311Y-30517056D01*
X9786011Y-30525916D01*
X9778828Y-30531263D01*
X9778277Y-30531388D01*
X9400311Y-30607534D01*
X9395689Y-30607534D01*
X9017929Y-30531430D01*
X9010496Y-30526436D01*
X9008770Y-30517649D01*
X9008946Y-30516906D01*
X9029797Y-30439789D01*
X9036559Y-30414778D01*
X9037139Y-30413135D01*
X9075451Y-30326062D01*
X9076480Y-30324203D01*
X9164887Y-30194247D01*
X9164917Y-30194203D01*
X9233665Y-30096644D01*
X9279932Y-29982062D01*
X9293241Y-29906673D01*
X9297426Y-29825782D01*
X9301275Y-29817697D01*
X9309110Y-29814686D01*
X9487215Y-29814686D01*
X9495488Y-29818113D01*
G37*
%TD.AperFunction*%
%TD*%
%TA.AperFunction,Conductor*%
%TO.N,Device ~{CS}*%
G36*
X9778070Y-30682569D02*
G01*
X9785503Y-30687563D01*
X9787229Y-30696350D01*
X9787053Y-30697093D01*
X9759442Y-30799213D01*
X9758857Y-30800871D01*
X9720550Y-30887930D01*
X9719515Y-30889799D01*
X9631162Y-31019679D01*
X9631052Y-31019837D01*
X9562335Y-31117353D01*
X9516068Y-31231937D01*
X9502758Y-31307332D01*
X9502757Y-31307341D01*
X9498574Y-31388218D01*
X9494725Y-31396303D01*
X9486890Y-31399314D01*
X9308785Y-31399314D01*
X9300512Y-31395887D01*
X9297124Y-31388565D01*
X9290502Y-31307332D01*
X9287042Y-31264880D01*
X9257688Y-31165287D01*
X9257686Y-31165283D01*
X9215213Y-31087821D01*
X9164886Y-31019752D01*
X9156276Y-31008383D01*
X9126724Y-30969359D01*
X9125950Y-30968197D01*
X9079195Y-30887930D01*
X9056140Y-30848350D01*
X9055295Y-30846568D01*
X9028407Y-30774822D01*
X9028018Y-30773578D01*
X9008688Y-30696939D01*
X9009988Y-30688083D01*
X9017171Y-30682736D01*
X9017713Y-30682612D01*
X9395692Y-30606465D01*
X9400308Y-30606465D01*
X9778070Y-30682569D01*
G37*
%TD.AperFunction*%
%TD*%
%TA.AperFunction,Conductor*%
%TO.N,Device ~{CS}*%
G36*
X9495488Y-50773113D02*
G01*
X9498876Y-50780435D01*
X9508958Y-50904120D01*
X9538312Y-51003714D01*
X9538313Y-51003716D01*
X9580785Y-51081178D01*
X9631113Y-51149247D01*
X9631168Y-51149319D01*
X9669272Y-51199635D01*
X9670049Y-51200801D01*
X9739858Y-51320647D01*
X9740704Y-51322430D01*
X9767592Y-51394177D01*
X9767981Y-51395421D01*
X9787311Y-51472056D01*
X9786011Y-51480916D01*
X9778828Y-51486263D01*
X9778277Y-51486388D01*
X9400311Y-51562534D01*
X9395689Y-51562534D01*
X9017929Y-51486430D01*
X9010496Y-51481436D01*
X9008770Y-51472649D01*
X9008946Y-51471906D01*
X9029797Y-51394789D01*
X9036559Y-51369778D01*
X9037139Y-51368135D01*
X9075451Y-51281062D01*
X9076480Y-51279203D01*
X9164887Y-51149247D01*
X9164917Y-51149203D01*
X9233665Y-51051644D01*
X9279932Y-50937062D01*
X9293241Y-50861673D01*
X9297426Y-50780782D01*
X9301275Y-50772697D01*
X9309110Y-50769686D01*
X9487215Y-50769686D01*
X9495488Y-50773113D01*
G37*
%TD.AperFunction*%
%TD*%
%TA.AperFunction,Conductor*%
%TO.N,Device ~{CS}*%
G36*
X9778070Y-60654557D02*
G01*
X9785503Y-60659551D01*
X9787229Y-60668338D01*
X9787053Y-60669081D01*
X9759442Y-60771201D01*
X9758857Y-60772859D01*
X9720550Y-60859918D01*
X9719515Y-60861787D01*
X9631162Y-60991667D01*
X9631052Y-60991825D01*
X9562335Y-61089341D01*
X9516068Y-61203925D01*
X9502758Y-61279320D01*
X9502757Y-61279329D01*
X9498574Y-61360206D01*
X9494725Y-61368291D01*
X9486890Y-61371302D01*
X9308785Y-61371302D01*
X9300512Y-61367875D01*
X9297124Y-61360553D01*
X9290502Y-61279320D01*
X9287042Y-61236868D01*
X9257688Y-61137275D01*
X9257686Y-61137271D01*
X9215213Y-61059809D01*
X9164886Y-60991740D01*
X9156276Y-60980371D01*
X9126724Y-60941347D01*
X9125950Y-60940185D01*
X9079195Y-60859918D01*
X9056140Y-60820338D01*
X9055295Y-60818556D01*
X9028407Y-60746810D01*
X9028018Y-60745566D01*
X9008688Y-60668927D01*
X9009988Y-60660071D01*
X9017171Y-60654724D01*
X9017713Y-60654600D01*
X9395692Y-60578453D01*
X9400308Y-60578453D01*
X9778070Y-60654557D01*
G37*
%TD.AperFunction*%
%TD*%
%TA.AperFunction,Conductor*%
%TO.N,A16*%
G36*
X13699187Y-51268412D02*
G01*
X13702575Y-51275734D01*
X13712657Y-51399419D01*
X13742011Y-51499013D01*
X13742012Y-51499015D01*
X13784484Y-51576477D01*
X13834812Y-51644546D01*
X13834867Y-51644618D01*
X13872971Y-51694934D01*
X13873748Y-51696100D01*
X13943557Y-51815946D01*
X13944403Y-51817729D01*
X13971291Y-51889476D01*
X13971680Y-51890720D01*
X13991010Y-51967355D01*
X13989710Y-51976215D01*
X13982527Y-51981562D01*
X13981976Y-51981687D01*
X13604010Y-52057833D01*
X13599388Y-52057833D01*
X13221628Y-51981729D01*
X13214195Y-51976735D01*
X13212469Y-51967948D01*
X13212645Y-51967205D01*
X13233496Y-51890088D01*
X13240258Y-51865077D01*
X13240838Y-51863434D01*
X13279150Y-51776361D01*
X13280179Y-51774502D01*
X13368586Y-51644546D01*
X13368616Y-51644502D01*
X13437364Y-51546943D01*
X13483631Y-51432361D01*
X13496940Y-51356972D01*
X13501125Y-51276081D01*
X13504974Y-51267996D01*
X13512809Y-51264985D01*
X13690914Y-51264985D01*
X13699187Y-51268412D01*
G37*
%TD.AperFunction*%
%TD*%
%TA.AperFunction,Conductor*%
%TO.N,A16*%
G36*
X14467649Y-43026356D02*
G01*
X15232937Y-43177699D01*
X15240388Y-43182666D01*
X15242144Y-43186905D01*
X15393667Y-43952480D01*
X15391912Y-43961261D01*
X15384462Y-43966229D01*
X15383808Y-43966340D01*
X15261824Y-43983370D01*
X15260522Y-43983478D01*
X15141940Y-43986678D01*
X15140587Y-43986636D01*
X14937212Y-43968537D01*
X14936806Y-43968494D01*
X14890947Y-43962792D01*
X14745843Y-43955012D01*
X14745840Y-43955012D01*
X14745839Y-43955012D01*
X14723599Y-43959377D01*
X14632524Y-43977252D01*
X14576882Y-44002910D01*
X14576880Y-44002911D01*
X14576879Y-44002912D01*
X14520893Y-44040309D01*
X14520129Y-44040819D01*
X14520125Y-44040821D01*
X14456472Y-44097896D01*
X14456469Y-44097899D01*
X14396918Y-44165603D01*
X14388881Y-44169552D01*
X14380838Y-44167023D01*
X14241672Y-44056040D01*
X14237341Y-44048203D01*
X14239296Y-44040309D01*
X14264757Y-44002912D01*
X14350850Y-43876454D01*
X14386241Y-43801923D01*
X14409255Y-43732528D01*
X14427898Y-43600793D01*
X14426273Y-43464543D01*
X14425689Y-43258233D01*
X14425782Y-43256728D01*
X14434657Y-43186905D01*
X14453791Y-43036360D01*
X14458234Y-43028587D01*
X14466873Y-43026230D01*
X14467649Y-43026356D01*
G37*
%TD.AperFunction*%
%TD*%
%TA.AperFunction,Conductor*%
%TO.N,Device ~{CS}_{IN}*%
G36*
X453785Y-78081920D02*
G01*
X454345Y-78082319D01*
X629283Y-78214905D01*
X630052Y-78215542D01*
X776685Y-78347801D01*
X923966Y-78477815D01*
X923971Y-78477819D01*
X1039289Y-78549812D01*
X1039291Y-78549812D01*
X1039292Y-78549813D01*
X1097297Y-78566316D01*
X1155306Y-78582820D01*
X1222321Y-78585598D01*
X1296432Y-78577661D01*
X1388294Y-78555316D01*
X1481883Y-78521347D01*
X1490827Y-78521746D01*
X1496682Y-78527868D01*
X1564572Y-78691767D01*
X1564572Y-78700721D01*
X1558515Y-78706936D01*
X1312491Y-78816278D01*
X1129514Y-78914334D01*
X1129510Y-78914336D01*
X986103Y-79009035D01*
X986099Y-79009038D01*
X848329Y-79112962D01*
X789935Y-79157840D01*
X789616Y-79158076D01*
X454269Y-79398150D01*
X445547Y-79400180D01*
X437945Y-79395448D01*
X437738Y-79395149D01*
X115617Y-78914336D01*
X3436Y-78746889D01*
X1679Y-78738109D01*
X3431Y-78733875D01*
X437555Y-78085136D01*
X445003Y-78080167D01*
X453785Y-78081920D01*
G37*
%TD.AperFunction*%
%TD*%
%TA.AperFunction,Conductor*%
%TO.N,Device ~{CS}_{IN}*%
G36*
X6222070Y-50933920D02*
G01*
X6229503Y-50938914D01*
X6231229Y-50947701D01*
X6231053Y-50948444D01*
X6203442Y-51050564D01*
X6202857Y-51052222D01*
X6164550Y-51139281D01*
X6163515Y-51141150D01*
X6075162Y-51271030D01*
X6075052Y-51271188D01*
X6006335Y-51368704D01*
X5960068Y-51483288D01*
X5946758Y-51558683D01*
X5946757Y-51558692D01*
X5942574Y-51639569D01*
X5938725Y-51647654D01*
X5930890Y-51650665D01*
X5752785Y-51650665D01*
X5744512Y-51647238D01*
X5741124Y-51639916D01*
X5734502Y-51558683D01*
X5731042Y-51516231D01*
X5701688Y-51416638D01*
X5701686Y-51416634D01*
X5659213Y-51339172D01*
X5608886Y-51271103D01*
X5600276Y-51259734D01*
X5570724Y-51220710D01*
X5569950Y-51219548D01*
X5523195Y-51139281D01*
X5500140Y-51099701D01*
X5499295Y-51097919D01*
X5472407Y-51026173D01*
X5472018Y-51024929D01*
X5452688Y-50948290D01*
X5453988Y-50939434D01*
X5461171Y-50934087D01*
X5461713Y-50933963D01*
X5839692Y-50857816D01*
X5844308Y-50857816D01*
X6222070Y-50933920D01*
G37*
%TD.AperFunction*%
%TD*%
%TA.AperFunction,Conductor*%
%TO.N,A16_{IN}*%
G36*
X781479Y-45568044D02*
G01*
X786447Y-45575494D01*
X786526Y-45575938D01*
X823839Y-45812006D01*
X823930Y-45812733D01*
X842648Y-46010934D01*
X867135Y-46229790D01*
X867135Y-46229791D01*
X867136Y-46229796D01*
X867137Y-46229800D01*
X902890Y-46354068D01*
X912041Y-46385874D01*
X950453Y-46465338D01*
X1003133Y-46549131D01*
X1003135Y-46549134D01*
X1026142Y-46578724D01*
X1083320Y-46652260D01*
X1094135Y-46664061D01*
X1181491Y-46759383D01*
X1184554Y-46767798D01*
X1181039Y-46775659D01*
X1054151Y-46899549D01*
X1045837Y-46902877D01*
X1037878Y-46899621D01*
X936798Y-46802659D01*
X936783Y-46802645D01*
X881013Y-46757400D01*
X838284Y-46722736D01*
X747418Y-46664056D01*
X661059Y-46622940D01*
X661050Y-46622937D01*
X576085Y-46595720D01*
X489358Y-46578725D01*
X489356Y-46578724D01*
X489352Y-46578724D01*
X298142Y-46560739D01*
X298115Y-46560736D01*
X298106Y-46560736D01*
X142604Y-46548356D01*
X141837Y-46548269D01*
X-143903Y-46506410D01*
X-151592Y-46501821D01*
X-153783Y-46493138D01*
X-153685Y-46492563D01*
X-132577Y-46385870D01*
X-2218Y-45726970D01*
X2749Y-45719521D01*
X6985Y-45717764D01*
X772700Y-45566287D01*
X781479Y-45568044D01*
G37*
%TD.AperFunction*%
%TD*%
%TA.AperFunction,Conductor*%
%TO.N,A16_{IN}*%
G36*
X2332688Y-51382713D02*
G01*
X2336076Y-51390035D01*
X2346158Y-51513720D01*
X2375512Y-51613314D01*
X2375513Y-51613316D01*
X2417985Y-51690778D01*
X2468313Y-51758847D01*
X2468368Y-51758919D01*
X2506472Y-51809235D01*
X2507249Y-51810401D01*
X2577058Y-51930247D01*
X2577904Y-51932030D01*
X2604792Y-52003777D01*
X2605181Y-52005021D01*
X2624511Y-52081656D01*
X2623211Y-52090516D01*
X2616028Y-52095863D01*
X2615477Y-52095988D01*
X2237511Y-52172134D01*
X2232889Y-52172134D01*
X1855129Y-52096030D01*
X1847696Y-52091036D01*
X1845970Y-52082249D01*
X1846146Y-52081506D01*
X1866997Y-52004389D01*
X1873759Y-51979378D01*
X1874339Y-51977735D01*
X1912651Y-51890662D01*
X1913680Y-51888803D01*
X2002087Y-51758847D01*
X2002117Y-51758803D01*
X2070865Y-51661244D01*
X2117132Y-51546662D01*
X2130441Y-51471273D01*
X2134626Y-51390382D01*
X2138475Y-51382297D01*
X2146310Y-51379286D01*
X2324415Y-51379286D01*
X2332688Y-51382713D01*
G37*
%TD.AperFunction*%
%TD*%
%TA.AperFunction,Conductor*%
%TO.N,~{RD}*%
G36*
X8479488Y-59278113D02*
G01*
X8482876Y-59285435D01*
X8492958Y-59409120D01*
X8522312Y-59508714D01*
X8522313Y-59508716D01*
X8564785Y-59586178D01*
X8615113Y-59654247D01*
X8615168Y-59654319D01*
X8653272Y-59704635D01*
X8654049Y-59705801D01*
X8723858Y-59825647D01*
X8724704Y-59827430D01*
X8751592Y-59899177D01*
X8751981Y-59900421D01*
X8771311Y-59977056D01*
X8770011Y-59985916D01*
X8762828Y-59991263D01*
X8762277Y-59991388D01*
X8384311Y-60067534D01*
X8379689Y-60067534D01*
X8001929Y-59991430D01*
X7994496Y-59986436D01*
X7992770Y-59977649D01*
X7992946Y-59976906D01*
X8013797Y-59899789D01*
X8020559Y-59874778D01*
X8021139Y-59873135D01*
X8059451Y-59786062D01*
X8060480Y-59784203D01*
X8148887Y-59654247D01*
X8148917Y-59654203D01*
X8217665Y-59556644D01*
X8263932Y-59442062D01*
X8277241Y-59366673D01*
X8281426Y-59285782D01*
X8285275Y-59277697D01*
X8293110Y-59274686D01*
X8471215Y-59274686D01*
X8479488Y-59278113D01*
G37*
%TD.AperFunction*%
%TD*%
%TA.AperFunction,Conductor*%
%TO.N,~{RD}*%
G36*
X8762066Y-49732569D02*
G01*
X8769499Y-49737563D01*
X8771225Y-49746350D01*
X8771049Y-49747093D01*
X8743438Y-49849213D01*
X8742853Y-49850871D01*
X8704547Y-49937930D01*
X8703512Y-49939799D01*
X8615141Y-50069707D01*
X8615031Y-50069865D01*
X8546335Y-50167352D01*
X8500068Y-50281936D01*
X8486758Y-50357332D01*
X8486757Y-50357341D01*
X8482574Y-50438218D01*
X8478725Y-50446303D01*
X8470890Y-50449314D01*
X8292785Y-50449314D01*
X8284512Y-50445887D01*
X8281124Y-50438565D01*
X8274502Y-50357332D01*
X8271042Y-50314880D01*
X8241687Y-50215287D01*
X8199211Y-50137820D01*
X8159827Y-50084553D01*
X8148884Y-50069752D01*
X8140303Y-50058421D01*
X8110720Y-50019357D01*
X8109946Y-50018195D01*
X8040137Y-49898350D01*
X8039291Y-49896567D01*
X8012403Y-49824821D01*
X8012014Y-49823576D01*
X7992685Y-49746942D01*
X7993985Y-49738082D01*
X8001169Y-49732736D01*
X8001719Y-49732611D01*
X8379688Y-49656465D01*
X8384304Y-49656465D01*
X8762066Y-49732569D01*
G37*
%TD.AperFunction*%
%TD*%
%TA.AperFunction,Conductor*%
%TO.N,D0*%
G36*
X13588070Y-72338569D02*
G01*
X13595503Y-72343563D01*
X13597229Y-72352350D01*
X13597053Y-72353093D01*
X13569442Y-72455213D01*
X13568857Y-72456871D01*
X13530550Y-72543930D01*
X13529515Y-72545799D01*
X13441162Y-72675679D01*
X13441052Y-72675837D01*
X13372335Y-72773353D01*
X13326068Y-72887937D01*
X13312758Y-72963332D01*
X13312757Y-72963341D01*
X13308574Y-73044218D01*
X13304725Y-73052303D01*
X13296890Y-73055314D01*
X13118785Y-73055314D01*
X13110512Y-73051887D01*
X13107124Y-73044565D01*
X13100502Y-72963332D01*
X13097042Y-72920880D01*
X13067688Y-72821287D01*
X13067686Y-72821283D01*
X13025213Y-72743821D01*
X12974886Y-72675752D01*
X12966276Y-72664383D01*
X12936724Y-72625359D01*
X12935950Y-72624197D01*
X12889195Y-72543930D01*
X12866140Y-72504350D01*
X12865295Y-72502568D01*
X12838407Y-72430822D01*
X12838018Y-72429578D01*
X12818688Y-72352939D01*
X12819988Y-72344083D01*
X12827171Y-72338736D01*
X12827713Y-72338612D01*
X13205692Y-72262465D01*
X13210308Y-72262465D01*
X13588070Y-72338569D01*
G37*
%TD.AperFunction*%
%TD*%
%TA.AperFunction,Conductor*%
%TO.N,D0*%
G36*
X14198474Y-75016547D02*
G01*
X14301601Y-75113364D01*
X14301604Y-75113366D01*
X14301606Y-75113368D01*
X14401640Y-75193216D01*
X14493572Y-75251992D01*
X14580664Y-75293356D01*
X14639579Y-75312378D01*
X14666175Y-75320966D01*
X14666177Y-75320966D01*
X14666179Y-75320967D01*
X14753377Y-75338485D01*
X14945873Y-75357876D01*
X15091514Y-75370305D01*
X15092193Y-75370384D01*
X15383923Y-75413573D01*
X15391606Y-75418175D01*
X15393784Y-75426860D01*
X15393688Y-75427418D01*
X15242227Y-76193020D01*
X15237259Y-76200470D01*
X15233020Y-76202227D01*
X14467315Y-76353709D01*
X14458534Y-76351952D01*
X14453566Y-76344502D01*
X14453492Y-76344088D01*
X14416213Y-76106351D01*
X14416123Y-76105616D01*
X14397876Y-75905876D01*
X14397876Y-75905873D01*
X14372748Y-75679645D01*
X14327165Y-75525514D01*
X14288254Y-75446921D01*
X14235073Y-75364227D01*
X14154608Y-75263032D01*
X14056538Y-75158473D01*
X14053379Y-75150095D01*
X14056799Y-75142198D01*
X14182194Y-75016803D01*
X14190466Y-75013377D01*
X14198474Y-75016547D01*
G37*
%TD.AperFunction*%
%TD*%
M02*
