%TF.GenerationSoftware,KiCad,Pcbnew,8.0.7*%
%TF.CreationDate,2025-01-06T08:32:24+02:00*%
%TF.ProjectId,VIA Breakout,56494120-4272-4656-916b-6f75742e6b69,rev?*%
%TF.SameCoordinates,Original*%
%TF.FileFunction,Legend,Top*%
%TF.FilePolarity,Positive*%
%FSLAX46Y46*%
G04 Gerber Fmt 4.6, Leading zero omitted, Abs format (unit mm)*
G04 Created by KiCad (PCBNEW 8.0.7) date 2025-01-06 08:32:24*
%MOMM*%
%LPD*%
G01*
G04 APERTURE LIST*
%ADD10C,0.150000*%
%ADD11C,0.200000*%
%ADD12C,0.400000*%
%ADD13C,0.120000*%
G04 APERTURE END LIST*
D10*
X19894744Y-48545963D02*
X19894744Y-47910963D01*
X19894744Y-47910963D02*
X20136649Y-47910963D01*
X20136649Y-47910963D02*
X20197125Y-47941201D01*
X20197125Y-47941201D02*
X20227363Y-47971439D01*
X20227363Y-47971439D02*
X20257601Y-48031915D01*
X20257601Y-48031915D02*
X20257601Y-48122629D01*
X20257601Y-48122629D02*
X20227363Y-48183105D01*
X20227363Y-48183105D02*
X20197125Y-48213344D01*
X20197125Y-48213344D02*
X20136649Y-48243582D01*
X20136649Y-48243582D02*
X19894744Y-48243582D01*
X20529744Y-48545963D02*
X20529744Y-47910963D01*
X20529744Y-47910963D02*
X20680934Y-47910963D01*
X20680934Y-47910963D02*
X20771649Y-47941201D01*
X20771649Y-47941201D02*
X20832125Y-48001677D01*
X20832125Y-48001677D02*
X20862363Y-48062153D01*
X20862363Y-48062153D02*
X20892601Y-48183105D01*
X20892601Y-48183105D02*
X20892601Y-48273820D01*
X20892601Y-48273820D02*
X20862363Y-48394772D01*
X20862363Y-48394772D02*
X20832125Y-48455248D01*
X20832125Y-48455248D02*
X20771649Y-48515725D01*
X20771649Y-48515725D02*
X20680934Y-48545963D01*
X20680934Y-48545963D02*
X20529744Y-48545963D01*
X21436887Y-47910963D02*
X21315934Y-47910963D01*
X21315934Y-47910963D02*
X21255458Y-47941201D01*
X21255458Y-47941201D02*
X21225220Y-47971439D01*
X21225220Y-47971439D02*
X21164744Y-48062153D01*
X21164744Y-48062153D02*
X21134506Y-48183105D01*
X21134506Y-48183105D02*
X21134506Y-48425010D01*
X21134506Y-48425010D02*
X21164744Y-48485486D01*
X21164744Y-48485486D02*
X21194982Y-48515725D01*
X21194982Y-48515725D02*
X21255458Y-48545963D01*
X21255458Y-48545963D02*
X21376411Y-48545963D01*
X21376411Y-48545963D02*
X21436887Y-48515725D01*
X21436887Y-48515725D02*
X21467125Y-48485486D01*
X21467125Y-48485486D02*
X21497363Y-48425010D01*
X21497363Y-48425010D02*
X21497363Y-48273820D01*
X21497363Y-48273820D02*
X21467125Y-48213344D01*
X21467125Y-48213344D02*
X21436887Y-48183105D01*
X21436887Y-48183105D02*
X21376411Y-48152867D01*
X21376411Y-48152867D02*
X21255458Y-48152867D01*
X21255458Y-48152867D02*
X21194982Y-48183105D01*
X21194982Y-48183105D02*
X21164744Y-48213344D01*
X21164744Y-48213344D02*
X21134506Y-48273820D01*
X1392874Y-73945963D02*
X1392874Y-73310963D01*
X1392874Y-73310963D02*
X1634779Y-73310963D01*
X1634779Y-73310963D02*
X1695255Y-73341201D01*
X1695255Y-73341201D02*
X1725493Y-73371439D01*
X1725493Y-73371439D02*
X1755731Y-73431915D01*
X1755731Y-73431915D02*
X1755731Y-73522629D01*
X1755731Y-73522629D02*
X1725493Y-73583105D01*
X1725493Y-73583105D02*
X1695255Y-73613344D01*
X1695255Y-73613344D02*
X1634779Y-73643582D01*
X1634779Y-73643582D02*
X1392874Y-73643582D01*
X2390731Y-73885486D02*
X2360493Y-73915725D01*
X2360493Y-73915725D02*
X2269779Y-73945963D01*
X2269779Y-73945963D02*
X2209303Y-73945963D01*
X2209303Y-73945963D02*
X2118588Y-73915725D01*
X2118588Y-73915725D02*
X2058112Y-73855248D01*
X2058112Y-73855248D02*
X2027874Y-73794772D01*
X2027874Y-73794772D02*
X1997636Y-73673820D01*
X1997636Y-73673820D02*
X1997636Y-73583105D01*
X1997636Y-73583105D02*
X2027874Y-73462153D01*
X2027874Y-73462153D02*
X2058112Y-73401677D01*
X2058112Y-73401677D02*
X2118588Y-73341201D01*
X2118588Y-73341201D02*
X2209303Y-73310963D01*
X2209303Y-73310963D02*
X2269779Y-73310963D01*
X2269779Y-73310963D02*
X2360493Y-73341201D01*
X2360493Y-73341201D02*
X2390731Y-73371439D01*
X2995493Y-73945963D02*
X2632636Y-73945963D01*
X2814064Y-73945963D02*
X2814064Y-73310963D01*
X2814064Y-73310963D02*
X2753588Y-73401677D01*
X2753588Y-73401677D02*
X2693112Y-73462153D01*
X2693112Y-73462153D02*
X2632636Y-73492391D01*
X20257601Y-43405486D02*
X20227363Y-43435725D01*
X20227363Y-43435725D02*
X20136649Y-43465963D01*
X20136649Y-43465963D02*
X20076173Y-43465963D01*
X20076173Y-43465963D02*
X19985458Y-43435725D01*
X19985458Y-43435725D02*
X19924982Y-43375248D01*
X19924982Y-43375248D02*
X19894744Y-43314772D01*
X19894744Y-43314772D02*
X19864506Y-43193820D01*
X19864506Y-43193820D02*
X19864506Y-43103105D01*
X19864506Y-43103105D02*
X19894744Y-42982153D01*
X19894744Y-42982153D02*
X19924982Y-42921677D01*
X19924982Y-42921677D02*
X19985458Y-42861201D01*
X19985458Y-42861201D02*
X20076173Y-42830963D01*
X20076173Y-42830963D02*
X20136649Y-42830963D01*
X20136649Y-42830963D02*
X20227363Y-42861201D01*
X20227363Y-42861201D02*
X20257601Y-42891439D01*
X20529744Y-43465963D02*
X20529744Y-42830963D01*
X20529744Y-42830963D02*
X20680934Y-42830963D01*
X20680934Y-42830963D02*
X20771649Y-42861201D01*
X20771649Y-42861201D02*
X20832125Y-42921677D01*
X20832125Y-42921677D02*
X20862363Y-42982153D01*
X20862363Y-42982153D02*
X20892601Y-43103105D01*
X20892601Y-43103105D02*
X20892601Y-43193820D01*
X20892601Y-43193820D02*
X20862363Y-43314772D01*
X20862363Y-43314772D02*
X20832125Y-43375248D01*
X20832125Y-43375248D02*
X20771649Y-43435725D01*
X20771649Y-43435725D02*
X20680934Y-43465963D01*
X20680934Y-43465963D02*
X20529744Y-43465963D01*
X21497363Y-43465963D02*
X21134506Y-43465963D01*
X21315934Y-43465963D02*
X21315934Y-42830963D01*
X21315934Y-42830963D02*
X21255458Y-42921677D01*
X21255458Y-42921677D02*
X21194982Y-42982153D01*
X21194982Y-42982153D02*
X21134506Y-43012391D01*
X1755731Y-12925486D02*
X1725493Y-12955725D01*
X1725493Y-12955725D02*
X1634779Y-12985963D01*
X1634779Y-12985963D02*
X1574303Y-12985963D01*
X1574303Y-12985963D02*
X1483588Y-12955725D01*
X1483588Y-12955725D02*
X1423112Y-12895248D01*
X1423112Y-12895248D02*
X1392874Y-12834772D01*
X1392874Y-12834772D02*
X1362636Y-12713820D01*
X1362636Y-12713820D02*
X1362636Y-12623105D01*
X1362636Y-12623105D02*
X1392874Y-12502153D01*
X1392874Y-12502153D02*
X1423112Y-12441677D01*
X1423112Y-12441677D02*
X1483588Y-12381201D01*
X1483588Y-12381201D02*
X1574303Y-12350963D01*
X1574303Y-12350963D02*
X1634779Y-12350963D01*
X1634779Y-12350963D02*
X1725493Y-12381201D01*
X1725493Y-12381201D02*
X1755731Y-12411439D01*
X2239541Y-12653344D02*
X2330255Y-12683582D01*
X2330255Y-12683582D02*
X2360493Y-12713820D01*
X2360493Y-12713820D02*
X2390731Y-12774296D01*
X2390731Y-12774296D02*
X2390731Y-12865010D01*
X2390731Y-12865010D02*
X2360493Y-12925486D01*
X2360493Y-12925486D02*
X2330255Y-12955725D01*
X2330255Y-12955725D02*
X2269779Y-12985963D01*
X2269779Y-12985963D02*
X2027874Y-12985963D01*
X2027874Y-12985963D02*
X2027874Y-12350963D01*
X2027874Y-12350963D02*
X2239541Y-12350963D01*
X2239541Y-12350963D02*
X2300017Y-12381201D01*
X2300017Y-12381201D02*
X2330255Y-12411439D01*
X2330255Y-12411439D02*
X2360493Y-12471915D01*
X2360493Y-12471915D02*
X2360493Y-12532391D01*
X2360493Y-12532391D02*
X2330255Y-12592867D01*
X2330255Y-12592867D02*
X2300017Y-12623105D01*
X2300017Y-12623105D02*
X2239541Y-12653344D01*
X2239541Y-12653344D02*
X2027874Y-12653344D01*
X2632636Y-12411439D02*
X2662874Y-12381201D01*
X2662874Y-12381201D02*
X2723350Y-12350963D01*
X2723350Y-12350963D02*
X2874541Y-12350963D01*
X2874541Y-12350963D02*
X2935017Y-12381201D01*
X2935017Y-12381201D02*
X2965255Y-12411439D01*
X2965255Y-12411439D02*
X2995493Y-12471915D01*
X2995493Y-12471915D02*
X2995493Y-12532391D01*
X2995493Y-12532391D02*
X2965255Y-12623105D01*
X2965255Y-12623105D02*
X2602398Y-12985963D01*
X2602398Y-12985963D02*
X2995493Y-12985963D01*
X1392874Y-35845963D02*
X1392874Y-35210963D01*
X1392874Y-35210963D02*
X1544064Y-35210963D01*
X1544064Y-35210963D02*
X1634779Y-35241201D01*
X1634779Y-35241201D02*
X1695255Y-35301677D01*
X1695255Y-35301677D02*
X1725493Y-35362153D01*
X1725493Y-35362153D02*
X1755731Y-35483105D01*
X1755731Y-35483105D02*
X1755731Y-35573820D01*
X1755731Y-35573820D02*
X1725493Y-35694772D01*
X1725493Y-35694772D02*
X1695255Y-35755248D01*
X1695255Y-35755248D02*
X1634779Y-35815725D01*
X1634779Y-35815725D02*
X1544064Y-35845963D01*
X1544064Y-35845963D02*
X1392874Y-35845963D01*
X2300017Y-35422629D02*
X2300017Y-35845963D01*
X2148826Y-35180725D02*
X1997636Y-35634296D01*
X1997636Y-35634296D02*
X2390731Y-35634296D01*
X1755731Y-10385486D02*
X1725493Y-10415725D01*
X1725493Y-10415725D02*
X1634779Y-10445963D01*
X1634779Y-10445963D02*
X1574303Y-10445963D01*
X1574303Y-10445963D02*
X1483588Y-10415725D01*
X1483588Y-10415725D02*
X1423112Y-10355248D01*
X1423112Y-10355248D02*
X1392874Y-10294772D01*
X1392874Y-10294772D02*
X1362636Y-10173820D01*
X1362636Y-10173820D02*
X1362636Y-10083105D01*
X1362636Y-10083105D02*
X1392874Y-9962153D01*
X1392874Y-9962153D02*
X1423112Y-9901677D01*
X1423112Y-9901677D02*
X1483588Y-9841201D01*
X1483588Y-9841201D02*
X1574303Y-9810963D01*
X1574303Y-9810963D02*
X1634779Y-9810963D01*
X1634779Y-9810963D02*
X1725493Y-9841201D01*
X1725493Y-9841201D02*
X1755731Y-9871439D01*
X2239541Y-10113344D02*
X2330255Y-10143582D01*
X2330255Y-10143582D02*
X2360493Y-10173820D01*
X2360493Y-10173820D02*
X2390731Y-10234296D01*
X2390731Y-10234296D02*
X2390731Y-10325010D01*
X2390731Y-10325010D02*
X2360493Y-10385486D01*
X2360493Y-10385486D02*
X2330255Y-10415725D01*
X2330255Y-10415725D02*
X2269779Y-10445963D01*
X2269779Y-10445963D02*
X2027874Y-10445963D01*
X2027874Y-10445963D02*
X2027874Y-9810963D01*
X2027874Y-9810963D02*
X2239541Y-9810963D01*
X2239541Y-9810963D02*
X2300017Y-9841201D01*
X2300017Y-9841201D02*
X2330255Y-9871439D01*
X2330255Y-9871439D02*
X2360493Y-9931915D01*
X2360493Y-9931915D02*
X2360493Y-9992391D01*
X2360493Y-9992391D02*
X2330255Y-10052867D01*
X2330255Y-10052867D02*
X2300017Y-10083105D01*
X2300017Y-10083105D02*
X2239541Y-10113344D01*
X2239541Y-10113344D02*
X2027874Y-10113344D01*
X2995493Y-10445963D02*
X2632636Y-10445963D01*
X2814064Y-10445963D02*
X2814064Y-9810963D01*
X2814064Y-9810963D02*
X2753588Y-9901677D01*
X2753588Y-9901677D02*
X2693112Y-9962153D01*
X2693112Y-9962153D02*
X2632636Y-9992391D01*
X1755731Y-68805486D02*
X1725493Y-68835725D01*
X1725493Y-68835725D02*
X1634779Y-68865963D01*
X1634779Y-68865963D02*
X1574303Y-68865963D01*
X1574303Y-68865963D02*
X1483588Y-68835725D01*
X1483588Y-68835725D02*
X1423112Y-68775248D01*
X1423112Y-68775248D02*
X1392874Y-68714772D01*
X1392874Y-68714772D02*
X1362636Y-68593820D01*
X1362636Y-68593820D02*
X1362636Y-68503105D01*
X1362636Y-68503105D02*
X1392874Y-68382153D01*
X1392874Y-68382153D02*
X1423112Y-68321677D01*
X1423112Y-68321677D02*
X1483588Y-68261201D01*
X1483588Y-68261201D02*
X1574303Y-68230963D01*
X1574303Y-68230963D02*
X1634779Y-68230963D01*
X1634779Y-68230963D02*
X1725493Y-68261201D01*
X1725493Y-68261201D02*
X1755731Y-68291439D01*
X2390731Y-68805486D02*
X2360493Y-68835725D01*
X2360493Y-68835725D02*
X2269779Y-68865963D01*
X2269779Y-68865963D02*
X2209303Y-68865963D01*
X2209303Y-68865963D02*
X2118588Y-68835725D01*
X2118588Y-68835725D02*
X2058112Y-68775248D01*
X2058112Y-68775248D02*
X2027874Y-68714772D01*
X2027874Y-68714772D02*
X1997636Y-68593820D01*
X1997636Y-68593820D02*
X1997636Y-68503105D01*
X1997636Y-68503105D02*
X2027874Y-68382153D01*
X2027874Y-68382153D02*
X2058112Y-68321677D01*
X2058112Y-68321677D02*
X2118588Y-68261201D01*
X2118588Y-68261201D02*
X2209303Y-68230963D01*
X2209303Y-68230963D02*
X2269779Y-68230963D01*
X2269779Y-68230963D02*
X2360493Y-68261201D01*
X2360493Y-68261201D02*
X2390731Y-68291439D01*
X2995493Y-68865963D02*
X2632636Y-68865963D01*
X2814064Y-68865963D02*
X2814064Y-68230963D01*
X2814064Y-68230963D02*
X2753588Y-68321677D01*
X2753588Y-68321677D02*
X2693112Y-68382153D01*
X2693112Y-68382153D02*
X2632636Y-68412391D01*
D11*
G36*
X7693455Y1505758D02*
G01*
X7760528Y1438686D01*
X7795980Y1367780D01*
X7837951Y1199899D01*
X7837951Y1081661D01*
X7795980Y913780D01*
X7760528Y842875D01*
X7693455Y775802D01*
X7588391Y740780D01*
X7466523Y740780D01*
X7466523Y1540780D01*
X7588391Y1540780D01*
X7693455Y1505758D01*
G37*
G36*
X9599856Y750202D02*
G01*
X9581012Y740780D01*
X9390129Y740780D01*
X9345821Y762934D01*
X9323666Y807245D01*
X9323666Y855268D01*
X9345821Y899578D01*
X9390130Y921733D01*
X9599856Y921733D01*
X9599856Y750202D01*
G37*
G36*
X15593002Y1510974D02*
G01*
X15617671Y1486306D01*
X15653124Y1415399D01*
X15695095Y1247518D01*
X15695095Y1034042D01*
X15653124Y866161D01*
X15617671Y795254D01*
X15593000Y770583D01*
X15533394Y740780D01*
X15485368Y740780D01*
X15425760Y770584D01*
X15401091Y795254D01*
X15365637Y866161D01*
X15323667Y1034043D01*
X15323667Y1247518D01*
X15365637Y1415399D01*
X15401091Y1486306D01*
X15425759Y1510975D01*
X15485369Y1540780D01*
X15533393Y1540780D01*
X15593002Y1510974D01*
G37*
G36*
X13084924Y1026495D02*
G01*
X12886219Y1026495D01*
X12985571Y1324552D01*
X13084924Y1026495D01*
G37*
G36*
X16006206Y429669D02*
G01*
X7155412Y429669D01*
X7155412Y1640780D01*
X7266523Y1640780D01*
X7266523Y640780D01*
X7268444Y621271D01*
X7283376Y585223D01*
X7310966Y557633D01*
X7347014Y542701D01*
X7366523Y540780D01*
X7604618Y540780D01*
X7614491Y541752D01*
X7617126Y541565D01*
X7620589Y542352D01*
X7624127Y542701D01*
X7626568Y543712D01*
X7636241Y545912D01*
X7779099Y593532D01*
X7796999Y601524D01*
X7799713Y603878D01*
X7803032Y605253D01*
X7818186Y617689D01*
X7913424Y712927D01*
X7919715Y720593D01*
X7921713Y722326D01*
X7923608Y725337D01*
X7925860Y728081D01*
X7926869Y730518D01*
X7932156Y738917D01*
X7979775Y834154D01*
X7980321Y835582D01*
X7980751Y836162D01*
X7983672Y844338D01*
X7986781Y852463D01*
X7986832Y853183D01*
X7987346Y854622D01*
X8034965Y1045098D01*
X8035465Y1048479D01*
X8036030Y1049843D01*
X8036753Y1057193D01*
X8037833Y1064491D01*
X8037615Y1065949D01*
X8037951Y1069352D01*
X8037951Y1212209D01*
X8037615Y1215611D01*
X8037833Y1217070D01*
X8036753Y1224367D01*
X8036030Y1231718D01*
X8035465Y1233081D01*
X8034965Y1236463D01*
X8017219Y1307447D01*
X8266523Y1307447D01*
X8266523Y783638D01*
X8268444Y764129D01*
X8269819Y760808D01*
X8270074Y757225D01*
X8277080Y738917D01*
X8324699Y643679D01*
X8326751Y640418D01*
X8327265Y638878D01*
X8328928Y636960D01*
X8335142Y627089D01*
X8344614Y618873D01*
X8352830Y609401D01*
X8362701Y603187D01*
X8364619Y601524D01*
X8366159Y601010D01*
X8369420Y598958D01*
X8464658Y551338D01*
X8482967Y544331D01*
X8486550Y544076D01*
X8489871Y542701D01*
X8509380Y540780D01*
X8652237Y540780D01*
X8671746Y542701D01*
X8675065Y544076D01*
X8678651Y544331D01*
X8696959Y551338D01*
X8729540Y567629D01*
X8739537Y557633D01*
X8775585Y542701D01*
X8814603Y542701D01*
X8850651Y557633D01*
X8878241Y585223D01*
X8893173Y621271D01*
X8895094Y640780D01*
X8895094Y878876D01*
X9123666Y878876D01*
X9123666Y783638D01*
X9125587Y764129D01*
X9126962Y760808D01*
X9127217Y757225D01*
X9134223Y738917D01*
X9181842Y643679D01*
X9183894Y640418D01*
X9184408Y638878D01*
X9186071Y636960D01*
X9192285Y627089D01*
X9201757Y618873D01*
X9209973Y609401D01*
X9219844Y603187D01*
X9221762Y601524D01*
X9223302Y601010D01*
X9226563Y598958D01*
X9321801Y551338D01*
X9340110Y544331D01*
X9343693Y544076D01*
X9347014Y542701D01*
X9366523Y540780D01*
X9604618Y540780D01*
X9624127Y542701D01*
X9627446Y544076D01*
X9631032Y544331D01*
X9649340Y551338D01*
X9653941Y553638D01*
X9680347Y542701D01*
X9719365Y542701D01*
X9755413Y557633D01*
X9783003Y585223D01*
X9797935Y621271D01*
X9799856Y640780D01*
X9799856Y1164590D01*
X9797935Y1184099D01*
X9796559Y1187419D01*
X9796305Y1191003D01*
X9789299Y1209312D01*
X9741680Y1304549D01*
X9739625Y1307812D01*
X9739113Y1309351D01*
X9737451Y1311266D01*
X9731237Y1321140D01*
X9721761Y1329357D01*
X9713548Y1338828D01*
X9703676Y1345041D01*
X9701760Y1346704D01*
X9700221Y1347217D01*
X9696958Y1349271D01*
X9601720Y1396890D01*
X9583412Y1403896D01*
X9579828Y1404150D01*
X9576508Y1405526D01*
X9556999Y1407447D01*
X9366523Y1407447D01*
X9347014Y1405526D01*
X9343693Y1404150D01*
X9340110Y1403896D01*
X9321801Y1396890D01*
X9226564Y1349271D01*
X9209973Y1338828D01*
X9184409Y1309351D01*
X9172070Y1272335D01*
X9174836Y1233415D01*
X9192285Y1198516D01*
X9221762Y1172952D01*
X9258778Y1160613D01*
X9297698Y1163379D01*
X9316006Y1170385D01*
X9390130Y1207447D01*
X9533392Y1207447D01*
X9577701Y1185291D01*
X9599856Y1140983D01*
X9599856Y1131155D01*
X9581011Y1121733D01*
X9366523Y1121733D01*
X9347014Y1119812D01*
X9343693Y1118436D01*
X9340110Y1118182D01*
X9321801Y1111176D01*
X9226564Y1063557D01*
X9223300Y1061502D01*
X9221762Y1060990D01*
X9219846Y1059328D01*
X9209973Y1053114D01*
X9201755Y1043638D01*
X9192285Y1035425D01*
X9186071Y1025553D01*
X9184409Y1023637D01*
X9183895Y1022098D01*
X9181842Y1018835D01*
X9134223Y923597D01*
X9127217Y905289D01*
X9126962Y901705D01*
X9125587Y898385D01*
X9123666Y878876D01*
X8895094Y878876D01*
X8895094Y1307447D01*
X8893173Y1326956D01*
X8878241Y1363004D01*
X8850651Y1390594D01*
X8814603Y1405526D01*
X8775585Y1405526D01*
X8739537Y1390594D01*
X8711947Y1363004D01*
X8697015Y1326956D01*
X8695094Y1307447D01*
X8695094Y777440D01*
X8688237Y770583D01*
X8628631Y740780D01*
X8532986Y740780D01*
X8488678Y762934D01*
X8466523Y807245D01*
X8466523Y1307447D01*
X8464602Y1326956D01*
X8449670Y1363004D01*
X8422080Y1390594D01*
X8386032Y1405526D01*
X8347014Y1405526D01*
X8310966Y1390594D01*
X8283376Y1363004D01*
X8268444Y1326956D01*
X8266523Y1307447D01*
X8017219Y1307447D01*
X7987346Y1426939D01*
X7986832Y1428377D01*
X7986781Y1429098D01*
X7983672Y1437222D01*
X7980751Y1445399D01*
X7980321Y1445978D01*
X7979775Y1447407D01*
X7932156Y1542644D01*
X7926869Y1551042D01*
X7925860Y1553480D01*
X7923608Y1556223D01*
X7921713Y1559235D01*
X7919715Y1560967D01*
X7913424Y1568634D01*
X7841278Y1640780D01*
X10076047Y1640780D01*
X10076047Y783638D01*
X10077968Y764129D01*
X10079343Y760808D01*
X10079598Y757225D01*
X10086604Y738917D01*
X10134223Y643679D01*
X10136275Y640418D01*
X10136789Y638878D01*
X10138452Y636960D01*
X10144666Y627089D01*
X10154138Y618873D01*
X10162354Y609401D01*
X10172225Y603187D01*
X10174143Y601524D01*
X10175683Y601010D01*
X10178944Y598958D01*
X10274182Y551338D01*
X10292491Y544331D01*
X10331411Y541565D01*
X10368427Y553903D01*
X10397904Y579468D01*
X10415353Y614366D01*
X10418119Y653286D01*
X10405781Y690302D01*
X10380217Y719779D01*
X10363626Y730222D01*
X10298202Y762934D01*
X10276047Y807245D01*
X10276047Y1628273D01*
X11219690Y1628273D01*
X11224037Y1609157D01*
X11557370Y609158D01*
X11565361Y591257D01*
X11570044Y585857D01*
X11573239Y579468D01*
X11582710Y571252D01*
X11590926Y561781D01*
X11597314Y558586D01*
X11602715Y553903D01*
X11614616Y549935D01*
X11625825Y544332D01*
X11632949Y543825D01*
X11639731Y541565D01*
X11652240Y542454D01*
X11664745Y541565D01*
X11671523Y543824D01*
X11678651Y544331D01*
X11689867Y549939D01*
X11701761Y553904D01*
X11707158Y558584D01*
X11713550Y561781D01*
X11721768Y571256D01*
X11731237Y579469D01*
X11734430Y585855D01*
X11739115Y591257D01*
X11747106Y609157D01*
X12080439Y1609157D01*
X12084786Y1628272D01*
X12083897Y1640780D01*
X12218905Y1640780D01*
X12218905Y640780D01*
X12220826Y621271D01*
X12235758Y585223D01*
X12263348Y557633D01*
X12299396Y542701D01*
X12338414Y542701D01*
X12374462Y557633D01*
X12402052Y585223D01*
X12416984Y621271D01*
X12418905Y640780D01*
X12418905Y653287D01*
X12553023Y653287D01*
X12555789Y614367D01*
X12573239Y579468D01*
X12602715Y553903D01*
X12639731Y541565D01*
X12678651Y544331D01*
X12713550Y561781D01*
X12739115Y591257D01*
X12747106Y609157D01*
X12819552Y826495D01*
X13151590Y826495D01*
X13224036Y609158D01*
X13232027Y591257D01*
X13257592Y561781D01*
X13292491Y544332D01*
X13331411Y541565D01*
X13368427Y553904D01*
X13397903Y579469D01*
X13415353Y614368D01*
X13418119Y653288D01*
X13413772Y672403D01*
X13095149Y1628273D01*
X14172071Y1628273D01*
X14176418Y1609157D01*
X14509751Y609158D01*
X14517742Y591257D01*
X14522425Y585857D01*
X14525620Y579468D01*
X14535091Y571252D01*
X14543307Y561781D01*
X14549695Y558586D01*
X14555096Y553903D01*
X14566997Y549935D01*
X14578206Y544332D01*
X14585330Y543825D01*
X14592112Y541565D01*
X14604621Y542454D01*
X14617126Y541565D01*
X14623904Y543824D01*
X14631032Y544331D01*
X14642248Y549939D01*
X14654142Y553904D01*
X14659539Y558584D01*
X14665931Y561781D01*
X14674149Y571256D01*
X14683618Y579469D01*
X14686811Y585855D01*
X14691496Y591257D01*
X14699487Y609157D01*
X14916377Y1259828D01*
X15123667Y1259828D01*
X15123667Y1021733D01*
X15124002Y1018330D01*
X15123785Y1016872D01*
X15124864Y1009574D01*
X15125588Y1002224D01*
X15126152Y1000860D01*
X15126653Y997479D01*
X15174272Y807004D01*
X15174785Y805566D01*
X15174837Y804844D01*
X15177945Y796719D01*
X15180867Y788543D01*
X15181297Y787962D01*
X15181843Y786536D01*
X15229462Y691298D01*
X15234747Y682901D01*
X15235758Y680462D01*
X15238011Y677715D01*
X15239905Y674708D01*
X15241899Y672978D01*
X15248194Y665308D01*
X15295813Y617690D01*
X15303482Y611395D01*
X15305212Y609401D01*
X15308216Y607509D01*
X15310966Y605253D01*
X15313409Y604241D01*
X15321802Y598958D01*
X15417040Y551338D01*
X15435349Y544331D01*
X15438932Y544076D01*
X15442253Y542701D01*
X15461762Y540780D01*
X15557000Y540780D01*
X15576509Y542701D01*
X15579828Y544076D01*
X15583414Y544331D01*
X15601722Y551338D01*
X15696960Y598958D01*
X15705355Y604242D01*
X15707795Y605253D01*
X15710540Y607506D01*
X15713551Y609401D01*
X15715282Y611397D01*
X15722949Y617689D01*
X15770567Y665308D01*
X15776859Y672974D01*
X15778857Y674707D01*
X15780750Y677715D01*
X15783004Y680461D01*
X15784014Y682901D01*
X15789300Y691298D01*
X15836919Y786535D01*
X15837465Y787963D01*
X15837895Y788543D01*
X15840816Y796719D01*
X15843925Y804844D01*
X15843976Y805564D01*
X15844490Y807003D01*
X15892109Y997479D01*
X15892609Y1000860D01*
X15893174Y1002224D01*
X15893897Y1009574D01*
X15894977Y1016872D01*
X15894759Y1018330D01*
X15895095Y1021733D01*
X15895095Y1259828D01*
X15894759Y1263230D01*
X15894977Y1264689D01*
X15893897Y1271986D01*
X15893174Y1279337D01*
X15892609Y1280700D01*
X15892109Y1284082D01*
X15844490Y1474558D01*
X15843976Y1475996D01*
X15843925Y1476717D01*
X15840816Y1484841D01*
X15837895Y1493018D01*
X15837465Y1493597D01*
X15836919Y1495026D01*
X15789300Y1590263D01*
X15784014Y1598659D01*
X15783004Y1601100D01*
X15780750Y1603845D01*
X15778857Y1606854D01*
X15776859Y1608586D01*
X15770567Y1616253D01*
X15722949Y1663872D01*
X15715278Y1670166D01*
X15713549Y1672161D01*
X15710541Y1674054D01*
X15707795Y1676308D01*
X15705355Y1677318D01*
X15696959Y1682604D01*
X15601721Y1730223D01*
X15583413Y1737229D01*
X15579829Y1737483D01*
X15576509Y1738859D01*
X15557000Y1740780D01*
X15461762Y1740780D01*
X15442253Y1738859D01*
X15438932Y1737483D01*
X15435349Y1737229D01*
X15417040Y1730223D01*
X15321803Y1682604D01*
X15313406Y1677318D01*
X15310966Y1676308D01*
X15308220Y1674054D01*
X15305212Y1672161D01*
X15303479Y1670163D01*
X15295813Y1663871D01*
X15248194Y1616253D01*
X15241899Y1608582D01*
X15239905Y1606853D01*
X15238011Y1603845D01*
X15235758Y1601099D01*
X15234747Y1598659D01*
X15229462Y1590263D01*
X15181843Y1495025D01*
X15181297Y1493598D01*
X15180867Y1493018D01*
X15177945Y1484841D01*
X15174837Y1476717D01*
X15174785Y1475994D01*
X15174272Y1474557D01*
X15126653Y1284082D01*
X15126152Y1280700D01*
X15125588Y1279337D01*
X15124864Y1271986D01*
X15123785Y1264689D01*
X15124002Y1263230D01*
X15123667Y1259828D01*
X14916377Y1259828D01*
X15032820Y1609157D01*
X15037167Y1628272D01*
X15034401Y1667192D01*
X15016951Y1702091D01*
X14987475Y1727656D01*
X14950459Y1739995D01*
X14911539Y1737228D01*
X14876640Y1719779D01*
X14851075Y1690303D01*
X14843084Y1672402D01*
X14604619Y957007D01*
X14366154Y1672403D01*
X14358163Y1690303D01*
X14332598Y1719779D01*
X14297699Y1737229D01*
X14258779Y1739995D01*
X14221763Y1727657D01*
X14192287Y1702092D01*
X14174837Y1667193D01*
X14172071Y1628273D01*
X13095149Y1628273D01*
X13080439Y1672403D01*
X13072448Y1690303D01*
X13067763Y1695704D01*
X13064570Y1702091D01*
X13055101Y1710303D01*
X13046883Y1719779D01*
X13040491Y1722975D01*
X13035094Y1727656D01*
X13023200Y1731620D01*
X13011984Y1737229D01*
X13004856Y1737735D01*
X12998078Y1739995D01*
X12985573Y1739105D01*
X12973064Y1739995D01*
X12966282Y1737734D01*
X12959158Y1737228D01*
X12947949Y1731624D01*
X12936048Y1727657D01*
X12930647Y1722973D01*
X12924259Y1719779D01*
X12916043Y1710307D01*
X12906572Y1702092D01*
X12903377Y1695702D01*
X12898694Y1690303D01*
X12890703Y1672402D01*
X12557370Y672403D01*
X12553023Y653287D01*
X12418905Y653287D01*
X12418905Y1640780D01*
X12416984Y1660289D01*
X12402052Y1696337D01*
X12374462Y1723927D01*
X12338414Y1738859D01*
X12299396Y1738859D01*
X12263348Y1723927D01*
X12235758Y1696337D01*
X12220826Y1660289D01*
X12218905Y1640780D01*
X12083897Y1640780D01*
X12082020Y1667192D01*
X12064570Y1702091D01*
X12035094Y1727656D01*
X11998078Y1739995D01*
X11959158Y1737228D01*
X11924259Y1719779D01*
X11898694Y1690303D01*
X11890703Y1672402D01*
X11652238Y957007D01*
X11413773Y1672403D01*
X11405782Y1690303D01*
X11380217Y1719779D01*
X11345318Y1737229D01*
X11306398Y1739995D01*
X11269382Y1727657D01*
X11239906Y1702092D01*
X11222456Y1667193D01*
X11219690Y1628273D01*
X10276047Y1628273D01*
X10276047Y1640780D01*
X10274126Y1660289D01*
X10259194Y1696337D01*
X10231604Y1723927D01*
X10195556Y1738859D01*
X10156538Y1738859D01*
X10120490Y1723927D01*
X10092900Y1696337D01*
X10077968Y1660289D01*
X10076047Y1640780D01*
X7841278Y1640780D01*
X7818186Y1663872D01*
X7803032Y1676308D01*
X7799713Y1677682D01*
X7796998Y1680038D01*
X7779097Y1688029D01*
X7636241Y1735648D01*
X7626569Y1737847D01*
X7624127Y1738859D01*
X7620588Y1739207D01*
X7617125Y1739995D01*
X7614491Y1739807D01*
X7604618Y1740780D01*
X7366523Y1740780D01*
X7347014Y1738859D01*
X7310966Y1723927D01*
X7283376Y1696337D01*
X7268444Y1660289D01*
X7266523Y1640780D01*
X7155412Y1640780D01*
X7155412Y1851891D01*
X16006206Y1851891D01*
X16006206Y429669D01*
G37*
D10*
X19985458Y-15525963D02*
X19985458Y-14890963D01*
X19985458Y-14890963D02*
X20227363Y-14890963D01*
X20227363Y-14890963D02*
X20287839Y-14921201D01*
X20287839Y-14921201D02*
X20318077Y-14951439D01*
X20318077Y-14951439D02*
X20348315Y-15011915D01*
X20348315Y-15011915D02*
X20348315Y-15102629D01*
X20348315Y-15102629D02*
X20318077Y-15163105D01*
X20318077Y-15163105D02*
X20287839Y-15193344D01*
X20287839Y-15193344D02*
X20227363Y-15223582D01*
X20227363Y-15223582D02*
X19985458Y-15223582D01*
X20590220Y-15344534D02*
X20892601Y-15344534D01*
X20529744Y-15525963D02*
X20741410Y-14890963D01*
X20741410Y-14890963D02*
X20953077Y-15525963D01*
X21436887Y-14890963D02*
X21315934Y-14890963D01*
X21315934Y-14890963D02*
X21255458Y-14921201D01*
X21255458Y-14921201D02*
X21225220Y-14951439D01*
X21225220Y-14951439D02*
X21164744Y-15042153D01*
X21164744Y-15042153D02*
X21134506Y-15163105D01*
X21134506Y-15163105D02*
X21134506Y-15405010D01*
X21134506Y-15405010D02*
X21164744Y-15465486D01*
X21164744Y-15465486D02*
X21194982Y-15495725D01*
X21194982Y-15495725D02*
X21255458Y-15525963D01*
X21255458Y-15525963D02*
X21376411Y-15525963D01*
X21376411Y-15525963D02*
X21436887Y-15495725D01*
X21436887Y-15495725D02*
X21467125Y-15465486D01*
X21467125Y-15465486D02*
X21497363Y-15405010D01*
X21497363Y-15405010D02*
X21497363Y-15253820D01*
X21497363Y-15253820D02*
X21467125Y-15193344D01*
X21467125Y-15193344D02*
X21436887Y-15163105D01*
X21436887Y-15163105D02*
X21376411Y-15132867D01*
X21376411Y-15132867D02*
X21255458Y-15132867D01*
X21255458Y-15132867D02*
X21194982Y-15163105D01*
X21194982Y-15163105D02*
X21164744Y-15193344D01*
X21164744Y-15193344D02*
X21134506Y-15253820D01*
X19894744Y-63785963D02*
X19894744Y-63150963D01*
X19894744Y-63150963D02*
X20136649Y-63150963D01*
X20136649Y-63150963D02*
X20197125Y-63181201D01*
X20197125Y-63181201D02*
X20227363Y-63211439D01*
X20227363Y-63211439D02*
X20257601Y-63271915D01*
X20257601Y-63271915D02*
X20257601Y-63362629D01*
X20257601Y-63362629D02*
X20227363Y-63423105D01*
X20227363Y-63423105D02*
X20197125Y-63453344D01*
X20197125Y-63453344D02*
X20136649Y-63483582D01*
X20136649Y-63483582D02*
X19894744Y-63483582D01*
X20529744Y-63785963D02*
X20529744Y-63150963D01*
X20529744Y-63150963D02*
X20680934Y-63150963D01*
X20680934Y-63150963D02*
X20771649Y-63181201D01*
X20771649Y-63181201D02*
X20832125Y-63241677D01*
X20832125Y-63241677D02*
X20862363Y-63302153D01*
X20862363Y-63302153D02*
X20892601Y-63423105D01*
X20892601Y-63423105D02*
X20892601Y-63513820D01*
X20892601Y-63513820D02*
X20862363Y-63634772D01*
X20862363Y-63634772D02*
X20832125Y-63695248D01*
X20832125Y-63695248D02*
X20771649Y-63755725D01*
X20771649Y-63755725D02*
X20680934Y-63785963D01*
X20680934Y-63785963D02*
X20529744Y-63785963D01*
X21497363Y-63785963D02*
X21134506Y-63785963D01*
X21315934Y-63785963D02*
X21315934Y-63150963D01*
X21315934Y-63150963D02*
X21255458Y-63241677D01*
X21255458Y-63241677D02*
X21194982Y-63302153D01*
X21194982Y-63302153D02*
X21134506Y-63332391D01*
X1392874Y-28225963D02*
X1392874Y-27590963D01*
X1392874Y-27590963D02*
X1544064Y-27590963D01*
X1544064Y-27590963D02*
X1634779Y-27621201D01*
X1634779Y-27621201D02*
X1695255Y-27681677D01*
X1695255Y-27681677D02*
X1725493Y-27742153D01*
X1725493Y-27742153D02*
X1755731Y-27863105D01*
X1755731Y-27863105D02*
X1755731Y-27953820D01*
X1755731Y-27953820D02*
X1725493Y-28074772D01*
X1725493Y-28074772D02*
X1695255Y-28135248D01*
X1695255Y-28135248D02*
X1634779Y-28195725D01*
X1634779Y-28195725D02*
X1544064Y-28225963D01*
X1544064Y-28225963D02*
X1392874Y-28225963D01*
X1967398Y-27590963D02*
X2390731Y-27590963D01*
X2390731Y-27590963D02*
X2118588Y-28225963D01*
X1392874Y-71405963D02*
X1392874Y-70770963D01*
X1392874Y-70770963D02*
X1634779Y-70770963D01*
X1634779Y-70770963D02*
X1695255Y-70801201D01*
X1695255Y-70801201D02*
X1725493Y-70831439D01*
X1725493Y-70831439D02*
X1755731Y-70891915D01*
X1755731Y-70891915D02*
X1755731Y-70982629D01*
X1755731Y-70982629D02*
X1725493Y-71043105D01*
X1725493Y-71043105D02*
X1695255Y-71073344D01*
X1695255Y-71073344D02*
X1634779Y-71103582D01*
X1634779Y-71103582D02*
X1392874Y-71103582D01*
X2390731Y-71345486D02*
X2360493Y-71375725D01*
X2360493Y-71375725D02*
X2269779Y-71405963D01*
X2269779Y-71405963D02*
X2209303Y-71405963D01*
X2209303Y-71405963D02*
X2118588Y-71375725D01*
X2118588Y-71375725D02*
X2058112Y-71315248D01*
X2058112Y-71315248D02*
X2027874Y-71254772D01*
X2027874Y-71254772D02*
X1997636Y-71133820D01*
X1997636Y-71133820D02*
X1997636Y-71043105D01*
X1997636Y-71043105D02*
X2027874Y-70922153D01*
X2027874Y-70922153D02*
X2058112Y-70861677D01*
X2058112Y-70861677D02*
X2118588Y-70801201D01*
X2118588Y-70801201D02*
X2209303Y-70770963D01*
X2209303Y-70770963D02*
X2269779Y-70770963D01*
X2269779Y-70770963D02*
X2360493Y-70801201D01*
X2360493Y-70801201D02*
X2390731Y-70831439D01*
X2783826Y-70770963D02*
X2844303Y-70770963D01*
X2844303Y-70770963D02*
X2904779Y-70801201D01*
X2904779Y-70801201D02*
X2935017Y-70831439D01*
X2935017Y-70831439D02*
X2965255Y-70891915D01*
X2965255Y-70891915D02*
X2995493Y-71012867D01*
X2995493Y-71012867D02*
X2995493Y-71164058D01*
X2995493Y-71164058D02*
X2965255Y-71285010D01*
X2965255Y-71285010D02*
X2935017Y-71345486D01*
X2935017Y-71345486D02*
X2904779Y-71375725D01*
X2904779Y-71375725D02*
X2844303Y-71405963D01*
X2844303Y-71405963D02*
X2783826Y-71405963D01*
X2783826Y-71405963D02*
X2723350Y-71375725D01*
X2723350Y-71375725D02*
X2693112Y-71345486D01*
X2693112Y-71345486D02*
X2662874Y-71285010D01*
X2662874Y-71285010D02*
X2632636Y-71164058D01*
X2632636Y-71164058D02*
X2632636Y-71012867D01*
X2632636Y-71012867D02*
X2662874Y-70891915D01*
X2662874Y-70891915D02*
X2693112Y-70831439D01*
X2693112Y-70831439D02*
X2723350Y-70801201D01*
X2723350Y-70801201D02*
X2783826Y-70770963D01*
X1755731Y-20605963D02*
X1544064Y-20303582D01*
X1392874Y-20605963D02*
X1392874Y-19970963D01*
X1392874Y-19970963D02*
X1634779Y-19970963D01*
X1634779Y-19970963D02*
X1695255Y-20001201D01*
X1695255Y-20001201D02*
X1725493Y-20031439D01*
X1725493Y-20031439D02*
X1755731Y-20091915D01*
X1755731Y-20091915D02*
X1755731Y-20182629D01*
X1755731Y-20182629D02*
X1725493Y-20243105D01*
X1725493Y-20243105D02*
X1695255Y-20273344D01*
X1695255Y-20273344D02*
X1634779Y-20303582D01*
X1634779Y-20303582D02*
X1392874Y-20303582D01*
X1967398Y-19970963D02*
X2118588Y-20605963D01*
X2118588Y-20605963D02*
X2239541Y-20152391D01*
X2239541Y-20152391D02*
X2360493Y-20605963D01*
X2360493Y-20605963D02*
X2511684Y-19970963D01*
X1940184Y-19794675D02*
X2538898Y-19794675D01*
X19894744Y-46005963D02*
X19894744Y-45370963D01*
X19894744Y-45370963D02*
X20136649Y-45370963D01*
X20136649Y-45370963D02*
X20197125Y-45401201D01*
X20197125Y-45401201D02*
X20227363Y-45431439D01*
X20227363Y-45431439D02*
X20257601Y-45491915D01*
X20257601Y-45491915D02*
X20257601Y-45582629D01*
X20257601Y-45582629D02*
X20227363Y-45643105D01*
X20227363Y-45643105D02*
X20197125Y-45673344D01*
X20197125Y-45673344D02*
X20136649Y-45703582D01*
X20136649Y-45703582D02*
X19894744Y-45703582D01*
X20529744Y-46005963D02*
X20529744Y-45370963D01*
X20529744Y-45370963D02*
X20680934Y-45370963D01*
X20680934Y-45370963D02*
X20771649Y-45401201D01*
X20771649Y-45401201D02*
X20832125Y-45461677D01*
X20832125Y-45461677D02*
X20862363Y-45522153D01*
X20862363Y-45522153D02*
X20892601Y-45643105D01*
X20892601Y-45643105D02*
X20892601Y-45733820D01*
X20892601Y-45733820D02*
X20862363Y-45854772D01*
X20862363Y-45854772D02*
X20832125Y-45915248D01*
X20832125Y-45915248D02*
X20771649Y-45975725D01*
X20771649Y-45975725D02*
X20680934Y-46005963D01*
X20680934Y-46005963D02*
X20529744Y-46005963D01*
X21104268Y-45370963D02*
X21527601Y-45370963D01*
X21527601Y-45370963D02*
X21255458Y-46005963D01*
D11*
X9858571Y-48539980D02*
X9810952Y-48587600D01*
X9810952Y-48587600D02*
X9668095Y-48635219D01*
X9668095Y-48635219D02*
X9572857Y-48635219D01*
X9572857Y-48635219D02*
X9430000Y-48587600D01*
X9430000Y-48587600D02*
X9334762Y-48492361D01*
X9334762Y-48492361D02*
X9287143Y-48397123D01*
X9287143Y-48397123D02*
X9239524Y-48206647D01*
X9239524Y-48206647D02*
X9239524Y-48063790D01*
X9239524Y-48063790D02*
X9287143Y-47873314D01*
X9287143Y-47873314D02*
X9334762Y-47778076D01*
X9334762Y-47778076D02*
X9430000Y-47682838D01*
X9430000Y-47682838D02*
X9572857Y-47635219D01*
X9572857Y-47635219D02*
X9668095Y-47635219D01*
X9668095Y-47635219D02*
X9810952Y-47682838D01*
X9810952Y-47682838D02*
X9858571Y-47730457D01*
X11858572Y-48635219D02*
X11810953Y-48635219D01*
X11810953Y-48635219D02*
X11715714Y-48587600D01*
X11715714Y-48587600D02*
X11572857Y-48444742D01*
X11572857Y-48444742D02*
X11334762Y-48159028D01*
X11334762Y-48159028D02*
X11239524Y-48016171D01*
X11239524Y-48016171D02*
X11191905Y-47873314D01*
X11191905Y-47873314D02*
X11191905Y-47778076D01*
X11191905Y-47778076D02*
X11239524Y-47682838D01*
X11239524Y-47682838D02*
X11334762Y-47635219D01*
X11334762Y-47635219D02*
X11382381Y-47635219D01*
X11382381Y-47635219D02*
X11477619Y-47682838D01*
X11477619Y-47682838D02*
X11525238Y-47778076D01*
X11525238Y-47778076D02*
X11525238Y-47825695D01*
X11525238Y-47825695D02*
X11477619Y-47920933D01*
X11477619Y-47920933D02*
X11430000Y-47968552D01*
X11430000Y-47968552D02*
X11144286Y-48159028D01*
X11144286Y-48159028D02*
X11096667Y-48206647D01*
X11096667Y-48206647D02*
X11049048Y-48301885D01*
X11049048Y-48301885D02*
X11049048Y-48444742D01*
X11049048Y-48444742D02*
X11096667Y-48539980D01*
X11096667Y-48539980D02*
X11144286Y-48587600D01*
X11144286Y-48587600D02*
X11239524Y-48635219D01*
X11239524Y-48635219D02*
X11382381Y-48635219D01*
X11382381Y-48635219D02*
X11477619Y-48587600D01*
X11477619Y-48587600D02*
X11525238Y-48539980D01*
X11525238Y-48539980D02*
X11668095Y-48349504D01*
X11668095Y-48349504D02*
X11715714Y-48206647D01*
X11715714Y-48206647D02*
X11715714Y-48111409D01*
X13049048Y-48635219D02*
X13049048Y-47635219D01*
X13049048Y-47635219D02*
X13287143Y-47635219D01*
X13287143Y-47635219D02*
X13430000Y-47682838D01*
X13430000Y-47682838D02*
X13525238Y-47778076D01*
X13525238Y-47778076D02*
X13572857Y-47873314D01*
X13572857Y-47873314D02*
X13620476Y-48063790D01*
X13620476Y-48063790D02*
X13620476Y-48206647D01*
X13620476Y-48206647D02*
X13572857Y-48397123D01*
X13572857Y-48397123D02*
X13525238Y-48492361D01*
X13525238Y-48492361D02*
X13430000Y-48587600D01*
X13430000Y-48587600D02*
X13287143Y-48635219D01*
X13287143Y-48635219D02*
X13049048Y-48635219D01*
D10*
X1725493Y-22541201D02*
X1665017Y-22510963D01*
X1665017Y-22510963D02*
X1574303Y-22510963D01*
X1574303Y-22510963D02*
X1483588Y-22541201D01*
X1483588Y-22541201D02*
X1423112Y-22601677D01*
X1423112Y-22601677D02*
X1392874Y-22662153D01*
X1392874Y-22662153D02*
X1362636Y-22783105D01*
X1362636Y-22783105D02*
X1362636Y-22873820D01*
X1362636Y-22873820D02*
X1392874Y-22994772D01*
X1392874Y-22994772D02*
X1423112Y-23055248D01*
X1423112Y-23055248D02*
X1483588Y-23115725D01*
X1483588Y-23115725D02*
X1574303Y-23145963D01*
X1574303Y-23145963D02*
X1634779Y-23145963D01*
X1634779Y-23145963D02*
X1725493Y-23115725D01*
X1725493Y-23115725D02*
X1755731Y-23085486D01*
X1755731Y-23085486D02*
X1755731Y-22873820D01*
X1755731Y-22873820D02*
X1634779Y-22873820D01*
X2027874Y-23145963D02*
X2027874Y-22510963D01*
X2027874Y-22510963D02*
X2390731Y-23145963D01*
X2390731Y-23145963D02*
X2390731Y-22510963D01*
X2693112Y-23145963D02*
X2693112Y-22510963D01*
X2693112Y-22510963D02*
X2844302Y-22510963D01*
X2844302Y-22510963D02*
X2935017Y-22541201D01*
X2935017Y-22541201D02*
X2995493Y-22601677D01*
X2995493Y-22601677D02*
X3025731Y-22662153D01*
X3025731Y-22662153D02*
X3055969Y-22783105D01*
X3055969Y-22783105D02*
X3055969Y-22873820D01*
X3055969Y-22873820D02*
X3025731Y-22994772D01*
X3025731Y-22994772D02*
X2995493Y-23055248D01*
X2995493Y-23055248D02*
X2935017Y-23115725D01*
X2935017Y-23115725D02*
X2844302Y-23145963D01*
X2844302Y-23145963D02*
X2693112Y-23145963D01*
X19894744Y-2825963D02*
X19894744Y-2190963D01*
X19894744Y-2190963D02*
X20136649Y-2190963D01*
X20136649Y-2190963D02*
X20197125Y-2221201D01*
X20197125Y-2221201D02*
X20227363Y-2251439D01*
X20227363Y-2251439D02*
X20257601Y-2311915D01*
X20257601Y-2311915D02*
X20257601Y-2402629D01*
X20257601Y-2402629D02*
X20227363Y-2463105D01*
X20227363Y-2463105D02*
X20197125Y-2493344D01*
X20197125Y-2493344D02*
X20136649Y-2523582D01*
X20136649Y-2523582D02*
X19894744Y-2523582D01*
X20741411Y-2493344D02*
X20832125Y-2523582D01*
X20832125Y-2523582D02*
X20862363Y-2553820D01*
X20862363Y-2553820D02*
X20892601Y-2614296D01*
X20892601Y-2614296D02*
X20892601Y-2705010D01*
X20892601Y-2705010D02*
X20862363Y-2765486D01*
X20862363Y-2765486D02*
X20832125Y-2795725D01*
X20832125Y-2795725D02*
X20771649Y-2825963D01*
X20771649Y-2825963D02*
X20529744Y-2825963D01*
X20529744Y-2825963D02*
X20529744Y-2190963D01*
X20529744Y-2190963D02*
X20741411Y-2190963D01*
X20741411Y-2190963D02*
X20801887Y-2221201D01*
X20801887Y-2221201D02*
X20832125Y-2251439D01*
X20832125Y-2251439D02*
X20862363Y-2311915D01*
X20862363Y-2311915D02*
X20862363Y-2372391D01*
X20862363Y-2372391D02*
X20832125Y-2432867D01*
X20832125Y-2432867D02*
X20801887Y-2463105D01*
X20801887Y-2463105D02*
X20741411Y-2493344D01*
X20741411Y-2493344D02*
X20529744Y-2493344D01*
X21104268Y-2190963D02*
X21497363Y-2190963D01*
X21497363Y-2190963D02*
X21285696Y-2432867D01*
X21285696Y-2432867D02*
X21376411Y-2432867D01*
X21376411Y-2432867D02*
X21436887Y-2463105D01*
X21436887Y-2463105D02*
X21467125Y-2493344D01*
X21467125Y-2493344D02*
X21497363Y-2553820D01*
X21497363Y-2553820D02*
X21497363Y-2705010D01*
X21497363Y-2705010D02*
X21467125Y-2765486D01*
X21467125Y-2765486D02*
X21436887Y-2795725D01*
X21436887Y-2795725D02*
X21376411Y-2825963D01*
X21376411Y-2825963D02*
X21194982Y-2825963D01*
X21194982Y-2825963D02*
X21134506Y-2795725D01*
X21134506Y-2795725D02*
X21104268Y-2765486D01*
X1362636Y-61064534D02*
X1665017Y-61064534D01*
X1302160Y-61245963D02*
X1513826Y-60610963D01*
X1513826Y-60610963D02*
X1725493Y-61245963D01*
X2058112Y-60610963D02*
X2118589Y-60610963D01*
X2118589Y-60610963D02*
X2179065Y-60641201D01*
X2179065Y-60641201D02*
X2209303Y-60671439D01*
X2209303Y-60671439D02*
X2239541Y-60731915D01*
X2239541Y-60731915D02*
X2269779Y-60852867D01*
X2269779Y-60852867D02*
X2269779Y-61004058D01*
X2269779Y-61004058D02*
X2239541Y-61125010D01*
X2239541Y-61125010D02*
X2209303Y-61185486D01*
X2209303Y-61185486D02*
X2179065Y-61215725D01*
X2179065Y-61215725D02*
X2118589Y-61245963D01*
X2118589Y-61245963D02*
X2058112Y-61245963D01*
X2058112Y-61245963D02*
X1997636Y-61215725D01*
X1997636Y-61215725D02*
X1967398Y-61185486D01*
X1967398Y-61185486D02*
X1937160Y-61125010D01*
X1937160Y-61125010D02*
X1906922Y-61004058D01*
X1906922Y-61004058D02*
X1906922Y-60852867D01*
X1906922Y-60852867D02*
X1937160Y-60731915D01*
X1937160Y-60731915D02*
X1967398Y-60671439D01*
X1967398Y-60671439D02*
X1997636Y-60641201D01*
X1997636Y-60641201D02*
X2058112Y-60610963D01*
X19985458Y-33305963D02*
X19985458Y-32670963D01*
X19985458Y-32670963D02*
X20227363Y-32670963D01*
X20227363Y-32670963D02*
X20287839Y-32701201D01*
X20287839Y-32701201D02*
X20318077Y-32731439D01*
X20318077Y-32731439D02*
X20348315Y-32791915D01*
X20348315Y-32791915D02*
X20348315Y-32882629D01*
X20348315Y-32882629D02*
X20318077Y-32943105D01*
X20318077Y-32943105D02*
X20287839Y-32973344D01*
X20287839Y-32973344D02*
X20227363Y-33003582D01*
X20227363Y-33003582D02*
X19985458Y-33003582D01*
X20590220Y-33124534D02*
X20892601Y-33124534D01*
X20529744Y-33305963D02*
X20741410Y-32670963D01*
X20741410Y-32670963D02*
X20953077Y-33305963D01*
X21285696Y-32670963D02*
X21346173Y-32670963D01*
X21346173Y-32670963D02*
X21406649Y-32701201D01*
X21406649Y-32701201D02*
X21436887Y-32731439D01*
X21436887Y-32731439D02*
X21467125Y-32791915D01*
X21467125Y-32791915D02*
X21497363Y-32912867D01*
X21497363Y-32912867D02*
X21497363Y-33064058D01*
X21497363Y-33064058D02*
X21467125Y-33185010D01*
X21467125Y-33185010D02*
X21436887Y-33245486D01*
X21436887Y-33245486D02*
X21406649Y-33275725D01*
X21406649Y-33275725D02*
X21346173Y-33305963D01*
X21346173Y-33305963D02*
X21285696Y-33305963D01*
X21285696Y-33305963D02*
X21225220Y-33275725D01*
X21225220Y-33275725D02*
X21194982Y-33245486D01*
X21194982Y-33245486D02*
X21164744Y-33185010D01*
X21164744Y-33185010D02*
X21134506Y-33064058D01*
X21134506Y-33064058D02*
X21134506Y-32912867D01*
X21134506Y-32912867D02*
X21164744Y-32791915D01*
X21164744Y-32791915D02*
X21194982Y-32731439D01*
X21194982Y-32731439D02*
X21225220Y-32701201D01*
X21225220Y-32701201D02*
X21285696Y-32670963D01*
X19894744Y-58705963D02*
X19894744Y-58070963D01*
X19894744Y-58070963D02*
X20136649Y-58070963D01*
X20136649Y-58070963D02*
X20197125Y-58101201D01*
X20197125Y-58101201D02*
X20227363Y-58131439D01*
X20227363Y-58131439D02*
X20257601Y-58191915D01*
X20257601Y-58191915D02*
X20257601Y-58282629D01*
X20257601Y-58282629D02*
X20227363Y-58343105D01*
X20227363Y-58343105D02*
X20197125Y-58373344D01*
X20197125Y-58373344D02*
X20136649Y-58403582D01*
X20136649Y-58403582D02*
X19894744Y-58403582D01*
X20529744Y-58705963D02*
X20529744Y-58070963D01*
X20529744Y-58070963D02*
X20680934Y-58070963D01*
X20680934Y-58070963D02*
X20771649Y-58101201D01*
X20771649Y-58101201D02*
X20832125Y-58161677D01*
X20832125Y-58161677D02*
X20862363Y-58222153D01*
X20862363Y-58222153D02*
X20892601Y-58343105D01*
X20892601Y-58343105D02*
X20892601Y-58433820D01*
X20892601Y-58433820D02*
X20862363Y-58554772D01*
X20862363Y-58554772D02*
X20832125Y-58615248D01*
X20832125Y-58615248D02*
X20771649Y-58675725D01*
X20771649Y-58675725D02*
X20680934Y-58705963D01*
X20680934Y-58705963D02*
X20529744Y-58705963D01*
X21104268Y-58070963D02*
X21497363Y-58070963D01*
X21497363Y-58070963D02*
X21285696Y-58312867D01*
X21285696Y-58312867D02*
X21376411Y-58312867D01*
X21376411Y-58312867D02*
X21436887Y-58343105D01*
X21436887Y-58343105D02*
X21467125Y-58373344D01*
X21467125Y-58373344D02*
X21497363Y-58433820D01*
X21497363Y-58433820D02*
X21497363Y-58585010D01*
X21497363Y-58585010D02*
X21467125Y-58645486D01*
X21467125Y-58645486D02*
X21436887Y-58675725D01*
X21436887Y-58675725D02*
X21376411Y-58705963D01*
X21376411Y-58705963D02*
X21194982Y-58705963D01*
X21194982Y-58705963D02*
X21134506Y-58675725D01*
X21134506Y-58675725D02*
X21104268Y-58645486D01*
X1755731Y-25625486D02*
X1725493Y-25655725D01*
X1725493Y-25655725D02*
X1634779Y-25685963D01*
X1634779Y-25685963D02*
X1574303Y-25685963D01*
X1574303Y-25685963D02*
X1483588Y-25655725D01*
X1483588Y-25655725D02*
X1423112Y-25595248D01*
X1423112Y-25595248D02*
X1392874Y-25534772D01*
X1392874Y-25534772D02*
X1362636Y-25413820D01*
X1362636Y-25413820D02*
X1362636Y-25323105D01*
X1362636Y-25323105D02*
X1392874Y-25202153D01*
X1392874Y-25202153D02*
X1423112Y-25141677D01*
X1423112Y-25141677D02*
X1483588Y-25081201D01*
X1483588Y-25081201D02*
X1574303Y-25050963D01*
X1574303Y-25050963D02*
X1634779Y-25050963D01*
X1634779Y-25050963D02*
X1725493Y-25081201D01*
X1725493Y-25081201D02*
X1755731Y-25111439D01*
X1997636Y-25655725D02*
X2088350Y-25685963D01*
X2088350Y-25685963D02*
X2239541Y-25685963D01*
X2239541Y-25685963D02*
X2300017Y-25655725D01*
X2300017Y-25655725D02*
X2330255Y-25625486D01*
X2330255Y-25625486D02*
X2360493Y-25565010D01*
X2360493Y-25565010D02*
X2360493Y-25504534D01*
X2360493Y-25504534D02*
X2330255Y-25444058D01*
X2330255Y-25444058D02*
X2300017Y-25413820D01*
X2300017Y-25413820D02*
X2239541Y-25383582D01*
X2239541Y-25383582D02*
X2118588Y-25353344D01*
X2118588Y-25353344D02*
X2058112Y-25323105D01*
X2058112Y-25323105D02*
X2027874Y-25292867D01*
X2027874Y-25292867D02*
X1997636Y-25232391D01*
X1997636Y-25232391D02*
X1997636Y-25171915D01*
X1997636Y-25171915D02*
X2027874Y-25111439D01*
X2027874Y-25111439D02*
X2058112Y-25081201D01*
X2058112Y-25081201D02*
X2118588Y-25050963D01*
X2118588Y-25050963D02*
X2269779Y-25050963D01*
X2269779Y-25050963D02*
X2360493Y-25081201D01*
X1305184Y-24874675D02*
X2417946Y-24874675D01*
X2578207Y-25610972D02*
X2820112Y-25610972D01*
X2529826Y-25756115D02*
X2699160Y-25248115D01*
X2699160Y-25248115D02*
X2868493Y-25756115D01*
X3207160Y-25490020D02*
X3279732Y-25514210D01*
X3279732Y-25514210D02*
X3303922Y-25538401D01*
X3303922Y-25538401D02*
X3328113Y-25586782D01*
X3328113Y-25586782D02*
X3328113Y-25659353D01*
X3328113Y-25659353D02*
X3303922Y-25707734D01*
X3303922Y-25707734D02*
X3279732Y-25731925D01*
X3279732Y-25731925D02*
X3231351Y-25756115D01*
X3231351Y-25756115D02*
X3037827Y-25756115D01*
X3037827Y-25756115D02*
X3037827Y-25248115D01*
X3037827Y-25248115D02*
X3207160Y-25248115D01*
X3207160Y-25248115D02*
X3255541Y-25272305D01*
X3255541Y-25272305D02*
X3279732Y-25296496D01*
X3279732Y-25296496D02*
X3303922Y-25344877D01*
X3303922Y-25344877D02*
X3303922Y-25393258D01*
X3303922Y-25393258D02*
X3279732Y-25441639D01*
X3279732Y-25441639D02*
X3255541Y-25465829D01*
X3255541Y-25465829D02*
X3207160Y-25490020D01*
X3207160Y-25490020D02*
X3037827Y-25490020D01*
D11*
X9310952Y-12662504D02*
X9787142Y-12662504D01*
X9215714Y-12948219D02*
X9549047Y-11948219D01*
X9549047Y-11948219D02*
X9882380Y-12948219D01*
X11787143Y-12948219D02*
X11739524Y-12948219D01*
X11739524Y-12948219D02*
X11644285Y-12900600D01*
X11644285Y-12900600D02*
X11501428Y-12757742D01*
X11501428Y-12757742D02*
X11263333Y-12472028D01*
X11263333Y-12472028D02*
X11168095Y-12329171D01*
X11168095Y-12329171D02*
X11120476Y-12186314D01*
X11120476Y-12186314D02*
X11120476Y-12091076D01*
X11120476Y-12091076D02*
X11168095Y-11995838D01*
X11168095Y-11995838D02*
X11263333Y-11948219D01*
X11263333Y-11948219D02*
X11310952Y-11948219D01*
X11310952Y-11948219D02*
X11406190Y-11995838D01*
X11406190Y-11995838D02*
X11453809Y-12091076D01*
X11453809Y-12091076D02*
X11453809Y-12138695D01*
X11453809Y-12138695D02*
X11406190Y-12233933D01*
X11406190Y-12233933D02*
X11358571Y-12281552D01*
X11358571Y-12281552D02*
X11072857Y-12472028D01*
X11072857Y-12472028D02*
X11025238Y-12519647D01*
X11025238Y-12519647D02*
X10977619Y-12614885D01*
X10977619Y-12614885D02*
X10977619Y-12757742D01*
X10977619Y-12757742D02*
X11025238Y-12852980D01*
X11025238Y-12852980D02*
X11072857Y-12900600D01*
X11072857Y-12900600D02*
X11168095Y-12948219D01*
X11168095Y-12948219D02*
X11310952Y-12948219D01*
X11310952Y-12948219D02*
X11406190Y-12900600D01*
X11406190Y-12900600D02*
X11453809Y-12852980D01*
X11453809Y-12852980D02*
X11596666Y-12662504D01*
X11596666Y-12662504D02*
X11644285Y-12519647D01*
X11644285Y-12519647D02*
X11644285Y-12424409D01*
X13310952Y-12424409D02*
X13453809Y-12472028D01*
X13453809Y-12472028D02*
X13501428Y-12519647D01*
X13501428Y-12519647D02*
X13549047Y-12614885D01*
X13549047Y-12614885D02*
X13549047Y-12757742D01*
X13549047Y-12757742D02*
X13501428Y-12852980D01*
X13501428Y-12852980D02*
X13453809Y-12900600D01*
X13453809Y-12900600D02*
X13358571Y-12948219D01*
X13358571Y-12948219D02*
X12977619Y-12948219D01*
X12977619Y-12948219D02*
X12977619Y-11948219D01*
X12977619Y-11948219D02*
X13310952Y-11948219D01*
X13310952Y-11948219D02*
X13406190Y-11995838D01*
X13406190Y-11995838D02*
X13453809Y-12043457D01*
X13453809Y-12043457D02*
X13501428Y-12138695D01*
X13501428Y-12138695D02*
X13501428Y-12233933D01*
X13501428Y-12233933D02*
X13453809Y-12329171D01*
X13453809Y-12329171D02*
X13406190Y-12376790D01*
X13406190Y-12376790D02*
X13310952Y-12424409D01*
X13310952Y-12424409D02*
X12977619Y-12424409D01*
D10*
X1362636Y-53444534D02*
X1665017Y-53444534D01*
X1302160Y-53625963D02*
X1513826Y-52990963D01*
X1513826Y-52990963D02*
X1725493Y-53625963D01*
X1906922Y-53051439D02*
X1937160Y-53021201D01*
X1937160Y-53021201D02*
X1997636Y-52990963D01*
X1997636Y-52990963D02*
X2148827Y-52990963D01*
X2148827Y-52990963D02*
X2209303Y-53021201D01*
X2209303Y-53021201D02*
X2239541Y-53051439D01*
X2239541Y-53051439D02*
X2269779Y-53111915D01*
X2269779Y-53111915D02*
X2269779Y-53172391D01*
X2269779Y-53172391D02*
X2239541Y-53263105D01*
X2239541Y-53263105D02*
X1876684Y-53625963D01*
X1876684Y-53625963D02*
X2269779Y-53625963D01*
X1362636Y-58524534D02*
X1665017Y-58524534D01*
X1302160Y-58705963D02*
X1513826Y-58070963D01*
X1513826Y-58070963D02*
X1725493Y-58705963D01*
X2269779Y-58705963D02*
X1906922Y-58705963D01*
X2088350Y-58705963D02*
X2088350Y-58070963D01*
X2088350Y-58070963D02*
X2027874Y-58161677D01*
X2027874Y-58161677D02*
X1967398Y-58222153D01*
X1967398Y-58222153D02*
X1906922Y-58252391D01*
X1755731Y-48485486D02*
X1725493Y-48515725D01*
X1725493Y-48515725D02*
X1634779Y-48545963D01*
X1634779Y-48545963D02*
X1574303Y-48545963D01*
X1574303Y-48545963D02*
X1483588Y-48515725D01*
X1483588Y-48515725D02*
X1423112Y-48455248D01*
X1423112Y-48455248D02*
X1392874Y-48394772D01*
X1392874Y-48394772D02*
X1362636Y-48273820D01*
X1362636Y-48273820D02*
X1362636Y-48183105D01*
X1362636Y-48183105D02*
X1392874Y-48062153D01*
X1392874Y-48062153D02*
X1423112Y-48001677D01*
X1423112Y-48001677D02*
X1483588Y-47941201D01*
X1483588Y-47941201D02*
X1574303Y-47910963D01*
X1574303Y-47910963D02*
X1634779Y-47910963D01*
X1634779Y-47910963D02*
X1725493Y-47941201D01*
X1725493Y-47941201D02*
X1755731Y-47971439D01*
X1997636Y-48515725D02*
X2088350Y-48545963D01*
X2088350Y-48545963D02*
X2239541Y-48545963D01*
X2239541Y-48545963D02*
X2300017Y-48515725D01*
X2300017Y-48515725D02*
X2330255Y-48485486D01*
X2330255Y-48485486D02*
X2360493Y-48425010D01*
X2360493Y-48425010D02*
X2360493Y-48364534D01*
X2360493Y-48364534D02*
X2330255Y-48304058D01*
X2330255Y-48304058D02*
X2300017Y-48273820D01*
X2300017Y-48273820D02*
X2239541Y-48243582D01*
X2239541Y-48243582D02*
X2118588Y-48213344D01*
X2118588Y-48213344D02*
X2058112Y-48183105D01*
X2058112Y-48183105D02*
X2027874Y-48152867D01*
X2027874Y-48152867D02*
X1997636Y-48092391D01*
X1997636Y-48092391D02*
X1997636Y-48031915D01*
X1997636Y-48031915D02*
X2027874Y-47971439D01*
X2027874Y-47971439D02*
X2058112Y-47941201D01*
X2058112Y-47941201D02*
X2118588Y-47910963D01*
X2118588Y-47910963D02*
X2269779Y-47910963D01*
X2269779Y-47910963D02*
X2360493Y-47941201D01*
X1305184Y-47734675D02*
X2417946Y-47734675D01*
X2892684Y-48567734D02*
X2868493Y-48591925D01*
X2868493Y-48591925D02*
X2795922Y-48616115D01*
X2795922Y-48616115D02*
X2747541Y-48616115D01*
X2747541Y-48616115D02*
X2674969Y-48591925D01*
X2674969Y-48591925D02*
X2626588Y-48543544D01*
X2626588Y-48543544D02*
X2602398Y-48495163D01*
X2602398Y-48495163D02*
X2578207Y-48398401D01*
X2578207Y-48398401D02*
X2578207Y-48325829D01*
X2578207Y-48325829D02*
X2602398Y-48229067D01*
X2602398Y-48229067D02*
X2626588Y-48180686D01*
X2626588Y-48180686D02*
X2674969Y-48132305D01*
X2674969Y-48132305D02*
X2747541Y-48108115D01*
X2747541Y-48108115D02*
X2795922Y-48108115D01*
X2795922Y-48108115D02*
X2868493Y-48132305D01*
X2868493Y-48132305D02*
X2892684Y-48156496D01*
X3110398Y-48616115D02*
X3110398Y-48108115D01*
X3110398Y-48108115D02*
X3231350Y-48108115D01*
X3231350Y-48108115D02*
X3303922Y-48132305D01*
X3303922Y-48132305D02*
X3352303Y-48180686D01*
X3352303Y-48180686D02*
X3376493Y-48229067D01*
X3376493Y-48229067D02*
X3400684Y-48325829D01*
X3400684Y-48325829D02*
X3400684Y-48398401D01*
X3400684Y-48398401D02*
X3376493Y-48495163D01*
X3376493Y-48495163D02*
X3352303Y-48543544D01*
X3352303Y-48543544D02*
X3303922Y-48591925D01*
X3303922Y-48591925D02*
X3231350Y-48616115D01*
X3231350Y-48616115D02*
X3110398Y-48616115D01*
X1392874Y-33305963D02*
X1392874Y-32670963D01*
X1392874Y-32670963D02*
X1544064Y-32670963D01*
X1544064Y-32670963D02*
X1634779Y-32701201D01*
X1634779Y-32701201D02*
X1695255Y-32761677D01*
X1695255Y-32761677D02*
X1725493Y-32822153D01*
X1725493Y-32822153D02*
X1755731Y-32943105D01*
X1755731Y-32943105D02*
X1755731Y-33033820D01*
X1755731Y-33033820D02*
X1725493Y-33154772D01*
X1725493Y-33154772D02*
X1695255Y-33215248D01*
X1695255Y-33215248D02*
X1634779Y-33275725D01*
X1634779Y-33275725D02*
X1544064Y-33305963D01*
X1544064Y-33305963D02*
X1392874Y-33305963D01*
X2330255Y-32670963D02*
X2027874Y-32670963D01*
X2027874Y-32670963D02*
X1997636Y-32973344D01*
X1997636Y-32973344D02*
X2027874Y-32943105D01*
X2027874Y-32943105D02*
X2088350Y-32912867D01*
X2088350Y-32912867D02*
X2239541Y-32912867D01*
X2239541Y-32912867D02*
X2300017Y-32943105D01*
X2300017Y-32943105D02*
X2330255Y-32973344D01*
X2330255Y-32973344D02*
X2360493Y-33033820D01*
X2360493Y-33033820D02*
X2360493Y-33185010D01*
X2360493Y-33185010D02*
X2330255Y-33245486D01*
X2330255Y-33245486D02*
X2300017Y-33275725D01*
X2300017Y-33275725D02*
X2239541Y-33305963D01*
X2239541Y-33305963D02*
X2088350Y-33305963D01*
X2088350Y-33305963D02*
X2027874Y-33275725D01*
X2027874Y-33275725D02*
X1997636Y-33245486D01*
X19985458Y-28225963D02*
X19985458Y-27590963D01*
X19985458Y-27590963D02*
X20227363Y-27590963D01*
X20227363Y-27590963D02*
X20287839Y-27621201D01*
X20287839Y-27621201D02*
X20318077Y-27651439D01*
X20318077Y-27651439D02*
X20348315Y-27711915D01*
X20348315Y-27711915D02*
X20348315Y-27802629D01*
X20348315Y-27802629D02*
X20318077Y-27863105D01*
X20318077Y-27863105D02*
X20287839Y-27893344D01*
X20287839Y-27893344D02*
X20227363Y-27923582D01*
X20227363Y-27923582D02*
X19985458Y-27923582D01*
X20590220Y-28044534D02*
X20892601Y-28044534D01*
X20529744Y-28225963D02*
X20741410Y-27590963D01*
X20741410Y-27590963D02*
X20953077Y-28225963D01*
X21134506Y-27651439D02*
X21164744Y-27621201D01*
X21164744Y-27621201D02*
X21225220Y-27590963D01*
X21225220Y-27590963D02*
X21376411Y-27590963D01*
X21376411Y-27590963D02*
X21436887Y-27621201D01*
X21436887Y-27621201D02*
X21467125Y-27651439D01*
X21467125Y-27651439D02*
X21497363Y-27711915D01*
X21497363Y-27711915D02*
X21497363Y-27772391D01*
X21497363Y-27772391D02*
X21467125Y-27863105D01*
X21467125Y-27863105D02*
X21104268Y-28225963D01*
X21104268Y-28225963D02*
X21497363Y-28225963D01*
X20166887Y-55561201D02*
X20106411Y-55530963D01*
X20106411Y-55530963D02*
X20015697Y-55530963D01*
X20015697Y-55530963D02*
X19924982Y-55561201D01*
X19924982Y-55561201D02*
X19864506Y-55621677D01*
X19864506Y-55621677D02*
X19834268Y-55682153D01*
X19834268Y-55682153D02*
X19804030Y-55803105D01*
X19804030Y-55803105D02*
X19804030Y-55893820D01*
X19804030Y-55893820D02*
X19834268Y-56014772D01*
X19834268Y-56014772D02*
X19864506Y-56075248D01*
X19864506Y-56075248D02*
X19924982Y-56135725D01*
X19924982Y-56135725D02*
X20015697Y-56165963D01*
X20015697Y-56165963D02*
X20076173Y-56165963D01*
X20076173Y-56165963D02*
X20166887Y-56135725D01*
X20166887Y-56135725D02*
X20197125Y-56105486D01*
X20197125Y-56105486D02*
X20197125Y-55893820D01*
X20197125Y-55893820D02*
X20076173Y-55893820D01*
X20469268Y-56165963D02*
X20469268Y-55530963D01*
X20469268Y-55530963D02*
X20832125Y-56165963D01*
X20832125Y-56165963D02*
X20832125Y-55530963D01*
X21134506Y-56165963D02*
X21134506Y-55530963D01*
X21134506Y-55530963D02*
X21285696Y-55530963D01*
X21285696Y-55530963D02*
X21376411Y-55561201D01*
X21376411Y-55561201D02*
X21436887Y-55621677D01*
X21436887Y-55621677D02*
X21467125Y-55682153D01*
X21467125Y-55682153D02*
X21497363Y-55803105D01*
X21497363Y-55803105D02*
X21497363Y-55893820D01*
X21497363Y-55893820D02*
X21467125Y-56014772D01*
X21467125Y-56014772D02*
X21436887Y-56075248D01*
X21436887Y-56075248D02*
X21376411Y-56135725D01*
X21376411Y-56135725D02*
X21285696Y-56165963D01*
X21285696Y-56165963D02*
X21134506Y-56165963D01*
X20348315Y-38325486D02*
X20318077Y-38355725D01*
X20318077Y-38355725D02*
X20227363Y-38385963D01*
X20227363Y-38385963D02*
X20166887Y-38385963D01*
X20166887Y-38385963D02*
X20076172Y-38355725D01*
X20076172Y-38355725D02*
X20015696Y-38295248D01*
X20015696Y-38295248D02*
X19985458Y-38234772D01*
X19985458Y-38234772D02*
X19955220Y-38113820D01*
X19955220Y-38113820D02*
X19955220Y-38023105D01*
X19955220Y-38023105D02*
X19985458Y-37902153D01*
X19985458Y-37902153D02*
X20015696Y-37841677D01*
X20015696Y-37841677D02*
X20076172Y-37781201D01*
X20076172Y-37781201D02*
X20166887Y-37750963D01*
X20166887Y-37750963D02*
X20227363Y-37750963D01*
X20227363Y-37750963D02*
X20318077Y-37781201D01*
X20318077Y-37781201D02*
X20348315Y-37811439D01*
X20590220Y-38204534D02*
X20892601Y-38204534D01*
X20529744Y-38385963D02*
X20741410Y-37750963D01*
X20741410Y-37750963D02*
X20953077Y-38385963D01*
X21134506Y-37811439D02*
X21164744Y-37781201D01*
X21164744Y-37781201D02*
X21225220Y-37750963D01*
X21225220Y-37750963D02*
X21376411Y-37750963D01*
X21376411Y-37750963D02*
X21436887Y-37781201D01*
X21436887Y-37781201D02*
X21467125Y-37811439D01*
X21467125Y-37811439D02*
X21497363Y-37871915D01*
X21497363Y-37871915D02*
X21497363Y-37932391D01*
X21497363Y-37932391D02*
X21467125Y-38023105D01*
X21467125Y-38023105D02*
X21104268Y-38385963D01*
X21104268Y-38385963D02*
X21497363Y-38385963D01*
X1755731Y-66265486D02*
X1725493Y-66295725D01*
X1725493Y-66295725D02*
X1634779Y-66325963D01*
X1634779Y-66325963D02*
X1574303Y-66325963D01*
X1574303Y-66325963D02*
X1483588Y-66295725D01*
X1483588Y-66295725D02*
X1423112Y-66235248D01*
X1423112Y-66235248D02*
X1392874Y-66174772D01*
X1392874Y-66174772D02*
X1362636Y-66053820D01*
X1362636Y-66053820D02*
X1362636Y-65963105D01*
X1362636Y-65963105D02*
X1392874Y-65842153D01*
X1392874Y-65842153D02*
X1423112Y-65781677D01*
X1423112Y-65781677D02*
X1483588Y-65721201D01*
X1483588Y-65721201D02*
X1574303Y-65690963D01*
X1574303Y-65690963D02*
X1634779Y-65690963D01*
X1634779Y-65690963D02*
X1725493Y-65721201D01*
X1725493Y-65721201D02*
X1755731Y-65751439D01*
X2390731Y-66265486D02*
X2360493Y-66295725D01*
X2360493Y-66295725D02*
X2269779Y-66325963D01*
X2269779Y-66325963D02*
X2209303Y-66325963D01*
X2209303Y-66325963D02*
X2118588Y-66295725D01*
X2118588Y-66295725D02*
X2058112Y-66235248D01*
X2058112Y-66235248D02*
X2027874Y-66174772D01*
X2027874Y-66174772D02*
X1997636Y-66053820D01*
X1997636Y-66053820D02*
X1997636Y-65963105D01*
X1997636Y-65963105D02*
X2027874Y-65842153D01*
X2027874Y-65842153D02*
X2058112Y-65781677D01*
X2058112Y-65781677D02*
X2118588Y-65721201D01*
X2118588Y-65721201D02*
X2209303Y-65690963D01*
X2209303Y-65690963D02*
X2269779Y-65690963D01*
X2269779Y-65690963D02*
X2360493Y-65721201D01*
X2360493Y-65721201D02*
X2390731Y-65751439D01*
X2632636Y-65751439D02*
X2662874Y-65721201D01*
X2662874Y-65721201D02*
X2723350Y-65690963D01*
X2723350Y-65690963D02*
X2874541Y-65690963D01*
X2874541Y-65690963D02*
X2935017Y-65721201D01*
X2935017Y-65721201D02*
X2965255Y-65751439D01*
X2965255Y-65751439D02*
X2995493Y-65811915D01*
X2995493Y-65811915D02*
X2995493Y-65872391D01*
X2995493Y-65872391D02*
X2965255Y-65963105D01*
X2965255Y-65963105D02*
X2602398Y-66325963D01*
X2602398Y-66325963D02*
X2995493Y-66325963D01*
X19985458Y-25685963D02*
X19985458Y-25050963D01*
X19985458Y-25050963D02*
X20227363Y-25050963D01*
X20227363Y-25050963D02*
X20287839Y-25081201D01*
X20287839Y-25081201D02*
X20318077Y-25111439D01*
X20318077Y-25111439D02*
X20348315Y-25171915D01*
X20348315Y-25171915D02*
X20348315Y-25262629D01*
X20348315Y-25262629D02*
X20318077Y-25323105D01*
X20318077Y-25323105D02*
X20287839Y-25353344D01*
X20287839Y-25353344D02*
X20227363Y-25383582D01*
X20227363Y-25383582D02*
X19985458Y-25383582D01*
X20590220Y-25504534D02*
X20892601Y-25504534D01*
X20529744Y-25685963D02*
X20741410Y-25050963D01*
X20741410Y-25050963D02*
X20953077Y-25685963D01*
X21104268Y-25050963D02*
X21497363Y-25050963D01*
X21497363Y-25050963D02*
X21285696Y-25292867D01*
X21285696Y-25292867D02*
X21376411Y-25292867D01*
X21376411Y-25292867D02*
X21436887Y-25323105D01*
X21436887Y-25323105D02*
X21467125Y-25353344D01*
X21467125Y-25353344D02*
X21497363Y-25413820D01*
X21497363Y-25413820D02*
X21497363Y-25565010D01*
X21497363Y-25565010D02*
X21467125Y-25625486D01*
X21467125Y-25625486D02*
X21436887Y-25655725D01*
X21436887Y-25655725D02*
X21376411Y-25685963D01*
X21376411Y-25685963D02*
X21194982Y-25685963D01*
X21194982Y-25685963D02*
X21134506Y-25655725D01*
X21134506Y-25655725D02*
X21104268Y-25625486D01*
X1725493Y-55561201D02*
X1665017Y-55530963D01*
X1665017Y-55530963D02*
X1574303Y-55530963D01*
X1574303Y-55530963D02*
X1483588Y-55561201D01*
X1483588Y-55561201D02*
X1423112Y-55621677D01*
X1423112Y-55621677D02*
X1392874Y-55682153D01*
X1392874Y-55682153D02*
X1362636Y-55803105D01*
X1362636Y-55803105D02*
X1362636Y-55893820D01*
X1362636Y-55893820D02*
X1392874Y-56014772D01*
X1392874Y-56014772D02*
X1423112Y-56075248D01*
X1423112Y-56075248D02*
X1483588Y-56135725D01*
X1483588Y-56135725D02*
X1574303Y-56165963D01*
X1574303Y-56165963D02*
X1634779Y-56165963D01*
X1634779Y-56165963D02*
X1725493Y-56135725D01*
X1725493Y-56135725D02*
X1755731Y-56105486D01*
X1755731Y-56105486D02*
X1755731Y-55893820D01*
X1755731Y-55893820D02*
X1634779Y-55893820D01*
X2027874Y-56165963D02*
X2027874Y-55530963D01*
X2027874Y-55530963D02*
X2390731Y-56165963D01*
X2390731Y-56165963D02*
X2390731Y-55530963D01*
X2693112Y-56165963D02*
X2693112Y-55530963D01*
X2693112Y-55530963D02*
X2844302Y-55530963D01*
X2844302Y-55530963D02*
X2935017Y-55561201D01*
X2935017Y-55561201D02*
X2995493Y-55621677D01*
X2995493Y-55621677D02*
X3025731Y-55682153D01*
X3025731Y-55682153D02*
X3055969Y-55803105D01*
X3055969Y-55803105D02*
X3055969Y-55893820D01*
X3055969Y-55893820D02*
X3025731Y-56014772D01*
X3025731Y-56014772D02*
X2995493Y-56075248D01*
X2995493Y-56075248D02*
X2935017Y-56135725D01*
X2935017Y-56135725D02*
X2844302Y-56165963D01*
X2844302Y-56165963D02*
X2693112Y-56165963D01*
X20922839Y-73437963D02*
X20620458Y-73437963D01*
X20620458Y-73437963D02*
X20590220Y-73740344D01*
X20590220Y-73740344D02*
X20620458Y-73710105D01*
X20620458Y-73710105D02*
X20680934Y-73679867D01*
X20680934Y-73679867D02*
X20832125Y-73679867D01*
X20832125Y-73679867D02*
X20892601Y-73710105D01*
X20892601Y-73710105D02*
X20922839Y-73740344D01*
X20922839Y-73740344D02*
X20953077Y-73800820D01*
X20953077Y-73800820D02*
X20953077Y-73952010D01*
X20953077Y-73952010D02*
X20922839Y-74012486D01*
X20922839Y-74012486D02*
X20892601Y-74042725D01*
X20892601Y-74042725D02*
X20832125Y-74072963D01*
X20832125Y-74072963D02*
X20680934Y-74072963D01*
X20680934Y-74072963D02*
X20620458Y-74042725D01*
X20620458Y-74042725D02*
X20590220Y-74012486D01*
X21134506Y-73437963D02*
X21346172Y-74072963D01*
X21346172Y-74072963D02*
X21557839Y-73437963D01*
X19894744Y-10445963D02*
X19894744Y-9810963D01*
X19894744Y-9810963D02*
X20136649Y-9810963D01*
X20136649Y-9810963D02*
X20197125Y-9841201D01*
X20197125Y-9841201D02*
X20227363Y-9871439D01*
X20227363Y-9871439D02*
X20257601Y-9931915D01*
X20257601Y-9931915D02*
X20257601Y-10022629D01*
X20257601Y-10022629D02*
X20227363Y-10083105D01*
X20227363Y-10083105D02*
X20197125Y-10113344D01*
X20197125Y-10113344D02*
X20136649Y-10143582D01*
X20136649Y-10143582D02*
X19894744Y-10143582D01*
X20741411Y-10113344D02*
X20832125Y-10143582D01*
X20832125Y-10143582D02*
X20862363Y-10173820D01*
X20862363Y-10173820D02*
X20892601Y-10234296D01*
X20892601Y-10234296D02*
X20892601Y-10325010D01*
X20892601Y-10325010D02*
X20862363Y-10385486D01*
X20862363Y-10385486D02*
X20832125Y-10415725D01*
X20832125Y-10415725D02*
X20771649Y-10445963D01*
X20771649Y-10445963D02*
X20529744Y-10445963D01*
X20529744Y-10445963D02*
X20529744Y-9810963D01*
X20529744Y-9810963D02*
X20741411Y-9810963D01*
X20741411Y-9810963D02*
X20801887Y-9841201D01*
X20801887Y-9841201D02*
X20832125Y-9871439D01*
X20832125Y-9871439D02*
X20862363Y-9931915D01*
X20862363Y-9931915D02*
X20862363Y-9992391D01*
X20862363Y-9992391D02*
X20832125Y-10052867D01*
X20832125Y-10052867D02*
X20801887Y-10083105D01*
X20801887Y-10083105D02*
X20741411Y-10113344D01*
X20741411Y-10113344D02*
X20529744Y-10113344D01*
X21285696Y-9810963D02*
X21346173Y-9810963D01*
X21346173Y-9810963D02*
X21406649Y-9841201D01*
X21406649Y-9841201D02*
X21436887Y-9871439D01*
X21436887Y-9871439D02*
X21467125Y-9931915D01*
X21467125Y-9931915D02*
X21497363Y-10052867D01*
X21497363Y-10052867D02*
X21497363Y-10204058D01*
X21497363Y-10204058D02*
X21467125Y-10325010D01*
X21467125Y-10325010D02*
X21436887Y-10385486D01*
X21436887Y-10385486D02*
X21406649Y-10415725D01*
X21406649Y-10415725D02*
X21346173Y-10445963D01*
X21346173Y-10445963D02*
X21285696Y-10445963D01*
X21285696Y-10445963D02*
X21225220Y-10415725D01*
X21225220Y-10415725D02*
X21194982Y-10385486D01*
X21194982Y-10385486D02*
X21164744Y-10325010D01*
X21164744Y-10325010D02*
X21134506Y-10204058D01*
X21134506Y-10204058D02*
X21134506Y-10052867D01*
X21134506Y-10052867D02*
X21164744Y-9931915D01*
X21164744Y-9931915D02*
X21194982Y-9871439D01*
X21194982Y-9871439D02*
X21225220Y-9841201D01*
X21225220Y-9841201D02*
X21285696Y-9810963D01*
X19894744Y-79025963D02*
X19894744Y-78390963D01*
X19894744Y-78390963D02*
X20136649Y-78390963D01*
X20136649Y-78390963D02*
X20197125Y-78421201D01*
X20197125Y-78421201D02*
X20227363Y-78451439D01*
X20227363Y-78451439D02*
X20257601Y-78511915D01*
X20257601Y-78511915D02*
X20257601Y-78602629D01*
X20257601Y-78602629D02*
X20227363Y-78663105D01*
X20227363Y-78663105D02*
X20197125Y-78693344D01*
X20197125Y-78693344D02*
X20136649Y-78723582D01*
X20136649Y-78723582D02*
X19894744Y-78723582D01*
X20892601Y-78965486D02*
X20862363Y-78995725D01*
X20862363Y-78995725D02*
X20771649Y-79025963D01*
X20771649Y-79025963D02*
X20711173Y-79025963D01*
X20711173Y-79025963D02*
X20620458Y-78995725D01*
X20620458Y-78995725D02*
X20559982Y-78935248D01*
X20559982Y-78935248D02*
X20529744Y-78874772D01*
X20529744Y-78874772D02*
X20499506Y-78753820D01*
X20499506Y-78753820D02*
X20499506Y-78663105D01*
X20499506Y-78663105D02*
X20529744Y-78542153D01*
X20529744Y-78542153D02*
X20559982Y-78481677D01*
X20559982Y-78481677D02*
X20620458Y-78421201D01*
X20620458Y-78421201D02*
X20711173Y-78390963D01*
X20711173Y-78390963D02*
X20771649Y-78390963D01*
X20771649Y-78390963D02*
X20862363Y-78421201D01*
X20862363Y-78421201D02*
X20892601Y-78451439D01*
X21436887Y-78602629D02*
X21436887Y-79025963D01*
X21285696Y-78360725D02*
X21134506Y-78814296D01*
X21134506Y-78814296D02*
X21527601Y-78814296D01*
X1392874Y-285963D02*
X1392874Y349036D01*
X1392874Y349036D02*
X1634779Y349036D01*
X1634779Y349036D02*
X1695255Y318798D01*
X1695255Y318798D02*
X1725493Y288560D01*
X1725493Y288560D02*
X1755731Y228084D01*
X1755731Y228084D02*
X1755731Y137370D01*
X1755731Y137370D02*
X1725493Y76894D01*
X1725493Y76894D02*
X1695255Y46655D01*
X1695255Y46655D02*
X1634779Y16417D01*
X1634779Y16417D02*
X1392874Y16417D01*
X2239541Y46655D02*
X2330255Y16417D01*
X2330255Y16417D02*
X2360493Y-13820D01*
X2360493Y-13820D02*
X2390731Y-74296D01*
X2390731Y-74296D02*
X2390731Y-165010D01*
X2390731Y-165010D02*
X2360493Y-225486D01*
X2360493Y-225486D02*
X2330255Y-255725D01*
X2330255Y-255725D02*
X2269779Y-285963D01*
X2269779Y-285963D02*
X2027874Y-285963D01*
X2027874Y-285963D02*
X2027874Y349036D01*
X2027874Y349036D02*
X2239541Y349036D01*
X2239541Y349036D02*
X2300017Y318798D01*
X2300017Y318798D02*
X2330255Y288560D01*
X2330255Y288560D02*
X2360493Y228084D01*
X2360493Y228084D02*
X2360493Y167608D01*
X2360493Y167608D02*
X2330255Y107132D01*
X2330255Y107132D02*
X2300017Y76894D01*
X2300017Y76894D02*
X2239541Y46655D01*
X2239541Y46655D02*
X2027874Y46655D01*
X2965255Y349036D02*
X2662874Y349036D01*
X2662874Y349036D02*
X2632636Y46655D01*
X2632636Y46655D02*
X2662874Y76894D01*
X2662874Y76894D02*
X2723350Y107132D01*
X2723350Y107132D02*
X2874541Y107132D01*
X2874541Y107132D02*
X2935017Y76894D01*
X2935017Y76894D02*
X2965255Y46655D01*
X2965255Y46655D02*
X2995493Y-13820D01*
X2995493Y-13820D02*
X2995493Y-165010D01*
X2995493Y-165010D02*
X2965255Y-225486D01*
X2965255Y-225486D02*
X2935017Y-255725D01*
X2935017Y-255725D02*
X2874541Y-285963D01*
X2874541Y-285963D02*
X2723350Y-285963D01*
X2723350Y-285963D02*
X2662874Y-255725D01*
X2662874Y-255725D02*
X2632636Y-225486D01*
X20166887Y-22541201D02*
X20106411Y-22510963D01*
X20106411Y-22510963D02*
X20015697Y-22510963D01*
X20015697Y-22510963D02*
X19924982Y-22541201D01*
X19924982Y-22541201D02*
X19864506Y-22601677D01*
X19864506Y-22601677D02*
X19834268Y-22662153D01*
X19834268Y-22662153D02*
X19804030Y-22783105D01*
X19804030Y-22783105D02*
X19804030Y-22873820D01*
X19804030Y-22873820D02*
X19834268Y-22994772D01*
X19834268Y-22994772D02*
X19864506Y-23055248D01*
X19864506Y-23055248D02*
X19924982Y-23115725D01*
X19924982Y-23115725D02*
X20015697Y-23145963D01*
X20015697Y-23145963D02*
X20076173Y-23145963D01*
X20076173Y-23145963D02*
X20166887Y-23115725D01*
X20166887Y-23115725D02*
X20197125Y-23085486D01*
X20197125Y-23085486D02*
X20197125Y-22873820D01*
X20197125Y-22873820D02*
X20076173Y-22873820D01*
X20469268Y-23145963D02*
X20469268Y-22510963D01*
X20469268Y-22510963D02*
X20832125Y-23145963D01*
X20832125Y-23145963D02*
X20832125Y-22510963D01*
X21134506Y-23145963D02*
X21134506Y-22510963D01*
X21134506Y-22510963D02*
X21285696Y-22510963D01*
X21285696Y-22510963D02*
X21376411Y-22541201D01*
X21376411Y-22541201D02*
X21436887Y-22601677D01*
X21436887Y-22601677D02*
X21467125Y-22662153D01*
X21467125Y-22662153D02*
X21497363Y-22783105D01*
X21497363Y-22783105D02*
X21497363Y-22873820D01*
X21497363Y-22873820D02*
X21467125Y-22994772D01*
X21467125Y-22994772D02*
X21436887Y-23055248D01*
X21436887Y-23055248D02*
X21376411Y-23115725D01*
X21376411Y-23115725D02*
X21285696Y-23145963D01*
X21285696Y-23145963D02*
X21134506Y-23145963D01*
X19894744Y-66325963D02*
X19894744Y-65690963D01*
X19894744Y-65690963D02*
X20136649Y-65690963D01*
X20136649Y-65690963D02*
X20197125Y-65721201D01*
X20197125Y-65721201D02*
X20227363Y-65751439D01*
X20227363Y-65751439D02*
X20257601Y-65811915D01*
X20257601Y-65811915D02*
X20257601Y-65902629D01*
X20257601Y-65902629D02*
X20227363Y-65963105D01*
X20227363Y-65963105D02*
X20197125Y-65993344D01*
X20197125Y-65993344D02*
X20136649Y-66023582D01*
X20136649Y-66023582D02*
X19894744Y-66023582D01*
X20529744Y-66325963D02*
X20529744Y-65690963D01*
X20529744Y-65690963D02*
X20680934Y-65690963D01*
X20680934Y-65690963D02*
X20771649Y-65721201D01*
X20771649Y-65721201D02*
X20832125Y-65781677D01*
X20832125Y-65781677D02*
X20862363Y-65842153D01*
X20862363Y-65842153D02*
X20892601Y-65963105D01*
X20892601Y-65963105D02*
X20892601Y-66053820D01*
X20892601Y-66053820D02*
X20862363Y-66174772D01*
X20862363Y-66174772D02*
X20832125Y-66235248D01*
X20832125Y-66235248D02*
X20771649Y-66295725D01*
X20771649Y-66295725D02*
X20680934Y-66325963D01*
X20680934Y-66325963D02*
X20529744Y-66325963D01*
X21285696Y-65690963D02*
X21346173Y-65690963D01*
X21346173Y-65690963D02*
X21406649Y-65721201D01*
X21406649Y-65721201D02*
X21436887Y-65751439D01*
X21436887Y-65751439D02*
X21467125Y-65811915D01*
X21467125Y-65811915D02*
X21497363Y-65932867D01*
X21497363Y-65932867D02*
X21497363Y-66084058D01*
X21497363Y-66084058D02*
X21467125Y-66205010D01*
X21467125Y-66205010D02*
X21436887Y-66265486D01*
X21436887Y-66265486D02*
X21406649Y-66295725D01*
X21406649Y-66295725D02*
X21346173Y-66325963D01*
X21346173Y-66325963D02*
X21285696Y-66325963D01*
X21285696Y-66325963D02*
X21225220Y-66295725D01*
X21225220Y-66295725D02*
X21194982Y-66265486D01*
X21194982Y-66265486D02*
X21164744Y-66205010D01*
X21164744Y-66205010D02*
X21134506Y-66084058D01*
X21134506Y-66084058D02*
X21134506Y-65932867D01*
X21134506Y-65932867D02*
X21164744Y-65811915D01*
X21164744Y-65811915D02*
X21194982Y-65751439D01*
X21194982Y-65751439D02*
X21225220Y-65721201D01*
X21225220Y-65721201D02*
X21285696Y-65690963D01*
X19894744Y-7905963D02*
X19894744Y-7270963D01*
X19894744Y-7270963D02*
X20136649Y-7270963D01*
X20136649Y-7270963D02*
X20197125Y-7301201D01*
X20197125Y-7301201D02*
X20227363Y-7331439D01*
X20227363Y-7331439D02*
X20257601Y-7391915D01*
X20257601Y-7391915D02*
X20257601Y-7482629D01*
X20257601Y-7482629D02*
X20227363Y-7543105D01*
X20227363Y-7543105D02*
X20197125Y-7573344D01*
X20197125Y-7573344D02*
X20136649Y-7603582D01*
X20136649Y-7603582D02*
X19894744Y-7603582D01*
X20741411Y-7573344D02*
X20832125Y-7603582D01*
X20832125Y-7603582D02*
X20862363Y-7633820D01*
X20862363Y-7633820D02*
X20892601Y-7694296D01*
X20892601Y-7694296D02*
X20892601Y-7785010D01*
X20892601Y-7785010D02*
X20862363Y-7845486D01*
X20862363Y-7845486D02*
X20832125Y-7875725D01*
X20832125Y-7875725D02*
X20771649Y-7905963D01*
X20771649Y-7905963D02*
X20529744Y-7905963D01*
X20529744Y-7905963D02*
X20529744Y-7270963D01*
X20529744Y-7270963D02*
X20741411Y-7270963D01*
X20741411Y-7270963D02*
X20801887Y-7301201D01*
X20801887Y-7301201D02*
X20832125Y-7331439D01*
X20832125Y-7331439D02*
X20862363Y-7391915D01*
X20862363Y-7391915D02*
X20862363Y-7452391D01*
X20862363Y-7452391D02*
X20832125Y-7512867D01*
X20832125Y-7512867D02*
X20801887Y-7543105D01*
X20801887Y-7543105D02*
X20741411Y-7573344D01*
X20741411Y-7573344D02*
X20529744Y-7573344D01*
X21497363Y-7905963D02*
X21134506Y-7905963D01*
X21315934Y-7905963D02*
X21315934Y-7270963D01*
X21315934Y-7270963D02*
X21255458Y-7361677D01*
X21255458Y-7361677D02*
X21194982Y-7422153D01*
X21194982Y-7422153D02*
X21134506Y-7452391D01*
X1392874Y-30765963D02*
X1392874Y-30130963D01*
X1392874Y-30130963D02*
X1544064Y-30130963D01*
X1544064Y-30130963D02*
X1634779Y-30161201D01*
X1634779Y-30161201D02*
X1695255Y-30221677D01*
X1695255Y-30221677D02*
X1725493Y-30282153D01*
X1725493Y-30282153D02*
X1755731Y-30403105D01*
X1755731Y-30403105D02*
X1755731Y-30493820D01*
X1755731Y-30493820D02*
X1725493Y-30614772D01*
X1725493Y-30614772D02*
X1695255Y-30675248D01*
X1695255Y-30675248D02*
X1634779Y-30735725D01*
X1634779Y-30735725D02*
X1544064Y-30765963D01*
X1544064Y-30765963D02*
X1392874Y-30765963D01*
X2300017Y-30130963D02*
X2179064Y-30130963D01*
X2179064Y-30130963D02*
X2118588Y-30161201D01*
X2118588Y-30161201D02*
X2088350Y-30191439D01*
X2088350Y-30191439D02*
X2027874Y-30282153D01*
X2027874Y-30282153D02*
X1997636Y-30403105D01*
X1997636Y-30403105D02*
X1997636Y-30645010D01*
X1997636Y-30645010D02*
X2027874Y-30705486D01*
X2027874Y-30705486D02*
X2058112Y-30735725D01*
X2058112Y-30735725D02*
X2118588Y-30765963D01*
X2118588Y-30765963D02*
X2239541Y-30765963D01*
X2239541Y-30765963D02*
X2300017Y-30735725D01*
X2300017Y-30735725D02*
X2330255Y-30705486D01*
X2330255Y-30705486D02*
X2360493Y-30645010D01*
X2360493Y-30645010D02*
X2360493Y-30493820D01*
X2360493Y-30493820D02*
X2330255Y-30433344D01*
X2330255Y-30433344D02*
X2300017Y-30403105D01*
X2300017Y-30403105D02*
X2239541Y-30372867D01*
X2239541Y-30372867D02*
X2118588Y-30372867D01*
X2118588Y-30372867D02*
X2058112Y-30403105D01*
X2058112Y-30403105D02*
X2027874Y-30433344D01*
X2027874Y-30433344D02*
X1997636Y-30493820D01*
X1392874Y-76485963D02*
X1392874Y-75850963D01*
X1392874Y-75850963D02*
X1634779Y-75850963D01*
X1634779Y-75850963D02*
X1695255Y-75881201D01*
X1695255Y-75881201D02*
X1725493Y-75911439D01*
X1725493Y-75911439D02*
X1755731Y-75971915D01*
X1755731Y-75971915D02*
X1755731Y-76062629D01*
X1755731Y-76062629D02*
X1725493Y-76123105D01*
X1725493Y-76123105D02*
X1695255Y-76153344D01*
X1695255Y-76153344D02*
X1634779Y-76183582D01*
X1634779Y-76183582D02*
X1392874Y-76183582D01*
X2390731Y-76425486D02*
X2360493Y-76455725D01*
X2360493Y-76455725D02*
X2269779Y-76485963D01*
X2269779Y-76485963D02*
X2209303Y-76485963D01*
X2209303Y-76485963D02*
X2118588Y-76455725D01*
X2118588Y-76455725D02*
X2058112Y-76395248D01*
X2058112Y-76395248D02*
X2027874Y-76334772D01*
X2027874Y-76334772D02*
X1997636Y-76213820D01*
X1997636Y-76213820D02*
X1997636Y-76123105D01*
X1997636Y-76123105D02*
X2027874Y-76002153D01*
X2027874Y-76002153D02*
X2058112Y-75941677D01*
X2058112Y-75941677D02*
X2118588Y-75881201D01*
X2118588Y-75881201D02*
X2209303Y-75850963D01*
X2209303Y-75850963D02*
X2269779Y-75850963D01*
X2269779Y-75850963D02*
X2360493Y-75881201D01*
X2360493Y-75881201D02*
X2390731Y-75911439D01*
X2632636Y-75911439D02*
X2662874Y-75881201D01*
X2662874Y-75881201D02*
X2723350Y-75850963D01*
X2723350Y-75850963D02*
X2874541Y-75850963D01*
X2874541Y-75850963D02*
X2935017Y-75881201D01*
X2935017Y-75881201D02*
X2965255Y-75911439D01*
X2965255Y-75911439D02*
X2995493Y-75971915D01*
X2995493Y-75971915D02*
X2995493Y-76032391D01*
X2995493Y-76032391D02*
X2965255Y-76123105D01*
X2965255Y-76123105D02*
X2602398Y-76485963D01*
X2602398Y-76485963D02*
X2995493Y-76485963D01*
X19894744Y-71405963D02*
X19894744Y-70770963D01*
X19894744Y-70770963D02*
X20136649Y-70770963D01*
X20136649Y-70770963D02*
X20197125Y-70801201D01*
X20197125Y-70801201D02*
X20227363Y-70831439D01*
X20227363Y-70831439D02*
X20257601Y-70891915D01*
X20257601Y-70891915D02*
X20257601Y-70982629D01*
X20257601Y-70982629D02*
X20227363Y-71043105D01*
X20227363Y-71043105D02*
X20197125Y-71073344D01*
X20197125Y-71073344D02*
X20136649Y-71103582D01*
X20136649Y-71103582D02*
X19894744Y-71103582D01*
X20892601Y-71345486D02*
X20862363Y-71375725D01*
X20862363Y-71375725D02*
X20771649Y-71405963D01*
X20771649Y-71405963D02*
X20711173Y-71405963D01*
X20711173Y-71405963D02*
X20620458Y-71375725D01*
X20620458Y-71375725D02*
X20559982Y-71315248D01*
X20559982Y-71315248D02*
X20529744Y-71254772D01*
X20529744Y-71254772D02*
X20499506Y-71133820D01*
X20499506Y-71133820D02*
X20499506Y-71043105D01*
X20499506Y-71043105D02*
X20529744Y-70922153D01*
X20529744Y-70922153D02*
X20559982Y-70861677D01*
X20559982Y-70861677D02*
X20620458Y-70801201D01*
X20620458Y-70801201D02*
X20711173Y-70770963D01*
X20711173Y-70770963D02*
X20771649Y-70770963D01*
X20771649Y-70770963D02*
X20862363Y-70801201D01*
X20862363Y-70801201D02*
X20892601Y-70831439D01*
X21436887Y-70770963D02*
X21315934Y-70770963D01*
X21315934Y-70770963D02*
X21255458Y-70801201D01*
X21255458Y-70801201D02*
X21225220Y-70831439D01*
X21225220Y-70831439D02*
X21164744Y-70922153D01*
X21164744Y-70922153D02*
X21134506Y-71043105D01*
X21134506Y-71043105D02*
X21134506Y-71285010D01*
X21134506Y-71285010D02*
X21164744Y-71345486D01*
X21164744Y-71345486D02*
X21194982Y-71375725D01*
X21194982Y-71375725D02*
X21255458Y-71405963D01*
X21255458Y-71405963D02*
X21376411Y-71405963D01*
X21376411Y-71405963D02*
X21436887Y-71375725D01*
X21436887Y-71375725D02*
X21467125Y-71345486D01*
X21467125Y-71345486D02*
X21497363Y-71285010D01*
X21497363Y-71285010D02*
X21497363Y-71133820D01*
X21497363Y-71133820D02*
X21467125Y-71073344D01*
X21467125Y-71073344D02*
X21436887Y-71043105D01*
X21436887Y-71043105D02*
X21376411Y-71012867D01*
X21376411Y-71012867D02*
X21255458Y-71012867D01*
X21255458Y-71012867D02*
X21194982Y-71043105D01*
X21194982Y-71043105D02*
X21164744Y-71073344D01*
X21164744Y-71073344D02*
X21134506Y-71133820D01*
X1755731Y-15525963D02*
X1544064Y-15223582D01*
X1392874Y-15525963D02*
X1392874Y-14890963D01*
X1392874Y-14890963D02*
X1634779Y-14890963D01*
X1634779Y-14890963D02*
X1695255Y-14921201D01*
X1695255Y-14921201D02*
X1725493Y-14951439D01*
X1725493Y-14951439D02*
X1755731Y-15011915D01*
X1755731Y-15011915D02*
X1755731Y-15102629D01*
X1755731Y-15102629D02*
X1725493Y-15163105D01*
X1725493Y-15163105D02*
X1695255Y-15193344D01*
X1695255Y-15193344D02*
X1634779Y-15223582D01*
X1634779Y-15223582D02*
X1392874Y-15223582D01*
X2027874Y-15193344D02*
X2239541Y-15193344D01*
X2330255Y-15525963D02*
X2027874Y-15525963D01*
X2027874Y-15525963D02*
X2027874Y-14890963D01*
X2027874Y-14890963D02*
X2330255Y-14890963D01*
X2572160Y-15495725D02*
X2662874Y-15525963D01*
X2662874Y-15525963D02*
X2814065Y-15525963D01*
X2814065Y-15525963D02*
X2874541Y-15495725D01*
X2874541Y-15495725D02*
X2904779Y-15465486D01*
X2904779Y-15465486D02*
X2935017Y-15405010D01*
X2935017Y-15405010D02*
X2935017Y-15344534D01*
X2935017Y-15344534D02*
X2904779Y-15284058D01*
X2904779Y-15284058D02*
X2874541Y-15253820D01*
X2874541Y-15253820D02*
X2814065Y-15223582D01*
X2814065Y-15223582D02*
X2693112Y-15193344D01*
X2693112Y-15193344D02*
X2632636Y-15163105D01*
X2632636Y-15163105D02*
X2602398Y-15132867D01*
X2602398Y-15132867D02*
X2572160Y-15072391D01*
X2572160Y-15072391D02*
X2572160Y-15011915D01*
X2572160Y-15011915D02*
X2602398Y-14951439D01*
X2602398Y-14951439D02*
X2632636Y-14921201D01*
X2632636Y-14921201D02*
X2693112Y-14890963D01*
X2693112Y-14890963D02*
X2844303Y-14890963D01*
X2844303Y-14890963D02*
X2935017Y-14921201D01*
X1305184Y-14714675D02*
X2992470Y-14714675D01*
X1392874Y-7905963D02*
X1392874Y-7270963D01*
X1392874Y-7270963D02*
X1634779Y-7270963D01*
X1634779Y-7270963D02*
X1695255Y-7301201D01*
X1695255Y-7301201D02*
X1725493Y-7331439D01*
X1725493Y-7331439D02*
X1755731Y-7391915D01*
X1755731Y-7391915D02*
X1755731Y-7482629D01*
X1755731Y-7482629D02*
X1725493Y-7543105D01*
X1725493Y-7543105D02*
X1695255Y-7573344D01*
X1695255Y-7573344D02*
X1634779Y-7603582D01*
X1634779Y-7603582D02*
X1392874Y-7603582D01*
X2239541Y-7573344D02*
X2330255Y-7603582D01*
X2330255Y-7603582D02*
X2360493Y-7633820D01*
X2360493Y-7633820D02*
X2390731Y-7694296D01*
X2390731Y-7694296D02*
X2390731Y-7785010D01*
X2390731Y-7785010D02*
X2360493Y-7845486D01*
X2360493Y-7845486D02*
X2330255Y-7875725D01*
X2330255Y-7875725D02*
X2269779Y-7905963D01*
X2269779Y-7905963D02*
X2027874Y-7905963D01*
X2027874Y-7905963D02*
X2027874Y-7270963D01*
X2027874Y-7270963D02*
X2239541Y-7270963D01*
X2239541Y-7270963D02*
X2300017Y-7301201D01*
X2300017Y-7301201D02*
X2330255Y-7331439D01*
X2330255Y-7331439D02*
X2360493Y-7391915D01*
X2360493Y-7391915D02*
X2360493Y-7452391D01*
X2360493Y-7452391D02*
X2330255Y-7512867D01*
X2330255Y-7512867D02*
X2300017Y-7543105D01*
X2300017Y-7543105D02*
X2239541Y-7573344D01*
X2239541Y-7573344D02*
X2027874Y-7573344D01*
X2602398Y-7270963D02*
X3025731Y-7270963D01*
X3025731Y-7270963D02*
X2753588Y-7905963D01*
X1392874Y-63785963D02*
X1392874Y-63150963D01*
X2058112Y-63785963D02*
X1846445Y-63483582D01*
X1695255Y-63785963D02*
X1695255Y-63150963D01*
X1695255Y-63150963D02*
X1937160Y-63150963D01*
X1937160Y-63150963D02*
X1997636Y-63181201D01*
X1997636Y-63181201D02*
X2027874Y-63211439D01*
X2027874Y-63211439D02*
X2058112Y-63271915D01*
X2058112Y-63271915D02*
X2058112Y-63362629D01*
X2058112Y-63362629D02*
X2027874Y-63423105D01*
X2027874Y-63423105D02*
X1997636Y-63453344D01*
X1997636Y-63453344D02*
X1937160Y-63483582D01*
X1937160Y-63483582D02*
X1695255Y-63483582D01*
X2753588Y-63846439D02*
X2693112Y-63816201D01*
X2693112Y-63816201D02*
X2632636Y-63755725D01*
X2632636Y-63755725D02*
X2541922Y-63665010D01*
X2541922Y-63665010D02*
X2481445Y-63634772D01*
X2481445Y-63634772D02*
X2420969Y-63634772D01*
X2451207Y-63785963D02*
X2390731Y-63755725D01*
X2390731Y-63755725D02*
X2330255Y-63695248D01*
X2330255Y-63695248D02*
X2300017Y-63574296D01*
X2300017Y-63574296D02*
X2300017Y-63362629D01*
X2300017Y-63362629D02*
X2330255Y-63241677D01*
X2330255Y-63241677D02*
X2390731Y-63181201D01*
X2390731Y-63181201D02*
X2451207Y-63150963D01*
X2451207Y-63150963D02*
X2572160Y-63150963D01*
X2572160Y-63150963D02*
X2632636Y-63181201D01*
X2632636Y-63181201D02*
X2693112Y-63241677D01*
X2693112Y-63241677D02*
X2723350Y-63362629D01*
X2723350Y-63362629D02*
X2723350Y-63574296D01*
X2723350Y-63574296D02*
X2693112Y-63695248D01*
X2693112Y-63695248D02*
X2632636Y-63755725D01*
X2632636Y-63755725D02*
X2572160Y-63785963D01*
X2572160Y-63785963D02*
X2451207Y-63785963D01*
X1305184Y-62974675D02*
X2780803Y-62974675D01*
X3255541Y-63807734D02*
X3231350Y-63831925D01*
X3231350Y-63831925D02*
X3158779Y-63856115D01*
X3158779Y-63856115D02*
X3110398Y-63856115D01*
X3110398Y-63856115D02*
X3037826Y-63831925D01*
X3037826Y-63831925D02*
X2989445Y-63783544D01*
X2989445Y-63783544D02*
X2965255Y-63735163D01*
X2965255Y-63735163D02*
X2941064Y-63638401D01*
X2941064Y-63638401D02*
X2941064Y-63565829D01*
X2941064Y-63565829D02*
X2965255Y-63469067D01*
X2965255Y-63469067D02*
X2989445Y-63420686D01*
X2989445Y-63420686D02*
X3037826Y-63372305D01*
X3037826Y-63372305D02*
X3110398Y-63348115D01*
X3110398Y-63348115D02*
X3158779Y-63348115D01*
X3158779Y-63348115D02*
X3231350Y-63372305D01*
X3231350Y-63372305D02*
X3255541Y-63396496D01*
X3473255Y-63856115D02*
X3473255Y-63348115D01*
X3473255Y-63348115D02*
X3594207Y-63348115D01*
X3594207Y-63348115D02*
X3666779Y-63372305D01*
X3666779Y-63372305D02*
X3715160Y-63420686D01*
X3715160Y-63420686D02*
X3739350Y-63469067D01*
X3739350Y-63469067D02*
X3763541Y-63565829D01*
X3763541Y-63565829D02*
X3763541Y-63638401D01*
X3763541Y-63638401D02*
X3739350Y-63735163D01*
X3739350Y-63735163D02*
X3715160Y-63783544D01*
X3715160Y-63783544D02*
X3666779Y-63831925D01*
X3666779Y-63831925D02*
X3594207Y-63856115D01*
X3594207Y-63856115D02*
X3473255Y-63856115D01*
X1362636Y-50904534D02*
X1665017Y-50904534D01*
X1302160Y-51085963D02*
X1513826Y-50450963D01*
X1513826Y-50450963D02*
X1725493Y-51085963D01*
X1876684Y-50450963D02*
X2269779Y-50450963D01*
X2269779Y-50450963D02*
X2058112Y-50692867D01*
X2058112Y-50692867D02*
X2148827Y-50692867D01*
X2148827Y-50692867D02*
X2209303Y-50723105D01*
X2209303Y-50723105D02*
X2239541Y-50753344D01*
X2239541Y-50753344D02*
X2269779Y-50813820D01*
X2269779Y-50813820D02*
X2269779Y-50965010D01*
X2269779Y-50965010D02*
X2239541Y-51025486D01*
X2239541Y-51025486D02*
X2209303Y-51055725D01*
X2209303Y-51055725D02*
X2148827Y-51085963D01*
X2148827Y-51085963D02*
X1967398Y-51085963D01*
X1967398Y-51085963D02*
X1906922Y-51055725D01*
X1906922Y-51055725D02*
X1876684Y-51025486D01*
X20348315Y-35785486D02*
X20318077Y-35815725D01*
X20318077Y-35815725D02*
X20227363Y-35845963D01*
X20227363Y-35845963D02*
X20166887Y-35845963D01*
X20166887Y-35845963D02*
X20076172Y-35815725D01*
X20076172Y-35815725D02*
X20015696Y-35755248D01*
X20015696Y-35755248D02*
X19985458Y-35694772D01*
X19985458Y-35694772D02*
X19955220Y-35573820D01*
X19955220Y-35573820D02*
X19955220Y-35483105D01*
X19955220Y-35483105D02*
X19985458Y-35362153D01*
X19985458Y-35362153D02*
X20015696Y-35301677D01*
X20015696Y-35301677D02*
X20076172Y-35241201D01*
X20076172Y-35241201D02*
X20166887Y-35210963D01*
X20166887Y-35210963D02*
X20227363Y-35210963D01*
X20227363Y-35210963D02*
X20318077Y-35241201D01*
X20318077Y-35241201D02*
X20348315Y-35271439D01*
X20590220Y-35664534D02*
X20892601Y-35664534D01*
X20529744Y-35845963D02*
X20741410Y-35210963D01*
X20741410Y-35210963D02*
X20953077Y-35845963D01*
X21497363Y-35845963D02*
X21134506Y-35845963D01*
X21315934Y-35845963D02*
X21315934Y-35210963D01*
X21315934Y-35210963D02*
X21255458Y-35301677D01*
X21255458Y-35301677D02*
X21194982Y-35362153D01*
X21194982Y-35362153D02*
X21134506Y-35392391D01*
X20239458Y-20224963D02*
X20239458Y-19589963D01*
X20239458Y-19589963D02*
X20481363Y-19589963D01*
X20481363Y-19589963D02*
X20541839Y-19620201D01*
X20541839Y-19620201D02*
X20572077Y-19650439D01*
X20572077Y-19650439D02*
X20602315Y-19710915D01*
X20602315Y-19710915D02*
X20602315Y-19801629D01*
X20602315Y-19801629D02*
X20572077Y-19862105D01*
X20572077Y-19862105D02*
X20541839Y-19892344D01*
X20541839Y-19892344D02*
X20481363Y-19922582D01*
X20481363Y-19922582D02*
X20239458Y-19922582D01*
X20844220Y-20043534D02*
X21146601Y-20043534D01*
X20783744Y-20224963D02*
X20995410Y-19589963D01*
X20995410Y-19589963D02*
X21207077Y-20224963D01*
X21690887Y-19801629D02*
X21690887Y-20224963D01*
X21539696Y-19559725D02*
X21388506Y-20013296D01*
X21388506Y-20013296D02*
X21781601Y-20013296D01*
X1392874Y-2825963D02*
X1392874Y-2190963D01*
X1392874Y-2190963D02*
X1634779Y-2190963D01*
X1634779Y-2190963D02*
X1695255Y-2221201D01*
X1695255Y-2221201D02*
X1725493Y-2251439D01*
X1725493Y-2251439D02*
X1755731Y-2311915D01*
X1755731Y-2311915D02*
X1755731Y-2402629D01*
X1755731Y-2402629D02*
X1725493Y-2463105D01*
X1725493Y-2463105D02*
X1695255Y-2493344D01*
X1695255Y-2493344D02*
X1634779Y-2523582D01*
X1634779Y-2523582D02*
X1392874Y-2523582D01*
X2239541Y-2493344D02*
X2330255Y-2523582D01*
X2330255Y-2523582D02*
X2360493Y-2553820D01*
X2360493Y-2553820D02*
X2390731Y-2614296D01*
X2390731Y-2614296D02*
X2390731Y-2705010D01*
X2390731Y-2705010D02*
X2360493Y-2765486D01*
X2360493Y-2765486D02*
X2330255Y-2795725D01*
X2330255Y-2795725D02*
X2269779Y-2825963D01*
X2269779Y-2825963D02*
X2027874Y-2825963D01*
X2027874Y-2825963D02*
X2027874Y-2190963D01*
X2027874Y-2190963D02*
X2239541Y-2190963D01*
X2239541Y-2190963D02*
X2300017Y-2221201D01*
X2300017Y-2221201D02*
X2330255Y-2251439D01*
X2330255Y-2251439D02*
X2360493Y-2311915D01*
X2360493Y-2311915D02*
X2360493Y-2372391D01*
X2360493Y-2372391D02*
X2330255Y-2432867D01*
X2330255Y-2432867D02*
X2300017Y-2463105D01*
X2300017Y-2463105D02*
X2239541Y-2493344D01*
X2239541Y-2493344D02*
X2027874Y-2493344D01*
X2935017Y-2190963D02*
X2814064Y-2190963D01*
X2814064Y-2190963D02*
X2753588Y-2221201D01*
X2753588Y-2221201D02*
X2723350Y-2251439D01*
X2723350Y-2251439D02*
X2662874Y-2342153D01*
X2662874Y-2342153D02*
X2632636Y-2463105D01*
X2632636Y-2463105D02*
X2632636Y-2705010D01*
X2632636Y-2705010D02*
X2662874Y-2765486D01*
X2662874Y-2765486D02*
X2693112Y-2795725D01*
X2693112Y-2795725D02*
X2753588Y-2825963D01*
X2753588Y-2825963D02*
X2874541Y-2825963D01*
X2874541Y-2825963D02*
X2935017Y-2795725D01*
X2935017Y-2795725D02*
X2965255Y-2765486D01*
X2965255Y-2765486D02*
X2995493Y-2705010D01*
X2995493Y-2705010D02*
X2995493Y-2553820D01*
X2995493Y-2553820D02*
X2965255Y-2493344D01*
X2965255Y-2493344D02*
X2935017Y-2463105D01*
X2935017Y-2463105D02*
X2874541Y-2432867D01*
X2874541Y-2432867D02*
X2753588Y-2432867D01*
X2753588Y-2432867D02*
X2693112Y-2463105D01*
X2693112Y-2463105D02*
X2662874Y-2493344D01*
X2662874Y-2493344D02*
X2632636Y-2553820D01*
X19894744Y-61245963D02*
X19894744Y-60610963D01*
X19894744Y-60610963D02*
X20136649Y-60610963D01*
X20136649Y-60610963D02*
X20197125Y-60641201D01*
X20197125Y-60641201D02*
X20227363Y-60671439D01*
X20227363Y-60671439D02*
X20257601Y-60731915D01*
X20257601Y-60731915D02*
X20257601Y-60822629D01*
X20257601Y-60822629D02*
X20227363Y-60883105D01*
X20227363Y-60883105D02*
X20197125Y-60913344D01*
X20197125Y-60913344D02*
X20136649Y-60943582D01*
X20136649Y-60943582D02*
X19894744Y-60943582D01*
X20529744Y-61245963D02*
X20529744Y-60610963D01*
X20529744Y-60610963D02*
X20680934Y-60610963D01*
X20680934Y-60610963D02*
X20771649Y-60641201D01*
X20771649Y-60641201D02*
X20832125Y-60701677D01*
X20832125Y-60701677D02*
X20862363Y-60762153D01*
X20862363Y-60762153D02*
X20892601Y-60883105D01*
X20892601Y-60883105D02*
X20892601Y-60973820D01*
X20892601Y-60973820D02*
X20862363Y-61094772D01*
X20862363Y-61094772D02*
X20832125Y-61155248D01*
X20832125Y-61155248D02*
X20771649Y-61215725D01*
X20771649Y-61215725D02*
X20680934Y-61245963D01*
X20680934Y-61245963D02*
X20529744Y-61245963D01*
X21134506Y-60671439D02*
X21164744Y-60641201D01*
X21164744Y-60641201D02*
X21225220Y-60610963D01*
X21225220Y-60610963D02*
X21376411Y-60610963D01*
X21376411Y-60610963D02*
X21436887Y-60641201D01*
X21436887Y-60641201D02*
X21467125Y-60671439D01*
X21467125Y-60671439D02*
X21497363Y-60731915D01*
X21497363Y-60731915D02*
X21497363Y-60792391D01*
X21497363Y-60792391D02*
X21467125Y-60883105D01*
X21467125Y-60883105D02*
X21104268Y-61245963D01*
X21104268Y-61245963D02*
X21497363Y-61245963D01*
X19985458Y-30765963D02*
X19985458Y-30130963D01*
X19985458Y-30130963D02*
X20227363Y-30130963D01*
X20227363Y-30130963D02*
X20287839Y-30161201D01*
X20287839Y-30161201D02*
X20318077Y-30191439D01*
X20318077Y-30191439D02*
X20348315Y-30251915D01*
X20348315Y-30251915D02*
X20348315Y-30342629D01*
X20348315Y-30342629D02*
X20318077Y-30403105D01*
X20318077Y-30403105D02*
X20287839Y-30433344D01*
X20287839Y-30433344D02*
X20227363Y-30463582D01*
X20227363Y-30463582D02*
X19985458Y-30463582D01*
X20590220Y-30584534D02*
X20892601Y-30584534D01*
X20529744Y-30765963D02*
X20741410Y-30130963D01*
X20741410Y-30130963D02*
X20953077Y-30765963D01*
X21497363Y-30765963D02*
X21134506Y-30765963D01*
X21315934Y-30765963D02*
X21315934Y-30130963D01*
X21315934Y-30130963D02*
X21255458Y-30221677D01*
X21255458Y-30221677D02*
X21194982Y-30282153D01*
X21194982Y-30282153D02*
X21134506Y-30312391D01*
X1392874Y-40925963D02*
X1392874Y-40290963D01*
X1392874Y-40290963D02*
X1544064Y-40290963D01*
X1544064Y-40290963D02*
X1634779Y-40321201D01*
X1634779Y-40321201D02*
X1695255Y-40381677D01*
X1695255Y-40381677D02*
X1725493Y-40442153D01*
X1725493Y-40442153D02*
X1755731Y-40563105D01*
X1755731Y-40563105D02*
X1755731Y-40653820D01*
X1755731Y-40653820D02*
X1725493Y-40774772D01*
X1725493Y-40774772D02*
X1695255Y-40835248D01*
X1695255Y-40835248D02*
X1634779Y-40895725D01*
X1634779Y-40895725D02*
X1544064Y-40925963D01*
X1544064Y-40925963D02*
X1392874Y-40925963D01*
X1997636Y-40351439D02*
X2027874Y-40321201D01*
X2027874Y-40321201D02*
X2088350Y-40290963D01*
X2088350Y-40290963D02*
X2239541Y-40290963D01*
X2239541Y-40290963D02*
X2300017Y-40321201D01*
X2300017Y-40321201D02*
X2330255Y-40351439D01*
X2330255Y-40351439D02*
X2360493Y-40411915D01*
X2360493Y-40411915D02*
X2360493Y-40472391D01*
X2360493Y-40472391D02*
X2330255Y-40563105D01*
X2330255Y-40563105D02*
X1967398Y-40925963D01*
X1967398Y-40925963D02*
X2360493Y-40925963D01*
X1392874Y-43465963D02*
X1392874Y-42830963D01*
X1392874Y-42830963D02*
X1544064Y-42830963D01*
X1544064Y-42830963D02*
X1634779Y-42861201D01*
X1634779Y-42861201D02*
X1695255Y-42921677D01*
X1695255Y-42921677D02*
X1725493Y-42982153D01*
X1725493Y-42982153D02*
X1755731Y-43103105D01*
X1755731Y-43103105D02*
X1755731Y-43193820D01*
X1755731Y-43193820D02*
X1725493Y-43314772D01*
X1725493Y-43314772D02*
X1695255Y-43375248D01*
X1695255Y-43375248D02*
X1634779Y-43435725D01*
X1634779Y-43435725D02*
X1544064Y-43465963D01*
X1544064Y-43465963D02*
X1392874Y-43465963D01*
X2360493Y-43465963D02*
X1997636Y-43465963D01*
X2179064Y-43465963D02*
X2179064Y-42830963D01*
X2179064Y-42830963D02*
X2118588Y-42921677D01*
X2118588Y-42921677D02*
X2058112Y-42982153D01*
X2058112Y-42982153D02*
X1997636Y-43012391D01*
X19894744Y-51085963D02*
X19894744Y-50450963D01*
X19894744Y-50450963D02*
X20136649Y-50450963D01*
X20136649Y-50450963D02*
X20197125Y-50481201D01*
X20197125Y-50481201D02*
X20227363Y-50511439D01*
X20227363Y-50511439D02*
X20257601Y-50571915D01*
X20257601Y-50571915D02*
X20257601Y-50662629D01*
X20257601Y-50662629D02*
X20227363Y-50723105D01*
X20227363Y-50723105D02*
X20197125Y-50753344D01*
X20197125Y-50753344D02*
X20136649Y-50783582D01*
X20136649Y-50783582D02*
X19894744Y-50783582D01*
X20529744Y-51085963D02*
X20529744Y-50450963D01*
X20529744Y-50450963D02*
X20680934Y-50450963D01*
X20680934Y-50450963D02*
X20771649Y-50481201D01*
X20771649Y-50481201D02*
X20832125Y-50541677D01*
X20832125Y-50541677D02*
X20862363Y-50602153D01*
X20862363Y-50602153D02*
X20892601Y-50723105D01*
X20892601Y-50723105D02*
X20892601Y-50813820D01*
X20892601Y-50813820D02*
X20862363Y-50934772D01*
X20862363Y-50934772D02*
X20832125Y-50995248D01*
X20832125Y-50995248D02*
X20771649Y-51055725D01*
X20771649Y-51055725D02*
X20680934Y-51085963D01*
X20680934Y-51085963D02*
X20529744Y-51085963D01*
X21467125Y-50450963D02*
X21164744Y-50450963D01*
X21164744Y-50450963D02*
X21134506Y-50753344D01*
X21134506Y-50753344D02*
X21164744Y-50723105D01*
X21164744Y-50723105D02*
X21225220Y-50692867D01*
X21225220Y-50692867D02*
X21376411Y-50692867D01*
X21376411Y-50692867D02*
X21436887Y-50723105D01*
X21436887Y-50723105D02*
X21467125Y-50753344D01*
X21467125Y-50753344D02*
X21497363Y-50813820D01*
X21497363Y-50813820D02*
X21497363Y-50965010D01*
X21497363Y-50965010D02*
X21467125Y-51025486D01*
X21467125Y-51025486D02*
X21436887Y-51055725D01*
X21436887Y-51055725D02*
X21376411Y-51085963D01*
X21376411Y-51085963D02*
X21225220Y-51085963D01*
X21225220Y-51085963D02*
X21164744Y-51055725D01*
X21164744Y-51055725D02*
X21134506Y-51025486D01*
X19894744Y-285963D02*
X19894744Y349036D01*
X19894744Y349036D02*
X20136649Y349036D01*
X20136649Y349036D02*
X20197125Y318798D01*
X20197125Y318798D02*
X20227363Y288560D01*
X20227363Y288560D02*
X20257601Y228084D01*
X20257601Y228084D02*
X20257601Y137370D01*
X20257601Y137370D02*
X20227363Y76894D01*
X20227363Y76894D02*
X20197125Y46655D01*
X20197125Y46655D02*
X20136649Y16417D01*
X20136649Y16417D02*
X19894744Y16417D01*
X20741411Y46655D02*
X20832125Y16417D01*
X20832125Y16417D02*
X20862363Y-13820D01*
X20862363Y-13820D02*
X20892601Y-74296D01*
X20892601Y-74296D02*
X20892601Y-165010D01*
X20892601Y-165010D02*
X20862363Y-225486D01*
X20862363Y-225486D02*
X20832125Y-255725D01*
X20832125Y-255725D02*
X20771649Y-285963D01*
X20771649Y-285963D02*
X20529744Y-285963D01*
X20529744Y-285963D02*
X20529744Y349036D01*
X20529744Y349036D02*
X20741411Y349036D01*
X20741411Y349036D02*
X20801887Y318798D01*
X20801887Y318798D02*
X20832125Y288560D01*
X20832125Y288560D02*
X20862363Y228084D01*
X20862363Y228084D02*
X20862363Y167608D01*
X20862363Y167608D02*
X20832125Y107132D01*
X20832125Y107132D02*
X20801887Y76894D01*
X20801887Y76894D02*
X20741411Y46655D01*
X20741411Y46655D02*
X20529744Y46655D01*
X21436887Y137370D02*
X21436887Y-285963D01*
X21285696Y379275D02*
X21134506Y-74296D01*
X21134506Y-74296D02*
X21527601Y-74296D01*
X1392874Y-46005963D02*
X1392874Y-45370963D01*
X1392874Y-45370963D02*
X1544064Y-45370963D01*
X1544064Y-45370963D02*
X1634779Y-45401201D01*
X1634779Y-45401201D02*
X1695255Y-45461677D01*
X1695255Y-45461677D02*
X1725493Y-45522153D01*
X1725493Y-45522153D02*
X1755731Y-45643105D01*
X1755731Y-45643105D02*
X1755731Y-45733820D01*
X1755731Y-45733820D02*
X1725493Y-45854772D01*
X1725493Y-45854772D02*
X1695255Y-45915248D01*
X1695255Y-45915248D02*
X1634779Y-45975725D01*
X1634779Y-45975725D02*
X1544064Y-46005963D01*
X1544064Y-46005963D02*
X1392874Y-46005963D01*
X2148826Y-45370963D02*
X2209303Y-45370963D01*
X2209303Y-45370963D02*
X2269779Y-45401201D01*
X2269779Y-45401201D02*
X2300017Y-45431439D01*
X2300017Y-45431439D02*
X2330255Y-45491915D01*
X2330255Y-45491915D02*
X2360493Y-45612867D01*
X2360493Y-45612867D02*
X2360493Y-45764058D01*
X2360493Y-45764058D02*
X2330255Y-45885010D01*
X2330255Y-45885010D02*
X2300017Y-45945486D01*
X2300017Y-45945486D02*
X2269779Y-45975725D01*
X2269779Y-45975725D02*
X2209303Y-46005963D01*
X2209303Y-46005963D02*
X2148826Y-46005963D01*
X2148826Y-46005963D02*
X2088350Y-45975725D01*
X2088350Y-45975725D02*
X2058112Y-45945486D01*
X2058112Y-45945486D02*
X2027874Y-45885010D01*
X2027874Y-45885010D02*
X1997636Y-45764058D01*
X1997636Y-45764058D02*
X1997636Y-45612867D01*
X1997636Y-45612867D02*
X2027874Y-45491915D01*
X2027874Y-45491915D02*
X2058112Y-45431439D01*
X2058112Y-45431439D02*
X2088350Y-45401201D01*
X2088350Y-45401201D02*
X2148826Y-45370963D01*
X20257601Y-40865486D02*
X20227363Y-40895725D01*
X20227363Y-40895725D02*
X20136649Y-40925963D01*
X20136649Y-40925963D02*
X20076173Y-40925963D01*
X20076173Y-40925963D02*
X19985458Y-40895725D01*
X19985458Y-40895725D02*
X19924982Y-40835248D01*
X19924982Y-40835248D02*
X19894744Y-40774772D01*
X19894744Y-40774772D02*
X19864506Y-40653820D01*
X19864506Y-40653820D02*
X19864506Y-40563105D01*
X19864506Y-40563105D02*
X19894744Y-40442153D01*
X19894744Y-40442153D02*
X19924982Y-40381677D01*
X19924982Y-40381677D02*
X19985458Y-40321201D01*
X19985458Y-40321201D02*
X20076173Y-40290963D01*
X20076173Y-40290963D02*
X20136649Y-40290963D01*
X20136649Y-40290963D02*
X20227363Y-40321201D01*
X20227363Y-40321201D02*
X20257601Y-40351439D01*
X20529744Y-40925963D02*
X20529744Y-40290963D01*
X20529744Y-40290963D02*
X20680934Y-40290963D01*
X20680934Y-40290963D02*
X20771649Y-40321201D01*
X20771649Y-40321201D02*
X20832125Y-40381677D01*
X20832125Y-40381677D02*
X20862363Y-40442153D01*
X20862363Y-40442153D02*
X20892601Y-40563105D01*
X20892601Y-40563105D02*
X20892601Y-40653820D01*
X20892601Y-40653820D02*
X20862363Y-40774772D01*
X20862363Y-40774772D02*
X20832125Y-40835248D01*
X20832125Y-40835248D02*
X20771649Y-40895725D01*
X20771649Y-40895725D02*
X20680934Y-40925963D01*
X20680934Y-40925963D02*
X20529744Y-40925963D01*
X21134506Y-40351439D02*
X21164744Y-40321201D01*
X21164744Y-40321201D02*
X21225220Y-40290963D01*
X21225220Y-40290963D02*
X21376411Y-40290963D01*
X21376411Y-40290963D02*
X21436887Y-40321201D01*
X21436887Y-40321201D02*
X21467125Y-40351439D01*
X21467125Y-40351439D02*
X21497363Y-40411915D01*
X21497363Y-40411915D02*
X21497363Y-40472391D01*
X21497363Y-40472391D02*
X21467125Y-40563105D01*
X21467125Y-40563105D02*
X21104268Y-40925963D01*
X21104268Y-40925963D02*
X21497363Y-40925963D01*
X19894744Y-68865963D02*
X19894744Y-68230963D01*
X19894744Y-68230963D02*
X20136649Y-68230963D01*
X20136649Y-68230963D02*
X20197125Y-68261201D01*
X20197125Y-68261201D02*
X20227363Y-68291439D01*
X20227363Y-68291439D02*
X20257601Y-68351915D01*
X20257601Y-68351915D02*
X20257601Y-68442629D01*
X20257601Y-68442629D02*
X20227363Y-68503105D01*
X20227363Y-68503105D02*
X20197125Y-68533344D01*
X20197125Y-68533344D02*
X20136649Y-68563582D01*
X20136649Y-68563582D02*
X19894744Y-68563582D01*
X20892601Y-68805486D02*
X20862363Y-68835725D01*
X20862363Y-68835725D02*
X20771649Y-68865963D01*
X20771649Y-68865963D02*
X20711173Y-68865963D01*
X20711173Y-68865963D02*
X20620458Y-68835725D01*
X20620458Y-68835725D02*
X20559982Y-68775248D01*
X20559982Y-68775248D02*
X20529744Y-68714772D01*
X20529744Y-68714772D02*
X20499506Y-68593820D01*
X20499506Y-68593820D02*
X20499506Y-68503105D01*
X20499506Y-68503105D02*
X20529744Y-68382153D01*
X20529744Y-68382153D02*
X20559982Y-68321677D01*
X20559982Y-68321677D02*
X20620458Y-68261201D01*
X20620458Y-68261201D02*
X20711173Y-68230963D01*
X20711173Y-68230963D02*
X20771649Y-68230963D01*
X20771649Y-68230963D02*
X20862363Y-68261201D01*
X20862363Y-68261201D02*
X20892601Y-68291439D01*
X21104268Y-68230963D02*
X21527601Y-68230963D01*
X21527601Y-68230963D02*
X21255458Y-68865963D01*
X19985458Y-18065963D02*
X19985458Y-17430963D01*
X19985458Y-17430963D02*
X20227363Y-17430963D01*
X20227363Y-17430963D02*
X20287839Y-17461201D01*
X20287839Y-17461201D02*
X20318077Y-17491439D01*
X20318077Y-17491439D02*
X20348315Y-17551915D01*
X20348315Y-17551915D02*
X20348315Y-17642629D01*
X20348315Y-17642629D02*
X20318077Y-17703105D01*
X20318077Y-17703105D02*
X20287839Y-17733344D01*
X20287839Y-17733344D02*
X20227363Y-17763582D01*
X20227363Y-17763582D02*
X19985458Y-17763582D01*
X20590220Y-17884534D02*
X20892601Y-17884534D01*
X20529744Y-18065963D02*
X20741410Y-17430963D01*
X20741410Y-17430963D02*
X20953077Y-18065963D01*
X21467125Y-17430963D02*
X21164744Y-17430963D01*
X21164744Y-17430963D02*
X21134506Y-17733344D01*
X21134506Y-17733344D02*
X21164744Y-17703105D01*
X21164744Y-17703105D02*
X21225220Y-17672867D01*
X21225220Y-17672867D02*
X21376411Y-17672867D01*
X21376411Y-17672867D02*
X21436887Y-17703105D01*
X21436887Y-17703105D02*
X21467125Y-17733344D01*
X21467125Y-17733344D02*
X21497363Y-17793820D01*
X21497363Y-17793820D02*
X21497363Y-17945010D01*
X21497363Y-17945010D02*
X21467125Y-18005486D01*
X21467125Y-18005486D02*
X21436887Y-18035725D01*
X21436887Y-18035725D02*
X21376411Y-18065963D01*
X21376411Y-18065963D02*
X21225220Y-18065963D01*
X21225220Y-18065963D02*
X21164744Y-18035725D01*
X21164744Y-18035725D02*
X21134506Y-18005486D01*
X20021744Y-53625963D02*
X20021744Y-52990963D01*
X20021744Y-52990963D02*
X20263649Y-52990963D01*
X20263649Y-52990963D02*
X20324125Y-53021201D01*
X20324125Y-53021201D02*
X20354363Y-53051439D01*
X20354363Y-53051439D02*
X20384601Y-53111915D01*
X20384601Y-53111915D02*
X20384601Y-53202629D01*
X20384601Y-53202629D02*
X20354363Y-53263105D01*
X20354363Y-53263105D02*
X20324125Y-53293344D01*
X20324125Y-53293344D02*
X20263649Y-53323582D01*
X20263649Y-53323582D02*
X20021744Y-53323582D01*
X20656744Y-53625963D02*
X20656744Y-52990963D01*
X20656744Y-52990963D02*
X20807934Y-52990963D01*
X20807934Y-52990963D02*
X20898649Y-53021201D01*
X20898649Y-53021201D02*
X20959125Y-53081677D01*
X20959125Y-53081677D02*
X20989363Y-53142153D01*
X20989363Y-53142153D02*
X21019601Y-53263105D01*
X21019601Y-53263105D02*
X21019601Y-53353820D01*
X21019601Y-53353820D02*
X20989363Y-53474772D01*
X20989363Y-53474772D02*
X20959125Y-53535248D01*
X20959125Y-53535248D02*
X20898649Y-53595725D01*
X20898649Y-53595725D02*
X20807934Y-53625963D01*
X20807934Y-53625963D02*
X20656744Y-53625963D01*
X21563887Y-53202629D02*
X21563887Y-53625963D01*
X21412696Y-52960725D02*
X21261506Y-53414296D01*
X21261506Y-53414296D02*
X21654601Y-53414296D01*
X1392874Y-5365963D02*
X1392874Y-4730963D01*
X2058112Y-5365963D02*
X1846445Y-5063582D01*
X1695255Y-5365963D02*
X1695255Y-4730963D01*
X1695255Y-4730963D02*
X1937160Y-4730963D01*
X1937160Y-4730963D02*
X1997636Y-4761201D01*
X1997636Y-4761201D02*
X2027874Y-4791439D01*
X2027874Y-4791439D02*
X2058112Y-4851915D01*
X2058112Y-4851915D02*
X2058112Y-4942629D01*
X2058112Y-4942629D02*
X2027874Y-5003105D01*
X2027874Y-5003105D02*
X1997636Y-5033344D01*
X1997636Y-5033344D02*
X1937160Y-5063582D01*
X1937160Y-5063582D02*
X1695255Y-5063582D01*
X2753588Y-5426439D02*
X2693112Y-5396201D01*
X2693112Y-5396201D02*
X2632636Y-5335725D01*
X2632636Y-5335725D02*
X2541922Y-5245010D01*
X2541922Y-5245010D02*
X2481445Y-5214772D01*
X2481445Y-5214772D02*
X2420969Y-5214772D01*
X2451207Y-5365963D02*
X2390731Y-5335725D01*
X2390731Y-5335725D02*
X2330255Y-5275248D01*
X2330255Y-5275248D02*
X2300017Y-5154296D01*
X2300017Y-5154296D02*
X2300017Y-4942629D01*
X2300017Y-4942629D02*
X2330255Y-4821677D01*
X2330255Y-4821677D02*
X2390731Y-4761201D01*
X2390731Y-4761201D02*
X2451207Y-4730963D01*
X2451207Y-4730963D02*
X2572160Y-4730963D01*
X2572160Y-4730963D02*
X2632636Y-4761201D01*
X2632636Y-4761201D02*
X2693112Y-4821677D01*
X2693112Y-4821677D02*
X2723350Y-4942629D01*
X2723350Y-4942629D02*
X2723350Y-5154296D01*
X2723350Y-5154296D02*
X2693112Y-5275248D01*
X2693112Y-5275248D02*
X2632636Y-5335725D01*
X2632636Y-5335725D02*
X2572160Y-5365963D01*
X2572160Y-5365963D02*
X2451207Y-5365963D01*
X1305184Y-4554675D02*
X2780803Y-4554675D01*
X2941064Y-5290972D02*
X3182969Y-5290972D01*
X2892683Y-5436115D02*
X3062017Y-4928115D01*
X3062017Y-4928115D02*
X3231350Y-5436115D01*
X3570017Y-5170020D02*
X3642589Y-5194210D01*
X3642589Y-5194210D02*
X3666779Y-5218401D01*
X3666779Y-5218401D02*
X3690970Y-5266782D01*
X3690970Y-5266782D02*
X3690970Y-5339353D01*
X3690970Y-5339353D02*
X3666779Y-5387734D01*
X3666779Y-5387734D02*
X3642589Y-5411925D01*
X3642589Y-5411925D02*
X3594208Y-5436115D01*
X3594208Y-5436115D02*
X3400684Y-5436115D01*
X3400684Y-5436115D02*
X3400684Y-4928115D01*
X3400684Y-4928115D02*
X3570017Y-4928115D01*
X3570017Y-4928115D02*
X3618398Y-4952305D01*
X3618398Y-4952305D02*
X3642589Y-4976496D01*
X3642589Y-4976496D02*
X3666779Y-5024877D01*
X3666779Y-5024877D02*
X3666779Y-5073258D01*
X3666779Y-5073258D02*
X3642589Y-5121639D01*
X3642589Y-5121639D02*
X3618398Y-5145829D01*
X3618398Y-5145829D02*
X3570017Y-5170020D01*
X3570017Y-5170020D02*
X3400684Y-5170020D01*
X19985458Y-12985963D02*
X19985458Y-12350963D01*
X19985458Y-12350963D02*
X20227363Y-12350963D01*
X20227363Y-12350963D02*
X20287839Y-12381201D01*
X20287839Y-12381201D02*
X20318077Y-12411439D01*
X20318077Y-12411439D02*
X20348315Y-12471915D01*
X20348315Y-12471915D02*
X20348315Y-12562629D01*
X20348315Y-12562629D02*
X20318077Y-12623105D01*
X20318077Y-12623105D02*
X20287839Y-12653344D01*
X20287839Y-12653344D02*
X20227363Y-12683582D01*
X20227363Y-12683582D02*
X19985458Y-12683582D01*
X20590220Y-12804534D02*
X20892601Y-12804534D01*
X20529744Y-12985963D02*
X20741410Y-12350963D01*
X20741410Y-12350963D02*
X20953077Y-12985963D01*
X21104268Y-12350963D02*
X21527601Y-12350963D01*
X21527601Y-12350963D02*
X21255458Y-12985963D01*
X1392874Y-18065963D02*
X1392874Y-17430963D01*
X1392874Y-17430963D02*
X1634779Y-17430963D01*
X1634779Y-17430963D02*
X1695255Y-17461201D01*
X1695255Y-17461201D02*
X1725493Y-17491439D01*
X1725493Y-17491439D02*
X1755731Y-17551915D01*
X1755731Y-17551915D02*
X1755731Y-17642629D01*
X1755731Y-17642629D02*
X1725493Y-17703105D01*
X1725493Y-17703105D02*
X1695255Y-17733344D01*
X1695255Y-17733344D02*
X1634779Y-17763582D01*
X1634779Y-17763582D02*
X1392874Y-17763582D01*
X2027874Y-18065963D02*
X2027874Y-17430963D01*
X2027874Y-17733344D02*
X2390731Y-17733344D01*
X2390731Y-18065963D02*
X2390731Y-17430963D01*
X2693112Y-18065963D02*
X2693112Y-17430963D01*
X2965255Y-17491439D02*
X2995493Y-17461201D01*
X2995493Y-17461201D02*
X3055969Y-17430963D01*
X3055969Y-17430963D02*
X3207160Y-17430963D01*
X3207160Y-17430963D02*
X3267636Y-17461201D01*
X3267636Y-17461201D02*
X3297874Y-17491439D01*
X3297874Y-17491439D02*
X3328112Y-17551915D01*
X3328112Y-17551915D02*
X3328112Y-17612391D01*
X3328112Y-17612391D02*
X3297874Y-17703105D01*
X3297874Y-17703105D02*
X2935017Y-18065963D01*
X2935017Y-18065963D02*
X3328112Y-18065963D01*
X1392874Y-38385963D02*
X1392874Y-37750963D01*
X1392874Y-37750963D02*
X1544064Y-37750963D01*
X1544064Y-37750963D02*
X1634779Y-37781201D01*
X1634779Y-37781201D02*
X1695255Y-37841677D01*
X1695255Y-37841677D02*
X1725493Y-37902153D01*
X1725493Y-37902153D02*
X1755731Y-38023105D01*
X1755731Y-38023105D02*
X1755731Y-38113820D01*
X1755731Y-38113820D02*
X1725493Y-38234772D01*
X1725493Y-38234772D02*
X1695255Y-38295248D01*
X1695255Y-38295248D02*
X1634779Y-38355725D01*
X1634779Y-38355725D02*
X1544064Y-38385963D01*
X1544064Y-38385963D02*
X1392874Y-38385963D01*
X1967398Y-37750963D02*
X2360493Y-37750963D01*
X2360493Y-37750963D02*
X2148826Y-37992867D01*
X2148826Y-37992867D02*
X2239541Y-37992867D01*
X2239541Y-37992867D02*
X2300017Y-38023105D01*
X2300017Y-38023105D02*
X2330255Y-38053344D01*
X2330255Y-38053344D02*
X2360493Y-38113820D01*
X2360493Y-38113820D02*
X2360493Y-38265010D01*
X2360493Y-38265010D02*
X2330255Y-38325486D01*
X2330255Y-38325486D02*
X2300017Y-38355725D01*
X2300017Y-38355725D02*
X2239541Y-38385963D01*
X2239541Y-38385963D02*
X2058112Y-38385963D01*
X2058112Y-38385963D02*
X1997636Y-38355725D01*
X1997636Y-38355725D02*
X1967398Y-38325486D01*
X1392874Y-79025963D02*
X1392874Y-78390963D01*
X1392874Y-78390963D02*
X1634779Y-78390963D01*
X1634779Y-78390963D02*
X1695255Y-78421201D01*
X1695255Y-78421201D02*
X1725493Y-78451439D01*
X1725493Y-78451439D02*
X1755731Y-78511915D01*
X1755731Y-78511915D02*
X1755731Y-78602629D01*
X1755731Y-78602629D02*
X1725493Y-78663105D01*
X1725493Y-78663105D02*
X1695255Y-78693344D01*
X1695255Y-78693344D02*
X1634779Y-78723582D01*
X1634779Y-78723582D02*
X1392874Y-78723582D01*
X2390731Y-78965486D02*
X2360493Y-78995725D01*
X2360493Y-78995725D02*
X2269779Y-79025963D01*
X2269779Y-79025963D02*
X2209303Y-79025963D01*
X2209303Y-79025963D02*
X2118588Y-78995725D01*
X2118588Y-78995725D02*
X2058112Y-78935248D01*
X2058112Y-78935248D02*
X2027874Y-78874772D01*
X2027874Y-78874772D02*
X1997636Y-78753820D01*
X1997636Y-78753820D02*
X1997636Y-78663105D01*
X1997636Y-78663105D02*
X2027874Y-78542153D01*
X2027874Y-78542153D02*
X2058112Y-78481677D01*
X2058112Y-78481677D02*
X2118588Y-78421201D01*
X2118588Y-78421201D02*
X2209303Y-78390963D01*
X2209303Y-78390963D02*
X2269779Y-78390963D01*
X2269779Y-78390963D02*
X2360493Y-78421201D01*
X2360493Y-78421201D02*
X2390731Y-78451439D01*
X2602398Y-78390963D02*
X2995493Y-78390963D01*
X2995493Y-78390963D02*
X2783826Y-78632867D01*
X2783826Y-78632867D02*
X2874541Y-78632867D01*
X2874541Y-78632867D02*
X2935017Y-78663105D01*
X2935017Y-78663105D02*
X2965255Y-78693344D01*
X2965255Y-78693344D02*
X2995493Y-78753820D01*
X2995493Y-78753820D02*
X2995493Y-78905010D01*
X2995493Y-78905010D02*
X2965255Y-78965486D01*
X2965255Y-78965486D02*
X2935017Y-78995725D01*
X2935017Y-78995725D02*
X2874541Y-79025963D01*
X2874541Y-79025963D02*
X2693112Y-79025963D01*
X2693112Y-79025963D02*
X2632636Y-78995725D01*
X2632636Y-78995725D02*
X2602398Y-78965486D01*
X19894744Y-5365963D02*
X19894744Y-4730963D01*
X19894744Y-4730963D02*
X20136649Y-4730963D01*
X20136649Y-4730963D02*
X20197125Y-4761201D01*
X20197125Y-4761201D02*
X20227363Y-4791439D01*
X20227363Y-4791439D02*
X20257601Y-4851915D01*
X20257601Y-4851915D02*
X20257601Y-4942629D01*
X20257601Y-4942629D02*
X20227363Y-5003105D01*
X20227363Y-5003105D02*
X20197125Y-5033344D01*
X20197125Y-5033344D02*
X20136649Y-5063582D01*
X20136649Y-5063582D02*
X19894744Y-5063582D01*
X20741411Y-5033344D02*
X20832125Y-5063582D01*
X20832125Y-5063582D02*
X20862363Y-5093820D01*
X20862363Y-5093820D02*
X20892601Y-5154296D01*
X20892601Y-5154296D02*
X20892601Y-5245010D01*
X20892601Y-5245010D02*
X20862363Y-5305486D01*
X20862363Y-5305486D02*
X20832125Y-5335725D01*
X20832125Y-5335725D02*
X20771649Y-5365963D01*
X20771649Y-5365963D02*
X20529744Y-5365963D01*
X20529744Y-5365963D02*
X20529744Y-4730963D01*
X20529744Y-4730963D02*
X20741411Y-4730963D01*
X20741411Y-4730963D02*
X20801887Y-4761201D01*
X20801887Y-4761201D02*
X20832125Y-4791439D01*
X20832125Y-4791439D02*
X20862363Y-4851915D01*
X20862363Y-4851915D02*
X20862363Y-4912391D01*
X20862363Y-4912391D02*
X20832125Y-4972867D01*
X20832125Y-4972867D02*
X20801887Y-5003105D01*
X20801887Y-5003105D02*
X20741411Y-5033344D01*
X20741411Y-5033344D02*
X20529744Y-5033344D01*
X21134506Y-4791439D02*
X21164744Y-4761201D01*
X21164744Y-4761201D02*
X21225220Y-4730963D01*
X21225220Y-4730963D02*
X21376411Y-4730963D01*
X21376411Y-4730963D02*
X21436887Y-4761201D01*
X21436887Y-4761201D02*
X21467125Y-4791439D01*
X21467125Y-4791439D02*
X21497363Y-4851915D01*
X21497363Y-4851915D02*
X21497363Y-4912391D01*
X21497363Y-4912391D02*
X21467125Y-5003105D01*
X21467125Y-5003105D02*
X21104268Y-5365963D01*
X21104268Y-5365963D02*
X21497363Y-5365963D01*
X19894744Y-76485963D02*
X19894744Y-75850963D01*
X19894744Y-75850963D02*
X20136649Y-75850963D01*
X20136649Y-75850963D02*
X20197125Y-75881201D01*
X20197125Y-75881201D02*
X20227363Y-75911439D01*
X20227363Y-75911439D02*
X20257601Y-75971915D01*
X20257601Y-75971915D02*
X20257601Y-76062629D01*
X20257601Y-76062629D02*
X20227363Y-76123105D01*
X20227363Y-76123105D02*
X20197125Y-76153344D01*
X20197125Y-76153344D02*
X20136649Y-76183582D01*
X20136649Y-76183582D02*
X19894744Y-76183582D01*
X20892601Y-76425486D02*
X20862363Y-76455725D01*
X20862363Y-76455725D02*
X20771649Y-76485963D01*
X20771649Y-76485963D02*
X20711173Y-76485963D01*
X20711173Y-76485963D02*
X20620458Y-76455725D01*
X20620458Y-76455725D02*
X20559982Y-76395248D01*
X20559982Y-76395248D02*
X20529744Y-76334772D01*
X20529744Y-76334772D02*
X20499506Y-76213820D01*
X20499506Y-76213820D02*
X20499506Y-76123105D01*
X20499506Y-76123105D02*
X20529744Y-76002153D01*
X20529744Y-76002153D02*
X20559982Y-75941677D01*
X20559982Y-75941677D02*
X20620458Y-75881201D01*
X20620458Y-75881201D02*
X20711173Y-75850963D01*
X20711173Y-75850963D02*
X20771649Y-75850963D01*
X20771649Y-75850963D02*
X20862363Y-75881201D01*
X20862363Y-75881201D02*
X20892601Y-75911439D01*
X21467125Y-75850963D02*
X21164744Y-75850963D01*
X21164744Y-75850963D02*
X21134506Y-76153344D01*
X21134506Y-76153344D02*
X21164744Y-76123105D01*
X21164744Y-76123105D02*
X21225220Y-76092867D01*
X21225220Y-76092867D02*
X21376411Y-76092867D01*
X21376411Y-76092867D02*
X21436887Y-76123105D01*
X21436887Y-76123105D02*
X21467125Y-76153344D01*
X21467125Y-76153344D02*
X21497363Y-76213820D01*
X21497363Y-76213820D02*
X21497363Y-76365010D01*
X21497363Y-76365010D02*
X21467125Y-76425486D01*
X21467125Y-76425486D02*
X21436887Y-76455725D01*
X21436887Y-76455725D02*
X21376411Y-76485963D01*
X21376411Y-76485963D02*
X21225220Y-76485963D01*
X21225220Y-76485963D02*
X21164744Y-76455725D01*
X21164744Y-76455725D02*
X21134506Y-76425486D01*
X16267427Y-51562928D02*
X16716440Y-51113915D01*
X16780585Y-51990559D02*
X16737822Y-51990559D01*
X16737822Y-51990559D02*
X16652295Y-51947796D01*
X16652295Y-51947796D02*
X16609532Y-51905033D01*
X16609532Y-51905033D02*
X16566769Y-51819507D01*
X16566769Y-51819507D02*
X16566769Y-51733981D01*
X16566769Y-51733981D02*
X16588151Y-51669836D01*
X16588151Y-51669836D02*
X16652295Y-51562928D01*
X16652295Y-51562928D02*
X16716440Y-51498784D01*
X16716440Y-51498784D02*
X16823348Y-51434639D01*
X16823348Y-51434639D02*
X16887493Y-51413257D01*
X16887493Y-51413257D02*
X16973019Y-51413257D01*
X16973019Y-51413257D02*
X17058545Y-51456020D01*
X17058545Y-51456020D02*
X17101308Y-51498784D01*
X17101308Y-51498784D02*
X17144071Y-51584310D01*
X17144071Y-51584310D02*
X17144071Y-51627073D01*
X17315124Y-51798125D02*
X17357887Y-51798125D01*
X17357887Y-51798125D02*
X17422032Y-51819507D01*
X17422032Y-51819507D02*
X17528940Y-51926415D01*
X17528940Y-51926415D02*
X17550321Y-51990559D01*
X17550321Y-51990559D02*
X17550321Y-52033323D01*
X17550321Y-52033323D02*
X17528940Y-52097467D01*
X17528940Y-52097467D02*
X17486176Y-52140230D01*
X17486176Y-52140230D02*
X17400650Y-52182994D01*
X17400650Y-52182994D02*
X16887493Y-52182994D01*
X16887493Y-52182994D02*
X17165453Y-52460954D01*
X4623028Y-61111933D02*
X4280923Y-61667854D01*
X4280923Y-61667854D02*
X4687173Y-61432657D01*
X4687173Y-61432657D02*
X4451976Y-61838907D01*
X4451976Y-61838907D02*
X5007896Y-61496802D01*
X5371383Y-61860288D02*
X5285856Y-61774762D01*
X5285856Y-61774762D02*
X5221712Y-61753380D01*
X5221712Y-61753380D02*
X5178949Y-61753380D01*
X5178949Y-61753380D02*
X5072041Y-61774762D01*
X5072041Y-61774762D02*
X4965133Y-61838906D01*
X4965133Y-61838906D02*
X4794081Y-62009959D01*
X4794081Y-62009959D02*
X4772699Y-62074104D01*
X4772699Y-62074104D02*
X4772699Y-62116867D01*
X4772699Y-62116867D02*
X4794081Y-62181011D01*
X4794081Y-62181011D02*
X4879607Y-62266538D01*
X4879607Y-62266538D02*
X4943751Y-62287919D01*
X4943751Y-62287919D02*
X4986515Y-62287919D01*
X4986515Y-62287919D02*
X5050659Y-62266538D01*
X5050659Y-62266538D02*
X5157567Y-62159630D01*
X5157567Y-62159630D02*
X5178949Y-62095485D01*
X5178949Y-62095485D02*
X5178949Y-62052722D01*
X5178949Y-62052722D02*
X5157567Y-61988577D01*
X5157567Y-61988577D02*
X5072041Y-61903051D01*
X5072041Y-61903051D02*
X5007896Y-61881670D01*
X5007896Y-61881670D02*
X4965133Y-61881670D01*
X4965133Y-61881670D02*
X4900988Y-61903051D01*
X5820396Y-62309301D02*
X5606580Y-62095485D01*
X5606580Y-62095485D02*
X5371383Y-62287919D01*
X5371383Y-62287919D02*
X5414146Y-62287919D01*
X5414146Y-62287919D02*
X5478291Y-62309301D01*
X5478291Y-62309301D02*
X5585198Y-62416209D01*
X5585198Y-62416209D02*
X5606580Y-62480353D01*
X5606580Y-62480353D02*
X5606580Y-62523116D01*
X5606580Y-62523116D02*
X5585198Y-62587261D01*
X5585198Y-62587261D02*
X5478291Y-62694169D01*
X5478291Y-62694169D02*
X5414146Y-62715551D01*
X5414146Y-62715551D02*
X5371383Y-62715551D01*
X5371383Y-62715551D02*
X5307238Y-62694169D01*
X5307238Y-62694169D02*
X5200330Y-62587261D01*
X5200330Y-62587261D02*
X5178949Y-62523116D01*
X5178949Y-62523116D02*
X5178949Y-62480353D01*
X5884540Y-63185945D02*
X5841777Y-63185945D01*
X5841777Y-63185945D02*
X5756251Y-63143182D01*
X5756251Y-63143182D02*
X5713488Y-63100419D01*
X5713488Y-63100419D02*
X5670725Y-63014892D01*
X5670725Y-63014892D02*
X5670725Y-62929366D01*
X5670725Y-62929366D02*
X5692106Y-62865222D01*
X5692106Y-62865222D02*
X5756251Y-62758314D01*
X5756251Y-62758314D02*
X5820396Y-62694169D01*
X5820396Y-62694169D02*
X5927303Y-62630024D01*
X5927303Y-62630024D02*
X5991448Y-62608643D01*
X5991448Y-62608643D02*
X6076974Y-62608643D01*
X6076974Y-62608643D02*
X6162501Y-62651406D01*
X6162501Y-62651406D02*
X6205264Y-62694169D01*
X6205264Y-62694169D02*
X6248027Y-62779695D01*
X6248027Y-62779695D02*
X6248027Y-62822458D01*
X6419079Y-62993511D02*
X6461843Y-62993511D01*
X6461843Y-62993511D02*
X6525987Y-63014892D01*
X6525987Y-63014892D02*
X6632895Y-63121800D01*
X6632895Y-63121800D02*
X6654277Y-63185945D01*
X6654277Y-63185945D02*
X6654277Y-63228708D01*
X6654277Y-63228708D02*
X6632895Y-63292853D01*
X6632895Y-63292853D02*
X6590132Y-63335616D01*
X6590132Y-63335616D02*
X6504606Y-63378379D01*
X6504606Y-63378379D02*
X5991448Y-63378379D01*
X5991448Y-63378379D02*
X6269408Y-63656339D01*
X6846711Y-63421142D02*
X6889474Y-63421142D01*
X6889474Y-63421142D02*
X6953619Y-63442524D01*
X6953619Y-63442524D02*
X7060526Y-63549432D01*
X7060526Y-63549432D02*
X7081908Y-63613576D01*
X7081908Y-63613576D02*
X7081908Y-63656339D01*
X7081908Y-63656339D02*
X7060526Y-63720484D01*
X7060526Y-63720484D02*
X7017763Y-63763247D01*
X7017763Y-63763247D02*
X6932237Y-63806010D01*
X6932237Y-63806010D02*
X6419079Y-63806010D01*
X6419079Y-63806010D02*
X6697040Y-64083971D01*
X6889474Y-64233642D02*
X6932237Y-64319168D01*
X6932237Y-64319168D02*
X7039145Y-64426076D01*
X7039145Y-64426076D02*
X7103290Y-64447457D01*
X7103290Y-64447457D02*
X7146053Y-64447457D01*
X7146053Y-64447457D02*
X7210197Y-64426076D01*
X7210197Y-64426076D02*
X7252960Y-64383313D01*
X7252960Y-64383313D02*
X7274342Y-64319168D01*
X7274342Y-64319168D02*
X7274342Y-64276405D01*
X7274342Y-64276405D02*
X7252960Y-64212260D01*
X7252960Y-64212260D02*
X7188816Y-64105352D01*
X7188816Y-64105352D02*
X7167434Y-64041208D01*
X7167434Y-64041208D02*
X7167434Y-63998444D01*
X7167434Y-63998444D02*
X7188816Y-63934300D01*
X7188816Y-63934300D02*
X7231579Y-63891537D01*
X7231579Y-63891537D02*
X7295724Y-63870155D01*
X7295724Y-63870155D02*
X7338487Y-63870155D01*
X7338487Y-63870155D02*
X7402631Y-63891537D01*
X7402631Y-63891537D02*
X7509539Y-63998444D01*
X7509539Y-63998444D02*
X7552302Y-64083971D01*
X16885166Y-77230486D02*
X16854928Y-77260725D01*
X16854928Y-77260725D02*
X16764214Y-77290963D01*
X16764214Y-77290963D02*
X16703738Y-77290963D01*
X16703738Y-77290963D02*
X16613023Y-77260725D01*
X16613023Y-77260725D02*
X16552547Y-77200248D01*
X16552547Y-77200248D02*
X16522309Y-77139772D01*
X16522309Y-77139772D02*
X16492071Y-77018820D01*
X16492071Y-77018820D02*
X16492071Y-76928105D01*
X16492071Y-76928105D02*
X16522309Y-76807153D01*
X16522309Y-76807153D02*
X16552547Y-76746677D01*
X16552547Y-76746677D02*
X16613023Y-76686201D01*
X16613023Y-76686201D02*
X16703738Y-76655963D01*
X16703738Y-76655963D02*
X16764214Y-76655963D01*
X16764214Y-76655963D02*
X16854928Y-76686201D01*
X16854928Y-76686201D02*
X16885166Y-76716439D01*
X17459690Y-76655963D02*
X17157309Y-76655963D01*
X17157309Y-76655963D02*
X17127071Y-76958344D01*
X17127071Y-76958344D02*
X17157309Y-76928105D01*
X17157309Y-76928105D02*
X17217785Y-76897867D01*
X17217785Y-76897867D02*
X17368976Y-76897867D01*
X17368976Y-76897867D02*
X17429452Y-76928105D01*
X17429452Y-76928105D02*
X17459690Y-76958344D01*
X17459690Y-76958344D02*
X17489928Y-77018820D01*
X17489928Y-77018820D02*
X17489928Y-77170010D01*
X17489928Y-77170010D02*
X17459690Y-77230486D01*
X17459690Y-77230486D02*
X17429452Y-77260725D01*
X17429452Y-77260725D02*
X17368976Y-77290963D01*
X17368976Y-77290963D02*
X17217785Y-77290963D01*
X17217785Y-77290963D02*
X17157309Y-77260725D01*
X17157309Y-77260725D02*
X17127071Y-77230486D01*
X16292285Y-73183963D02*
X15929428Y-73183963D01*
X16110856Y-73183963D02*
X16110856Y-72548963D01*
X16110856Y-72548963D02*
X16050380Y-72639677D01*
X16050380Y-72639677D02*
X15989904Y-72700153D01*
X15989904Y-72700153D02*
X15929428Y-72730391D01*
X16685380Y-72548963D02*
X16745857Y-72548963D01*
X16745857Y-72548963D02*
X16806333Y-72579201D01*
X16806333Y-72579201D02*
X16836571Y-72609439D01*
X16836571Y-72609439D02*
X16866809Y-72669915D01*
X16866809Y-72669915D02*
X16897047Y-72790867D01*
X16897047Y-72790867D02*
X16897047Y-72942058D01*
X16897047Y-72942058D02*
X16866809Y-73063010D01*
X16866809Y-73063010D02*
X16836571Y-73123486D01*
X16836571Y-73123486D02*
X16806333Y-73153725D01*
X16806333Y-73153725D02*
X16745857Y-73183963D01*
X16745857Y-73183963D02*
X16685380Y-73183963D01*
X16685380Y-73183963D02*
X16624904Y-73153725D01*
X16624904Y-73153725D02*
X16594666Y-73123486D01*
X16594666Y-73123486D02*
X16564428Y-73063010D01*
X16564428Y-73063010D02*
X16534190Y-72942058D01*
X16534190Y-72942058D02*
X16534190Y-72790867D01*
X16534190Y-72790867D02*
X16564428Y-72669915D01*
X16564428Y-72669915D02*
X16594666Y-72609439D01*
X16594666Y-72609439D02*
X16624904Y-72579201D01*
X16624904Y-72579201D02*
X16685380Y-72548963D01*
X17169190Y-72760629D02*
X17169190Y-73395629D01*
X17471571Y-73093248D02*
X17501809Y-73153725D01*
X17501809Y-73153725D02*
X17562285Y-73183963D01*
X17169190Y-73093248D02*
X17199428Y-73153725D01*
X17199428Y-73153725D02*
X17259904Y-73183963D01*
X17259904Y-73183963D02*
X17380857Y-73183963D01*
X17380857Y-73183963D02*
X17441333Y-73153725D01*
X17441333Y-73153725D02*
X17471571Y-73093248D01*
X17471571Y-73093248D02*
X17471571Y-72760629D01*
X18046095Y-72851344D02*
X17834428Y-72851344D01*
X17834428Y-73183963D02*
X17834428Y-72548963D01*
X17834428Y-72548963D02*
X18136809Y-72548963D01*
X5715928Y-16752572D02*
X5266915Y-16303559D01*
X6143559Y-16239414D02*
X6143559Y-16282177D01*
X6143559Y-16282177D02*
X6100796Y-16367704D01*
X6100796Y-16367704D02*
X6058033Y-16410467D01*
X6058033Y-16410467D02*
X5972507Y-16453230D01*
X5972507Y-16453230D02*
X5886981Y-16453230D01*
X5886981Y-16453230D02*
X5822836Y-16431848D01*
X5822836Y-16431848D02*
X5715928Y-16367704D01*
X5715928Y-16367704D02*
X5651784Y-16303559D01*
X5651784Y-16303559D02*
X5587639Y-16196651D01*
X5587639Y-16196651D02*
X5566257Y-16132506D01*
X5566257Y-16132506D02*
X5566257Y-16046980D01*
X5566257Y-16046980D02*
X5609020Y-15961454D01*
X5609020Y-15961454D02*
X5651784Y-15918691D01*
X5651784Y-15918691D02*
X5737310Y-15875928D01*
X5737310Y-15875928D02*
X5780073Y-15875928D01*
X6613954Y-15854546D02*
X6357375Y-16111125D01*
X6485664Y-15982835D02*
X6036652Y-15533823D01*
X6036652Y-15533823D02*
X6058033Y-15640730D01*
X6058033Y-15640730D02*
X6058033Y-15726257D01*
X6058033Y-15726257D02*
X6036652Y-15790401D01*
X15264933Y-28396971D02*
X15820854Y-28739076D01*
X15820854Y-28739076D02*
X15585657Y-28332826D01*
X15585657Y-28332826D02*
X15991907Y-28568023D01*
X15991907Y-28568023D02*
X15649802Y-28012103D01*
X16013288Y-27648616D02*
X15927762Y-27734143D01*
X15927762Y-27734143D02*
X15906380Y-27798287D01*
X15906380Y-27798287D02*
X15906380Y-27841050D01*
X15906380Y-27841050D02*
X15927762Y-27947958D01*
X15927762Y-27947958D02*
X15991906Y-28054866D01*
X15991906Y-28054866D02*
X16162959Y-28225918D01*
X16162959Y-28225918D02*
X16227104Y-28247300D01*
X16227104Y-28247300D02*
X16269867Y-28247300D01*
X16269867Y-28247300D02*
X16334011Y-28225918D01*
X16334011Y-28225918D02*
X16419538Y-28140392D01*
X16419538Y-28140392D02*
X16440919Y-28076248D01*
X16440919Y-28076248D02*
X16440919Y-28033484D01*
X16440919Y-28033484D02*
X16419538Y-27969340D01*
X16419538Y-27969340D02*
X16312630Y-27862432D01*
X16312630Y-27862432D02*
X16248485Y-27841050D01*
X16248485Y-27841050D02*
X16205722Y-27841050D01*
X16205722Y-27841050D02*
X16141577Y-27862432D01*
X16141577Y-27862432D02*
X16056051Y-27947958D01*
X16056051Y-27947958D02*
X16034670Y-28012103D01*
X16034670Y-28012103D02*
X16034670Y-28054866D01*
X16034670Y-28054866D02*
X16056051Y-28119011D01*
X16462301Y-27199603D02*
X16248485Y-27413419D01*
X16248485Y-27413419D02*
X16440919Y-27648616D01*
X16440919Y-27648616D02*
X16440919Y-27605853D01*
X16440919Y-27605853D02*
X16462301Y-27541708D01*
X16462301Y-27541708D02*
X16569209Y-27434801D01*
X16569209Y-27434801D02*
X16633353Y-27413419D01*
X16633353Y-27413419D02*
X16676116Y-27413419D01*
X16676116Y-27413419D02*
X16740261Y-27434801D01*
X16740261Y-27434801D02*
X16847169Y-27541708D01*
X16847169Y-27541708D02*
X16868551Y-27605853D01*
X16868551Y-27605853D02*
X16868551Y-27648616D01*
X16868551Y-27648616D02*
X16847169Y-27712761D01*
X16847169Y-27712761D02*
X16740261Y-27819669D01*
X16740261Y-27819669D02*
X16676116Y-27841050D01*
X16676116Y-27841050D02*
X16633353Y-27841050D01*
X17338945Y-27135459D02*
X17338945Y-27178222D01*
X17338945Y-27178222D02*
X17296182Y-27263748D01*
X17296182Y-27263748D02*
X17253419Y-27306511D01*
X17253419Y-27306511D02*
X17167892Y-27349274D01*
X17167892Y-27349274D02*
X17082366Y-27349274D01*
X17082366Y-27349274D02*
X17018222Y-27327893D01*
X17018222Y-27327893D02*
X16911314Y-27263748D01*
X16911314Y-27263748D02*
X16847169Y-27199603D01*
X16847169Y-27199603D02*
X16783024Y-27092696D01*
X16783024Y-27092696D02*
X16761643Y-27028551D01*
X16761643Y-27028551D02*
X16761643Y-26943025D01*
X16761643Y-26943025D02*
X16804406Y-26857498D01*
X16804406Y-26857498D02*
X16847169Y-26814735D01*
X16847169Y-26814735D02*
X16932695Y-26771972D01*
X16932695Y-26771972D02*
X16975458Y-26771972D01*
X17146511Y-26600920D02*
X17146511Y-26558156D01*
X17146511Y-26558156D02*
X17167892Y-26494012D01*
X17167892Y-26494012D02*
X17274800Y-26387104D01*
X17274800Y-26387104D02*
X17338945Y-26365722D01*
X17338945Y-26365722D02*
X17381708Y-26365722D01*
X17381708Y-26365722D02*
X17445853Y-26387104D01*
X17445853Y-26387104D02*
X17488616Y-26429867D01*
X17488616Y-26429867D02*
X17531379Y-26515393D01*
X17531379Y-26515393D02*
X17531379Y-27028551D01*
X17531379Y-27028551D02*
X17809339Y-26750591D01*
X17574142Y-26173288D02*
X17574142Y-26130525D01*
X17574142Y-26130525D02*
X17595524Y-26066380D01*
X17595524Y-26066380D02*
X17702432Y-25959473D01*
X17702432Y-25959473D02*
X17766576Y-25938091D01*
X17766576Y-25938091D02*
X17809339Y-25938091D01*
X17809339Y-25938091D02*
X17873484Y-25959473D01*
X17873484Y-25959473D02*
X17916247Y-26002236D01*
X17916247Y-26002236D02*
X17959010Y-26087762D01*
X17959010Y-26087762D02*
X17959010Y-26600920D01*
X17959010Y-26600920D02*
X18236971Y-26322959D01*
X18386642Y-26130525D02*
X18472168Y-26087762D01*
X18472168Y-26087762D02*
X18579076Y-25980854D01*
X18579076Y-25980854D02*
X18600457Y-25916709D01*
X18600457Y-25916709D02*
X18600457Y-25873946D01*
X18600457Y-25873946D02*
X18579076Y-25809802D01*
X18579076Y-25809802D02*
X18536313Y-25767039D01*
X18536313Y-25767039D02*
X18472168Y-25745657D01*
X18472168Y-25745657D02*
X18429405Y-25745657D01*
X18429405Y-25745657D02*
X18365260Y-25767039D01*
X18365260Y-25767039D02*
X18258352Y-25831183D01*
X18258352Y-25831183D02*
X18194208Y-25852565D01*
X18194208Y-25852565D02*
X18151444Y-25852565D01*
X18151444Y-25852565D02*
X18087300Y-25831183D01*
X18087300Y-25831183D02*
X18044537Y-25788420D01*
X18044537Y-25788420D02*
X18023155Y-25724275D01*
X18023155Y-25724275D02*
X18023155Y-25681512D01*
X18023155Y-25681512D02*
X18044537Y-25617368D01*
X18044537Y-25617368D02*
X18151444Y-25510460D01*
X18151444Y-25510460D02*
X18236971Y-25467697D01*
X16416452Y-50436940D02*
X16416452Y-50479703D01*
X16416452Y-50479703D02*
X16373689Y-50565230D01*
X16373689Y-50565230D02*
X16330926Y-50607993D01*
X16330926Y-50607993D02*
X16245400Y-50650756D01*
X16245400Y-50650756D02*
X16159874Y-50650756D01*
X16159874Y-50650756D02*
X16095729Y-50629374D01*
X16095729Y-50629374D02*
X15988821Y-50565230D01*
X15988821Y-50565230D02*
X15924676Y-50501085D01*
X15924676Y-50501085D02*
X15860532Y-50394177D01*
X15860532Y-50394177D02*
X15839150Y-50330033D01*
X15839150Y-50330033D02*
X15839150Y-50244506D01*
X15839150Y-50244506D02*
X15881913Y-50158980D01*
X15881913Y-50158980D02*
X15924676Y-50116217D01*
X15924676Y-50116217D02*
X16010203Y-50073454D01*
X16010203Y-50073454D02*
X16052966Y-50073454D01*
X16544742Y-49795493D02*
X16844084Y-50094835D01*
X16266781Y-49731349D02*
X16480597Y-50158980D01*
X16480597Y-50158980D02*
X16758557Y-49881020D01*
X19119705Y-53627389D02*
X18863126Y-53883968D01*
X18991416Y-53755678D02*
X18542403Y-53306665D01*
X18542403Y-53306665D02*
X18563784Y-53413573D01*
X18563784Y-53413573D02*
X18563784Y-53499100D01*
X18563784Y-53499100D02*
X18542403Y-53563244D01*
X19012797Y-53135613D02*
X19461810Y-53584626D01*
X19461810Y-53156994D02*
X19525955Y-53178376D01*
X19525955Y-53178376D02*
X19590099Y-53156994D01*
X19247994Y-53370810D02*
X19312139Y-53392192D01*
X19312139Y-53392192D02*
X19376284Y-53370810D01*
X19376284Y-53370810D02*
X19461810Y-53285284D01*
X19461810Y-53285284D02*
X19483192Y-53221139D01*
X19483192Y-53221139D02*
X19461810Y-53156994D01*
X19461810Y-53156994D02*
X19226613Y-52921797D01*
X19697007Y-52579692D02*
X19547336Y-52729363D01*
X19782533Y-52964560D02*
X19333521Y-52515548D01*
X19333521Y-52515548D02*
X19547336Y-52301732D01*
X4121383Y-16899762D02*
X4078620Y-16899762D01*
X4078620Y-16899762D02*
X3993093Y-16856999D01*
X3993093Y-16856999D02*
X3950330Y-16814236D01*
X3950330Y-16814236D02*
X3907567Y-16728710D01*
X3907567Y-16728710D02*
X3907567Y-16643184D01*
X3907567Y-16643184D02*
X3928949Y-16579039D01*
X3928949Y-16579039D02*
X3993093Y-16472131D01*
X3993093Y-16472131D02*
X4057238Y-16407986D01*
X4057238Y-16407986D02*
X4164146Y-16343842D01*
X4164146Y-16343842D02*
X4228290Y-16322460D01*
X4228290Y-16322460D02*
X4313817Y-16322460D01*
X4313817Y-16322460D02*
X4399343Y-16365223D01*
X4399343Y-16365223D02*
X4442106Y-16407986D01*
X4442106Y-16407986D02*
X4484869Y-16493513D01*
X4484869Y-16493513D02*
X4484869Y-16536276D01*
X4677303Y-16643184D02*
X4955264Y-16921144D01*
X4955264Y-16921144D02*
X4634540Y-16942525D01*
X4634540Y-16942525D02*
X4698685Y-17006670D01*
X4698685Y-17006670D02*
X4720066Y-17070815D01*
X4720066Y-17070815D02*
X4720066Y-17113578D01*
X4720066Y-17113578D02*
X4698685Y-17177723D01*
X4698685Y-17177723D02*
X4591777Y-17284630D01*
X4591777Y-17284630D02*
X4527632Y-17306012D01*
X4527632Y-17306012D02*
X4484869Y-17306012D01*
X4484869Y-17306012D02*
X4420725Y-17284630D01*
X4420725Y-17284630D02*
X4292435Y-17156341D01*
X4292435Y-17156341D02*
X4271054Y-17092196D01*
X4271054Y-17092196D02*
X4271054Y-17049433D01*
X6777292Y-13833023D02*
X6520713Y-13576444D01*
X6649003Y-13704734D02*
X7098016Y-13255721D01*
X7098016Y-13255721D02*
X6991108Y-13277102D01*
X6991108Y-13277102D02*
X6905581Y-13277102D01*
X6905581Y-13277102D02*
X6841437Y-13255721D01*
X7269068Y-13726115D02*
X6820055Y-14175128D01*
X7247687Y-14175128D02*
X7226305Y-14239273D01*
X7226305Y-14239273D02*
X7247687Y-14303417D01*
X7033871Y-13961312D02*
X7012489Y-14025457D01*
X7012489Y-14025457D02*
X7033871Y-14089602D01*
X7033871Y-14089602D02*
X7119397Y-14175128D01*
X7119397Y-14175128D02*
X7183542Y-14196510D01*
X7183542Y-14196510D02*
X7247687Y-14175128D01*
X7247687Y-14175128D02*
X7482884Y-13939931D01*
X7824989Y-14410325D02*
X7675318Y-14260654D01*
X7440121Y-14495851D02*
X7889133Y-14046839D01*
X7889133Y-14046839D02*
X8102949Y-14260654D01*
D11*
%TO.C,IC2*%
X4535709Y-57277000D02*
X11430000Y-50382709D01*
X11430000Y-50382709D02*
X18324291Y-57277000D01*
X11430000Y-64171291D02*
X4535709Y-57277000D01*
X18324291Y-57277000D02*
X11430000Y-64171291D01*
D12*
X12528025Y-65071862D02*
G75*
G02*
X12128027Y-65071862I-199999J0D01*
G01*
X12128027Y-65071862D02*
G75*
G02*
X12528025Y-65071862I199999J0D01*
G01*
D13*
%TO.C,C5*%
X16283000Y-74684748D02*
X16283000Y-75207252D01*
X17753000Y-74684748D02*
X17753000Y-75207252D01*
D11*
%TO.C,IC1*%
X4535709Y-21590000D02*
X11430000Y-14695709D01*
X11430000Y-14695709D02*
X18324291Y-21590000D01*
X11430000Y-28484291D02*
X4535709Y-21590000D01*
X18324291Y-21590000D02*
X11430000Y-28484291D01*
D12*
X19424861Y-20691974D02*
G75*
G02*
X19024863Y-20691974I-199999J0D01*
G01*
X19024863Y-20691974D02*
G75*
G02*
X19424861Y-20691974I199999J0D01*
G01*
D13*
%TO.C,C4*%
X17433696Y-52382143D02*
X17064230Y-52012677D01*
X18473143Y-51342696D02*
X18103677Y-50973230D01*
%TO.C,C3*%
X5495696Y-14673857D02*
X5126230Y-15043323D01*
X6535143Y-15713304D02*
X6165677Y-16082770D01*
%TD*%
M02*
