%TF.GenerationSoftware,KiCad,Pcbnew,8.0.3*%
%TF.CreationDate,2024-06-30T20:21:57+02:00*%
%TF.ProjectId,SD Card Clock,53442043-6172-4642-9043-6c6f636b2e6b,V0*%
%TF.SameCoordinates,PX54c81a0PY37b6b20*%
%TF.FileFunction,Legend,Top*%
%TF.FilePolarity,Positive*%
%FSLAX46Y46*%
G04 Gerber Fmt 4.6, Leading zero omitted, Abs format (unit mm)*
G04 Created by KiCad (PCBNEW 8.0.3) date 2024-06-30 20:21:57*
%MOMM*%
%LPD*%
G01*
G04 APERTURE LIST*
%ADD10C,0.150000*%
%ADD11C,0.200000*%
%ADD12C,0.120000*%
G04 APERTURE END LIST*
D10*
X1628731Y-28225963D02*
X1417064Y-27923582D01*
X1265874Y-28225963D02*
X1265874Y-27590963D01*
X1265874Y-27590963D02*
X1507779Y-27590963D01*
X1507779Y-27590963D02*
X1568255Y-27621201D01*
X1568255Y-27621201D02*
X1598493Y-27651439D01*
X1598493Y-27651439D02*
X1628731Y-27711915D01*
X1628731Y-27711915D02*
X1628731Y-27802629D01*
X1628731Y-27802629D02*
X1598493Y-27863105D01*
X1598493Y-27863105D02*
X1568255Y-27893344D01*
X1568255Y-27893344D02*
X1507779Y-27923582D01*
X1507779Y-27923582D02*
X1265874Y-27923582D01*
X1870636Y-28195725D02*
X1961350Y-28225963D01*
X1961350Y-28225963D02*
X2112541Y-28225963D01*
X2112541Y-28225963D02*
X2173017Y-28195725D01*
X2173017Y-28195725D02*
X2203255Y-28165486D01*
X2203255Y-28165486D02*
X2233493Y-28105010D01*
X2233493Y-28105010D02*
X2233493Y-28044534D01*
X2233493Y-28044534D02*
X2203255Y-27984058D01*
X2203255Y-27984058D02*
X2173017Y-27953820D01*
X2173017Y-27953820D02*
X2112541Y-27923582D01*
X2112541Y-27923582D02*
X1991588Y-27893344D01*
X1991588Y-27893344D02*
X1931112Y-27863105D01*
X1931112Y-27863105D02*
X1900874Y-27832867D01*
X1900874Y-27832867D02*
X1870636Y-27772391D01*
X1870636Y-27772391D02*
X1870636Y-27711915D01*
X1870636Y-27711915D02*
X1900874Y-27651439D01*
X1900874Y-27651439D02*
X1931112Y-27621201D01*
X1931112Y-27621201D02*
X1991588Y-27590963D01*
X1991588Y-27590963D02*
X2142779Y-27590963D01*
X2142779Y-27590963D02*
X2233493Y-27621201D01*
X2414922Y-27590963D02*
X2777779Y-27590963D01*
X2596350Y-28225963D02*
X2596350Y-27590963D01*
X1178184Y-27414675D02*
X2774756Y-27414675D01*
X1265874Y-25685963D02*
X1265874Y-25050963D01*
X1265874Y-25050963D02*
X1417064Y-25050963D01*
X1417064Y-25050963D02*
X1507779Y-25081201D01*
X1507779Y-25081201D02*
X1568255Y-25141677D01*
X1568255Y-25141677D02*
X1598493Y-25202153D01*
X1598493Y-25202153D02*
X1628731Y-25323105D01*
X1628731Y-25323105D02*
X1628731Y-25413820D01*
X1628731Y-25413820D02*
X1598493Y-25534772D01*
X1598493Y-25534772D02*
X1568255Y-25595248D01*
X1568255Y-25595248D02*
X1507779Y-25655725D01*
X1507779Y-25655725D02*
X1417064Y-25685963D01*
X1417064Y-25685963D02*
X1265874Y-25685963D01*
X2021826Y-25050963D02*
X2082303Y-25050963D01*
X2082303Y-25050963D02*
X2142779Y-25081201D01*
X2142779Y-25081201D02*
X2173017Y-25111439D01*
X2173017Y-25111439D02*
X2203255Y-25171915D01*
X2203255Y-25171915D02*
X2233493Y-25292867D01*
X2233493Y-25292867D02*
X2233493Y-25444058D01*
X2233493Y-25444058D02*
X2203255Y-25565010D01*
X2203255Y-25565010D02*
X2173017Y-25625486D01*
X2173017Y-25625486D02*
X2142779Y-25655725D01*
X2142779Y-25655725D02*
X2082303Y-25685963D01*
X2082303Y-25685963D02*
X2021826Y-25685963D01*
X2021826Y-25685963D02*
X1961350Y-25655725D01*
X1961350Y-25655725D02*
X1931112Y-25625486D01*
X1931112Y-25625486D02*
X1900874Y-25565010D01*
X1900874Y-25565010D02*
X1870636Y-25444058D01*
X1870636Y-25444058D02*
X1870636Y-25292867D01*
X1870636Y-25292867D02*
X1900874Y-25171915D01*
X1900874Y-25171915D02*
X1931112Y-25111439D01*
X1931112Y-25111439D02*
X1961350Y-25081201D01*
X1961350Y-25081201D02*
X2021826Y-25050963D01*
X1265874Y-23145963D02*
X1265874Y-22510963D01*
X1265874Y-22510963D02*
X1417064Y-22510963D01*
X1417064Y-22510963D02*
X1507779Y-22541201D01*
X1507779Y-22541201D02*
X1568255Y-22601677D01*
X1568255Y-22601677D02*
X1598493Y-22662153D01*
X1598493Y-22662153D02*
X1628731Y-22783105D01*
X1628731Y-22783105D02*
X1628731Y-22873820D01*
X1628731Y-22873820D02*
X1598493Y-22994772D01*
X1598493Y-22994772D02*
X1568255Y-23055248D01*
X1568255Y-23055248D02*
X1507779Y-23115725D01*
X1507779Y-23115725D02*
X1417064Y-23145963D01*
X1417064Y-23145963D02*
X1265874Y-23145963D01*
X2233493Y-23145963D02*
X1870636Y-23145963D01*
X2052064Y-23145963D02*
X2052064Y-22510963D01*
X2052064Y-22510963D02*
X1991588Y-22601677D01*
X1991588Y-22601677D02*
X1931112Y-22662153D01*
X1931112Y-22662153D02*
X1870636Y-22692391D01*
X1265874Y-18065963D02*
X1265874Y-17430963D01*
X1265874Y-17430963D02*
X1417064Y-17430963D01*
X1417064Y-17430963D02*
X1507779Y-17461201D01*
X1507779Y-17461201D02*
X1568255Y-17521677D01*
X1568255Y-17521677D02*
X1598493Y-17582153D01*
X1598493Y-17582153D02*
X1628731Y-17703105D01*
X1628731Y-17703105D02*
X1628731Y-17793820D01*
X1628731Y-17793820D02*
X1598493Y-17914772D01*
X1598493Y-17914772D02*
X1568255Y-17975248D01*
X1568255Y-17975248D02*
X1507779Y-18035725D01*
X1507779Y-18035725D02*
X1417064Y-18065963D01*
X1417064Y-18065963D02*
X1265874Y-18065963D01*
X1870636Y-17491439D02*
X1900874Y-17461201D01*
X1900874Y-17461201D02*
X1961350Y-17430963D01*
X1961350Y-17430963D02*
X2112541Y-17430963D01*
X2112541Y-17430963D02*
X2173017Y-17461201D01*
X2173017Y-17461201D02*
X2203255Y-17491439D01*
X2203255Y-17491439D02*
X2233493Y-17551915D01*
X2233493Y-17551915D02*
X2233493Y-17612391D01*
X2233493Y-17612391D02*
X2203255Y-17703105D01*
X2203255Y-17703105D02*
X1840398Y-18065963D01*
X1840398Y-18065963D02*
X2233493Y-18065963D01*
X1265874Y-15525963D02*
X1265874Y-14890963D01*
X1265874Y-14890963D02*
X1417064Y-14890963D01*
X1417064Y-14890963D02*
X1507779Y-14921201D01*
X1507779Y-14921201D02*
X1568255Y-14981677D01*
X1568255Y-14981677D02*
X1598493Y-15042153D01*
X1598493Y-15042153D02*
X1628731Y-15163105D01*
X1628731Y-15163105D02*
X1628731Y-15253820D01*
X1628731Y-15253820D02*
X1598493Y-15374772D01*
X1598493Y-15374772D02*
X1568255Y-15435248D01*
X1568255Y-15435248D02*
X1507779Y-15495725D01*
X1507779Y-15495725D02*
X1417064Y-15525963D01*
X1417064Y-15525963D02*
X1265874Y-15525963D01*
X1840398Y-14890963D02*
X2233493Y-14890963D01*
X2233493Y-14890963D02*
X2021826Y-15132867D01*
X2021826Y-15132867D02*
X2112541Y-15132867D01*
X2112541Y-15132867D02*
X2173017Y-15163105D01*
X2173017Y-15163105D02*
X2203255Y-15193344D01*
X2203255Y-15193344D02*
X2233493Y-15253820D01*
X2233493Y-15253820D02*
X2233493Y-15405010D01*
X2233493Y-15405010D02*
X2203255Y-15465486D01*
X2203255Y-15465486D02*
X2173017Y-15495725D01*
X2173017Y-15495725D02*
X2112541Y-15525963D01*
X2112541Y-15525963D02*
X1931112Y-15525963D01*
X1931112Y-15525963D02*
X1870636Y-15495725D01*
X1870636Y-15495725D02*
X1840398Y-15465486D01*
X1235636Y-2795725D02*
X1326350Y-2825963D01*
X1326350Y-2825963D02*
X1477541Y-2825963D01*
X1477541Y-2825963D02*
X1538017Y-2795725D01*
X1538017Y-2795725D02*
X1568255Y-2765486D01*
X1568255Y-2765486D02*
X1598493Y-2705010D01*
X1598493Y-2705010D02*
X1598493Y-2644534D01*
X1598493Y-2644534D02*
X1568255Y-2584058D01*
X1568255Y-2584058D02*
X1538017Y-2553820D01*
X1538017Y-2553820D02*
X1477541Y-2523582D01*
X1477541Y-2523582D02*
X1356588Y-2493344D01*
X1356588Y-2493344D02*
X1296112Y-2463105D01*
X1296112Y-2463105D02*
X1265874Y-2432867D01*
X1265874Y-2432867D02*
X1235636Y-2372391D01*
X1235636Y-2372391D02*
X1235636Y-2311915D01*
X1235636Y-2311915D02*
X1265874Y-2251439D01*
X1265874Y-2251439D02*
X1296112Y-2221201D01*
X1296112Y-2221201D02*
X1356588Y-2190963D01*
X1356588Y-2190963D02*
X1507779Y-2190963D01*
X1507779Y-2190963D02*
X1598493Y-2221201D01*
X1779922Y-2402629D02*
X2021826Y-2402629D01*
X1870636Y-2190963D02*
X1870636Y-2735248D01*
X1870636Y-2735248D02*
X1900874Y-2795725D01*
X1900874Y-2795725D02*
X1961350Y-2825963D01*
X1961350Y-2825963D02*
X2021826Y-2825963D01*
X2324207Y-2825963D02*
X2263731Y-2795725D01*
X2263731Y-2795725D02*
X2233493Y-2765486D01*
X2233493Y-2765486D02*
X2203255Y-2705010D01*
X2203255Y-2705010D02*
X2203255Y-2523582D01*
X2203255Y-2523582D02*
X2233493Y-2463105D01*
X2233493Y-2463105D02*
X2263731Y-2432867D01*
X2263731Y-2432867D02*
X2324207Y-2402629D01*
X2324207Y-2402629D02*
X2414922Y-2402629D01*
X2414922Y-2402629D02*
X2475398Y-2432867D01*
X2475398Y-2432867D02*
X2505636Y-2463105D01*
X2505636Y-2463105D02*
X2535874Y-2523582D01*
X2535874Y-2523582D02*
X2535874Y-2705010D01*
X2535874Y-2705010D02*
X2505636Y-2765486D01*
X2505636Y-2765486D02*
X2475398Y-2795725D01*
X2475398Y-2795725D02*
X2414922Y-2825963D01*
X2414922Y-2825963D02*
X2324207Y-2825963D01*
X2808017Y-2402629D02*
X2808017Y-3037629D01*
X2808017Y-2432867D02*
X2868493Y-2402629D01*
X2868493Y-2402629D02*
X2989446Y-2402629D01*
X2989446Y-2402629D02*
X3049922Y-2432867D01*
X3049922Y-2432867D02*
X3080160Y-2463105D01*
X3080160Y-2463105D02*
X3110398Y-2523582D01*
X3110398Y-2523582D02*
X3110398Y-2705010D01*
X3110398Y-2705010D02*
X3080160Y-2765486D01*
X3080160Y-2765486D02*
X3049922Y-2795725D01*
X3049922Y-2795725D02*
X2989446Y-2825963D01*
X2989446Y-2825963D02*
X2868493Y-2825963D01*
X2868493Y-2825963D02*
X2808017Y-2795725D01*
X1178184Y-2014675D02*
X3167851Y-2014675D01*
X19870554Y-2190963D02*
X20021744Y-2825963D01*
X20021744Y-2825963D02*
X20142697Y-2372391D01*
X20142697Y-2372391D02*
X20263649Y-2825963D01*
X20263649Y-2825963D02*
X20414840Y-2190963D01*
X21019601Y-2765486D02*
X20989363Y-2795725D01*
X20989363Y-2795725D02*
X20898649Y-2825963D01*
X20898649Y-2825963D02*
X20838173Y-2825963D01*
X20838173Y-2825963D02*
X20747458Y-2795725D01*
X20747458Y-2795725D02*
X20686982Y-2735248D01*
X20686982Y-2735248D02*
X20656744Y-2674772D01*
X20656744Y-2674772D02*
X20626506Y-2553820D01*
X20626506Y-2553820D02*
X20626506Y-2463105D01*
X20626506Y-2463105D02*
X20656744Y-2342153D01*
X20656744Y-2342153D02*
X20686982Y-2281677D01*
X20686982Y-2281677D02*
X20747458Y-2221201D01*
X20747458Y-2221201D02*
X20838173Y-2190963D01*
X20838173Y-2190963D02*
X20898649Y-2190963D01*
X20898649Y-2190963D02*
X20989363Y-2221201D01*
X20989363Y-2221201D02*
X21019601Y-2251439D01*
X21261506Y-2795725D02*
X21352220Y-2825963D01*
X21352220Y-2825963D02*
X21503411Y-2825963D01*
X21503411Y-2825963D02*
X21563887Y-2795725D01*
X21563887Y-2795725D02*
X21594125Y-2765486D01*
X21594125Y-2765486D02*
X21624363Y-2705010D01*
X21624363Y-2705010D02*
X21624363Y-2644534D01*
X21624363Y-2644534D02*
X21594125Y-2584058D01*
X21594125Y-2584058D02*
X21563887Y-2553820D01*
X21563887Y-2553820D02*
X21503411Y-2523582D01*
X21503411Y-2523582D02*
X21382458Y-2493344D01*
X21382458Y-2493344D02*
X21321982Y-2463105D01*
X21321982Y-2463105D02*
X21291744Y-2432867D01*
X21291744Y-2432867D02*
X21261506Y-2372391D01*
X21261506Y-2372391D02*
X21261506Y-2311915D01*
X21261506Y-2311915D02*
X21291744Y-2251439D01*
X21291744Y-2251439D02*
X21321982Y-2221201D01*
X21321982Y-2221201D02*
X21382458Y-2190963D01*
X21382458Y-2190963D02*
X21533649Y-2190963D01*
X21533649Y-2190963D02*
X21624363Y-2221201D01*
X18358648Y-5335725D02*
X18449362Y-5365963D01*
X18449362Y-5365963D02*
X18600553Y-5365963D01*
X18600553Y-5365963D02*
X18661029Y-5335725D01*
X18661029Y-5335725D02*
X18691267Y-5305486D01*
X18691267Y-5305486D02*
X18721505Y-5245010D01*
X18721505Y-5245010D02*
X18721505Y-5184534D01*
X18721505Y-5184534D02*
X18691267Y-5124058D01*
X18691267Y-5124058D02*
X18661029Y-5093820D01*
X18661029Y-5093820D02*
X18600553Y-5063582D01*
X18600553Y-5063582D02*
X18479600Y-5033344D01*
X18479600Y-5033344D02*
X18419124Y-5003105D01*
X18419124Y-5003105D02*
X18388886Y-4972867D01*
X18388886Y-4972867D02*
X18358648Y-4912391D01*
X18358648Y-4912391D02*
X18358648Y-4851915D01*
X18358648Y-4851915D02*
X18388886Y-4791439D01*
X18388886Y-4791439D02*
X18419124Y-4761201D01*
X18419124Y-4761201D02*
X18479600Y-4730963D01*
X18479600Y-4730963D02*
X18630791Y-4730963D01*
X18630791Y-4730963D02*
X18721505Y-4761201D01*
X18993648Y-5365963D02*
X18993648Y-4730963D01*
X18993648Y-4730963D02*
X19144838Y-4730963D01*
X19144838Y-4730963D02*
X19235553Y-4761201D01*
X19235553Y-4761201D02*
X19296029Y-4821677D01*
X19296029Y-4821677D02*
X19326267Y-4882153D01*
X19326267Y-4882153D02*
X19356505Y-5003105D01*
X19356505Y-5003105D02*
X19356505Y-5093820D01*
X19356505Y-5093820D02*
X19326267Y-5214772D01*
X19326267Y-5214772D02*
X19296029Y-5275248D01*
X19296029Y-5275248D02*
X19235553Y-5335725D01*
X19235553Y-5335725D02*
X19144838Y-5365963D01*
X19144838Y-5365963D02*
X18993648Y-5365963D01*
X20475315Y-5305486D02*
X20445077Y-5335725D01*
X20445077Y-5335725D02*
X20354363Y-5365963D01*
X20354363Y-5365963D02*
X20293887Y-5365963D01*
X20293887Y-5365963D02*
X20203172Y-5335725D01*
X20203172Y-5335725D02*
X20142696Y-5275248D01*
X20142696Y-5275248D02*
X20112458Y-5214772D01*
X20112458Y-5214772D02*
X20082220Y-5093820D01*
X20082220Y-5093820D02*
X20082220Y-5003105D01*
X20082220Y-5003105D02*
X20112458Y-4882153D01*
X20112458Y-4882153D02*
X20142696Y-4821677D01*
X20142696Y-4821677D02*
X20203172Y-4761201D01*
X20203172Y-4761201D02*
X20293887Y-4730963D01*
X20293887Y-4730963D02*
X20354363Y-4730963D01*
X20354363Y-4730963D02*
X20445077Y-4761201D01*
X20445077Y-4761201D02*
X20475315Y-4791439D01*
X21049839Y-5365963D02*
X20747458Y-5365963D01*
X20747458Y-5365963D02*
X20747458Y-4730963D01*
X21261506Y-5365963D02*
X21261506Y-4730963D01*
X21624363Y-5365963D02*
X21352220Y-5003105D01*
X21624363Y-4730963D02*
X21261506Y-5093820D01*
X17209600Y-15525963D02*
X17209600Y-14890963D01*
X17209600Y-15193344D02*
X17572457Y-15193344D01*
X17572457Y-15525963D02*
X17572457Y-14890963D01*
X18146981Y-15525963D02*
X18146981Y-15193344D01*
X18146981Y-15193344D02*
X18116743Y-15132867D01*
X18116743Y-15132867D02*
X18056267Y-15102629D01*
X18056267Y-15102629D02*
X17935314Y-15102629D01*
X17935314Y-15102629D02*
X17874838Y-15132867D01*
X18146981Y-15495725D02*
X18086505Y-15525963D01*
X18086505Y-15525963D02*
X17935314Y-15525963D01*
X17935314Y-15525963D02*
X17874838Y-15495725D01*
X17874838Y-15495725D02*
X17844600Y-15435248D01*
X17844600Y-15435248D02*
X17844600Y-15374772D01*
X17844600Y-15374772D02*
X17874838Y-15314296D01*
X17874838Y-15314296D02*
X17935314Y-15284058D01*
X17935314Y-15284058D02*
X18086505Y-15284058D01*
X18086505Y-15284058D02*
X18146981Y-15253820D01*
X18540076Y-15525963D02*
X18479600Y-15495725D01*
X18479600Y-15495725D02*
X18449362Y-15435248D01*
X18449362Y-15435248D02*
X18449362Y-14890963D01*
X18691267Y-15102629D02*
X18933171Y-15102629D01*
X18781981Y-15525963D02*
X18781981Y-14981677D01*
X18781981Y-14981677D02*
X18812219Y-14921201D01*
X18812219Y-14921201D02*
X18872695Y-14890963D01*
X18872695Y-14890963D02*
X18933171Y-14890963D01*
X19991505Y-15465486D02*
X19961267Y-15495725D01*
X19961267Y-15495725D02*
X19870553Y-15525963D01*
X19870553Y-15525963D02*
X19810077Y-15525963D01*
X19810077Y-15525963D02*
X19719362Y-15495725D01*
X19719362Y-15495725D02*
X19658886Y-15435248D01*
X19658886Y-15435248D02*
X19628648Y-15374772D01*
X19628648Y-15374772D02*
X19598410Y-15253820D01*
X19598410Y-15253820D02*
X19598410Y-15163105D01*
X19598410Y-15163105D02*
X19628648Y-15042153D01*
X19628648Y-15042153D02*
X19658886Y-14981677D01*
X19658886Y-14981677D02*
X19719362Y-14921201D01*
X19719362Y-14921201D02*
X19810077Y-14890963D01*
X19810077Y-14890963D02*
X19870553Y-14890963D01*
X19870553Y-14890963D02*
X19961267Y-14921201D01*
X19961267Y-14921201D02*
X19991505Y-14951439D01*
X20566029Y-15525963D02*
X20263648Y-15525963D01*
X20263648Y-15525963D02*
X20263648Y-14890963D01*
X20777696Y-15525963D02*
X20777696Y-14890963D01*
X21140553Y-15525963D02*
X20868410Y-15163105D01*
X21140553Y-14890963D02*
X20777696Y-15253820D01*
X21648553Y-15596115D02*
X21358267Y-15596115D01*
X21503410Y-15596115D02*
X21503410Y-15088115D01*
X21503410Y-15088115D02*
X21455029Y-15160686D01*
X21455029Y-15160686D02*
X21406648Y-15209067D01*
X21406648Y-15209067D02*
X21358267Y-15233258D01*
X17209600Y-12985963D02*
X17209600Y-12350963D01*
X17209600Y-12653344D02*
X17572457Y-12653344D01*
X17572457Y-12985963D02*
X17572457Y-12350963D01*
X18146981Y-12985963D02*
X18146981Y-12653344D01*
X18146981Y-12653344D02*
X18116743Y-12592867D01*
X18116743Y-12592867D02*
X18056267Y-12562629D01*
X18056267Y-12562629D02*
X17935314Y-12562629D01*
X17935314Y-12562629D02*
X17874838Y-12592867D01*
X18146981Y-12955725D02*
X18086505Y-12985963D01*
X18086505Y-12985963D02*
X17935314Y-12985963D01*
X17935314Y-12985963D02*
X17874838Y-12955725D01*
X17874838Y-12955725D02*
X17844600Y-12895248D01*
X17844600Y-12895248D02*
X17844600Y-12834772D01*
X17844600Y-12834772D02*
X17874838Y-12774296D01*
X17874838Y-12774296D02*
X17935314Y-12744058D01*
X17935314Y-12744058D02*
X18086505Y-12744058D01*
X18086505Y-12744058D02*
X18146981Y-12713820D01*
X18540076Y-12985963D02*
X18479600Y-12955725D01*
X18479600Y-12955725D02*
X18449362Y-12895248D01*
X18449362Y-12895248D02*
X18449362Y-12350963D01*
X18691267Y-12562629D02*
X18933171Y-12562629D01*
X18781981Y-12985963D02*
X18781981Y-12441677D01*
X18781981Y-12441677D02*
X18812219Y-12381201D01*
X18812219Y-12381201D02*
X18872695Y-12350963D01*
X18872695Y-12350963D02*
X18933171Y-12350963D01*
X19991505Y-12925486D02*
X19961267Y-12955725D01*
X19961267Y-12955725D02*
X19870553Y-12985963D01*
X19870553Y-12985963D02*
X19810077Y-12985963D01*
X19810077Y-12985963D02*
X19719362Y-12955725D01*
X19719362Y-12955725D02*
X19658886Y-12895248D01*
X19658886Y-12895248D02*
X19628648Y-12834772D01*
X19628648Y-12834772D02*
X19598410Y-12713820D01*
X19598410Y-12713820D02*
X19598410Y-12623105D01*
X19598410Y-12623105D02*
X19628648Y-12502153D01*
X19628648Y-12502153D02*
X19658886Y-12441677D01*
X19658886Y-12441677D02*
X19719362Y-12381201D01*
X19719362Y-12381201D02*
X19810077Y-12350963D01*
X19810077Y-12350963D02*
X19870553Y-12350963D01*
X19870553Y-12350963D02*
X19961267Y-12381201D01*
X19961267Y-12381201D02*
X19991505Y-12411439D01*
X20566029Y-12985963D02*
X20263648Y-12985963D01*
X20263648Y-12985963D02*
X20263648Y-12350963D01*
X20777696Y-12985963D02*
X20777696Y-12350963D01*
X21140553Y-12985963D02*
X20868410Y-12623105D01*
X21140553Y-12350963D02*
X20777696Y-12713820D01*
X21479220Y-12548115D02*
X21527601Y-12548115D01*
X21527601Y-12548115D02*
X21575982Y-12572305D01*
X21575982Y-12572305D02*
X21600172Y-12596496D01*
X21600172Y-12596496D02*
X21624363Y-12644877D01*
X21624363Y-12644877D02*
X21648553Y-12741639D01*
X21648553Y-12741639D02*
X21648553Y-12862591D01*
X21648553Y-12862591D02*
X21624363Y-12959353D01*
X21624363Y-12959353D02*
X21600172Y-13007734D01*
X21600172Y-13007734D02*
X21575982Y-13031925D01*
X21575982Y-13031925D02*
X21527601Y-13056115D01*
X21527601Y-13056115D02*
X21479220Y-13056115D01*
X21479220Y-13056115D02*
X21430839Y-13031925D01*
X21430839Y-13031925D02*
X21406648Y-13007734D01*
X21406648Y-13007734D02*
X21382458Y-12959353D01*
X21382458Y-12959353D02*
X21358267Y-12862591D01*
X21358267Y-12862591D02*
X21358267Y-12741639D01*
X21358267Y-12741639D02*
X21382458Y-12644877D01*
X21382458Y-12644877D02*
X21406648Y-12596496D01*
X21406648Y-12596496D02*
X21430839Y-12572305D01*
X21430839Y-12572305D02*
X21479220Y-12548115D01*
X1568255Y349037D02*
X1265874Y349037D01*
X1265874Y349037D02*
X1235636Y46656D01*
X1235636Y46656D02*
X1265874Y76895D01*
X1265874Y76895D02*
X1326350Y107133D01*
X1326350Y107133D02*
X1477541Y107133D01*
X1477541Y107133D02*
X1538017Y76895D01*
X1538017Y76895D02*
X1568255Y46656D01*
X1568255Y46656D02*
X1598493Y-13820D01*
X1598493Y-13820D02*
X1598493Y-165010D01*
X1598493Y-165010D02*
X1568255Y-225486D01*
X1568255Y-225486D02*
X1538017Y-255725D01*
X1538017Y-255725D02*
X1477541Y-285963D01*
X1477541Y-285963D02*
X1326350Y-285963D01*
X1326350Y-285963D02*
X1265874Y-255725D01*
X1265874Y-255725D02*
X1235636Y-225486D01*
X1779922Y349037D02*
X1991588Y-285963D01*
X1991588Y-285963D02*
X2203255Y349037D01*
X1598493Y-20001201D02*
X1538017Y-19970963D01*
X1538017Y-19970963D02*
X1447303Y-19970963D01*
X1447303Y-19970963D02*
X1356588Y-20001201D01*
X1356588Y-20001201D02*
X1296112Y-20061677D01*
X1296112Y-20061677D02*
X1265874Y-20122153D01*
X1265874Y-20122153D02*
X1235636Y-20243105D01*
X1235636Y-20243105D02*
X1235636Y-20333820D01*
X1235636Y-20333820D02*
X1265874Y-20454772D01*
X1265874Y-20454772D02*
X1296112Y-20515248D01*
X1296112Y-20515248D02*
X1356588Y-20575725D01*
X1356588Y-20575725D02*
X1447303Y-20605963D01*
X1447303Y-20605963D02*
X1507779Y-20605963D01*
X1507779Y-20605963D02*
X1598493Y-20575725D01*
X1598493Y-20575725D02*
X1628731Y-20545486D01*
X1628731Y-20545486D02*
X1628731Y-20333820D01*
X1628731Y-20333820D02*
X1507779Y-20333820D01*
X1900874Y-20605963D02*
X1900874Y-19970963D01*
X1900874Y-19970963D02*
X2263731Y-20605963D01*
X2263731Y-20605963D02*
X2263731Y-19970963D01*
X2566112Y-20605963D02*
X2566112Y-19970963D01*
X2566112Y-19970963D02*
X2717302Y-19970963D01*
X2717302Y-19970963D02*
X2808017Y-20001201D01*
X2808017Y-20001201D02*
X2868493Y-20061677D01*
X2868493Y-20061677D02*
X2898731Y-20122153D01*
X2898731Y-20122153D02*
X2928969Y-20243105D01*
X2928969Y-20243105D02*
X2928969Y-20333820D01*
X2928969Y-20333820D02*
X2898731Y-20454772D01*
X2898731Y-20454772D02*
X2868493Y-20515248D01*
X2868493Y-20515248D02*
X2808017Y-20575725D01*
X2808017Y-20575725D02*
X2717302Y-20605963D01*
X2717302Y-20605963D02*
X2566112Y-20605963D01*
X20293887Y-20001201D02*
X20233411Y-19970963D01*
X20233411Y-19970963D02*
X20142697Y-19970963D01*
X20142697Y-19970963D02*
X20051982Y-20001201D01*
X20051982Y-20001201D02*
X19991506Y-20061677D01*
X19991506Y-20061677D02*
X19961268Y-20122153D01*
X19961268Y-20122153D02*
X19931030Y-20243105D01*
X19931030Y-20243105D02*
X19931030Y-20333820D01*
X19931030Y-20333820D02*
X19961268Y-20454772D01*
X19961268Y-20454772D02*
X19991506Y-20515248D01*
X19991506Y-20515248D02*
X20051982Y-20575725D01*
X20051982Y-20575725D02*
X20142697Y-20605963D01*
X20142697Y-20605963D02*
X20203173Y-20605963D01*
X20203173Y-20605963D02*
X20293887Y-20575725D01*
X20293887Y-20575725D02*
X20324125Y-20545486D01*
X20324125Y-20545486D02*
X20324125Y-20333820D01*
X20324125Y-20333820D02*
X20203173Y-20333820D01*
X20596268Y-20605963D02*
X20596268Y-19970963D01*
X20596268Y-19970963D02*
X20959125Y-20605963D01*
X20959125Y-20605963D02*
X20959125Y-19970963D01*
X21261506Y-20605963D02*
X21261506Y-19970963D01*
X21261506Y-19970963D02*
X21412696Y-19970963D01*
X21412696Y-19970963D02*
X21503411Y-20001201D01*
X21503411Y-20001201D02*
X21563887Y-20061677D01*
X21563887Y-20061677D02*
X21594125Y-20122153D01*
X21594125Y-20122153D02*
X21624363Y-20243105D01*
X21624363Y-20243105D02*
X21624363Y-20333820D01*
X21624363Y-20333820D02*
X21594125Y-20454772D01*
X21594125Y-20454772D02*
X21563887Y-20515248D01*
X21563887Y-20515248D02*
X21503411Y-20575725D01*
X21503411Y-20575725D02*
X21412696Y-20605963D01*
X21412696Y-20605963D02*
X21261506Y-20605963D01*
D11*
G36*
X6541020Y-29557198D02*
G01*
X6608161Y-29622685D01*
X6643781Y-29691289D01*
X6687260Y-29858856D01*
X6688666Y-29977664D01*
X6648426Y-30144936D01*
X6612504Y-30219606D01*
X6545195Y-30288614D01*
X6442013Y-30324307D01*
X6315574Y-30325250D01*
X6314063Y-29523485D01*
X6433175Y-29522597D01*
X6541020Y-29557198D01*
G37*
G36*
X9298492Y-30142481D02*
G01*
X9307090Y-30141869D01*
X9307703Y-30315096D01*
X9289829Y-30324376D01*
X9098967Y-30325800D01*
X9052295Y-30303346D01*
X9029686Y-30259801D01*
X9028874Y-30211336D01*
X9050919Y-30165513D01*
X9094072Y-30143108D01*
X9295859Y-30141603D01*
X9298492Y-30142481D01*
G37*
G36*
X10830880Y-29866619D02*
G01*
X10831725Y-30314986D01*
X10813568Y-30324413D01*
X10670239Y-30325724D01*
X10610496Y-30296983D01*
X10584722Y-30272324D01*
X10553724Y-30212620D01*
X10552223Y-29974200D01*
X10581091Y-29914193D01*
X10605753Y-29888416D01*
X10665572Y-29857357D01*
X10808902Y-29856046D01*
X10830880Y-29866619D01*
G37*
G36*
X14011501Y-29884786D02*
G01*
X14037278Y-29909448D01*
X14068275Y-29969148D01*
X14069776Y-30207569D01*
X14040908Y-30267576D01*
X14016246Y-30293354D01*
X13956314Y-30324471D01*
X13860468Y-30325605D01*
X13800973Y-30296983D01*
X13775199Y-30272324D01*
X13744201Y-30212620D01*
X13742700Y-29974200D01*
X13771568Y-29914193D01*
X13796230Y-29888416D01*
X13856161Y-29857299D01*
X13952008Y-29856165D01*
X14011501Y-29884786D01*
G37*
G36*
X18201978Y-29551453D02*
G01*
X18227755Y-29576115D01*
X18262831Y-29643670D01*
X18306283Y-29811131D01*
X18307875Y-30024622D01*
X18267476Y-30192555D01*
X18231385Y-30267576D01*
X18206723Y-30293354D01*
X18146583Y-30324579D01*
X18098119Y-30325391D01*
X18039069Y-30296983D01*
X18013295Y-30272324D01*
X17978218Y-30204764D01*
X17934766Y-30037305D01*
X17933174Y-29823815D01*
X17973573Y-29655881D01*
X18009664Y-29580860D01*
X18034326Y-29555083D01*
X18094465Y-29523858D01*
X18142930Y-29523046D01*
X18201978Y-29551453D01*
G37*
G36*
X18617350Y-30635330D02*
G01*
X5004650Y-30635330D01*
X5004650Y-29614695D01*
X5115761Y-29614695D01*
X5117117Y-29695712D01*
X5116546Y-29697426D01*
X5117330Y-29708470D01*
X5117682Y-29729442D01*
X5119057Y-29732762D01*
X5119312Y-29736346D01*
X5126318Y-29754654D01*
X5175658Y-29849683D01*
X5180233Y-29860728D01*
X5183389Y-29864574D01*
X5184380Y-29866482D01*
X5186374Y-29868211D01*
X5192669Y-29875882D01*
X5242771Y-29923815D01*
X5249687Y-29931790D01*
X5253836Y-29934401D01*
X5255441Y-29935937D01*
X5257881Y-29936947D01*
X5266278Y-29942233D01*
X5356549Y-29985661D01*
X5363523Y-29990828D01*
X5378157Y-29996056D01*
X5379824Y-29996858D01*
X5380544Y-29996909D01*
X5381983Y-29997423D01*
X5555526Y-30039171D01*
X5630547Y-30075262D01*
X5656324Y-30099924D01*
X5687549Y-30160063D01*
X5688361Y-30208528D01*
X5659954Y-30267576D01*
X5635292Y-30293354D01*
X5575543Y-30324376D01*
X5379297Y-30325840D01*
X5228268Y-30277385D01*
X5189348Y-30280151D01*
X5154449Y-30297601D01*
X5128884Y-30327077D01*
X5116546Y-30364093D01*
X5119312Y-30403013D01*
X5136762Y-30437912D01*
X5166238Y-30463477D01*
X5184138Y-30471468D01*
X5327222Y-30517374D01*
X5339109Y-30522298D01*
X5344101Y-30522789D01*
X5346110Y-30523434D01*
X5348744Y-30523246D01*
X5358618Y-30524219D01*
X5581573Y-30522556D01*
X5584206Y-30523434D01*
X5598311Y-30522431D01*
X5616222Y-30522298D01*
X5619542Y-30520922D01*
X5623126Y-30520668D01*
X5641434Y-30513662D01*
X5736462Y-30464322D01*
X5747509Y-30459747D01*
X5751355Y-30456589D01*
X5753262Y-30455600D01*
X5754992Y-30453605D01*
X5762662Y-30447310D01*
X5810595Y-30397207D01*
X5818570Y-30390292D01*
X5821181Y-30386142D01*
X5822718Y-30384537D01*
X5823729Y-30382095D01*
X5829013Y-30373701D01*
X5868951Y-30290683D01*
X5870336Y-30289299D01*
X5874788Y-30278549D01*
X5883638Y-30260155D01*
X5883892Y-30256571D01*
X5885268Y-30253251D01*
X5887189Y-30233742D01*
X5885832Y-30152724D01*
X5886404Y-30151011D01*
X5885619Y-30139966D01*
X5885268Y-30118995D01*
X5883892Y-30115674D01*
X5883638Y-30112091D01*
X5876632Y-30093782D01*
X5827289Y-29998748D01*
X5822717Y-29987708D01*
X5819561Y-29983862D01*
X5818570Y-29981954D01*
X5816572Y-29980221D01*
X5810280Y-29972555D01*
X5760179Y-29924623D01*
X5753262Y-29916647D01*
X5749112Y-29914034D01*
X5747508Y-29912500D01*
X5745068Y-29911489D01*
X5736672Y-29906204D01*
X5646400Y-29862775D01*
X5639427Y-29857609D01*
X5624794Y-29852381D01*
X5623126Y-29851579D01*
X5622403Y-29851527D01*
X5620966Y-29851014D01*
X5447423Y-29809265D01*
X5372400Y-29773173D01*
X5346627Y-29748515D01*
X5315400Y-29688372D01*
X5314588Y-29639908D01*
X5342995Y-29580860D01*
X5367657Y-29555083D01*
X5427405Y-29524061D01*
X5623651Y-29522597D01*
X5774681Y-29571053D01*
X5813601Y-29568287D01*
X5848500Y-29550837D01*
X5874065Y-29521361D01*
X5886404Y-29484345D01*
X5883637Y-29445425D01*
X5873034Y-29424219D01*
X6115761Y-29424219D01*
X6117682Y-30443728D01*
X6132614Y-30479776D01*
X6160204Y-30507366D01*
X6196252Y-30522298D01*
X6215761Y-30524219D01*
X6452561Y-30522453D01*
X6466363Y-30523434D01*
X6471290Y-30522313D01*
X6473365Y-30522298D01*
X6475807Y-30521286D01*
X6485479Y-30519087D01*
X6613856Y-30474678D01*
X6616223Y-30474678D01*
X6628215Y-30469710D01*
X6646236Y-30463477D01*
X6648951Y-30461122D01*
X6652271Y-30459747D01*
X6667424Y-30447310D01*
X6761441Y-30350920D01*
X6770951Y-30342673D01*
X6773617Y-30338437D01*
X6775099Y-30336918D01*
X6776110Y-30334476D01*
X6781394Y-30326082D01*
X6824822Y-30235810D01*
X6829989Y-30228837D01*
X6835217Y-30214202D01*
X6836019Y-30212536D01*
X6836070Y-30211815D01*
X6836584Y-30210377D01*
X6881163Y-30025064D01*
X6885268Y-30015156D01*
X6886460Y-30003046D01*
X6887071Y-30000508D01*
X6886853Y-29999049D01*
X6887189Y-29995647D01*
X6885561Y-29858073D01*
X6886347Y-29852790D01*
X7830047Y-29852790D01*
X7831674Y-29990363D01*
X7830165Y-30000508D01*
X7831936Y-30012486D01*
X7831968Y-30015156D01*
X7832532Y-30016519D01*
X7833033Y-30019901D01*
X7880537Y-30202980D01*
X7881217Y-30212536D01*
X7886808Y-30227148D01*
X7887247Y-30228837D01*
X7887677Y-30229417D01*
X7888223Y-30230844D01*
X7937559Y-30325866D01*
X7942137Y-30336918D01*
X7945295Y-30340766D01*
X7946285Y-30342672D01*
X7948279Y-30344401D01*
X7954574Y-30352071D01*
X8040519Y-30435902D01*
X8041524Y-30437912D01*
X8051048Y-30446172D01*
X8064965Y-30459747D01*
X8068284Y-30461122D01*
X8071000Y-30463477D01*
X8088900Y-30471468D01*
X8231984Y-30517374D01*
X8243871Y-30522298D01*
X8248863Y-30522789D01*
X8250872Y-30523434D01*
X8253506Y-30523246D01*
X8263380Y-30524219D01*
X8359522Y-30522609D01*
X8371125Y-30523434D01*
X8375961Y-30522334D01*
X8378127Y-30522298D01*
X8380569Y-30521286D01*
X8390241Y-30519087D01*
X8518618Y-30474678D01*
X8520985Y-30474678D01*
X8532977Y-30469710D01*
X8550998Y-30463477D01*
X8553713Y-30461122D01*
X8557033Y-30459747D01*
X8572186Y-30447310D01*
X8632242Y-30384537D01*
X8647173Y-30348488D01*
X8647172Y-30309470D01*
X8632241Y-30273422D01*
X8604650Y-30245832D01*
X8568602Y-30230901D01*
X8529584Y-30230902D01*
X8493536Y-30245833D01*
X8478382Y-30258270D01*
X8449052Y-30288927D01*
X8346441Y-30324422D01*
X8282954Y-30325485D01*
X8176214Y-30291240D01*
X8109075Y-30225752D01*
X8088499Y-30186123D01*
X8830047Y-30186123D01*
X8831403Y-30267139D01*
X8830832Y-30268853D01*
X8831616Y-30279897D01*
X8831968Y-30300870D01*
X8833343Y-30304190D01*
X8833598Y-30307773D01*
X8840604Y-30326082D01*
X8887641Y-30416677D01*
X8890790Y-30426123D01*
X8895164Y-30431167D01*
X8898666Y-30437911D01*
X8908137Y-30446125D01*
X8916354Y-30455600D01*
X8926224Y-30461812D01*
X8928142Y-30463476D01*
X8929682Y-30463989D01*
X8932945Y-30466043D01*
X9015962Y-30505981D01*
X9017347Y-30507366D01*
X9028096Y-30511818D01*
X9046491Y-30520668D01*
X9050074Y-30520922D01*
X9053395Y-30522298D01*
X9072904Y-30524219D01*
X9295859Y-30522556D01*
X9298492Y-30523434D01*
X9312597Y-30522431D01*
X9330508Y-30522298D01*
X9333828Y-30520922D01*
X9337412Y-30520668D01*
X9355720Y-30513662D01*
X9360228Y-30511321D01*
X9386728Y-30522298D01*
X9425746Y-30522298D01*
X9461794Y-30507366D01*
X9489384Y-30479776D01*
X9504316Y-30443728D01*
X9506237Y-30424219D01*
X9504773Y-30010187D01*
X9505451Y-30008154D01*
X9504730Y-29998005D01*
X9504439Y-29915952D01*
X9505452Y-29912916D01*
X9504375Y-29897770D01*
X9504316Y-29880900D01*
X9502940Y-29877579D01*
X9502686Y-29873996D01*
X9495680Y-29855687D01*
X9448640Y-29765089D01*
X9446128Y-29757552D01*
X9782428Y-29757552D01*
X9784349Y-30443728D01*
X9799281Y-30479776D01*
X9826871Y-30507366D01*
X9862919Y-30522298D01*
X9901937Y-30522298D01*
X9937985Y-30507366D01*
X9965575Y-30479776D01*
X9980507Y-30443728D01*
X9982428Y-30424219D01*
X9981165Y-29973428D01*
X9993385Y-29948028D01*
X10353857Y-29948028D01*
X10355559Y-30218483D01*
X10354642Y-30221235D01*
X10355667Y-30235661D01*
X10355778Y-30253251D01*
X10357153Y-30256571D01*
X10357408Y-30260155D01*
X10364414Y-30278463D01*
X10413751Y-30373487D01*
X10418328Y-30384537D01*
X10421486Y-30388385D01*
X10422476Y-30390291D01*
X10424470Y-30392020D01*
X10430765Y-30399690D01*
X10480865Y-30447623D01*
X10487783Y-30455600D01*
X10491932Y-30458211D01*
X10493537Y-30459747D01*
X10495977Y-30460757D01*
X10504374Y-30466043D01*
X10587391Y-30505981D01*
X10588776Y-30507366D01*
X10599525Y-30511818D01*
X10617920Y-30520668D01*
X10621503Y-30520922D01*
X10624824Y-30522298D01*
X10644333Y-30524219D01*
X10819840Y-30522613D01*
X10822302Y-30523434D01*
X10835917Y-30522466D01*
X10854318Y-30522298D01*
X10857638Y-30520922D01*
X10861222Y-30520668D01*
X10879530Y-30513662D01*
X10884038Y-30511321D01*
X10910538Y-30522298D01*
X10949556Y-30522298D01*
X10985604Y-30507366D01*
X11013194Y-30479776D01*
X11028126Y-30443728D01*
X11030047Y-30424219D01*
X11028970Y-29852790D01*
X12020524Y-29852790D01*
X12022151Y-29990363D01*
X12020642Y-30000508D01*
X12022413Y-30012486D01*
X12022445Y-30015156D01*
X12023009Y-30016519D01*
X12023510Y-30019901D01*
X12071014Y-30202980D01*
X12071694Y-30212536D01*
X12077285Y-30227148D01*
X12077724Y-30228837D01*
X12078154Y-30229417D01*
X12078700Y-30230844D01*
X12128036Y-30325866D01*
X12132614Y-30336918D01*
X12135772Y-30340766D01*
X12136762Y-30342672D01*
X12138756Y-30344401D01*
X12145051Y-30352071D01*
X12230996Y-30435902D01*
X12232001Y-30437912D01*
X12241525Y-30446172D01*
X12255442Y-30459747D01*
X12258761Y-30461122D01*
X12261477Y-30463477D01*
X12279377Y-30471468D01*
X12422461Y-30517374D01*
X12434348Y-30522298D01*
X12439340Y-30522789D01*
X12441349Y-30523434D01*
X12443983Y-30523246D01*
X12453857Y-30524219D01*
X12549999Y-30522609D01*
X12561602Y-30523434D01*
X12566438Y-30522334D01*
X12568604Y-30522298D01*
X12571046Y-30521286D01*
X12580718Y-30519087D01*
X12709095Y-30474678D01*
X12711462Y-30474678D01*
X12723454Y-30469710D01*
X12741475Y-30463477D01*
X12744190Y-30461122D01*
X12747510Y-30459747D01*
X12762663Y-30447310D01*
X12822719Y-30384537D01*
X12837650Y-30348488D01*
X12837649Y-30309470D01*
X12822718Y-30273422D01*
X12795127Y-30245832D01*
X12759079Y-30230901D01*
X12720061Y-30230902D01*
X12684013Y-30245833D01*
X12668859Y-30258270D01*
X12639529Y-30288927D01*
X12536918Y-30324422D01*
X12473431Y-30325485D01*
X12366691Y-30291240D01*
X12299552Y-30225752D01*
X12263931Y-30157145D01*
X12220452Y-29989580D01*
X12219046Y-29870773D01*
X12259286Y-29703500D01*
X12295208Y-29628830D01*
X12362515Y-29559824D01*
X12466033Y-29524015D01*
X12529519Y-29522952D01*
X12636700Y-29557339D01*
X12684013Y-29602604D01*
X12720062Y-29617535D01*
X12759080Y-29617535D01*
X12795128Y-29602604D01*
X12822718Y-29575014D01*
X12837649Y-29538966D01*
X12837649Y-29499948D01*
X12822718Y-29463899D01*
X12810281Y-29448746D01*
X12784644Y-29424219D01*
X13068143Y-29424219D01*
X13069986Y-30265676D01*
X13068928Y-30268853D01*
X13070027Y-30284327D01*
X13070064Y-30300870D01*
X13071439Y-30304190D01*
X13071694Y-30307773D01*
X13078700Y-30326082D01*
X13125737Y-30416677D01*
X13128886Y-30426123D01*
X13133260Y-30431167D01*
X13136762Y-30437911D01*
X13146233Y-30446125D01*
X13154450Y-30455600D01*
X13164320Y-30461812D01*
X13166238Y-30463476D01*
X13167778Y-30463989D01*
X13171041Y-30466043D01*
X13284587Y-30520668D01*
X13323507Y-30523434D01*
X13360523Y-30511095D01*
X13390000Y-30485530D01*
X13407449Y-30450632D01*
X13410214Y-30411712D01*
X13397876Y-30374696D01*
X13372311Y-30345219D01*
X13355721Y-30334776D01*
X13290391Y-30303346D01*
X13268097Y-30260408D01*
X13267413Y-29948028D01*
X13544334Y-29948028D01*
X13546036Y-30218483D01*
X13545119Y-30221235D01*
X13546144Y-30235661D01*
X13546255Y-30253251D01*
X13547630Y-30256571D01*
X13547885Y-30260155D01*
X13554891Y-30278463D01*
X13604228Y-30373487D01*
X13608805Y-30384537D01*
X13611963Y-30388385D01*
X13612953Y-30390291D01*
X13614947Y-30392020D01*
X13621242Y-30399690D01*
X13671342Y-30447623D01*
X13678260Y-30455600D01*
X13682409Y-30458211D01*
X13684014Y-30459747D01*
X13686454Y-30460757D01*
X13694851Y-30466043D01*
X13777868Y-30505981D01*
X13779253Y-30507366D01*
X13790002Y-30511818D01*
X13808397Y-30520668D01*
X13811980Y-30520922D01*
X13815301Y-30522298D01*
X13834810Y-30524219D01*
X13962966Y-30522702D01*
X13965160Y-30523434D01*
X13977942Y-30522525D01*
X13997176Y-30522298D01*
X14000496Y-30520922D01*
X14004080Y-30520668D01*
X14022388Y-30513662D01*
X14117416Y-30464322D01*
X14128463Y-30459747D01*
X14132309Y-30456589D01*
X14134216Y-30455600D01*
X14135946Y-30453605D01*
X14143616Y-30447310D01*
X14191549Y-30397207D01*
X14199524Y-30390292D01*
X14202135Y-30386142D01*
X14203672Y-30384537D01*
X14204683Y-30382095D01*
X14209967Y-30373701D01*
X14249905Y-30290683D01*
X14251290Y-30289299D01*
X14255742Y-30278549D01*
X14264592Y-30260155D01*
X14264846Y-30256571D01*
X14266222Y-30253251D01*
X14268143Y-30233742D01*
X14266440Y-29963286D01*
X14267358Y-29960535D01*
X14266469Y-29948028D01*
X14449096Y-29948028D01*
X14450798Y-30218483D01*
X14449881Y-30221235D01*
X14450906Y-30235661D01*
X14451017Y-30253251D01*
X14452392Y-30256571D01*
X14452647Y-30260155D01*
X14459653Y-30278463D01*
X14508990Y-30373487D01*
X14513567Y-30384537D01*
X14516725Y-30388385D01*
X14517715Y-30390291D01*
X14519709Y-30392020D01*
X14526004Y-30399690D01*
X14576104Y-30447623D01*
X14583022Y-30455600D01*
X14587171Y-30458211D01*
X14588776Y-30459747D01*
X14591216Y-30460757D01*
X14599613Y-30466043D01*
X14682630Y-30505981D01*
X14684015Y-30507366D01*
X14694764Y-30511818D01*
X14713159Y-30520668D01*
X14716742Y-30520922D01*
X14720063Y-30522298D01*
X14739572Y-30524219D01*
X14915079Y-30522613D01*
X14917541Y-30523434D01*
X14931156Y-30522466D01*
X14949557Y-30522298D01*
X14952877Y-30520922D01*
X14956461Y-30520668D01*
X14974769Y-30513662D01*
X15086597Y-30455600D01*
X15112162Y-30426123D01*
X15124500Y-30389107D01*
X15121735Y-30350187D01*
X15104286Y-30315289D01*
X15074809Y-30289724D01*
X15037793Y-30277385D01*
X14998873Y-30280151D01*
X14980564Y-30287157D01*
X14908807Y-30324413D01*
X14765478Y-30325724D01*
X14705735Y-30296983D01*
X14679961Y-30272324D01*
X14648963Y-30212620D01*
X14647462Y-29974200D01*
X14676330Y-29914193D01*
X14700992Y-29888416D01*
X14760811Y-29857357D01*
X14904141Y-29856046D01*
X14998873Y-29901620D01*
X15037793Y-29904386D01*
X15074809Y-29892047D01*
X15104286Y-29866482D01*
X15121735Y-29831584D01*
X15124500Y-29792664D01*
X15112162Y-29755648D01*
X15086597Y-29726171D01*
X15070007Y-29715728D01*
X14986989Y-29675789D01*
X14985605Y-29674405D01*
X14974855Y-29669952D01*
X14956461Y-29661103D01*
X14952877Y-29660848D01*
X14949557Y-29659473D01*
X14930048Y-29657552D01*
X14754540Y-29659157D01*
X14752079Y-29658337D01*
X14738463Y-29659304D01*
X14720063Y-29659473D01*
X14716742Y-29660848D01*
X14713159Y-29661103D01*
X14694850Y-29668109D01*
X14599816Y-29717451D01*
X14588776Y-29722024D01*
X14584930Y-29725179D01*
X14583022Y-29726171D01*
X14581289Y-29728168D01*
X14573623Y-29734461D01*
X14525691Y-29784561D01*
X14517715Y-29791479D01*
X14515102Y-29795628D01*
X14513568Y-29797233D01*
X14512557Y-29799672D01*
X14507272Y-29808069D01*
X14467333Y-29891086D01*
X14465949Y-29892471D01*
X14461496Y-29903220D01*
X14452647Y-29921615D01*
X14452392Y-29925198D01*
X14451017Y-29928519D01*
X14449096Y-29948028D01*
X14266469Y-29948028D01*
X14266332Y-29946108D01*
X14266222Y-29928519D01*
X14264846Y-29925198D01*
X14264592Y-29921615D01*
X14257586Y-29903306D01*
X14208243Y-29808272D01*
X14203671Y-29797232D01*
X14200515Y-29793386D01*
X14199524Y-29791478D01*
X14197526Y-29789745D01*
X14191234Y-29782079D01*
X14141133Y-29734147D01*
X14134216Y-29726171D01*
X14130066Y-29723558D01*
X14128462Y-29722024D01*
X14126022Y-29721013D01*
X14117626Y-29715728D01*
X14034608Y-29675789D01*
X14033224Y-29674405D01*
X14022474Y-29669952D01*
X14004080Y-29661103D01*
X14000496Y-29660848D01*
X13997176Y-29659473D01*
X13977667Y-29657552D01*
X13849510Y-29659068D01*
X13847317Y-29658337D01*
X13834534Y-29659245D01*
X13815301Y-29659473D01*
X13811980Y-29660848D01*
X13808397Y-29661103D01*
X13790088Y-29668109D01*
X13695054Y-29717451D01*
X13684014Y-29722024D01*
X13680168Y-29725179D01*
X13678260Y-29726171D01*
X13676527Y-29728168D01*
X13668861Y-29734461D01*
X13620929Y-29784561D01*
X13612953Y-29791479D01*
X13610340Y-29795628D01*
X13608806Y-29797233D01*
X13607795Y-29799672D01*
X13602510Y-29808069D01*
X13562571Y-29891086D01*
X13561187Y-29892471D01*
X13556734Y-29903220D01*
X13547885Y-29921615D01*
X13547630Y-29925198D01*
X13546255Y-29928519D01*
X13544334Y-29948028D01*
X13267413Y-29948028D01*
X13266265Y-29424219D01*
X15353858Y-29424219D01*
X15355779Y-30443728D01*
X15370711Y-30479776D01*
X15398301Y-30507366D01*
X15434349Y-30522298D01*
X15473367Y-30522298D01*
X15509415Y-30507366D01*
X15537005Y-30479776D01*
X15551937Y-30443728D01*
X15553858Y-30424219D01*
X15553463Y-30214852D01*
X15768052Y-30498674D01*
X15801627Y-30518553D01*
X15840253Y-30524071D01*
X15878050Y-30514388D01*
X15909265Y-30490977D01*
X15929144Y-30457403D01*
X15934662Y-30418777D01*
X15924979Y-30380979D01*
X15914810Y-30364219D01*
X15679595Y-30053117D01*
X15917957Y-29813110D01*
X15932888Y-29777061D01*
X15932888Y-29738043D01*
X15917957Y-29701995D01*
X15890367Y-29674405D01*
X15854319Y-29659474D01*
X15815301Y-29659474D01*
X15779252Y-29674405D01*
X15764099Y-29686842D01*
X15552869Y-29899530D01*
X15551997Y-29436726D01*
X16783215Y-29436726D01*
X16787562Y-29455842D01*
X17118823Y-30443734D01*
X17119314Y-30450632D01*
X17124847Y-30461699D01*
X17128886Y-30473742D01*
X17133569Y-30479141D01*
X17136764Y-30485531D01*
X17146235Y-30493746D01*
X17154451Y-30503218D01*
X17160839Y-30506412D01*
X17166240Y-30511096D01*
X17178141Y-30515063D01*
X17189350Y-30520667D01*
X17196474Y-30521173D01*
X17203256Y-30523434D01*
X17215765Y-30522544D01*
X17228270Y-30523434D01*
X17235048Y-30521174D01*
X17242176Y-30520668D01*
X17253392Y-30515059D01*
X17265286Y-30511095D01*
X17270683Y-30506414D01*
X17277075Y-30503218D01*
X17285293Y-30493742D01*
X17294762Y-30485530D01*
X17297955Y-30479143D01*
X17302640Y-30473742D01*
X17310631Y-30455842D01*
X17526228Y-29805171D01*
X17734811Y-29805171D01*
X17736541Y-30037288D01*
X17734929Y-30048127D01*
X17736712Y-30060188D01*
X17736732Y-30062775D01*
X17737296Y-30064138D01*
X17737797Y-30067520D01*
X17785301Y-30250599D01*
X17785981Y-30260155D01*
X17791572Y-30274767D01*
X17792011Y-30276456D01*
X17792441Y-30277036D01*
X17792987Y-30278463D01*
X17842324Y-30373487D01*
X17846901Y-30384537D01*
X17850059Y-30388385D01*
X17851049Y-30390291D01*
X17853043Y-30392020D01*
X17859338Y-30399690D01*
X17909438Y-30447623D01*
X17916356Y-30455600D01*
X17920505Y-30458211D01*
X17922110Y-30459747D01*
X17924550Y-30460757D01*
X17932947Y-30466043D01*
X18015964Y-30505981D01*
X18017349Y-30507366D01*
X18028098Y-30511818D01*
X18046493Y-30520668D01*
X18050076Y-30520922D01*
X18053397Y-30522298D01*
X18072906Y-30524219D01*
X18153923Y-30522862D01*
X18155637Y-30523434D01*
X18166681Y-30522649D01*
X18187653Y-30522298D01*
X18190973Y-30520922D01*
X18194557Y-30520668D01*
X18212865Y-30513662D01*
X18307893Y-30464322D01*
X18318940Y-30459747D01*
X18322786Y-30456589D01*
X18324693Y-30455600D01*
X18326423Y-30453605D01*
X18334093Y-30447310D01*
X18382026Y-30397207D01*
X18390001Y-30390292D01*
X18392612Y-30386142D01*
X18394149Y-30384537D01*
X18395160Y-30382095D01*
X18400444Y-30373701D01*
X18443872Y-30283429D01*
X18449039Y-30276456D01*
X18454267Y-30261821D01*
X18455069Y-30260155D01*
X18455120Y-30259434D01*
X18455634Y-30257996D01*
X18500213Y-30072683D01*
X18504318Y-30062775D01*
X18505510Y-30050665D01*
X18506121Y-30048127D01*
X18505903Y-30046668D01*
X18506239Y-30043266D01*
X18504508Y-29811148D01*
X18506121Y-29800310D01*
X18504337Y-29788248D01*
X18504318Y-29785662D01*
X18503753Y-29784298D01*
X18503253Y-29780917D01*
X18455748Y-29597837D01*
X18455069Y-29588282D01*
X18449476Y-29573666D01*
X18449039Y-29571981D01*
X18448609Y-29571401D01*
X18448063Y-29569973D01*
X18398720Y-29474939D01*
X18394148Y-29463899D01*
X18390992Y-29460053D01*
X18390001Y-29458145D01*
X18388003Y-29456412D01*
X18381711Y-29448746D01*
X18331610Y-29400814D01*
X18324693Y-29392838D01*
X18320543Y-29390225D01*
X18318939Y-29388691D01*
X18316499Y-29387680D01*
X18308103Y-29382395D01*
X18225085Y-29342456D01*
X18223701Y-29341072D01*
X18212951Y-29336619D01*
X18194557Y-29327770D01*
X18190973Y-29327515D01*
X18187653Y-29326140D01*
X18168144Y-29324219D01*
X18087126Y-29325575D01*
X18085413Y-29325004D01*
X18074368Y-29325788D01*
X18053397Y-29326140D01*
X18050076Y-29327515D01*
X18046493Y-29327770D01*
X18028184Y-29334776D01*
X17933150Y-29384118D01*
X17922110Y-29388691D01*
X17918264Y-29391846D01*
X17916356Y-29392838D01*
X17914623Y-29394835D01*
X17906957Y-29401128D01*
X17859025Y-29451228D01*
X17851049Y-29458146D01*
X17848436Y-29462295D01*
X17846902Y-29463900D01*
X17845891Y-29466339D01*
X17840606Y-29474736D01*
X17797177Y-29565007D01*
X17792011Y-29571981D01*
X17786783Y-29586613D01*
X17785981Y-29588282D01*
X17785929Y-29589004D01*
X17785416Y-29590442D01*
X17740836Y-29775752D01*
X17736732Y-29785662D01*
X17735539Y-29797771D01*
X17734929Y-29800310D01*
X17735146Y-29801768D01*
X17734811Y-29805171D01*
X17526228Y-29805171D01*
X17648311Y-29436727D01*
X17645545Y-29397807D01*
X17628095Y-29362908D01*
X17598619Y-29337343D01*
X17561603Y-29325004D01*
X17522683Y-29327771D01*
X17487784Y-29345220D01*
X17462219Y-29374696D01*
X17454228Y-29392597D01*
X17216196Y-30110973D01*
X16969307Y-29374696D01*
X16943742Y-29345220D01*
X16908843Y-29327770D01*
X16869923Y-29325004D01*
X16832907Y-29337342D01*
X16803431Y-29362907D01*
X16785981Y-29397806D01*
X16783215Y-29436726D01*
X15551997Y-29436726D01*
X15551937Y-29404710D01*
X15537005Y-29368662D01*
X15509415Y-29341072D01*
X15473367Y-29326140D01*
X15434349Y-29326140D01*
X15398301Y-29341072D01*
X15370711Y-29368662D01*
X15355779Y-29404710D01*
X15353858Y-29424219D01*
X13266265Y-29424219D01*
X13266222Y-29404710D01*
X13251290Y-29368662D01*
X13223700Y-29341072D01*
X13187652Y-29326140D01*
X13148634Y-29326140D01*
X13112586Y-29341072D01*
X13084996Y-29368662D01*
X13070064Y-29404710D01*
X13068143Y-29424219D01*
X12784644Y-29424219D01*
X12771518Y-29411661D01*
X12770951Y-29410526D01*
X12764325Y-29404779D01*
X12747509Y-29388691D01*
X12744190Y-29387316D01*
X12741475Y-29384961D01*
X12723574Y-29376970D01*
X12580494Y-29331065D01*
X12568604Y-29326140D01*
X12563610Y-29325648D01*
X12561602Y-29325004D01*
X12558968Y-29325191D01*
X12549095Y-29324219D01*
X12452951Y-29325828D01*
X12441349Y-29325004D01*
X12436513Y-29326103D01*
X12434348Y-29326140D01*
X12431906Y-29327151D01*
X12422234Y-29329351D01*
X12293860Y-29373759D01*
X12291491Y-29373759D01*
X12279494Y-29378728D01*
X12261477Y-29384961D01*
X12258761Y-29387316D01*
X12255443Y-29388691D01*
X12240289Y-29401127D01*
X12146272Y-29497516D01*
X12136762Y-29505765D01*
X12134095Y-29510001D01*
X12132615Y-29511519D01*
X12131604Y-29513958D01*
X12126319Y-29522355D01*
X12082890Y-29612626D01*
X12077724Y-29619600D01*
X12072496Y-29634232D01*
X12071694Y-29635901D01*
X12071642Y-29636623D01*
X12071129Y-29638061D01*
X12026549Y-29823371D01*
X12022445Y-29833281D01*
X12021252Y-29845390D01*
X12020642Y-29847929D01*
X12020859Y-29849387D01*
X12020524Y-29852790D01*
X11028970Y-29852790D01*
X11028867Y-29798203D01*
X11029261Y-29792664D01*
X11028854Y-29791445D01*
X11028126Y-29404710D01*
X11013194Y-29368662D01*
X10985604Y-29341072D01*
X10949556Y-29326140D01*
X10910538Y-29326140D01*
X10874490Y-29341072D01*
X10846900Y-29368662D01*
X10831968Y-29404710D01*
X10830047Y-29424219D01*
X10830486Y-29657591D01*
X10659301Y-29659157D01*
X10656840Y-29658337D01*
X10643224Y-29659304D01*
X10624824Y-29659473D01*
X10621503Y-29660848D01*
X10617920Y-29661103D01*
X10599611Y-29668109D01*
X10504577Y-29717451D01*
X10493537Y-29722024D01*
X10489691Y-29725179D01*
X10487783Y-29726171D01*
X10486050Y-29728168D01*
X10478384Y-29734461D01*
X10430452Y-29784561D01*
X10422476Y-29791479D01*
X10419863Y-29795628D01*
X10418329Y-29797233D01*
X10417318Y-29799672D01*
X10412033Y-29808069D01*
X10372094Y-29891086D01*
X10370710Y-29892471D01*
X10366257Y-29903220D01*
X10357408Y-29921615D01*
X10357153Y-29925198D01*
X10355778Y-29928519D01*
X10353857Y-29948028D01*
X9993385Y-29948028D01*
X10009662Y-29914193D01*
X10034324Y-29888416D01*
X10094463Y-29857191D01*
X10187651Y-29855631D01*
X10223699Y-29840699D01*
X10251289Y-29813109D01*
X10266221Y-29777061D01*
X10266221Y-29738043D01*
X10251289Y-29701995D01*
X10223699Y-29674405D01*
X10187651Y-29659473D01*
X10168142Y-29657552D01*
X10087124Y-29658908D01*
X10085411Y-29658337D01*
X10074366Y-29659121D01*
X10053395Y-29659473D01*
X10050074Y-29660848D01*
X10046491Y-29661103D01*
X10028182Y-29668109D01*
X9964666Y-29701086D01*
X9937985Y-29674405D01*
X9901937Y-29659473D01*
X9862919Y-29659473D01*
X9826871Y-29674405D01*
X9799281Y-29701995D01*
X9784349Y-29738043D01*
X9782428Y-29757552D01*
X9446128Y-29757552D01*
X9445494Y-29755648D01*
X9441121Y-29750605D01*
X9437618Y-29743859D01*
X9428142Y-29735641D01*
X9419929Y-29726171D01*
X9410057Y-29719957D01*
X9408141Y-29718295D01*
X9406602Y-29717781D01*
X9403339Y-29715728D01*
X9320321Y-29675789D01*
X9318937Y-29674405D01*
X9308187Y-29669952D01*
X9289793Y-29661103D01*
X9286209Y-29660848D01*
X9282889Y-29659473D01*
X9263380Y-29657552D01*
X9087872Y-29659157D01*
X9085411Y-29658337D01*
X9071795Y-29659304D01*
X9053395Y-29659473D01*
X9050074Y-29660848D01*
X9046491Y-29661103D01*
X9028182Y-29668109D01*
X8916354Y-29726171D01*
X8890790Y-29755648D01*
X8878451Y-29792664D01*
X8881217Y-29831584D01*
X8898666Y-29866483D01*
X8928143Y-29892047D01*
X8965159Y-29904386D01*
X9004079Y-29901620D01*
X9022387Y-29894614D01*
X9094143Y-29857357D01*
X9237473Y-29856046D01*
X9283989Y-29878424D01*
X9306311Y-29921416D01*
X9306358Y-29934841D01*
X9289829Y-29943423D01*
X9088043Y-29944928D01*
X9085411Y-29944051D01*
X9071305Y-29945053D01*
X9053395Y-29945187D01*
X9050074Y-29946562D01*
X9046491Y-29946817D01*
X9028182Y-29953823D01*
X8937584Y-30000862D01*
X8928143Y-30004009D01*
X8923100Y-30008381D01*
X8916354Y-30011885D01*
X8908136Y-30021360D01*
X8898666Y-30029574D01*
X8892452Y-30039445D01*
X8890790Y-30041362D01*
X8890276Y-30042900D01*
X8888223Y-30046164D01*
X8848284Y-30129181D01*
X8846900Y-30130566D01*
X8842447Y-30141315D01*
X8833598Y-30159710D01*
X8833343Y-30163293D01*
X8831968Y-30166614D01*
X8830047Y-30186123D01*
X8088499Y-30186123D01*
X8073454Y-30157145D01*
X8029975Y-29989580D01*
X8028569Y-29870773D01*
X8068809Y-29703500D01*
X8104731Y-29628830D01*
X8172038Y-29559824D01*
X8275556Y-29524015D01*
X8339042Y-29522952D01*
X8446223Y-29557339D01*
X8493536Y-29602604D01*
X8529585Y-29617535D01*
X8568603Y-29617535D01*
X8604651Y-29602604D01*
X8632241Y-29575014D01*
X8647172Y-29538966D01*
X8647172Y-29499948D01*
X8632241Y-29463899D01*
X8619804Y-29448746D01*
X8581041Y-29411661D01*
X8580474Y-29410526D01*
X8573848Y-29404779D01*
X8557032Y-29388691D01*
X8553713Y-29387316D01*
X8550998Y-29384961D01*
X8533097Y-29376970D01*
X8390017Y-29331065D01*
X8378127Y-29326140D01*
X8373133Y-29325648D01*
X8371125Y-29325004D01*
X8368491Y-29325191D01*
X8358618Y-29324219D01*
X8262474Y-29325828D01*
X8250872Y-29325004D01*
X8246036Y-29326103D01*
X8243871Y-29326140D01*
X8241429Y-29327151D01*
X8231757Y-29329351D01*
X8103383Y-29373759D01*
X8101014Y-29373759D01*
X8089017Y-29378728D01*
X8071000Y-29384961D01*
X8068284Y-29387316D01*
X8064966Y-29388691D01*
X8049812Y-29401127D01*
X7955795Y-29497516D01*
X7946285Y-29505765D01*
X7943618Y-29510001D01*
X7942138Y-29511519D01*
X7941127Y-29513958D01*
X7935842Y-29522355D01*
X7892413Y-29612626D01*
X7887247Y-29619600D01*
X7882019Y-29634232D01*
X7881217Y-29635901D01*
X7881165Y-29636623D01*
X7880652Y-29638061D01*
X7836072Y-29823371D01*
X7831968Y-29833281D01*
X7830775Y-29845390D01*
X7830165Y-29847929D01*
X7830382Y-29849387D01*
X7830047Y-29852790D01*
X6886347Y-29852790D01*
X6887071Y-29847929D01*
X6885299Y-29835950D01*
X6885268Y-29833281D01*
X6884703Y-29831917D01*
X6884203Y-29828536D01*
X6836698Y-29645456D01*
X6836019Y-29635901D01*
X6830426Y-29621285D01*
X6829989Y-29619600D01*
X6829559Y-29619020D01*
X6829013Y-29617592D01*
X6779670Y-29522558D01*
X6775098Y-29511519D01*
X6771942Y-29507674D01*
X6770951Y-29505764D01*
X6768953Y-29504031D01*
X6762662Y-29496365D01*
X6676717Y-29412536D01*
X6675712Y-29410526D01*
X6666182Y-29402260D01*
X6652270Y-29388691D01*
X6648951Y-29387316D01*
X6646236Y-29384961D01*
X6628335Y-29376970D01*
X6485255Y-29331065D01*
X6473365Y-29326140D01*
X6468371Y-29325648D01*
X6466363Y-29325004D01*
X6463729Y-29325191D01*
X6453856Y-29324219D01*
X6196252Y-29326140D01*
X6160204Y-29341072D01*
X6132614Y-29368662D01*
X6117682Y-29404710D01*
X6115761Y-29424219D01*
X5873034Y-29424219D01*
X5866188Y-29410526D01*
X5836712Y-29384961D01*
X5818811Y-29376970D01*
X5675731Y-29331065D01*
X5663841Y-29326140D01*
X5658847Y-29325648D01*
X5656839Y-29325004D01*
X5654205Y-29325191D01*
X5644332Y-29324219D01*
X5421376Y-29325881D01*
X5418744Y-29325004D01*
X5404638Y-29326006D01*
X5386728Y-29326140D01*
X5383407Y-29327515D01*
X5379824Y-29327770D01*
X5361515Y-29334776D01*
X5266481Y-29384118D01*
X5255441Y-29388691D01*
X5251595Y-29391846D01*
X5249687Y-29392838D01*
X5247954Y-29394835D01*
X5240288Y-29401128D01*
X5192356Y-29451228D01*
X5184380Y-29458146D01*
X5181767Y-29462295D01*
X5180233Y-29463900D01*
X5179222Y-29466339D01*
X5173937Y-29474736D01*
X5133998Y-29557753D01*
X5132614Y-29559138D01*
X5128161Y-29569887D01*
X5119312Y-29588282D01*
X5119057Y-29591865D01*
X5117682Y-29595186D01*
X5115761Y-29614695D01*
X5004650Y-29614695D01*
X5004650Y-29213108D01*
X18617350Y-29213108D01*
X18617350Y-30635330D01*
G37*
D10*
X20293887Y-7301201D02*
X20233411Y-7270963D01*
X20233411Y-7270963D02*
X20142697Y-7270963D01*
X20142697Y-7270963D02*
X20051982Y-7301201D01*
X20051982Y-7301201D02*
X19991506Y-7361677D01*
X19991506Y-7361677D02*
X19961268Y-7422153D01*
X19961268Y-7422153D02*
X19931030Y-7543105D01*
X19931030Y-7543105D02*
X19931030Y-7633820D01*
X19931030Y-7633820D02*
X19961268Y-7754772D01*
X19961268Y-7754772D02*
X19991506Y-7815248D01*
X19991506Y-7815248D02*
X20051982Y-7875725D01*
X20051982Y-7875725D02*
X20142697Y-7905963D01*
X20142697Y-7905963D02*
X20203173Y-7905963D01*
X20203173Y-7905963D02*
X20293887Y-7875725D01*
X20293887Y-7875725D02*
X20324125Y-7845486D01*
X20324125Y-7845486D02*
X20324125Y-7633820D01*
X20324125Y-7633820D02*
X20203173Y-7633820D01*
X20596268Y-7905963D02*
X20596268Y-7270963D01*
X20596268Y-7270963D02*
X20959125Y-7905963D01*
X20959125Y-7905963D02*
X20959125Y-7270963D01*
X21261506Y-7905963D02*
X21261506Y-7270963D01*
X21261506Y-7270963D02*
X21412696Y-7270963D01*
X21412696Y-7270963D02*
X21503411Y-7301201D01*
X21503411Y-7301201D02*
X21563887Y-7361677D01*
X21563887Y-7361677D02*
X21594125Y-7422153D01*
X21594125Y-7422153D02*
X21624363Y-7543105D01*
X21624363Y-7543105D02*
X21624363Y-7633820D01*
X21624363Y-7633820D02*
X21594125Y-7754772D01*
X21594125Y-7754772D02*
X21563887Y-7815248D01*
X21563887Y-7815248D02*
X21503411Y-7875725D01*
X21503411Y-7875725D02*
X21412696Y-7905963D01*
X21412696Y-7905963D02*
X21261506Y-7905963D01*
X1628731Y-10385486D02*
X1598493Y-10415725D01*
X1598493Y-10415725D02*
X1507779Y-10445963D01*
X1507779Y-10445963D02*
X1447303Y-10445963D01*
X1447303Y-10445963D02*
X1356588Y-10415725D01*
X1356588Y-10415725D02*
X1296112Y-10355248D01*
X1296112Y-10355248D02*
X1265874Y-10294772D01*
X1265874Y-10294772D02*
X1235636Y-10173820D01*
X1235636Y-10173820D02*
X1235636Y-10083105D01*
X1235636Y-10083105D02*
X1265874Y-9962153D01*
X1265874Y-9962153D02*
X1296112Y-9901677D01*
X1296112Y-9901677D02*
X1356588Y-9841201D01*
X1356588Y-9841201D02*
X1447303Y-9810963D01*
X1447303Y-9810963D02*
X1507779Y-9810963D01*
X1507779Y-9810963D02*
X1598493Y-9841201D01*
X1598493Y-9841201D02*
X1628731Y-9871439D01*
X2203255Y-10445963D02*
X1900874Y-10445963D01*
X1900874Y-10445963D02*
X1900874Y-9810963D01*
X2414922Y-10445963D02*
X2414922Y-9810963D01*
X2777779Y-10445963D02*
X2505636Y-10083105D01*
X2777779Y-9810963D02*
X2414922Y-10173820D01*
X3019684Y-10516115D02*
X3019684Y-10008115D01*
X3019684Y-10008115D02*
X3189017Y-10370972D01*
X3189017Y-10370972D02*
X3358351Y-10008115D01*
X3358351Y-10008115D02*
X3358351Y-10516115D01*
X1598493Y-7301201D02*
X1538017Y-7270963D01*
X1538017Y-7270963D02*
X1447303Y-7270963D01*
X1447303Y-7270963D02*
X1356588Y-7301201D01*
X1356588Y-7301201D02*
X1296112Y-7361677D01*
X1296112Y-7361677D02*
X1265874Y-7422153D01*
X1265874Y-7422153D02*
X1235636Y-7543105D01*
X1235636Y-7543105D02*
X1235636Y-7633820D01*
X1235636Y-7633820D02*
X1265874Y-7754772D01*
X1265874Y-7754772D02*
X1296112Y-7815248D01*
X1296112Y-7815248D02*
X1356588Y-7875725D01*
X1356588Y-7875725D02*
X1447303Y-7905963D01*
X1447303Y-7905963D02*
X1507779Y-7905963D01*
X1507779Y-7905963D02*
X1598493Y-7875725D01*
X1598493Y-7875725D02*
X1628731Y-7845486D01*
X1628731Y-7845486D02*
X1628731Y-7633820D01*
X1628731Y-7633820D02*
X1507779Y-7633820D01*
X1900874Y-7905963D02*
X1900874Y-7270963D01*
X1900874Y-7270963D02*
X2263731Y-7905963D01*
X2263731Y-7905963D02*
X2263731Y-7270963D01*
X2566112Y-7905963D02*
X2566112Y-7270963D01*
X2566112Y-7270963D02*
X2717302Y-7270963D01*
X2717302Y-7270963D02*
X2808017Y-7301201D01*
X2808017Y-7301201D02*
X2868493Y-7361677D01*
X2868493Y-7361677D02*
X2898731Y-7422153D01*
X2898731Y-7422153D02*
X2928969Y-7543105D01*
X2928969Y-7543105D02*
X2928969Y-7633820D01*
X2928969Y-7633820D02*
X2898731Y-7754772D01*
X2898731Y-7754772D02*
X2868493Y-7815248D01*
X2868493Y-7815248D02*
X2808017Y-7875725D01*
X2808017Y-7875725D02*
X2717302Y-7905963D01*
X2717302Y-7905963D02*
X2566112Y-7905963D01*
X19870554Y-22510963D02*
X20021744Y-23145963D01*
X20021744Y-23145963D02*
X20142697Y-22692391D01*
X20142697Y-22692391D02*
X20263649Y-23145963D01*
X20263649Y-23145963D02*
X20414840Y-22510963D01*
X21019601Y-23085486D02*
X20989363Y-23115725D01*
X20989363Y-23115725D02*
X20898649Y-23145963D01*
X20898649Y-23145963D02*
X20838173Y-23145963D01*
X20838173Y-23145963D02*
X20747458Y-23115725D01*
X20747458Y-23115725D02*
X20686982Y-23055248D01*
X20686982Y-23055248D02*
X20656744Y-22994772D01*
X20656744Y-22994772D02*
X20626506Y-22873820D01*
X20626506Y-22873820D02*
X20626506Y-22783105D01*
X20626506Y-22783105D02*
X20656744Y-22662153D01*
X20656744Y-22662153D02*
X20686982Y-22601677D01*
X20686982Y-22601677D02*
X20747458Y-22541201D01*
X20747458Y-22541201D02*
X20838173Y-22510963D01*
X20838173Y-22510963D02*
X20898649Y-22510963D01*
X20898649Y-22510963D02*
X20989363Y-22541201D01*
X20989363Y-22541201D02*
X21019601Y-22571439D01*
X21261506Y-23115725D02*
X21352220Y-23145963D01*
X21352220Y-23145963D02*
X21503411Y-23145963D01*
X21503411Y-23145963D02*
X21563887Y-23115725D01*
X21563887Y-23115725D02*
X21594125Y-23085486D01*
X21594125Y-23085486D02*
X21624363Y-23025010D01*
X21624363Y-23025010D02*
X21624363Y-22964534D01*
X21624363Y-22964534D02*
X21594125Y-22904058D01*
X21594125Y-22904058D02*
X21563887Y-22873820D01*
X21563887Y-22873820D02*
X21503411Y-22843582D01*
X21503411Y-22843582D02*
X21382458Y-22813344D01*
X21382458Y-22813344D02*
X21321982Y-22783105D01*
X21321982Y-22783105D02*
X21291744Y-22752867D01*
X21291744Y-22752867D02*
X21261506Y-22692391D01*
X21261506Y-22692391D02*
X21261506Y-22631915D01*
X21261506Y-22631915D02*
X21291744Y-22571439D01*
X21291744Y-22571439D02*
X21321982Y-22541201D01*
X21321982Y-22541201D02*
X21382458Y-22510963D01*
X21382458Y-22510963D02*
X21533649Y-22510963D01*
X21533649Y-22510963D02*
X21624363Y-22541201D01*
X19843340Y-22334675D02*
X21681816Y-22334675D01*
X21049839Y-27590963D02*
X20747458Y-27590963D01*
X20747458Y-27590963D02*
X20717220Y-27893344D01*
X20717220Y-27893344D02*
X20747458Y-27863105D01*
X20747458Y-27863105D02*
X20807934Y-27832867D01*
X20807934Y-27832867D02*
X20959125Y-27832867D01*
X20959125Y-27832867D02*
X21019601Y-27863105D01*
X21019601Y-27863105D02*
X21049839Y-27893344D01*
X21049839Y-27893344D02*
X21080077Y-27953820D01*
X21080077Y-27953820D02*
X21080077Y-28105010D01*
X21080077Y-28105010D02*
X21049839Y-28165486D01*
X21049839Y-28165486D02*
X21019601Y-28195725D01*
X21019601Y-28195725D02*
X20959125Y-28225963D01*
X20959125Y-28225963D02*
X20807934Y-28225963D01*
X20807934Y-28225963D02*
X20747458Y-28195725D01*
X20747458Y-28195725D02*
X20717220Y-28165486D01*
X21261506Y-27590963D02*
X21473172Y-28225963D01*
X21473172Y-28225963D02*
X21684839Y-27590963D01*
X19652839Y349037D02*
X20045934Y349037D01*
X20045934Y349037D02*
X19834267Y107133D01*
X19834267Y107133D02*
X19924982Y107133D01*
X19924982Y107133D02*
X19985458Y76895D01*
X19985458Y76895D02*
X20015696Y46656D01*
X20015696Y46656D02*
X20045934Y-13820D01*
X20045934Y-13820D02*
X20045934Y-165010D01*
X20045934Y-165010D02*
X20015696Y-225486D01*
X20015696Y-225486D02*
X19985458Y-255725D01*
X19985458Y-255725D02*
X19924982Y-285963D01*
X19924982Y-285963D02*
X19743553Y-285963D01*
X19743553Y-285963D02*
X19683077Y-255725D01*
X19683077Y-255725D02*
X19652839Y-225486D01*
X20318077Y-225486D02*
X20348315Y-255725D01*
X20348315Y-255725D02*
X20318077Y-285963D01*
X20318077Y-285963D02*
X20287839Y-255725D01*
X20287839Y-255725D02*
X20318077Y-225486D01*
X20318077Y-225486D02*
X20318077Y-285963D01*
X20559982Y349037D02*
X20953077Y349037D01*
X20953077Y349037D02*
X20741410Y107133D01*
X20741410Y107133D02*
X20832125Y107133D01*
X20832125Y107133D02*
X20892601Y76895D01*
X20892601Y76895D02*
X20922839Y46656D01*
X20922839Y46656D02*
X20953077Y-13820D01*
X20953077Y-13820D02*
X20953077Y-165010D01*
X20953077Y-165010D02*
X20922839Y-225486D01*
X20922839Y-225486D02*
X20892601Y-255725D01*
X20892601Y-255725D02*
X20832125Y-285963D01*
X20832125Y-285963D02*
X20650696Y-285963D01*
X20650696Y-285963D02*
X20590220Y-255725D01*
X20590220Y-255725D02*
X20559982Y-225486D01*
X21134506Y349037D02*
X21346172Y-285963D01*
X21346172Y-285963D02*
X21557839Y349037D01*
X14731785Y4643514D02*
X14701547Y4613275D01*
X14701547Y4613275D02*
X14610833Y4583037D01*
X14610833Y4583037D02*
X14550357Y4583037D01*
X14550357Y4583037D02*
X14459642Y4613275D01*
X14459642Y4613275D02*
X14399166Y4673752D01*
X14399166Y4673752D02*
X14368928Y4734228D01*
X14368928Y4734228D02*
X14338690Y4855180D01*
X14338690Y4855180D02*
X14338690Y4945895D01*
X14338690Y4945895D02*
X14368928Y5066847D01*
X14368928Y5066847D02*
X14399166Y5127323D01*
X14399166Y5127323D02*
X14459642Y5187799D01*
X14459642Y5187799D02*
X14550357Y5218037D01*
X14550357Y5218037D02*
X14610833Y5218037D01*
X14610833Y5218037D02*
X14701547Y5187799D01*
X14701547Y5187799D02*
X14731785Y5157561D01*
X15336547Y4583037D02*
X14973690Y4583037D01*
X15155118Y4583037D02*
X15155118Y5218037D01*
X15155118Y5218037D02*
X15094642Y5127323D01*
X15094642Y5127323D02*
X15034166Y5066847D01*
X15034166Y5066847D02*
X14973690Y5036609D01*
X15941309Y4583037D02*
X15578452Y4583037D01*
X15759880Y4583037D02*
X15759880Y5218037D01*
X15759880Y5218037D02*
X15699404Y5127323D01*
X15699404Y5127323D02*
X15638928Y5066847D01*
X15638928Y5066847D02*
X15578452Y5036609D01*
X14387285Y476037D02*
X14024428Y476037D01*
X14205856Y476037D02*
X14205856Y1111037D01*
X14205856Y1111037D02*
X14145380Y1020323D01*
X14145380Y1020323D02*
X14084904Y959847D01*
X14084904Y959847D02*
X14024428Y929609D01*
X14780380Y1111037D02*
X14840857Y1111037D01*
X14840857Y1111037D02*
X14901333Y1080799D01*
X14901333Y1080799D02*
X14931571Y1050561D01*
X14931571Y1050561D02*
X14961809Y990085D01*
X14961809Y990085D02*
X14992047Y869133D01*
X14992047Y869133D02*
X14992047Y717942D01*
X14992047Y717942D02*
X14961809Y596990D01*
X14961809Y596990D02*
X14931571Y536514D01*
X14931571Y536514D02*
X14901333Y506275D01*
X14901333Y506275D02*
X14840857Y476037D01*
X14840857Y476037D02*
X14780380Y476037D01*
X14780380Y476037D02*
X14719904Y506275D01*
X14719904Y506275D02*
X14689666Y536514D01*
X14689666Y536514D02*
X14659428Y596990D01*
X14659428Y596990D02*
X14629190Y717942D01*
X14629190Y717942D02*
X14629190Y869133D01*
X14629190Y869133D02*
X14659428Y990085D01*
X14659428Y990085D02*
X14689666Y1050561D01*
X14689666Y1050561D02*
X14719904Y1080799D01*
X14719904Y1080799D02*
X14780380Y1111037D01*
X15264190Y899371D02*
X15264190Y264371D01*
X15566571Y566752D02*
X15596809Y506275D01*
X15596809Y506275D02*
X15657285Y476037D01*
X15264190Y566752D02*
X15294428Y506275D01*
X15294428Y506275D02*
X15354904Y476037D01*
X15354904Y476037D02*
X15475857Y476037D01*
X15475857Y476037D02*
X15536333Y506275D01*
X15536333Y506275D02*
X15566571Y566752D01*
X15566571Y566752D02*
X15566571Y899371D01*
X16141095Y808656D02*
X15929428Y808656D01*
X15929428Y476037D02*
X15929428Y1111037D01*
X15929428Y1111037D02*
X16231809Y1111037D01*
X7365785Y4516514D02*
X7335547Y4486275D01*
X7335547Y4486275D02*
X7244833Y4456037D01*
X7244833Y4456037D02*
X7184357Y4456037D01*
X7184357Y4456037D02*
X7093642Y4486275D01*
X7093642Y4486275D02*
X7033166Y4546752D01*
X7033166Y4546752D02*
X7002928Y4607228D01*
X7002928Y4607228D02*
X6972690Y4728180D01*
X6972690Y4728180D02*
X6972690Y4818895D01*
X6972690Y4818895D02*
X7002928Y4939847D01*
X7002928Y4939847D02*
X7033166Y5000323D01*
X7033166Y5000323D02*
X7093642Y5060799D01*
X7093642Y5060799D02*
X7184357Y5091037D01*
X7184357Y5091037D02*
X7244833Y5091037D01*
X7244833Y5091037D02*
X7335547Y5060799D01*
X7335547Y5060799D02*
X7365785Y5030561D01*
X7970547Y4456037D02*
X7607690Y4456037D01*
X7789118Y4456037D02*
X7789118Y5091037D01*
X7789118Y5091037D02*
X7728642Y5000323D01*
X7728642Y5000323D02*
X7668166Y4939847D01*
X7668166Y4939847D02*
X7607690Y4909609D01*
X8363642Y5091037D02*
X8424119Y5091037D01*
X8424119Y5091037D02*
X8484595Y5060799D01*
X8484595Y5060799D02*
X8514833Y5030561D01*
X8514833Y5030561D02*
X8545071Y4970085D01*
X8545071Y4970085D02*
X8575309Y4849133D01*
X8575309Y4849133D02*
X8575309Y4697942D01*
X8575309Y4697942D02*
X8545071Y4576990D01*
X8545071Y4576990D02*
X8514833Y4516514D01*
X8514833Y4516514D02*
X8484595Y4486275D01*
X8484595Y4486275D02*
X8424119Y4456037D01*
X8424119Y4456037D02*
X8363642Y4456037D01*
X8363642Y4456037D02*
X8303166Y4486275D01*
X8303166Y4486275D02*
X8272928Y4516514D01*
X8272928Y4516514D02*
X8242690Y4576990D01*
X8242690Y4576990D02*
X8212452Y4697942D01*
X8212452Y4697942D02*
X8212452Y4849133D01*
X8212452Y4849133D02*
X8242690Y4970085D01*
X8242690Y4970085D02*
X8272928Y5030561D01*
X8272928Y5030561D02*
X8303166Y5060799D01*
X8303166Y5060799D02*
X8363642Y5091037D01*
X7021285Y349037D02*
X6658428Y349037D01*
X6839856Y349037D02*
X6839856Y984037D01*
X6839856Y984037D02*
X6779380Y893323D01*
X6779380Y893323D02*
X6718904Y832847D01*
X6718904Y832847D02*
X6658428Y802609D01*
X7414380Y984037D02*
X7474857Y984037D01*
X7474857Y984037D02*
X7535333Y953799D01*
X7535333Y953799D02*
X7565571Y923561D01*
X7565571Y923561D02*
X7595809Y863085D01*
X7595809Y863085D02*
X7626047Y742133D01*
X7626047Y742133D02*
X7626047Y590942D01*
X7626047Y590942D02*
X7595809Y469990D01*
X7595809Y469990D02*
X7565571Y409514D01*
X7565571Y409514D02*
X7535333Y379275D01*
X7535333Y379275D02*
X7474857Y349037D01*
X7474857Y349037D02*
X7414380Y349037D01*
X7414380Y349037D02*
X7353904Y379275D01*
X7353904Y379275D02*
X7323666Y409514D01*
X7323666Y409514D02*
X7293428Y469990D01*
X7293428Y469990D02*
X7263190Y590942D01*
X7263190Y590942D02*
X7263190Y742133D01*
X7263190Y742133D02*
X7293428Y863085D01*
X7293428Y863085D02*
X7323666Y923561D01*
X7323666Y923561D02*
X7353904Y953799D01*
X7353904Y953799D02*
X7414380Y984037D01*
X7898190Y772371D02*
X7898190Y137371D01*
X8200571Y439752D02*
X8230809Y379275D01*
X8230809Y379275D02*
X8291285Y349037D01*
X7898190Y439752D02*
X7928428Y379275D01*
X7928428Y379275D02*
X7988904Y349037D01*
X7988904Y349037D02*
X8109857Y349037D01*
X8109857Y349037D02*
X8170333Y379275D01*
X8170333Y379275D02*
X8200571Y439752D01*
X8200571Y439752D02*
X8200571Y772371D01*
X8775095Y681656D02*
X8563428Y681656D01*
X8563428Y349037D02*
X8563428Y984037D01*
X8563428Y984037D02*
X8865809Y984037D01*
X14112119Y-22002963D02*
X14112119Y-21367963D01*
X14777357Y-21942486D02*
X14747119Y-21972725D01*
X14747119Y-21972725D02*
X14656405Y-22002963D01*
X14656405Y-22002963D02*
X14595929Y-22002963D01*
X14595929Y-22002963D02*
X14505214Y-21972725D01*
X14505214Y-21972725D02*
X14444738Y-21912248D01*
X14444738Y-21912248D02*
X14414500Y-21851772D01*
X14414500Y-21851772D02*
X14384262Y-21730820D01*
X14384262Y-21730820D02*
X14384262Y-21640105D01*
X14384262Y-21640105D02*
X14414500Y-21519153D01*
X14414500Y-21519153D02*
X14444738Y-21458677D01*
X14444738Y-21458677D02*
X14505214Y-21398201D01*
X14505214Y-21398201D02*
X14595929Y-21367963D01*
X14595929Y-21367963D02*
X14656405Y-21367963D01*
X14656405Y-21367963D02*
X14747119Y-21398201D01*
X14747119Y-21398201D02*
X14777357Y-21428439D01*
X14989024Y-21367963D02*
X15412357Y-21367963D01*
X15412357Y-21367963D02*
X15140214Y-22002963D01*
X13537595Y-24923963D02*
X13477119Y-25044915D01*
X13779500Y-24984439D02*
X13809738Y-24954201D01*
X13809738Y-24954201D02*
X13870214Y-24923963D01*
X13870214Y-24923963D02*
X14021405Y-24923963D01*
X14021405Y-24923963D02*
X14081881Y-24954201D01*
X14081881Y-24954201D02*
X14112119Y-24984439D01*
X14112119Y-24984439D02*
X14142357Y-25044915D01*
X14142357Y-25044915D02*
X14142357Y-25105391D01*
X14142357Y-25105391D02*
X14112119Y-25196105D01*
X14112119Y-25196105D02*
X13749262Y-25558963D01*
X13749262Y-25558963D02*
X14142357Y-25558963D01*
X14747119Y-24954201D02*
X14686643Y-24923963D01*
X14686643Y-24923963D02*
X14595929Y-24923963D01*
X14595929Y-24923963D02*
X14505214Y-24954201D01*
X14505214Y-24954201D02*
X14444738Y-25014677D01*
X14444738Y-25014677D02*
X14414500Y-25075153D01*
X14414500Y-25075153D02*
X14384262Y-25196105D01*
X14384262Y-25196105D02*
X14384262Y-25286820D01*
X14384262Y-25286820D02*
X14414500Y-25407772D01*
X14414500Y-25407772D02*
X14444738Y-25468248D01*
X14444738Y-25468248D02*
X14505214Y-25528725D01*
X14505214Y-25528725D02*
X14595929Y-25558963D01*
X14595929Y-25558963D02*
X14656405Y-25558963D01*
X14656405Y-25558963D02*
X14747119Y-25528725D01*
X14747119Y-25528725D02*
X14777357Y-25498486D01*
X14777357Y-25498486D02*
X14777357Y-25286820D01*
X14777357Y-25286820D02*
X14656405Y-25286820D01*
X15170452Y-24923963D02*
X15230929Y-24923963D01*
X15230929Y-24923963D02*
X15291405Y-24954201D01*
X15291405Y-24954201D02*
X15321643Y-24984439D01*
X15321643Y-24984439D02*
X15351881Y-25044915D01*
X15351881Y-25044915D02*
X15382119Y-25165867D01*
X15382119Y-25165867D02*
X15382119Y-25317058D01*
X15382119Y-25317058D02*
X15351881Y-25438010D01*
X15351881Y-25438010D02*
X15321643Y-25498486D01*
X15321643Y-25498486D02*
X15291405Y-25528725D01*
X15291405Y-25528725D02*
X15230929Y-25558963D01*
X15230929Y-25558963D02*
X15170452Y-25558963D01*
X15170452Y-25558963D02*
X15109976Y-25528725D01*
X15109976Y-25528725D02*
X15079738Y-25498486D01*
X15079738Y-25498486D02*
X15049500Y-25438010D01*
X15049500Y-25438010D02*
X15019262Y-25317058D01*
X15019262Y-25317058D02*
X15019262Y-25165867D01*
X15019262Y-25165867D02*
X15049500Y-25044915D01*
X15049500Y-25044915D02*
X15079738Y-24984439D01*
X15079738Y-24984439D02*
X15109976Y-24954201D01*
X15109976Y-24954201D02*
X15170452Y-24923963D01*
X15926405Y-25135629D02*
X15926405Y-25558963D01*
X15775214Y-24893725D02*
X15624024Y-25347296D01*
X15624024Y-25347296D02*
X16017119Y-25347296D01*
X4587119Y-12223963D02*
X4587119Y-11588963D01*
X5252357Y-12163486D02*
X5222119Y-12193725D01*
X5222119Y-12193725D02*
X5131405Y-12223963D01*
X5131405Y-12223963D02*
X5070929Y-12223963D01*
X5070929Y-12223963D02*
X4980214Y-12193725D01*
X4980214Y-12193725D02*
X4919738Y-12133248D01*
X4919738Y-12133248D02*
X4889500Y-12072772D01*
X4889500Y-12072772D02*
X4859262Y-11951820D01*
X4859262Y-11951820D02*
X4859262Y-11861105D01*
X4859262Y-11861105D02*
X4889500Y-11740153D01*
X4889500Y-11740153D02*
X4919738Y-11679677D01*
X4919738Y-11679677D02*
X4980214Y-11619201D01*
X4980214Y-11619201D02*
X5070929Y-11588963D01*
X5070929Y-11588963D02*
X5131405Y-11588963D01*
X5131405Y-11588963D02*
X5222119Y-11619201D01*
X5222119Y-11619201D02*
X5252357Y-11649439D01*
X5796643Y-11588963D02*
X5675690Y-11588963D01*
X5675690Y-11588963D02*
X5615214Y-11619201D01*
X5615214Y-11619201D02*
X5584976Y-11649439D01*
X5584976Y-11649439D02*
X5524500Y-11740153D01*
X5524500Y-11740153D02*
X5494262Y-11861105D01*
X5494262Y-11861105D02*
X5494262Y-12103010D01*
X5494262Y-12103010D02*
X5524500Y-12163486D01*
X5524500Y-12163486D02*
X5554738Y-12193725D01*
X5554738Y-12193725D02*
X5615214Y-12223963D01*
X5615214Y-12223963D02*
X5736167Y-12223963D01*
X5736167Y-12223963D02*
X5796643Y-12193725D01*
X5796643Y-12193725D02*
X5826881Y-12163486D01*
X5826881Y-12163486D02*
X5857119Y-12103010D01*
X5857119Y-12103010D02*
X5857119Y-11951820D01*
X5857119Y-11951820D02*
X5826881Y-11891344D01*
X5826881Y-11891344D02*
X5796643Y-11861105D01*
X5796643Y-11861105D02*
X5736167Y-11830867D01*
X5736167Y-11830867D02*
X5615214Y-11830867D01*
X5615214Y-11830867D02*
X5554738Y-11861105D01*
X5554738Y-11861105D02*
X5524500Y-11891344D01*
X5524500Y-11891344D02*
X5494262Y-11951820D01*
X4012595Y-14763963D02*
X3952119Y-14884915D01*
X4254500Y-14824439D02*
X4284738Y-14794201D01*
X4284738Y-14794201D02*
X4345214Y-14763963D01*
X4345214Y-14763963D02*
X4496405Y-14763963D01*
X4496405Y-14763963D02*
X4556881Y-14794201D01*
X4556881Y-14794201D02*
X4587119Y-14824439D01*
X4587119Y-14824439D02*
X4617357Y-14884915D01*
X4617357Y-14884915D02*
X4617357Y-14945391D01*
X4617357Y-14945391D02*
X4587119Y-15036105D01*
X4587119Y-15036105D02*
X4224262Y-15398963D01*
X4224262Y-15398963D02*
X4617357Y-15398963D01*
X5222119Y-14794201D02*
X5161643Y-14763963D01*
X5161643Y-14763963D02*
X5070929Y-14763963D01*
X5070929Y-14763963D02*
X4980214Y-14794201D01*
X4980214Y-14794201D02*
X4919738Y-14854677D01*
X4919738Y-14854677D02*
X4889500Y-14915153D01*
X4889500Y-14915153D02*
X4859262Y-15036105D01*
X4859262Y-15036105D02*
X4859262Y-15126820D01*
X4859262Y-15126820D02*
X4889500Y-15247772D01*
X4889500Y-15247772D02*
X4919738Y-15308248D01*
X4919738Y-15308248D02*
X4980214Y-15368725D01*
X4980214Y-15368725D02*
X5070929Y-15398963D01*
X5070929Y-15398963D02*
X5131405Y-15398963D01*
X5131405Y-15398963D02*
X5222119Y-15368725D01*
X5222119Y-15368725D02*
X5252357Y-15338486D01*
X5252357Y-15338486D02*
X5252357Y-15126820D01*
X5252357Y-15126820D02*
X5131405Y-15126820D01*
X5645452Y-14763963D02*
X5705929Y-14763963D01*
X5705929Y-14763963D02*
X5766405Y-14794201D01*
X5766405Y-14794201D02*
X5796643Y-14824439D01*
X5796643Y-14824439D02*
X5826881Y-14884915D01*
X5826881Y-14884915D02*
X5857119Y-15005867D01*
X5857119Y-15005867D02*
X5857119Y-15157058D01*
X5857119Y-15157058D02*
X5826881Y-15278010D01*
X5826881Y-15278010D02*
X5796643Y-15338486D01*
X5796643Y-15338486D02*
X5766405Y-15368725D01*
X5766405Y-15368725D02*
X5705929Y-15398963D01*
X5705929Y-15398963D02*
X5645452Y-15398963D01*
X5645452Y-15398963D02*
X5584976Y-15368725D01*
X5584976Y-15368725D02*
X5554738Y-15338486D01*
X5554738Y-15338486D02*
X5524500Y-15278010D01*
X5524500Y-15278010D02*
X5494262Y-15157058D01*
X5494262Y-15157058D02*
X5494262Y-15005867D01*
X5494262Y-15005867D02*
X5524500Y-14884915D01*
X5524500Y-14884915D02*
X5554738Y-14824439D01*
X5554738Y-14824439D02*
X5584976Y-14794201D01*
X5584976Y-14794201D02*
X5645452Y-14763963D01*
X6219976Y-15036105D02*
X6159500Y-15005867D01*
X6159500Y-15005867D02*
X6129262Y-14975629D01*
X6129262Y-14975629D02*
X6099024Y-14915153D01*
X6099024Y-14915153D02*
X6099024Y-14884915D01*
X6099024Y-14884915D02*
X6129262Y-14824439D01*
X6129262Y-14824439D02*
X6159500Y-14794201D01*
X6159500Y-14794201D02*
X6219976Y-14763963D01*
X6219976Y-14763963D02*
X6340929Y-14763963D01*
X6340929Y-14763963D02*
X6401405Y-14794201D01*
X6401405Y-14794201D02*
X6431643Y-14824439D01*
X6431643Y-14824439D02*
X6461881Y-14884915D01*
X6461881Y-14884915D02*
X6461881Y-14915153D01*
X6461881Y-14915153D02*
X6431643Y-14975629D01*
X6431643Y-14975629D02*
X6401405Y-15005867D01*
X6401405Y-15005867D02*
X6340929Y-15036105D01*
X6340929Y-15036105D02*
X6219976Y-15036105D01*
X6219976Y-15036105D02*
X6159500Y-15066344D01*
X6159500Y-15066344D02*
X6129262Y-15096582D01*
X6129262Y-15096582D02*
X6099024Y-15157058D01*
X6099024Y-15157058D02*
X6099024Y-15278010D01*
X6099024Y-15278010D02*
X6129262Y-15338486D01*
X6129262Y-15338486D02*
X6159500Y-15368725D01*
X6159500Y-15368725D02*
X6219976Y-15398963D01*
X6219976Y-15398963D02*
X6340929Y-15398963D01*
X6340929Y-15398963D02*
X6401405Y-15368725D01*
X6401405Y-15368725D02*
X6431643Y-15338486D01*
X6431643Y-15338486D02*
X6461881Y-15278010D01*
X6461881Y-15278010D02*
X6461881Y-15157058D01*
X6461881Y-15157058D02*
X6431643Y-15096582D01*
X6431643Y-15096582D02*
X6401405Y-15066344D01*
X6401405Y-15066344D02*
X6340929Y-15036105D01*
X7000119Y-20986963D02*
X7000119Y-20351963D01*
X7665357Y-20926486D02*
X7635119Y-20956725D01*
X7635119Y-20956725D02*
X7544405Y-20986963D01*
X7544405Y-20986963D02*
X7483929Y-20986963D01*
X7483929Y-20986963D02*
X7393214Y-20956725D01*
X7393214Y-20956725D02*
X7332738Y-20896248D01*
X7332738Y-20896248D02*
X7302500Y-20835772D01*
X7302500Y-20835772D02*
X7272262Y-20714820D01*
X7272262Y-20714820D02*
X7272262Y-20624105D01*
X7272262Y-20624105D02*
X7302500Y-20503153D01*
X7302500Y-20503153D02*
X7332738Y-20442677D01*
X7332738Y-20442677D02*
X7393214Y-20382201D01*
X7393214Y-20382201D02*
X7483929Y-20351963D01*
X7483929Y-20351963D02*
X7544405Y-20351963D01*
X7544405Y-20351963D02*
X7635119Y-20382201D01*
X7635119Y-20382201D02*
X7665357Y-20412439D01*
X8239881Y-20351963D02*
X7937500Y-20351963D01*
X7937500Y-20351963D02*
X7907262Y-20654344D01*
X7907262Y-20654344D02*
X7937500Y-20624105D01*
X7937500Y-20624105D02*
X7997976Y-20593867D01*
X7997976Y-20593867D02*
X8149167Y-20593867D01*
X8149167Y-20593867D02*
X8209643Y-20624105D01*
X8209643Y-20624105D02*
X8239881Y-20654344D01*
X8239881Y-20654344D02*
X8270119Y-20714820D01*
X8270119Y-20714820D02*
X8270119Y-20866010D01*
X8270119Y-20866010D02*
X8239881Y-20926486D01*
X8239881Y-20926486D02*
X8209643Y-20956725D01*
X8209643Y-20956725D02*
X8149167Y-20986963D01*
X8149167Y-20986963D02*
X7997976Y-20986963D01*
X7997976Y-20986963D02*
X7937500Y-20956725D01*
X7937500Y-20956725D02*
X7907262Y-20926486D01*
X5654523Y-25558963D02*
X6077856Y-25558963D01*
X6077856Y-25558963D02*
X5805713Y-26193963D01*
X6591904Y-25770629D02*
X6591904Y-26193963D01*
X6440713Y-25528725D02*
X6289523Y-25982296D01*
X6289523Y-25982296D02*
X6682618Y-25982296D01*
X7226904Y-26193963D02*
X6924523Y-26193963D01*
X6924523Y-26193963D02*
X6924523Y-25558963D01*
X7347857Y-25558963D02*
X7559523Y-26193963D01*
X7559523Y-26193963D02*
X7771190Y-25558963D01*
X8345714Y-26133486D02*
X8315476Y-26163725D01*
X8315476Y-26163725D02*
X8224762Y-26193963D01*
X8224762Y-26193963D02*
X8164286Y-26193963D01*
X8164286Y-26193963D02*
X8073571Y-26163725D01*
X8073571Y-26163725D02*
X8013095Y-26103248D01*
X8013095Y-26103248D02*
X7982857Y-26042772D01*
X7982857Y-26042772D02*
X7952619Y-25921820D01*
X7952619Y-25921820D02*
X7952619Y-25831105D01*
X7952619Y-25831105D02*
X7982857Y-25710153D01*
X7982857Y-25710153D02*
X8013095Y-25649677D01*
X8013095Y-25649677D02*
X8073571Y-25589201D01*
X8073571Y-25589201D02*
X8164286Y-25558963D01*
X8164286Y-25558963D02*
X8224762Y-25558963D01*
X8224762Y-25558963D02*
X8315476Y-25589201D01*
X8315476Y-25589201D02*
X8345714Y-25619439D01*
X8557381Y-25558963D02*
X8980714Y-25558963D01*
X8980714Y-25558963D02*
X8708571Y-26193963D01*
X9494762Y-25770629D02*
X9494762Y-26193963D01*
X9343571Y-25528725D02*
X9192381Y-25982296D01*
X9192381Y-25982296D02*
X9585476Y-25982296D01*
X6619119Y-3079963D02*
X6619119Y-2444963D01*
X7284357Y-3019486D02*
X7254119Y-3049725D01*
X7254119Y-3049725D02*
X7163405Y-3079963D01*
X7163405Y-3079963D02*
X7102929Y-3079963D01*
X7102929Y-3079963D02*
X7012214Y-3049725D01*
X7012214Y-3049725D02*
X6951738Y-2989248D01*
X6951738Y-2989248D02*
X6921500Y-2928772D01*
X6921500Y-2928772D02*
X6891262Y-2807820D01*
X6891262Y-2807820D02*
X6891262Y-2717105D01*
X6891262Y-2717105D02*
X6921500Y-2596153D01*
X6921500Y-2596153D02*
X6951738Y-2535677D01*
X6951738Y-2535677D02*
X7012214Y-2475201D01*
X7012214Y-2475201D02*
X7102929Y-2444963D01*
X7102929Y-2444963D02*
X7163405Y-2444963D01*
X7163405Y-2444963D02*
X7254119Y-2475201D01*
X7254119Y-2475201D02*
X7284357Y-2505439D01*
X7828643Y-2656629D02*
X7828643Y-3079963D01*
X7677452Y-2414725D02*
X7526262Y-2868296D01*
X7526262Y-2868296D02*
X7919357Y-2868296D01*
X4971142Y-7651963D02*
X5394475Y-7651963D01*
X5394475Y-7651963D02*
X5122332Y-8286963D01*
X5908523Y-7863629D02*
X5908523Y-8286963D01*
X5757332Y-7621725D02*
X5606142Y-8075296D01*
X5606142Y-8075296D02*
X5999237Y-8075296D01*
X6543523Y-8286963D02*
X6241142Y-8286963D01*
X6241142Y-8286963D02*
X6241142Y-7651963D01*
X6664476Y-7651963D02*
X6876142Y-8286963D01*
X6876142Y-8286963D02*
X7087809Y-7651963D01*
X7662333Y-8226486D02*
X7632095Y-8256725D01*
X7632095Y-8256725D02*
X7541381Y-8286963D01*
X7541381Y-8286963D02*
X7480905Y-8286963D01*
X7480905Y-8286963D02*
X7390190Y-8256725D01*
X7390190Y-8256725D02*
X7329714Y-8196248D01*
X7329714Y-8196248D02*
X7299476Y-8135772D01*
X7299476Y-8135772D02*
X7269238Y-8014820D01*
X7269238Y-8014820D02*
X7269238Y-7924105D01*
X7269238Y-7924105D02*
X7299476Y-7803153D01*
X7299476Y-7803153D02*
X7329714Y-7742677D01*
X7329714Y-7742677D02*
X7390190Y-7682201D01*
X7390190Y-7682201D02*
X7480905Y-7651963D01*
X7480905Y-7651963D02*
X7541381Y-7651963D01*
X7541381Y-7651963D02*
X7632095Y-7682201D01*
X7632095Y-7682201D02*
X7662333Y-7712439D01*
X8267095Y-8286963D02*
X7904238Y-8286963D01*
X8085666Y-8286963D02*
X8085666Y-7651963D01*
X8085666Y-7651963D02*
X8025190Y-7742677D01*
X8025190Y-7742677D02*
X7964714Y-7803153D01*
X7964714Y-7803153D02*
X7904238Y-7833391D01*
X8811381Y-7651963D02*
X8690428Y-7651963D01*
X8690428Y-7651963D02*
X8629952Y-7682201D01*
X8629952Y-7682201D02*
X8599714Y-7712439D01*
X8599714Y-7712439D02*
X8539238Y-7803153D01*
X8539238Y-7803153D02*
X8509000Y-7924105D01*
X8509000Y-7924105D02*
X8509000Y-8166010D01*
X8509000Y-8166010D02*
X8539238Y-8226486D01*
X8539238Y-8226486D02*
X8569476Y-8256725D01*
X8569476Y-8256725D02*
X8629952Y-8286963D01*
X8629952Y-8286963D02*
X8750905Y-8286963D01*
X8750905Y-8286963D02*
X8811381Y-8256725D01*
X8811381Y-8256725D02*
X8841619Y-8226486D01*
X8841619Y-8226486D02*
X8871857Y-8166010D01*
X8871857Y-8166010D02*
X8871857Y-8014820D01*
X8871857Y-8014820D02*
X8841619Y-7954344D01*
X8841619Y-7954344D02*
X8811381Y-7924105D01*
X8811381Y-7924105D02*
X8750905Y-7893867D01*
X8750905Y-7893867D02*
X8629952Y-7893867D01*
X8629952Y-7893867D02*
X8569476Y-7924105D01*
X8569476Y-7924105D02*
X8539238Y-7954344D01*
X8539238Y-7954344D02*
X8509000Y-8014820D01*
X9083524Y-7651963D02*
X9476619Y-7651963D01*
X9476619Y-7651963D02*
X9264952Y-7893867D01*
X9264952Y-7893867D02*
X9355667Y-7893867D01*
X9355667Y-7893867D02*
X9416143Y-7924105D01*
X9416143Y-7924105D02*
X9446381Y-7954344D01*
X9446381Y-7954344D02*
X9476619Y-8014820D01*
X9476619Y-8014820D02*
X9476619Y-8166010D01*
X9476619Y-8166010D02*
X9446381Y-8226486D01*
X9446381Y-8226486D02*
X9416143Y-8256725D01*
X9416143Y-8256725D02*
X9355667Y-8286963D01*
X9355667Y-8286963D02*
X9174238Y-8286963D01*
X9174238Y-8286963D02*
X9113762Y-8256725D01*
X9113762Y-8256725D02*
X9083524Y-8226486D01*
X12715119Y-13493963D02*
X12715119Y-12858963D01*
X13380357Y-13433486D02*
X13350119Y-13463725D01*
X13350119Y-13463725D02*
X13259405Y-13493963D01*
X13259405Y-13493963D02*
X13198929Y-13493963D01*
X13198929Y-13493963D02*
X13108214Y-13463725D01*
X13108214Y-13463725D02*
X13047738Y-13403248D01*
X13047738Y-13403248D02*
X13017500Y-13342772D01*
X13017500Y-13342772D02*
X12987262Y-13221820D01*
X12987262Y-13221820D02*
X12987262Y-13131105D01*
X12987262Y-13131105D02*
X13017500Y-13010153D01*
X13017500Y-13010153D02*
X13047738Y-12949677D01*
X13047738Y-12949677D02*
X13108214Y-12889201D01*
X13108214Y-12889201D02*
X13198929Y-12858963D01*
X13198929Y-12858963D02*
X13259405Y-12858963D01*
X13259405Y-12858963D02*
X13350119Y-12889201D01*
X13350119Y-12889201D02*
X13380357Y-12919439D01*
X13592024Y-12858963D02*
X13985119Y-12858963D01*
X13985119Y-12858963D02*
X13773452Y-13100867D01*
X13773452Y-13100867D02*
X13864167Y-13100867D01*
X13864167Y-13100867D02*
X13924643Y-13131105D01*
X13924643Y-13131105D02*
X13954881Y-13161344D01*
X13954881Y-13161344D02*
X13985119Y-13221820D01*
X13985119Y-13221820D02*
X13985119Y-13373010D01*
X13985119Y-13373010D02*
X13954881Y-13433486D01*
X13954881Y-13433486D02*
X13924643Y-13463725D01*
X13924643Y-13463725D02*
X13864167Y-13493963D01*
X13864167Y-13493963D02*
X13682738Y-13493963D01*
X13682738Y-13493963D02*
X13622262Y-13463725D01*
X13622262Y-13463725D02*
X13592024Y-13433486D01*
X11067142Y-18065963D02*
X11490475Y-18065963D01*
X11490475Y-18065963D02*
X11218332Y-18700963D01*
X12004523Y-18277629D02*
X12004523Y-18700963D01*
X11853332Y-18035725D02*
X11702142Y-18489296D01*
X11702142Y-18489296D02*
X12095237Y-18489296D01*
X12639523Y-18700963D02*
X12337142Y-18700963D01*
X12337142Y-18700963D02*
X12337142Y-18065963D01*
X12760476Y-18065963D02*
X12972142Y-18700963D01*
X12972142Y-18700963D02*
X13183809Y-18065963D01*
X13758333Y-18640486D02*
X13728095Y-18670725D01*
X13728095Y-18670725D02*
X13637381Y-18700963D01*
X13637381Y-18700963D02*
X13576905Y-18700963D01*
X13576905Y-18700963D02*
X13486190Y-18670725D01*
X13486190Y-18670725D02*
X13425714Y-18610248D01*
X13425714Y-18610248D02*
X13395476Y-18549772D01*
X13395476Y-18549772D02*
X13365238Y-18428820D01*
X13365238Y-18428820D02*
X13365238Y-18338105D01*
X13365238Y-18338105D02*
X13395476Y-18217153D01*
X13395476Y-18217153D02*
X13425714Y-18156677D01*
X13425714Y-18156677D02*
X13486190Y-18096201D01*
X13486190Y-18096201D02*
X13576905Y-18065963D01*
X13576905Y-18065963D02*
X13637381Y-18065963D01*
X13637381Y-18065963D02*
X13728095Y-18096201D01*
X13728095Y-18096201D02*
X13758333Y-18126439D01*
X14363095Y-18700963D02*
X14000238Y-18700963D01*
X14181666Y-18700963D02*
X14181666Y-18065963D01*
X14181666Y-18065963D02*
X14121190Y-18156677D01*
X14121190Y-18156677D02*
X14060714Y-18217153D01*
X14060714Y-18217153D02*
X14000238Y-18247391D01*
X14907381Y-18065963D02*
X14786428Y-18065963D01*
X14786428Y-18065963D02*
X14725952Y-18096201D01*
X14725952Y-18096201D02*
X14695714Y-18126439D01*
X14695714Y-18126439D02*
X14635238Y-18217153D01*
X14635238Y-18217153D02*
X14605000Y-18338105D01*
X14605000Y-18338105D02*
X14605000Y-18580010D01*
X14605000Y-18580010D02*
X14635238Y-18640486D01*
X14635238Y-18640486D02*
X14665476Y-18670725D01*
X14665476Y-18670725D02*
X14725952Y-18700963D01*
X14725952Y-18700963D02*
X14846905Y-18700963D01*
X14846905Y-18700963D02*
X14907381Y-18670725D01*
X14907381Y-18670725D02*
X14937619Y-18640486D01*
X14937619Y-18640486D02*
X14967857Y-18580010D01*
X14967857Y-18580010D02*
X14967857Y-18428820D01*
X14967857Y-18428820D02*
X14937619Y-18368344D01*
X14937619Y-18368344D02*
X14907381Y-18338105D01*
X14907381Y-18338105D02*
X14846905Y-18307867D01*
X14846905Y-18307867D02*
X14725952Y-18307867D01*
X14725952Y-18307867D02*
X14665476Y-18338105D01*
X14665476Y-18338105D02*
X14635238Y-18368344D01*
X14635238Y-18368344D02*
X14605000Y-18428820D01*
X15572619Y-18700963D02*
X15209762Y-18700963D01*
X15391190Y-18700963D02*
X15391190Y-18065963D01*
X15391190Y-18065963D02*
X15330714Y-18156677D01*
X15330714Y-18156677D02*
X15270238Y-18217153D01*
X15270238Y-18217153D02*
X15209762Y-18247391D01*
X15636119Y-6889963D02*
X15636119Y-6254963D01*
X16301357Y-6829486D02*
X16271119Y-6859725D01*
X16271119Y-6859725D02*
X16180405Y-6889963D01*
X16180405Y-6889963D02*
X16119929Y-6889963D01*
X16119929Y-6889963D02*
X16029214Y-6859725D01*
X16029214Y-6859725D02*
X15968738Y-6799248D01*
X15968738Y-6799248D02*
X15938500Y-6738772D01*
X15938500Y-6738772D02*
X15908262Y-6617820D01*
X15908262Y-6617820D02*
X15908262Y-6527105D01*
X15908262Y-6527105D02*
X15938500Y-6406153D01*
X15938500Y-6406153D02*
X15968738Y-6345677D01*
X15968738Y-6345677D02*
X16029214Y-6285201D01*
X16029214Y-6285201D02*
X16119929Y-6254963D01*
X16119929Y-6254963D02*
X16180405Y-6254963D01*
X16180405Y-6254963D02*
X16271119Y-6285201D01*
X16271119Y-6285201D02*
X16301357Y-6315439D01*
X16543262Y-6315439D02*
X16573500Y-6285201D01*
X16573500Y-6285201D02*
X16633976Y-6254963D01*
X16633976Y-6254963D02*
X16785167Y-6254963D01*
X16785167Y-6254963D02*
X16845643Y-6285201D01*
X16845643Y-6285201D02*
X16875881Y-6315439D01*
X16875881Y-6315439D02*
X16906119Y-6375915D01*
X16906119Y-6375915D02*
X16906119Y-6436391D01*
X16906119Y-6436391D02*
X16875881Y-6527105D01*
X16875881Y-6527105D02*
X16513024Y-6889963D01*
X16513024Y-6889963D02*
X16906119Y-6889963D01*
X14109095Y-11842963D02*
X14109095Y-11207963D01*
X14109095Y-11207963D02*
X14351000Y-11207963D01*
X14351000Y-11207963D02*
X14411476Y-11238201D01*
X14411476Y-11238201D02*
X14441714Y-11268439D01*
X14441714Y-11268439D02*
X14471952Y-11328915D01*
X14471952Y-11328915D02*
X14471952Y-11419629D01*
X14471952Y-11419629D02*
X14441714Y-11480105D01*
X14441714Y-11480105D02*
X14411476Y-11510344D01*
X14411476Y-11510344D02*
X14351000Y-11540582D01*
X14351000Y-11540582D02*
X14109095Y-11540582D01*
X14744095Y-11842963D02*
X14744095Y-11207963D01*
X14986000Y-11207963D02*
X15379095Y-11207963D01*
X15379095Y-11207963D02*
X15167428Y-11449867D01*
X15167428Y-11449867D02*
X15258143Y-11449867D01*
X15258143Y-11449867D02*
X15318619Y-11480105D01*
X15318619Y-11480105D02*
X15348857Y-11510344D01*
X15348857Y-11510344D02*
X15379095Y-11570820D01*
X15379095Y-11570820D02*
X15379095Y-11722010D01*
X15379095Y-11722010D02*
X15348857Y-11782486D01*
X15348857Y-11782486D02*
X15318619Y-11812725D01*
X15318619Y-11812725D02*
X15258143Y-11842963D01*
X15258143Y-11842963D02*
X15076714Y-11842963D01*
X15076714Y-11842963D02*
X15016238Y-11812725D01*
X15016238Y-11812725D02*
X14986000Y-11782486D01*
X15862905Y-11510344D02*
X15953619Y-11540582D01*
X15953619Y-11540582D02*
X15983857Y-11570820D01*
X15983857Y-11570820D02*
X16014095Y-11631296D01*
X16014095Y-11631296D02*
X16014095Y-11722010D01*
X16014095Y-11722010D02*
X15983857Y-11782486D01*
X15983857Y-11782486D02*
X15953619Y-11812725D01*
X15953619Y-11812725D02*
X15893143Y-11842963D01*
X15893143Y-11842963D02*
X15651238Y-11842963D01*
X15651238Y-11842963D02*
X15651238Y-11207963D01*
X15651238Y-11207963D02*
X15862905Y-11207963D01*
X15862905Y-11207963D02*
X15923381Y-11238201D01*
X15923381Y-11238201D02*
X15953619Y-11268439D01*
X15953619Y-11268439D02*
X15983857Y-11328915D01*
X15983857Y-11328915D02*
X15983857Y-11389391D01*
X15983857Y-11389391D02*
X15953619Y-11449867D01*
X15953619Y-11449867D02*
X15923381Y-11480105D01*
X15923381Y-11480105D02*
X15862905Y-11510344D01*
X15862905Y-11510344D02*
X15651238Y-11510344D01*
X16225762Y-11207963D02*
X16618857Y-11207963D01*
X16618857Y-11207963D02*
X16407190Y-11449867D01*
X16407190Y-11449867D02*
X16497905Y-11449867D01*
X16497905Y-11449867D02*
X16558381Y-11480105D01*
X16558381Y-11480105D02*
X16588619Y-11510344D01*
X16588619Y-11510344D02*
X16618857Y-11570820D01*
X16618857Y-11570820D02*
X16618857Y-11722010D01*
X16618857Y-11722010D02*
X16588619Y-11782486D01*
X16588619Y-11782486D02*
X16558381Y-11812725D01*
X16558381Y-11812725D02*
X16497905Y-11842963D01*
X16497905Y-11842963D02*
X16316476Y-11842963D01*
X16316476Y-11842963D02*
X16256000Y-11812725D01*
X16256000Y-11812725D02*
X16225762Y-11782486D01*
X16860762Y-11268439D02*
X16891000Y-11238201D01*
X16891000Y-11238201D02*
X16951476Y-11207963D01*
X16951476Y-11207963D02*
X17102667Y-11207963D01*
X17102667Y-11207963D02*
X17163143Y-11238201D01*
X17163143Y-11238201D02*
X17193381Y-11268439D01*
X17193381Y-11268439D02*
X17223619Y-11328915D01*
X17223619Y-11328915D02*
X17223619Y-11389391D01*
X17223619Y-11389391D02*
X17193381Y-11480105D01*
X17193381Y-11480105D02*
X16830524Y-11842963D01*
X16830524Y-11842963D02*
X17223619Y-11842963D01*
X17798143Y-11207963D02*
X17495762Y-11207963D01*
X17495762Y-11207963D02*
X17465524Y-11510344D01*
X17465524Y-11510344D02*
X17495762Y-11480105D01*
X17495762Y-11480105D02*
X17556238Y-11449867D01*
X17556238Y-11449867D02*
X17707429Y-11449867D01*
X17707429Y-11449867D02*
X17767905Y-11480105D01*
X17767905Y-11480105D02*
X17798143Y-11510344D01*
X17798143Y-11510344D02*
X17828381Y-11570820D01*
X17828381Y-11570820D02*
X17828381Y-11722010D01*
X17828381Y-11722010D02*
X17798143Y-11782486D01*
X17798143Y-11782486D02*
X17767905Y-11812725D01*
X17767905Y-11812725D02*
X17707429Y-11842963D01*
X17707429Y-11842963D02*
X17556238Y-11842963D01*
X17556238Y-11842963D02*
X17495762Y-11812725D01*
X17495762Y-11812725D02*
X17465524Y-11782486D01*
X18433143Y-11842963D02*
X18070286Y-11842963D01*
X18251714Y-11842963D02*
X18251714Y-11207963D01*
X18251714Y-11207963D02*
X18191238Y-11298677D01*
X18191238Y-11298677D02*
X18130762Y-11359153D01*
X18130762Y-11359153D02*
X18070286Y-11389391D01*
X7167486Y-967834D02*
X7197725Y-998072D01*
X7197725Y-998072D02*
X7227963Y-1088786D01*
X7227963Y-1088786D02*
X7227963Y-1149262D01*
X7227963Y-1149262D02*
X7197725Y-1239977D01*
X7197725Y-1239977D02*
X7137248Y-1300453D01*
X7137248Y-1300453D02*
X7076772Y-1330691D01*
X7076772Y-1330691D02*
X6955820Y-1360929D01*
X6955820Y-1360929D02*
X6865105Y-1360929D01*
X6865105Y-1360929D02*
X6744153Y-1330691D01*
X6744153Y-1330691D02*
X6683677Y-1300453D01*
X6683677Y-1300453D02*
X6623201Y-1239977D01*
X6623201Y-1239977D02*
X6592963Y-1149262D01*
X6592963Y-1149262D02*
X6592963Y-1088786D01*
X6592963Y-1088786D02*
X6623201Y-998072D01*
X6623201Y-998072D02*
X6653439Y-967834D01*
X6592963Y-423548D02*
X6592963Y-544501D01*
X6592963Y-544501D02*
X6623201Y-604977D01*
X6623201Y-604977D02*
X6653439Y-635215D01*
X6653439Y-635215D02*
X6744153Y-695691D01*
X6744153Y-695691D02*
X6865105Y-725929D01*
X6865105Y-725929D02*
X7107010Y-725929D01*
X7107010Y-725929D02*
X7167486Y-695691D01*
X7167486Y-695691D02*
X7197725Y-665453D01*
X7197725Y-665453D02*
X7227963Y-604977D01*
X7227963Y-604977D02*
X7227963Y-484024D01*
X7227963Y-484024D02*
X7197725Y-423548D01*
X7197725Y-423548D02*
X7167486Y-393310D01*
X7167486Y-393310D02*
X7107010Y-363072D01*
X7107010Y-363072D02*
X6955820Y-363072D01*
X6955820Y-363072D02*
X6895344Y-393310D01*
X6895344Y-393310D02*
X6865105Y-423548D01*
X6865105Y-423548D02*
X6834867Y-484024D01*
X6834867Y-484024D02*
X6834867Y-604977D01*
X6834867Y-604977D02*
X6865105Y-665453D01*
X6865105Y-665453D02*
X6895344Y-695691D01*
X6895344Y-695691D02*
X6955820Y-725929D01*
X11334963Y-1312333D02*
X11334963Y-1675190D01*
X11334963Y-1493762D02*
X10699963Y-1493762D01*
X10699963Y-1493762D02*
X10790677Y-1554238D01*
X10790677Y-1554238D02*
X10851153Y-1614714D01*
X10851153Y-1614714D02*
X10881391Y-1675190D01*
X10911629Y-1040190D02*
X11546629Y-1040190D01*
X11244248Y-737809D02*
X11304725Y-707571D01*
X11304725Y-707571D02*
X11334963Y-647095D01*
X11244248Y-1040190D02*
X11304725Y-1009952D01*
X11304725Y-1009952D02*
X11334963Y-949476D01*
X11334963Y-949476D02*
X11334963Y-828523D01*
X11334963Y-828523D02*
X11304725Y-768047D01*
X11304725Y-768047D02*
X11244248Y-737809D01*
X11244248Y-737809D02*
X10911629Y-737809D01*
X11002344Y-163285D02*
X11002344Y-374952D01*
X11334963Y-374952D02*
X10699963Y-374952D01*
X10699963Y-374952D02*
X10699963Y-72571D01*
X13898486Y-4269834D02*
X13928725Y-4300072D01*
X13928725Y-4300072D02*
X13958963Y-4390786D01*
X13958963Y-4390786D02*
X13958963Y-4451262D01*
X13958963Y-4451262D02*
X13928725Y-4541977D01*
X13928725Y-4541977D02*
X13868248Y-4602453D01*
X13868248Y-4602453D02*
X13807772Y-4632691D01*
X13807772Y-4632691D02*
X13686820Y-4662929D01*
X13686820Y-4662929D02*
X13596105Y-4662929D01*
X13596105Y-4662929D02*
X13475153Y-4632691D01*
X13475153Y-4632691D02*
X13414677Y-4602453D01*
X13414677Y-4602453D02*
X13354201Y-4541977D01*
X13354201Y-4541977D02*
X13323963Y-4451262D01*
X13323963Y-4451262D02*
X13323963Y-4390786D01*
X13323963Y-4390786D02*
X13354201Y-4300072D01*
X13354201Y-4300072D02*
X13384439Y-4269834D01*
X13323963Y-3695310D02*
X13323963Y-3997691D01*
X13323963Y-3997691D02*
X13626344Y-4027929D01*
X13626344Y-4027929D02*
X13596105Y-3997691D01*
X13596105Y-3997691D02*
X13565867Y-3937215D01*
X13565867Y-3937215D02*
X13565867Y-3786024D01*
X13565867Y-3786024D02*
X13596105Y-3725548D01*
X13596105Y-3725548D02*
X13626344Y-3695310D01*
X13626344Y-3695310D02*
X13686820Y-3665072D01*
X13686820Y-3665072D02*
X13838010Y-3665072D01*
X13838010Y-3665072D02*
X13898486Y-3695310D01*
X13898486Y-3695310D02*
X13928725Y-3725548D01*
X13928725Y-3725548D02*
X13958963Y-3786024D01*
X13958963Y-3786024D02*
X13958963Y-3937215D01*
X13958963Y-3937215D02*
X13928725Y-3997691D01*
X13928725Y-3997691D02*
X13898486Y-4027929D01*
X18065963Y-4614333D02*
X18065963Y-4977190D01*
X18065963Y-4795762D02*
X17430963Y-4795762D01*
X17430963Y-4795762D02*
X17521677Y-4856238D01*
X17521677Y-4856238D02*
X17582153Y-4916714D01*
X17582153Y-4916714D02*
X17612391Y-4977190D01*
X17642629Y-4342190D02*
X18277629Y-4342190D01*
X17975248Y-4039809D02*
X18035725Y-4009571D01*
X18035725Y-4009571D02*
X18065963Y-3949095D01*
X17975248Y-4342190D02*
X18035725Y-4311952D01*
X18035725Y-4311952D02*
X18065963Y-4251476D01*
X18065963Y-4251476D02*
X18065963Y-4130523D01*
X18065963Y-4130523D02*
X18035725Y-4070047D01*
X18035725Y-4070047D02*
X17975248Y-4039809D01*
X17975248Y-4039809D02*
X17642629Y-4039809D01*
X17733344Y-3465285D02*
X17733344Y-3676952D01*
X18065963Y-3676952D02*
X17430963Y-3676952D01*
X17430963Y-3676952D02*
X17430963Y-3374571D01*
X4373486Y-9984834D02*
X4403725Y-10015072D01*
X4403725Y-10015072D02*
X4433963Y-10105786D01*
X4433963Y-10105786D02*
X4433963Y-10166262D01*
X4433963Y-10166262D02*
X4403725Y-10256977D01*
X4403725Y-10256977D02*
X4343248Y-10317453D01*
X4343248Y-10317453D02*
X4282772Y-10347691D01*
X4282772Y-10347691D02*
X4161820Y-10377929D01*
X4161820Y-10377929D02*
X4071105Y-10377929D01*
X4071105Y-10377929D02*
X3950153Y-10347691D01*
X3950153Y-10347691D02*
X3889677Y-10317453D01*
X3889677Y-10317453D02*
X3829201Y-10256977D01*
X3829201Y-10256977D02*
X3798963Y-10166262D01*
X3798963Y-10166262D02*
X3798963Y-10105786D01*
X3798963Y-10105786D02*
X3829201Y-10015072D01*
X3829201Y-10015072D02*
X3859439Y-9984834D01*
X4010629Y-9440548D02*
X4433963Y-9440548D01*
X3768725Y-9591739D02*
X4222296Y-9742929D01*
X4222296Y-9742929D02*
X4222296Y-9349834D01*
X8540963Y-10329333D02*
X8540963Y-10692190D01*
X8540963Y-10510762D02*
X7905963Y-10510762D01*
X7905963Y-10510762D02*
X7996677Y-10571238D01*
X7996677Y-10571238D02*
X8057153Y-10631714D01*
X8057153Y-10631714D02*
X8087391Y-10692190D01*
X8117629Y-10057190D02*
X8752629Y-10057190D01*
X8450248Y-9754809D02*
X8510725Y-9724571D01*
X8510725Y-9724571D02*
X8540963Y-9664095D01*
X8450248Y-10057190D02*
X8510725Y-10026952D01*
X8510725Y-10026952D02*
X8540963Y-9966476D01*
X8540963Y-9966476D02*
X8540963Y-9845523D01*
X8540963Y-9845523D02*
X8510725Y-9785047D01*
X8510725Y-9785047D02*
X8450248Y-9754809D01*
X8450248Y-9754809D02*
X8117629Y-9754809D01*
X8208344Y-9180285D02*
X8208344Y-9391952D01*
X8540963Y-9391952D02*
X7905963Y-9391952D01*
X7905963Y-9391952D02*
X7905963Y-9089571D01*
X12882486Y-20017834D02*
X12912725Y-20048072D01*
X12912725Y-20048072D02*
X12942963Y-20138786D01*
X12942963Y-20138786D02*
X12942963Y-20199262D01*
X12942963Y-20199262D02*
X12912725Y-20289977D01*
X12912725Y-20289977D02*
X12852248Y-20350453D01*
X12852248Y-20350453D02*
X12791772Y-20380691D01*
X12791772Y-20380691D02*
X12670820Y-20410929D01*
X12670820Y-20410929D02*
X12580105Y-20410929D01*
X12580105Y-20410929D02*
X12459153Y-20380691D01*
X12459153Y-20380691D02*
X12398677Y-20350453D01*
X12398677Y-20350453D02*
X12338201Y-20289977D01*
X12338201Y-20289977D02*
X12307963Y-20199262D01*
X12307963Y-20199262D02*
X12307963Y-20138786D01*
X12307963Y-20138786D02*
X12338201Y-20048072D01*
X12338201Y-20048072D02*
X12368439Y-20017834D01*
X12307963Y-19806167D02*
X12307963Y-19413072D01*
X12307963Y-19413072D02*
X12549867Y-19624739D01*
X12549867Y-19624739D02*
X12549867Y-19534024D01*
X12549867Y-19534024D02*
X12580105Y-19473548D01*
X12580105Y-19473548D02*
X12610344Y-19443310D01*
X12610344Y-19443310D02*
X12670820Y-19413072D01*
X12670820Y-19413072D02*
X12822010Y-19413072D01*
X12822010Y-19413072D02*
X12882486Y-19443310D01*
X12882486Y-19443310D02*
X12912725Y-19473548D01*
X12912725Y-19473548D02*
X12942963Y-19534024D01*
X12942963Y-19534024D02*
X12942963Y-19715453D01*
X12942963Y-19715453D02*
X12912725Y-19775929D01*
X12912725Y-19775929D02*
X12882486Y-19806167D01*
X17049963Y-20362333D02*
X17049963Y-20725190D01*
X17049963Y-20543762D02*
X16414963Y-20543762D01*
X16414963Y-20543762D02*
X16505677Y-20604238D01*
X16505677Y-20604238D02*
X16566153Y-20664714D01*
X16566153Y-20664714D02*
X16596391Y-20725190D01*
X16626629Y-20090190D02*
X17261629Y-20090190D01*
X16959248Y-19787809D02*
X17019725Y-19757571D01*
X17019725Y-19757571D02*
X17049963Y-19697095D01*
X16959248Y-20090190D02*
X17019725Y-20059952D01*
X17019725Y-20059952D02*
X17049963Y-19999476D01*
X17049963Y-19999476D02*
X17049963Y-19878523D01*
X17049963Y-19878523D02*
X17019725Y-19818047D01*
X17019725Y-19818047D02*
X16959248Y-19787809D01*
X16959248Y-19787809D02*
X16626629Y-19787809D01*
X16717344Y-19213285D02*
X16717344Y-19424952D01*
X17049963Y-19424952D02*
X16414963Y-19424952D01*
X16414963Y-19424952D02*
X16414963Y-19122571D01*
X4119486Y-18874834D02*
X4149725Y-18905072D01*
X4149725Y-18905072D02*
X4179963Y-18995786D01*
X4179963Y-18995786D02*
X4179963Y-19056262D01*
X4179963Y-19056262D02*
X4149725Y-19146977D01*
X4149725Y-19146977D02*
X4089248Y-19207453D01*
X4089248Y-19207453D02*
X4028772Y-19237691D01*
X4028772Y-19237691D02*
X3907820Y-19267929D01*
X3907820Y-19267929D02*
X3817105Y-19267929D01*
X3817105Y-19267929D02*
X3696153Y-19237691D01*
X3696153Y-19237691D02*
X3635677Y-19207453D01*
X3635677Y-19207453D02*
X3575201Y-19146977D01*
X3575201Y-19146977D02*
X3544963Y-19056262D01*
X3544963Y-19056262D02*
X3544963Y-18995786D01*
X3544963Y-18995786D02*
X3575201Y-18905072D01*
X3575201Y-18905072D02*
X3605439Y-18874834D01*
X3605439Y-18632929D02*
X3575201Y-18602691D01*
X3575201Y-18602691D02*
X3544963Y-18542215D01*
X3544963Y-18542215D02*
X3544963Y-18391024D01*
X3544963Y-18391024D02*
X3575201Y-18330548D01*
X3575201Y-18330548D02*
X3605439Y-18300310D01*
X3605439Y-18300310D02*
X3665915Y-18270072D01*
X3665915Y-18270072D02*
X3726391Y-18270072D01*
X3726391Y-18270072D02*
X3817105Y-18300310D01*
X3817105Y-18300310D02*
X4179963Y-18663167D01*
X4179963Y-18663167D02*
X4179963Y-18270072D01*
X8286963Y-19219333D02*
X8286963Y-19582190D01*
X8286963Y-19400762D02*
X7651963Y-19400762D01*
X7651963Y-19400762D02*
X7742677Y-19461238D01*
X7742677Y-19461238D02*
X7803153Y-19521714D01*
X7803153Y-19521714D02*
X7833391Y-19582190D01*
X7863629Y-18947190D02*
X8498629Y-18947190D01*
X8196248Y-18644809D02*
X8256725Y-18614571D01*
X8256725Y-18614571D02*
X8286963Y-18554095D01*
X8196248Y-18947190D02*
X8256725Y-18916952D01*
X8256725Y-18916952D02*
X8286963Y-18856476D01*
X8286963Y-18856476D02*
X8286963Y-18735523D01*
X8286963Y-18735523D02*
X8256725Y-18675047D01*
X8256725Y-18675047D02*
X8196248Y-18644809D01*
X8196248Y-18644809D02*
X7863629Y-18644809D01*
X7954344Y-18070285D02*
X7954344Y-18281952D01*
X8286963Y-18281952D02*
X7651963Y-18281952D01*
X7651963Y-18281952D02*
X7651963Y-17979571D01*
X12882486Y-26748834D02*
X12912725Y-26779072D01*
X12912725Y-26779072D02*
X12942963Y-26869786D01*
X12942963Y-26869786D02*
X12942963Y-26930262D01*
X12942963Y-26930262D02*
X12912725Y-27020977D01*
X12912725Y-27020977D02*
X12852248Y-27081453D01*
X12852248Y-27081453D02*
X12791772Y-27111691D01*
X12791772Y-27111691D02*
X12670820Y-27141929D01*
X12670820Y-27141929D02*
X12580105Y-27141929D01*
X12580105Y-27141929D02*
X12459153Y-27111691D01*
X12459153Y-27111691D02*
X12398677Y-27081453D01*
X12398677Y-27081453D02*
X12338201Y-27020977D01*
X12338201Y-27020977D02*
X12307963Y-26930262D01*
X12307963Y-26930262D02*
X12307963Y-26869786D01*
X12307963Y-26869786D02*
X12338201Y-26779072D01*
X12338201Y-26779072D02*
X12368439Y-26748834D01*
X12942963Y-26144072D02*
X12942963Y-26506929D01*
X12942963Y-26325501D02*
X12307963Y-26325501D01*
X12307963Y-26325501D02*
X12398677Y-26385977D01*
X12398677Y-26385977D02*
X12459153Y-26446453D01*
X12459153Y-26446453D02*
X12489391Y-26506929D01*
X17049963Y-27093333D02*
X17049963Y-27456190D01*
X17049963Y-27274762D02*
X16414963Y-27274762D01*
X16414963Y-27274762D02*
X16505677Y-27335238D01*
X16505677Y-27335238D02*
X16566153Y-27395714D01*
X16566153Y-27395714D02*
X16596391Y-27456190D01*
X16626629Y-26821190D02*
X17261629Y-26821190D01*
X16959248Y-26518809D02*
X17019725Y-26488571D01*
X17019725Y-26488571D02*
X17049963Y-26428095D01*
X16959248Y-26821190D02*
X17019725Y-26790952D01*
X17019725Y-26790952D02*
X17049963Y-26730476D01*
X17049963Y-26730476D02*
X17049963Y-26609523D01*
X17049963Y-26609523D02*
X17019725Y-26549047D01*
X17019725Y-26549047D02*
X16959248Y-26518809D01*
X16959248Y-26518809D02*
X16626629Y-26518809D01*
X16717344Y-25944285D02*
X16717344Y-26155952D01*
X17049963Y-26155952D02*
X16414963Y-26155952D01*
X16414963Y-26155952D02*
X16414963Y-25853571D01*
X12334119Y2381037D02*
X12334119Y3016037D01*
X12999357Y2441514D02*
X12969119Y2411275D01*
X12969119Y2411275D02*
X12878405Y2381037D01*
X12878405Y2381037D02*
X12817929Y2381037D01*
X12817929Y2381037D02*
X12727214Y2411275D01*
X12727214Y2411275D02*
X12666738Y2471752D01*
X12666738Y2471752D02*
X12636500Y2532228D01*
X12636500Y2532228D02*
X12606262Y2653180D01*
X12606262Y2653180D02*
X12606262Y2743895D01*
X12606262Y2743895D02*
X12636500Y2864847D01*
X12636500Y2864847D02*
X12666738Y2925323D01*
X12666738Y2925323D02*
X12727214Y2985799D01*
X12727214Y2985799D02*
X12817929Y3016037D01*
X12817929Y3016037D02*
X12878405Y3016037D01*
X12878405Y3016037D02*
X12969119Y2985799D01*
X12969119Y2985799D02*
X12999357Y2955561D01*
X13604119Y2381037D02*
X13241262Y2381037D01*
X13422690Y2381037D02*
X13422690Y3016037D01*
X13422690Y3016037D02*
X13362214Y2925323D01*
X13362214Y2925323D02*
X13301738Y2864847D01*
X13301738Y2864847D02*
X13241262Y2834609D01*
X9751785Y530466D02*
X10054166Y530466D01*
X9691309Y349037D02*
X9902975Y984037D01*
X9902975Y984037D02*
X10114642Y349037D01*
X10326309Y349037D02*
X10326309Y984037D01*
X10326309Y984037D02*
X10568214Y984037D01*
X10568214Y984037D02*
X10628690Y953799D01*
X10628690Y953799D02*
X10658928Y923561D01*
X10658928Y923561D02*
X10689166Y863085D01*
X10689166Y863085D02*
X10689166Y772371D01*
X10689166Y772371D02*
X10658928Y711895D01*
X10658928Y711895D02*
X10628690Y681656D01*
X10628690Y681656D02*
X10568214Y651418D01*
X10568214Y651418D02*
X10326309Y651418D01*
X10900833Y984037D02*
X11324166Y984037D01*
X11324166Y984037D02*
X11052023Y349037D01*
X11505595Y984037D02*
X11898690Y984037D01*
X11898690Y984037D02*
X11687023Y742133D01*
X11687023Y742133D02*
X11777738Y742133D01*
X11777738Y742133D02*
X11838214Y711895D01*
X11838214Y711895D02*
X11868452Y681656D01*
X11868452Y681656D02*
X11898690Y621180D01*
X11898690Y621180D02*
X11898690Y469990D01*
X11898690Y469990D02*
X11868452Y409514D01*
X11868452Y409514D02*
X11838214Y379275D01*
X11838214Y379275D02*
X11777738Y349037D01*
X11777738Y349037D02*
X11596309Y349037D01*
X11596309Y349037D02*
X11535833Y379275D01*
X11535833Y379275D02*
X11505595Y409514D01*
X12442976Y984037D02*
X12322023Y984037D01*
X12322023Y984037D02*
X12261547Y953799D01*
X12261547Y953799D02*
X12231309Y923561D01*
X12231309Y923561D02*
X12170833Y832847D01*
X12170833Y832847D02*
X12140595Y711895D01*
X12140595Y711895D02*
X12140595Y469990D01*
X12140595Y469990D02*
X12170833Y409514D01*
X12170833Y409514D02*
X12201071Y379275D01*
X12201071Y379275D02*
X12261547Y349037D01*
X12261547Y349037D02*
X12382500Y349037D01*
X12382500Y349037D02*
X12442976Y379275D01*
X12442976Y379275D02*
X12473214Y409514D01*
X12473214Y409514D02*
X12503452Y469990D01*
X12503452Y469990D02*
X12503452Y621180D01*
X12503452Y621180D02*
X12473214Y681656D01*
X12473214Y681656D02*
X12442976Y711895D01*
X12442976Y711895D02*
X12382500Y742133D01*
X12382500Y742133D02*
X12261547Y742133D01*
X12261547Y742133D02*
X12201071Y711895D01*
X12201071Y711895D02*
X12170833Y681656D01*
X12170833Y681656D02*
X12140595Y621180D01*
X13077976Y984037D02*
X12775595Y984037D01*
X12775595Y984037D02*
X12745357Y681656D01*
X12745357Y681656D02*
X12775595Y711895D01*
X12775595Y711895D02*
X12836071Y742133D01*
X12836071Y742133D02*
X12987262Y742133D01*
X12987262Y742133D02*
X13047738Y711895D01*
X13047738Y711895D02*
X13077976Y681656D01*
X13077976Y681656D02*
X13108214Y621180D01*
X13108214Y621180D02*
X13108214Y469990D01*
X13108214Y469990D02*
X13077976Y409514D01*
X13077976Y409514D02*
X13047738Y379275D01*
X13047738Y379275D02*
X12987262Y349037D01*
X12987262Y349037D02*
X12836071Y349037D01*
X12836071Y349037D02*
X12775595Y379275D01*
X12775595Y379275D02*
X12745357Y409514D01*
D12*
%TO.C,C11*%
X14378000Y2548748D02*
X14378000Y3071252D01*
X15848000Y2548748D02*
X15848000Y3071252D01*
%TO.C,C10*%
X7012000Y2421748D02*
X7012000Y2944252D01*
X8482000Y2421748D02*
X8482000Y2944252D01*
D11*
%TO.C,IC7*%
X13232000Y-22270000D02*
X14107000Y-22270000D01*
X14457000Y-22495000D02*
X15007000Y-22495000D01*
X14457000Y-24495000D02*
X14457000Y-22495000D01*
X15007000Y-22495000D02*
X15007000Y-24495000D01*
X15007000Y-24495000D02*
X14457000Y-24495000D01*
%TO.C,IC6*%
X2757000Y-11277000D02*
X3707000Y-11277000D01*
X4057000Y-11327000D02*
X6357000Y-11327000D01*
X4057000Y-14327000D02*
X4057000Y-11327000D01*
X6357000Y-11327000D02*
X6357000Y-14327000D01*
X6357000Y-14327000D02*
X4057000Y-14327000D01*
%TO.C,IC5*%
X9470000Y-25106000D02*
X5770000Y-25106000D01*
X9470000Y-20106000D02*
X9470000Y-25106000D01*
X5770000Y-25106000D02*
X5770000Y-20106000D01*
X5770000Y-20106000D02*
X9470000Y-20106000D01*
X3945000Y-20081000D02*
X5420000Y-20081000D01*
%TO.C,IC4*%
X9089000Y-7199000D02*
X5389000Y-7199000D01*
X9089000Y-2199000D02*
X9089000Y-7199000D01*
X5389000Y-7199000D02*
X5389000Y-2199000D01*
X5389000Y-2199000D02*
X9089000Y-2199000D01*
X3589000Y-1849000D02*
X5039000Y-1849000D01*
%TO.C,IC3*%
X15185000Y-17613000D02*
X11485000Y-17613000D01*
X15185000Y-12613000D02*
X15185000Y-17613000D01*
X11485000Y-17613000D02*
X11485000Y-12613000D01*
X11485000Y-12613000D02*
X15185000Y-12613000D01*
X9685000Y-12263000D02*
X11135000Y-12263000D01*
%TO.C,IC2*%
X17856000Y-10832000D02*
X14656000Y-10832000D01*
X17856000Y-5932000D02*
X17856000Y-10832000D01*
X14656000Y-10832000D02*
X14656000Y-5932000D01*
X14656000Y-5932000D02*
X17856000Y-5932000D01*
X12781000Y-5592000D02*
X14306000Y-5592000D01*
D12*
%TO.C,C6*%
X9262252Y-1624000D02*
X8739748Y-1624000D01*
X9262252Y-154000D02*
X8739748Y-154000D01*
%TO.C,C5*%
X15993252Y-4926000D02*
X15470748Y-4926000D01*
X15993252Y-3456000D02*
X15470748Y-3456000D01*
%TO.C,C4*%
X6468252Y-10641000D02*
X5945748Y-10641000D01*
X6468252Y-9171000D02*
X5945748Y-9171000D01*
%TO.C,C3*%
X14977252Y-20674000D02*
X14454748Y-20674000D01*
X14977252Y-19204000D02*
X14454748Y-19204000D01*
%TO.C,C2*%
X6214252Y-19531000D02*
X5691748Y-19531000D01*
X6214252Y-18061000D02*
X5691748Y-18061000D01*
%TO.C,C1*%
X14977252Y-27405000D02*
X14454748Y-27405000D01*
X14977252Y-25935000D02*
X14454748Y-25935000D01*
D11*
%TO.C,IC1*%
X9555000Y4167000D02*
X10705000Y4167000D01*
X11055000Y4167000D02*
X11805000Y4167000D01*
X11055000Y1167000D02*
X11055000Y4167000D01*
X11805000Y4167000D02*
X11805000Y1167000D01*
X11805000Y1167000D02*
X11055000Y1167000D01*
%TD*%
M02*
