%TF.GenerationSoftware,KiCad,Pcbnew,8.0.7*%
%TF.CreationDate,2025-02-05T15:24:52+02:00*%
%TF.ProjectId,SNES Controller Reader,534e4553-2043-46f6-9e74-726f6c6c6572,V2*%
%TF.SameCoordinates,Original*%
%TF.FileFunction,Paste,Top*%
%TF.FilePolarity,Positive*%
%FSLAX46Y46*%
G04 Gerber Fmt 4.6, Leading zero omitted, Abs format (unit mm)*
G04 Created by KiCad (PCBNEW 8.0.7) date 2025-02-05 15:24:52*
%MOMM*%
%LPD*%
G01*
G04 APERTURE LIST*
G04 Aperture macros list*
%AMRoundRect*
0 Rectangle with rounded corners*
0 $1 Rounding radius*
0 $2 $3 $4 $5 $6 $7 $8 $9 X,Y pos of 4 corners*
0 Add a 4 corners polygon primitive as box body*
4,1,4,$2,$3,$4,$5,$6,$7,$8,$9,$2,$3,0*
0 Add four circle primitives for the rounded corners*
1,1,$1+$1,$2,$3*
1,1,$1+$1,$4,$5*
1,1,$1+$1,$6,$7*
1,1,$1+$1,$8,$9*
0 Add four rect primitives between the rounded corners*
20,1,$1+$1,$2,$3,$4,$5,0*
20,1,$1+$1,$4,$5,$6,$7,0*
20,1,$1+$1,$6,$7,$8,$9,0*
20,1,$1+$1,$8,$9,$2,$3,0*%
G04 Aperture macros list end*
%ADD10RoundRect,0.250000X0.475000X-0.250000X0.475000X0.250000X-0.475000X0.250000X-0.475000X-0.250000X0*%
%ADD11RoundRect,0.250000X-0.262500X-0.450000X0.262500X-0.450000X0.262500X0.450000X-0.262500X0.450000X0*%
%ADD12R,1.550000X0.650000*%
%ADD13R,1.150000X0.600000*%
%ADD14RoundRect,0.250000X0.250000X0.475000X-0.250000X0.475000X-0.250000X-0.475000X0.250000X-0.475000X0*%
%ADD15RoundRect,0.250000X0.262500X0.450000X-0.262500X0.450000X-0.262500X-0.450000X0.262500X-0.450000X0*%
G04 APERTURE END LIST*
D10*
%TO.C,C10*%
X9640000Y-31414000D03*
X9640000Y-29514000D03*
%TD*%
D11*
%TO.C,R2*%
X18772500Y-29708000D03*
X20597500Y-29708000D03*
%TD*%
D12*
%TO.C,IC6*%
X4641000Y-18034000D03*
X4641000Y-19304000D03*
X4641000Y-20574000D03*
X4641000Y-21844000D03*
X4641000Y-23114000D03*
X4641000Y-24384000D03*
X4641000Y-25654000D03*
X4641000Y-26924000D03*
X10091000Y-26924000D03*
X10091000Y-25654000D03*
X10091000Y-24384000D03*
X10091000Y-23114000D03*
X10091000Y-21844000D03*
X10091000Y-20574000D03*
X10091000Y-19304000D03*
X10091000Y-18034000D03*
%TD*%
D13*
%TO.C,IC11*%
X4814000Y-29530000D03*
X4814000Y-30480000D03*
X4814000Y-31430000D03*
X7414000Y-31430000D03*
X7414000Y-29530000D03*
%TD*%
D14*
%TO.C,C8*%
X8173000Y-16256000D03*
X6273000Y-16256000D03*
%TD*%
%TO.C,C7*%
X18079000Y-16256000D03*
X16179000Y-16256000D03*
%TD*%
%TO.C,C6*%
X12491000Y-16256000D03*
X10591000Y-16256000D03*
%TD*%
D10*
%TO.C,C9*%
X2304000Y-31414000D03*
X2304000Y-29514000D03*
%TD*%
D15*
%TO.C,R1*%
X20597500Y-31633000D03*
X18772500Y-31633000D03*
%TD*%
D12*
%TO.C,IC7*%
X13191000Y-18034000D03*
X13191000Y-19304000D03*
X13191000Y-20574000D03*
X13191000Y-21844000D03*
X13191000Y-23114000D03*
X13191000Y-24384000D03*
X13191000Y-25654000D03*
X13191000Y-26924000D03*
X18641000Y-26924000D03*
X18641000Y-25654000D03*
X18641000Y-24384000D03*
X18641000Y-23114000D03*
X18641000Y-21844000D03*
X18641000Y-20574000D03*
X18641000Y-19304000D03*
X18641000Y-18034000D03*
%TD*%
M02*
