%TF.GenerationSoftware,KiCad,Pcbnew,9.0.4*%
%TF.CreationDate,2025-09-05T14:03:03+02:00*%
%TF.ProjectId,HCP65 MPU Address Decode,48435036-3520-44d5-9055-204164647265,V1*%
%TF.SameCoordinates,Original*%
%TF.FileFunction,Soldermask,Top*%
%TF.FilePolarity,Negative*%
%FSLAX46Y46*%
G04 Gerber Fmt 4.6, Leading zero omitted, Abs format (unit mm)*
G04 Created by KiCad (PCBNEW 9.0.4) date 2025-09-05 14:03:03*
%MOMM*%
%LPD*%
G01*
G04 APERTURE LIST*
G04 Aperture macros list*
%AMRoundRect*
0 Rectangle with rounded corners*
0 $1 Rounding radius*
0 $2 $3 $4 $5 $6 $7 $8 $9 X,Y pos of 4 corners*
0 Add a 4 corners polygon primitive as box body*
4,1,4,$2,$3,$4,$5,$6,$7,$8,$9,$2,$3,0*
0 Add four circle primitives for the rounded corners*
1,1,$1+$1,$2,$3*
1,1,$1+$1,$4,$5*
1,1,$1+$1,$6,$7*
1,1,$1+$1,$8,$9*
0 Add four rect primitives between the rounded corners*
20,1,$1+$1,$2,$3,$4,$5,0*
20,1,$1+$1,$4,$5,$6,$7,0*
20,1,$1+$1,$6,$7,$8,$9,0*
20,1,$1+$1,$8,$9,$2,$3,0*%
G04 Aperture macros list end*
%ADD10R,1.250000X0.600000*%
%ADD11R,1.475000X0.450000*%
%ADD12R,0.875000X0.450000*%
%ADD13R,1.450000X0.450000*%
%ADD14C,1.600000*%
%ADD15O,1.600000X1.600000*%
%ADD16RoundRect,0.400000X-0.400000X-0.400000X0.400000X-0.400000X0.400000X0.400000X-0.400000X0.400000X0*%
%ADD17R,1.600000X1.600000*%
%ADD18R,1.150000X0.600000*%
G04 APERTURE END LIST*
D10*
%TO.C,IC8*%
X9545000Y-39563000D03*
X9545000Y-40513000D03*
X9545000Y-41463000D03*
X12045000Y-41463000D03*
X12045000Y-39563000D03*
%TD*%
D11*
%TO.C,IC3*%
X4809000Y-46310000D03*
X4809000Y-46960000D03*
X4809000Y-47610000D03*
X4809000Y-48260000D03*
X4809000Y-48910000D03*
X4809000Y-49560000D03*
X4809000Y-50210000D03*
X10685000Y-50210000D03*
X10685000Y-49560000D03*
X10685000Y-48910000D03*
X10685000Y-48260000D03*
X10685000Y-47610000D03*
X10685000Y-46960000D03*
X10685000Y-46310000D03*
%TD*%
%TO.C,IC7*%
X4284000Y-52787000D03*
X4284000Y-53437000D03*
X4284000Y-54087000D03*
X4284000Y-54737000D03*
X4284000Y-55387000D03*
X4284000Y-56037000D03*
X4284000Y-56687000D03*
X10160000Y-56687000D03*
X10160000Y-56037000D03*
X10160000Y-55387000D03*
X10160000Y-54737000D03*
X10160000Y-54087000D03*
X10160000Y-53437000D03*
X10160000Y-52787000D03*
%TD*%
D12*
%TO.C,IC4*%
X7447000Y-33894000D03*
X7447000Y-34544000D03*
X7447000Y-35194000D03*
X9571000Y-35194000D03*
X9571000Y-34544000D03*
X9571000Y-33894000D03*
%TD*%
D13*
%TO.C,IC11*%
X10164001Y-31739000D03*
X10164001Y-31089000D03*
X10164001Y-30439000D03*
X10164001Y-29789000D03*
X10164001Y-29139000D03*
X10164001Y-28489000D03*
X10164001Y-27839000D03*
X10164001Y-27189000D03*
X4314001Y-27189000D03*
X4314001Y-27839000D03*
X4314001Y-28489000D03*
X4314001Y-29139000D03*
X4314001Y-29789000D03*
X4314001Y-30439000D03*
X4314001Y-31089000D03*
X4314001Y-31739000D03*
%TD*%
%TO.C,IC39*%
X9910000Y-8843251D03*
X9910000Y-8193251D03*
X9910000Y-7543251D03*
X9910000Y-6893251D03*
X9910000Y-6243251D03*
X9910000Y-5593251D03*
X9910000Y-4943251D03*
X9910000Y-4293251D03*
X4060000Y-4293251D03*
X4060000Y-4943251D03*
X4060000Y-5593251D03*
X4060000Y-6243251D03*
X4060000Y-6893251D03*
X4060000Y-7543251D03*
X4060000Y-8193251D03*
X4060000Y-8843251D03*
%TD*%
%TO.C,IC38*%
X10164000Y-16118000D03*
X10164000Y-15468000D03*
X10164000Y-14818000D03*
X10164000Y-14168000D03*
X10164000Y-13518000D03*
X10164000Y-12868000D03*
X10164000Y-12218000D03*
X10164000Y-11568000D03*
X4314000Y-11568000D03*
X4314000Y-12218000D03*
X4314000Y-12868000D03*
X4314000Y-13518000D03*
X4314000Y-14168000D03*
X4314000Y-14818000D03*
X4314000Y-15468000D03*
X4314000Y-16118000D03*
%TD*%
D14*
%TO.C,J2*%
X0Y0D03*
D15*
X0Y-2540000D03*
D16*
X0Y-5080000D03*
D15*
X0Y-7620000D03*
X0Y-10160000D03*
X0Y-12700000D03*
X0Y-15240000D03*
X0Y-17780000D03*
D17*
X0Y-20320000D03*
D14*
X0Y-22860000D03*
X0Y-25400000D03*
D15*
X0Y-27940000D03*
X0Y-30480000D03*
X0Y-33020000D03*
X0Y-35560000D03*
X0Y-38100000D03*
X0Y-40640000D03*
X0Y-43180000D03*
D14*
X0Y-45720000D03*
D17*
X0Y-48260000D03*
D15*
X0Y-50800000D03*
X0Y-53340000D03*
X0Y-55880000D03*
X0Y-58420000D03*
X0Y-60960000D03*
X0Y-63500000D03*
X0Y-66040000D03*
X0Y-68580000D03*
X15240000Y-68580000D03*
X15240000Y-66040000D03*
D16*
X15240000Y-63500000D03*
D15*
X15240000Y-60960000D03*
X15240000Y-58420000D03*
X15240000Y-55880000D03*
X15240000Y-53340000D03*
X15240000Y-50800000D03*
D17*
X15240000Y-48260000D03*
D14*
X15240000Y-45720000D03*
D15*
X15240000Y-43180000D03*
X15240000Y-40640000D03*
X15240000Y-38100000D03*
X15240000Y-35560000D03*
X15240000Y-33020000D03*
X15240000Y-30480000D03*
X15240000Y-27940000D03*
D14*
X15240000Y-25400000D03*
X15240000Y-22860000D03*
D17*
X15240000Y-20320000D03*
D15*
X15240000Y-17780000D03*
X15240000Y-15240000D03*
X15240000Y-12700000D03*
X15240000Y-10160000D03*
X15240000Y-7620000D03*
X15240000Y-5080000D03*
X15240000Y-2540000D03*
X15240000Y0D03*
%TD*%
D13*
%TO.C,IC16*%
X10164000Y-65267000D03*
X10164000Y-64617000D03*
X10164000Y-63967000D03*
X10164000Y-63317000D03*
X10164000Y-62667000D03*
X10164000Y-62017000D03*
X10164000Y-61367000D03*
X10164000Y-60717000D03*
X4314000Y-60717000D03*
X4314000Y-61367000D03*
X4314000Y-62017000D03*
X4314000Y-62667000D03*
X4314000Y-63317000D03*
X4314000Y-63967000D03*
X4314000Y-64617000D03*
X4314000Y-65267000D03*
%TD*%
%TO.C,IC33*%
X10037000Y-23357000D03*
X10037000Y-22707000D03*
X10037000Y-22057000D03*
X10037000Y-21407000D03*
X10037000Y-20757000D03*
X10037000Y-20107000D03*
X10037000Y-19457000D03*
X10037000Y-18807000D03*
X4187000Y-18807000D03*
X4187000Y-19457000D03*
X4187000Y-20107000D03*
X4187000Y-20757000D03*
X4187000Y-21407000D03*
X4187000Y-22057000D03*
X4187000Y-22707000D03*
X4187000Y-23357000D03*
%TD*%
D18*
%TO.C,IC42*%
X8666000Y-1585000D03*
X8666000Y-635000D03*
X8666000Y315000D03*
X6066000Y315000D03*
X6066000Y-1585000D03*
%TD*%
D12*
%TO.C,IC1*%
X3716816Y-41495000D03*
X3716816Y-42145000D03*
X3716816Y-42795000D03*
X5840816Y-42795000D03*
X5840816Y-42145000D03*
X5840816Y-41495000D03*
%TD*%
M02*
