%TF.GenerationSoftware,KiCad,Pcbnew,9.0.2*%
%TF.CreationDate,2025-06-26T18:24:56+02:00*%
%TF.ProjectId,HCP65 MPU Address Decode,48435036-3520-44d5-9055-204164647265,V1*%
%TF.SameCoordinates,Original*%
%TF.FileFunction,Legend,Bot*%
%TF.FilePolarity,Positive*%
%FSLAX46Y46*%
G04 Gerber Fmt 4.6, Leading zero omitted, Abs format (unit mm)*
G04 Created by KiCad (PCBNEW 9.0.2) date 2025-06-26 18:24:56*
%MOMM*%
%LPD*%
G01*
G04 APERTURE LIST*
%ADD10C,0.150000*%
%ADD11C,0.120000*%
G04 APERTURE END LIST*
D10*
X10346402Y-55942275D02*
X10376640Y-55972514D01*
X10376640Y-55972514D02*
X10467354Y-56002752D01*
X10467354Y-56002752D02*
X10527830Y-56002752D01*
X10527830Y-56002752D02*
X10618545Y-55972514D01*
X10618545Y-55972514D02*
X10679021Y-55912037D01*
X10679021Y-55912037D02*
X10709259Y-55851561D01*
X10709259Y-55851561D02*
X10739497Y-55730609D01*
X10739497Y-55730609D02*
X10739497Y-55639894D01*
X10739497Y-55639894D02*
X10709259Y-55518942D01*
X10709259Y-55518942D02*
X10679021Y-55458466D01*
X10679021Y-55458466D02*
X10618545Y-55397990D01*
X10618545Y-55397990D02*
X10527830Y-55367752D01*
X10527830Y-55367752D02*
X10467354Y-55367752D01*
X10467354Y-55367752D02*
X10376640Y-55397990D01*
X10376640Y-55397990D02*
X10346402Y-55428228D01*
X10134735Y-55367752D02*
X9741640Y-55367752D01*
X9741640Y-55367752D02*
X9953307Y-55609656D01*
X9953307Y-55609656D02*
X9862592Y-55609656D01*
X9862592Y-55609656D02*
X9802116Y-55639894D01*
X9802116Y-55639894D02*
X9771878Y-55670133D01*
X9771878Y-55670133D02*
X9741640Y-55730609D01*
X9741640Y-55730609D02*
X9741640Y-55881799D01*
X9741640Y-55881799D02*
X9771878Y-55942275D01*
X9771878Y-55942275D02*
X9802116Y-55972514D01*
X9802116Y-55972514D02*
X9862592Y-56002752D01*
X9862592Y-56002752D02*
X10044021Y-56002752D01*
X10044021Y-56002752D02*
X10104497Y-55972514D01*
X10104497Y-55972514D02*
X10134735Y-55942275D01*
X9136878Y-56002752D02*
X9499735Y-56002752D01*
X9318307Y-56002752D02*
X9318307Y-55367752D01*
X9318307Y-55367752D02*
X9378783Y-55458466D01*
X9378783Y-55458466D02*
X9439259Y-55518942D01*
X9439259Y-55518942D02*
X9499735Y-55549180D01*
X10334522Y-51895752D02*
X10697379Y-51895752D01*
X10515951Y-51895752D02*
X10515951Y-51260752D01*
X10515951Y-51260752D02*
X10576427Y-51351466D01*
X10576427Y-51351466D02*
X10636903Y-51411942D01*
X10636903Y-51411942D02*
X10697379Y-51442180D01*
X10062379Y-51472418D02*
X10062379Y-52107418D01*
X9759998Y-51805037D02*
X9729760Y-51865514D01*
X9729760Y-51865514D02*
X9669284Y-51895752D01*
X10062379Y-51805037D02*
X10032141Y-51865514D01*
X10032141Y-51865514D02*
X9971665Y-51895752D01*
X9971665Y-51895752D02*
X9850712Y-51895752D01*
X9850712Y-51895752D02*
X9790236Y-51865514D01*
X9790236Y-51865514D02*
X9759998Y-51805037D01*
X9759998Y-51805037D02*
X9759998Y-51472418D01*
X9185474Y-51563133D02*
X9397141Y-51563133D01*
X9397141Y-51895752D02*
X9397141Y-51260752D01*
X9397141Y-51260752D02*
X9094760Y-51260752D01*
X11230213Y-2935486D02*
X11260451Y-2965725D01*
X11260451Y-2965725D02*
X11351165Y-2995963D01*
X11351165Y-2995963D02*
X11411641Y-2995963D01*
X11411641Y-2995963D02*
X11502356Y-2965725D01*
X11502356Y-2965725D02*
X11562832Y-2905248D01*
X11562832Y-2905248D02*
X11593070Y-2844772D01*
X11593070Y-2844772D02*
X11623308Y-2723820D01*
X11623308Y-2723820D02*
X11623308Y-2633105D01*
X11623308Y-2633105D02*
X11593070Y-2512153D01*
X11593070Y-2512153D02*
X11562832Y-2451677D01*
X11562832Y-2451677D02*
X11502356Y-2391201D01*
X11502356Y-2391201D02*
X11411641Y-2360963D01*
X11411641Y-2360963D02*
X11351165Y-2360963D01*
X11351165Y-2360963D02*
X11260451Y-2391201D01*
X11260451Y-2391201D02*
X11230213Y-2421439D01*
X10685927Y-2572629D02*
X10685927Y-2995963D01*
X10837118Y-2330725D02*
X10988308Y-2784296D01*
X10988308Y-2784296D02*
X10595213Y-2784296D01*
X10050927Y-2360963D02*
X10353308Y-2360963D01*
X10353308Y-2360963D02*
X10383546Y-2663344D01*
X10383546Y-2663344D02*
X10353308Y-2633105D01*
X10353308Y-2633105D02*
X10292832Y-2602867D01*
X10292832Y-2602867D02*
X10141641Y-2602867D01*
X10141641Y-2602867D02*
X10081165Y-2633105D01*
X10081165Y-2633105D02*
X10050927Y-2663344D01*
X10050927Y-2663344D02*
X10020689Y-2723820D01*
X10020689Y-2723820D02*
X10020689Y-2875010D01*
X10020689Y-2875010D02*
X10050927Y-2935486D01*
X10050927Y-2935486D02*
X10081165Y-2965725D01*
X10081165Y-2965725D02*
X10141641Y-2995963D01*
X10141641Y-2995963D02*
X10292832Y-2995963D01*
X10292832Y-2995963D02*
X10353308Y-2965725D01*
X10353308Y-2965725D02*
X10383546Y-2935486D01*
X11520714Y1111036D02*
X11883571Y1111036D01*
X11702143Y1111036D02*
X11702143Y1746036D01*
X11702143Y1746036D02*
X11762619Y1655322D01*
X11762619Y1655322D02*
X11823095Y1594846D01*
X11823095Y1594846D02*
X11883571Y1564608D01*
X11127619Y1746036D02*
X11067142Y1746036D01*
X11067142Y1746036D02*
X11006666Y1715798D01*
X11006666Y1715798D02*
X10976428Y1685560D01*
X10976428Y1685560D02*
X10946190Y1625084D01*
X10946190Y1625084D02*
X10915952Y1504132D01*
X10915952Y1504132D02*
X10915952Y1352941D01*
X10915952Y1352941D02*
X10946190Y1231989D01*
X10946190Y1231989D02*
X10976428Y1171513D01*
X10976428Y1171513D02*
X11006666Y1141275D01*
X11006666Y1141275D02*
X11067142Y1111036D01*
X11067142Y1111036D02*
X11127619Y1111036D01*
X11127619Y1111036D02*
X11188095Y1141275D01*
X11188095Y1141275D02*
X11218333Y1171513D01*
X11218333Y1171513D02*
X11248571Y1231989D01*
X11248571Y1231989D02*
X11278809Y1352941D01*
X11278809Y1352941D02*
X11278809Y1504132D01*
X11278809Y1504132D02*
X11248571Y1625084D01*
X11248571Y1625084D02*
X11218333Y1685560D01*
X11218333Y1685560D02*
X11188095Y1715798D01*
X11188095Y1715798D02*
X11127619Y1746036D01*
X10643809Y1534370D02*
X10643809Y899370D01*
X10341428Y1201751D02*
X10311190Y1141275D01*
X10311190Y1141275D02*
X10250714Y1111036D01*
X10643809Y1201751D02*
X10613571Y1141275D01*
X10613571Y1141275D02*
X10553095Y1111036D01*
X10553095Y1111036D02*
X10432142Y1111036D01*
X10432142Y1111036D02*
X10371666Y1141275D01*
X10371666Y1141275D02*
X10341428Y1201751D01*
X10341428Y1201751D02*
X10341428Y1534370D01*
X9766904Y1443655D02*
X9978571Y1443655D01*
X9978571Y1111036D02*
X9978571Y1746036D01*
X9978571Y1746036D02*
X9676190Y1746036D01*
X10160214Y-27995486D02*
X10190452Y-28025725D01*
X10190452Y-28025725D02*
X10281166Y-28055963D01*
X10281166Y-28055963D02*
X10341642Y-28055963D01*
X10341642Y-28055963D02*
X10432357Y-28025725D01*
X10432357Y-28025725D02*
X10492833Y-27965248D01*
X10492833Y-27965248D02*
X10523071Y-27904772D01*
X10523071Y-27904772D02*
X10553309Y-27783820D01*
X10553309Y-27783820D02*
X10553309Y-27693105D01*
X10553309Y-27693105D02*
X10523071Y-27572153D01*
X10523071Y-27572153D02*
X10492833Y-27511677D01*
X10492833Y-27511677D02*
X10432357Y-27451201D01*
X10432357Y-27451201D02*
X10341642Y-27420963D01*
X10341642Y-27420963D02*
X10281166Y-27420963D01*
X10281166Y-27420963D02*
X10190452Y-27451201D01*
X10190452Y-27451201D02*
X10160214Y-27481439D01*
X9948547Y-27420963D02*
X9555452Y-27420963D01*
X9555452Y-27420963D02*
X9767119Y-27662867D01*
X9767119Y-27662867D02*
X9676404Y-27662867D01*
X9676404Y-27662867D02*
X9615928Y-27693105D01*
X9615928Y-27693105D02*
X9585690Y-27723344D01*
X9585690Y-27723344D02*
X9555452Y-27783820D01*
X9555452Y-27783820D02*
X9555452Y-27935010D01*
X9555452Y-27935010D02*
X9585690Y-27995486D01*
X9585690Y-27995486D02*
X9615928Y-28025725D01*
X9615928Y-28025725D02*
X9676404Y-28055963D01*
X9676404Y-28055963D02*
X9857833Y-28055963D01*
X9857833Y-28055963D02*
X9918309Y-28025725D01*
X9918309Y-28025725D02*
X9948547Y-27995486D01*
X9011166Y-27632629D02*
X9011166Y-28055963D01*
X9162357Y-27390725D02*
X9313547Y-27844296D01*
X9313547Y-27844296D02*
X8920452Y-27844296D01*
X10202332Y-32162963D02*
X10565189Y-32162963D01*
X10383761Y-32162963D02*
X10383761Y-31527963D01*
X10383761Y-31527963D02*
X10444237Y-31618677D01*
X10444237Y-31618677D02*
X10504713Y-31679153D01*
X10504713Y-31679153D02*
X10565189Y-31709391D01*
X9930189Y-31739629D02*
X9930189Y-32374629D01*
X9627808Y-32072248D02*
X9597570Y-32132725D01*
X9597570Y-32132725D02*
X9537094Y-32162963D01*
X9930189Y-32072248D02*
X9899951Y-32132725D01*
X9899951Y-32132725D02*
X9839475Y-32162963D01*
X9839475Y-32162963D02*
X9718522Y-32162963D01*
X9718522Y-32162963D02*
X9658046Y-32132725D01*
X9658046Y-32132725D02*
X9627808Y-32072248D01*
X9627808Y-32072248D02*
X9627808Y-31739629D01*
X9053284Y-31830344D02*
X9264951Y-31830344D01*
X9264951Y-32162963D02*
X9264951Y-31527963D01*
X9264951Y-31527963D02*
X8962570Y-31527963D01*
X4699215Y-62285486D02*
X4729453Y-62315725D01*
X4729453Y-62315725D02*
X4820167Y-62345963D01*
X4820167Y-62345963D02*
X4880643Y-62345963D01*
X4880643Y-62345963D02*
X4971358Y-62315725D01*
X4971358Y-62315725D02*
X5031834Y-62255248D01*
X5031834Y-62255248D02*
X5062072Y-62194772D01*
X5062072Y-62194772D02*
X5092310Y-62073820D01*
X5092310Y-62073820D02*
X5092310Y-61983105D01*
X5092310Y-61983105D02*
X5062072Y-61862153D01*
X5062072Y-61862153D02*
X5031834Y-61801677D01*
X5031834Y-61801677D02*
X4971358Y-61741201D01*
X4971358Y-61741201D02*
X4880643Y-61710963D01*
X4880643Y-61710963D02*
X4820167Y-61710963D01*
X4820167Y-61710963D02*
X4729453Y-61741201D01*
X4729453Y-61741201D02*
X4699215Y-61771439D01*
X4487548Y-61710963D02*
X4094453Y-61710963D01*
X4094453Y-61710963D02*
X4306120Y-61952867D01*
X4306120Y-61952867D02*
X4215405Y-61952867D01*
X4215405Y-61952867D02*
X4154929Y-61983105D01*
X4154929Y-61983105D02*
X4124691Y-62013344D01*
X4124691Y-62013344D02*
X4094453Y-62073820D01*
X4094453Y-62073820D02*
X4094453Y-62225010D01*
X4094453Y-62225010D02*
X4124691Y-62285486D01*
X4124691Y-62285486D02*
X4154929Y-62315725D01*
X4154929Y-62315725D02*
X4215405Y-62345963D01*
X4215405Y-62345963D02*
X4396834Y-62345963D01*
X4396834Y-62345963D02*
X4457310Y-62315725D01*
X4457310Y-62315725D02*
X4487548Y-62285486D01*
X3882786Y-61710963D02*
X3489691Y-61710963D01*
X3489691Y-61710963D02*
X3701358Y-61952867D01*
X3701358Y-61952867D02*
X3610643Y-61952867D01*
X3610643Y-61952867D02*
X3550167Y-61983105D01*
X3550167Y-61983105D02*
X3519929Y-62013344D01*
X3519929Y-62013344D02*
X3489691Y-62073820D01*
X3489691Y-62073820D02*
X3489691Y-62225010D01*
X3489691Y-62225010D02*
X3519929Y-62285486D01*
X3519929Y-62285486D02*
X3550167Y-62315725D01*
X3550167Y-62315725D02*
X3610643Y-62345963D01*
X3610643Y-62345963D02*
X3792072Y-62345963D01*
X3792072Y-62345963D02*
X3852548Y-62315725D01*
X3852548Y-62315725D02*
X3882786Y-62285486D01*
X4741333Y-66452963D02*
X5104190Y-66452963D01*
X4922762Y-66452963D02*
X4922762Y-65817963D01*
X4922762Y-65817963D02*
X4983238Y-65908677D01*
X4983238Y-65908677D02*
X5043714Y-65969153D01*
X5043714Y-65969153D02*
X5104190Y-65999391D01*
X4469190Y-66029629D02*
X4469190Y-66664629D01*
X4166809Y-66362248D02*
X4136571Y-66422725D01*
X4136571Y-66422725D02*
X4076095Y-66452963D01*
X4469190Y-66362248D02*
X4438952Y-66422725D01*
X4438952Y-66422725D02*
X4378476Y-66452963D01*
X4378476Y-66452963D02*
X4257523Y-66452963D01*
X4257523Y-66452963D02*
X4197047Y-66422725D01*
X4197047Y-66422725D02*
X4166809Y-66362248D01*
X4166809Y-66362248D02*
X4166809Y-66029629D01*
X3592285Y-66120344D02*
X3803952Y-66120344D01*
X3803952Y-66452963D02*
X3803952Y-65817963D01*
X3803952Y-65817963D02*
X3501571Y-65817963D01*
X11308832Y-49118486D02*
X11339070Y-49148725D01*
X11339070Y-49148725D02*
X11429784Y-49178963D01*
X11429784Y-49178963D02*
X11490260Y-49178963D01*
X11490260Y-49178963D02*
X11580975Y-49148725D01*
X11580975Y-49148725D02*
X11641451Y-49088248D01*
X11641451Y-49088248D02*
X11671689Y-49027772D01*
X11671689Y-49027772D02*
X11701927Y-48906820D01*
X11701927Y-48906820D02*
X11701927Y-48816105D01*
X11701927Y-48816105D02*
X11671689Y-48695153D01*
X11671689Y-48695153D02*
X11641451Y-48634677D01*
X11641451Y-48634677D02*
X11580975Y-48574201D01*
X11580975Y-48574201D02*
X11490260Y-48543963D01*
X11490260Y-48543963D02*
X11429784Y-48543963D01*
X11429784Y-48543963D02*
X11339070Y-48574201D01*
X11339070Y-48574201D02*
X11308832Y-48604439D01*
X10704070Y-49178963D02*
X11066927Y-49178963D01*
X10885499Y-49178963D02*
X10885499Y-48543963D01*
X10885499Y-48543963D02*
X10945975Y-48634677D01*
X10945975Y-48634677D02*
X11006451Y-48695153D01*
X11006451Y-48695153D02*
X11066927Y-48725391D01*
X11599333Y-45071963D02*
X11962190Y-45071963D01*
X11780762Y-45071963D02*
X11780762Y-44436963D01*
X11780762Y-44436963D02*
X11841238Y-44527677D01*
X11841238Y-44527677D02*
X11901714Y-44588153D01*
X11901714Y-44588153D02*
X11962190Y-44618391D01*
X11327190Y-44648629D02*
X11327190Y-45283629D01*
X11024809Y-44981248D02*
X10994571Y-45041725D01*
X10994571Y-45041725D02*
X10934095Y-45071963D01*
X11327190Y-44981248D02*
X11296952Y-45041725D01*
X11296952Y-45041725D02*
X11236476Y-45071963D01*
X11236476Y-45071963D02*
X11115523Y-45071963D01*
X11115523Y-45071963D02*
X11055047Y-45041725D01*
X11055047Y-45041725D02*
X11024809Y-44981248D01*
X11024809Y-44981248D02*
X11024809Y-44648629D01*
X10450285Y-44739344D02*
X10661952Y-44739344D01*
X10661952Y-45071963D02*
X10661952Y-44436963D01*
X10661952Y-44436963D02*
X10359571Y-44436963D01*
X4275213Y-2681486D02*
X4305451Y-2711725D01*
X4305451Y-2711725D02*
X4396165Y-2741963D01*
X4396165Y-2741963D02*
X4456641Y-2741963D01*
X4456641Y-2741963D02*
X4547356Y-2711725D01*
X4547356Y-2711725D02*
X4607832Y-2651248D01*
X4607832Y-2651248D02*
X4638070Y-2590772D01*
X4638070Y-2590772D02*
X4668308Y-2469820D01*
X4668308Y-2469820D02*
X4668308Y-2379105D01*
X4668308Y-2379105D02*
X4638070Y-2258153D01*
X4638070Y-2258153D02*
X4607832Y-2197677D01*
X4607832Y-2197677D02*
X4547356Y-2137201D01*
X4547356Y-2137201D02*
X4456641Y-2106963D01*
X4456641Y-2106963D02*
X4396165Y-2106963D01*
X4396165Y-2106963D02*
X4305451Y-2137201D01*
X4305451Y-2137201D02*
X4275213Y-2167439D01*
X3730927Y-2318629D02*
X3730927Y-2741963D01*
X3882118Y-2076725D02*
X4033308Y-2530296D01*
X4033308Y-2530296D02*
X3640213Y-2530296D01*
X3126165Y-2106963D02*
X3247118Y-2106963D01*
X3247118Y-2106963D02*
X3307594Y-2137201D01*
X3307594Y-2137201D02*
X3337832Y-2167439D01*
X3337832Y-2167439D02*
X3398308Y-2258153D01*
X3398308Y-2258153D02*
X3428546Y-2379105D01*
X3428546Y-2379105D02*
X3428546Y-2621010D01*
X3428546Y-2621010D02*
X3398308Y-2681486D01*
X3398308Y-2681486D02*
X3368070Y-2711725D01*
X3368070Y-2711725D02*
X3307594Y-2741963D01*
X3307594Y-2741963D02*
X3186641Y-2741963D01*
X3186641Y-2741963D02*
X3126165Y-2711725D01*
X3126165Y-2711725D02*
X3095927Y-2681486D01*
X3095927Y-2681486D02*
X3065689Y-2621010D01*
X3065689Y-2621010D02*
X3065689Y-2469820D01*
X3065689Y-2469820D02*
X3095927Y-2409344D01*
X3095927Y-2409344D02*
X3126165Y-2379105D01*
X3126165Y-2379105D02*
X3186641Y-2348867D01*
X3186641Y-2348867D02*
X3307594Y-2348867D01*
X3307594Y-2348867D02*
X3368070Y-2379105D01*
X3368070Y-2379105D02*
X3398308Y-2409344D01*
X3398308Y-2409344D02*
X3428546Y-2469820D01*
X4565714Y1365036D02*
X4928571Y1365036D01*
X4747143Y1365036D02*
X4747143Y2000036D01*
X4747143Y2000036D02*
X4807619Y1909322D01*
X4807619Y1909322D02*
X4868095Y1848846D01*
X4868095Y1848846D02*
X4928571Y1818608D01*
X4172619Y2000036D02*
X4112142Y2000036D01*
X4112142Y2000036D02*
X4051666Y1969798D01*
X4051666Y1969798D02*
X4021428Y1939560D01*
X4021428Y1939560D02*
X3991190Y1879084D01*
X3991190Y1879084D02*
X3960952Y1758132D01*
X3960952Y1758132D02*
X3960952Y1606941D01*
X3960952Y1606941D02*
X3991190Y1485989D01*
X3991190Y1485989D02*
X4021428Y1425513D01*
X4021428Y1425513D02*
X4051666Y1395275D01*
X4051666Y1395275D02*
X4112142Y1365036D01*
X4112142Y1365036D02*
X4172619Y1365036D01*
X4172619Y1365036D02*
X4233095Y1395275D01*
X4233095Y1395275D02*
X4263333Y1425513D01*
X4263333Y1425513D02*
X4293571Y1485989D01*
X4293571Y1485989D02*
X4323809Y1606941D01*
X4323809Y1606941D02*
X4323809Y1758132D01*
X4323809Y1758132D02*
X4293571Y1879084D01*
X4293571Y1879084D02*
X4263333Y1939560D01*
X4263333Y1939560D02*
X4233095Y1969798D01*
X4233095Y1969798D02*
X4172619Y2000036D01*
X3688809Y1788370D02*
X3688809Y1153370D01*
X3386428Y1455751D02*
X3356190Y1395275D01*
X3356190Y1395275D02*
X3295714Y1365036D01*
X3688809Y1455751D02*
X3658571Y1395275D01*
X3658571Y1395275D02*
X3598095Y1365036D01*
X3598095Y1365036D02*
X3477142Y1365036D01*
X3477142Y1365036D02*
X3416666Y1395275D01*
X3416666Y1395275D02*
X3386428Y1455751D01*
X3386428Y1455751D02*
X3386428Y1788370D01*
X2811904Y1697655D02*
X3023571Y1697655D01*
X3023571Y1365036D02*
X3023571Y2000036D01*
X3023571Y2000036D02*
X2721190Y2000036D01*
X4826215Y-40695486D02*
X4856453Y-40725725D01*
X4856453Y-40725725D02*
X4947167Y-40755963D01*
X4947167Y-40755963D02*
X5007643Y-40755963D01*
X5007643Y-40755963D02*
X5098358Y-40725725D01*
X5098358Y-40725725D02*
X5158834Y-40665248D01*
X5158834Y-40665248D02*
X5189072Y-40604772D01*
X5189072Y-40604772D02*
X5219310Y-40483820D01*
X5219310Y-40483820D02*
X5219310Y-40393105D01*
X5219310Y-40393105D02*
X5189072Y-40272153D01*
X5189072Y-40272153D02*
X5158834Y-40211677D01*
X5158834Y-40211677D02*
X5098358Y-40151201D01*
X5098358Y-40151201D02*
X5007643Y-40120963D01*
X5007643Y-40120963D02*
X4947167Y-40120963D01*
X4947167Y-40120963D02*
X4856453Y-40151201D01*
X4856453Y-40151201D02*
X4826215Y-40181439D01*
X4614548Y-40120963D02*
X4221453Y-40120963D01*
X4221453Y-40120963D02*
X4433120Y-40362867D01*
X4433120Y-40362867D02*
X4342405Y-40362867D01*
X4342405Y-40362867D02*
X4281929Y-40393105D01*
X4281929Y-40393105D02*
X4251691Y-40423344D01*
X4251691Y-40423344D02*
X4221453Y-40483820D01*
X4221453Y-40483820D02*
X4221453Y-40635010D01*
X4221453Y-40635010D02*
X4251691Y-40695486D01*
X4251691Y-40695486D02*
X4281929Y-40725725D01*
X4281929Y-40725725D02*
X4342405Y-40755963D01*
X4342405Y-40755963D02*
X4523834Y-40755963D01*
X4523834Y-40755963D02*
X4584310Y-40725725D01*
X4584310Y-40725725D02*
X4614548Y-40695486D01*
X3677167Y-40120963D02*
X3798120Y-40120963D01*
X3798120Y-40120963D02*
X3858596Y-40151201D01*
X3858596Y-40151201D02*
X3888834Y-40181439D01*
X3888834Y-40181439D02*
X3949310Y-40272153D01*
X3949310Y-40272153D02*
X3979548Y-40393105D01*
X3979548Y-40393105D02*
X3979548Y-40635010D01*
X3979548Y-40635010D02*
X3949310Y-40695486D01*
X3949310Y-40695486D02*
X3919072Y-40725725D01*
X3919072Y-40725725D02*
X3858596Y-40755963D01*
X3858596Y-40755963D02*
X3737643Y-40755963D01*
X3737643Y-40755963D02*
X3677167Y-40725725D01*
X3677167Y-40725725D02*
X3646929Y-40695486D01*
X3646929Y-40695486D02*
X3616691Y-40635010D01*
X3616691Y-40635010D02*
X3616691Y-40483820D01*
X3616691Y-40483820D02*
X3646929Y-40423344D01*
X3646929Y-40423344D02*
X3677167Y-40393105D01*
X3677167Y-40393105D02*
X3737643Y-40362867D01*
X3737643Y-40362867D02*
X3858596Y-40362867D01*
X3858596Y-40362867D02*
X3919072Y-40393105D01*
X3919072Y-40393105D02*
X3949310Y-40423344D01*
X3949310Y-40423344D02*
X3979548Y-40483820D01*
X4868333Y-44862963D02*
X5231190Y-44862963D01*
X5049762Y-44862963D02*
X5049762Y-44227963D01*
X5049762Y-44227963D02*
X5110238Y-44318677D01*
X5110238Y-44318677D02*
X5170714Y-44379153D01*
X5170714Y-44379153D02*
X5231190Y-44409391D01*
X4596190Y-44439629D02*
X4596190Y-45074629D01*
X4293809Y-44772248D02*
X4263571Y-44832725D01*
X4263571Y-44832725D02*
X4203095Y-44862963D01*
X4596190Y-44772248D02*
X4565952Y-44832725D01*
X4565952Y-44832725D02*
X4505476Y-44862963D01*
X4505476Y-44862963D02*
X4384523Y-44862963D01*
X4384523Y-44862963D02*
X4324047Y-44832725D01*
X4324047Y-44832725D02*
X4293809Y-44772248D01*
X4293809Y-44772248D02*
X4293809Y-44439629D01*
X3719285Y-44530344D02*
X3930952Y-44530344D01*
X3930952Y-44862963D02*
X3930952Y-44227963D01*
X3930952Y-44227963D02*
X3628571Y-44227963D01*
X6731215Y-47426486D02*
X6761453Y-47456725D01*
X6761453Y-47456725D02*
X6852167Y-47486963D01*
X6852167Y-47486963D02*
X6912643Y-47486963D01*
X6912643Y-47486963D02*
X7003358Y-47456725D01*
X7003358Y-47456725D02*
X7063834Y-47396248D01*
X7063834Y-47396248D02*
X7094072Y-47335772D01*
X7094072Y-47335772D02*
X7124310Y-47214820D01*
X7124310Y-47214820D02*
X7124310Y-47124105D01*
X7124310Y-47124105D02*
X7094072Y-47003153D01*
X7094072Y-47003153D02*
X7063834Y-46942677D01*
X7063834Y-46942677D02*
X7003358Y-46882201D01*
X7003358Y-46882201D02*
X6912643Y-46851963D01*
X6912643Y-46851963D02*
X6852167Y-46851963D01*
X6852167Y-46851963D02*
X6761453Y-46882201D01*
X6761453Y-46882201D02*
X6731215Y-46912439D01*
X6519548Y-46851963D02*
X6126453Y-46851963D01*
X6126453Y-46851963D02*
X6338120Y-47093867D01*
X6338120Y-47093867D02*
X6247405Y-47093867D01*
X6247405Y-47093867D02*
X6186929Y-47124105D01*
X6186929Y-47124105D02*
X6156691Y-47154344D01*
X6156691Y-47154344D02*
X6126453Y-47214820D01*
X6126453Y-47214820D02*
X6126453Y-47366010D01*
X6126453Y-47366010D02*
X6156691Y-47426486D01*
X6156691Y-47426486D02*
X6186929Y-47456725D01*
X6186929Y-47456725D02*
X6247405Y-47486963D01*
X6247405Y-47486963D02*
X6428834Y-47486963D01*
X6428834Y-47486963D02*
X6489310Y-47456725D01*
X6489310Y-47456725D02*
X6519548Y-47426486D01*
X5884548Y-46912439D02*
X5854310Y-46882201D01*
X5854310Y-46882201D02*
X5793834Y-46851963D01*
X5793834Y-46851963D02*
X5642643Y-46851963D01*
X5642643Y-46851963D02*
X5582167Y-46882201D01*
X5582167Y-46882201D02*
X5551929Y-46912439D01*
X5551929Y-46912439D02*
X5521691Y-46972915D01*
X5521691Y-46972915D02*
X5521691Y-47033391D01*
X5521691Y-47033391D02*
X5551929Y-47124105D01*
X5551929Y-47124105D02*
X5914786Y-47486963D01*
X5914786Y-47486963D02*
X5521691Y-47486963D01*
X6773333Y-51593963D02*
X7136190Y-51593963D01*
X6954762Y-51593963D02*
X6954762Y-50958963D01*
X6954762Y-50958963D02*
X7015238Y-51049677D01*
X7015238Y-51049677D02*
X7075714Y-51110153D01*
X7075714Y-51110153D02*
X7136190Y-51140391D01*
X6501190Y-51170629D02*
X6501190Y-51805629D01*
X6198809Y-51503248D02*
X6168571Y-51563725D01*
X6168571Y-51563725D02*
X6108095Y-51593963D01*
X6501190Y-51503248D02*
X6470952Y-51563725D01*
X6470952Y-51563725D02*
X6410476Y-51593963D01*
X6410476Y-51593963D02*
X6289523Y-51593963D01*
X6289523Y-51593963D02*
X6229047Y-51563725D01*
X6229047Y-51563725D02*
X6198809Y-51503248D01*
X6198809Y-51503248D02*
X6198809Y-51170629D01*
X5624285Y-51261344D02*
X5835952Y-51261344D01*
X5835952Y-51593963D02*
X5835952Y-50958963D01*
X5835952Y-50958963D02*
X5533571Y-50958963D01*
X9017214Y-34091486D02*
X9047452Y-34121725D01*
X9047452Y-34121725D02*
X9138166Y-34151963D01*
X9138166Y-34151963D02*
X9198642Y-34151963D01*
X9198642Y-34151963D02*
X9289357Y-34121725D01*
X9289357Y-34121725D02*
X9349833Y-34061248D01*
X9349833Y-34061248D02*
X9380071Y-34000772D01*
X9380071Y-34000772D02*
X9410309Y-33879820D01*
X9410309Y-33879820D02*
X9410309Y-33789105D01*
X9410309Y-33789105D02*
X9380071Y-33668153D01*
X9380071Y-33668153D02*
X9349833Y-33607677D01*
X9349833Y-33607677D02*
X9289357Y-33547201D01*
X9289357Y-33547201D02*
X9198642Y-33516963D01*
X9198642Y-33516963D02*
X9138166Y-33516963D01*
X9138166Y-33516963D02*
X9047452Y-33547201D01*
X9047452Y-33547201D02*
X9017214Y-33577439D01*
X8805547Y-33516963D02*
X8412452Y-33516963D01*
X8412452Y-33516963D02*
X8624119Y-33758867D01*
X8624119Y-33758867D02*
X8533404Y-33758867D01*
X8533404Y-33758867D02*
X8472928Y-33789105D01*
X8472928Y-33789105D02*
X8442690Y-33819344D01*
X8442690Y-33819344D02*
X8412452Y-33879820D01*
X8412452Y-33879820D02*
X8412452Y-34031010D01*
X8412452Y-34031010D02*
X8442690Y-34091486D01*
X8442690Y-34091486D02*
X8472928Y-34121725D01*
X8472928Y-34121725D02*
X8533404Y-34151963D01*
X8533404Y-34151963D02*
X8714833Y-34151963D01*
X8714833Y-34151963D02*
X8775309Y-34121725D01*
X8775309Y-34121725D02*
X8805547Y-34091486D01*
X7837928Y-33516963D02*
X8140309Y-33516963D01*
X8140309Y-33516963D02*
X8170547Y-33819344D01*
X8170547Y-33819344D02*
X8140309Y-33789105D01*
X8140309Y-33789105D02*
X8079833Y-33758867D01*
X8079833Y-33758867D02*
X7928642Y-33758867D01*
X7928642Y-33758867D02*
X7868166Y-33789105D01*
X7868166Y-33789105D02*
X7837928Y-33819344D01*
X7837928Y-33819344D02*
X7807690Y-33879820D01*
X7807690Y-33879820D02*
X7807690Y-34031010D01*
X7807690Y-34031010D02*
X7837928Y-34091486D01*
X7837928Y-34091486D02*
X7868166Y-34121725D01*
X7868166Y-34121725D02*
X7928642Y-34151963D01*
X7928642Y-34151963D02*
X8079833Y-34151963D01*
X8079833Y-34151963D02*
X8140309Y-34121725D01*
X8140309Y-34121725D02*
X8170547Y-34091486D01*
X9059333Y-38258963D02*
X9422190Y-38258963D01*
X9240762Y-38258963D02*
X9240762Y-37623963D01*
X9240762Y-37623963D02*
X9301238Y-37714677D01*
X9301238Y-37714677D02*
X9361714Y-37775153D01*
X9361714Y-37775153D02*
X9422190Y-37805391D01*
X8787190Y-37835629D02*
X8787190Y-38470629D01*
X8484809Y-38168248D02*
X8454571Y-38228725D01*
X8454571Y-38228725D02*
X8394095Y-38258963D01*
X8787190Y-38168248D02*
X8756952Y-38228725D01*
X8756952Y-38228725D02*
X8696476Y-38258963D01*
X8696476Y-38258963D02*
X8575523Y-38258963D01*
X8575523Y-38258963D02*
X8515047Y-38228725D01*
X8515047Y-38228725D02*
X8484809Y-38168248D01*
X8484809Y-38168248D02*
X8484809Y-37835629D01*
X7910285Y-37926344D02*
X8121952Y-37926344D01*
X8121952Y-38258963D02*
X8121952Y-37623963D01*
X8121952Y-37623963D02*
X7819571Y-37623963D01*
X4445215Y-13009486D02*
X4475453Y-13039725D01*
X4475453Y-13039725D02*
X4566167Y-13069963D01*
X4566167Y-13069963D02*
X4626643Y-13069963D01*
X4626643Y-13069963D02*
X4717358Y-13039725D01*
X4717358Y-13039725D02*
X4777834Y-12979248D01*
X4777834Y-12979248D02*
X4808072Y-12918772D01*
X4808072Y-12918772D02*
X4838310Y-12797820D01*
X4838310Y-12797820D02*
X4838310Y-12707105D01*
X4838310Y-12707105D02*
X4808072Y-12586153D01*
X4808072Y-12586153D02*
X4777834Y-12525677D01*
X4777834Y-12525677D02*
X4717358Y-12465201D01*
X4717358Y-12465201D02*
X4626643Y-12434963D01*
X4626643Y-12434963D02*
X4566167Y-12434963D01*
X4566167Y-12434963D02*
X4475453Y-12465201D01*
X4475453Y-12465201D02*
X4445215Y-12495439D01*
X3900929Y-12646629D02*
X3900929Y-13069963D01*
X4052120Y-12404725D02*
X4203310Y-12858296D01*
X4203310Y-12858296D02*
X3810215Y-12858296D01*
X3447358Y-12434963D02*
X3386881Y-12434963D01*
X3386881Y-12434963D02*
X3326405Y-12465201D01*
X3326405Y-12465201D02*
X3296167Y-12495439D01*
X3296167Y-12495439D02*
X3265929Y-12555915D01*
X3265929Y-12555915D02*
X3235691Y-12676867D01*
X3235691Y-12676867D02*
X3235691Y-12828058D01*
X3235691Y-12828058D02*
X3265929Y-12949010D01*
X3265929Y-12949010D02*
X3296167Y-13009486D01*
X3296167Y-13009486D02*
X3326405Y-13039725D01*
X3326405Y-13039725D02*
X3386881Y-13069963D01*
X3386881Y-13069963D02*
X3447358Y-13069963D01*
X3447358Y-13069963D02*
X3507834Y-13039725D01*
X3507834Y-13039725D02*
X3538072Y-13009486D01*
X3538072Y-13009486D02*
X3568310Y-12949010D01*
X3568310Y-12949010D02*
X3598548Y-12828058D01*
X3598548Y-12828058D02*
X3598548Y-12676867D01*
X3598548Y-12676867D02*
X3568310Y-12555915D01*
X3568310Y-12555915D02*
X3538072Y-12495439D01*
X3538072Y-12495439D02*
X3507834Y-12465201D01*
X3507834Y-12465201D02*
X3447358Y-12434963D01*
X4487333Y-17176963D02*
X4850190Y-17176963D01*
X4668762Y-17176963D02*
X4668762Y-16541963D01*
X4668762Y-16541963D02*
X4729238Y-16632677D01*
X4729238Y-16632677D02*
X4789714Y-16693153D01*
X4789714Y-16693153D02*
X4850190Y-16723391D01*
X4215190Y-16753629D02*
X4215190Y-17388629D01*
X3912809Y-17086248D02*
X3882571Y-17146725D01*
X3882571Y-17146725D02*
X3822095Y-17176963D01*
X4215190Y-17086248D02*
X4184952Y-17146725D01*
X4184952Y-17146725D02*
X4124476Y-17176963D01*
X4124476Y-17176963D02*
X4003523Y-17176963D01*
X4003523Y-17176963D02*
X3943047Y-17146725D01*
X3943047Y-17146725D02*
X3912809Y-17086248D01*
X3912809Y-17086248D02*
X3912809Y-16753629D01*
X3338285Y-16844344D02*
X3549952Y-16844344D01*
X3549952Y-17176963D02*
X3549952Y-16541963D01*
X3549952Y-16541963D02*
X3247571Y-16541963D01*
X10365833Y-38536486D02*
X10396071Y-38566725D01*
X10396071Y-38566725D02*
X10486785Y-38596963D01*
X10486785Y-38596963D02*
X10547261Y-38596963D01*
X10547261Y-38596963D02*
X10637976Y-38566725D01*
X10637976Y-38566725D02*
X10698452Y-38506248D01*
X10698452Y-38506248D02*
X10728690Y-38445772D01*
X10728690Y-38445772D02*
X10758928Y-38324820D01*
X10758928Y-38324820D02*
X10758928Y-38234105D01*
X10758928Y-38234105D02*
X10728690Y-38113153D01*
X10728690Y-38113153D02*
X10698452Y-38052677D01*
X10698452Y-38052677D02*
X10637976Y-37992201D01*
X10637976Y-37992201D02*
X10547261Y-37961963D01*
X10547261Y-37961963D02*
X10486785Y-37961963D01*
X10486785Y-37961963D02*
X10396071Y-37992201D01*
X10396071Y-37992201D02*
X10365833Y-38022439D01*
X10123928Y-38022439D02*
X10093690Y-37992201D01*
X10093690Y-37992201D02*
X10033214Y-37961963D01*
X10033214Y-37961963D02*
X9882023Y-37961963D01*
X9882023Y-37961963D02*
X9821547Y-37992201D01*
X9821547Y-37992201D02*
X9791309Y-38022439D01*
X9791309Y-38022439D02*
X9761071Y-38082915D01*
X9761071Y-38082915D02*
X9761071Y-38143391D01*
X9761071Y-38143391D02*
X9791309Y-38234105D01*
X9791309Y-38234105D02*
X10154166Y-38596963D01*
X10154166Y-38596963D02*
X9761071Y-38596963D01*
X10710333Y-42703963D02*
X11073190Y-42703963D01*
X10891762Y-42703963D02*
X10891762Y-42068963D01*
X10891762Y-42068963D02*
X10952238Y-42159677D01*
X10952238Y-42159677D02*
X11012714Y-42220153D01*
X11012714Y-42220153D02*
X11073190Y-42250391D01*
X10438190Y-42280629D02*
X10438190Y-42915629D01*
X10135809Y-42613248D02*
X10105571Y-42673725D01*
X10105571Y-42673725D02*
X10045095Y-42703963D01*
X10438190Y-42613248D02*
X10407952Y-42673725D01*
X10407952Y-42673725D02*
X10347476Y-42703963D01*
X10347476Y-42703963D02*
X10226523Y-42703963D01*
X10226523Y-42703963D02*
X10166047Y-42673725D01*
X10166047Y-42673725D02*
X10135809Y-42613248D01*
X10135809Y-42613248D02*
X10135809Y-42280629D01*
X9561285Y-42371344D02*
X9772952Y-42371344D01*
X9772952Y-42703963D02*
X9772952Y-42068963D01*
X9772952Y-42068963D02*
X9470571Y-42068963D01*
X3556215Y-21772486D02*
X3586453Y-21802725D01*
X3586453Y-21802725D02*
X3677167Y-21832963D01*
X3677167Y-21832963D02*
X3737643Y-21832963D01*
X3737643Y-21832963D02*
X3828358Y-21802725D01*
X3828358Y-21802725D02*
X3888834Y-21742248D01*
X3888834Y-21742248D02*
X3919072Y-21681772D01*
X3919072Y-21681772D02*
X3949310Y-21560820D01*
X3949310Y-21560820D02*
X3949310Y-21470105D01*
X3949310Y-21470105D02*
X3919072Y-21349153D01*
X3919072Y-21349153D02*
X3888834Y-21288677D01*
X3888834Y-21288677D02*
X3828358Y-21228201D01*
X3828358Y-21228201D02*
X3737643Y-21197963D01*
X3737643Y-21197963D02*
X3677167Y-21197963D01*
X3677167Y-21197963D02*
X3586453Y-21228201D01*
X3586453Y-21228201D02*
X3556215Y-21258439D01*
X3344548Y-21197963D02*
X2951453Y-21197963D01*
X2951453Y-21197963D02*
X3163120Y-21439867D01*
X3163120Y-21439867D02*
X3072405Y-21439867D01*
X3072405Y-21439867D02*
X3011929Y-21470105D01*
X3011929Y-21470105D02*
X2981691Y-21500344D01*
X2981691Y-21500344D02*
X2951453Y-21560820D01*
X2951453Y-21560820D02*
X2951453Y-21712010D01*
X2951453Y-21712010D02*
X2981691Y-21772486D01*
X2981691Y-21772486D02*
X3011929Y-21802725D01*
X3011929Y-21802725D02*
X3072405Y-21832963D01*
X3072405Y-21832963D02*
X3253834Y-21832963D01*
X3253834Y-21832963D02*
X3314310Y-21802725D01*
X3314310Y-21802725D02*
X3344548Y-21772486D01*
X2588596Y-21470105D02*
X2649072Y-21439867D01*
X2649072Y-21439867D02*
X2679310Y-21409629D01*
X2679310Y-21409629D02*
X2709548Y-21349153D01*
X2709548Y-21349153D02*
X2709548Y-21318915D01*
X2709548Y-21318915D02*
X2679310Y-21258439D01*
X2679310Y-21258439D02*
X2649072Y-21228201D01*
X2649072Y-21228201D02*
X2588596Y-21197963D01*
X2588596Y-21197963D02*
X2467643Y-21197963D01*
X2467643Y-21197963D02*
X2407167Y-21228201D01*
X2407167Y-21228201D02*
X2376929Y-21258439D01*
X2376929Y-21258439D02*
X2346691Y-21318915D01*
X2346691Y-21318915D02*
X2346691Y-21349153D01*
X2346691Y-21349153D02*
X2376929Y-21409629D01*
X2376929Y-21409629D02*
X2407167Y-21439867D01*
X2407167Y-21439867D02*
X2467643Y-21470105D01*
X2467643Y-21470105D02*
X2588596Y-21470105D01*
X2588596Y-21470105D02*
X2649072Y-21500344D01*
X2649072Y-21500344D02*
X2679310Y-21530582D01*
X2679310Y-21530582D02*
X2709548Y-21591058D01*
X2709548Y-21591058D02*
X2709548Y-21712010D01*
X2709548Y-21712010D02*
X2679310Y-21772486D01*
X2679310Y-21772486D02*
X2649072Y-21802725D01*
X2649072Y-21802725D02*
X2588596Y-21832963D01*
X2588596Y-21832963D02*
X2467643Y-21832963D01*
X2467643Y-21832963D02*
X2407167Y-21802725D01*
X2407167Y-21802725D02*
X2376929Y-21772486D01*
X2376929Y-21772486D02*
X2346691Y-21712010D01*
X2346691Y-21712010D02*
X2346691Y-21591058D01*
X2346691Y-21591058D02*
X2376929Y-21530582D01*
X2376929Y-21530582D02*
X2407167Y-21500344D01*
X2407167Y-21500344D02*
X2467643Y-21470105D01*
X3598333Y-25939963D02*
X3961190Y-25939963D01*
X3779762Y-25939963D02*
X3779762Y-25304963D01*
X3779762Y-25304963D02*
X3840238Y-25395677D01*
X3840238Y-25395677D02*
X3900714Y-25456153D01*
X3900714Y-25456153D02*
X3961190Y-25486391D01*
X3326190Y-25516629D02*
X3326190Y-26151629D01*
X3023809Y-25849248D02*
X2993571Y-25909725D01*
X2993571Y-25909725D02*
X2933095Y-25939963D01*
X3326190Y-25849248D02*
X3295952Y-25909725D01*
X3295952Y-25909725D02*
X3235476Y-25939963D01*
X3235476Y-25939963D02*
X3114523Y-25939963D01*
X3114523Y-25939963D02*
X3054047Y-25909725D01*
X3054047Y-25909725D02*
X3023809Y-25849248D01*
X3023809Y-25849248D02*
X3023809Y-25516629D01*
X2449285Y-25607344D02*
X2660952Y-25607344D01*
X2660952Y-25939963D02*
X2660952Y-25304963D01*
X2660952Y-25304963D02*
X2358571Y-25304963D01*
X4191215Y-5861737D02*
X4221453Y-5891976D01*
X4221453Y-5891976D02*
X4312167Y-5922214D01*
X4312167Y-5922214D02*
X4372643Y-5922214D01*
X4372643Y-5922214D02*
X4463358Y-5891976D01*
X4463358Y-5891976D02*
X4523834Y-5831499D01*
X4523834Y-5831499D02*
X4554072Y-5771023D01*
X4554072Y-5771023D02*
X4584310Y-5650071D01*
X4584310Y-5650071D02*
X4584310Y-5559356D01*
X4584310Y-5559356D02*
X4554072Y-5438404D01*
X4554072Y-5438404D02*
X4523834Y-5377928D01*
X4523834Y-5377928D02*
X4463358Y-5317452D01*
X4463358Y-5317452D02*
X4372643Y-5287214D01*
X4372643Y-5287214D02*
X4312167Y-5287214D01*
X4312167Y-5287214D02*
X4221453Y-5317452D01*
X4221453Y-5317452D02*
X4191215Y-5347690D01*
X3979548Y-5287214D02*
X3586453Y-5287214D01*
X3586453Y-5287214D02*
X3798120Y-5529118D01*
X3798120Y-5529118D02*
X3707405Y-5529118D01*
X3707405Y-5529118D02*
X3646929Y-5559356D01*
X3646929Y-5559356D02*
X3616691Y-5589595D01*
X3616691Y-5589595D02*
X3586453Y-5650071D01*
X3586453Y-5650071D02*
X3586453Y-5801261D01*
X3586453Y-5801261D02*
X3616691Y-5861737D01*
X3616691Y-5861737D02*
X3646929Y-5891976D01*
X3646929Y-5891976D02*
X3707405Y-5922214D01*
X3707405Y-5922214D02*
X3888834Y-5922214D01*
X3888834Y-5922214D02*
X3949310Y-5891976D01*
X3949310Y-5891976D02*
X3979548Y-5861737D01*
X3284072Y-5922214D02*
X3163120Y-5922214D01*
X3163120Y-5922214D02*
X3102643Y-5891976D01*
X3102643Y-5891976D02*
X3072405Y-5861737D01*
X3072405Y-5861737D02*
X3011929Y-5771023D01*
X3011929Y-5771023D02*
X2981691Y-5650071D01*
X2981691Y-5650071D02*
X2981691Y-5408166D01*
X2981691Y-5408166D02*
X3011929Y-5347690D01*
X3011929Y-5347690D02*
X3042167Y-5317452D01*
X3042167Y-5317452D02*
X3102643Y-5287214D01*
X3102643Y-5287214D02*
X3223596Y-5287214D01*
X3223596Y-5287214D02*
X3284072Y-5317452D01*
X3284072Y-5317452D02*
X3314310Y-5347690D01*
X3314310Y-5347690D02*
X3344548Y-5408166D01*
X3344548Y-5408166D02*
X3344548Y-5559356D01*
X3344548Y-5559356D02*
X3314310Y-5619833D01*
X3314310Y-5619833D02*
X3284072Y-5650071D01*
X3284072Y-5650071D02*
X3223596Y-5680309D01*
X3223596Y-5680309D02*
X3102643Y-5680309D01*
X3102643Y-5680309D02*
X3042167Y-5650071D01*
X3042167Y-5650071D02*
X3011929Y-5619833D01*
X3011929Y-5619833D02*
X2981691Y-5559356D01*
X4233333Y-10029214D02*
X4596190Y-10029214D01*
X4414762Y-10029214D02*
X4414762Y-9394214D01*
X4414762Y-9394214D02*
X4475238Y-9484928D01*
X4475238Y-9484928D02*
X4535714Y-9545404D01*
X4535714Y-9545404D02*
X4596190Y-9575642D01*
X3961190Y-9605880D02*
X3961190Y-10240880D01*
X3658809Y-9938499D02*
X3628571Y-9998976D01*
X3628571Y-9998976D02*
X3568095Y-10029214D01*
X3961190Y-9938499D02*
X3930952Y-9998976D01*
X3930952Y-9998976D02*
X3870476Y-10029214D01*
X3870476Y-10029214D02*
X3749523Y-10029214D01*
X3749523Y-10029214D02*
X3689047Y-9998976D01*
X3689047Y-9998976D02*
X3658809Y-9938499D01*
X3658809Y-9938499D02*
X3658809Y-9605880D01*
X3084285Y-9696595D02*
X3295952Y-9696595D01*
X3295952Y-10029214D02*
X3295952Y-9394214D01*
X3295952Y-9394214D02*
X2993571Y-9394214D01*
D11*
%TO.C,C31*%
X9176189Y-53919041D02*
X9176189Y-53396537D01*
X10646189Y-53919041D02*
X10646189Y-53396537D01*
%TO.C,C45*%
X10060000Y-912252D02*
X10060000Y-389748D01*
X11530000Y-912252D02*
X11530000Y-389748D01*
%TO.C,C34*%
X9043999Y-29567748D02*
X9043999Y-30090252D01*
X10513999Y-29567748D02*
X10513999Y-30090252D01*
%TO.C,C33*%
X3583000Y-63857748D02*
X3583000Y-64380252D01*
X5053000Y-63857748D02*
X5053000Y-64380252D01*
%TO.C,C1*%
X10441000Y-47095252D02*
X10441000Y-46572748D01*
X11911000Y-47095252D02*
X11911000Y-46572748D01*
%TO.C,C46*%
X3105000Y-658252D02*
X3105000Y-135748D01*
X4575000Y-658252D02*
X4575000Y-135748D01*
%TO.C,C36*%
X3710000Y-42267748D02*
X3710000Y-42790252D01*
X5180000Y-42267748D02*
X5180000Y-42790252D01*
%TO.C,C32*%
X5615000Y-48998748D02*
X5615000Y-49521252D01*
X7085000Y-48998748D02*
X7085000Y-49521252D01*
%TO.C,C35*%
X7901000Y-35663748D02*
X7901000Y-36186252D01*
X9371000Y-35663748D02*
X9371000Y-36186252D01*
%TO.C,C40*%
X3329000Y-14581748D02*
X3329000Y-15104252D01*
X4799000Y-14581748D02*
X4799000Y-15104252D01*
%TO.C,C2*%
X9552000Y-40108748D02*
X9552000Y-40631252D01*
X11022000Y-40108748D02*
X11022000Y-40631252D01*
%TO.C,C38*%
X2440000Y-23344748D02*
X2440000Y-23867252D01*
X3910000Y-23344748D02*
X3910000Y-23867252D01*
%TO.C,C39*%
X3075000Y-7433999D02*
X3075000Y-7956503D01*
X4545000Y-7433999D02*
X4545000Y-7956503D01*
%TD*%
M02*
