%TF.GenerationSoftware,KiCad,Pcbnew,9.0.2*%
%TF.CreationDate,2025-06-27T08:02:56+02:00*%
%TF.ProjectId,ROM 2316 to 2716,524f4d20-3233-4313-9620-746f20323731,rev?*%
%TF.SameCoordinates,Original*%
%TF.FileFunction,Legend,Top*%
%TF.FilePolarity,Positive*%
%FSLAX46Y46*%
G04 Gerber Fmt 4.6, Leading zero omitted, Abs format (unit mm)*
G04 Created by KiCad (PCBNEW 9.0.2) date 2025-06-27 08:02:56*
%MOMM*%
%LPD*%
G01*
G04 APERTURE LIST*
%ADD10C,0.200000*%
%ADD11C,0.150000*%
%ADD12C,0.120000*%
G04 APERTURE END LIST*
D10*
X88785485Y-79541047D02*
X88737866Y-79493428D01*
X88737866Y-79493428D02*
X88690247Y-79398190D01*
X88690247Y-79398190D02*
X88690247Y-79160095D01*
X88690247Y-79160095D02*
X88737866Y-79064857D01*
X88737866Y-79064857D02*
X88785485Y-79017238D01*
X88785485Y-79017238D02*
X88880723Y-78969619D01*
X88880723Y-78969619D02*
X88975961Y-78969619D01*
X88975961Y-78969619D02*
X89118818Y-79017238D01*
X89118818Y-79017238D02*
X89690247Y-79588666D01*
X89690247Y-79588666D02*
X89690247Y-78969619D01*
X88690247Y-78636285D02*
X88690247Y-78017238D01*
X88690247Y-78017238D02*
X89071199Y-78350571D01*
X89071199Y-78350571D02*
X89071199Y-78207714D01*
X89071199Y-78207714D02*
X89118818Y-78112476D01*
X89118818Y-78112476D02*
X89166437Y-78064857D01*
X89166437Y-78064857D02*
X89261675Y-78017238D01*
X89261675Y-78017238D02*
X89499770Y-78017238D01*
X89499770Y-78017238D02*
X89595008Y-78064857D01*
X89595008Y-78064857D02*
X89642628Y-78112476D01*
X89642628Y-78112476D02*
X89690247Y-78207714D01*
X89690247Y-78207714D02*
X89690247Y-78493428D01*
X89690247Y-78493428D02*
X89642628Y-78588666D01*
X89642628Y-78588666D02*
X89595008Y-78636285D01*
X89690247Y-77064857D02*
X89690247Y-77636285D01*
X89690247Y-77350571D02*
X88690247Y-77350571D01*
X88690247Y-77350571D02*
X88833104Y-77445809D01*
X88833104Y-77445809D02*
X88928342Y-77541047D01*
X88928342Y-77541047D02*
X88975961Y-77636285D01*
X88690247Y-76207714D02*
X88690247Y-76398190D01*
X88690247Y-76398190D02*
X88737866Y-76493428D01*
X88737866Y-76493428D02*
X88785485Y-76541047D01*
X88785485Y-76541047D02*
X88928342Y-76636285D01*
X88928342Y-76636285D02*
X89118818Y-76683904D01*
X89118818Y-76683904D02*
X89499770Y-76683904D01*
X89499770Y-76683904D02*
X89595008Y-76636285D01*
X89595008Y-76636285D02*
X89642628Y-76588666D01*
X89642628Y-76588666D02*
X89690247Y-76493428D01*
X89690247Y-76493428D02*
X89690247Y-76302952D01*
X89690247Y-76302952D02*
X89642628Y-76207714D01*
X89642628Y-76207714D02*
X89595008Y-76160095D01*
X89595008Y-76160095D02*
X89499770Y-76112476D01*
X89499770Y-76112476D02*
X89261675Y-76112476D01*
X89261675Y-76112476D02*
X89166437Y-76160095D01*
X89166437Y-76160095D02*
X89118818Y-76207714D01*
X89118818Y-76207714D02*
X89071199Y-76302952D01*
X89071199Y-76302952D02*
X89071199Y-76493428D01*
X89071199Y-76493428D02*
X89118818Y-76588666D01*
X89118818Y-76588666D02*
X89166437Y-76636285D01*
X89166437Y-76636285D02*
X89261675Y-76683904D01*
X89023580Y-75064856D02*
X89023580Y-74683904D01*
X88690247Y-74921999D02*
X89547389Y-74921999D01*
X89547389Y-74921999D02*
X89642628Y-74874380D01*
X89642628Y-74874380D02*
X89690247Y-74779142D01*
X89690247Y-74779142D02*
X89690247Y-74683904D01*
X89690247Y-74207713D02*
X89642628Y-74302951D01*
X89642628Y-74302951D02*
X89595008Y-74350570D01*
X89595008Y-74350570D02*
X89499770Y-74398189D01*
X89499770Y-74398189D02*
X89214056Y-74398189D01*
X89214056Y-74398189D02*
X89118818Y-74350570D01*
X89118818Y-74350570D02*
X89071199Y-74302951D01*
X89071199Y-74302951D02*
X89023580Y-74207713D01*
X89023580Y-74207713D02*
X89023580Y-74064856D01*
X89023580Y-74064856D02*
X89071199Y-73969618D01*
X89071199Y-73969618D02*
X89118818Y-73921999D01*
X89118818Y-73921999D02*
X89214056Y-73874380D01*
X89214056Y-73874380D02*
X89499770Y-73874380D01*
X89499770Y-73874380D02*
X89595008Y-73921999D01*
X89595008Y-73921999D02*
X89642628Y-73969618D01*
X89642628Y-73969618D02*
X89690247Y-74064856D01*
X89690247Y-74064856D02*
X89690247Y-74207713D01*
X88785485Y-72731522D02*
X88737866Y-72683903D01*
X88737866Y-72683903D02*
X88690247Y-72588665D01*
X88690247Y-72588665D02*
X88690247Y-72350570D01*
X88690247Y-72350570D02*
X88737866Y-72255332D01*
X88737866Y-72255332D02*
X88785485Y-72207713D01*
X88785485Y-72207713D02*
X88880723Y-72160094D01*
X88880723Y-72160094D02*
X88975961Y-72160094D01*
X88975961Y-72160094D02*
X89118818Y-72207713D01*
X89118818Y-72207713D02*
X89690247Y-72779141D01*
X89690247Y-72779141D02*
X89690247Y-72160094D01*
X88690247Y-71826760D02*
X88690247Y-71160094D01*
X88690247Y-71160094D02*
X89690247Y-71588665D01*
X89690247Y-70255332D02*
X89690247Y-70826760D01*
X89690247Y-70541046D02*
X88690247Y-70541046D01*
X88690247Y-70541046D02*
X88833104Y-70636284D01*
X88833104Y-70636284D02*
X88928342Y-70731522D01*
X88928342Y-70731522D02*
X88975961Y-70826760D01*
X88690247Y-69398189D02*
X88690247Y-69588665D01*
X88690247Y-69588665D02*
X88737866Y-69683903D01*
X88737866Y-69683903D02*
X88785485Y-69731522D01*
X88785485Y-69731522D02*
X88928342Y-69826760D01*
X88928342Y-69826760D02*
X89118818Y-69874379D01*
X89118818Y-69874379D02*
X89499770Y-69874379D01*
X89499770Y-69874379D02*
X89595008Y-69826760D01*
X89595008Y-69826760D02*
X89642628Y-69779141D01*
X89642628Y-69779141D02*
X89690247Y-69683903D01*
X89690247Y-69683903D02*
X89690247Y-69493427D01*
X89690247Y-69493427D02*
X89642628Y-69398189D01*
X89642628Y-69398189D02*
X89595008Y-69350570D01*
X89595008Y-69350570D02*
X89499770Y-69302951D01*
X89499770Y-69302951D02*
X89261675Y-69302951D01*
X89261675Y-69302951D02*
X89166437Y-69350570D01*
X89166437Y-69350570D02*
X89118818Y-69398189D01*
X89118818Y-69398189D02*
X89071199Y-69493427D01*
X89071199Y-69493427D02*
X89071199Y-69683903D01*
X89071199Y-69683903D02*
X89118818Y-69779141D01*
X89118818Y-69779141D02*
X89166437Y-69826760D01*
X89166437Y-69826760D02*
X89261675Y-69874379D01*
X91300191Y-78398191D02*
X90824000Y-78731524D01*
X91300191Y-78969619D02*
X90300191Y-78969619D01*
X90300191Y-78969619D02*
X90300191Y-78588667D01*
X90300191Y-78588667D02*
X90347810Y-78493429D01*
X90347810Y-78493429D02*
X90395429Y-78445810D01*
X90395429Y-78445810D02*
X90490667Y-78398191D01*
X90490667Y-78398191D02*
X90633524Y-78398191D01*
X90633524Y-78398191D02*
X90728762Y-78445810D01*
X90728762Y-78445810D02*
X90776381Y-78493429D01*
X90776381Y-78493429D02*
X90824000Y-78588667D01*
X90824000Y-78588667D02*
X90824000Y-78969619D01*
X90300191Y-77779143D02*
X90300191Y-77588667D01*
X90300191Y-77588667D02*
X90347810Y-77493429D01*
X90347810Y-77493429D02*
X90443048Y-77398191D01*
X90443048Y-77398191D02*
X90633524Y-77350572D01*
X90633524Y-77350572D02*
X90966857Y-77350572D01*
X90966857Y-77350572D02*
X91157333Y-77398191D01*
X91157333Y-77398191D02*
X91252572Y-77493429D01*
X91252572Y-77493429D02*
X91300191Y-77588667D01*
X91300191Y-77588667D02*
X91300191Y-77779143D01*
X91300191Y-77779143D02*
X91252572Y-77874381D01*
X91252572Y-77874381D02*
X91157333Y-77969619D01*
X91157333Y-77969619D02*
X90966857Y-78017238D01*
X90966857Y-78017238D02*
X90633524Y-78017238D01*
X90633524Y-78017238D02*
X90443048Y-77969619D01*
X90443048Y-77969619D02*
X90347810Y-77874381D01*
X90347810Y-77874381D02*
X90300191Y-77779143D01*
X91300191Y-76922000D02*
X90300191Y-76922000D01*
X90300191Y-76922000D02*
X91014476Y-76588667D01*
X91014476Y-76588667D02*
X90300191Y-76255334D01*
X90300191Y-76255334D02*
X91300191Y-76255334D01*
X91014476Y-75064857D02*
X91014476Y-74588667D01*
X91300191Y-75160095D02*
X90300191Y-74826762D01*
X90300191Y-74826762D02*
X91300191Y-74493429D01*
X91300191Y-73731524D02*
X90300191Y-73731524D01*
X91252572Y-73731524D02*
X91300191Y-73826762D01*
X91300191Y-73826762D02*
X91300191Y-74017238D01*
X91300191Y-74017238D02*
X91252572Y-74112476D01*
X91252572Y-74112476D02*
X91204952Y-74160095D01*
X91204952Y-74160095D02*
X91109714Y-74207714D01*
X91109714Y-74207714D02*
X90824000Y-74207714D01*
X90824000Y-74207714D02*
X90728762Y-74160095D01*
X90728762Y-74160095D02*
X90681143Y-74112476D01*
X90681143Y-74112476D02*
X90633524Y-74017238D01*
X90633524Y-74017238D02*
X90633524Y-73826762D01*
X90633524Y-73826762D02*
X90681143Y-73731524D01*
X91300191Y-72826762D02*
X90776381Y-72826762D01*
X90776381Y-72826762D02*
X90681143Y-72874381D01*
X90681143Y-72874381D02*
X90633524Y-72969619D01*
X90633524Y-72969619D02*
X90633524Y-73160095D01*
X90633524Y-73160095D02*
X90681143Y-73255333D01*
X91252572Y-72826762D02*
X91300191Y-72922000D01*
X91300191Y-72922000D02*
X91300191Y-73160095D01*
X91300191Y-73160095D02*
X91252572Y-73255333D01*
X91252572Y-73255333D02*
X91157333Y-73302952D01*
X91157333Y-73302952D02*
X91062095Y-73302952D01*
X91062095Y-73302952D02*
X90966857Y-73255333D01*
X90966857Y-73255333D02*
X90919238Y-73160095D01*
X90919238Y-73160095D02*
X90919238Y-72922000D01*
X90919238Y-72922000D02*
X90871619Y-72826762D01*
X90633524Y-72350571D02*
X91633524Y-72350571D01*
X90681143Y-72350571D02*
X90633524Y-72255333D01*
X90633524Y-72255333D02*
X90633524Y-72064857D01*
X90633524Y-72064857D02*
X90681143Y-71969619D01*
X90681143Y-71969619D02*
X90728762Y-71922000D01*
X90728762Y-71922000D02*
X90824000Y-71874381D01*
X90824000Y-71874381D02*
X91109714Y-71874381D01*
X91109714Y-71874381D02*
X91204952Y-71922000D01*
X91204952Y-71922000D02*
X91252572Y-71969619D01*
X91252572Y-71969619D02*
X91300191Y-72064857D01*
X91300191Y-72064857D02*
X91300191Y-72255333D01*
X91300191Y-72255333D02*
X91252572Y-72350571D01*
X90633524Y-71588666D02*
X90633524Y-71207714D01*
X90300191Y-71445809D02*
X91157333Y-71445809D01*
X91157333Y-71445809D02*
X91252572Y-71398190D01*
X91252572Y-71398190D02*
X91300191Y-71302952D01*
X91300191Y-71302952D02*
X91300191Y-71207714D01*
X91252572Y-70493428D02*
X91300191Y-70588666D01*
X91300191Y-70588666D02*
X91300191Y-70779142D01*
X91300191Y-70779142D02*
X91252572Y-70874380D01*
X91252572Y-70874380D02*
X91157333Y-70921999D01*
X91157333Y-70921999D02*
X90776381Y-70921999D01*
X90776381Y-70921999D02*
X90681143Y-70874380D01*
X90681143Y-70874380D02*
X90633524Y-70779142D01*
X90633524Y-70779142D02*
X90633524Y-70588666D01*
X90633524Y-70588666D02*
X90681143Y-70493428D01*
X90681143Y-70493428D02*
X90776381Y-70445809D01*
X90776381Y-70445809D02*
X90871619Y-70445809D01*
X90871619Y-70445809D02*
X90966857Y-70921999D01*
X91300191Y-70017237D02*
X90633524Y-70017237D01*
X90824000Y-70017237D02*
X90728762Y-69969618D01*
X90728762Y-69969618D02*
X90681143Y-69921999D01*
X90681143Y-69921999D02*
X90633524Y-69826761D01*
X90633524Y-69826761D02*
X90633524Y-69731523D01*
D11*
X90820119Y-85883963D02*
X90820119Y-85248963D01*
X91485357Y-85823486D02*
X91455119Y-85853725D01*
X91455119Y-85853725D02*
X91364405Y-85883963D01*
X91364405Y-85883963D02*
X91303929Y-85883963D01*
X91303929Y-85883963D02*
X91213214Y-85853725D01*
X91213214Y-85853725D02*
X91152738Y-85793248D01*
X91152738Y-85793248D02*
X91122500Y-85732772D01*
X91122500Y-85732772D02*
X91092262Y-85611820D01*
X91092262Y-85611820D02*
X91092262Y-85521105D01*
X91092262Y-85521105D02*
X91122500Y-85400153D01*
X91122500Y-85400153D02*
X91152738Y-85339677D01*
X91152738Y-85339677D02*
X91213214Y-85279201D01*
X91213214Y-85279201D02*
X91303929Y-85248963D01*
X91303929Y-85248963D02*
X91364405Y-85248963D01*
X91364405Y-85248963D02*
X91455119Y-85279201D01*
X91455119Y-85279201D02*
X91485357Y-85309439D01*
X92090119Y-85883963D02*
X91727262Y-85883963D01*
X91908690Y-85883963D02*
X91908690Y-85248963D01*
X91908690Y-85248963D02*
X91848214Y-85339677D01*
X91848214Y-85339677D02*
X91787738Y-85400153D01*
X91787738Y-85400153D02*
X91727262Y-85430391D01*
X88848595Y-87407963D02*
X88788119Y-87528915D01*
X89453357Y-88042963D02*
X89090500Y-88042963D01*
X89271928Y-88042963D02*
X89271928Y-87407963D01*
X89271928Y-87407963D02*
X89211452Y-87498677D01*
X89211452Y-87498677D02*
X89150976Y-87559153D01*
X89150976Y-87559153D02*
X89090500Y-87589391D01*
X90058119Y-87438201D02*
X89997643Y-87407963D01*
X89997643Y-87407963D02*
X89906929Y-87407963D01*
X89906929Y-87407963D02*
X89816214Y-87438201D01*
X89816214Y-87438201D02*
X89755738Y-87498677D01*
X89755738Y-87498677D02*
X89725500Y-87559153D01*
X89725500Y-87559153D02*
X89695262Y-87680105D01*
X89695262Y-87680105D02*
X89695262Y-87770820D01*
X89695262Y-87770820D02*
X89725500Y-87891772D01*
X89725500Y-87891772D02*
X89755738Y-87952248D01*
X89755738Y-87952248D02*
X89816214Y-88012725D01*
X89816214Y-88012725D02*
X89906929Y-88042963D01*
X89906929Y-88042963D02*
X89967405Y-88042963D01*
X89967405Y-88042963D02*
X90058119Y-88012725D01*
X90058119Y-88012725D02*
X90088357Y-87982486D01*
X90088357Y-87982486D02*
X90088357Y-87770820D01*
X90088357Y-87770820D02*
X89967405Y-87770820D01*
X90481452Y-87407963D02*
X90541929Y-87407963D01*
X90541929Y-87407963D02*
X90602405Y-87438201D01*
X90602405Y-87438201D02*
X90632643Y-87468439D01*
X90632643Y-87468439D02*
X90662881Y-87528915D01*
X90662881Y-87528915D02*
X90693119Y-87649867D01*
X90693119Y-87649867D02*
X90693119Y-87801058D01*
X90693119Y-87801058D02*
X90662881Y-87922010D01*
X90662881Y-87922010D02*
X90632643Y-87982486D01*
X90632643Y-87982486D02*
X90602405Y-88012725D01*
X90602405Y-88012725D02*
X90541929Y-88042963D01*
X90541929Y-88042963D02*
X90481452Y-88042963D01*
X90481452Y-88042963D02*
X90420976Y-88012725D01*
X90420976Y-88012725D02*
X90390738Y-87982486D01*
X90390738Y-87982486D02*
X90360500Y-87922010D01*
X90360500Y-87922010D02*
X90330262Y-87801058D01*
X90330262Y-87801058D02*
X90330262Y-87649867D01*
X90330262Y-87649867D02*
X90360500Y-87528915D01*
X90360500Y-87528915D02*
X90390738Y-87468439D01*
X90390738Y-87468439D02*
X90420976Y-87438201D01*
X90420976Y-87438201D02*
X90481452Y-87407963D01*
X91237405Y-87619629D02*
X91237405Y-88042963D01*
X91086214Y-87377725D02*
X90935024Y-87831296D01*
X90935024Y-87831296D02*
X91328119Y-87831296D01*
X92343486Y-82936832D02*
X92373725Y-82967070D01*
X92373725Y-82967070D02*
X92403963Y-83057784D01*
X92403963Y-83057784D02*
X92403963Y-83118260D01*
X92403963Y-83118260D02*
X92373725Y-83208975D01*
X92373725Y-83208975D02*
X92313248Y-83269451D01*
X92313248Y-83269451D02*
X92252772Y-83299689D01*
X92252772Y-83299689D02*
X92131820Y-83329927D01*
X92131820Y-83329927D02*
X92041105Y-83329927D01*
X92041105Y-83329927D02*
X91920153Y-83299689D01*
X91920153Y-83299689D02*
X91859677Y-83269451D01*
X91859677Y-83269451D02*
X91799201Y-83208975D01*
X91799201Y-83208975D02*
X91768963Y-83118260D01*
X91768963Y-83118260D02*
X91768963Y-83057784D01*
X91768963Y-83057784D02*
X91799201Y-82967070D01*
X91799201Y-82967070D02*
X91829439Y-82936832D01*
X92403963Y-82332070D02*
X92403963Y-82694927D01*
X92403963Y-82513499D02*
X91768963Y-82513499D01*
X91768963Y-82513499D02*
X91859677Y-82573975D01*
X91859677Y-82573975D02*
X91920153Y-82634451D01*
X91920153Y-82634451D02*
X91950391Y-82694927D01*
X88296963Y-83227333D02*
X88296963Y-83590190D01*
X88296963Y-83408762D02*
X87661963Y-83408762D01*
X87661963Y-83408762D02*
X87752677Y-83469238D01*
X87752677Y-83469238D02*
X87813153Y-83529714D01*
X87813153Y-83529714D02*
X87843391Y-83590190D01*
X87873629Y-82955190D02*
X88508629Y-82955190D01*
X88206248Y-82652809D02*
X88266725Y-82622571D01*
X88266725Y-82622571D02*
X88296963Y-82562095D01*
X88206248Y-82955190D02*
X88266725Y-82924952D01*
X88266725Y-82924952D02*
X88296963Y-82864476D01*
X88296963Y-82864476D02*
X88296963Y-82743523D01*
X88296963Y-82743523D02*
X88266725Y-82683047D01*
X88266725Y-82683047D02*
X88206248Y-82652809D01*
X88206248Y-82652809D02*
X87873629Y-82652809D01*
X87964344Y-82078285D02*
X87964344Y-82289952D01*
X88296963Y-82289952D02*
X87661963Y-82289952D01*
X87661963Y-82289952D02*
X87661963Y-81987571D01*
D10*
%TO.C,IC1*%
X90318000Y-87098000D02*
X89768000Y-87098000D01*
X90318000Y-84098000D02*
X90318000Y-87098000D01*
X89768000Y-87098000D02*
X89768000Y-84098000D01*
X89768000Y-84098000D02*
X90318000Y-84098000D01*
X88168000Y-84098000D02*
X89418000Y-84098000D01*
D12*
%TO.C,C1*%
X89797748Y-83539000D02*
X90320252Y-83539000D01*
X89797748Y-82069000D02*
X90320252Y-82069000D01*
%TD*%
M02*
