%TF.GenerationSoftware,KiCad,Pcbnew,8.0.7*%
%TF.CreationDate,2025-01-03T18:30:50+02:00*%
%TF.ProjectId,Main Memory Channel,4d61696e-204d-4656-9d6f-727920436861,V1*%
%TF.SameCoordinates,Original*%
%TF.FileFunction,Copper,L1,Top*%
%TF.FilePolarity,Positive*%
%FSLAX46Y46*%
G04 Gerber Fmt 4.6, Leading zero omitted, Abs format (unit mm)*
G04 Created by KiCad (PCBNEW 8.0.7) date 2025-01-03 18:30:50*
%MOMM*%
%LPD*%
G01*
G04 APERTURE LIST*
G04 Aperture macros list*
%AMRoundRect*
0 Rectangle with rounded corners*
0 $1 Rounding radius*
0 $2 $3 $4 $5 $6 $7 $8 $9 X,Y pos of 4 corners*
0 Add a 4 corners polygon primitive as box body*
4,1,4,$2,$3,$4,$5,$6,$7,$8,$9,$2,$3,0*
0 Add four circle primitives for the rounded corners*
1,1,$1+$1,$2,$3*
1,1,$1+$1,$4,$5*
1,1,$1+$1,$6,$7*
1,1,$1+$1,$8,$9*
0 Add four rect primitives between the rounded corners*
20,1,$1+$1,$2,$3,$4,$5,0*
20,1,$1+$1,$4,$5,$6,$7,0*
20,1,$1+$1,$6,$7,$8,$9,0*
20,1,$1+$1,$8,$9,$2,$3,0*%
G04 Aperture macros list end*
%TA.AperFunction,ComponentPad*%
%ADD10C,1.600000*%
%TD*%
%TA.AperFunction,ComponentPad*%
%ADD11O,1.600000X1.600000*%
%TD*%
%TA.AperFunction,ComponentPad*%
%ADD12RoundRect,0.400000X-0.400000X-0.400000X0.400000X-0.400000X0.400000X0.400000X-0.400000X0.400000X0*%
%TD*%
%TA.AperFunction,ComponentPad*%
%ADD13R,1.600000X1.600000*%
%TD*%
%TA.AperFunction,SMDPad,CuDef*%
%ADD14R,1.450000X0.450000*%
%TD*%
%TA.AperFunction,SMDPad,CuDef*%
%ADD15RoundRect,0.250000X-0.475000X0.250000X-0.475000X-0.250000X0.475000X-0.250000X0.475000X0.250000X0*%
%TD*%
%TA.AperFunction,SMDPad,CuDef*%
%ADD16RoundRect,0.250000X0.250000X0.475000X-0.250000X0.475000X-0.250000X-0.475000X0.250000X-0.475000X0*%
%TD*%
%TA.AperFunction,SMDPad,CuDef*%
%ADD17RoundRect,0.250000X0.475000X-0.250000X0.475000X0.250000X-0.475000X0.250000X-0.475000X-0.250000X0*%
%TD*%
%TA.AperFunction,SMDPad,CuDef*%
%ADD18R,1.475000X0.450000*%
%TD*%
%TA.AperFunction,SMDPad,CuDef*%
%ADD19R,1.150000X0.600000*%
%TD*%
%TA.AperFunction,ViaPad*%
%ADD20C,0.800000*%
%TD*%
%TA.AperFunction,Conductor*%
%ADD21C,0.380000*%
%TD*%
%TA.AperFunction,Conductor*%
%ADD22C,0.200000*%
%TD*%
G04 APERTURE END LIST*
D10*
%TO.P,J4,1,Pin_1*%
%TO.N,WY_{2}*%
X0Y0D03*
D11*
%TO.P,J4,2,Pin_2*%
%TO.N,~{Select}*%
X0Y-2540000D03*
D12*
%TO.P,J4,3,Pin_3*%
%TO.N,5V*%
X0Y-5080000D03*
D11*
%TO.P,J4,4,Pin_4*%
%TO.N,WY_{3}*%
X0Y-7620000D03*
%TO.P,J4,5,Pin_5*%
%TO.N,A0*%
X0Y-10160000D03*
%TO.P,J4,6,Pin_6*%
%TO.N,A1*%
X0Y-12700000D03*
D13*
%TO.P,J4,7,Pin_7*%
%TO.N,GND*%
X0Y-15240000D03*
D11*
%TO.P,J4,8,Pin_8*%
%TO.N,A2*%
X0Y-17780000D03*
%TO.P,J4,9,Pin_9*%
%TO.N,~{WD}*%
X0Y-20320000D03*
%TO.P,J4,10,Pin_10*%
%TO.N,D7*%
X0Y-22860000D03*
%TO.P,J4,11,Pin_11*%
%TO.N,D6*%
X0Y-25400000D03*
%TO.P,J4,12,Pin_12*%
%TO.N,D5*%
X0Y-27940000D03*
%TO.P,J4,13,Pin_13*%
%TO.N,D4*%
X0Y-30480000D03*
D13*
%TO.P,J4,14,Pin_14*%
%TO.N,GND*%
X0Y-33020000D03*
D11*
%TO.P,J4,15,Pin_15*%
%TO.N,D3*%
X0Y-35560000D03*
%TO.P,J4,16,Pin_16*%
%TO.N,D2*%
X0Y-38100000D03*
%TO.P,J4,17,Pin_17*%
%TO.N,D1*%
X0Y-40640000D03*
%TO.P,J4,18,Pin_18*%
%TO.N,D0*%
X0Y-43180000D03*
%TO.P,J4,19,Pin_19*%
%TO.N,H1*%
X0Y-45720000D03*
%TO.P,J4,20,Pin_20*%
%TO.N,H0*%
X0Y-48260000D03*
%TO.P,J4,21,Pin_21*%
%TO.N,Device_{(Z)} 2MB Select_{0}*%
X15240000Y-48260000D03*
%TO.P,J4,22,Pin_22*%
%TO.N,Device_{(Z)} 2MB Select_{1}*%
X15240000Y-45720000D03*
D12*
%TO.P,J4,23,Pin_23*%
%TO.N,5V*%
X15240000Y-43180000D03*
D11*
%TO.P,J4,24,Pin_24*%
%TO.N,H2*%
X15240000Y-40640000D03*
%TO.P,J4,25,Pin_25*%
%TO.N,Device_{(Y)} 2MB Select_{0}*%
X15240000Y-38100000D03*
%TO.P,J4,26,Pin_26*%
%TO.N,Device_{(Y)} 2MB Select_{1}*%
X15240000Y-35560000D03*
D13*
%TO.P,J4,27,Pin_27*%
%TO.N,GND*%
X15240000Y-33020000D03*
D11*
%TO.P,J4,28,Pin_28*%
%TO.N,Device_{(X)} 2MB Select_{0}*%
X15240000Y-30480000D03*
%TO.P,J4,29,Pin_29*%
%TO.N,Device_{(X)} 2MB Select_{1}*%
X15240000Y-27940000D03*
%TO.P,J4,30,Pin_30*%
%TO.N,Device_{(W)} 2MB Select_{0}*%
X15240000Y-25400000D03*
%TO.P,J4,31,Pin_31*%
%TO.N,Device_{(W)} 2MB Select_{1}*%
X15240000Y-22860000D03*
%TO.P,J4,32,Pin_32*%
%TO.N,Device_{(V)} 2MB Select_{0}*%
X15240000Y-20320000D03*
%TO.P,J4,33,Pin_33*%
%TO.N,Device_{(V)} 2MB Select_{1}*%
X15240000Y-17780000D03*
D13*
%TO.P,J4,34,Pin_34*%
%TO.N,GND*%
X15240000Y-15240000D03*
D11*
%TO.P,J4,35,Pin_35*%
%TO.N,Device_{(U)} 2MB Select_{0}*%
X15240000Y-12700000D03*
%TO.P,J4,36,Pin_36*%
%TO.N,Device_{(U)} 2MB Select_{1}*%
X15240000Y-10160000D03*
%TO.P,J4,37,Pin_37*%
%TO.N,Device_{(T)} 2MB Select_{0}*%
X15240000Y-7620000D03*
%TO.P,J4,38,Pin_38*%
%TO.N,Device_{(T)} 2MB Select_{1}*%
X15240000Y-5080000D03*
%TO.P,J4,39,Pin_39*%
%TO.N,Device_{(S)} 2MB Select_{0}*%
X15240000Y-2540000D03*
%TO.P,J4,40,Pin_40*%
%TO.N,Device_{(S)} 2MB Select_{1}*%
X15240000Y0D03*
%TD*%
D14*
%TO.P,IC3,1,A0*%
%TO.N,A0*%
X4807600Y-13675600D03*
%TO.P,IC3,2,A1*%
%TO.N,A1*%
X4807600Y-14325600D03*
%TO.P,IC3,3,A2*%
%TO.N,A2*%
X4807600Y-14975600D03*
%TO.P,IC3,4,~{E1}*%
%TO.N,~{Select}*%
X4807600Y-15625600D03*
%TO.P,IC3,5,~{E2}*%
%TO.N,~{WD}*%
X4807600Y-16275600D03*
%TO.P,IC3,6,E3*%
%TO.N,/3.3V*%
X4807600Y-16925600D03*
%TO.P,IC3,7,~{Y7}*%
%TO.N,unconnected-(IC3-~{Y7}-Pad7)*%
X4807600Y-17575600D03*
%TO.P,IC3,8,GND*%
%TO.N,GND*%
X4807600Y-18225600D03*
%TO.P,IC3,9,~{Y6}*%
%TO.N,unconnected-(IC3-~{Y6}-Pad9)*%
X10657600Y-18225600D03*
%TO.P,IC3,10,~{Y5}*%
%TO.N,unconnected-(IC3-~{Y5}-Pad10)*%
X10657600Y-17575600D03*
%TO.P,IC3,11,~{Y4}*%
%TO.N,unconnected-(IC3-~{Y4}-Pad11)*%
X10657600Y-16925600D03*
%TO.P,IC3,12,~{Y3}*%
%TO.N,/~{WY_{3}}*%
X10657600Y-16275600D03*
%TO.P,IC3,13,~{Y2}*%
%TO.N,/~{WY_{2}}*%
X10657600Y-15625600D03*
%TO.P,IC3,14,~{Y1}*%
%TO.N,/~{WY_{1}}*%
X10657600Y-14975600D03*
%TO.P,IC3,15,~{Y0}*%
%TO.N,/~{WY_{0}}*%
X10657600Y-14325600D03*
%TO.P,IC3,16,3V*%
%TO.N,/3.3V*%
X10657600Y-13675600D03*
%TD*%
D15*
%TO.P,C15,1*%
%TO.N,/3.3V*%
X3429000Y-21291000D03*
%TO.P,C15,2*%
%TO.N,GND*%
X3429000Y-23191000D03*
%TD*%
D16*
%TO.P,C5,1*%
%TO.N,/3.3V*%
X10332000Y-37084000D03*
%TO.P,C5,2*%
%TO.N,GND*%
X8432000Y-37084000D03*
%TD*%
D17*
%TO.P,C8,1*%
%TO.N,5V*%
X3937000Y-48838400D03*
%TO.P,C8,2*%
%TO.N,GND*%
X3937000Y-46938400D03*
%TD*%
D16*
%TO.P,C10,1*%
%TO.N,/3.3V*%
X10439396Y-27305000D03*
%TO.P,C10,2*%
%TO.N,GND*%
X8539396Y-27305000D03*
%TD*%
D18*
%TO.P,IC1,1,~{OE1}*%
%TO.N,~{Select}*%
X4631200Y-38731000D03*
%TO.P,IC1,2,A0*%
%TO.N,/3.3V*%
X4631200Y-39381000D03*
%TO.P,IC1,3,A1*%
%TO.N,GND*%
X4631200Y-40031000D03*
%TO.P,IC1,4,A2*%
X4631200Y-40681000D03*
%TO.P,IC1,5,A3*%
X4631200Y-41331000D03*
%TO.P,IC1,6,A4*%
X4631200Y-41981000D03*
%TO.P,IC1,7,A5*%
X4631200Y-42631000D03*
%TO.P,IC1,8,A6*%
X4631200Y-43281000D03*
%TO.P,IC1,9,A7*%
X4631200Y-43931000D03*
%TO.P,IC1,10,GND*%
X4631200Y-44581000D03*
%TO.P,IC1,11,Y7*%
%TO.N,unconnected-(IC1-Y7-Pad11)*%
X10507200Y-44581000D03*
%TO.P,IC1,12,Y6*%
%TO.N,unconnected-(IC1-Y6-Pad12)*%
X10507200Y-43931000D03*
%TO.P,IC1,13,Y5*%
%TO.N,unconnected-(IC1-Y5-Pad13)*%
X10507200Y-43281000D03*
%TO.P,IC1,14,Y4*%
%TO.N,unconnected-(IC1-Y4-Pad14)*%
X10507200Y-42631000D03*
%TO.P,IC1,15,Y3*%
%TO.N,unconnected-(IC1-Y3-Pad15)*%
X10507200Y-41981000D03*
%TO.P,IC1,16,Y2*%
%TO.N,H2*%
X10507200Y-41331000D03*
%TO.P,IC1,17,Y1*%
%TO.N,H1*%
X10507200Y-40681000D03*
%TO.P,IC1,18,Y0*%
%TO.N,H0*%
X10507200Y-40031000D03*
%TO.P,IC1,19,~{OE2}*%
%TO.N,GND*%
X10507200Y-39381000D03*
%TO.P,IC1,20,3V*%
%TO.N,/3.3V*%
X10507200Y-38731000D03*
%TD*%
D16*
%TO.P,C6,1*%
%TO.N,/3.3V*%
X10840000Y-12141200D03*
%TO.P,C6,2*%
%TO.N,GND*%
X8940000Y-12141200D03*
%TD*%
D18*
%TO.P,IC4,1,~{OE}*%
%TO.N,GND*%
X4758196Y-28952000D03*
%TO.P,IC4,2,D0*%
%TO.N,D7*%
X4758196Y-29602000D03*
%TO.P,IC4,3,D1*%
%TO.N,D6*%
X4758196Y-30252000D03*
%TO.P,IC4,4,D2*%
%TO.N,D5*%
X4758196Y-30902000D03*
%TO.P,IC4,5,D3*%
%TO.N,D4*%
X4758196Y-31552000D03*
%TO.P,IC4,6,D4*%
%TO.N,D3*%
X4758196Y-32202000D03*
%TO.P,IC4,7,D5*%
%TO.N,D2*%
X4758196Y-32852000D03*
%TO.P,IC4,8,D6*%
%TO.N,D1*%
X4758196Y-33502000D03*
%TO.P,IC4,9,D7*%
%TO.N,D0*%
X4758196Y-34152000D03*
%TO.P,IC4,10,GND*%
%TO.N,GND*%
X4758196Y-34802000D03*
%TO.P,IC4,11,LE*%
%TO.N,/WY_{1}*%
X10634196Y-34802000D03*
%TO.P,IC4,12,Q7*%
%TO.N,Device_{(W)} 2MB Select_{1}*%
X10634196Y-34152000D03*
%TO.P,IC4,13,Q6*%
%TO.N,Device_{(W)} 2MB Select_{0}*%
X10634196Y-33502000D03*
%TO.P,IC4,14,Q5*%
%TO.N,Device_{(X)} 2MB Select_{1}*%
X10634196Y-32852000D03*
%TO.P,IC4,15,Q4*%
%TO.N,Device_{(X)} 2MB Select_{0}*%
X10634196Y-32202000D03*
%TO.P,IC4,16,Q3*%
%TO.N,Device_{(Y)} 2MB Select_{1}*%
X10634196Y-31552000D03*
%TO.P,IC4,17,Q2*%
%TO.N,Device_{(Y)} 2MB Select_{0}*%
X10634196Y-30902000D03*
%TO.P,IC4,18,Q1*%
%TO.N,Device_{(Z)} 2MB Select_{1}*%
X10634196Y-30252000D03*
%TO.P,IC4,19,Q0*%
%TO.N,Device_{(Z)} 2MB Select_{0}*%
X10634196Y-29602000D03*
%TO.P,IC4,20,3V*%
%TO.N,/3.3V*%
X10634196Y-28952000D03*
%TD*%
%TO.P,IC7,1,1A*%
%TO.N,/~{WY_{0}}*%
X5444000Y-20656000D03*
%TO.P,IC7,2,1Y*%
%TO.N,/WY_{0}*%
X5444000Y-21306000D03*
%TO.P,IC7,3,2A*%
%TO.N,GND*%
X5444000Y-21956000D03*
%TO.P,IC7,4,2Y*%
%TO.N,unconnected-(IC7-2Y-Pad4)*%
X5444000Y-22606000D03*
%TO.P,IC7,5,3A*%
%TO.N,GND*%
X5444000Y-23256000D03*
%TO.P,IC7,6,3Y*%
%TO.N,unconnected-(IC7-3Y-Pad6)*%
X5444000Y-23906000D03*
%TO.P,IC7,7,GND*%
%TO.N,GND*%
X5444000Y-24556000D03*
%TO.P,IC7,8,4Y*%
%TO.N,WY_{3}*%
X11320000Y-24556000D03*
%TO.P,IC7,9,4A*%
%TO.N,/~{WY_{3}}*%
X11320000Y-23906000D03*
%TO.P,IC7,10,5Y*%
%TO.N,/WY_{1}*%
X11320000Y-23256000D03*
%TO.P,IC7,11,5A*%
%TO.N,/~{WY_{1}}*%
X11320000Y-22606000D03*
%TO.P,IC7,12,6Y*%
%TO.N,WY_{2}*%
X11320000Y-21956000D03*
%TO.P,IC7,13,6A*%
%TO.N,/~{WY_{2}}*%
X11320000Y-21306000D03*
%TO.P,IC7,14,3V*%
%TO.N,/3.3V*%
X11320000Y-20656000D03*
%TD*%
D15*
%TO.P,C9,1*%
%TO.N,/3.3V*%
X11176000Y-46969600D03*
%TO.P,C9,2*%
%TO.N,GND*%
X11176000Y-48869600D03*
%TD*%
D19*
%TO.P,IC5,1,6VIn*%
%TO.N,5V*%
X6320000Y-46929000D03*
%TO.P,IC5,2,GND*%
%TO.N,GND*%
X6320000Y-47879000D03*
%TO.P,IC5,3,EN*%
%TO.N,5V*%
X6320000Y-48829000D03*
%TO.P,IC5,4,ADJ*%
%TO.N,unconnected-(IC5-ADJ-Pad4)*%
X8920000Y-48829000D03*
%TO.P,IC5,5,3.3VOut*%
%TO.N,/3.3V*%
X8920000Y-46929000D03*
%TD*%
D16*
%TO.P,C7,1*%
%TO.N,/3.3V*%
X10230400Y-2082800D03*
%TO.P,C7,2*%
%TO.N,GND*%
X8330400Y-2082800D03*
%TD*%
D18*
%TO.P,IC2,1,~{OE}*%
%TO.N,GND*%
X4682000Y-3729800D03*
%TO.P,IC2,2,D0*%
%TO.N,D7*%
X4682000Y-4379800D03*
%TO.P,IC2,3,D1*%
%TO.N,D6*%
X4682000Y-5029800D03*
%TO.P,IC2,4,D2*%
%TO.N,D5*%
X4682000Y-5679800D03*
%TO.P,IC2,5,D3*%
%TO.N,D4*%
X4682000Y-6329800D03*
%TO.P,IC2,6,D4*%
%TO.N,D3*%
X4682000Y-6979800D03*
%TO.P,IC2,7,D5*%
%TO.N,D2*%
X4682000Y-7629800D03*
%TO.P,IC2,8,D6*%
%TO.N,D1*%
X4682000Y-8279800D03*
%TO.P,IC2,9,D7*%
%TO.N,D0*%
X4682000Y-8929800D03*
%TO.P,IC2,10,GND*%
%TO.N,GND*%
X4682000Y-9579800D03*
%TO.P,IC2,11,LE*%
%TO.N,/WY_{0}*%
X10558000Y-9579800D03*
%TO.P,IC2,12,Q7*%
%TO.N,Device_{(S)} 2MB Select_{1}*%
X10558000Y-8929800D03*
%TO.P,IC2,13,Q6*%
%TO.N,Device_{(S)} 2MB Select_{0}*%
X10558000Y-8279800D03*
%TO.P,IC2,14,Q5*%
%TO.N,Device_{(T)} 2MB Select_{1}*%
X10558000Y-7629800D03*
%TO.P,IC2,15,Q4*%
%TO.N,Device_{(T)} 2MB Select_{0}*%
X10558000Y-6979800D03*
%TO.P,IC2,16,Q3*%
%TO.N,Device_{(U)} 2MB Select_{1}*%
X10558000Y-6329800D03*
%TO.P,IC2,17,Q2*%
%TO.N,Device_{(U)} 2MB Select_{0}*%
X10558000Y-5679800D03*
%TO.P,IC2,18,Q1*%
%TO.N,Device_{(V)} 2MB Select_{1}*%
X10558000Y-5029800D03*
%TO.P,IC2,19,Q0*%
%TO.N,Device_{(V)} 2MB Select_{0}*%
X10558000Y-4379800D03*
%TO.P,IC2,20,3V*%
%TO.N,/3.3V*%
X10558000Y-3729800D03*
%TD*%
D20*
%TO.N,/3.3V*%
X10657600Y-13208000D03*
X10159996Y-46929000D03*
X10859204Y-19938988D03*
X10356806Y-28226769D03*
X10449114Y-3174147D03*
X10356806Y-37949606D03*
%TO.N,/WY_{0}*%
X9011814Y-21075777D03*
X9110255Y-9910161D03*
%TO.N,/~{WY_{1}}*%
X12192000Y-14605000D03*
X12827000Y-22225004D03*
%TO.N,/~{WY_{0}}*%
X7569599Y-15301264D03*
X7493000Y-20574000D03*
%TO.N,/WY_{1}*%
X9166806Y-34861500D03*
X8763000Y-23495000D03*
%TO.N,/~{WY_{3}}*%
X12589413Y-23757533D03*
X12064996Y-16637000D03*
%TO.N,/~{WY_{2}}*%
X12572994Y-21209000D03*
X12160474Y-15639306D03*
%TO.N,GND*%
X6858000Y-24892000D03*
X7697923Y-28243077D03*
X6857999Y-13715999D03*
X7735000Y-10160000D03*
X8255000Y-3048000D03*
X3556002Y-35178998D03*
X10029331Y-47970841D03*
X7924804Y-37973000D03*
X7924804Y-35306134D03*
X6781802Y-44577000D03*
X6454414Y-18288003D03*
%TO.N,5V*%
X2336800Y1117600D03*
X13462000Y1219210D03*
%TO.N,~{Select}*%
X5989599Y-15625588D03*
X6223000Y-2794000D03*
X4673600Y-37439600D03*
%TO.N,H1*%
X3120994Y-44985968D03*
X6431840Y-41675110D03*
%TO.N,H0*%
X2531098Y-46436016D03*
X6477000Y-40640000D03*
%TO.N,D7*%
X3195714Y-24692471D03*
X3098800Y-4329794D03*
%TO.N,D6*%
X2171000Y-4979800D03*
X2878000Y-25654000D03*
%TO.N,D5*%
X1768659Y-5913060D03*
X2075000Y-29210000D03*
%TO.N,D4*%
X2032000Y-30480004D03*
X1241600Y-6834549D03*
%TO.N,D3*%
X2884411Y-32258538D03*
X6019606Y-6347836D03*
%TO.N,D2*%
X6138000Y-32495010D03*
X6324160Y-7306980D03*
%TO.N,D1*%
X6340000Y-8340199D03*
X6422122Y-33455877D03*
%TO.N,D0*%
X6223294Y-34444289D03*
X6148489Y-9321692D03*
%TO.N,Device_{(S)} 2MB Select_{1}*%
X12403000Y-9758710D03*
%TO.N,Device_{(S)} 2MB Select_{0}*%
X12803000Y-8636000D03*
%TO.N,Device_{(T)} 2MB Select_{1}*%
X13203000Y-7702313D03*
%TO.N,Device_{(U)} 2MB Select_{1}*%
X14251062Y-6602313D03*
%TO.N,Device_{(U)} 2MB Select_{0}*%
X12016321Y-5656335D03*
%TO.N,Device_{(V)} 2MB Select_{1}*%
X12319000Y-4644420D03*
%TO.N,Device_{(V)} 2MB Select_{0}*%
X11953128Y-3713752D03*
%TO.N,Device_{(W)} 2MB Select_{1}*%
X11877105Y-34253846D03*
%TO.N,Device_{(W)} 2MB Select_{0}*%
X12454922Y-33437677D03*
%TO.N,Device_{(X)} 2MB Select_{1}*%
X12298403Y-32450000D03*
%TO.N,Device_{(Y)} 2MB Select_{1}*%
X9398000Y-36068000D03*
X9398000Y-31495998D03*
%TO.N,Device_{(Y)} 2MB Select_{0}*%
X13643786Y-31192251D03*
%TO.N,Device_{(Z)} 2MB Select_{1}*%
X13549872Y-30029057D03*
%TO.N,Device_{(Z)} 2MB Select_{0}*%
X12711161Y-29484475D03*
%TO.N,WY_{3}*%
X9336022Y-24638000D03*
X7735000Y-11873707D03*
%TO.N,WY_{2}*%
X7366000Y-1016004D03*
X9810255Y-21843996D03*
%TD*%
D21*
%TO.N,GND*%
X5279036Y-34802000D02*
X5783170Y-35306134D01*
X5783170Y-35306134D02*
X7924804Y-35306134D01*
X8940000Y-11365000D02*
X7735000Y-10160000D01*
X5261800Y-9579800D02*
X5842000Y-10160000D01*
X4682000Y-9579800D02*
X5261800Y-9579800D01*
D22*
%TO.N,WY_{3}*%
X4253707Y-11873707D02*
X7735000Y-11873707D01*
D21*
%TO.N,GND*%
X5842000Y-10160000D02*
X7735000Y-10160000D01*
D22*
%TO.N,WY_{3}*%
X0Y-7620000D02*
X4253707Y-11873707D01*
D21*
%TO.N,GND*%
X8940000Y-12141200D02*
X8940000Y-11365000D01*
D22*
%TO.N,D6*%
X2159000Y-25654000D02*
X1905000Y-25400000D01*
X0Y-25400000D02*
X1905000Y-25400000D01*
X2878000Y-25654000D02*
X2159000Y-25654000D01*
X2221000Y-5029800D02*
X2171000Y-4979800D01*
X4682000Y-5029800D02*
X2221000Y-5029800D01*
%TO.N,H1*%
X2386962Y-45720000D02*
X3120994Y-44985968D01*
X0Y-45720000D02*
X2386962Y-45720000D01*
%TO.N,D2*%
X1651000Y-34544000D02*
X3343000Y-32852000D01*
X0Y-38100000D02*
X1651000Y-36449000D01*
X1651000Y-36449000D02*
X1651000Y-34544000D01*
X3343000Y-32852000D02*
X4758196Y-32852000D01*
%TO.N,D1*%
X3486636Y-33502000D02*
X4758196Y-33502000D01*
X2159000Y-34829636D02*
X3486636Y-33502000D01*
X2159000Y-38481000D02*
X2159000Y-34829636D01*
X0Y-40640000D02*
X2159000Y-38481000D01*
%TO.N,D0*%
X5931005Y-34152000D02*
X6223294Y-34444289D01*
X3486509Y-34152000D02*
X5931005Y-34152000D01*
X2667000Y-34971509D02*
X3486509Y-34152000D01*
X2667000Y-40513000D02*
X2667000Y-34971509D01*
X0Y-43180000D02*
X2667000Y-40513000D01*
%TO.N,D3*%
X1016000Y-34126949D02*
X2884411Y-32258538D01*
X1016000Y-34544000D02*
X1016000Y-34126949D01*
X0Y-35560000D02*
X1016000Y-34544000D01*
X2940949Y-32202000D02*
X2884411Y-32258538D01*
X4758196Y-32202000D02*
X2940949Y-32202000D01*
%TO.N,D2*%
X5781010Y-32852000D02*
X4758196Y-32852000D01*
X5781010Y-32852000D02*
X6138000Y-32495010D01*
%TO.N,D4*%
X4758196Y-31552000D02*
X3103996Y-31552000D01*
X3103996Y-31552000D02*
X2032000Y-30480004D01*
X2031996Y-30480000D02*
X2032000Y-30480004D01*
X0Y-30480000D02*
X2031996Y-30480000D01*
D21*
%TO.N,GND*%
X8763000Y-18288000D02*
X6454417Y-18288000D01*
X9315600Y-18840600D02*
X8763000Y-18288000D01*
X11639400Y-18840600D02*
X9315600Y-18840600D01*
X15240000Y-15240000D02*
X11639400Y-18840600D01*
X6454417Y-18288000D02*
X6454414Y-18288003D01*
X4807600Y-18225600D02*
X6392011Y-18225600D01*
X6392011Y-18225600D02*
X6454414Y-18288003D01*
D22*
%TO.N,/WY_{0}*%
X8781591Y-21306000D02*
X9011814Y-21075777D01*
X5444000Y-21306000D02*
X8781591Y-21306000D01*
%TO.N,/~{WY_{0}}*%
X7411000Y-20656000D02*
X7493000Y-20574000D01*
X5444000Y-20656000D02*
X7411000Y-20656000D01*
D21*
%TO.N,GND*%
X7985600Y-13095600D02*
X8940000Y-12141200D01*
X7478400Y-13095600D02*
X7985600Y-13095600D01*
X6858001Y-13715999D02*
X7478400Y-13095600D01*
X6857999Y-13715999D02*
X6858001Y-13715999D01*
%TO.N,/3.3V*%
X5956435Y-16925600D02*
X4807600Y-16925600D01*
X6779599Y-14959436D02*
X6779599Y-16102436D01*
X6779599Y-16102436D02*
X5956435Y-16925600D01*
X8063435Y-13675600D02*
X6779599Y-14959436D01*
X10657600Y-13675600D02*
X8063435Y-13675600D01*
%TO.N,GND*%
X1270000Y-22098000D02*
X2336000Y-22098000D01*
X762000Y-21590000D02*
X1270000Y-22098000D01*
X2336000Y-22098000D02*
X3429000Y-23191000D01*
X762000Y-21590000D02*
X-508000Y-21590000D01*
X4126400Y-18225600D02*
X762000Y-21590000D01*
X4807600Y-18225600D02*
X4126400Y-18225600D01*
X-1270000Y-31750000D02*
X-1270000Y-22352000D01*
X-1270000Y-22352000D02*
X-508000Y-21590000D01*
X-508000Y-21590000D02*
X-1270000Y-20828000D01*
X-1270000Y-16510000D02*
X-1270000Y-20828000D01*
X3556002Y-36575998D02*
X3556002Y-35178998D01*
X3175000Y-36957000D02*
X3556002Y-36575998D01*
X3175000Y-39692300D02*
X3175000Y-36957000D01*
X3513700Y-40031000D02*
X3175000Y-39692300D01*
X4631200Y-40031000D02*
X3513700Y-40031000D01*
X3937000Y-45974000D02*
X3937000Y-46938400D01*
X4631200Y-45279800D02*
X3937000Y-45974000D01*
X4631200Y-44581000D02*
X4631200Y-45279800D01*
X-355600Y-49784000D02*
X2692400Y-49784000D01*
X-1236428Y-48903172D02*
X-355600Y-49784000D01*
X-1236428Y-34256428D02*
X-1236428Y-48903172D01*
X0Y-33020000D02*
X-1236428Y-34256428D01*
X-1270000Y-31750000D02*
X0Y-33020000D01*
X0Y-15240000D02*
X-1270000Y-16510000D01*
X16510000Y-16510000D02*
X15240000Y-15240000D01*
X16510000Y-25987458D02*
X16510000Y-16510000D01*
X15827458Y-26670000D02*
X16510000Y-25987458D01*
X15827458Y-26670000D02*
X15652915Y-26670000D01*
X16510000Y-27352542D02*
X15827458Y-26670000D01*
X16510000Y-31750000D02*
X16510000Y-27352542D01*
X15240000Y-33020000D02*
X16510000Y-31750000D01*
X14667085Y-26670000D02*
X15652915Y-26670000D01*
X9654396Y-26190000D02*
X14187085Y-26190000D01*
X8539396Y-27305000D02*
X9654396Y-26190000D01*
X14187085Y-26190000D02*
X14667085Y-26670000D01*
X16510000Y-38655000D02*
X15784000Y-39381000D01*
X16510000Y-34290000D02*
X16510000Y-38655000D01*
X15240000Y-33020000D02*
X16510000Y-34290000D01*
X16510000Y-43862000D02*
X15922000Y-44450000D01*
X16510000Y-40107000D02*
X16510000Y-43862000D01*
X15784000Y-39381000D02*
X16510000Y-40107000D01*
X10507200Y-39381000D02*
X15784000Y-39381000D01*
%TO.N,/3.3V*%
X10230400Y-2955433D02*
X10449114Y-3174147D01*
X10363200Y-37115200D02*
X10363200Y-37943212D01*
X3429000Y-20928500D02*
X4728583Y-19628917D01*
X10507200Y-38731000D02*
X10507200Y-38100000D01*
X10230400Y-2215077D02*
X10230400Y-2955433D01*
X10475200Y-38763000D02*
X6195000Y-38763000D01*
X11176000Y-46969600D02*
X10200596Y-46969600D01*
X10657600Y-12323600D02*
X10657600Y-13208000D01*
X5577000Y-39381000D02*
X4631200Y-39381000D01*
X11320000Y-20656000D02*
X11320000Y-20399784D01*
X10634196Y-28504159D02*
X10356806Y-28226769D01*
X11320000Y-20399784D02*
X10859204Y-19938988D01*
X6195000Y-38763000D02*
X5577000Y-39381000D01*
X10363200Y-37943212D02*
X10356806Y-37949606D01*
X10558000Y-3283033D02*
X10449114Y-3174147D01*
X10558000Y-3729800D02*
X10558000Y-3283033D01*
X10439396Y-28144179D02*
X10356806Y-28226769D01*
X10439396Y-27305000D02*
X10439396Y-28144179D01*
X3429000Y-21291000D02*
X3429000Y-20928500D01*
X10507200Y-38100000D02*
X10356806Y-37949606D01*
X10200596Y-46969600D02*
X10159996Y-46929000D01*
X10549133Y-19628917D02*
X10859204Y-19938988D01*
X8920000Y-46929000D02*
X11135400Y-46929000D01*
X10634196Y-28952000D02*
X10634196Y-28504159D01*
X4728583Y-19628917D02*
X10549133Y-19628917D01*
X10657600Y-13675600D02*
X10657600Y-13208000D01*
D22*
%TO.N,/WY_{0}*%
X10554000Y-9575800D02*
X9444616Y-9575800D01*
X9444616Y-9575800D02*
X9110255Y-9910161D01*
%TO.N,/~{WY_{1}}*%
X11821400Y-14975600D02*
X12192000Y-14605000D01*
X11320000Y-22606000D02*
X12446004Y-22606000D01*
X12446004Y-22606000D02*
X12827000Y-22225004D01*
X10657600Y-14975600D02*
X11821400Y-14975600D01*
%TO.N,/~{WY_{0}}*%
X8545263Y-14325600D02*
X7569599Y-15301264D01*
X10657600Y-14325600D02*
X8545263Y-14325600D01*
%TO.N,/WY_{1}*%
X10634196Y-34802000D02*
X9226306Y-34802000D01*
X9002000Y-23256000D02*
X8763000Y-23495000D01*
X9226306Y-34802000D02*
X9166806Y-34861500D01*
X11320000Y-23256000D02*
X9002000Y-23256000D01*
%TO.N,/~{WY_{3}}*%
X10657600Y-16275600D02*
X11703596Y-16275600D01*
X11703596Y-16275600D02*
X12064996Y-16637000D01*
X12440946Y-23906000D02*
X12589413Y-23757533D01*
X11320000Y-23906000D02*
X12440946Y-23906000D01*
%TO.N,/~{WY_{2}}*%
X11320000Y-21306000D02*
X12475994Y-21306000D01*
X10657600Y-15625600D02*
X12146768Y-15625600D01*
X12146768Y-15625600D02*
X12160474Y-15639306D01*
X12475994Y-21306000D02*
X12572994Y-21209000D01*
D21*
%TO.N,GND*%
X4631200Y-41331000D02*
X4631200Y-41981000D01*
X7955000Y-47568196D02*
X7955000Y-46401000D01*
X2692400Y-49784000D02*
X2692400Y-47391943D01*
X4085400Y-3729800D02*
X3759200Y-3403600D01*
X5444000Y-24556000D02*
X6522000Y-24556000D01*
X7874000Y-49784000D02*
X2692400Y-49784000D01*
X3933000Y-34802000D02*
X3556002Y-35178998D01*
X9420800Y-11026200D02*
X11355097Y-11026200D01*
X5790600Y-40031000D02*
X6440600Y-39381000D01*
X8240402Y-47853598D02*
X9912088Y-47853598D01*
X1553200Y-3730000D02*
X-1004000Y-3730000D01*
X3429000Y-23658500D02*
X4326500Y-24556000D01*
X16459200Y-14020800D02*
X15240000Y-15240000D01*
X3759200Y-3403600D02*
X1879600Y-3403600D01*
X15922000Y-44450000D02*
X16430000Y-44958000D01*
X5444000Y-23256000D02*
X3494000Y-23256000D01*
X5444000Y-21956000D02*
X4394097Y-21956000D01*
X1879600Y-3403600D02*
X1553200Y-3730000D01*
X10261600Y-49784000D02*
X7874000Y-49784000D01*
X11074402Y-48869600D02*
X10175643Y-47970841D01*
X8001004Y-37973000D02*
X7924804Y-37973000D01*
X6440600Y-39381000D02*
X10507200Y-39381000D01*
X4631200Y-43281000D02*
X4631200Y-43931000D01*
X8539396Y-27401604D02*
X7697923Y-28243077D01*
X4631200Y-44581000D02*
X6777802Y-44581000D01*
X13303085Y-45974000D02*
X14827085Y-44450000D01*
X15652915Y-49530000D02*
X11836400Y-49530000D01*
X11836400Y-49530000D02*
X11176000Y-48869600D01*
X8330400Y-2540800D02*
X8330400Y-2972600D01*
X16459200Y-2076285D02*
X16459200Y-14020800D01*
X4682000Y-3729800D02*
X4085400Y-3729800D01*
X7955000Y-46401000D02*
X8382000Y-45974000D01*
X7573200Y-3729800D02*
X8255000Y-3048000D01*
X7874000Y-48220000D02*
X8240402Y-47853598D01*
X4631200Y-40681000D02*
X4631200Y-41331000D01*
X6777802Y-44581000D02*
X6781802Y-44577000D01*
X8432000Y-37542004D02*
X8001004Y-37973000D01*
X14913600Y-1350000D02*
X15732915Y-1350000D01*
X4631200Y-42631000D02*
X4631200Y-43281000D01*
X9912088Y-47853598D02*
X10029331Y-47970841D01*
X6989000Y-28952000D02*
X7697923Y-28243077D01*
X4631200Y-40031000D02*
X4631200Y-40681000D01*
X8382000Y-45974000D02*
X13303085Y-45974000D01*
X-1190000Y-3916000D02*
X-1190000Y-14050000D01*
X14531400Y-967800D02*
X14913600Y-1350000D01*
X4326500Y-24556000D02*
X5444000Y-24556000D01*
X11355097Y-11026200D02*
X15240000Y-14911103D01*
X3429000Y-23191000D02*
X3429000Y-23658500D01*
X4758196Y-34802000D02*
X3933000Y-34802000D01*
X8330400Y-2082800D02*
X9445400Y-967800D01*
X4394097Y-21956000D02*
X3429000Y-22921097D01*
X16430000Y-48752915D02*
X15652915Y-49530000D01*
X2692400Y-47391943D02*
X3145943Y-46938400D01*
X8940000Y-11507000D02*
X9420800Y-11026200D01*
X4631200Y-40031000D02*
X5790600Y-40031000D01*
X9445400Y-967800D02*
X14531400Y-967800D01*
X6522000Y-24556000D02*
X6858000Y-24892000D01*
X4631200Y-43931000D02*
X4631200Y-44581000D01*
X7874000Y-49784000D02*
X7874000Y-48220000D01*
X6320000Y-47879000D02*
X4877600Y-47879000D01*
X4758196Y-28952000D02*
X6989000Y-28952000D01*
X3145943Y-46938400D02*
X3937000Y-46938400D01*
X4682000Y-3729800D02*
X7573200Y-3729800D01*
X4631200Y-41981000D02*
X4631200Y-42631000D01*
X-1190000Y-14050000D02*
X0Y-15240000D01*
X4877600Y-47879000D02*
X3937000Y-46938400D01*
X15732915Y-1350000D02*
X16459200Y-2076285D01*
X8240402Y-47853598D02*
X7955000Y-47568196D01*
X-1004000Y-3730000D02*
X-1190000Y-3916000D01*
X16430000Y-44958000D02*
X16430000Y-48752915D01*
X8330400Y-2972600D02*
X8255000Y-3048000D01*
X11176000Y-48869600D02*
X10261600Y-49784000D01*
X14827085Y-44450000D02*
X15922000Y-44450000D01*
X10175643Y-47970841D02*
X10029331Y-47970841D01*
X8940000Y-12141200D02*
X8940000Y-11507000D01*
%TO.N,5V*%
X3937000Y-48838400D02*
X6310600Y-48838400D01*
X7275000Y-48829000D02*
X7285000Y-48819000D01*
X7254200Y-46929000D02*
X7254200Y-46281556D01*
X7285000Y-48819000D02*
X7285000Y-46959800D01*
X7285000Y-46959800D02*
X7254200Y-46929000D01*
X2336800Y1117600D02*
X2438410Y1219210D01*
X7254200Y-46929000D02*
X6320000Y-46929000D01*
X2438410Y1219210D02*
X13462000Y1219210D01*
X13026000Y-45394000D02*
X15240000Y-43180000D01*
X8141756Y-45394000D02*
X13026000Y-45394000D01*
X7254200Y-46281556D02*
X8141756Y-45394000D01*
X6320000Y-48829000D02*
X7275000Y-48829000D01*
D22*
%TO.N,~{Select}*%
X4807600Y-15625600D02*
X5989587Y-15625600D01*
X5969000Y-2540000D02*
X6223000Y-2794000D01*
X4631200Y-37482000D02*
X4673600Y-37439600D01*
X5989587Y-15625600D02*
X5989599Y-15625588D01*
X4631200Y-38731000D02*
X4631200Y-37482000D01*
X0Y-2540000D02*
X5969000Y-2540000D01*
%TO.N,H2*%
X10507200Y-41331000D02*
X14549000Y-41331000D01*
X14549000Y-41331000D02*
X15240000Y-40640000D01*
%TO.N,H1*%
X10507200Y-40681000D02*
X7425950Y-40681000D01*
X7425950Y-40681000D02*
X6431840Y-41675110D01*
%TO.N,H0*%
X7112000Y-40005000D02*
X6477000Y-40640000D01*
X0Y-48260000D02*
X1823984Y-46436016D01*
X1823984Y-46436016D02*
X2531098Y-46436016D01*
X10481200Y-40005000D02*
X7112000Y-40005000D01*
%TO.N,D7*%
X4682000Y-4379800D02*
X3148806Y-4379800D01*
X0Y-22860000D02*
X1363243Y-22860000D01*
X3948000Y-29602000D02*
X3578000Y-29232000D01*
X1363243Y-22860000D02*
X3195714Y-24692471D01*
X3578000Y-29232000D02*
X3578000Y-25074757D01*
X4758196Y-29602000D02*
X3948000Y-29602000D01*
X3578000Y-25074757D02*
X3195714Y-24692471D01*
X3148806Y-4379800D02*
X3098800Y-4329794D01*
%TO.N,D6*%
X4017187Y-30252000D02*
X2878000Y-29112813D01*
X4758196Y-30252000D02*
X4017187Y-30252000D01*
X2878000Y-29112813D02*
X2878000Y-25654000D01*
%TO.N,D5*%
X4682000Y-5679800D02*
X2001919Y-5679800D01*
X4758196Y-30902000D02*
X3767000Y-30902000D01*
X0Y-27940000D02*
X1270000Y-29210000D01*
X3767000Y-30902000D02*
X2075000Y-29210000D01*
X2001919Y-5679800D02*
X1768659Y-5913060D01*
X1270000Y-29210000D02*
X2075000Y-29210000D01*
%TO.N,D4*%
X4682000Y-6329800D02*
X3744500Y-6329800D01*
X3239751Y-6834549D02*
X1241600Y-6834549D01*
X3744500Y-6329800D02*
X3239751Y-6834549D01*
%TO.N,D3*%
X5619500Y-6979800D02*
X6019606Y-6579694D01*
X4682000Y-6979800D02*
X5619500Y-6979800D01*
X6019606Y-6579694D02*
X6019606Y-6347836D01*
%TO.N,D2*%
X6001340Y-7629800D02*
X6324160Y-7306980D01*
X4682000Y-7629800D02*
X6001340Y-7629800D01*
%TO.N,D1*%
X4758196Y-33502000D02*
X6375999Y-33502000D01*
X6375999Y-33502000D02*
X6422122Y-33455877D01*
X6279601Y-8279800D02*
X6340000Y-8340199D01*
X4682000Y-8279800D02*
X6279601Y-8279800D01*
%TO.N,D0*%
X4682000Y-8929800D02*
X5756597Y-8929800D01*
X5756597Y-8929800D02*
X6148489Y-9321692D01*
%TO.N,Device_{(S)} 2MB Select_{1}*%
X11574090Y-8929800D02*
X12403000Y-9758710D01*
X10558000Y-8929800D02*
X11574090Y-8929800D01*
%TO.N,Device_{(S)} 2MB Select_{0}*%
X10558000Y-8279800D02*
X12446800Y-8279800D01*
X12446800Y-8279800D02*
X12803000Y-8636000D01*
%TO.N,Device_{(T)} 2MB Select_{1}*%
X10558000Y-7629800D02*
X13130487Y-7629800D01*
X13130487Y-7629800D02*
X13203000Y-7702313D01*
%TO.N,Device_{(T)} 2MB Select_{0}*%
X14110637Y-7620000D02*
X15240000Y-7620000D01*
X13492950Y-7002313D02*
X14110637Y-7620000D01*
X10580513Y-7002313D02*
X13492950Y-7002313D01*
%TO.N,Device_{(U)} 2MB Select_{1}*%
X11495500Y-6329800D02*
X11768013Y-6602313D01*
X10558000Y-6329800D02*
X11495500Y-6329800D01*
X11768013Y-6602313D02*
X14251062Y-6602313D01*
%TO.N,Device_{(U)} 2MB Select_{0}*%
X10558000Y-5679800D02*
X11992856Y-5679800D01*
X11992856Y-5679800D02*
X12016321Y-5656335D01*
%TO.N,Device_{(V)} 2MB Select_{1}*%
X10558000Y-5029800D02*
X11607200Y-5029800D01*
X11992580Y-4644420D02*
X12319000Y-4644420D01*
X11607200Y-5029800D02*
X11992580Y-4644420D01*
%TO.N,Device_{(V)} 2MB Select_{0}*%
X11495500Y-4379800D02*
X11953128Y-3922172D01*
X11953128Y-3922172D02*
X11953128Y-3713752D01*
X10558000Y-4379800D02*
X11495500Y-4379800D01*
%TO.N,A0*%
X4807600Y-13675600D02*
X3515600Y-13675600D01*
X3515600Y-13675600D02*
X0Y-10160000D01*
%TO.N,A1*%
X0Y-12700000D02*
X1625600Y-14325600D01*
X1625600Y-14325600D02*
X4807600Y-14325600D01*
%TO.N,A2*%
X4807600Y-14975600D02*
X2804400Y-14975600D01*
X2804400Y-14975600D02*
X0Y-17780000D01*
%TO.N,~{WD}*%
X4044400Y-16275600D02*
X0Y-20320000D01*
X4807600Y-16275600D02*
X4044400Y-16275600D01*
%TO.N,Device_{(W)} 2MB Select_{1}*%
X10634196Y-34152000D02*
X11775259Y-34152000D01*
X11775259Y-34152000D02*
X11877105Y-34253846D01*
%TO.N,Device_{(W)} 2MB Select_{0}*%
X10634196Y-33502000D02*
X12390599Y-33502000D01*
X12390599Y-33502000D02*
X12454922Y-33437677D01*
%TO.N,Device_{(X)} 2MB Select_{1}*%
X10634196Y-32852000D02*
X11896403Y-32852000D01*
X11896403Y-32852000D02*
X12298403Y-32450000D01*
%TO.N,Device_{(X)} 2MB Select_{0}*%
X13211585Y-31750000D02*
X13353836Y-31892251D01*
X13954749Y-31892251D02*
X15240000Y-30607000D01*
X10634196Y-32202000D02*
X11498909Y-32202000D01*
X11498909Y-32202000D02*
X11950909Y-31750000D01*
X11950909Y-31750000D02*
X13211585Y-31750000D01*
X13353836Y-31892251D02*
X13954749Y-31892251D01*
%TO.N,Device_{(Y)} 2MB Select_{1}*%
X9454002Y-31552000D02*
X9398000Y-31495998D01*
X10634196Y-31552000D02*
X9454002Y-31552000D01*
X10058400Y-35407600D02*
X9398000Y-36068000D01*
X15087600Y-35407600D02*
X10058400Y-35407600D01*
%TO.N,Device_{(Y)} 2MB Select_{0}*%
X10672341Y-30940145D02*
X13391680Y-30940145D01*
X13391680Y-30940145D02*
X13643786Y-31192251D01*
%TO.N,Device_{(Z)} 2MB Select_{1}*%
X10634196Y-30252000D02*
X13326929Y-30252000D01*
X13326929Y-30252000D02*
X13549872Y-30029057D01*
%TO.N,Device_{(Z)} 2MB Select_{0}*%
X12593636Y-29602000D02*
X12711161Y-29484475D01*
X10634196Y-29602000D02*
X12593636Y-29602000D01*
%TO.N,WY_{3}*%
X9418022Y-24556000D02*
X9336022Y-24638000D01*
X11320000Y-24556000D02*
X9418022Y-24556000D01*
%TO.N,WY_{2}*%
X11320000Y-21956000D02*
X9922259Y-21956000D01*
X6349996Y0D02*
X7366000Y-1016004D01*
X9922259Y-21956000D02*
X9810255Y-21843996D01*
X0Y0D02*
X6349996Y0D01*
%TD*%
M02*
