%TF.GenerationSoftware,KiCad,Pcbnew,9.0.2*%
%TF.CreationDate,2025-08-22T22:57:49+02:00*%
%TF.ProjectId,Blitter Board,426c6974-7465-4722-9042-6f6172642e6b,V0*%
%TF.SameCoordinates,Original*%
%TF.FileFunction,Profile,NP*%
%FSLAX46Y46*%
G04 Gerber Fmt 4.6, Leading zero omitted, Abs format (unit mm)*
G04 Created by KiCad (PCBNEW 9.0.2) date 2025-08-22 22:57:49*
%MOMM*%
%LPD*%
G01*
G04 APERTURE LIST*
%TA.AperFunction,Profile*%
%ADD10C,0.100000*%
%TD*%
G04 APERTURE END LIST*
D10*
X213926800Y-5080001D02*
X137020800Y-5080000D01*
X-29914213Y0D02*
X-29921200Y100076000D01*
X-29929199Y100076000D02*
G75*
G02*
X-24849199Y105156000I5080002J-2D01*
G01*
X213918800Y105156000D02*
G75*
G02*
X218998800Y100076000I0J-5080000D01*
G01*
X219006800Y-1D02*
G75*
G02*
X213926800Y-5080000I-5080000J1D01*
G01*
X218998800Y-1D02*
X218991813Y100076000D01*
X213918800Y105156000D02*
X-24849199Y105156000D01*
X-7366000Y-5080000D02*
X-24841200Y-5080000D01*
X-24841200Y-5080000D02*
G75*
G02*
X-29921200Y0I2J5080002D01*
G01*
%TO.C,J5*%
X-6866000Y3333000D02*
X-6866000Y-4580000D01*
X-6866000Y-4580000D02*
X-7366000Y-5080000D01*
X-3556000Y4399799D02*
X-5788952Y4399799D01*
X-2478952Y3333000D02*
X-2478952Y-4580000D01*
X-2478952Y-4580000D02*
X-1978952Y-5080000D01*
X78174048Y-5080000D02*
X-1978952Y-5080000D01*
X78674048Y3320000D02*
X78674048Y-4580000D01*
X78674048Y-4580000D02*
X78174048Y-5080000D01*
X79751096Y4386799D02*
X82931000Y4386799D01*
X84008048Y3320000D02*
X84008048Y-4580000D01*
X84008048Y-4580000D02*
X84508048Y-5080000D01*
X131633048Y-5080000D02*
X84508048Y-5080000D01*
X132133048Y3320000D02*
X132133048Y-4580000D01*
X132133048Y-4580000D02*
X131633048Y-5080000D01*
X133210096Y4386799D02*
X135443048Y4386799D01*
X136520096Y3320000D02*
X136520096Y-4580000D01*
X136520096Y-4580000D02*
X137020096Y-5080000D01*
X-6866000Y3333000D02*
G75*
G02*
X-5788952Y4399799I1071932J-5133D01*
G01*
X-3556000Y4399799D02*
G75*
G02*
X-2478951Y3333000I5130J-1071919D01*
G01*
X78674048Y3320000D02*
G75*
G02*
X79751096Y4386752I1071852J-5100D01*
G01*
X82931000Y4386799D02*
G75*
G02*
X84008099Y3320000I5100J-1071999D01*
G01*
X132133048Y3320000D02*
G75*
G02*
X133210096Y4386752I1071852J-5100D01*
G01*
X135443048Y4386799D02*
G75*
G02*
X136520099Y3320000I5152J-1071899D01*
G01*
%TD*%
M02*
