%TF.GenerationSoftware,KiCad,Pcbnew,7.0.5*%
%TF.CreationDate,2023-12-18T16:36:39+02:00*%
%TF.ProjectId,Clock LTC6903,436c6f63-6b20-44c5-9443-363930332e6b,rev?*%
%TF.SameCoordinates,Original*%
%TF.FileFunction,Copper,L1,Top*%
%TF.FilePolarity,Positive*%
%FSLAX46Y46*%
G04 Gerber Fmt 4.6, Leading zero omitted, Abs format (unit mm)*
G04 Created by KiCad (PCBNEW 7.0.5) date 2023-12-18 16:36:39*
%MOMM*%
%LPD*%
G01*
G04 APERTURE LIST*
G04 Aperture macros list*
%AMRoundRect*
0 Rectangle with rounded corners*
0 $1 Rounding radius*
0 $2 $3 $4 $5 $6 $7 $8 $9 X,Y pos of 4 corners*
0 Add a 4 corners polygon primitive as box body*
4,1,4,$2,$3,$4,$5,$6,$7,$8,$9,$2,$3,0*
0 Add four circle primitives for the rounded corners*
1,1,$1+$1,$2,$3*
1,1,$1+$1,$4,$5*
1,1,$1+$1,$6,$7*
1,1,$1+$1,$8,$9*
0 Add four rect primitives between the rounded corners*
20,1,$1+$1,$2,$3,$4,$5,0*
20,1,$1+$1,$4,$5,$6,$7,0*
20,1,$1+$1,$6,$7,$8,$9,0*
20,1,$1+$1,$8,$9,$2,$3,0*%
G04 Aperture macros list end*
%TA.AperFunction,SMDPad,CuDef*%
%ADD10R,1.425000X0.450000*%
%TD*%
%TA.AperFunction,ComponentPad*%
%ADD11R,1.700000X1.700000*%
%TD*%
%TA.AperFunction,ComponentPad*%
%ADD12O,1.700000X1.700000*%
%TD*%
%TA.AperFunction,SMDPad,CuDef*%
%ADD13RoundRect,0.250000X0.250000X0.475000X-0.250000X0.475000X-0.250000X-0.475000X0.250000X-0.475000X0*%
%TD*%
%TA.AperFunction,Conductor*%
%ADD14C,0.380000*%
%TD*%
G04 APERTURE END LIST*
D10*
%TO.P,IC1,1,GND*%
%TO.N,/GND*%
X125116000Y-55794000D03*
%TO.P,IC1,2,SDI*%
%TO.N,/SDI*%
X125116000Y-56444000D03*
%TO.P,IC1,3,SCK*%
%TO.N,/SCK*%
X125116000Y-57094000D03*
%TO.P,IC1,4,~{SEN}*%
%TO.N,/~{SEN}*%
X125116000Y-57744000D03*
%TO.P,IC1,5,~{CLK}*%
%TO.N,unconnected-(IC1-~{CLK}-Pad5)*%
X129540000Y-57744000D03*
%TO.P,IC1,6,CLK*%
%TO.N,/CLK*%
X129540000Y-57094000D03*
%TO.P,IC1,7,OE*%
%TO.N,/3.3V*%
X129540000Y-56444000D03*
%TO.P,IC1,8,V+*%
X129540000Y-55794000D03*
%TD*%
D11*
%TO.P,J3,1,Pin_1*%
%TO.N,/SDI*%
X119380000Y-53340000D03*
D12*
%TO.P,J3,2,Pin_2*%
%TO.N,/SCK*%
X119380000Y-55880000D03*
%TO.P,J3,3,Pin_3*%
%TO.N,/~{SEN}*%
X119380000Y-58420000D03*
%TD*%
D13*
%TO.P,C2,1*%
%TO.N,/3.3V*%
X128188000Y-53594000D03*
%TO.P,C2,2*%
%TO.N,/GND*%
X126288000Y-53594000D03*
%TD*%
%TO.P,C1,1*%
%TO.N,/3.3V*%
X128188000Y-51308000D03*
%TO.P,C1,2*%
%TO.N,/GND*%
X126288000Y-51308000D03*
%TD*%
D11*
%TO.P,J1,1,Pin_1*%
%TO.N,/~{Reset}*%
X114300000Y-53340000D03*
D12*
%TO.P,J1,2,Pin_2*%
%TO.N,unconnected-(J1-Pin_2-Pad2)*%
X114300000Y-55880000D03*
%TO.P,J1,3,Pin_3*%
%TO.N,/GND*%
X114300000Y-58420000D03*
%TD*%
D11*
%TO.P,J2,1,Pin_1*%
%TO.N,/3.3V*%
X132080000Y-53340000D03*
D12*
%TO.P,J2,2,Pin_2*%
%TO.N,unconnected-(J2-Pin_2-Pad2)*%
X132080000Y-55880000D03*
%TO.P,J2,3,Pin_3*%
%TO.N,/CLK*%
X132080000Y-58420000D03*
%TD*%
D14*
%TO.N,/GND*%
X126288000Y-51308000D02*
X126288000Y-53594000D01*
X114300000Y-58420000D02*
X113060000Y-57180000D01*
X126288000Y-53594000D02*
X125116000Y-54766000D01*
X113060000Y-52167000D02*
X113919000Y-51308000D01*
X113060000Y-57180000D02*
X113060000Y-52167000D01*
X113919000Y-51308000D02*
X126288000Y-51308000D01*
X125116000Y-54766000D02*
X125116000Y-55794000D01*
%TO.N,/3.3V*%
X128442000Y-53340000D02*
X132080000Y-53340000D01*
X128188000Y-53594000D02*
X128188000Y-51308000D01*
X129540000Y-56444000D02*
X129540000Y-55794000D01*
X129540000Y-54946000D02*
X128188000Y-53594000D01*
X129540000Y-55794000D02*
X129540000Y-54946000D01*
%TO.N,/CLK*%
X130627000Y-57094000D02*
X131953000Y-58420000D01*
X129540000Y-57094000D02*
X130627000Y-57094000D01*
%TO.N,/SDI*%
X119380000Y-53340000D02*
X122484000Y-56444000D01*
X122484000Y-56444000D02*
X125116000Y-56444000D01*
%TO.N,/SCK*%
X125116000Y-57094000D02*
X120594000Y-57094000D01*
X120594000Y-57094000D02*
X119380000Y-55880000D01*
%TO.N,/~{SEN}*%
X120056000Y-57744000D02*
X119380000Y-58420000D01*
X125116000Y-57744000D02*
X120056000Y-57744000D01*
%TD*%
%TA.AperFunction,Conductor*%
%TO.N,/GND*%
G36*
X130811351Y-48510556D02*
G01*
X131228236Y-48528757D01*
X131233589Y-48529226D01*
X131645967Y-48583516D01*
X131651268Y-48584451D01*
X132057331Y-48674473D01*
X132062529Y-48675866D01*
X132459208Y-48800938D01*
X132464288Y-48802787D01*
X132485202Y-48811450D01*
X132848552Y-48961954D01*
X132853422Y-48964225D01*
X133222350Y-49156277D01*
X133227028Y-49158979D01*
X133577807Y-49382449D01*
X133582235Y-49385549D01*
X133912203Y-49638743D01*
X133916335Y-49642211D01*
X134079798Y-49791996D01*
X134222989Y-49923206D01*
X134226801Y-49927019D01*
X134395212Y-50110808D01*
X134507780Y-50233654D01*
X134511259Y-50237799D01*
X134764450Y-50567764D01*
X134767549Y-50572190D01*
X134991015Y-50922960D01*
X134993713Y-50927632D01*
X135185763Y-51296555D01*
X135188050Y-51301460D01*
X135347209Y-51685705D01*
X135349060Y-51690790D01*
X135474126Y-52087447D01*
X135475527Y-52092674D01*
X135565545Y-52498722D01*
X135566485Y-52504051D01*
X135620771Y-52916390D01*
X135621243Y-52921781D01*
X135639439Y-53338553D01*
X135639498Y-53341257D01*
X135639498Y-58418644D01*
X135639439Y-58421348D01*
X135621238Y-58838213D01*
X135620766Y-58843604D01*
X135566481Y-59255943D01*
X135565541Y-59261272D01*
X135475522Y-59667323D01*
X135474122Y-59672550D01*
X135349058Y-60069201D01*
X135347207Y-60074286D01*
X135188047Y-60458534D01*
X135185760Y-60463438D01*
X134993721Y-60832340D01*
X134991015Y-60837026D01*
X134767545Y-61187805D01*
X134764441Y-61192238D01*
X134511262Y-61522188D01*
X134507783Y-61526333D01*
X134226799Y-61832973D01*
X134222973Y-61836799D01*
X133916333Y-62117783D01*
X133912188Y-62121262D01*
X133582238Y-62374441D01*
X133577805Y-62377545D01*
X133227026Y-62601015D01*
X133222340Y-62603721D01*
X132853438Y-62795760D01*
X132848534Y-62798047D01*
X132464286Y-62957207D01*
X132459201Y-62959058D01*
X132062550Y-63084122D01*
X132057323Y-63085522D01*
X131651272Y-63175541D01*
X131645943Y-63176481D01*
X131233604Y-63230766D01*
X131228213Y-63231238D01*
X130811349Y-63249439D01*
X130808645Y-63249498D01*
X115571348Y-63249498D01*
X115568644Y-63249439D01*
X115151781Y-63231240D01*
X115146390Y-63230768D01*
X114734052Y-63176482D01*
X114728723Y-63175542D01*
X114322674Y-63085524D01*
X114317455Y-63084126D01*
X114060473Y-63003100D01*
X113920791Y-62959058D01*
X113915706Y-62957207D01*
X113694946Y-62865765D01*
X113531455Y-62798044D01*
X113526565Y-62795764D01*
X113157634Y-62603710D01*
X113152967Y-62601015D01*
X112802190Y-62377545D01*
X112797766Y-62374447D01*
X112763352Y-62348040D01*
X112467798Y-62121253D01*
X112463663Y-62117783D01*
X112157023Y-61836799D01*
X112153197Y-61832973D01*
X111872213Y-61526333D01*
X111868745Y-61522201D01*
X111615551Y-61192233D01*
X111612451Y-61187805D01*
X111388982Y-60837027D01*
X111386276Y-60832341D01*
X111194228Y-60463421D01*
X111191957Y-60458551D01*
X111032789Y-60074285D01*
X111030940Y-60069204D01*
X111030939Y-60069201D01*
X110905867Y-59672524D01*
X110904475Y-59667323D01*
X110814454Y-59261267D01*
X110813519Y-59255966D01*
X110759229Y-58843588D01*
X110758760Y-58838235D01*
X110740554Y-58421252D01*
X110740527Y-58420000D01*
X118274785Y-58420000D01*
X118293602Y-58623082D01*
X118349417Y-58819247D01*
X118349422Y-58819260D01*
X118440327Y-59001821D01*
X118563237Y-59164581D01*
X118713958Y-59301980D01*
X118713960Y-59301982D01*
X118813141Y-59363392D01*
X118887363Y-59409348D01*
X119077544Y-59483024D01*
X119278024Y-59520500D01*
X119278026Y-59520500D01*
X119481974Y-59520500D01*
X119481976Y-59520500D01*
X119682456Y-59483024D01*
X119872637Y-59409348D01*
X120046041Y-59301981D01*
X120196764Y-59164579D01*
X120319673Y-59001821D01*
X120410582Y-58819250D01*
X120466397Y-58623083D01*
X120485215Y-58420000D01*
X120475943Y-58319940D01*
X120489358Y-58251372D01*
X120537715Y-58200940D01*
X120599414Y-58184500D01*
X124237515Y-58184500D01*
X124294131Y-58201124D01*
X124294476Y-58200293D01*
X124302211Y-58203497D01*
X124304554Y-58204185D01*
X124305727Y-58204953D01*
X124305759Y-58204966D01*
X124378821Y-58219499D01*
X124378824Y-58219500D01*
X124378826Y-58219500D01*
X125853176Y-58219500D01*
X125853177Y-58219499D01*
X125926240Y-58204966D01*
X126009101Y-58149601D01*
X126064466Y-58066740D01*
X126079000Y-57993674D01*
X126079000Y-57494326D01*
X126068828Y-57443188D01*
X126068828Y-57394810D01*
X126079000Y-57343674D01*
X126079000Y-56844326D01*
X126079000Y-56844325D01*
X126079000Y-56844323D01*
X126078999Y-56844321D01*
X126068829Y-56793190D01*
X126068829Y-56744807D01*
X126079000Y-56693676D01*
X126079000Y-56194323D01*
X126078999Y-56194321D01*
X126064467Y-56121264D01*
X126064466Y-56121260D01*
X126038957Y-56083083D01*
X126009101Y-56038399D01*
X125933234Y-55987707D01*
X125926239Y-55983033D01*
X125926235Y-55983032D01*
X125853177Y-55968500D01*
X125853174Y-55968500D01*
X124378826Y-55968500D01*
X124378823Y-55968500D01*
X124305759Y-55983033D01*
X124294476Y-55987707D01*
X124293973Y-55986494D01*
X124239731Y-56003480D01*
X124237515Y-56003500D01*
X122717823Y-56003500D01*
X122650784Y-55983815D01*
X122630142Y-55967181D01*
X120779832Y-54116870D01*
X127437500Y-54116870D01*
X127437501Y-54116876D01*
X127443908Y-54176483D01*
X127494202Y-54311328D01*
X127494206Y-54311335D01*
X127580452Y-54426544D01*
X127580455Y-54426547D01*
X127695664Y-54512793D01*
X127695671Y-54512797D01*
X127740618Y-54529561D01*
X127830517Y-54563091D01*
X127890127Y-54569500D01*
X128485872Y-54569499D01*
X128489176Y-54569499D01*
X128556215Y-54589183D01*
X128576857Y-54605818D01*
X129063181Y-55092141D01*
X129096666Y-55153464D01*
X129099500Y-55179822D01*
X129099500Y-55194500D01*
X129079815Y-55261539D01*
X129027011Y-55307294D01*
X128975500Y-55318500D01*
X128802823Y-55318500D01*
X128729764Y-55333032D01*
X128729760Y-55333033D01*
X128646899Y-55388399D01*
X128591533Y-55471260D01*
X128591532Y-55471264D01*
X128577000Y-55544321D01*
X128577000Y-56043676D01*
X128587171Y-56094807D01*
X128587171Y-56143190D01*
X128577000Y-56194321D01*
X128577000Y-56693676D01*
X128587171Y-56744807D01*
X128587171Y-56793190D01*
X128577000Y-56844321D01*
X128577000Y-57343673D01*
X128587171Y-57394810D01*
X128587171Y-57443190D01*
X128577000Y-57494326D01*
X128577000Y-57993678D01*
X128591532Y-58066735D01*
X128591533Y-58066739D01*
X128591534Y-58066740D01*
X128646899Y-58149601D01*
X128699130Y-58184500D01*
X128729760Y-58204966D01*
X128729764Y-58204967D01*
X128802821Y-58219499D01*
X128802824Y-58219500D01*
X128802826Y-58219500D01*
X130277176Y-58219500D01*
X130277177Y-58219499D01*
X130350240Y-58204966D01*
X130433101Y-58149601D01*
X130488466Y-58066740D01*
X130503000Y-57993674D01*
X130503000Y-57892323D01*
X130522685Y-57825284D01*
X130575489Y-57779529D01*
X130644647Y-57769585D01*
X130708203Y-57798610D01*
X130714681Y-57804642D01*
X130971614Y-58061575D01*
X131005099Y-58122898D01*
X131003199Y-58183190D01*
X130993603Y-58216914D01*
X130993602Y-58216917D01*
X130974785Y-58419999D01*
X130974785Y-58420000D01*
X130993602Y-58623082D01*
X131049417Y-58819247D01*
X131049422Y-58819260D01*
X131140327Y-59001821D01*
X131263237Y-59164581D01*
X131413958Y-59301980D01*
X131413960Y-59301982D01*
X131513141Y-59363392D01*
X131587363Y-59409348D01*
X131777544Y-59483024D01*
X131978024Y-59520500D01*
X131978026Y-59520500D01*
X132181974Y-59520500D01*
X132181976Y-59520500D01*
X132382456Y-59483024D01*
X132572637Y-59409348D01*
X132746041Y-59301981D01*
X132896764Y-59164579D01*
X133019673Y-59001821D01*
X133110582Y-58819250D01*
X133166397Y-58623083D01*
X133185215Y-58420000D01*
X133175943Y-58319942D01*
X133166397Y-58216917D01*
X133139646Y-58122898D01*
X133110582Y-58020750D01*
X133019673Y-57838179D01*
X132896764Y-57675421D01*
X132896762Y-57675418D01*
X132746041Y-57538019D01*
X132746039Y-57538017D01*
X132572642Y-57430655D01*
X132572635Y-57430651D01*
X132446137Y-57381646D01*
X132382456Y-57356976D01*
X132181976Y-57319500D01*
X131978024Y-57319500D01*
X131777544Y-57356976D01*
X131777542Y-57356976D01*
X131777540Y-57356977D01*
X131662164Y-57401674D01*
X131592540Y-57407536D01*
X131530800Y-57374826D01*
X131529689Y-57373728D01*
X130958443Y-56802482D01*
X130953806Y-56797294D01*
X130933045Y-56771260D01*
X130930001Y-56767443D01*
X130930000Y-56767442D01*
X130929999Y-56767441D01*
X130882893Y-56735324D01*
X130881003Y-56733983D01*
X130852605Y-56713025D01*
X130835157Y-56700148D01*
X130835155Y-56700147D01*
X130827794Y-56696256D01*
X130820284Y-56692639D01*
X130765818Y-56675839D01*
X130763615Y-56675114D01*
X130709819Y-56656289D01*
X130701640Y-56654741D01*
X130693399Y-56653500D01*
X130693395Y-56653500D01*
X130636402Y-56653500D01*
X130634080Y-56653456D01*
X130622355Y-56653017D01*
X130556100Y-56630835D01*
X130512355Y-56576354D01*
X130503000Y-56529104D01*
X130503000Y-56194323D01*
X130502999Y-56194321D01*
X130492829Y-56143190D01*
X130492829Y-56094807D01*
X130503000Y-56043676D01*
X130503000Y-55880000D01*
X130974785Y-55880000D01*
X130993602Y-56083082D01*
X131049417Y-56279247D01*
X131049422Y-56279260D01*
X131140327Y-56461821D01*
X131263237Y-56624581D01*
X131413958Y-56761980D01*
X131413960Y-56761982D01*
X131475388Y-56800016D01*
X131587363Y-56869348D01*
X131777544Y-56943024D01*
X131978024Y-56980500D01*
X131978026Y-56980500D01*
X132181974Y-56980500D01*
X132181976Y-56980500D01*
X132382456Y-56943024D01*
X132572637Y-56869348D01*
X132746041Y-56761981D01*
X132886633Y-56633815D01*
X132896762Y-56624581D01*
X132896764Y-56624579D01*
X133019673Y-56461821D01*
X133110582Y-56279250D01*
X133166397Y-56083083D01*
X133185215Y-55880000D01*
X133166397Y-55676917D01*
X133110582Y-55480750D01*
X133019673Y-55298179D01*
X132930294Y-55179822D01*
X132896762Y-55135418D01*
X132746041Y-54998019D01*
X132746039Y-54998017D01*
X132572642Y-54890655D01*
X132572635Y-54890651D01*
X132477546Y-54853814D01*
X132382456Y-54816976D01*
X132181976Y-54779500D01*
X131978024Y-54779500D01*
X131777544Y-54816976D01*
X131777541Y-54816976D01*
X131777541Y-54816977D01*
X131587364Y-54890651D01*
X131587357Y-54890655D01*
X131413960Y-54998017D01*
X131413958Y-54998019D01*
X131263237Y-55135418D01*
X131140327Y-55298178D01*
X131049422Y-55480739D01*
X131049417Y-55480752D01*
X130993602Y-55676917D01*
X130974785Y-55879999D01*
X130974785Y-55880000D01*
X130503000Y-55880000D01*
X130503000Y-55544323D01*
X130502999Y-55544321D01*
X130488467Y-55471264D01*
X130488466Y-55471260D01*
X130433101Y-55388399D01*
X130350240Y-55333034D01*
X130350239Y-55333033D01*
X130350235Y-55333032D01*
X130277177Y-55318500D01*
X130277174Y-55318500D01*
X130104500Y-55318500D01*
X130037461Y-55298815D01*
X129991706Y-55246011D01*
X129980500Y-55194501D01*
X129980500Y-55092141D01*
X129980500Y-54974210D01*
X129980887Y-54967309D01*
X129985165Y-54929344D01*
X129974556Y-54873279D01*
X129974177Y-54871040D01*
X129966029Y-54816977D01*
X129965685Y-54814694D01*
X129965684Y-54814691D01*
X129963231Y-54806738D01*
X129960479Y-54798875D01*
X129960478Y-54798869D01*
X129933841Y-54748470D01*
X129932808Y-54746423D01*
X129908068Y-54695050D01*
X129903403Y-54688207D01*
X129898428Y-54681467D01*
X129858121Y-54641160D01*
X129856539Y-54639517D01*
X129817750Y-54597713D01*
X129810482Y-54591917D01*
X129811017Y-54591245D01*
X129798926Y-54581965D01*
X129209142Y-53992181D01*
X129175657Y-53930858D01*
X129180641Y-53861166D01*
X129222513Y-53805233D01*
X129287977Y-53780816D01*
X129296823Y-53780500D01*
X130855500Y-53780500D01*
X130922539Y-53800185D01*
X130968294Y-53852989D01*
X130979500Y-53904500D01*
X130979500Y-54214678D01*
X130994032Y-54287735D01*
X130994033Y-54287739D01*
X130994034Y-54287740D01*
X131049399Y-54370601D01*
X131132260Y-54425965D01*
X131132260Y-54425966D01*
X131132264Y-54425967D01*
X131205321Y-54440499D01*
X131205324Y-54440500D01*
X131205326Y-54440500D01*
X132954676Y-54440500D01*
X132954677Y-54440499D01*
X133027740Y-54425966D01*
X133110601Y-54370601D01*
X133165966Y-54287740D01*
X133180500Y-54214674D01*
X133180500Y-52465326D01*
X133180500Y-52465325D01*
X133180500Y-52465323D01*
X133180499Y-52465321D01*
X133165967Y-52392264D01*
X133165966Y-52392260D01*
X133122806Y-52327666D01*
X133110601Y-52309399D01*
X133055234Y-52272405D01*
X133027739Y-52254033D01*
X133027735Y-52254032D01*
X132954677Y-52239500D01*
X132954674Y-52239500D01*
X131205326Y-52239500D01*
X131205323Y-52239500D01*
X131132264Y-52254032D01*
X131132260Y-52254033D01*
X131049399Y-52309399D01*
X130994033Y-52392260D01*
X130994032Y-52392264D01*
X130979500Y-52465321D01*
X130979500Y-52775500D01*
X130959815Y-52842539D01*
X130907011Y-52888294D01*
X130855500Y-52899500D01*
X128960957Y-52899500D01*
X128893918Y-52879815D01*
X128861691Y-52849811D01*
X128795547Y-52761455D01*
X128678188Y-52673599D01*
X128636318Y-52617665D01*
X128628500Y-52574333D01*
X128628500Y-52327666D01*
X128648185Y-52260627D01*
X128678189Y-52228399D01*
X128680329Y-52226796D01*
X128680331Y-52226796D01*
X128795546Y-52140546D01*
X128881796Y-52025331D01*
X128932091Y-51890483D01*
X128938500Y-51830873D01*
X128938499Y-50785128D01*
X128932091Y-50725517D01*
X128888655Y-50609060D01*
X128881797Y-50590671D01*
X128881793Y-50590664D01*
X128795547Y-50475455D01*
X128795544Y-50475452D01*
X128680335Y-50389206D01*
X128680328Y-50389202D01*
X128545486Y-50338910D01*
X128545485Y-50338909D01*
X128545483Y-50338909D01*
X128485873Y-50332500D01*
X128485863Y-50332500D01*
X127890129Y-50332500D01*
X127890123Y-50332501D01*
X127830516Y-50338908D01*
X127695671Y-50389202D01*
X127695664Y-50389206D01*
X127580455Y-50475452D01*
X127580452Y-50475455D01*
X127494206Y-50590664D01*
X127494202Y-50590671D01*
X127443908Y-50725517D01*
X127437501Y-50785116D01*
X127437501Y-50785123D01*
X127437500Y-50785135D01*
X127437500Y-51830870D01*
X127437501Y-51830876D01*
X127443908Y-51890483D01*
X127494202Y-52025328D01*
X127494206Y-52025335D01*
X127544617Y-52092674D01*
X127580454Y-52140546D01*
X127695669Y-52226796D01*
X127695670Y-52226796D01*
X127697811Y-52228399D01*
X127739682Y-52284333D01*
X127747500Y-52327666D01*
X127747500Y-52574333D01*
X127727815Y-52641372D01*
X127697812Y-52673599D01*
X127580452Y-52761455D01*
X127494206Y-52876664D01*
X127494202Y-52876671D01*
X127443908Y-53011517D01*
X127437501Y-53071116D01*
X127437500Y-53071135D01*
X127437500Y-54116870D01*
X120779832Y-54116870D01*
X120516819Y-53853857D01*
X120483334Y-53792534D01*
X120480500Y-53766176D01*
X120480500Y-52465323D01*
X120480499Y-52465321D01*
X120465967Y-52392264D01*
X120465966Y-52392260D01*
X120422806Y-52327666D01*
X120410601Y-52309399D01*
X120355234Y-52272405D01*
X120327739Y-52254033D01*
X120327735Y-52254032D01*
X120254677Y-52239500D01*
X120254674Y-52239500D01*
X118505326Y-52239500D01*
X118505323Y-52239500D01*
X118432264Y-52254032D01*
X118432260Y-52254033D01*
X118349399Y-52309399D01*
X118294033Y-52392260D01*
X118294032Y-52392264D01*
X118279500Y-52465321D01*
X118279500Y-54214678D01*
X118294032Y-54287735D01*
X118294033Y-54287739D01*
X118294034Y-54287740D01*
X118349399Y-54370601D01*
X118432260Y-54425966D01*
X118432264Y-54425967D01*
X118505321Y-54440499D01*
X118505324Y-54440500D01*
X118505326Y-54440500D01*
X119806177Y-54440500D01*
X119873216Y-54460185D01*
X119893858Y-54476819D01*
X121858858Y-56441819D01*
X121892343Y-56503142D01*
X121887359Y-56572834D01*
X121845487Y-56628767D01*
X121780023Y-56653184D01*
X121771177Y-56653500D01*
X120827823Y-56653500D01*
X120760784Y-56633815D01*
X120740142Y-56617181D01*
X120460255Y-56337294D01*
X120426770Y-56275971D01*
X120428670Y-56215679D01*
X120455533Y-56121264D01*
X120466397Y-56083083D01*
X120485215Y-55880000D01*
X120466397Y-55676917D01*
X120410582Y-55480750D01*
X120319673Y-55298179D01*
X120230294Y-55179822D01*
X120196762Y-55135418D01*
X120046041Y-54998019D01*
X120046039Y-54998017D01*
X119872642Y-54890655D01*
X119872635Y-54890651D01*
X119777546Y-54853814D01*
X119682456Y-54816976D01*
X119481976Y-54779500D01*
X119278024Y-54779500D01*
X119077544Y-54816976D01*
X119077541Y-54816976D01*
X119077541Y-54816977D01*
X118887364Y-54890651D01*
X118887357Y-54890655D01*
X118713960Y-54998017D01*
X118713958Y-54998019D01*
X118563237Y-55135418D01*
X118440327Y-55298178D01*
X118349422Y-55480739D01*
X118349417Y-55480752D01*
X118293602Y-55676917D01*
X118274785Y-55879999D01*
X118274785Y-55880000D01*
X118293602Y-56083082D01*
X118349417Y-56279247D01*
X118349422Y-56279260D01*
X118440327Y-56461821D01*
X118563237Y-56624581D01*
X118713958Y-56761980D01*
X118713960Y-56761982D01*
X118775388Y-56800016D01*
X118887363Y-56869348D01*
X119077544Y-56943024D01*
X119278024Y-56980500D01*
X119278026Y-56980500D01*
X119481974Y-56980500D01*
X119481976Y-56980500D01*
X119682456Y-56943024D01*
X119706297Y-56933787D01*
X119775915Y-56927923D01*
X119837656Y-56960631D01*
X119838771Y-56961732D01*
X119986215Y-57109176D01*
X120019700Y-57170499D01*
X120014716Y-57240191D01*
X119972844Y-57296124D01*
X119932743Y-57312902D01*
X119933569Y-57315578D01*
X119916753Y-57320763D01*
X119908869Y-57323522D01*
X119908868Y-57323523D01*
X119908866Y-57323523D01*
X119908866Y-57323524D01*
X119858499Y-57350142D01*
X119856431Y-57351186D01*
X119820661Y-57368413D01*
X119751719Y-57379765D01*
X119722065Y-57372320D01*
X119682461Y-57356977D01*
X119682456Y-57356976D01*
X119481976Y-57319500D01*
X119278024Y-57319500D01*
X119077544Y-57356976D01*
X119077541Y-57356976D01*
X119077541Y-57356977D01*
X118887364Y-57430651D01*
X118887357Y-57430655D01*
X118713960Y-57538017D01*
X118713958Y-57538019D01*
X118563237Y-57675418D01*
X118440327Y-57838178D01*
X118349422Y-58020739D01*
X118349417Y-58020752D01*
X118293602Y-58216917D01*
X118274785Y-58419999D01*
X118274785Y-58420000D01*
X110740527Y-58420000D01*
X110740496Y-58418563D01*
X110740496Y-58375830D01*
X110740496Y-57170499D01*
X110740496Y-55880000D01*
X113194785Y-55880000D01*
X113213602Y-56083082D01*
X113269417Y-56279247D01*
X113269422Y-56279260D01*
X113360327Y-56461821D01*
X113483237Y-56624581D01*
X113633958Y-56761980D01*
X113633960Y-56761982D01*
X113695388Y-56800016D01*
X113807363Y-56869348D01*
X113997544Y-56943024D01*
X114198024Y-56980500D01*
X114198026Y-56980500D01*
X114401974Y-56980500D01*
X114401976Y-56980500D01*
X114602456Y-56943024D01*
X114792637Y-56869348D01*
X114966041Y-56761981D01*
X115106633Y-56633815D01*
X115116762Y-56624581D01*
X115116764Y-56624579D01*
X115239673Y-56461821D01*
X115330582Y-56279250D01*
X115386397Y-56083083D01*
X115405215Y-55880000D01*
X115386397Y-55676917D01*
X115330582Y-55480750D01*
X115239673Y-55298179D01*
X115150294Y-55179822D01*
X115116762Y-55135418D01*
X114966041Y-54998019D01*
X114966039Y-54998017D01*
X114792642Y-54890655D01*
X114792635Y-54890651D01*
X114697546Y-54853814D01*
X114602456Y-54816976D01*
X114401976Y-54779500D01*
X114198024Y-54779500D01*
X113997544Y-54816976D01*
X113997541Y-54816976D01*
X113997541Y-54816977D01*
X113807364Y-54890651D01*
X113807357Y-54890655D01*
X113633960Y-54998017D01*
X113633958Y-54998019D01*
X113483237Y-55135418D01*
X113360327Y-55298178D01*
X113269422Y-55480739D01*
X113269417Y-55480752D01*
X113213602Y-55676917D01*
X113194785Y-55879999D01*
X113194785Y-55880000D01*
X110740496Y-55880000D01*
X110740497Y-54214678D01*
X113199500Y-54214678D01*
X113214032Y-54287735D01*
X113214033Y-54287739D01*
X113214034Y-54287740D01*
X113269399Y-54370601D01*
X113352260Y-54425966D01*
X113352264Y-54425967D01*
X113425321Y-54440499D01*
X113425324Y-54440500D01*
X113425326Y-54440500D01*
X115174676Y-54440500D01*
X115174677Y-54440499D01*
X115247740Y-54425966D01*
X115330601Y-54370601D01*
X115385966Y-54287740D01*
X115400500Y-54214674D01*
X115400500Y-52465326D01*
X115400499Y-52465325D01*
X115400500Y-52465323D01*
X115400499Y-52465321D01*
X115385967Y-52392264D01*
X115385966Y-52392260D01*
X115342806Y-52327666D01*
X115330601Y-52309399D01*
X115275234Y-52272405D01*
X115247739Y-52254033D01*
X115247735Y-52254032D01*
X115174677Y-52239500D01*
X115174674Y-52239500D01*
X113425326Y-52239500D01*
X113425323Y-52239500D01*
X113352264Y-52254032D01*
X113352260Y-52254033D01*
X113269399Y-52309399D01*
X113214033Y-52392260D01*
X113214032Y-52392264D01*
X113199500Y-52465321D01*
X113199500Y-54214678D01*
X110740497Y-54214678D01*
X110740497Y-53341303D01*
X110740554Y-53338691D01*
X110758758Y-52921759D01*
X110759227Y-52916410D01*
X110813516Y-52504038D01*
X110814454Y-52498726D01*
X110904475Y-52092671D01*
X110905869Y-52087464D01*
X111030942Y-51690782D01*
X111032778Y-51685737D01*
X111191956Y-51301445D01*
X111194223Y-51296584D01*
X111386296Y-50927616D01*
X111388969Y-50922987D01*
X111612460Y-50572177D01*
X111615539Y-50567779D01*
X111868753Y-50237784D01*
X111872213Y-50233663D01*
X112153197Y-49927023D01*
X112157023Y-49923197D01*
X112463663Y-49642213D01*
X112467784Y-49638753D01*
X112797779Y-49385539D01*
X112802177Y-49382460D01*
X113152987Y-49158969D01*
X113157616Y-49156296D01*
X113526584Y-48964223D01*
X113531445Y-48961956D01*
X113915737Y-48802778D01*
X113920782Y-48800942D01*
X114317464Y-48675869D01*
X114322671Y-48674475D01*
X114728726Y-48584454D01*
X114734038Y-48583516D01*
X115146410Y-48529227D01*
X115151759Y-48528758D01*
X115568646Y-48510557D01*
X115571351Y-48510498D01*
X115665522Y-48510498D01*
X115665531Y-48510497D01*
X130808647Y-48510497D01*
X130811351Y-48510556D01*
G37*
%TD.AperFunction*%
%TD*%
M02*
